<svg id="elements" xmlns="http://www.w3.org/2000/svg" preserveAspectRatio="none" width="170" height="50" viewBox="0 0 170 50"><defs><style>.cls-1{fill:none;}.cls-2{fill:#e59c2e;}</style></defs><title>highlight-readstudentstory</title><path class="cls-1" d="M91.64,44.69H91.4C90.77,44.65,91.65,45,91.64,44.69Z"/><path class="cls-1" d="M93.61,45.09c-.28.07-.84-.17-.93.1.2.07.68-.13.69.13.28,0,.45-.18.82-.11h.47c.12,0,.09-.15-.12-.12Z"/><path class="cls-1" d="M104.37,42.58s-.18.06-.12.12S104.43,42.65,104.37,42.58Z"/><path class="cls-1" d="M93.76,42.57c.1,0,.23,0,.24-.11S93.77,42.46,93.76,42.57Z"/><path class="cls-1" d="M103,41.13c.4,0,1.05.18,1-.23a6.85,6.85,0,0,1-2,0c-.09,0-.23,0-.24.11C102,41.17,102.56,41.13,103,41.13Z"/><path class="cls-1" d="M98.57,40.36s-.18,0-.12.11S98.63,40.42,98.57,40.36Z"/><path class="cls-1" d="M101.24,41.35a.58.58,0,0,1-.13.36c.29,0,.57,0,.59-.24C101.54,41.43,101.48,41.3,101.24,41.35Z"/><path class="cls-1" d="M97.17,40.94h1.28c.22,0,.25.14.46.13s.26-.22.58-.11.55.06.82,0a1,1,0,0,0,.7.13c.2-.07.48-.06.58-.24a2,2,0,0,1-.93-.13c-.28-.05-.26.22-.58.11s-.65,0-1.16-.13c-.5,0-1.2-.13-1.52.1-.24-.24-.77-.1-1.05,0-.07,0-.14,0-.12.12h.94Z"/><path class="cls-1" d="M98.34,40c-.13,0-.33,0-.35.12C98.13,40.09,98.32,40.13,98.34,40Z"/><path class="cls-1" d="M97.06,40.34h-.24C96.19,40.29,97.08,40.67,97.06,40.34Z"/><path class="cls-1" d="M96.34,42c.35.13.21-.26.24-.47a.5.5,0,0,0,.35-.12c.13,0,.33,0,.35-.11-.18-.15-1-.25-1.17,0C96.41,41.3,96.34,41.69,96.34,42Z"/><path class="cls-1" d="M97.29,40.46c.14,0,.33,0,.35-.12C97.5,40.36,97.31,40.32,97.29,40.46Z"/><path class="cls-1" d="M96.83,40.09c.31,0,.77.25.81-.11-.35.07-1-.16-1.16.11C96.64,40.25,96.68,40.09,96.83,40.09Z"/><path class="cls-1" d="M91.11,41.33c.09,0,.23,0,.23-.12S91.11,41.21,91.11,41.33Z"/><path class="cls-1" d="M95.13,45.11s-.18,0-.12.12S95.19,45.17,95.13,45.11Z"/><path class="cls-1" d="M93.48,45.69c0,.07,0,.14-.11.11l-1.4,0h-.7c-.17.06-.6-.15-.58.11.54,0-.13.17,0,.47l.7,0c0-.14.17-.19,0-.24,0-.14-.17-.19,0-.24a15.75,15.75,0,0,1,3.14.17c0-.25.44-.11.47-.36-.33-.1-.3.17-.58.12S93.94,45.85,93.48,45.69Z"/><path class="cls-1" d="M96.18,45.12c-.1,0-.23,0-.24.12C96,45.21,96.17,45.24,96.18,45.12Z"/><path class="cls-1" d="M90.86,42.28s-.18.06-.12.12S90.92,42.35,90.86,42.28Z"/><path class="cls-1" d="M95.35,45.83c-.09,0-.23,0-.24.11S95.34,45.94,95.35,45.83Z"/><path class="cls-1" d="M96,46.32a.12.12,0,0,0-.23,0C95.94,46.3,96,46.49,96,46.32Z"/><path class="cls-1" d="M95.58,46s.18-.06.12-.12S95.52,45.89,95.58,46Z"/><path class="cls-1" d="M95.71,45.11c-.14,0-.33,0-.35.12C95.49,45.21,95.69,45.25,95.71,45.11Z"/><path class="cls-1" d="M104.5,41a.12.12,0,0,0-.23,0C104.4,41,104.45,41.2,104.5,41Z"/><path class="cls-1" d="M74.61,40.9c0,.06.09.13.12,0S74.64,40.76,74.61,40.9Z"/><path class="cls-1" d="M74.52,39.7l-.93,0c-.22,0-.25-.14-.46-.13s-.58-.12-.93.1c0-.27-.57-.07-.81-.14s-.76-.16-.81.1c1.66.38,3.1,0,4.51.46C75.12,39.73,74.82,39.72,74.52,39.7Z"/><path class="cls-1" d="M74.35,42.33v.36C74.68,42.87,74.69,42.16,74.35,42.33Z"/><path class="cls-1" d="M72.62,41.57a6.65,6.65,0,0,1-1.39-.15c-.09,0-.22,0-.23.12.22.17.66.13.92.26S72.54,42.06,72.62,41.57Z"/><path class="cls-1" d="M76.14,40.09a1.49,1.49,0,0,0,.81-.22C76.69,40,76.05,39.63,76.14,40.09Z"/><path class="cls-1" d="M71.1,42c-.1.54.5.37.81.5,0-.28,0-.45-.22-.49C71.63,42.62,71.38,41.93,71.1,42Z"/><path class="cls-1" d="M76.46,41.17c.23,0,.3-.25.59-.22s.58,0,.69.25c-.43-.1-.4.31-.59.47.27,0,.43.2.81.14.11-.39-.38-.18-.34-.49.24-.07.76.16.82-.1-.18,0-.4,0-.35-.25a11.21,11.21,0,0,1,1.39.27c.22-.22-.06-.22,0-.6-.56,0-.51-.17-1,0,0-.26-.41-.07-.58-.14,0,.25-.51,0-.58.23,0-.14-.19-.13-.35-.12s-.22.41-.59.34-.53-.19-.7.11C76,41,76.06,41.26,76.46,41.17Z"/><path class="cls-1" d="M76.11,41.29c-.32-.11-.3.16-.58.11C75.55,41.91,76.14,41.75,76.11,41.29Z"/><path class="cls-1" d="M70.2,41c.22.17.66.13.92.26.36-.16.41.07.93,0s.72.32.82-.22c-.21-.08-.69.13-.7-.14-.21-.23-.21.07-.58,0,0-.15.19-.24-.11-.24-.5-.1.09.24-.24.23l-1.27,0a8.4,8.4,0,0,0-1.27-.27c-.29,0-.57,0-.59.23A9.84,9.84,0,0,0,70.2,41Z"/><path class="cls-1" d="M74.27,40.77s-.18,0-.12.12S74.33,40.83,74.27,40.77Z"/><path class="cls-1" d="M74.23,42.57c-.17,0-.19-.21-.34-.25v.36h.23C74.18,42.68,74.25,42.67,74.23,42.57Z"/><path class="cls-1" d="M73.08,41.82c.34,0,.77,0,.93.14C74.2,41.5,72.72,41.7,73.08,41.82Z"/><path class="cls-1" d="M73.19,42.42c-.17-.07-.61.13-.58-.13.17,0,.43.05.47-.11-.36.08-.42-.13-.7-.13-.06.17-.18.3-.24.47l1.28,0C73.6,42.51,73.41,42.38,73.19,42.42Z"/><path class="cls-1" d="M77.88,40.13c.35.09.42-.12.7-.11a.94.94,0,0,0,.69.14c0-.5-.8-.14-1.15-.27a.32.32,0,0,0-.47,0C77.38,39.88,77.69,40.21,77.88,40.13Z"/><path class="cls-1" d="M73.92,40.76c-.32.1-1.09-.27-1,.22.35.09.43-.12.7-.11s.06.94.34.49C73.57,41.25,74,41,73.92,40.76Z"/><path class="cls-1" d="M94.7,42.46s-.18.06-.12.12S94.76,42.53,94.7,42.46Z"/><path class="cls-1" d="M73.33,41.35c.06.17.14,0,0,0Z"/><path class="cls-1" d="M73.33,41.35c.12-.5-.35,0,0,0Z"/><path class="cls-1" d="M91.4,45.05c.2.17.92.49,1,0C92,45.21,91.53,44.81,91.4,45.05Z"/><path class="cls-1" d="M92.8,44.83h.35c.09,0,.23,0,.23-.12H93C92.94,44.74,92.8,44.72,92.8,44.83Z"/><path class="cls-1" d="M93,41.6c-.17,0-.2-.2-.35-.24,0,.22-.13.26-.12.47C92.76,41.87,92.93,41.81,93,41.6Z"/><path class="cls-1" d="M92,41.34a.12.12,0,0,0-.23,0C91.83,41.49,91.93,41.42,92,41.34Z"/><path class="cls-1" d="M93.78,41.26c-.29,0-.36-.24-.46.11C93.47,41.53,93.67,41.45,93.78,41.26Z"/><path class="cls-1" d="M94.56,43.78c0-.07-.09-.14-.11,0S94.54,43.92,94.56,43.78Z"/><path class="cls-1" d="M91.7,40.86c-.36,0-1.17-.43-1.17.22C91,40.86,91.31,41.2,91.7,40.86Z"/><path class="cls-1" d="M94.24,41.74c-.74-.27-.31.43,0,0Z"/><path class="cls-1" d="M78,8v.24h.35C78.32,8,78.19,8,78,8Z"/><path class="cls-1" d="M86.71,40.05c-.1-.1-.33.08-.35.12C86.23,40.4,86.8,40.14,86.71,40.05Z"/><path class="cls-1" d="M79.83,41.25c.45.07.57-.2,1-.1-.11.38.17.38.34.48,0-.2-.17-.31,0-.36a3.07,3.07,0,0,0,1.75,0c.48.31,1.59,0,2.09.28l1.28,0c.58.36,1.74,0,2.2.16.17-.18.6-.09.93-.1s.09-.39.36-.35c.32.27.55.63,1.27.5,0-.37-.6-.35-.69-.25,0-.27-.09-.39-.35-.37-.5-.13-.53.24-.82.35,0-.3-.39,0-.46,0,.19-.42-.39-.08-.34-.37-.28,0-.26.22-.59.11s-1,.14-1-.26c.09,0,.23,0,.24-.11-.27,0-.5-.27-.59.11.25,0-.17.36-.24.47-.28-.23-.93-.09-1.39-.14-.47-.34-1.14,0-1.39-.39-.32-.09-.24.24-.47.24,0-.18-.28-.12-.46-.13-.16-.27-.29.14-.35-.13s.53.08.36-.35l-.82,0c-.11.22.34.41,0,.48-.07-.31-.54-.24-.69-.49-.17.51-.59-.19-1.16,0C79.89,40.91,79.58,41,79.83,41.25Z"/><path class="cls-1" d="M80,39.93c-.17.06-.59-.15-.58.11A.36.36,0,0,0,80,39.93Z"/><path class="cls-1" d="M81,40.07s-.17.06-.11.12S81.07,40.13,81,40.07Z"/><path class="cls-1" d="M80.78,40.07c-.15-.16-.43-.17-.46.11C80.49,40.16,80.74,40.23,80.78,40.07Z"/><path class="cls-1" d="M86,41.24c0-.24.17-.24.24-.36-.14,0-.07-.13,0-.24-.14,0-.33,0-.35.12C86.21,40.71,85.59,41.2,86,41.24Z"/><path class="cls-1" d="M84.26,40.73c.46.31.93-.09,1.39.14.13-.4-.36-.19-.58-.25h-.93c-.49.08-1.37-.25-1.51.21C83.12,40.62,83.67,41,84.26,40.73Z"/><path class="cls-1" d="M81.94,40.09h-.23C81.08,40,82,40.43,81.94,40.09Z"/><path class="cls-1" d="M98,42.86c.09,0,.23,0,.23-.11S98,42.75,98,42.86Z"/><path class="cls-1" d="M86.79,42c-.55-.34-.28.39,0,0Z"/><path class="cls-1" d="M83.54,41.79c.09,0,.23,0,.23-.11S83.54,41.68,83.54,41.79Z"/><path class="cls-1" d="M81.28,44.15c0-.12-.2-.15-.23,0,.17.18.8.23.7-.23C81.44,43.83,81.52,44.15,81.28,44.15Z"/><path class="cls-1" d="M86.66,42.93c-.08.32.24.23.34.36C87.08,43,87,42.86,86.66,42.93Z"/><path class="cls-1" d="M85.85,42.79c.13,0,.09.22.11.37.47.17.37-.26.7-.23C86.71,42.63,85.94,42.56,85.85,42.79Z"/><path class="cls-1" d="M78.77,41.82a5.83,5.83,0,0,1,1.62.4c0-.24-.15-.24-.22-.37a.64.64,0,0,0-.11-.36c-.22,0-.26.13-.47.11.06-.23-.52-.4-.58-.13C79.44,41.67,78.54,41.43,78.77,41.82Z"/><path class="cls-1" d="M80.5,42.7s-.18,0-.12.12S80.56,42.76,80.5,42.7Z"/><path class="cls-1" d="M87.46,43.66c.28-.22.67.16.94-.22l-1.86,0c-.26-.06-.75-.3-.82.11a2,2,0,0,1,.93.14C87,43.49,87,43.63,87.46,43.66Z"/><path class="cls-1" d="M104.38,41.51s.18-.06.12-.12S104.32,41.44,104.38,41.51Z"/><path class="cls-1" d="M81.92,41.53s-.18,0-.12.11S82,41.59,81.92,41.53Z"/><path class="cls-1" d="M87.49,41.86s-.17.06-.11.12S87.55,41.93,87.49,41.86Z"/><path class="cls-1" d="M93.83,46.29c-.15-.17-.51-.13-.82-.14s-.7-.17-.59.23a10.92,10.92,0,0,0,2.46-.08v-.12A2.43,2.43,0,0,0,93.83,46.29Z"/><path class="cls-1" d="M91.73,46.37c.13,0,.33,0,.35-.11C91.94,46.27,91.75,46.23,91.73,46.37Z"/><path class="cls-1" d="M94.88,46.3c0,.36.48-.11,0,0Z"/><path class="cls-1" d="M111.57,45.88c.09,0,.23,0,.23-.12C111.71,45.79,111.57,45.77,111.57,45.88Z"/><path class="cls-1" d="M87.72,42.35c.38.37.36-.44,0,0Z"/><path class="cls-1" d="M89.53,45.25c0-.17.14-.19,0-.35-.28,0,.07-.55-.35-.37A.51.51,0,0,0,89.53,45.25Z"/><path class="cls-1" d="M89.29,46s.17,0,.11-.12S89.23,45.91,89.29,46Z"/><path class="cls-1" d="M90.35,44.91c-.33-.1-.3.16-.58.11C89.67,45.47,90.52,45.29,90.35,44.91Z"/><path class="cls-1" d="M90.05,42.27s-.18,0-.12.12S90.11,42.33,90.05,42.27Z"/><path class="cls-1" d="M121.83,49.29c-.09,0-.23,0-.23.13C121.69,49.39,121.83,49.41,121.83,49.29Z"/><path class="cls-1" d="M140.28,43.74c-.33,0-.81-.1-.82.24C139.83,44,140.16,44,140.28,43.74Z"/><path class="cls-1" d="M161.08,25.28c-.15-.15-.35-.07-.46.13C160.78,25.56,161,25.47,161.08,25.28Z"/><path class="cls-1" d="M146.75,38.05s-.17.06-.11.12S146.81,38.11,146.75,38.05Z"/><path class="cls-1" d="M82.35,43.09c-.2-.06-.35-.16-.46,0-.59,0-.67-.16-1.17,0-.49-.21-1.34-.08-1.85-.28l-1.28,0-.69,0c-.17.06-.6-.15-.59.11,1.25.16,2.21.06,3.48.31a15.67,15.67,0,0,1,2.91.18C82.74,43,82.55,43.16,82.35,43.09Z"/><path class="cls-1" d="M137.12,42.69c-.13,0-.33,0-.35.12C136.91,42.79,137.1,42.83,137.12,42.69Z"/><path class="cls-1" d="M137.7,42.2a1,1,0,0,0-.7.13C137.07,42.57,137.76,42.47,137.7,42.2Z"/><path class="cls-1" d="M144.55,39.39c.11-.08.21-.15.24,0,.27-.07.84.15.93-.12a5.21,5.21,0,0,0-1.52-.11A1,1,0,0,0,144.55,39.39Z"/><path class="cls-1" d="M112.62,46a.33.33,0,0,0,.35-.24C112.79,45.78,112.57,45.75,112.62,46Z"/><path class="cls-1" d="M146,42.85c-.09,0-.23,0-.23.12S146,43,146,42.85Z"/><path class="cls-1" d="M141.79,43.84c.15,0,.17.15.35.12.6-.3,1.76,0,2.21-.5a23.94,23.94,0,0,1-2.68,0c-.45.24-.9-.14-1.16.37C140.79,44.08,141.49,44,141.79,43.84Z"/><path class="cls-1" d="M136.66,43.53c-.15,0-.16-.16-.35-.12C136.13,43.7,136.71,43.76,136.66,43.53Z"/><path class="cls-1" d="M85.74,42.43c.11,0,.14-.12.23-.11s.34.17.58.13c.48-.11.47,0,1,0,.12-.44-.45-.18-.69-.26l-1,0c-.28.05-.25-.22-.58-.13l-1.4,0a30.77,30.77,0,0,0-3.13-.3c-.09,0-.23,0-.24.12a.75.75,0,0,1,.35.25c.28-.07.84.16.93-.11.14,0,.26.22.35,0,.14,0,.26.22.35,0,.41,0,.28.33.69.13s.67.12,1,.14l1.4,0C85.7,42.31,85.76,42.43,85.74,42.43Z"/><path class="cls-1" d="M89.23,42.25c-.43.08-.49-.21-.92-.13-.23.17.19.51-.25.59s-.67-.27-.93,0c0,.66.57,0,.92.37,0-.18.29-.1.47-.11s.06-.59.36-.59C88.84,42.61,89.22,42.35,89.23,42.25Z"/><path class="cls-1" d="M88.76,43s.17-.05.11-.11S88.7,42.9,88.76,43Z"/><path class="cls-1" d="M120.34,41.74c0-.07-.1-.14-.12,0S120.31,41.87,120.34,41.74Z"/><path class="cls-1" d="M83.86,43.36c.53,0,.66.22,1,0,.07.07.54.29.58,0-.17-.19-.59-.12-.93-.14C84.37,43.26,83.51,43.17,83.86,43.36Z"/><path class="cls-1" d="M89.87,45.86c-.22,0-.09.39-.35.35-.31-.28-.8,0-1.17,0v-.36c-.33-.1-.31.17-.59.11s-.22-.17-.46-.12c-.6.13-.87-.13-1.29.21l1.52,0c0,.15,0,.28.23.24a10.29,10.29,0,0,0,2.45-.07c0,.15.32.15.34,0A.76.76,0,0,0,90,46.1C90,46,90.17,45.86,89.87,45.86Z"/><path class="cls-1" d="M118.94,41.73c0-.26-.41-.06-.58-.12C118.34,41.87,118.77,41.66,118.94,41.73Z"/><path class="cls-1" d="M119.87,41.74c-.33-.1-.3.16-.58.11.08-.39-.24-.19-.35-.12C118.89,42,120,42.17,119.87,41.74Z"/><path class="cls-1" d="M87,46.17l-1.63,0c-.28,0-.25-.22-.58-.13l-.81,0c-.22,0-.7-.17-.59.24.73-.1,1.87.09,2.91.05H87C87.37,46.38,87.38,46.09,87,46.17Z"/><path class="cls-1" d="M83.19,41.67c-.15,0-.22-.18-.46-.13C82.54,41.87,83.23,41.88,83.19,41.67Z"/><path class="cls-1" d="M70.52,42.25c.13,0,.18.17.23,0A.12.12,0,0,0,70.52,42.25Z"/><path class="cls-1" d="M100.28,43.73H100C99.4,43.69,100.29,44.07,100.28,43.73Z"/><path class="cls-1" d="M107.62,43.82c.13,0,.33,0,.35-.12C107.83,43.72,107.64,43.68,107.62,43.82Z"/><path class="cls-1" d="M106.21,45s-.18.06-.12.12S106.27,45.07,106.21,45Z"/><path class="cls-1" d="M100.74,43.86s.18-.06.12-.12S100.68,43.79,100.74,43.86Z"/><path class="cls-1" d="M97.11,45.13h-.23C96.24,45.09,97.13,45.47,97.11,45.13Z"/><path class="cls-1" d="M97.27,41.78c.21.14.68,0,.81.25s-.63-.1-.58.23c.29,0,.36.19.58.25,0-.1,0-.24.12-.24.33.16.57,0,.81-.23-.17,0,0-.2.12-.24a.35.35,0,0,1,.24-.36c.34,0,.59,0,.7-.23a.74.74,0,0,0-.58.12c-.12-.28-.73-.06-1-.14-.31.07-.92-.16-1,.11.11.32,1-.15.93.37C98,41.74,97.4,41.51,97.27,41.78ZM99,41.56c0,.26-.41,0-.58.11C98.55,41.27,98.65,41.62,99,41.56Zm-.7.23h.47c.11.36-.27.21-.47.23Z"/><path class="cls-1" d="M114.84,44.94H112c-.16,0-.44,0-.23.12H113a3.45,3.45,0,0,0,1.4,0c.48-.13.9.39,1.06-.11C115.2,44.72,115.13,44.93,114.84,44.94Z"/><path class="cls-1" d="M108,43.34V43a.63.63,0,0,0-.46.12C107.39,43.46,107.77,43.31,108,43.34Z"/><path class="cls-1" d="M100.54,41.22v.24h.35C100.9,41.25,100.77,41.18,100.54,41.22Z"/><path class="cls-1" d="M100,42.17c-.27,0-.24-.85-.58-.37.19.17.17.54.34.73-.09,0-.14.1-.12.24.41.19.07-.41.35-.36a2.45,2.45,0,0,1,.82-.11c-.18-.51.6,0,.58-.35-.19-.2-.68-.1-1-.14C100.32,42.08,100.2,42.2,100,42.17Z"/><path class="cls-1" d="M104.37,41.87c0,.12.06.3.12.12S104.44,41.68,104.37,41.87Z"/><path class="cls-1" d="M105.65,42.12c.11-.38-.38-.17-.46-.36,0,.17,0,.34-.12.35v.12C105.35,42.29,105.32,42,105.65,42.12Z"/><path class="cls-1" d="M105.07,42.11c-.07-.24.2-.83-.23-.72C104.68,41.41,104.76,42.17,105.07,42.11Z"/><path class="cls-1" d="M104.71,43.19c-.09,0-.23,0-.23.11S104.71,43.31,104.71,43.19Z"/><path class="cls-1" d="M106.67,45.25c.22,0,.7.17.59-.23-.33-.11-.31.16-.59.11S106.25,45.33,106.67,45.25Z"/><path class="cls-1" d="M99.91,45c-.14,0-.28,0-.23-.24-.37,0-.4.32-.82.23,0-.21-.11-.28-.35-.24-.07,0-.14,0-.12.12s.14,0,.12.12c-.38,0-1-.17-1.05.23.6-.08,1.05.15,1.4,0l1.74,0h.82c.4.11.5-.21.7,0l1.75,0c.28.06.26-.21.59-.11h.81c.24-.07.81.21.7-.23C104.15,45.23,101.91,45,99.91,45Z"/><path class="cls-1" d="M103.56,42.21c-.17,0-.14-.26-.23-.36a.81.81,0,0,1-.35-.24c0-.09,0-.24-.11-.24,0,.15-.21.11-.24.23.14,0,.28,0,.23.25a.32.32,0,0,1,.35.24C103,42.38,103.6,42.45,103.56,42.21Z"/><path class="cls-1" d="M106.24,42c-.47-.43-.28.38,0,0Z"/><path class="cls-1" d="M101.93,41.84a.63.63,0,0,0-.47.11v.36c.17,0,1,.06.58-.11C101.42,42.17,102,42.17,101.93,41.84Z"/><path class="cls-1" d="M96.66,43.81c.09,0,.23,0,.24-.12C96.8,43.72,96.67,43.69,96.66,43.81Z"/><path class="cls-1" d="M113.46,41.58c0,.16.17.23.12.48.09,0,.23,0,.23.12.2-.11.58,0,.7-.24-.08-.23-.7.07-.58-.36.35.09.42-.12.7-.11a.61.61,0,0,0,.23.6c.1-.18.37-.17.58-.24.64-.13,1.2.39,1.52-.11-.37-.08-.48,0-.58-.12s.2-.11.23-.24c-.17.06-.6-.15-.58.12.06,0,.13.09,0,.11-.49,0-1.17.27-.93-.24H113C113,41.78,113.17,41.64,113.46,41.58Z"/><path class="cls-1" d="M117.3,42.92c-.13,0-.33,0-.35.12C117.09,43,117.28,43.06,117.3,42.92Z"/><path class="cls-1" d="M115.32,42.91c.15.16.55.08.7.24,0-.34.8.11.82-.23-.25-.07-.34-.3-.7-.25C116.12,43,115.34,42.56,115.32,42.91Z"/><path class="cls-1" d="M112,41.45c-.14,0-.33,0-.35.12C111.74,41.55,111.93,41.59,112,41.45Z"/><path class="cls-1" d="M113.68,43.62c.09-.24.65,0,.7-.24a1.57,1.57,0,0,0-1,0c0-.08,0-.15-.11-.13,0,.34-.72-.1-.7.24C112.74,43.7,113.29,43.58,113.68,43.62Z"/><path class="cls-1" d="M112.06,42.17c.12,0,.14-.12.23-.12s.07.11.12.12a.87.87,0,0,0,.93-.23A11.64,11.64,0,0,0,111,42h-.46c-.13,0-.3.05-.12.12C111,42.15,111.58,42.18,112.06,42.17Z"/><path class="cls-1" d="M114.5,43.5a.69.69,0,0,1,.58.13c-.08-.33.55.08.47-.24C115.23,43.46,114.63,43.23,114.5,43.5Z"/><path class="cls-1" d="M116.6,43.28c-.09,0-.23,0-.23.11S116.6,43.39,116.6,43.28Z"/><path class="cls-1" d="M116.36,45.07c.14,0,.33,0,.35-.12C116.57,45,116.38,44.93,116.36,45.07Z"/><path class="cls-1" d="M111.12,43.36c-.14,0-.33,0-.35.12C110.91,43.46,111.1,43.5,111.12,43.36Z"/><path class="cls-1" d="M108.1,42.14c.55.34.28-.39,0,0Z"/><path class="cls-1" d="M96.17,45.84c-.18.07,0,.14,0,0Z"/><path class="cls-1" d="M107.6,45.86a7.76,7.76,0,0,0-.82-.13c-.23,0-.47.12-.7.11h-.93c-.41.09-.49-.23-.7,0a5,5,0,0,0-1.64.1c-.21-.24-.55-.06-.81,0a2.83,2.83,0,0,0-1.75,0,.65.65,0,0,0-.47-.13c-.09.09-.32.19-.35,0l-1.16,0H97.1c-.28.07-.84-.16-.93.11.39.08,1.08-.14,1.28.13-.08.66-1.23-.21-1.17.35a9.72,9.72,0,0,0,3.85-.19c.44.25.77-.09,1.4,0l1.63,0c.34,0,.36-.26.7-.23.14.22.61.11.82.25a8.34,8.34,0,0,1,2.22-.09c.81.09,1.42-.14,2,0,0-.16.29-.09.47-.11a.65.65,0,0,1,.47-.12c.59-.09.84.17,1.4.13,0-.43-.62-.23-1-.25a11.39,11.39,0,0,0-1.17,0c-.23,0-.37.11-.58.11s-.25-.13-.47-.12S107.74,45.86,107.6,45.86ZM97.8,46a.7.7,0,0,1,.58.13C98.4,46.3,97.61,46.34,97.8,46Zm.69.25c-.06-.07.09-.16.12-.12S98.53,46.26,98.49,46.23Z"/><path class="cls-1" d="M109.37,43.59a1.64,1.64,0,0,1-1.05,0C108.21,44,109.47,44,109.37,43.59Z"/><path class="cls-1" d="M114.15,43.14c.21-.14.68,0,.82-.23a2.58,2.58,0,0,1-1-.13c-.15.29-.92-.07-1,.23C113.31,43.31,113.69,42.92,114.15,43.14Z"/><path class="cls-1" d="M96.41,45.12s-.18.06-.12.12S96.47,45.18,96.41,45.12Z"/><path class="cls-1" d="M109.15,42c0-.07-.09-.14-.12,0S109.13,42.17,109.15,42Z"/><path class="cls-1" d="M110.3,43.24h1.29c.12.07.12.27.34.24,0-.48.79-.16.94-.48-.09,0-.12-.13-.23-.12s-.15.12-.12.12-.18-.11-.35-.12-.56,0-.93,0a7.43,7.43,0,0,1-2.1.11C109.12,43.49,110,43.12,110.3,43.24Z"/><path class="cls-1" d="M110.05,45.15c.14,0,.34,0,.36-.11C110.27,45.05,110.07,45,110.05,45.15Z"/><path class="cls-1" d="M117.66,41.72s-.18.06-.12.12S117.72,41.79,117.66,41.72Z"/><path class="cls-1" d="M29.94,42.17c.13.37.61-.12,0,0Z"/><path class="cls-1" d="M18.24,39.81c.71-.08,1.18.06,2.07,0a1.62,1.62,0,0,1,.82-.35c.73,0,1.17.23,1.95.16a3.29,3.29,0,0,0,.69.25.74.74,0,0,0,.58-.11c0,.4.66.2,1,.26s.29-.26.58-.23a4.29,4.29,0,0,0,1.49.14,3.79,3.79,0,0,0,2.19.16c1.56-.08,2.46.38,3.91.08a.93.93,0,0,0,.69.26,6.13,6.13,0,0,1,1.39-.09c-.07.26.21.17.22.36.42-.06.55.15.8.26,0-.27.49,0,.7-.11-.24.27,0,.14.1.36.54.12-.07-.39.24-.35s.56.15.8.26c.1-.27.65,0,.93-.11s.68-.3.81,0,0,.34-.13.36-.07-.24-.22-.24c0,.26-.49,0-.7.1l-.35.35a2.65,2.65,0,0,1,1.49.51c1,.11,1.85.27,2.75.42a1.72,1.72,0,0,1,1.16,0c.23,0,.15-.33.47-.23,0,.25.5,0,.57.25,0-.21.2-.26.47-.23,0,.18.1,0,.23,0a.5.5,0,0,0,.45.25,2.08,2.08,0,0,1,.93-.1c-.12-.38.19-.28.24-.47-.12-.18-.11-.3.13-.36s.12.35.33.37c0-.21.1-.22.24-.24a1,1,0,0,0,.92.27c.23,0,.14.32.46.25.37.31.51-.38.69.13-.3.71-1.27,0-1.85,0-.11.65,1,.15,1,.62.35-.15.6.09,1.16,0-.06-.27.22-.17.24-.36s-.13-.21,0-.24.45,0,.46.14a.33.33,0,0,0,.35.24,19.45,19.45,0,0,0,3.34.08c.23,0,.3-.25.59-.22s.65.52.81,0c-.13,0-.09-.22-.11-.36-.19,0-.19-.12-.34-.13-.36.08-.42-.13-.69-.13l-.7,0c-.12,0-.07-.24-.22-.24-.17.34-.57-.05-.69-.14-.37.36-.9-.12-1.39,0,0-.39.29-.57-.22-.61-.19,0,.1.38-.24.48s-.25.14-.46.11-.1-.45-.34-.49c.06-.2-.43,0-.46.11.18,0,.4,0,.34.25a.31.31,0,0,1-.34-.25c-.23,0-.14-.33-.46-.25-1.16-.21-1.83-.2-3-.43a.63.63,0,0,1-.46.11,9.48,9.48,0,0,0-2.07-.29c-.28,0-.44.18-.82.1s-.59-.19-.91-.26a4.72,4.72,0,0,1-1.85-.16c-.2,0-.24.14-.46.11a.68.68,0,0,0-.46-.13c-.71.21-1.3-.21-2.19.07-.23,0-.14-.32-.46-.24-.82,0-1.11.11-1.73-.16a7.87,7.87,0,0,1-1.15.09,14.59,14.59,0,0,0-2.3-.29c-.13,0-.08.24-.24.24s-.08-.47-.45-.37l-1.5,0c-.18,0-.11.37-.46.23l-.34-.36-1.15,0c-.22,0-.22.33-.58.22.14-.15,0-.18,0-.36a.9.9,0,0,1-.8,0c-.1.18-.38.17-.58.23l-2.08,0a.55.55,0,0,0-.34-.12l-1,0c-.16,0-.32,0-.34-.13-.33,0-.36.27-.69.23,0-.25-.51,0-.57-.25-.36.08-.34-.21-.69-.13s-.17.23-.35.23-.21-.34-.57-.25c-.36-.09-.35.2-.7.11-.42.07-1.18-.21-1.27.22a.78.78,0,0,0,.58.13C18.08,39.58,18.21,39.65,18.24,39.81ZM50.39,41.3c0,.28-.51.06-.58,0C49.84,41,50.32,41.23,50.39,41.3Zm-3.15.89c0,.34-.49.22-.45-.13C47,42,47.09,42.15,47.24,42.19Zm-.45-.37c0,.14-.21.1-.35.11C46.46,41.79,46.65,41.83,46.79,41.82Zm-.36.47c.06.06-.09.15-.12.12S46.4,42.26,46.43,42.29ZM43.55,42c.06.07-.09.16-.12.12S43.52,42,43.55,42Zm-.1-.48c0,.07-.09.15-.12.12S43.41,41.47,43.45,41.5Zm-2.78.42c-.06-.06.08-.15.12-.12S40.7,42,40.67,41.92Zm.59-.83c.21,0,.57.35.69,0h-.11c0-.14.21-.1.35-.12-.33.34.38.31.56.5-.32.49-1-.07-1.84.08,0-.18-.35,0-.34-.25C40.56,40.74,41.17,41.39,41.26,41.09Zm-1-.86c.06.07-.08.16-.11.12S40.21,40.2,40.24,40.23Zm-8.06-.29c0,.07-.09.15-.12.12S32.14,39.91,32.18,39.94Zm-3.57-.55c.06.07-.08.15-.11.12S28.58,39.36,28.61,39.39Z"/><path class="cls-1" d="M2.2,6.79c0-.14.21-.1.35-.12C2.53,6.81,2.33,6.77,2.2,6.79ZM3,6.55c0-.15.24-.12.24,0S3,6.7,3,6.55Zm.35.12V6.43c.24,0,.37,0,.35.25Zm7.11.45c0-.15.24-.12.24,0S10.6,7.1,10.47,7.12Zm.35.12V7c.24,0,.37,0,.35.24Zm2-.1c-.32-.1-.3.17-.58.12s-.91.2-.81-.25h1.75a.18.18,0,0,1,.23.12Zm1.87-.09c-.06-.06.09-.15.12-.12S14.7,7.08,14.67,7.05Zm.87-3.47c-.06-.06.09-.15.12-.12S15.57,3.62,15.54,3.58Zm2.32.75c-.06-.06.09-.15.12-.12S17.89,4.36,17.86,4.33Zm4.55-.28c0-.12.15-.09.24-.12S22.5,4,22.41,4.05Zm2.13-1.52c.12-.2.5-.12.7-.23C25.34,2.74,24.78,2.46,24.54,2.53Zm1.05-.1h.23C25.84,2.77,25,2.38,25.59,2.43Zm.29,3.24c0-.14.21-.1.35-.11C26.21,5.7,26,5.65,25.88,5.67Zm.29-3.11c-.06-.06.09-.15.12-.12S26.2,2.59,26.17,2.56Zm.88,3H26.7c-.1,0-.11.05-.12.12-.37-.14.12-.34.35-.23S27.17,5.57,27.05,5.57Zm.7,0c-.43-.26.65.06.58-.23.21,0,.25.15.47.13C28.67,5.75,28.07,5.51,27.75,5.58Zm.53-3.35c-.54-.13-1,.21-1.29,0,.11-.29.81,0,.94-.22.56.1.75-.17,1.29-.1C29,2.16,28.52,2.05,28.28,2.23Zm1.29-.33c.36-.44.38.37,0,0Zm18.36.15c0,.12-.14.09-.23.12S47.84,2.08,47.93,2.05Zm-3.82-.2.93,0c.7.1,1.09,0,2,0,.11.34.31-.16.46.13,0,.27-.49,0-.7.11l-.69,0c-.33-.1-.31.16-.59.11-.48.08-1-.19-1.15,0S44.18,2,44,2C44,1.86,44,1.85,44.11,1.85Zm3.33,1.39c0,.27-.61.08-.69,0C46.86,2.9,47.11,3.4,47.44,3.24Zm-.8-.14c0,.12-.15.09-.24.12C46.41,3.1,46.54,3.13,46.64,3.1Zm-1.27-.27c0,.12-.15.09-.24.12C45.14,2.83,45.27,2.86,45.37,2.83ZM43.65,2v.35c-.38.14-.08-.39-.46-.25C43.22,1.9,43.47,2,43.65,2Zm-2,.19c.06.07-.08.15-.12.12S41.63,2.12,41.66,2.15Zm.81.5.93,0c.16,0,.33,0,.34.13h-.46A10.37,10.37,0,0,1,41,2.86c0-.23-.39-.09-.46-.25s.21-.3.23-.12C41.1,2.74,41.9,2.58,42.47,2.65Zm-3.7-1.28c.24.06.31-.07.47-.11l.93,0c.24.08.77-.13.81.14.1.51-.57-.21-.59.35a.91.91,0,0,1-.22-.37c-.45.1-1.2.37-1.63.09C38.58,1.35,38.75,1.19,38.77,1.37Zm-1.05.1c.11.36-.26.2-.47.23a.31.31,0,0,1-.46,0C36.82,1.32,37.37,1.5,37.72,1.47Zm-.36.59c.45-.05.47.32.81.38s.45-.16.7-.23a3,3,0,0,1,.92.26c-.13.27-.73,0-1,.1l-1,0a2.54,2.54,0,0,0-1.05-.15C36.5,1.87,37.35,2.42,37.36,2.06Zm-1,.22a.5.5,0,0,1-.47.23C35.79,2.13,36.14,2.08,36.31,2.28Zm-.82.22c.06.06-.09.15-.12.12S35.46,2.47,35.49,2.5Zm-3,.65c0,.21-.2.27-.47.23C31.87,3,32.25,3.18,32.45,3.15Zm-1.4.33h-.23c0-.1-.05-.11-.12-.12C30.66,3.13,31.24,3.19,31.05,3.48Zm-.41,3c0,.15-.17.07,0,0C30.63,6.33,30.81,6.4,30.64,6.47Zm-.21-1c0-.12.14-.09.23-.12C30.66,5.51,30.52,5.48,30.43,5.51Zm.56,1c0-.14.22-.1.35-.11S31.13,6.46,31,6.48Zm2.44,0c0-.12.15-.09.24-.11S33.52,6.51,33.43,6.53Zm0-.36c.06-.18.12,0,.11.12C33.34,6.32,33.32,6.18,33.44,6.17Zm-.68-.73a9,9,0,0,0-2.33-.17c-.08-.33.55.09.47-.23h.7c.28.06.26-.21.58-.1s.45.06.47-.11c.19.2.68.11,1.05.14C33.69,5.6,33.11,5.06,32.76,5.44Zm1.25,1A.47.47,0,0,1,34.6,6C34.71,6.43,34.26,6.32,34,6.42ZM33.93,5c.24.08.76-.13.81.14C34.8,5.56,33.73,5.42,33.93,5Zm.76-3.22c0-.11.15-.09.24-.11S34.78,1.74,34.69,1.76ZM41,6c-.09-.08-.32-.19-.35,0-.32.08-.23-.25-.46-.25s-.31.16-.58.1a19.4,19.4,0,0,0-3.49,0c-.06-.27.22-.17.24-.36s-.73-.06-1-.14.42-.11.59-.1.21,0,.23-.12.11,0,.12.12c.93-.2,1.75.24,2.55.06a8.92,8.92,0,0,0,2.55.29C41.43,5.94,41.11,5.85,41,6Zm2.18,1.25c0-.14.21-.1.35-.11C43.51,7.25,43.31,7.2,43.18,7.22Zm2.09-.07c0-.12.14-.09.23-.12S45.36,7.12,45.27,7.15Zm1.64-.69a.76.76,0,0,0-.59.11,3.75,3.75,0,0,1-.8-.26c-.68.16-1.49-.13-2.44,0-.36,0-.4-.23-.81-.14s-.71,0-.69-.37c1.07.26,2.14-.1,3,.42a10.56,10.56,0,0,1,2.32.18v.11c.2.08.68-.12.69.14C47.4,6.53,46.91,6.73,46.91,6.46Zm.65-3.1c0-.11.14-.09.23-.11h.35c0,.11-.15.09-.24.11Zm.88,1.7c0,.14-.21.1-.35.11C48.11,5,48.31,5.08,48.44,5.06ZM48.36,3.5c0-.34.72.12.7-.22.25,0,.31.09.47.13l1.27,0c0,.14.21.1.34.13-.16.3-.71,0-.92,0ZM48,6.61c.18-.29.81,0,1,0C48.8,6.93,48.18,6.66,48,6.61Zm1.15.15c.17-.48,1.12.21,1.51-.09C50.49,7.08,49.38,6.91,49.1,6.76Zm1.62.15c.26-.32.83,0,1.16,0C51.71,7.17,50.89,7.06,50.72,6.91Zm2.41-4.14c-.3,0-.66,0-.8-.13-.12.32-.36-.18-.7,0-.2-.07-.68.13-.69-.14a8.84,8.84,0,0,1-1.5-.15c-.22.22-.3-.11-.7,0-.22-.06-.7.15-.57-.25a27.81,27.81,0,0,1,5.55.61C53.6,3.07,53.5,2.72,53.13,2.77Zm.93.15c.19-.19.49-.21.58-.11S54.2,3.15,54.06,2.92Zm.39,3c0-.12.15-.09.24-.11S54.54,5.9,54.45,5.92Zm.65-2.86c0-.1.12-.12.12-.24h.23C55.5,3.09,55.28,3.05,55.1,3.06Zm.62,3c-.25.08-.73-.14-.23-.12h.7C56.15,6.12,55.9,6.05,55.72,6.07Zm.54-3H56V2.84h.23Zm.69,0H56.6c0-.11.15-.09.24-.11h.34C57.18,3.1,57,3.08,57,3.1Zm4.27.22c0-.11.14-.09.23-.11S61.31,3.3,61.22,3.32Zm1.5.16-.58,0c-.17-.07-.6.13-.57-.13h.57c.17.07.6-.12.58.14C62.86,3.47,62.78,3.65,62.72,3.48Zm.69.13c-.06-.06.08-.15.12-.12S63.44,3.65,63.41,3.61Zm.8.14c0-.21.21-.27.47-.23C64.65,3.73,64.48,3.79,64.21,3.75Zm1.73,0c0-.11.15-.09.24-.11S66,3.77,65.94,3.79Zm.33,1.09c0-.12.14-.09.23-.12C66.49,4.88,66.36,4.85,66.27,4.88Zm1-1.06c-.42-.07-.75.57-.81-.14.24.08.76-.13.81.14C67.83,3.71,67.34,4.19,67.22,3.82Zm.8.26c0-.12.14-.09.23-.11S68.11,4.06,68,4.08Zm2.18.29c0-.12.14-.09.23-.12C70.43,4.37,70.29,4.34,70.2,4.37Zm.44,1c-.06-.07.09-.16.12-.12S70.67,5.37,70.64,5.34Zm.46-.11h.23C71.35,5.57,70.47,5.18,71.1,5.23Zm-.21-.85c0-.21.21-.27.47-.23A.5.5,0,0,1,70.89,4.38ZM132,7.71c.06.06-.08.15-.11.12S132,7.67,132,7.71Zm-2.64-2.52h.23C129.63,5.53,128.75,5.16,129.38,5.19ZM73,7.42c-.05-.06.09-.15.12-.11S73.05,7.46,73,7.42Zm-.05-3c-.14,0-.06-.18,0,0C73.45,4.32,73,4.79,73,4.43Zm1.15.26c-.06-.06.09-.15.12-.12S74.14,4.72,74.11,4.69Zm7,.51c-.37-.16-.09.39-.46.23-1.71-.09-3.27-.34-5.06-.35-.1-.1-.06-.33-.22-.36,0-.12.14-.09.23-.12s.5-.08.57,0,.19,0,.58,0a19.14,19.14,0,0,0,2.87.18,16.27,16.27,0,0,0,3,.3C82.31,5.46,81.58,5.32,81.12,5.2ZM94.31,6.87c0-.12.14-.09.23-.12C94.53,6.87,94.4,6.84,94.31,6.87Zm.33.72c-.06-.06.09-.15.12-.12S94.67,7.63,94.64,7.59Zm0-.6c-.11-.36.26-.21.46-.23C95.08,7,94.91,7,94.65,7ZM96,6.89c0-.14.21-.1.34-.12C96.35,6.92,96.16,6.87,96,6.89Zm.46,0c0-.14.21-.1.34-.12C96.81,6.92,96.62,6.88,96.49,6.9Zm2.16.74c-.05-.06.09-.15.12-.12S98.69,7.67,98.65,7.64ZM104,6.39c0,.16-.2.11-.23.24a.53.53,0,0,1-.35-.13c-.15,0-.1.21-.23.24-.5.08.1-.24-.23-.24a8.8,8.8,0,0,0-2.29.21c-.1-.21-.4-.23-.57-.37s-.3.17-.58.11-.22-.24-.45-.24c-.41.33-1-.24-1.27.22a.85.85,0,0,0-.8-.25.77.77,0,0,0-.57.11c-.22.06-.69-.17-.58.24-.34-.15-.6-.37-.91,0-.15,0-.16-.16-.35-.13-.4.09-.48-.14-.68-.25-.37,0-.49.21-.92.11-.37.13-.28-.2-.46-.25-.93.08-1.74-.2-2.41,0,0,.36-.47-.13,0,0,0-.16-.2-.12-.23-.25-.17.23-.75,0-.92.23a5.93,5.93,0,0,0-2.75-.17c-.67-.18-1.45,0-2.06-.4-.5-.1-1.07.13-1.27,0,.21-.27.88,0,1.27-.1.48.13.57,0,1,.14l1.84,0c.32-.09.29.18.57.13,2.29-.08,4,.37,5.74.22.33-.09.29.18.57.13,1.81,0,3.19.16,4.59.06.68.21,1.75,0,2.4.27a10,10,0,0,1,1.72,0c.46.21.84-.11,1.38.14C103.94,6.24,104.12,6.32,104,6.39Zm.91.85c0-.17.1,0,.23,0A.12.12,0,0,1,104.86,7.24Zm4.35.28c.11-.33.44,0,.57,0s.2-.17.35,0C110,7.77,109.33,7.65,109.21,7.52Zm2.18.14c0-.12.14-.1.23-.12S111.48,7.63,111.39,7.66Zm4.93.15c-.06-.07.08-.16.11-.12S116.35,7.84,116.32,7.81Zm.57,0c-.06-.06.08-.15.12-.12S116.92,7.84,116.89,7.81Zm2,0a.12.12,0,0,1,.23,0C119,7.89,118.86,8,118.84,7.82Zm4.24.13c-.49,0-1.18.12-1.49-.11,0-.12.14-.1.23-.12h1.6a4.51,4.51,0,0,0,1,.11C124.31,8.3,123.65,7.78,123.08,8Zm5.16.24c-.22,0-.25-.14-.46-.12a4.42,4.42,0,0,0-1.15,0c-.17,0-.42,0-.46-.12a1.58,1.58,0,0,1-1.26,0c0-.37.57-.2.92-.24-.3-.51-.81-.12-1.26-.36a4.7,4.7,0,0,0-1.6.13c-.37-.18-.57,0-.81,0,0,0,0-.12,0-.12s-1.09,0-1.26,0-.1-.11-.11-.12-.14.12-.12.12c-.27,0-.45-.18-.68-.12,0,0-.16.12-.12.12-.22,0-.25-.14-.46-.13a5.23,5.23,0,0,0-.57.12c-.31.09-.23-.24-.46-.24-.49.2-1.32,0-1.83.23a7.52,7.52,0,0,0-2-.13c-.31.08-.23-.24-.46-.25-.4-.1-.59.31-.68-.12-.28.33-.51,0-.81.35-.54-.27-1.63,0-2.17-.25-1.07.09-1.78-.22-2.41,0-.28,0-.25-.22-.57-.13s-.83-.16-.92.11c-.22-.35-.58-.1-.8-.25-.35.22-.52-.11-.8.11-.28.39-.61-.16-.81-.25.3-.56,1,.08,1.5-.22,1,.26,2.53,0,3.43.39a6.28,6.28,0,0,1,1.72-.11c.15,0,.26.13.35.13s.4-.13.57-.12c.58,0,1.13.14,1.72.13.13,0,.18-.17.23,0,.13,0,.32,0,.34-.12s.18.18.23,0c.22,0,.25.14.46.13H117c.2.07.67-.14.69.12.27.06.25-.21.57-.11.21-.07.35.11.46.12s.13-.12.23-.12.13.12.23.12c.3,0,.32-.18.57-.11,0,0,.15.12.11.12.17,0,.25-.12.35-.12.25,0,.44.12.68,0s.26.14.46.13h2.41a3,3,0,0,0,1.72,0h1.94c.36.19,1.06,0,1.27.36.57-.08.79.2,1.37.12.36-.06.26.37.69.24H131v.12h.34c0,.15-.2.11-.23.24.51,0,1,.12,1,.59C130.7,8.57,129.68,8.15,128.24,8.19ZM146,5.82c0,.12-.14.1-.23.12S145.9,5.85,146,5.82Zm-2-.1h.8c0,.17-.29.1-.46.12h-.57C143.81,5.72,144,5.75,144,5.72Zm-1.38,0H143c0,.11-.14.09-.23.12h-.34C142.44,5.74,142.58,5.76,142.66,5.73Zm2.66,2.13c-.32.11-.3-.16-.58-.11-1.31.1-2.28-.15-3.55-.09-.12-.4.35-.19.57-.24a1,1,0,0,1,.69-.13c.39-.1.44.17.8.11s.84.08,1-.13c1,.45,1.95.24,3.21.46C147.06,8.25,146.15,7.67,145.32,7.86Zm3.1.7h.23C148.68,8.89,147.79,8.53,148.42,8.56Zm.81.11c0-.12.14-.1.22-.12S149.31,8.64,149.23,8.67Zm7.84,2.65c0-.11.14-.09.23-.12C157.29,11.32,157.16,11.29,157.07,11.32Zm.8-.13c0-.12.14-.1.23-.12S158,11.16,157.87,11.19Zm.46,0c0-.14.21-.1.34-.12C158.66,11.2,158.46,11.16,158.33,11.18ZM156,30.88c0-.12.14-.1.23-.13C156.19,30.87,156.05,30.85,156,30.88Zm-7.69,7.4c-.06-.07.08-.16.11-.13S148.3,38.31,148.27,38.28ZM149,38c-.16.45-.66-.05,0,0Zm-11,4.17c-.07-.06.08-.15.11-.12S138,42.23,137.94,42.2Zm3.61.21c0-.12.14-.1.23-.12S141.64,42.38,141.55,42.41Zm1.74-1.22c-.06-.06.08-.15.11-.12S143.32,41.23,143.29,41.19Zm-17.36,8.58h.23C126.18,50.11,125.29,49.74,125.93,49.77Z"/><path class="cls-1" d="M22.58,41.8c2.31.15,4.55.24,6.9.48a.63.63,0,0,1,.46-.11c-.44-.51-2.51,0-2.86-.89.34-.3.71.07,1.15,0a2.5,2.5,0,0,0,.7-.22c.14.16.56.19.57-.11a26,26,0,0,0-2.64,0c0,.24,0,.37-.24.36.07.1.14.21,0,.24-1.55.46-3.22-.5-4.72-.09,0-.22-.39-.08-.46-.25-.22,0-.14-.32-.45-.24s-.52.25-.81.34c-.05-.27-.57-.06-.81-.13s-.55,0-.69.11c0-.27-.56-.06-.8-.14s-.56,0-.58.23c1.69.17,3,.15,4.71.32C22.2,41.69,22.37,41.79,22.58,41.8Z"/><path class="cls-1" d="M15.58,41.09s-.18.06-.12.12S15.64,41.15,15.58,41.09Z"/><path class="cls-1" d="M12.6,40.69c.09,0,.22,0,.23-.11S12.6,40.58,12.6,40.69Z"/><path class="cls-1" d="M16.42,39.06c.28,0,.35.24.46-.11-.13-.3-.44.24-.58-.13,0-.07,0-.14-.11-.12,0,.26-.41,0-.58.11C15.55,39.36,16.15,39.15,16.42,39.06Z"/><path class="cls-1" d="M15.36,40.61s-.18.06-.12.12S15.42,40.67,15.36,40.61Z"/><path class="cls-1" d="M56.38,42.28s.17-.05.11-.11S56.32,42.22,56.38,42.28Z"/><path class="cls-1" d="M56.26,42c.38-.06.54.09.81.14,0-.22-.11-.28-.34-.25a.69.69,0,0,0-.1-.48c-.17.06-.6-.15-.58.11C56.26,41.58,56.11,42,56.26,42Zm.24-.35c.06.06-.08.15-.11.11S56.47,41.65,56.5,41.69Z"/><path class="cls-1" d="M57.62,43.51c-.54-.35-.29.39,0,0Z"/><path class="cls-1" d="M55,41.41a.93.93,0,0,0-.7.23C54.67,41.63,55,42,55,41.41Z"/><path class="cls-1" d="M51.66,41.33c-.1,0-.23,0-.24.12C51.51,41.42,51.65,41.45,51.66,41.33Z"/><path class="cls-1" d="M55.58,41.67c-.14,0-.33,0-.35.11C55.37,41.76,55.56,41.8,55.58,41.67Z"/><path class="cls-1" d="M127.55,7.59c-.16,0-.22-.17-.46-.12s-.19-.2-.34-.24a.32.32,0,0,1-.35.24c-.16,0-.19-.2-.34-.24,0,.16-.16.23-.11.48s.55,0,.8-.12c0,.14.18.13.34.12h.57C128.08,7.76,127.82,7.49,127.55,7.59Z"/><path class="cls-1" d="M70.06,42s.18-.06.12-.12S70,41.94,70.06,42Z"/><path class="cls-1" d="M5.13,40.48c-.09,0-.23,0-.23.12C5,40.57,5.13,40.6,5.13,40.48Z"/><path class="cls-1" d="M128.58,7.83c.09,0,.23,0,.23-.12C128.72,7.74,128.58,7.71,128.58,7.83Z"/><path class="cls-1" d="M131,7.71h-.57C130.35,8,131.1,8.14,131,7.71Z"/><path class="cls-1" d="M7.43,40.51a.12.12,0,0,0-.23,0C7.22,40.65,7.33,40.58,7.43,40.51Z"/><path class="cls-1" d="M58.79,43.3c-.45,0-1-.09-1.06.33C58.14,43.58,58.85,43.85,58.79,43.3Z"/><path class="cls-1" d="M14,41c0-.17-.25-.14-.34-.24.09.62,1.09.31,1.6.5,0-.41-.49-.21-.68-.37S14.3,41.05,14,41Z"/><path class="cls-1" d="M11.91,40.57h-.23C11.05,40.52,11.93,40.9,11.91,40.57Z"/><path class="cls-1" d="M12.73,39.62c.35-.16.92-.07,1.26-.22.38,0,.87.31.93-.24l-2.65,0C12.15,39.58,12.66,39.37,12.73,39.62Z"/><path class="cls-1" d="M8.34,40.88c0-.21-.13-.25-.11-.48H8C8.05,40.63,8,40.92,8.34,40.88Z"/><path class="cls-1" d="M11.22,40.56c-.17.06-.59-.15-.57.11C11,40.69,11.16,41.17,11.22,40.56Z"/><path class="cls-1" d="M8.47,40.16c-.2,0-.22.09-.24.24h.23Z"/><path class="cls-1" d="M9.27,40.41v.24h.34C9.63,40.44,9.5,40.38,9.27,40.41Z"/><path class="cls-1" d="M4.79,40.48c-.1,0-.23,0-.24.12C4.64,40.57,4.78,40.59,4.79,40.48Z"/><path class="cls-1" d="M89,45.13c.17-.07,0-.15,0,0Z"/><path class="cls-1" d="M63.31,43.16c-.48-.12,0,.36,0,0Z"/><path class="cls-1" d="M60.68,41.66c.06.18.14,0,0,0Z"/><path class="cls-1" d="M62.86,42.43c.08-.16.45,0,.47-.23a1.87,1.87,0,0,1-1.15-.26c0,.32-.65-.13-.47.35.51.09.81-.29,1,.14,0,.13-.23.08-.23.23.2.27.4,0,.58,0,0,0,0,.11.11.12h.46c.24.06.31-.07.47-.11,0,.35.8-.08.8.26l-1.62,0v.24c.09,0,.34.41.11.37s-.72,0-.35.11c.16.07.6-.13.57.13-.35.16-.41-.07-.93,0,0,.44.51.36.92.38s.58.18.93,0a.59.59,0,0,0,.46.13l2.43.06a.59.59,0,0,0,.35.13,29.47,29.47,0,0,1,4.06.32c.37.08.54-.07.81-.1a8,8,0,0,0,2.21.17,7.45,7.45,0,0,0,2.9.06c.26.22.87.07,1.16.26.28-.11.25,0,.7-.1.8.09,1.24,0,2.21,0,.46.05,1.11-.09,1.39.15,0-.27.5-.05.7-.11A.64.64,0,0,1,84.3,45a6.79,6.79,0,0,1,1.86.16,2.07,2.07,0,0,1,1.28,0c.18,0,.1-.38.47-.23.11.08.11.28.34.24s.68.16.7-.1c-.24.06-.27-.24-.11-.25-.14-.15,0-.18,0-.36-.48-.14-.46.25-.82.23,0-.36-.38-.26-.58-.37a.52.52,0,0,1-.35.11c0,.21-.1.23-.24.24a.65.65,0,0,1-.47.11c-.37.14-.08-.39-.46-.25-.12.2-.49.13-.7.23h-.81a4.78,4.78,0,0,0-1.4-.27c0,.11,0,.11-.12.12s-.11-.12-.23-.12c0,.26-.41,0-.58.11s-.25.14-.47.11c0-.18-.34,0-.34-.25-.42.15-.43,0-.82.11-.16-.25-.26,0-.46,0s-.11,0-.12-.13c-.24-.07-.76.14-.81-.13.36.14.29-.19.47-.23,0,.26.41.06.58.13.1-.23.06.13.23.12-.18-.3.4-.34.35-.11a.88.88,0,0,0,.24-.35,11.54,11.54,0,0,0-2.67-.18c-.21,0-.24-.15-.46-.13-2.55,0-4.6-.54-7.19-.51-.22-.22-.77-.11-1.16-.15-.12.08-.13.28-.36.23s-.11-.27-.34-.24a5,5,0,0,1-2.42-.42c-.17.5-.38,0-.7,0,0,.1-.11.21-.24.23,0-.26-.41-.06-.57-.13s-.25-.23-.58-.13-.25.14-.47.1C63.61,42.24,63.07,42.84,62.86,42.43Zm.91.62H64C64,43.4,63.14,43,63.77,43.05Zm.57.5c0-.14.12-.07.12,0S64.34,43.61,64.34,43.55Zm.11.36a.12.12,0,0,1,.23,0C64.63,44.09,64.58,43.9,64.45,43.91ZM79,44.34c0,.12-.15.09-.24.12S78.86,44.37,79,44.34ZM78.5,44c.14,0,.07.17,0,0C78.36,44,78.43,43.8,78.5,44ZM78,44c0,.2-.2.26-.47.22A.5.5,0,0,1,78,44Zm-1.85-.28c.23,0,.36,0,.34.24h-.34Zm-1.4.09c.06.06-.08.15-.11.11S74.75,43.74,74.78,43.78Zm-3.93-.57c0,.14-.22.1-.35.11S70.71,43.23,70.85,43.21Zm-2.1.08v.24c.27,0,.35-.2.7-.11-.2.54-1,0-1.29.22,0-.12-.14-.1-.23-.13C68,43.17,68.42,43.3,68.75,43.29Zm-1.85-.16c0,.13-.12.06-.12,0S66.9,43.06,66.9,43.13Zm-.93.09c-.12.37-.39-.06-.46-.13C65.63,42.73,65.9,43.16,66,43.22Z"/><path class="cls-1" d="M36.05,42.42c-.15,0-.16-.16-.35-.13C35.52,42.58,36.09,42.65,36.05,42.42Z"/><path class="cls-1" d="M60.68,41.66c.13-.27.73,0,1-.09a.59.59,0,0,0,.35.13c.68-.08,1.24.39,1.51-.21-.33-.26-1.16,0-1.5-.27-.65.08-1.4-.2-1.74,0C60.3,41.49,60.37,41.69,60.68,41.66Z"/><path class="cls-1" d="M67.19,40.74c.24-.07.8.21.7-.23a17.87,17.87,0,0,1-2.9-.18c-.14,0-.27,0-.23.23a5.82,5.82,0,0,1,1.62.16Z"/><path class="cls-1" d="M65.21,41.05c-.14,0-.33,0-.35.11C65,41.15,65.19,41.19,65.21,41.05Z"/><path class="cls-1" d="M35,41.2c.42-.07.89.41,1-.1-.65,0-1.18-.31-1.73,0-.16-.07-.28-.19-.45-.25s-.1.13-.24.11-.16.15-.34.11-.36-.64-.57-.25c.2,0,.26.13.22.37.27.07.84-.13.92.14-.46-.1-.66.1-1,.09a2.67,2.67,0,0,0-.69-.25c-.28.07-.83-.17-.92.1.29,0,.35.19.45.37a20.33,20.33,0,0,1,4,.33c0-.25.43-.11.47-.36a.7.7,0,0,1-.58-.13C35.39,41.4,34.91,41.6,35,41.2Z"/><path class="cls-1" d="M58.67,43.05s-.17.06-.11.12S58.73,43.12,58.67,43.05Z"/><path class="cls-1" d="M67.05,41.81c0-.26-.49-.06-.7-.14h-.81c-.17.52.7,0,.69.37.37-.15.39,0,.81,0,.21,0,.25-.14.47-.11a11.06,11.06,0,0,0,2.2.29c0-.12.14-.09.23-.12a2.13,2.13,0,0,0-.46-.37c0,.21-.09.23-.23.24-.12-.27-.73-.06-1-.14A1.8,1.8,0,0,0,67.05,41.81Z"/><path class="cls-1" d="M83.26,44.31a.76.76,0,0,0,.58.13c.63-.13,1.6.19,2.33-.08.39,0,.61.25.82-.11a4,4,0,0,1-1.4-.14c-.21,0-.25.14-.47.11,0-.27-.49-.06-.69-.13-.84-.07-1.66.06-2.21,0-.12.47.61.1.69.37,0,.1,0,.11.11.12S83.13,44.33,83.26,44.31Z"/><path class="cls-1" d="M69.94,42.11c.13.37.62-.11,0,0Z"/><path class="cls-1" d="M65.19,41.77c.19-.42-.39-.08-.34-.37-.35.08-.33-.21-.69-.14a.61.61,0,0,0-.35.12v.36C64.33,41.66,65,41.9,65.19,41.77Z"/><path class="cls-1" d="M61.36,42.16c-.33-.1-1.35-.36-1.51.08.15,0,.16.16.35.13C60.69,42.15,61.07,42.56,61.36,42.16Z"/><path class="cls-1" d="M48.38,43.18c.39-.11.78.38,1,0C49,43.3,48.64,42.81,48.38,43.18Z"/><path class="cls-1" d="M48.15,43.17s.17-.05.11-.12S48.09,43.11,48.15,43.17Z"/><path class="cls-1" d="M46.18,43.36c.09,0,.22,0,.23-.11S46.18,43.25,46.18,43.36Z"/><path class="cls-1" d="M44.57,43c.09,0,.23,0,.23-.12S44.57,42.85,44.57,43Z"/><path class="cls-1" d="M56.69,43.49c-.22,0-.25-.14-.46-.13C56,43.69,56.73,43.7,56.69,43.49Z"/><path class="cls-1" d="M50.11,43.34c-.13.4.35.19.57.25C50.65,43.16,50.38,43.27,50.11,43.34Z"/><path class="cls-1" d="M32.62,40.91a.55.55,0,0,1-.35-.13c-.15.18-.82.1-.46.23S32.64,41.05,32.62,40.91Z"/><path class="cls-1" d="M36.52,41.83c-.09,0-.23,0-.23.12C36.38,41.92,36.51,42,36.52,41.83Z"/><path class="cls-1" d="M40.19,42.51s.18,0,.12-.12S40.14,42.45,40.19,42.51Z"/><path class="cls-1" d="M37.43,42.45c-.2.31-.79-.3-1,.1.62.12,1.29.2,2,.28C38.37,42.37,37.62,42.69,37.43,42.45Z"/><path class="cls-1" d="M37.55,42s-.17.06-.11.12S37.61,42,37.55,42Z"/><path class="cls-1" d="M39.38,43c.09,0,.22,0,.23-.11S39.38,42.86,39.38,43Z"/><path class="cls-1" d="M38.47,42.11c.39-.1.78.39,1,0C39.19,42.17,38.71,41.78,38.47,42.11Z"/><path class="cls-2" d="M40.17,1.4a.91.91,0,0,0,.22.37c0-.56.69.16.59-.35,0-.27-.57-.06-.81-.14l-.93,0c-.16,0-.23.17-.47.11,0-.18-.19,0-.23.12C39,1.77,39.72,1.5,40.17,1.4Z"/><path class="cls-2" d="M37.25,1.7c.21,0,.58.13.47-.23-.35,0-.9-.15-.93.22A.31.31,0,0,0,37.25,1.7Z"/><path class="cls-2" d="M34.69,1.76c.09,0,.23,0,.24-.11S34.7,1.65,34.69,1.76Z"/><path class="cls-2" d="M44.34,2.21c.19-.16.67.11,1.15,0,.28,0,.26-.21.59-.11l.69,0c.21-.07.68.16.7-.11-.15-.29-.35.21-.46-.13-.88,0-1.27.06-2,0l-.93,0c-.07,0-.14,0-.12.11C44.18,2,44.08,2.27,44.34,2.21Z"/><path class="cls-2" d="M43.64,2.31V2c-.18,0-.43-.06-.47.1C43.56,1.92,43.26,2.45,43.64,2.31Z"/><path class="cls-2" d="M47.93,2.05c-.09,0-.22,0-.23.12S47.93,2.17,47.93,2.05Z"/><path class="cls-2" d="M48.74,2.31c.4-.09.48.24.7,0a8.84,8.84,0,0,0,1.5.15c0,.27.49.07.69.14.34-.16.58.34.7,0,.14.16.5.13.8.13s.47.3.59-.1a27.81,27.81,0,0,0-5.55-.61C48,2.46,48.52,2.25,48.74,2.31Z"/><path class="cls-2" d="M29.57,1.9c.38.37.36-.44,0,0Z"/><path class="cls-2" d="M27.93,2c-.13.27-.83-.07-.94.22.27.23.75-.11,1.29,0,.24-.18.76-.07.94-.34C28.68,1.82,28.49,2.09,27.93,2Z"/><path class="cls-2" d="M37.7,2.55l1,0c.31-.07.91.17,1-.1a3,3,0,0,0-.92-.26c-.25.07-.34.29-.7.23s-.36-.43-.81-.38c0,.36-.86-.19-.71.34A2.54,2.54,0,0,1,37.7,2.55Z"/><path class="cls-2" d="M41.66,2.15s-.17.06-.12.12S41.72,2.22,41.66,2.15Z"/><path class="cls-2" d="M35.84,2.51a.5.5,0,0,0,.47-.23C36.14,2.08,35.79,2.13,35.84,2.51Z"/><path class="cls-2" d="M40.49,2.61c.07.16.45,0,.46.25a10.37,10.37,0,0,0,2.33-.07h.46c0-.14-.18-.14-.34-.13l-.93,0c-.57-.07-1.37.09-1.75-.16C40.7,2.31,40.53,2.47,40.49,2.61Z"/><path class="cls-2" d="M54.06,2.92c.14.23.6-.09.58-.11S54.25,2.73,54.06,2.92Z"/><path class="cls-2" d="M55.45,2.83h-.23c0,.12-.1.14-.12.24C55.28,3.05,55.5,3.09,55.45,2.83Z"/><rect class="cls-2" x="56.02" y="2.85" width="0.24" height="0.23" transform="translate(51.89 59.02) rotate(-88.68)"/><path class="cls-2" d="M24.54,2.53c.24-.07.8.21.7-.23C25,2.41,24.66,2.33,24.54,2.53Z"/><path class="cls-2" d="M35.49,2.5s-.18,0-.12.12S35.55,2.56,35.49,2.5Z"/><path class="cls-2" d="M56.6,3.09H57c.09,0,.23,0,.23-.11h-.34C56.75,3,56.61,3,56.6,3.09Z"/><path class="cls-2" d="M25.82,2.43h-.23C25,2.38,25.84,2.77,25.82,2.43Z"/><path class="cls-2" d="M26.17,2.56s.18-.06.12-.12S26.11,2.5,26.17,2.56Z"/><path class="cls-2" d="M45.37,2.83c-.1,0-.23,0-.24.12C45.22,2.92,45.36,3,45.37,2.83Z"/><path class="cls-2" d="M61.22,3.32c.09,0,.23,0,.23-.11S61.23,3.21,61.22,3.32Z"/><path class="cls-2" d="M62.14,3.34h-.57c0,.26.4.06.57.13l.58,0C62.74,3.22,62.31,3.41,62.14,3.34Z"/><path class="cls-2" d="M46.64,3.1c-.1,0-.23,0-.24.12C46.49,3.19,46.63,3.22,46.64,3.1Z"/><path class="cls-2" d="M46.75,3.23c.08.09.64.28.69,0C47.11,3.4,46.86,2.9,46.75,3.23Z"/><path class="cls-2" d="M62.72,3.48c.06.17.14,0,0,0Z"/><path class="cls-2" d="M63.41,3.61s.17,0,.12-.12S63.35,3.55,63.41,3.61Z"/><path class="cls-2" d="M64.21,3.75c.27,0,.44,0,.47-.23C64.42,3.48,64.24,3.54,64.21,3.75Z"/><path class="cls-2" d="M48.14,3.26h-.35c-.09,0-.23,0-.23.11h.34C48,3.35,48.13,3.37,48.14,3.26Z"/><path class="cls-2" d="M51.14,3.57c-.13,0-.32,0-.34-.13l-1.27,0c-.16,0-.22-.18-.47-.13,0,.34-.71-.12-.7.22l1.86,0C50.43,3.58,51,3.87,51.14,3.57Z"/><path class="cls-2" d="M65.94,3.79c.09,0,.23,0,.24-.11S66,3.68,65.94,3.79Z"/><path class="cls-2" d="M66.41,3.68c.06.71.39.07.81.14C67.17,3.55,66.65,3.76,66.41,3.68Z"/><path class="cls-2" d="M67.22,3.82c.12.37.61-.11,0,0Z"/><path class="cls-2" d="M32.45,3.15c-.2,0-.58-.13-.47.23C32.25,3.42,32.42,3.36,32.45,3.15Z"/><path class="cls-2" d="M68,4.08c.09,0,.23,0,.23-.11S68,4,68,4.08Z"/><path class="cls-2" d="M30.82,3.48h.23c.19-.29-.39-.35-.35-.12C30.77,3.37,30.84,3.38,30.82,3.48Z"/><path class="cls-2" d="M70.89,4.38a.5.5,0,0,0,.47-.23C71.1,4.11,70.92,4.17,70.89,4.38Z"/><path class="cls-2" d="M70.2,4.37c.09,0,.23,0,.23-.12C70.34,4.28,70.21,4.25,70.2,4.37Z"/><path class="cls-2" d="M73,4.43c-.06-.18-.14,0,0,0Z"/><path class="cls-2" d="M73,4.43c0,.36.49-.11,0,0Z"/><path class="cls-2" d="M74.11,4.69s.18-.05.12-.12S74.05,4.63,74.11,4.69Z"/><path class="cls-2" d="M76.76,4.63c-.39,0-.43.18-.58,0s-.47.06-.57,0-.23,0-.23.12c.16,0,.12.26.22.36,1.79,0,3.35.26,5.06.35.37.16.09-.39.46-.23s1.19.26,1.5-.09a16.27,16.27,0,0,1-3-.3A19.14,19.14,0,0,1,76.76,4.63Z"/><path class="cls-2" d="M129.61,5.19h-.23C128.75,5.16,129.63,5.53,129.61,5.19Z"/><path class="cls-2" d="M15.54,3.58s.18-.05.12-.12S15.48,3.52,15.54,3.58Z"/><path class="cls-2" d="M66.27,4.88c.09,0,.22,0,.23-.12C66.41,4.79,66.27,4.76,66.27,4.88Z"/><path class="cls-2" d="M22.41,4.05c.09,0,.23,0,.24-.12S22.42,3.93,22.41,4.05Z"/><path class="cls-2" d="M102.57,6.25a10,10,0,0,0-1.72,0c-.65-.24-1.72-.06-2.4-.27-1.4.1-2.78-.08-4.59-.06-.28,0-.24-.22-.57-.13-1.77.15-3.45-.3-5.74-.22-.28,0-.25-.22-.57-.13l-1.84,0c-.46-.18-.55,0-1-.14-.39.07-1.06-.17-1.27.1.2.15.77-.08,1.27,0,.61.44,1.39.22,2.06.4a5.93,5.93,0,0,1,2.75.17c.17-.23.75,0,.92-.23,0,.13.23.09.23.25.67-.16,1.48.12,2.41,0,.18,0,.09.38.46.25.43.1.55-.14.92-.11.2.11.28.34.68.25.19,0,.2.12.35.13.31-.36.57-.14.91,0-.11-.41.36-.18.58-.24A.77.77,0,0,1,97,6.18a.85.85,0,0,1,.8.25c.3-.46.86.11,1.27-.22.23,0,.14.33.45.24s.26-.21.58-.11.47.16.57.37a8.8,8.8,0,0,1,2.29-.21c.33,0-.27.32.23.24.13,0,.08-.24.23-.24a.53.53,0,0,0,.35.13c0-.13.22-.08.23-.24C103.41,6.14,103,6.46,102.57,6.25Z"/><path class="cls-2" d="M143,5.73h-.35c-.08,0-.22,0-.22.12h.34C142.87,5.82,143,5.84,143,5.73Z"/><path class="cls-2" d="M144.84,5.71H144c-.09,0-.23,0-.23.12h.57C144.55,5.81,144.81,5.88,144.84,5.71Z"/><path class="cls-2" d="M70.64,5.34s.18-.06.12-.12S70.58,5.27,70.64,5.34Z"/><path class="cls-2" d="M71.33,5.23H71.1C70.47,5.18,71.35,5.57,71.33,5.23Z"/><path class="cls-2" d="M146,5.82c-.09,0-.23,0-.23.12S146,5.94,146,5.82Z"/><path class="cls-2" d="M17.86,4.33s.18,0,.12-.12S17.8,4.27,17.86,4.33Z"/><path class="cls-2" d="M48.09,5.17c.14,0,.33,0,.35-.11C48.31,5.08,48.11,5,48.09,5.17Z"/><path class="cls-2" d="M90.07,6c-.47-.13,0,.36,0,0Z"/><path class="cls-2" d="M32.65,4.84c0,.17-.28.1-.47.11s-.3.16-.58.1h-.7c.08.32-.55-.1-.47.23a9,9,0,0,1,2.33.17c.35-.38.93.16.94-.46C33.33,5,32.84,5,32.65,4.84Z"/><path class="cls-2" d="M104,6.39c.17-.07,0-.15,0,0Z"/><path class="cls-2" d="M131.1,8c0-.13.23-.09.23-.24H131c.11.43-.64.25-.57,0H131V7.59h-.23c-.43.13-.33-.3-.69-.24-.58.08-.8-.2-1.37-.12-.21-.34-.91-.17-1.27-.36h-1.94a3,3,0,0,1-1.72,0h-2.41c-.2,0-.24-.15-.46-.13s-.43,0-.68,0c-.1,0-.18.13-.35.12,0,0-.08-.11-.11-.12-.25-.07-.27.12-.57.11-.1,0-.12-.12-.23-.12s-.12.13-.23.12-.25-.19-.46-.12c-.32-.1-.3.17-.57.11,0-.26-.49,0-.69-.12h-2.29c-.21,0-.24-.15-.46-.13-.05.18-.1,0-.23,0s-.21.1-.34.12c0-.17-.1,0-.23,0-.59,0-1.14-.11-1.72-.13-.17,0-.41.12-.57.12s-.2-.11-.35-.13a6.28,6.28,0,0,0-1.72.11c-.9-.37-2.4-.13-3.43-.39-.47.3-1.2-.34-1.5.22.2.09.53.64.81.25.28-.22.45.11.8-.11.22.15.58-.1.8.25.09-.27.64,0,.92-.11s.29.17.57.13c.63-.21,1.34.1,2.41,0,.54.27,1.63,0,2.17.25.3-.35.53,0,.81-.35.09.43.28,0,.68.12.23,0,.15.33.46.25a7.52,7.52,0,0,1,2,.13c.51-.19,1.34,0,1.83-.23.23,0,.15.33.46.24a5.23,5.23,0,0,1,.57-.12c.21,0,.24.14.46.13,0,0,.08-.11.12-.12.23-.06.41.09.68.12,0,0,0-.13.12-.12s0,.12.11.12,1.15-.13,1.26,0,0,.12,0,.12c.24,0,.44-.18.81,0a4.7,4.7,0,0,1,1.6-.13c.45.24,1-.15,1.26.36-.35,0-.89-.13-.92.24a1.58,1.58,0,0,0,1.26,0c0,.16.29.1.46.12a4.42,4.42,0,0,1,1.15,0c.21,0,.24.14.46.12,1.44,0,2.46.38,3.9.35C132.05,8.07,131.61,8,131.1,8Zm-3.44-.24h-.57c-.16,0-.32,0-.34-.12-.25.1-.64.29-.8.12s.07-.32.11-.48c.15,0,.18.21.34.24a.32.32,0,0,0,.35-.24c.15,0,.18.21.34.24s.3.08.46.12S128.08,7.76,127.66,7.71Zm.92.12c0-.12.14-.09.23-.12C128.81,7.83,128.67,7.8,128.58,7.83Z"/><path class="cls-2" d="M33.93,5c-.2.44.87.58.81.14C34.69,4.85,34.17,5.06,33.93,5Z"/><path class="cls-2" d="M38.8,5.33c-.8.18-1.62-.26-2.55-.06,0-.07,0-.14-.12-.12s-.1.14-.23.12-.95-.07-.59.1.93-.13,1,.14-.3.09-.24.36a19.4,19.4,0,0,1,3.49,0c.27.06.25-.21.58-.1s.14.33.46.25c0-.19.26-.08.35,0,.11-.12.43,0,.35-.35A8.92,8.92,0,0,1,38.8,5.33Z"/><path class="cls-2" d="M54.45,5.92c.09,0,.23,0,.24-.11S54.46,5.8,54.45,5.92Z"/><path class="cls-2" d="M27.75,5.58c.32-.07.92.17,1.05-.1-.22,0-.26-.14-.47-.13C28.4,5.64,27.32,5.32,27.75,5.58Z"/><path class="cls-2" d="M30.66,5.39c-.09,0-.23,0-.23.12S30.66,5.51,30.66,5.39Z"/><path class="cls-2" d="M55.49,6c-.5,0,0,.2.23.12s.43,0,.47-.11h-.7Z"/><path class="cls-2" d="M94.31,6.87c.09,0,.22,0,.23-.12C94.45,6.78,94.31,6.75,94.31,6.87Z"/><path class="cls-2" d="M94.65,7c.26,0,.43,0,.46-.23C94.91,6.78,94.54,6.63,94.65,7Z"/><path class="cls-2" d="M96,6.89c.13,0,.32,0,.34-.12C96.24,6.79,96.05,6.75,96,6.89Z"/><path class="cls-2" d="M96.49,6.9c.13,0,.32,0,.34-.12C96.7,6.8,96.51,6.76,96.49,6.9Z"/><path class="cls-2" d="M26.58,5.68c0-.07,0-.14.12-.12h.35c.12,0,.09-.15-.12-.12S26.21,5.54,26.58,5.68Z"/><path class="cls-2" d="M44.59,6.17c-.87-.52-1.94-.16-3-.42,0,.37.35.36.69.37s.45.19.81.14c1-.08,1.76.21,2.44,0a3.75,3.75,0,0,0,.8.26.76.76,0,0,1,.59-.11V6.35A10.56,10.56,0,0,0,44.59,6.17Z"/><path class="cls-2" d="M25.88,5.67c.14,0,.33,0,.35-.11C26.09,5.57,25.9,5.53,25.88,5.67Z"/><path class="cls-2" d="M104.86,7.24a.12.12,0,0,0,.23,0C105,7.25,104.91,7.07,104.86,7.24Z"/><path class="cls-2" d="M143.25,7.4c-.36.06-.41-.21-.8-.11a1,1,0,0,0-.69.13c-.22,0-.69-.16-.57.24,1.27-.06,2.24.19,3.55.09.28,0,.26.22.58.11.83-.19,1.74.39,2.17-.13-1.26-.22-2.21,0-3.21-.46C144.09,7.48,143.61,7.38,143.25,7.4Z"/><path class="cls-2" d="M34,6.42c.25-.1.7,0,.59-.46A.47.47,0,0,0,34,6.42Z"/><path class="cls-2" d="M109.78,7.53c-.13,0-.46-.34-.57,0,.12.13.82.25.92,0C110,7.36,109.92,7.54,109.78,7.53Z"/><path class="cls-2" d="M.69,5.7c-.14,0-.18-.18-.24,0-.16,0-.29-.09-.45-.12V6l.8,0C.78,5.85.8,5.7.69,5.7Z"/><path class="cls-2" d="M33.44,6.17c-.12,0-.1.15.11.12C33.56,6.17,33.5,6,33.44,6.17Z"/><path class="cls-2" d="M111.39,7.66c.09,0,.22,0,.23-.12S111.39,7.54,111.39,7.66Z"/><path class="cls-2" d="M46.91,6.46c0,.27.49.07.69.14C47.59,6.34,47.11,6.54,46.91,6.46Z"/><path class="cls-2" d="M48,6.61c.23,0,.85.32,1,0C48.76,6.58,48.13,6.32,48,6.61Z"/><path class="cls-2" d="M49.1,6.76c.28.15,1.39.32,1.51-.09C50.22,7,49.27,6.28,49.1,6.76Z"/><path class="cls-2" d="M94.64,7.59s.18,0,.12-.12S94.58,7.53,94.64,7.59Z"/><path class="cls-2" d="M98.65,7.64s.18,0,.12-.12S98.6,7.58,98.65,7.64Z"/><path class="cls-2" d="M116.32,7.81s.17-.06.11-.12S116.26,7.74,116.32,7.81Z"/><path class="cls-2" d="M116.89,7.81s.17-.06.12-.12S116.83,7.75,116.89,7.81Z"/><path class="cls-2" d="M118.84,7.82c0,.15.13.07.23,0A.12.12,0,0,0,118.84,7.82Z"/><path class="cls-2" d="M121.82,7.72c-.09,0-.23,0-.23.12.31.23,1,.07,1.49.11.57-.17,1.23.35,1.38-.12a4.51,4.51,0,0,1-1-.11Z"/><path class="cls-2" d="M132,7.71s-.17,0-.11.12S132.08,7.77,132,7.71Z"/><path class="cls-2" d="M30.64,6.47c.17-.07,0-.14,0,0Z"/><path class="cls-2" d="M31,6.48c.14,0,.33,0,.35-.11S31,6.34,31,6.48Z"/><path class="cls-2" d="M33.43,6.53c.09,0,.23,0,.24-.11S33.44,6.41,33.43,6.53Z"/><path class="cls-2" d="M50.72,6.91c.17.15,1,.26,1.16,0C51.55,7,51,6.59,50.72,6.91Z"/><path class="cls-2" d="M73,7.42s.18,0,.12-.11S73,7.36,73,7.42Z"/><path class="cls-2" d="M30.64,6.47c-.17.07,0,.15,0,0Z"/><path class="cls-2" d="M5.53,46.84A32.89,32.89,0,0,0,10,46.77a6.4,6.4,0,0,0,2.06.15,1.43,1.43,0,0,1,.68,0,2.36,2.36,0,0,0,.46,0c.23,0,.46-.11.69-.11s.23.14.57.13.25-.11.46-.11.46.19.92,0c1.47.34,3.68,0,5.16.32,2.4,0,3.93.31,6.31.35,1.36.35,3.45,0,4.82.33.32.11.3-.16.58-.11.09.23.41.13.57.14.55,0,1.27,0,2,0a9.48,9.48,0,0,0,2.53-.07c.48.27,1.4.09,2.07.17.28-.05.25.22.57.13l1.39,0c.27,0,.24.22.57.13l1.84,0c.28,0,.25.23.58.13.67.2,1.55-.2,2.31.06,0,0,.15.12.11.12.15,0,.87-.32,1-.1s0,0,.23,0a3.45,3.45,0,0,0,.46.13s.13-.16.24-.11,0,.1.11.12c.78.1,1.89-.06,2.89.07.14,0,.38.12.57.13,1.94.14,4,0,6.25.14.28.06.26-.21.58-.1,2.31,0,4.43-.2,6.62-.33a7.9,7.9,0,0,0,2.09-.07c.28,0,.25.22.57.13a.64.64,0,0,1,.36-.11c.13,0,.06.11.11.12s.09-.11.12-.11c.52,0,1.2,0,1.86,0,.23,0,.59-.1.69.13.2-.2.69-.08,1-.1,2.49.35,4.79.19,7.32.52a.75.75,0,0,1,.58-.11l7.58.13c.28.06.26-.21.59-.11l2.1,0c.28.05.25-.21.58-.11l2,0c.28.06.26-.21.59-.11A22.57,22.57,0,0,0,98,48.86a1,1,0,0,0,.7.13,3,3,0,0,1,1.29-.11,4.16,4.16,0,0,0,.58.13c.22,0,.49-.1.7-.11,3.92-.23,8.54.31,12.62.11.28,0,.26.22.59.12.49-.11,1,.07,1.75,0,.33-.09.3.18.59.13s.25-.22.58-.12c.78.29,2.14,0,2.92.26a2.09,2.09,0,0,0,.94-.12.55.55,0,0,0,.58.24,33.48,33.48,0,0,1,3.63-.12,10.93,10.93,0,0,0,2.1.36c.82-.14,1.22,0,2-.12,1.65.11,4.27.18,5.85.35.21,0,.25-.15.47-.12.41.19.87-.1,1.52,0a4.65,4.65,0,0,1,.82-.24c.72,0,1.11-.23,1.87-.14A59.62,59.62,0,0,0,147.2,48h.7c.23-.28.81-.21,1.16-.36s.88-.07,1.05-.37c.57.09.6-.35,1.17-.25.21-.27.91,0,1-.37a6.76,6.76,0,0,1-2.33,0,1.74,1.74,0,0,1-1.17,0c-.59.24-1.41.24-2,.49-.47-.14-.85.33-.94-.11a11.63,11.63,0,0,0,1.75-.61h.7c.23-.28.81-.21,1.16-.37.29.05.25-.22.59-.12-.09-.33.55.08.46-.24.6.08.76-.26,1.28-.26.23-.24.95,0,1-.37-1.1.12-2,.39-3.15.51-.18-.21-.62-.15-.82-.35.07-.41.78-.16,1.05-.37a2.65,2.65,0,0,1,1-.25,15.73,15.73,0,0,1,2.22-.5c.1-.21.4-.23.57-.37.46,0,.85-.1.93-.49a4.91,4.91,0,0,0-1.28.38,8.48,8.48,0,0,0-2,.26c-.21-.3-1.08.09-1.28-.23s.44-.26.46-.6c-.28,0-.25.22-.58.12s-.35-.37-.59-.11c0-.27-.49-.05-.7-.12,0-.24,0-.37-.24-.35-.38.21-.51-.06-1,0-.08-.21-.56,0-.59-.24a6.58,6.58,0,0,1-2.68.14c-.34,0-.36.28-.7.25,0-.34-.71.11-.7-.23a3.55,3.55,0,0,1-1.28.13c0-.26-.41,0-.58-.12,0-.35.45-.59,0-.72,0,.29-.53-.06-.34.36a.33.33,0,0,0-.35.25c-.47-.08-.29.51-.7.48A.76.76,0,0,0,139,43c-.25-.3-.85-.24-1.29-.35,0-.07.29-.46,0-.48.06.27-.63.37-.7.13a1,1,0,0,1,.7-.13c-.09-.22-.35-.08-.12-.36.88,0,1.1-.26,1.87,0,.07-.17.25-.23.46-.25s.12-.27.35-.24c.38-.15.09.39.47.24a7.91,7.91,0,0,1,2-.26c.09-.46-.56-.15-.82-.23-.44-.13-.33.3-.7.24V41A1.68,1.68,0,0,1,140,41c-.43-.07-1.22.24-1.16-.35,1.63-.25,3.3-.46,4.88-.76.62,0,.69-.13,1.17,0,.46-.2,1.18-.15,1.51-.49-.36.09-.35-.2-.7-.11-.09.27-.66.05-.93.12,0-.14-.13-.07-.24,0a1,1,0,0,1-.35-.24,5.21,5.21,0,0,1,1.52.11c0-.26.41-.06.58-.13s.21,0,.35,0c.07-.3,0-.47.45-.6,0,.23,0,.37.24.35.47,0,.65-.22,1.17-.13.19,0,.37-.08.57-.12s.45.07.47-.13a4.58,4.58,0,0,0-1.28.13c-.08-.35-.25.12-.47,0s-.43.31-.46,0,.59,0,.46-.48H147c.42-.42-.42-.07-.46-.36.21-.26.68-.26,1.16-.25.24-.19.77-.09,1-.25.56.14.95-.28,1.28,0,.11-.36.67-.26.93-.49h.69a1,1,0,0,1,.93-.25,3.38,3.38,0,0,1,.58-.37c.18,0,.44.05.46-.12.18,0,.44,0,.46-.13.35,0,.79,0,.81-.37a3.06,3.06,0,0,0-1.39.26c-1.57,0-2.7.51-4.29.52a1,1,0,0,1-.7.13c-.17-.07-.6.14-.58-.12.21-.26.68-.26,1.16-.25a9.77,9.77,0,0,1,2.43-.5c0-.26.41-.06.58-.12,0-.23.39-.08.46-.25l1-.37a8.9,8.9,0,0,1,2.2-.76c.07-.16.45,0,.46-.24.17-.07.6.13.58-.13.17-.07.6.13.58-.13.16-.07.6.13.58-.13a5.92,5.92,0,0,0-1.17-.22c-.39,0-.94-.08-1.16.14-.08-.36-.24.12-.46,0s-.44,0-.46.13c-.48-.11-.47,0-1.05,0-.43-.16-.79.37-1,0a.53.53,0,0,1,.35-.13c.12,0,.07-.24.22-.24,0-.25.31-.25.46-.37,1-.08,1.7-.43,2.66-.52-.07-.43.7,0,.58-.49-.42,0-.56.23-.93.25s-.91.17-1-.1a.86.86,0,0,1,.45-.73c0-.2.65-.48.11-.48a4.12,4.12,0,0,1-1.27.14c-.26.08-.86.32-.93-.1a14.47,14.47,0,0,0,3.46-.9c.41.09.45-.18.81-.13s.69.05.7-.25a19.1,19.1,0,0,0-2.9.17c-.24,0-.24-.32-.35-.48-.3.08-.42,0-.35-.35s.67-.11.8-.37c.53,0,.45-.11.93,0a4.7,4.7,0,0,1,1.38-.26c.23-.21.35-.52.69-.61a8.72,8.72,0,0,0,2-.39c.78.07,1.2-.22,2-.15.08-.25.54-.09.58-.37a3,3,0,0,0-1.51,0l-1.15,0c-.28-.07-.84.16-.93-.1a9.26,9.26,0,0,0,1.61-.39,4.37,4.37,0,0,0,1.85-.39,2.37,2.37,0,0,0,1.61-.51,4.45,4.45,0,0,0-1.27.14c-.28.06-.26-.21-.58-.11l-.7,0c-.18,0-.44.06-.46-.12a5.51,5.51,0,0,1,1.5-.26c.18-.07,0-.13-.12-.12-.59.11-.76-.24-1.27-.22a4.05,4.05,0,0,0-1.16.14c-.56-.12-1.69.36-1.74-.33.08-.44.84-.18,1.27-.26,1.11-.34,2.6-.3,3.69-.66h.58a4.31,4.31,0,0,1,1-.26c.09-.34.84,0,.8-.49-.13-.27-.73,0-1-.1-.07.28-.71,0-.8.25-.39-.27-1.37.09-1.63-.33.17-.54,1.08-.33,1.38-.74-.1-.1-.32-.07-.35-.24a.12.12,0,0,0-.24,0c-.24-.26-.32.06-.69,0-.16-.24-.39.12-.69-.11H161c-.89-.24-1.54,0-2.31-.32a7.52,7.52,0,0,0-2.08.16,4,4,0,0,0-2.65-.32c-.39,0-.4-.38-.82-.35s-.54-.07-.81-.1h-.69c-.17-.06-.59.15-.58-.11a10.29,10.29,0,0,1,2.19-.39c.22-.05.09-.46.46-.36,1.4-.08,2.45-.52,3.79-.66.66-.8,1.91-1,3.22-1.13.13,0,.09-.23.11-.37.18,0,.19-.11.34-.12a1.55,1.55,0,0,1,.8,0c1.79-.49,4-.57,5.4-1.41.75,0,1-.49,1.83-.39,0-.26.09-.38.34-.37-.09-.32.22-.24.22-.48-.38,0-.57.21-1,.14-.28-.07-.84.16-.93-.11s.61-.47.22-.72c-.15.24-.7.08-.92.26-.37,0-.48.22-.91.13a.32.32,0,0,1-.35-.23c-.19,0-.44.06-.47-.12a3.14,3.14,0,0,0,1-.37c-.14-.47.34-.91,0-1.2-.08.27-.64.06-.92.13l-1,0c-.38.2-1.11.06-1.49.27-.82-.3-2.28.09-3.11-.2l-1.38,0c-.27-.08-.31-.39-.58-.47,0,.13-.12.07-.12,0-1.14,0-2.52.2-3.33-.19l-1.27,0c-.27,0-.34-.21-.69-.11-.17-.07-.59.14-.58-.12l1.61,0c.22-.23.21.07.58,0h.69c.31-.08.28-.51.68-.49.19,0,.2-.12.34-.13s.76.14.8-.13c-.46-.12-.54,0-1.14,0-.12-.08-.13-.27-.35-.23s-.42-.12-.69-.11-.34.21-.69.13-.25-.22-.58-.11h-.69c-.16-.07-.59.14-.57-.12l2.07,0c.22-.16.65-.12.91-.25,1.24.05,2.53,0,3.68.18.66-.24.88.08,1.84,0,.34-.24,1-.14,1.25-.5-1.33-.31-3.37.14-4.71-.16l-1.26,0c-.3-.28-1.31.19-1.27-.46,1.76-.31,3.54.07,5.51-.09.08-.24.64,0,.69-.25-2.2,0-4.38,0-6.44-.14a47.32,47.32,0,0,1-6.31-.17,16,16,0,0,1-3.56-.09h-.91c-.33,0-.63,0-.58-.36a15.6,15.6,0,0,0,2.87.1.9.9,0,0,0,.8,0c0,.14.21.1.35.12h.91c.21,0,.24-.11.12-.12h-.92c-.28,0-.25-.22-.58-.12-1.68,0-2.4-.24-4.12-.08-.13,0-.08.24-.23.24-.05-.27-.57,0-.8-.11s-.68-.14-.69.12c.21.06.69-.16.57.24-4-.22-9.14.27-13.53-.31-.35-.09-.34.21-.69.12-2.25-.19-5.08-.09-7.79-.13-.36.09-.34-.21-.69-.12a.74.74,0,0,1-.58.11c-.36.11-.65-.1-1-.12,0,0-.06.11-.11.12-.29,0-.4-.14-.69-.13-.09,0-.2.1-.34.12h-.35c-.26,0-.54-.12-.8-.13a4.32,4.32,0,0,1-.58.12,11.45,11.45,0,0,1-2.06-.13c-.86.09-2.35-.11-3.21,0-.27,0-.21-.42-.57-.37h-2.29c-.17.06-.59-.15-.58.11.2,0,.22.1.23.24-5,0-10.2-.21-15-.08-.28-.05-.26.21-.58.11a28.2,28.2,0,0,0-4,.05,20.25,20.25,0,0,1-3.56-.19c-.32-.1-.3.17-.57.12,0-.17-.29-.11-.46-.13s-.31-.2-.35,0c-.09-.09-.31-.19-.34,0-.2,0-.22-.1-.23-.24-.27,0-.66.49-.92.1.23,0,.36,0,.35-.24-.32-.1-.3.17-.58.11,0,.26-.1.38-.35.36-.07-.27.33-.38-.11-.37s-.91-.17-1,.1c.2,0,.22.1.23.25-.17,0-.33,0-.35-.13s-.2-.15-.23,0c-.35.08-.41-.13-.69-.13a2.25,2.25,0,0,1-1.15,0A14.2,14.2,0,0,1,72,8.12c-.28,0-.25.21-.58.11a6,6,0,0,0-1.84.08c-.23-.22-.23.08-.46-.13s-.6.13-.57-.13a2.47,2.47,0,0,1-1.05.09c-.07-.27-.8.09-.68-.37-1.27.26-3,.05-4.28.26a.72.72,0,0,0-.58-.14c-.26.12-.7.06-.93.22-.16-.19-.59-.12-.92-.14s-.4.22-.81.1c-.06,0-.13-.12-.11-.12-.19,0-.2.11-.35.11C58,8.06,57,8.05,56,8c-.21,0-.25-.12-.46-.14S55.3,8,55.1,8A.17.17,0,0,0,55,7.85c-.35,0-.76.11-1.17.09a11.72,11.72,0,0,0-2.08-.16,4.35,4.35,0,0,1-.58.1c-.09,0-.12-.15-.23-.12s0,.13-.12.11-.25-.11-.46-.13c-.83-.06-1.67,0-2.54-.06a20.77,20.77,0,0,1-3.6,0c-.28,0-.26.21-.58.11l-3.49-.08c-.27,0-.25.21-.58.11-3.36-.23-5.78-.09-9.64-.44a47.54,47.54,0,0,1-5.35,0,7.92,7.92,0,0,1-3-.05c-.55.23-1.5,0-2.1.2-1-.33-2.28,0-3.26-.16-.6.05-1.21.09-1.86.09s-1.44-.08-2.1,0c-.21,0-.25.11-.47.11s-.2-.12-.35-.12-.22.11-.23.11a2.72,2.72,0,0,0-.58-.12,3.88,3.88,0,0,0-.59,0c-.34,0-.26.08-.58,0a7.32,7.32,0,0,0-1.87.1c-.19,0-.19-.12-.35-.13s-.19.11-.35.12c-.73,0-1.67,0-2.56,0a1.8,1.8,0,0,0-.82-.25c-1,.1-2.19.12-3.47.12v40H.25C2,47.14,3.92,47.17,5.53,46.84Zm140.45-4c0,.12-.14.09-.23.12S145.89,42.88,146,42.85Zm-4.31.63a23.94,23.94,0,0,0,2.68,0c-.45.46-1.61.2-2.21.5-.18,0-.2-.11-.35-.12s-1,.24-1.28,0C140.77,43.34,141.22,43.72,141.67,43.48Zm-1.39.26c-.12.24-.45.26-.82.24C139.47,43.64,140,43.76,140.28,43.74Zm6.47-5.69c.06.06-.08.15-.11.12S146.72,38,146.75,38.05Zm14.33-12.77c-.11.19-.3.28-.46.13C160.73,25.21,160.93,25.13,161.08,25.28Zm-24,17.41c0,.14-.21.1-.35.12C136.79,42.67,137,42.71,137.12,42.69Zm-.81.72c.19,0,.2.11.35.12C136.71,43.76,136.13,43.7,136.31,43.41Zm-14.48,5.88c0,.12-.14.1-.23.13C121.6,49.3,121.74,49.32,121.83,49.29Zm-1.49-7.55c0,.13-.12.06-.12,0S120.34,41.67,120.34,41.74Zm-1.4,0c.11-.07.43-.27.35.12.28,0,.25-.21.58-.11.08.43-1,.29-.93,0-.17-.07-.6.14-.58-.12C118.53,41.67,119,41.47,118.94,41.73Zm-1.28,0c.06.07-.09.16-.12.12S117.63,41.69,117.66,41.72ZM87,46.29h-.7c-1,0-2.18-.15-2.91-.05-.11-.41.37-.19.59-.24l.81,0c.33-.09.3.17.58.13l1.63,0C87.38,46.09,87.37,46.38,87,46.29Zm3.27-.06a10.29,10.29,0,0,1-2.45.07c-.2,0-.22-.09-.23-.24L86,46c.42-.34.69-.08,1.29-.21.24,0,.31.08.46.12s.26-.21.59-.11v.36c.37,0,.86-.26,1.17,0,.26,0,.13-.34.35-.35s.14.09.11.24a.76.76,0,0,1,.58.13C90.54,46.38,90.21,46.38,90.22,46.23Zm-1.34-3.86c-.3,0-.19.44-.36.59s-.44-.07-.47.11c-.35-.32-.91.29-.92-.37.26-.26.47.12.93,0s0-.42.25-.59c.43-.08.49.21.92.13C89.22,42.35,88.84,42.61,88.88,42.37Zm-.12.59c-.06-.06.08-.15.11-.11S88.79,43,88.76,43Zm-4.53-.67c-.38,0-.58-.22-1-.14s-.28-.09-.69-.13c-.09.21-.21,0-.35,0-.09.21-.21,0-.35,0-.09.27-.65,0-.93.11a.75.75,0,0,0-.35-.25c0-.12.15-.09.24-.12a30.77,30.77,0,0,1,3.13.3l1.4,0c.33-.09.3.18.58.13l1,0c.24.08.81-.18.69.26-.58,0-.57-.13-1,0-.24,0-.35-.1-.58-.13s-.12.12-.23.11,0-.12-.11-.12Zm1.26,1.1c0,.28-.51.06-.58,0-.39.2-.52-.07-1,0-.35-.19.51-.1.7-.11C84.9,43.27,85.32,43.2,85.49,43.39Zm-5.7-.23c-1.27-.25-2.23-.15-3.48-.31,0-.26.42-.05.59-.11l.69,0,1.28,0c.51.2,1.36.07,1.85.28.5-.14.58,0,1.17,0,.11-.15.26,0,.46,0s.39-.05.35.25A15.67,15.67,0,0,0,79.79,43.16Zm1.26,1c0-.15.24-.12.23,0,.24,0,.16-.32.47-.23C81.85,44.38,81.22,44.33,81.05,44.15Zm-2-2.68c.06-.27.64-.1.58.13.21,0,.25-.14.47-.11a.64.64,0,0,1,.11.36c.07.13.26.13.22.37a5.83,5.83,0,0,0-1.62-.4C78.54,41.43,79.44,41.67,79,41.47ZM80.5,42.7c.06.06-.09.15-.12.12S80.47,42.67,80.5,42.7Zm1.42-1.17c.06.06-.09.15-.12.11S81.89,41.49,81.92,41.53Zm.81,0c.24,0,.31.09.46.13C83.23,41.88,82.54,41.87,82.73,41.54Zm.81.25c0-.11.14-.09.23-.11S83.63,41.77,83.54,41.79Zm3.25.18c-.28.39-.55-.34,0,0Zm.7-.11c.06.07-.08.16-.11.12S87.46,41.83,87.49,41.86ZM87,43.29c-.1-.13-.42,0-.34-.36-.33,0-.23.4-.7.23,0-.15,0-.34-.11-.37.09-.23.86-.16.81.14C87,42.86,87.08,43,87,43.29Zm-.46.11,1.86,0c-.27.38-.66,0-.94.22-.42,0-.44-.17-.81,0a2,2,0,0,0-.93-.14C85.79,43.1,86.28,43.34,86.54,43.4Zm1.18-1c.36-.44.38.37,0,0Zm1.47,2.18c.42-.18.07.41.35.37.13.16,0,.18,0,.35A.51.51,0,0,1,89.19,44.53Zm.1,1.44c-.06-.06.08-.15.11-.12S89.32,46,89.29,46Zm1.06-1.06c.17.38-.68.56-.58.11C90.05,45.07,90,44.81,90.35,44.91Zm-.3-2.64c.06.06-.09.15-.12.12S90,42.23,90.05,42.27Zm1.68,4.1c0-.14.21-.1.35-.11C92.06,46.4,91.86,46.36,91.73,46.37Zm3.15-.07a10.92,10.92,0,0,1-2.46.08c-.11-.4.37-.18.59-.23s.67,0,.82.14a2.43,2.43,0,0,1,1-.11v.12C95.36,46.19,94.89,46.66,94.88,46.3Zm16.69-.42c0-.11.14-.09.23-.12C111.8,45.88,111.66,45.86,111.57,45.88Zm1.05.13c-.05-.26.17-.23.35-.24A.33.33,0,0,1,112.62,46Zm1.75-.95a3.45,3.45,0,0,1-1.4,0h-1.16c-.21-.09.07-.12.23-.12h2.8c.29,0,.36-.22.59,0C115.27,45.45,114.85,44.93,114.37,45.06Zm-1.85-1.57c0-.34.72.1.7-.24.1,0,.11,0,.11.13a1.57,1.57,0,0,1,1,0c0,.27-.61,0-.7.24C113.29,43.58,112.74,43.7,112.52,43.49Zm2.56.14a.69.69,0,0,0-.58-.13c.13-.27.73,0,1-.11C115.63,43.71,115,43.3,115.08,43.63Zm1.28,1.44c0-.14.21-.1.35-.12C116.69,45.09,116.5,45.05,116.36,45.07Zm0-1.68c0-.11.14-.09.23-.11S116.46,43.37,116.37,43.39Zm-.35-.24c-.15-.16-.55-.08-.7-.24,0-.35.8.11.82-.24.36-.05.45.18.7.25C116.82,43.26,116,42.81,116,43.15Zm1.28-.23c0,.14-.21.1-.35.12C117,42.9,117.17,42.94,117.3,42.92Zm-2.2-1.57c-.24.51.44.22.93.24.13,0,.06-.11,0-.11,0-.27.41-.06.58-.12,0,.13-.23.08-.23.24s.21,0,.58.12c-.32.5-.88,0-1.52.11-.21.07-.48.06-.58.24a.61.61,0,0,1-.23-.6c-.28,0-.35.2-.7.11-.12.43.5.13.58.36-.12.2-.5.13-.7.24,0-.12-.14-.1-.23-.12,0-.25-.08-.32-.12-.48-.29.06-.45.2-.46-.24Zm-3.15.1c0,.14-.21.1-.35.12C111.62,41.43,111.81,41.47,112,41.45Zm-1.4.59H111a11.64,11.64,0,0,1,2.33-.1.87.87,0,0,1-.93.23s-.15-.12-.12-.12-.11.12-.23.12c-.48,0-1.07,0-1.63,0C110.25,42.09,110.42,42,110.55,42Zm.69.84c.37,0,.67,0,.93,0s.25.11.35.12.06-.11.12-.12.14.11.23.12c.13-.3.9.06,1-.23a2.58,2.58,0,0,0,1,.13c-.14.21-.61.09-.82.23-.46-.22-.84.17-1.28-.13-.15.32-.93,0-.94.48-.22,0-.22-.17-.34-.24H110.3c-.35-.12-1.18.25-1.16-.25A7.43,7.43,0,0,0,111.24,42.88Zm-.12.48c0,.14-.21.1-.35.12C110.79,43.34,111,43.38,111.12,43.36ZM110.41,45c0,.14-.22.1-.36.11C110.07,45,110.27,45.05,110.41,45Zm-1.26-3c0,.14-.12.07-.12,0S109.15,42,109.15,42Zm.22,1.56c.1.39-1.16.38-1.05,0A1.64,1.64,0,0,0,109.37,43.59Zm-1.27-1.45c.28-.39.55.34,0,0Zm.32,3.72c.21,0,.35-.1.58-.11a11.39,11.39,0,0,1,1.17,0c.43,0,1-.18,1,.25-.56,0-.81-.22-1.4-.13a.65.65,0,0,0-.47.12c-.18,0-.43-.05-.47.11-.56-.15-1.17.08-2,0a8.34,8.34,0,0,0-2.22.09c-.21-.14-.68,0-.82-.25-.34,0-.36.27-.7.23l-1.63,0c-.63-.1-1,.24-1.4,0a9.72,9.72,0,0,1-3.85.19c-.06-.56,1.09.31,1.17-.35-.2-.27-.89,0-1.28-.13,0,.14-.18.07,0,0,.09-.27.65,0,.93-.11h1.17l1.16,0c0,.19.26.09.35,0a.65.65,0,0,1,.47.13,2.83,2.83,0,0,1,1.75,0c.26,0,.6-.23.81,0a5,5,0,0,1,1.64-.1c.21-.22.29.1.7,0h.93c.23,0,.47-.1.7-.11a7.76,7.76,0,0,1,.82.13c.14,0,.17-.12.35-.12S108.21,45.86,108.42,45.86Zm-12-.74c.06.06-.09.15-.12.12S96.38,45.09,96.41,45.12Zm.47,0h.23C97.13,45.47,96.24,45.09,96.88,45.13Zm-.22-1.32c0-.12.14-.09.24-.12C96.89,43.81,96.75,43.78,96.66,43.81Zm.73-2.51c.13-.27.74,0,1-.11.32.08.93-.14,1,.14a.74.74,0,0,1,.58-.12c-.11.21-.36.26-.7.23a.35.35,0,0,0-.24.36c-.13,0-.29.21-.12.24-.24.23-.48.39-.81.23-.12,0-.1.14-.12.24-.22-.06-.29-.27-.58-.25,0-.33.63.1.58-.23s-.6-.11-.81-.25c.13-.27.73,0,1-.11C98.4,41.15,97.5,41.62,97.39,41.3Zm4,.65c0,.34-.76-.16-.58.35a2.45,2.45,0,0,0-.82.11c-.28,0,.06.55-.35.36,0-.14,0-.22.12-.24-.17-.19-.15-.56-.34-.73.34-.48.31.39.58.37s.37-.09.35-.36C100.66,41.85,101.15,41.75,101.34,42Zm-.8-.49v-.24c.23,0,.36,0,.35.24Zm.2,2.4c-.06-.07.09-.15.12-.12S100.77,43.89,100.74,43.86Zm-.46-.13c0,.34-.88,0-.24,0Zm-2.09-1c0,.11-.14.09-.23.11S98.1,42.77,98.19,42.75Zm8,2.25c.06.07-.09.16-.12.12S106.17,45,106.21,45Zm1.41-1.18c0-.14.21-.1.35-.12C108,43.84,107.75,43.8,107.62,43.82Zm-.11-.72A.63.63,0,0,1,108,43v.36C107.77,43.31,107.39,43.46,107.51,43.1Zm-.84,2c.28,0,.26-.22.59-.11.11.4-.37.18-.59.23C106.25,45.33,106.25,45,106.67,45.13ZM106.24,42c-.28.38-.47-.43,0,0ZM106,45c.11.44-.46.16-.7.23h-.81c-.33-.1-.31.17-.59.11l-1.75,0c-.2-.22-.3.1-.7,0h-.82l-1.74,0c-.35.14-.8-.09-1.4,0,0-.4.67-.18,1.05-.23,0-.1-.05-.12-.12-.12s0-.12.12-.12c.24,0,.37,0,.35.24.42.09.45-.25.82-.23-.05.21.09.23.23.24C101.91,45,104.15,45.23,106,45ZM102,42.2c.37.17-.41.11-.58.11V42a.63.63,0,0,1,.47-.11C102,42.17,101.42,42.17,102,42.2Zm.82-.35c0-.21-.09-.23-.23-.25,0-.12.23-.08.24-.23.11,0,.08.15.11.24a.81.81,0,0,0,.35.24c.09.1.06.33.23.36,0,.24-.54.17-.35-.12A.32.32,0,0,0,102.86,41.85Zm1.51,0c.07-.19.13,0,.12.12S104.37,42,104.37,41.87Zm.47-.48c.43-.11.16.48.23.72.14,0,.13-.18.12-.35.08.19.57,0,.46.36-.33-.1-.3.17-.58.11v-.12C104.76,42.17,104.68,41.41,104.84,41.39Zm-.13,1.8c0,.12-.14.09-.23.11S104.62,43.21,104.71,43.19Zm-.33-1.68c-.06-.07.08-.16.12-.12S104.41,41.54,104.38,41.51Zm.12-.48c0,.17-.1,0-.23,0A.12.12,0,0,1,104.5,41Zm-.13,1.55c.06.07-.09.16-.12.12S104.33,42.55,104.37,42.58Zm-2.31-1.7a6.85,6.85,0,0,0,2,0c0,.41-.64.23-1,.23s-1,0-1.17-.14C101.83,40.88,102,40.9,102.06,40.88Zm-1,.83a.58.58,0,0,0,.13-.36c.24-.05.3.08.46.12C101.68,41.73,101.4,41.73,101.11,41.71Zm-2.54-1.35c.06.06-.09.15-.12.11S98.54,40.32,98.57,40.36ZM98.34,40c0,.14-.21.1-.35.12C98,40,98.21,40,98.34,40Zm-.7,0c0,.36-.5.13-.81.11-.15,0-.19.16-.35,0C96.64,39.82,97.29,40.05,97.64,40Zm0,.36c0,.14-.21.1-.35.12C97.31,40.32,97.5,40.36,97.64,40.34Zm-.58,0c0,.33-.87-.05-.24,0Zm-.71.47c.28-.09.81-.23,1.05,0,.32-.23,1-.06,1.52-.1.51.18.72,0,1.16.13s.3-.16.58-.11a2,2,0,0,0,.93.13c-.1.18-.38.17-.58.24a1,1,0,0,1-.7-.13c-.27.05-.6.23-.82,0s-.3.16-.58.11-.24-.15-.46-.13H96.23C96.21,40.82,96.28,40.81,96.35,40.81Zm.93.49c0,.14-.22.1-.35.11a.5.5,0,0,1-.35.12c0,.21.11.6-.24.47,0-.31.07-.7-.23-.72C96.28,41.05,97.1,41.15,97.28,41.3Zm-1.1,3.82c0,.12-.15.09-.24.12C96,45.12,96.08,45.15,96.18,45.12ZM96,46.32c-.05.17-.1,0-.23,0A.12.12,0,0,1,96,46.32ZM95.58,46c-.06-.06.09-.15.12-.12S95.61,46,95.58,46Zm.13-.84c0,.14-.22.1-.35.12C95.38,45.09,95.57,45.13,95.71,45.11Zm-.36.72c0,.11-.15.09-.24.11S95.26,45.85,95.35,45.83Zm-.22-.72c.06.06-.09.15-.12.12S95.1,45.07,95.13,45.11ZM95,45.7c0,.25-.44.11-.47.36a15.75,15.75,0,0,0-3.14-.17c-.18,0,0,.1,0,.24.17,0,0,.1,0,.24l-.7,0c-.12-.3.55-.45,0-.47,0-.26.41-.05.58-.11H92l1.4,0c.09,0,.11,0,.11-.11.46.16.61-.06.94.13S94.67,45.6,95,45.7Zm-4.14-3.42c.06.07-.09.15-.12.12S90.83,42.25,90.86,42.28Zm.25-1c0-.12.14-.09.23-.12S91.2,41.3,91.11,41.33Zm.29,3.36h.24C91.65,45,90.77,44.65,91.4,44.69Zm3.26.53h-.47c-.37-.07-.54.08-.82.11,0-.26-.49-.06-.69-.13.09-.27.65,0,.93-.1h.93C94.75,45.07,94.78,45.21,94.66,45.22Zm-.9-2.65c0-.11.15-.09.24-.11S93.86,42.55,93.76,42.57Zm.94-.11c.06.07-.09.16-.12.12S94.67,42.43,94.7,42.46Zm-.14,1.32c0,.14-.11.07-.11,0S94.56,43.71,94.56,43.78Zm-.32-2c-.31.43-.74-.27,0,0Zm-.46-.48c-.11.19-.31.27-.46.11C93.42,41,93.49,41.24,93.78,41.26Zm-.4,3.46c0,.12-.14.09-.23.12H92.8c0-.11.14-.09.23-.11Zm-.76-3.36c.15,0,.18.21.35.24,0,.21-.21.27-.47.23C92.49,41.62,92.64,41.58,92.62,41.36Zm-.17,3.71c-.13.47-.85.15-1,0C91.53,44.81,92,45.21,92.45,45.07ZM92,41.34c-.11.08-.21.15-.23,0A.12.12,0,0,1,92,41.34Zm-.34-.48c-.39.34-.71,0-1.17.22C90.53,40.43,91.34,40.84,91.7,40.86Zm-5.34-.69s.25-.22.35-.12S86.23,40.4,86.36,40.17Zm-.47.59c0-.14.21-.1.35-.12-.08.11-.15.22,0,.24-.07.12-.27.12-.24.36C85.59,41.2,86.21,40.71,85.89,40.76Zm-1.75-.15h.93c.22.06.71-.15.58.25-.46-.23-.93.17-1.39-.14-.59.25-1.14-.11-1.63.09C82.77,40.36,83.65,40.69,84.14,40.61Zm-2.43-.53h.23C82,40.43,81.08,40,81.71,40.08Zm-.7,0c.06.06-.08.15-.11.12S81,40,81,40.07Zm-.23,0c0,.16-.29.09-.46.11C80.35,39.9,80.63,39.91,80.78,40.07Zm.22.48c.15.25.62.18.69.49.35-.07-.1-.26,0-.48l.82,0c.17.43-.4.06-.36.35s.19-.14.35.13c.18,0,.44-.05.46.13.23,0,.15-.33.47-.24.25.37.92,0,1.39.39.46,0,1.11-.09,1.39.14.07-.11.49-.43.24-.47.09-.38.32-.15.59-.11,0,.11-.15.09-.24.11,0,.4.67.2,1,.26s.31-.16.59-.11c0,.29.53,0,.34.37.07,0,.45-.29.46,0,.29-.11.32-.48.82-.35.26,0,.37.1.35.37.09-.1.71-.12.69.25-.72.13-.95-.23-1.27-.5-.27,0-.14.34-.36.35s-.76-.08-.93.1c-.46-.2-1.62.2-2.2-.16l-1.28,0c-.5-.29-1.61,0-2.09-.28a3.07,3.07,0,0,1-1.75,0c-.17,0,0,.16,0,.36-.17-.1-.45-.1-.34-.48-.48-.1-.6.17-1,.1-.25-.26.06-.34,0-.72C80.41,40.36,80.83,41.06,81,40.55Zm-1-.62a.36.36,0,0,1-.58.11C79.38,39.78,79.8,40,80,39.93ZM78,8c.23,0,.36,0,.34.25H78Zm-.31,31.87a.32.32,0,0,1,.47,0c.35.13,1.18-.23,1.15.27a.94.94,0,0,1-.69-.14c-.28,0-.35.2-.7.11C77.69,40.21,77.38,39.88,77.65,39.88Zm-.7,0a1.49,1.49,0,0,1-.81.22C76.05,39.63,76.69,40,77,39.87Zm-.6,1.06c.37.07.32-.31.59-.34s.33,0,.35.12c.07-.2.55,0,.58-.23.17.07.6-.12.58.14.53-.15.48,0,1,0-.07.38.21.38,0,.6A11.21,11.21,0,0,0,78.09,41c0,.25.17.23.35.25-.06.26-.58,0-.82.1,0,.31.45.1.34.49-.38.06-.54-.1-.81-.14.19-.16.16-.57.59-.47-.11-.2-.49-.14-.69-.25s-.36.18-.59.22c-.4.09-.44-.18-.81-.13C75.82,40.74,76.06,40.83,76.35,40.93Zm-.24.36c0,.46-.56.62-.58.11C75.81,41.45,75.79,41.18,76.11,41.29Zm-4.72-1.78c.24.07.77-.13.81.14.35-.22.72.05.93-.1s.24.15.46.13l.93,0c.3,0,.6,0,.57.37-1.41-.44-2.85-.08-4.51-.46C70.63,39.35,71.15,39.57,71.39,39.51Zm3.34,1.39c0,.13-.12.06-.12,0S74.73,40.83,74.73,40.9Zm-.39,1.79v-.36C74.69,42.16,74.68,42.87,74.34,42.69ZM71,41.54c0-.12.14-.09.23-.12a6.65,6.65,0,0,0,1.39.15c-.08.49-.32.23-.7.23S71.22,41.71,71,41.54Zm.91,1c-.31-.13-.91,0-.81-.5.28-.09.53.6.59,0C71.89,42.07,72,42.24,71.91,42.52Zm.47-.47c.28,0,.34.21.7.13,0,.16-.3.09-.47.11,0,.26.41.06.58.13s.41.09.23.13l-1.28,0C72.2,42.35,72.32,42.22,72.38,42.05Zm1.53-.69c-.28.45-.2-.42-.34-.49s-.35.2-.7.11c0-.49.73-.12,1-.22C74,41,73.57,41.25,73.91,41.36Zm-.58,0c-.35,0,.12-.5,0,0C73.47,41.34,73.39,41.52,73.33,41.35Zm-.25.47c-.36-.12,1.12-.32.93.14C73.85,41.77,73.42,41.84,73.08,41.82Zm.81.5c.15,0,.17.21.34.25,0,.1,0,.11-.12.11h-.23Zm.26-1.43c-.06-.07.09-.16.12-.12S74.18,40.92,74.15,40.89Zm-5.45-.24a8.4,8.4,0,0,1,1.27.27l1.27,0c.33,0-.26-.33.24-.23.3,0,.14.09.11.24.37.08.37-.22.58,0,0,.27.49.06.7.14-.1.54-.37.18-.82.22s-.57-.18-.93,0c-.26-.13-.7-.09-.92-.26a9.84,9.84,0,0,1-2.09-.16C68.13,40.62,68.41,40.63,68.7,40.65Zm2,1.6c0,.17-.1,0-.23,0A.12.12,0,0,1,70.75,42.25ZM70.06,42c-.06-.06.09-.15.12-.12S70.09,42,70.06,42Zm-1.86-.16c.32.08.93-.13,1,.14.14,0,.27,0,.23-.24a2.13,2.13,0,0,1,.46.37c.62-.11.13.37,0,0-.09,0-.23,0-.23.12a11.06,11.06,0,0,1-2.2-.29c-.22,0-.26.13-.47.11-.42,0-.44-.17-.81,0,0-.35-.86.15-.69-.37h.81c.21.08.69-.12.7.14A1.8,1.8,0,0,1,68.2,41.84ZM65,40.33a17.87,17.87,0,0,0,2.9.18c.1.44-.46.16-.7.23l-.81,0a5.82,5.82,0,0,0-1.62-.16C64.72,40.36,64.85,40.34,65,40.33Zm.22.72c0,.14-.21.1-.35.11C64.88,41,65.07,41.06,65.21,41.05Zm-1.4.33a.61.61,0,0,1,.35-.12c.36-.07.34.22.69.14,0,.29.53,0,.34.37-.21.13-.86-.11-1.39,0Zm0,1.19c.22,0,.26-.12.47-.1s.3.17.58.13.6-.13.57.13c.13,0,.19-.13.24-.23.32,0,.53.51.7,0a5,5,0,0,0,2.42.42c.23,0,.23.17.34.24s.24-.15.36-.23c.39,0,.94-.07,1.16.15,2.59,0,4.64.49,7.19.51.22,0,.25.14.46.13a11.54,11.54,0,0,1,2.67.18.88.88,0,0,1-.24.35c0-.23-.53-.19-.35.11-.17,0-.13-.35-.23-.12-.17-.07-.6.13-.58-.13-.18,0-.11.37-.47.23.05.27.57.06.81.13,0,.09,0,.12.12.13s.3-.24.46,0c.39-.12.4,0,.82-.11,0,.2.32.07.34.25.22,0,.26-.13.47-.11s.6.15.58-.11c.12,0,.14.09.23.12s.14,0,.12-.12-.13,0-.11-.12c-.08-.27-.81.1-.69-.37.55.1,1.37,0,2.21,0,.2.07.69-.14.69.13.22,0,.26-.13.47-.11a4,4,0,0,0,1.4.14c-.21.36-.43.13-.82.11-.73.27-1.7,0-2.33.08a.76.76,0,0,1-.58-.13c-.13,0-.18.13-.24.23a4.78,4.78,0,0,1,1.4.27h.81c.21-.1.58,0,.7-.23.38-.14.09.39.46.25a.65.65,0,0,0,.47-.11c.14,0,.28,0,.24-.24a.52.52,0,0,0,.35-.11c.2.11.63,0,.58.37.36,0,.34-.37.82-.23,0,.18-.15.21,0,.36-.16,0-.13.31.11.25,0-.15.17-.07,0,0,0,.26-.49,0-.7.1s-.23-.16-.34-.24c-.37-.15-.29.18-.47.23a2.07,2.07,0,0,0-1.28,0A6.79,6.79,0,0,0,84.3,45a.64.64,0,0,0-.36.12c-.2.06-.68-.16-.7.11-.28-.24-.93-.1-1.39-.15-1,0-1.41.05-2.21,0-.45.07-.42,0-.7.1-.29-.19-.9,0-1.16-.26a7.45,7.45,0,0,1-2.9-.06,8,8,0,0,1-2.21-.17c-.27,0-.44.18-.81.1a29.47,29.47,0,0,0-4.06-.32.59.59,0,0,1-.35-.13L65,44.28a.59.59,0,0,1-.46-.13c-.35.16-.41-.07-.93,0s-.93.06-.92-.38c.52,0,.58.18.93,0,0-.26-.41-.06-.57-.13-.37-.11.2-.16.35-.11s0-.35-.11-.37c0,.36-.48-.12,0,0v-.24l1.62,0c0-.34-.79.09-.8-.26-.16,0-.23.17-.47.11H63.2c-.07,0-.13-.12-.11-.12-.18,0-.38.25-.58,0,0-.15.2-.1.23-.23-.22-.43-.52,0-1-.14-.18-.48.5,0,.47-.35a1.87,1.87,0,0,0,1.15.26c0,.22-.39.07-.47.23C63.07,42.84,63.61,42.24,63.78,42.57Zm-3.44-1.39c.34-.16,1.09.12,1.74,0,.34.24,1.17,0,1.5.27-.27.6-.83.13-1.51.21a.59.59,0,0,1-.35-.13c-.31.06-.91-.18-1,.09.14,0,.06.18,0,0C60.37,41.69,60.3,41.49,60.34,41.18Zm1,1c-.29.4-.67,0-1.16.21-.19,0-.2-.12-.35-.13C60,41.8,61,42.06,61.36,42.16Zm-25.66.13c.19,0,.2.12.35.13C36.09,42.65,35.52,42.58,35.7,42.29Zm0-.35a20.33,20.33,0,0,0-4-.33c-.1-.18-.16-.38-.45-.37.09-.27.64,0,.92-.1a2.67,2.67,0,0,1,.69.25c.38,0,.58-.19,1-.09-.08-.27-.65-.07-.92-.14,0-.24,0-.38-.22-.37.21-.39.46.15.57.25s.2-.1.34-.11.21,0,.24-.11.29.18.45.25c.55-.28,1.08.07,1.73,0-.15.51-.62,0-1,.1-.12.4.36.2.57.25a.7.7,0,0,0,.58.13C36.14,41.83,35.75,41.69,35.71,41.94Zm-3.44-1.16a.55.55,0,0,0,.35.13c0,.14-.55.2-.81.1S32.12,41,32.27,40.78Zm4.12,1.77c.25-.4.84.21,1-.1.19.24.94-.08.91.38C37.68,42.75,37,42.67,36.39,42.55Zm-.1-.6c0-.12.14-.09.23-.12C36.51,42,36.38,41.92,36.29,42Zm1.26,0c.06.07-.08.16-.11.12S37.52,41.94,37.55,42Zm.92.14c.24-.33.72.06,1,0C39.25,42.5,38.86,42,38.47,42.11Zm.91.86c0-.11.14-.09.23-.11S39.47,43,39.38,43Zm.81-.46c0-.06.09-.15.12-.12S40.22,42.54,40.19,42.51Zm4.38.46c0-.12.14-.09.23-.12S44.66,42.94,44.57,43Zm1.61.39c0-.11.14-.09.23-.11S46.27,43.34,46.18,43.36Zm2-.19c-.06-.06.08-.15.11-.12S48.18,43.2,48.15,43.17Zm.23,0c.26-.37.65.12,1,0C49.16,43.56,48.77,43.07,48.38,43.18Zm1.73.16c.27-.07.54-.18.57.25C50.46,43.53,50,43.74,50.11,43.34Zm6.12,0c.21,0,.24.15.46.13C56.73,43.7,56,43.69,56.23,43.36Zm2.44-.31c.06.07-.08.16-.11.12S58.64,43,58.67,43.05Zm.12.25c.06.55-.65.28-1.06.33C57.79,43.21,58.34,43.31,58.79,43.3Zm-1.17.21c-.29.39-.54-.35,0,0Zm-1-2.06a.69.69,0,0,1,.1.48c.23,0,.36,0,.34.25-.27,0-.43-.2-.81-.14-.15-.08,0-.46-.21-.48C56,41.3,56.46,41.51,56.63,41.45Zm-.25.83c-.06-.06.08-.15.11-.11S56.41,42.32,56.38,42.28Zm-.8-.61c0,.13-.21.09-.35.11C55.25,41.64,55.44,41.68,55.58,41.67ZM55,41.41c0,.56-.34.22-.7.23A.93.93,0,0,1,55,41.41Zm-3.35-.08c0,.12-.15.09-.24.12C51.43,41.33,51.56,41.36,51.66,41.33ZM18.83,39c.35.09.34-.2.7-.11.36-.09.35.2.57.25s.09-.3.35-.23.33.21.69.13c.06.21.54,0,.57.25.33,0,.36-.26.69-.23,0,.14.18.14.34.13l1,0a.55.55,0,0,1,.34.12l2.08,0c.2-.06.48-.05.58-.23a.9.9,0,0,0,.8,0c0,.18.14.21,0,.36.36.11.36-.18.58-.22l1.15,0,.34.36c.35.14.28-.18.46-.23l1.5,0c.37-.1.23.32.45.37s.11-.21.24-.24a14.59,14.59,0,0,1,2.3.29,7.87,7.87,0,0,0,1.15-.09c.62.27.91.13,1.73.16.32-.08.23.24.46.24.89-.28,1.48.14,2.19-.07a.68.68,0,0,1,.46.13c.22,0,.26-.13.46-.11a4.72,4.72,0,0,0,1.85.16c.32.07.59.19.91.26s.54-.07.82-.1a9.48,9.48,0,0,1,2.07.29.63.63,0,0,0,.46-.11c1.17.23,1.84.22,3,.43.32-.08.23.24.46.25,0-.11.52-.31.46-.11.24,0,.1.45.34.49s.25-.13.46-.11,0-.44.24-.48c.51,0,.21.22.22.61.49-.09,1,.39,1.39,0,.12.09.52.48.69.14.15,0,.1.21.22.24l.7,0c.27,0,.33.21.69.13.15,0,.15.16.34.13,0,.14,0,.34.11.36-.16.51-.37-.12-.81,0s-.36.18-.59.22a19.45,19.45,0,0,1-3.34-.08.33.33,0,0,1-.35-.24c0-.18-.27-.12-.46-.14s-.07.14,0,.24-.3.09-.24.36c-.56.06-.81-.18-1.16,0-.07-.47-1.13,0-1-.62.58.06,1.55.75,1.85,0-.18-.51-.32.18-.69-.13-.32.07-.23-.25-.46-.25a1,1,0,0,1-.92-.27c-.14,0-.27,0-.24.24-.21,0-.07-.4-.33-.37s-.25.18-.13.36c-.05.19-.36.09-.24.47a2.08,2.08,0,0,0-.93.1A.5.5,0,0,1,46,42.4c-.13,0-.19.17-.23,0-.27,0-.44,0-.47.23-.07-.21-.55,0-.57-.25-.32-.1-.24.23-.47.23a1.72,1.72,0,0,0-1.16,0c-.9-.15-1.8-.31-2.75-.42a2.65,2.65,0,0,0-1.49-.51l.35-.35c.21-.06.68.16.7-.1.15,0,.1.21.22.24s.13-.19.13-.36-.61,0-.81,0-.83-.16-.93.11c-.24-.11-.38-.32-.8-.26s.3.47-.24.35c-.08-.22-.34-.09-.1-.36-.21.07-.68-.16-.7.11-.25-.11-.38-.32-.8-.26,0-.19-.29-.1-.22-.36a6.13,6.13,0,0,0-1.39.09.93.93,0,0,1-.69-.26c-1.45.3-2.35-.16-3.91-.08A3.79,3.79,0,0,1,27.45,40,4.29,4.29,0,0,1,26,39.83c-.29,0-.36.18-.58.23s-1,.14-1-.26a.74.74,0,0,1-.58.11,3.29,3.29,0,0,1-.69-.25c-.78.07-1.22-.19-1.95-.16a1.62,1.62,0,0,0-.82.35c-.89,0-1.36-.12-2.07,0,0-.16-.16-.23-.1-.48a.78.78,0,0,1-.58-.13C17.65,38.77,18.41,39.05,18.83,39Zm-.95,2.14c.24.08.76-.13.8.14.14-.14.41-.13.69-.11s.76-.14.81.13c.29-.09.46-.32.81-.34s.23.24.45.24c.07.17.45,0,.46.25,1.5-.41,3.17.55,4.72.09.14,0,.07-.14,0-.24.21,0,.27-.12.24-.36a26,26,0,0,1,2.64,0c0,.3-.43.27-.57.11a2.5,2.5,0,0,1-.7.22c-.44.05-.81-.32-1.15,0,.35.86,2.42.38,2.86.89.61-.12.13.37,0,0a.63.63,0,0,0-.46.11c-2.35-.24-4.59-.33-6.9-.48-.21,0-.38-.11-.57-.13-1.68-.17-3-.15-4.71-.32C17.32,41.09,17.59,41.1,17.88,41.12Zm-5.28-.43c0-.11.14-.08.23-.11S12.69,40.67,12.6,40.69Zm3.59-2c.1,0,.11,0,.11.12.14.37.45-.17.58.13-.11.35-.18.13-.46.11s-.87.3-.81-.25C15.78,38.75,16.21,39,16.19,38.7Zm-.61,2.39c.06.06-.08.15-.12.12S15.55,41.06,15.58,41.09Zm-.22-.48c.06.06-.09.15-.12.12S15.33,40.58,15.36,40.61Zm-.13.6c-.51-.19-1.51.12-1.6-.5.09.1.32.07.34.24.33.1.3-.16.58-.11S15.28,40.8,15.23,41.21Zm-3-2.08,2.65,0c-.06.55-.55.27-.93.24-.34.15-.91.06-1.26.22C12.66,39.37,12.15,39.58,12.27,39.13Zm-.59,1.43h.23C11.93,40.9,11.05,40.52,11.68,40.56Zm-.46,0c-.06.61-.24.13-.57.11C10.63,40.41,11.05,40.62,11.22,40.56Zm-2-.15c.23,0,.36,0,.34.25H9.27Zm-1,0c0-.15,0-.28.24-.24v.24H8.23c0,.23.13.27.11.48-.3,0-.29-.25-.34-.48Zm-.8.11c-.1.07-.21.14-.23,0A.12.12,0,0,1,7.43,40.51Zm-2.3,0c0,.12-.14.09-.23.12C4.9,40.48,5,40.51,5.13,40.48Zm-.34,0c0,.11-.15.09-.24.12C4.56,40.48,4.69,40.5,4.79,40.48Z"/><path class="cls-2" d="M45.27,7.15c.09,0,.23,0,.23-.12S45.27,7,45.27,7.15Z"/><path class="cls-2" d="M1,6.9c0-.34.8.11.81-.24a.5.5,0,0,1-.46-.24,2.82,2.82,0,0,0-.93.24A.39.39,0,0,0,0,6.45v.43a1.6,1.6,0,0,0,.56-.1C.78,6.75.82,6.91,1,6.9Z"/><path class="cls-2" d="M3,6.55c0,.15.13.08.24,0S3,6.4,3,6.55Z"/><path class="cls-2" d="M3.36,6.43v.24h.35C3.73,6.46,3.6,6.39,3.36,6.43Z"/><path class="cls-2" d="M43.18,7.22c.13,0,.33,0,.35-.11C43.39,7.12,43.2,7.08,43.18,7.22Z"/><path class="cls-2" d="M2.2,6.79c.13,0,.33,0,.35-.12C2.41,6.69,2.21,6.65,2.2,6.79Z"/><path class="cls-2" d="M148.65,8.55h-.23C147.79,8.53,148.68,8.89,148.65,8.55Z"/><path class="cls-2" d="M149.23,8.67c.08,0,.22,0,.22-.12S149.23,8.55,149.23,8.67Z"/><path class="cls-2" d="M14.67,7.05s.18-.06.12-.12S14.61,7,14.67,7.05Z"/><path class="cls-2" d="M10.47,7.12c.13,0,.18.17.24,0S10.5,7,10.47,7.12Z"/><path class="cls-2" d="M10.82,7v.24h.35C11.19,7,11.06,7,10.82,7Z"/><path class="cls-2" d="M13.16,7H11.41c-.1.45.55.16.81.25s.26-.22.58-.12h.59A.18.18,0,0,0,13.16,7Z"/><path class="cls-2" d="M157.87,11.19c.09,0,.23,0,.23-.12S157.87,11.07,157.87,11.19Z"/><path class="cls-2" d="M158.33,11.18c.13,0,.33,0,.34-.12C158.54,11.08,158.34,11,158.33,11.18Z"/><path class="cls-2" d="M157.07,11.32c.09,0,.22,0,.23-.12C157.21,11.23,157.07,11.21,157.07,11.32Z"/><path class="cls-2" d="M156,30.88c.09,0,.23,0,.23-.13C156.1,30.78,156,30.76,156,30.88Z"/><path class="cls-2" d="M149,38c-.66-.05-.16.45,0,0Z"/><path class="cls-2" d="M148.27,38.28s.17-.06.11-.13S148.21,38.21,148.27,38.28Z"/><path class="cls-2" d="M28.61,39.39s-.17.06-.11.12S28.67,39.46,28.61,39.39Z"/><path class="cls-2" d="M143.29,41.19s.17-.06.11-.12S143.23,41.13,143.29,41.19Z"/><path class="cls-2" d="M32.18,39.94s-.18.06-.12.12S32.23,40,32.18,39.94Z"/><path class="cls-2" d="M40.24,40.23s-.17.06-.11.12S40.3,40.3,40.24,40.23Z"/><path class="cls-2" d="M99,41.56c-.37.06-.47-.29-.58.11C98.61,41.61,99,41.82,99,41.56Z"/><path class="cls-2" d="M98.79,41.8h-.47V42C98.52,42,98.9,42.16,98.79,41.8Z"/><path class="cls-2" d="M137.94,42.2s.17-.06.11-.12S137.87,42.14,137.94,42.2Z"/><path class="cls-2" d="M40.91,41.57c.89-.15,1.52.41,1.84-.08-.18-.19-.89-.16-.56-.5-.14,0-.33,0-.35.12H42c-.12.33-.48,0-.69,0-.09.3-.7-.35-.69.23C40.56,41.52,40.88,41.39,40.91,41.57Z"/><path class="cls-2" d="M50.39,41.3c-.07-.07-.55-.29-.58,0C49.88,41.36,50.35,41.58,50.39,41.3Z"/><path class="cls-2" d="M141.55,42.41c.09,0,.23,0,.23-.12S141.55,42.29,141.55,42.41Z"/><path class="cls-2" d="M51,41.56c.06-.26-.16-.23-.34-.25A.31.31,0,0,0,51,41.56Z"/><path class="cls-2" d="M56.5,41.69s-.17.05-.11.11S56.56,41.75,56.5,41.69Z"/><path class="cls-2" d="M43.45,41.5s-.18.06-.12.12S43.5,41.57,43.45,41.5Z"/><path class="cls-2" d="M46.79,41.82c-.14,0-.33,0-.35.11C46.58,41.92,46.77,42,46.79,41.82Z"/><path class="cls-2" d="M40.67,41.92s.17-.05.12-.12S40.61,41.86,40.67,41.92Z"/><path class="cls-2" d="M43.43,42.1s.18-.05.12-.12S43.37,42,43.43,42.1Z"/><path class="cls-2" d="M47.24,42.19c-.15,0-.21-.18-.45-.13C46.75,42.41,47.22,42.53,47.24,42.19Z"/><path class="cls-2" d="M46.43,42.29s-.17.05-.12.12S46.49,42.35,46.43,42.29Z"/><path class="cls-2" d="M66,43.22c-.07-.06-.34-.49-.46-.13C65.58,43.16,65.85,43.59,66,43.22Z"/><path class="cls-2" d="M66.9,43.13c0-.07-.09-.14-.12,0S66.88,43.26,66.9,43.13Z"/><path class="cls-2" d="M64,43.06h-.24C63.14,43,64,43.4,64,43.06Z"/><path class="cls-2" d="M70.85,43.21c-.14,0-.33,0-.35.11S70.82,43.35,70.85,43.21Z"/><path class="cls-2" d="M68.16,43.64c.27-.22,1.09.32,1.29-.22-.35-.09-.43.12-.7.11v-.24c-.33,0-.79-.12-.82.22C68,43.54,68.16,43.52,68.16,43.64Z"/><path class="cls-2" d="M64.34,43.55c0,.06.09.13.12,0S64.37,43.41,64.34,43.55Z"/><path class="cls-2" d="M76.18,43.69v.24h.34C76.54,43.72,76.41,43.65,76.18,43.69Z"/><path class="cls-2" d="M74.78,43.78s-.17,0-.11.11S74.84,43.84,74.78,43.78Z"/><path class="cls-2" d="M78.5,44c-.07-.18-.14,0,0,0Z"/><path class="cls-2" d="M78,44a.5.5,0,0,0-.47.22C77.83,44.23,78,44.17,78,44Z"/><path class="cls-2" d="M78.5,44c.07.17.14,0,0,0Z"/><path class="cls-2" d="M64.45,43.91c.13,0,.18.18.23,0A.12.12,0,0,0,64.45,43.91Z"/><path class="cls-2" d="M79,44.34c-.1,0-.23,0-.24.12S79,44.46,79,44.34Z"/><path class="cls-2" d="M98.38,46.11A.7.7,0,0,0,97.8,46C97.61,46.34,98.4,46.3,98.38,46.11Z"/><path class="cls-2" d="M98.49,46.23s.18-.06.12-.12S98.43,46.16,98.49,46.23Z"/></svg>