<svg id="icons3" xmlns="http://www.w3.org/2000/svg" width="125" height="25" viewBox="0 0 125 25"><defs><style>.cls-1{fill:#e59c2e;}</style></defs><title>reviews-5stars-tumeric-solid</title><polygon class="cls-1" points="12.04 1.33 14.81 9.86 23.78 9.86 16.53 15.14 19.3 23.66 12.04 18.39 4.79 23.66 7.56 15.14 0.3 9.86 9.27 9.86 12.04 1.33"/><polygon class="cls-1" points="37.27 1.33 40.04 9.86 49.01 9.86 41.76 15.14 44.53 23.66 37.27 18.39 30.02 23.66 32.79 15.14 25.53 9.86 34.5 9.86 37.27 1.33"/><polygon class="cls-1" points="62.5 1.33 65.27 9.86 74.24 9.86 66.98 15.14 69.76 23.66 62.5 18.39 55.24 23.66 58.02 15.14 50.76 9.86 59.73 9.86 62.5 1.33"/><polygon class="cls-1" points="87.73 1.33 90.5 9.86 99.47 9.86 92.21 15.14 94.98 23.66 87.73 18.39 80.47 23.66 83.24 15.14 75.99 9.86 84.96 9.86 87.73 1.33"/><polygon class="cls-1" points="112.96 1.33 115.73 9.86 124.7 9.86 117.44 15.14 120.21 23.66 112.96 18.39 105.7 23.66 108.47 15.14 101.22 9.86 110.19 9.86 112.96 1.33"/></svg>