<svg id="Layer_1" data-name="Layer 1" xmlns="http://www.w3.org/2000/svg" width="94" height="44" viewBox="0 0 94 44"><defs><style>.cls-1{fill:#4a455c;}</style></defs><title>reviews-logolink2-facebook</title><path id="Fill-2" class="cls-1" d="M7.87,15.27c-1.08,0-1.4.48-1.4,1.54v1.77h2.9l-.29,2.85H6.47v8.65H3V21.43H.65V18.58H3V16.86c0-2.87,1.16-4.39,4.4-4.39a15.08,15.08,0,0,1,2,.12v2.68Z"/><path id="Fill-5" class="cls-1" d="M13.09,24.74c0,1.71.63,2.85,2.24,2.85,1.43,0,2.15-1,2.15-2.68V23.75c0-1.65-.72-2.68-2.15-2.68-1.61,0-2.24,1.13-2.24,2.85ZM9.61,24c0-3.21,1.52-5.62,4.71-5.62a3.42,3.42,0,0,1,3.31,2V18.58H21v11.5H17.63V28.34a3.38,3.38,0,0,1-3.31,2c-3.19,0-4.71-2.42-4.71-5.63Z"/><path id="Fill-7" class="cls-1" d="M28.2,18.34a6.35,6.35,0,0,1,3.33.77l-.77,2.46A5.55,5.55,0,0,0,28.44,21c-1.88,0-2.7,1.09-2.7,2.95v.67c0,1.87.82,2.95,2.7,2.95a5.4,5.4,0,0,0,2.32-.53l.77,2.47a6.35,6.35,0,0,1-3.33.77c-4.08,0-5.94-2.2-5.94-5.73v-.53c0-3.53,1.86-5.72,5.94-5.72"/><path id="Fill-9" class="cls-1" d="M35.47,23.26h4.2V23c0-1.25-.5-2.24-2-2.24s-2.17,1-2.17,2.53M32,24.76v-1c0-3.26,1.86-5.41,5.65-5.41,3.58,0,5.15,2.17,5.15,5.36v1.83H35.47c.07,1.58.77,2.28,2.71,2.28a9.94,9.94,0,0,0,3.69-.7l.63,2.39a11.29,11.29,0,0,1-4.47.84c-4.39,0-6-2.2-6-5.58"/><path id="Fill-11" class="cls-1" d="M52.2,23.89c0-1.62-.62-2.82-2.29-2.82-1.42,0-2.2,1-2.2,2.65v1.21c0,1.64.78,2.66,2.2,2.66,1.67,0,2.29-1.21,2.29-2.83Zm3.48.8c0,3.21-1.54,5.63-4.73,5.63a3.56,3.56,0,0,1-3.43-2v1.74H44.24V12.8l3.47-.31v7.68A3.48,3.48,0,0,1,51,18.34c3.19,0,4.73,2.41,4.73,5.62Z"/><path id="Fill-13" class="cls-1" d="M64.81,23.8c0-1.53-.63-2.73-2.25-2.73s-2.24,1.2-2.24,2.73v1.06c0,1.52.62,2.73,2.24,2.73s2.25-1.21,2.25-2.73Zm-8,.82V24c0-3.31,1.88-5.7,5.72-5.7s5.73,2.39,5.73,5.7v.58c0,3.31-1.89,5.7-5.73,5.7S56.84,27.93,56.84,24.62Z"/><path id="Fill-15" class="cls-1" d="M77.41,23.8c0-1.53-.63-2.73-2.24-2.73s-2.25,1.2-2.25,2.73v1.06c0,1.52.63,2.73,2.25,2.73s2.24-1.21,2.24-2.73Zm-8,.82V24c0-3.31,1.89-5.7,5.73-5.7s5.72,2.39,5.72,5.7v.58c0,3.31-1.88,5.7-5.72,5.7S69.44,27.93,69.44,24.62Z"/><polygon id="Fill-17" class="cls-1" points="85.67 24.06 89.1 18.58 92.79 18.58 89.19 24.25 92.94 30.08 89.24 30.08 85.67 24.45 85.67 30.08 82.19 30.08 82.19 12.8 85.67 12.49 85.67 24.06"/></svg>