<svg xmlns="http://www.w3.org/2000/svg" xmlns:xlink="http://www.w3.org/1999/xlink" width="555" height="105" viewBox="0 0 555 105"><defs><style>.cls-1{fill:none;}.cls-2{fill:#e59c2e;}.cls-3{isolation:isolate;}.cls-4{mix-blend-mode:multiply;}.cls-5,.cls-6,.cls-7,.cls-8,.cls-9{stroke:#e59c2e;stroke-linecap:round;stroke-linejoin:round;stroke-width:1.75px;}.cls-5{fill:url(#_6_lpi_30_12);}.cls-6{fill:url(#_6_lpi_30_12-3);}.cls-7{fill:url(#_6_lpi_30_12-5);}.cls-8{fill:url(#_6_lpi_30_12-7);}.cls-9{fill:url(#_6_lpi_30_12-9);}</style><pattern id="_6_lpi_30_12" data-name="6 lpi 30% 12" width="4" height="4" patternTransform="translate(29.53 78.51) scale(2.12)" patternUnits="userSpaceOnUse" viewBox="0 0 4 4"><rect class="cls-1" width="4" height="4"/><rect class="cls-2" x="2.5" y="2.51" width="1" height="1"/><rect class="cls-2" x="0.5" y="0.49" width="1" height="1"/></pattern><pattern id="_6_lpi_30_12-3" data-name="6 lpi 30% 12" width="4" height="4" patternTransform="translate(36.32 78.51) scale(2.12)" patternUnits="userSpaceOnUse" viewBox="0 0 4 4"><rect class="cls-1" width="4" height="4"/><rect class="cls-2" x="2.5" y="2.51" width="1" height="1"/><rect class="cls-2" x="0.5" y="0.49" width="1" height="1"/></pattern><pattern id="_6_lpi_30_12-5" data-name="6 lpi 30% 12" width="4" height="4" patternTransform="translate(43.11 78.51) scale(2.12)" patternUnits="userSpaceOnUse" viewBox="0 0 4 4"><rect class="cls-1" width="4" height="4"/><rect class="cls-2" x="2.5" y="2.51" width="1" height="1"/><rect class="cls-2" x="0.5" y="0.49" width="1" height="1"/></pattern><pattern id="_6_lpi_30_12-7" data-name="6 lpi 30% 12" width="4" height="4" patternTransform="translate(49.89 78.51) scale(2.12)" patternUnits="userSpaceOnUse" viewBox="0 0 4 4"><rect class="cls-1" width="4" height="4"/><rect class="cls-2" x="2.5" y="2.51" width="1" height="1"/><rect class="cls-2" x="0.5" y="0.49" width="1" height="1"/></pattern><pattern id="_6_lpi_30_12-9" data-name="6 lpi 30% 12" width="4" height="4" patternTransform="translate(56.68 78.51) scale(2.12)" patternUnits="userSpaceOnUse" viewBox="0 0 4 4"><rect class="cls-1" width="4" height="4"/><rect class="cls-2" x="2.5" y="2.51" width="1" height="1"/><rect class="cls-2" x="0.5" y="0.49" width="1" height="1"/></pattern></defs><title>reviews-5stars-tumeric</title><g class="cls-3"><g id="icons3"><g class="cls-4"><polygon class="cls-5" points="54.6 3.18 66.85 40.86 106.47 40.86 74.41 64.14 86.66 101.82 54.6 78.54 22.55 101.82 34.8 64.14 2.74 40.86 42.36 40.86 54.6 3.18"/><polygon class="cls-6" points="166.05 3.18 178.29 40.86 217.91 40.86 185.86 64.14 198.1 101.82 166.05 78.54 134 101.82 146.24 64.14 114.19 40.86 153.81 40.86 166.05 3.18"/><polygon class="cls-7" points="277.5 3.18 289.74 40.86 329.36 40.86 297.31 64.14 309.55 101.82 277.5 78.54 245.45 101.82 257.69 64.14 225.64 40.86 265.26 40.86 277.5 3.18"/><polygon class="cls-8" points="388.95 3.18 401.19 40.86 440.81 40.86 408.76 64.14 421 101.82 388.95 78.54 356.89 101.82 369.14 64.14 337.08 40.86 376.7 40.86 388.95 3.18"/><polygon class="cls-9" points="500.39 3.18 512.64 40.86 552.26 40.86 520.21 64.14 532.45 101.82 500.39 78.54 468.34 101.82 480.59 64.14 448.53 40.86 488.15 40.86 500.39 3.18"/></g></g></g></svg>