<svg id="Layer_1" data-name="Layer 1" xmlns="http://www.w3.org/2000/svg" width="82" height="44" viewBox="0 0 82 44"><defs><style>.cls-1{fill:#4a455c;fill-rule:evenodd;}</style></defs><title>reviews-logolink1-google</title><path class="cls-1" d="M.92,21.17A10.23,10.23,0,0,1,11.17,11.1a9.66,9.66,0,0,1,6.93,2.77l-2,1.94a7.06,7.06,0,0,0-5-2,7.32,7.32,0,0,0,0,14.64,6.75,6.75,0,0,0,5.1-2A5.7,5.7,0,0,0,17.77,23h-6.6V20.26h9.29A8.81,8.81,0,0,1,20.61,22a9.07,9.07,0,0,1-2.39,6.43,9.25,9.25,0,0,1-7,2.82A10.23,10.23,0,0,1,.92,21.17ZM28.1,28.4a3.76,3.76,0,0,1-3.67-3.93,3.68,3.68,0,1,1,7.34,0A3.76,3.76,0,0,1,28.1,28.4M28.1,18a6.49,6.49,0,1,0,6.53,6.49A6.4,6.4,0,0,0,28.1,18M43,28.4a3.75,3.75,0,0,1-3.67-3.93,3.68,3.68,0,1,1,7.34,0A3.76,3.76,0,0,1,43,28.4M43,18a6.49,6.49,0,1,0,6.53,6.49A6.41,6.41,0,0,0,43,18M56.73,28.4a3.73,3.73,0,0,1-3.62-3.91,3.75,3.75,0,0,1,3.62-3.95,3.66,3.66,0,0,1,3.47,3.95A3.63,3.63,0,0,1,56.73,28.4Zm3.28-10v1.05h-.1A4.52,4.52,0,0,0,56.48,18a6.49,6.49,0,0,0,0,13,4.43,4.43,0,0,0,3.43-1.48H60v.94c0,2.48-1.34,3.8-3.48,3.8a3.61,3.61,0,0,1-3.28-2.3l-2.49,1a6.21,6.21,0,0,0,5.77,3.83c3.35,0,6.19-2,6.19-6.75V18.38Zm5.15,11.77H68v-19H65.16ZM76,20.49a2.53,2.53,0,0,1,2.42,1.37l-5.82,2.41A3.57,3.57,0,0,1,76,20.49m.22,7.9a3.31,3.31,0,0,1-3.15-2l8.7-3.58-.3-.74A6,6,0,0,0,75.88,18a6.17,6.17,0,0,0-6.13,6.49A6.35,6.35,0,0,0,76.2,31a6.5,6.5,0,0,0,5.43-2.88L79.41,26.6a3.72,3.72,0,0,1-3.21,1.79"/></svg>