<svg id="Layer_1" data-name="Layer 1" xmlns="http://www.w3.org/2000/svg" width="84" height="44" viewBox="0 0 84 44"><defs><style>.cls-1{fill:#4a455c;}</style></defs><title>reviews-logolink4-switchup</title><path class="cls-1" d="M0,27.66l1.42-2A4.68,4.68,0,0,0,4.2,26.81c.94,0,1.35-.36,1.35-.92,0-.71-1.06-1-2.16-1.46C2.08,23.92.56,23.05.56,21.28c0-2,1.62-3.34,4.09-3.34a6.09,6.09,0,0,1,3.77,1.35L7,21.19a4,4,0,0,0-2.25-.91c-.82,0-1.22.32-1.22.85,0,.69,1,.95,2.11,1.35C7,23,8.52,23.74,8.52,25.7S7,29.15,4.12,29.15A6.93,6.93,0,0,1,0,27.66Z"/><path class="cls-1" d="M9.67,18.19h3.15l1,5c.18,1.05.3,2.09.48,3.18h.09c.19-1.09.37-2.16.63-3.18l1.17-5H19l1.2,5c.26,1.05.45,2.09.67,3.18h.09c.19-1.09.3-2.13.49-3.18l1-5h2.93l-2.56,10.7H19.1l-1-4.27c-.2-1-.38-2-.57-3.13h-.09c-.19,1.15-.34,2.14-.54,3.13L16,28.89H12.35Z"/><path class="cls-1" d="M26.77,15a1.68,1.68,0,0,1,1.83-1.65,1.66,1.66,0,1,1,0,3.31A1.69,1.69,0,0,1,26.77,15ZM27,18.19h3.16v10.7H27Z"/><path class="cls-1" d="M33,25V20.68H31.55V18.32l1.64-.13.37-2.84h2.62v2.84h2.56v2.49H36.18V25c0,1.22.55,1.7,1.38,1.7a3.19,3.19,0,0,0,1-.2l.5,2.3a7.55,7.55,0,0,1-2.38.39C34.06,29.15,33,27.48,33,25Z"/><path class="cls-1" d="M39.7,23.55a5.39,5.39,0,0,1,5.58-5.61,4.6,4.6,0,0,1,3.12,1.15l-1.49,2a2.22,2.22,0,0,0-1.46-.63c-1.52,0-2.5,1.21-2.5,3.06s1,3,2.4,3a3.24,3.24,0,0,0,1.93-.79l1.24,2.08A5.39,5.39,0,0,1,45,29.15C42,29.15,39.7,27.1,39.7,23.55Z"/><path class="cls-1" d="M50.08,13.79h3.17v3.69l-.14,1.93a4.81,4.81,0,0,1,3.3-1.47c2.33,0,3.32,1.64,3.32,4.31v6.64H56.56V22.66c0-1.54-.41-2-1.33-2a2.73,2.73,0,0,0-2,1v7.22H50.08Z"/><path class="cls-1" d="M61.86,24.83V18.19H65v6.24c0,1.54.41,2,1.33,2a2.18,2.18,0,0,0,1.9-1.18V18.19h3.17v10.7H68.85l-.23-1.48h-.08a4.19,4.19,0,0,1-3.36,1.74C62.85,29.15,61.86,27.51,61.86,24.83Z"/><path class="cls-1" d="M73.6,18.19h2.59l.23,1.06h.08a4.74,4.74,0,0,1,3-1.31c2.59,0,4.18,2.14,4.18,5.43,0,3.67-2.19,5.78-4.5,5.78A3.7,3.7,0,0,1,76.67,28l.1,1.7v3.13H73.6Zm6.87,5.22c0-1.92-.59-2.88-1.86-2.88a2.47,2.47,0,0,0-1.84,1v4.39a2.57,2.57,0,0,0,1.71.68C79.58,26.56,80.47,25.62,80.47,23.41Z"/></svg>