<svg id="Layer_1" data-name="Layer 1" xmlns="http://www.w3.org/2000/svg" width="64" height="44" viewBox="0 0 64 44"><defs><style>.cls-1{fill:#4a455c;}</style></defs><title>reviews-logolink3-coursereport</title><path class="cls-1" d="M.66,14.38c0-3.13,2.4-5.24,5.57-5.24a4.74,4.74,0,0,1,4.61,2.95L8.19,13.32a2.15,2.15,0,0,0-2-1.48,2.43,2.43,0,0,0-2.46,2.54,2.43,2.43,0,0,0,2.46,2.54,2.15,2.15,0,0,0,2-1.48l2.65,1.22a4.8,4.8,0,0,1-4.61,3C3.06,19.62.66,17.5.66,14.38Z"/><path class="cls-1" d="M11.25,14.38a5.22,5.22,0,0,1,5.54-5.24,5.25,5.25,0,1,1,0,10.48A5.22,5.22,0,0,1,11.25,14.38Zm8,0a2.43,2.43,0,1,0-4.86,0,2.43,2.43,0,1,0,4.86,0Z"/><path class="cls-1" d="M23.43,15.28v-6h3.11v5.86a1.71,1.71,0,0,0,1.9,1.75,1.7,1.7,0,0,0,1.89-1.75V9.31h3.11v5.95c0,2.52-1.58,4.36-5,4.36S23.43,17.78,23.43,15.28Z"/><path class="cls-1" d="M40.28,19.44l-1.4-3.19H37.77v3.19H34.7V9.31h5.41a3.37,3.37,0,0,1,3.65,3.48,3.28,3.28,0,0,1-1.83,3.07l1.84,3.58Zm.36-6.67c0-.55-.49-.79-1-.79H37.77v1.6h1.87C40.15,13.58,40.64,13.33,40.64,12.77Z"/><path class="cls-1" d="M44.6,18l1.6-2.28A4.73,4.73,0,0,0,49.47,17c.57,0,1.12-.15,1.12-.55,0-1-5.65,0-5.65-4,0-1.71,1.43-3.35,4.21-3.35a6.72,6.72,0,0,1,4.3,1.41l-1.64,2.17a5.15,5.15,0,0,0-3-1c-.61,0-.78.19-.78.45,0,1,5.64.14,5.64,3.91,0,2.23-1.66,3.52-4.38,3.52A6.7,6.7,0,0,1,44.6,18Z"/><path class="cls-1" d="M54.69,19.44V9.31h7.69V12H57.76v1h4.51v2.68H57.76v1.11h4.62v2.67Z"/><path class="cls-1" d="M7.48,31.08,6.09,27.89H5v3.19H1.91V21H7.32A3.37,3.37,0,0,1,11,24.43,3.27,3.27,0,0,1,9.14,27.5L11,31.08Zm.37-6.67c0-.55-.49-.79-1-.79H5v1.6H6.85C7.36,25.22,7.85,25,7.85,24.41Z"/><path class="cls-1" d="M12.41,31.08V21H20.1v2.67H15.48v1H20V27.3H15.48v1.11H20.1v2.67Z"/><path class="cls-1" d="M22.16,31.08V21h5.41a3.47,3.47,0,1,1,0,6.94H25.23v3.19Zm5.94-6.65c0-.55-.41-.81-.93-.81H25.23v1.6h1.94C27.69,25.22,28.1,25,28.1,24.43Z"/><path class="cls-1" d="M32.28,26a5.23,5.23,0,0,1,5.55-5.24,5.25,5.25,0,1,1,0,10.48A5.22,5.22,0,0,1,32.28,26Zm8,0a2.43,2.43,0,1,0-4.86,0,2.43,2.43,0,1,0,4.86,0Z"/><path class="cls-1" d="M50,31.08l-1.4-3.19H47.52v3.19H44.45V21h5.41a3.37,3.37,0,0,1,3.65,3.48,3.28,3.28,0,0,1-1.83,3.07l1.84,3.58Zm.36-6.67c0-.55-.48-.79-1-.79H47.52v1.6h1.87C49.91,25.22,50.39,25,50.39,24.41Z"/><path class="cls-1" d="M57.16,31.08V23.62H54.44V21h8.49v2.67h-2.7v7.46Z"/></svg>