<svg id="elements" xmlns="http://www.w3.org/2000/svg" viewBox="0 0 930 60"><defs><style>.cls-1{fill:#ebf3f1;}</style></defs><title>rip-reviews-card2</title><path class="cls-1" d="M928.21,50.6v1.65A43.26,43.26,0,0,1,919,49.8c-.37-.16.24-1.25-.09-1.45-.78-.47-3.51.54-4.37.12s.51-2.43-.17-2.89c-2.62-1.75-6.64-1.8-6.82-4.16a18.15,18.15,0,0,1-6.73-2.71c-6.34.14-5.31,2.49-8.56,3.12-2.78.54-4.56,1.25-6.46,1.62-2.34.45-3.5-.74-4.46-1.33-1.51-.93-6.9.92-8.74.23-5.06-.31-2.17,4.24-6.29,4.51-.55-1.11-.23-2.85-2.36-2.83,0-.81-1.86-1.6-2.18,0-3.28-.16-8,.73-8.82-1.21-1.49-2.68-5.06-3.45-6.82-4.16-4-1.63-4.3-2.35-6.82-4.15-1.12-.81-1.29-2-2.36-2.83-.53-.4-3.57.32-4.36.11-2.34-.59-4.93-.93-6.64-1.27a53.4,53.4,0,0,0-8.83-1.21c-3.26-.15-4.47,1.47-6.46,1.62-3.61.26-5.5-.76-8.83-1.21-1.85-.26-1.5-1.2-2.27-1.39-1.88-.48-4.64.6-6.55.17-2.83-.63-2.79-1.46-4.55-2.77-.56-.42-3.55.36-4.37.12a25.24,25.24,0,0,0-2.27-1.39c-1.56-.6-3-.81-4.45-1.33-4-1.39-4.74-2.48-8.92-2.65s-8.79,2.11-13,1.79c-2.24-.78-1.56,1.35-2.1,1.5-7.61,2.13-18.74-4.3-24,.64-8.13,2-14.23,5.22-25.94,5-10.58-.89-7.51,6.54-19.4,4.85-5.64-1-10.17-1.86-13,1.79-2.45.21-3.53-2-4.37.12-9.11,1.49-14.87-1.12-19.75-.92.72,0-1.39,1.34-2.1,1.5-1.88.43-4.57,0-6.55.17-.12,0,.19,1.35.09,1.45-1.12,1-2.69-1.42-2.27-1.39-8.23-.64-10.2,1.6-15.2,1.85-3.85.19-6.89-1.29-8.83-1.21-7.7.31-15,2.47-21.75,2-11.38-.75-20.31-7-33.12-4.91-2.76-.66-4.32-1.74-6.73-2.71a20.66,20.66,0,0,1-2.27-1.39c-.36-.16.22-1.21-.09-1.44-.57-.43-3.54.39-4.36.12-.33-.11.19-1.27-.09-1.45-1.14-.69-4.77.41-4.46-1.33-12.45-.62-23.79-2-33.11-4.9-3.75,1.42-10.87.79-12.93,3.24-6.37.54-6.91-3.09-13.28-2.55-.43,3-5.66,3-8.47,4.57-.14,2.47-5.39,1-8.65,1.67-1,.19-2.46,1.55-2.1,1.51-4.1.54-9.8.16-13.11.34-3.7.21-6.87,2-8.73.24,1.8,3.88-10.36-.76-8.56,3.11-4.06.31-7.24,1.15-8.57,3.13a56.22,56.22,0,0,1-13.45-5.43c-1.5-.92.2-.88-2.27-1.39-3.06-.63-8.2,1.09-8.83-1.21-.17-.88-.43-1.7-2.27-1.39l-24,.64c-3.83,3.14-6,.08-8.74.23-4.61.26-6.79,1.81-10.84,1.74-2.66-.05-8.31-.8-11-1.16-.18,0,.06-1.33-.09-1.44-.4-.29-3.7.16-4.37.12-14.37-1-23.32-1-32.67,2.31-2.87-1.93-6.85-.64-11-1.15-2.15-.27-2.64-1-4.46-1.33-2.48-.43-6.27.61-6.64-1.27-3.29,1.92-9.43,3-12.93,3.23-2.16.14-1.34,1.32-2.1,1.51-1.29.32-3-.15-4.36.11-1.5.29-1.75,1.42-2.1,1.5-3.42.82-9.07.85-13,1.79s-9.54,1.51-10.66,4.62c-12.56-.32-16.45,2.5-26.21.7-2.05,3.31-8.24,6.44-10.48,7.51-2,.94-2.35,2.12-4.19,3-1,.45-2.86,0-2.1,1.5-11.79.42-11.53,1-19.57,2-5.28,2.34-16.91.81-21.67,3.47q-4.78-1.08-6.81-4.16c-.47-1.85-3.55-1.24-6.64-1.27-1.92,0-1.82-1.32-2.27-1.38-3.48-.44-7.4.57-10.92.29-2.87-.23-3.1-1.24-6.65-1.27C117,49.35,115.52,48,116,48a33.27,33.27,0,0,0-12.93,3.24c-2.19.23-2.66-1.32-4.45-1.33-2.16,0-1.52-1.25-2.28-1.39-2.44-.45-6.17.26-8.73.23-2.09,0-1.6-1.27-2.27-1.38-2-.34-4.49.41-6.56.17-2.84-.33-3.1-1.24-6.64-1.27-2.53,0-1-.9-2.27-1.38-5.29-2.07-16.69-.46-21.93-.87-.13,0,0-1.34-.09-1.44-1.08-.83-2.8,1.47-2.09,1.5-3.76-.18-7.18-.7-11-1.15-5.34-.64-13.08-2.21-15.46-2.49-2.11-.24-4.45.42-6.56.18-.16,0,.06-1.34-.09-1.45-.38-.28-3.71.15-4.36.12C5.17,39.1,2.48,39,0,38.8V0H930V52.76Z"/></svg>