<svg id="elements" xmlns="http://www.w3.org/2000/svg" viewBox="0 0 930 60"><defs><style>.cls-1{fill:#eef2f5;}</style></defs><title>rip-reviews-card3</title><path class="cls-1" d="M0,0V27.65l4.31-.48A19,19,0,0,0,8,28.68a22.34,22.34,0,0,1,5.7,1.79,17.6,17.6,0,0,0,5.63,1.91c2.58.31,4.35,1.37,6.41,2.15L29.08,34l6.86,2.14a31.86,31.86,0,0,1,8.88,1,5,5,0,0,0,4.78-1.11c.6-.51.83-1.13.39-1.68s-1.49-1.28-2.07-2a5.26,5.26,0,0,1-.83-1.7c-.17-.49.64-1.27,1.36-1.39a1.69,1.69,0,0,1,1.59.41,12.38,12.38,0,0,0,6,4c1.4,0,3.23,0,5,.13s3.5.29,5.25.43c1.59-1.64,3.88-1.89,6.43-1.51.88.13,1.66.55,2.53.67a30.92,30.92,0,0,0,4.51.35c3.08,0,5.75-1.18,8.65-1.71a3.17,3.17,0,0,0,1.37-.78c.55-.47.89-1.06,1.48-1.51a4.12,4.12,0,0,1,3.29-.67c.88.16,1.69.44,2.54.66a6.57,6.57,0,0,0,5.09-.54c1.62-.88,3.3-1.72,4.92-2.56.09-.93.15-1.73.25-2.54a2.69,2.69,0,0,1,.23-1.19,2.1,2.1,0,0,1,1.13-.85,3.65,3.65,0,0,1,1.69.14A4.3,4.3,0,0,1,112.85,24a2.73,2.73,0,0,0,2,1.12c5.14.13,10.33.72,15.35-.66a13.54,13.54,0,0,1,6.29-.17c3.1.73,6.37,1.1,9.18,2.53,2.63,1.35,5.46,2.54,7.91,4.06,3.27.76,5.27,2.69,7.8,3.84a21.25,21.25,0,0,0,8.34-.31,21.34,21.34,0,0,1,10.68-.06c1.71.41,3.45.77,5.35,1.2.76.47,1.63,1,2.56,1.55s1.89,1,2.68,1.35c2.7-.29,4.81-1.3,7.37-1a24.13,24.13,0,0,0,7.16-.63,2.12,2.12,0,0,1,.86.17,22.17,22.17,0,0,0,6.31.45c4.27,0,8.59.21,12.8-.13a48.24,48.24,0,0,0,9.5-2,5.11,5.11,0,0,1,2.66,0,22.63,22.63,0,0,0,8,1,16.44,16.44,0,0,1,5.28.82,6.39,6.39,0,0,0,5.09-.5c1.63-.87,2.71-2.22,5-2.5,3.44.29,5.76,2.1,8.37,2.84,1.65-.27,2.82-.52,4-.64,3.88-.41,7.69-1.09,11.43-1.85a12.69,12.69,0,0,1,6.13.1,20.19,20.19,0,0,0,4.46.48c3,.09,6.1-.22,8.89.93a3,3,0,0,0,1.74-.07c1.72-.68,3.55-.12,5.31-.23a52.89,52.89,0,0,0,6.8-.63c2-.5,3-2.09,5.06-2.13,2,.34,3.78.73,5.56.88,2.09.17,4.22.14,5.75.19,2.62,1.06,4.59,2,6.78,2.7,2.46.76,5.1,1.27,7.69,1.84a5.8,5.8,0,0,0,3.48-.42c1-.42,2-.89,3-1.35,2.21.75,4-.67,6.17-.46a11.18,11.18,0,0,1,2.68.26c3.57,1.41,7,.91,10.46-.14,1.09-.32,2.4-.36,3.45-.73a20.24,20.24,0,0,1,5.34-.64c2.83-.18,5.34.63,7.9,1,1.8-.36,3.39-1.11,5.28-.34a7.15,7.15,0,0,0,5.21.06,13,13,0,0,1,6.66-.35l5.2,2.85c2.1.49,4.05,1.1,6.11,1.41a26,26,0,0,0,5.44.24c2.15-.14,4,1.11,6.49.38,2.21-2,5.63-1.63,8.92-1.42,2.12.43,3.21,2,5.56,2,4.31-.92,4.39-1.71,9.07.86a5.77,5.77,0,0,0,.8.29c1.8.48,3.46-1,5.27-.14a8.57,8.57,0,0,0,3.9-1.33c-.21-.9-1.27-1.36-2-2-.58-.46-1.13-.94-1.67-1.42-.38-.34.32-1.15,1.21-1.4a1.31,1.31,0,0,1,1.46.42,13.54,13.54,0,0,0,1.15,1l5.21,1.07a28.81,28.81,0,0,1,4.62-1.73c2.56-.53,5.27-.72,8.13-1.09a16,16,0,0,0,2,1.94,10,10,0,0,0,2,.86c1.47-.65,2.73-1.19,4.23-1.86,1.95,0,4.08,0,6.2,0,2.43,0,4.85-.1,7.1-.14L509.65,34l4.85-.4c.82-.4,1.83-.85,2.75-1.37,1.24-.69,2.8-.72,4.21-1.07a15.52,15.52,0,0,0,3-1.32,9.44,9.44,0,0,1,6.9-.48,19.05,19.05,0,0,1,6.17,2.54,31.88,31.88,0,0,0,4,2.5,5.07,5.07,0,0,0,3.45.44c1.44-.3,2.84-.69,4.37-1.07,2.85.63,5.78,1.16,8.55,1.93a8.8,8.8,0,0,0,4.35-.19l8.52,1.69,2.89-.52,5.27,3c1.57.11,2.79.25,3.78-.43a11.53,11.53,0,0,1,2.52-1.68c2.64-1,5.18-2.14,8.66-2.49,4.22,1.54,9.05,1.34,13.72,1L612.33,34l6.48-.32a38,38,0,0,1,3.69-1.77,43.43,43.43,0,0,1,4.3-1.09c.66-.89,1.33-1.79,2-2.7a.76.76,0,0,0,0-.63c-.1-.32-.93-.65-.59-.9,2.65-1.94,9-2.17,11.29,0,.65.61-.92,1.29-.48,1.73a4.05,4.05,0,0,0,3.29.46c.46-.15,1.13-.47,1.19-1s-.63-1-1.16-1.42c-.17-.13-.56-.14-.56-.29.06-1.85,5.09-2.84,7.52-2.08.07,0,.11.12.05.16,2-1.37,5.24-.74,7.76-.92L663,24.89l4.12-1.74a19.78,19.78,0,0,1,2.49.46,20.45,20.45,0,0,0,5.37.53c1.92.07,3.47-.89,5.22-.87s3.47.65,5.25.8a10.48,10.48,0,0,0,3.54-.38,18,18,0,0,1,10.59,0,7.83,7.83,0,0,0,5.21-.41,8.21,8.21,0,0,0,3.41-1.92,2.64,2.64,0,0,1,2.36-.59,5.89,5.89,0,0,0,1.74.3c3.23-.81,6.59-.57,9.92-.65a8.48,8.48,0,0,0,2.68-.24c2.78-1.13,5.92-.82,8.41-1.07,3.06-.64,5.24-1.85,7.85-2.1l2.61.44,13.41-5.35c2.36-.45,4.57,1,7,.36,2.3.51,4.58,1.06,6.91,1.52A8,8,0,0,0,773,13.9a11.93,11.93,0,0,0,2.25-2.52c.59-.71,1-1.48,1.6-2.18.74-.85.3-2,1.89-2.74.6.38,1.59.72,1.81,1.2a7.07,7.07,0,0,0,3.81,3.95c.92.43,1.38,1.3,2.58,1.63a35.29,35.29,0,0,0,4.22,1.09c1.46.2,2.74.91,4.35.69a7.36,7.36,0,0,1,2.61-.27c2.86,1,5.92.87,8.95.88a19.84,19.84,0,0,1,6.19.85,2.35,2.35,0,0,0,2.28-.65c.51-.72.42-1.62,1.65-2.22,1.83-.43,3.82-.9,5.81-1.35a4,4,0,0,1,.85,0,6.25,6.25,0,0,1,1.55.68,29.39,29.39,0,0,0,3.16,2.93c1.27.83,3,1.32,4.47,2.05s2.74,1.59,3.82,2.21c4,.57,7.22,1.88,11.05,1.63a6.81,6.81,0,0,1,2.6.48,8.52,8.52,0,0,0,6.07,0A6.41,6.41,0,0,1,860.9,22a13.08,13.08,0,0,0,9.54-.21,20.67,20.67,0,0,1,2.49-.77c.55-.14,1.15-.19,1.73-.28,1.5,0,2.71,1,4.6.54a12.89,12.89,0,0,0,1.91-1c1.19-.91,2.24-1.88,3.36-2.83a6,6,0,0,1,1.51.47c1.53,1,1.78,2.58,3.61,3.45,2,.93,4,1.81,5.93,2.79a12.26,12.26,0,0,0,4.08,1.26,7.53,7.53,0,0,1,2.46.74c3.35,1.82,7.3,2.86,11.16,4,1,0,1.91,0,2.81,0,4.65-.13,9.39.44,13.91-.63V0Z"/></svg>