<svg id="elements" preserveAspectRatio="none" xmlns="http://www.w3.org/2000/svg" viewBox="0 0 730 45"><defs><style>.cls-1{fill:#ea593e;}</style></defs><title>rip-contact-mainbox</title><path class="cls-1" d="M0,0V26.72c1.43,0,2.85,0,4.25-.07l3.63-.95c1.21.31,2.44.67,3.76,1,1.14.25,2.37.44,3.65.67,6.23,0,12.53,0,18.82,0a44.75,44.75,0,0,1,6.28.54l6.7-1.16H58.5a30.82,30.82,0,0,1,6.12.41,17.59,17.59,0,0,0,3.06.21c2.36,0,4.72,0,6.9,0L84.72,25l1.77-1.15a7.37,7.37,0,0,1,3.9-.89c1.31,0,2.63,0,3.94,0a24.87,24.87,0,0,0,8.52-1.4c1.19-.41,2.25-.88,3.38-1.32a10.34,10.34,0,0,1,2.29-.85c3-.46,4.79-1.6,7.6-2.2,2.52-.54,4.76-1.29,7.17-1.91a13.72,13.72,0,0,1,2.81-.51c2-.1,3.14-.73,5.4-1.23,2-.22,5.06,0,7.7-.58a15.87,15.87,0,0,1,3.08-.13c3.15,0,6.29,0,9.12,0,5.56-.94,5.56-.94,7.73-2.16,7.94-1,7.94-1,14.47-1h6.79a16.12,16.12,0,0,0,5.88-2.38l6.54-1.33c.73,0,1.25-.06,1.77-.06a64.65,64.65,0,0,0,11.49-.75,21.45,21.45,0,0,1,9,0,6.41,6.41,0,0,0,.91,0c.75-.24,1.52-.53,2.41-.74a7,7,0,0,1,2.15-.23,13.15,13.15,0,0,0,3.76,0,14.85,14.85,0,0,1,4.61.09,33.81,33.81,0,0,0,10.72,0,16,16,0,0,1,4.71,1,3.12,3.12,0,0,1,.38.27l1.75,2.27a35.34,35.34,0,0,0,10,2.39c4,2.2,10.66,2.09,14.9,4.15A9.37,9.37,0,0,0,275,15c4.62-.13,8.33,1.54,12.93,1.44,4-.08,8,0,12,0,1.3,0,2.6.15,3.74.22,2.44,1.42,4.7,2.76,7,4.07a11.49,11.49,0,0,0,2.91,1.36c4.79,1.23,8.53,3.14,12.83,4.8,3.17,0,6.27.07,9.37.12,4.42.08,8.92-.3,13.21.59a7,7,0,0,0,2.53-.06c3-.66,6.16-.38,9.23-.59,1.74-.12,3.43-.43,5.37-.69,2.74.39,5.88.64,8.66,1.27,3.87.9,7.76.85,12.28.61,1.43-.52,3.17-1.2,5-1.81a9.28,9.28,0,0,1,7.18.38c.95.45,1.8.95,2.77,1.48l13.61.25a21.46,21.46,0,0,1,3.25.91,15,15,0,0,0,10.9.85,21.08,21.08,0,0,1,5.15-.51c9.36-.05,18.73,0,28.1,0a31.21,31.21,0,0,1,6.47.68c2,.44,4.21.68,7.1,1.12l6.5,2.91c4.44.75,7.83,1.27,11.14,1.89,6.23,1.16,12.93,1.46,19.13,2.67,1.23.24,2.5.43,3.73.66a2.51,2.51,0,0,1,1,.45l6.31-.14A28.58,28.58,0,0,0,530,38a29.82,29.82,0,0,1,6.58-1.66c2-.34,12-1.25,14.37-1.39,1-.06,2.07-.14,3-.28a32.93,32.93,0,0,1,10,0c1.66.27,3.58.28,5.29.51s3.33.61,5.24,1c1.54-.21,2.5-.37,3.51-.47a4,4,0,0,1,2.62.47,1.13,1.13,0,0,1,.21.31c.73,1.24,2.65,2,5.71,2.31a13,13,0,0,1,2.16.35c.85.26,1.41.6,1.51,1l2.63-.06c2.49-.86,4.68-1.6,5.94-2.69a12.2,12.2,0,0,1,1.92-1c2.22-1.2,5.83-1.75,8.33-2.83,1.44-1.43,4.57-2.27,6.79-3.16a17.25,17.25,0,0,1,4.25-.37,21,21,0,0,0,3.12-.08c3.72-.71,7.7-.52,11.18-.58,6.17-.86,10.25-2.83,16.29-3.72a61.81,61.81,0,0,0,11.94-.94,44.86,44.86,0,0,1,4.83-1.54c1.87-.43,3.19-1.1,4.94-1.54A66.18,66.18,0,0,1,680.05,20c2.26-.29,4.39-.67,6.53-1.05a13.71,13.71,0,0,1,2.2-.31,41.05,41.05,0,0,0,8.08-1.15c2.09-.44,4.31-.73,6.54-1a37.65,37.65,0,0,1,7.22-.29c4.27.77,8.6,1.77,13.85,2.28,1.65,0,3.41-.53,5.53-.49V0Z"/></svg>
