<?xml version="1.0" encoding="UTF-8"?>
<svg width="760px" height="406px" viewBox="0 0 760 406" version="1.1" xmlns="http://www.w3.org/2000/svg" xmlns:xlink="http://www.w3.org/1999/xlink">
    <!-- Generator: sketchtool 63.1 (101010) - https://sketch.com -->
    <title>38842C0D-7B6E-4884-B844-F78CCAE45740</title>
    <desc>Created with sketchtool.</desc>
    <g id="Page-1" stroke="none" stroke-width="1" fill="none" fill-rule="evenodd" opacity="0.0677315848">
        <g id="juno-corporate-partners-page" transform="translate(-640.000000, -2357.000000)" fill="#FFFFFF">
            <g id="Group-15" transform="translate(0.000000, 2357.000000)">
                <g id="Group-211">
                    <g transform="translate(329.000000, -354.000000)">
                        <polygon id="Fill-9" points="1051.339 720.327 1070.807 720.327 1070.807 700.858 1051.339 700.858"></polygon>
                        <polygon id="Fill-10" points="1012.357 759.488 1031.826 759.488 1031.826 740.019 1012.357 740.019"></polygon>
                        <polygon id="Fill-11" points="1051.339 642.452 1070.807 642.452 1070.807 622.984 1051.339 622.984"></polygon>
                        <polygon id="Fill-12" points="1012.357 681.614 1031.826 681.614 1031.826 662.145 1012.357 662.145"></polygon>
                        <polygon id="Fill-13" points="1051.339 564.578 1070.807 564.578 1070.807 545.109 1051.339 545.109"></polygon>
                        <polygon id="Fill-14" points="1012.357 603.739 1031.826 603.739 1031.826 584.27 1012.357 584.27"></polygon>
                        <polygon id="Fill-15" points="1051.339 486.707 1070.807 486.707 1070.807 467.238 1051.339 467.238"></polygon>
                        <polygon id="Fill-16" points="1012.357 525.868 1031.826 525.868 1031.826 506.399 1012.357 506.399"></polygon>
                        <polygon id="Fill-17" points="1051.339 408.832 1070.807 408.832 1070.807 389.363 1051.339 389.363"></polygon>
                        <polygon id="Fill-18" points="1012.357 447.993 1031.826 447.993 1031.826 428.524 1012.357 428.524"></polygon>
                        <polygon id="Fill-20" points="1012.357 370.118 1031.826 370.118 1031.826 350.649 1012.357 350.649"></polygon>
                        <polygon id="Fill-37" points="973.468 720.327 992.937 720.327 992.937 700.858 973.468 700.858"></polygon>
                        <polygon id="Fill-38" points="934.482 759.488 953.951 759.488 953.951 740.019 934.482 740.019"></polygon>
                        <polygon id="Fill-39" points="973.468 642.452 992.937 642.452 992.937 622.984 973.468 622.984"></polygon>
                        <polygon id="Fill-40" points="934.482 681.614 953.951 681.614 953.951 662.145 934.482 662.145"></polygon>
                        <polygon id="Fill-41" points="973.468 564.578 992.937 564.578 992.937 545.109 973.468 545.109"></polygon>
                        <polygon id="Fill-42" points="934.482 603.739 953.951 603.739 953.951 584.27 934.482 584.27"></polygon>
                        <polygon id="Fill-43" points="973.468 486.707 992.937 486.707 992.937 467.238 973.468 467.238"></polygon>
                        <polygon id="Fill-44" points="934.482 525.868 953.951 525.868 953.951 506.399 934.482 506.399"></polygon>
                        <polygon id="Fill-45" points="973.468 408.832 992.937 408.832 992.937 389.363 973.468 389.363"></polygon>
                        <polygon id="Fill-46" points="934.482 447.993 953.951 447.993 953.951 428.524 934.482 428.524"></polygon>
                        <polygon id="Fill-48" points="934.482 370.118 953.951 370.118 953.951 350.649 934.482 350.649"></polygon>
                        <polygon id="Fill-63" points="895.593 720.327 915.062 720.327 915.062 700.858 895.593 700.858"></polygon>
                        <polygon id="Fill-64" points="856.611 759.488 876.08 759.488 876.08 740.019 856.611 740.019"></polygon>
                        <polygon id="Fill-65" points="895.593 642.452 915.062 642.452 915.062 622.984 895.593 622.984"></polygon>
                        <polygon id="Fill-66" points="856.611 681.614 876.08 681.614 876.08 662.145 856.611 662.145"></polygon>
                        <polygon id="Fill-67" points="895.593 564.578 915.062 564.578 915.062 545.109 895.593 545.109"></polygon>
                        <polygon id="Fill-68" points="856.611 603.739 876.08 603.739 876.08 584.27 856.611 584.27"></polygon>
                        <polygon id="Fill-69" points="895.593 486.707 915.062 486.707 915.062 467.238 895.593 467.238"></polygon>
                        <polygon id="Fill-70" points="856.611 525.868 876.08 525.868 876.08 506.399 856.611 506.399"></polygon>
                        <polygon id="Fill-71" points="895.593 408.832 915.062 408.832 915.062 389.363 895.593 389.363"></polygon>
                        <polygon id="Fill-72" points="856.611 447.993 876.08 447.993 876.08 428.524 856.611 428.524"></polygon>
                        <polygon id="Fill-74" points="856.611 370.118 876.08 370.118 876.08 350.649 856.611 350.649"></polygon>
                        <polygon id="Fill-87" points="817.722 720.327 837.191 720.327 837.191 700.858 817.722 700.858"></polygon>
                        <polygon id="Fill-88" points="778.736 759.488 798.205 759.488 798.205 740.019 778.736 740.019"></polygon>
                        <polygon id="Fill-89" points="817.722 642.452 837.191 642.452 837.191 622.984 817.722 622.984"></polygon>
                        <polygon id="Fill-90" points="778.736 681.614 798.205 681.614 798.205 662.145 778.736 662.145"></polygon>
                        <polygon id="Fill-91" points="817.722 564.578 837.191 564.578 837.191 545.109 817.722 545.109"></polygon>
                        <polygon id="Fill-92" points="778.736 603.739 798.205 603.739 798.205 584.27 778.736 584.27"></polygon>
                        <polygon id="Fill-93" points="817.722 486.707 837.191 486.707 837.191 467.238 817.722 467.238"></polygon>
                        <polygon id="Fill-94" points="778.736 525.868 798.205 525.868 798.205 506.399 778.736 506.399"></polygon>
                        <polygon id="Fill-95" points="817.722 408.832 837.191 408.832 837.191 389.363 817.722 389.363"></polygon>
                        <polygon id="Fill-96" points="778.736 447.993 798.205 447.993 798.205 428.524 778.736 428.524"></polygon>
                        <polygon id="Fill-98" points="778.736 370.118 798.205 370.118 798.205 350.649 778.736 350.649"></polygon>
                        <polygon id="Fill-109" points="739.847 720.327 759.316 720.327 759.316 700.858 739.847 700.858"></polygon>
                        <polygon id="Fill-110" points="700.862 759.488 720.331 759.488 720.331 740.019 700.862 740.019"></polygon>
                        <polygon id="Fill-111" points="739.847 642.452 759.316 642.452 759.316 622.984 739.847 622.984"></polygon>
                        <polygon id="Fill-112" points="700.862 681.614 720.331 681.614 720.331 662.145 700.862 662.145"></polygon>
                        <polygon id="Fill-113" points="739.847 564.578 759.316 564.578 759.316 545.109 739.847 545.109"></polygon>
                        <polygon id="Fill-114" points="700.862 603.739 720.331 603.739 720.331 584.27 700.862 584.27"></polygon>
                        <polygon id="Fill-115" points="739.847 486.707 759.316 486.707 759.316 467.238 739.847 467.238"></polygon>
                        <polygon id="Fill-116" points="700.862 525.868 720.331 525.868 720.331 506.399 700.862 506.399"></polygon>
                        <polygon id="Fill-117" points="739.847 408.832 759.316 408.832 759.316 389.363 739.847 389.363"></polygon>
                        <polygon id="Fill-118" points="700.862 447.993 720.331 447.993 720.331 428.524 700.862 428.524"></polygon>
                        <polygon id="Fill-120" points="700.862 370.118 720.331 370.118 720.331 350.649 700.862 350.649"></polygon>
                        <polygon id="Fill-129" points="661.972 720.327 681.441 720.327 681.441 700.858 661.972 700.858"></polygon>
                        <polygon id="Fill-130" points="622.991 759.488 642.46 759.488 642.46 740.019 622.991 740.019"></polygon>
                        <polygon id="Fill-131" points="661.972 642.452 681.441 642.452 681.441 622.984 661.972 622.984"></polygon>
                        <polygon id="Fill-132" points="622.991 681.614 642.46 681.614 642.46 662.145 622.991 662.145"></polygon>
                        <polygon id="Fill-133" points="661.972 564.578 681.441 564.578 681.441 545.109 661.972 545.109"></polygon>
                        <polygon id="Fill-134" points="622.991 603.739 642.46 603.739 642.46 584.27 622.991 584.27"></polygon>
                        <polygon id="Fill-135" points="661.972 486.707 681.441 486.707 681.441 467.238 661.972 467.238"></polygon>
                        <polygon id="Fill-136" points="622.991 525.868 642.46 525.868 642.46 506.399 622.991 506.399"></polygon>
                        <polygon id="Fill-137" points="661.972 408.832 681.441 408.832 681.441 389.363 661.972 389.363"></polygon>
                        <polygon id="Fill-138" points="622.991 447.993 642.46 447.993 642.46 428.524 622.991 428.524"></polygon>
                        <polygon id="Fill-147" points="584.102 720.327 603.571 720.327 603.571 700.858 584.102 700.858"></polygon>
                        <polygon id="Fill-148" points="545.116 759.488 564.584 759.488 564.584 740.019 545.116 740.019"></polygon>
                        <polygon id="Fill-149" points="584.102 642.452 603.571 642.452 603.571 622.984 584.102 622.984"></polygon>
                        <polygon id="Fill-150" points="545.116 681.614 564.584 681.614 564.584 662.145 545.116 662.145"></polygon>
                        <polygon id="Fill-151" points="584.102 564.578 603.571 564.578 603.571 545.109 584.102 545.109"></polygon>
                        <polygon id="Fill-152" points="545.116 603.739 564.584 603.739 564.584 584.27 545.116 584.27"></polygon>
                        <polygon id="Fill-153" points="584.102 486.707 603.571 486.707 603.571 467.238 584.102 467.238"></polygon>
                        <polygon id="Fill-154" points="545.116 525.868 564.584 525.868 564.584 506.399 545.116 506.399"></polygon>
                        <polygon id="Fill-163" points="506.227 720.327 525.696 720.327 525.696 700.858 506.227 700.858"></polygon>
                        <polygon id="Fill-164" points="467.241 759.488 486.71 759.488 486.71 740.019 467.241 740.019"></polygon>
                        <polygon id="Fill-165" points="506.227 642.452 525.696 642.452 525.696 622.984 506.227 622.984"></polygon>
                        <polygon id="Fill-166" points="467.241 681.614 486.71 681.614 486.71 662.145 467.241 662.145"></polygon>
                        <polygon id="Fill-167" points="506.227 564.578 525.696 564.578 525.696 545.109 506.227 545.109"></polygon>
                        <polygon id="Fill-168" points="467.241 603.739 486.71 603.739 486.71 584.27 467.241 584.27"></polygon>
                        <polygon id="Fill-177" points="428.352 720.327 447.821 720.327 447.821 700.858 428.352 700.858"></polygon>
                        <polygon id="Fill-178" points="389.37 759.488 408.839 759.488 408.839 740.019 389.37 740.019"></polygon>
                        <polygon id="Fill-179" points="428.352 642.452 447.821 642.452 447.821 622.984 428.352 622.984"></polygon>
                        <polygon id="Fill-180" points="389.37 681.614 408.839 681.614 408.839 662.145 389.37 662.145"></polygon>
                        <polygon id="Fill-189" points="350.481 720.327 369.95 720.327 369.95 700.858 350.481 700.858"></polygon>
                        <polygon id="Fill-190" points="311.495 759.488 330.964 759.488 330.964 740.019 311.495 740.019"></polygon>
                    </g>
                </g>
            </g>
        </g>
    </g>
</svg>