<svg xmlns="http://www.w3.org/2000/svg" xmlns:xlink="http://www.w3.org/1999/xlink" width="300" height="86" viewBox="0 0 300 86">
    <defs>
        <path id="wv9tpwbqka" d="M0 0L300 0 300 85.881 0 85.881z"/>
    </defs>
    <g fill="none" fill-rule="evenodd">
        <g>
            <g transform="translate(-898 -574) translate(898 574)">
                <mask id="zbsefoxskb" fill="#fff">
                    <use xlink:href="#wv9tpwbqka"/>
                </mask>
                <path fill="#CFDEE7" d="M498-7v20.953c-3.56.326-7.126.454-9.524-.334-1.15-.38.049-1.292-2.168-1.157-3.096.186-3.452-.648-5.98-.782-1.837-.097-3.896.756-5.714.562-.605-.066-.34-1.269-2.17-1.157-2.248.136-5.414 1.025-7.618.749-.68-.086-.282-1.271-2.17-1.157-1.568.096-2.184-1.321-4.074-.969-2.846 1.61-6.343 3.413-10.898 3.81.408-.035-1.105-1.22-2.17-1.157-3.11.188-3.44-.745-5.978-.782-3.12-.046-6.421 1.137-9.524.935-.407-.026-.485-1.257-2.169-1.156-2.707.165-5.33.919-5.979-.782-1.45-1.828-3.62-2.985-6.511-3.467-3.813 2.775-14.2 2.049-18.514 4.557-6.905 1.431-6.608 1.918-16.878 3.028.863 1.336-.863 1.045-1.64 1.53-1.495.94-1.685 2.065-3.277 3.061-1.821 1.142-6.834 4.44-8.195 7.654-8.775-1.09-11.813 1.784-22.856 2.245-.572 2.975-5.3 3.809-8.727 4.965-3.34 1.127-8.275 1.494-11.164 2.467-.292.097-.368 1.168-1.64 1.53-1.131.321-2.718-.007-3.808.373-.636.224.233 1.276-1.639 1.53-3.032.416-8.268 1.813-10.897 3.81-.575-1.738-3.755-.534-5.979-.781-1.632-.18-2.165-.852-4.076-.97-3.71-.226-7.026 1.223-9.788-.407-7.759 3.637-15.593 4.183-28.303 4.15-.593 0-3.425.625-3.81.374-.146-.095-.107-1.33-.264-1.343-2.405-.169-7.454-.527-9.788-.407-3.552.183-5.255 1.758-9.26 2.279-2.34.305-4.672-2.411-7.617.748-6.983.687-13.969 1.372-20.952 2.06-1.569.406-1.9-.347-2.17-1.156-.848-2.11-5.122-.19-7.882-.595-2.234-.327-.74-.394-2.17-1.156-2.11-1.125-7.733-3.418-12.49-4.25-.897 1.926-3.575 2.9-7.087 3.435 2.083 3.514-9.171-.08-7.087 3.434-1.856-1.516-4.405.327-7.618.748-2.873.378-7.914.368-11.428 1.124.311-.068-.83 1.3-1.64 1.53-2.776.79-7.558-.222-7.353 2.092-2.265 1.598-6.836 1.967-6.821 4.778-5.508.899-6.452-2.461-11.96-1.564-1.485 2.414-7.8 2.254-10.898 3.81-8.537-2.107-18.645-2.745-29.629-2.566.05-1.639-2.99-.391-4.076-.97-.269-.143.039-1.26-.264-1.342-.752-.206-3.249.74-3.809.374-.296-.192.073-1.21-.264-1.344-.769-.298-1.059-.778-2.17-1.156-2.233-.759-3.74-1.669-6.246-2.125-10.938 2.748-19.57-2.555-29.63-2.566-6.013-.007-12.083 2.457-18.78 3.214-1.688.19-4.547-1.003-7.884-.595-4.351.535-5.784 2.747-13.07 2.654.367.004-1.321-2.16-2.17-1.156-.078.095.368 1.325.266 1.343-1.708.309-4.118.044-5.713.561-.596.195-2.262 1.6-1.639 1.53-4.243.476-9.63-1.606-17.408.342-.458 2.035-1.698.028-3.81.374-2.014 3.585-6.091 3.015-11.159 2.466-10.631-.856-6.973 5.902-16.347 5.716-10.284.528-15.196 3.921-22.059 6.275-3.978 4.937-14.566-.392-20.952 2.057-.45.174.417 2.123-1.638 1.53-3.74-.04-7.429 2.375-11.163 2.468-3.675.091-4.49-.883-8.148-1.939-1.362-.392-2.63-.503-4.076-.968-.776-.25-1.9-1.092-2.168-1.156-.746-.18-3.266.73-3.81.374-1.708-1.115-1.782-1.892-4.342-2.312-1.73-.285-4.002.89-5.712.56-.696-.134-.513-1.03-2.17-1.156-2.973-.226-4.764-1.061-7.885-.594-1.728.258-2.57 1.845-5.448 1.904-2.991.062-4.838-.18-7.884-.595-1.545-.21-3.859-.367-5.978-.782-.726-.142-3.294.711-3.81.374-1.032-.674-1.35-1.818-2.436-2.5-2.436-1.53-2.748-2.187-6.51-3.467-1.63-.556-4.855-1.052-6.51-3.47-.948-1.764-4.988-.645-7.883-.594-.062 1.56-1.763.934-1.903.187-1.86.145-1.806-1.5-2.435-2.499-3.57.503-.446 4.57-4.919 4.591-1.703-.532-6.172 1.52-7.62.749-.919-.49-2.088-1.533-4.075-.97-1.618.462-3.085 1.233-5.447 1.905-2.758.785-1.554 2.916-7.086 3.436-1.645-1.117-3.866-1.696-6.245-2.125-.465-2.194-3.996-1.992-6.511-3.469-.661-.388.188-2.379-.531-2.686-.803-.346-3.07.768-3.81.374-.314-.17.078-1.218-.265-1.344-4.585-1.682-8.915-1.47-14.126-2.72-.578-3.453-3.544-1.051-8.15-1.937-.8-.156-.34-1.102-2.17-1.157-.97-.03-2.913.12-3.81.374-.73.207-2.195 1.586-1.64 1.531-1.563.154-2.166-1.308-4.075-.969-2.3.407-4.888 2.956-11.16 2.466-7.085.249-6.856-6.33-14.66-5.407-4.366.515-10.314 3.844-14.704 4.183-2.214.171-3.417.25-4.076-.969-1.935-2.847-9.822-3.585-11.96-1.564-.197 1.423-4.59 2.19-7.352 2.093-2.993-.105-2.382.166-4.074-.97-.768-.516-.31-1.7-2.169-1.157l-13.335 1.31c-3.698-.504-9.334-.142-13.861-1.375-1.084-.295 0-1.288-2.171-1.156-.637.038-1.266.142-1.902.187-5.501-2.29-18.445 2.368-20.11-3.503-2.012-1.832-5.363-2.417-10.054-1.75.81-4.471-3.76-3.915-6.775-4.813-1.33 1.567-4.225 1.398-7.352 2.093-2.54.564-5.58-.01-5.45 1.904-2.92-1.666-11.168-.856-13.33 1.31 2.483 3.51-7.58.334-9.26 2.28-.06.069.304 1.342.266 1.343-.755.018-3.183-.696-4.075-.97-2.362-.724-5.537-1.379-4.87-5-.727-2.087-1.978.193-1.907.189-4.488.241-9.06-4.984-14.655-5.407-1.238-.094-2.566.416-3.81.374-.85-.987-1.835-1.232-2.436-2.5-.315-.664.075-2.15-.53-2.687-1.242-1.095-4.82-1.167-6.245-2.124-1.129-.758-1.361-1.61-2.436-2.5-1.13-.936-2.116-2.447-4.34-2.312-1.566.094-2.184-1.32-4.074-.97-4.167 2.988-13.254 3.357-18.25 5.903.757 1.729-15.553 3.494-22.589 3.588-2.183.029-3.438.362-4.076-.968-4.305.589-7.64.485-11.69-.222-1.618-.28-1.318-.95-2.172-1.157-.742-.178-3.265.73-3.81.376-.337-.221.103-1.156-.266-1.345-.37-.188-1.537.382-1.902.187-.285-.15.05-1.249-.265-1.343-.757-.223-3.24.748-3.81.374-.34-.218.102-1.155-.265-1.342-.372-.19-1.54.382-1.906.187-.288-.153.054-1.245-.265-1.343-1-.308-2.745.578-3.81.374-.082-.017-1.395-.963-2.17-1.156-2.785-.698-5.015.109-7.884-.595-.052-.013-1.62-.97-2.17-1.156-1.782-.607-7.929-2.583-12.222-2.908-3.868-.292-5.087.308-7.885-.594-.98-.317-1.637-1-2.17-1.156-1.962-.58-3.45-.297-5.979-.782-1.582-.305-2.178-.907-4.074-.97-1.14-.035-2.72.58-3.809.374-2.125-.403-.753-.4-2.17-1.156-2.512-1.337-10.868-.105-17.673-1.002-.703-.093-.266-1.27-2.17-1.157-.51.032-1.412.274-1.905.188-2.926-.51-2.758-1.542-8.148-1.937-7.26-.532-13.953 1.03-21.217.714-3.288-.143-6.335-1.295-10.053-1.75-.333-.042-.795-1.053-2.168-1.157-3.094-.233-6.414 1.037-9.524.935-6.556-.256-17.919 3.558-21.216.715-2.205-2.182-4.463-4.319-10.32-3.094-5.076.273-4.093-3.938-8.68-4.624-9.955-1.493-24.923 6.056-37.826 5.086-5.088.094-.47 5.358-6.822 4.779l-9.524.935c-7.4-.737-4.77 3.87-10.897 3.81-3 .68-3.53-.947-5.978-.782-1.939 1.183-13.674.123-19.048 1.872-2.801.91-2.423 1.534-5.712.561-1.595-.108-2.165-1.157-4.074-.97-1.36.134-1.788 1.94-3.544 1.719-.974-.125-1.672-2.343-2.436-2.501-1.127-.233-2.672.584-3.81.374-.656-.12-.54-1.032-2.17-1.156-1.236-.093-2.565.417-3.809.374L-902 26.993V-7H498z" mask="url(#zbsefoxskb)"/>
            </g>
        </g>
    </g>
</svg>
