<svg xmlns="http://www.w3.org/2000/svg" xmlns:xlink="http://www.w3.org/1999/xlink" width="295" height="18" viewBox="0 0 295 18">
    <defs>
        <path id="0uddmi8eda" d="M0 0.281L295 0.281 295 16.281 0 16.281z"/>
    </defs>
    <g fill="none" fill-rule="evenodd">
        <g>
            <g>
                <g>
                    <g transform="translate(-965.000000, -1046.000000) translate(635.000000, 623.000000) translate(330.000000, 55.000000) translate(147.500000, 376.780702) scale(1, -1) translate(-147.500000, -376.780702) translate(0.000000, 368.280702)">
                        <mask id="tcggxotw7b" fill="#fff">
                            <use xlink:href="#0uddmi8eda"/>
                        </mask>
                        <path fill="#4A455C" d="M295 16.28V.48c-.199-.026-.399-.067-.6-.128-.316-.095-.707-.052-1.056-.071-.196.102-.371.182-.528.28-.26.16-.555.228-.86.12-.44-.158-.868-.218-1.34-.081-.327.095-.688.039-1.037.118-.384.089-.821.062-1.204-.09-.295-.118-.59-.13-.885-.01-.288.118-.58.147-.89.048-.09-.028-.215-.063-.292-.039-.597.19-1.224.095-1.839.118-.26.01-.513.026-.748.12-.293.114-.593.127-.886.005-.143-.06-.29-.085-.44-.101-.006.203-.057.404-.167.6-.044.08-.15.126-.256.09-.133-.047-.295-.105-.357-.194-.118-.165-.168-.355-.253-.534-.004-.011-.021-.022-.034-.033L281.18.67c-.046-.009-.117-.044-.117-.068V.588c-.032-.006-.064-.011-.09-.012-.221-.004-.404.064-.562.165-.221.144-.439.157-.697.052-.14-.057-.31-.016-.432.056-.248.147-.49.289-.827.153-.303.108-.58.087-.874-.047-.21-.095-.534.006-.662.163-.052.065-.108.133-.132.205-.06.185-.103.373-.152.554l-.751.582c-.247.297-.078.568-.386.732-.24-.188.026-.465-.203-.655-.27.065-.357.26-.452.416-.213.348-.576.528-1.038.637-.146.034-.292.07-.397.096-.663-.015-1.281-.028-1.896-.04-.188.095-.355.184-.527.267-.213.102-.43.2-.595.277-.117.141-.209.235-.274.339-.193.309-.268.662-.667.89-.073.042-.123.127-.142.199-.061.232-.19.442-.383.622-.084.076-.136.226-.271.221-.868-.026-1.249-.976-2.095-.543-.482.246-.353.649-.565 1.002-.068.115-.132.323-.267.281-.114-.034-.033-.177-.16-.242l-.566.035c-.244-.132-.506-.184-.66-.344-.127-.179-.074-.365-.082-.548l-.784.322-.45-.117c-.427.094-.87.2-1.342.134-.05-.007-.104-.002-.155-.005-.45-.028-.814.074-1.031.385-.123.175-.28.317-.514.416-.12.051-.284-.017-.306-.146-.013-.069-.02-.139-.031-.21-.385-.103-.778-.189-1.026-.47-.11-.123-.292-.21-.4-.286-.36-.063-.69-.075-.952-.178-.383-.15-.696.07-1.052.036-.36-.033-.714-.041-1.034-.194-.23-.108-.484-.097-.742-.032-.338.085-.686.149-1.032.223l-.505.429-.61-.093c-.638.414-1.412.593-2.241.641l-.607.668c-.066.008-.123.03-.155.018-.319-.128-.598-.088-.83.11-.134.113-.248.24-.355.345-.758.102-1.386.353-1.994.667-.353-.066-.648-.274-1.044-.213l-.981.284c-.113-.021-.21-.04-.309-.055-.097-.015-.197-.024-.315-.038-.136.1-.257.245-.43.303-.886.294-1.7.69-2.554 1.036-.525-.29-.86-.666-1.143-1.08-.15-.218-.453-.31-.785-.295-.2.01-.397.065-.6.084-.453.042-.622.387-1.022.515l-1.216-.051c-.415-.225-.782-.506-1.318-.57-.09-.013-.176-.081-.246-.135-.22-.174-.47-.295-.802-.304-.264-.01-.499-.086-.73-.174-.14-.053-.297-.062-.444-.007-.287.107-.602.083-.905.118-.195.023-.393.092-.555.177-.252.132-.48.298-.53.543-.046.238-.257.415-.393.62-.144.216-.39.35-.702.42-.145.03-.287.07-.43.107-.239-.096-.464-.154-.737-.067-.278.087-.58.134-.835.19-.272.334-.567.593-1.012.732-.104-.017-.207-.023-.3-.05-.539-.156-.604-.15-.929.12-.134.112-.26.23-.318.283-.656.178-.98-.054-1.254-.36-.05-.007-.107-.023-.153-.015-.29.054-.573.191-.872.017-.346-.202-.815-.09-1.176-.25-.112-.05-.198-.046-.29.048-.11.135-.103.356-.364.45-.195.072-.317.187-.426.32-.171.206-.443.3-.738.392-.289.09-.597.12-.88.204-.28.083-.403.33-.711.423-.281.085-.523.239-.746.345-.407.015-.765.022-1.124.045-.251.015-.424.217-.376.415.036.144.056.29.083.435-.32-.015-.614-.093-.75-.317-.328-.539-.894-.935-1.414-1.359-.097-.08-.242-.126-.345-.177-.58.1-.591.098-.868-.11-.146-.108-.28-.225-.43-.33-.302-.212-.607-.233-.984-.07-.173.075-.311.202-.503.192-.276-.069-.535-.107-.76-.196-.224-.088-.403-.237-.618-.339-.303-.142-.597-.304-1.049-.386-.672.002-1.442-.15-2.202.085-.18.056-.407.03-.613.028-.36-.003-.722-.015-1.105-.024-.59.302-1.202.577-1.946.647-.133.012-.268.11-.373.19-.143.108-.255.236-.367.343l-1.16.219c-.327-.136-.596-.252-.87-.36-.088-.033-.193-.044-.31-.07-.358.065-.35.483-.668.47-.376-.014-.32-.488-.744-.592-.13-.034-.314.01-.403-.067-.115-.101-.015-.266-.18-.342-.636-.29-1.025-.745-1.47-1.13-.018-.565-.636-.906-.766-1.41.045-.135.09-.281.135-.417-.081-.248-.322-.405-.531-.567-.28-.213-.208-.508-.37-.744-.047-.068-.103-.134-.172-.19-.242-.198-.492-.39-.7-.555-.464-.065-.807-.24-1.246-.225-.286.01-.59-.115-.87-.204-.134-.044-.256-.131-.347-.219-.126-.118-.218-.254-.322-.381-.504-.154-1.056-.037-1.379-.151-.415-.17-.56-.414-.904-.434l-.461.076-.093-.034c-.097.047-.198.092-.278.151-.181.133-.303.308-.47.45-.143.12-.357.144-.56.172-.4.056-.632.237-.707.534-.02.074-.058.144-.088.217-.04 0-.093.013-.117-.002-.147-.087-.237-.211-.503-.148-.384.09-.77.215-1.188.193-.198-.012-.252.094-.34.182-.182.183-.465.188-.691.093-.269-.112-.513-.254-.751-.374l-1.288-.049c-1.025-.313-1.929-.59-2.83-.864h-1.225l-.47.333-.867-.251c-.39.066-.778.194-1.238.053l-.421-.323-1.61-.405c-.269-.19-.55-.417-.87-.61-.317-.193-.618-.397-.925-.595-.306-.197-.65-.372-.955-.579-.252-.171-.548-.204-.861-.11-.239.07-.472.174-.74.124-.245-.045-.485-.111-.666-.155-.506.13-.938.253-1.382.351-.291.063-.597.087-.853.123-.1.091-.18.143-.227.21-.182.255-.45.405-.847.441-.197.018-.388.079-.575.12l-.556-.255c-.23.037-.475.083-.722.118-.299.043-.599.077-.93.118-.19-.09-.39-.234-.625-.287-.352-.078-.667-.175-.965-.34-.284-.159-.616-.317-.954-.362-.437-.06-.738-.261-1.088-.408-.202.033-.4.064-.565.092-.407-.143-.78-.274-1.163-.406-.51-.018-1.018-.025-1.504-.2-.303-.11-.602.01-.811.21-.1.097-.14.215-.065.32.097.133.251.244.35.376.073.097.105.212.14.322.03.094-.108.242-.23.265-.11.021-.206-.002-.27-.078-.243-.297-.505-.578-1.022-.753-.237-.007-.546-.008-.853-.026-.298-.018-.594-.054-.89-.082-.27.313-.658.36-1.09.288-.15-.025-.281-.105-.43-.128-.25-.037-.509-.07-.763-.066-.522.01-.974.224-1.466.324-.09.02-.17.088-.233.148-.093.09-.15.202-.251.288-.145.122-.343.172-.558.127-.148-.03-.286-.083-.43-.126-.315-.097-.597-.059-.862.103-.274.167-.559.327-.833.485-.015.177-.027.33-.043.483-.008.076-.002.158-.04.226-.037.064-.11.138-.191.161-.08.023-.2.002-.286-.026-.2-.065-.315-.199-.404-.336-.075-.114-.203-.207-.341-.212-.873-.025-1.75-.137-2.602.124-.343.104-.735.119-1.067.033-.524-.139-1.08-.209-1.555-.48-.446-.257-.926-.483-1.341-.77-.555-.145-.894-.513-1.322-.73-.514-.071-.96-.079-1.414.059-.591.178-1.203.175-1.81.01-.29-.078-.584-.146-.906-.227-.13-.089-.277-.197-.435-.295-.154-.097-.319-.182-.453-.256-.457.055-.816.247-1.25.196-.417-.05-.816.034-1.212.12-.042.009-.101-.017-.147-.032-.344-.116-.71-.086-1.07-.086-.723-.001-1.455-.041-2.169.024-.55.05-1.089.215-1.61.385-.127.043-.33.048-.45.001-.43-.168-.885-.198-1.353-.187-.318.007-.608-.056-.895-.156-.304-.107-.593-.064-.862.095-.276.165-.46.423-.846.476-.583-.056-.976-.398-1.42-.539-.28.05-.476.097-.68.12-.658.078-1.303.208-1.938.351-.374.086-.683.087-1.038-.018-.232-.069-.5-.083-.756-.091-.512-.017-1.035.041-1.508-.177-.07-.032-.218-.02-.295.014-.291.129-.6.022-.899.044-.502.035-.936.06-1.153.119-.34.095-.508.398-.858.404-.347-.064-.64-.138-.941-.166-.355-.033-.716-.028-.975-.037-.444-.201-.778-.385-1.148-.512-.418-.144-.865-.242-1.303-.35-.208-.05-.41-.005-.591.08-.172.08-.337.17-.505.256-.375-.143-.685.128-1.046.088-.151-.017-.333.004-.454-.05-.605-.267-1.183-.173-1.772.026-.186.062-.407.07-.586.139-.29.111-.596.101-.904.122-.48.034-.906-.12-1.34-.187-.304.069-.574.212-.895.065-.284-.13-.583-.129-.882-.011-.335.132-.689.147-1.13.066-.26-.161-.577-.354-.88-.54-.356-.094-.687-.209-1.036-.268-.297-.05-.618-.068-.921-.047-.366.027-.677-.21-1.102-.071-.374.378-.953.309-1.51.269-.36-.08-.545-.379-.944-.38-.73.173-.743.324-1.537-.164-.038-.024-.09-.038-.135-.056-.304-.09-.587.189-.893.027-.255.038-.485.11-.66.253.034.17.214.258.344.373.1.087.192.179.284.27.064.064-.055.22-.205.267-.104.034-.181.001-.248-.08-.052-.062-.124-.118-.195-.185l-.883-.204c-.252.11-.498.265-.783.33-.433.1-.892.137-1.377.206-.108-.12-.203-.257-.338-.368-.092-.075-.239-.115-.345-.163-.25.123-.463.226-.717.352-.332 0-.692-.004-1.052.001-.411.005-.822.019-1.203.027-.29.149-.545.278-.788.404l-.822.076c-.14.076-.31.162-.466.26-.21.131-.475.137-.714.204-.186.054-.35.158-.512.25-.369.207-.768.215-1.171.09-.38-.117-.756-.245-1.044-.481-.207-.17-.434-.33-.674-.476-.162-.098-.376-.133-.585-.083-.244.058-.48.132-.74.204-.483-.12-.98-.22-1.45-.366-.276-.087-.497-.016-.738.036l-1.442-.322-.491.1-.893-.566c-.266-.022-.473-.049-.64.08-.14.11-.258.249-.428.32-.447.184-.877.406-1.467.473-.716-.293-1.534-.254-2.326-.19l-.799.401-1.098.061c-.208.113-.402.245-.627.334-.22.09-.47.137-.728.208-.111.17-.226.341-.335.513-.019.032-.014.077-.003.12.018.061.159.124.102.17-.45.368-1.527.413-1.915.008-.11-.115.156-.244.082-.328-.09-.099-.371-.155-.557-.088-.078.028-.193.09-.203.192-.01.094.108.19.198.27.029.024.094.027.094.055-.01.35-.863.54-1.274.395-.012-.005-.02-.023-.01-.03-.34.26-.888.14-1.315.174l-.997-.327-.699.332c-.134-.027-.288-.04-.422-.088-.294-.104-.601-.089-.91-.101-.325-.014-.588.169-.884.166-.297-.004-.59-.124-.89-.152-.195-.017-.42.012-.6.072-.608.2-1.195.193-1.795-.01-.306-.104-.598-.043-.884.078-.225.095-.439.188-.578.364-.079.101-.233.141-.399.113-.1-.017-.217-.08-.295-.058-.548.154-1.117.109-1.681.123-.152.004-.334-.008-.454.046-.472.215-1.003.157-1.426.203-.519.122-.889.352-1.33.4l-.442-.085-2.273 1.018c-.4.084-.775-.186-1.19-.07-.389-.097-.775-.2-1.17-.288-.084-.02-.191.013-.315.025-.167.131-.26.312-.382.478-.1.134-.17.281-.271.413-.124.162-.05.385-.32.52-.101-.071-.27-.135-.307-.226-.12-.3-.276-.562-.645-.75-.156-.081-.234-.248-.437-.31-.239-.071-.469-.17-.716-.208-.248-.038-.464-.171-.736-.13-.15.022-.337.092-.444.051-.485-.184-1.003-.166-1.516-.168-.366-.001-.716-.037-1.05-.16-.13-.049-.325.026-.386.123-.087.136-.07.307-.28.42-.31.083-.646.172-.984.258-.045.012-.102.002-.145.002-.094-.045-.204-.073-.263-.13-.185-.181-.32-.398-.535-.556-.215-.157-.513-.25-.757-.39-.243-.139-.465-.3-.647-.42-.674-.107-1.225-.356-1.874-.308-.142.01-.307-.038-.44-.09-.349-.14-.685-.143-1.03.003-.235.1-.5.129-.741.033-.556-.217-1.086-.198-1.618.04-.131.06-.276.105-.42.146-.094.028-.196.037-.295.054-.254-.007-.459-.186-.779-.103-.086.05-.224.11-.323.195-.202.172-.38.357-.57.537-.087-.029-.194-.042-.257-.09-.258-.189-.3-.49-.61-.655-.336-.176-.679-.344-1.005-.53-.212-.12-.431-.2-.692-.24-.147-.021-.301-.069-.417-.14-.568-.345-1.237-.542-1.892-.76-.167 0-.323-.006-.476 0-.87.026-1.758-.11-2.595.192-.13.047-.304.029-.46.029-.67.002-1.343 0-1.987 0C.657 3.324.323 3.174 0 3.018V16.28h295z" mask="url(#tcggxotw7b)"/>
                    </g>
                </g>
            </g>
        </g>
    </g>
</svg>
