<svg xmlns="http://www.w3.org/2000/svg" width="345" height="31" viewBox="0 0 345 31">
    <g fill="none" fill-rule="evenodd">
        <g fill="#FFF">
            <path d="M872.191 7380.22v-25.14c-.35-.168-.704-.398-1.033-.158-.467-.426-.89-.346-1.318-.467-.523-.02-1.05-.097-1.58-.21-.532-.114-1.065-.263-1.602-.428-1.026.338-2.122-.314-3.218-.926-1.028.402-2.323-1.014-3.447-1.062-1.224-.49-2.526-2.022-3.642-1.701-.515.196-.649 1.695-1.554.237-.415.348-.79.829-1.17 1.385-.622 1.543-1.4 2.163-2.243 1.687-.84-.45-1.523.46-2.258.543-.721.313-1.486 0-2.216-.192-.67-.569-1.346-1.48-2.031-1.572-.65-.688-1.392.38-2.063-.144-.656-.488-1.308.906-1.923-.207-.335-.016-.64.97-.97.88-.253.96-.631.152-.886.903-.312-.006-.603.172-.88.46-.276.29-.536.683-.787 1.113-.29.167-.54.635-.87.5-.324-.09-.58.427-.891.482-.48-.062-.957-.145-1.398.28-.47.033-.925.22-1.398.116-.485-.294-.96-.482-1.394-.104-.454.101-.927-.11-1.388-.14-.616-.044-1.192-.057-1.746.23-.56.22-1.14.072-1.71.574-.286.233-.598.196-.944-.157-.335-.185-.705-.707-1.06-.758-.341-.332-.65-.251-.969-.365-.317-.088-.63-.146-.94-.192-.629-.18-1.246-.298-1.86-.24-.648-.415-1.266-.3-1.939-.67-.918.214-1.867-.007-2.84-.4-.938.155-1.946-.512-2.935-.456-.495-.218-.94.15-1.437-.089-.455.165-.968-.183-1.405.13-.487-.105-.922.188-1.43-.016-.441.247-.939.167-1.407.293-.477-.264-.797.328-1.379-.482-.572-.688-.97-.502-1.369-.312-.488-.239-.89-.046-1.344-.117-.423.082-.776.495-1.283.187-.492-.235-.875.097-1.269.388-.346.501-.824.443-1.23.744-.451.113-.755.897-1.219.952-.455.098-.76.986-1.318.475-.464.03-.9.187-1.358.27-.47.044-.952.04-1.485-.17-.547-.288-1.018-.29-1.457-.142-.535-.372-.851.478-1.407-.085-.467-.105-.924-.146-1.38-.19-.434.16-.915-.104-1.36-.018-.51-.537-.905.104-1.367.131-.476-.1-.927.199-1.406.104-.929.166-1.835.64-2.792.137-.656.405-1.278.76-1.874 1.072-.578.592-1.172.58-1.769.287-.574.044-1.134.043-1.711-.335-.395.293-.867-.639-1.267-.521-.394.19-.817-.045-1.266-.647-.372-.215-.735-.285-1.091-.26-.353.076-.724-.099-1.07.097-.373-.217-.75-.478-1.123-.665-.371-.187-.74-.3-1.095-.223-.735-.17-1.484-.527-2.273-1.388-.766-.54-1.527-.936-2.32-1.656-.403-.445-.792-.731-1.172-.943-.375-.343-.731-.218-1.09-.46-.384.59-.751.762-1.101.78-.347.001-.677.03-.992.156-.31.158-.593.023-.866-.037-.268-.202-.53-.144-.786-.189-.392-.167-.779-.246-1.188-.383-.46-.365-.822-.008-1.278-.048-.496-.169-.747 1.02-1.218 1.361-.509.647-1.438 1.797-2.665 2.64-.206-.11-.471-.248-.98-.127-.353-.099-.94.068-1.464.088-.536.054-1.037-.034-1.638.043-.717.597-1.096-.2-1.734-.077-.532-.427-1.169-.344-1.75-.528-.563-.449-1.133-.53-1.667-.678-.308-.177-.625-.993-.992-.47-.36.05-.74.212-1.129.167-.39-.088-.807.17-1.245.644-.436.34-.15 1.41-1.22.98-.338-.284-.456.14-.422.504.12.281-.813-.37-.107.54-.56.173.87.705-.466.767-.152.246-.127.495-.574.734-.295.259-1.718.578-1.63.81.196.273-.773.606-1.406.867-.412.236-.963.352-1.174.609-.31.19-.61.37-.907.54-.321.163-.648.32-.977.48-.71.277-1.594.829-2.704 1.542-.42.008-.804.007-1.164 0-.325-.03-.643-.063-.962-.093-.51-.26-1.798.572-2.08-.203-.818.028-1.699.315-2.523.363-.534.574-.985.041-1.465.156-.468.206-.932.065-1.391.196-.425-.211-.827-.408-1.274.075-.44.256-.806.067-1.282.42-.43.056-1.079.895-1.53.928-.642.857-1.16 1.263-1.618 1.005-.528.295-.983.64-1.365.915-.359.196-.686.386-.99.428-.682.302-1.138.023-2.419.902-.672.058-1.26.567-2.284.141.58.661-.816-.038-.05.7-.23.15-.773-.085-1.132.296-.494.018-1.261.377-1.657.201-.517-.03-1.062-.002-1.616.113-.547.123-1.069.352-1.53.673-.988.141-1.438 1.094-2.318 1.285-.3.176-1.502-.126-1.625.163-.713-.039-1.545-.198-1.32.26-.798-.172-.863.057-1.31-.009-.3-.004-.492.065-.673.13-.8-.802.002.46-.73-.08.197.543.043.696-.566.242-.216.117-.496.215-1.007-.233-.367.061-.761.433-1.313-.16-.604-.85-1.174 1.66-1.708-.16-.638 2.54-1.187.428-1.886-.632-.755-.57-1.258-.103-1.701.338-.754-.813-.915.502-1.688-.887.036 1.863-.221 2.342-.835 1.487-.163.74-.5.813-1.464 2.824-.07 2.235-1.117.564-1.617 1.028-.404.32-.438 1.163-.652 1.512-.411.048-1.087-.266-1.581-.352-.167.395-.84-.025-1.181.131.306.929-.736-.547-.57.453-.24.046-.56-.063-.851-.137.412 1.243-.244.566-.71.095-.26-.045-.529-.128-.78-.16-.492-.036-1.007-.124-1.55-.27-.563-.147-1.198-.802-1.909-.712-.971.268-1.973.363-3.01-.002-.986.436-2.024.06-3.045-.116-1.001.105-1.995.259-3.012-.007-1.037-.72-1.972-.08-2.917-.103-.937-.12-1.863-.242-2.787-.323-.85-.491-1.634-1.18-2.378-1.946-.774-1.608-1.537-.636-2.298-1.276-.81-.425-1.517.109-2.28-.254-.712.1-1.428-.273-2.095-.382-.33-.1-.653-.201-.976-.293-.322-.103-.645-.199-.967-.278-1.072.562-2.085.676-3.024.886-.954-.01-1.814.386-2.68.041-.82.313-1.695-.812-2.446-.426-.808-.454-1.524.13-2.326-.52-.491.202-1.007.056-1.538-.214-.536-.325-1.036-.012-1.568.022-.467.62-1.212-.066-1.97.15-.758.198-1.624-.092-2.38.601-.76.665-1.508.87-2.159.21-.442-.158-.855-.194-1.25-.305-.397-.11-.77-.229-1.124-.355-.702-.191-1.334-.652-1.86-.853-1.36.324-2.526.37-3.58-.185-.991.389-1.917-.518-2.69-.577-.785-.245-1.493-.796-2.132-.742-.32.217-.672-.354-1.015-.248-.363-.042-.736-.06-1.131-.015-.849.45-1.705-.13-2.757-.268-1.889.012-1.334-.906-3.83-.51-.815-.032-.423-.498-1.388-.358.523-.82-.599-.352-1.052-.436-.165-.362-.693-.108-.943-.332-.312-.147-.602-.536-.922-.39-.335-.344-.662-.48-.975-.598-.312-.132-.606-.26-.998-.762-2.02-3.489-1.525-.765-2.434-1.48-.289 1.24-1.567-.384-1.99 1.336-.65 1.352-1.698.96-2.779 1.611-1.222-.194-2.467-.461-3.55-.28-1.001.113-1.994-.19-2.804-.438-.757-.371-1.508-.653-2.276-.863-.535-.893-1.877.64-2.597.233-.977.2-2.06.61-3.035.465-.409-.46-.998.042-1.418-.2-.404-.345-.917-.121-1.388-.11-.401-.367-.878-.31-1.368-.168-.448-.08-.898-.156-1.352-.17-.42-.375-.852-.69-1.317-.445-.43-.467-.88-.443-1.336-.494-.35-.295-.7-.261-1.08-.725-.335-.706-.719-.21-1.016-.694-.154-.785-.48-.766-.763-.895-.425.3-.317-.733-.532-.9-.12-.26.227-.839-.39-.663.17-.373-.34-.32-.513-.488.025-.289.047-.646-.882-.447-.545-.085-1.376-.031-1.438-.505-.731-.068-1.482-.097-1.878-.592-.587-.376-1.197-.9-2.004-.419-.599-.28-1.286.11-1.919.26-.66.675-1.113-.087-1.7.282-.272-.137-.54-.218-.796-.334-.243-.301-.484-.68-.75-.378-.485-.483-.95-.504-1.4-.582-.455-.684-.887-.91-1.301-.775-.446-.543-.91-1.064-1.326-.578-.489-.415-.924.428-1.477-.043-.538-.058-1.05 1.013-1.702.494-.193-.377-.433-.623-.713-.719-.277-.176-.602-.076-.96.133-.341-.578-.75.125-1.156.135-.396-.458-.816.474-1.243-.17-.413-.054-.823-.168-1.217-.344-.4-.49-.774-.14-1.137-.56-.666-.185-1.327-.038-2.064-.656-.727-.453-1.402.267-2.158.285-.366.19-.753.167-1.122.539-.356.576-.774.343-1.13 1.136-.39.227-.814.11-1.251-.08-.473-.7-.837.328-1.289.146l-.063-.007v24.975h344z" transform="translate(-528 -7350) matrix(1 0 0 -1 0 14730.304)"/>
        </g>
    </g>
</svg>
