<svg xmlns="http://www.w3.org/2000/svg" xmlns:xlink="http://www.w3.org/1999/xlink" width="1400" height="67" viewBox="0 0 1400 67">
    <defs>
        <path id="wzwuybr8za" d="M0 0L1400 0 1400 66.587 0 66.587z"/>
    </defs>
    <g fill="none" fill-rule="evenodd">
        <g>
            <g transform="translate(0 -564) translate(0 564)">
                <mask id="1lmvx6m4ab" fill="#fff">
                    <use xlink:href="#wzwuybr8za"/>
                </mask>
                <path fill="#f5dfd0" d="M0 0v65.757c.944.108 1.891.277 2.848.533 1.5.397 3.356.218 5.013.297.929-.427 1.762-.76 2.504-1.164 1.233-.672 2.633-.953 4.078-.498 2.09.654 4.122.903 6.36.334 1.554-.396 3.269-.161 4.926-.493 1.822-.368 3.896-.26 5.713.379 1.4.487 2.803.534 4.2.035 1.365-.486 2.75-.61 4.222-.197.43.116 1.02.263 1.384.162 2.834-.786 5.813-.396 8.729-.492 1.234-.04 2.435-.106 3.553-.494 1.39-.48 2.812-.534 4.202-.026.677.248 1.376.355 2.084.423.033-.844.276-1.682.798-2.501.208-.33.712-.521 1.214-.368.631.193 1.401.436 1.696.802.559.69.798 1.48 1.2 2.226.019.045.1.092.159.135.241.039.472.077.708.118.218.035.554.183.554.282 0 .018-.003.038-.003.058.155.027.307.048.43.05 1.052.016 1.918-.265 2.667-.686 1.052-.6 2.084-.652 3.311-.216.666.238 1.47.063 2.047-.237 1.177-.608 2.326-1.2 3.927-.635 1.438-.45 2.75-.358 4.147.198.994.396 2.536-.028 3.144-.68.246-.27.508-.553.624-.854.289-.767.488-1.552.722-2.306 1.406-.956 2.758-1.875 3.564-2.418 1.17-1.237.37-2.368 1.83-3.05 1.145.785-.124 1.939.963 2.727 1.284-.27 1.694-1.084 2.147-1.733 1.011-1.445 2.735-2.197 4.924-2.65.695-.142 1.388-.29 1.884-.396 3.151.06 6.083.112 9 .165.893-.397 1.687-.766 2.5-1.112 1.014-.427 2.046-.835 2.827-1.153.553-.587.99-.978 1.3-1.409.913-1.288 1.27-2.759 3.162-3.706.35-.174.584-.529.677-.827.288-.964.9-1.84 1.819-2.589.396-.318.643-.941 1.285-.922 4.116.111 5.923 4.061 9.941 2.262 2.285-1.025 1.677-2.701 2.68-4.17.327-.478.626-1.343 1.268-1.17.54.14.158.737.76 1.006l2.687-.144c1.155.548 2.398.767 3.127 1.432.608.742.357 1.517.392 2.28 1.237-.443 2.485-.892 3.72-1.34.691.16 1.369.311 2.14.486 2.025-.388 4.124-.833 6.365-.554.242.027.494.005.736.016 2.136.12 3.866-.305 4.895-1.6.58-.727 1.33-1.32 2.44-1.732.57-.214 1.345.073 1.451.608.062.287.096.578.145.874 1.827.427 3.693.785 4.869 1.955.519.514 1.385.875 1.902 1.194 1.711.261 3.268.309 4.516.737 1.815.628 3.303-.293 4.992-.15 1.706.14 3.39.174 4.91.809 1.086.45 2.292.402 3.52.131 1.605-.352 3.255-.617 4.898-.926.812-.606 1.602-1.196 2.394-1.785.934.125 1.866.248 2.898.387 3.025-1.723 6.697-2.467 10.634-2.67 1.03-.99 1.977-1.903 2.88-2.777.314-.036.585-.126.736-.076 1.512.531 2.836.366 3.938-.46.638-.47 1.178-.995 1.683-1.436 3.6-.422 6.578-1.466 9.466-2.773 1.673.273 3.072 1.141 4.956.886 1.526-.387 3.118-.795 4.655-1.182.537.088.992.167 1.462.228.464.062.936.102 1.498.16.646-.416 1.22-1.023 2.04-1.26 4.207-1.227 8.07-2.872 12.123-4.315 2.489 1.212 4.077 2.773 5.423 4.496.715.908 2.15 1.288 3.726 1.227.948-.04 1.883-.272 2.848-.35 2.148-.175 2.95-1.609 4.848-2.14l5.772.213c1.969.934 3.71 2.1 6.256 2.372.426.05.832.335 1.165.56 1.042.722 2.234 1.226 3.81 1.265 1.248.038 2.364.356 3.464.722.66.223 1.406.26 2.105.03 1.362-.447 2.858-.348 4.294-.491.925-.096 1.863-.38 2.634-.738 1.197-.549 2.277-1.237 2.513-2.259.22-.99 1.223-1.726 1.867-2.58.683-.9 1.849-1.456 3.33-1.744.689-.133 1.362-.298 2.046-.45 1.131.398 2.2.642 3.497.282 1.316-.364 2.75-.559 3.958-.795 1.29-1.387 2.694-2.465 4.803-3.043.493.068.984.094 1.425.205 2.557.65 2.865.625 4.408-.496.64-.466 1.235-.96 1.512-1.178 3.114-.743 4.649.224 5.947 1.498.245.025.51.094.73.06 1.372-.222 2.717-.795 4.135-.067 1.645.839 3.868.375 5.583 1.043.531.206.94.187 1.379-.204.515-.562.485-1.484 1.726-1.875.926-.295 1.505-.777 2.021-1.327.811-.86 2.105-1.254 3.5-1.633 1.371-.372 2.833-.5 4.18-.85 1.33-.346 1.91-1.37 3.373-1.76 1.334-.353 2.482-.994 3.537-1.437 1.933-.063 3.635-.092 5.336-.186 1.194-.064 2.012-.905 1.783-1.726-.167-.6-.262-1.211-.39-1.815 1.52.064 2.91.388 3.554 1.322 1.56 2.242 4.246 3.89 6.716 5.655.46.33 1.147.525 1.636.738 2.753-.417 2.806-.407 4.118.455.695.45 1.327.94 2.04 1.377 1.436.88 2.88.97 4.671.288.822-.312 1.478-.837 2.389-.796 1.308.284 2.539.447 3.603.813 1.064.368 1.915.986 2.934 1.41 1.44.595 2.835 1.268 4.979 1.608 3.19-.007 6.843.622 10.45-.356.851-.231 1.934-.118 2.91-.113 1.71.012 3.43.063 5.243.099 2.799-1.255 5.707-2.4 9.235-2.69.631-.05 1.273-.46 1.77-.796.678-.447 1.211-.98 1.745-1.425 2-.332 3.857-.637 5.506-.91 1.55.566 2.827 1.048 4.127 1.494.418.14.913.185 1.466.291 1.705-.264 1.661-2.008 3.173-1.954 1.785.06 1.516 2.034 3.532 2.467.619.138 1.49-.045 1.912.279.545.42.074 1.104.859 1.42 3.016 1.206 4.859 3.103 6.97 4.706.085 2.351 3.02 3.77 3.635 5.866-.209.564-.426 1.17-.635 1.735.38 1.033 1.524 1.686 2.519 2.36 1.324.888.985 2.115 1.757 3.098.22.282.485.558.811.791 1.15.821 2.334 1.625 3.323 2.307 2.201.273 3.83 1.003 5.912.936 1.362-.044 2.798.48 4.13.851.636.18 1.213.547 1.65.909.597.491 1.03 1.058 1.526 1.59 2.392.64 5.012.153 6.542.627 1.97.704 2.66 1.721 4.293 1.806.709-.104 1.42-.208 2.187-.318.141.048.296.095.44.141.46-.195.94-.38 1.323-.628.858-.55 1.437-1.28 2.23-1.872.675-.498 1.692-.599 2.66-.716 1.894-.232 2.997-.988 3.352-2.222.092-.308.274-.601.419-.905.186 0 .44-.05.553.008.7.367 1.125.88 2.386.62 1.826-.372 3.653-.897 5.636-.804.945.047 1.198-.393 1.615-.76.866-.761 2.208-.782 3.283-.386 1.274.466 2.434 1.056 3.561 1.556 2.338.077 4.536.15 6.115.204 4.863 1.302 9.154 2.452 13.43 3.595h5.813c.798-.494 1.49-.928 2.232-1.386l4.115 1.047c1.847-.274 3.692-.807 5.875-.222.52.351 1.194.806 1.998 1.343 2.365.524 4.896 1.083 7.64 1.689 1.274.792 2.609 1.735 4.125 2.54 1.506.8 2.934 1.65 4.393 2.472 1.452.823 3.082 1.55 4.53 2.41 1.198.714 2.6.848 4.09.461 1.13-.298 2.237-.726 3.51-.519 1.163.187 2.3.464 3.162.647 2.402-.542 4.449-1.057 6.56-1.463 1.378-.261 2.832-.363 4.047-.511.476-.378.855-.598 1.075-.87.867-1.066 2.135-1.691 4.019-1.84.935-.075 1.843-.327 2.73-.495l2.64 1.058c1.09-.155 2.254-.345 3.427-.493 1.417-.178 2.84-.318 4.408-.49.91.378 1.85.974 2.969 1.194 1.669.327 3.164.729 4.579 1.417 1.349.659 2.925 1.32 4.529 1.506 2.076.247 3.5 1.086 5.16 1.7.96-.14 1.898-.271 2.684-.384 1.934.593 3.705 1.138 5.521 1.69 2.418.072 4.83.102 7.135.833 1.441.455 2.86-.043 3.852-.877.477-.405.66-.896.307-1.33-.462-.554-1.193-1.015-1.664-1.566-.345-.403-.494-.883-.663-1.34-.137-.39.513-1.008 1.091-1.105.523-.087.982.012 1.282.326 1.155 1.236 2.396 2.409 4.852 3.136 1.125.027 2.591.031 4.048.108 1.414.074 2.82.225 4.226.34 1.276-1.303 3.121-1.5 5.174-1.2.705.107 1.33.439 2.034.532 1.19.156 2.416.296 3.622.275 2.476-.04 4.623-.932 6.958-1.348.424-.078.808-.366 1.105-.614.442-.378.713-.842 1.194-1.199.686-.51 1.625-.715 2.645-.528.706.128 1.36.346 2.04.525 1.498.403 2.839.243 4.093-.43 1.303-.696 2.652-1.36 3.956-2.02.07-.734.125-1.369.2-2.007.039-.317.012-.658.19-.943.175-.267.526-.575.91-.67.379-.095.946-.008 1.355.111.947.27 1.494.826 1.919 1.397.353.475.963.861 1.618.88 4.14.104 8.309.57 12.348-.514 1.626-.433 3.488-.494 5.062-.136 2.49.576 5.123.868 7.384 1.999 2.115 1.065 4.391 2.006 6.361 3.204 2.634.601 4.241 2.131 6.275 3.034 2.437.298 4.551.33 6.71-.245 2.804-.74 5.71-.729 8.592-.042 1.371.326 2.767.61 4.297.944.615.371 1.315.82 2.062 1.23.735.404 1.516.757 2.153 1.066 2.17-.229 3.87-1.03 5.93-.814 1.98.204 3.875-.145 5.755-.5.196-.039.478.07.698.132 1.632.48 3.367.358 5.074.358 3.435.005 6.907.17 10.293-.099 2.617-.213 5.17-.897 7.64-1.605.608-.176 1.573-.2 2.139-.005 2.044.703 4.2.823 6.422.779 1.508-.03 2.883.234 4.248.65 1.44.444 2.812.268 4.09-.397 1.31-.687 2.185-1.758 4.013-1.978 2.77.233 4.634 1.657 6.737 2.241 1.329-.21 2.264-.403 3.23-.5 3.123-.322 6.187-.861 9.196-1.461 1.778-.357 3.242-.36 4.93.076 1.1.287 2.373.345 3.582.38 2.431.071 4.914-.171 7.158.736.336.134 1.035.085 1.4-.058 1.384-.537 2.85-.093 4.266-.182 2.384-.147 4.443-.247 5.473-.496 1.62-.395 2.41-1.655 4.07-1.682 1.65.265 3.04.573 4.47.69 1.683.14 3.397.117 4.627.153 2.106.84 3.69 1.604 5.45 2.134 1.98.599 4.104 1.008 6.182 1.452.985.212 1.94.024 2.804-.326.814-.338 1.6-.71 2.397-1.067 1.78.593 3.252-.536 4.964-.369.718.07 1.578-.017 2.152.206 2.872 1.116 5.616.724 8.413-.107.88-.257 1.932-.289 2.78-.576 1.378-.462 2.83-.422 4.291-.508 2.276-.14 4.298.496 6.36.776 1.443-.285 2.72-.88 4.243-.268 1.353.54 2.77.536 4.188.045 1.588-.55 3.27-.612 5.363-.274 1.237.67 2.736 1.472 4.175 2.246 1.692.393 3.26.869 4.918 1.116 1.41.21 2.933.285 4.372.195 1.733-.113 3.212.872 5.226.298 1.778-1.576 4.526-1.288 7.172-1.119 1.709.333 2.584 1.574 4.476 1.58 3.465-.72 3.525-1.348 7.296.683.182.1.426.154.64.233 1.443.376 2.784-.787 4.238-.112 1.21-.16 2.303-.461 3.135-1.054-.165-.712-1.02-1.077-1.636-1.555-.47-.363-.914-.74-1.346-1.12-.308-.269.26-.914.97-1.112.495-.14.86-.008 1.176.33.247.262.59.494.93.77 1.34.273 2.73.557 4.19.85 1.196-.454 2.363-1.103 3.713-1.372 2.056-.419 4.235-.57 6.536-.857.511.5.962 1.072 1.602 1.533.439.312 1.134.475 1.64.674 1.182-.508 2.196-.94 3.403-1.462 1.574 0 3.283.015 4.992-.005 1.952-.02 3.901-.076 5.71-.114 1.375-.618 2.583-1.155 3.74-1.678l3.9-.317c.66-.318 1.472-.676 2.209-1.083.998-.546 2.257-.568 3.39-.848.882-.223 1.657-.659 2.432-1.041 1.749-.86 3.645-.896 5.557-.377 1.799.489 3.586 1.02 4.955 2.006.98.708 2.057 1.375 3.196 1.977.769.408 1.785.556 2.777.349 1.16-.243 2.28-.55 3.512-.849 2.293.498 4.647.916 6.878 1.522 1.314.361 2.363.065 3.503-.15 2.332.454 4.66.91 6.846 1.34.834-.15 1.522-.27 2.332-.414 1.466.811 2.935 1.633 4.235 2.352 1.262.092 2.246.204 3.038-.334.665-.452 1.224-1.034 2.03-1.327 2.124-.77 4.164-1.694 6.965-1.969 3.396 1.215 7.276 1.055 11.036.79 1.382-.609 2.598-1.142 3.792-1.67 1.755-.087 3.457-.167 5.213-.254.989-.472 1.906-1.019 2.972-1.392 1.041-.372 2.235-.57 3.459-.864.525-.709 1.07-1.418 1.588-2.134.09-.134.068-.32.013-.5-.085-.255-.752-.516-.48-.71 2.131-1.53 7.246-1.717 9.086-.03.522.479-.743 1.016-.389 1.364.427.41 1.76.645 2.644.366.37-.117.913-.374.962-.799.05-.39-.512-.788-.938-1.12-.137-.104-.449-.117-.449-.233.051-1.458 4.097-2.247 6.05-1.644.052.02.092.096.044.128 1.612-1.083 4.216-.586 6.24-.726 1.675.48 3.232.928 4.736 1.362 1.16-.485 2.182-.91 3.314-1.381.638.11 1.367.167 2.002.365 1.394.431 2.854.367 4.322.42 1.542.058 2.789-.703 4.195-.69 1.408.014 2.795.516 4.224.631.922.074 1.988-.05 2.844-.3 2.888-.83 5.672-.803 8.523.045 1.452.43 2.836.177 4.192-.327 1.071-.398 2.081-.782 2.744-1.518.373-.418 1.104-.585 1.892-.467.47.072 1.028.33 1.403.24 2.598-.64 5.297-.452 7.975-.512.723-.015 1.584.037 2.156-.191 2.242-.895 4.762-.651 6.766-.846 2.464-.504 4.218-1.464 6.312-1.66.825.136 1.513.253 2.1.351 3.659-1.435 7.203-2.829 10.786-4.236 1.9-.352 3.679.772 5.644.287 1.846.407 3.682.835 5.553 1.204.402.08.911-.056 1.494-.107.795-.544 1.233-1.296 1.814-1.989.477-.556.81-1.17 1.288-1.72.59-.673.237-1.601 1.517-2.165.484.3 1.281.564 1.456.944.573 1.247 1.314 2.337 3.062 3.121.744.338 1.114 1.032 2.075 1.288 1.132.298 2.224.708 3.396.868 1.18.157 2.204.71 3.497.542.708-.093 1.596-.385 2.106-.214 2.301.768 4.757.69 7.193.698 1.74.006 3.4.156 4.982.672.615.199 1.543-.111 1.835-.517.41-.566.335-1.278 1.323-1.75 1.477-.341 3.072-.714 4.673-1.07.214-.05.484-.009.688-.009.45.186.97.302 1.248.539.88.755 1.52 1.66 2.54 2.313 1.023.657 2.435 1.044 3.594 1.623 1.155.579 2.206 1.252 3.07 1.748 3.198.447 5.814 1.486 8.891 1.285.676-.045 1.46.157 2.09.377 1.656.58 3.25.59 4.885-.016 1.12-.417 2.376-.536 3.52-.14 2.639.905 5.154.825 7.676-.167.625-.247 1.312-.431 2-.606.442-.113.926-.151 1.394-.226 1.205.033 2.178.777 3.7.432.405-.21 1.061-.457 1.532-.811.96-.714 1.805-1.486 2.703-2.236.413.122.925.176 1.22.371 1.228.788 1.43 2.045 2.898 2.73 1.593.733 3.22 1.432 4.77 2.203 1.003.5 2.044.838 3.284 1 .695.09 1.428.288 1.974.581 2.7 1.436 5.873 2.26 8.985 3.17.79 0 1.529.02 2.258 0 4.125-.114 8.343.453 12.314-.805.613-.194 1.444-.117 2.18-.117 3.183-.01 6.375-.004 9.43-.004 1.702.69 3.285 1.311 4.82 1.963V0H0z" mask="url(#1lmvx6m4ab)"/>
            </g>
        </g>
    </g>
</svg>
