<svg width="1400" height="83" viewBox="0 0 1400 83" xmlns="http://www.w3.org/2000/svg" xmlns:xlink="http://www.w3.org/1999/xlink">
    <defs>
        <path id="avp43zfz9a" d="M0 0h1400v83H0z"/>
    </defs>
    <g transform="matrix(-1 0 0 1 1400 0)" fill="none" fill-rule="evenodd">
        <mask id="nulk1f17sb" fill="#fff">
            <use xlink:href="#avp43zfz9a"/>
        </mask>
        <path d="M0 1v5.712c2.426-.11 4.918-.266 7.503-.503 2.171 4.257 17.078.56 14.978 7.484 3.955.2 8.027-.264 11.976 0 2.861.19 2.13 1.76 2.995 1.87 2.868.358 2.779-1.886 2.996-1.87 7.805.514 13.182 3.552 23.964 1.87 3.047-.477 1.457-1.428 2.996-1.87 1.081-.313 5.283.54 5.99 0 .165-.127-.182-1.856 0-1.872 3.516-.309 9.361 1.59 14.972 1.872 4.962.247 10.01-.19 14.978 0 5.352-.526 6.142 1.767 2.995 1.87.738 2.032 5.956 1.268 5.991 3.74 9.723 1.083 13.93-1.275 20.963-1.87 1.738 1.736 8.997 4.715 14.977 5.612 6.519.975 16.049-2.12 23.959 0 1.362.361 2.375 2.784 2.995 3.74h2.996c-.966-1.139 6.845-5.376 8.985-3.74.188.139 4.3 3.159 5.992 1.868.151-.114-.152-1.86 0-1.868 1.789-.099 5.44 1.728 8.986 1.868 3.434.138 5.365.06 5.992 1.871 11.285-1.437 14.316 2.281 23.958 1.87 5.02-4.65 14.912-.487 20.969 0 8.393.675 16.556.42 23.958 1.872 1.028.2 5.37-.477 5.99 0 .457.345-.509 1.565 0 1.868.514.311 2.492-.314 2.995 0 .398.248-.462 1.695 0 1.87 1.452.556 4.411-.422 5.991 0 .556.151 1.24 1.433 2.997 1.871 2.579.647 6.318-.515 8.985 0h2.996v-1.87c9.859-.077 14.906-3.157 26.953-1.871h2.997c4.27-5.69 25.969-4.985 26.951 1.87 6.18 1.133 20.812-3.017 17.974 3.742 10.296-.818 16.785.74 23.957 1.87 2.727 5.78 15.893 5.042 14.978 13.093h5.992c2.55-.344 2.826.729 2.996 1.87 6.289-1.13 7.892 1.73 11.982 1.871 9.98.34 20.78-4.98 23.957 1.87 5.962-2.513 14.26-3.565 20.97-5.611 11.676.13 21.078-.179 29.949 0 5.33.107 6.365 2.12 11.982 1.87 2.743-.122 4.534-2.11 8.985-1.87-.958-.052 2.001 1.715 2.996 1.87 1.877.295 4.084-.225 5.985 0 2.358 1.792 14.92-2.331 17.973 0 .14.104-.117 1.869 0 1.871 6.273.1 11.045-4.124 17.973 0 7.717-2.04 14.393-4.726 17.968-9.35 7.442.278 12.431-.97 14.978-3.742 11.301 2.29 19.915 6.267 35.939 5.61.334 3.535 9.905 1.298 8.985 5.612 7.466-1.574 16.05-2.448 26.955-1.871-2.58 6.6 4.82 1.716 11.982 1.87 4.17.09 5.96 2.235 8.986 1.871 8.7-1.048 16.58-2.84 14.978-7.481 3.48-.306 5.328.413 5.991 1.87 5.412-1.632 3.627-2.437 11.975-3.74 1.697-.268 3.16-1.884 2.995-1.87 5.876-.455 11.422 4.475 11.982-3.742 2.915.05 2.324 2.29 2.996 3.742 3.48-.306 5.33.412 5.992 1.87 4.839.525 5.154-1.769 8.986-1.87 5.248-1.71 14.942-.644 17.968-3.742 4.452 2.209 13.385 1.619 11.98 7.482 20.612-.406 36.182 2.342 50.918 5.61.925-2.537 7.501-1.551 11.982-1.87.37-4.131 12.702-.795 17.968-1.87 2.358 1.792 14.92-2.33 17.973 0 3.035 2.318 2.253.726 8.987-1.87 1.982-.767 3.867-1.026 5.99-1.87.604-.241 2.499.308 2.99 0 .28-.173-.327-1.8 0-1.87 4.61-1.002 5.347 2.18 8.986 1.87 3.75-.322 5.114-3.007 8.987-3.741 7.466-1.416 15.604 1.107 23.964-1.87 2.796-1.372 4.534-3.403 5.985-5.613 9.408 4.939 20.77-.878 26.958-3.741 8.672.61 9.872 1.102 20.964 1.87 6.336.441 10.77 2.289 14.978 1.871 4-.394 4.663-3.493 8.985-3.741 3.932-1.439 23.145-8.516 23.958 0h11.982c-2.368 6.471 3.33 7.898 5.991 11.224 13.621-2.039 17.482-9.437 32.946-5.612 8.852-3.285 23.518-6.047 23.963 3.741 5.277.535 9.274-8.806 11.982-3.741 7.039-2.722 14.27 4.464 23.958 1.87 1.323-.354-.35-2.027 2.996-1.87 4.984.235 5.734.753 5.99 3.741 4.05-1.838 5.986-4.99 8.987-7.483 16.324-.842 24.608 3.336 41.93 1.871 4.483 2.811 5.357 7.878 11.98 9.354 4.312 1.046 7.308 2.917 8.985 5.61 7.429-.277 14.535-.35 14.977 3.74 3.25-.462 2.03-3.718 5.987-3.74h11.982c4.48-2.191 12.251-2.326 14.975-5.61 2.425.353 2.986 1.875 5.991 1.87 5.698 1.286 14.021 1.275 17.97 3.74 1.832 1.143-.383 1.376 2.995 1.87 4.552.666 11.57-1.284 11.979 1.87 5.976-2.502 12.986-4.36 14.978-9.35 2.463-.959 9.984 1.245 11.98 0 .204-.128-.22-1.846 0-1.871 1.845-.209 15.95 1.541 17.972 0 .133-.103-.114-1.87 0-1.87 1.995-.018 3.505 1.58 5.989 1.87 1.325.153 3.364.158 5.758.117V1H0z" fill="#DEEBE7" mask="url(#nulk1f17sb)"/>
    </g>
</svg>
