<svg xmlns="http://www.w3.org/2000/svg" xmlns:xlink="http://www.w3.org/1999/xlink" width="308" height="62" viewBox="0 0 308 62">
    <defs>
        <path id="l8togyzgva" d="M0 0H308V62H0z"/>
    </defs>
    <g fill="none" fill-rule="evenodd">
        <g>
            <g transform="translate(-952 -3822) translate(952 3822)">
                <mask id="fad8pfedyb" fill="#fff">
                    <use xlink:href="#l8togyzgva"/>
                </mask>
                <path fill="#DEEBE7" d="M647.389 45.422V12.956c-1.17.192-2.355.368-3.64.568-.954-.562-1.942-1.45-3.114-1.774-1.75-.486-3.32-1.083-4.803-2.106-1.417-.98-3.07-1.961-4.753-2.24-2.176-.365-3.671-1.612-5.413-2.522-1.007.206-1.99.4-2.814.569-2.029-.881-3.887-1.69-5.793-2.51-2.535-.107-5.067-.152-7.485-1.238-1.511-.676-2.998.065-4.04 1.304-.5.6-.694 1.329-.322 1.973.485.826 1.25 1.509 1.745 2.327.362.6.518 1.314.695 1.992.144.579-.538 1.497-1.144 1.643-.547.129-1.03-.02-1.345-.485-1.212-1.836-2.514-3.58-5.089-4.66-1.18-.04-2.719-.046-4.246-.16-1.485-.111-2.96-.335-4.435-.505-1.338 1.936-3.275 2.229-5.427 1.78-.74-.157-1.396-.65-2.133-.79-1.248-.23-2.536-.438-3.8-.406-2.599.06-4.85 1.383-7.3 2.002-.444.117-.848.543-1.16.912-.463.563-.748 1.25-1.25 1.78-.722.759-1.707 1.065-2.776.787-.74-.19-1.426-.514-2.14-.78-1.572-.6-2.977-.363-4.294.638-1.367 1.036-2.783 2.02-4.15 3-.074 1.092-.13 2.036-.21 2.983-.04.47-.013.979-.2 1.403-.182.394-.55.852-.952.994-.4.142-.994.012-1.423-.164-.994-.401-1.567-1.228-2.013-2.077-.371-.705-1.01-1.28-1.698-1.308-4.343-.155-8.716-.846-12.953.764-1.706.644-3.659.736-5.31.202-2.612-.856-5.375-1.288-7.746-2.968-2.22-1.585-4.607-2.981-6.674-4.761-2.762-.894-4.449-3.167-6.581-4.51-2.558-.441-4.775-.488-7.041.364-2.941 1.102-5.99 1.083-9.012.063-1.439-.483-2.903-.906-4.508-1.402-.645-.552-1.38-1.218-2.164-1.828-.77-.6-1.59-1.124-2.258-1.585-2.275.34-4.06 1.53-6.22 1.213-2.078-.303-4.065.214-6.039.742-.205.056-.5-.105-.732-.196-1.711-.713-3.532-.534-5.323-.534-3.603-.006-7.245-.252-10.798.149-2.744.316-5.422 1.332-8.014 2.384-.638.262-1.65.296-2.243.007-2.145-1.043-4.407-1.223-6.737-1.156-1.583.044-3.026-.348-4.457-.967-1.511-.66-2.95-.398-4.29.59-1.376 1.02-2.292 2.613-4.21 2.94-2.906-.347-4.863-2.463-7.069-3.331-1.392.313-2.373.6-3.388.742-3.276.48-6.49 1.282-9.647 2.172-1.864.53-3.4.534-5.17-.113-1.155-.426-2.49-.512-3.76-.566-2.549-.104-5.153.256-7.508-1.092-.352-.2-1.085-.126-1.468.085-1.452.799-2.99.139-4.476.272-2.5.219-4.66.366-5.74.735-1.7.588-2.53 2.46-4.272 2.5-1.729-.394-3.187-.851-4.688-1.025-1.766-.208-3.563-.174-4.855-.228-2.208-1.247-3.87-2.383-5.715-3.17-2.078-.89-4.306-1.496-6.487-2.158-1.033-.314-2.035-.036-2.94.485-.856.502-1.68 1.055-2.515 1.585-1.868-.881-3.411.796-5.207.549-.755-.104-1.656.026-2.258-.306-3.014-1.657-5.891-1.076-8.825.158-.925.382-2.027.43-2.918.856-1.444.688-2.968.628-4.5.754-2.388.209-4.509-.735-6.67-1.152-1.516.423-2.855 1.307-4.453.398-1.42-.802-2.908-.796-4.393-.066-1.666.817-3.43.909-5.626.407-1.299-.995-2.871-2.188-4.38-3.338-1.775-.584-3.421-1.291-5.16-1.657-1.478-.313-3.076-.423-4.587-.29-1.817.167-3.37-1.295-5.482-.443-1.865 2.343-4.748 1.914-7.523 1.664-1.793-.495-2.71-2.34-4.696-2.35-3.635 1.072-3.698 2.005-7.653-1.012-.191-.15-.447-.231-.67-.348-1.515-.558-2.922 1.169-4.447.168-1.27.237-2.417.685-3.29 1.566.174 1.057 1.072 1.597 1.717 2.308.495.54.958 1.102 1.412 1.667.323.398-.272 1.356-1.017 1.65-.521.21-.904.01-1.235-.491-.26-.39-.62-.733-.974-1.143-1.407-.406-2.865-.828-4.397-1.263-1.254.676-2.48 1.638-3.895 2.039-2.156.622-4.442.847-6.855 1.273-.538-.745-1.01-1.591-1.682-2.277-.46-.464-1.19-.707-1.72-1.003-1.24.755-2.304 1.398-3.57 2.175-1.651 0-3.444-.026-5.236.006-2.05.029-4.094.114-5.99.167-1.444.919-2.71 1.718-3.925 2.495-1.345.155-2.621.303-4.09.47-.692.474-1.545 1.004-2.318 1.61-1.047.812-2.368.844-3.556 1.26-.926.332-1.74.979-2.552 1.548-1.835 1.278-3.823 1.33-5.829.558-1.887-.726-3.763-1.515-5.199-2.98-1.027-1.052-2.156-2.041-3.352-2.937-.806-.606-1.873-.827-2.913-.517-1.216.359-2.392.814-3.685 1.259-2.405-.738-4.874-1.361-7.214-2.26-1.38-.537-2.48-.098-3.676.224-2.446-.676-4.888-1.355-7.182-1.993-.875.222-1.596.4-2.445.616-1.538-1.206-3.08-2.426-4.443-3.495-1.324-.136-2.358-.303-3.186.496-.699.672-1.284 1.537-2.13 1.973-2.228 1.143-4.368 2.516-7.308 2.924-3.562-1.806-7.632-1.566-11.576-1.175-1.45.907-2.727 1.699-3.978 2.482-1.84.129-3.628.249-5.469.379-1.037.7-2 1.512-3.118 2.068-1.093.552-2.344.846-3.629 1.283-.55 1.053-1.123 2.108-1.665 3.172-.094.197-.07.474-.015.742.09.379.79.767.505 1.055-2.236 2.273-7.603 2.55-9.532.044-.548-.71.779-1.51.407-2.027-.447-.61-1.846-.957-2.773-.543-.387.173-.957.555-1.01 1.187-.05.58.537 1.17.985 1.664.144.155.47.174.47.347-.052 2.166-4.297 3.337-6.345 2.44-.056-.028-.097-.141-.047-.19-1.691 1.612-4.42.872-6.547 1.08-1.755-.712-3.39-1.378-4.967-2.023-1.217.72-2.288 1.352-3.476 2.053-.67-.165-1.434-.25-2.101-.544-1.463-.641-2.994-.546-4.534-.625-1.617-.085-2.925 1.045-4.4 1.027-1.478-.023-2.934-.768-4.432-.938-.967-.11-2.084.075-2.983.445-3.029 1.234-5.95 1.193-8.94-.066-1.524-.638-2.975-.263-4.399.485-1.123.59-2.183 1.163-2.878 2.255-.391.622-1.16.87-1.985.695-.494-.107-1.08-.49-1.471-.357-2.726.95-5.558.673-8.367.76-.758.023-1.663-.053-2.261.285-2.353 1.329-4.995.966-7.098 1.257-2.585.748-4.426 2.175-6.621 2.466-.866-.202-1.588-.376-2.202-.521-3.84 2.13-7.558 4.202-11.318 6.292-1.992.524-3.859-1.146-5.92-.426-1.937-.603-3.862-1.241-5.825-1.787-.42-.12-.955.082-1.568.158-.833.808-1.293 1.926-1.902 2.955-.5.827-.85 1.737-1.351 2.554-.619 1-.25 2.38-1.591 3.218-.508-.445-1.345-.837-1.528-1.402-.602-1.853-1.378-3.473-3.213-4.638-.78-.502-1.168-1.533-2.176-1.913-1.188-.442-2.334-1.052-3.563-1.29-1.238-.232-2.312-1.056-3.668-.804-.743.139-1.675.572-2.21.317-2.413-1.141-4.991-1.024-7.545-1.036-1.826-.01-3.568-.234-5.227-1-.645-.295-1.619.166-1.926.769-.429.839-.35 1.897-1.386 2.602-1.552.505-3.222 1.06-4.903 1.588-.224.075-.507.012-.721.012-.471-.275-1.018-.448-1.31-.8-.923-1.121-1.594-2.464-2.665-3.437-1.072-.976-2.553-1.55-3.77-2.412-1.21-.86-2.314-1.86-3.22-2.595-3.355-.664-6.098-2.208-9.327-1.911-.71.068-1.532-.233-2.191-.56-1.739-.86-3.41-.877-5.126.023-1.175.622-2.493.796-3.693.209-2.768-1.345-5.405-1.225-8.053.249-.655.367-1.376.64-2.097.9-.463.168-.972.224-1.462.335-1.265-.048-2.286-1.153-3.882-.641-.425.313-1.113.679-1.608 1.206-1.006 1.06-1.893 2.207-2.834 3.32-.435-.178-.97-.26-1.28-.551-1.288-1.171-1.5-3.037-3.041-4.054-1.672-1.09-3.377-2.128-5.005-3.274-1.05-.742-2.143-1.245-3.443-1.487-.731-.133-1.498-.427-2.072-.863-2.831-2.134-6.16-3.356-9.425-4.707-.828 0-1.603-.032-2.368 0-3.921.152-7.921-.518-11.736.742v34.692H647.39z" mask="url(#fad8pfedyb)" transform="matrix(1 0 0 -1 0 41.422)"/>
            </g>
        </g>
    </g>
</svg>
