<svg xmlns="http://www.w3.org/2000/svg" xmlns:xlink="http://www.w3.org/1999/xlink" width="308" height="34" viewBox="0 0 308 34">
    <defs>
        <path id="wuu63mjc3a" d="M0 0.001L308 0.001 308 33.428 0 33.428z"/>
    </defs>
    <g fill="none" fill-rule="evenodd">
        <g>
            <g transform="translate(-952 -2036) translate(952 2036)">
                <mask id="w3s44pze5b" fill="#fff">
                    <use xlink:href="#wuu63mjc3a"/>
                </mask>
                <path fill="#CFDEE7" d="M0 0v12.992c.256-.056.537-.202.759-.138.207.06.4.914.664.96.477.084.591-.611.96-.664.518-.073.675.33 1.107.37.894.372.791.132 1.55-.22 1.457-.677 4.644-.279 5.169-.736.665-.065.81.561 1.624.296 1.663.019.944-1.752 2.954-1.474l2.584-.367c1.725.218.465-1.805 1.847-1.845 3.503.364 7.558-2.554 10.262-1.987 1.246.261.983 1.882 2.361 1.773 1.589-.476 2.204.344 2.805 1.183.898 1.091 3.979-.385 5.759-.292.844.036 1.744-.455 2.584-.368.373.039.5.429.59.444 1.009.173 1.838.614 2.731.666 1.972.116 3.787-.491 5.759-.292 1.463.148 1.419.546 2.214.74.134.033.378-.061.516-.074.517-.046.4.409.591.443 1.848.341 4.115-.14 4.798.373.386.289.013.289.591.443.296.078.724-.16 1.034-.147.514.022.677.254 1.106.37.687.185 1.091.074 1.624.296.145.06.324.322.591.443.76.346 1.09.114 2.141.223 1.165.121 2.836.877 3.321 1.11.149.071.576.438.59.443.78.268 1.384-.044 2.141.223.211.073.568.437.59.443.29.078.762-.265 1.034-.147.087.037-.005.458.073.517.1.074.416-.146.518-.074.1.072-.02.432.073.517.156.143.828-.233 1.034-.148.085.037-.004.459.073.518.1.074.416-.146.517-.074.1.072-.018.433.074.517.147.137.831-.215 1.033-.147.232.079.152.336.591.443 1.1.269 2.005.307 3.174.076.174.512.514.383 1.107.37 1.91-.042 6.336-.734 6.128-1.399 1.354-.984 3.82-1.133 4.948-2.286.513-.136.682.408 1.107.37.603-.053.873.527 1.181.887.292.341.356.669.663.96.388.367 1.359.392 1.698.813.165.206.061.778.147 1.033.164.488.431.582.664.961.338.015.698-.182 1.034-.147 1.519.158 2.766 2.165 3.984 2.069-.019.002.318-.877.517-.073-.176 1.394.686 1.643 1.328 1.92.242.105.903.377 1.107.37.011 0-.09-.49-.073-.517.453-.75 3.189.465 2.511-.884.585-.836 2.822-1.154 3.617-.515-.037-.737.788-.518 1.477-.737.848-.27 1.635-.208 1.994-.811.819.343 2.059.126 1.844 1.847 1.273-.26 2.183-.038 2.731.665.459 2.259 3.967.456 5.463 1.333.173-.018.343-.058.516-.074.59-.052.297.331.591.444 1.23.471 2.76.327 3.764.519l3.619-.515c.504-.211.381.245.59.443.46.436.294.332 1.107.37.75.036 1.942-.263 1.993-.811.578-.779 2.72-.502 3.249.593.18.468.506.437 1.107.37 1.192-.134 2.802-1.42 3.987-1.622 2.118-.361 2.063 2.171 3.986 2.07 1.703.183 2.402-.8 3.027-.958.517-.132.682.43 1.107.37-.151.021.245-.511.443-.591.244-.099.771-.158 1.034-.147.497.02.373.384.59.443 1.252.338 2.054-.589 2.215.74 1.416.477 2.591.392 3.838 1.036.093.048-.012.452.073.517.202.151.815-.28 1.034-.147.195.117-.033.885.147 1.033.684.567 1.643.486 1.771 1.33.646.164 1.25.384 1.697.813 1.502-.204 1.172-1.023 1.92-1.328.641-.26 1.038-.558 1.477-.737.538-.219.857.182 1.107.37.394.296 1.605-.498 2.068-.294 1.215-.011.362-1.575 1.33-1.771.172.385.159 1.017.664.96.039.287.501.527.516-.074.787-.021 1.882-.455 2.141.223.452.929 1.328 1.118 1.771 1.33 1.023.49 1.108.743 1.771 1.33.295.261.383.701.664.96.141.13.837-.201 1.034-.147.576.158 1.204.217 1.623.297.828.157 1.329.248 2.141.222.782-.025 1.009-.636 1.477-.737.847-.182 1.334.138 2.141.223.45.047.402.392.59.443.465.126 1.081-.329 1.551-.22.695.159.716.459 1.18.887.149.135.832-.217 1.035-.148.072.025.379.348.589.443.394.179.738.22 1.108.37.995.404 1.217.778 2.214.74 1.014-.039 2.012-.971 3.028-.958.558.226.32-.523.442-.591 1.731-.947 4.612 1.096 5.686-.808 1.86-.911 3.19-2.221 5.981-2.432 2.545.064 1.544-2.534 4.432-2.213 1.376.208 2.483.424 3.026-.958.573-.134.912.637 1.034-.147 2.109-.755 3.574.042 4.725-.144-.169.027.282-.515.443-.591.433-.2 1.087-.1 1.55-.22.028-.008-.095-.48-.073-.517.229-.387.69.445.59.443 1.978.03 2.364-.822 3.545-1.031.906-.16 1.683.297 2.141.222 1.817-.296 3.462-1.25 5.094-1.251 2.731-.004 5.08 2.031 8.046.964.681.174 1.092.523 1.698.814.303.144.382.328.591.443.091.051-.008.443.073.516.152.141.829-.225 1.033-.147.083.032.001.462.074.517.295.222 1.119-.261 1.107.37 2.982-.078 5.726.161 8.046.964.839-.6 2.554-.544 2.954-1.474 1.494-.35 1.754.943 3.248.592-.007-1.081 1.234-1.227 1.847-1.844-.058-.89 1.241-.505 1.993-.811.22-.089.529-.616.444-.59.953-.293 2.322-.294 3.101-.441.872-.165 1.562-.876 2.067-.294-.57-1.351 2.49.023 1.92-1.328.953-.208 1.679-.585 1.92-1.328 1.292.317 2.822 1.196 3.395 1.627.39.292-.016.319.591.443.75.154 1.907-.588 2.14.223.075.311.165.6.591.443l5.685-.809c.796-1.218 1.432-.175 2.067-.294 1.087-.203 1.547-.811 2.511-.884.634-.048 2.005.086 2.657.149.043.004.034.48.074.517.104.096.872-.147 1.034-.148 3.45.003 5.576-.212 7.678-1.619.751.626 1.65.065 2.657.15.52.043.665.301 1.108.369.604.094 1.466-.372 1.624.297.711-.771 2.131-1.313 2.954-1.475.508-.099.271-.504.443-.591.295-.147.726-.022 1.034-.147.344-.139.364-.552.443-.59.783-.376 2.123-.521 3.028-.958.929-.447 2.211-.772 2.363-1.917 2.998-.187 3.819-1.295 6.202-.882.366-1.238 1.723-2.512 2.217-2.952.43-.385.481-.818.886-1.181.21-.188.678-.077.443-.59 2.787-.436 2.706-.623 4.579-1.179 1.168-.968 3.988-.697 5.02-1.768.785.183 1.376.627 1.771 1.329.178.654.89.362 1.624.297.31-.028.417.177.49.318V0H0z" mask="url(#w3s44pze5b)"/>
            </g>
        </g>
    </g>
</svg>
