<svg xmlns="http://www.w3.org/2000/svg" xmlns:xlink="http://www.w3.org/1999/xlink" width="1400" height="87" viewBox="0 0 1400 87">
    <defs>
        <path id="1a5np4sssa" d="M0 0L1400 0 1400 85.881 0 85.881z"/>
    </defs>
    <g fill="none" fill-rule="evenodd">
        <g>
            <g transform="translate(0 -4179) matrix(1 0 0 -1 0 4265.897)">
                <mask id="0ien072qsb" fill="#fff">
                    <use xlink:href="#1a5np4sssa"/>
                </mask>
                <path fill="#deebe7" d="M1400-7v20.953c-3.56.326-7.126.453-9.524-.335-1.15-.379.049-1.291-2.169-1.156-3.095.186-3.451-.648-5.978-.782-1.839-.098-3.898.756-5.715.561-.605-.065-.34-1.268-2.17-1.156-2.249.135-5.414 1.025-7.618.748-.68-.085-.283-1.27-2.17-1.156-1.568.096-2.185-1.321-4.075-.969-2.845 1.61-6.342 3.413-10.897 3.809.408-.034-1.105-1.22-2.17-1.156-3.111.188-3.44-.745-5.979-.782-3.12-.046-6.42 1.137-9.523.935-.407-.026-.485-1.258-2.169-1.156-2.707.165-5.33.918-5.979-.782-1.45-1.829-3.62-2.985-6.511-3.468-3.813 2.776-14.2 2.05-18.514 4.558-6.905 1.431-6.608 1.917-16.878 3.028.862 1.336-.863 1.045-1.64 1.53-1.495.939-1.685 2.065-3.277 3.06-1.822 1.142-6.834 4.44-8.195 7.655-8.775-1.091-11.813 1.784-22.856 2.245-.572 2.975-5.3 3.809-8.727 4.965-3.34 1.127-8.275 1.494-11.164 2.467-.292.096-.368 1.168-1.64 1.529-1.131.322-2.718-.006-3.808.374-.636.223.233 1.276-1.64 1.53-3.03.416-8.268 1.813-10.896 3.81-.575-1.739-3.755-.534-5.98-.781-1.63-.18-2.164-.853-4.075-.97-3.711-.227-7.026 1.223-9.788-.408-7.759 3.638-15.593 4.184-28.303 4.151-.593 0-3.425.625-3.81.374-.146-.095-.107-1.331-.264-1.343-2.406-.17-7.454-.528-9.788-.407-3.552.182-5.255 1.757-9.26 2.279-2.34.305-4.673-2.412-7.617.748l-20.952 2.059c-1.57.407-1.9-.346-2.17-1.155-.849-2.11-5.122-.19-7.882-.595-2.234-.327-.74-.395-2.17-1.156-2.11-1.125-7.733-3.418-12.49-4.25-.897 1.925-3.575 2.9-7.087 3.435 2.083 3.513-9.172-.08-7.087 3.434-1.856-1.516-4.405.327-7.618.748-2.873.378-7.914.368-11.428 1.124.311-.068-.83 1.3-1.64 1.53-2.776.79-7.558-.222-7.353 2.092-2.265 1.597-6.836 1.967-6.821 4.778-5.509.899-6.452-2.461-11.96-1.565-1.485 2.414-7.8 2.255-10.898 3.81-8.537-2.107-18.645-2.744-29.629-2.565.05-1.64-2.99-.391-4.076-.97-.269-.143.039-1.26-.264-1.343-.752-.205-3.249.74-3.809.375-.296-.192.072-1.21-.264-1.344-.77-.298-1.059-.778-2.17-1.156-2.233-.76-3.74-1.67-6.246-2.125-10.938 2.748-19.57-2.555-29.63-2.566-6.013-.007-12.083 2.457-18.781 3.214-1.687.19-4.546-1.003-7.883-.595-4.351.534-5.784 2.747-13.07 2.654.367.003-1.322-2.16-2.17-1.156-.078.095.368 1.325.266 1.343-1.708.309-4.118.043-5.713.561-.596.194-2.263 1.6-1.639 1.53-4.243.476-9.63-1.606-17.408.342-.459 2.035-1.698.028-3.81.374-2.014 3.585-6.091 3.015-11.16 2.466-10.63-.856-6.972 5.901-16.346 5.716-10.284.528-15.197 3.92-22.059 6.274-3.978 4.938-14.566-.39-20.952 2.058-.451.174.417 2.123-1.639 1.53-3.74-.04-7.428 2.374-11.162 2.467-3.675.092-4.49-.882-8.148-1.938-1.363-.392-2.63-.503-4.076-.968-.776-.25-1.9-1.092-2.168-1.156-.746-.181-3.266.729-3.81.374-1.708-1.115-1.782-1.892-4.342-2.312-1.73-.285-4.002.89-5.712.56-.696-.134-.513-1.03-2.17-1.157-2.973-.225-4.764-1.06-7.885-.593-1.728.258-2.57 1.845-5.448 1.904-2.992.062-4.838-.18-7.884-.595-1.545-.211-3.859-.367-5.978-.782-.727-.142-3.294.71-3.81.374-1.032-.675-1.35-1.819-2.436-2.5-2.436-1.53-2.748-2.187-6.51-3.467-1.63-.556-4.855-1.052-6.51-3.47-.948-1.764-4.988-.645-7.883-.595-.062 1.56-1.763.935-1.903.187-1.86.145-1.806-1.498-2.435-2.498-3.57.502-.446 4.57-4.92 4.591-1.702-.532-6.171 1.52-7.618.749-.92-.49-2.09-1.533-4.076-.97-1.618.461-3.085 1.233-5.447 1.905-2.759.784-1.554 2.916-7.087 3.436-1.645-1.118-3.865-1.696-6.244-2.125-.465-2.195-3.996-1.992-6.511-3.47-.662-.388.188-2.378-.531-2.686-.803-.345-3.07.77-3.81.375-.314-.17.078-1.218-.265-1.344-4.585-1.682-8.915-1.47-14.126-2.72-.579-3.453-3.544-1.051-8.15-1.937-.8-.156-.34-1.102-2.17-1.158-.97-.03-2.913.12-3.81.375-.73.207-2.195 1.585-1.64 1.531-1.563.153-2.166-1.308-4.075-.969-2.3.407-4.888 2.956-11.16 2.466-7.085.248-6.856-6.33-14.66-5.407-4.366.515-10.314 3.844-14.704 4.183-2.214.171-3.417.25-4.076-.97-1.935-2.846-9.822-3.584-11.96-1.563-.197 1.423-4.59 2.19-7.352 2.092-2.993-.105-2.382.167-4.074-.969-.768-.516-.31-1.7-2.169-1.157l-13.335 1.31c-3.698-.504-9.334-.142-13.861-1.375-1.084-.295 0-1.288-2.171-1.157-.638.039-1.266.143-1.902.187-5.501-2.289-18.445 2.368-20.11-3.502-2.012-1.832-5.363-2.417-10.054-1.75.81-4.471-3.76-3.915-6.775-4.813-1.33 1.567-4.225 1.398-7.352 2.093-2.54.563-5.58-.01-5.45 1.904-2.92-1.667-11.168-.857-13.33 1.31 2.483 3.51-7.58.334-9.26 2.28-.06.068.304 1.342.266 1.343-.755.018-3.183-.697-4.075-.97-2.362-.725-5.537-1.379-4.87-5-.728-2.087-1.978.192-1.907.189-4.488.241-9.06-4.985-14.655-5.407-1.238-.094-2.566.416-3.81.374-.851-.987-1.835-1.232-2.436-2.5-.315-.664.075-2.15-.53-2.687-1.243-1.095-4.82-1.167-6.245-2.124-1.129-.758-1.362-1.61-2.436-2.5-1.13-.936-2.117-2.447-4.34-2.312-1.566.094-2.184-1.32-4.074-.97-4.168 2.988-13.254 3.357-18.25 5.902.757 1.73-15.553 3.494-22.59 3.588-2.182.03-3.438.362-4.075-.968-4.305.59-7.64.486-11.691-.222-1.617-.28-1.317-.95-2.171-1.156-.743-.178-3.265.73-3.81.376-.337-.221.103-1.157-.266-1.345-.37-.188-1.538.381-1.902.187-.285-.15.05-1.249-.266-1.343-.756-.223-3.239.748-3.81.374-.339-.218.103-1.155-.264-1.342-.372-.19-1.54.381-1.906.187-.288-.153.053-1.246-.265-1.343-1-.308-2.745.578-3.81.374-.082-.017-1.396-.963-2.17-1.156-2.785-.698-5.015.108-7.884-.595-.052-.014-1.62-.97-2.17-1.157-1.782-.607-7.93-2.582-12.222-2.907-3.868-.292-5.087.308-7.885-.594-.98-.317-1.638-1-2.17-1.156-1.962-.58-3.45-.297-5.979-.782-1.582-.305-2.178-.908-4.074-.97-1.14-.035-2.72.58-3.81.374-2.125-.403-.752-.4-2.17-1.156-2.51-1.338-10.867-.105-17.672-1.002-.703-.093-.266-1.271-2.17-1.158-.51.033-1.412.274-1.905.189-2.926-.51-2.758-1.543-8.148-1.937-7.26-.533-13.953 1.03-21.217.714-3.288-.144-6.335-1.295-10.053-1.751-.333-.041-.795-1.053-2.168-1.156-3.094-.233-6.414 1.036-9.524.935-6.556-.256-17.919 3.558-21.216.715-2.205-2.183-4.463-4.319-10.32-3.094-5.076.273-4.093-3.938-8.68-4.625-9.955-1.493-24.923 6.057-37.826 5.086-5.088.094-.47 5.359-6.822 4.78l-9.524.935c-7.4-.737-4.77 3.87-10.897 3.809-3 .68-3.53-.946-5.978-.781-1.94 1.183-13.674.123-19.048 1.872-2.801.91-2.424 1.534-5.712.561-1.595-.108-2.166-1.157-4.074-.97-1.36.134-1.788 1.94-3.544 1.718-.974-.124-1.672-2.342-2.436-2.5-1.127-.233-2.672.584-3.81.374-.657-.12-.54-1.032-2.17-1.156-1.236-.093-2.565.417-3.809.374L0 26.993V-7h1400z" mask="url(#0ien072qsb)"/>
            </g>
        </g>
    </g>
</svg>
