<svg id="elements" xmlns="http://www.w3.org/2000/svg" viewBox="0 0 350 35"><defs><style>.cls-1{fill:#d86227;}</style></defs><title>rip-company-caption1</title><path class="cls-1" d="M0,0V13c.26-.05.54-.2.76-.14s.4.92.66,1c.48.09.59-.61,1-.66s.68.33,1.11.37c.89.37.79.13,1.55-.22,1.46-.68,4.64-.28,5.17-.74.66-.06.81.56,1.62.3,1.67,0,.95-1.75,3-1.47L17.37,11c1.73.22.47-1.81,1.85-1.85,3.5.37,7.56-2.55,10.26-2,1.25.26,1,1.88,2.36,1.77,1.59-.48,2.21.34,2.81,1.18.89,1.09,4-.38,5.75-.29.85,0,1.75-.45,2.59-.37.37,0,.5.43.59.45,1,.17,1.84.61,2.73.66,2,.12,3.79-.49,5.76-.29,1.46.15,1.42.55,2.21.74A2.32,2.32,0,0,0,54.8,11c.52-.05.4.41.59.44,1.85.34,4.12-.14,4.8.37.38.29,0,.29.59.45.29.07.72-.16,1-.15.52,0,.68.25,1.11.37a11.52,11.52,0,0,1,1.62.3c.15.05.33.32.59.44.76.34,1.09.11,2.14.22a12.7,12.7,0,0,1,3.33,1.11c.15.07.57.44.59.44.78.27,1.38,0,2.14.23a2.94,2.94,0,0,1,.59.44c.29.08.76-.26,1-.15.09,0,0,.46.07.52s.42-.15.52-.07,0,.43.08.51.82-.23,1-.14,0,.45.07.51.42-.14.52-.07,0,.43.07.52.83-.22,1-.15.15.34.59.44a6.77,6.77,0,0,0,3.17.08c.17.51.52.38,1.11.37,1.91,0,6.33-.74,6.13-1.4,1.35-1,3.82-1.13,4.94-2.29.52-.13.69.41,1.11.37.6,0,.87.53,1.18.89s.36.67.67,1,1.35.39,1.69.81c.17.21.06.78.15,1,.16.48.43.58.66,1,.34,0,.7-.19,1-.15,1.52.16,2.76,2.17,4,2.07,0,0,.32-.88.52-.07-.18,1.39.69,1.64,1.33,1.92a5.48,5.48,0,0,0,1.1.37s-.09-.49-.07-.52c.45-.75,3.19.46,2.51-.89a3.28,3.28,0,0,1,3.62-.51c0-.74.79-.52,1.48-.74s1.63-.2,2-.81c.82.35,2.06.13,1.84,1.85a2.57,2.57,0,0,1,2.74.66c.45,2.26,4,.46,5.46,1.34l.51-.08c.59-.05.3.33.59.45a20.44,20.44,0,0,0,3.77.52l3.62-.52c.5-.21.38.25.59.44.46.44.29.34,1.1.37s1.95-.26,2-.81c.58-.78,2.72-.5,3.25.6.18.46.5.43,1.1.37,1.2-.14,2.81-1.42,4-1.63,2.12-.36,2.06,2.17,4,2.07,1.7.19,2.4-.8,3-.95s.69.43,1.11.37c-.15,0,.25-.51.44-.59a3.31,3.31,0,0,1,1-.15c.5,0,.37.38.59.44,1.25.34,2.05-.59,2.21.74,1.42.48,2.59.39,3.84,1,.09,0,0,.45.07.51s.82-.28,1-.14,0,.88.14,1c.69.57,1.65.49,1.78,1.33a3.61,3.61,0,0,1,1.69.81c1.51-.2,1.18-1,1.92-1.32s1-.56,1.48-.74.86.18,1.11.37,1.6-.5,2.06-.3c1.22,0,.37-1.57,1.34-1.77.17.39.15,1,.66,1,0,.29.5.53.52-.07.78,0,1.88-.46,2.14.22a2.89,2.89,0,0,0,1.77,1.33,5.65,5.65,0,0,1,1.77,1.33c.29.26.38.7.66,1s.84-.2,1-.14c.57.15,1.2.21,1.62.29a8.28,8.28,0,0,0,2.14.22c.78,0,1-.63,1.48-.73a5.53,5.53,0,0,1,2.14.22c.45.05.4.39.59.44.46.13,1.08-.33,1.55-.22.69.16.72.46,1.18.89.15.14.83-.22,1-.15s.38.35.59.45c.4.17.74.22,1.11.37,1,.4,1.22.77,2.22.73s2-1,3-1c.56.22.32-.53.45-.59,1.73-.95,4.61,1.09,5.68-.81,1.86-.91,3.19-2.22,6-2.43,2.55.06,1.55-2.54,4.43-2.22,1.38.21,2.49.43,3-1,.57-.14.91.63,1-.15,2.11-.76,3.58,0,4.73-.15-.17,0,.28-.51.44-.59a9.81,9.81,0,0,1,1.55-.22s-.09-.48-.07-.51c.23-.39.69.44.59.44,2,0,2.36-.82,3.54-1,.91-.16,1.69.29,2.14.22,1.82-.3,3.47-1.25,5.1-1.25,2.73,0,5.08,2,8.05,1a8.81,8.81,0,0,1,1.69.82c.31.14.38.33.59.44s0,.44.08.52.83-.23,1-.15,0,.46.07.52c.3.22,1.12-.26,1.11.37a23.13,23.13,0,0,1,8,1c.84-.6,2.55-.54,2.95-1.47,1.5-.35,1.76.94,3.25.59,0-1.08,1.23-1.23,1.85-1.85-.06-.89,1.24-.5,2-.81.22-.09.53-.61.44-.59a28.8,28.8,0,0,1,3.1-.44c.88-.16,1.57-.87,2.07-.29-.57-1.35,2.49,0,1.92-1.33,1-.21,1.68-.59,1.92-1.33a11.58,11.58,0,0,1,3.4,1.63c.39.29,0,.32.59.44s1.9-.59,2.14.22c.07.32.16.61.59.45l5.68-.81c.8-1.22,1.43-.18,2.07-.29,1.09-.21,1.55-.82,2.51-.89a21.79,21.79,0,0,1,2.66.15s0,.48.07.52.87-.15,1-.15c3.45,0,5.57-.21,7.67-1.62.76.63,1.65.07,2.66.15.52,0,.67.3,1.11.37.6.09,1.47-.37,1.62.3a6.2,6.2,0,0,1,3-1.48c.5-.1.27-.5.44-.59s.73,0,1-.15.37-.55.45-.59c.78-.37,2.12-.52,3-.95s2.22-.78,2.37-1.92c3-.19,3.82-1.3,6.2-.88a7.82,7.82,0,0,1,2.22-3c.43-.38.48-.81.88-1.18.21-.18.68-.07.45-.59a20.7,20.7,0,0,0,4.57-1.18c1.17-1,4-.69,5-1.76a2.63,2.63,0,0,1,1.77,1.33c.17.65.89.36,1.62.29a.46.46,0,0,1,.49.32V0Z"/></svg>