<?xml version="1.0" encoding="UTF-8"?>
<svg preserveAspectRatio="none" width="1400px" height="67px" viewBox="0 0 1400 67" version="1.1" xmlns="http://www.w3.org/2000/svg" xmlns:xlink="http://www.w3.org/1999/xlink">
    <!-- Generator: sketchtool 63.1 (101010) - https://sketch.com -->
    <title>C66D2AD6-5937-433A-9E2F-AB7C34C2420E</title>
    <desc>Created with sketchtool.</desc>
    <defs>
        <polygon id="path-1" points="0 0.00016768876 1399.9995 0.00016768876 1399.9995 66.0339 0 66.0339"></polygon>
    </defs>
    <g id="Page-1" stroke="none" stroke-width="1" fill="none" fill-rule="evenodd">
        <g id="juno-corporate-partners-page" transform="translate(0.000000, -449.000000)">
            <g id="Group-3" transform="translate(700.000000, 482.500000) rotate(-180.000000) translate(-700.000000, -482.500000) translate(0.000000, 449.000000)">
                <mask id="mask-2" fill="white">
                    <use xlink:href="#path-1"></use>
                </mask>
                <g id="Clip-2"></g>
                <path d="M1394.1025,15.72 C1392.8155,15.871 1391.3065,15.853 1389.6225,15.83 C1387.9395,15.409 1386.0965,15.657 1384.1455,15.694 C1382.2345,16.141 1380.2235,15.707 1378.1145,16.051 C1377.3025,15.973 1376.4875,15.588 1375.6705,15.239 C1374.8565,14.904 1374.0695,14.143 1373.1845,14.72 C1372.2345,16.382 1371.5845,13.607 1370.6495,14.26 C1369.7695,14.203 1368.6275,16.423 1367.8125,15.128 C1366.8625,15.137 1365.7925,16.088 1364.7715,16.568 C1363.9265,15.061 1362.7325,17.744 1361.7245,18.289 C1360.7695,21.264 1359.7345,19.481 1358.7635,20.602 C1357.8515,22.884 1356.7715,20.74 1355.9165,22.641 C1354.8325,22.077 1353.8285,21.972 1352.8525,21.895 C1351.8855,21.819 1350.9655,22.308 1349.9845,21.298 C1349.0215,20.63 1348.1375,22.381 1347.1255,20.838 C1346.0475,18.432 1345.1375,20.113 1344.0845,19.724 C1343.1835,19.737 1342.2465,24.006 1341.3205,21.845 C1340.3515,21.344 1339.3395,23.409 1338.3575,22.189 C1337.3195,24.482 1336.3515,21.418 1335.3635,22.711 C1334.3815,23.709 1333.3755,22.531 1332.4285,23.503 C1331.4015,22.759 1330.4015,22.837 1329.4175,23.139 C1328.4345,23.456 1327.4775,24.158 1326.4785,24.127 C1325.5275,24.753 1324.5165,24.659 1323.5235,24.757 C1322.6085,25.564 1321.5255,24.947 1320.5615,25.343 C1319.5895,25.672 1318.5485,25.649 1317.5215,25.726 C1316.5345,26.002 1315.4835,26.02 1314.4745,26.195 C1313.3385,25.891 1312.2675,25.824 1311.4175,26.392 C1310.4565,26.57 1309.6565,27.341 1308.5315,26.657 C1307.1785,26.501 1305.8905,26.386 1304.6685,26.279 C1303.4675,26.104 1302.3235,25.927 1301.2115,25.706 C1299.8405,24.682 1298.9865,25.128 1297.7685,24.456 C1296.8315,24.593 1295.5535,23.778 1294.2625,23.008 C1293.4625,23.286 1291.9485,22.027 1290.9885,21.842 C1290.2005,22.018 1289.2215,21.765 1288.1055,21.134 C1287.3905,21.494 1286.5145,21.572 1285.5625,21.483 C1284.5345,21.356 1283.7585,21.822 1282.8095,22.078 C1281.8295,22.253 1280.8135,22.553 1279.7535,22.871 C1278.6755,23.158 1277.6365,23.35 1276.4775,23.658 C1275.2295,23.986 1273.9625,24.277 1272.8005,24.398 C1271.6295,24.463 1270.7575,24.191 1268.9525,24.693 C1267.4245,24.972 1266.1895,24.739 1264.7235,24.724 C1262.9755,25.07 1261.4085,25.137 1260.2355,24.53 C1258.1175,24.639 1256.3335,24.083 1254.3225,23.743 C1253.1705,24.02 1252.1215,24.036 1251.0645,24.002 C1250.0025,23.979 1248.9105,23.894 1247.8085,24.014 C1246.6325,23.779 1245.3665,23.34 1244.3475,24.262 C1243.5945,25.088 1242.2365,24.92 1241.2325,25.241 C1240.5355,25.819 1239.6565,26.175 1238.7255,26.481 C1238.3555,27.153 1238.0035,27.909 1236.0325,27.492 C1235.1495,27.866 1235.5185,29.864 1233.9275,29.283 C1233.1315,30.209 1231.2885,29.262 1230.7695,30.751 C1229.4755,30.547 1228.3915,32.921 1227.1625,32.428 C1225.8815,33.404 1224.7415,33.06 1223.5575,33.635 C1221.5745,33.145 1219.3415,34.062 1218.3735,32.642 C1217.2325,32.909 1216.4165,32.779 1215.6195,32.616 C1214.8055,32.443 1214.0075,32.241 1212.8575,32.213 C1211.7605,32.069 1210.3635,32.01 1209.8205,31.509 C1208.1395,31.455 1207.1755,31.081 1206.8075,30.538 C1205.6185,30.004 1203.5725,29.689 1203.6005,29.032 C1201.4755,28.773 1200.9585,28.284 1199.6705,27.939 C1198.5925,27.54 1196.2545,27.582 1195.5995,26.829 C1194.4165,26.909 1193.5885,26.746 1192.8705,26.325 C1192.1065,25.849 1191.2365,24.942 1190.1535,23.534 C1188.7365,22.449 1187.5105,23.026 1186.2695,23.059 C1184.9705,24.358 1183.7245,23.418 1182.6445,22.172 C1181.2375,22.48 1180.7215,20.605 1179.1785,20.682 C1178.0465,20.172 1177.2655,19.474 1175.5655,19.221 C1175.5625,18.388 1174.1575,17.96 1173.0365,17.459 C1171.3005,16.966 1172.7895,16.409 1171.2165,15.976 C1170.7525,15.529 1170.0695,15.087 1169.0785,14.657 C1167.0705,14.324 1167.9375,13.538 1165.8615,13.362 C1164.0765,13.153 1163.5135,12.59 1162.4065,12.186 C1161.5185,11.61 1160.3715,11.227 1159.0615,11.078 C1158.0405,10.562 1156.6675,10.758 1155.3945,10.76 C1154.0245,11.087 1152.7055,11.29 1151.4825,11.233 C1150.5775,10.21 1149.5105,8.716 1148.1665,8.928 C1146.8385,8.924 1145.4895,7.809 1144.0225,7.041 C1142.7445,6.352 1141.6015,6.108 1140.2245,5.204 C1138.8475,4.953 1137.2365,5.453 1135.0215,7.879 C1133.6385,8.317 1132.4385,8.618 1131.1825,8.57 C1129.9265,9.222 1128.6135,8.787 1127.0025,10.19 C1126.2465,9.776 1125.2455,10.727 1124.0755,10.47 C1123.4915,10.356 1122.8645,10.786 1122.2055,11.295 C1121.5455,11.966 1120.8535,12.431 1120.1385,12.585 C1119.4245,14.117 1118.6855,13.141 1117.9355,13.765 C1117.1835,13.637 1116.4195,13.537 1115.6515,15.119 C1114.7905,14.835 1113.9075,14.248 1113.0125,15.084 C1112.1165,16.303 1111.2085,16.158 1110.2965,17.361 C1109.3855,18.466 1108.4705,17.823 1107.5605,18.312 C1106.6495,17.807 1105.7445,18.431 1104.8535,19.019 C1103.9625,18.663 1103.0865,18.179 1102.2345,19.387 C1101.3805,20.283 1100.5515,19.216 1099.7545,19.316 C1098.7535,20.34 1097.7665,19.092 1096.7885,20.559 C1095.8105,20.023 1094.8435,21.858 1093.8795,21.482 C1092.9155,21.796 1091.9555,22.236 1090.9955,22.029 C1090.0345,22.412 1089.0735,22.119 1088.1065,22.604 C1087.1395,23.158 1086.1665,23.935 1085.1825,22.867 C1084.1985,23.37 1083.2035,22.165 1082.1915,22.981 C1080.6335,23.24 1079.1025,22.793 1077.6525,23.473 C1076.2035,23.751 1074.8345,24.843 1073.6045,24.653 C1072.9895,24.655 1072.4085,26.153 1071.8695,26.091 C1071.3295,26.992 1070.8315,27.298 1070.3825,27.153 C1069.4315,27.753 1068.5395,27.826 1067.6635,28.368 C1066.7885,30.258 1065.9305,28.303 1065.0455,29.754 C1064.1365,31.028 1063.2485,28.802 1062.2105,30.236 C1061.2655,28.678 1060.2105,28.313 1058.9805,28.911 C1056.3165,29.093 1053.7015,28.635 1051.2145,27.663 C1049.9895,27.224 1048.6075,27.505 1047.3475,27.304 C1045.8875,27.867 1044.6695,27.631 1043.6515,26.698 C1042.4115,26.616 1041.2495,26.225 1040.0105,26.169 C1038.7585,26.211 1037.6795,24.806 1036.3435,25.646 C1034.9645,26.489 1033.7655,25.576 1032.5005,24.78 C1031.2065,24.32 1030.3255,20.804 1028.6845,23.043 C1028.0465,21.603 1026.7355,24.176 1026.1035,22.518 C1025.4265,21.592 1024.4045,22.141 1023.6455,21.645 C1022.6425,22.069 1021.8405,21.769 1020.7505,22.484 C1019.7685,22.853 1019.5005,20.88 1018.3345,21.748 C1016.9005,24.071 1016.4225,22.317 1015.4465,22.759 C1014.4635,23.344 1013.4045,24.724 1012.8585,23.029 C1012.2635,22.118 1010.9155,24.595 1010.2555,23.177 C1009.5095,22.454 1008.2525,24.387 1007.3265,24.291 C1006.2655,25.582 1005.3165,25.454 1004.3325,25.755 C1003.3315,26.566 1002.3525,27.396 1001.3995,27.021 C1000.4125,27.185 999.4975,29.081 998.5455,28.198 C997.6085,28.091 996.6745,27.742 995.7895,28.227 C994.7495,26.18 993.9835,28.099 993.0655,27.679 C992.1635,27.509 991.2675,27.386 990.3445,26.955 C989.3615,25.762 988.4305,25.074 987.5295,24.69 C986.5635,23.583 985.8115,24.82 984.9355,24.631 C984.1305,25.613 983.2025,24.356 982.3605,24.434 C981.4895,23.731 980.6465,23.345 979.8685,24.201 C979.0325,25.508 978.2025,25.507 977.3715,25.63 C976.5495,25.63 975.2435,28.409 974.7065,26.84 C973.5965,27.842 972.8165,27.463 971.6905,28.115 C969.9885,29.994 969.6145,28.524 968.2065,29.414 C965.8235,31.889 964.1505,32.319 962.8925,33.138 C962.4055,33.624 962.3305,34.468 961.1385,34.262 C959.8245,33.984 958.9775,34.173 959.0915,35.26 C958.2305,35.552 956.9605,35.517 955.6735,35.515 C954.3565,35.533 953.3655,35.96 952.0475,36.087 C950.0965,35.333 949.5375,36.617 948.1755,36.72 C946.6835,36.447 945.3525,36.374 943.9015,35.674 C942.8025,35.849 941.7255,35.98 940.6585,35.967 C939.6065,35.837 938.6485,36.31 937.6665,36.359 C936.8085,38.151 935.7495,36.568 934.8165,36.828 C933.8685,36.716 932.9505,37.15 932.0375,37.702 C931.1235,37.325 930.2345,37.693 929.3385,37.949 C928.4395,37.84 927.5485,37.606 926.6615,37.399 C925.7815,37.197 924.9245,36.914 924.1025,36.538 C923.3095,36.203 922.5605,35.836 921.8435,35.451 C920.3225,35.333 918.6425,35.373 917.0805,34.816 C916.2205,34.645 915.3315,34.45 914.4085,34.236 C913.4645,34.008 912.4815,33.759 911.4575,33.497 C910.7705,33.167 909.9705,33.2 909.2255,32.904 C908.4155,32.842 907.5815,32.798 906.8345,32.253 C906.0185,31.983 905.1705,31.786 904.2525,32.029 C903.4235,31.628 902.6115,30.377 901.6995,30.902 C900.8295,30.581 899.9525,30.021 899.0765,30.393 C898.2205,30.464 897.3585,30.042 896.5065,29.431 C895.6925,28.529 894.8245,28.59 894.0105,28.371 C893.1455,28.597 892.5685,27.173 891.7275,27.27 C890.5515,25.58 888.6445,26.491 887.3215,25.467 C885.7165,25.346 884.2445,24.818 882.7005,24.787 C880.5235,25.662 878.2595,25.243 875.9465,24.708 C874.7945,24.436 873.6345,24.197 872.5025,24.015 C871.3825,23.864 870.2865,23.878 869.2385,23.674 C868.2375,22.65 867.1985,21.796 866.1365,22.69 C865.0745,22.882 863.9885,22.241 862.8965,22.815 C861.8045,22.902 860.7045,23.161 859.6135,22.904 C858.5225,23.604 857.4415,22.097 856.3855,22.436 C854.4755,22.196 852.6965,21.782 850.8065,20.759 C848.9165,19.228 846.9165,19.925 844.5645,20.262 C842.3785,20.663 840.2315,20.353 838.1195,20.32 C837.0635,20.303 836.0165,20.273 834.9775,20.23 C833.9375,20.666 832.9075,19.459 831.8845,20.057 C830.0215,17.941 827.9695,18.025 825.9075,19.152 C823.8455,18.131 821.7745,18.363 819.8725,18.058 C818.4945,18.632 817.1285,18.569 815.7705,18.371 C814.4135,17.784 813.0655,17.225 811.7205,17.873 C810.3765,17.707 809.0375,17.743 807.6985,17.785 C806.3595,16.803 805.0215,18.242 803.6805,17.036 C802.3395,17.722 800.9945,18.094 799.6425,17.146 C798.2905,17.625 796.9305,17.054 795.5595,18.36 C793.2915,17.045 791.0355,17.511 788.7765,18.107 C787.6475,17.954 786.5175,17.674 785.3855,17.449 C784.2535,17.649 783.1195,17.241 781.9825,17.122 C780.8405,16.771 779.6905,17.241 778.5345,16.877 C777.3785,17.346 776.2185,16.484 775.0585,16.93 C773.8985,16.806 772.7385,17.239 771.5835,16.891 C770.4295,16.861 769.2795,16.887 768.1385,16.371 C767.4045,16.51 766.6625,16.657 765.9125,15.088 C765.1625,14.261 764.4045,15.763 763.6425,14.411 C762.1165,14.865 760.5685,14.162 759.0135,14.331 C757.4585,14.233 755.8965,15.898 754.3435,15.084 C753.1795,14.944 752.0325,15.79 750.8965,15.393 C749.7605,14.859 748.6335,14.105 747.5085,14.52 C746.3835,14.203 745.2605,13.162 744.1325,13.554 C743.0035,13.388 741.8685,13.616 740.7195,13.588 C739.9735,13.356 739.2295,12.989 738.4875,12.81 C737.7455,10.622 737.0045,12.641 736.2655,11.603 C735.5265,13.394 734.7885,10.016 734.0505,10.821 C733.3125,10.854 732.5755,10.288 731.8375,10.216 C730.3625,10.214 728.8865,10.71 727.4055,12.306 C723.0645,11.212 718.7815,10.923 714.3325,9.415 C711.9575,7.94 709.7665,6.695 707.6815,7.925 C705.5945,7.889 703.6145,11.017 701.6585,10.212 C699.7025,10.323 697.7725,12.358 695.7895,13.134 C693.9815,16.211 691.9105,16.42 689.7055,16.486 C688.6025,16.519 687.4655,16.379 686.3115,16.153 C685.1575,15.926 683.9875,14.93 682.8155,15.295 C681.6445,15.163 680.4695,12.375 679.3135,14.365 C678.1555,13.006 677.0125,15.505 675.9005,14.866 C674.6785,14.204 673.4535,14.449 672.2275,13.987 C671.0025,15.218 669.7745,12.925 668.5495,13.084 C667.3225,12.547 666.0995,10.771 664.8755,11.136 C663.6535,11.239 662.4345,12.474 661.2185,12.014 C660.0035,12.42 658.7915,12.276 657.5875,12.001 C656.3925,11.602 655.2005,11.731 653.9925,13.271 C652.8225,12.81 651.6355,13.313 650.4875,12.727 C649.3535,12.211 648.1395,12.998 647.0205,12.428 C645.8625,12.399 644.7115,12.317 643.5595,12.228 C642.4515,11.814 641.2845,11.793 640.0825,11.956 C639.0315,11.145 637.8315,11.188 636.5625,11.653 C635.3415,11.822 634.1595,11.679 633.0555,10.832 C630.6835,10.068 628.1695,10.876 625.8155,9.718 C624.6355,8.999 623.4445,8.6 622.2575,8.412 C621.0835,7.738 619.9195,8.96 618.7605,8.412 C617.9875,9.658 617.2185,8.811 616.4495,7.85 C615.6835,7.559 614.9175,7.129 614.1535,7.586 C612.6255,5.598 611.1055,7.141 609.5905,7.742 C608.8335,7.592 608.0785,7.845 607.3235,8.765 C606.5705,8.219 605.8175,9.19 605.0635,10.926 C602.8065,10.042 600.5465,11.443 598.2845,10.553 C596.0195,11.253 593.7535,10.291 591.4795,11.574 C590.3365,11.747 589.1955,11.877 588.0535,11.988 C586.9105,12.133 585.7715,12.827 584.6095,12.287 C583.4775,12.983 582.2185,12.074 581.0945,12.611 C579.6635,11.741 578.5355,12.156 577.5655,13.085 C575.9215,12.748 574.3815,12.958 572.5075,12.394 C571.1525,12.991 569.5805,13.129 568.2525,13.831 C567.3355,13.5 566.5965,13.63 565.9065,13.879 C565.3005,14.585 564.5785,15.055 563.7805,14.684 C562.6495,15.427 561.4965,15.768 560.3215,15.375 C559.0925,14.478 558.0385,15.647 556.9345,16.335 C555.7115,14.756 554.6895,17.148 553.5605,16.208 C552.4425,16.126 551.3365,16.323 550.2265,17.31 C547.3705,17.226 544.6005,17.174 541.8725,18.1 C539.1445,18.641 536.4595,17.224 533.7715,18.648 C532.4285,19.134 531.0845,19.152 529.7335,19.152 C528.3825,19.152 527.0265,19.133 525.6575,19.546 C524.6965,19.493 523.6885,19.201 522.6475,19.548 C521.6035,19.859 520.5265,20.429 519.4245,19.796 C518.3245,20.251 517.1985,19.791 516.0625,20.188 C514.9285,20.17 513.7805,19.576 512.6365,20.624 C510.3425,21.595 508.0615,21.676 505.8775,21.279 C503.6925,21.549 501.6035,21.756 499.6935,20.083 C498.6535,19.864 497.6015,19.91 496.5355,19.88 C495.4675,19.699 494.3845,19.346 493.2815,19.212 C492.1785,17.947 491.0525,19.282 489.9035,19.272 C488.7515,19.562 487.5745,19.383 486.3675,19.83 C484.8665,21.093 483.2735,20.742 481.6025,20.78 C479.9325,20.246 478.1825,20.637 476.3695,23.084 C474.5555,23.352 472.6765,25.361 470.7475,26.226 C469.2315,25.721 467.6465,25.271 465.9985,25.282 C465.1735,24.927 464.3325,24.777 463.4755,24.824 C462.6195,24.871 461.7475,25.086 460.8585,25.548 C459.9695,26.034 459.0665,26.344 458.1445,26.532 C457.2255,26.723 456.2905,27.465 455.3395,27.132 C454.5575,27.769 453.7505,27.489 452.9305,27.366 C452.1085,28.036 451.2735,27.422 450.4295,27.863 C449.5865,27.572 448.7375,29.687 447.8895,28.826 C447.0405,29.514 446.1945,29.715 445.3575,29.934 C444.5205,30.359 443.6935,31.531 442.8845,30.993 C442.0745,29.949 441.2845,31.415 440.5185,31.814 C439.7675,33.152 439.0215,32.762 438.2805,33.44 C437.5415,34.122 436.8075,34.146 436.0815,34.511 C434.6295,35.754 433.2095,34.529 431.8355,36.081 C431.1495,36.093 430.4755,36.49 429.8135,37.015 C429.1525,37.762 428.5045,38.155 427.8695,38.718 C426.9945,38.342 426.1825,39.304 425.4145,38.029 C424.6445,39.625 423.9185,38.324 423.2105,38.401 C422.5035,39.035 421.8155,39.496 421.1255,39.549 C420.4335,37.482 419.7385,40.444 419.0195,40.24 C418.2995,40.034 417.5525,40.11 416.7585,40.751 C415.9645,42.332 415.1205,40.289 414.2065,40.358 C413.3105,40.295 412.3505,39.313 411.3515,39.428 C410.3525,38.433 409.3115,39.253 408.2505,37.946 C407.1895,35.845 406.1105,37.457 405.0295,35.784 C403.9355,34.965 402.8285,33.799 401.7675,33.996 C400.7625,30.995 399.7535,31.116 398.7755,31.438 C397.8765,30.859 397.0395,30.346 396.1625,30.702 C395.1695,30.706 394.6635,28.497 393.9105,27.845 C393.0765,27.583 392.1065,27.964 391.4435,27.13 C390.5615,27.162 389.3665,28.459 388.9705,26.603 C388.0765,26.713 387.1385,27.031 386.3185,26.823 C385.1725,27.983 384.7815,25.721 383.4555,27.86 C382.3315,29.015 381.9115,26.552 380.4065,29.774 C378.8355,26.405 376.7045,26.86 374.4715,29.177 C372.3715,31.304 370.4105,33.129 368.6035,31.583 C366.7525,31.221 364.9355,33.071 363.1535,32.507 C361.8735,32.579 360.6065,32.49 359.3385,32.394 C358.0655,32.267 356.7935,32.41 355.5185,32.103 C354.2345,32.271 352.8955,31.47 351.5325,30.886 C350.1585,30.52 348.7205,28.955 347.3325,28.987 C345.9645,29.095 344.5845,28.563 343.2215,28.023 C341.8765,27.638 340.5695,27.048 339.2675,27.22 C338.0425,26.586 336.7825,26.999 335.5875,26.816 C334.3935,27.308 333.2315,27.392 332.0915,26.979 C330.9605,27.316 329.8555,27.559 328.7595,27.199 C327.7065,26.749 326.5775,27.348 325.4825,27.589 C324.3915,28.067 323.2775,28.057 322.1495,27.991 C321.0075,27.814 319.8525,28.511 318.6735,28.438 C317.0155,28.328 315.3055,28.034 313.5755,27.734 C311.8515,27.382 310.1235,26.703 308.4595,26.98 C306.7965,27.868 305.1385,26.679 303.5775,28.199 C301.6425,26.59 299.8475,25.107 298.1095,25.914 C296.3615,25.219 294.6185,25.024 292.8095,25.733 C290.9935,26.214 289.1225,25.611 287.1545,24.574 C285.7925,25.011 284.4175,24.912 283.0445,24.69 C281.6695,24.473 280.3035,24.188 278.9545,24.146 C277.6205,23.736 276.3015,24.333 274.9935,24.022 C273.7125,24.025 272.5275,23.378 271.2105,24.148 C269.6065,24.224 268.0685,24.366 266.5705,24.605 C265.8475,24.71 265.0645,25.144 264.4855,24.789 C263.9495,24.515 263.2875,24.578 262.3355,25.458 C260.7355,26.809 259.3415,26.828 258.0285,26.286 C256.3765,28.956 255.1885,29.227 254.3435,27.263 C253.0515,27.8 252.4435,24.656 251.2195,24.229 C249.6555,24.808 248.4225,24.225 247.3665,22.949 C245.8835,23.238 245.5125,20.54 243.7845,20.839 C242.9005,20.157 241.7585,19.818 240.4655,19.749 C239.4685,19.072 238.5535,17.974 236.8815,19.368 C235.8685,18.878 234.9115,18.262 233.6995,19.043 C232.6175,19.449 231.8455,18.415 231.0265,18.098 C230.2565,17.697 229.3265,17.47 228.3125,17.335 C227.2465,17.72 226.1725,17.265 225.0445,17.171 C223.8985,17.838 222.7895,15.385 221.6645,17.084 C220.5615,16.643 219.4925,16.707 218.5155,16.424 C217.2185,15.746 215.8245,15.729 214.3725,15.642 C212.9215,14.074 211.4145,15.255 209.8975,16.742 C208.3785,17.703 206.8505,18.007 205.3525,19.015 C204.1145,18.719 202.8755,18.785 201.6385,18.851 C200.4015,18.918 199.1645,19.08 197.9295,18.684 C196.6935,20.089 195.4595,18.649 194.2285,19.4 C192.9965,19.946 191.7665,19.779 190.5375,19.876 C188.0805,19.866 185.6295,21.142 183.1805,21.386 C181.9465,21.317 180.7205,21.694 179.4975,21.902 C178.2695,21.944 177.0655,22.815 175.8135,21.447 C174.5415,19.013 173.3485,20.033 172.1245,19.375 C170.9185,19.334 169.7255,19.614 168.4865,17.205 C167.2715,18.913 166.0015,16.977 164.8065,18.557 C163.5325,15.52 162.4825,22.789 161.2245,20.823 C158.8425,21.448 156.5005,22.407 154.1775,23.937 C151.8135,24.82 149.4335,24.382 147.0395,25.231 C144.6475,25.49 142.2425,25.559 139.8075,25.314 C138.5895,25.192 137.3645,25.372 136.1295,24.698 C134.8935,23.595 133.6485,24.366 132.3915,23.517 C129.8755,22.633 127.3975,23.02 124.9745,22.752 C123.7635,22.375 122.5645,22.149 121.3815,22.046 C120.1975,21.943 119.0305,21.963 117.8815,22.076 C116.7335,20.983 115.6025,20.949 114.4925,21.423 C113.3825,22.215 112.2925,21.258 111.2255,21.861 C110.0325,22.261 108.8855,21.473 107.7725,20.939 C106.6605,20.8 105.5805,19.382 104.5225,20.492 C103.4645,19.619 102.4435,21.02 101.4235,20.448 C100.4095,20.595 99.4015,20.686 98.3895,20.886 C97.3775,21.086 96.3625,21.324 95.3355,21.528 C94.2785,23.343 93.3085,20.74 92.2125,21.987 C91.2735,19.704 90.1675,20.973 89.2805,20.101 C88.3265,20.176 87.5375,19.322 86.4475,20.584 C85.4895,20.92 84.1535,23.665 83.6445,21.178 C82.7985,20.84 82.0315,20.172 81.0785,20.244 C79.7475,21.497 78.5805,21.979 78.1435,20.006 C77.3975,19.212 76.5405,18.756 75.3925,18.969 C74.8515,17.88 74.0415,17.356 72.8645,17.779 C72.1655,17.069 71.0665,17.311 70.0215,17.394 C69.1115,17.231 68.1285,17.219 67.3535,16.87 C66.8615,15.708 65.9205,15.699 64.7555,16.313 C63.8215,16.301 63.0785,15.857 62.2535,15.677 C61.4405,15.46 60.6555,15.233 59.9045,14.988 C55.5615,13.667 50.8915,14.698 47.2515,13.531 C45.6725,14.682 44.2685,14.625 42.9625,13.936 C42.3025,13.441 41.6675,12.863 41.0395,12.175 C40.4745,12.498 39.7415,10.295 39.1305,9.736 C38.4345,8.106 37.8485,7.786 37.2655,7.731 C36.6235,6.647 36.0315,6.658 35.3855,6.119 C33.9005,4.893 32.4945,4.169 31.1425,4.878 C30.4655,5.05 29.8115,6.393 29.1435,5.741 C28.4935,6.484 27.8485,6.782 27.2065,5.401 C25.9355,5.702 24.7075,5.254 23.5235,5.312 C22.3395,4.472 21.1985,4.492 20.1005,5.02 C19.0025,5.949 17.9485,5.577 16.9365,5.358 C15.9265,5.076 14.9595,5.721 14.0375,5.204 C13.1145,5.945 12.2365,5.188 11.4025,3.631 C10.5685,2.822 9.7785,3.1 9.0345,2.878 C7.5455,2.067 6.2375,1.195 5.1105,0.938 C3.9845,-0.593 3.0405,-0.048 2.2835,1.135 C0.7695,1.56 -0.0005,1.935 -0.0005,0.703 L-0.0005,8.22 L-0.0005,16.849 L-0.0005,28.04 L-0.0005,66.034 L1399.9995,66.034 L1399.9995,37.17 L1399.9995,27.881 L1399.9995,18.576 L1399.9995,11.523 C1399.9995,14.86 1397.8565,15.517 1394.1025,15.72" id="Fill-1" fill="#EFD397" mask="url(#mask-2)"></path>
                <rect id="Rectangle" fill="#F5DFD0" mask="url(#mask-2)" x="0" y="66" width="1400" height="270"></rect>
                <text id="We-craft-custom-lear" mask="url(#mask-2)" font-family="LyonDisplay-Regular, Lyon Display" font-size="58" font-weight="normal" fill="#211C38">
                    <tspan x="514.042" y="111">We craft custom learning journeys</tspan>
                    <tspan x="637.93" y="169">that accelerated careers</tspan>
                </text>
            </g>
        </g>
    </g>
</svg>
