<svg xmlns="http://www.w3.org/2000/svg" xmlns:xlink="http://www.w3.org/1999/xlink" preserveAspectRatio="none" width="812" height="48" viewBox="0 0 812 48">
    <defs>
        <path id="prefix__a" d="M0 0L1160 0 1160 47.709 0 47.709z"/>
    </defs>
    <g fill="none" fill-rule="evenodd" transform="translate(-348)">
        <mask id="prefix__b" fill="#fff">
            <use xlink:href="#prefix__a"/>
        </mask>
        <path fill="#deebe7" d="M0 0v4.733c2.01-.091 4.075-.221 6.217-.417 1.8 3.527 14.15.464 12.41 6.201 3.277.166 6.651-.219 9.923 0 2.371.157 1.765 1.459 2.482 1.549 2.376.297 2.302-1.562 2.482-1.549 6.467.426 10.922 2.943 19.856 1.549 2.525-.395 1.207-1.183 2.482-1.549.896-.259 4.378.447 4.964 0 .136-.105-.15-1.538 0-1.551 2.913-.256 7.756 1.317 12.405 1.551 4.111.205 8.294-.157 12.41 0 4.435-.436 5.09 1.464 2.482 1.549.611 1.684 4.935 1.051 4.964 3.1 8.056.897 11.541-1.057 17.37-1.55 1.44 1.438 7.454 3.907 12.41 4.65 5.4.808 13.296-1.756 19.85 0 1.13.299 1.968 2.307 2.482 3.098h2.482c-.8-.943 5.672-4.454 7.445-3.098.156.115 3.563 2.617 4.965 1.548.125-.095-.126-1.542 0-1.548 1.482-.082 4.508 1.432 7.445 1.548 2.846.114 4.446.05 4.965 1.55 9.351-1.191 11.862 1.89 19.851 1.55 4.16-3.853 12.356-.404 17.374 0 6.955.559 13.718.347 19.851 1.55.852.166 4.45-.395 4.963 0 .38.286-.42 1.297 0 1.548.426.258 2.065-.26 2.482 0 .33.206-.383 1.405 0 1.55 1.203.46 3.655-.35 4.964 0 .461.125 1.028 1.187 2.483 1.55 2.137.536 5.235-.427 7.445 0h2.482v-1.55c8.17-.063 12.351-2.615 22.333-1.55h2.483c3.538-4.715 21.517-4.13 22.331 1.55 5.12.938 17.244-2.5 14.893 3.1 8.531-.678 13.907.613 19.85 1.55 2.26 4.789 13.168 4.177 12.41 10.848h4.965c2.113-.285 2.341.604 2.482 1.55 5.211-.937 6.54 1.433 9.928 1.55 8.27.282 17.218-4.127 19.85 1.549 4.94-2.082 11.815-2.954 17.375-4.649 9.675.107 17.465-.148 24.815 0 4.416.089 5.274 1.757 9.928 1.55 2.273-.102 3.757-1.749 7.445-1.55-.794-.043 1.658 1.421 2.482 1.55 1.556.244 3.384-.187 4.96 0 1.953 1.484 12.361-1.932 14.891 0 .117.086-.097 1.548 0 1.55 5.198.083 9.152-3.417 14.892 0 6.394-1.691 11.926-3.916 14.888-7.748 6.166.231 10.3-.803 12.41-3.1 9.364 1.897 16.501 5.193 29.778 4.649.277 2.928 8.207 1.075 7.445 4.649 6.186-1.304 13.298-2.028 22.334-1.55-2.138 5.468 3.994 1.422 9.928 1.55 3.456.074 4.94 1.851 7.446 1.55 7.21-.869 13.738-2.354 12.41-6.199 2.884-.253 4.415.342 4.964 1.55 4.484-1.353 3.005-2.02 9.922-3.099 1.406-.222 2.62-1.561 2.482-1.55 4.868-.377 9.464 3.708 9.928-3.1 2.415.042 1.925 1.897 2.482 3.1 2.884-.253 4.417.342 4.965 1.55 4.01.435 4.27-1.466 7.445-1.55 4.35-1.417 12.381-.533 14.888-3.1 3.69 1.83 11.091 1.341 9.927 6.199 17.078-.336 29.98 1.941 42.19 4.649.765-2.103 6.214-1.286 9.927-1.55.306-3.423 10.524-.659 14.887-1.549 1.954 1.484 12.362-1.931 14.892 0 2.515 1.92 1.867.601 7.447-1.55 1.642-.635 3.204-.85 4.963-1.549.5-.2 2.07.255 2.478 0 .232-.144-.272-1.491 0-1.55 3.82-.83 4.43 1.807 7.445 1.55 3.107-.267 4.237-2.492 7.446-3.1 6.186-1.173 12.93.917 19.856-1.55 2.317-1.136 3.757-2.819 4.96-4.65 7.794 4.092 17.208-.728 22.336-3.1 7.185.506 8.18.913 17.37 1.55 5.25.365 8.924 1.896 12.41 1.55 3.315-.327 3.864-2.894 7.445-3.1 3.258-1.192 19.177-7.056 19.851 0h9.928c-1.962 5.362 2.76 6.544 4.964 9.3 11.286-1.689 14.485-7.819 27.298-4.65 7.334-2.722 19.486-5.01 19.855 3.1 4.372.443 7.684-7.297 9.928-3.1 5.832-2.255 11.823 3.699 19.851 1.55 1.096-.294-.29-1.68 2.482-1.55 4.13.195 4.751.624 4.964 3.1 3.355-1.523 4.96-4.135 7.446-6.2 13.525-.698 20.39 2.764 34.742 1.55 3.714 2.329 4.438 6.527 9.926 7.75 3.573.867 6.055 2.417 7.445 4.649 6.155-.23 12.043-.29 12.41 3.099 2.692-.383 1.681-3.081 4.96-3.099h9.928c3.712-1.816 10.151-1.928 12.408-4.649 2.01.293 2.474 1.554 4.964 1.55 4.721 1.065 11.617 1.056 14.89 3.099 1.517.947-.318 1.14 2.481 1.549 3.771.552 9.586-1.064 9.925 1.55 4.952-2.074 10.76-3.613 12.41-7.748 2.041-.794 8.273 1.032 9.926 0 .17-.106-.18-1.529 0-1.55 1.53-.173 13.217 1.277 14.892 0 .11-.085-.095-1.55 0-1.55 1.653-.014 2.904 1.31 4.962 1.55 1.098.127 2.787.131 4.771.097V0H0z" mask="url(#prefix__b)"/>
    </g>
</svg>
