<svg xmlns="http://www.w3.org/2000/svg" xmlns:xlink="http://www.w3.org/1999/xlink" preserveAspectRatio="false" width="1328" height="58" viewBox="0 0 1328 58">
    <defs>
        <path id="prefix__a" d="M0 0.498L1376 0.498 1376 57.498 0 57.498z"/>
    </defs>
    <g fill="none" fill-rule="evenodd">
        <mask id="prefix__b" fill="#fff">
            <use xlink:href="#prefix__a"/>
        </mask>
        <path fill="#FDF9F7" d="M0 .498v5.654c2.384-.108 4.834-.264 7.375-.498 2.134 4.214 16.784.555 14.72 7.409 3.888.198 7.89-.262 11.771 0 2.813.187 2.094 1.743 2.944 1.85 2.819.355 2.731-1.866 2.945-1.85 7.67.509 12.955 3.516 23.553 1.85 2.995-.471 1.432-1.413 2.944-1.85 1.063-.31 5.193.534 5.888 0 .162-.126-.179-1.838 0-1.853 3.456-.306 9.2 1.573 14.715 1.853 4.877.245 9.839-.188 14.721 0 5.26-.521 6.037 1.749 2.944 1.85.725 2.012 5.854 1.256 5.889 3.704 9.556 1.072 13.69-1.263 20.603-1.852 1.708 1.718 8.843 4.668 14.72 5.556 6.407.965 15.774-2.098 23.548 0 1.34.357 2.334 2.756 2.944 3.701h2.944c-.949-1.126 6.729-5.321 8.832-3.701.185.137 4.226 3.127 5.89 1.85.147-.114-.15-1.843 0-1.85 1.757-.098 5.347 1.71 8.83 1.85 3.376.136 5.274.06 5.89 1.851 11.092-1.423 14.07 2.258 23.547 1.852 4.934-4.603 14.657-.483 20.61 0 8.25.668 16.272.415 23.547 1.852 1.01.198 5.279-.472 5.887 0 .45.342-.5 1.55 0 1.85.505.308 2.45-.311 2.944 0 .392.245-.454 1.678 0 1.851 1.427.55 4.336-.418 5.889 0 .546.15 1.219 1.418 2.945 1.852 2.535.64 6.21-.51 8.831 0h2.944v-1.852c9.69-.075 14.651-3.124 26.492-1.852h2.945c4.197-5.633 25.524-4.934 26.49 1.852 6.073 1.12 20.454-2.987 17.666 3.704 10.12-.81 16.496.732 23.546 1.852 2.68 5.721 15.62 4.99 14.72 12.96h5.89c2.507-.34 2.777.722 2.944 1.852 6.182-1.12 7.757 1.712 11.777 1.852 9.81.337 20.424-4.93 23.546 1.85 5.86-2.487 14.015-3.529 20.61-5.554 11.477.128 20.718-.176 29.436 0 5.239.107 6.256 2.1 11.777 1.852 2.696-.122 4.457-2.09 8.831-1.852-.942-.051 1.967 1.698 2.944 1.852 1.846.292 4.015-.223 5.883 0 2.318 1.773 14.664-2.308 17.665 0 .139.103-.115 1.85 0 1.852 6.166.1 10.856-4.082 17.665 0 7.584-2.02 14.147-4.679 17.66-9.257 7.314.276 12.218-.96 14.721-3.704 11.108 2.267 19.574 6.205 35.323 5.555.328 3.498 9.735 1.284 8.831 5.554 7.338-1.558 15.774-2.423 26.493-1.852-2.536 6.533 4.738 1.7 11.777 1.852 4.1.089 5.858 2.212 8.832 1.852 8.551-1.038 16.296-2.812 14.72-7.406 3.422-.302 5.238.408 5.89 1.852 5.318-1.617 3.564-2.414 11.769-3.703 1.668-.265 3.106-1.865 2.944-1.852 5.774-.45 11.226 4.43 11.777-3.703 2.864.05 2.283 2.266 2.944 3.703 3.42-.302 5.24.409 5.89 1.852 4.755.52 5.064-1.751 8.83-1.852 5.16-1.693 14.687-.636 17.66-3.703 4.377 2.186 13.157 1.602 11.776 7.406 20.258-.402 35.562 2.319 50.045 5.554.909-2.512 7.372-1.536 11.777-1.852.363-4.09 12.483-.787 17.659-1.85 2.318 1.773 14.664-2.307 17.665 0 2.983 2.294 2.215.718 8.834-1.852 1.947-.759 3.8-1.016 5.887-1.85.593-.24 2.455.304 2.94 0 .274-.173-.324-1.782 0-1.853 4.53-.991 5.254 2.16 8.83 1.852 3.686-.319 5.026-2.977 8.833-3.704 7.338-1.4 15.336 1.096 23.553-1.851 2.749-1.358 4.457-3.368 5.883-5.556 9.246 4.889 20.413-.87 26.496-3.704 8.523.605 9.702 1.091 20.604 1.852 6.228.436 10.586 2.265 14.721 1.852 3.932-.39 4.584-3.458 8.832-3.704 3.864-1.424 22.747-8.43 23.547 0h11.777c-2.328 6.407 3.272 7.819 5.888 11.111 13.387-2.017 17.182-9.341 32.381-5.555 8.7-3.252 23.114-5.986 23.552 3.704 5.186.529 9.115-8.718 11.777-3.704 6.918-2.694 14.024 4.42 23.547 1.852 1.3-.351-.344-2.007 2.944-1.852 4.9.233 5.636.745 5.889 3.704 3.98-1.82 5.882-4.94 8.832-7.408 16.044-.834 24.186 3.302 41.211 1.852 4.406 2.783 5.265 7.798 11.775 9.26 4.238 1.035 7.182 2.887 8.831 5.554 7.301-.275 14.285-.347 14.72 3.702 3.194-.457 1.995-3.68 5.884-3.702h11.777c4.403-2.17 12.041-2.304 14.718-5.555 2.384.35 2.935 1.857 5.889 1.852 5.6 1.273 13.78 1.262 17.661 3.703 1.8 1.131-.376 1.362 2.944 1.85 4.474.66 11.371-1.27 11.774 1.852 5.874-2.478 12.763-4.316 14.72-9.257 2.421-.948 9.814 1.233 11.775 0 .201-.126-.215-1.826 0-1.852 1.813-.206 15.678 1.526 17.665 0 .13-.101-.113-1.851 0-1.851 1.96-.017 3.444 1.565 5.886 1.851 1.302.152 3.306.157 5.659.116V.498H0z" mask="url(#prefix__b)"/>
    </g>
</svg>
