<svg xmlns="http://www.w3.org/2000/svg" width="1399" height="87" viewBox="0 0 1399 87">
    <g fill="none" fill-rule="evenodd">
        <g fill="#E2EBF1">
            <path d="M1401 543.955V487.14c-2.086.336-4.2.644-6.493.994-1.702-.984-3.465-2.536-5.556-3.105-3.123-.85-5.924-1.895-8.57-3.685-2.527-1.714-5.477-3.432-8.478-3.919-3.883-.64-6.55-2.822-9.659-4.415-1.795.36-3.55.702-5.02.996-3.62-1.542-6.934-2.958-10.334-4.393-4.524-.187-9.04-.266-13.354-2.166-2.697-1.183-5.35.114-7.207 2.282-.894 1.05-1.239 2.326-.575 3.453.864 1.445 2.23 2.64 3.113 4.072.646 1.05.924 2.3 1.239 3.486.257 1.013-.96 2.62-2.04 2.875-.977.226-1.838-.035-2.4-.849-2.163-3.213-4.485-6.263-9.079-8.153-2.107-.072-4.851-.082-7.576-.282-2.65-.194-5.28-.586-7.911-.883-2.387 3.388-5.844 3.9-9.683 3.116-1.322-.276-2.49-1.139-3.806-1.382-2.227-.403-4.524-.768-6.778-.712-4.638.105-8.656 2.42-13.024 3.503-.794.205-1.514.95-2.07 1.596-.826.985-1.335 2.188-2.231 3.117-1.288 1.326-3.045 1.862-4.953 1.375-1.321-.33-2.544-.9-3.818-1.363-2.804-1.05-5.312-.637-7.66 1.115-2.44 1.813-4.965 3.537-7.404 5.25-.133 1.91-.233 3.563-.375 5.22-.072.824-.023 1.713-.357 2.455-.325.69-.982 1.491-1.699 1.74-.712.248-1.773.02-2.537-.287-1.775-.702-2.797-2.15-3.593-3.635-.662-1.234-1.801-2.24-3.03-2.289-7.747-.271-15.548-1.48-23.108 1.337-3.043 1.127-6.528 1.288-9.475.354-4.658-1.498-9.588-2.254-13.818-5.194-3.96-2.774-8.22-5.217-11.907-8.332-4.928-1.565-7.938-5.542-11.742-7.89-4.563-.774-8.52-.857-12.562.634-5.246 1.929-10.687 1.896-16.077.11-2.567-.845-5.18-1.585-8.043-2.453-1.151-.966-2.462-2.131-3.86-3.199-1.376-1.048-2.839-1.967-4.029-2.774-4.06.597-7.245 2.68-11.099 2.123-3.706-.53-7.252.375-10.773 1.299-.365.098-.892-.184-1.305-.343-3.054-1.248-6.302-.935-9.497-.935-6.428-.01-12.926-.44-19.264.26-4.897.554-9.674 2.332-14.298 4.173-1.139.458-2.943.518-4.002.012-3.827-1.825-7.863-2.14-12.019-2.023-2.824.077-5.399-.609-7.952-1.692-2.697-1.155-5.264-.697-7.654 1.034-2.456 1.785-4.088 4.571-7.511 5.143-5.184-.607-8.675-4.31-12.611-5.829-2.485.548-4.235 1.05-6.044 1.299-5.846.84-11.578 2.243-17.212 3.8-3.327.93-6.067.935-9.224-.197-2.062-.746-4.443-.896-6.708-.99-4.548-.183-9.194.447-13.396-1.912-.627-.348-1.936-.22-2.618.15-2.59 1.397-5.334.242-7.985.475-4.463.383-8.316.64-10.243 1.286-3.031 1.03-4.512 4.305-7.62 4.377-3.085-.691-5.687-1.49-8.365-1.795-3.15-.364-6.356-.305-8.66-.4-3.94-2.182-6.904-4.17-10.197-5.545-3.707-1.56-7.683-2.62-11.573-3.778-1.843-.55-3.631-.063-5.247.848-1.526.879-2.996 1.847-4.485 2.774-3.334-1.542-6.087 1.393-9.29.96-1.346-.181-2.955.046-4.03-.535-5.375-2.9-10.51-1.883-15.744.277-1.65.668-3.615.752-5.205 1.498-2.577 1.204-5.295 1.099-8.03 1.32-4.26.365-8.043-1.287-11.9-2.017-2.704.74-5.093 2.288-7.944.697-2.532-1.404-5.187-1.393-7.836-.116-2.973 1.43-6.12 1.591-10.038.713-2.317-1.742-5.122-3.83-7.815-5.842-3.166-1.022-6.103-2.26-9.206-2.9-2.637-.547-5.487-.74-8.183-.505-3.242.29-6.01-2.268-9.78-.777-3.327 4.1-8.472 3.35-13.423 2.912-3.197-.867-4.835-4.094-8.377-4.111-6.486 1.874-6.597 3.507-13.654-1.773-.34-.262-.798-.404-1.197-.609-2.702-.976-5.211 2.046-7.932.294-2.265.415-4.312 1.199-5.868 2.74.308 1.85 1.911 2.795 3.063 4.04.881.945 1.707 1.928 2.518 2.917.576.696-.485 2.373-1.815 2.89-.93.365-1.612.017-2.203-.862-.464-.68-1.105-1.283-1.738-2-2.51-.71-5.112-1.45-7.844-2.21-2.238 1.183-4.423 2.866-6.949 3.568-3.846 1.088-7.926 1.482-12.23 2.228-.96-1.304-1.803-2.785-3.002-3.985-.82-.812-2.12-1.237-3.067-1.755-2.212 1.32-4.111 2.446-6.369 3.806-2.947 0-6.146-.046-9.343.01-3.656.051-7.303.2-10.687.293-2.574 1.608-4.835 3.006-7.002 4.366-2.4.271-4.676.53-7.296.822-1.235.83-2.758 1.757-4.137 2.818-1.867 1.42-4.224 1.477-6.343 2.205-1.653.58-3.103 1.713-4.554 2.709-3.272 2.236-6.82 2.327-10.398.976-3.368-1.27-6.714-2.65-9.276-5.215-1.832-1.84-3.846-3.571-5.981-5.14-1.437-1.06-3.34-1.447-5.197-.904-2.169.628-4.267 1.424-6.573 2.203-4.292-1.291-8.696-2.382-12.872-3.955-2.46-.94-4.424-.171-6.557.392-4.365-1.183-8.722-2.371-12.813-3.488-1.562.389-2.848.702-4.363 1.078-2.744-2.11-5.495-4.245-7.928-6.116-2.36-.238-4.205-.53-5.684.868-1.246 1.176-2.29 2.69-3.799 3.453-3.976 2-7.793 4.403-13.038 5.117-6.356-3.16-13.616-2.74-20.653-2.056-2.587 1.587-4.865 2.973-7.096 4.343-3.285.226-6.474.436-9.758.663-1.85 1.227-3.569 2.646-5.564 3.62-1.949.965-4.18 1.48-6.473 2.245-.983 1.842-2.003 3.689-2.971 5.55-.168.345-.126.83-.026 1.3.16.662 1.408 1.341.9 1.845-3.99 3.978-13.564 4.465-17.006.077-.978-1.242 1.39-2.64.727-3.547-.798-1.067-3.294-1.675-4.948-.95-.691.303-1.708.971-1.8 2.077-.091 1.017.957 2.05 1.755 2.912.257.271.84.305.84.607-.093 3.79-7.667 5.84-11.321 4.272-.1-.05-.173-.248-.084-.332-3.017 2.819-7.887 1.524-11.68 1.89-3.132-1.248-6.048-2.414-8.862-3.542-2.171 1.26-4.082 2.366-6.202 3.592-1.195-.288-2.558-.437-3.748-.952-2.61-1.121-5.341-.955-8.089-1.093-2.885-.15-5.218 1.828-7.848 1.797-2.64-.04-5.236-1.344-7.909-1.642-1.725-.19-3.718.132-5.321.78-5.404 2.159-10.618 2.087-15.952-.116-2.717-1.117-5.307-.46-7.846.848-2.004 1.035-3.896 2.036-5.135 3.947-.698 1.088-2.068 1.524-3.542 1.216-.882-.187-1.927-.858-2.625-.625-4.863 1.663-9.916 1.178-14.928 1.332-1.35.038-2.966-.095-4.033.497-4.197 2.326-8.911 1.69-12.663 2.2-4.611 1.309-7.896 3.806-11.813 4.315-1.545-.353-2.833-.658-3.928-.912-6.85 3.73-13.484 7.354-20.192 11.011-3.554.917-6.884-2.005-10.561-.745-3.457-1.055-6.892-2.172-10.394-3.127-.75-.21-1.704.143-2.798.276-1.486 1.414-2.306 3.37-3.393 5.171-.893 1.448-1.516 3.04-2.41 4.47-1.104 1.752-.444 4.165-2.838 5.631-.907-.778-2.4-1.464-2.727-2.453-1.073-3.243-2.459-6.078-5.731-8.117-1.393-.878-2.084-2.682-3.883-3.347-2.12-.774-4.163-1.841-6.356-2.256-2.209-.408-4.125-1.85-6.545-1.409-1.325.243-2.987 1.001-3.941.555-4.307-1.997-8.906-1.792-13.463-1.813-3.257-.018-6.365-.41-9.324-1.748-1.151-.518-2.89.288-3.437 1.344-.765 1.468-.623 3.32-2.473 4.553-2.768.884-5.748 1.855-8.748 2.78-.399.13-.903.02-1.286.02-.84-.481-1.815-.784-2.337-1.398-1.646-1.964-2.843-4.314-4.754-6.017-1.913-1.708-4.555-2.712-6.725-4.22-2.16-1.504-4.13-3.256-5.746-4.542-5.987-1.162-10.88-3.864-16.64-3.344-1.266.119-2.734-.408-3.91-.978-3.101-1.507-6.083-1.537-9.144.038-2.096 1.089-4.448 1.393-6.588.366-4.939-2.354-9.645-2.144-14.368.436-1.169.642-2.455 1.121-3.742 1.575-.826.294-1.734.392-2.609.586-2.256-.084-4.077-2.018-6.925-1.122-.757.548-1.986 1.188-2.868 2.11-1.795 1.857-3.377 3.863-5.057 5.812-.775-.313-1.731-.456-2.284-.966-2.298-2.049-2.674-5.314-5.425-7.094-2.982-1.906-6.025-3.724-8.928-5.73-1.875-1.298-3.824-2.178-6.143-2.602-1.305-.233-2.674-.747-3.698-1.51-5.05-3.735-10.99-5.873-16.814-8.237-1.479 0-2.861-.056-4.226 0-6.995.266-14.131-.907-20.937 1.298v60.711h1400z" transform="translate(-1.000000, -457.000000) translate(701.000000, 500.710943) scale(-1, -1) translate(-701.000000, -500.710943)"/>
        </g>
    </g>
</svg>
