<svg width="308" height="34" viewBox="0 0 308 34" xmlns="http://www.w3.org/2000/svg" xmlns:xlink="http://www.w3.org/1999/xlink">
    <defs>
        <path id="ld4vji6gta" d="M0 0h308v33.427H0z"/>
    </defs>
    <g fill="none" fill-rule="evenodd">
        <mask id="4pobt5zzkb" fill="#fff">
            <use xlink:href="#ld4vji6gta"/>
        </mask>
        <path d="M0 0v12.992c.256-.057.537-.203.759-.139.207.06.4.915.664.96.477.085.591-.61.96-.664.518-.072.675.33 1.107.37.894.373.791.133 1.55-.22 1.457-.676 4.644-.278 5.169-.736.665-.065.81.561 1.624.296 1.663.02.944-1.752 2.954-1.473l2.584-.367c1.725.217.465-1.806 1.847-1.845 3.503.364 7.558-2.554 10.262-1.987 1.246.26.983 1.881 2.361 1.772 1.589-.476 2.204.345 2.805 1.184.898 1.09 3.979-.386 5.759-.293.844.037 1.744-.454 2.584-.367.373.038.5.428.59.444 1.009.173 1.838.614 2.731.665 1.972.117 3.787-.49 5.759-.292 1.463.148 1.419.546 2.214.74.134.034.378-.06.516-.073.517-.046.4.409.591.442 1.848.341 4.115-.14 4.798.373.386.29.013.29.591.444.296.077.724-.16 1.034-.148.514.023.677.255 1.106.37.687.185 1.091.075 1.624.296.145.06.324.322.591.444.76.345 1.09.114 2.141.223 1.165.12 2.836.877 3.321 1.11.149.07.576.438.59.442.78.269 1.384-.043 2.141.224.211.072.568.437.59.443.29.077.762-.266 1.034-.148.087.038-.005.459.073.518.1.073.416-.146.518-.075.1.072-.02.433.073.517.156.143.828-.233 1.034-.148.085.037-.004.46.073.518.1.075.416-.146.517-.074.1.073-.018.434.074.518.147.136.831-.215 1.033-.148.232.08.152.337.591.444 1.1.268 2.005.306 3.174.076.174.512.514.383 1.107.37 1.91-.043 6.336-.735 6.128-1.4 1.354-.983 3.82-1.132 4.948-2.285.513-.136.682.407 1.107.37.603-.053.873.527 1.181.886.292.341.356.67.663.96.388.367 1.359.393 1.698.814.165.206.061.777.147 1.032.164.488.431.582.664.962.338.015.698-.183 1.034-.148 1.519.159 2.766 2.166 3.984 2.07-.019.002.318-.878.517-.073-.176 1.393.686 1.642 1.328 1.92.242.104.903.377 1.107.37.011 0-.09-.49-.073-.517.453-.75 3.189.465 2.511-.884.585-.837 2.822-1.154 3.617-.515-.037-.737.788-.518 1.477-.737.848-.27 1.635-.209 1.994-.811.819.343 2.059.125 1.844 1.846 1.273-.26 2.183-.038 2.731.665.459 2.26 3.967.457 5.463 1.334.173-.018.343-.058.516-.075.59-.052.297.331.591.445 1.23.47 2.76.326 3.764.518l3.619-.515c.504-.21.381.245.59.444.46.436.294.332 1.107.37.75.035 1.942-.264 1.993-.811.578-.78 2.72-.503 3.249.593.18.468.506.436 1.107.37 1.192-.135 2.802-1.42 3.987-1.623 2.118-.36 2.063 2.171 3.986 2.07 1.703.183 2.402-.8 3.027-.957.517-.133.682.43 1.107.37-.151.02.245-.512.443-.591.244-.1.771-.159 1.034-.148.497.02.373.384.59.444 1.252.338 2.054-.59 2.215.74 1.416.476 2.591.391 3.838 1.035.093.048-.012.452.073.517.202.151.815-.28 1.034-.146.195.116-.033.884.147 1.032.684.567 1.643.486 1.771 1.33.646.165 1.25.385 1.697.814 1.502-.204 1.172-1.023 1.92-1.328.641-.26 1.038-.558 1.477-.738.538-.218.857.183 1.107.37.394.296 1.605-.497 2.068-.294 1.215-.01.362-1.575 1.33-1.77.172.384.159 1.017.664.96.039.287.501.526.516-.075.787-.02 1.882-.454 2.141.224.452.928 1.328 1.117 1.771 1.33 1.023.49 1.108.742 1.771 1.33.295.26.383.7.664.96.141.13.837-.201 1.034-.148.576.159 1.204.218 1.623.297.828.157 1.329.248 2.141.223.782-.026 1.009-.636 1.477-.738.847-.181 1.334.139 2.141.224.45.046.402.392.59.442.465.127 1.081-.329 1.551-.22.695.16.716.46 1.18.887.149.136.832-.216 1.035-.147.072.024.379.347.589.443.394.178.738.22 1.108.37.995.404 1.217.777 2.214.74 1.014-.04 2.012-.971 3.028-.958.558.226.32-.523.442-.591 1.731-.948 4.612 1.095 5.686-.809 1.86-.91 3.19-2.22 5.981-2.431 2.545.064 1.544-2.534 4.432-2.213 1.376.208 2.483.424 3.026-.958.573-.134.912.637 1.034-.148 2.109-.755 3.574.043 4.725-.143-.169.027.282-.515.443-.591.433-.2 1.087-.1 1.55-.22.028-.008-.095-.48-.073-.517.229-.387.69.445.59.442 1.978.03 2.364-.822 3.545-1.03.906-.16 1.683.297 2.141.222 1.817-.297 3.462-1.25 5.094-1.252 2.731-.004 5.08 2.031 8.046.964.681.174 1.092.523 1.698.814.303.145.382.328.591.444.091.05-.008.442.073.515.152.142.829-.224 1.033-.146.083.032.001.462.074.517.295.222 1.119-.261 1.107.37 2.982-.078 5.726.16 8.046.963.839-.6 2.554-.544 2.954-1.474 1.494-.35 1.754.944 3.248.593-.007-1.082 1.234-1.227 1.847-1.845-.058-.89 1.241-.505 1.993-.81.22-.09.529-.616.444-.59.953-.293 2.322-.294 3.101-.441.872-.166 1.562-.877 2.067-.294-.57-1.352 2.49.023 1.92-1.328.953-.209 1.679-.585 1.92-1.329 1.292.317 2.822 1.197 3.395 1.628.39.291-.016.319.591.442.75.154 1.907-.587 2.14.224.075.31.165.6.591.442l5.685-.809c.796-1.218 1.432-.174 2.067-.293 1.087-.204 1.547-.811 2.511-.884.634-.049 2.005.085 2.657.148.043.005.034.48.074.518.104.096.872-.148 1.034-.148 3.45.003 5.576-.213 7.678-1.62.751.627 1.65.066 2.657.15.52.043.665.301 1.108.37.604.094 1.466-.372 1.624.297.711-.771 2.131-1.314 2.954-1.476.508-.099.271-.503.443-.59.295-.148.726-.023 1.034-.148.344-.139.364-.552.443-.59.783-.376 2.123-.52 3.028-.958.929-.446 2.211-.771 2.363-1.916 2.998-.188 3.819-1.296 6.202-.883.366-1.237 1.723-2.511 2.217-2.951.43-.385.481-.818.886-1.181.21-.188.678-.078.443-.59 2.787-.437 2.706-.623 4.579-1.18 1.168-.967 3.988-.696 5.02-1.767a2.639 2.639 0 0 1 1.771 1.329c.178.654.89.362 1.624.296.31-.027.417.178.49.319V0H0z" fill="#FFF" mask="url(#4pobt5zzkb)"/>
    </g>
</svg>
