<svg width="618" height="48" viewBox="0 0 618 48" xmlns="http://www.w3.org/2000/svg" xmlns:xlink="http://www.w3.org/1999/xlink">
    <defs>
        <path id="n0sb4ha0qa" d="M0 0h618v47.167H0z"/>
    </defs>
    <g transform="matrix(1 0 0 -1 0 47.857)" fill="none" fill-rule="evenodd">
        <mask id="qy1j24isub" fill="#fff">
            <use xlink:href="#n0sb4ha0qa"/>
        </mask>
        <path d="M995.788 14.228c-.92.108-1.998.095-3.2.079-1.203-.3-2.52-.124-3.913-.097-1.365.32-2.801.01-4.308.255-.58-.056-1.162-.33-1.745-.58-.582-.24-1.144-.783-1.776-.37-.678 1.186-1.143-.796-1.81-.33-.63-.04-1.445 1.546-2.027.62-.679.007-1.443.686-2.172 1.03-.604-1.077-1.457.84-2.177 1.228-.682 2.125-1.421.852-2.115 1.653-.651 1.63-1.423.098-2.033 1.456-.774-.403-1.492-.478-2.189-.533-.69-.054-1.348.295-2.048-.426-.688-.477-1.32.773-2.043-.329-.77-1.718-1.42-.518-2.172-.796-.643.01-1.313 3.059-1.974 1.515-.692-.357-1.415 1.118-2.116.246-.742 1.638-1.433-.55-2.139.373-.701.713-1.42-.129-2.096.566-.734-.532-1.448-.476-2.151-.26-.702.226-1.386.728-2.1.705-.679.448-1.4.38-2.11.45-.654.577-1.427.136-2.116.419-.694.235-1.438.219-2.171.274-.705.197-1.456.21-2.177.335-.811-.218-1.576-.265-2.183.14-.687.127-1.258.678-2.062.19a99.55 99.55 0 0 0-2.759-.27 48.774 48.774 0 0 1-2.47-.41c-.979-.731-1.589-.413-2.459-.893-.669.098-1.582-.484-2.504-1.034-.571.199-1.653-.7-2.338-.833-.563.126-1.263-.055-2.06-.505-.51.257-1.136.312-1.816.249-.734-.09-1.289.242-1.966.425-.7.125-1.426.34-2.183.566-.77.205-1.513.342-2.34.562-.892.235-1.797.443-2.627.529-.836.046-1.46-.148-2.748.21-1.092.2-1.974.034-3.021.023-1.249.247-2.368.295-3.206-.139-1.513.078-2.787-.319-4.223-.562-.823.198-1.573.21-2.328.185-.758-.016-1.538-.077-2.325.009-.84-.168-1.745-.482-2.472.177-.538.59-1.508.47-2.225.7-.498.412-1.126.666-1.791.885-.264.48-.516 1.02-1.924.722-.63.267-.367 1.694-1.503 1.28-.569.66-1.885-.016-2.256 1.048-.924-.146-1.698 1.55-2.576 1.198-.915.697-1.73.451-2.575.862-1.417-.35-3.012.305-3.703-.71-.815.191-1.398.098-1.967-.018-.582-.124-1.152-.268-1.973-.288-.784-.103-1.782-.145-2.17-.503-1.2-.038-1.889-.305-2.152-.693-.849-.382-2.31-.607-2.29-1.076-1.518-.185-1.888-.534-2.808-.78-.77-.286-2.44-.256-2.907-.794-.845.058-1.437-.059-1.95-.36-.545-.34-1.167-.987-1.94-1.993-1.013-.775-1.888-.363-2.775-.34-.928.928-1.817.257-2.589-.633-1.005.22-1.374-1.12-2.476-1.064-.808-.365-1.366-.863-2.58-1.044-.003-.595-1.006-.9-1.807-1.258-1.24-.353-.176-.75-1.3-1.06-.331-.319-.82-.635-1.527-.942-1.434-.238-.815-.8-2.298-.925-1.275-.15-1.677-.551-2.468-.84-.634-.411-1.453-.685-2.389-.791-.73-.369-1.71-.229-2.62-.227-.978.233-1.92.378-2.793.337-.647-.73-1.41-1.797-2.37-1.646-.948-.003-1.911-.8-2.96-1.348-.912-.492-1.728-.666-2.712-1.312-.984-.18-2.134.178-3.716 1.91-.988.314-1.845.529-2.743.494-.897.466-1.834.155-2.985 1.157-.54-.295-1.255.384-2.09.2-.418-.081-.866.226-1.337.59-.471.479-.965.811-1.476.921-.51 1.094-1.038.397-1.574.843-.537-.091-1.082-.163-1.631.967-.615-.203-1.246-.622-1.885-.025-.64.87-1.289.767-1.94 1.627-.65.789-1.304.33-1.954.679-.651-.36-1.298.085-1.934.505-.636-.254-1.262-.6-1.87.263-.61.64-1.203-.122-1.772-.051-.715.731-1.42-.16-2.119.888-.698-.383-1.389.928-2.077.66-.69.223-1.375.538-2.06.39-.687.273-1.373.064-2.064.41-.69.396-1.386.951-2.089.188-.702.36-1.413-.501-2.136.082-1.113.185-2.207-.134-3.242.351-1.035.199-2.013.979-2.892.843-.439.002-.854 1.072-1.239 1.027-.386.644-.741.862-1.062.759-.68.428-1.317.48-1.942.868-.625 1.35-1.238-.047-1.87.99-.65.91-1.284-.68-2.025.344-.675-1.113-1.429-1.374-2.307-.946-1.903.13-3.771-.198-5.548-.892-.875-.313-1.862-.113-2.762-.256-1.043.402-1.913.233-2.64-.433-.885-.059-1.715-.338-2.6-.378-.895.03-1.665-.974-2.62-.374-.985.603-1.841-.05-2.745-.618-.924-.329-1.553-2.84-2.725-1.24-.456-1.03-1.392.808-1.844-.376-.484-.661-1.214-.27-1.756-.623-.716.302-1.289.088-2.067.599-.702.263-.893-1.146-1.726-.526-1.024 1.66-1.366.407-2.063.722-.702.418-1.459 1.404-1.849.193-.425-.65-1.388 1.119-1.859.106-.533-.517-1.43.864-2.092.796-.758.922-1.436.83-2.139 1.045-.715.58-1.414 1.172-2.095.905-.705.117-1.358 1.471-2.038.84-.67-.076-1.337-.325-1.969.021-.743-1.462-1.29-.091-1.946-.391-.644-.122-1.284-.21-1.943-.518-.702-.852-1.367-1.343-2.01-1.617-.69-.791-1.228.092-1.854-.043-.575.702-1.237-.196-1.839-.14-.622-.502-1.224-.778-1.78-.167-.597.934-1.19.933-1.784 1.021-.587 0-1.52 1.985-1.903.864-.793.716-1.35.445-2.154.911-1.216 1.342-1.483.292-2.489.928-1.702 1.768-2.897 2.075-3.796 2.66-.347.347-.401.95-1.252.803-.94-.199-1.544-.064-1.463.713-.615.208-1.522.183-2.441.182-.94.013-1.649.318-2.59.408-1.394-.538-1.793.379-2.766.452-1.066-.195-2.016-.247-3.053-.747-.785.125-1.554.219-2.316.21-.751-.093-1.436.245-2.137.28-.613 1.28-1.37.149-2.036.335-.677-.08-1.333.23-1.985.624-.653-.27-1.288-.007-1.928.176-.642-.078-1.278-.245-1.912-.393a9.488 9.488 0 0 1-1.828-.615 19.189 19.189 0 0 1-1.613-.776c-1.087-.084-2.287-.056-3.403-.454a62.093 62.093 0 0 1-1.908-.414c-.674-.163-1.376-.34-2.108-.528-.49-.235-1.062-.212-1.594-.423-.579-.045-1.174-.076-1.708-.465-.583-.193-1.189-.334-1.844-.16-.592-.287-1.173-1.18-1.824-.805-.621-.23-1.248-.63-1.874-.364-.61.05-1.227-.25-1.835-.687-.582-.644-1.202-.6-1.783-.757-.618.161-1.03-.856-1.63-.787-.84-1.207-2.203-.556-3.148-1.287-1.146-.087-2.198-.464-3.3-.486-1.556.625-3.173.326-4.825-.057a34.871 34.871 0 0 0-2.46-.495c-.8-.107-1.583-.097-2.331-.243-.715-.732-1.457-1.342-2.216-.703-.759.137-1.534-.32-2.314.09-.78.061-1.566.246-2.345.063-.78.5-1.552-.577-2.306-.334-1.364-.172-2.635-.468-3.985-1.198-1.35-1.094-2.779-.596-4.459-.355-1.561.286-3.095.065-4.603.041a88.854 88.854 0 0 1-2.245-.064c-.742.311-1.478-.55-2.209-.124-1.33-1.511-2.796-1.451-4.27-.646-1.472-.73-2.951-.564-4.31-.782-.984.41-1.96.365-2.93.224-.97-.42-1.932-.819-2.893-.356-.96-.118-1.916-.093-2.872-.063-.957-.701-1.913.327-2.87-.535-.958.49-1.92.756-2.885.079-.966.342-1.937-.066-2.916.867-1.62-.94-3.232-.606-4.845-.18-.807-.11-1.614-.31-2.422-.47-.809.142-1.619-.15-2.431-.234-.816-.25-1.637.085-2.463-.175-.826.335-1.654-.28-2.483.038-.828-.089-1.657.22-2.482-.028-.824-.022-1.646-.003-2.46-.372-.525.1-1.055.205-1.59-.916-.536-.59-1.078.482-1.622-.484-1.09.325-2.196-.177-3.306-.057-1.111-.07-2.227 1.12-3.336.538-.832-.1-1.65.504-2.462.22-.812-.38-1.617-.92-2.42-.623-.804-.226-1.606-.97-2.412-.69-.806-.118-1.617.045-2.438.025-.533-.166-1.064-.428-1.594-.556-.53-1.563-1.06-.12-1.587-.862-.528 1.279-1.055-1.134-1.582-.559-.527.024-1.054-.38-1.58-.432-1.054-.001-2.109.353-3.167 1.493-3.1-.782-6.16-.988-9.338-2.065-1.696-1.054-3.26-1.943-4.75-1.064-1.49-.026-2.905 2.208-4.302 1.633-1.397.08-2.776 1.533-4.192 2.087-1.292 2.198-2.771 2.347-4.346 2.395-.788.023-1.6-.077-2.424-.238-.825-.162-1.66-.874-2.498-.613-.836-.094-1.675-2.086-2.501-.664-.827-.971-1.644.814-2.438.357-.873-.472-1.748-.297-2.623-.627-.875.879-1.753-.759-2.628-.645-.876-.384-1.75-1.653-2.624-1.392-.873.074-1.743.956-2.612.627-.868.29-1.734.187-2.594-.009-.853-.285-1.705-.193-2.567.907-.836-.33-1.684.03-2.504-.388-.81-.369-1.677.193-2.476-.214-.828-.02-1.65-.08-2.473-.143-.791-.296-1.625-.31-2.483-.194-.75-.58-1.608-.549-2.514-.217-.873.121-1.717.019-2.505-.586-1.695-.546-3.49.031-5.172-.796a6.887 6.887 0 0 0-2.541-.933c-.839-.481-1.67.392-2.498 0-.552.89-1.102.285-1.65-.401-.548-.208-1.095-.515-1.64-.189-1.092-1.42-2.178-.317-3.26.112-.54-.107-1.08.073-1.62.73-.537-.39-1.075.304-1.614 1.544-1.612-.631-3.226.37-4.842-.266-1.618.5-3.236-.187-4.86.729-.817.124-1.632.216-2.448.296-.816.103-1.63.599-2.46.213-.808.497-1.708-.152-2.51.232-1.023-.622-1.828-.325-2.521.338-1.175-.24-2.275-.09-3.613-.493-.968.426-2.09.525-3.04 1.026-.654-.236-1.182-.143-1.675.034-.433.505-.949.84-1.519.575-.808.531-1.631.775-2.47.494-.878-.64-1.631.194-2.42.686-.873-1.128-1.603.58-2.41-.091-.798-.059-1.588.082-2.381.787-2.04-.06-4.019-.097-5.967.564-1.949.387-3.867-.625-5.787.392-.959.347-1.919.36-2.884.36-.965 0-1.933-.014-2.911.281-.687-.038-1.407-.246-2.15.002-.746.222-1.515.629-2.303.177-.785.325-1.59-.004-2.4.28-.81-.013-1.63-.437-2.448.311-1.639.694-3.268.752-4.828.468-1.56.193-3.053.34-4.417-.854-.743-.157-1.494-.124-2.256-.145-.763-.13-1.536-.382-2.324-.477-.788-.904-1.592.05-2.413.043-.823.207-1.663.079-2.526.398-1.072.902-2.21.652-3.403.679-1.193-.382-2.443-.102-3.738 1.645-1.296.192-2.638 1.627-4.016 2.245-1.083-.361-2.215-.682-3.392-.675a3.955 3.955 0 0 0-1.802-.327 4.533 4.533 0 0 0-1.87.517 6.846 6.846 0 0 1-1.938.703c-.656.137-1.324.667-2.003.429-.56.455-1.135.255-1.721.167-.587.479-1.184.04-1.787.355-.602-.208-1.208 1.303-1.814.688-.606.491-1.21.635-1.808.791-.598.304-1.19 1.141-1.767.757-.579-.746-1.143.301-1.69.586-.536.956-1.07.677-1.599 1.162-.527.487-1.052.504-1.57.765-1.037.887-2.052.012-3.033 1.121-.49.009-.971.292-1.444.667-.472.534-.935.814-1.389 1.217-.625-.269-1.205.418-1.753-.493-.55 1.14-1.07.211-1.575.266-.505.453-.996.782-1.49.82-.493-1.476-.99.64-1.503.494-.515-.147-1.048-.093-1.615.365-.567 1.129-1.17-.33-1.823-.281-.64-.045-1.326-.746-2.04-.664-.713-.711-1.457-.125-2.214-1.059-.758-1.5-1.53-.35-2.301-1.544-.782-.585-1.572-1.418-2.33-1.277-.718-2.144-1.439-2.057-2.137-1.827-.642-.414-1.24-.78-1.867-.526-.71.003-1.07-1.575-1.608-2.04-.596-.188-1.289.084-1.762-.512-.63.023-1.484.95-1.767-.376-.639.079-1.309.306-1.894.157-.819.829-1.098-.787-2.045.74-.803.826-1.103-.933-2.178 1.368-1.122-2.406-2.644-2.081-4.24-.426-1.5 1.519-2.9 2.822-4.19 1.718-1.323-.258-2.62 1.063-3.894.66-.914.052-1.819-.012-2.725-.08-.909-.091-1.818.01-2.728-.208-.917.12-1.874-.453-2.847-.87-.982-.261-2.009-1.379-3-1.356-.977.077-1.963-.303-2.937-.689-.96-.275-1.894-.696-2.824-.573-.875-.453-1.775-.158-2.629-.289-.853.352-1.683.412-2.497.117-.808.24-1.597.414-2.38.157-.752-.322-1.558.106-2.34.278-.78.342-1.576.335-2.381.287-.816-.126-1.64.372-2.483.32-1.184-.079-2.406-.289-3.642-.503-1.23-.252-2.465-.737-3.654-.539-1.188.635-2.372-.215-3.487.871-1.382-1.15-2.664-2.209-3.906-1.632-1.248-.497-2.493-.636-3.785-.13-1.298.344-2.634-.087-4.04-.827-.973.312-1.955.241-2.935.083-.983-.155-1.958-.359-2.922-.389-.953-.293-1.895.134-2.83-.089-.914.003-1.76-.46-2.701.09a30.003 30.003 0 0 0-3.315.327c-.516.075-1.075.385-1.489.131-.383-.195-.856-.15-1.536.478-1.142.965-2.138.979-3.076.592-1.18 1.907-2.029 2.1-2.632.697-.923.384-1.357-1.862-2.232-2.167-1.117.414-1.997-.003-2.752-.914-1.059.206-1.324-1.72-2.558-1.507-.632-.487-1.447-.73-2.37-.779-.713-.483-1.367-1.268-2.56-.272-.725-.35-1.408-.79-2.274-.232-.773.29-1.324-.449-1.91-.675-.55-.286-1.213-.449-1.938-.545-.761.275-1.528-.05-2.334-.117-.819.476-1.61-1.276-2.414-.062-.788-.315-1.552-.27-2.25-.472-.926-.484-1.922-.496-2.959-.558-1.036-1.12-2.113-.277-3.196.785-1.085.687-2.177.904-3.247 1.624-.884-.211-1.769-.164-2.653-.117-.883.048-1.767.163-2.649-.12-.883 1.004-1.764-.024-2.643.512-.88.39-1.759.27-2.637.34-1.755-.007-3.506.904-5.255 1.079-.881-.05-1.757.22-2.63.368-.878.03-1.738.652-2.632-.325-.909-1.738-1.76-1.01-2.635-1.48-.861-.03-1.713.17-2.599-1.55-.867 1.22-1.774-.163-2.628.966-.91-2.17-1.66 3.023-2.559 1.618a16.694 16.694 0 0 0-5.033 2.225c-1.689.63-3.389.318-5.099.924-1.708.185-3.426.234-5.166.06-.87-.088-1.744.04-2.627-.44-.882-.789-1.772-.238-2.67-.844-1.797-.632-3.567-.355-5.297-.547a12.15 12.15 0 0 0-2.567-.504c-.846-.074-1.68-.06-2.5.021-.82-.78-1.628-.805-2.42-.466-.794.566-1.572-.118-2.334.313-.852.286-1.672-.277-2.467-.659-.794-.099-1.565-1.112-2.321-.319-.756-.624-1.485.377-2.214-.031-.724.105-1.444.17-2.167.312-.723.143-1.448.313-2.181.459-.755 1.296-1.448-.563-2.23.328-.672-1.63-1.462-.724-2.095-1.347-.682.053-1.245-.557-2.024.345-.684.24-1.638 2.2-2.002.424-.604-.241-1.152-.719-1.833-.667-.95.895-1.784 1.24-2.096-.17-.533-.567-1.145-.893-1.965-.74-.387-.779-.965-1.153-1.806-.85-.5-.508-1.284-.335-2.03-.276-.65-.116-1.353-.125-1.906-.374-.352-.83-1.024-.837-1.856-.398-.667-.009-1.198-.326-1.787-.454a32.192 32.192 0 0 1-1.678-.492c-3.102-.944-6.438-.208-9.038-1.041-1.128.822-2.13.781-3.063.29a9.887 9.887 0 0 1-1.374-1.259c-.404.231-.927-1.343-1.364-1.742-.497-1.164-.915-1.393-1.332-1.432-.458-.774-.881-.766-1.343-1.151-1.06-.876-2.065-1.393-3.03-.887-.484.123-.951 1.082-1.428.617-.465.53-.925.743-1.384-.243-.908.215-1.785-.105-2.63-.064-.846-.6-1.661-.586-2.446-.208-.784.663-1.537.397-2.26.241-.72-.201-1.412.26-2.07-.11-.66.53-1.287-.011-1.882-1.124-.596-.577-1.16-.379-1.692-.537C5.39 4.476 4.455 3.853 3.65 3.67c-.804-1.094-1.478-.704-2.019.14C.55 4.115 0 4.383 0 3.503V50.167h1000V11.231c0 2.383-1.531 2.852-4.212 2.997" fill="#F1F5F8" mask="url(#qy1j24isub)" transform="matrix(1 0 0 -1 0 53.167)"/>
    </g>
</svg>
