<svg width="1400" height="61" viewBox="0 0 1400 61" xmlns="http://www.w3.org/2000/svg" xmlns:xlink="http://www.w3.org/1999/xlink">
    <defs>
        <path id="qidubxyl9a" d="M0 0h1400v60.984H0z"/>
    </defs>
    <g fill="none" fill-rule="evenodd">
        <mask id="g7di3mtw3b" fill="#fff">
            <use xlink:href="#qidubxyl9a"/>
        </mask>
        <path d="M0 0v45.602c2.426-.089 5.821-4.434 8.406-4.624 2.172 3.423 15.71-3.59 13.608 1.979 3.956.162 5.986-9.338 9.935-9.127 2.862.153 9.824 1.976 10.69 2.063 2.868.288 3.402-6.767 3.604-6.687 23.244 9.264 9.03-.526 18.17-2.82 2.978-.748 1.456-1.15 2.995-1.505 1.08-.251 4.472 4.667 5.18 4.231.163-.1 7.728-1.4 7.91-1.412 3.516-.249 3.43-.226 9.04 0 4.963.199 8.842-2.97 13.809-2.819 5.354-.423 6.143 1.422 2.996 1.505.737 1.633 5.957 1.018 5.991 3.008 9.724.872 13.93-1.025 20.963-1.504 1.739 1.396 8.997 3.792 14.977 4.513 6.518.785 16.048-1.704 23.958 0 1.364.291 2.375 2.24 2.996 3.008h2.995c-.964-.915 6.846-4.323 8.987-3.008.187.113 4.299 2.54 5.991 1.504.151-.093-.151-1.498 0-1.504 1.789-.079 5.44 1.39 8.986 1.504 3.434.11 5.365.049 5.992 1.504 11.285-1.157 14.315 1.835 23.958 1.505 5.019-3.742 14.912-.393 20.969 0 8.394.542 16.555.335 23.957 1.504 1.03.162 5.371-.384 5.99 0 .457.278-.507 1.259 0 1.503.515.25 2.494-.253 2.996 0 .398.2-.462 1.364 0 1.504 1.451.447 4.411-.34 5.991 0 .557.122 1.24 1.152 2.997 1.505 2.58.52 6.317-.414 8.985 0h2.996v-1.505c9.859-.061 14.906-2.538 26.953-1.504h2.997c4.27-4.576 25.97-4.01 26.952 1.504 6.179.91 20.81-2.426 17.973 3.009 10.297-.658 16.786.595 23.958 1.505 2.726 4.648 15.891 4.055 14.977 10.53h5.992c2.55-.277 2.826.587 2.996 1.505 6.288-.91 7.892 1.39 11.98 1.504 9.983.274 20.783-4.006 23.96 1.504 5.96-2.022 14.258-2.867 20.968-4.513 11.677.105 21.078-.144 29.95 0 5.328.086 6.365 1.705 11.982 1.505 2.743-.1 4.534-1.698 8.985-1.505-.959-.042 2.001 1.379 2.996 1.505 1.877.236 4.084-.182 5.984 0 2.358 1.44 14.92-1.876 17.973 0 .142.083-.116 1.502 0 1.504 6.274.08 11.047-3.317 17.974 0 7.716-1.641 14.393-3.801 17.968-7.521 7.442.224 12.432-.779 14.977-3.009 11.303 1.842 19.915 5.041 35.94 4.513.334 2.841 9.905 1.044 8.986 4.513 7.465-1.266 16.048-1.97 26.953-1.505-2.58 5.309 4.821 1.38 11.984 1.505 4.17.07 5.96 1.796 8.985 1.504 8.7-.844 16.581-2.284 14.978-6.017 3.481-.245 5.329.333 5.991 1.505 5.411-1.314 3.627-1.961 11.976-3.01 1.696-.214 3.16-1.515 2.995-1.504 5.875-.365 11.421 3.6 11.981-3.01 2.915.042 2.324 1.842 2.996 3.01 3.48-.245 5.33.333 5.992 1.505 4.839.423 5.153-1.423 8.986-1.505 5.248-1.375 14.942-.517 17.967-3.01 4.454 1.778 13.387 1.303 11.983 6.02 20.61-.327 36.18 1.884 50.916 4.512.925-2.042 7.501-1.248 11.984-1.505.367-3.322 12.7-.64 17.965-1.503 2.358 1.44 14.92-1.875 17.973 0 3.037 1.862 2.254.583 8.988-1.505 1.982-.616 3.867-.825 5.99-1.504.604-.195 2.5.248 2.99 0 .28-.139-.328-1.447 0-1.505 4.61-.804 5.347 1.754 8.987 1.505 3.75-.259 5.113-2.419 8.985-3.009 7.466-1.139 15.605.89 23.965-1.506 2.797-1.1 4.534-2.735 5.984-4.512 9.41 3.971 20.77-.706 26.96-3.009 8.67.49 9.87.886 20.964 1.504 6.335.355 10.77 1.84 14.976 1.505 4.001-.316 4.664-2.81 8.987-3.009 3.931-1.157 23.144-6.85 23.958 0h11.98c-2.367 5.204 3.33 6.35 5.993 9.027 13.621-1.64 17.481-7.59 32.945-4.514 8.852-2.642 23.518-4.863 23.963 3.008 5.278.432 9.274-7.082 11.982-3.008 7.038-2.19 14.27 3.592 23.958 1.505 1.323-.285-.35-1.631 2.995-1.505 4.985.19 5.735.605 5.993 3.008 4.049-1.477 5.984-4.013 8.985-6.017 16.324-.677 24.608 2.683 41.931 1.505 4.483 2.261 5.356 6.336 11.98 7.522 4.311.842 7.307 2.347 8.984 4.514 7.43-.224 14.535-.282 14.977 3.008 3.25-.373 2.03-2.992 5.987-3.008h11.982c4.48-1.762 12.251-1.872 14.975-4.514 2.425.285 2.986 1.51 5.992 1.505 5.697 1.033 14.02 1.025 17.969 3.009 1.832.919-.382 1.106 2.995 1.503 4.552.537 11.57-1.033 11.98 1.505 5.976-2.014 12.985-3.508 14.976-7.522 2.464-.77 9.986 1.003 11.98 0 .204-.103-.219-1.484 0-1.504 1.846-.168 15.951 1.24 17.972 0 .134-.083-.113-1.506 0-1.506 1.997-.013 3.506 1.274 5.99 1.506 1.325.123 3.364.128 5.758.094V0H0z" fill="#F8E9DE" mask="url(#g7di3mtw3b)"/>
    </g>
</svg>
