<svg width="271" height="52" viewBox="0 0 271 52" xmlns="http://www.w3.org/2000/svg" xmlns:xlink="http://www.w3.org/1999/xlink">
    <defs>
        <path id="s28moohrka" d="M0 0h271v52H0z"/>
    </defs>
    <g fill="none" fill-rule="evenodd">
        <mask id="qhs365ubrb" fill="#fff">
            <use xlink:href="#s28moohrka"/>
        </mask>
        <path d="M660.873 46.037v1.504c-2.276-.56-4.424-1.05-6.569-2.233-.263-.144.17-1.13-.062-1.314-.554-.43-2.504.493-3.112.106-.544-.346.365-2.21-.124-2.628-1.861-1.594-4.728-1.636-4.854-3.783-1.868-.575-3.592-1.281-4.79-2.47-4.516.13-3.785 2.267-6.095 2.84-1.98.49-3.246 1.135-4.601 1.472-1.663.411-2.489-.674-3.174-1.209-1.078-.841-4.91.839-6.222.211-3.604-.28-1.546 3.854-4.478 4.1-.394-1.008-.166-2.59-1.68-2.575-.029-.73-1.328-1.448-1.553.053-2.338-.145-5.717.663-6.283-1.103-1.061-2.443-3.603-3.138-4.854-3.783-2.886-1.488-3.06-2.143-4.853-3.783-.797-.73-.924-1.856-1.68-2.575-.377-.36-2.541.291-3.11.105-1.662-.542-3.507-.848-4.727-1.156-2.407-.605-3.867-.961-6.284-1.102-2.325-.137-3.18 1.338-4.601 1.471-2.568.242-3.916-.684-6.285-1.102-1.32-.233-1.071-1.085-1.617-1.261-1.34-.433-3.303.548-4.665.158-2.014-.577-1.985-1.333-3.235-2.522-.398-.38-2.53.33-3.111.105-.208-.08-1.02-.968-1.618-1.261-1.111-.546-2.12-.738-3.172-1.208-2.827-1.265-3.373-2.26-6.345-2.417-3.019-.161-6.26 1.922-9.268 1.63-1.59-.708-1.11 1.23-1.492 1.367-5.421 1.935-13.347-3.917-17.107.581-5.792 1.81-10.132 4.753-18.474 4.574-7.529-.809-5.345 5.956-13.81 4.417-4.019-.87-7.24-1.693-9.266 1.63-1.739.192-2.513-1.827-3.11.105-6.485 1.358-10.589-1.013-14.06-.838.51-.026-.99 1.218-1.492 1.366-1.344.392-3.255-.026-4.665.158-.085.01.137 1.227.062 1.314-.797.912-1.912-1.29-1.617-1.261-5.857-.58-7.26 1.46-10.825 1.684-2.735.17-4.902-1.174-6.282-1.104-5.482.281-10.647 2.252-15.49 1.842-8.1-.687-14.457-6.382-23.576-4.465-1.967-.608-3.078-1.587-4.79-2.47-.854-.439-1.034-.92-1.617-1.26-.257-.151.153-1.109-.064-1.314-.409-.39-2.526.353-3.109.106-.233-.1.138-1.158-.062-1.314-.809-.63-3.397.37-3.174-1.21-8.866-.563-16.937-1.857-23.575-4.462-2.669 1.292-7.739.715-9.205 2.945-4.538.495-4.92-2.81-9.457-2.312-.305 2.713-4.028 2.763-6.033 4.152-.095 2.246-3.832.948-6.158 1.525-.68.168-1.75 1.41-1.493 1.366-2.916.493-6.975.145-9.331.317-2.635.19-4.895 1.798-6.219.211 1.283 3.53-7.378-.692-6.095 2.837-2.89.28-5.156 1.042-6.097 2.84-3.737-1.123-8.008-3.713-9.58-4.939-1.065-.83.145-.796-1.617-1.26-2.179-.576-5.836.988-6.283-1.104-.126-.799-.306-1.547-1.617-1.26l-17.107.58c-2.727 2.851-4.3.074-6.22.212-3.283.233-4.832 1.64-7.714 1.576-1.895-.04-5.92-.725-7.838-1.049-.125-.021.045-1.212-.062-1.314-.282-.268-2.633.146-3.11.106-10.233-.885-16.604-.885-23.263 2.105-2.042-1.759-4.874-.583-7.838-1.05-1.526-.242-1.882-.926-3.174-1.209-1.765-.387-4.462.562-4.728-1.155-2.342 1.75-6.716 2.748-9.205 2.944-1.538.12-.956 1.194-1.493 1.367-.921.293-2.163-.13-3.11.105-1.064.263-1.246 1.292-1.493 1.366-2.436.744-6.454.768-9.269 1.63-2.89.886-6.793 1.373-7.588 4.205-8.947-.296-11.717 2.274-18.662.633-1.46 3.01-5.868 5.855-7.462 6.833-1.394.855-1.675 1.929-2.986 2.734-.679.416-2.036.02-1.492 1.367-8.396.383-8.214.871-13.935 1.789-3.756 2.13-12.04.732-15.425 3.154-2.273-.66-3.892-1.92-4.853-3.782-.331-1.685-2.529-1.133-4.728-1.157-1.367-.015-1.291-1.208-1.617-1.26-2.476-.402-5.268.517-7.775.263-2.041-.206-2.202-1.128-4.729-1.156-.865-.009-1.95-1.255-1.617-1.26-3.713.076-6.732 1.58-9.205 2.943-1.563.213-1.899-1.195-3.173-1.208-1.534-.016-1.08-1.133-1.62-1.26-1.743-.417-4.393.23-6.217.21-1.487-.015-1.139-1.158-1.618-1.261-1.442-.31-3.198.375-4.666.158-2.022-.3-2.214-1.128-4.728-1.156-1.801-.018-.734-.818-1.617-1.261-3.767-1.882-11.887-.417-15.614-.787-.097-.01.028-1.224-.063-1.312-.772-.752-1.999 1.336-1.493 1.365-2.675-.158-5.112-.635-7.837-1.049-3.803-.578-9.31-2.007-11.01-2.259-1.499-.222-3.166.377-4.667.159-.115-.017.04-1.216-.062-1.314-.274-.26-2.644.137-3.11.105-2.195-.147-4.113-.28-5.878-.415V0h662.143v48.005l-1.27-1.968z" fill="#F9EDD5" mask="url(#qhs365ubrb)"/>
    </g>
</svg>
