<?xml version="1.0" encoding="UTF-8"?>
<svg id="Layer_1" data-name="Layer 1" xmlns="http://www.w3.org/2000/svg" xmlns:xlink="http://www.w3.org/1999/xlink" viewBox="0 0 271 72">
  <defs>
    <style>
      .cls-1 {
        mask: url(#mask);
      }

      .cls-2 {
        fill: #fff;
      }

      .cls-3 {
        fill: #f9edd5;
        fill-rule: evenodd;
      }
    </style>
    <mask id="mask" x="-677" y="-7" width="1406" height="79" maskUnits="userSpaceOnUse">
      <g id="mask-2">
        <rect id="path-1" class="cls-2" width="271" height="72"/>
      </g>
    </mask>
  </defs>
  <g id="Page-1">
    <g id="homepage-redesign-2022Q2-desktop" transform="translate(-863.000000, -1075.000000)">
      <g id="Right-Rip" transform="translate(863.000000, 1075.000000)">
        <g class="cls-1">
          <path id="Fill-1" class="cls-3" d="M729-7V58.97c-.95,.11-1.9,.28-2.86,.54-1.51,.4-3.37,.22-5.03,.3-.93-.43-1.77-.76-2.52-1.17-1.24-.67-2.64-.96-4.1-.5-2.1,.66-4.14,.91-6.39,.34-1.56-.4-3.28-.16-4.95-.5-1.83-.37-3.91-.26-5.74,.38-1.41,.49-2.81,.54-4.22,.04-1.37-.49-2.76-.61-4.24-.2-.43,.12-1.02,.26-1.39,.16-2.85-.79-5.84-.4-8.77-.49-1.24-.04-2.45-.11-3.57-.5-1.4-.48-2.82-.54-4.22-.03-.68,.25-1.38,.36-2.09,.42-.03-.85-.28-1.69-.8-2.51-.21-.33-.72-.52-1.22-.37-.63,.19-1.41,.44-1.7,.81-.56,.69-.8,1.48-1.21,2.23-.02,.04-.1,.09-.16,.14-.24,.04-.47,.08-.71,.12-.22,.04-.56,.18-.56,.28,0,.02,0,.04,0,.06-.16,.03-.31,.05-.43,.05-1.06,.02-1.93-.27-2.68-.69-1.06-.6-2.09-.65-3.33-.22-.67,.24-1.48,.06-2.06-.24-1.18-.61-2.34-1.2-3.94-.64-1.44-.45-2.76-.36-4.16,.2-1,.4-2.55-.03-3.16-.68-.25-.27-.51-.56-.63-.86-.29-.77-.49-1.56-.72-2.31-1.41-.96-2.77-1.88-3.58-2.43-1.18-1.24-.37-2.38-1.84-3.06-1.15,.79,.12,1.94-.97,2.74-1.29-.27-1.7-1.09-2.16-1.74-1.02-1.45-2.75-2.2-4.95-2.66-.7-.14-1.39-.29-1.89-.4-3.16,.06-6.11,.11-9.04,.17-.9-.4-1.69-.77-2.51-1.12-1.02-.43-2.05-.84-2.84-1.16-.56-.59-.99-.98-1.31-1.41-.92-1.29-1.28-2.77-3.18-3.72-.35-.17-.59-.53-.68-.83-.29-.97-.9-1.85-1.83-2.6-.4-.32-.65-.94-1.29-.93-4.13,.11-5.95,4.07-9.98,2.27-2.29-1.03-1.68-2.71-2.69-4.18-.33-.48-.63-1.35-1.27-1.17-.54,.14-.16,.74-.76,1.01-.95-.05-1.9-.1-2.7-.14-1.16,.55-2.41,.77-3.14,1.44-.61,.74-.36,1.52-.39,2.29-1.24-.45-2.5-.9-3.74-1.35-.69,.16-1.37,.31-2.15,.49-2.03-.39-4.14-.84-6.39-.56-.24,.03-.5,0-.74,.02-2.15,.12-3.88-.31-4.92-1.6-.58-.73-1.34-1.32-2.45-1.74-.57-.21-1.35,.07-1.46,.61-.06,.29-.1,.58-.15,.88-1.84,.43-3.71,.79-4.89,1.96-.52,.52-1.39,.88-1.91,1.2-1.72,.26-3.28,.31-4.54,.74-1.82,.63-3.32-.29-5.01-.15-1.71,.14-3.4,.18-4.93,.81-1.09,.45-2.3,.4-3.54,.13-1.61-.35-3.27-.62-4.92-.93-.82-.61-1.61-1.2-2.4-1.79-.94,.13-1.87,.25-2.91,.39-3.04-1.73-6.73-2.48-10.68-2.68-1.03-.99-1.99-1.91-2.89-2.79-.32-.04-.59-.13-.74-.08-1.52,.53-2.85,.37-3.95-.46-.64-.47-1.18-1-1.69-1.44-3.61-.42-6.61-1.47-9.51-2.78-1.68,.27-3.08,1.15-4.98,.89-1.53-.39-3.13-.8-4.67-1.19-.54,.09-1,.17-1.47,.23-.47,.06-.94,.1-1.5,.16-.65-.42-1.23-1.03-2.05-1.26-4.22-1.23-8.1-2.88-12.17-4.33-2.5,1.22-4.09,2.78-5.45,4.51-.72,.91-2.16,1.29-3.74,1.23-.95-.04-1.89-.27-2.86-.35-2.16-.18-2.96-1.61-4.87-2.15l-5.8,.21c-1.98,.94-3.73,2.11-6.28,2.38-.43,.05-.84,.34-1.17,.56-1.05,.72-2.24,1.23-3.83,1.27-1.25,.04-2.37,.36-3.48,.72-.66,.22-1.41,.26-2.11,.03-1.37-.45-2.87-.35-4.31-.49-.93-.1-1.87-.38-2.64-.74-1.2-.55-2.29-1.24-2.52-2.27-.22-.99-1.23-1.73-1.88-2.59-.69-.9-1.86-1.46-3.35-1.75-.69-.13-1.37-.3-2.05-.45-1.14,.4-2.21,.64-3.51,.28-1.32-.37-2.76-.56-3.98-.8-1.3-1.39-2.71-2.47-4.82-3.05-.5,.07-.99,.09-1.43,.21-2.57,.65-2.88,.63-4.43-.5-.64-.47-1.24-.96-1.52-1.18-3.13-.75-4.67,.22-5.97,1.5-.25,.03-.51,.09-.73,.06-1.38-.22-2.73-.8-4.15-.07-1.65,.84-3.88,.38-5.61,1.05-.53,.21-.94,.19-1.38-.2-.52-.56-.49-1.49-1.73-1.88-.93-.3-1.51-.78-2.03-1.33-.81-.86-2.11-1.26-3.51-1.64-1.38-.37-2.84-.5-4.2-.85-1.33-.35-1.92-1.38-3.39-1.77-1.34-.35-2.49-1-3.55-1.44-1.94-.06-3.65-.09-5.36-.19-1.2-.06-2.02-.91-1.79-1.73,.17-.6,.26-1.22,.39-1.82-1.53,.06-2.92,.39-3.57,1.33-1.57,2.25-4.26,3.9-6.75,5.67-.46,.33-1.15,.53-1.64,.74-2.76-.42-2.82-.41-4.14,.46-.7,.45-1.33,.94-2.05,1.38-1.44,.88-2.89,.97-4.69,.29-.83-.31-1.48-.84-2.4-.8-1.31,.29-2.55,.45-3.62,.82-1.07,.37-1.92,.99-2.95,1.42-1.44,.6-2.85,1.27-5,1.61-3.2,0-6.87,.62-10.49-.36-.86-.23-1.94-.12-2.92-.11-1.72,.01-3.44,.06-5.27,.1-2.81-1.26-5.73-2.41-9.27-2.7-.63-.05-1.28-.46-1.78-.8-.68-.45-1.22-.98-1.75-1.43-2.01-.33-3.87-.64-5.53-.91-1.56,.57-2.84,1.05-4.15,1.5-.42,.14-.92,.19-1.47,.29-1.71-.27-1.67-2.01-3.19-1.96-1.79,.06-1.52,2.04-3.55,2.48-.62,.14-1.5-.04-1.92,.28-.55,.42-.08,1.11-.86,1.43-3.03,1.21-4.88,3.11-7,4.72-.08,2.36-3.03,3.78-3.65,5.88,.21,.57,.43,1.17,.64,1.74-.38,1.04-1.53,1.69-2.53,2.37-1.33,.89-.99,2.12-1.76,3.11-.22,.28-.49,.56-.81,.79-1.15,.82-2.34,1.63-3.34,2.31-2.21,.27-3.85,1.01-5.94,.94-1.37-.04-2.81,.48-4.15,.85-.64,.18-1.22,.55-1.66,.91-.6,.49-1.04,1.06-1.53,1.59-2.4,.64-5.03,.15-6.57,.63-1.98,.71-2.67,1.73-4.31,1.81-.71-.1-1.43-.21-2.2-.32-.14,.05-.3,.1-.44,.14-.46-.2-.94-.38-1.33-.63-.86-.55-1.44-1.28-2.24-1.88-.68-.5-1.7-.6-2.67-.72-1.9-.23-3.01-.99-3.37-2.23-.09-.31-.28-.6-.42-.91-.19,0-.44-.05-.56,0-.7,.37-1.13,.88-2.4,.62-1.83-.37-3.67-.9-5.66-.81-.95,.05-1.2-.39-1.62-.76-.87-.76-2.22-.78-3.3-.39-1.28,.47-2.44,1.06-3.58,1.56-2.35,.08-4.55,.15-6.14,.2-4.88,1.31-9.19,2.46-13.49,3.61h-5.84c-.8-.5-1.5-.93-2.24-1.39-1.35,.34-2.72,.69-4.13,1.05-1.85-.27-3.71-.81-5.9-.22-.52,.35-1.2,.81-2.01,1.35-2.38,.53-4.92,1.09-7.67,1.69-1.28,.79-2.62,1.74-4.14,2.55-1.51,.8-2.95,1.66-4.41,2.48-1.46,.83-3.1,1.55-4.55,2.42-1.2,.72-2.61,.85-4.11,.46-1.14-.3-2.25-.73-3.52-.52-1.17,.19-2.31,.46-3.18,.65-2.41-.54-4.47-1.06-6.59-1.47-1.38-.26-2.84-.36-4.06-.51-.48-.38-.86-.6-1.08-.87-.87-1.07-2.14-1.7-4.04-1.85-.94-.08-1.85-.33-2.74-.5-.9,.36-1.73,.69-2.65,1.06-1.09-.15-2.26-.35-3.44-.49-1.42-.18-2.85-.32-4.43-.49-.91,.38-1.86,.98-2.98,1.2-1.68,.33-3.18,.73-4.6,1.42-1.36,.66-2.94,1.32-4.55,1.51-2.08,.25-3.51,1.09-5.18,1.7-.96-.14-1.91-.27-2.69-.39-1.94,.6-3.72,1.14-5.55,1.7-2.43,.07-4.85,.1-7.17,.84-1.45,.46-2.87-.04-3.87-.88-.48-.41-.66-.9-.31-1.33,.46-.56,1.2-1.02,1.67-1.57,.35-.4,.5-.89,.67-1.35,.14-.39-.52-1.01-1.1-1.11-.52-.09-.99,.01-1.29,.33-1.16,1.24-2.41,2.42-4.87,3.15-1.13,.03-2.6,.03-4.07,.11-1.42,.07-2.83,.23-4.24,.34-1.28-1.31-3.13-1.51-5.2-1.2-.71,.11-1.34,.44-2.04,.53-1.2,.16-2.43,.3-3.64,.28-2.49-.04-4.64-.93-6.99-1.35-.43-.08-.81-.37-1.11-.62-.44-.38-.72-.84-1.2-1.2-.69-.51-1.63-.72-2.66-.53-.71,.13-1.36,.35-2.05,.53-1.5,.4-2.85,.24-4.11-.43-1.31-.7-2.66-1.36-3.97-2.03-.07-.74-.13-1.37-.2-2.01-.04-.32-.01-.66-.19-.95-.17-.27-.53-.58-.91-.67-.38-.1-.95,0-1.36,.11-.95,.27-1.5,.83-1.93,1.4-.36,.48-.97,.86-1.63,.88-4.16,.1-8.34,.57-12.4-.52-1.63-.43-3.5-.5-5.08-.14-2.5,.58-5.15,.87-7.42,2.01-2.12,1.07-4.41,2.01-6.39,3.21-2.64,.6-4.26,2.14-6.3,3.04-2.45,.3-4.57,.33-6.74-.25-2.82-.74-5.73-.73-8.63-.04-1.38,.33-2.78,.61-4.31,.95-.62,.37-1.32,.82-2.07,1.24-.74,.4-1.52,.76-2.16,1.07-2.18-.23-3.89-1.03-5.95-.82-1.99,.2-3.89-.15-5.78-.5-.2-.04-.48,.07-.7,.13-1.64,.48-3.38,.36-5.1,.36-3.45,0-6.94,.17-10.34-.1-2.63-.21-5.19-.9-7.67-1.61-.61-.18-1.58-.2-2.15,0-2.05,.7-4.22,.83-6.45,.78-1.52-.03-2.9,.23-4.27,.65-1.45,.45-2.82,.27-4.11-.4-1.32-.69-2.19-1.76-4.03-1.98-2.78,.23-4.65,1.66-6.77,2.25-1.33-.21-2.27-.4-3.24-.5-3.14-.32-6.21-.86-9.23-1.47-1.79-.36-3.26-.36-4.95,.08-1.11,.29-2.38,.35-3.6,.38-2.44,.07-4.93-.17-7.19,.74-.34,.13-1.04,.08-1.4-.06-1.39-.54-2.86-.09-4.28-.18-2.4-.15-4.46-.25-5.5-.5-1.63-.4-2.42-1.66-4.09-1.69-1.66,.27-3.05,.58-4.49,.69-1.69,.14-3.41,.12-4.65,.15-2.12,.84-3.71,1.61-5.47,2.14-1.99,.6-4.12,1.01-6.21,1.46-.99,.21-1.95,.02-2.82-.33-.82-.34-1.61-.71-2.41-1.07-1.79,.59-3.27-.54-4.99-.37-.72,.07-1.59-.02-2.16,.21-2.88,1.12-5.64,.73-8.45-.11-.88-.26-1.94-.29-2.79-.58-1.38-.46-2.84-.42-4.31-.51-2.29-.14-4.32,.5-6.39,.78-1.45-.29-2.73-.88-4.26-.27-1.36,.54-2.78,.54-4.21,.04-1.6-.55-3.28-.61-5.39-.27-1.24,.67-2.75,1.48-4.19,2.25-1.7,.39-3.28,.87-4.94,1.12-1.42,.21-2.95,.29-4.39,.19-1.74-.11-3.23,.88-5.25,.3-1.79-1.58-4.55-1.29-7.2-1.12-1.72,.33-2.6,1.58-4.5,1.59-3.48-.72-3.54-1.35-7.33,.69-.18,.1-.43,.15-.64,.23-1.45,.38-2.8-.79-4.26-.11-1.22-.16-2.31-.46-3.15-1.06,.17-.71,1.03-1.08,1.64-1.56,.47-.36,.92-.74,1.35-1.12,.31-.27-.26-.92-.97-1.12-.5-.14-.86,0-1.18,.33-.25,.26-.59,.5-.93,.77-1.35,.27-2.74,.56-4.21,.85-1.2-.46-2.37-1.11-3.73-1.38-2.06-.42-4.25-.57-6.56-.86-.51,.5-.97,1.08-1.61,1.54-.44,.31-1.14,.48-1.65,.68-1.19-.51-2.21-.94-3.42-1.47-1.58,0-3.3,.02-5.01,0-1.96-.02-3.92-.08-5.73-.11-1.38-.62-2.6-1.16-3.76-1.68-1.29-.1-2.51-.2-3.92-.32-.66-.32-1.48-.68-2.22-1.09-1-.55-2.27-.57-3.4-.85-.89-.22-1.66-.66-2.44-1.05-1.76-.86-3.66-.9-5.58-.38-1.81,.49-3.6,1.02-4.98,2.01-.98,.71-2.07,1.38-3.21,1.98-.77,.41-1.79,.56-2.79,.35-1.16-.24-2.29-.55-3.53-.85-2.3,.5-4.67,.92-6.91,1.53-1.32,.36-2.37,.07-3.52-.15-2.34,.46-4.68,.91-6.88,1.35-.84-.15-1.53-.27-2.34-.42-1.47,.81-2.95,1.64-4.25,2.36-1.27,.09-2.26,.2-3.05-.34-.67-.45-1.23-1.04-2.04-1.33-2.13-.77-4.18-1.7-6.99-1.97-3.41,1.22-7.31,1.06-11.08,.79-1.39-.61-2.61-1.15-3.81-1.68-1.76-.09-3.47-.17-5.24-.26-.99-.47-1.91-1.02-2.98-1.4-1.05-.37-2.24-.57-3.47-.87-.53-.71-1.08-1.42-1.6-2.14-.09-.13-.07-.32-.01-.5,.09-.26,.76-.52,.48-.71-2.14-1.54-7.28-1.72-9.12-.03-.52,.48,.75,1.02,.39,1.37-.43,.41-1.77,.65-2.66,.37-.37-.12-.92-.38-.97-.8-.05-.39,.51-.79,.94-1.12,.14-.1,.45-.12,.45-.23-.05-1.46-4.11-2.25-6.07-1.65-.05,.02-.09,.1-.04,.13-1.62-1.09-4.23-.59-6.27-.73-1.68,.48-3.25,.93-4.76,1.37-1.17-.49-2.19-.91-3.33-1.39-.64,.11-1.37,.17-2.01,.37-1.4,.43-2.87,.37-4.34,.42-1.55,.06-2.8-.71-4.21-.69-1.41,.01-2.81,.52-4.24,.63-.93,.07-2-.05-2.86-.3-2.9-.83-5.7-.81-8.56,.04-1.46,.43-2.85,.18-4.21-.33-1.08-.4-2.09-.78-2.76-1.52-.37-.42-1.11-.59-1.9-.47-.47,.07-1.03,.33-1.41,.24-2.61-.64-5.32-.45-8.01-.51-.73-.02-1.59,.04-2.17-.19-2.25-.9-4.78-.65-6.79-.85-2.47-.5-4.24-1.47-6.34-1.66-.83,.14-1.52,.25-2.11,.35-3.67-1.44-7.23-2.84-10.83-4.25-1.91-.35-3.69,.77-5.67,.29-1.85,.41-3.7,.84-5.58,1.21-.4,.08-.92-.06-1.5-.11-.8-.55-1.24-1.3-1.82-2-.48-.56-.81-1.17-1.29-1.73-.59-.68-.24-1.61-1.52-2.17-.49,.3-1.29,.57-1.46,.95-.57,1.25-1.32,2.34-3.08,3.13-.75,.34-1.12,1.04-2.08,1.29-1.14,.3-2.23,.71-3.41,.87-1.18,.16-2.21,.71-3.51,.54-.71-.09-1.6-.39-2.12-.21-2.31,.77-4.78,.69-7.22,.7-1.75,0-3.42,.16-5,.67-.62,.2-1.55-.11-1.84-.52-.41-.57-.34-1.28-1.33-1.76-1.48-.34-3.08-.72-4.69-1.07-.21-.05-.49,0-.69,0-.45,.19-.97,.3-1.25,.54-.88,.76-1.53,1.66-2.55,2.32-1.03,.66-2.44,1.05-3.61,1.63-1.16,.58-2.22,1.26-3.08,1.75-3.21,.45-5.84,1.49-8.93,1.29-.68-.05-1.47,.16-2.1,.38-1.66,.58-3.26,.59-4.91-.02-1.12-.42-2.39-.54-3.54-.14-2.65,.91-5.18,.83-7.71-.17-.63-.25-1.32-.43-2.01-.61-.44-.11-.93-.15-1.4-.23-1.21,.03-2.19,.78-3.71,.43-.41-.21-1.07-.46-1.54-.81-.96-.72-1.81-1.49-2.72-2.24-.41,.12-.93,.18-1.22,.37-1.23,.79-1.44,2.05-2.91,2.74-1.6,.74-3.23,1.44-4.79,2.21-1.01,.5-2.05,.84-3.3,1-.7,.09-1.43,.29-1.98,.58-2.71,1.44-5.9,2.27-9.02,3.18-.79,0-1.54,.02-2.27,0-4.14-.11-8.38,.46-12.37-.81-.62-.19-1.45-.12-2.19-.12-3.2-.01-6.4,0-9.47,0-1.71,.69-3.3,1.32-4.84,1.97V-7H729Z"/>
        </g>
      </g>
    </g>
  </g>
</svg>