<svg width="271" height="52" viewBox="0 0 271 52" xmlns="http://www.w3.org/2000/svg" xmlns:xlink="http://www.w3.org/1999/xlink">
    <defs>
        <path id="0cfvwql4fa" d="M0 0h271v52H0z"/>
    </defs>
    <g fill="none" fill-rule="evenodd">
        <mask id="n5n6mk0jfb" fill="#fff">
            <use xlink:href="#0cfvwql4fa"/>
        </mask>
        <path d="M371.806 46.037v1.504c-2.276-.56-4.424-1.05-6.569-2.233-.263-.144.17-1.13-.062-1.314-.553-.43-2.503.493-3.111.106-.544-.346.364-2.21-.125-2.628-1.86-1.594-4.727-1.636-4.854-3.783-1.868-.575-3.592-1.281-4.79-2.47-4.516.13-3.784 2.267-6.095 2.84-1.979.49-3.245 1.135-4.601 1.472-1.663.411-2.489-.674-3.174-1.209-1.078-.841-4.91.839-6.222.211-3.604-.28-1.546 3.854-4.478 4.1-.394-1.008-.166-2.59-1.68-2.575-.029-.73-1.328-1.448-1.553.053-2.338-.145-5.717.663-6.283-1.103-1.06-2.443-3.602-3.138-4.853-3.783-2.887-1.488-3.062-2.143-4.854-3.783-.797-.73-.924-1.856-1.68-2.575-.376-.36-2.54.291-3.11.105-1.661-.542-3.506-.848-4.727-1.156-2.406-.605-3.867-.961-6.284-1.102-2.324-.137-3.18 1.338-4.601 1.471-2.568.242-3.916-.684-6.284-1.102-1.321-.233-1.072-1.085-1.618-1.261-1.34-.433-3.303.548-4.664.158-2.015-.577-1.986-1.333-3.236-2.522-.397-.38-2.53.33-3.111.105-.208-.08-1.02-.968-1.617-1.261-1.112-.546-2.12-.738-3.173-1.208-2.827-1.265-3.373-2.26-6.345-2.417-3.018-.161-6.259 1.922-9.267 1.63-1.59-.708-1.11 1.23-1.493 1.367-5.42 1.935-13.347-3.917-17.107.581-5.792 1.81-10.131 4.753-18.474 4.574-7.528-.809-5.344 5.956-13.81 4.417-4.019-.87-7.24-1.693-9.266 1.63-1.739.192-2.512-1.827-3.11.105-6.484 1.358-10.589-1.013-14.059-.838.51-.026-.99 1.218-1.493 1.366-1.344.392-3.254-.026-4.665.158-.085.01.137 1.227.063 1.314-.797.912-1.913-1.29-1.618-1.261-5.857-.58-7.26 1.46-10.825 1.684-2.734.17-4.902-1.174-6.282-1.104-5.481.281-10.646 2.252-15.49 1.842-8.1-.687-14.457-6.382-23.576-4.465-1.967-.608-3.078-1.587-4.79-2.47-.854-.439-1.033-.92-1.617-1.26-.257-.151.153-1.109-.064-1.314-.408-.39-2.526.353-3.108.106-.234-.1.138-1.158-.063-1.314-.808-.63-3.397.37-3.173-1.21-8.867-.563-16.937-1.857-23.575-4.462-2.67 1.292-7.74.715-9.206 2.945-4.537.495-4.92-2.81-9.456-2.312-.306 2.713-4.028 2.763-6.034 4.152-.095 2.246-3.831.948-6.158 1.525-.679.168-1.75 1.41-1.492 1.366-2.917.493-6.976.145-9.332.317-2.634.19-4.894 1.798-6.219.211 1.283 3.53-7.378-.692-6.095 2.837-2.89.28-5.156 1.042-6.097 2.84-3.737-1.123-8.008-3.713-9.58-4.939-1.065-.83.145-.796-1.617-1.26-2.178-.576-5.835.988-6.282-1.104-.127-.799-.307-1.547-1.618-1.26l-17.107.58c-2.727 2.851-4.3.074-6.22.212-3.283.233-4.832 1.64-7.714 1.576-1.894-.04-5.919-.725-7.837-1.049-.125-.021.045-1.212-.063-1.314-.281-.268-2.633.146-3.11.106-10.233-.885-16.604-.885-23.263 2.105-2.042-1.759-4.874-.583-7.838-1.05-1.526-.242-1.882-.926-3.173-1.209-1.766-.387-4.462.562-4.728-1.155-2.342 1.75-6.717 2.748-9.206 2.944-1.538.12-.956 1.194-1.492 1.367-.922.293-2.164-.13-3.11.105-1.064.263-1.247 1.292-1.493 1.366-2.437.744-6.454.768-9.27 1.63-2.89.886-6.793 1.373-7.588 4.205-8.947-.296-11.716 2.274-18.662.633-1.46 3.01-5.867 5.855-7.462 6.833-1.394.855-1.675 1.929-2.985 2.734-.68.416-2.037.02-1.493 1.367-8.395.383-8.213.871-13.935 1.789-3.756 2.13-12.04.732-15.425 3.154-2.273-.66-3.892-1.92-4.852-3.782-.332-1.685-2.53-1.133-4.73-1.157-1.366-.015-1.29-1.208-1.615-1.26-2.477-.402-5.269.517-7.775.263-2.042-.206-2.203-1.128-4.73-1.156-.864-.009-1.95-1.255-1.617-1.26-3.713.076-6.732 1.58-9.205 2.943-1.563.213-1.899-1.195-3.173-1.208-1.533-.016-1.08-1.133-1.619-1.26-1.743-.417-4.394.23-6.218.21-1.487-.015-1.139-1.158-1.618-1.261-1.442-.31-3.198.375-4.666.158-2.022-.3-2.213-1.128-4.727-1.156-1.802-.018-.735-.818-1.618-1.261-3.767-1.882-11.887-.417-15.614-.787-.097-.01.029-1.224-.062-1.312-.773-.752-2 1.336-1.493 1.365-2.676-.158-5.112-.635-7.837-1.049-3.804-.578-9.311-2.007-11.01-2.259-1.5-.222-3.167.377-4.667.159-.116-.017.04-1.216-.063-1.314-.273-.26-2.643.137-3.11.105-2.195-.147-4.113-.28-5.878-.415V0h662.144v48.005l-1.271-1.968z" fill="#F9EDD5" mask="url(#n5n6mk0jfb)"/>
    </g>
</svg>
