<?xml version="1.0" encoding="UTF-8"?>
<svg width="1400px" height="68px" viewBox="0 0 1400 68" version="1.1" xmlns="http://www.w3.org/2000/svg" xmlns:xlink="http://www.w3.org/1999/xlink">
    <!-- Generator: sketchtool 64 (101010) - https://sketch.com -->
    <title>D2EC4C65-D97A-4CE6-A339-3ED9BC7D2B24</title>
    <desc>Created with sketchtool.</desc>
    <defs>
        <polygon id="path-1" points="0 0.793103448 1400 0.793103448 1400 67.7931034 0 67.7931034"></polygon>
    </defs>
    <g id="Page-1" stroke="none" stroke-width="1" fill="none" fill-rule="evenodd">
        <g id="isa-pwyc-landing-page" transform="translate(0.000000, -1955.000000)">
            <g id="Group-3-Copy-2" transform="translate(0.000000, 1955.000000)">
                <mask id="mask-2" fill="white">
                    <use xlink:href="#path-1"></use>
                </mask>
                <g id="Clip-2"></g>
                <path d="M0,0.793103448 L0,66.9576072 C0.943793103,67.0669018 1.8912069,67.2369155 2.84827586,67.494365 C4.34844828,67.8938973 6.20344828,67.7141685 7.86051724,67.7931034 C8.78982759,67.3632115 9.62258621,67.0292558 10.3648276,66.6224372 C11.5982759,65.9460252 12.9982759,65.6630737 14.442931,66.1208965 C16.532069,66.7790927 18.5644828,67.0292558 20.802069,66.4572809 C22.3565517,66.0589629 24.0715517,66.2945535 25.7286207,65.9605978 C27.5510345,65.5902107 29.6244828,65.6995052 31.442069,66.3419144 C32.842069,66.8325256 34.2444828,66.8798866 35.642069,66.3771316 C37.007069,65.8889492 38.3913793,65.7638676 39.8637931,66.179187 C40.2934483,66.2957678 40.8836207,66.4439227 41.2481034,66.3419144 C44.0818966,65.5513504 47.0605172,65.9435965 49.9763793,65.8476601 C51.2110345,65.806371 52.4118966,65.7407943 53.5294828,65.3497626 C54.9198276,64.8676521 56.3415517,64.8130048 57.7318966,65.3242606 C58.4089655,65.5732093 59.1077586,65.6812895 59.8162069,65.749295 C59.8487931,64.9004405 60.0913793,64.0576579 60.6139655,63.2330911 C60.8215517,62.9015643 61.3260345,62.7084772 61.8281034,62.862704 C62.4593103,63.0570054 63.2293103,63.3010966 63.5237931,63.6702694 C64.0825862,64.3636827 64.3215517,65.1591043 64.7246552,65.9095937 C64.7427586,65.9545259 64.8236207,66.0018869 64.8827586,66.0456047 C65.1241379,66.084465 65.3546552,66.1233253 65.5912069,66.1646144 C65.8084483,66.1998315 66.1451724,66.3479864 66.1451724,66.4475659 C66.1451724,66.4657816 66.1415517,66.4864261 66.1415517,66.5058563 C66.2972414,66.5337871 66.4493103,66.5544317 66.5712069,66.555646 C67.6236207,66.5726474 68.4901724,66.2896959 69.2384483,65.8658759 C70.2908621,65.2635414 71.3227586,65.2101085 72.5501724,65.6485011 C73.2163793,65.8889492 74.0201724,65.7128635 74.597069,65.4104818 C75.7737931,64.7984322 76.9227586,64.203384 78.5243103,64.7717158 C79.9617241,64.3187505 81.2736207,64.4110437 82.6712069,64.9708748 C83.6644828,65.3691928 85.2068966,64.9429439 85.8151724,64.2871765 C86.0613793,64.0151545 86.3232759,63.7297742 86.4391379,63.4273926 C86.7275862,62.6550443 86.9267241,61.8656946 87.1608621,61.1067046 C88.5668966,60.1449123 89.9186207,59.220766 90.7248276,58.6742932 C91.8955172,57.4295495 91.0941379,56.2916716 92.5544828,55.6055445 C93.6998276,56.3948942 92.4313793,57.5558454 93.5175862,58.3488382 C94.8017241,58.0768162 95.212069,57.2583213 95.6646552,56.6049827 C96.6760345,55.1513649 98.3994828,54.3948036 100.588793,53.9394095 C101.283966,53.7961122 101.976724,53.646743 102.472759,53.5398772 C105.623966,53.6005964 108.555517,53.6528149 111.473793,53.7062478 C112.36569,53.3067154 113.159828,52.9351139 113.973276,52.5878 C114.987069,52.1579081 116.018966,51.7474462 116.799828,51.4268488 C117.352586,50.8366581 117.789483,50.4431977 118.099655,50.0096626 C119.013276,48.7139147 119.36931,47.2335805 121.261724,46.280289 C121.611724,46.1054177 121.845862,45.7483887 121.938793,45.4484359 C122.227241,44.478143 122.839138,43.5965001 123.757586,42.843582 C124.153448,42.5229845 124.400862,41.8963623 125.042931,41.9157925 C129.158448,42.0275158 130.966379,46.002195 134.984138,44.1915483 C137.268793,43.1605362 136.660517,41.4737567 137.663448,39.9958512 C137.990517,39.5149551 138.289828,38.6442417 138.931897,38.8178986 C139.472586,38.9587672 139.09,39.5598873 139.692241,39.830695 C140.634828,39.7796908 141.584655,39.7286867 142.378793,39.6861833 C143.533793,40.2375137 144.776897,40.4573172 145.505862,41.1264428 C146.114138,41.873289 145.863103,42.6529236 145.898103,43.4216288 C147.135172,42.9747354 148.383103,42.5229845 149.617759,42.072448 C150.30931,42.2327467 150.986379,42.3857591 151.757586,42.5618448 C153.782759,42.1708132 155.881552,41.7239198 158.122759,42.0044425 C158.365345,42.031159 158.616379,42.0093001 158.858966,42.0202295 C160.995172,42.1404536 162.724655,41.7129903 163.754138,40.4111706 C164.334655,39.678897 165.084138,39.0826344 166.193276,38.667315 C166.764138,38.452369 167.538966,38.7413924 167.645172,39.2793646 C167.706724,39.568388 167.740517,39.8610546 167.79,40.1585787 C169.617241,40.5884707 171.483103,40.9491427 172.658621,42.1258809 C173.177586,42.6432086 174.044138,43.0063094 174.56069,43.3269068 C176.272069,43.5904282 177.828966,43.6377892 179.076897,44.0688955 C180.892069,44.7003753 182.380172,43.7738002 184.068621,43.9170975 C185.775172,44.0579661 187.458793,44.0931832 188.978276,44.7319492 C190.064483,45.1849145 191.271379,45.1363391 192.498793,44.8643171 C194.103966,44.5097169 195.753793,44.2425524 197.396379,43.9316701 C198.208621,43.3220493 198.999138,42.7282155 199.790862,42.135596 C200.725,42.261892 201.656724,42.3857591 202.688621,42.5254133 C205.71431,40.7912728 209.38569,40.0432122 213.322586,39.8391957 C214.352069,38.8434007 215.299483,37.9241119 216.202241,37.0448978 C216.517241,37.0084663 216.787586,36.9173875 216.938448,36.9683916 C218.45069,37.5027206 219.774655,37.33635 220.876552,36.5044969 C221.515,36.0333159 222.054483,35.5038444 222.560172,35.0605942 C226.159138,34.6355598 229.137759,33.5851175 232.025862,32.2699395 C233.698621,32.5443903 235.097414,33.4187469 236.981379,33.1612975 C238.508103,32.7726945 240.1,32.3622327 241.636379,31.9724154 C242.173448,32.0610655 242.628448,32.1400004 243.099138,32.201934 C243.562586,32.2638676 244.034483,32.3039423 244.596897,32.3622327 C245.242586,31.9444846 245.817069,31.3336494 246.637759,31.0944157 C250.843793,29.8606015 254.707069,28.2053959 258.759828,26.7529925 C261.248448,27.9722342 262.836724,29.5436472 264.182414,31.2765733 C264.898103,32.1910046 266.333103,32.5735356 267.90931,32.511602 C268.856724,32.4715273 269.792069,32.2383655 270.756379,32.1594306 C272.904655,31.9833449 273.706034,30.5406566 275.604483,30.0063275 L281.377069,30.2200592 C283.345517,31.1599924 285.087069,32.3343019 287.632414,32.6075383 C288.058448,32.6573281 288.465172,32.9439227 288.798276,33.1710125 C289.839828,33.8972142 291.032241,34.4048268 292.607241,34.4436871 C293.856379,34.481333 294.971552,34.8019304 296.072241,35.1698888 C296.732414,35.3945498 297.478276,35.4321957 298.177069,35.2002484 C299.538448,34.7509263 301.035,34.8505058 302.471207,34.705994 C303.39569,34.6100577 304.333448,34.3234631 305.104655,33.9640054 C306.301897,33.4114606 307.382069,32.7192616 307.617414,31.6906783 C307.837069,30.6948833 308.841207,29.954109 309.484483,29.0955395 C310.167586,28.1883945 311.333448,27.6297778 312.815517,27.33954 C313.503448,27.2059578 314.176897,27.0395872 314.861207,26.8877892 C315.992069,27.2873215 317.061379,27.5326271 318.357586,27.1707407 C319.67431,26.8039967 321.108103,26.6084808 322.316207,26.3704615 C323.606379,24.9751342 325.01,23.8906892 327.118448,23.3089992 C327.612069,23.3770047 328.103276,23.4037212 328.543793,23.5154445 C331.101207,24.1699975 331.408966,24.1444955 332.951379,23.0163326 C333.591034,22.5475804 334.187241,22.0508973 334.463621,21.8310937 C337.577414,21.0830331 339.112586,22.0557548 340.411207,23.3381444 C340.656207,23.3636465 340.920517,23.4328664 341.140172,23.3988636 C342.512414,23.1754169 343.858103,22.5985845 345.276207,23.3308581 C346.921207,24.1748551 349.14431,23.7085316 350.85931,24.380086 C351.390345,24.5877457 351.798276,24.5683155 352.237586,24.1748551 C352.752931,23.6101665 352.722759,22.682377 353.963448,22.2889165 C354.890345,21.9913924 355.468448,21.5068532 355.985,20.953094 C356.796034,20.0884525 358.089828,19.6913489 359.485,19.3100323 C360.856034,18.936002 362.317586,18.8072773 363.66569,18.4551059 C364.994483,18.1065777 365.575,17.0755656 367.037759,16.6845339 C368.371379,16.3287193 369.520345,15.6838814 370.575172,15.2382024 C372.507414,15.1750544 374.210345,15.1459092 375.910862,15.0511873 C377.104483,14.9868249 377.922759,14.1403992 377.693448,13.314618 C377.526897,12.7098547 377.431552,12.0953763 377.303621,11.4881843 C378.823103,11.5525466 380.213448,11.8780016 380.857931,12.8179349 C382.417241,15.0742606 385.103793,16.7331092 387.57431,18.5085388 C388.032931,18.8400657 388.720862,19.0367959 389.209655,19.2505275 C391.962586,18.831565 392.01569,18.8412801 393.327586,19.7083503 C394.022759,20.1613156 394.655172,20.6543555 395.368448,21.0939626 C396.803448,21.9792486 398.248103,22.0703274 400.039138,21.3842004 C400.861034,21.0696749 401.516379,20.5414178 402.427586,20.5827069 C403.735862,20.8693015 404.966897,21.0332434 406.031379,21.4012018 C407.094655,21.7715889 407.945517,22.3933536 408.965345,22.8208168 C410.403966,23.4182938 411.800345,24.0959201 413.943793,24.4383764 C417.134828,24.4310901 420.786897,25.0637842 424.393103,24.0801331 C425.245172,23.8469714 426.327759,23.9611235 427.304138,23.965981 C429.013103,23.9781248 430.732931,24.029129 432.546897,24.0655605 C435.34569,22.802601 438.25431,21.6513649 441.782069,21.3586983 C442.413276,21.3076942 443.055345,20.896018 443.552586,20.5584192 C444.229655,20.1078827 444.763103,19.5723393 445.296552,19.1242316 C447.296379,18.7902759 449.153793,18.4830367 450.802414,18.2085859 C452.353276,18.7781321 453.630172,19.2626713 454.93,19.7119935 C455.347586,19.852862 455.842414,19.8977942 456.396379,20.00466 C458.100517,19.7387099 458.057069,17.9839249 459.56931,18.0385722 C461.35431,18.098077 461.085172,20.0848094 463.10069,20.5207733 C463.719828,20.6592131 464.591207,20.4758411 465.012414,20.801296 C465.557931,21.2239017 465.087241,21.9124575 465.871724,22.2306261 C468.887759,23.4437958 470.73069,25.3528076 472.842759,26.9655097 C472.927241,29.33113 475.862414,30.7580313 476.476724,32.8674165 C476.267931,33.4357483 476.05069,34.0453691 475.841897,34.6137009 C476.222069,35.6532136 477.366207,36.3101955 478.36069,36.9890362 C479.684655,37.8816085 479.345517,39.1166371 480.117931,40.1051458 C480.337586,40.3893117 480.603103,40.6674056 480.928966,40.9017818 C482.077931,41.727563 483.263103,42.5363428 484.251552,43.2224698 C486.452931,43.4969206 488.082241,44.231623 490.164138,44.1648319 C491.525517,44.1198996 492.961724,44.6481567 494.292931,45.0209727 C494.930172,45.2019159 495.507069,45.5710887 495.943966,45.9354039 C496.541379,46.4296582 496.974655,47.0004188 497.469483,47.5347478 C499.861552,48.1795857 502.481724,47.6889745 504.012069,48.1662275 C505.981724,48.8742134 506.672069,49.8979392 508.305,49.9829461 C509.013448,49.8785091 509.72431,49.7740721 510.491897,49.6635631 C510.633103,49.7121385 510.787586,49.7594994 510.932414,49.805646 C511.392241,49.6089158 511.871379,49.423115 512.255172,49.1729519 C513.113276,48.6191928 513.691379,47.8857048 514.485517,47.2894422 C515.160172,46.7891159 516.176379,46.6871077 517.14431,46.5693124 C519.039138,46.3361506 520.142241,45.5747318 520.497069,44.3336313 C520.588793,44.0239633 520.771034,43.728868 520.915862,43.4228432 C521.101724,43.4228432 521.356379,43.371839 521.468621,43.4313439 C522.168621,43.8005166 522.593448,44.3166299 523.854655,44.0543229 C525.68069,43.6802926 527.507931,43.1520355 529.490862,43.2455431 C530.435862,43.2929041 530.68931,42.8508683 531.10569,42.4804811 C531.972241,41.7154191 533.31431,41.6947746 534.388448,42.0930926 C535.662931,42.5618448 536.822759,43.1556787 537.95,43.6584337 C540.287759,43.7361543 542.485517,43.8102317 544.065345,43.8636646 C548.927931,45.1739851 553.218448,46.3312931 557.49569,47.4813149 L563.308103,47.4813149 C564.105862,46.9834174 564.797414,46.5474535 565.539655,46.0859875 C566.884138,46.4296582 568.252759,46.7806152 569.655172,47.1400729 C571.501724,46.8644077 573.347069,46.32765 575.530345,46.9166262 C576.04931,47.270012 576.723966,47.7278348 577.527759,48.2682358 C579.893276,48.7952785 582.424138,49.3575383 585.167414,49.9671591 C586.441897,50.7637951 587.776724,51.7134435 589.292586,52.5222233 C590.798793,53.32736 592.226552,54.1835008 593.68569,55.0104963 C595.137586,55.8387063 596.768103,56.5697655 598.215172,57.4356214 C599.413621,58.1533224 600.816034,58.288119 602.305345,57.8995161 C603.436207,57.5995632 604.542931,57.1684569 605.815,57.377331 C606.978448,57.5655605 608.115345,57.8436545 608.978276,58.0282408 C611.38,57.4829824 613.426897,56.9644404 615.537759,56.5564073 C616.916034,56.2928859 618.370345,56.1908777 619.584483,56.0415084 C620.061207,55.6614062 620.440172,55.4403883 620.659828,55.1671519 C621.526379,54.0936363 622.794828,53.4645854 624.678793,53.3152161 C625.614138,53.2399243 626.521724,52.986118 627.408793,52.8173186 C628.305517,53.1779907 629.129828,53.5119463 630.049483,53.8811191 C631.13931,53.7256779 632.302759,53.5338053 633.475862,53.3856504 C634.892759,53.2059215 636.31569,53.065053 637.883448,52.8913961 C638.793448,53.2727127 639.734828,53.8726184 640.852414,54.0936363 C642.521552,54.4227344 644.016897,54.8271243 645.431379,55.5193233 C646.78069,56.182377 648.356897,56.8478595 649.960862,57.0348746 C652.036724,57.2838234 653.460862,58.1278203 655.121552,58.7447275 C656.081034,58.6050733 657.018793,58.4727054 657.804483,58.3585533 C659.739138,58.9560303 661.509655,59.5037175 663.326034,60.0586911 C665.743448,60.1315541 668.156034,60.1619137 670.461207,60.8978305 C671.902241,61.3556533 673.320345,60.8541127 674.312414,60.0149732 C674.790345,59.6081546 674.973793,59.1139002 674.620172,58.6779363 C674.157931,58.1193196 673.426552,57.6554249 672.955862,57.1016658 C672.61069,56.6960615 672.462241,56.2127366 672.293276,55.752485 C672.15569,55.3614533 672.806207,54.7384743 673.38431,54.6413236 C673.906897,54.5538879 674.365517,54.6534674 674.666034,54.9692073 C675.821034,56.2127366 677.061724,57.3931179 679.517759,58.1241772 C680.642586,58.152108 682.108966,58.1557512 683.56569,58.2334718 C684.980172,58.3075492 686.386207,58.4593472 687.792241,58.5759281 C689.067931,57.2643932 690.913276,57.0652342 692.966207,57.3688303 C693.671034,57.4756961 694.296207,57.8096517 694.999828,57.9031593 C696.189828,58.0598148 697.416034,58.2006834 698.621724,58.1800389 C701.098276,58.1387498 703.245345,57.2425343 705.579483,56.8235718 C706.00431,56.7446368 706.388103,56.4556134 706.685,56.2054503 C707.126724,55.8253481 707.398276,55.3590246 707.878621,54.9995669 C708.565345,54.4870968 709.50431,54.2794371 710.524138,54.4676666 C711.230172,54.5963913 711.883103,54.8161949 712.563793,54.9959237 C714.061552,55.401528 715.402414,55.2412293 716.656379,54.563603 C717.959828,53.8629033 719.309138,53.1949921 720.612586,52.5319384 C720.683793,51.7923784 720.738103,51.1536124 720.812931,50.5112032 C720.851552,50.1930346 720.825,49.8493639 721.003621,49.5627692 C721.177414,49.2943903 721.528621,48.9847224 721.912414,48.888786 C722.291379,48.7928497 722.858621,48.8802854 723.267759,49.0005094 C724.215172,49.271317 724.761897,49.8311481 725.186724,50.4055518 C725.540345,50.8840191 726.149828,51.272622 726.805172,51.2920522 C730.944828,51.3964892 735.113448,51.8652415 739.152931,50.7747246 C740.778621,50.3387607 742.640862,50.2768271 744.214655,50.6374992 C746.704483,51.2167604 749.337931,51.5106413 751.598448,52.6485192 C753.714138,53.7208204 755.990345,54.6668256 757.96,55.872709 C760.593448,56.4774723 762.201034,58.0173114 764.234655,58.9256707 C766.671379,59.2256236 768.785862,59.2571976 770.945,58.6791507 C773.748621,57.9335189 776.654828,57.9456627 779.536897,58.6366473 C780.907931,58.964531 782.30431,59.2511256 783.833448,59.5862956 C784.448966,59.960326 785.148966,60.4120768 785.896034,60.8249674 C786.631034,61.2305717 787.411897,61.5863863 788.049138,61.8972686 C790.217931,61.6665356 791.919655,60.861399 793.978621,61.0775593 C795.959138,61.2827902 797.853966,60.9318332 799.73431,60.5748043 C799.929828,60.535944 800.212241,60.6452386 800.431897,60.7071722 C802.063621,61.1904971 803.799138,61.0678443 805.50569,61.0678443 C808.940517,61.0727018 812.412759,61.2390724 815.79931,60.9682648 C818.415862,60.7533188 820.968448,60.0659774 823.438966,59.3531339 C824.047241,59.1758338 825.011552,59.1527605 825.577586,59.3482764 C827.622069,60.0550479 829.777586,60.1764863 831.999483,60.1315541 C833.508103,60.1011945 834.882759,60.3671446 836.247759,60.7861071 C837.688793,61.2330005 839.059828,61.0557004 840.337931,60.3865748 C841.648621,59.6955902 842.522414,58.6172171 844.350862,58.3961992 C847.12069,58.6305754 848.985345,60.0635486 851.087759,60.6513105 C852.416552,60.4400077 853.351897,60.2457062 854.318621,60.1485555 C857.440862,59.8243149 860.505172,59.2814852 863.513966,58.6779363 C865.291724,58.3184786 866.75569,58.3160499 868.442931,58.7544425 C869.544828,59.043466 870.816897,59.1017564 872.026207,59.1369735 C874.456897,59.2086222 876.939483,58.964531 879.18431,59.8777478 C879.519828,60.0125445 880.218621,59.9627547 880.583103,59.8194574 C881.967414,59.2790565 883.433793,59.7259498 884.849483,59.6360854 C887.23431,59.4879305 889.293276,59.3871367 890.322759,59.1369735 C891.942414,58.7398699 892.732931,57.4720529 894.393621,57.4441221 C896.042241,57.7112866 897.432586,58.0209545 898.862759,58.1387498 C900.546379,58.2796183 902.260172,58.256545 903.49,58.2929766 C905.596034,59.1369735 907.179483,59.9068931 908.939138,60.4400077 C910.919655,61.0423422 913.043793,61.4540184 915.122069,61.9009118 C916.106897,62.1146434 917.062759,61.9251994 917.92569,61.573028 C918.740345,61.2330005 919.526034,60.8589702 920.322586,60.4995125 C922.102759,61.0957751 923.575172,59.960326 925.286552,60.127911 C926.004655,60.1983452 926.865172,60.1109096 927.438448,60.3355706 C930.310862,61.4576616 933.055345,61.0642011 935.851724,60.2274905 C936.732759,59.9688266 937.783966,59.9372527 938.632414,59.6482292 C940.009483,59.1831201 941.462586,59.2231948 942.922931,59.1369735 C945.199138,58.996105 947.22069,59.6360854 949.282069,59.9178225 C950.725517,59.6312279 952.002414,59.0325365 953.525517,59.6482292 C954.878448,60.1922733 956.296552,60.1874158 957.713448,59.6931614 C959.301724,59.1394023 960.982931,59.0774687 963.076897,59.4174963 C964.313966,60.0914794 965.812931,60.8990449 967.251552,61.6774651 C968.943621,62.0733543 970.512586,62.5518216 972.169655,62.8007704 C973.57931,63.0120732 975.102414,63.087365 976.542241,62.9962862 C978.275345,62.8833485 979.753793,63.8742859 981.768103,63.2962391 C983.545862,61.7102535 986.293966,62.0004913 988.939483,62.170505 C990.648448,62.505675 991.523448,63.7540619 993.415862,63.7601338 C996.880862,63.0351465 996.941207,62.4036668 1000.71155,64.4474752 C1000.89379,64.5482691 1001.13759,64.6029164 1001.35121,64.6818514 C1002.79466,65.0607392 1004.13552,63.8900729 1005.58983,64.5689136 C1006.80034,64.4086149 1007.89259,64.1050189 1008.72534,63.5087563 C1008.56,62.7922697 1007.70431,62.4255257 1007.08879,61.9446296 C1006.6181,61.5791 1006.17517,61.1989977 1005.7431,60.8164667 C1005.43534,60.5468735 1006.00259,59.897178 1006.71224,59.698019 C1007.20828,59.5571504 1007.57276,59.6907327 1007.88897,60.0307602 C1008.13638,60.2942816 1008.47914,60.5274433 1008.81828,60.8055373 C1010.15914,61.0799881 1011.54948,61.3653684 1013.00862,61.6604637 C1014.20466,61.2038553 1015.37172,60.5505166 1016.72224,60.279709 C1018.77759,59.8583177 1020.95724,59.7065197 1023.25759,59.4174963 C1023.76931,59.9214657 1024.21948,60.4958693 1024.86034,60.9597641 C1025.29845,61.2742896 1025.99362,61.4382314 1026.49931,61.6386048 C1027.68207,61.1273491 1028.69586,60.6925996 1029.90276,60.1667713 C1031.47655,60.1667713 1033.18552,60.1825582 1034.89448,60.1619137 C1036.84724,60.1424836 1038.79638,60.0854075 1040.60431,60.0477616 C1041.98017,59.4259969 1043.18828,58.885596 1044.34448,58.3585533 C1045.62741,58.2541163 1046.84397,58.1533224 1048.24397,58.0403847 C1048.90414,57.7197873 1049.71638,57.3603296 1050.45379,56.9498677 C1051.4519,56.4009661 1052.71069,56.3791072 1053.84397,56.0973701 C1054.72621,55.872709 1055.50103,55.4343164 1056.27586,55.0493566 C1058.02466,54.1835008 1059.92069,54.1482836 1061.83241,54.6704688 C1063.6319,55.1622943 1065.41931,55.6966233 1066.78793,56.6887752 C1067.76793,57.4016186 1068.84448,58.0719587 1069.98379,58.6779363 C1070.75259,59.0883982 1071.76879,59.2377674 1072.76086,59.0288933 C1073.92069,58.7848021 1075.04069,58.4763486 1076.27293,58.1751813 C1078.56603,58.6755076 1080.91948,59.0968989 1083.15103,59.7065197 C1084.46534,60.0696205 1085.51414,59.7720964 1086.65345,59.5547217 C1088.98638,60.0125445 1091.31448,60.4715817 1093.50017,60.9039024 C1094.33414,60.7533188 1095.02207,60.6318804 1095.8319,60.4873687 C1097.29828,61.3034348 1098.76707,62.1304304 1100.0669,62.8542033 C1101.32931,62.9464965 1102.31293,63.0594342 1103.10466,62.5178189 C1103.76966,62.0624248 1104.32845,61.4770917 1105.13466,61.1819964 C1107.25879,60.4072193 1109.29845,59.4782155 1112.09966,59.2013359 C1115.49586,60.4242207 1119.37603,60.2627076 1123.13552,59.9967575 C1124.51741,59.3834935 1125.73397,58.8467357 1126.92759,58.3160499 C1128.68241,58.2286142 1130.38534,58.1472505 1132.14138,58.0598148 C1133.12983,57.5849906 1134.04707,57.0348746 1135.11276,56.6596299 C1136.15431,56.2855996 1137.34793,56.0864406 1138.57172,55.7901309 C1139.09672,55.0772875 1139.64224,54.3632296 1140.16,53.6430998 C1140.24931,53.5083032 1140.22759,53.321288 1140.17328,53.1391304 C1140.08759,52.8828954 1139.42138,52.6205884 1139.69293,52.4262869 C1141.82431,50.8864479 1146.93914,50.6982184 1148.77845,52.3959273 C1149.30103,52.8768235 1148.03621,53.4172244 1148.38983,53.7681814 C1148.81707,54.181072 1150.15069,54.4166625 1151.03414,54.1361398 C1151.40345,54.0183445 1151.94655,53.7596807 1151.99603,53.3322175 C1152.04552,52.938757 1151.48431,52.5392247 1151.05828,52.205269 C1150.92069,52.100832 1150.60931,52.0874738 1150.60931,51.9708929 C1150.66,50.5039169 1154.70552,49.7097097 1156.65828,50.3169018 C1156.71138,50.3363319 1156.75121,50.4128381 1156.70293,50.4456265 C1158.31534,49.3551095 1160.91862,49.8554358 1162.94259,49.7145672 C1164.61776,50.1978921 1166.17466,50.6484286 1167.67845,51.0856069 C1168.83948,50.5974245 1169.86052,50.1699613 1170.99259,49.6951371 C1171.63103,49.805646 1172.36,49.8639365 1172.99483,50.0630955 C1174.38879,50.4966306 1175.84914,50.4322682 1177.31672,50.4857011 C1178.85914,50.5439916 1180.10586,49.7777152 1181.5119,49.7910734 C1182.92034,49.805646 1184.30707,50.3108298 1185.73603,50.4261963 C1186.6581,50.5002738 1187.72379,50.3751922 1188.57948,50.1250291 C1191.46759,49.2883184 1194.2519,49.3162492 1197.10259,50.1699613 C1198.55448,50.602282 1199.93879,50.3472614 1201.29534,49.8408632 C1202.36586,49.4401164 1203.37603,49.0539423 1204.03862,48.313168 C1204.41155,47.8929911 1205.14293,47.7241917 1205.93103,47.8432013 C1206.40172,47.9160644 1206.95931,48.1747282 1207.33345,48.0848638 C1209.9319,47.4412402 1212.63052,47.6294697 1215.30862,47.5699649 C1216.03155,47.5541779 1216.89328,47.6063964 1217.46534,47.3768778 C1219.70655,46.4770192 1222.22655,46.7223248 1224.23121,46.5255946 C1226.69448,46.0191964 1228.44931,45.0525466 1230.54328,44.8558164 C1231.36759,44.9930418 1232.05552,45.1108371 1232.64207,45.2092022 C1236.30138,43.7652995 1239.84603,42.3626858 1243.42931,40.946714 C1245.32897,40.5921138 1247.10793,41.7239198 1249.07276,41.2357374 C1250.91931,41.6449848 1252.755,42.0760912 1254.62569,42.4464783 C1255.02759,42.5278421 1255.5369,42.3906167 1256.11983,42.3396125 C1256.91517,41.7919253 1257.35328,41.035364 1257.93379,40.3383075 C1258.41052,39.7784765 1258.74362,39.1615693 1259.22155,38.6078102 C1259.81172,37.9301839 1259.45931,36.9963225 1260.73862,36.4292051 C1261.22259,36.7303724 1262.02034,36.9963225 1262.19534,37.3788535 C1262.76741,38.6333122 1263.50845,39.7299011 1265.25724,40.5192508 C1266.00069,40.8592783 1266.37121,41.5575492 1267.3319,41.8149986 C1268.46397,42.1149515 1269.55621,42.5278421 1270.7281,42.6881408 C1271.90724,42.8460107 1272.9319,43.403413 1274.22448,43.2333993 C1274.93293,43.1398917 1275.82121,42.8460107 1276.33052,43.0184533 C1278.63207,43.7908016 1281.0881,43.7118666 1283.52362,43.7203673 C1285.26397,43.7264392 1286.92466,43.8782372 1288.50569,44.3967792 C1289.12121,44.5971526 1290.04931,44.2850559 1290.34138,43.8770228 C1290.75052,43.3074767 1290.67569,42.5909901 1291.66414,42.1149515 C1293.14138,41.7724952 1294.73569,41.3972505 1296.33724,41.0390072 C1296.55086,40.988003 1296.82121,41.0305065 1297.02517,41.0305065 C1297.47414,41.2175216 1297.99431,41.3341025 1298.2731,41.5721218 C1299.15293,42.3323262 1299.79259,43.2418999 1300.81362,43.9000961 C1301.83586,44.5607211 1303.24793,44.9505384 1304.40655,45.5334428 C1305.56155,46.1151327 1306.61276,46.7927591 1307.4769,47.2918709 C1310.67517,47.7411931 1313.29052,48.7867778 1316.3681,48.58519 C1317.04397,48.5390434 1317.82724,48.7430599 1318.45724,48.9640779 C1320.11431,49.5469822 1321.70741,49.5579117 1323.34276,48.9482909 C1324.46276,48.528114 1325.71914,48.4091043 1326.86328,48.8074223 C1329.50155,49.7182104 1332.01672,49.6368467 1334.53914,48.6386229 C1335.16431,48.3908886 1335.85103,48.2050878 1336.53897,48.0290021 C1336.98069,47.9160644 1337.46466,47.8772041 1337.93293,47.8019123 C1339.13741,47.8347006 1340.11138,48.5839756 1341.63207,48.2366618 C1342.03759,48.0253589 1342.69414,47.7764102 1343.16483,47.4205957 C1344.12431,46.7016803 1344.97034,45.9256888 1345.86828,45.1703419 C1346.28103,45.2929947 1346.79276,45.347642 1347.08724,45.5443722 C1348.31586,46.337365 1348.51741,47.6015389 1349.98621,48.2900947 C1351.57931,49.0284402 1353.20621,49.7315686 1354.75586,50.5075601 C1355.75879,51.0103151 1356.80034,51.3503426 1358.03983,51.5142845 C1358.735,51.6041489 1359.46759,51.8033079 1360.01431,52.0984032 C1362.71293,53.5435203 1365.88707,54.3717303 1368.99845,55.2873759 C1369.78897,55.2873759 1370.52759,55.3080204 1371.25655,55.2873759 C1375.38172,55.1732238 1379.59983,55.7439843 1383.57052,54.4785961 C1384.18362,54.2830802 1385.01517,54.3608008 1385.75138,54.3608008 C1388.93397,54.3498714 1392.12621,54.3559433 1395.18086,54.3559433 C1396.88259,55.050571 1398.46603,55.6759788 1400,56.3317462 L1400,0.793103448 L0,0.793103448 Z" id="Fill-1" fill="#FBF7F4" mask="url(#mask-2)"></path>
            </g>
        </g>
    </g>
</svg>