<svg xmlns="http://www.w3.org/2000/svg" width="1400" height="112" viewBox="0 0 1400 112">
    <g fill="none" fill-rule="evenodd">
        <g fill="#F8E9DE">
            <path d="M0 3275.428v-12.024c2.916-.632 5.55-1.486 7.704-2.712 18.245-2.942 17.662-4.507 44.434-5.733-1.736-4.314 2.592-3.045 4.76-4.379 4.177-2.58 5.075-6.022 9.52-8.759 5.083-3.134 19.141-12.253 23.794-21.896 22.147 5.26 30.977-2.975 59.51-2.028 2.533-9.072 14.976-10.633 24.195-13.471 8.977-2.765 21.789-2.839 29.557-5.226.786-.236 1.369-3.533 4.762-4.375 3.019-.752 6.979.604 9.916-.338 1.711-.55-.144-3.993 4.76-4.378 7.936-.628 21.885-3.826 29.356-9.436.847 5.504 9.446 2.462 15.074 3.705 4.12.904 5.254 3.099 10.12 3.87 9.452 1.5 18.482-2.267 24.992 3.366 21.235-9.578 41.55-9.578 74.181-6.746 1.523.131 9.021-1.196 9.917-.338.343.327-.198 4.142.2 4.21 6.118 1.04 18.952 3.234 24.99 3.362 9.192.201 14.131-4.303 24.601-5.05 6.122-.441 11.139 8.457 19.833-.678 18.183-.619 36.369-1.239 54.551-1.86 4.177-.92 4.757 1.479 5.159 4.037 1.423 6.703 13.087 1.693 20.032 3.535 5.618 1.49 1.759 1.378 5.158 4.041 5.01 3.927 18.632 12.226 30.546 15.824 3-5.761 10.227-8.199 19.442-9.097-4.091-11.31 23.527 2.216 19.436-9.093 4.222 5.086 11.43-.065 19.83-.675 7.513-.55 20.455.563 29.758-1.015-.824.14 2.591-3.84 4.76-4.379 7.415-1.846 19.329 2.31 19.635-4.886 6.394-4.452 18.264-4.61 19.238-13.303 14.465-1.596 15.687 8.995 30.155 7.406 4.677-7.144 20.843-5.294 29.353-9.435 21.17 8.348 46.902 12.494 75.175 14.301-.712 5.058 7.543 1.852 10.122 3.873.639.5-.548 3.889.198 4.21 1.856.793 8.61-1.59 9.912-.337.693.656-.615 3.722.205 4.205 1.86 1.09 2.434 2.636 5.157 4.043 5.458 2.826 9 5.964 15.274 7.913 29.078-6.144 49.348 12.105 75.178 14.305 15.444 1.314 31.915-5.002 49.394-5.901 4.4-.224 11.312 4.079 20.032 3.535 11.366-.718 15.843-7.249 34.517-5.394-.94-.09 2.618 6.96 5.157 4.041.236-.28-.469-4.176-.2-4.21 4.5-.59 10.592.75 14.878-.506 1.599-.476 6.383-4.461 4.761-4.38 11.065-.559 24.152 7.038 44.83 2.687 1.906-6.191 4.371.28 9.917-.337 6.461-10.647 16.732-8.012 29.549-5.224 26.992 4.931 20.027-16.744 44.035-14.152 26.602.575 40.441-8.857 58.909-14.655 11.99-14.411 37.264 4.338 54.549-1.86 1.221-.441-.31-6.648 4.76-4.379 9.593.933 19.927-5.741 29.554-5.223 9.476.504 11.216 3.69 20.232 7.743 3.354 1.504 6.571 2.12 10.115 3.87 1.905.938 4.494 3.783 5.159 4.04.959.371 3.243-.056 5.402-.386v96.132H0z" transform="translate(0.000000, -3164.000000) translate(700.000000, 3219.714231) scale(1, -1) translate(-700.000000, -3219.714231)"/>
        </g>
    </g>
</svg>
