<svg xmlns="http://www.w3.org/2000/svg" width="490" height="43" viewBox="0 0 490 43">
    <g fill="none" fill-rule="evenodd">
        <g fill="#FFF">
            <path d="M945.164 5778.922v-35.736c-.498-.239-1-.566-1.468-.224-.665-.606-1.266-.492-1.874-.664-.743-.028-1.492-.138-2.247-.3-.755-.16-1.513-.373-2.275-.607-1.459.48-3.017-.446-4.576-1.317-1.46.571-3.302-1.441-4.9-1.51-1.74-.697-3.59-2.874-5.176-2.418-.732.28-.923 2.41-2.21.337-.589.495-1.121 1.179-1.662 1.97-.885 2.192-1.99 3.074-3.19 2.397-1.193-.64-2.164.654-3.208.772-1.026.446-2.113 0-3.151-.273-.951-.808-1.914-2.105-2.888-2.234-.923-.978-1.978.54-2.932-.204-.933-.694-1.859 1.288-2.734-.295-.475-.023-.91 1.38-1.378 1.25-.36 1.364-.898.217-1.26 1.284-.443-.008-.857.245-1.25.655-.393.41-.762.97-1.12 1.582-.41.236-.767.902-1.237.71-.46-.128-.824.607-1.266.685-.682-.088-1.36-.206-1.987.397-.668.048-1.315.315-1.987.166-.69-.418-1.365-.684-1.982-.148-.646.145-1.318-.155-1.972-.198-.876-.064-1.695-.082-2.482.327-.796.312-1.622.102-2.43.815-.408.33-.852.279-1.344-.223-.476-.263-1.002-1.004-1.506-1.078-.485-.471-.923-.357-1.378-.518-.45-.125-.895-.208-1.337-.273-.892-.256-1.77-.423-2.644-.342-.92-.59-1.8-.425-2.755-.952-1.305.304-2.654-.01-4.039-.568-1.332.22-2.764-.729-4.17-.649-.704-.309-1.336.214-2.043-.126-.647.235-1.377-.26-1.997.184-.692-.149-1.31.268-2.033-.022-.628.351-1.335.238-2 .417-.678-.376-1.134.466-1.96-.686-.814-.977-1.38-.713-1.946-.443-.695-.34-1.265-.066-1.91-.166-.603.116-1.105.703-1.825.265-.7-.334-1.244.139-1.803.552-.492.712-1.172.63-1.75 1.057-.641.162-1.073 1.275-1.731 1.354-.648.139-1.081 1.402-1.875.674-.66.044-1.278.267-1.93.385-.668.062-1.353.055-2.11-.243-.779-.408-1.449-.411-2.072-.2-.76-.53-1.21.68-2-.121-.663-.15-1.313-.208-1.962-.27-.616.227-1.3-.148-1.932-.026-.726-.764-1.288.147-1.944.186-.677-.143-1.317.283-1.998.148-1.321.235-2.61.91-3.97.195-.932.575-1.817 1.08-2.664 1.524-.821.84-1.665.825-2.514.408-.816.062-1.612.06-2.433-.476-.56.416-1.232-.909-1.8-.742-.561.27-1.162-.064-1.8-.92-.53-.304-1.045-.405-1.552-.37-.501.11-1.028-.139-1.52.14-.53-.309-1.066-.68-1.596-.946-.529-.266-1.052-.428-1.557-.317-1.044-.242-2.11-.75-3.23-1.973-1.09-.767-2.171-1.33-3.3-2.355-.572-.632-1.126-1.038-1.665-1.34-.533-.487-1.04-.31-1.55-.654-.546.839-1.068 1.083-1.565 1.11-.493 0-.962.041-1.41.22-.441.225-.842.033-1.23-.052-.381-.286-.753-.204-1.118-.268-.557-.238-1.107-.35-1.69-.545-.653-.518-1.168-.011-1.815-.067-.706-.241-1.062 1.449-1.732 1.934-.723.919-2.044 2.554-3.788 3.751-.293-.155-.67-.352-1.395-.18-.5-.14-1.335.098-2.079.127-.763.075-1.474-.05-2.329.06-1.019.85-1.557-.284-2.465-.11-.756-.607-1.66-.489-2.487-.75-.801-.638-1.61-.754-2.37-.963-.438-.252-.888-1.413-1.41-.668-.512.07-1.053.3-1.605.236-.554-.125-1.148.244-1.77.916-.62.483-.213 2.004-1.735 1.393-.48-.403-.648.198-.6.717.172.4-1.155-.526-.15.766-.796.247 1.235 1.003-.663 1.092-.216.35-.18.702-.816 1.044-.42.367-2.443.82-2.317 1.15.279.388-1.1.861-2 1.233-.585.335-1.368.5-1.668.865-.44.272-.866.527-1.289.77-.457.23-.92.454-1.39.68-1.008.394-2.264 1.179-3.843 2.192-.598.012-1.143.01-1.655 0-.461-.043-.914-.089-1.367-.132-.726-.37-2.555.814-2.958-.288-1.162.04-2.413.448-3.586.516-.758.816-1.4.058-2.082.221-.665.293-1.325.092-1.978.28-.603-.302-1.175-.58-1.81.105-.626.365-1.146.095-1.823.597-.61.08-1.533 1.273-2.174 1.32-.913 1.217-1.648 1.796-2.3 1.429-.75.419-1.398.91-1.941 1.3-.51.279-.976.549-1.408.608-.97.43-1.617.033-3.437 1.283-.956.082-1.79.806-3.247.2.825.94-1.161-.054-.072.995-.327.215-1.099-.12-1.609.421-.703.026-1.792.535-2.355.286-.735-.042-1.51-.004-2.297.16-.778.175-1.52.5-2.176.957-1.404.2-2.043 1.555-3.294 1.827-.425.25-2.136-.18-2.31.232-1.014-.056-2.197-.283-1.878.37-1.132-.246-1.226.08-1.86-.014-.426-.005-.7.093-.957.184-1.139-1.14.002.654-1.038-.113.28.772.061.99-.804.344-.308.166-.706.305-1.432-.331-.522.087-1.082.616-1.867-.227-.859-1.208-1.668 2.359-2.428-.227-.907 3.611-1.686.608-2.68-.9-1.074-.81-1.788-.145-2.419.482-1.072-1.156-1.3.712-2.399-1.262.052 2.65-.314 3.329-1.187 2.114-.231 1.053-.71 1.156-2.08 4.015-.102 3.177-1.59.801-2.3 1.461-.574.455-.623 1.653-.926 2.149-.585.069-1.545-.378-2.248-.5-.237.56-1.194-.036-1.68.187.437 1.32-1.044-.778-.808.643-.343.065-.797-.09-1.211-.195.586 1.767-.346.805-1.008.135-.37-.064-.753-.182-1.111-.228-.698-.05-1.43-.176-2.201-.384-.801-.207-1.704-1.139-2.715-1.011-1.38.38-2.804.516-4.279-.003-1.401.62-2.877.087-4.328-.165-1.423.149-2.836.368-4.282-.01-1.474-1.023-2.803-.112-4.147-.147-1.331-.17-2.648-.344-3.96-.458-1.209-.699-2.323-1.679-3.38-2.767-1.102-2.286-2.186-.903-3.267-1.813-1.153-.604-2.157.154-3.242-.362-1.013.142-2.03-.387-2.978-.543-.468-.143-.928-.286-1.387-.416-.458-.147-.917-.283-1.375-.395-1.525.798-2.964.96-4.299 1.259-1.356-.015-2.578.549-3.809.059-1.167.444-2.41-1.155-3.478-.607-1.148-.644-2.166.185-3.305-.739-.699.288-1.432.08-2.187-.304-.762-.461-1.472-.017-2.23.032-.663.882-1.722-.094-2.8.213-1.077.282-2.307-.131-3.384.855-1.078.944-2.142 1.236-3.067.297-.63-.224-1.216-.275-1.779-.432-.563-.157-1.094-.326-1.596-.506-.998-.271-1.897-.926-2.645-1.211-1.932.46-3.59.525-5.09-.264-1.408.553-2.724-.736-3.82-.82-1.118-.349-2.124-1.131-3.033-1.055-.455.308-.955-.503-1.443-.352-.516-.06-1.046-.086-1.607-.021-1.207.638-2.424-.186-3.92-.381-2.684.017-1.895-1.289-5.444-.725-1.159-.046-.602-.709-1.973-.509.743-1.167-.851-.5-1.495-.62-.235-.515-.986-.154-1.34-.472-.445-.209-.857-.762-1.312-.555-.476-.49-.94-.682-1.385-.85-.444-.188-.862-.37-1.42-1.082-2.871-4.96-2.167-1.088-3.46-2.104-.41 1.761-2.227-.546-2.829 1.898-.922 1.922-2.413 1.364-3.949 2.29-1.738-.275-3.507-.655-5.047-.398-1.423.161-2.834-.27-3.985-.622-1.076-.528-2.145-.929-3.236-1.226-.76-1.27-2.668.909-3.691.33-1.389.285-2.929.867-4.315.661-.581-.655-1.419.06-2.016-.284-.574-.491-1.304-.173-1.973-.157-.57-.521-1.247-.441-1.944-.239-.637-.113-1.277-.22-1.922-.242-.596-.532-1.21-.98-1.872-.631-.612-.665-1.252-.63-1.9-.702-.498-.42-.995-.372-1.536-1.031-.475-1.004-1.02-.298-1.443-.987-.219-1.116-.682-1.089-1.085-1.272-.604.427-.45-1.042-.756-1.278-.17-.37.322-1.193-.555-.944.242-.53-.483-.455-.729-.694.035-.41.068-.918-1.254-.635-.774-.121-1.956-.045-2.043-.718-1.04-.097-2.107-.138-2.67-.842-.834-.533-1.701-1.28-2.85-.595-.85-.398-1.827.156-2.726.368-.94.961-1.583-.123-2.417.403-.387-.195-.767-.311-1.132-.475-.345-.429-.688-.967-1.065-.537-.69-.688-1.352-.716-1.99-.828-.648-.973-1.261-1.294-1.85-1.102-.634-.772-1.293-1.512-1.885-.82-.695-.591-1.314.607-2.1-.062-.764-.084-1.491 1.44-2.42.701-.273-.535-.615-.884-1.013-1.021-.394-.25-.855-.108-1.364.189-.485-.822-1.065.178-1.643.192-.563-.651-1.16.674-1.768-.241-.587-.078-1.169-.24-1.729-.49-.568-.697-1.1-.198-1.617-.797-.946-.261-1.886-.052-2.934-.931-1.033-.644-1.993.38-3.067.404-.52.271-1.07.237-1.595.766-.506.82-1.1.488-1.608 1.616-.553.322-1.155.157-1.777-.115-.672-.993-1.19.467-1.832.208l-.09-.009v35.501h489z" transform="translate(-456 -5736) matrix(1 0 0 -1 0 11515.006)"/>
        </g>
    </g>
</svg>
