<svg id="elements" xmlns="http://www.w3.org/2000/svg" viewBox="0 0 1050 40"><defs><style>.cls-1{fill:#faf3ee;}</style></defs><title>rip-campus-locationpanel1</title><path class="cls-1" d="M0,0V2.16a26.71,26.71,0,0,0,4.8,1C7,5.9,11,4.67,13.23,4.87c3.2-1.47,6.31-2.11,10-.78,2,.28,4,.09,6.17.92,2.46,3,3.22-.56,5.16.61,1.75-.48,4.28,2.32,6.4.54a10.66,10.66,0,0,1,6.27-.67c3.81-.54,8.48.38,12,1.17.93.26,3.91-.17,4.5.46,1.72.37,3.43-.13,5,0a14.2,14.2,0,0,0,4.64.21,34.16,34.16,0,0,0,4.26.72c.43.18-.79.51,1.65.5s-.33.34,3.16.48c.78.19,1,.39,5.76,1.41.46.32,0,.59,2.61,2.09.41,1.54.79,4,2.92,4,2.72-1,2.64,1.8,5.13-1,1.23-.34,1.64.43,2.26,0,2.62-.5,4.44.06,6.44-.36a10.76,10.76,0,0,0,6.75.12c1.29.8,3.57,1.11,6.42,1.85,3.31-.17,7.73-1.2,11.52.5,3.72.45,7,1,10.34,1.41s6.79.83,10.84,1c2.81-.21,5.14-.31,7.17-.34a33.73,33.73,0,0,0,5.37.1c2.09-.43,3.64,1.14,5.85.77,1.12,2.7,3.94.58,5.38,1.71,2.28.48,4.78.6,7.17,1.55,3-.65,5.46.57,8.23,1.79,2.83,1,6.46.63,9.89,1.8,4.95,0,9.69-1.47,13-.38,3.83-.46,7.33-1.6,10.22-2.08s5.31-1.14,7.91-1.62a28.7,28.7,0,0,1,8.69-.39c5.34-.79,8.9-2.76,13.57-3,4,1.6,7.31,3.34,12.16,4.56a12.09,12.09,0,0,0,4.23-.82c1-.32,2.51-.58,7.3-1a12.51,12.51,0,0,0,7-.4c2.55,0,5.7-.1,8,.85,6.9,1,8.11,3.32,11.6,1.13,2.43-.27,4.4.23,10.83.15a15.5,15.5,0,0,0,5.53,1.37c1.85.16,3.87-.29,5.3.54,1.55.67,4.17-1.81,5.23-.21,2.21-1.57,3,.49,5-.92.8,2,2.76.54,4.51-.43,1.11.82,3.29-1.43,4.94-2.27,2.41,0,5.21-1.33,7.05.23,2.24.57,4.84.37,7.79.21,6.45.23,9.49-.59,10.76-1.07,8.18.09,6.91-.23,8-.3,3.89.46,5.61.63,5.06.27,3.43.51,4.32.15,7.25.23,2.72-.43,4.76-.21,7.14-1.65,1.07-2.15,4.56-.79,7.09-1.11,1.73-.68,4.52-.59,6.61-1a58.93,58.93,0,0,0,7.28-.16c-.48-.54.23-1.49,2.95-.85,2.21.54,4.06-.16,4.47-1.48,1.2-.11,2.61-.47,4.15-.78a20.41,20.41,0,0,1,4.72-.51c1.49.13,3.37-.87,5-1.55,1.53-.23,3.54-2,4.57-1.54,1.22.58,4.2-3.72,5.3-2.84,1.53-.26,3.22-1,4.69-1.16,3-.47,5.15,1.48,8.72-.56,2.69.35,6.24-1.69,9.26-2.19a6.35,6.35,0,0,1,4.44-.52c1.32.31,2.54.95,3.86,1.36,3-.13,5.15,2.45,8.31,2.69,2.55,2,6.5,0,8.79,2,1.57-.63,3.53-.14,5.35-.49a5.79,5.79,0,0,1,3.83-1.27c3.1-.52,5.24-1.53,7.89-1.89,3.23.35,5.49-1,8.38-1.08s6.37-.9,9.18-.53c2.66.61,4.93,1.32,8.12.82,1.32.11,3.06-.72,4.27-.21a10,10,0,0,1,3.61-1,12.1,12.1,0,0,1,5.21-.25,19.69,19.69,0,0,1,3,.61,44.6,44.6,0,0,0,7.15,1.45c13.16,2.07,16.58,2.41,19.43,2.5a28.84,28.84,0,0,1,8.88,1,14,14,0,0,0,9.42,1.05c3.52-.13,6.48,1.29,9.69,2,3.07.94,5.65,3.68,9.67,1.94,2.6,2.18,6.63,0,9.75-1.1,1.78.13,3.6.2,5.45.23a53.75,53.75,0,0,1,5.66-.12c2.09-.54,3.65.4,5.89-.48a49.5,49.5,0,0,1,6.13-.89c4.63-.21,9-.25,12.93.94,4.83-1.39,9.11-1.37,13.47-1.34,3.1.16,6.21.27,9.32.36l9.29.25c3.09.1,5.71,1.19,8.57,1.79,2.41,1.83,6,.72,10-1.09,4-2.31,5.9,1.11,8.94,1.55,3.17.08,5.07,3.74,9.12,1.54,3.07.4,5.83,1.63,9.32.57,2.67,1.43,5.77.18,9.43,1.25,3.36.13,6.22,0,8.72-.08s4.11-.16,6.36-.23c4.27.1,6.05.08,6.15-.16,1.27-.09,4.84.83,4.36,0,1.69.15,3.45.62,4.62.73a10.55,10.55,0,0,1,3.88.44c1.29-.47,3.08.07,5,.32s4.09,1.52,7.26.44a20.91,20.91,0,0,0,9.5.9c2.94-.62,5.41-1.18,7.17-.54a28.53,28.53,0,0,1,5.69-.94,21,21,0,0,0,5.21-1c3.19-.18,6.46.2,10.82-1.94a40.37,40.37,0,0,1,5.8-.79,19.55,19.55,0,0,0,6.29-1.6c2.9-1,5.73-2.53,7.31-1,2.37-.65,3.66,1.28,6,.06,1.92.11,4-.28,5.81.24,2,.08,3.61,1.39,6.53-.33,4.52-.19,8.24.26,11.57,1.77a28,28,0,0,0,11.17.09c2.5-.4,4.73.4,7.44-.31a17.48,17.48,0,0,0,4.1-.91c1.64-.7,2.89-.08,4.86-1.48,2.09.85,4.64.2,7,.33,2.42-.34,4.92.54,7.42,0,2.93-1.25,5.25.44,8,.07,2.77,2.61,6.21.94,9.65.18,3.89.75,8.92,2.11,10.41,1.86,1.77.11,6.36,1.12,7.48.93,1.68.69,2.13,1.21,3.41.4.41,1.11,2.38.16,3.52-.25a16.81,16.81,0,0,0,5.39-.92,16.79,16.79,0,0,0,6.51-1.27c2.68,0,3.24-1,5.79-.59a5,5,0,0,1,5.12-.63c1.64-.44,3.51.67,5,0,1.68.12,3.48-.28,5,.21,2.42,1,5.93-1.09,8.72-1.19a36.18,36.18,0,0,1,8,.58C1031.84,9,1036,10.05,1041.58,9a62.31,62.31,0,0,0,8.42-1V0Z"/></svg>