<svg id="elements" xmlns="http://www.w3.org/2000/svg" viewBox="0 0 1400 66"><defs><style>.cls-1{fill:#f1d7a1;}</style></defs><title>rip-howitworks-step3</title><path class="cls-1" d="M1390.25,32.44c-2.16.33-4.4-.47-6.63-.88s-4.46-.7-6.61-.83c-1.53-.09-3,.73-4.51.53a9.93,9.93,0,0,0-4.32.47c-1.42.28-2.89,1-4.25.46a7.71,7.71,0,0,0-4.32.26,6.65,6.65,0,0,0-4.54.19c-1.55-.22-3.18.27-4.77-.48-1.69.21-3.38-.49-5.13-.94a13.46,13.46,0,0,0-5.33-1.14c-1.8,0-3.67-1.8-5.45-2.23-1.77-.69-3.5-1.63-5.17-1.43a39.21,39.21,0,0,0-5-.34,40.87,40.87,0,0,0-5-.14c-2.31-.66-4.67,1.52-7.07,1.09-2.34-1.82-4.88.33-7.61,2.83-2.89,2.73-5.66,3.26-7.69-.7-2,3.79-2.5.89-4,2.25-1.72,2.52-2.22-.14-3.71,1.22a11,11,0,0,0-3.44.26c-.51-2.18-2.06-.66-3.21-.62-.86-1-2.11-.53-3.2-.84-1-.77-1.63-3.37-2.92-3.36-1.13.42-2.22-.19-3.39-.87-1.26.38-2.57.52-3.88-3-1.37.23-2.81-1.14-4.23-2.1-1.4-2-2.8-.07-4.17-2.54-1.38-1.54-2.73-.58-4-1.75-1.3.14-2.55-1-3.71-1.09s-2.28-2.32-3.31-.46a3.3,3.3,0,0,1-2.93.6c-.93-.24-1.83,3.24-2.73.81a5,5,0,0,0-2.7,1.35c-.92.09-1.86-1.44-2.86.44-1-1.5-2-.37-3.19-.81a23.39,23.39,0,0,0-2.52,2,4.86,4.86,0,0,1-2.62,1.1c-1.78,1.83-3.62.38-5.51,1.85a9.33,9.33,0,0,0-2.85,1.26c-1,.79-1.93.33-2.9,1.91-1,.47-2,2.19-3.07,1-1.05-.63-2.12.75-3.21,1.25a8.31,8.31,0,0,0-3.28,1.3c-1.1-1-2.2,1.48-3.29,1.14-1.1.52-2.18-.21-3.25.58-1.06-.14-2.11-.47-3.12.28-1.24-.4-2.45.48-3.64.7a13.34,13.34,0,0,0-3.52,1.16,8.82,8.82,0,0,1-3.39.85,7.69,7.69,0,0,1-3.27-.54,20.46,20.46,0,0,1-6.16-1.11c-2.51,1-4.94,3.38-7.29,3.7-2.36,2.88-4.63,3.34-6.79,2.71-2.17,0-4.23-.37-6.18,1.12-1.57.52-3.09.31-4.59.65-1.49,0-3,1.56-4.38.07-1.43-.15-2.83-.57-4.22-.78a25.32,25.32,0,0,1-4.09-.24c-2.48-2-5.19-1.73-8-1.41a16.62,16.62,0,0,0-8.77.77c-1.48,1.24-3,.54-4.44.52-1.48.46-2.93-.08-4.36.46-1.43-.75-2.83-.08-4.18.29a10.93,10.93,0,0,1-3.91,0,19.34,19.34,0,0,1-5.28.46,16.45,16.45,0,0,0-5.24.6c-3.48,1.67-7,0-10.5.64-3.54,1.09-7.13,1-10.84.93a5.86,5.86,0,0,1-4.32,1.3c-1.47-1.11-2.79,1.71-4.38-.15-1.43.81-2.8,2.18-4.39,1.13a5.51,5.51,0,0,0-4.49.81c-1-.44-2,.12-2.75,1a4.64,4.64,0,0,1-3.05,0c-1.72.83-3.76,1-5.51,1.69-2.43-.66-4.43-.41-6.56-.81a3.67,3.67,0,0,1-4.58.56c-1.46.63-3.09-.44-4.56.38-1.51-.63-3,.18-4.46.35s-3,.29-4.45.49c-3,1.51-5.89.38-8.82,1.2-2.94-1.05-5.87.6-8.8-.44-1,2-2,3.19-2.93,2.54a3.06,3.06,0,0,1-2.94,1.21c-2,.7-3.93,2.52-5.91.18-1,.54-2,0-3-.31-1-1.13-2-2.13-3-.66-1.5-.65-3,.79-4.53,0a13.26,13.26,0,0,1-4.62-1.54c-3-1.36-6.31-.41-9.39-1.31a6.23,6.23,0,0,0-4.54-1,4.92,4.92,0,0,1-4.57-.36,10,10,0,0,1-4.51-.32c-1.49-.11-3-.2-4.49-.24-1.45-.67-3,.26-4.49-.35s-3-.1-4.55-.64a4.06,4.06,0,0,1-4.66,1.5,9.28,9.28,0,0,0-4.71,0c-1.58-.54-3.16.91-4.74,1-1.59.42-3.18-1.67-4.77-2.3-1.59.19-3.18-2.51-4.77-1.06-1.59-.54-3.18-.26-4.76-1s-2.92,2.18-4.43.59c-1.5,2.34-3-.94-4.54-1.1-1.52.43-3-.74-4.53-1a22.27,22.27,0,0,0-4.4-.39c-2.86.08-5.55.32-7.89,3.94-2.58.92-5.08,3.31-7.62,3.44-2.53-.94-5.1,2.73-7.81,2.69-2.7,1.45-5.54,0-8.62-1.75-5.77-1.77-11.33-2.11-17-3.4a7.81,7.81,0,0,1-5.74,2.46c-1-.09-1.92-.75-2.87-.71-1,.94-1.92-3-2.88-.93-1-1.22-1.92,1.16-2.88-1.42-1-.2-1.93-.64-2.89-.91a41,41,0,0,1-4.43,0c-1.46.46-2.92-.76-4.38-1.14-1.46.49-2.92-.39-4.39-1-1.47-.47-3,.52-4.47.36-2-1-4,1-6.06.89-2,.2-4-.63-6-.1-1-1.59-2,.18-2.94-.79-1-1.85-1.94-1.68-2.89-1.51a12.07,12.07,0,0,0-4.47-.62c-1.5-.41-3,.1-4.51,0-1.5.52-3-.49-4.5.06-1.5-.43-3,.13-4.48-.29-1.47-.14-2.94-.62-4.41-.38-1.47-.27-2.93-.6-4.4-.78-2.93.71-5.85,1.25-8.79-.29-1.78,1.53-3.54.86-5.3,1.42-1.75-1.11-3.5-.67-5.24.13-1.73-1.41-3.47.28-5.21-.88a37.8,37.8,0,0,1-5.21-.1c-1.75.76-3.49.1-5.25-.59a10.73,10.73,0,0,0-5.32.37c-2.47-.36-5.16-.08-7.83-1.29-2.68,1.33-5.34,1.43-7.75-1.06-1.33.7-2.67-.72-4-.2-1.35,0-2.71-.09-4.08-.11-2.74,0-5.52-.4-8.36.07-3,.4-5.64,1.21-8.09-.59a21.11,21.11,0,0,0-7.24-2c-1.37.4-2.77-1.37-4.18-.55a14.85,14.85,0,0,0-4.26.11c-1.42.67-2.83-.08-4.2.14-1.38,1-2.73,0-4-1.16-1.36-.24-2.79-.22-4.24-.4s-3-.49-4.47-.81c-3-.63-5.93-1.12-8.75-.09-2,0-3.91-.66-6-.8-1.71-1.21-4.19-.14-5.71-2.13-1.09.12-1.84-1.56-3-1.29-1.06-.26-2.18-.19-3.24-1.25a5.55,5.55,0,0,0-3.33-1.13c-1.14.44-2.28-.22-3.4-.6-1.19.62-2.24-.85-3.31-1.32a6.3,6.3,0,0,1-3.35-.27,6,6,0,0,0-3.1-.76c-1-.35-2-.31-2.9-.7l-3.83-.87c-1.19-.25-2.35-.48-3.46-.68a25.41,25.41,0,0,0-6.18-.75c-.93-.45-1.9-.88-2.93-1.28a18.49,18.49,0,0,0-3.32-1,34.18,34.18,0,0,0-3.47-.65,5.69,5.69,0,0,1-3.5.29,6.26,6.26,0,0,1-3.6,1c-1.21.31-2.59-1.56-3.7.55-1.27.06-2.51.62-3.88.46a27.46,27.46,0,0,0-4.2.35A21.27,21.27,0,0,0,560.62,21c-1.76.12-2.49,1.63-5,.74-1.71.15-3,.65-4.7.67a16.87,16.87,0,0,0-4.43.31c.14,1.27-1,1.5-2.66,1.17-1.54-.24-1.64.75-2.27,1.32-1.63,1-3.8,1.47-6.89,4.38-1.83,1.05-2.32-.68-4.52,1.53-1.46.77-2.47.32-3.91,1.5-.7-1.85-2.39,1.42-3.46,1.42a3.81,3.81,0,0,0-3.24,1.68c-1,1-2.1.56-3.23-.27-1.09.09-2.3-1.39-3.34-.23-1.14-.22-2.11,1.23-3.36-.07a9.62,9.62,0,0,1-3.65-2.66,15,15,0,0,0-3.53-.86c-1.19-.49-2.19,1.77-3.53-.64-1.15.57-2.36.16-3.58,0-1.23-1-2.42,1.19-3.7,1.39-1.24-.44-2.51.53-3.8,1.49-1.28.35-2.51.2-3.89,1.72-1.2-.11-2.83,2.16-3.8,1.31-.85-1.67-2.6,1.25-3.37.17-.71-2-2.08-.37-3.36.32-1.26.52-1.88-1.54-3.74,1.19-1.52,1-1.86-1.3-3.14-.87-1.41.85-2.45.49-3.75,1-1-.58-2.31.06-3.19-1-.82-1.95-2.52,1.08-3.35-.61-2.12,2.63-3.27-1.5-4.95-2-1.64-.93-3.19-2-5-1s-3.13-.66-4.75-.61-3.12-.53-4.73-.62a4.62,4.62,0,0,0-4.79-.72c-1.63-.23-3.43.1-5-.42a25.52,25.52,0,0,0-10.08-1.47c-1.59.71-3,.28-4.19-1.55-1.34,1.68-2.49-.94-3.67.56-1.15,1.71-2.26-.59-3.4,1.63-1.13.64-2.29.73-3.52,1.43-.59-.17-1.23.19-1.93,1.25-.7-.07-1.45,1.69-2.25,1.69-1.6-.22-3.37,1.06-5.25,1.39-1.88.8-3.87.28-5.89.58-1.31,1-2.6-.46-3.88.13-1.27-1.25-2.53-.34-3.79.31s-2.5.23-3.75.68a8.11,8.11,0,0,0-3.74.64c-1.25-.44-2.5,1.72-3.77,1.09-1.27,1.73-2.55.26-3.85,1.46-1,.12-2.1-1.14-3.21-.08-1.11,1.42-2.24.85-3.4.43-1.15.69-2.33,1.43-3.51.83-1.18.58-2.36-.18-3.55,1.12S348,45,346.85,46.44c-1.16,1-2.3.29-3.42,0-1,1.86-2,1.74-3,1.59-1,.74-1.93-.41-2.86,1.39a5.64,5.64,0,0,0-2.68,1.52,3.64,3.64,0,0,1-2.43,1c-1.51-.3-2.81.81-3.79.33-2.09,1.65-3.79,1.14-5.42,1.9a15.91,15.91,0,0,0-5,.82c-2.87,2.85-5,3.44-6.75,3.14a53.39,53.39,0,0,0-4.93-2.16c-1.9-.9-3.65-2.21-5.37-2.22-1.74.25-3.13-1.51-4.3-2.71a19.89,19.89,0,0,0-5.07.56c-1.65,0-3.43.23-4.76-.38a10.71,10.71,0,0,1-4.34-1.3c-1.43-.48-2.16-1.14-4.48-1.38-2.69-.21-1.56-1.14-4.17-1.53a9.27,9.27,0,0,1-2.77-1.55c-2-.51-.11-1.16-2.36-1.74-1.46-.59-3.28-1.1-3.28-2.08-2.21-.29-3.22-1.12-4.69-1.72-2,.1-2.67-2.11-4.49-1.75-1.4-1.46-3-2.57-4.7-1-1.61,0-3.2.72-5-.56a14.58,14.58,0,0,0-3.52-3.28,6.38,6.38,0,0,0-3.54-.6c-.85-.88-3.89-.83-5.28-1.3-1.67-.41-2.34-1-5.1-1.29,0-.77-2.62-1.14-4.16-1.77-.48-.64-1.73-1.08-3.91-1.14-.7-.59-2.51-.66-3.93-.83a18.38,18.38,0,0,1-3.59-.48,8.46,8.46,0,0,0-3.57,0c-1.25-1.67-4.15-.59-6.72-1.16-1.54.67-3,.27-4.68,1.42-1.59-.58-3,2.21-4.67,2-.68,1.75-3.07.64-4.1,1.73-2.06-.69-1.58,1.66-2.73,2.1-2.56-.49-3,.4-3.49,1.19a10.17,10.17,0,0,0-3.25,1.46c-1.31.38-3.07.18-4,1.15-1.32,1.09-3,.57-4.49.29a33.06,33.06,0,0,1-4.22,0,17.12,17.12,0,0,0-4.23.3c-2.61-.4-4.92-1-7.67-.92-1.52-.72-3.55-.64-5.82-.23a28.71,28.71,0,0,0-5.48,0,17.82,17.82,0,0,1-5,.34,38,38,0,0,0-4.77.87c-1.51.37-2.85.59-4.25.93a38.67,38.67,0,0,1-4,.93c-1.23.3-2.24.85-3.57.7a6.73,6.73,0,0,0-3.3.41,5.94,5.94,0,0,0-3.74-.83c-1.25-.22-3.21-1.7-4.25-1.37-1.67-.91-3.33-1.87-4.54-1.71-1.58-.79-2.69-.26-4.47-1.47-1.44-.26-2.92-.46-4.48-.67s-3.26-.26-5-.44c-1.46-.81-2.5.1-3.74.31a5.21,5.21,0,0,1-4,.23c-1.31.2-2.67.23-4,.55a17.19,17.19,0,0,0-3.94.45c-1.25.47-2.66-.26-3.84.69-1.29.12-2.6,0-3.84.74-1.29,0-2.53.79-3.81,1.16a4.44,4.44,0,0,1-3.9-.42c-1.23,1.14-2.54-.25-3.81.93-1.28,1.52-2.54-2.09-3.88.61-1.28-1.43-2.59,1-3.84.41C49.56,35.94,48.35,41,47.18,41c-1.37-.46-2.54,1.52-3.94-1.31-1.32-1.81-2.46.25-3.71-.54-1.27-1.19-2.47-.61-3.72-.7a10.51,10.51,0,0,1-4-.88c-1.11,2.24-2.51-.29-3.7,2.4-1.26,1.32-2.6-.78-3.84,2.72-1.3.64-2.85,3.8-3.95,2-1.32.57-2.71,1.69-3.94,1.7-1.06-1.53-2.54,1.09-3.68,1-1.21.77-2.06-2.5-3.29-.54-1.15.68-2.17-.22-3.22-.61a12.1,12.1,0,0,0-3.17-1,18.6,18.6,0,0,1-3,.17V66H1400V33.31a24.11,24.11,0,0,1-3.42-2.3C1394.56,32.8,1392.41,31.4,1390.25,32.44Z"/></svg>