<svg id="elements" xmlns="http://www.w3.org/2000/svg" viewBox="0 0 1160 75"><defs><style>.cls-1{fill:#e2ebf1;}</style></defs><title>rip-bio-combo3</title><path class="cls-1" d="M0,0V54.48a15.31,15.31,0,0,1,2.36.45,21.61,21.61,0,0,0,4.15.24c.77-.35,1.46-.63,2.08-1A4.23,4.23,0,0,1,12,53.8a9.33,9.33,0,0,0,5.27.27c1.28-.33,2.71-.13,4.08-.41a9.19,9.19,0,0,1,4.73.32,5.14,5.14,0,0,0,3.48,0,5.57,5.57,0,0,1,3.5-.17,2.62,2.62,0,0,0,1.15.14c2.35-.65,4.81-.33,7.23-.41a9.81,9.81,0,0,0,2.94-.41,5.11,5.11,0,0,1,3.49,0,7.2,7.2,0,0,0,1.72.35,4.13,4.13,0,0,1,.66-2.07.9.9,0,0,1,1-.31,3.16,3.16,0,0,1,1.4.67,10.61,10.61,0,0,1,1,1.84s.08.08.13.11l.59.1c.18,0,.46.15.46.23a.43.43,0,0,1,0,0,1.65,1.65,0,0,0,.36,0,4.29,4.29,0,0,0,2.21-.56,3.06,3.06,0,0,1,2.74-.18,2.27,2.27,0,0,0,1.7-.2,3.78,3.78,0,0,1,3.25-.53,4.92,4.92,0,0,1,3.44.17,2.72,2.72,0,0,0,2.6-.57,2.24,2.24,0,0,0,.52-.7c.24-.64.41-1.29.6-1.91l3-2c1-1,.31-2,1.52-2.52,1,.65-.1,1.6.8,2.25A2.63,2.63,0,0,0,79.26,46a6.25,6.25,0,0,1,4.09-2.2c.57-.11,1.14-.24,1.56-.33l7.45.14c.74-.33,1.4-.63,2.08-.92l2.34-.95a12.32,12.32,0,0,0,1.07-1.17c.76-1.07,1.06-2.29,2.62-3.07a1.22,1.22,0,0,0,.57-.69,4.33,4.33,0,0,1,1.5-2.14c.33-.27.53-.78,1.07-.77,3.41.09,4.91,3.37,8.23,1.88,1.9-.85,1.39-2.24,2.22-3.46.27-.39.52-1.11,1.06-1s.13.61.63.84L118,32a11.22,11.22,0,0,1,2.59,1.18c.51.62.3,1.26.33,1.89L124,34l1.77.4a16.43,16.43,0,0,1,5.28-.45c.2,0,.4,0,.61,0,1.77.1,3.2-.25,4.05-1.33a4.45,4.45,0,0,1,2-1.43.92.92,0,0,1,1.21.5c.05.24.08.48.12.73,1.51.35,3.06.65,4,1.62a9.13,9.13,0,0,0,1.58,1,23,23,0,0,1,3.74.61c1.5.52,2.74-.25,4.13-.13a13.56,13.56,0,0,1,4.07.67,4.82,4.82,0,0,0,2.92.11c1.33-.29,2.7-.51,4.06-.77l2-1.48,2.4.32a20,20,0,0,1,8.81-2.21l2.39-2.3a2.15,2.15,0,0,1,.61-.06,3.33,3.33,0,0,0,3.26-.38c.53-.39,1-.83,1.4-1.19a25.81,25.81,0,0,0,7.84-2.3c1.39.23,2.55.95,4.11.73l3.85-1,1.22.18c.38.06.77.09,1.24.14A6.42,6.42,0,0,1,204.36,25c3.48-1,6.68-2.38,10-3.57a12.32,12.32,0,0,1,4.49,3.72,3.73,3.73,0,0,0,3.09,1c.79,0,1.56-.23,2.36-.29,1.78-.15,2.44-1.33,4-1.77l4.78.17c1.63.78,3.07,1.74,5.18,2a2.29,2.29,0,0,1,1,.46,5.52,5.52,0,0,0,3.16,1.05,9.72,9.72,0,0,1,2.87.6,2.79,2.79,0,0,0,1.74,0,16.81,16.81,0,0,1,3.56-.4,7,7,0,0,0,2.18-.62c1-.45,1.89-1,2.08-1.87s1-1.43,1.55-2.13a4.39,4.39,0,0,1,2.76-1.45c.57-.11,1.13-.25,1.69-.37a4.54,4.54,0,0,0,2.9.23c1.09-.3,2.28-.46,3.28-.66a8.12,8.12,0,0,1,4-2.52c.41.06.82.08,1.18.17,2.12.54,2.38.52,3.65-.41.53-.39,1-.79,1.26-1a4.62,4.62,0,0,1,4.93,1.25,2.49,2.49,0,0,0,.6,0c1.14-.18,2.25-.65,3.43-.05,1.36.69,3.2.31,4.62.86a1,1,0,0,0,1.14-.17c.43-.46.41-1.23,1.43-1.55A3.69,3.69,0,0,0,295,16.6a6.07,6.07,0,0,1,2.9-1.35c1.14-.31,2.35-.42,3.46-.71s1.59-1.13,2.8-1.45a22.54,22.54,0,0,0,2.93-1.2c1.6-.05,3-.07,4.42-.15,1-.05,1.67-.75,1.48-1.43-.14-.5-.22-1-.33-1.5a3.7,3.7,0,0,1,2.95,1.09c1.29,1.86,3.52,3.23,5.56,4.69a7.86,7.86,0,0,0,1.36.61c2.28-.35,2.32-.34,3.41.38.58.37,1.1.78,1.69,1.14a4.08,4.08,0,0,0,3.87.24,4.79,4.79,0,0,1,2-.66,28.46,28.46,0,0,1,3,.67c.88.3,1.58.82,2.43,1.17A16.48,16.48,0,0,0,343,19.47c2.65,0,5.67.52,8.66-.29a9.54,9.54,0,0,1,2.41-.1c1.42,0,2.84.05,4.35.08a23,23,0,0,1,7.65-2.23,3.48,3.48,0,0,0,1.47-.65A16.91,16.91,0,0,0,369,15.09l4.56-.75c1.29.47,2.35.87,3.42,1.24a10.14,10.14,0,0,0,1.22.24c1.41-.22,1.37-1.66,2.63-1.62,1.47.05,1.25,1.69,2.92,2,.51.12,1.24,0,1.59.24s.06.91.71,1.17c2.5,1,4,2.57,5.77,3.9.07,1.95,2.51,3.13,3,4.86-.18.47-.36,1-.53,1.44.31.86,1.26,1.4,2.09,2,1.09.73.81,1.75,1.45,2.56a3.23,3.23,0,0,0,.67.66c1,.68,1.94,1.34,2.76,1.91,1.82.22,3.17.83,4.9.78a11.84,11.84,0,0,1,3.42.7,3.94,3.94,0,0,1,1.37.75,14.14,14.14,0,0,1,1.26,1.32c2,.53,4.15.13,5.42.52,1.63.58,2.2,1.43,3.56,1.5l1.81-.27.36.12a6.58,6.58,0,0,0,1.1-.52c.71-.46,1.19-1.06,1.85-1.55a4.84,4.84,0,0,1,2.2-.6c1.57-.19,2.49-.81,2.78-1.84a7.13,7.13,0,0,1,.35-.75,1.31,1.31,0,0,1,.45,0,2.34,2.34,0,0,0,2,.51,18.87,18.87,0,0,1,4.67-.66,1.56,1.56,0,0,0,1.34-.63,2.75,2.75,0,0,1,2.72-.32c1.05.38,2,.87,3,1.29l5.07.17,11.12,3h4.82l1.85-1.15,3.41.86a11.27,11.27,0,0,1,4.87-.18l1.65,1.11,6.33,1.4c1.06.66,2.16,1.44,3.42,2.11s2.43,1.36,3.64,2,2.56,1.28,3.75,2a4.34,4.34,0,0,0,3.39.39A6.62,6.62,0,0,1,502,46.6c1,.15,1.91.38,2.62.53,2-.45,3.69-.87,5.44-1.21,1.14-.22,2.34-.3,3.35-.43a5.63,5.63,0,0,0,.89-.72,4.46,4.46,0,0,1,3.33-1.52,20.08,20.08,0,0,0,2.26-.41l2.19.88c.9-.13,1.87-.29,2.84-.41,1.17-.15,2.35-.27,3.65-.41a13,13,0,0,0,2.46,1,14.79,14.79,0,0,1,3.8,1.18,11.91,11.91,0,0,0,3.75,1.24,17.35,17.35,0,0,1,4.28,1.41L545,47.4l4.57,1.4a21.71,21.71,0,0,1,5.92.69,3.38,3.38,0,0,0,3.19-.72c.39-.34.54-.74.25-1.1s-1-.85-1.38-1.3a3.6,3.6,0,0,1-.55-1.11c-.11-.33.43-.84.91-.92a1.16,1.16,0,0,1,1.06.27,8.15,8.15,0,0,0,4,2.6c.93,0,2.15,0,3.35.09s2.34.19,3.5.28c1.06-1.08,2.59-1.24,4.29-1,.59.09,1.1.36,1.69.44a21.41,21.41,0,0,0,3,.23c2,0,3.83-.78,5.76-1.12a2.13,2.13,0,0,0,.92-.51c.37-.31.59-.7,1-1a2.75,2.75,0,0,1,2.19-.44c.59.1,1.13.29,1.69.43a4.4,4.4,0,0,0,3.39-.35c1.08-.58,2.2-1.13,3.28-1.67.06-.61.1-1.14.17-1.67a1.9,1.9,0,0,1,.15-.78,1.37,1.37,0,0,1,.76-.55,2.41,2.41,0,0,1,1.12.09,2.89,2.89,0,0,1,1.59,1.15,1.77,1.77,0,0,0,1.34.73c3.43.09,6.88.48,10.23-.42a9.06,9.06,0,0,1,4.2-.11,26.62,26.62,0,0,1,6.11,1.65c1.76.88,3.64,1.66,5.27,2.66,2.19.49,3.52,1.76,5.2,2.51a14.3,14.3,0,0,0,5.56-.2,14.42,14.42,0,0,1,7.12,0c1.14.27,2.29.51,3.56.78.51.31,1.09.68,1.71,1s1.26.63,1.78.89c1.8-.19,3.21-.86,4.92-.68a16.51,16.51,0,0,0,4.77-.41,1.6,1.6,0,0,1,.58.11,15.1,15.1,0,0,0,4.2.29c2.85,0,5.72.15,8.53-.08a32.09,32.09,0,0,0,6.33-1.33,3.54,3.54,0,0,1,1.77,0,15.23,15.23,0,0,0,5.32.64,11.37,11.37,0,0,1,3.52.54,4.34,4.34,0,0,0,3.39-.33c1.09-.57,1.81-1.45,3.33-1.64,2.29.2,3.84,1.38,5.58,1.86,1.1-.17,1.87-.33,2.67-.41,2.59-.27,5.13-.72,7.62-1.21a8.56,8.56,0,0,1,4.09.06,13.59,13.59,0,0,0,3,.31c2,.06,4.07-.14,5.93.61a2.09,2.09,0,0,0,1.16,0c1.14-.45,2.36-.08,3.53-.16A35.22,35.22,0,0,0,737.7,48c1.34-.32,2-1.37,3.37-1.39,1.37.22,2.52.48,3.7.57,1.4.12,2.82.1,3.84.13,1.74.69,3,1.33,4.51,1.77,1.64.49,3.4.83,5.12,1.2a3.92,3.92,0,0,0,2.33-.27c.67-.28,1.32-.59,2-.88,1.48.49,2.7-.45,4.12-.31a8.21,8.21,0,0,1,1.78.17,10.36,10.36,0,0,0,7-.09c.73-.21,1.6-.24,2.3-.47a13.25,13.25,0,0,1,3.56-.43,25.5,25.5,0,0,1,5.27.65c1.19-.24,2.25-.73,3.51-.22a4.88,4.88,0,0,0,3.47,0,8.93,8.93,0,0,1,4.45-.22l3.46,1.86c1.4.32,2.7.72,4.07.92a16.91,16.91,0,0,0,3.63.16c1.43-.09,2.66.72,4.33.25,1.47-1.31,3.75-1.07,5.94-.93,1.41.28,2.14,1.31,3.71,1.31,2.87-.6,2.92-1.12,6,.57a3.65,3.65,0,0,0,.53.19c1.2.31,2.31-.65,3.51-.09a5.85,5.85,0,0,0,2.6-.88c-.14-.59-.85-.89-1.36-1.28s-.75-.62-1.11-.93.21-.76.8-.92a.89.89,0,0,1,1,.27,7.68,7.68,0,0,0,.77.64l3.47.7A20.41,20.41,0,0,1,842.43,49c1.7-.34,3.51-.47,5.41-.7a12.37,12.37,0,0,0,1.33,1.26,6.27,6.27,0,0,0,1.36.56l2.82-1.21c1.3,0,2.72,0,4.13,0,1.62,0,3.24-.07,4.74-.1,1.13-.51,2.14-.95,3.09-1.39l3.23-.26c.55-.26,1.23-.56,1.84-.9a11.57,11.57,0,0,1,2.81-.7,10.31,10.31,0,0,0,2-.86,6.34,6.34,0,0,1,4.6-.31A12.49,12.49,0,0,1,883.91,46a22.87,22.87,0,0,0,2.65,1.64,3.48,3.48,0,0,0,2.3.28c1-.2,1.89-.45,2.91-.7,1.9.41,3.85.76,5.7,1.26a5.87,5.87,0,0,0,2.9-.12L906,49.5l1.93-.34,3.51,1.94a3.89,3.89,0,0,0,2.52-.27,7.38,7.38,0,0,1,1.68-1.1,21.58,21.58,0,0,1,5.77-1.63c2.82,1,6,.87,9.15.65l3.14-1.38,4.32-.21A25.19,25.19,0,0,1,940.52,46c.87-.3,1.85-.47,2.87-.71.43-.59.89-1.18,1.31-1.77a.48.48,0,0,0,0-.41c-.08-.22-.63-.43-.4-.59,1.76-1.27,6-1.43,7.53,0,.43.4-.62.84-.33,1.13a2.74,2.74,0,0,0,2.19.31c.31-.1.76-.31.8-.67s-.42-.65-.78-.92c-.11-.09-.37-.1-.37-.2,0-1.21,3.4-1.86,5-1.36,0,0,.08.08,0,.11,1.34-.9,3.49-.49,5.17-.61l3.93,1.13,2.74-1.14a13.78,13.78,0,0,1,1.66.3,13.36,13.36,0,0,0,3.58.35c1.28,0,2.31-.58,3.48-.57s2.31.43,3.5.52a6.85,6.85,0,0,0,2.35-.25,12.21,12.21,0,0,1,7.06,0,5.33,5.33,0,0,0,3.48-.27,5.55,5.55,0,0,0,2.27-1.26,1.79,1.79,0,0,1,1.57-.39c.39.06.85.28,1.16.2a30.38,30.38,0,0,1,6.61-.42,5.69,5.69,0,0,0,1.79-.16c1.85-.74,3.94-.54,5.6-.7,2-.42,3.5-1.21,5.23-1.38l1.74.29,8.94-3.5c1.57-.3,3,.63,4.68.23,1.53.34,3,.7,4.6,1a5.22,5.22,0,0,0,1.24-.09,7.81,7.81,0,0,0,1.5-1.65c.39-.46.67-1,1.07-1.42s.19-1.33,1.25-1.79c.4.24,1.06.46,1.21.78a4.68,4.68,0,0,0,2.54,2.58c.61.28.92.86,1.71,1.07a22.85,22.85,0,0,0,2.82.72,10.28,10.28,0,0,0,2.9.45,5,5,0,0,1,1.74-.18,18.86,18.86,0,0,0,6,.58,13.13,13.13,0,0,1,4.13.56,1.62,1.62,0,0,0,1.52-.43c.34-.47.28-1.06,1.1-1.45l3.87-.89a2.72,2.72,0,0,1,.57,0,4.53,4.53,0,0,1,1,.45,19.41,19.41,0,0,0,2.11,1.92c.84.54,2,.86,3,1.34s1.83,1,2.55,1.45c2.65.37,4.81,1.23,7.37,1.07a4.68,4.68,0,0,1,1.73.31,5.68,5.68,0,0,0,4,0,4.37,4.37,0,0,1,2.92-.11,8.88,8.88,0,0,0,6.36-.14,12.31,12.31,0,0,1,1.66-.5,10.61,10.61,0,0,1,1.15-.19c1,0,1.81.64,3.07.36a9.9,9.9,0,0,0,1.27-.67c.79-.6,1.49-1.24,2.24-1.86a4.45,4.45,0,0,1,1,.31c1,.65,1.18,1.7,2.4,2.26s2.67,1.19,4,1.83a8.65,8.65,0,0,0,2.72.83,4.69,4.69,0,0,1,1.64.48,39.37,39.37,0,0,0,7.44,2.62c.66,0,1.27,0,1.87,0,3.42-.09,6.92.38,10.21-.66a6.55,6.55,0,0,1,1.8-.1H1156c1.41.57,2.72,1.08,4,1.62V0Z"/></svg>