<svg id="elements" xmlns="http://www.w3.org/2000/svg" viewBox="0 0 1400 70"><defs><style>.cls-1{fill:#deebe7;}</style></defs><title>rip-blogpost-3</title><path class="cls-1" d="M1400,70V4.24a18.26,18.26,0,0,1-2.85-.53,25.57,25.57,0,0,0-5-.3c-.93.43-1.76.76-2.5,1.17a5.13,5.13,0,0,1-4.08.49,11.25,11.25,0,0,0-6.36-.33c-1.56.4-3.27.16-4.93.49a11.12,11.12,0,0,1-5.71-.37,6.13,6.13,0,0,0-4.2,0,6.75,6.75,0,0,1-4.22.2,3,3,0,0,0-1.39-.16c-2.83.78-5.81.39-8.73.49a11.9,11.9,0,0,0-3.55.49,6.13,6.13,0,0,1-4.2,0,8.36,8.36,0,0,0-2.09-.43,4.93,4.93,0,0,1-.79,2.51,1.08,1.08,0,0,1-1.22.36,3.81,3.81,0,0,1-1.69-.8,13.72,13.72,0,0,1-1.21-2.22s-.09-.1-.15-.14l-.71-.12c-.22,0-.56-.18-.56-.28s0,0,0-.06a2.47,2.47,0,0,0-.43-.05,5.24,5.24,0,0,0-2.67.69,3.69,3.69,0,0,1-3.31.21,2.75,2.75,0,0,0-2,.24,4.52,4.52,0,0,1-3.92.64,5.94,5.94,0,0,1-4.15-.2,3.31,3.31,0,0,0-3.14.68,3.07,3.07,0,0,0-.63.85c-.29.77-.49,1.55-.72,2.31l-3.56,2.42c-1.18,1.23-.37,2.36-1.84,3-1.14-.79.13-1.94-1-2.73a3.21,3.21,0,0,0-2.14,1.73c-1,1.45-2.74,2.2-4.93,2.65l-1.88.4-9-.17c-.9.4-1.69.77-2.5,1.11-1,.43-2,.84-2.83,1.16a16.22,16.22,0,0,0-1.3,1.41c-.91,1.28-1.27,2.76-3.16,3.7a1.43,1.43,0,0,0-.68.83,5.36,5.36,0,0,1-1.82,2.59c-.39.32-.64.94-1.28.92-4.12-.11-5.93-4.06-9.94-2.26-2.29,1-1.68,2.7-2.68,4.17-.33.48-.63,1.34-1.27,1.17s-.16-.74-.76-1l-2.69.15c-1.15-.55-2.4-.77-3.13-1.44s-.35-1.51-.39-2.28L1250.38,29l-2.14-.49a19.91,19.91,0,0,1-6.36.55c-.25,0-.5,0-.74,0-2.14-.12-3.86.3-4.89,1.6a5.47,5.47,0,0,1-2.44,1.73,1.12,1.12,0,0,1-1.46-.61c-.06-.29-.09-.58-.14-.87-1.83-.43-3.69-.79-4.87-2a10.42,10.42,0,0,0-1.9-1.19,28.79,28.79,0,0,1-4.52-.74c-1.81-.63-3.3.29-5,.15a15.84,15.84,0,0,1-4.91-.81,5.84,5.84,0,0,0-3.52-.13c-1.6.35-3.25.62-4.9.93l-2.39,1.78-2.9-.38a23.9,23.9,0,0,1-10.63,2.66L1183.8,34a2.52,2.52,0,0,1-.74.08,4,4,0,0,0-3.94.46c-.63.47-1.17,1-1.68,1.43a31.25,31.25,0,0,0-9.47,2.78c-1.67-.28-3.07-1.14-5-.89L1158.36,39l-1.46-.23c-.46-.06-.93-.1-1.5-.15a8.05,8.05,0,0,1-2,1.26c-4.2,1.22-8.07,2.87-12.12,4.31a14.82,14.82,0,0,1-5.42-4.49,4.5,4.5,0,0,0-3.73-1.23c-.95,0-1.88.27-2.85.35-2.14.17-3,1.61-4.85,2.14l-5.77-.22c-2-.93-3.71-2.1-6.25-2.37a2.82,2.82,0,0,1-1.17-.56,6.72,6.72,0,0,0-3.81-1.26,12.17,12.17,0,0,1-3.46-.72,3.24,3.24,0,0,0-2.11,0,21,21,0,0,1-4.29.49,8.52,8.52,0,0,0-2.63.73c-1.2.55-2.28,1.24-2.52,2.26s-1.22,1.73-1.86,2.58a5.33,5.33,0,0,1-3.34,1.75c-.68.13-1.36.29-2,.45a5.47,5.47,0,0,0-3.5-.28c-1.31.36-2.75.55-4,.79a9.71,9.71,0,0,1-4.8,3,12.14,12.14,0,0,1-1.42-.2c-2.56-.65-2.87-.63-4.41.49-.64.47-1.24,1-1.51,1.18-3.12.75-4.65-.22-6-1.5a3.78,3.78,0,0,0-.73-.06c-1.37.23-2.72.8-4.14.07-1.64-.84-3.86-.37-5.58-1a1.18,1.18,0,0,0-1.38.2c-.51.56-.48,1.49-1.72,1.88a4.43,4.43,0,0,0-2,1.33,7.46,7.46,0,0,1-3.5,1.63c-1.37.37-2.83.5-4.18.85s-1.91,1.37-3.37,1.76a26.31,26.31,0,0,0-3.54,1.43c-1.93.07-3.63.1-5.33.19-1.19.06-2,.91-1.78,1.73.16.6.26,1.21.39,1.81-1.52-.06-2.91-.39-3.56-1.32-1.56-2.24-4.24-3.89-6.71-5.66a8.84,8.84,0,0,0-1.64-.73c-2.75.41-2.81.4-4.12-.46-.69-.45-1.32-.94-2-1.38a4.88,4.88,0,0,0-4.67-.28,5.93,5.93,0,0,1-2.39.79,31.77,31.77,0,0,1-3.6-.81c-1.07-.37-1.92-1-2.94-1.41a19.46,19.46,0,0,0-5-1.61c-3.2,0-6.85-.62-10.45.36a12.12,12.12,0,0,1-2.91.11c-1.71,0-3.43-.06-5.25-.1a27.32,27.32,0,0,1-9.23,2.69,4,4,0,0,0-1.77.8,19.18,19.18,0,0,0-1.75,1.42l-5.5.91c-1.55-.56-2.83-1-4.13-1.49a11.25,11.25,0,0,0-1.47-.29c-1.7.26-1.66,2-3.17,2-1.78-.06-1.52-2-3.53-2.47-.62-.13-1.49,0-1.91-.28s-.08-1.1-.86-1.42c-3-1.2-4.86-3.1-7-4.7-.09-2.35-3-3.77-3.64-5.87l.64-1.73c-.38-1-1.53-1.69-2.52-2.36-1.32-.89-1-2.12-1.76-3.1a3.81,3.81,0,0,0-.81-.79c-1.15-.82-2.33-1.63-3.32-2.31-2.2-.27-3.83-1-5.91-.93a14.9,14.9,0,0,1-4.13-.85,4.77,4.77,0,0,1-1.65-.91,17.49,17.49,0,0,1-1.53-1.59c-2.39-.64-5-.16-6.54-.63-2-.7-2.66-1.72-4.3-1.81l-2.18.32-.44-.14a8.59,8.59,0,0,0-1.33.63c-.85.55-1.43,1.28-2.23,1.87a5.75,5.75,0,0,1-2.65.72c-1.9.23-3,1-3.36,2.22a5.62,5.62,0,0,1-.42.9,1.64,1.64,0,0,1-.55,0,2.8,2.8,0,0,0-2.39-.61,22.64,22.64,0,0,1-5.63.8,1.85,1.85,0,0,0-1.62.76,3.31,3.31,0,0,1-3.28.38c-1.27-.46-2.43-1.05-3.56-1.55l-6.12-.21L842.5,23.6h-5.81L834.46,25l-4.12-1c-1.84.27-3.69.81-5.87.22-.52-.35-1.19-.81-2-1.34l-7.64-1.69c-1.27-.79-2.61-1.74-4.12-2.54s-2.94-1.65-4.4-2.47-3.08-1.55-4.53-2.41a5.18,5.18,0,0,0-4.09-.46,8.22,8.22,0,0,1-3.51.51c-1.16-.18-2.3-.46-3.16-.64-2.4.54-4.45,1.05-6.56,1.46-1.38.26-2.83.36-4,.51a8.12,8.12,0,0,0-1.08.87,5.38,5.38,0,0,1-4,1.84,26.84,26.84,0,0,0-2.73.5L770,17.24c-1.09.15-2.25.35-3.43.49-1.41.18-2.84.32-4.4.49a15.34,15.34,0,0,0-3-1.19,18.28,18.28,0,0,1-4.58-1.42A14.57,14.57,0,0,0,750,14.1a20.43,20.43,0,0,1-5.16-1.69l-2.68.38-5.53-1.69a25.83,25.83,0,0,1-7.13-.83,4.08,4.08,0,0,0-3.85.87c-.48.41-.66.9-.31,1.33s1.19,1,1.66,1.57a4,4,0,0,1,.67,1.34c.13.39-.52,1-1.09,1.1a1.4,1.4,0,0,1-1.29-.32A9.87,9.87,0,0,0,720.48,13c-1.12,0-2.59,0-4.05-.11s-2.82-.22-4.22-.34c-1.28,1.31-3.12,1.5-5.18,1.2-.7-.1-1.33-.43-2-.53a25.83,25.83,0,0,0-3.62-.27c-2.48,0-4.63.93-7,1.34a2.64,2.64,0,0,0-1.11.62c-.44.38-.71.84-1.19,1.2a3.39,3.39,0,0,1-2.64.53c-.71-.13-1.36-.35-2-.53a5.4,5.4,0,0,0-4.1.43c-1.3.7-2.65,1.36-4,2-.07.73-.13,1.37-.2,2a2.32,2.32,0,0,1-.19.94,1.66,1.66,0,0,1-.91.67,2.9,2.9,0,0,1-1.36-.11,3.51,3.51,0,0,1-1.92-1.4,2.19,2.19,0,0,0-1.62-.88c-4.14-.1-8.3-.57-12.34.52a11,11,0,0,1-5.07.13c-2.48-.57-5.12-.86-7.38-2s-4.39-2-6.36-3.2c-2.63-.6-4.24-2.13-6.27-3a17.29,17.29,0,0,0-6.72.24,17.46,17.46,0,0,1-8.59,0c-1.37-.32-2.76-.61-4.29-.94-.62-.37-1.32-.82-2.07-1.23s-1.51-.76-2.15-1.07c-2.17.23-3.87,1-5.93.82a19.37,19.37,0,0,0-5.75.5,1.8,1.8,0,0,1-.7-.13,17.94,17.94,0,0,0-5.08-.36c-3.43,0-6.9-.17-10.29.1a39.14,39.14,0,0,0-7.64,1.6,4.2,4.2,0,0,1-2.14,0A18.11,18.11,0,0,0,568,11a13.59,13.59,0,0,1-4.25-.65,5.23,5.23,0,0,0-4.09.39c-1.31.69-2.18,1.76-4,2-2.77-.23-4.64-1.65-6.74-2.24-1.33.21-2.26.4-3.23.5-3.12.32-6.18.86-9.19,1.46a10.39,10.39,0,0,1-4.93-.07A16.13,16.13,0,0,0,528,12c-2.43-.07-4.91.17-7.15-.74a2.48,2.48,0,0,0-1.4.06c-1.39.54-2.85.09-4.27.18a43.75,43.75,0,0,0-5.47.5c-1.62.39-2.41,1.65-4.07,1.68-1.65-.27-3-.58-4.47-.69-1.69-.14-3.4-.12-4.63-.16-2.11-.83-3.69-1.6-5.45-2.13-2-.6-4.1-1-6.18-1.45a4.78,4.78,0,0,0-2.81.32c-.81.34-1.6.71-2.39,1.07-1.78-.59-3.25.54-5,.37a9.59,9.59,0,0,1-2.15-.2c-2.87-1.12-5.61-.73-8.41.1-.88.26-1.93.29-2.78.58a16.58,16.58,0,0,1-4.29.51c-2.28.14-4.3-.5-6.36-.78-1.45.28-2.72.88-4.25.27a5.84,5.84,0,0,0-4.18,0,10.77,10.77,0,0,1-5.37.28l-4.17-2.25c-1.69-.39-3.26-.87-4.92-1.11a20.57,20.57,0,0,0-4.37-.2c-1.74.11-3.21-.87-5.23-.3-1.78,1.58-4.52,1.29-7.17,1.12-1.71-.33-2.58-1.57-4.48-1.58-3.46.72-3.52,1.35-7.29-.68a5.32,5.32,0,0,0-.64-.24c-1.44-.37-2.79.79-4.24.12a7,7,0,0,0-3.13,1c.16.71,1,1.08,1.63,1.56s.91.74,1.35,1.12-.26.91-1,1.11a1.09,1.09,0,0,1-1.18-.33,9.77,9.77,0,0,0-.93-.77L387,9.51a23.65,23.65,0,0,1-3.71,1.37c-2.06.42-4.24.57-6.54.86a14.72,14.72,0,0,0-1.6-1.54,8.18,8.18,0,0,0-1.64-.67L370.1,11c-1.58,0-3.29,0-5,0-2,0-3.91.07-5.71.11l-3.75,1.68-3.89.32c-.66.31-1.48.67-2.21,1.08a13.92,13.92,0,0,1-3.39.85,12.36,12.36,0,0,0-2.44,1,7.69,7.69,0,0,1-5.55.37,15.37,15.37,0,0,1-5-2,26.45,26.45,0,0,0-3.19-2,4.25,4.25,0,0,0-2.78-.35c-1.16.25-2.28.55-3.51.85-2.3-.5-4.65-.91-6.88-1.52a7.07,7.07,0,0,0-3.5.15l-6.85-1.34-2.33.41-4.24-2.35c-1.26-.09-2.24-.2-3,.34a9.57,9.57,0,0,1-2,1.32,26.41,26.41,0,0,1-7,2c-3.4-1.21-7.28-1-11-.79l-3.79,1.67-5.21.26a32.26,32.26,0,0,1-3,1.39,35,35,0,0,1-3.46.86c-.53.71-1.07,1.42-1.59,2.14a.58.58,0,0,0,0,.5c.08.25.75.51.48.71-2.13,1.53-7.25,1.71-9.09,0-.52-.48.74-1,.39-1.37A3.29,3.29,0,0,0,249,17c-.37.11-.92.37-1,.79s.52.79.94,1.12c.14.11.45.12.45.24,0,1.46-4.1,2.24-6,1.64-.05,0-.09-.09,0-.13-1.62,1.09-4.22.59-6.24.73L232.32,20,229,21.4a15.75,15.75,0,0,1-2-.37,16.77,16.77,0,0,0-4.32-.42c-1.54-.05-2.79.71-4.19.69s-2.8-.51-4.23-.63a8.44,8.44,0,0,0-2.84.3,14.72,14.72,0,0,1-8.52,0,6.41,6.41,0,0,0-4.19.33A6.64,6.64,0,0,0,196,22.77a2.12,2.12,0,0,1-1.89.47,4.78,4.78,0,0,0-1.4-.24c-2.6.64-5.3.45-8,.51a7.33,7.33,0,0,0-2.15.19c-2.25.9-4.77.65-6.77.85-2.46.5-4.22,1.46-6.31,1.66l-2.1-.35-10.79,4.23c-1.9.36-3.68-.77-5.64-.28-1.85-.41-3.69-.84-5.56-1.21a6.36,6.36,0,0,0-1.49.11,9.46,9.46,0,0,0-1.81,2c-.48.56-.81,1.17-1.29,1.72s-.24,1.6-1.52,2.16c-.48-.3-1.28-.56-1.46-.94a5.62,5.62,0,0,0-3.06-3.12c-.74-.34-1.11-1-2.07-1.29a28.24,28.24,0,0,0-3.4-.87c-1.18-.15-2.2-.71-3.49-.54a6.06,6.06,0,0,1-2.11.22,22.76,22.76,0,0,0-7.19-.7,16.48,16.48,0,0,1-5-.67,1.93,1.93,0,0,0-1.83.51c-.41.57-.34,1.28-1.32,1.75-1.48.34-3.08.72-4.68,1.07a3.18,3.18,0,0,1-.69,0,5.13,5.13,0,0,1-1.24-.54,23.39,23.39,0,0,0-2.54-2.31c-1-.66-2.44-1-3.6-1.62s-2.2-1.26-3.07-1.75c-3.2-.45-5.81-1.49-8.89-1.29a5.55,5.55,0,0,1-2.09-.37,7,7,0,0,0-4.88,0,5.2,5.2,0,0,1-3.52.14,10.75,10.75,0,0,0-7.68.17,16.69,16.69,0,0,1-2,.61c-.44.11-.93.15-1.39.22-1.21,0-2.18-.78-3.7-.43a11,11,0,0,0-1.54.81c-.95.71-1.8,1.49-2.7,2.24a5,5,0,0,1-1.22-.38c-1.23-.78-1.43-2-2.9-2.72s-3.22-1.44-4.77-2.21a10,10,0,0,0-3.28-1A6,6,0,0,1,40,19a47.72,47.72,0,0,0-9-3.17c-.79,0-1.53,0-2.26,0-4.12.12-8.34-.45-12.31.81a8.14,8.14,0,0,1-2.18.11H4.82c-1.7-.69-3.29-1.31-4.82-2V70Z"/></svg>