<svg id="elements" xmlns="http://www.w3.org/2000/svg" viewBox="0 0 1400 66"><defs><style>.cls-1{fill:#f8e9de;}</style></defs><title>rip-howitworks-step1</title><path class="cls-1" d="M0,66V50.82a2.37,2.37,0,0,0,.78-.08,16.18,16.18,0,0,1,4.88-.49c.59-.66,1.8-.78,2.79-1.08.73-.21,1.6-.26,2.35-.45a5.23,5.23,0,0,0,2-.86,1.81,1.81,0,0,1,2.06-.17c.35.19.54.49.89.48.63,0,1.4-.16,1.63-.52.05-.07-.18-.12-.28-.18-.26-.13.21-.65.64-.67a5.64,5.64,0,0,1,1.44.07,10.27,10.27,0,0,1,1.58.71,3.09,3.09,0,0,0,1.62.56c.59-.55.58-1.31,1.9-1.61a1.83,1.83,0,0,0,1.56-1.41c0-.18.28-.34.44-.51a3.09,3.09,0,0,0,2.23-.37A2.84,2.84,0,0,1,30.72,44c.58.13,1.05-.11.88-.39s-.39-.54-.58-.81-.08-.45.28-.49a1.37,1.37,0,0,1,.8.21c.94.79,1.81,1.6,2.71,2.41,1.15-.45,2.49-.13,3.7-.33.81.29,1.87.35,2.34.93a3.83,3.83,0,0,1,.43.11,5.94,5.94,0,0,0,4.16.16l3.44,1.52a1.36,1.36,0,0,0,0,.29c.25.61.53.71,1.22.43.54-.22,1.07-.46,1.59-.68H55c.7.28,1.51.63,2.33,1a35.09,35.09,0,0,0,3.35,1.26,26.75,26.75,0,0,0,3.79.71c1.66.22,3,.86,4.6,1.15,2,0,4,0,6,.15a50.29,50.29,0,0,1,5,1c.8-.06,1.39-.4,2.07-.16,1,.38,1.9-.11,2.92-.22a25.54,25.54,0,0,0,4.22.59,5.15,5.15,0,0,0,3.34,1.13,12.76,12.76,0,0,1,2.55.44,16.42,16.42,0,0,1,2.18-.44,4.08,4.08,0,0,0,3-1.35c.06-.07.25-.1.4-.16a7.66,7.66,0,0,0,1.14.95,3.54,3.54,0,0,1,1.53,1.82c.14.35,1.21.42,1.68.14a2.74,2.74,0,0,0,.68-.43,5.21,5.21,0,0,1,3.58-1.5l2.43.79c.75-.84.76-1.8,2-2.43a7.86,7.86,0,0,1,3.36-.2,8.56,8.56,0,0,0,2.4.21,1.65,1.65,0,0,1,.89.15c1.37.84,3.33.81,5,1.26l1.82-.94a7,7,0,0,1,2.36.55c.45.13.73.46.5.75-.59.7,0,1.1.91,1.44.28.1.53.22.8.33a10.34,10.34,0,0,0-1.12.87c-.17.17.07.39.43.47a3.19,3.19,0,0,0,1.41-.13c2-.39,2.39-.31,3.77.73.2.16.37.32.59.47a1.09,1.09,0,0,0,1.25-.1c.24-.34.44-.69.67-1l1.22.55.4-.53.4-.52c.83.12.52.6.79.89a1.56,1.56,0,0,0,1.25.31c.69-.27,1.34-.59,2.06-.83a2.79,2.79,0,0,1,1.89,0l.27.8a2.76,2.76,0,0,0,1.88,0c.61-.17,1.19-.4,1.06-.88-.23-.86.54-1.5,1.4-2.09a.7.7,0,0,1,.82,0c1,1.24,1,1.25,3.06,1.83.83-.14,1.76-.36,2.72-.45s1.67,0,2.54,0l4,1.14h0c.48-.44.52-.44,1,0l.94-.36,1.55-.58c.56-.17,1.35.45,2.36.38.79,0,1.62,0,2.51.07a10.92,10.92,0,0,0,1.34.86,2.1,2.1,0,0,0,.87-.06.63.63,0,0,0,.35-.19,2.41,2.41,0,0,1,2.58-1c.7-.2.52-.64.77-1a1.39,1.39,0,0,1,1.21-.34c.7.25,1.37.52,2.06.79a5.36,5.36,0,0,1,2.36.1c.49.11.76-.17.62-.54s-.24-.73-.36-1.1c1,0,1.92-.05,2.88-.1.56,0,1.1-.48,1-.86a10.84,10.84,0,0,0-.42-1.19,4.61,4.61,0,0,1,1.32-.16,25.6,25.6,0,0,0,4.76.57,15.74,15.74,0,0,1,2.33.39,1,1,0,0,0,1-.49,2,2,0,0,0,.15-.54,4.21,4.21,0,0,1,3.4.85,1.88,1.88,0,0,0,.42.18,18,18,0,0,0,3.95.08,1.24,1.24,0,0,0,1.19-.84,5.07,5.07,0,0,0,0-.87l-1.45-.95,3.73-.77,2.09.82a3.46,3.46,0,0,0,.88-.16,6.5,6.5,0,0,0,.91-.71,3.94,3.94,0,0,1,3.09-.48,1.39,1.39,0,0,1,.66.41c.33.45.28,1,1,1.33a1.68,1.68,0,0,0,.81.12c.45-.28.78-.63,1.23-.92a3,3,0,0,1,3.06,0c.12.07.16.19.27.25a1.46,1.46,0,0,0,1.69,0c.23-.14.42-.3.65-.44s.27-.12.46-.21c.44,0,.93-.07,1.43-.06a2.43,2.43,0,0,1,1.65.55c.37.32.5.3,1,0,.29-.16.6-.3.74-.16a3.5,3.5,0,0,0,2.46.85,4,4,0,0,1,.47.11c1.07.18,1.22.07.92-.76-.14-.39.1-.56.75-.5.33,0,.64.12,1,.16a2,2,0,0,0,.45-.1l1.38-2.49c.47-.88,1.81-1.41,2.38-2.18l2.28-.59c0-.46-.08-.83-.12-1.21,1.55-.58,3.07-1.18,4.65-1.71a5.65,5.65,0,0,1,1.44,0l.67-1.1,1.36-.16c.08-.08.23-.16.24-.25.14-.86.84-1.48,2.24-1.8.81-.19,1.66-.55,1.66-1,0-1,1.46-1.53,2.06-2.37.08-.36.16-.75.28-1.14s.57-.66,1.39-.59c.33,0,.65.11,1,.16l2.87-.49c.78-.34,1.11-1,2.29-1.08a19,19,0,0,0,2.72-.63l2.2-1.84h1.1l2.45.71c1.59.32,3.53-.1,5.11.42l2.42-.31c1.16.39,2.4.87,3.76,1.23,1.2.31,2.54.5,3.85.7,2.28.34,4.06,1.14,6.28,1.54a15.13,15.13,0,0,0,4.86.88c.37,0,.75.1,1.33.18.75-.17,1.62-.42,2.55-.55s1.95-.12,3.43-.2l4.71.81,3.86-.07c1.74.31,2.95,1.05,4.81,1.13a1.74,1.74,0,0,0,.52,0c.42-.12.51-.31.27-.52-.81-.68-1.46-1.38-.88-2.27,1-.64,2.75-.64,4.11-1.13.49.05,1,.14,1.62.18a25.18,25.18,0,0,0,8.07-.54,8.1,8.1,0,0,1,3.4-.18,11.71,11.71,0,0,0,2.3.15,7.18,7.18,0,0,0,2.2-.36,19,19,0,0,1,4-1.25c2-.42,3.68-1.2,5.83-1.5a2.72,2.72,0,0,0,.94-.37,9.82,9.82,0,0,1,3.59-1,12.33,12.33,0,0,0,5-1.6,11.73,11.73,0,0,0,2.08.76c.42-.09.89-.17,1.34-.29a5.89,5.89,0,0,1,2.94-.1c2.44.64,5.33.49,7.41,1.6l3.6.06a16.23,16.23,0,0,1,4.41.42,9.71,9.71,0,0,0,2.46.17c2.34,0,4.68,0,7,0l2.59,1a5.75,5.75,0,0,0,.83.14c.86.08,1.75,0,2.61.11l.94.2a46.86,46.86,0,0,0,6.43,1.64,6.53,6.53,0,0,1,1.25.47,6.4,6.4,0,0,0,1.75.52,52.41,52.41,0,0,1,5.76,1,37.91,37.91,0,0,0,5.75.95,2.91,2.91,0,0,1,.95.16,29.8,29.8,0,0,0,6.11,1.22,17.2,17.2,0,0,0,2.42.35c.66,0,1.33,0,2,.07.91.26,1.84.49,2.7.8a20.9,20.9,0,0,0,7.4,1.5c1.21.07,2.16.53,3.35.57,2.17.07,4.1.88,6.34.7,1.27.23,2.55.46,3.8.72,1.42.28,2.8.65,4.24.88,1.28.2,2.61.21,3.89.54a16.61,16.61,0,0,0,3,.17,15.32,15.32,0,0,1,2.95.22c1.69.47,3.68.23,5.26.9a9.57,9.57,0,0,0,1.81.5,6.74,6.74,0,0,0,3.4-.12c.3-.09.58-.2.89-.28,1.2-.31,1.54-1.37,3.18-1.28L487,40h4l1.82,1c1.34.09,1.92-.73,3-.9.16,0,.32,0,.49-.06,2-.06,4,0,6-.2,1.77-.19,3.46-.68,5.3-1.06,2.77.82,5.81.61,8.8.58a5.69,5.69,0,0,0,1.44-.2,10.44,10.44,0,0,1,2.92-.36,14.12,14.12,0,0,0,3.91-.39,11,11,0,0,1,2.47-.2,24.21,24.21,0,0,0,5.9-.45c.73-.2,1.52.3,2.41.1a12.27,12.27,0,0,1,2.45-.22,14.28,14.28,0,0,1,2,.17,10.86,10.86,0,0,0,1.9.34,28.16,28.16,0,0,1,5.35.68l1.88.31,3.23-.84c1.82-.21,3.66,0,5.46-.44,1.52-.39,3.2-.56,4.19-1.33,1.37-.07,2.54-.11,3.7-.2a2.25,2.25,0,0,0,1.61-1l6.22-2c2,0,3.85,0,5.68,0a14,14,0,0,0,5.32-.78,5.78,5.78,0,0,1,1.72-.42,55.66,55.66,0,0,0,7.26-.42c2.34-.47,4.55-1.24,7.07-1.14a10.44,10.44,0,0,0,4.36-.85,4.94,4.94,0,0,1,3.52-.23c2.44,1.15,4.59.74,6.91-.06a10.7,10.7,0,0,1,2.71-.23,7.78,7.78,0,0,0,5.17-2.53c.18-.16.36-.49.25-.61l-.14-.17c2.75,0,5.51,0,8.17.08l2.31.9c.78-.3,1.56-.64,2.4-.92s1.52-.41,2.33-.63c4,0,8,0,12,0a19,19,0,0,0,4-.51l4.28,1.1h7.28a14.12,14.12,0,0,0,3.91-.39,7.63,7.63,0,0,1,2-.2c1.5,0,3,0,4.4,0l6.47,2.21L684,28.59a3.56,3.56,0,0,0,2.49.84c.84,0,1.68,0,2.51,0a11.57,11.57,0,0,1,5.44,1.31c.76.39,1.44.83,2.16,1.25a5.57,5.57,0,0,0,1.46.79c1.94.44,3.06,1.52,4.85,2.08,1.61.51,3,1.21,4.58,1.8a6.93,6.93,0,0,0,1.79.47c1.27.09,2,.68,3.45,1.15,1.3.21,3.23,0,4.91.55a7.28,7.28,0,0,0,2,.13h5.82c3.55.89,3.55.89,4.93,2,5.07,1,5.07,1,9.24,1,1.5,0,3,0,4.33,0a8.9,8.9,0,0,1,3.75,2.23l4.18,1.25c.46,0,.79.07,1.13.07a27.87,27.87,0,0,1,7.33.7,9.45,9.45,0,0,0,5.74,0,3.64,3.64,0,0,1,.58,0,16,16,0,0,0,1.54.69,3.18,3.18,0,0,0,1.37.22,5.66,5.66,0,0,1,2.39,0,6.54,6.54,0,0,0,3-.08,14.64,14.64,0,0,1,6.84,0,7.8,7.8,0,0,0,3-1,2.84,2.84,0,0,0,.24-.26c.38-.72.75-1.44,1.11-2.14a16.93,16.93,0,0,1,6.39-2.24c2.57-2.07,6.81-2,9.51-3.9a4.26,4.26,0,0,1,2.34-.61c3,.13,5.32-1.44,8.26-1.35,2.55.08,5.12,0,7.68,0,.83,0,1.66-.15,2.39-.22,1.55-1.33,3-2.59,4.48-3.83A7,7,0,0,1,829,30.24c3.06-1.15,5.44-3,8.19-4.52,2,0,4-.06,6-.11,2.82-.07,5.69.29,8.43-.55a3,3,0,0,1,1.61.05c1.9.63,3.94.36,5.89.56,1.11.11,2.19.41,3.43.64A46.17,46.17,0,0,0,868,25.12a19.18,19.18,0,0,1,7.85-.57c.91.49,2,1.13,3.19,1.7a4.23,4.23,0,0,0,4.59-.36c.6-.42,1.14-.89,1.76-1.39l8.69-.23a10.54,10.54,0,0,0,2.07-.86,6.82,6.82,0,0,1,7-.8,9.44,9.44,0,0,0,3.28.49c6,0,12,0,17.94,0a13.61,13.61,0,0,0,4.13-.64c1.29-.41,2.69-.63,4.53-1l4.15-2.73c2.83-.71,5-1.2,7.1-1.78,4-1.09,8.26-1.37,12.21-2.51.79-.23,1.6-.41,2.38-.62a1.68,1.68,0,0,0,.65-.43l4,.13A15.48,15.48,0,0,1,967,15.31a14.65,14.65,0,0,0,4.2,1.57c1.26.31,7.63,1.17,9.17,1.31a13.53,13.53,0,0,1,1.94.26,14.48,14.48,0,0,0,6.35,0c1.07-.25,2.29-.25,3.38-.47s2.13-.57,3.35-.91c1,.2,1.6.35,2.23.45a1.91,1.91,0,0,0,1.68-.45,1.83,1.83,0,0,0,.14-.28c.46-1.17,1.69-1.88,3.64-2.18a5.5,5.5,0,0,0,1.37-.33c.55-.24.91-.56,1-.95l1.68,0a11.42,11.42,0,0,1,3.79,2.53,7.67,7.67,0,0,0,1.22.94c1.42,1.13,3.73,1.65,5.32,2.66.92,1.35,2.92,2.13,4.33,3a8.07,8.07,0,0,0,2.72.35,8.61,8.61,0,0,1,2,.07c2.37.66,4.91.48,7.13.54,3.94.81,6.54,2.67,10.4,3.5a27.09,27.09,0,0,1,7.62.88,21.78,21.78,0,0,0,3.08,1.45c1.2.4,2,1,3.15,1.45a31.36,31.36,0,0,0,4.9,1.48c1.44.27,2.8.63,4.17,1a6.25,6.25,0,0,0,1.4.3,17.92,17.92,0,0,1,5.16,1.08c1.33.41,2.75.68,4.17,1a16.16,16.16,0,0,0,4.61.28,68.71,68.71,0,0,1,8.84-2.14,29.87,29.87,0,0,0,3.64.45,11.17,11.17,0,0,1,3.46.25,3,3,0,0,0,1,0c.65-.06,1.29-.22,1.94-.25a12.88,12.88,0,0,0,5.16-1l1.75-1.3a8.11,8.11,0,0,1,3.59.24,4.12,4.12,0,0,0,2.41,0,10,10,0,0,1,2.92-.35h12.39l2.75,1a35.85,35.85,0,0,1,6.11-2.64c.78.07,1.58,0,2.36,0a9.59,9.59,0,0,1,5.34,1.33c.76.51,1.94.92,2.58.44,2.87-2.17,5.93-1.63,9-1.78.92,0,1.83-.12,3.27-.21a53.11,53.11,0,0,0,4.45-3.13,8.31,8.31,0,0,0,1.89-2.68,4,4,0,0,0,.21-2.36,1.42,1.42,0,0,0-.11-.33c.62,0,1.24,0,1.85-.08,1.28-.13,2.49-.65,3.79-.07,1.49.05,3,.15,4.49.14a24.16,24.16,0,0,1,4.9.47c1.22.26,2.63.23,4,.64.5-.11,1.1-.26,1.73-.38a4.42,4.42,0,0,1,1.95.06,12.48,12.48,0,0,1,3.37,1.27c.45.28,1,.52,1.26.65a5.85,5.85,0,0,0,2.68-.22,5.45,5.45,0,0,1,4.07.76,5.59,5.59,0,0,1,.91.7,4.25,4.25,0,0,0,2.36,1.46,5.57,5.57,0,0,1,2.79,1.66,9.85,9.85,0,0,0,3.28,2.18,33.63,33.63,0,0,1,7.65,2.19,6.47,6.47,0,0,0,1.31.41,21,21,0,0,0,2.84.56c2,.15,3,.75,3.27,1.9.08.36.68.46,1.62.33.16,0,.32-.07.48-.08a5.56,5.56,0,0,1,.62,0l2.54,1.27,2.18-.73a2.75,2.75,0,0,1,.51.14,20.86,20.86,0,0,0,5.07,2.39c1.24,1,3.28,1.34,4.78,2.13a4,4,0,0,0,1.82.43c1.9,0,3.48.65,5.14.82,1.59.89,3,1.71,4.4,2.49a22,22,0,0,0,5.1.24c1.67,0,3.34,0,5,0,2.46-1,4.08-2.42,6.35-3.36a21.17,21.17,0,0,0,3.47,0,10.21,10.21,0,0,1,4.48.23c.3-.22.61-.45.9-.68a4.66,4.66,0,0,1,2-.84c1.58-.35,3.27-.13,4.86-.54.68.49,1.29.94,2,1.47,1.43.27,3,.65,4.61.81s3,.06,4.59.08c1.52,1,3.72,1.23,5.74,1.65a2,2,0,0,0,1.78-.32c.76-1,2.27-1.48,3.84-1.79a79.6,79.6,0,0,0,7.93-1.78,6.21,6.21,0,0,1,2.94,0c1.27.23,2.54.48,3.76.79a15.41,15.41,0,0,0,2.95.26c1.19.07,2.19-.6,3.41-.24l2.22-.8a11.23,11.23,0,0,1,4.74.23c1.06.29,1.13,1.25,2.26,1.41a21.47,21.47,0,0,0,2.37.1c1.33-.72,1.53,3.18,2.75,2.84s3.84,2.28,4.84,2.26a9.32,9.32,0,0,0,2.44-.28,7.31,7.31,0,0,1,4.76.2c2,.74,4.51.66,6.65,1.22A5.24,5.24,0,0,0,1365,48c.83-.05,1.64-.16,2.78-.28l1.1.17c.95.17,1.89.42,2.86.5.78.07,1.68-.19,2.4-.06,1.76.31,3.63.32,5.33.77a5,5,0,0,0,1.08,0c.28-.19.6-.41,1-.61a2.94,2.94,0,0,1,2.7-.16c.7.27,1.37.56,2.11.87H1394c1.38.27,2.55.61,3.71.9a.83.83,0,0,0,0,.15,1.13,1.13,0,0,0,1,.55c.39,0,.81,0,1.2,0V66Z"/></svg>