<svg id="elements" xmlns="http://www.w3.org/2000/svg" viewBox="0 0 870 535"><title>rip-courses-photocallout-mask</title><path d="M870,0V482.77a19.87,19.87,0,0,0-5.83-.56,33.39,33.39,0,0,0-3.26.84c-1.13.21-2.31,1.07-3.54,1.18a8,8,0,0,1-4,2.07c-1.51.77-3.09,1.3-3.58,3-.74.29-2.82-.07-.59.93-1.12.33-1.81.64-.59.8-3.51.45-.7.92-3.68,1.23-1.78,1-3.47,1-5.2,2.14-1-.06-1.82,1-2.54,1.72-.76.1-1.43.79-2,2.06-.75.71-2.16-.21-3.13,1.42-.54.25-1.33.27-1.91.48.71.57-1.75,0-3.15-.72-1.45.89-4.28.07-6.79-.15-2.29.06-4.76.81-7.21.23a10.24,10.24,0,0,0-4.79-1.55c-2,.72-1.14-1.27-2.52-.69a3.52,3.52,0,0,0-3-.07c-.53.06-1.76.75-2.81.54-1.24,0-3.25-.64-4.31,0a8.73,8.73,0,0,0-5,1.29,12.21,12.21,0,0,1-4.07,1.52,10.45,10.45,0,0,0-3.34.16,38.88,38.88,0,0,1-4.09-.08,14.85,14.85,0,0,1-3.65.94,13.75,13.75,0,0,0-3.53,2.07c-1.65,1.49-2.84,1.16-4.91,1.66-1.75.09-2.14.79-3.79.65s-.72.48-2.55.41c-1.15.17-3,.26-4.83.48-.58.09-1.64,0-1.56.7-.21.47-1.92.6-3.51.83-1.23.78-3.33.73-4.91,1.11s-2.91,1-4,0a33.56,33.56,0,0,0-4.73.08,14.08,14.08,0,0,0-3.53,1.07c-2.37-.24-4.43,1.16-5.94,2a14.67,14.67,0,0,1-4.73,1.72c-2.15-.07-3.69,1-5.37.93-2.2,2.59-4.69,1.24-6.31,1.36a6.11,6.11,0,0,0-6.79-1.14c-1.5.19-2.8-.06-4.53.65-2.47,2.81-2.11-.66-3.75.39-1.1-.53-3.57,2.08-4.59.28a5,5,0,0,0-4.2-.88c-2.53-.67-6,0-8.63.67-.72.22-2.69-.31-3.25.27-1.29.29-2.36-.26-3.46-.17a7.56,7.56,0,0,1-3.28,0,20.48,20.48,0,0,1-3.15.52c-.35.16.42.53-1.28.43s.15.34-2.32.34a39.39,39.39,0,0,1-4.36,1.14,7.32,7.32,0,0,1-2.35,1.91c-.67,1.47-1.56,3.85-3,3.77-1.65-1.07-2.29,1.62-3.31-1.2-.78-.38-1.26.35-1.58-.11-1.69-.58-3.11-.11-4.39-.59a5.61,5.61,0,0,1-4.73-.14c-1.11.72-2.77.94-4.94,1.54-2.26-.29-5.08-1.45-8.15,0-2.71.29-5.12.66-7.57,1a65.7,65.7,0,0,1-7.8.56c-1.91-.3-3.5-.49-4.91-.6a17.8,17.8,0,0,1-3.77-.1c-1.35-.49-2.82.95-4.27.52-1.45,2.56-2.89.41-4.18,1.44-1.7.37-3.48.39-5.38,1.22-1.91-.74-4,.34-6.18,1.41-2.23.89-4.66.36-7.34,1.36-3.45-.2-6.38-1.79-8.94-.86-2.55-.59-4.7-1.82-6.6-2.4s-3.41-1.29-5.1-1.86a14,14,0,0,0-6-.71c-3.53-1-5.52-3-8.71-3.39-3.21,1.39-5.93,2.94-9.62,3.93a5.43,5.43,0,0,1-2.73-1c-.65-.34-1.62-.65-4.85-1.21a6.14,6.14,0,0,1-4.75-.66c-1.78-.11-4-.31-5.81.52-5.06.69-6.48,2.89-8.36.65-1.63-.36-3.13,0-7.59-.27a10.09,10.09,0,0,1-4.19,1.11c-1.33.09-2.62-.43-3.83.31s-2.45-1.89-3.59-.4c-1.15-1.6-2.24.36-3.28-1.07-1.05,1.86-2.06.41-3-.59-1,.75-1.93-1.51-2.87-2.38-1.68-.06-3.29-1.47-5,0a13.94,13.94,0,0,1-5.48-.1c-4.55,0-6.46-.92-7.23-1.44-5.72-.22-4.75-.48-5.47-.58-2.83.29-4.07.39-3.6.07-2.52.36-3,0-5.11-.06-1.78-.52-3.26-.39-4.55-1.86-.21-2.11-3-.94-4.67-1.34-1-.73-3-.75-4.34-1.25a29,29,0,0,1-5-.43c.46-.5.2-1.44-1.85-.93-1.67.44-2.78-.31-2.74-1.6a20.18,20.18,0,0,1-2.69-.9,9.1,9.1,0,0,0-3.17-.67c-1.07.06-2.13-1-3.13-1.69-1-.28-1.95-2.1-2.79-1.66-1,.51-2-3.75-3-2.93a27.34,27.34,0,0,0-3-1.3c-2-.57-4,1.22-5.94-.87-2,.23-3.92-1.88-5.89-2.47a3.07,3.07,0,0,0-3-.67c-1,.25-2,.82-3,1.16-2-.23-4.2,2.17-6.46,2.28-2.28,1.81-4.54-.2-6.63,1.59-.93-.67-2.42-.28-3.6-.68a2.72,2.72,0,0,0-2.35-1.38c-2-.61-3.27-1.67-5-2.11-2.34.21-3.57-1.18-5.57-1.37s-4.22-1.1-6.26-.85c-2,.48-3.77,1.08-5.87.48-.94.05-1.95-.81-2.92-.37a4.59,4.59,0,0,0-2.26-1.09c-1.09-.67-2.31-.49-3.57-.44a11.51,11.51,0,0,0-2.26.48,28.32,28.32,0,0,1-5.35,1.12c-9.69,1.5-12.16,1.69-14.16,1.67a15.89,15.89,0,0,0-6.43.59,8,8,0,0,1-6.83.65c-2.41-.26-4.84,1-7.24,1.54-2.38.78-4.86,3.33-7.23,1.5-2.36,2-4.61-.28-6.52-1.43-1.27.06-2.55.06-3.85,0a26.92,26.92,0,0,0-3.92-.33c-1.31-.6-2.64.25-4-.68a23.51,23.51,0,0,0-4-1.1c-3.18-.38-6.23-.58-9.25.41-3-1.52-6-1.66-9-1.8-2.21.05-4.4,0-6.59,0s-4.37-.08-6.53-.1-4.28.92-6.43,1.4c-2.14,1.67-4.32.46-6.67-1.44-2.18-2.37-4.39.85-6.62,1.16-2.22-.05-4.47,3.41-6.74,1.13-2.23.27-4.47,1.35-6.64.2-2.21,1.27-4.06-.05-6.87.84a54.63,54.63,0,0,1-6.06-.4c-1.64-.16-2.83-.31-4.38-.47-3-.07-4.23-.16-4.24-.39-.87-.13-3.58.62-3-.18-1.21.08-2.56.47-3.4.53a5.89,5.89,0,0,0-2.81.28c-.78-.5-2.16-.05-3.58.11s-3.23,1.32-5.17.15a11.47,11.47,0,0,1-6.84.51c-1.9-.71-3.47-1.35-4.86-.79a12.73,12.73,0,0,0-3.73-1.12c-1.15-.35-2.23-.34-3.38-1.17-2.18-.29-4.55-.05-7-2.28a18.6,18.6,0,0,0-3.85-1,8.91,8.91,0,0,1-4-1.78c-1.77-1.07-3.35-2.66-4.84-1.24-1.48-.72-2.87,1.1-4.23-.18-1.36,0-2.7-.42-4.11,0-1.4,0-2.86,1.21-4.46-.56a14.58,14.58,0,0,0-8.51,1.26,14.11,14.11,0,0,1-7.8-.33c-1.64-.49-3.4.2-5.11-.58a8.26,8.26,0,0,1-2.63-1c-1-.74-2-.18-3-1.61-1.67.74-3.28,0-5,.05-1.61-.42-3.57.34-5.17-.33-1.72-1.31-3.76.22-5.56-.24-2.59,2.41-4.57.68-6.77-.19-2.9.57-6.75,1.69-7.72,1.4-1.26,0-4.71.83-5.45.61-1.34.6-1.79,1.08-2.47.25-.56,1.05-1.7.07-2.39-.37a7.78,7.78,0,0,1-3.52-1.09,7.62,7.62,0,0,1-4.22-1.48c-1.88-.05-2-1-3.88-.79A2.52,2.52,0,0,0,23,486c-1-.49-2.61.51-3.5-.21-1.19,0-2.35-.41-3.56,0-2,.89-3.86-1.27-5.78-1.48a19.34,19.34,0,0,0-5.73.26A11.58,11.58,0,0,0,0,482.65V0Z"/></svg>