<svg id="elements" xmlns="http://www.w3.org/2000/svg" viewBox="0 0 275 25"><defs><style>.cls-1{fill:#4a455c;}</style></defs><title>rip-navLarge-dropdown-search</title><path class="cls-1" d="M0,0V14.66a1,1,0,0,0,.43-.28c.19.12.43-.15.72-.08s.3-.09.47-.24a1.08,1.08,0,0,1,.51-.37c.18-.44.36-.16.55-.34.18,0,.37.07.56-.39.22.08.44.25.66,0s.44-.31.67-.66.45-.13.68-.27c.23.14.45,0,.67-.21.22.1.44.24.65-.11s.42,0,.62,0c.24-.3.49.06.73-.36.24.15.48-.38.72-.27A1.26,1.26,0,0,1,9.36,11c.24-.11.48,0,.72-.17s.48-.38.72-.07c.24-.15.49.2.74,0,.39-.08.77.05,1.13-.15s.7-.39,1-.34c.15,0,.3-.43.43-.41.14-.26.26-.35.37-.31.24-.17.46-.2.68-.35.21-.55.43,0,.64-.4s.45.27.71-.14c.23.45.49.55.8.38a3.93,3.93,0,0,1,1.93.36,4.33,4.33,0,0,0,.95.11.73.73,0,0,1,.92.17c.31,0,.6.14.9.15s.58.4.91.15.64,0,1,.26.54,1.14.94.5c.16.41.49-.33.64.15.17.27.42.11.61.25.25-.12.45,0,.72-.24s.31.46.6.21c.36-.67.47-.16.72-.29s.5-.57.64-.08c.15.26.48-.45.64,0,.19.21.5-.35.73-.32.26-.38.5-.34.74-.43s.49-.47.73-.36c.25,0,.47-.6.71-.34.23,0,.46.13.68,0,.26.59.45,0,.68.16a2.25,2.25,0,0,1,.67.21,2,2,0,0,0,.7.65c.24.32.43,0,.64,0,.2-.29.43.08.64,0,.22.21.43.32.62.07a.68.68,0,0,1,.62-.41c.2,0,.53-.8.66-.35.28-.29.47-.18.75-.37.42-.54.51-.12.86-.37a4.77,4.77,0,0,1,1.32-1.08c.12-.14.14-.39.44-.33s.53,0,.5-.28a2.46,2.46,0,0,1,.85-.08c.33,0,.57-.13.9-.16.48.21.62-.16,1-.19A3.21,3.21,0,0,1,45.84,7a3.72,3.72,0,0,1,.81-.09c.26,0,.49-.1.74-.11.21-.52.47-.06.7-.14a1,1,0,0,0,.69-.25.87.87,0,0,0,.67-.07,5,5,0,0,1,.67.16,2.44,2.44,0,0,1,.63.25,5,5,0,0,1,.56.31,3.72,3.72,0,0,1,1.18.18l.67.17.73.21c.17.1.37.09.55.18A.93.93,0,0,1,55,8a1,1,0,0,0,.65.07c.2.12.4.48.63.32.21.1.43.26.65.15a.92.92,0,0,1,.64.28c.2.26.41.24.62.31s.35.34.56.32c.29.48.77.22,1.09.52.4,0,.77.18,1.15.19a2.38,2.38,0,0,1,1.68,0l.85.2c.28,0,.55,0,.81.09.25.3.51.55.77.29.26-.06.53.13.8,0a2.26,2.26,0,0,1,.82,0c.27-.2.54.23.8.13a3.33,3.33,0,0,1,1.38.49c.47.44,1,.24,1.55.14a7.79,7.79,0,0,1,1.6,0l.78,0c.26-.13.51.22.76,0a1,1,0,0,0,1.49.26,4,4,0,0,0,1.49.32,1.57,1.57,0,0,1,1-.09c.34.17.67.33,1,.14a5.46,5.46,0,0,0,1,0c.34.28.67-.13,1,.21a.81.81,0,0,1,1,0c.34-.14.67,0,1-.35a1.81,1.81,0,0,0,1.69.07c.28.05.56.13.84.19a2.69,2.69,0,0,1,.84.1c.28.1.57,0,.86.07.28-.14.57.11.86,0,.29,0,.57-.08.86,0a1.75,1.75,0,0,1,.86.15c.18,0,.36-.09.55.37.18.24.37-.2.56.19.38-.13.76.08,1.15,0s.77-.46,1.16-.22c.29,0,.57-.21.85-.09s.56.37.84.25c.28.09.56.39.84.28a6,6,0,0,0,.85,0c.18.07.37.17.55.23.18.63.37,0,.55.34.18-.51.37.46.55.23.18,0,.37.16.55.18a1.38,1.38,0,0,0,1.1-.61c1.07.32,2.14.4,3.24.84.59.42,1.13.78,1.65.43.52,0,1-.9,1.49-.66.49,0,1-.62,1.46-.85a1.48,1.48,0,0,1,1.51-1,3.11,3.11,0,0,1,.84.1c.29.07.58.35.87.25s.58.84.87.27c.28.39.57-.33.84-.15s.61.12.91.26c.31-.36.61.3.92.26.3.15.6.67.91.56s.6-.39.9-.25a1.39,1.39,0,0,1,.9,0c.3.12.6.08.9-.37.29.14.58,0,.87.16s.58-.08.86.09c.28,0,.57,0,.85,0a1.52,1.52,0,0,0,.87.08.74.74,0,0,0,.87.09,1,1,0,0,1,.87.24c.59.22,1.21,0,1.79.32a2.28,2.28,0,0,0,.89.38c.29.19.58-.16.86,0,.2-.36.39-.12.58.16.19.08.38.21.57.08.38.57.75.13,1.13-.05.19,0,.37,0,.56-.29.19.15.37-.13.56-.63.56.26,1.12-.15,1.68.11.56-.2,1.13.07,1.69-.3.28-.05.57-.08.85-.12s.57-.24.85-.08c.29-.2.6.06.88-.1a.58.58,0,0,0,.87-.13,7.79,7.79,0,0,1,1.26.2c.33-.18.72-.22,1-.42a.68.68,0,0,0,.58,0c.15-.21.33-.34.53-.24a.88.88,0,0,1,.86-.2c.3.26.57-.07.84-.27.3.45.56-.24.84,0a.93.93,0,0,0,.82-.31,5.17,5.17,0,0,0,2.07-.23c.68-.16,1.35.25,2-.16a2.54,2.54,0,0,1,1-.15,2.93,2.93,0,0,0,1-.11,1.68,1.68,0,0,0,.74,0c.26-.09.53-.26.8-.07.28-.14.55,0,.84-.12s.56.18.85-.12a2.46,2.46,0,0,1,1.67-.19,1.58,1.58,0,0,1,1.54.34,3.34,3.34,0,0,0,.78.06c.26.05.53.16.81.2.27.36.55,0,.83,0a7.1,7.1,0,0,0,.88-.16c.37-.37.77-.27,1.18-.28.42.16.85,0,1.3-.66.45-.08.92-.66,1.4-.91a3.33,3.33,0,0,0,1.17.27,1.19,1.19,0,0,0,.63.13,1.31,1.31,0,0,0,.65-.21,2,2,0,0,1,.67-.28c.23-.06.46-.27.7-.17.19-.19.39-.11.59-.07.21-.2.42,0,.62-.15.21.09.42-.52.63-.27a1.6,1.6,0,0,1,.63-.33c.21-.12.42-.46.62-.3s.39-.12.58-.24c.19-.39.37-.27.56-.47s.36-.2.54-.31c.36-.36.72,0,1.06-.45a.89.89,0,0,0,.5-.27,3.74,3.74,0,0,1,.48-.49c.22.1.42-.17.61.19.19-.46.37-.08.55-.1a.9.9,0,0,1,.51-.34c.17.6.35-.25.53-.19a.56.56,0,0,0,.56-.15c.19-.46.4.13.63.11s.46.3.71.27c.25.29.5.05.77.43.26.61.53.14.8.62.27.24.54.58.8.52.25.87.5.83.75.74.22.17.43.32.64.21s.38.64.56.83.45,0,.61.21c.22,0,.52-.39.62.15a1.68,1.68,0,0,1,.66-.07c.28-.33.38.32.71-.3.27-.33.38.38.75-.55.39,1,.92.84,1.47.17s1-1.14,1.46-.69c.46.1.91-.43,1.35-.27a7.54,7.54,0,0,1,1,0,6.22,6.22,0,0,1,.95.09,1.83,1.83,0,0,1,1,.35c.34.11.7.56,1.05.55a2.1,2.1,0,0,1,1,.28,2.2,2.2,0,0,0,1,.23c.3.18.61.06.91.12a1,1,0,0,1,.87-.05,1.12,1.12,0,0,1,.82-.06c.26.13.54-.05.81-.12a1.5,1.5,0,0,1,.83-.11c.28,0,.57-.15.86-.13a9.82,9.82,0,0,1,1.27.2,3.18,3.18,0,0,0,1.27.22c.41-.26.82.09,1.21-.35.48.46.92.89,1.35.66a1.53,1.53,0,0,0,1.32.05,1.72,1.72,0,0,1,1.4.33,2,2,0,0,1,1,0,7.3,7.3,0,0,0,1,.16c.34.12.66-.06,1,0s.61.19.94,0a10.93,10.93,0,0,0,1.15-.13c.18,0,.37-.16.51-.06s.3.06.54-.19A.85.85,0,0,1,216,9.73c.4-.77.7-.85.91-.28.32-.16.47.75.77.87a.76.76,0,0,1,1,.37c.37-.08.46.7.89.61a1.3,1.3,0,0,0,.82.32c.25.2.48.51.89.11.25.14.49.32.79.09s.46.19.66.28a1.94,1.94,0,0,0,.68.22c.26-.11.53,0,.81,0,.28-.2.56.51.83,0a5.29,5.29,0,0,0,.79.19,2.12,2.12,0,0,0,1,.23c.36.45.74.11,1.11-.32.38-.28.76-.37,1.13-.66a2.6,2.6,0,0,0,.92.05,2.05,2.05,0,0,1,.92,0c.31-.41.61,0,.92-.21a2.22,2.22,0,0,1,.91-.14,15.14,15.14,0,0,0,1.83-.43,3.53,3.53,0,0,0,.91-.15c.31,0,.61-.27.92.13.31.7.61.41.91.6.3,0,.6-.07.9.63.31-.5.62.06.92-.4.31.88.57-1.22.88-.65a5.31,5.31,0,0,0,1.75-.9c.59-.26,1.18-.13,1.77-.38a7.74,7.74,0,0,1,1.8,0,1.88,1.88,0,0,1,.91.18c.31.32.61.09.93.34a6.48,6.48,0,0,0,1.84.22,3.59,3.59,0,0,0,.89.21,4.11,4.11,0,0,0,.86,0,.67.67,0,0,0,.85.19c.27-.23.54,0,.81-.13s.58.11.85.27.55.45.81.12c.26.26.51-.15.77,0,.25,0,.5-.07.75-.13s.5-.13.76-.18c.26-.53.5.22.77-.14.23.66.51.3.73.55.24,0,.43.22.7-.14.24-.1.57-.89.7-.17.21.09.4.29.63.27.33-.37.62-.51.73.07a.67.67,0,0,0,.68.3c.14.31.34.46.63.34.17.2.45.13.71.11a2.77,2.77,0,0,1,.66.15c.12.34.35.34.64.16a3,3,0,0,1,.62.19l.58.2c1.08.38,2.24.08,3.14.42a.82.82,0,0,1,1.07-.12,3.34,3.34,0,0,1,.47.51c.14-.09.33.54.48.71.17.47.32.56.46.57.16.32.31.31.47.47.36.36.71.56,1.05.36.17-.05.33-.44.49-.25.17-.21.33-.3.48.1a4,4,0,0,1,.92,0,.69.69,0,0,0,.85.09l0,0V0Z"/></svg>