<svg id="elements" xmlns="http://www.w3.org/2000/svg" viewBox="0 0 1160 75"><defs><style>.cls-1{fill:#f5d8c9;}</style></defs><title>rip-bio-combo5</title><path class="cls-1" d="M1160,0V17.36c-3,.27-5.9.38-7.89-.28-.95-.31,0-1.07-1.8-.95-2.56.15-2.86-.54-5-.65-1.53-.08-3.23.62-4.74.46-.5,0-.28-1-1.8-1-1.86.12-4.48.85-6.31.62-.56-.07-.23-1-1.8-.95-1.29.08-1.8-1.1-3.37-.81a21.64,21.64,0,0,1-9,3.16c.34,0-.92-1-1.8-1-2.58.16-2.85-.62-5-.65-2.59,0-5.32.95-7.89.78-.34,0-.41-1-1.8-1-2.24.14-4.42.76-4.95-.65a8.36,8.36,0,0,0-5.4-2.87c-3.16,2.3-11.77,1.7-15.34,3.78-5.72,1.18-5.47,1.58-14,2.5.71,1.11-.72.87-1.36,1.27-1.24.78-1.4,1.71-2.72,2.54-1.51.94-5.66,3.68-6.79,6.34-7.27-.9-9.79,1.48-18.94,1.86-.47,2.47-4.39,3.16-7.23,4.11s-6.85,1.24-9.25,2c-.24.08-.3,1-1.36,1.27s-2.25,0-3.15.31c-.53.18.19,1.05-1.36,1.26-2.51.35-6.85,1.51-9,3.16-.47-1.44-3.11-.44-5-.65-1.35-.15-1.8-.7-3.38-.8-3.07-.19-5.82,1-8.11-.34-6.43,3-12.92,3.47-23.45,3.44-.49,0-2.84.52-3.16.31-.12-.08-.09-1.1-.22-1.11-2-.14-6.17-.44-8.11-.34-2.94.15-4.35,1.46-7.67,1.89-1.94.25-3.87-2-6.31.62l-17.36,1.7c-1.3.34-1.57-.28-1.8-1-.7-1.75-4.24-.16-6.53-.5-1.85-.27-.61-.32-1.8-.95a41.81,41.81,0,0,0-10.34-3.53c-.75,1.6-3,2.41-5.88,2.85,1.73,2.91-7.6-.06-5.87,2.85-1.54-1.26-3.65.27-6.31.62-2.38.31-6.56.3-9.47.93.26-.06-.69,1.07-1.36,1.27-2.3.65-6.26-.19-6.09,1.73-1.88,1.32-5.67,1.63-5.65,4-4.57.74-5.35-2-9.91-1.3-1.23,2-6.47,1.87-9,3.16-7.08-1.75-15.45-2.28-24.55-2.13,0-1.36-2.48-.32-3.38-.8-.22-.12,0-1-.22-1.11-.62-.17-2.69.61-3.15.31-.25-.16,0-1-.22-1.12a19.87,19.87,0,0,0-1.8-.95,32.17,32.17,0,0,0-5.18-1.77c-9.06,2.28-16.21-2.11-24.55-2.12-5,0-10,2-15.56,2.66-1.4.16-3.77-.83-6.53-.49-3.61.44-4.79,2.28-10.83,2.2.3,0-1.09-1.79-1.8-1-.06.08.31,1.1.22,1.11-1.41.26-3.41,0-4.73.47-.5.16-1.88,1.32-1.36,1.27-3.52.39-8-1.34-14.42.28-.38,1.68-1.41,0-3.16.31-1.67,3-5,2.5-9.25,2-8.8-.71-5.77,4.89-13.54,4.74-8.52.44-12.59,3.25-18.28,5.2-3.29,4.09-12.07-.33-17.36,1.7-.37.15.35,1.76-1.36,1.27-3.1,0-6.15,2-9.25,2s-3.72-.73-6.75-1.6c-1.12-.33-2.18-.42-3.37-.8-.65-.21-1.58-.91-1.8-1-.62-.15-2.71.6-3.16.31-1.41-.93-1.47-1.57-3.59-1.92-1.44-.23-3.32.74-4.74.47-.57-.12-.42-.86-1.8-1-2.46-.19-3.94-.88-6.53-.49-1.43.21-2.13,1.52-4.51,1.57a37.29,37.29,0,0,1-6.54-.49c-1.28-.17-3.19-.3-5-.65-.6-.12-2.73.59-3.15.31-.86-.56-1.12-1.5-2-2.07-2-1.27-2.28-1.81-5.4-2.87-1.35-.46-4-.87-5.39-2.88-.79-1.46-4.13-.53-6.53-.49,0,1.29-1.46.78-1.58.16-1.54.12-1.5-1.25-2-2.07-3,.41-.37,3.78-4.07,3.8-1.41-.44-5.12,1.26-6.32.62a3.91,3.91,0,0,0-3.37-.8c-1.34.38-2.56,1-4.52,1.57-2.28.66-1.28,2.42-5.87,2.85A13.78,13.78,0,0,0,544.84,62c-.39-1.82-3.31-1.65-5.4-2.87-.54-.32.16-2-.44-2.23s-2.54.64-3.15.31c-.26-.14.06-1-.22-1.11-3.8-1.4-7.39-1.22-11.71-2.26-.48-2.86-2.93-.87-6.75-1.6-.66-.13-.28-.91-1.8-1a13.83,13.83,0,0,0-3.16.31c-.6.17-1.81,1.31-1.35,1.27-1.3.13-1.8-1.09-3.38-.8-1.91.33-4.05,2.44-9.25,2-5.87.2-5.68-5.25-12.14-4.48-3.62.43-8.55,3.18-12.19,3.47-1.83.14-2.83.2-3.38-.81-1.6-2.36-8.13-3-9.9-1.29-.17,1.17-3.81,1.81-6.1,1.73-2.48-.09-2,.14-3.37-.8-.64-.43-.26-1.41-1.8-1L438.3,52c-3.06-.41-7.73-.11-11.48-1.14-.9-.24,0-1.06-1.8-.95-.53,0-1,.11-1.58.15-4.56-1.9-15.28,2-16.66-2.9-1.67-1.52-4.44-2-8.33-1.45.67-3.71-3.12-3.24-5.61-4-1.11,1.3-3.5,1.16-6.1,1.73-2.1.47-4.62,0-4.51,1.58-2.42-1.38-9.25-.71-11.05,1.09,2.06,2.91-6.28.27-7.67,1.89-.05.05.25,1.11.22,1.11a20.17,20.17,0,0,1-3.37-.8c-2-.6-4.59-1.15-4-4.15-.6-1.73-1.64.16-1.58.16-3.72.2-7.51-4.13-12.14-4.48-1-.08-2.13.34-3.16.31-.71-.82-1.52-1-2-2.07-.26-.55.06-1.78-.44-2.23-1-.91-4-1-5.17-1.76-.94-.63-1.13-1.33-2-2.07s-1.75-2-3.6-1.92c-1.29.08-1.81-1.09-3.37-.8-3.46,2.48-11,2.78-15.12,4.89.62,1.43-12.89,2.9-18.72,3-1.81,0-2.85.29-3.38-.81a29.29,29.29,0,0,1-9.68-.18c-1.34-.23-1.1-.79-1.8-1s-2.71.61-3.16.31c-.28-.18.09-1-.22-1.11s-1.27.31-1.58.15,0-1-.22-1.11c-.62-.19-2.68.62-3.15.31-.28-.18.08-1-.22-1.11s-1.28.31-1.58.15,0-1-.22-1.11c-.83-.26-2.28.48-3.16.31a9.44,9.44,0,0,0-1.8-1c-2.3-.58-4.15.09-6.53-.49,0,0-1.34-.8-1.8-1a50.23,50.23,0,0,0-10.12-2.41c-3.21-.24-4.22.26-6.54-.49-.81-.26-1.35-.83-1.79-1-1.63-.48-2.86-.24-5-.65-1.31-.25-1.8-.75-3.37-.8-.95,0-2.26.48-3.16.31-1.76-.33-.62-.33-1.8-1-2.08-1.11-9-.08-14.64-.83-.58-.08-.22-1.05-1.8-1a8.55,8.55,0,0,1-1.58.16c-2.42-.42-2.28-1.28-6.75-1.61-6-.44-11.56.86-17.58.6-2.72-.12-5.25-1.08-8.33-1.46-.27,0-.66-.87-1.79-.95-2.57-.2-5.32.86-7.9.77-5.43-.21-14.84,2.95-17.57.59-1.83-1.8-3.7-3.57-8.56-2.56-4.2.23-3.39-3.26-7.19-3.83-8.25-1.24-20.65,5-31.34,4.21-4.22.08-.39,4.44-5.65,4l-7.89.78c-6.13-.61-4,3.2-9,3.15-2.49.57-2.93-.78-5-.64-1.6,1-11.33.1-15.78,1.55-2.32.75-2,1.27-4.73.46-1.32-.09-1.79-1-3.38-.8-1.12.11-1.48,1.61-2.93,1.42-.81-.1-1.39-1.94-2-2.07-.94-.19-2.22.48-3.16.31-.54-.1-.45-.85-1.8-1-1-.07-2.12.35-3.15.31L0,28.17V0Z"/></svg>