<svg id="elements" xmlns="http://www.w3.org/2000/svg" viewBox="0 0 1400 75"><defs><style>.cls-1{fill:#fbf7f4;}</style></defs><title>rip-freeevents-landing</title><path class="cls-1" d="M1400,0V9.08a21.58,21.58,0,0,1-8.41,2,19.08,19.08,0,0,0-3.38.37c-3.7,1.1-8.69.71-12.52,1.61a3.9,3.9,0,0,1-.87,0,20.6,20.6,0,0,0-7.57.63,13.84,13.84,0,0,1-5.13.34,44.85,44.85,0,0,0-10.62.2l-3.73,1.34c-1.79.24-3.54.4-5.1.7s-3,.74-4.54,1.14c-2.44-.18-4-1-6.2-1.33s-4.39-.73-7-1.17c-1.35.07-3.12.16-4.87.28a11.49,11.49,0,0,1-5.59-.77c-1.16-.53-2.48-1-3.64-1.53a5.44,5.44,0,0,1-1.35-.88,1.73,1.73,0,0,0-1.6-.62,16.63,16.63,0,0,1-3.37,1.08,42.56,42.56,0,0,0-9.88,2.74c-4.86.19-9.43.91-14.28.26a15.9,15.9,0,0,0-2.66,0c-1.78.08-3.55.26-5.32.24-2,0-4.09-.19-6.26-.31-1.73.44-3.48.86-5.16,1.32a18.12,18.12,0,0,1-6.77.48,39.2,39.2,0,0,0-5.31-.11c-1.75.05-3.53,0-5.56,0l-6.26,1.1c-1.09-.05-2.27-.18-3.42-.14a83.72,83.72,0,0,0-8.77.56l-3.25,1.14-4.44-.12c-1.75,0-3.5,0-5.32-.06l-3.33,1.14c-.83-.05-1.73-.07-2.56-.17a9,9,0,0,0-6,.95c-1.09.66-2.06,1.35-3.24,2.13-3.83,0-7.4.57-11.47.18-4.22-.39-7.45,1.31-11.82,1.09a9.76,9.76,0,0,0-1.06,0c-3.36-.16-5.72-.77-8.35-.74l-3.09.64-3.16-.73-.74,1.39L1150.25,28a6.11,6.11,0,0,1-2.37,3.33,6.12,6.12,0,0,1-3.86.39c-2.26-.57-4.48-1.17-6.77-1.71a6.39,6.39,0,0,0-1.69,0c-.6.08-1.08.67-.81.91s.77.62,1.13.93a9.65,9.65,0,0,1,1.39,1.26c.52.71.3,1.45-1.25,1.88a32.49,32.49,0,0,0-6.52,2.78c-.35.18-.8.33-1.2.5a4.09,4.09,0,0,1-2.4.11c-.74-.18-1.4-.43-2.13-.61a2.59,2.59,0,0,0-2,.43c-.45.88,1.16,1.82-.47,2.73l-3.27.93c-3.26.43-6.74.27-9.6,1-.41.11-1.18-.17-1.13-.39.13-.56.47-1.12-.21-1.66a3.22,3.22,0,0,1,.62-.25c.52-.11,1.1-.17,1.59-.29a4.27,4.27,0,0,0,1.24-.45c.84-.65.19-1.36-1.91-2.14l-10,.4a67.58,67.58,0,0,0-9-2c-2.51-.43-2.71-2-.44-2.63a20.32,20.32,0,0,1,2.36-.44,9.69,9.69,0,0,0,3.6-.79,8,8,0,0,0,1.13-1.34c.32-.59,0-1.2-1.39-1.55-2.17-.57-4.5-1-7.13-1.63-2.19,1.64-6.77,2.53-8.26,4.34,0,.5.87.85,1.49,1.24s-.07.78-1,.67c-2.7-.32-5.52.36-8,0-3.46-.58-5.55.55-8.38.66-1.48,0-2.94.16-4.42.21-.58,0-1.17-.06-2.26-.12l-4.33-1.33c-.34-.57-.59-1-.86-1.47a7.5,7.5,0,0,0-.48-.67,2.83,2.83,0,0,0-2.1-.41c-.37.16-.92.35-.91.53.09.92.39,1.83.48,2.75,0,.18-.48.46-.93.55-1.06.19-2.42.19-3.33.44a48.37,48.37,0,0,1-10.1,1.19c-3.54.21-7.1.37-10.61.62a47.65,47.65,0,0,1-7.93-.13c-4.79.88-9.29,2-14.8,2.19a22.82,22.82,0,0,0-3.81.7,30.24,30.24,0,0,1-7.58-1.11,39.11,39.11,0,0,0-9-1.34c-4,.56-8.68.11-13.12-.23-2.73-.66-5.25-1.28-7.83-1.86a3.48,3.48,0,0,0-1.41.25.38.38,0,0,0-.13.62,2.67,2.67,0,0,0,1.17.5c1.27.3,2.61.55,3.8.8a24.21,24.21,0,0,0,8.41,3.07A2,2,0,0,1,972.7,42c.17,1.15-.59,2.26-1.35,3.36a3,3,0,0,1-1.77.72c-2.89.24-11.88-2.07-13.42-1.22-1,.56-2.2,1.09-3.08,1.68-1.68,1.12-4.83,1.67-6.81,2.67a8.06,8.06,0,0,1-2.22.52,12.28,12.28,0,0,1-3.13-1.31,5.89,5.89,0,0,0-3.13-.55c-2.77.17-5.32.16-7.41-.73a7.73,7.73,0,0,0-1.52-.36c-3.84-.6-.84,2.36-4,1.14a8.53,8.53,0,0,0-1.65-.26l-35.37-4a23.25,23.25,0,0,0-4.42-.12,10.4,10.4,0,0,1-4.07-.34c-.37-.13-.59-.34-.92-.45a4.07,4.07,0,0,0-1.44-.3c-.47,0-.86.16-1.42.19-3.3.17-7.51-1-9.65-.1-.12,0,.15.13.19.2.43.82-1.16,1.61-3.34,1.74l-7.19-.85-4,.23a39.9,39.9,0,0,1-7.95-.1,9.87,9.87,0,0,0-4.11.48,7.27,7.27,0,0,1-3.35.08c-.26-.05-.52-.11-.76-.18a16,16,0,0,0-7.58-.12l-.74.19a25.14,25.14,0,0,1-8.55.51c-1.8-.2-3.56-.1-5.33-.14a3.41,3.41,0,0,1-2.51-.83c-.42-.58,0-1.41-1.2-1.74-3.8-1-14.33.56-11.91,1.29s1.29,2.45,1.39,3.55c-.33.27-.4.4-.6.47a18.26,18.26,0,0,0-1.92.7c-1.94,1.12-5.13,1.45-8.09,1.92a6.4,6.4,0,0,0-3.65.74c-.4.17-.92.28-1.72.52L770.39,52c-4.45,1.31-9.34,2.13-14,3.11-2.28.48-5.07.67-6.74,1.58s-4.3,1.21-5.63,2.16a11,11,0,0,1-1.75.71,6.77,6.77,0,0,1-3.5-1,8.13,8.13,0,0,0-2.71-.87c-1.7-.3-4,.1-4.11.76-.08.46.1.92-.05,1.37-.07.18-.64.36-1.1.47a2.18,2.18,0,0,1-1.53-.19c-1.57-1.11-3.08-2.23-4.73-3.43l-4.46-1c-3,.21-5-.64-7.53-.95-1.75-.22-3.24-.58-4.83-.9a5.26,5.26,0,0,0-3.73.52l-26.16,1.05s-3.28,2-4.68,1.63-7.94-1.21-7.94-1.21l-4.86,1.18-4.16-.07-5.67-.73s1.89-.41-3.63.2-1.93-.64-5.52.62,0,.91-3.59,1.26-.16.62-3.57.36l-3.41-.26-5,.88a8.66,8.66,0,0,0-2.94.14c-1.37.31-2.86.34-2.83.41a2.5,2.5,0,0,1-3-.22c-1-.87-1.25-.8-1.14-1.2.55.19-.31-.61-2.22-1.65-.6.35-1.89-.41-3.13-.47s-2.46.49-4.25.22a10.61,10.61,0,0,0-3.2-1.2,3.23,3.23,0,0,1-2.92.28c-1.21-.34-2.07.31-3.65-.62a1012.48,1012.48,0,0,1-6.6.56,3.81,3.81,0,0,1-3.11-.1c-1.63-.47-2.68.53-4.44-.09-1.21.67-2.82.43-4.22.68-.82.85-2.25.61-3.45,1a25.7,25.7,0,0,0-3.83.19c-.76.95-2.1.5-3.08.95-1.36-.44-2.29.16-3.51.13-1.72.18-3.9-.31-5,.8a10.72,10.72,0,0,0-3.69.14,6.82,6.82,0,0,1-3.49.64c-1.24.05-2.53,0-3.77.08-1.5-.53-2.64-.17-4.06-.43-.64.54-1.59.4-2.15,1.15a5.68,5.68,0,0,0-2.06,1.06c-2.85,0-4.52-.08-5.7.43-1.32.18-2.22.78-4,1.08a4.36,4.36,0,0,1-3.48.93c-.89,1.13-2.47.77-3.89,1-.86.56-2.6,0-3.87.38a9.07,9.07,0,0,0-3.7.3c-1.39.62-2.69,1-4.13,1.63-1.6.05-3.32.24-5.14.17-1,.54-2.4.16-3.33.43a7.64,7.64,0,0,1-2.69.78,5.17,5.17,0,0,0-3,.35c-1.85-.14-3.58,0-5.4,0a13.67,13.67,0,0,0-4.76,1.1,6,6,0,0,1-2.61.16c-1.21.11-2.46.13-3.7.16l-18.35,1-7.87-.88L450,70.8a9.16,9.16,0,0,1-4.63-.86c-1.52-.84-2.88-1.73-4.21-2.54a8.94,8.94,0,0,0-3.58.17c-2.87.8-5.94,1.47-9.12,2.09a31,31,0,0,1-4.19.53,9.8,9.8,0,0,1-4.48-.25,22,22,0,0,1-3-.1,20.45,20.45,0,0,0-3.11-.33c-1,0-1.94.32-3.12,0-1.05,0-1.75.68-3,.1-.84.71-2.11.44-3.11.86-.83.81-2.27.22-3.66-.21-.45.31-1.23-.16-1.88.4a7,7,0,0,0-2.69-.41c-1.07-.5-1.91-.42-3.13-1.3-2.26.64-3.33,1.38-3.76,1.24a6.26,6.26,0,0,1,0,2.11c0,.26-.5.69-1.23.43a13.24,13.24,0,0,1-4.36-.69,9.42,9.42,0,0,1-3.44-.88,12.24,12.24,0,0,1-3-1.24c-.78,0-1.91-1.26-1.84-1.21a2.6,2.6,0,0,0-1.13-1.27c-.46-.28-1-.48-1.42-.72a10.54,10.54,0,0,0-4.49-1c-4.39-.16-7.14-1.05-7.94-2.77a1.26,1.26,0,0,0-.33-.32,5.19,5.19,0,0,0-2.26-.44c-1.79,0-2.65.54-1.88,1.14.4.31.95.59,1.32.91s.33.89-.16,1.33a3.58,3.58,0,0,1-2.83.41c-1.83-.59-3.62-1.19-5.44-1.79-2.47.06-2.47.06-3.61.66a12.31,12.31,0,0,1-1.16.49L340,64.57l-6,.15-5.49-.91a43.72,43.72,0,0,0-9.79,1,13.29,13.29,0,0,1-2.52.3c-7.65.43-15.25,1-24.05,1.32a17,17,0,0,0-1.9-.85,2.46,2.46,0,0,0-2.09.31c-.38.67-.75,1.33-1.11,2-.56,1-2,1.88-4.51,2.61a35.76,35.76,0,0,1-6.81.16l-5.24-1.22c-.27.14-.64.24-.58.3a3.39,3.39,0,0,0,1,.91c.8.44.74.87.09,1.28a5.43,5.43,0,0,1-3.72.6,23.08,23.08,0,0,0-4.41-.15c-2.05.12-4.12.25-6.2.33a18.33,18.33,0,0,1-3.5-.06c-2.39-.44-3.94.22-5.82.45-2.05-.1-4.18-.11-6.14-.34a40.49,40.49,0,0,0-7.05-.16q-7.95.49-15.91.91a24.72,24.72,0,0,0-5.76.83,5.55,5.55,0,0,1-.79.15,12,12,0,0,1-7.21-.67,21.74,21.74,0,0,0-3.79-1.46c-2.91-.83-5.79-1.66-8.73-2.47a26.69,26.69,0,0,0-3.86-.87,21.17,21.17,0,0,1-6.57-1.74,9.38,9.38,0,0,0-3-.71l-3.11-.38c-5.05.17-9.72.74-14.5.15-2.36.11-4.74.19-7.08.34a68.65,68.65,0,0,1-8.84-.09c-5.27-.31-10.46-.94-15.86-.82-3.12-.51-6.56,0-9.69-.51a13.14,13.14,0,0,0-2.65,0c-4.11.23-8.26.39-12.22.77l-4.06,1.44c-2.56.22-5.34.29-7.73.7a55,55,0,0,1-6.62.93c-2.69.13-4.59,1.06-7.39,1.1a55.66,55.66,0,0,1-10,1.29c-.58,0-11.24-2.43-11.74-2.52-5.72-1.09-1.61-4.94-4.89-3.87a57.63,57.63,0,0,0-6,.65,43.3,43.3,0,0,1-6.67.89,7.44,7.44,0,0,0-1.68.2c-2.68.85-6.06.86-9.23,1.12a21.75,21.75,0,0,0-3.36.41c-1.91.5-5.27-2.76-7.57-3,.46,0,.66-.06-.48,0s-8.55-.19-9.52,0c-1.22.29-5.2-2.85-7.72-4.16V0Z"/></svg>