<svg id="elements" xmlns="http://www.w3.org/2000/svg" viewBox="0 0 930 60"><defs><style>.cls-1{fill:#faf3ee;}</style></defs><title>rip-reviews-card1</title><path class="cls-1" d="M930,0V5.52a24.14,24.14,0,0,0-5.12,1.25c-12.12,1.35-11.73,2.07-29.51,2.63,1.15,2-1.73,1.4-3.17,2-2.77,1.19-3.37,2.77-6.32,4-3.38,1.44-12.72,5.63-15.81,10-14.71-2.41-20.57,1.37-39.53.94-1.68,4.16-9.95,4.88-16.07,6.19-6,1.26-14.47,1.3-19.64,2.4-.52.1-.9,1.62-3.16,2-2,.35-4.63-.27-6.59.16-1.13.25.1,1.83-3.16,2-5.27.29-14.54,1.76-19.5,4.34-.56-2.53-6.27-1.14-10-1.71-2.74-.41-3.49-1.42-6.72-1.77-6.28-.69-12.28,1-16.61-1.55-14.1,4.4-27.6,4.4-49.27,3.1-1-.06-6,.55-6.59.15-.23-.15.13-1.9-.13-1.93-4.07-.48-12.59-1.49-16.6-1.54-6.11-.1-9.39,2-16.35,2.32-4.06.2-7.4-3.89-13.17.31l-36.24.85c-2.77.42-3.16-.68-3.42-1.85-.95-3.08-8.7-.78-13.31-1.63-3.73-.68-1.17-.63-3.43-1.85a89.66,89.66,0,0,0-20.29-7.27c-2,2.64-6.79,3.76-12.92,4.18,2.72,5.19-15.62-1-12.91,4.17-2.8-2.33-7.59,0-13.17.31-5,.26-13.59-.25-19.77.47.55-.06-1.72,1.76-3.16,2-4.93.85-12.84-1.06-13,2.25-4.25,2-12.14,2.11-12.78,6.11-9.61.73-10.42-4.14-20-3.41-3.11,3.29-13.85,2.44-19.5,4.34-14.06-3.84-31.16-5.74-49.94-6.57.47-2.32-5-.85-6.72-1.78-.43-.23.36-1.79-.14-1.93-1.23-.37-5.71.73-6.58.15-.46-.3.41-1.71-.14-1.93-1.23-.5-1.61-1.21-3.42-1.86-3.63-1.3-6-2.74-10.15-3.63-19.31,2.82-32.78-5.56-49.94-6.57-10.26-.61-21.2,2.29-32.81,2.71-2.92.1-7.51-1.88-13.31-1.63-7.55.33-10.52,3.33-22.93,2.48.63,0-1.73-3.2-3.42-1.85-.16.12.31,1.91.13,1.93-3,.27-7-.35-9.88.23-1.06.22-4.24,2.05-3.16,2-7.35.26-16.05-3.23-29.78-1.23-1.27,2.84-2.91-.13-6.59.15-4.29,4.89-11.12,3.68-19.63,2.4-17.93-2.26-13.3,7.69-29.25,6.5-17.67-.26-26.87,4.07-39.13,6.74-8,6.62-24.76-2-36.24.85-.81.2.21,3.05-3.16,2-6.38-.43-13.24,2.64-19.63,2.4s-7.46-1.69-13.44-3.56c-2.23-.69-4.37-1-6.72-1.77C5.75,45.41,4,44.1,3.59,44A15,15,0,0,0,0,44.16V0Z"/></svg>