<svg id="elements" xmlns="http://www.w3.org/2000/svg" viewBox="0 0 580 30"><defs><style>.cls-1{fill:#4a455c;}</style></defs><title>rip-curriculum-intro1</title><path class="cls-1" d="M10.52,5.9c.59,0,.52.29.76.33.41.06,1-.14,1.4-.07s.47.65.82.69c.64.07.85-.41,1.35-.43.71,0,.89.25,1.47.29,1.17.29,1.05.12,2.11-.09,2-.42,6.29,0,7-.33.91,0,1.05.41,2.17.26,2.25.07,1.43-1.18,4.12-.92l3.52-.17c2.31.21.79-1.23,2.65-1.21,4.71.38,10.43-1.5,14-1,1.66.22,1.16,1.33,3,1.3,2.19-.27,3,.31,3.69.91,1.12.79,5.41-.13,7.8,0,1.14,0,2.4-.25,3.52-.16.5,0,.64.31.76.32,1.35.16,2.43.49,3.63.56,2.66.14,5.16-.21,7.81,0a14.82,14.82,0,0,1,2.92.59,5.7,5.7,0,0,0,.71,0c.7,0,.5.29.76.32,2.46.3,5.57,0,6.44.42.5.22,0,.2.76.33a13.41,13.41,0,0,0,1.41-.06A8,8,0,0,1,96.68,8c.91.15,1.46.09,2.16.26.19.05.41.23.76.33a15.21,15.21,0,0,0,2.87.22,29.18,29.18,0,0,1,4.39.88c.2.06.74.33.76.33,1,.21,1.88,0,2.88.23a4.38,4.38,0,0,1,.75.32c.39.07,1.06-.15,1.41-.06.12,0,0,.31.06.36s.57-.09.7,0-.06.3.06.36,1.13-.13,1.41-.06c.11,0,0,.31,0,.36s.57-.09.7,0-.06.3.06.36,1.14-.12,1.41-.06.17.23.76.32a17.28,17.28,0,0,0,4.28.16c.19.36.66.29,1.46.3,2.58,0,8.62-.29,8.4-.76,1.91-.63,5.26-.65,6.88-1.41.7-.07.88.31,1.46.3a2.16,2.16,0,0,1,1.52.65c.37.25.42.48.81.69s1.81.31,2.23.62c.2.14,0,.54.1.72.18.34.54.41.82.68.45,0,1-.1,1.41-.06,2,.16,3.55,1.59,5.2,1.56,0,0,.5-.59.7,0-.36,1,.79,1.16,1.63,1.37a10.75,10.75,0,0,0,1.46.29s-.07-.34,0-.36c.68-.5,4.27.43,3.47-.52a8,8,0,0,1,4.93-.23c0-.51,1.11-.33,2.06-.46,1.17-.16,2.22-.09,2.76-.49,1.08.26,2.77.16,2.33,1.34a5.62,5.62,0,0,1,3.63.55c.43,1.58,5.32.45,7.26,1.11.24,0,.47,0,.71,0,.8,0,.37.23.76.32a49.64,49.64,0,0,0,5,.49l4.93-.23c.7-.13.49.18.76.33.58.31.37.24,1.46.29s2.65-.12,2.76-.49c.85-.52,3.72-.25,4.34.52.2.33.65.32,1.46.29,1.62-.05,3.91-.88,5.53-1,2.89-.18,2.6,1.57,5.2,1.57a12.16,12.16,0,0,0,4.17-.56c.71-.07.89.32,1.47.29-.21,0,.37-.34.65-.39a9.32,9.32,0,0,1,1.41-.07c.67,0,.47.28.75.33,1.67.28,2.83-.34,2.93.59,1.87.38,3.47.36,5.1.84.12,0-.06.32,0,.36.26.12,1.13-.16,1.41-.06s-.12.61.11.72c.87.41,2.17.39,2.27,1a6.86,6.86,0,0,1,2.23.62c2-.09,1.67-.67,2.7-.86s1.45-.35,2.06-.45a2.09,2.09,0,0,1,1.47.29c.5.22,2.21-.29,2.81-.13,1.65,0,.63-1.08,2-1.18.2.27.13.71.82.69,0,.2.63.38.7,0,1.07,0,2.58-.25,2.87.23a4.37,4.37,0,0,0,2.28,1,8.17,8.17,0,0,1,2.28,1c.37.19.45.5.81.69.18.09,1.15-.12,1.41-.07.76.13,1.61.19,2.17.26a21.35,21.35,0,0,0,2.87.23c1.06,0,1.42-.41,2.06-.46a14.15,14.15,0,0,1,2.87.23c.6,0,.51.28.76.32.62.11,1.49-.19,2.11-.1a3.16,3.16,0,0,1,1.52.66c.19.1,1.14-.12,1.41-.07.1,0,.48.25.76.33.51.13,1,.17,1.46.29a9.92,9.92,0,0,0,2.93.59c1.37,0,2.8-.6,4.17-.56.73.17.48-.35.65-.39,2.42-.6,6.13.91,7.75-.37,2.59-.56,4.5-1.42,8.29-1.47,3.43.13,2.3-1.7,6.17-1.37,1.84.19,3.32.37,4.17-.56.79-.08,1.18.47,1.41-.07,2.92-.45,4.83.15,6.4.06-.23,0,.42-.34.65-.39.6-.12,1.47,0,2.11-.1,0,0-.09-.33-.05-.36.34-.26.89.33.76.33,2.66.09,3.26-.49,4.87-.59a27.12,27.12,0,0,1,2.87.23c2.48-.14,4.79-.75,7-.69,3.69.09,6.69,1.58,10.79.94a16.61,16.61,0,0,1,2.22.62,6.76,6.76,0,0,1,.76.33c.12,0-.05.3.05.36s1.14-.13,1.41-.07c.11,0,0,.32.06.36.38.16,1.53-.14,1.46.29a57.91,57.91,0,0,1,10.78.95c1.19-.39,3.5-.29,4.12-.92,2.05-.19,2.29.71,4.34.52.08-.75,1.77-.8,2.65-1.21,0-.62,1.72-.31,2.76-.49.31-.06.77-.41.65-.39,1.32-.17,3.16-.13,4.23-.2s2.18-.55,2.82-.13c-.66-1,3.36.1,2.71-.85a4.11,4.11,0,0,0,2.7-.85,21.73,21.73,0,0,1,4.45,1.24c.5.21-.05.22.76.32,1,.13,2.63-.34,2.87.23.07.22.17.42.76.33l7.75-.37c1.18-.81,1.95-.07,2.81-.13,1.49-.1,2.16-.51,3.47-.52.86,0,2.7.12,3.58.19.06,0,0,.33.05.36a10.07,10.07,0,0,0,1.41-.07c4.66.12,7.55.05,10.51-.85,1,.46,2.23.1,3.58.19.7.05.87.24,1.46.3.81.08,2-.21,2.17.26a13.54,13.54,0,0,1,4.12-.92c.69-.05.41-.34.65-.39.41-.09,1,0,1.41-.07s.54-.37.65-.39c1.09-.23,2.91-.29,4.17-.56s3.05-.45,3.36-1.24c4.06,0,5.27-.76,8.45-.4.6-.84,2.55-1.67,3.25-2s.72-.55,1.3-.78c.3-.12.92,0,.65-.39a54.75,54.75,0,0,0,6.28-.66c1.67-.63,5.45-.34,6.94-1a3.84,3.84,0,0,1,2.28,1c.18.46,1.17.28,2.16.26.62,0,.61.32.76.33,1.13.08,2.38-.21,3.52-.17a20.9,20.9,0,0,0,2.17.26c.39,0,.91.32.76.33a13,13,0,0,0,4.12-.92c.7-.07.88.31,1.46.3s.51.29.76.32a24.5,24.5,0,0,0,2.82-.13c.67,0,.54.3.76.33.66.06,1.44-.14,2.11-.1a15,15,0,0,0,2.17.26c.82,0,.35.21.76.32,1.74.48,4.45.09,6.14.15.05,0,1,.22,1,.24a5.63,5.63,0,0,0,1.81,0c1.22,0,1.17-.33,2.42-.24,1.73.11,3.2-.1,4,0s1.55-.33,2.23-.29c0,0,1.51.55,1.55.58a3.4,3.4,0,0,0,.85.44c3.92.05,5,1.51,8.37,1.69,1,1.35,7.25-.52,10.28-.38,2.68-.28,4.78.85,6.21.87,1.07,0,.9-1.15,1.55-1.07,4.24.52,9.32,1.35,12.73,1.37,1,0,4.27-.32,5-.28a17.64,17.64,0,0,1,4.67,1.27c1.79.5,3.33-2.19,4.62-2.35l.24,0V30H0V6.39L9.11,6C9.56,6,10.07,5.86,10.52,5.9Z"/></svg>