<svg id="elements" xmlns="http://www.w3.org/2000/svg" viewBox="0 0 450 43"><defs><style>.cls-1{fill:#ea593e;}</style></defs><title>freeevents-citycallout</title><path class="cls-1" d="M0,0V16.7c.33-.07.69-.26,1-.17s.51,1.17.85,1.23c.61.11.76-.79,1.23-.85.67-.1.87.42,1.43.47,1.15.48,1,.17,2-.28,1.87-.87,6-.36,6.65-1,.85-.08,1,.72,2.08.38,2.14,0,1.22-2.25,3.8-1.89l3.32-.47c2.22.28.6-2.32,2.38-2.38,4.5.47,9.72-3.28,13.19-2.55,1.61.34,1.27,2.42,3,2.28,2-.61,2.83.44,3.61,1.52,1.15,1.4,5.11-.49,7.4-.37,1.08,0,2.24-.59,3.32-.48.48.05.64.55.76.57,1.3.23,2.36.79,3.51.86,2.54.15,4.87-.63,7.41-.38,1.88.19,1.82.71,2.84,1a2.65,2.65,0,0,0,.67-.1c.66-.06.51.53.76.57,2.37.44,5.29-.18,6.17.48.49.37,0,.37.75.57.38.1.94-.21,1.33-.19.66,0,.87.33,1.43.48a15.64,15.64,0,0,1,2.08.38c.19.07.42.41.76.57,1,.44,1.41.14,2.76.28a16.46,16.46,0,0,1,4.27,1.43,7.76,7.76,0,0,1,.76.57c1,.34,1.77-.06,2.75.29a3.64,3.64,0,0,1,.76.57c.37.1,1-.34,1.33-.19.11,0,0,.59.09.66s.54-.19.67-.09,0,.55.09.66,1.06-.3,1.33-.19c.11.05,0,.59.09.67s.54-.19.67-.1,0,.56.09.67,1.07-.28,1.33-.19.2.43.76.57a8.77,8.77,0,0,0,4.08.09c.22.66.66.5,1.42.48,2.46-.05,8.15-.94,7.88-1.8,1.74-1.26,4.91-1.45,6.36-2.94.66-.17.88.53,1.43.48.77-.07,1.12.68,1.52,1.14s.45.86.85,1.23,1.75.51,2.18,1.05c.21.26.08,1,.19,1.33.21.62.56.74.85,1.23.44,0,.9-.23,1.33-.19,2,.21,3.56,2.79,5.13,2.66,0,0,.41-1.12.66-.09-.23,1.79.88,2.11,1.71,2.47a6.37,6.37,0,0,0,1.42.47s-.11-.63-.09-.66c.58-1,4.1.6,3.23-1.14.75-1.07,3.63-1.48,4.65-.66,0-.95,1-.67,1.9-.95,1.09-.34,2.1-.26,2.56-1,1.05.44,2.65.16,2.37,2.37,1.64-.33,2.81,0,3.51.86.59,2.9,5.1.59,7,1.71l.66-.09c.76-.07.38.42.76.57,1.58.6,3.55.42,4.84.67l4.65-.67c.65-.27.49.32.76.57.59.56.38.43,1.42.48s2.5-.34,2.57-1c.74-1,3.49-.65,4.17.76.23.6.65.56,1.43.47,1.53-.17,3.6-1.82,5.12-2.08,2.73-.46,2.65,2.79,5.13,2.66,2.19.24,3.09-1,3.89-1.23s.88.55,1.42.47c-.19,0,.32-.65.57-.75a4,4,0,0,1,1.33-.19c.64,0,.48.49.76.57,1.61.43,2.64-.76,2.85.95,1.82.61,3.33.5,4.93,1.33.12.06,0,.58.1.66s1-.36,1.33-.19,0,1.14.18,1.33c.89.73,2.12.63,2.28,1.71a4.73,4.73,0,0,1,2.18,1c1.94-.26,1.51-1.32,2.47-1.71s1.34-.72,1.9-.95,1.1.24,1.43.48c.5.38,2.06-.64,2.65-.38,1.57,0,.47-2,1.71-2.28.23.5.21,1.31.86,1.24.05.37.64.68.66-.1,1,0,2.42-.58,2.75.29A3.77,3.77,0,0,0,233.7,37,7.16,7.16,0,0,1,236,38.69c.38.34.49.9.85,1.23.18.17,1.08-.25,1.33-.18.74.2,1.55.27,2.09.38a10.8,10.8,0,0,0,2.75.28c1,0,1.3-.82,1.9-.95,1.09-.23,1.71.18,2.75.29.58.06.52.51.76.57.6.16,1.39-.42,2-.28.9.2.93.59,1.52,1.14.19.17,1.07-.28,1.33-.19.1,0,.49.45.76.57.51.23,1,.28,1.42.47,1.28.52,1.57,1,2.85.95s2.59-1.24,3.89-1.23c.72.29.42-.67.57-.76,2.23-1.21,5.93,1.41,7.31-1,2.39-1.17,4.1-2.85,7.69-3.12,3.27.08,2-3.26,5.7-2.85,1.77.27,3.19.55,3.89-1.23.74-.17,1.17.82,1.33-.19,2.71-1,4.6.06,6.08-.18-.22,0,.36-.67.57-.76a12.72,12.72,0,0,1,2-.29s-.12-.61-.1-.66c.3-.5.89.57.76.57,2.55,0,3-1.06,4.56-1.33,1.17-.2,2.16.38,2.75.29,2.34-.38,4.45-1.61,6.55-1.61,3.51,0,6.54,2.61,10.35,1.24a10.69,10.69,0,0,1,2.18,1.05c.39.18.49.42.76.57.12.06,0,.57.1.66s1.06-.29,1.32-.19,0,.59.1.67c.38.28,1.44-.34,1.42.47a29.77,29.77,0,0,1,10.35,1.24c1.08-.77,3.28-.7,3.79-1.9,1.93-.44,2.26,1.22,4.18.77,0-1.39,1.59-1.58,2.37-2.37-.07-1.15,1.6-.65,2.57-1.05.28-.11.68-.79.57-.76a36.26,36.26,0,0,1,4-.56c1.12-.22,2-1.13,2.65-.38-.73-1.74,3.2,0,2.47-1.71,1.23-.27,2.16-.75,2.47-1.71a14.58,14.58,0,0,1,4.37,2.1c.5.37,0,.41.75.57,1,.19,2.46-.76,2.76.28.09.4.21.77.76.57l7.31-1c1-1.56,1.84-.22,2.65-.38,1.4-.26,2-1,3.23-1.13a26.33,26.33,0,0,1,3.42.19c.05,0,0,.62.09.66s1.12-.19,1.33-.19c4.44,0,7.17-.27,9.87-2.08,1,.81,2.12.09,3.42.19.67.06.86.39,1.42.48.78.12,1.89-.48,2.09.38a8,8,0,0,1,3.8-1.9c.65-.12.35-.64.57-.76.38-.18.93,0,1.33-.18s.47-.71.57-.76c1-.49,2.73-.67,3.89-1.23s2.85-1,3-2.47c3.85-.24,4.91-1.66,8-1.13A10.2,10.2,0,0,1,431,13c.56-.49.62-1.05,1.14-1.52.27-.24.88-.1.57-.76a27.68,27.68,0,0,0,5.89-1.51c1.5-1.25,5.13-.9,6.46-2.28a3.43,3.43,0,0,1,2.27,1.71c.23.84,1.15.47,2.09.39a.58.58,0,0,1,.63.4V0Z"/></svg>