<svg id="elements" xmlns="http://www.w3.org/2000/svg" viewBox="0 0 800 80"><defs><style>.cls-1{fill:#f5dfd0;}</style></defs><title>rip-blogcard-combo6</title><path class="cls-1" d="M800,80V21.53c-.82-.39-1.64-.92-2.4-.36-1.09-1-2.07-.81-3.07-1.09a20.32,20.32,0,0,1-3.67-.49c-1.24-.26-2.48-.61-3.73-1-2.38.78-4.93-.73-7.48-2.16-2.39.94-5.41-2.35-8-2.47-2.85-1.14-5.87-4.7-8.47-4-1.19.45-1.51,3.94-3.61.55a15.67,15.67,0,0,0-2.72,3.22c-1.45,3.59-3.26,5-5.22,3.92s-3.54,1.07-5.25,1.27c-1.68.73-3.45,0-5.15-.45-1.56-1.32-3.13-3.44-4.73-3.65-1.51-1.61-3.24.88-4.8-.34s-3,2.11-4.47-.48c-.78,0-1.49,2.26-2.25,2-.59,2.24-1.47.36-2.06,2.1a2.85,2.85,0,0,0-2,1.08A14.39,14.39,0,0,0,719,21.86c-.67.39-1.25,1.48-2,1.17s-1.35,1-2.08,1.12c-1.11-.15-2.22-.34-3.25.65-1.09.07-2.15.51-3.25.27-1.13-.69-2.23-1.12-3.24-.24-1.06.23-2.16-.26-3.23-.33a7.3,7.3,0,0,0-4.06.54c-1.3.51-2.65.16-4,1.33-.67.54-1.39.46-2.2-.37-.78-.43-1.64-1.64-2.46-1.76-.8-.77-1.52-.58-2.26-.85a17.33,17.33,0,0,0-2.19-.44,11.78,11.78,0,0,0-4.32-.56c-1.51-1-2.94-.7-4.51-1.56a11,11,0,0,1-6.61-.93c-2.18.36-4.52-1.19-6.82-1.06-1.15-.51-2.18.35-3.34-.21-1.06.39-2.25-.42-3.27.3-1.13-.24-2.14.44-3.32,0-1,.57-2.19.39-3.28.68-1.11-.62-1.85.76-3.2-1.12-1.33-1.6-2.26-1.17-3.19-.73-1.13-.55-2.07-.11-3.12-.27-1,.19-1.81,1.15-3,.43-1.14-.54-2,.23-3,.91-.8,1.16-1.91,1-2.86,1.73-1,.26-1.75,2.08-2.83,2.21s-1.77,2.3-3.07,1.11a26.76,26.76,0,0,0-3.16.63,7.16,7.16,0,0,1-3.45-.4,4.07,4.07,0,0,0-3.39-.33c-1.24-.87-2,1.11-3.27-.2a25.76,25.76,0,0,0-3.21-.44c-1,.37-2.13-.24-3.16,0-1.19-1.25-2.11.24-3.18.3-1.11-.23-2.16.47-3.27.24-2.16.39-4.27,1.49-6.49.32-1.53.95-3,1.77-4.36,2.5a3.22,3.22,0,0,1-4.12.66,5.89,5.89,0,0,1-4-.77c-.91.68-2-1.49-2.94-1.22-.92.44-1.9-.1-2.95-1.5a4.31,4.31,0,0,0-2.53-.61c-.83.18-1.69-.23-2.49.23-.87-.5-1.75-1.11-2.61-1.55a3.86,3.86,0,0,0-2.55-.51,9.93,9.93,0,0,1-5.28-3.23,47,47,0,0,1-5.4-3.86,10.69,10.69,0,0,0-2.73-2.19c-.87-.79-1.7-.5-2.53-1.07a3.29,3.29,0,0,1-2.56,1.82,6.15,6.15,0,0,0-2.31.36,2.72,2.72,0,0,1-2-.09c-.62-.47-1.23-.33-1.83-.44-.91-.39-1.81-.57-2.76-.89-1.07-.85-1.92,0-3-.11-1.16-.39-1.74,2.37-2.84,3.17a29.25,29.25,0,0,1-6.19,6.13,2.9,2.9,0,0,0-2.29-.29c-.82-.23-2.18.16-3.4.21s-2.41-.08-3.81.1c-1.67,1.38-2.55-.47-4-.18-1.24-1-2.72-.8-4.07-1.23a9.36,9.36,0,0,0-3.88-1.58c-.71-.41-1.45-2.31-2.31-1.09a10.77,10.77,0,0,1-2.62.39c-.91-.21-1.88.39-2.9,1.49-1,.79-.35,3.28-2.84,2.28-.78-.66-1,.33-1,1.18.28.65-1.9-.87-.25,1.25-1.3.4,2,1.64-1.09,1.79-.35.57-.29,1.15-1.33,1.7-.69.6-4,1.35-3.79,1.89.45.63-1.8,1.4-3.27,2-1,.55-2.24.82-2.73,1.42-.72.44-1.42.86-2.11,1.26l-2.28,1.11a40.93,40.93,0,0,0-6.28,3.59c-1,0-1.87,0-2.71,0l-2.24-.22c-1.18-.6-4.18,1.33-4.84-.47-1.9.06-3.94.73-5.86.84-1.24,1.34-2.29.1-3.41.37-1.09.47-2.17.14-3.23.45-1-.49-1.93-1-3,.17-1,.6-1.87.16-3,1-1,.13-2.51,2.08-3.55,2.16-1.5,2-2.7,2.94-3.77,2.34a32.78,32.78,0,0,0-3.17,2.12,7.58,7.58,0,0,1-2.31,1c-1.58.7-2.64.05-5.62,2.1-1.56.13-2.93,1.32-5.31.33,1.35,1.53-1.9-.09-.12,1.62-.53.36-1.8-.19-2.63.69-1.15.05-2.93.88-3.85.47a14.25,14.25,0,0,0-3.76.26,10.15,10.15,0,0,0-3.56,1.57c-2.3.33-3.34,2.54-5.39,3-.7.4-3.49-.3-3.78.38-1.66-.1-3.59-.47-3.07.6-1.86-.4-2,.13-3,0a4,4,0,0,0-1.57.3c-1.86-1.86,0,1.07-1.7-.19.46,1.27.1,1.62-1.31.57-.51.27-1.16.5-2.35-.54-.85.14-1.77,1-3.05-.38-1.41-2-2.73,3.86-4-.37-1.49,5.91-2.76,1-4.39-1.47-1.75-1.33-2.92-.24-4,.79-1.75-1.89-2.12,1.16-3.92-2.07.08,4.34-.52,5.45-1.94,3.46-.38,1.73-1.16,1.89-3.41,6.57-.16,5.2-2.6,1.31-3.76,2.39-.94.75-1,2.71-1.51,3.52-1,.11-2.53-.62-3.68-.82-.39.92-1.95-.06-2.75.3.72,2.16-1.71-1.27-1.32,1.06a5.42,5.42,0,0,1-2-.32c1,2.89-.57,1.31-1.65.22-.61-.11-1.23-.3-1.82-.37a19.76,19.76,0,0,1-3.6-.63c-1.31-.34-2.79-1.86-4.44-1.66a11.31,11.31,0,0,1-7,0c-2.29,1-4.71.14-7.08-.27-2.33.24-4.64.6-7,0-2.41-1.67-4.58-.18-6.78-.24-2.18-.28-4.33-.56-6.48-.75a26.12,26.12,0,0,1-5.53-4.52c-1.8-3.74-3.58-1.48-5.35-3-1.88-1-3.52.25-5.3-.59-1.66.23-3.32-.63-4.87-.89-.77-.23-1.52-.47-2.27-.68s-1.5-.46-2.25-.65c-2.49,1.31-4.85,1.57-7,2.06-2.22,0-4.22.9-6.23.1-1.91.73-4-1.89-5.69-1-1.88-1.06-3.55.3-5.41-1.21a4.24,4.24,0,0,1-3.58-.5c-1.25-.75-2.41,0-3.65,0-1.08,1.44-2.82-.15-4.58.35s-3.77-.21-5.53,1.4-3.51,2-5,.49c-1-.37-2-.45-2.91-.71s-1.79-.53-2.61-.83a37.33,37.33,0,0,1-4.33-2c-3.16.75-5.87.86-8.33-.43-2.3.9-4.45-1.21-6.25-1.35-1.83-.56-3.47-1.84-5-1.72-.74.5-1.56-.82-2.36-.58a11.51,11.51,0,0,0-2.63,0c-2,1-4-.31-6.41-.62-4.39,0-3.1-2.11-8.91-1.19-1.89-.08-1-1.16-3.23-.83,1.22-1.91-1.39-.82-2.44-1-.39-.84-1.62-.25-2.2-.77-.72-.34-1.4-1.25-2.14-.91A5.69,5.69,0,0,0,160.49,45a4.89,4.89,0,0,1-2.32-1.77c-4.7-8.11-3.54-1.78-5.66-3.44-.67,2.88-3.64-.89-4.63,3.11-1.51,3.14-3.95,2.23-6.46,3.74-2.84-.45-5.74-1.07-8.26-.65a16.17,16.17,0,0,1-6.52-1,29.19,29.19,0,0,0-5.29-2c-1.24-2.08-4.36,1.48-6,.54-2.27.46-4.79,1.42-7.06,1.08-1-1.07-2.32.1-3.3-.47-.94-.8-2.13-.28-3.22-.25a3.09,3.09,0,0,0-3.18-.39A22.42,22.42,0,0,0,95.4,43c-1-.87-2-1.6-3.06-1-1-1.09-2-1-3.11-1.15-.81-.69-1.63-.61-2.51-1.69-.78-1.64-1.67-.48-2.36-1.61-.36-1.83-1.12-1.78-1.78-2.08-1,.7-.74-1.71-1.23-2.09-.28-.61.52-2-.91-1.55.39-.87-.79-.74-1.2-1.13.06-.67.12-1.51-2-1-1.26-.2-3.2-.07-3.34-1.18-1.7-.15-3.45-.22-4.37-1.37-1.36-.88-2.78-2.1-4.66-1-1.39-.65-3,.26-4.46.61-1.54,1.57-2.59-.21-4,.65-.64-.32-1.26-.51-1.86-.77-.56-.71-1.12-1.59-1.74-.88a5.08,5.08,0,0,0-3.25-1.36c-1.06-1.59-2.07-2.11-3-1.8-1-1.26-2.12-2.47-3.08-1.34-1.14-1-2.15,1-3.44-.1-1.25-.14-2.44,2.35-4,1.15a3.19,3.19,0,0,0-1.66-1.68c-.64-.4-1.4-.17-2.23.31-.79-1.34-1.74.29-2.69.32-.92-1.07-1.89,1.1-2.89-.4a10.34,10.34,0,0,1-2.83-.8c-.93-1.14-1.8-.32-2.64-1.3-1.55-.43-3.09-.09-4.8-1.53-1.69-1-3.26.62-5,.67-.85.44-1.75.38-2.61,1.25-.83,1.34-1.8.8-2.63,2.64a3.1,3.1,0,0,1-2.91-.19C2,20,1.2,22.36.15,21.94l-.15,0V80Z"/></svg>