<svg id="elements" xmlns="http://www.w3.org/2000/svg" viewBox="0 0 1400 60"><defs><style>.cls-1{fill:#faf3ee;}</style></defs><title>rip-careers-openpositions</title><path class="cls-1" d="M1384.35,29.62c-3.91-1.34-8.18-4.56-15.06-5.06-2.22-.16-12.66,1.16-16,1.13-11-.1-27.38-3.37-41-5.45-2.12-.32-1.57,4.3-5,4.24-4.61-.09-11.37-4.57-20-3.47-9.76-.53-29.85,6.87-33.15,1.54-10.82-.73-14.34-6.51-27-6.73-.68,0-2.32-1.47-2.73-1.74-.16-.1-4.84-2.29-5-2.31-2.2-.16-5,1.33-7.19,1.16-2.5-.2-7.25.63-12.85.18-4-.32-3.87,1-7.79,1,.74,0-4.65.6-5.83-.18-.14-.09-3.1-1-3.24-1-5.47-.23-14.19,1.3-19.82-.57-1.32-.44.19-1.36-2.45-1.3-3.68.09-4-.8-7-1-2.16-.17-4.68.66-6.81.39-.71-.09-.27-1.35-2.45-1.3-2.67.07-6.5.9-9.08.53-.79-.11-.2-1.35-2.45-1.3-1.86.05-2.44-1.47-4.71-1.16a35.33,35.33,0,0,1-13.28,3.64c.49,0-1.18-1.33-2.44-1.3-3.7.09-4-.9-7-1-3.69-.16-7.71,1-11.36.65-.48,0-.44-1.34-2.44-1.29-3.22.07-6.4.78-7-1-1.53-2-4-3.27-7.34-3.88-4.79,2.79-17,1.66-22.36,4.16-8.31,1.27-8,1.79-20.26,2.6.88,1.44-1.13,1.08-2.1,1.56-1.86.94-2.2,2.12-4.19,3.12-2.27,1.13-8.53,4.44-10.47,7.78-10.26-1.45-14.15,1.47-27.25,1.57-1,3.12-6.66,3.84-10.83,4.94S969.51,30,966,30.88c-.36.09-.56,1.22-2.1,1.55-1.37.3-3.21-.1-4.54.27-.77.21.15,1.35-2.09,1.55-3.63.33-10,1.63-13.27,3.64-.51-1.85-4.39-.69-7-1-1.91-.25-2.48-1-4.72-1.17-4.37-.37-8.43,1.05-11.53-.77-9.55,3.57-18.87,3.87-33.89,3.39-.7,0-4.11.54-4.54.26-.16-.1,0-1.41-.18-1.42-2.82-.27-8.75-.82-11.53-.77-4.21.06-6.39,1.67-11.18,2.08-2.79.24-5.27-2.71-9.08.52l-25,1.44c-1.9.37-2.21-.43-2.45-1.29-.78-2.26-6-.38-9.25-.91-2.61-.42-.84-.44-2.45-1.29A61,61,0,0,0,796.89,32c-1.26,2-4.52,2.93-8.73,3.37,2.1,3.78-10.83-.4-8.73,3.38-2-1.66-5.24.19-9.08.52-3.44.3-9.4.11-13.63.79.38-.06-1.11,1.34-2.1,1.56-3.36.73-8.91-.5-8.9,1.95-2.85,1.6-8.29,1.83-8.56,4.8-6.6.75-7.37-2.82-14-2.07-2,2.5-9.45,2.11-13.27,3.64-9.88-2.52-21.76-3.55-34.77-3.74.23-1.73-3.49-.52-4.71-1.17-.31-.16.17-1.33-.18-1.42-.87-.24-3.92.66-4.54.26-.33-.21.21-1.28-.18-1.43a25.48,25.48,0,0,0-2.44-1.29c-2.56-.88-4.25-1.89-7.17-2.46-13.21,2.51-22.87-3.38-34.76-3.74-7.11-.22-14.54,2.17-22.54,2.73-2,.14-5.27-1.22-9.26-.9-5.19.41-7.11,2.69-15.72,2.34.44,0-1.34-2.32-2.44-1.3-.11.1.29,1.42.17,1.43-2,.27-4.87-.1-6.81.39-.73.19-2.84,1.61-2.1,1.56-5.06.36-11.22-2-20.61-.25-.75,2.13-2,0-4.54.27-2.75,3.71-7.51,3-13.45,2.21-12.48-1.28-8.85,6-19.91,5.46-12.21.19-18.37,3.6-26.72,5.84-5.21,5.07-17.18-.92-25,1.44-.55.17.28,2.26-2.09,1.56-4.42-.17-9,2.25-13.45,2.21s-5.22-1.08-9.43-2.33c-1.57-.46-3.06-.62-4.72-1.16-.89-.29-2.14-1.22-2.45-1.3-.86-.21-3.93.66-4.54.27-1.9-1.24-1.91-2.06-4.89-2.59-2-.36-4.83.8-6.82.39-.8-.17-.5-1.11-2.44-1.3-3.49-.34-5.52-1.28-9.26-.9-2.07.21-3.23,1.86-6.64,1.82a58.29,58.29,0,0,1-9.26-.9c-1.8-.28-4.52-.53-7-1-.84-.17-4,.64-4.54.26-1.15-.74-1.41-2-2.62-2.72-2.73-1.7-3-2.4-7.34-3.88-1.87-.64-5.63-1.28-7.34-3.89-.94-1.89-5.83-.85-9.26-.9-.23,1.64-2.18.92-2.27.13-2.21.09-2-1.64-2.62-2.72-4.27.4-1,4.8-6.29,4.67-2-.62-7.45,1.39-9.08.52-1-.55-2.31-1.69-4.72-1.16-2,.43-3.77,1.19-6.64,1.82-3.34.73-2.13,3-8.73,3.37A20,20,0,0,0,290.65,44c-.32-2.33-4.52-2.24-7.34-3.88-.74-.43.46-2.51-.35-2.86s-3.71.71-4.55.27c-.35-.19.22-1.29-.17-1.43-5.25-1.94-10.39-1.86-16.42-3.36-.33-3.66-4.08-1.24-9.44-2.33-.93-.19-.29-1.17-2.45-1.3a22.85,22.85,0,0,0-4.54.27c-.88.19-2.75,1.59-2.09,1.55-1.87.11-2.43-1.45-4.72-1.16-2.76.35-6.08,3-13.45,2.21-8.4,0-7.45-6.92-16.77-6.22-5.22.4-12.59,3.7-17.82,3.9-2.63.11-4.06.15-4.72-1.16-2-3.07-11.24-4.13-14-2.07-.37,1.5-5.65,2.15-8.9,1.95-3.53-.21-2.84.1-4.72-1.16-.85-.57-.19-1.81-2.44-1.3l-15.9.92c-4.32-.66-11-.48-16.25-1.94-1.25-.35.13-1.36-2.45-1.29-.75,0-1.51.1-2.26.13-6.27-2.61-22,1.85-23.42-4.4q-3.28-3-11.71-2.2c1.42-4.68-4-4.26-7.51-5.31-1.73,1.61-5.14,1.33-8.91,2-3.06.51-6.59-.2-6.64,1.82-3.28-1.86-13.11-1.29-15.89.92,2.58,3.79-9,.08-11.18,2.08A14.08,14.08,0,0,0,33.84,20a27.94,27.94,0,0,1-4.72-1.16c-2.72-.85-6.41-1.65-5.25-5.45-.64-2.22-2.35.14-2.27.14-5.33.09-10.2-5.58-16.77-6.22-1.45-.14-3.08.35-4.54.26A2.44,2.44,0,0,0,0,7.27V0H1400V20.17l-.79.1C1395.05,20.9,1390.11,31.6,1384.35,29.62Z"/></svg>