<svg id="elements" xmlns="http://www.w3.org/2000/svg" viewBox="0 0 1260 60"><defs><style>.cls-1{fill:#f6ebe3;}</style></defs><title>rip-report-studentoutcomes</title><path class="cls-1" d="M0,0V41c2.18-.08,5.24-4,7.57-4.16C9.52,40,21.7,33.65,19.81,38.66c3.56.15,5.39-8.4,8.94-8.21,2.58.13,8.85,1.77,9.63,1.85,2.58.26,3.06-6.09,3.24-6,20.92,8.33,8.12-.48,16.35-2.54,2.68-.68,1.31-1,2.7-1.36,1-.22,4,4.2,4.66,3.81.15-.09,7-1.26,7.12-1.27a51.08,51.08,0,0,1,8.14,0c4.46.18,8-2.67,12.42-2.54,4.82-.38,5.53,1.28,2.7,1.36.66,1.47,5.36.91,5.39,2.71,8.75.78,12.54-.93,18.87-1.36,1.56,1.26,8.1,3.41,13.48,4.06,5.86.71,14.44-1.53,21.56,0,1.23.26,2.14,2,2.7,2.71h2.69c-.87-.82,6.16-3.89,8.09-2.71.17.1,3.87,2.29,5.39,1.36.14-.09-.14-1.35,0-1.36,1.61-.07,4.9,1.25,8.09,1.36s4.83,0,5.39,1.35c10.16-1,12.89,1.65,21.56,1.35,4.52-3.36,13.42-.35,18.87,0,7.56.49,14.91.31,21.57,1.36.92.14,4.83-.35,5.39,0,.41.25-.46,1.13,0,1.35s2.24-.23,2.69,0-.41,1.23,0,1.35c1.31.41,4-.3,5.4,0,.5.11,1.11,1,2.69,1.36,2.32.47,5.69-.37,8.09,0h2.7V37.28c8.87-.05,13.41-2.28,24.25-1.35h2.7c3.84-4.12,23.37-3.61,24.26,1.35,5.56.82,18.73-2.18,16.17,2.71,9.27-.59,15.11.54,21.57,1.36,2.45,4.18,14.3,3.65,13.48,9.47h5.39c2.29-.24,2.54.53,2.69,1.36,5.66-.82,7.11,1.25,10.79,1.35,9,.25,18.7-3.6,21.56,1.36,5.37-1.82,12.83-2.59,18.87-4.07,10.51.1,19-.13,27,0,4.79.08,5.73,1.54,10.78,1.36,2.47-.09,4.08-1.53,8.09-1.36-.87,0,1.8,1.25,2.69,1.36,1.69.21,3.68-.17,5.39,0,2.12,1.29,13.43-1.69,16.18,0,.12.07-.11,1.35,0,1.35,5.64.07,9.94-3,16.17,0,7-1.48,13-3.42,16.17-6.77q10,.32,13.48-2.71c10.17,1.66,17.93,4.54,32.35,4.07.3,2.55,8.91.94,8.08,4.06a113.73,113.73,0,0,1,24.26-1.36c-2.32,4.78,4.34,1.25,10.79,1.36,3.75.06,5.36,1.61,8.09,1.35,7.83-.76,14.92-2.05,13.47-5.41,3.14-.22,4.8.3,5.4,1.35,4.87-1.18,3.26-1.76,10.77-2.71a4.62,4.62,0,0,0,2.7-1.35c5.29-.33,10.28,3.24,10.78-2.71,2.63,0,2.09,1.66,2.7,2.71,3.13-.22,4.8.3,5.39,1.35,4.36.38,4.64-1.28,8.09-1.35,4.72-1.24,13.45-.47,16.17-2.71,4,1.6,12,1.17,10.78,5.42a224.77,224.77,0,0,1,45.83,4.06c.83-1.84,6.75-1.13,10.78-1.36.34-3,11.44-.57,16.17-1.35,2.13,1.3,13.43-1.69,16.18,0s2,.53,8.09-1.35c1.78-.56,3.48-.75,5.39-1.36.54-.17,2.25.23,2.69,0,.25-.12-.29-1.3,0-1.35,4.15-.73,4.81,1.58,8.09,1.35s4.6-2.17,8.09-2.71c6.72-1,14,.81,21.56-1.35A12.6,12.6,0,0,0,872,38.64c8.47,3.57,18.69-.64,24.26-2.71,7.81.44,8.89.8,18.87,1.35,5.7.32,9.69,1.66,13.48,1.36,3.6-.29,4.2-2.53,8.09-2.71,3.54-1,20.83-6.16,21.56,0h10.78c-2.13,4.68,3,5.72,5.4,8.12,12.25-1.47,15.73-6.83,29.65-4.06,8-2.37,21.16-4.37,21.56,2.71,4.75.39,8.35-6.37,10.79-2.71,6.33-2,12.84,3.23,21.56,1.36,1.19-.26-.32-1.47,2.7-1.36,4.48.17,5.16.55,5.39,2.71,3.64-1.33,5.38-3.61,8.08-5.42,14.7-.61,22.15,2.42,37.74,1.36,4,2,4.82,5.7,10.78,6.77q5.82,1.14,8.09,4.06c6.69-.2,13.08-.25,13.48,2.71,2.92-.34,1.83-2.69,5.39-2.71h10.78c4-1.59,11-1.68,13.48-4.06,2.18.26,2.69,1.36,5.39,1.35,5.13.93,12.62.93,16.17,2.71,1.65.83-.34,1,2.7,1.35,4.1.49,10.41-.93,10.78,1.36,5.38-1.81,11.69-3.16,13.48-6.77,2.22-.69,9,.9,10.78,0,.19-.09-.19-1.34,0-1.36,1.66-.15,14.36,1.12,16.18,0,.12-.07-.1-1.35,0-1.35,1.79,0,3.15,1.15,5.39,1.35,1.19.12,3,.12,5.18.09V0Z"/></svg>