<svg id="elements" xmlns="http://www.w3.org/2000/svg" viewBox="0 0 350 35"><defs><style>.cls-1{fill:#38334c;}</style></defs><title>rip-campus-location3</title><path class="cls-1" d="M350,0H0V11.38s.49-.48.86-.47a1.4,1.4,0,0,1,.66.19,2.72,2.72,0,0,1,.91.79,1.06,1.06,0,0,1,1.06.4c.43.53.81.53,1.19.28.48.42.92.49,1-.32.48.53.26-.18.37-.29s.57.08.92.1c.75.62.94.19,1.57.62a2.91,2.91,0,0,1,1.52.88c.28-1,.63-1.26,1.09-.94s.73,0,1.06,0c.47.48.73.29,1,.31.43.32.79.37,1,.15A1.35,1.35,0,0,0,15,13c.24-.19.52-.1.83,0a4.75,4.75,0,0,0,.91.13,4.59,4.59,0,0,0,1,0c.31,0,.57.57.89.18.25.12.45.5.78.17.16.38.49.17.81,0,.25.12.46.36.89-.07.13.6.69-.4.95-.06.36-.33.66-.11,1-.84.33-.29.65-.57,1-.27.31.49.64,0,1-.08.66-.25,1.37.36,2.07.36.66.52,1.2.1,1.75.24.47,0,1.12.43,1.65.58a2,2,0,0,0,.75.13,3.74,3.74,0,0,0,.86-.62c.52.14,1,.46,1.27-.11.33-.26.63-.65.94-.92.31-.11.62-.74,1-.65.33-.52.7.56,1-.16.37.32.73-.34,1.13,0a1.23,1.23,0,0,1,1.24.41c.44,0,1-.41,1.57.25.57.49,1.14.47,1.57-.59.59.61,1.1.28,1.61-.05s1-.62,1.61-.22a.73.73,0,0,1,.77.36c.26.44.51-.08.76.24.25.1.49-.22.74,0,.25.08.49-.24.73-.28.18.61.32-.4.48-.18.16-.12.32-.52.48-.2.16-.06.33.14.48-.15.16-.54.33-.16.49-.23s.33,0,.49-.24.33,0,.5,0c.51,0,1.05.39,1.58.36a5.79,5.79,0,0,0,1.66.12c.38,0,.76.16,1.13-.13.38,0,.75-.3,1.13-.32q.29-.11.57-.24l.57-.29c.76-.13,1.51-.73,2.23-.5.73-.35,1.42.16,2.11-.55.67-.07,1.29.57,1.94-.08.36.29.72.15,1.09,0,.38-.49.71.38,1.07.18a1,1,0,0,1,1,.13,4.22,4.22,0,0,1,1,.34,2.58,2.58,0,0,0,2,.19c.63-.39,1.2,0,1.79-.49S73,8.15,73.6,7.73a3.48,3.48,0,0,1,1.8-.3c1.1-.26,2.19-1.06,2.93-1.24A2,2,0,0,1,79.58,6a4.7,4.7,0,0,1,1.83-1.63c.45-.36.9.65,1.35,1a3.77,3.77,0,0,0,1.41,1.15c.25.23.5.57.73.75a.45.45,0,0,0,.61,0c.43.12.94.37,1.26.14,0-.34.51,0,.86.19.06-.3.67,1.16.91.83s.73-.88.95.36c.4-.35.51.28.89,0,.23.3.59.16,1.11-.48A2.21,2.21,0,0,0,92.7,7.6a2.19,2.19,0,0,0,.92,0c.13.27.17.65.61.31,0,.38.31.24.39.48.19,0,0,.72.48.28.06.25.53-.13.57.13.22,0,.55-.23.71-.16.25-.22.43-.27.56-.12s.35-.16.45.26c.18-.12.29.38.49.27.37-.37.51,0,.65.39.2.15.5.1,1.07-.2s1-.72.83-.08c.57-.9.33.09.53,0,.25-.48.34-.21.49-.13s.42,0,.58-.21c.12-.39.31-.58.63-.21s.25-.55.64,0c.24.06.82.7.92.42.52.47.65.19,1,.27.09-.3.59-.09.76-.25s.11-.5.52-.33c.6.26.59.17.53-.14.15.07.2,0,.3,0s.24.05.28-.15c.13.08.24-.06.37,0a.42.42,0,0,1,.37.16c.25,0,.5.26.74.11s.24.15.36.15.25,0,.39-.07a.87.87,0,0,1,.8,0c.28-.4.57,0,.86-.33a6.94,6.94,0,0,0,.83-.39c.28.35.53.07.79-.18.28-.5.57-.26.86-.24s.55.65.85.08a6.4,6.4,0,0,1,1.66.82c.56.36,1.11.76,1.66,1.14.9,0,1.87.07,2.91.1h1.64a4,4,0,0,1,1.68,0c.49.22,1.18-.23,1.79-.33a1.88,1.88,0,0,1,.92-.25c.26,0,.54-.1.71,0a.79.79,0,0,0,.67-.07c.29-.18.59-.38.73-.26s.28.32.72-.17c.36-.32.75-.72.84-.37.38-.32.42.08.74,0,.46-.44.59-.07.94-.18s.47.58.92.2c.29.27.68,0,1,.24.28.57.63.32.95.48.27.82.66,0,1,.13.34-.2.61.35,1,0s.66-.12,1-.48c.23-.13.47-.31.63.1.25-.28.48-.48.62,0a1.57,1.57,0,0,1,1.27-.26,4.89,4.89,0,0,0,1.35-.83,2.27,2.27,0,0,0,1.12.19,16.16,16.16,0,0,0,2.43-.5c1.16.12,2.4-.13,3.31.9A8,8,0,0,1,152,10c1,.3,1.86-.55,3.1,1.45,1.26.87,2.61.45,3.91,1.39a5.62,5.62,0,0,1,2.06-1c.46-.62,1.09-.06,1.57.71.39.5.87.39,1.3.86.5,0,1.12.77,1.56-.1.49,0,.79-.54,1.66,0,.17-.53.78-.19,1.14-.13s.6-.18,1-.19,1,.19,1.68-.73l.78.31.77.29c.52.19,1.06.12,1.6.53.43-.56.8.82,1.21.34a1.93,1.93,0,0,0,1.33.27c.46,0,.94-.11,1.43.24.36-.42.73-.49,1.1.08.36,0,.7.28,1,.26s.65.46,1,.57c.08.53.32.64.69.61-.16.28-.15.37.13.34s.31,0,.39.09c.1.31.47.29,1,.07.34.11,1.26-1.37,1.32-.18.51-1,.47.76.89.42.25.45.49,1.32.83.49.24,1.32.53,1,.82,1,.26.81.56.25.84.43.31-.42.57.24.86.39s.55.9.84.77c.28.25.57.19.85.54a5.8,5.8,0,0,1,.83.87,4,4,0,0,1,.85.43c.29-.24.57.08.85.27s.6-.81.86.15c.19.2.39.15.57.72.19.23.38.41.57.38.39,0,.77-.26,1.16.09s.77-.34,1.18,0c.29-.2.6-.07.93.16a7.19,7.19,0,0,1,1,.36,1.79,1.79,0,0,0,.52.15c.15,0,.35.19.48.06a4,4,0,0,0,.54.28c.12-.17.28-.14.39-.36.29-.24.6-.67,1-.41.36-.22.83.58,1.19.32s.91.46,1.42.78a2.71,2.71,0,0,0,1.16,1.15,1.26,1.26,0,0,0,.94.23,3.07,3.07,0,0,0,1.39-.77c2.39,2.94,2.36-.23,3.66,1.46.74-.72,1.5-.45,2.23-.38a1,1,0,0,0,1.07-.47c.34,1.07.69,1.12,1,1.12a2.28,2.28,0,0,0,1.16-1.09c.4-.19.8-.18,1.2-.34s.75.25,1.1.28h.52a.92.92,0,0,1,.5.05,2.84,2.84,0,0,1,.58,0c.49-.54.45,0,.63.17.73-1,.54.57.9.33s.7,0,1,.15a2.26,2.26,0,0,0,.7.11c.18,0,.43.2.57.14.23.12.29,0,.48,0s.36,0,.44-.18a6.44,6.44,0,0,1,.77,0c.27,0,.64.26.8-.18s.46-.54.78-.39c.34.35.5-.55.77-.64.29-.51.58-.82.82-.72s.51-.3.76-.54c.24-.07.48-.38.69-.35a.69.69,0,0,1,.62-.38.83.83,0,0,1,.55-.3c.19-.18.37-.09.57-.27.2,0,.44-.11.69-.18s.51,0,.77,0,.53-.05.9-.07c.16-.19.62-.17.9-.25.52-.2.85-.45,1.15-.58a7.94,7.94,0,0,1,.75-.54c.25-.24.44-.18.71-.5.23-.07.56-.48.87-.62s.77-.43,1.14,0c.59.09,1.14,0,1.67.07.51.29,1,.05,1.58.13.53-.25,1.06.52,1.72.72a6.7,6.7,0,0,0,1.2-.1,8.37,8.37,0,0,0,1-.33,2.77,2.77,0,0,1,1.12,0c1.18,2.08,1.87,2.35,2,2s.75-.66.84-1.14c.45-.41.72-1.1,1.24-1.17a1.67,1.67,0,0,0,1.34-.59l.89,0,.93,0c.3-.08,1,.58,1.15.29.37,0,1,.29,1.09.09-.17-.47.65.06.69-.12.37.11.23-.31.51-.27s.61.24.62-.39c.23,0,.47-.22.72-.32a1.57,1.57,0,0,1,1.45-.49,2,2,0,0,1,.75-.19l.93-.09c.67-.22,1.48-.23,1.66-.75a3.45,3.45,0,0,0,1.11-.61c.41-.19.88-.67,1.42-.26.24-.11.5-.8.75-.52.25-.88.5,0,.76-.43s.49-.15.75-.35c.24.18.5,0,.74.24.25-.23.49,0,.74.18a.6.6,0,0,0,.73,0c.23-.36.46-.21.7-.11a1.51,1.51,0,0,0,.7,0,5.36,5.36,0,0,1,1.39-.55c.46,0,.91-.75,1.37-1,.44.05.88-.77,1.33-.77.45-.51.91-.11,1.35-.75.22-.21.45-.18.67-.24a2.53,2.53,0,0,1,.66-.11c.4.44.83-.14,1.28,0s.9.1,1.34-.34c.45.05.89.35,1.28.38s.88,1.34,1.34.48c.45-.09.7-1.18,1.16-1.09a3.44,3.44,0,0,1,.66-.28c.2-.25.42-.08.58-.38.16-.51.36-.24.53-.42.19-.36.36.1.52-.39.21-.2.41-.34.56-.32.22-.16.56-.5.63-.36.18-.05.3.13.58-.26.24-.18.57-.55.69-.46s.4-.51.55-.65.59-.79.53-.53c.35-.34.35-.11.67-.36a.77.77,0,0,1,.89.19c.07.15.31.14.4.24.51-.15.15.32.42.27s.37.23.57.38a.74.74,0,0,1,.32.31c.11.09.23.23.29.21s.29.12.44.32l.42.15a1.25,1.25,0,0,1,1.32,0c.27.12.68.15,1.06.27s.67.26.73.44c.57.09.8.22.84.4.9.06.54.28.93.37.31.58.6.23.93.18s.37.24.76.14c0,.15.22.15.35.21s.37.12.36.19c.31.08.47.13.36.24.37,0,.33.17.44.3.27.14.45.65.69.62.3.26.42.65.62.87a1.35,1.35,0,0,0,.9.28c.63.36.33-.54.7-.3.24-.1.64,0,1.21.25a3.75,3.75,0,0,0,.91-.92,3,3,0,0,1,.91-.61c-.16-.52.34-.06,1.75,1.62.84-1.31,2,.36,3-2,.94-.83,2,1,2.8-1.9a2.68,2.68,0,0,0,1.58,1c.49.22.94.11,1.38.28.32-.4.81.29,1.21.43a1,1,0,0,1,1.36.24,7.5,7.5,0,0,0,1.46-.19,1.13,1.13,0,0,0,.74-.22.76.76,0,0,1,.77-.15c.25-.05.52,0,.73-.3.25.08.5.3.71-.06.48.61.89.09,1.34.46.43,0,.89.48,1.29.09a5.39,5.39,0,0,1,1.19-.25,3.13,3.13,0,0,1,1.1-.28c.18-.22.33.14.51-.15a1.41,1.41,0,0,0,.5-.17,3.94,3.94,0,0,0,1.42-.3c.45-.09,1-.79,1.34-.1a12.75,12.75,0,0,0,1.36.44c.23.12.48,0,.7.21s.49,0,.76.11a3.79,3.79,0,0,0,1-.29c.32-.12.65-.12.95-.25a1,1,0,0,0,.9-.24,1.77,1.77,0,0,1,.94,0c.65.2,1-.75,1.51-.8.35-.64.75-.73,1.18-.44a1.94,1.94,0,0,1,.87-.49.73.73,0,0,1,.72.28c.24.11.16,0,.36,0s.23-.17.23-.16a.51.51,0,0,1,.09-.4Z"/></svg>