<svg id="elements" xmlns="http://www.w3.org/2000/svg" preserveAspectRatio="none" viewBox="0 0 1400 40"><defs><style>.cls-1{fill:#ECF1F5;}</style></defs><title>rip-curriculum-landing</title><path class="cls-1" d="M1400,40V37.12c-2.32-.48-4.18-1.23-6.4-1.3-2.87-3.69-8.23-2-11.24-2.32-4.27,2-8.41,2.82-13.38,1-2.73-.37-5.3-.12-8.22-1.22-3.28-4-4.3.73-6.87-.82-2.34.64-5.72-3.1-8.54-.72-1.95.69-5,1.74-8.36.88-5.09.73-11.32-.5-16-1.55-1.24-.35-5.22.22-6-.61-2.3-.5-4.57.17-6.61,0a18.78,18.78,0,0,0-6.18-.29,42.24,42.24,0,0,0-5.67-.95c-.58-.25,1.05-.7-2.21-.68-3.28-.15.45-.45-4.21-.64-1-.25-1.31-.52-7.67-1.88-.62-.43,0-.78-3.5-2.78-.53-2.06-1-5.37-3.89-5.37-3.62,1.34-3.52-2.39-6.83,1.39-1.65.45-2.19-.57-3,0-3.49.67-5.92-.08-8.59.49a14.26,14.26,0,0,0-9-.17c-1.73-1.07-4.77-1.49-8.56-2.47-4.42.23-10.3,1.6-15.37-.66-5-.6-9.32-1.29-13.79-1.89s-9-1.1-14.44-1.35c-3.76.28-6.86.41-9.56.45a44.7,44.7,0,0,0-7.17-.13c-2.78.57-4.84-1.52-7.8-1-1.48-3.6-5.25-.77-7.17-2.27-3-.64-6.37-.8-9.56-2.07-4,.86-7.28-.76-11-2.38-3.78-1.38-8.62-.84-13.19-2.41-6.61,0-12.92,2-17.29.52-5.1.61-9.77,2.13-13.63,2.77s-7.08,1.51-10.54,2.16a38.34,38.34,0,0,1-11.58.52c-7.13,1.06-11.88,3.67-18.1,4-5.37-2.13-9.74-4.45-16.22-6.08a16.18,16.18,0,0,0-5.63,1.1c-1.38.42-3.36.76-9.73,1.29a16.74,16.74,0,0,0-9.29.54c-3.41,0-7.61.13-10.7-1.14-9.21-1.33-10.82-4.43-15.47-1.51-3.24.37-5.86-.31-14.44-.2a20.46,20.46,0,0,0-7.37-1.82c-2.47-.22-5.16.38-7.07-.72-2.06-.89-5.56,2.41-7,.28-2.94,2.1-4-.66-6.71,1.22-1.06-2.62-3.68-.71-6,.58-1.48-1.09-4.38,1.91-6.58,3-3.22,0-7,1.76-9.4-.31-3-.76-6.45-.49-10.39-.28-8.6-.31-12.65.78-14.35,1.43-10.9-.12-9.21.31-10.62.39-5.19-.61-7.49-.83-6.75-.36-4.57-.68-5.76-.19-9.67-.3-3.62.57-6.34.28-9.51,2.19-1.43,2.87-6.09,1.06-9.46,1.48-2.31.91-6,.79-8.81,1.38a79.77,79.77,0,0,0-9.7.21c.63.72-.32,2-3.94,1.14-2.95-.73-5.41.21-6,2-1.6.15-3.48.62-5.53,1a26.64,26.64,0,0,1-6.31.67c-2-.16-4.48,1.16-6.73,2.07-2,.31-4.71,2.73-6.08,2.05-1.64-.77-5.61,5-7.08,3.79-2,.36-4.29,1.37-6.25,1.55-4,.63-6.86-2-11.63.75-3.58-.47-8.32,2.26-12.33,2.92a8.49,8.49,0,0,1-5.94.69c-1.76-.41-3.38-1.26-5.14-1.81-4,.17-6.86-3.26-11.08-3.59-3.39-2.64-8.66-.06-11.71-2.65-2.1.84-4.72.19-7.14.66a7.75,7.75,0,0,1-5.11,1.69c-4.13.68-7,2-10.51,2.52-4.31-.47-7.32,1.34-11.18,1.44-3.91.28-8.5,1.19-12.24.7-3.55-.81-6.57-1.76-10.83-1.09-1.75-.14-4.07,1-5.69.28-1.76,1-3.27,1-4.81,1.32-2.38.84-4.6.5-7,.34a25.19,25.19,0,0,1-4-.83,62.42,62.42,0,0,0-9.53-1.92c-17.55-2.76-22.11-3.22-25.9-3.34a38.08,38.08,0,0,1-11.85-1.28c-3.52-1.86-7.67-2.31-12.55-1.4-4.7.18-8.65-1.71-12.92-2.64-4.11-1.24-7.53-4.91-12.9-2.58-3.47-2.91-8.83,0-13,1.46q-3.57-.26-7.27-.3a70.72,70.72,0,0,1-7.55.15c-2.78.73-4.86-.53-7.85.65a65.92,65.92,0,0,1-8.17,1.18c-6.18.29-12,.34-17.24-1.24C500.72,24,495,24,489.2,23.91c-4.13-.22-8.29-.36-12.43-.48s-8.28-.21-12.38-.34S456.77,21.51,453,20.7c-3.22-2.44-7.93-1-13.3,1.47-5.28,3.07-7.86-1.49-11.91-2.08-4.23-.11-6.77-5-12.16-2.05-4.09-.53-7.78-2.18-12.44-.76-3.55-1.91-7.68-.24-12.56-1.67-4.48-.16-8.29,0-11.62.11-3.17.08-5.49.21-8.49.3-5.69-.13-8.06-.1-8.2.22-1.7.12-6.45-1.11-5.81,0-2.26-.21-4.61-.83-6.17-1a14.18,14.18,0,0,1-5.16-.58c-1.73.62-4.11-.1-6.7-.43s-5.45-2-9.68-.59a28,28,0,0,0-12.66-1.2c-3.93.82-7.22,1.58-9.56.72a37.45,37.45,0,0,1-7.6,1.25c-2.32.39-4.36.3-6.94,1.34-4.25.23-8.61-.27-14.43,2.58a54.75,54.75,0,0,1-7.73,1.06,26.29,26.29,0,0,0-8.39,2.13c-3.86,1.33-7.64,3.37-9.74,1.33-3.16.88-4.88-1.71-8.08-.07-2.55-.16-5.31.37-7.74-.32-2.64-.12-4.81-1.86-8.71.43-6,.26-11-.34-15.43-2.36-6-1.31-10.22-.81-14.88-.12-3.34.54-6.31-.53-9.92.41-1.71.4-3.42.3-5.47,1.21s-3.85.11-6.48,2c-2.79-1.14-6.19-.27-9.4-.45-3.23.45-6.56-.72-9.9.07-3.89,1.66-7-.59-10.62-.1-3.69-3.48-8.29-1.25-12.87-.24-5.19-1-11.89-2.8-13.88-2.48-2.35-.14-8.47-1.48-10-1.24-2.24-.92-2.85-1.6-4.54-.52-.55-1.48-3.18-.22-4.7.32a22.74,22.74,0,0,0-7.18,1.23c-4.49.21-7,.91-8.69,1.7-3.58-.06-4.32,1.26-7.71.79-1.67,1-4.16,2.19-6.83.83-2.19.59-4.68-.88-6.71,0-2.24-.15-4.64.37-6.73-.27-3.23-1.37-7.91,1.44-11.63,1.58A47.75,47.75,0,0,1,33,24.54C24.21,28,18.72,26.6,11.23,28A83.48,83.48,0,0,0,0,29.27V40Z"/></svg>