<svg id="elements" xmlns="http://www.w3.org/2000/svg" viewBox="0 0 1330 65"><defs><style>.cls-1{fill:#f5dfd0;}</style></defs><title>rip-course-landing-coned1</title><path class="cls-1" d="M14.87,21c3.71-.91,7.77-3.12,14.31-3.46,2.1-.11,12,.79,15.17.77,10.45-.06,26-2.31,39-3.73,2-.22,1.48,2.94,4.75,2.9,4.39-.06,10.81-3.13,19-2.37,9.27-.37,28.35,4.71,31.49,1.05,10.27-.5,13.62-4.46,25.63-4.61a10.33,10.33,0,0,0,2.59-1.19c.15-.07,4.59-1.58,4.76-1.59,2.09-.11,4.73.91,6.83.8,2.38-.14,6.89.43,12.2.12,3.82-.22,3.68.7,7.41.67-.71,0,4.42.41,5.54-.13.13-.06,2.94-.66,3.08-.66,5.19-.16,13.48.89,18.83-.4,1.25-.3-.18-.93,2.32-.88,3.49.06,3.81-.55,6.64-.71,2.05-.12,4.45.45,6.47.27.67-.06.26-.93,2.33-.89,2.53,0,6.18.61,8.62.36.76-.08.2-.93,2.33-.89,1.77,0,2.32-1,4.48-.8a43.84,43.84,0,0,0,12.61,2.5c-.46,0,1.12-.91,2.32-.89,3.52.06,3.8-.62,6.64-.71,3.5-.11,7.33.67,10.79.45.46,0,.42-.92,2.32-.89,3.06,0,6.08.54,6.64-.71,1.45-1.36,3.78-2.24,7-2.66,4.55,1.91,16.14,1.14,21.23,2.85,7.9.87,7.61,1.23,19.26,1.78-.84,1,1.07.74,2,1.07,1.77.65,2.09,1.45,4,2.14,2.15.78,8.1,3,9.95,5.33,9.75-1,13.44,1,25.89,1.08.93,2.14,6.32,2.63,10.28,3.38s9.44.88,12.78,1.52c.34.06.53.83,2,1.06,1.3.21,3.05-.07,4.31.18.74.15-.13.93,2,1.07,3.45.23,9.47,1.11,12.61,2.49.48-1.27,4.17-.47,6.64-.7,1.82-.17,2.35-.67,4.49-.8,4.14-.26,8,.71,11-.53,9.07,2.44,17.92,2.65,32.19,2.32a36.82,36.82,0,0,0,4.32.18c.15-.07,0-1,.16-1,2.69-.18,8.32-.56,11-.52,4,0,6.07,1.14,10.62,1.42,2.66.17,5-1.85,8.63.36l23.73,1c1.8.25,2.1-.3,2.32-.89.75-1.54,5.74-.26,8.8-.62,2.47-.29.79-.3,2.32-.89A74.82,74.82,0,0,1,573,22.62c1.2,1.37,4.3,2,8.3,2.32-2,2.59,10.29-.28,8.29,2.31,1.94-1.14,5,.13,8.63.36,3.26.2,8.92.07,13,.54-.36,0,1,.92,2,1.06,3.19.51,8.46-.34,8.46,1.34,2.7,1.1,7.87,1.26,8.13,3.29,6.27.52,7-1.93,13.28-1.42,1.9,1.71,9,1.45,12.61,2.5,9.38-1.73,20.67-2.43,33-2.57-.21-1.18,3.32-.35,4.49-.79.28-.11-.17-.92.16-1,.83-.17,3.72.46,4.32.18.31-.15-.2-.88.16-1,.84-.23,1.11-.59,2.33-.89a57.3,57.3,0,0,1,6.8-1.68c12.56,1.72,21.73-2.32,33-2.57,6.75-.15,13.81,1.49,21.41,1.88,1.91.09,5-.84,8.79-.62,4.94.28,6.77,1.85,14.94,1.6-.41,0,1.27-1.59,2.32-.88.1.06-.28,1-.16,1,1.95.19,4.63-.06,6.47.27.69.13,2.7,1.1,2,1.07,4.81.24,10.66-1.39,19.58-.17.72,1.46,1.91,0,4.32.18,2.61,2.54,7.13,2,12.77,1.51,11.86-.87,8.41,4.1,18.92,3.75,11.6.13,17.45,2.47,25.39,4,4.94,3.48,16.32-.63,23.73,1,.52.12-.26,1.54,2,1.07,4.19-.12,8.57,1.54,12.77,1.51s5-.74,9-1.59c1.49-.32,2.9-.43,4.48-.8.85-.2,2-.83,2.32-.89.82-.15,3.74.45,4.32.18,1.81-.84,1.81-1.41,4.65-1.77,1.91-.25,4.58.54,6.47.27.77-.12.47-.76,2.32-.89,3.32-.24,5.25-.88,8.8-.62,2,.14,3.07,1.27,6.3,1.25a76.71,76.71,0,0,0,8.8-.62c1.72-.19,4.3-.36,6.64-.71.8-.12,3.77.43,4.31.18,1.1-.51,1.34-1.35,2.5-1.87,2.58-1.16,2.87-1.65,7-2.66,1.78-.44,5.35-.88,7-2.66.9-1.3,5.54-.59,8.8-.62.22,1.12,2.07.63,2.15.09,2.11.06,1.88-1.13,2.49-1.87,4.06.28,1,3.29,6,3.2,1.86-.42,7.08.95,8.63.36a7.2,7.2,0,0,1,4.48-.8c1.86.3,3.58.82,6.3,1.25,3.18.5,2,2.07,8.3,2.31a24.39,24.39,0,0,1,6.8-1.68c.31-1.6,4.3-1.54,7-2.66.7-.3-.45-1.72.33-2s3.52.48,4.32.18c.33-.13-.21-.88.16-1,5-1.32,9.87-1.27,15.6-2.3.32-2.51,3.88-.85,9-1.6.88-.13.27-.8,2.32-.89a30.9,30.9,0,0,1,4.32.18c.84.14,2.62,1.1,2,1.07,1.77.07,2.3-1,4.48-.8,2.62.24,5.78,2,12.77,1.52,8,0,7.09-4.74,15.94-4.26,5,.27,12,2.53,16.93,2.67,2.5.07,3.86.1,4.48-.8,1.89-2.1,10.68-2.82,13.28-1.41.36,1,5.37,1.47,8.46,1.33,3.35-.14,2.69.07,4.48-.8.81-.39.18-1.23,2.32-.88l15.11.62c4.1-.45,10.47-.32,15.43-1.32,1.19-.24-.13-.93,2.33-.89.71,0,1.43.07,2.15.09,6-1.79,21,1.27,22.25-3q3.12-2.07,11.12-1.51c-1.35-3.21,3.84-2.92,7.13-3.64,1.65,1.1,4.89.91,8.47,1.34,2.9.34,6.26-.14,6.3,1.24,3.12-1.27,12.46-.88,15.1.63C1285,14.57,1296,12,1298,13.4c.08,0-.21,1-.16,1a35.55,35.55,0,0,0,4.48-.79c2.58-.58,6.08-1.13,5-3.74.61-1.52,2.24.1,2.16.09,5.06.07,9.69-3.82,15.93-4.25,1.38-.1,2.92.24,4.32.18a2.69,2.69,0,0,1,.27-.2V0H0V14.51l.75.07C4.7,15,9.4,22.34,14.87,21Z"/></svg>