<svg id="elements" xmlns="http://www.w3.org/2000/svg" viewBox="0 0 570 40"><defs><style>.cls-1{fill:#ea593e;}</style></defs><title>rip-careers-landingcallout</title><path class="cls-1" d="M.4,31c2-1.87,2.12.63,6.47.22,1.22-.11.52-.68,1.12-.88s1.53.26,2.15.07c.87-.26,1.14-.73,2.2-.84,1.78-.18,4.6.53,6.46.22.54-.09.76-1.65,1.17-1.79.85-.32,2.31.27,3.23.11a32.94,32.94,0,0,1,11.89-.52c2,.32,2.72,1.57,5.38.19,1.81-.94,6.55-1,9.78-1.51,1-.14,1.71-.72,3.28-.8,5.2-.29,14-1.59,21.59-.18,1,.19,1.56,1.14,3.19,1,2.17-.16,5.7-3,9.82-2.43,4.6-.54,12.68,2.13,14.09-1.35,5.09-.69,8.12-1,14.09-1.36.32,0,2,.26,2.15.08s0-.91.05-.92c1-.15,2.19.27,3.23.11s5-1.17,7.62-1.58c1.89-.28,3.58-.62,5.43-.73-.35,0,.5,1.48,1,1,.06-.07,0-.91,0-.92,2.58-.26,8.21.76,10.82-.55.61-.31-.13-.87,1.12-.88,1.74,0,1.87-.6,3.27-.81,1-.15,2.23.33,3.23.11.33-.07.09-.87,1.12-.88,1.27,0,3.1.44,4.31.15.37-.09.06-.87,1.12-.88.88,0,1.12-1,2.2-.84a13.49,13.49,0,0,0,6.38,2.05c-.23,0,.52-.87,1.12-.88,1.75,0,1.86-.66,3.27-.81,1.74-.17,3.67.47,5.39.19.22,0,.17-.87,1.12-.88,1.52,0,3,.37,3.27-.81A5.23,5.23,0,0,1,187,9.81c2.35,1.69,8.09.72,10.69,2.2,4,.64,3.83,1,9.65,1.25-.38.94.56.67,1,1,.91.56,1.11,1.31,2.07,1.9,1.11.69,4.16,2.67,5.17,4.77,4.81-1.14,6.73.65,12.93.45.55,2,3.25,2.31,5.25,2.93s4.74.62,6.42,1.14c.17.05.3.77,1,.95s1.51-.13,2.15.08c.37.12,0,.87,1,.95a14.18,14.18,0,0,1,6.37,2.06c.19-1.2,2.05-.54,3.28-.81.89-.2,1.14-.68,2.2-.84,2.05-.33,4,.49,5.42-.74,4.62,2.09,9,2.09,16.12,1.47.33,0,2,.26,2.15.08s0-.91,0-.92a48.74,48.74,0,0,1,5.43-.73c2-.05,3.07.93,5.35,1.1,1.33.09,2.42-1.85,4.31.14l11.85.41c.9.2,1-.32,1.12-.88.3-1.46,2.84-.37,4.35-.77,1.22-.33.38-.3,1.12-.88a24.41,24.41,0,0,1,6.63-3.45c.65,1.26,2.22,1.79,4.23,2-.89,2.47,5.11-.48,4.22,2,.92-1.1,2.48,0,4.31.15,1.63.12,4.44-.12,6.46.22-.18,0,.56.84,1,1,1.61.4,4.2-.51,4.27,1.06,1.39,1,4,1,4.18,2.9,3.14.35,3.4-2,6.55-1.61,1,1.55,4.52,1.15,6.37,2.05,4.6-1.82,10.19-2.72,16.33-3.11-.15-1.11,1.64-.41,2.2-.85.14-.11-.12-.85,0-.92.41-.17,1.87.35,2.16.08s-.14-.81,0-.92c.41-.24.53-.57,1.12-.88A18.92,18.92,0,0,1,387,24c6.32,1.34,10.72-2.64,16.33-3.12,3.36-.29,6.93,1.09,10.73,1.29,1,0,2.46-.89,4.35-.77,2.47.15,3.44,1.58,7.5,1.17-.21,0,.57-1.52,1.12-.88.05.06-.1.91,0,.92,1,.13,2.3-.17,3.23.11.35.1,1.38,1,1,1,2.41.12,5.25-1.53,9.74-.58.41,1.35.95-.06,2.15.07,1.41,2.32,3.64,1.75,6.42,1.14,5.87-1.08,4.35,3.65,9.57,3.08,5.78-.12,8.78,1.93,12.79,3.19,2.61,3.14,8.1-.94,11.85.41.27.1-.06,1.45,1,.95,2.08-.2,4.33,1.25,6.42,1.14s2.43-.8,4.39-1.69c.73-.32,1.43-.46,2.2-.84a11.64,11.64,0,0,0,1.12-.88c.4-.16,1.88.34,2.15.08.87-.84.85-1.36,2.25-1.77.94-.27,2.3.42,3.23.11.37-.12.2-.71,1.12-.88,1.64-.29,2.57-.93,4.35-.77,1,.1,1.58,1.13,3.19,1a20.7,20.7,0,0,0,4.35-.77c.85-.21,2.12-.43,3.27-.8.4-.13,1.9.32,2.16.07.52-.5.61-1.29,1.16-1.8a11.11,11.11,0,0,1,3.36-2.64c.87-.45,2.63-.93,3.37-2.64.39-1.23,2.73-.67,4.35-.77.15,1.05,1,.55,1.07,0,1.05,0,.89-1.1,1.17-1.8,2,.17.6,3.06,3.1,2.86.91-.44,3.56.74,4.31.15a2.27,2.27,0,0,1,2.2-.84c.94.23,1.81.68,3.18,1,1.6.4,1.1,1.89,4.23,2a8,8,0,0,1,3.31-1.72c.09-1.5,2.08-1.53,3.37-2.64.33-.29-.3-1.59.08-1.83s1.77.37,2.16.07c.16-.13-.14-.82,0-.92A17.77,17.77,0,0,1,570,12.92V0H0V31.06A.59.59,0,0,0,.4,31Z"/></svg>