<svg xmlns="http://www.w3.org/2000/svg" viewBox="0 0 1400 40"><defs><style>.cls-1{fill:#4a455c;}</style></defs><title>rip-campus-landing</title><g id="elements"><path class="cls-1" d="M1381,22.8c-.22.11.11,1.36-.13,1.38-3.18.23-6.71-.4-9.89-.16-3.6.26-15.26,1.76-23.32,2.37-5.78.43-10.94.93-16.6,1.1,1.07,0-1.53-2.22-3.17-1.44-.19.1.08,1.37-.13,1.38-7.89.39-25.1-1.15-33.08.83-1.87.46.39,1.3-3.42,1.32-5.33,0-5.73.9-10,1.21-3.11.23-6.83-.49-9.88-.16-1,.11-.28,1.3-3.43,1.32-3.86,0-9.48-.66-13.17-.22-1.15.13-.18,1.31-3.43,1.32-2.7,0-3.41,1.49-6.72,1.27a74.25,74.25,0,0,0-19.5-3.09c.7,0-1.6,1.31-3.43,1.32-5.35,0-5.69,1-10,1.22-5.31.26-11.22-.7-16.47-.28-.69.06-.53,1.31-3.42,1.32-4.66,0-9.32-.55-10,1.22q-3,2.92-10.28,4c-7.17-2.55-24.72-1.08-32.68-3.31-12.12-1-11.73-1.48-29.52-1.88,1.16-1.41-1.72-1-3.16-1.44-2.77-.84-3.37-2-6.32-2.86-3.38-1-12.72-4-15.81-7.18-14.71,1.73-20.58-1-39.53-.66-1.69-3-10-3.48-16.08-4.41-6-.91-14.47-.93-19.64-1.71-.52-.08-.9-1.16-3.16-1.44-2-.24-4.63.2-6.59-.11-1.13-.18.1-1.3-3.16-1.43-5.27-.21-14.54-1.25-19.5-3.09-.56,1.8-6.27.81-10,1.21-2.74.3-3.49,1-6.73,1.27-6.28.49-12.28-.74-16.6,1.1-14.11-3.13-27.6-3.13-49.28-2.21-1,.05-6-.39-6.59-.11-.23.11.13,1.36-.13,1.38-4.07.34-12.59,1.06-16.61,1.1-6.1.07-9.38-1.41-16.34-1.65-4.06-.15-7.4,2.77-13.17-.22l-36.24-.61c-2.78-.3-3.16.48-3.43,1.32-.95,2.19-8.69.55-13.31,1.16-3.73.48-1.17.45-3.43,1.32a114.75,114.75,0,0,1-20.29,5.18c-2-1.88-6.79-2.68-12.91-3,2.71-3.7-15.63.73-12.92-3-2.8,1.66-7.59,0-13.17-.23-5-.18-13.59.19-19.77-.33.55,0-1.72-1.26-3.16-1.43-4.93-.61-12.84.75-13.05-1.6C684.9,9.72,677,9.67,676.36,6.82c-9.61-.52-10.42,2.95-20,2.43-3.11-2.34-13.85-1.74-19.5-3.09-14.06,2.73-31.16,4.09-49.94,4.68.47,1.66-5,.61-6.73,1.27-.42.16.37,1.27-.13,1.38-1.23.26-5.72-.52-6.58-.11-.46.21.41,1.22-.14,1.37-1.23.36-1.61.87-3.42,1.33-3.63.92-6,2-10.15,2.59-19.32-2-32.79,4-49.95,4.68-10.25.44-21.2-1.63-32.81-1.93-2.92-.07-7.51,1.34-13.31,1.16-7.55-.24-10.52-2.37-22.93-1.77.63,0-1.74,2.28-3.42,1.33-.16-.1.31-1.37.13-1.38-3-.2-7,.24-9.89-.17-1.06-.15-4.24-1.46-3.16-1.43-7.35-.19-16,2.3-29.78.88-1.27-2-2.91.09-6.59-.11-4.29-3.49-11.11-2.63-19.63-1.71-17.93,1.61-13.3-5.49-29.25-4.64-17.68.19-26.87-2.9-39.14-4.8-8-4.72-24.75,1.42-36.24-.61C263,8,264,6,260.61,6.74,254.24,7,247.37,4.86,241,5s-7.45,1.21-13.44,2.53c-2.23.5-4.37.7-6.72,1.27-1.27.31-3,1.24-3.43,1.32-1.23.24-5.75-.5-6.59-.11-2.65,1.25-2.59,2.05-6.85,2.65-2.89.41-7-.62-9.89-.17-1.15.19-.63,1.08-3.42,1.33-5,.44-7.88,1.41-13.32,1.16-3-.14-4.82-1.69-9.74-1.55a121.73,121.73,0,0,0-13.32,1.16c-2.58.32-6.49.64-10,1.21-1.2.2-5.79-.49-6.59-.11-1.6.76-1.87,1.94-3.56,2.7-3.79,1.72-4.16,2.41-10.28,4-2.65.68-8,1.41-10.28,4-1.2,1.86-8.36,1-13.31,1.16-.48-1.58-3.23-.82-3.29-.06-3.21,0-2.72,1.65-3.56,2.71-6.21-.26-1.85-4.6-9.49-4.31-2.77.66-10.89-1.1-13.18-.22A11.29,11.29,0,0,1,64,26.91c-2.87-.35-5.55-1-9.75-1.54-4.89-.6-3.34-2.85-12.91-3-2.54,1.24-6.19,2-10.15,2.59-.26,2.25-6.34,2.3-10.28,4-1,.44.89,2.39-.26,2.76s-5.42-.57-6.59-.11c-.5.19.42,1.22-.14,1.37A96.6,96.6,0,0,1,0,35.32V0H1400V22.48c-3.74.14-7.8.28-12.45.43C1386.56,23,1381.54,22.53,1381,22.8Z"/></g></svg>