<?xml version="1.0" encoding="UTF-8"?>
<svg width="100%" height="100%" viewBox="0 0 543 52" version="1.1" xmlns="http://www.w3.org/2000/svg" xmlns:xlink="http://www.w3.org/1999/xlink">
    <!-- Generator: sketchtool 64 (101010) - https://sketch.com -->
    <title>9AF2FCFB-7060-4F28-A10A-C14A591223C5</title>
    <desc>Created with sketchtool.</desc>
    <g id="Page-1" stroke="none" stroke-width="1" fill="none" fill-rule="evenodd">
        <g id="isa-pwyc-calculator" transform="translate(-717.000000, -521.000000)" fill="#211C38" fill-rule="nonzero">
            <g id="Group-5" transform="translate(717.000000, 228.000000)">
                <g id="alumni-hired-combo1" transform="translate(0.000000, 293.000000)">
                    <path d="M0,0 L0,20.1773141 C0.403948498,20.0997091 0.838969957,19.8668939 1.18077253,19.96002 C1.52257511,20.053146 1.80223176,21.387953 2.20618026,21.512121 C2.95193133,21.6518101 3.12283262,20.5653394 3.75982833,20.4877343 C4.39682403,20.4101293 4.81630901,20.9999277 5.48437768,21.0620117 C6.86712446,21.6362891 6.71175966,21.2637849 7.89253219,20.7205495 C10.1608584,19.6651208 15.1014592,20.2859612 15.9248927,19.5719947 C16.9503004,19.4788686 17.1833476,20.4411713 18.4418026,20.037625 C21.0363948,20.037625 19.9177682,17.3214481 23.1027468,17.7560364 L26.986867,17.0731119 C29.6746781,17.4145742 27.7170815,14.263809 29.8611159,14.2017249 C35.2988841,14.7760023 41.6066953,10.2438672 45.8015451,11.0975228 C47.7436052,11.501069 47.3551931,14.0154728 49.4681545,13.8447417 C51.9384549,13.0997332 52.9017167,14.3724561 53.8339056,15.676221 C55.2166524,17.3680111 60.0484979,15.0864226 62.767382,15.2261117 C64.0879828,15.2261117 65.4862661,14.5276662 66.7913305,14.6518342 C67.3661803,14.6518342 67.5681545,15.3192377 67.7079828,15.3502797 C69.2616309,15.6141369 70.5666953,16.2970614 71.9494421,16.3746665 C75.0567382,16.5609186 77.8377682,15.6141369 80.8984549,15.9245571 C83.1667811,16.1573723 83.1046352,16.7782127 84.3320172,17.0731119 C84.6004653,17.1033572 84.8714661,17.1033572 85.1399142,17.0731119 C85.9478112,16.9955069 85.7613734,17.7094734 86.0565665,17.7560364 C88.9308155,18.2837508 92.4575966,17.5387423 93.5140773,18.3303138 C94.1044635,18.7804231 93.5140773,18.7804231 94.4307296,19.0287593 C94.8812876,19.1374064 95.5493562,18.7804231 95.9843777,18.7959441 C96.7922747,18.7959441 97.0408584,19.1839694 97.708927,19.3702215 C98.5579458,19.4652226 99.3990663,19.6208306 100.225837,19.8358519 C100.458884,19.9134569 100.738541,20.3325242 101.142489,20.5187764 C102.323262,21.0464907 102.835966,20.6895075 104.467296,20.8602386 C106.263356,21.1925149 108.004532,21.7723289 109.640944,22.5830708 C109.873991,22.6917179 110.526524,23.2659953 110.557597,23.2659953 C111.769442,23.6850626 112.701631,23.2659953 113.882403,23.6229785 C114.215383,23.8113626 114.523346,24.0408015 114.799056,24.305903 C115.249614,24.4300711 115.979828,23.9023567 116.352704,24.0730878 C116.492532,24.0730878 116.352704,24.7870543 116.461459,24.8801804 C116.570215,24.9733065 117.113991,24.6473652 117.269356,24.7715333 C117.424721,24.8957014 117.269356,25.4389368 117.393648,25.5631049 C117.51794,25.687273 118.667639,25.2061216 118.947296,25.3458107 C119.226953,25.4854998 118.947296,26.0442562 119.056052,26.1373823 C119.164807,26.2305083 119.708584,25.9200881 119.863948,26.0287352 C120.019313,26.1373823 119.863948,26.6961387 119.972704,26.8358278 C120.081459,26.9755169 121.262232,26.4943655 121.526352,26.6030126 C121.790472,26.7116597 121.759399,27.130727 122.443004,27.2859371 C124.051703,27.7162525 125.739691,27.7588091 127.368069,27.4101052 C127.632189,28.2016767 128.175966,27.9999036 129.092618,27.9843826 C132.060086,27.9843826 138.92721,26.8358278 138.616481,25.8114411 C140.713906,24.25934 144.551416,24.0575668 146.291502,22.2571296 C147.099399,22.0553564 147.363519,22.893491 148.016052,22.831407 C148.94824,22.831407 149.367725,23.6540205 149.849356,24.2127769 C150.330987,24.7715333 150.40867,25.2526847 150.8903,25.764878 C151.371931,26.2770714 152.987725,26.3701974 153.515966,27.0220799 C153.780086,27.3480211 153.609185,28.2327187 153.749013,28.574181 C153.997597,29.3191895 154.417082,29.4743996 154.774421,30.1262821 C155.302661,30.1262821 155.861974,29.8313829 156.328069,29.8934669 C158.689614,30.1418031 160.616137,33.2615263 162.542661,33.1063162 C162.542661,33.1063162 163.039828,31.7404672 163.350558,32.9976691 C163.070901,35.1550896 164.422575,35.5431149 165.41691,35.9777032 C165.964627,36.2290219 166.53751,36.421527 167.125923,36.5519806 C167.125923,36.5519806 166.986094,35.791451 167.017167,35.744888 C167.716309,34.5808122 171.973305,36.4588545 170.916824,34.363518 C172.456935,32.9836571 174.679253,32.6708798 176.54103,33.5719465 C176.54103,32.4233917 177.768412,32.7648539 178.840429,32.4233917 C179.912446,32.0819294 181.372876,32.1129715 181.947725,31.1661898 C183.221717,31.7094252 185.14824,31.3679629 184.806438,34.0375768 C186.303039,33.5019932 187.975089,33.9043488 189.063433,35.0619635 C189.762575,38.569712 195.278026,35.77593 197.546352,37.141779 L198.338712,37.0176109 C199.255365,36.9400058 198.804807,37.5298043 199.255365,37.7160564 C201.178409,38.1664748 203.139324,38.4366765 205.112618,38.5231489 L210.736824,37.7160564 C211.513648,37.3901152 211.32721,38.1040817 211.653476,38.3989809 C212.368155,39.0819053 212.104034,38.9266952 213.362489,38.9732583 C214.620944,39.0198213 216.392103,38.569712 216.469785,37.7160564 C217.370901,36.5054175 220.695708,36.9400058 221.519142,38.647317 C221.798798,39.3612835 222.295966,39.3147205 223.228155,39.2215944 C225.092532,39.0043003 227.593906,37.0176109 229.442747,36.6916697 C232.736481,36.1329133 232.643262,40.059729 235.657339,39.9045189 C238.298541,40.1994181 239.386094,38.662838 240.318283,38.4300229 C241.250472,38.1972077 241.3903,39.0974263 242.042833,39.0043003 C241.809785,39.0043003 242.431245,38.2127287 242.726438,38.0885606 C243.229328,37.9319208 243.753324,37.8533997 244.280086,37.8557455 C245.05691,37.8557455 244.854936,38.4455439 245.196738,38.53867 C247.138798,39.0663843 248.381717,37.6229303 248.6303,39.6872248 C250.836481,40.4322333 252.654249,40.2925442 254.596309,41.2393258 C254.736137,41.2393258 254.596309,41.9377713 254.705064,42.0308974 C254.81382,42.1240235 255.979056,41.5963091 256.258712,41.8136032 C256.538369,42.0308974 256.258712,43.1794522 256.476223,43.3657043 C257.54824,44.250402 259.039742,44.1262339 259.241717,45.4299988 C260.212461,45.6108477 261.118205,46.0445291 261.867382,46.6872007 C264.213391,46.3767804 263.700687,45.1350996 264.850386,44.6384272 C266.000086,44.1417549 266.404034,43.7692506 267.149785,43.4898724 C267.895536,43.2104942 268.485923,43.7692506 268.874335,44.0641498 C269.262747,44.359049 271.360172,43.2880993 272.07485,43.5985195 C273.9703,43.5985195 272.6497,41.1617208 274.156738,40.8513006 C274.420858,41.45662 274.389785,42.4034017 275.182146,42.4034017 C275.182146,42.853511 275.95897,43.2260152 275.990043,42.2947546 C277.201888,42.2947546 278.910901,41.5807881 279.31485,42.6362168 C279.920864,43.6617105 280.910201,44.4043709 282.064807,44.7005113 C283.108763,45.2006998 284.043355,45.9022652 284.814764,46.7648057 C285.265322,47.168352 285.40515,47.8512765 285.840172,48.3169068 C286.275193,48.7825371 287.145236,48.0064866 287.39382,48.0996126 C288.279399,48.3324278 289.258197,48.4255539 289.91073,48.549722 C290.999419,48.8075002 292.117119,48.9222896 293.235536,48.8911842 C294.447382,48.8911842 294.789185,47.9133605 295.534936,47.7581504 C296.654894,47.6534428 297.784534,47.7694584 298.859742,48.0996126 C299.558884,48.1772177 299.481202,48.7049321 299.776395,48.7825371 C300.491073,48.9843103 301.454335,48.2703438 302.184549,48.4410749 C303.256567,48.6894111 303.303176,49.1550414 304.017854,49.8224449 C304.250901,50.039739 305.307382,49.4809826 305.571502,49.5896297 C305.835622,49.6982768 306.161888,50.1328651 306.488155,50.2880752 C307.109614,50.5519324 307.637854,50.6295374 308.212704,50.8623526 C309.766352,51.483193 310.108155,52.0574704 311.661803,51.9953864 C313.215451,51.9333023 314.769099,50.4432853 316.322747,50.4432853 C317.19279,50.7847475 316.819914,49.6206717 317.021888,49.5275456 C319.7097,48.0530496 324.184206,51.2193358 325.846609,48.2703438 C328.736395,46.8579318 330.802747,44.8246794 335.168498,44.4987381 C339.1303,44.5918642 337.576652,40.5564014 342.051159,41.0530737 C344.195193,41.3790149 345.919742,41.7204772 346.712103,39.5009726 C347.597682,39.2836785 348.125923,40.4787963 348.265751,39.2681575 C351.543948,38.0885606 353.827811,39.2681575 355.614506,39.0353423 C355.350386,39.0353423 356.049528,38.2437708 356.298112,38.1196027 C357.090442,37.9418741 357.895724,37.8276899 358.706266,37.7781404 C358.706266,37.7781404 358.566438,37.0331319 358.597511,36.9865689 C358.95485,36.3812494 359.669528,37.6694934 359.514163,37.6694934 C362.621459,37.6694934 363.180773,36.3967705 365.014077,36.1173923 C366.427897,35.8690561 367.639742,36.5675016 368.338884,36.4588545 C371.166524,35.9932242 373.730043,34.5187281 376.262489,34.5187281 C380.503948,34.5187281 384.155021,37.6229303 388.769356,36.0708292 C389.687479,36.4003789 390.567703,36.8270445 391.395021,37.3435521 C391.876652,37.5608463 391.985408,37.8557455 392.311674,38.0264766 C392.63794,38.1972077 392.311674,38.7094011 392.435966,38.8335692 C392.560258,38.9577373 393.725494,38.4765859 393.989614,38.600754 C394.253734,38.7249221 393.989614,39.3147205 394.098369,39.4078466 C394.564464,39.7493088 395.838455,39.0043003 395.822918,39.982124 C400.024986,39.7685996 404.231942,40.2939456 408.252103,41.5342251 C409.557167,40.6029644 412.213906,40.6960905 412.835365,39.2526365 C415.165837,38.7094011 415.569785,40.7116115 417.884721,40.1683761 C417.884721,38.4921069 419.795708,38.2592918 420.75897,37.2969891 C420.665751,35.9156191 422.685494,36.5209385 423.866266,36.0397872 C424.208069,35.9000981 424.6897,35.0930055 424.549871,35.1240476 C426.141724,34.8093272 427.749536,34.5813489 429.36618,34.4411231 C430.733391,34.1927869 431.805408,33.0907951 432.582232,33.9910138 C431.696652,31.8956773 436.450815,33.9910138 435.565236,31.9267193 C437.118884,31.6007781 438.175365,31.0109797 438.54824,29.8624249 C440.43557,30.4117674 442.220021,31.2664022 443.830644,32.3923497 C444.436567,32.842459 443.830644,32.889022 444.747296,33.0752741 C445.663948,33.2615263 447.699227,32.1595345 448.072103,33.4167364 C448.180858,33.9134087 448.320687,34.363518 448.988755,34.1151819 L457.813476,32.85798 C459.056395,30.9644167 460.035193,32.5786018 461.029528,32.4078707 C462.723004,32.0819294 463.437682,31.1351478 464.929185,31.0265007 C466.310216,31.0198218 467.690363,31.0975721 469.061888,31.2593159 C469.061888,31.2593159 469.061888,32.0043244 469.170644,32.0664084 C469.279399,32.1284925 470.522318,31.8335933 470.724292,31.8335933 C476.084378,31.8335933 479.378112,31.507652 482.640773,29.3191895 C483.821545,30.2970132 485.204292,29.4278366 486.773476,29.5520047 C487.581373,29.5520047 487.814421,30.017635 488.498026,30.1262821 C489.430215,30.2659712 490.781888,29.5520047 491.014936,30.5919124 C492.328559,29.4140457 493.940899,28.6194167 495.67588,28.2948028 C496.452704,28.1395927 496.095365,27.5187523 496.359485,27.3790632 C496.623605,27.2393741 497.493648,27.3790632 497.913133,27.146248 C498.332618,26.9134328 498.487983,26.2925924 498.612275,26.2305083 C499.82412,25.6562309 501.906009,25.4234158 503.273219,24.7560123 C504.640429,24.0886089 506.722318,23.5453735 506.955365,21.7759782 C511.616309,21.481079 512.8903,19.7582468 516.587983,20.4101293 C517.344662,18.602686 518.528061,17.0050908 520.037082,15.753826 C520.70515,15.1640276 520.782833,14.4966241 521.404292,13.9223467 C521.730558,13.6429685 522.460773,13.8136997 522.103433,13.0066071 C524.532314,12.6685464 526.91452,12.0540599 529.203605,11.1751278 C531.021373,9.62302673 535.418197,10.1041781 536.971845,8.44342991 C538.147886,8.693787 539.153843,9.44892253 539.721803,10.5077244 C539.985923,11.5165901 541.104549,11.0664807 542.238712,10.9578337 C542.578769,10.9199895 542.897968,11.1282382 543,11.454506 L543,0 L0,0 Z" id="Path"></path>
                </g>
            </g>
        </g>
    </g>
</svg>
