<svg id="elements" xmlns="http://www.w3.org/2000/svg" viewBox="0 0 1160 60"><defs><style>.cls-1{fill:#fff;}</style></defs><title>rip-curriculum-coursepanel1</title><path class="cls-1" d="M1160,0V24.62l-.42-.43a9,9,0,0,1-4,0A13.07,13.07,0,0,0,1151,24a5.28,5.28,0,0,0-1.06.29c-.12.25-.23.53-.35.8l-2.87,0a2.62,2.62,0,0,0-1.8.56,6.66,6.66,0,0,0-3.12.67,7.83,7.83,0,0,1-4.39.38,2.36,2.36,0,0,1-.54-.12,9.46,9.46,0,0,0-4.55,0,27.66,27.66,0,0,0-3.13-.72,20,20,0,0,1-5-1.28,21.81,21.81,0,0,0-7,.34c-1.32-.05-2.62-.18-4-.18-.36,0-.71-.16-1.09-.19a5.52,5.52,0,0,0-4.06.76,2.54,2.54,0,0,1-.55.21,22.07,22.07,0,0,1-6.77-.29,27.2,27.2,0,0,0-4-.18c-.75.26-1.41.47-2,.72a5.18,5.18,0,0,1-3.25.3,11.52,11.52,0,0,0-5.07-.2c-1.24.24-2.61.1-3.93.3a11.33,11.33,0,0,1-4.56-.23,6.25,6.25,0,0,0-3.35,0,6.92,6.92,0,0,1-3.36.12,3.35,3.35,0,0,0-1.11-.1c-2.26.48-4.63.24-7,.3a12.4,12.4,0,0,0-2.83.31,6.35,6.35,0,0,1-3.35,0,8.42,8.42,0,0,0-1.67-.26,2.51,2.51,0,0,1-.63,1.54,1,1,0,0,1-1,.23,3.5,3.5,0,0,1-1.35-.5,7.23,7.23,0,0,1-1-1.37.6.6,0,0,0-.13-.08l-.56-.07c-.17,0-.44-.11-.44-.18v0l-.34,0a5.09,5.09,0,0,0-2.13.42,3.72,3.72,0,0,1-2.64.13,2.73,2.73,0,0,0-1.63.15,4.54,4.54,0,0,1-3.14.39,6,6,0,0,1-3.3-.12,3.2,3.2,0,0,0-2.51.42,2.21,2.21,0,0,0-.5.52c-.23.47-.39,1-.57,1.42l-2.84,1.49c-.94.76-.3,1.45-1.46,1.87-.92-.48.1-1.19-.77-1.67a2.47,2.47,0,0,0-1.71,1.06,6.63,6.63,0,0,1-3.93,1.63l-1.5.25-7.18-.11c-.71.25-1.35.48-2,.69l-2.26.71c-.44.36-.79.6-1,.86-.72.8-1,1.7-2.52,2.28a1,1,0,0,0-.54.51,3.34,3.34,0,0,1-1.45,1.59c-.31.2-.51.58-1,.57-3.28-.07-4.73-2.5-7.93-1.39-1.82.63-1.34,1.66-2.14,2.57-.26.29-.5.82-1,.72s-.12-.46-.6-.62l-2.15.08a12.27,12.27,0,0,1-2.49-.88c-.48-.45-.28-.93-.31-1.4l-3,.83-1.71-.3a20.51,20.51,0,0,1-5.07.34,5.76,5.76,0,0,0-.59,0,5.22,5.22,0,0,0-3.9,1,4.51,4.51,0,0,1-1.95,1.07c-.45.13-1.07,0-1.16-.38,0-.17-.07-.35-.11-.53a9.44,9.44,0,0,1-3.88-1.21,9.14,9.14,0,0,0-1.52-.73,30.1,30.1,0,0,1-3.6-.45c-1.45-.39-2.64.18-4,.09a16.5,16.5,0,0,1-3.92-.5,5.86,5.86,0,0,0-2.8-.08c-1.28.22-2.6.38-3.91.57l-1.91,1.1-2.31-.24a23.57,23.57,0,0,1-8.48,1.64l-2.3,1.71a2.84,2.84,0,0,1-.58,0,4,4,0,0,0-3.14.28c-.51.29-.94.61-1.35.88A30.33,30.33,0,0,0,918,46.8c-1.33-.17-2.45-.7-4-.55l-3.71.73-1.17-.14-1.19-.1a6.84,6.84,0,0,1-1.63.78c-3.35.75-6.43,1.76-9.66,2.65a11.55,11.55,0,0,1-4.33-2.76,4.24,4.24,0,0,0-3-.76c-.76,0-1.5.17-2.27.22-1.71.1-2.35,1-3.87,1.31l-4.6-.13a17.62,17.62,0,0,0-5-1.46,2.59,2.59,0,0,1-.93-.34,6.34,6.34,0,0,0-3-.78,12.16,12.16,0,0,1-2.76-.44,3.41,3.41,0,0,0-1.68,0,21.32,21.32,0,0,1-3.42.3,8.4,8.4,0,0,0-2.1.45c-1,.34-1.82.76-2,1.39s-1,1.06-1.48,1.59a4.71,4.71,0,0,1-2.66,1.07c-.55.08-1.09.19-1.63.28a5.54,5.54,0,0,0-2.79-.17c-1,.22-2.19.34-3.16.49a8.45,8.45,0,0,1-3.83,1.87c-.39,0-.78-.06-1.13-.13-2-.4-2.29-.38-3.52.31-.51.28-1,.59-1.21.72a5.33,5.33,0,0,1-4.74-.92,2.88,2.88,0,0,0-.58,0,6.26,6.26,0,0,1-3.3,0c-1.31-.51-3.08-.23-4.45-.64a1.19,1.19,0,0,0-1.1.13c-.41.34-.39.91-1.38,1.15a3.87,3.87,0,0,0-1.61.82,6.67,6.67,0,0,1-2.79,1c-1.09.23-2.26.31-3.33.52s-1.53.85-2.69,1.09a23.09,23.09,0,0,0-2.82.88c-1.54,0-2.9.06-4.26.12-1,0-1.6.55-1.42,1.06s.21.74.31,1.11a4.12,4.12,0,0,1-2.83-.81c-1.25-1.38-3.39-2.39-5.36-3.48a8.32,8.32,0,0,0-1.3-.45c-2.2.25-2.24.25-3.29-.28-.55-.28-1.05-.58-1.62-.85a5,5,0,0,0-3.73-.18,5.39,5.39,0,0,1-1.9.49c-1.05-.17-2-.27-2.88-.5s-1.52-.6-2.34-.86a18.92,18.92,0,0,0-4-1c-2.54,0-5.45-.39-8.33.22a12.58,12.58,0,0,1-2.32.07c-1.36,0-2.74,0-4.18-.07a26.69,26.69,0,0,1-7.37,1.66,3.7,3.7,0,0,0-1.41.49,13.4,13.4,0,0,0-1.39.88l-4.39.56c-1.24-.35-2.26-.65-3.29-.92a10,10,0,0,0-1.17-.18c-1.36.16-1.33,1.23-2.53,1.2-1.42,0-1.21-1.25-2.82-1.52-.49-.08-1.19,0-1.52-.17s-.06-.68-.69-.87a24.23,24.23,0,0,1-5.56-2.9c-.06-1.44-2.4-2.32-2.89-3.61l.5-1.06c-.3-.64-1.21-1-2-1.46-1-.54-.78-1.3-1.4-1.9a2.52,2.52,0,0,0-.64-.49l-2.65-1.42a40.4,40.4,0,0,0-4.72-.57,14.85,14.85,0,0,1-3.29-.53,4,4,0,0,1-1.32-.56,12.22,12.22,0,0,1-1.21-1c-1.91-.4-4-.1-5.22-.39C699.52,36.65,699,36,697.66,36l-1.74.2-.35-.09a8.72,8.72,0,0,0-1.06.38c-.68.34-1.14.79-1.77,1.16a5.78,5.78,0,0,1-2.12.44c-1.52.14-2.4.61-2.68,1.36a4.09,4.09,0,0,1-.33.56,1.55,1.55,0,0,1-.44,0,2.78,2.78,0,0,0-1.91-.38,22.53,22.53,0,0,1-4.49.5,1.65,1.65,0,0,0-1.29.47,3.33,3.33,0,0,1-2.62.23c-1-.28-1.94-.65-2.84-.95l-4.87-.13L658.44,37.5H653.8l-1.78.85-3.28-.64a13.68,13.68,0,0,1-4.68.13l-1.6-.82-6.09-1c-1-.49-2.08-1.07-3.29-1.56s-2.34-1-3.5-1.52-2.46-1-3.62-1.49a5.23,5.23,0,0,0-3.26-.28,8.29,8.29,0,0,1-2.8.32c-.92-.12-1.83-.29-2.52-.4-1.91.33-3.55.65-5.23.9-1.1.16-2.26.22-3.23.32a5.43,5.43,0,0,0-.85.53,4.87,4.87,0,0,1-3.21,1.13c-.74,0-1.47.2-2.18.31l-2.1-.65c-.87.09-1.8.21-2.73.3-1.13.11-2.27.2-3.52.3a14.08,14.08,0,0,0-2.37-.73,18.06,18.06,0,0,1-3.65-.87,13.56,13.56,0,0,0-3.61-.93,20,20,0,0,1-4.12-1.05l-2.14.24-4.4-1a26.2,26.2,0,0,1-5.69-.51,4,4,0,0,0-3.07.54c-.38.25-.53.55-.24.81s1,.63,1.32,1a2.26,2.26,0,0,1,.53.82c.11.24-.41.62-.87.68a1.33,1.33,0,0,1-1-.2A8.39,8.39,0,0,0,561.13,31c-.9,0-2.07,0-3.23-.06s-2.25-.14-3.37-.21a5.57,5.57,0,0,1-4.12.73c-.57-.06-1.07-.27-1.63-.32A25,25,0,0,0,545.9,31a41.19,41.19,0,0,0-5.55.83,2.14,2.14,0,0,0-.88.38c-.36.23-.57.51-1,.73a3.32,3.32,0,0,1-2.11.33c-.56-.08-1.08-.21-1.62-.32a5.44,5.44,0,0,0-3.27.26c-1,.43-2.11.84-3.15,1.24-.06.45-.1.84-.16,1.24a1.12,1.12,0,0,1-.15.58,1.39,1.39,0,0,1-.73.41,3.08,3.08,0,0,1-1.08-.07,2.9,2.9,0,0,1-1.53-.86,1.92,1.92,0,0,0-1.29-.54c-3.3-.06-6.63-.35-9.85.32a11.39,11.39,0,0,1-4,.08,31.7,31.7,0,0,1-5.89-1.23c-1.69-.66-3.5-1.23-5.07-2-2.1-.37-3.39-1.31-5-1.87a17.9,17.9,0,0,0-5.35.15,17.93,17.93,0,0,1-6.85,0c-1.09-.2-2.21-.38-3.43-.58-.49-.23-1.05-.51-1.64-.76s-1.21-.46-1.72-.65c-1.73.14-3.09.63-4.73.5a20.54,20.54,0,0,0-4.59.3,1.56,1.56,0,0,1-.55-.08,18.78,18.78,0,0,0-4-.22c-2.74,0-5.51-.1-8.21.06a40.29,40.29,0,0,0-6.09,1,4.28,4.28,0,0,1-1.71,0,18.8,18.8,0,0,0-5.12-.47,14.37,14.37,0,0,1-3.39-.4,5.24,5.24,0,0,0-3.26.24,9.54,9.54,0,0,1-3.2,1.22c-2.21-.15-3.69-1-5.37-1.38-1.06.13-1.81.25-2.58.3-2.49.2-4.93.54-7.33.9a10.58,10.58,0,0,1-3.93,0,17.51,17.51,0,0,0-2.86-.24,20.72,20.72,0,0,1-5.71-.45,2.47,2.47,0,0,0-1.11,0,14.29,14.29,0,0,1-3.4.11c-1.9.09-3.55.15-4.37.3-1.29.25-1.92,1-3.24,1-1.32-.16-2.43-.35-3.57-.43-1.34-.08-2.71-.07-3.69-.09-1.68-.52-2.94-1-4.34-1.31-1.58-.37-3.28-.62-4.93-.9a4.91,4.91,0,0,0-2.24.2c-.65.21-1.28.44-1.91.66-1.42-.36-2.59.33-4,.23a10.11,10.11,0,0,1-1.72-.13,12.69,12.69,0,0,0-6.7.07c-.71.15-1.55.17-2.22.35a16.13,16.13,0,0,1-3.42.31A31.4,31.4,0,0,1,346,29.9a7.06,7.06,0,0,1-3.39.16,6,6,0,0,0-3.34,0,10.88,10.88,0,0,1-4.28.17l-3.33-1.38c-1.34-.24-2.6-.53-3.92-.69a22.41,22.41,0,0,0-3.48-.12c-1.39.07-2.56-.53-4.17-.18-1.42,1-3.61.79-5.72.69-1.36-.21-2.06-1-3.57-1-2.76.44-2.81.83-5.82-.42a5.21,5.21,0,0,0-.51-.15c-1.15-.23-2.22.49-3.38.07a6.89,6.89,0,0,0-2.5.65c.13.44.82.66,1.31,1s.72.45,1.07.69-.21.56-.77.68a1,1,0,0,1-.94-.2,8.71,8.71,0,0,0-.74-.48l-3.34-.52a22.94,22.94,0,0,1-3,.85c-1.63.25-3.37.35-5.21.52a9.42,9.42,0,0,0-1.28-.94,8.6,8.6,0,0,0-1.3-.42l-2.72.9c-1.25,0-2.61,0-4,0-1.55,0-3.11,0-4.55.07l-3,1-3.11.19c-.53.2-1.18.42-1.77.67a13.45,13.45,0,0,1-2.7.52,12.6,12.6,0,0,0-1.94.64,7.82,7.82,0,0,1-4.43.23,14.42,14.42,0,0,1-3.95-1.23,22.35,22.35,0,0,0-2.55-1.22,4.22,4.22,0,0,0-2.21-.21c-.93.15-1.82.34-2.8.52-1.83-.3-3.71-.56-5.49-.93a7.19,7.19,0,0,0-2.79.09L231,29.29l-1.86.26-3.38-1.45a4.8,4.8,0,0,0-2.42.21,7.91,7.91,0,0,1-1.62.81,25.14,25.14,0,0,1-5.55,1.21,28.54,28.54,0,0,0-8.81-.48l-3,1-4.16.15c-.78.29-1.52.63-2.37.86s-1.78.35-2.76.53c-.41.44-.85.87-1.26,1.31a.31.31,0,0,0,0,.31c.07.16.6.32.38.44-1.7.94-5.78,1.05-7.24,0-.42-.3.59-.63.31-.84a3.27,3.27,0,0,0-2.11-.23c-.3.07-.73.23-.77.49s.41.49.75.69c.11.07.36.07.36.14,0,.9-3.27,1.39-4.83,1,0,0-.07-.06,0-.08-1.29.66-3.37.36-5,.44l-3.78-.83-2.64.85c-.51-.07-1.09-.11-1.6-.23a17,17,0,0,0-3.44-.26c-1.23,0-2.23.44-3.35.43s-2.23-.32-3.37-.39a8.46,8.46,0,0,0-2.26.18,15.16,15.16,0,0,1-6.8,0,6.5,6.5,0,0,0-3.34.2,5.89,5.89,0,0,0-2.19.93,2.08,2.08,0,0,1-1.51.29,4.81,4.81,0,0,0-1.12-.15,38.35,38.35,0,0,1-6.36.32,6.73,6.73,0,0,0-1.72.11,24,24,0,0,1-5.39.52c-2,.31-3.37.9-5,1L120,38.89l-8.6,2.6c-1.52.22-2.94-.47-4.5-.17-1.48-.25-2.94-.52-4.43-.74a6.6,6.6,0,0,0-1.2.06,6.71,6.71,0,0,0-1.44,1.23c-.38.34-.65.72-1,1.05s-.19,1-1.21,1.34c-.38-.19-1-.35-1.16-.58A4.09,4.09,0,0,0,94,41.76c-.59-.21-.89-.64-1.66-.8s-1.77-.43-2.7-.53a12,12,0,0,0-2.79-.33,6.92,6.92,0,0,1-1.68.13,23.28,23.28,0,0,0-5.74-.43,17.08,17.08,0,0,1-4-.41A1.81,1.81,0,0,0,74,39.7c-.33.35-.27.79-1.06,1.08l-3.73.66a3.25,3.25,0,0,1-.54,0,4.5,4.5,0,0,1-1-.33,17.36,17.36,0,0,0-2-1.42c-.81-.41-1.94-.64-2.86-1s-1.76-.77-2.45-1.07c-2.55-.28-4.64-.92-7.09-.8a5.52,5.52,0,0,1-1.67-.23,7.14,7.14,0,0,0-3.89,0,5.36,5.36,0,0,1-2.81.09,10.88,10.88,0,0,0-6.12.1,15.39,15.39,0,0,1-1.59.37c-.36.07-.74.1-1.12.14-1,0-1.73-.47-3-.26a9.56,9.56,0,0,0-1.22.5c-.76.44-1.44.91-2.15,1.37a4.88,4.88,0,0,1-1-.23c-1-.48-1.14-1.25-2.31-1.68s-2.57-.88-3.8-1.35A9.77,9.77,0,0,0,20,35a5.73,5.73,0,0,1-1.58-.35,45.36,45.36,0,0,0-7.16-2c-.63,0-1.22,0-1.8,0-3.18.06-6.43-.25-9.5.43V0Z"/></svg>