<svg id="elements" xmlns="http://www.w3.org/2000/svg" viewBox="0 0 1330 55"><defs><style>.cls-1{fill:#fbf7f4;}</style></defs><title>rip-scholarships-landingphoto</title><path class="cls-1" d="M0,55V5.13a23.32,23.32,0,0,0,2.71-.4A30.62,30.62,0,0,1,7.47,4.5c.88.33,1.67.58,2.38.88a5.92,5.92,0,0,0,3.87.38,13.35,13.35,0,0,1,6-.25c1.48.3,3.11.12,4.68.37a13.13,13.13,0,0,0,5.43-.28,7.13,7.13,0,0,1,4,0,8,8,0,0,0,4,.15,3.6,3.6,0,0,1,1.32-.12c2.69.59,5.52.3,8.29.37a14.21,14.21,0,0,1,3.37.37,7.16,7.16,0,0,0,4,0,9.3,9.3,0,0,1,2-.32,3.27,3.27,0,0,0,.75,1.9,1.21,1.21,0,0,0,1.16.28,4.2,4.2,0,0,0,1.61-.61,9.12,9.12,0,0,0,1.14-1.69.48.48,0,0,1,.15-.1l.67-.09c.21,0,.53-.14.53-.22v0l.4,0A5.92,5.92,0,0,1,65.78,6a4.28,4.28,0,0,0,3.14.17,3.15,3.15,0,0,1,2,.18,5.21,5.21,0,0,0,3.73.48,7,7,0,0,0,3.94-.15,3.77,3.77,0,0,1,3,.51,2.4,2.4,0,0,1,.6.65c.27.58.46,1.18.68,1.75l3.39,1.83c1.11.94.35,1.8,1.74,2.32,1.09-.6-.12-1.47.91-2.07a3,3,0,0,1,2,1.31c1,1.1,2.6,1.67,4.68,2l1.79.3,8.55-.12c.85.3,1.6.58,2.38.84,1,.33,1.94.63,2.68.88a13.19,13.19,0,0,1,1.24,1.07c.86,1,1.2,2.09,3,2.81a1.18,1.18,0,0,1,.64.62,4.25,4.25,0,0,0,1.73,2c.38.24.61.71,1.22.7,3.91-.09,5.63-3.08,9.45-1.72,2.17.78,1.59,2.05,2.54,3.16.31.37.6,1,1.21.89s.15-.56.72-.76l2.55.11a15.35,15.35,0,0,0,3-1.09c.58-.56.34-1.15.37-1.73l3.54,1,2-.37a24,24,0,0,0,6.05.42c.23,0,.47,0,.7,0,2-.09,3.67.23,4.65,1.21a5.21,5.21,0,0,0,2.31,1.31c.55.17,1.28-.05,1.38-.46.06-.22.09-.44.14-.66,1.74-.32,3.51-.6,4.63-1.48a10.15,10.15,0,0,1,1.8-.91,33.19,33.19,0,0,0,4.29-.56c1.73-.47,3.14.22,4.75.12a18.93,18.93,0,0,0,4.66-.62,6.94,6.94,0,0,1,3.34-.1c1.53.27,3.1.47,4.66.71l2.27,1.35,2.75-.29a27.52,27.52,0,0,0,10.11,2l2.73,2.11a3.29,3.29,0,0,0,.7.05,4.65,4.65,0,0,1,3.74.35c.61.36,1.12.76,1.6,1.09a35,35,0,0,1,9,2.11c1.58-.21,2.91-.87,4.7-.68l4.43.9c.5-.07.94-.13,1.39-.17s.88-.08,1.42-.12a8.15,8.15,0,0,0,1.94.95c4,.93,7.66,2.18,11.51,3.27A13.72,13.72,0,0,0,251,32a5,5,0,0,1,3.54-.93c.9,0,1.79.21,2.71.27,2,.13,2.8,1.22,4.61,1.62l5.48-.16a20.2,20.2,0,0,1,5.94-1.8,3.09,3.09,0,0,0,1.11-.42,7.46,7.46,0,0,1,3.62-1,13.88,13.88,0,0,0,3.29-.55,3.87,3.87,0,0,1,2,0,23.72,23.72,0,0,0,4.08.37,9.63,9.63,0,0,1,2.5.56c1.14.41,2.16.94,2.39,1.71s1.16,1.31,1.77,2A5.55,5.55,0,0,0,297.18,35c.65.1,1.29.23,1.94.34a6.48,6.48,0,0,1,3.32-.21c1.25.27,2.61.42,3.76.6A9.9,9.9,0,0,0,310.76,38c.47-.05.94-.07,1.36-.16,2.43-.49,2.72-.47,4.18.38.61.35,1.18.73,1.44.89,3,.57,4.42-.17,5.65-1.13a4.15,4.15,0,0,1,.69,0c1.31.17,2.59.6,3.93,0,1.57-.63,3.68-.28,5.31-.79a1.36,1.36,0,0,1,1.31.16c.49.42.46,1.12,1.64,1.42a4.41,4.41,0,0,1,1.92,1A7.82,7.82,0,0,0,341.51,41c1.3.29,2.69.38,4,.65s1.82,1,3.21,1.33a31,31,0,0,1,3.36,1.09c1.83,0,3.45.07,5.07.14,1.13,0,1.91.69,1.69,1.31-.16.46-.25.92-.37,1.38,1.44,0,2.76-.29,3.38-1,1.48-1.7,4-2.95,6.38-4.29a9.56,9.56,0,0,1,1.55-.56c2.62.31,2.67.31,3.91-.35.66-.34,1.26-.71,1.94-1a5.68,5.68,0,0,1,4.44-.22,6.31,6.31,0,0,0,2.27.6c1.24-.21,2.41-.33,3.42-.61s1.82-.75,2.79-1.07a22.35,22.35,0,0,1,4.73-1.22c3,0,6.5-.47,9.92.27a14,14,0,0,0,2.77.08c1.62,0,3.26,0,5-.07a31.27,31.27,0,0,0,8.77,2,4.55,4.55,0,0,1,1.69.6A19,19,0,0,1,423,41.18l5.23.69c1.48-.43,2.69-.79,3.92-1.13a13.39,13.39,0,0,1,1.4-.22c1.62.2,1.57,1.52,3,1.48,1.7,0,1.44-1.54,3.36-1.87.58-.1,1.41,0,1.81-.21s.07-.84.82-1.08c2.86-.91,4.61-2.35,6.62-3.57.08-1.78,2.87-2.86,3.45-4.44l-.6-1.32c.36-.78,1.45-1.28,2.39-1.79,1.26-.67.94-1.61,1.67-2.35a3.74,3.74,0,0,1,.77-.6C458,24.15,459.1,23.54,460,23c2.09-.21,3.64-.76,5.62-.71a17.07,17.07,0,0,0,3.92-.64,5.14,5.14,0,0,0,1.57-.69,16.29,16.29,0,0,0,1.45-1.21c2.27-.49,4.76-.12,6.21-.48,1.87-.53,2.53-1.3,4.08-1.37l2.08.25.42-.11a9.58,9.58,0,0,1,1.25.48c.82.41,1.37,1,2.12,1.42a6.75,6.75,0,0,0,2.53.54c1.8.17,2.85.75,3.18,1.68a4.4,4.4,0,0,0,.4.69,1.82,1.82,0,0,0,.53,0,3.22,3.22,0,0,1,2.26-.47A26,26,0,0,0,503,23a2,2,0,0,1,1.53.58,3.82,3.82,0,0,0,3.12.29c1.21-.35,2.31-.8,3.38-1.18l5.81-.15,12.76-2.73h5.52l2.12,1.05,3.91-.79a15.86,15.86,0,0,0,5.58.17l1.9-1,7.26-1.28c1.21-.6,2.48-1.32,3.92-1.93s2.79-1.25,4.17-1.87,2.93-1.18,4.31-1.83a6.09,6.09,0,0,1,3.88-.35,9.64,9.64,0,0,0,3.34.39c1.1-.14,2.18-.35,3-.49,2.28.41,4.23.8,6.23,1.11,1.31.2,2.69.28,3.85.39a7.62,7.62,0,0,1,1,.66,5.67,5.67,0,0,0,3.82,1.39c.88.06,1.75.25,2.59.38l2.51-.8c1,.11,2.14.26,3.25.37,1.35.14,2.7.24,4.19.37a16.69,16.69,0,0,1,2.82-.9,20.82,20.82,0,0,0,4.35-1.08,16.18,16.18,0,0,1,4.3-1.14,23.25,23.25,0,0,0,4.91-1.29l2.55.29,5.24-1.28a30.52,30.52,0,0,0,6.78-.63,4.61,4.61,0,0,1,3.66.66c.45.31.63.68.29,1s-1.13.77-1.58,1.19a2.92,2.92,0,0,0-.63,1c-.13.29.49.76,1,.83a1.57,1.57,0,0,0,1.21-.24,9.86,9.86,0,0,1,4.61-2.38c1.07,0,2.46,0,3.85-.08s2.68-.17,4-.26c1.21,1,3,1.14,4.92.91.67-.08,1.26-.33,1.93-.4a28.24,28.24,0,0,1,3.44-.21c2.35,0,4.39.7,6.61,1a2.8,2.8,0,0,1,1.05.46c.42.29.68.64,1.13.91a3.82,3.82,0,0,0,2.52.4c.67-.09,1.29-.26,1.94-.39a6.19,6.19,0,0,1,3.88.32c1.24.53,2.52,1,3.76,1.53.07.56.12,1,.19,1.53a1.37,1.37,0,0,0,.18.71,1.62,1.62,0,0,0,.87.51,3.56,3.56,0,0,0,1.29-.08,3.47,3.47,0,0,0,1.82-1.06,2.21,2.21,0,0,1,1.54-.67c3.93-.08,7.89-.43,11.73.39a12.94,12.94,0,0,0,4.8.1,38.52,38.52,0,0,0,7-1.51c2-.81,4.17-1.52,6-2.43,2.5-.46,4-1.62,6-2.31a20.45,20.45,0,0,1,6.38.19,20.75,20.75,0,0,0,8.16,0c1.3-.24,2.63-.46,4.08-.71.59-.29,1.25-.63,2-.94s1.44-.57,2-.81c2.06.18,3.67.79,5.63.62a23.65,23.65,0,0,1,5.47.38,2,2,0,0,0,.66-.1,21.45,21.45,0,0,1,4.82-.27c3.26,0,6.56-.13,9.78.08a46.61,46.61,0,0,1,7.26,1.21,5,5,0,0,0,2,0,21.2,21.2,0,0,1,6.1-.59,15.69,15.69,0,0,0,4-.5,6.17,6.17,0,0,1,3.88.3c1.25.52,2.08,1.34,3.81,1.5,2.64-.17,4.41-1.25,6.4-1.7,1.27.16,2.15.31,3.07.38,3,.25,5.88.66,8.74,1.11a12.26,12.26,0,0,0,4.68-.06,19.78,19.78,0,0,1,3.41-.28c2.3-.06,4.66.13,6.8-.56a2.87,2.87,0,0,1,1.33,0c1.31.41,2.7.07,4.05.14a50.64,50.64,0,0,1,5.2.38c1.54.29,2.29,1.25,3.86,1.27,1.57-.2,2.89-.43,4.25-.52,1.6-.11,3.23-.09,4.4-.12,2-.63,3.5-1.22,5.17-1.62,1.88-.45,3.9-.76,5.88-1.1a5.51,5.51,0,0,1,2.66.25c.77.26,1.52.54,2.28.81,1.69-.45,3.09.4,4.71.28a10.8,10.8,0,0,0,2.05-.16,14.75,14.75,0,0,1,8,.08c.84.2,1.84.22,2.64.44a19.61,19.61,0,0,0,4.08.39,37.48,37.48,0,0,0,6-.59c1.37.21,2.58.66,4,.2a6.83,6.83,0,0,1,4,0,12.64,12.64,0,0,0,5.09.2l4-1.7c1.61-.3,3.1-.66,4.67-.85a25.06,25.06,0,0,1,4.16-.14c1.64.08,3-.66,5-.23,1.69,1.2,4.3,1,6.81.85,1.63-.25,2.46-1.19,4.26-1.2,3.29.55,3.35,1,6.93-.52.17-.07.4-.11.6-.17,1.38-.29,2.65.59,4,.08a7.75,7.75,0,0,1,3,.8c-.16.54-1,.82-1.56,1.18s-.86.56-1.27.85.24.69.92.84a1.17,1.17,0,0,0,1.12-.25,9,9,0,0,1,.88-.58l4-.65a24.26,24.26,0,0,0,3.53,1c2,.32,4,.44,6.2.65a12.75,12.75,0,0,1,1.53-1.16,9.08,9.08,0,0,1,1.55-.51l3.24,1.11h4.74c1.86,0,3.71.06,5.42.09l3.56,1.27,3.7.24c.63.24,1.4.51,2.1.82a16.4,16.4,0,0,0,3.22.65,13.34,13.34,0,0,1,2.31.79,9,9,0,0,0,5.28.28,16.81,16.81,0,0,0,4.71-1.52,26.88,26.88,0,0,1,3-1.5,4.84,4.84,0,0,1,2.63-.26c1.1.18,2.17.41,3.34.64,2.18-.38,4.41-.69,6.53-1.15a8.38,8.38,0,0,1,3.33.11l6.51-1L1041,10l4-1.79a5.45,5.45,0,0,1,2.89.26,9.24,9.24,0,0,0,1.93,1,29.85,29.85,0,0,0,6.62,1.5c3.22-.92,6.91-.8,10.48-.6l3.6,1.26,5,.2c.94.36,1.82.77,2.83,1.05s2.12.43,3.28.66c.5.54,1,1.07,1.51,1.62a.37.37,0,0,1,0,.38c-.09.19-.72.39-.46.53,2,1.16,6.88,1.31,8.63,0,.5-.37-.71-.77-.37-1a3.83,3.83,0,0,1,2.51-.28c.35.09.87.29.92.61s-.49.6-.89.85c-.13.08-.43.09-.43.18.05,1.1,3.89,1.7,5.75,1.24.05,0,.08-.07,0-.09,1.53.82,4,.44,5.93.55l4.5-1,3.14,1.05a18,18,0,0,0,1.91-.28,19.86,19.86,0,0,1,4.1-.31c1.47-.05,2.65.53,4,.52s2.65-.39,4-.48a10,10,0,0,1,2.7.23,17.32,17.32,0,0,0,8.1,0,7.66,7.66,0,0,1,4,.25,7.07,7.07,0,0,1,2.61,1.15,2.38,2.38,0,0,0,1.79.36,5.22,5.22,0,0,1,1.34-.18,43.31,43.31,0,0,0,7.57.38,8.78,8.78,0,0,1,2,.15c2.13.68,4.53.49,6.43.64,2.34.38,4,1.11,6,1.26l2-.27,10.25,3.22c1.8.26,3.49-.59,5.36-.22,1.75-.31,3.5-.64,5.27-.91a6.78,6.78,0,0,1,1.43.08,8.13,8.13,0,0,1,1.72,1.5c.45.43.77.89,1.22,1.31s.23,1.21,1.44,1.64c.46-.23,1.22-.43,1.39-.71a4.85,4.85,0,0,1,2.9-2.37c.71-.26,1.06-.78,2-1s2.11-.54,3.22-.66a14.37,14.37,0,0,1,3.32-.41,7.3,7.3,0,0,0,2,.16,26.78,26.78,0,0,1,6.84-.52,19.22,19.22,0,0,0,4.73-.51,2.12,2.12,0,0,1,1.75.39c.38.43.31,1,1.25,1.33l4.44.81a4.7,4.7,0,0,0,.65,0,5.64,5.64,0,0,0,1.19-.41,22.25,22.25,0,0,1,2.41-1.75c1-.5,2.32-.79,3.42-1.23s2.09-1,2.91-1.33c3-.33,5.53-1.12,8.45-1a6.55,6.55,0,0,0,2-.29,8.26,8.26,0,0,1,4.65,0,6.11,6.11,0,0,0,3.34.11,12.56,12.56,0,0,1,7.29.13,18.19,18.19,0,0,0,1.9.46c.42.08.88.11,1.33.17,1.14,0,2.07-.59,3.51-.33a10.77,10.77,0,0,1,1.46.62c.91.54,1.71,1.12,2.56,1.69a5.48,5.48,0,0,0,1.16-.28c1.17-.6,1.36-1.55,2.76-2.07s3.06-1.09,4.53-1.67a11.24,11.24,0,0,1,3.12-.76,6.84,6.84,0,0,0,1.87-.44,53.53,53.53,0,0,1,8.54-2.4c.75,0,1.45,0,2.14,0,3.92.08,7.93-.35,11.7.61a9.87,9.87,0,0,0,2.07.09h9c1.62-.52,3.12-1,4.58-1.49V55Z"/></svg>