<svg id="elements" xmlns="http://www.w3.org/2000/svg" viewBox="0 0 1160 75"><defs><style>.cls-1{fill:#deebe7;}</style></defs><title>rip-modal</title><path class="cls-1" d="M0,0V4.73c2-.09,4.07-.22,6.22-.41,1.8,3.52,14.15.46,12.41,6.2,3.27.16,6.65-.22,9.92,0,2.37.15,1.76,1.46,2.48,1.55,2.38.29,2.3-1.57,2.48-1.55,6.47.42,10.93,2.94,19.86,1.55,2.53-.4,1.21-1.19,2.48-1.55.9-.26,4.38.44,5,0,.13-.11-.15-1.54,0-1.55,2.91-.26,7.75,1.31,12.4,1.55,4.11.2,8.29-.16,12.41,0,4.44-.44,5.09,1.46,2.48,1.55.61,1.68,4.94,1,5,3.1,8,.89,11.54-1.06,17.37-1.55,1.44,1.43,7.45,3.9,12.41,4.65,5.4.8,13.29-1.76,19.85,0,1.13.3,2,2.3,2.48,3.09h2.48c-.8-.94,5.67-4.45,7.45-3.09.15.11,3.56,2.61,5,1.54.13-.09-.12-1.54,0-1.54,1.48-.09,4.51,1.43,7.45,1.54s4.44.05,5,1.55c9.35-1.19,11.86,1.89,19.85,1.55,4.16-3.85,12.36-.4,17.38,0,6.95.56,13.71.35,19.85,1.55.85.17,4.45-.39,5,0s-.42,1.3,0,1.55,2.07-.26,2.48,0-.38,1.41,0,1.55c1.2.46,3.66-.35,5,0,.46.13,1,1.19,2.48,1.55,2.14.54,5.23-.42,7.44,0h2.49V27.56c8.16-.06,12.35-2.61,22.33-1.55h2.48c3.54-4.71,21.52-4.13,22.33,1.55,5.12.94,17.25-2.5,14.9,3.1,8.53-.68,13.9.62,19.85,1.55,2.26,4.79,13.16,4.18,12.41,10.85h5c2.11-.28,2.34.6,2.48,1.55,5.21-.94,6.54,1.43,9.93,1.55,8.27.28,17.22-4.13,19.85,1.55,4.94-2.08,11.82-3,17.38-4.65,9.67.11,17.46-.15,24.81,0,4.42.09,5.28,1.76,9.93,1.55,2.27-.1,3.76-1.75,7.44-1.55-.79,0,1.66,1.42,2.49,1.55,1.55.24,3.38-.19,5,0,1.95,1.48,12.36-1.93,14.89,0,.11.09-.1,1.55,0,1.55,5.19.08,9.15-3.42,14.89,0,6.39-1.69,11.92-3.92,14.89-7.75q9.24.35,12.41-3.1c9.36,1.9,16.5,5.19,29.78,4.65.27,2.93,8.2,1.08,7.44,4.65a84.35,84.35,0,0,1,22.33-1.55c-2.13,5.47,4,1.42,9.93,1.55,3.46.07,4.94,1.85,7.45,1.55,7.21-.87,13.74-2.35,12.41-6.2,2.88-.25,4.41.34,5,1.55,4.49-1.35,3-2,9.92-3.1a4.17,4.17,0,0,0,2.49-1.55c4.86-.38,9.46,3.71,9.92-3.1,2.42,0,1.93,1.9,2.49,3.1,2.88-.25,4.41.34,5,1.55,4,.44,4.27-1.46,7.45-1.55,4.35-1.42,12.38-.53,14.88-3.1,3.69,1.83,11.1,1.34,9.93,6.2,17.08-.33,30,1.94,42.19,4.65.77-2.1,6.21-1.29,9.93-1.55.3-3.42,10.52-.66,14.89-1.55,1.95,1.48,12.36-1.93,14.89,0s1.86.6,7.44-1.55c1.65-.63,3.21-.85,5-1.55.5-.2,2.07.26,2.47,0,.24-.14-.27-1.49,0-1.55,3.82-.83,4.43,1.81,7.45,1.55s4.24-2.49,7.45-3.1c6.18-1.17,12.93.92,19.85-1.55a12.29,12.29,0,0,0,5-4.65c7.8,4.09,17.21-.73,22.34-3.1,7.18.51,8.18.91,17.37,1.55,5.25.37,8.92,1.9,12.41,1.55,3.31-.32,3.86-2.89,7.44-3.1,3.26-1.19,19.18-7,19.85,0h9.93c-2,5.36,2.76,6.55,5,9.3,11.28-1.69,14.48-7.82,27.29-4.65,7.34-2.72,19.49-5,19.86,3.1,4.37.45,7.68-7.3,9.93-3.1,5.83-2.25,11.82,3.7,19.85,1.55,1.09-.29-.29-1.68,2.48-1.55,4.13.2,4.75.63,5,3.1,3.36-1.52,5-4.13,7.45-6.2,13.52-.7,20.39,2.77,34.74,1.55,3.72,2.33,4.44,6.53,9.93,7.75q5.36,1.3,7.44,4.65c6.16-.23,12-.29,12.41,3.1,2.69-.38,1.68-3.08,5-3.1h9.93c3.71-1.81,10.15-1.93,12.41-4.65,2,.3,2.47,1.56,5,1.55,4.72,1.07,11.62,1.06,14.89,3.1,1.52,1-.31,1.14,2.48,1.55,3.78.55,9.59-1.06,9.93,1.55,5-2.07,10.76-3.61,12.41-7.75,2-.79,8.27,1,9.92,0,.17-.1-.18-1.53,0-1.55,1.53-.17,13.22,1.28,14.9,0,.11-.08-.1-1.55,0-1.55,1.65,0,2.9,1.31,5,1.55a41.76,41.76,0,0,0,4.77.1V0Z"/></svg>