<svg id="elements" xmlns="http://www.w3.org/2000/svg" viewBox="0 0 1330 35"><defs><style>.cls-1{fill:#e5f1ef;}</style></defs><title>rip-course-downloadcta-bg-immersive</title><path class="cls-1" d="M1330,0V7.51a44.84,44.84,0,0,1-6.08,1c-2.73,2.76-7.82,1.52-10.68,1.73a19.55,19.55,0,0,0-12.7-.78c-2.6.28-5,.09-7.81.91-3.12,3-4.09-.55-6.54.62-2.21-.48-5.43,2.32-8.11.54a16.83,16.83,0,0,0-7.94-.67c-4.83-.54-10.75.38-15.15,1.17-1.18.26-5-.17-5.7.45-2.18.38-4.35-.12-6.28,0a22.66,22.66,0,0,1-5.88.22,53.43,53.43,0,0,1-5.38.71c-.55.18,1,.52-2.1.51s.43.33-4,.47c-1,.2-1.25.4-7.29,1.41-.58.32,0,.59-3.32,2.09-.51,1.54-1,4-3.69,4-3.45-1-3.35,1.79-6.49-1-1.57-.34-2.08.42-2.87,0-3.32-.51-5.63.05-8.16-.37a17.19,17.19,0,0,1-8.55.13c-1.63.79-4.52,1.11-8.13,1.85-4.19-.18-9.78-1.2-14.59.49-4.72.45-8.86,1-13.1,1.41s-8.6.83-13.72,1c-3.57-.2-6.52-.3-9.09-.33a56.15,56.15,0,0,1-6.81.1c-2.64-.43-4.6,1.13-7.41.77-1.41,2.7-5,.58-6.81,1.7-2.88.48-6.06.6-9.08,1.56-3.77-.65-6.92.56-10.42,1.78-3.58,1-8.18.63-12.53,1.8-6.27,0-12.27-1.47-16.42-.38-4.85-.46-9.28-1.6-13-2.08s-6.72-1.13-10-1.62a46.35,46.35,0,0,0-11-.39c-6.78-.79-11.29-2.75-17.2-3-5.1,1.6-9.25,3.34-15.4,4.55a18.39,18.39,0,0,1-5.35-.82c-1.32-.31-3.19-.57-9.25-1a19.9,19.9,0,0,1-8.83-.4c-3.23,0-7.23-.1-10.16.85-8.75,1-10.28,3.32-14.7,1.13-3.08-.27-5.57.23-13.71.16a24.38,24.38,0,0,1-7,1.36c-2.34.16-4.89-.29-6.71.54-2,.67-5.28-1.81-6.63-.21-2.79-1.57-3.83.49-6.38-.92-1,2-3.49.54-5.71-.43-1.41.82-4.17-1.43-6.26-2.27-3,0-6.6-1.32-8.93.23-2.84.57-6.13.37-9.87.21-8.17.23-12-.58-13.63-1.07-10.36.09-8.75-.23-10.09-.29-4.93.46-7.11.62-6.41.27-4.35.51-5.48.14-9.19.23-3.44-.43-6-.21-9-1.65-1.36-2.15-5.79-.79-9-1.11-2.19-.68-5.73-.59-8.37-1-3.25,0-6.54.1-9.22-.16.6-.54-.3-1.48-3.74-.85-2.8.55-5.14-.16-5.66-1.48-1.52-.11-3.31-.46-5.25-.77a31.89,31.89,0,0,0-6-.51c-1.88.12-4.26-.87-6.4-1.55-1.93-.23-4.48-2-5.78-1.54-1.55.58-5.32-3.72-6.72-2.83-1.93-.27-4.08-1-5.94-1.16-3.81-.47-6.52,1.47-11.05-.56-3.4.35-7.9-1.7-11.72-2.19a10,10,0,0,0-5.63-.52c-1.67.31-3.22.94-4.89,1.36-3.77-.13-6.52,2.44-10.52,2.69-3.23,2-8.24,0-11.13,2-2-.63-4.48-.14-6.78-.49a8.67,8.67,0,0,0-4.85-1.27c-3.93-.51-6.64-1.53-10-1.88-4.09.34-7-1-10.61-1.09s-8.08-.89-11.63-.52c-3.37.61-6.24,1.32-10.28.82-1.67.11-3.88-.72-5.41-.21a15.51,15.51,0,0,0-4.57-1,19.33,19.33,0,0,0-6.6-.25,30.61,30.61,0,0,0-3.83.61,73.64,73.64,0,0,1-9.06,1.45c-16.67,2.06-21,2.41-24.6,2.5a45.45,45.45,0,0,0-11.26.95,22.17,22.17,0,0,1-11.93,1.06c-4.45-.14-8.21,1.28-12.27,2-3.9.93-7.15,3.68-12.25,1.93-3.3,2.18-8.39,0-12.35-1.09q-3.39.2-6.9.22c-2.42-.13-4.81-.18-7.18-.11-2.64-.55-4.62.4-7.45-.48-2.62-.4-5.24-.76-7.77-.89-5.87-.21-11.43-.25-16.38.93-6.12-1.38-11.53-1.36-17.06-1.33-3.93.16-7.87.27-11.81.36s-7.86.15-11.76.25-7.24,1.18-10.86,1.79c-3.06,1.83-7.53.72-12.63-1.1-5-2.3-7.47,1.12-11.32,1.56-4,.08-6.42,3.73-11.55,1.53-3.89.4-7.39,1.63-11.81.57-3.38,1.43-7.31.18-11.94,1.25-4.25.13-7.88,0-11-.08-3-.06-5.21-.15-8.07-.23-5.4.1-7.65.08-7.78-.16-1.62-.09-6.13.83-5.53,0-2.14.15-4.37.62-5.85.73a16.73,16.73,0,0,0-4.91.44c-1.64-.47-3.9.07-6.36.31s-5.18,1.53-9.2.45a33.44,33.44,0,0,1-12,.9c-3.72-.62-6.85-1.18-9.08-.54a45.08,45.08,0,0,0-7.21-.94c-2.21-.29-4.15-.22-6.6-1-4-.17-8.18.2-13.71-1.94a66,66,0,0,0-7.35-.79,30.64,30.64,0,0,1-8-1.59c-3.67-1-7.26-2.53-9.26-1-3-.66-4.63,1.28-7.67.06-2.42.11-5-.28-7.36.24-2.5.08-4.57,1.39-8.26-.33-5.73-.2-10.44.26-14.66,1.77A44.75,44.75,0,0,1,187,20c-3.17-.41-6,.4-9.43-.31a28.36,28.36,0,0,1-5.2-.91c-2.08-.7-3.66-.08-6.15-1.48-2.65.84-5.88.2-8.93.33-3.07-.34-6.24.54-9.4-.05-3.7-1.24-6.65.44-10.1.07-3.5,2.61-7.87.94-12.22.18-4.93.75-11.3,2.1-13.19,1.86-2.23.11-8,1.11-9.47.93-2.13.69-2.7,1.2-4.31.39-.52,1.11-3,.17-4.47-.24a26.91,26.91,0,0,1-6.82-.92,26.81,26.81,0,0,1-8.25-1.27c-3.4,0-4.1-.95-7.33-.6a7.84,7.84,0,0,0-6.48-.62c-2.09-.44-4.45.66-6.38,0-2.13.12-4.41-.28-6.39.2-3.07,1-7.51-1.08-11-1.18a57.65,57.65,0,0,0-10.14.58C23,14.3,17.79,15.38,10.67,14.35A101.65,101.65,0,0,1,0,13.38V0Z"/></svg>