<svg id="elements" xmlns="http://www.w3.org/2000/svg" viewBox="0 0 1400 70"><defs><style>.cls-1{fill:#deebe7;}</style></defs><title>rip-blogpost-2</title><path class="cls-1" d="M1394.1,19.69a37,37,0,0,1-4.48.11,21.44,21.44,0,0,0-5.47-.14c-1.92.45-3.93,0-6,.36a9.08,9.08,0,0,1-2.44-.81c-.81-.34-1.6-1.1-2.49-.52-1,1.66-1.6-1.12-2.53-.46-.88-.06-2,2.16-2.84.86-1,0-2,1-3,1.44-.84-1.5-2,1.18-3,1.73-1,3-2,1.19-3,2.31-.91,2.28-2,.14-2.84,2a7.46,7.46,0,0,0-3.07-.75c-1-.08-1.88.41-2.87-.6-1-.66-1.84,1.09-2.85-.46-1.08-2.4-2-.72-3.05-1.11-.9,0-1.83,4.28-2.76,2.12-1-.5-2,1.57-3,.35-1,2.29-2-.78-3,.52-1,1-2-.18-2.93.79a3.14,3.14,0,0,0-3-.36c-1,.31-1.94,1-2.94,1a5.77,5.77,0,0,1-3,.63c-.91.81-2,.19-3,.59a12.29,12.29,0,0,1-3,.38,28.42,28.42,0,0,1-3,.47,3.67,3.67,0,0,0-3,.2c-1,.18-1.76.95-2.89.26-1.35-.15-2.64-.27-3.86-.37s-2.35-.36-3.46-.58c-1.37-1-2.22-.58-3.44-1.25-.94.14-2.22-.68-3.51-1.45-.8.28-2.31-1-3.27-1.16a4.26,4.26,0,0,1-2.88-.71,4.71,4.71,0,0,1-2.55.35,6.86,6.86,0,0,0-2.75.59,28.94,28.94,0,0,0-3.06.8c-1.07.28-2.11.48-3.27.78a25,25,0,0,1-3.68.74,13,13,0,0,0-3.85.3,20,20,0,0,1-4.23,0,7,7,0,0,1-4.48-.19,25.9,25.9,0,0,1-5.92-.79,11.86,11.86,0,0,1-3.26.26,25.2,25.2,0,0,0-3.25,0c-1.18-.23-2.44-.67-3.46.25-.76.82-2.11.66-3.12,1a7.7,7.7,0,0,1-2.5,1.24c-.37.67-.73,1.43-2.7,1-.88.37-.51,2.37-2.1,1.79-.8.92-2.64,0-3.16,1.47-1.3-.21-2.38,2.17-3.61,1.67-1.28,1-2.42.64-3.6,1.21-2-.49-4.22.43-5.19-1a5.85,5.85,0,0,1-2.75,0,13.78,13.78,0,0,0-2.76-.4c-1.1-.15-2.5-.2-3-.71-1.68,0-2.64-.42-3-1-1.19-.53-3.24-.85-3.21-1.5a18.23,18.23,0,0,1-3.93-1.09c-1.08-.4-3.42-.36-4.07-1.11a4.53,4.53,0,0,1-2.73-.51,11.77,11.77,0,0,1-2.72-2.79c-1.41-1.08-2.64-.51-3.88-.47-1.3,1.29-2.55.35-3.63-.89-1.4.31-1.92-1.57-3.46-1.49a11.13,11.13,0,0,0-3.61-1.46c0-.84-1.41-1.26-2.53-1.76-1.74-.5-.25-1.05-1.82-1.49a7.2,7.2,0,0,0-2.14-1.32c-2-.33-1.14-1.12-3.22-1.29a10.75,10.75,0,0,1-3.45-1.18,7.9,7.9,0,0,0-3.35-1.11c-1-.51-2.39-.32-3.67-.31a14.39,14.39,0,0,1-3.91.47c-.9-1-2-2.52-3.31-2.31-1.33,0-2.68-1.12-4.15-1.88a40.84,40.84,0,0,1-3.8-1.84c-1.37-.25-3,.25-5.2,2.68a11.56,11.56,0,0,1-3.84.69c-1.25.65-2.57.21-4.18,1.62-.75-.42-1.75.53-2.92.28-.59-.12-1.22.31-1.87.82a4.31,4.31,0,0,1-2.07,1.29c-.72,1.53-1.45.56-2.21,1.18-.75-.13-1.51-.23-2.28,1.36-.86-.29-1.74-.88-2.64,0-.89,1.22-1.8,1.07-2.71,2.28s-1.83.46-2.74,1c-.91-.51-1.82.12-2.71.71-.89-.36-1.76-.85-2.62.36-.85.9-1.68-.17-2.48-.07-1,1-2-.22-3,1.24-1-.53-2,1.3-2.91.93A5.83,5.83,0,0,1,1091,26c-1,.38-1.92.09-2.88.57s-1.94,1.33-2.93.26c-1,.51-2-.7-3,.12-1.56.26-3.09-.19-4.54.49-1.45.28-2.82,1.37-4.05,1.18-.61,0-1.19,1.5-1.73,1.44-.54.9-1,1.2-1.49,1.06-1,.6-1.84.67-2.72,1.21-.87,1.89-1.73-.06-2.61,1.39-.91,1.27-1.8-.95-2.84.48-1-1.56-2-1.92-3.23-1.32a18,18,0,0,1-7.77-1.25c-1.22-.44-2.6-.16-3.86-.36a3.31,3.31,0,0,1-3.7-.61c-1.24-.08-2.4-.47-3.64-.52s-2.33-1.37-3.67-.53-2.57-.07-3.84-.86c-1.29-.46-2.17-4-3.82-1.74-.63-1.44-1.94,1.13-2.58-.53-.67-.92-1.7-.37-2.45-.87-1,.42-1.81.12-2.9.84-1,.37-1.25-1.6-2.42-.74-1.43,2.33-1.91.57-2.88,1-1,.59-2.05,2-2.59.27-.6-.91-1.94,1.57-2.6.15-.75-.72-2,1.21-2.93,1.12-1.06,1.29-2,1.16-3,1.46-1,.81-2,1.64-2.93,1.27-1,.16-1.9,2.06-2.85,1.17-.94-.1-1.88-.45-2.76,0-1-2-1.81-.12-2.72-.54a11.3,11.3,0,0,1-2.73-.73,7.47,7.47,0,0,0-2.81-2.26c-1-1.11-1.72.13-2.59-.06-.81,1-1.74-.28-2.58-.2-.87-.7-1.71-1.09-2.49-.23a2.87,2.87,0,0,1-2.5,1.43c-.82,0-2.13,2.78-2.66,1.21-1.11,1-1.89.62-3,1.27-1.7,1.88-2.08.41-3.48,1.3-2.39,2.48-4.06,2.91-5.32,3.72-.48.49-.56,1.33-1.75,1.13s-2.16-.09-2,1a12.19,12.19,0,0,1-3.42.25c-1.31,0-2.3.45-3.62.57-1.95-.75-2.51.53-3.87.64a15.5,15.5,0,0,1-4.28-1,18,18,0,0,1-3.24.29c-1-.13-2,.35-3,.39-.86,1.8-1.92.21-2.85.47a4.53,4.53,0,0,0-2.78.88,4,4,0,0,0-2.7.24,22.75,22.75,0,0,1-2.68-.55,12.85,12.85,0,0,1-2.56-.86c-.79-.33-1.54-.7-2.26-1.08a17.93,17.93,0,0,1-4.76-.64c-.86-.17-1.75-.36-2.67-.58s-1.93-.47-2.95-.74c-.69-.33-1.49-.29-2.23-.59a4.37,4.37,0,0,1-2.4-.65,4.42,4.42,0,0,0-2.58-.23c-.83-.4-1.64-1.65-2.55-1.12-.87-.32-1.75-.88-2.62-.51a4,4,0,0,1-2.57-1,4,4,0,0,0-2.5-1.06c-.86.22-1.44-1.2-2.28-1.1-1.18-1.69-3.09-.78-4.41-1.81-1.6-.12-3.08-.65-4.62-.68-2.18.88-4.44.46-6.75-.08-1.15-.27-2.32-.51-3.45-.69s-2.21-.14-3.26-.34c-1-1-2-1.88-3.1-1-1.07.19-2.15-.45-3.24.12a10.39,10.39,0,0,1-3.29.09c-1.09.7-2.17-.81-3.22-.47a15.15,15.15,0,0,1-5.58-1.67c-1.89-1.54-3.89-.84-6.25-.5a32.28,32.28,0,0,1-6.44.06c-1.06,0-2.1-.05-3.14-.09-1,.43-2.07-.77-3.1-.18-1.86-2.11-3.91-2-6-.9-2.06-1-4.14-.79-6-1.1a7.5,7.5,0,0,1-4.1.32c-1.36-.59-2.7-1.15-4-.5a25.71,25.71,0,0,0-4-.09c-1.34-1-2.68.46-4-.75-1.34.69-2.69,1.06-4,.11-1.35.48-2.71-.09-4.08,1.22-2.27-1.32-4.53-.85-6.78-.26-1.13-.15-2.26-.43-3.39-.66a12.33,12.33,0,0,1-3.41-.32c-1.14-.35-2.29.12-3.45-.25-1.15.47-2.31-.39-3.47.06-1.16-.13-2.32.31-3.48,0a8.56,8.56,0,0,1-3.44-.52c-.74.14-1.48.28-2.23-1.29-.75-.82-1.51.68-2.27-.67-1.52.45-3.07-.25-4.63-.08-1.55-.1-3.11,1.56-4.67.75-1.16-.14-2.31.71-3.44.31s-2.27-1.29-3.39-.87c-1.13-.32-2.25-1.36-3.38-1a27.75,27.75,0,0,0-3.41,0c-.75-.23-1.49-.6-2.23-.77-.74-2.19-1.49-.17-2.22-1.21-.74,1.79-1.48-1.59-2.22-.78-.74,0-1.47-.54-2.21-.61a5.78,5.78,0,0,0-4.43,2.09c-4.35-1.09-8.63-1.38-13.08-2.89-2.37-1.47-4.56-2.72-6.65-1.49-2.09,0-4.07,3.09-6,2.29-2,.11-3.89,2.14-5.87,2.92-1.81,3.08-3.88,3.29-6.08,3.35a15.36,15.36,0,0,1-3.4-.33c-1.15-.23-2.32-1.22-3.49-.86-1.18-.13-2.35-2.92-3.51-.93-1.15-1.36-2.3,1.14-3.41.5s-2.45-.42-3.67-.88c-1.23,1.23-2.46-1.06-3.68-.9-1.23-.54-2.45-2.31-3.67-2-1.23.1-2.45,1.34-3.66.88a6.59,6.59,0,0,1-3.63,0c-1.2-.4-2.39-.27-3.6,1.27-1.17-.46-2.35,0-3.5-.55s-2.35.27-3.47-.3c-1.16,0-2.31-.11-3.46-.2a7.17,7.17,0,0,0-3.48-.27,3.46,3.46,0,0,0-3.52-.3,4.41,4.41,0,0,1-3.5-.82c-2.38-.77-4.89,0-7.24-1.12a9.7,9.7,0,0,0-3.56-1.3c-1.18-.68-2.34.55-3.5,0-.77,1.24-1.54.4-2.31-.56-.77-.3-1.53-.72-2.3-.27-1.52-2-3-.44-4.56.16a2.27,2.27,0,0,0-2.27,1c-.75-.55-1.5.43-2.26,2.16-2.25-.88-4.51.52-6.78-.37-2.26.7-4.53-.26-6.8,1-1.14.17-2.29.3-3.43.41s-2.28.84-3.44.3c-1.13.7-2.39-.21-3.52.33a2.62,2.62,0,0,0-3.52.47c-1.65-.34-3.19-.13-5.06-.69-1.36.6-2.93.73-4.26,1.44a3.28,3.28,0,0,0-2.34,0c-.61.71-1.33,1.18-2.13.81a3.92,3.92,0,0,1-3.46.69c-1.23-.9-2.28.27-3.39,1-1.22-1.58-2.24.81-3.37-.13a4.21,4.21,0,0,0-3.33,1.11,23.06,23.06,0,0,0-8.36.79c-2.73.54-5.41-.88-8.1.54a11.43,11.43,0,0,1-4,.51,13.79,13.79,0,0,0-4.07.39,7.81,7.81,0,0,0-3,0c-1,.31-2.12.89-3.23.25-1.1.46-2.22,0-3.36.39-1.13,0-2.28-.61-3.42.44a11.61,11.61,0,0,1-6.76.65c-2.19.28-4.28.48-6.19-1.19a17.43,17.43,0,0,0-3.15-.2c-1.07-.18-2.16-.54-3.26-.67-1.1-1.27-2.23.07-3.38.06-1.15.29-2.33.11-3.53.56-1.5,1.26-3.1.91-4.77.95-1.67-.54-3.42-.15-5.23,2.3-1.81.27-3.69,2.28-5.62,3.14a15,15,0,0,0-4.75-.94,5.45,5.45,0,0,0-2.52-.46,6.42,6.42,0,0,0-2.62.72,9.5,9.5,0,0,1-2.72,1c-.91.19-1.85.93-2.8.6-.78.64-1.59.35-2.41.23-.82.67-1.66.06-2.5.5-.84-.29-1.69,1.82-2.54,1a6.08,6.08,0,0,1-2.53,1.11c-.84.42-1.67,1.6-2.48,1.06-.81-1.05-1.6.42-2.36.82-.75,1.34-1.5.95-2.24,1.63a7.31,7.31,0,0,1-2.2,1.07c-1.45,1.24-2.87,0-4.24,1.57a3.6,3.6,0,0,0-2,.93,18,18,0,0,1-1.94,1.7c-.88-.37-1.69.59-2.46-.69-.77,1.6-1.49.3-2.2.38a3.82,3.82,0,0,1-2.08,1.14c-.7-2.06-1.39.9-2.11.7a2.34,2.34,0,0,0-2.26.51c-.8,1.58-1.64-.47-2.55-.4s-1.86-1-2.86-.93c-1-1-2-.17-3.1-1.48-1.06-2.1-2.14-.49-3.22-2.16-1.09-.82-2.2-2-3.26-1.79-1-3-2-2.88-3-2.56-.9-.58-1.74-1.09-2.62-.73-1,0-1.5-2.21-2.25-2.86-.83-.26-1.8.12-2.47-.71-.88,0-2.07,1.33-2.47-.53a7.58,7.58,0,0,1-2.65.22c-1.15,1.16-1.54-1.1-2.86,1-1.13,1.15-1.55-1.31-3,1.91-1.57-3.37-3.71-2.91-5.94-.6-2.1,2.13-4.06,4-5.87,2.41-1.85-.36-3.66,1.49-5.45.92a28.48,28.48,0,0,1-3.81-.11,27.29,27.29,0,0,1-3.82-.29c-1.29.17-2.62-.63-4-1.22-1.37-.36-2.81-1.93-4.2-1.9a9.46,9.46,0,0,1-4.11-1c-1.34-.39-2.65-1-4-.8-1.23-.64-2.49-.22-3.68-.41a4.68,4.68,0,0,1-3.5.16,5.46,5.46,0,0,1-3.33.22c-1.05-.44-2.18.15-3.28.39a7,7,0,0,1-3.33.41c-1.14-.18-2.3.52-3.48.44a49.64,49.64,0,0,1-5.09-.7c-1.73-.35-3.46-1-5.12-.75-1.66.88-3.32-.3-4.88,1.21-1.94-1.6-3.73-3.09-5.47-2.28a6.91,6.91,0,0,0-5.3-.18c-1.82.48-3.69-.12-5.66-1.16a8.66,8.66,0,0,1-4.11.12,32.34,32.34,0,0,0-4.09-.55c-1.33-.41-2.65.19-4-.12-1.28,0-2.46-.65-3.78.12a42.88,42.88,0,0,0-4.64.46c-.72.11-1.51.54-2.08.19s-1.2-.22-2.15.66a3.87,3.87,0,0,1-4.31.83c-1.65,2.67-2.84,2.94-3.69,1-1.29.54-1.9-2.61-3.12-3a3.23,3.23,0,0,1-3.85-1.29c-1.49.29-1.86-2.4-3.59-2.1a5.78,5.78,0,0,0-3.31-1.1c-1-.67-1.92-1.77-3.59-.38-1-.49-2-1.1-3.18-.32-1.08.4-1.85-.63-2.67-1a8.41,8.41,0,0,0-2.72-.76c-1.06.39-2.14-.07-3.27-.16-1.14.66-2.25-1.79-3.38-.09a26.15,26.15,0,0,0-3.15-.66,9.82,9.82,0,0,0-4.14-.78c-1.45-1.57-3-.39-4.47,1.1-1.52,1-3.05,1.26-4.55,2.27a12.5,12.5,0,0,0-3.71-.16,10.08,10.08,0,0,1-3.71-.17c-1.24,1.41-2.47,0-3.7.72a10.65,10.65,0,0,1-3.69.47c-2.46,0-4.91,1.27-7.36,1.51a16.58,16.58,0,0,0-3.68.52c-1.23,0-2.43.91-3.69-.46-1.27-2.43-2.46-1.41-3.69-2.07-1.2,0-2.39.24-3.63-2.17-1.22,1.71-2.49-.23-3.68,1.35-1.28-3-2.33,4.24-3.59,2.27a23.19,23.19,0,0,0-7,3.11c-2.37.89-4.75.45-7.14,1.3a34.24,34.24,0,0,1-7.23.08c-1.22-.12-2.45.06-3.68-.62-1.24-1.1-2.48-.33-3.74-1.18-2.51-.88-5-.49-7.42-.76a17.28,17.28,0,0,0-3.59-.71,19.46,19.46,0,0,0-3.5,0,2.88,2.88,0,0,0-3.39-.65c-1.11.79-2.2-.17-3.27.44-1.19.4-2.33-.39-3.45-.93-1.11-.13-2.19-1.55-3.25-.44-1.06-.87-2.08.53-3.1-.05-1,.15-2,.24-3,.44s-2,.44-3,.64c-1.06,1.82-2-.78-3.13.46-.94-2.28-2-1-2.93-1.88-1,.07-1.74-.78-2.83.48-1,.34-2.3,3.08-2.81.59-.84-.33-1.61-1-2.56-.93-1.33,1.25-2.5,1.74-2.94-.24a2.87,2.87,0,0,0-2.75-1,1.9,1.9,0,0,0-2.53-1.19c-.69-.71-1.79-.46-2.84-.38a12.27,12.27,0,0,1-2.67-.52c-.49-1.17-1.43-1.18-2.59-.56a11.69,11.69,0,0,1-2.51-.64c-.81-.21-1.59-.44-2.35-.69-4.34-1.32-9-.29-12.65-1.45a3.75,3.75,0,0,1-4.29.4A13.5,13.5,0,0,1,41,16.14c-.57.32-1.3-1.88-1.91-2.44-.7-1.63-1.28-1.95-1.86-2-.65-1.09-1.24-1.08-1.88-1.61-1.49-1.23-2.9-2-4.25-1.25-.67.18-1.33,1.52-2,.87-.65.74-1.29,1-1.93-.34-1.27.3-2.5-.15-3.69-.09A3.14,3.14,0,0,0,20.1,9c-1.1.93-2.15.55-3.16.33s-2,.37-2.9-.15c-.93.74-1.8,0-2.64-1.57-.83-.81-1.62-.53-2.37-.76A18.77,18.77,0,0,0,5.11,4.9C4,3.37,3,3.92,2.28,5.1.77,5.53,0,5.9,0,4.67V70H1400V15.49C1400,18.83,1397.86,19.48,1394.1,19.69Z"/></svg>