<svg id="elements" xmlns="http://www.w3.org/2000/svg" viewBox="0 0 600 50"><defs><style>.cls-1{fill:#4a455c;}</style></defs><title>rip-company-news3</title><path class="cls-1" d="M0,0V23.27a1,1,0,0,0,.26-.16c1-.52,1.92-.06,2.88-.17.77.78,2-.43,2.85.08,1.27-1.11,2.21-.13,2.81.75,1.49-.37,1.66.74,3.19.72A5.25,5.25,0,0,0,15.49,26,5,5,0,0,0,18.41,27c.59.47,1.58,1.54,2,.31.61.91.94.35,2-.4.61.21,3.35-.86,4.36-1,.81.28,3.84-1.17,6.14-2,1.84.89,3.56,2.77,5.48-.1,1.49.44,3-1.41,4.52,0,1.33.69,2.86-.27,4.19.13,1.38-.12,2.73.63,4-.3.92,1.59,1.71.91,2.54,1.71s1.51.71,2.2,1.05c1.43.81,2.8-.06,4.16.42a8.31,8.31,0,0,0,6.32,0,8.77,8.77,0,0,1,6.79-1.85c1.42,1.94,2.52.5,3.65.43,1.1-.56,2.22-.1,3.32-.21,1.18,1.39,2.18-.75,3.43,0,1.1-1.69,2.49.05,4,1.18a6.4,6.4,0,0,0,3.34,1.84,11.72,11.72,0,0,1,3.17.94c2.17,2.42,4.07,2,5.85,2.26,1,.89,1.86.83,2.81,1.17a8.28,8.28,0,0,1,3.08,1.1c1.09-.7,2.41,0,4,.67a6.73,6.73,0,0,0,5.49-.91c1.64,1.24,3-.25,4.17-.41s2.21-.84,2.88-.31a3.46,3.46,0,0,1,2.25-.44c.68-.12,1.74-.62,2.71-.77-.38.93,1.76-.06,2.47.06,0,.26,1,.31,3.45.24,1.27.1,2.24.23,3.57.32a31.07,31.07,0,0,0,4.92.18c2.21-1.16,3.79.26,5.5-1.3,1.83,1.22,3.56-.13,5.35-.54,2,2.49,3.57-1.56,5.37-1.61,1.78-.46,3.34-4.24,5.27-1.64,2,2.06,3.87,3.32,5.48,1.32,1.7-.65,3.33-1.83,5.1-1.91s3.51-.12,5.28-.18,3.55-.16,5.32-.31c2.47,0,4.89,0,7.43,1.62,2.37-1.28,4.85-1.19,7.44-.91A14.89,14.89,0,0,1,202.51,28c1.14,1,2.15,0,3.26.6a15.44,15.44,0,0,1,3.18.18,26.94,26.94,0,0,0,3.12-.19c1.62,1.22,3.59,3.71,5.36,1.32,2,2,3.87-1.05,5.73-2.06,1.91-.74,3.78-2.28,5.76-2.1a4.86,4.86,0,0,0,5.46-1.07,9.27,9.27,0,0,1,5.16-1c1.62-.08,3.6-.42,11.33-2.59a17.2,17.2,0,0,0,4.24-1.54A7.45,7.45,0,0,1,256.9,19c1-.12,2-.38,2.92.33.62.28,1.26.28,1.9,1.14.76-.55,1.63.38,2.38.28,1.74.58,3.12-.18,4.71-.83,1.64-.38,3.49.41,5.12.67s2.71,1.65,4.59,1.29c1.44.43,2.51,1.58,4.2,2.18,1-.18,1.58.83,2,1.45,1,.41,2.16-.12,3,.6,1.57-2.13,3.53.05,5.25-2.12,1.82-.24,3.4-3.08,5.07-2.91.8-.44,1.57-1.14,2.36-1.47a2,2,0,0,1,2.45.62c1.63.59,3.36,2.9,4.93,2.54,1.74,2.29,3.21.15,4.85.7.81.17,1.67,1,2.49,1.34.75-1,1.84,3.84,2.61,3.21s1.54,1.48,2.37,1.76c.86.77,1.78,1.89,2.64,1.77a5.86,5.86,0,0,1,2.6.61,13.88,13.88,0,0,0,2.24.91c.05,1.47,1,2.27,2.32,1.69,1.63-.68,1.9.38,1.56,1a17.66,17.66,0,0,0,4.09.25c1.12.5,2.71.43,3.59,1.21,1.39.38,3.55-1.09,3.86,1.3,1.15,1.63,2.33,1.4,3.81,1.91,1.66-.07,2.12.35,4.13-.18-.36.39.63.22,2.9-.25.59.08-.17.42,4.46.41.66.55,2.26,1.49,5.94,1.29,1.65.21,3.09.46,4.43-.15,1.26-1.71,2.65-.18,4-.19.82,1,1.74,3.48,2.48,2.58.86,1.09,1.77,2.7,2.49.53.94,1.58,1.69-.71,2.72,1.06.82-1.76,2,1,2.93.29.93-.91,2-.38,3.07-.54a6.49,6.49,0,0,0,3.32-1.47c3.62.16,4.81-.39,6.14-.06,1.67,2.47,2.68-.1,6.72-1.14,1.44-1,3.21-.91,4.65-.86a3.74,3.74,0,0,0,3.89.51c2.65.49,3.45.8,4,1.15a3.64,3.64,0,0,0,2.27,1c2.92-1.3,5-3.2,7.51-4.94,2.61.31,4.35,2.52,7.26,3.45a8.27,8.27,0,0,1,4.86.53c1.4.56,2.72,1.28,4.25,1.87s3.39,1.87,5.49,2.42c2-1.18,4.48.49,7.28.56,2.1-1.27,4.1-.79,5.84-1.91,1.73-1.32,3.3-2.65,4.89-1.9,1.49-1,2.92-1.14,4.27-1.65,1-1.24,2.28,1.15,3.28-1.84,1.2.42,2.29-1.3,3.41-.8A10.23,10.23,0,0,0,478.7,40a33.2,33.2,0,0,1,4,.45,39.11,39.11,0,0,0,6.27-1c1.95-.46,3.87-1,6-1.47,2.38-1.84,4.74-.65,6.58-.43,1.72-.79,3.05-1.12,3.89-2a3.37,3.37,0,0,0,3.83-.07c1.07.49,2.18-.12,3.59.47.29.5.63-.35,1.28.05,1,3.17,1.36.06,2.75,1.2,1.21,0,1.77-2.73,2.21-4.44a7.16,7.16,0,0,0,1.77-2.29A25.32,25.32,0,0,0,524.36,29c2-.12.44-.4,1.85-.5s.73-.35,1-.55a11.4,11.4,0,0,0,2.51-.75,4.29,4.29,0,0,0,2.65-.19c.88-.15,1.78.43,2.8,0,.42-.69,2.05-.18,2.61-.46,2.07-.84,4.84-1.82,6.92-1.18a3.23,3.23,0,0,1,3.46.8c1,2,2.77-1.08,3.69-.53,1.26-1.28,1.2,2.69,3-.63,1.35-.89,2.42-.67,3.62-1,2.28-1.43,3.95-.69,5.56,1,1.3-.21,3.41,1.21,5-1.85,1.36-.05,2.54-1.29,4.28-1.32A10,10,0,0,0,577,19.68c1.16-1.07,2.73-2.77,4.66-2.61a9.4,9.4,0,0,1,2.78-1.39,19.34,19.34,0,0,1,3.82-.31c1,1.1,2,.42,3.26-.15s3-.55,3.89-1.5c1.27-.35,2.65-.57,2.78-1.12-.11-.76.75-.74,1.21-.88l.58-.11V0Z"/></svg>