<svg xmlns="http://www.w3.org/2000/svg" xmlns:xlink="http://www.w3.org/1999/xlink" width="1400" height="67" viewBox="0 0 1400 67">
    <defs>
        <path id="luueilzb4a" d="M0 0L1400 0 1400 66.587 0 66.587z"/>
    </defs>
    <g fill="none" fill-rule="evenodd">
        <g>
            <g transform="translate(0 -498) matrix(1 0 0 -1 0 565)">
                <mask id="8062gvtdtb" fill="#fff">
                    <use xlink:href="#luueilzb4a"/>
                </mask>
                <path fill="#CFDEE7" d="M1400 66.587V.831c-.943-.109-1.892-.279-2.848-.534-1.501-.397-3.355-.218-5.012-.297-.93.427-1.762.758-2.505 1.165-1.234.671-2.633.951-4.077.497-2.09-.655-4.122-.904-6.36-.334-1.554.395-3.27.162-4.927.493-1.822.368-3.895.26-5.714-.378-1.4-.489-2.802-.536-4.2-.036-1.364.486-2.748.61-4.221.197-.43-.117-1.02-.263-1.384-.16-2.834.784-5.813.394-8.73.49-1.233.04-2.434.106-3.551.495-1.391.48-2.813.533-4.203.024-.678-.247-1.375-.353-2.084-.422-.032.844-.275 1.681-.797 2.502-.208.33-.714.52-1.216.367-.63-.193-1.4-.435-1.694-.803-.56-.688-.798-1.479-1.202-2.225-.017-.045-.098-.09-.158-.136-.241-.038-.471-.076-.708-.117-.217-.036-.554-.182-.554-.282l.003-.058c-.156-.027-.307-.047-.43-.05-1.051-.016-1.918.265-2.667.686-1.052.6-2.083.652-3.311.216-.667-.238-1.47-.064-2.047.236-1.177.61-2.326 1.201-3.928.636-1.437.45-2.748.36-4.146-.198-.994-.396-2.535.028-3.144.68-.246.27-.51.554-.624.854-.29.768-.488 1.552-.722 2.306-1.406.956-2.757 1.875-3.564 2.42-1.17 1.235-.37 2.366-1.83 3.048-1.145-.784.124-1.938-.963-2.727-1.284.27-1.694 1.084-2.147 1.732-1.01 1.446-2.734 2.198-4.924 2.651-.695.142-1.388.291-1.884.397-3.151-.06-6.082-.113-9.001-.166-.892.398-1.686.767-2.5 1.111-1.013.427-2.045.835-2.825 1.155-.554.586-.99.977-1.301 1.408-.913 1.288-1.27 2.76-3.162 3.706-.35.175-.584.53-.677.827-.29.965-.9 1.84-1.818 2.588-.396.32-.643.941-1.286.923-4.116-.11-5.924-4.062-9.941-2.262-2.285 1.025-1.676 2.701-2.68 4.17-.326.48-.626 1.343-1.27 1.171-.538-.14-.156-.737-.758-1.008-.942.052-1.893.103-2.687.144-1.155-.547-2.398-.766-3.127-1.43-.608-.743-.357-1.518-.391-2.28-1.238.443-2.486.891-3.721 1.34-.691-.16-1.368-.313-2.14-.487-2.024.39-4.123.833-6.365.555-.242-.028-.493-.007-.735-.018-2.137-.119-3.867.307-4.896 1.601-.581.727-1.33 1.32-2.44 1.731-.57.215-1.345-.072-1.452-.607-.06-.287-.094-.578-.145-.873-1.827-.428-3.691-.787-4.867-1.955-.52-.515-1.386-.876-1.903-1.194-1.71-.262-3.268-.309-4.516-.739-1.815-.626-3.304.294-4.992.152-1.707-.14-3.39-.174-4.91-.81-1.085-.45-2.292-.4-3.52-.132-1.605.353-3.255.618-4.897.927l-2.395 1.785c-.935-.126-1.866-.249-2.897-.387-3.026 1.723-6.698 2.467-10.634 2.67-1.03.99-1.977 1.904-2.881 2.777-.315.036-.585.127-.735.076-1.513-.53-2.837-.365-3.94.462-.637.467-1.176.994-1.682 1.433-3.6.423-6.578 1.467-9.466 2.774-1.672-.272-3.072-1.14-4.955-.886-1.527.387-3.12.795-4.656 1.182-.536-.088-.991-.166-1.463-.228-.462-.06-.935-.102-1.497-.159-.646.414-1.22 1.021-2.04 1.26-4.206 1.226-8.071 2.871-12.122 4.313-2.49-1.21-4.077-2.772-5.423-4.494-.715-.909-2.151-1.29-3.727-1.228-.947.041-1.883.272-2.847.35-2.148.175-2.95 1.61-4.85 2.141l-5.771-.213c-1.97-.936-3.71-2.102-6.256-2.374-.426-.049-.832-.333-1.165-.559-1.042-.722-2.235-1.226-3.81-1.265-1.25-.037-2.363-.356-3.464-.722-.66-.223-1.407-.26-2.104-.029-1.362.446-2.86.346-4.295.491-.925.096-1.863.38-2.633.737-1.198.548-2.278 1.237-2.513 2.26-.22.99-1.224 1.725-1.867 2.58-.684.9-1.85 1.454-3.331 1.743-.688.132-1.362.298-2.046.448-1.131-.397-2.2-.639-3.496-.28-1.317.363-2.75.56-3.96.796-1.29 1.387-2.693 2.464-4.802 3.042-.493-.068-.985-.095-1.425-.206-2.558-.65-2.865-.625-4.407.497-.64.466-1.236.96-1.513 1.178-3.113.743-4.648-.224-5.948-1.498-.243-.027-.508-.094-.728-.06-1.372.222-2.718.795-4.136.068-1.645-.839-3.868-.376-5.583-1.043-.532-.206-.94-.188-1.38.204-.514.56-.484 1.483-1.725 1.874-.926.296-1.504.778-2.021 1.328-.811.858-2.104 1.254-3.5 1.632-1.371.372-2.833.5-4.181.85-1.328.347-1.91 1.37-3.372 1.76-1.334.353-2.482.994-3.538 1.438-1.932.062-3.633.09-5.335.185-1.194.064-2.011.905-1.783 1.726.167.601.263 1.211.39 1.814-1.52-.063-2.91-.387-3.554-1.32-1.56-2.243-4.247-3.892-6.716-5.656-.46-.33-1.147-.525-1.636-.738-2.753.417-2.806.407-4.118-.454-.695-.45-1.327-.94-2.04-1.377-1.436-.88-2.88-.97-4.671-.289-.821.312-1.478.837-2.39.797-1.307-.285-2.538-.447-3.602-.814-1.064-.368-1.915-.986-2.934-1.412-1.44-.592-2.835-1.266-4.978-1.606-3.192.007-6.844-.622-10.45.355-.853.232-1.935.12-2.912.115-1.708-.013-3.427-.064-5.242-.1-2.8 1.256-5.707 2.4-9.235 2.691-.631.05-1.274.46-1.77.793-.678.45-1.211.982-1.745 1.427l-5.506.91c-1.551-.566-2.827-1.048-4.127-1.495-.418-.139-.913-.184-1.467-.29-1.703.265-1.66 2.008-3.172 1.954-1.785-.059-1.517-2.033-3.531-2.466-.62-.139-1.49.043-1.912-.28-.546-.42-.075-1.104-.86-1.42-3.016-1.206-4.86-3.103-6.971-4.706-.085-2.35-3.02-3.769-3.634-5.865.21-.565.426-1.17.636-1.736-.382-1.033-1.525-1.686-2.52-2.362-1.324-.885-.985-2.114-1.757-3.095-.22-.283-.485-.559-.812-.793-1.148-.82-2.334-1.623-3.322-2.306-2.201-.27-3.83-1.003-5.912-.936-1.361.043-2.798-.48-4.13-.85-.636-.182-1.214-.547-1.65-.91-.597-.49-1.03-1.059-1.525-1.589-2.393-.64-5.013-.154-6.543-.628-1.97-.703-2.66-1.722-4.294-1.807-.708.105-1.418.21-2.186.32-.141-.049-.296-.096-.44-.143-.461.195-.94.381-1.323.63-.858.55-1.436 1.278-2.23 1.871-.676.498-1.692.6-2.66.717-1.894.231-2.997.987-3.352 2.221-.092.308-.275.601-.42.905-.185 0-.44.051-.552-.009-.7-.365-1.124-.88-2.386-.618-1.826.372-3.653.896-5.637.803-.944-.047-1.198.393-1.614.76-.866.761-2.21.782-3.283.385-1.274-.465-2.434-1.056-3.562-1.556-2.337-.076-4.534-.15-6.114-.204-4.863-1.302-9.153-2.452-13.43-3.595h-5.814c-.797.495-1.488.928-2.231 1.387-1.344-.34-2.712-.69-4.115-1.047-1.846.274-3.692.808-5.875.221-.52-.35-1.193-.806-1.998-1.343l-7.64-1.687c-1.274-.793-2.608-1.736-4.124-2.54-1.506-.8-2.935-1.65-4.394-2.474-1.451-.822-3.082-1.549-4.53-2.409-1.198-.714-2.6-.848-4.09-.46-1.13.296-2.237.726-3.51.517-1.163-.187-2.3-.463-3.162-.646-2.401.542-4.45 1.056-6.56 1.462-1.378.263-2.832.364-4.046.513-.478.378-.856.596-1.076.87-.866 1.065-2.135 1.69-4.02 1.84-.934.073-1.842.326-2.73.494l-2.64-1.059c-1.09.156-2.252.347-3.426.493-1.417.18-2.84.32-4.408.492-.91-.378-1.851-.976-2.97-1.195-1.668-.327-3.163-.728-4.578-1.417-1.35-.659-2.925-1.319-4.53-1.507-2.074-.246-3.5-1.086-5.16-1.698l-2.683.383c-1.934-.593-3.704-1.137-5.521-1.689-2.417-.073-4.831-.102-7.136-.834-1.44-.454-2.858.044-3.85.878-.478.404-.662.895-.308 1.328.462.556 1.193 1.016 1.664 1.566.346.404.494.884.662 1.341.138.39-.512 1.008-1.09 1.105-.522.087-.981-.012-1.282-.326-1.155-1.236-2.396-2.408-4.851-3.136-1.126-.027-2.592-.03-4.048-.108-1.415-.074-2.821-.225-4.227-.34-1.276 1.303-3.122 1.5-5.174 1.198-.705-.105-1.331-.437-2.034-.53-1.19-.156-2.417-.296-3.622-.275-2.477.041-4.623.931-6.958 1.347-.425.08-.808.366-1.105.615-.442.378-.713.842-1.193 1.198-.688.511-1.626.717-2.646.53-.706-.128-1.36-.347-2.04-.525-1.497-.404-2.838-.244-4.093.43-1.303.696-2.652 1.36-3.955 2.018-.072.734-.126 1.37-.201 2.008-.038.316-.012.658-.191.943-.174.266-.524.574-.908.67-.38.096-.947.008-1.356-.11-.947-.27-1.494-.827-1.918-1.398-.355-.475-.963-.862-1.62-.88-4.14-.105-8.307-.57-12.347.513-1.626.434-3.488.495-5.062.137-2.49-.576-5.123-.867-7.383-1.998-2.116-1.067-4.392-2.006-6.362-3.204-2.633-.602-4.241-2.132-6.274-3.035-2.437-.298-4.552-.33-6.711.244-2.804.742-5.71.73-8.591.043-1.372-.326-2.768-.61-4.298-.944-.615-.372-1.315-.82-2.062-1.23-.734-.404-1.516-.757-2.153-1.067-2.17.23-3.871 1.03-5.93.816-1.98-.204-3.875.144-5.755.5-.196.037-.478-.07-.698-.132-1.631-.48-3.367-.36-5.074-.36-3.435-.004-6.907-.17-10.294.1-2.616.213-5.168.897-7.64 1.605-.607.176-1.571.2-2.137.005-2.045-.702-4.201-.824-6.422-.779-1.51.03-2.884-.234-4.25-.65-1.44-.444-2.811-.268-4.088.397-1.312.686-2.186 1.76-4.014 1.978-2.77-.233-4.635-1.657-6.737-2.24-1.33.21-2.264.403-3.23.498-3.123.323-6.186.863-9.196 1.462-1.778.357-3.242.36-4.928-.076-1.102-.287-2.374-.345-3.585-.38-2.43-.07-4.913.171-7.157-.736-.335-.134-1.035-.085-1.4.057-1.383.538-2.85.094-4.266.183-2.384.148-4.443.247-5.473.495-1.62.396-2.41 1.656-4.071 1.683-1.648-.265-3.04-.573-4.47-.69-1.682-.14-3.396-.117-4.626-.154-2.106-.839-3.69-1.604-5.45-2.133-1.98-.599-4.104-1.007-6.183-1.452-.984-.212-1.94-.025-2.803.326-.815.338-1.6.71-2.397 1.067-1.78-.593-3.252.535-4.964.37-.718-.07-1.578.016-2.152-.207-2.872-1.116-5.616-.724-8.413.107-.881.256-1.931.29-2.781.575-1.377.464-2.83.423-4.29.508-2.276.141-4.297-.495-6.36-.775-1.442.284-2.72.88-4.243.267-1.352-.539-2.771-.535-4.187-.044-1.59.55-3.27.612-5.363.274-1.238-.67-2.737-1.473-4.175-2.246-1.692-.393-3.261-.869-4.918-1.116-1.41-.21-2.933-.285-4.373-.194-1.733.111-3.211-.873-5.226-.299-1.778 1.577-4.526 1.288-7.172 1.12-1.708-.334-2.583-1.575-4.476-1.58-3.465.72-3.525 1.347-7.295-.683-.182-.1-.426-.156-.64-.234-1.443-.376-2.784.786-4.24.113-1.21.16-2.302.461-3.134 1.054.165.711 1.02 1.075 1.637 1.553.47.363.912.742 1.346 1.122.307.268-.26.913-.97 1.111-.497.141-.861.007-1.177-.33-.248-.262-.59-.494-.93-.77-1.34-.274-2.73-.557-4.19-.85-1.196.454-2.363 1.102-3.712 1.372-2.056.42-4.236.57-6.536.857-.512-.502-.962-1.07-1.604-1.532-.438-.312-1.133-.476-1.638-.676-1.182.51-2.197.941-3.404 1.464-1.574 0-3.283-.017-4.991.005-1.953.02-3.902.076-5.71.112-1.376.62-2.584 1.156-3.741 1.68-1.283.103-2.5.203-3.9.315-.66.32-1.472.676-2.21 1.084-.996.546-2.256.568-3.39.848-.881.224-1.656.66-2.431 1.041-1.75.861-3.644.897-5.556.376-1.8-.488-3.587-1.019-4.956-2.005-.98-.708-2.056-1.374-3.195-1.977-.77-.408-1.786-.556-2.778-.348-1.16.242-2.28.548-3.512.848-2.293-.498-4.646-.916-6.878-1.522-1.315-.36-2.363-.066-3.503.151-2.333-.455-4.66-.912-6.846-1.34l-2.331.413c-1.467-.812-2.936-1.632-4.236-2.352-1.262-.092-2.247-.204-3.037.334-.666.452-1.224 1.034-2.03 1.328-2.125.77-4.164 1.693-6.966 1.968-3.396-1.216-7.276-1.055-11.035-.79-1.382.61-2.6 1.142-3.792 1.67-1.755.086-3.46.167-5.214.254-.988.472-1.906 1.018-2.972 1.392-1.042.372-2.234.57-3.46.864-.524.71-1.07 1.42-1.587 2.135-.09.132-.067.32-.014.5.086.254.753.515.482.71-2.132 1.53-7.247 1.716-9.087.03-.522-.48.743-1.017.389-1.365-.426-.41-1.76-.645-2.644-.367-.37.118-.913.374-.963.8-.048.391.513.788.939 1.12.138.104.449.116.449.234-.05 1.458-4.097 2.246-6.05 1.642-.053-.019-.092-.095-.044-.128-1.612 1.084-4.215.587-6.24.728-1.674-.48-3.231-.929-4.735-1.362-1.161.484-2.182.91-3.315 1.38-.637-.11-1.366-.168-2.002-.365-1.394-.43-2.854-.368-4.322-.42-1.542-.058-2.788.702-4.194.69-1.41-.015-2.797-.516-4.225-.63-.922-.074-1.987.05-2.844.3-2.887.83-5.672.801-8.522-.046-1.452-.429-2.836-.176-4.193.327-1.07.397-2.081.782-2.743 1.517-.373.42-1.105.586-1.893.468-.471-.072-1.03-.33-1.402-.24-2.6.64-5.298.452-7.976.512-.722.014-1.585-.036-2.156.191-2.241.895-4.761.651-6.766.846-2.463.504-4.218 1.465-6.311 1.66l-2.1-.35c-3.66 1.434-7.204 2.828-10.788 4.235-1.9.352-3.678-.772-5.643-.287-1.846-.407-3.682-.835-5.552-1.203-.403-.082-.911.055-1.496.106-.794.544-1.232 1.296-1.813 1.99-.476.556-.81 1.168-1.288 1.718-.59.674-.237 1.602-1.516 2.166-.484-.3-1.282-.563-1.458-.943-.572-1.248-1.313-2.338-3.061-3.122-.744-.338-1.114-1.033-2.075-1.289-1.133-.297-2.224-.708-3.397-.867-1.178-.157-2.203-.712-3.496-.542-.708.094-1.597.385-2.106.214-2.301-.768-4.757-.689-7.193-.698-1.74-.006-3.4-.157-4.982-.67-.615-.2-1.543.11-1.836.515-.41.565-.333 1.277-1.322 1.751-1.478.34-3.071.714-4.673 1.07-.214.05-.484.008-.688.008-.45-.186-.97-.302-1.248-.538-.88-.756-1.52-1.66-2.541-2.315-1.022-.656-2.434-1.043-3.592-1.623-1.155-.578-2.207-1.252-3.07-1.747-3.2-.446-5.814-1.485-8.892-1.285-.676.045-1.46-.157-2.09-.377-1.656-.58-3.25-.59-4.884.016-1.121.418-2.377.535-3.521.14-2.638-.906-5.153-.825-7.677.167-.624.247-1.311.432-2 .606-.44.113-.925.151-1.393.225-1.205-.032-2.178-.775-3.7-.43-.405.21-1.061.456-1.532.811-.96.714-1.805 1.485-2.703 2.235-.413-.12-.924-.176-1.22-.372-1.227-.788-1.43-2.044-2.898-2.728-1.593-.734-3.22-1.433-4.77-2.204-1.002-.499-2.044-.837-3.283-1-.697-.09-1.43-.287-1.976-.58-2.698-1.438-5.871-2.26-8.983-3.169-.79 0-1.53-.022-2.258 0-4.126.112-8.344-.454-12.315.803-.612.193-1.444.117-2.18.117-3.183.01-6.375.004-9.43.004-1.702-.69-3.285-1.312-4.82-1.963v55.196h1400z" mask="url(#8062gvtdtb)"/>
            </g>
        </g>
    </g>
</svg>
