<svg id="elements" xmlns="http://www.w3.org/2000/svg" viewBox="0 0 800 80"><defs><style>.cls-1{fill:#105754;}</style></defs><title>rip-blogcard-combo4</title><path class="cls-1" d="M797.7,5.2c-1.4-.42-2.78-.62-4.23-1-1.64-.92-2.93,0-4.56-.12-1.77-.43-2.66,2.56-4.34,3.42a40.73,40.73,0,0,1-9.5,6.64,5.92,5.92,0,0,0-3.49-.31c-1.26-.25-3.35.17-5.22.22s-3.69-.09-5.84.11c-2.55,1.5-3.9-.51-6.18-.2-1.89-1.07-4.16-.86-6.23-1.33a18.27,18.27,0,0,0-5.94-1.7c-1.1-.45-2.23-2.5-3.54-1.18a21.91,21.91,0,0,1-4,.41c-1.39-.22-2.88.44-4.44,1.63-1.55.85-.53,3.54-4.35,2.46-1.2-.71-1.62.35-1.5,1.27.43.71-2.9-.93-.38,1.36-2,.43,3.1,1.77-1.66,1.93-.54.62-.45,1.24-2,1.85-1.05.65-6.12,1.45-5.81,2,.7.68-2.75,1.52-5,2.18-1.47.59-3.43.88-4.18,1.53-1.11.48-2.18.93-3.23,1.36s-2.31.81-3.49,1.21a71,71,0,0,0-9.63,3.88c-1.5,0-2.87,0-4.15,0l-3.43-.24c-1.82-.65-6.41,1.44-7.42-.51-2.91.07-6,.8-9,.92-1.9,1.44-3.51.1-5.22.39-1.66.52-3.32.16-5,.49-1.51-.53-2.94-1-4.54.19-1.56.64-2.87.17-4.57,1.06-1.52.14-3.84,2.25-5.44,2.33-2.3,2.16-4.14,3.18-5.77,2.53-1.88.74-3.51,1.61-4.87,2.3A13.91,13.91,0,0,1,626,43.44c-2.43.76-4,.06-8.62,2.27-2.39.15-4.48,1.43-8.14.36,2.07,1.66-2.91-.1-.18,1.76-.82.38-2.75-.21-4,.74-1.76,0-4.49,1-5.91.51a30.61,30.61,0,0,0-5.76.28,19.37,19.37,0,0,0-5.45,1.7c-3.52.35-5.12,2.75-8.26,3.23-1.06.44-5.35-.32-5.79.41-2.54-.1-5.51-.5-4.71.66-2.84-.44-3.07.14-4.66,0a8.53,8.53,0,0,0-2.4.33c-2.86-2,0,1.16-2.6-.2.7,1.36.15,1.75-2,.61-.77.29-1.77.54-3.59-.59-1.31.16-2.71,1.09-4.68-.4-2.15-2.14-4.18,4.17-6.09-.4-2.27,6.39-4.23,1.07-6.72-1.59-2.69-1.44-4.48-.26-6.06.85-2.69-2-3.26,1.26-6-2.24.13,4.69-.79,5.9-3,3.75-.58,1.86-1.78,2-5.22,7.1-.25,5.63-4,1.42-5.76,2.59-1.44.81-1.57,2.93-2.32,3.8-1.47.13-3.88-.67-5.64-.88-.6,1-3-.06-4.21.33,1.09,2.34-2.62-1.38-2,1.14a11.27,11.27,0,0,1-3-.35c1.47,3.13-.86,1.43-2.52.24-.93-.11-1.89-.32-2.79-.4a40.5,40.5,0,0,1-5.52-.68c-2-.37-4.27-2-6.8-1.79a24.43,24.43,0,0,1-10.73,0c-3.51,1.1-7.21.16-10.85-.29-3.57.27-7.11.65-10.74,0-3.69-1.82-7-.21-10.39-.27-3.34-.3-6.64-.6-9.93-.81a40.31,40.31,0,0,1-8.48-4.9c-2.76-4-5.48-1.59-8.19-3.21-2.89-1.07-5.4.28-8.13-.64-2.54.26-5.09-.68-7.46-1-1.18-.25-2.33-.5-3.48-.73s-2.3-.5-3.45-.7c-3.82,1.41-7.43,1.7-10.78,2.22-3.4,0-6.46,1-9.54.11-2.93.79-6.05-2.05-8.72-1.07-2.88-1.15-5.44.32-8.29-1.31a8.88,8.88,0,0,1-5.49-.54c-1.9-.82-3.69,0-5.58.06-1.67,1.56-4.32-.17-7,.37s-5.79-.23-8.49,1.52-5.37,2.18-7.69.52c-1.58-.39-3.05-.49-4.46-.76s-2.74-.58-4-.9c-2.5-.48-4.76-1.64-6.63-2.14-4.85.81-9,.93-12.76-.47-3.53,1-6.83-1.3-9.58-1.45-2.8-.62-5.32-2-7.6-1.87-1.15.55-2.4-.89-3.62-.62a24.53,24.53,0,0,0-4,0c-3,1.13-6.08-.33-9.83-.67-6.73,0-4.75-2.29-13.65-1.29-2.9-.08-1.51-1.25-4.94-.9,1.86-2.06-2.14-.88-3.75-1.1-.59-.91-2.48-.27-3.37-.83-1.11-.37-2.14-1.35-3.28-1a9.75,9.75,0,0,0-3.48-1.51,7.83,7.83,0,0,1-3.55-1.92c-7.2-8.78-5.44-1.92-8.68-3.72-1,3.12-5.58-1-7.09,3.36-2.31,3.4-6.05,2.42-9.9,4.06-4.36-.49-8.79-1.17-12.66-.71a34.55,34.55,0,0,1-10-1.1,56.54,56.54,0,0,0-8.11-2.17c-1.91-2.25-6.69,1.61-9.25.58-3.49.51-7.35,1.54-10.82,1.17-1.46-1.16-3.56.11-5.06-.5-1.44-.87-3.27-.31-4.94-.28-1.43-.92-3.13-.78-4.88-.42-1.6-.2-3.2-.39-4.82-.43-1.49-.94-3-1.73-4.69-1.12-1.53-1.17-3.14-1.11-4.76-1.24-1.25-.74-2.5-.66-3.85-1.82-1.2-1.78-2.56-.53-3.62-1.75-.55-2-1.71-1.93-2.72-2.25-1.52.75-1.13-1.85-1.9-2.27-.43-.65.81-2.11-1.39-1.67.61-.94-1.21-.8-1.83-1.23.09-.72.17-1.62-3.14-1.12-1.94-.21-4.9-.08-5.12-1.27-2.61-.17-5.29-.25-6.7-1.49-2.09-.95-4.26-2.27-7.14-1-2.13-.71-4.58.27-6.84.65-2.35,1.7-4-.22-6.06.71-1-.35-1.92-.55-2.84-.84-.86-.76-1.72-1.71-2.66-1a9.75,9.75,0,0,0-5-1.47c-1.63-1.72-3.17-2.29-4.65-1.95-1.58-1.36-3.24-2.68-4.72-1.45-1.74-1.05-3.29,1.07-5.26-.11-1.92-.15-3.74,2.55-6.07,1.24A4.46,4.46,0,0,0,23.83,14a4.35,4.35,0,0,0-3.42.34c-1.22-1.46-2.67.31-4.12.34-1.41-1.15-2.91,1.19-4.43-.43a20.74,20.74,0,0,1-4.34-.87c-1.42-1.23-2.76-.35-4-1.41-1.15-.22-2.3-.25-3.47-.4V80H800V5.49A11.58,11.58,0,0,0,797.7,5.2Z"/></svg>