<svg id="elements" xmlns="http://www.w3.org/2000/svg" viewBox="0 0 1330 65"><defs><style>.cls-1{fill:#221c38;}</style></defs><title>rip-course-landing-intro2</title><path class="cls-1" d="M0,0H1330V62.47a36.24,36.24,0,0,1-5.32-2.4,3.69,3.69,0,0,0-2.76-1.33c-1,.29-2.08-2.3-3.23-1.17a8.24,8.24,0,0,0-4.23-.27,3.16,3.16,0,0,1-2.27,0,3.56,3.56,0,0,1-3.2-1c-.89-.83-1.68-1.52-2.47-2.39-.86-.16-1.78,1.12-2.59-.45-1.75-.72-3.49-.32-5.41-.52-1,.05-2-.08-3,0a16.15,16.15,0,0,0-3.2.78c-.87.23-1.88,1-2.74.85-.92.31-1.83-.18-2.76.08-.85-.6-1.83-.07-2.85.52a21.71,21.71,0,0,1-3.22,1.08c-.24-.05-.62.43-1,.68s-.94.39-1,.32a11.14,11.14,0,0,1-1.69.39,2.1,2.1,0,0,1-1.41.11c-1.1-.33-1.26,0-2,.06a14.87,14.87,0,0,0-2.34-.07c-.73-.09-.6.59-1.83.29-1.07-.08-1.88.26-2.89.26a2,2,0,0,1-1.53-.06c-.56-.23-1.26-1-1.71-.88a24.55,24.55,0,0,0-3.38-1.88c-.28,1-1.07-.54-1.77-1.86-.56-.47-1.19-1.85-1.66-1.25-1.08-.22-2,1.66-3.34.06-.57-.07-1.16-1.13-1.76-1.65-.29-1-.59-.93-.89-.62a3.19,3.19,0,0,1-.91-1.69,2.42,2.42,0,0,0-.91-1c-.3-.69-.61-.41-.92-1.13a8.46,8.46,0,0,1-.93-1.29,8.69,8.69,0,0,0-.93-1.6c-.62.44-1.25-1-1.88-1.6a3,3,0,0,0-1.9-1.17c-2.63,1.36-5.36.08-8.17-1.21-2.92-1.56-6-.46-8.84,1a45.79,45.79,0,0,0-6.71-.29c-2.08-.5-4.07-.87-5.88-1.22a8.58,8.58,0,0,0-2.56-.18c-.83,0-1.62.22-2.45.17-.43.37-1.24.12-2.07.19a21.13,21.13,0,0,1-2.92-.19c-2.09-.11-4.51-.26-6.33-.49-.7-.17-1.43-.14-2-.24a5.43,5.43,0,0,0-1.87.05,11.41,11.41,0,0,0-3.4.25,30,30,0,0,0-5.25.55c-2.56,1.53-4.51,1.15-6.8,1.4-1.18-1-2.52-1.8-3.93-1.61a4.82,4.82,0,0,1-4.73-1.32c-1.49-.88-2.74-.47-4-.45a9,9,0,0,1-3.55-.18c-2.32-.37-4.12-.16-5.88-.36a32.43,32.43,0,0,1-5-.84c-1.69.08-3.79-1.55-5.8-1.85-2.27.13-4.61-1.36-6.93-2.34a44.69,44.69,0,0,0-7.49,0c-2.62-.9-5.35.64-7.87.15s-5.15-1.17-7.73-.09c-2.58.18-5.17,0-7.79,1.81-2.61,1.61-5.25,2.12-7.93,4.41-2-.24-4.08.54-6.17.66-2.09.31-4.2.7-6.36,1.16a8.11,8.11,0,0,0-6.36.18,8.53,8.53,0,0,1-6.71.95c-2.39,1.22-4.6.67-6.86.8a13.31,13.31,0,0,0-7.74,2.07c-1.64.25-3.17.11-4.59.64-1.37.68-2.73-.26-4-.77-1.23.11-2.23-1-3-2a15,15,0,0,1-6.33-.7,14.77,14.77,0,0,1-5.82-2.89c-1.52-3.25-3.52-3.45-5.65-3.53-2.13.11-4.39.39-6.41-.81-2.43.21-4.76-2.12-7.09-1.72a25,25,0,0,0-7.52-.17c-2.77-.53-5.46.25-8.23.63-2.81-.11-5.58,0-8.07-1.16-3.73.3-6.91-.85-10.25-.29-1.7.23-3.6.52-6,.93a23.5,23.5,0,0,1-3.27.38c-.64-.06-1.94.45-2.28.21a13.84,13.84,0,0,1-2.15.24,13.7,13.7,0,0,1-3.2.28c-2.22.22-2.73.61-5,.94-2.05-.24-2.52.37-3.9.33s-2.85.39-4.56-.38c-1.32.67-2.67.18-3.86.22a15.78,15.78,0,0,1-3.45.19,12.25,12.25,0,0,1-3.61-.07c-1.18,0-2.37,0-3.57,0a22.56,22.56,0,0,0-3.58.3,38.05,38.05,0,0,1-6.77.18,10,10,0,0,0-2.64-.18c-.92,0-1.87-.1-2.88-.22-2.2-.49-3.17,0-5.7-.64-2.12,0-4,.33-7.46.26a23.11,23.11,0,0,0-6.74,2.06c-2,.26-4.75-.37-7.17-.52-2.24-.33-4.61-1.21-6.85-1.54a8.55,8.55,0,0,0-3.33-.3c-1.24,1-2.23-.27-3.34,0-1.16.57-2.14-.36-3.2-.15a9.8,9.8,0,0,0-3,0,42.46,42.46,0,0,0-7.54-1.15c-2.64.19-5.4-.74-8.09-.24-2.75-.81-5.45-.67-8-1.15a17.56,17.56,0,0,0-5.25-3.37c-3.63-1.24-7.47-.76-11.35-.47-2.9.22-5.83,1.63-8.69-.48a26.55,26.55,0,0,0-8.77-.92c-2.95-.41-6-.7-9.1-1.23-3.52.59-6.19-1-9.27-1.69a20.42,20.42,0,0,1-7.53-.31c-2.45-.34-5.14-.41-8.14-1.08a22,22,0,0,0-8.41-1,43.63,43.63,0,0,0-6.64.2c-2.17-.44-5.26-.16-6.87-.35-2.17.45-3.71.14-5.54.39a14,14,0,0,1-5.8.17c-2-.26-4.05,0-6.08-.16-1.53.2-3,.4-4.21-.52a28.13,28.13,0,0,0-4-.21c-1.27,0-2.52,0-3.75,0l-3.53.14c-2.38.54-4.51.24-6.91.19a16.11,16.11,0,0,1-4.22-.08,14.8,14.8,0,0,1-4.44.28,32.42,32.42,0,0,1-4.5.89c-1.42,0-3,.72-4.53.33a18.46,18.46,0,0,0-3,.68c-1,.22-2,.43-3.06.59-2.06.77-4.17-.21-6.28-.8-2.1-1.64-4.22-1.76-6.33-2.18-1-1.08-2.06.42-3.09-.56-1,.17-2.05-1.08-3.07-1a11.29,11.29,0,0,0-3.07-1.35c-1-.23-2-.33-3-.48-1.88.11-3.69-.6-5.5.38-1.85.35-3.81-1.65-5.76-1.67-2-.64-4-2-5.93-2.74a4.85,4.85,0,0,0-2-1.94c-1.22.35-1.63-.91-3-.29-1.37-1.09-3.32-.58-5.08-.72-1.75.37-3-.16-4.82,1.41-1.29.39-2.4.16-3.6.44a7,7,0,0,0-3.81,0c-1.43-.39-2.82-.71-4,0-1.35-.35-2.57.46-3.85.59s-2.54.16-3.91.53a14.49,14.49,0,0,1-4.11-.65c-1.58.26-3.19.54-4.73-.23-1.59-.16-3.17-.3-4.74-.34-1.44.21-2.8.72-4,.54a6.65,6.65,0,0,1-3.3.22c-1.23.65-1.64,0-3,.47s-1.8-.24-3.17,0a10.24,10.24,0,0,1-3.74.31c-1.21,0-2.36.42-3.61.06a29.78,29.78,0,0,0-3.36.14c-1.24-.14-1.51.8-2.78.78a14.57,14.57,0,0,1-3.93.44c-1.82-.46-4-.77-4.29-.49-4.75-.17-2,.41-5.26.39-1.6.63-2.75,1.42-4.11,1.88-1.47,0-2.89.89-4,.92-1.3-.12-3,.3-4.35.24a23.91,23.91,0,0,1-4.43.43c-1.52.21-3-.15-4.41.09-.7-.25-1.32.41-2,.15-.64.38-1.35.05-2.14-.88-1.41-.5-3.3-1.58-4.25-1.32a16.08,16.08,0,0,1-4.16-.8,7.94,7.94,0,0,1-3.74-.36c-1.26.45-3.15,1.69-4.34.39-1.68.43-3-.14-5,2.51-1.28.06-2.69,1.92-4,2.71s-2.47-.53-3.77.21c-1.24.11-2.41.52-3.94-.12a8.48,8.48,0,0,1-4.4,0,9.42,9.42,0,0,1-4.37-.69c-1.21.06-2.77-1-4.12-1.45-2-2.29-2.76-.94-4.08-1.19a3.36,3.36,0,0,1-3.66,0c-1.15.18-2.6-.54-3.64-.07-1.28-.28-2.41-.1-3.75-.59-.87,1.15-2.61-.9-3.71-.56a16.44,16.44,0,0,0-3.66-.75,3.94,3.94,0,0,0-3.42,0c-1,.64-2.16.58-3.21.92-1.06.05-2.16,1.34-3.3.94a32.12,32.12,0,0,1-3.58.41,11.67,11.67,0,0,0-3.62.15,3.21,3.21,0,0,0-3.24.08,13.32,13.32,0,0,0-3,.12c-.39-.07-1.08.16-1.3,0-.14-.36-1.08.17-1.93.47-1.66.38-2,.13-3.46.41a21.17,21.17,0,0,0-3.56.47,5.48,5.48,0,0,1-3.19.42c-.62-.45-2,.32-3,.57-.67.82-1.86.59-2.83.52-.92.12-1.82-.06-2.38,1-.4.44-.07,1.19-1.15,1.49a5.83,5.83,0,0,1-4.11,1.34c-1.34.6-2.27.33-3.53,1.56a3.46,3.46,0,0,0-2.65.63c-1.64.09-3.2.21-4.76.25a25,25,0,0,0-3.77,0,25.81,25.81,0,0,0-4.12.32c-1.91,2.3-4.14.77-6.46.34-2.32.29-4.72-1.82-7-2.21a5.86,5.86,0,0,0-6.16,2.44c-1.14.56-2.28-.63-3.39.08-1.14-.64-2.17,1.49-3.32.28-1.08.15-2.21-.3-3.27.21a3.88,3.88,0,0,1-3.34,0c-1.08.57-2.25.26-3.51-.54-1.22-.33-2.54-1-3.81-1.24-1.06.75-2.31.56-3.66-.1-1.27-.21-2.6-.64-3.78-.24a7.54,7.54,0,0,1-3.64.32c-1.17.12-2.19-.87-3.37.42-1.12.47-1.93-.08-3.16.68-1.43.71-2.89,1.19-3.55.55-1.44.17-2.34-.46-3.71-.76-2.13.88-2-2.59-4-2-1.05-1.21-2.84-.48-3.85-1.47-1.34.29-2.6.58-3.61-.54s-2.38-.68-3.63,0a5.82,5.82,0,0,1-3.61.52c-1.41-.64-2.81-.48-4.2-.73a11.32,11.32,0,0,0-4.14-.12c-2.75-.39-5.45.26-8.12,0-2.66.56-5.29.63-7.88,1a52.8,52.8,0,0,0-7.65,2.08A50.79,50.79,0,0,0,279.84,29c-6.36-1.1-11.87,3.77-18.38,1.88-6.82-.69-12.36.76-17.39,1.8-11.74-2.09-11.37,1.23-19.36.66-3.53-.25-6.54-.3-9.32-.23a28.62,28.62,0,0,0-8,.68c-2.47-.46-4.15.52-7.07-.74-2.3-.13-4.6-.45-6.76-.42-2,.66-4.18.17-6.2,0-1.56-.74-3-.86-4.24.52-1.33.36-2.31,1.82-3.87,1.3-.77,2.42-2.55,1.15-3.63,2.72-.48,1.5-1.1,2.28-1.84,2.06a7.5,7.5,0,0,1-2.11.48c-.84,1.23-1.46.09-2.22.23-.74-.3-1.82.55-2.3-.29A20.62,20.62,0,0,1,162.6,39c-1.53.06-2.91-.13-4.34-.07-1.16-.59-2.64-.19-4-.19a25,25,0,0,1-3.84-.33c-1.32,0-2.56-.45-3.91.13a9.06,9.06,0,0,0-3.84-.17,12.68,12.68,0,0,0-3.79,0,20.91,20.91,0,0,1-7.2-1.38c-2.37-.68-4.69-1.52-6.91-2.35-4.46,2.74-8.65-2.95-13.56-2.4-1.87-3.9-6.16-3.44-10.45-3.21a16.17,16.17,0,0,1-5.55-.29c-3.78.62-4.93-.61-7.43-.74a8.15,8.15,0,0,0-5.59-2.1c-2-1.64-4.73-1.47-7.35-1.6a6.84,6.84,0,0,1-3.79-.11,17.44,17.44,0,0,0-3.48-1c-.93-1.06-2.07-1-3.11-1.28s-1.85-.92-3.17-.49c-.46-1.19-2.27.06-3.35,0s-2-.5-3.47.53c-3,1.19-5.83,1.46-8.42.28-1.35-.11-2.68-.19-4-.21-1.31.26-2.58-.25-3.84.12-1.24-1.22-2.51.33-3.7-.06a11.87,11.87,0,0,1-3.55.67c-1.7.06-3.31-.13-4.89.46a3.79,3.79,0,0,0-4.43.74c-1.39,0-2.71.79-4,.81s-2.46.76-3.59.15c-1.14.14-2.21-.27-3.22-.08a3.89,3.89,0,0,1-2.85-.61C5.4,24.42,3.39,23.08,2,23c-1.35-.43-2-.74-2-.49V0Z"/></svg>