<?xml version="1.0" encoding="UTF-8"?>
<svg width="1400px" height="67px" viewBox="0 0 1400 67" version="1.1" xmlns="http://www.w3.org/2000/svg" xmlns:xlink="http://www.w3.org/1999/xlink">
    <title>Fill 1</title>
    <g id="Page-1" stroke="none" stroke-width="1" fill="none" fill-rule="evenodd">
        <g id="junocollege.com/hire-web-developer" transform="translate(0.000000, -1985.000000)" fill="#F9EDD5">
            <g id="Hiring-Case-Studies" transform="translate(0.000000, 1270.000000)">
                <path d="M0,715 L0,781.164504 C0.943793103,781.273798 1.8912069,781.443812 2.84827586,781.701262 C4.34844828,782.100794 6.20344828,781.921065 7.86051724,782 C8.78982759,781.570108 9.62258621,781.236152 10.3648276,780.829334 C11.5982759,780.152922 12.9982759,779.86997 14.442931,780.327793 C16.532069,780.985989 18.5644828,781.236152 20.802069,780.664177 C22.3565517,780.265859 24.0715517,780.50145 25.7286207,780.167494 C27.5510345,779.797107 29.6244828,779.906402 31.442069,780.548811 C32.842069,781.039422 34.2444828,781.086783 35.642069,780.584028 C37.007069,780.095846 38.3913793,779.970764 39.8637931,780.386084 C40.2934483,780.502664 40.8836207,780.650819 41.2481034,780.548811 C44.0818966,779.758247 47.0605172,780.150493 49.9763793,780.054557 C51.2110345,780.013268 52.4118966,779.947691 53.5294828,779.556659 C54.9198276,779.074549 56.3415517,779.019901 57.7318966,779.531157 C58.4089655,779.780106 59.1077586,779.888186 59.8162069,779.956192 C59.8487931,779.107337 60.0913793,778.264554 60.6139655,777.439988 C60.8215517,777.108461 61.3260345,776.915374 61.8281034,777.069601 C62.4593103,777.263902 63.2293103,777.507993 63.5237931,777.877166 C64.0825862,778.570579 64.3215517,779.366001 64.7246552,780.11649 C64.7427586,780.161422 64.8236207,780.208783 64.8827586,780.252501 C65.1241379,780.291362 65.3546552,780.330222 65.5912069,780.371511 C65.8084483,780.406728 66.1451724,780.554883 66.1451724,780.654462 C66.1451724,780.672678 66.1415517,780.693323 66.1415517,780.712753 C66.2972414,780.740684 66.4493103,780.761328 66.5712069,780.762543 C67.6236207,780.779544 68.4901724,780.496592 69.2384483,780.072772 C70.2908621,779.470438 71.3227586,779.417005 72.5501724,779.855398 C73.2163793,780.095846 74.0201724,779.91976 74.597069,779.617378 C75.7737931,779.005329 76.9227586,778.410281 78.5243103,778.978612 C79.9617241,778.525647 81.2736207,778.61794 82.6712069,779.177771 C83.6644828,779.576089 85.2068966,779.14984 85.8151724,778.494073 C86.0613793,778.222051 86.3232759,777.936671 86.4391379,777.634289 C86.7275862,776.861941 86.9267241,776.072591 87.1608621,775.313601 C88.5668966,774.351809 89.9186207,773.427663 90.7248276,772.88119 C91.8955172,771.636446 91.0941379,770.498568 92.5544828,769.812441 C93.6998276,770.601791 92.4313793,771.762742 93.5175862,772.555735 C94.8017241,772.283713 95.212069,771.465218 95.6646552,770.811879 C96.6760345,769.358261 98.3994828,768.6017 100.588793,768.146306 C101.283966,768.003009 101.976724,767.85364 102.472759,767.746774 C105.623966,767.807493 108.555517,767.859711 111.473793,767.913144 C112.36569,767.513612 113.159828,767.14201 113.973276,766.794697 C114.987069,766.364805 116.018966,765.954343 116.799828,765.633745 C117.352586,765.043555 117.789483,764.650094 118.099655,764.216559 C119.013276,762.920811 119.36931,761.440477 121.261724,760.487186 C121.611724,760.312314 121.845862,759.955285 121.938793,759.655332 C122.227241,758.68504 122.839138,757.803397 123.757586,757.050479 C124.153448,756.729881 124.400862,756.103259 125.042931,756.122689 C129.158448,756.234412 130.966379,760.209092 134.984138,758.398445 C137.268793,757.367433 136.660517,755.680653 137.663448,754.202748 C137.990517,753.721852 138.289828,752.851138 138.931897,753.024795 C139.472586,753.165664 139.09,753.766784 139.692241,754.037592 C140.634828,753.986587 141.584655,753.935583 142.378793,753.89308 C143.533793,754.44441 144.776897,754.664214 145.505862,755.333339 C146.114138,756.080186 145.863103,756.85982 145.898103,757.628525 C147.135172,757.181632 148.383103,756.729881 149.617759,756.279345 C150.30931,756.439643 150.986379,756.592656 151.757586,756.768741 C153.782759,756.37771 155.881552,755.930816 158.122759,756.211339 C158.365345,756.238056 158.616379,756.216197 158.858966,756.227126 C160.995172,756.34735 162.724655,755.919887 163.754138,754.618067 C164.334655,753.885794 165.084138,753.289531 166.193276,752.874212 C166.764138,752.659266 167.538966,752.948289 167.645172,753.486261 C167.706724,753.775285 167.740517,754.067951 167.79,754.365475 C169.617241,754.795367 171.483103,755.156039 172.658621,756.332777 C173.177586,756.850105 174.044138,757.213206 174.56069,757.533803 C176.272069,757.797325 177.828966,757.844686 179.076897,758.275792 C180.892069,758.907272 182.380172,757.980697 184.068621,758.123994 C185.775172,758.264863 187.458793,758.30008 188.978276,758.938846 C190.064483,759.391811 191.271379,759.343236 192.498793,759.071214 C194.103966,758.716613 195.753793,758.449449 197.396379,758.138567 C198.208621,757.528946 198.999138,756.935112 199.790862,756.342493 C200.725,756.468789 201.656724,756.592656 202.688621,756.73231 C205.71431,754.998169 209.38569,754.250109 213.322586,754.046092 C214.352069,753.050297 215.299483,752.131008 216.202241,751.251794 C216.517241,751.215363 216.787586,751.124284 216.938448,751.175288 C218.45069,751.709617 219.774655,751.543247 220.876552,750.711393 C221.515,750.240212 222.054483,749.710741 222.560172,749.267491 C226.159138,748.842456 229.137759,747.792014 232.025862,746.476836 C233.698621,746.751287 235.097414,747.625643 236.981379,747.368194 C238.508103,746.979591 240.1,746.569129 241.636379,746.179312 C242.173448,746.267962 242.628448,746.346897 243.099138,746.408831 C243.562586,746.470764 244.034483,746.510839 244.596897,746.569129 C245.242586,746.151381 245.817069,745.540546 246.637759,745.301312 C250.843793,744.067498 254.707069,742.412292 258.759828,740.959889 C261.248448,742.179131 262.836724,743.750544 264.182414,745.48347 C264.898103,746.397901 266.333103,746.780432 267.90931,746.718499 C268.856724,746.678424 269.792069,746.445262 270.756379,746.366327 C272.904655,746.190241 273.706034,744.747553 275.604483,744.213224 L281.377069,744.426956 C283.345517,745.366889 285.087069,746.541198 287.632414,746.814435 C288.058448,746.864225 288.465172,747.150819 288.798276,747.377909 C289.839828,748.104111 291.032241,748.611723 292.607241,748.650584 C293.856379,748.68823 294.971552,749.008827 296.072241,749.376785 C296.732414,749.601446 297.478276,749.639092 298.177069,749.407145 C299.538448,748.957823 301.035,749.057402 302.471207,748.912891 C303.39569,748.816954 304.333448,748.53036 305.104655,748.170902 C306.301897,747.618357 307.382069,746.926158 307.617414,745.897575 C307.837069,744.90178 308.841207,744.161006 309.484483,743.302436 C310.167586,742.395291 311.333448,741.836674 312.815517,741.546437 C313.503448,741.412854 314.176897,741.246484 314.861207,741.094686 C315.992069,741.494218 317.061379,741.739524 318.357586,741.377637 C319.67431,741.010893 321.108103,740.815377 322.316207,740.577358 C323.606379,739.182031 325.01,738.097586 327.118448,737.515896 C327.612069,737.583901 328.103276,737.610618 328.543793,737.722341 C331.101207,738.376894 331.408966,738.351392 332.951379,737.223229 C333.591034,736.754477 334.187241,736.257794 334.463621,736.03799 C337.577414,735.28993 339.112586,736.262651 340.411207,737.545041 C340.656207,737.570543 340.920517,737.639763 341.140172,737.60576 C342.512414,737.382313 343.858103,736.805481 345.276207,737.537755 C346.921207,738.381752 349.14431,737.915428 350.85931,738.586983 C351.390345,738.794642 351.798276,738.775212 352.237586,738.381752 C352.752931,737.817063 352.722759,736.889274 353.963448,736.495813 C354.890345,736.198289 355.468448,735.71375 355.985,735.159991 C356.796034,734.295349 358.089828,733.898245 359.485,733.516929 C360.856034,733.142899 362.317586,733.014174 363.66569,732.662002 C364.994483,732.313474 365.575,731.282462 367.037759,730.89143 C368.371379,730.535616 369.520345,729.890778 370.575172,729.445099 C372.507414,729.381951 374.210345,729.352806 375.910862,729.258084 C377.104483,729.193721 377.922759,728.347296 377.693448,727.521515 C377.526897,726.916751 377.431552,726.302273 377.303621,725.695081 C378.823103,725.759443 380.213448,726.084898 380.857931,727.024831 C382.417241,729.281157 385.103793,730.940006 387.57431,732.715435 C388.032931,733.046962 388.720862,733.243692 389.209655,733.457424 C391.962586,733.038462 392.01569,733.048177 393.327586,733.915247 C394.022759,734.368212 394.655172,734.861252 395.368448,735.300859 C396.803448,736.186145 398.248103,736.277224 400.039138,735.591097 C400.861034,735.276571 401.516379,734.748314 402.427586,734.789603 C403.735862,735.076198 404.966897,735.24014 406.031379,735.608098 C407.094655,735.978485 407.945517,736.60025 408.965345,737.027713 C410.403966,737.62519 411.800345,738.302817 413.943793,738.645273 C417.134828,738.637987 420.786897,739.270681 424.393103,738.28703 C425.245172,738.053868 426.327759,738.16802 427.304138,738.172878 C429.013103,738.185021 430.732931,738.236026 432.546897,738.272457 C435.34569,737.009498 438.25431,735.858261 441.782069,735.565595 C442.413276,735.514591 443.055345,735.102915 443.552586,734.765316 C444.229655,734.314779 444.763103,733.779236 445.296552,733.331128 C447.296379,732.997172 449.153793,732.689933 450.802414,732.415482 C452.353276,732.985029 453.630172,733.469568 454.93,733.91889 C455.347586,734.059759 455.842414,734.104691 456.396379,734.211557 C458.100517,733.945606 458.057069,732.190821 459.56931,732.245469 C461.35431,732.304974 461.085172,734.291706 463.10069,734.72767 C463.719828,734.86611 464.591207,734.682738 465.012414,735.008193 C465.557931,735.430798 465.087241,736.119354 465.871724,736.437523 C468.887759,737.650692 470.73069,739.559704 472.842759,741.172406 C472.927241,743.538027 475.862414,744.964928 476.476724,747.074313 C476.267931,747.642645 476.05069,748.252266 475.841897,748.820597 C476.222069,749.86011 477.366207,750.517092 478.36069,751.195933 C479.684655,752.088505 479.345517,753.323534 480.117931,754.312042 C480.337586,754.596208 480.603103,754.874302 480.928966,755.108678 C482.077931,755.93446 483.263103,756.743239 484.251552,757.429366 C486.452931,757.703817 488.082241,758.43852 490.164138,758.371728 C491.525517,758.326796 492.961724,758.855053 494.292931,759.227869 C494.930172,759.408812 495.507069,759.777985 495.943966,760.1423 C496.541379,760.636555 496.974655,761.207315 497.469483,761.741644 C499.861552,762.386482 502.481724,761.895871 504.012069,762.373124 C505.981724,763.08111 506.672069,764.104836 508.305,764.189843 C509.013448,764.085406 509.72431,763.980969 510.491897,763.87046 C510.633103,763.919035 510.787586,763.966396 510.932414,764.012543 C511.392241,763.815812 511.871379,763.630012 512.255172,763.379848 C513.113276,762.826089 513.691379,762.092601 514.485517,761.496339 C515.160172,760.996012 516.176379,760.894004 517.14431,760.776209 C519.039138,760.543047 520.142241,759.781628 520.497069,758.540528 C520.588793,758.23086 520.771034,757.935765 520.915862,757.62974 C521.101724,757.62974 521.356379,757.578736 521.468621,757.63824 C522.168621,758.007413 522.593448,758.523526 523.854655,758.261219 C525.68069,757.887189 527.507931,757.358932 529.490862,757.45244 C530.435862,757.499801 530.68931,757.057765 531.10569,756.687378 C531.972241,755.922316 533.31431,755.901671 534.388448,756.299989 C535.662931,756.768741 536.822759,757.362575 537.95,757.86533 C540.287759,757.943051 542.485517,758.017128 544.065345,758.070561 C548.927931,759.380882 553.218448,760.53819 557.49569,761.688211 L563.308103,761.688211 C564.105862,761.190314 564.797414,760.75435 565.539655,760.292884 C566.884138,760.636555 568.252759,760.987512 569.655172,761.346969 C571.501724,761.071304 573.347069,760.534547 575.530345,761.123523 C576.04931,761.476909 576.723966,761.934731 577.527759,762.475132 C579.893276,763.002175 582.424138,763.564435 585.167414,764.174056 C586.441897,764.970692 587.776724,765.92034 589.292586,766.72912 C590.798793,767.534257 592.226552,768.390397 593.68569,769.217393 C595.137586,770.045603 596.768103,770.776662 598.215172,771.642518 C599.413621,772.360219 600.816034,772.495016 602.305345,772.106413 C603.436207,771.80646 604.542931,771.375353 605.815,771.584228 C606.978448,771.772457 608.115345,772.050551 608.978276,772.235137 C611.38,771.689879 613.426897,771.171337 615.537759,770.763304 C616.916034,770.499782 618.370345,770.397774 619.584483,770.248405 C620.061207,769.868303 620.440172,769.647285 620.659828,769.374048 C621.526379,768.300533 622.794828,767.671482 624.678793,767.522113 C625.614138,767.446821 626.521724,767.193015 627.408793,767.024215 C628.305517,767.384887 629.129828,767.718843 630.049483,768.088016 C631.13931,767.932574 632.302759,767.740702 633.475862,767.592547 C634.892759,767.412818 636.31569,767.27195 637.883448,767.098293 C638.793448,767.479609 639.734828,768.079515 640.852414,768.300533 C642.521552,768.629631 644.016897,769.034021 645.431379,769.72622 C646.78069,770.389274 648.356897,771.054756 649.960862,771.241771 C652.036724,771.49072 653.460862,772.334717 655.121552,772.951624 C656.081034,772.81197 657.018793,772.679602 657.804483,772.56545 C659.739138,773.162927 661.509655,773.710614 663.326034,774.265588 C665.743448,774.338451 668.156034,774.36881 670.461207,775.104727 C671.902241,775.56255 673.320345,775.061009 674.312414,774.22187 C674.790345,773.815051 674.973793,773.320797 674.620172,772.884833 C674.157931,772.326216 673.426552,771.862321 672.955862,771.308562 C672.61069,770.902958 672.462241,770.419633 672.293276,769.959382 C672.15569,769.56835 672.806207,768.945371 673.38431,768.84822 C673.906897,768.760784 674.365517,768.860364 674.666034,769.176104 C675.821034,770.419633 677.061724,771.600015 679.517759,772.331074 C680.642586,772.359005 682.108966,772.362648 683.56569,772.440368 C684.980172,772.514446 686.386207,772.666244 687.792241,772.782825 C689.067931,771.47129 690.913276,771.272131 692.966207,771.575727 C693.671034,771.682593 694.296207,772.016548 694.999828,772.110056 C696.189828,772.266711 697.416034,772.40758 698.621724,772.386935 C701.098276,772.345646 703.245345,771.449431 705.579483,771.030468 C706.00431,770.951533 706.388103,770.66251 706.685,770.412347 C707.126724,770.032245 707.398276,769.565921 707.878621,769.206463 C708.565345,768.693993 709.50431,768.486334 710.524138,768.674563 C711.230172,768.803288 711.883103,769.023091 712.563793,769.20282 C714.061552,769.608425 715.402414,769.448126 716.656379,768.7705 C717.959828,768.0698 719.309138,767.401889 720.612586,766.738835 C720.683793,765.999275 720.738103,765.360509 720.812931,764.7181 C720.851552,764.399931 720.825,764.05626 721.003621,763.769666 C721.177414,763.501287 721.528621,763.191619 721.912414,763.095683 C722.291379,762.999746 722.858621,763.087182 723.267759,763.207406 C724.215172,763.478214 724.761897,764.038045 725.186724,764.612448 C725.540345,765.090916 726.149828,765.479519 726.805172,765.498949 C730.944828,765.603386 735.113448,766.072138 739.152931,764.981621 C740.778621,764.545657 742.640862,764.483724 744.214655,764.844396 C746.704483,765.423657 749.337931,765.717538 751.598448,766.855416 C753.714138,767.927717 755.990345,768.873722 757.96,770.079606 C760.593448,770.684369 762.201034,772.224208 764.234655,773.132567 C766.671379,773.43252 768.785862,773.464094 770.945,772.886047 C773.748621,772.140415 776.654828,772.152559 779.536897,772.843544 C780.907931,773.171428 782.30431,773.458022 783.833448,773.793192 C784.448966,774.167223 785.148966,774.618973 785.896034,775.031864 C786.631034,775.437468 787.411897,775.793283 788.049138,776.104165 C790.217931,775.873432 791.919655,775.068296 793.978621,775.284456 C795.959138,775.489687 797.853966,775.13873 799.73431,774.781701 C799.929828,774.742841 800.212241,774.852135 800.431897,774.914069 C802.063621,775.397394 803.799138,775.274741 805.50569,775.274741 C808.940517,775.279598 812.412759,775.445969 815.79931,775.175161 C818.415862,774.960215 820.968448,774.272874 823.438966,773.56003 C824.047241,773.38273 825.011552,773.359657 825.577586,773.555173 C827.622069,774.261944 829.777586,774.383383 831.999483,774.338451 C833.508103,774.308091 834.882759,774.574041 836.247759,774.993004 C837.688793,775.439897 839.059828,775.262597 840.337931,774.593471 C841.648621,773.902487 842.522414,772.824114 844.350862,772.603096 C847.12069,772.837472 848.985345,774.270445 851.087759,774.858207 C852.416552,774.646904 853.351897,774.452603 854.318621,774.355452 C857.440862,774.031211 860.505172,773.488382 863.513966,772.884833 C865.291724,772.525375 866.75569,772.522946 868.442931,772.961339 C869.544828,773.250363 870.816897,773.308653 872.026207,773.34387 C874.456897,773.415519 876.939483,773.171428 879.18431,774.084644 C879.519828,774.219441 880.218621,774.169651 880.583103,774.026354 C881.967414,773.485953 883.433793,773.932846 884.849483,773.842982 C887.23431,773.694827 889.293276,773.594033 890.322759,773.34387 C891.942414,772.946766 892.732931,771.678949 894.393621,771.651019 C896.042241,771.918183 897.432586,772.227851 898.862759,772.345646 C900.546379,772.486515 902.260172,772.463442 903.49,772.499873 C905.596034,773.34387 907.179483,774.11379 908.939138,774.646904 C910.919655,775.249239 913.043793,775.660915 915.122069,776.107808 C916.106897,776.32154 917.062759,776.132096 917.92569,775.779925 C918.740345,775.439897 919.526034,775.065867 920.322586,774.706409 C922.102759,775.302672 923.575172,774.167223 925.286552,774.334808 C926.004655,774.405242 926.865172,774.317806 927.438448,774.542467 C930.310862,775.664558 933.055345,775.271098 935.851724,774.434387 C936.732759,774.175723 937.783966,774.144149 938.632414,773.855126 C940.009483,773.390017 941.462586,773.430091 942.922931,773.34387 C945.199138,773.203002 947.22069,773.842982 949.282069,774.124719 C950.725517,773.838124 952.002414,773.239433 953.525517,773.855126 C954.878448,774.39917 956.296552,774.394312 957.713448,773.900058 C959.301724,773.346299 960.982931,773.284365 963.076897,773.624393 C964.313966,774.298376 965.812931,775.105941 967.251552,775.884362 C968.943621,776.280251 970.512586,776.758718 972.169655,777.007667 C973.57931,777.21897 975.102414,777.294262 976.542241,777.203183 C978.275345,777.090245 979.753793,778.081182 981.768103,777.503136 C983.545862,775.91715 986.293966,776.207388 988.939483,776.377402 C990.648448,776.712572 991.523448,777.960958 993.415862,777.96703 C996.880862,777.242043 996.941207,776.610563 1000.71155,778.654372 C1000.89379,778.755166 1001.13759,778.809813 1001.35121,778.888748 C1002.79466,779.267636 1004.13552,778.096969 1005.58983,778.77581 C1006.80034,778.615511 1007.89259,778.311915 1008.72534,777.715653 C1008.56,776.999166 1007.70431,776.632422 1007.08879,776.151526 C1006.6181,775.785997 1006.17517,775.405894 1005.7431,775.023363 C1005.43534,774.75377 1006.00259,774.104075 1006.71224,773.904916 C1007.20828,773.764047 1007.57276,773.897629 1007.88897,774.237657 C1008.13638,774.501178 1008.47914,774.73434 1008.81828,775.012434 C1010.15914,775.286885 1011.54948,775.572265 1013.00862,775.86736 C1014.20466,775.410752 1015.37172,774.757413 1016.72224,774.486606 C1018.77759,774.065214 1020.95724,773.913416 1023.25759,773.624393 C1023.76931,774.128362 1024.21948,774.702766 1024.86034,775.166661 C1025.29845,775.481186 1025.99362,775.645128 1026.49931,775.845501 C1027.68207,775.334246 1028.69586,774.899496 1029.90276,774.373668 C1031.47655,774.373668 1033.18552,774.389455 1034.89448,774.36881 C1036.84724,774.34938 1038.79638,774.292304 1040.60431,774.254658 C1041.98017,773.632893 1043.18828,773.092493 1044.34448,772.56545 C1045.62741,772.461013 1046.84397,772.360219 1048.24397,772.247281 C1048.90414,771.926684 1049.71638,771.567226 1050.45379,771.156764 C1051.4519,770.607863 1052.71069,770.586004 1053.84397,770.304267 C1054.72621,770.079606 1055.50103,769.641213 1056.27586,769.256253 C1058.02466,768.390397 1059.92069,768.35518 1061.83241,768.877365 C1063.6319,769.369191 1065.41931,769.90352 1066.78793,770.895672 C1067.76793,771.608515 1068.84448,772.278855 1069.98379,772.884833 C1070.75259,773.295295 1071.76879,773.444664 1072.76086,773.23579 C1073.92069,772.991699 1075.04069,772.683245 1076.27293,772.382078 C1078.56603,772.882404 1080.91948,773.303795 1083.15103,773.913416 C1084.46534,774.276517 1085.51414,773.978993 1086.65345,773.761618 C1088.98638,774.219441 1091.31448,774.678478 1093.50017,775.110799 C1094.33414,774.960215 1095.02207,774.838777 1095.8319,774.694265 C1097.29828,775.510331 1098.76707,776.337327 1100.0669,777.0611 C1101.32931,777.153393 1102.31293,777.266331 1103.10466,776.724715 C1103.76966,776.269321 1104.32845,775.683988 1105.13466,775.388893 C1107.25879,774.614116 1109.29845,773.685112 1112.09966,773.408232 C1115.49586,774.631117 1119.37603,774.469604 1123.13552,774.203654 C1124.51741,773.59039 1125.73397,773.053632 1126.92759,772.522946 C1128.68241,772.435511 1130.38534,772.354147 1132.14138,772.266711 C1133.12983,771.791887 1134.04707,771.241771 1135.11276,770.866526 C1136.15431,770.492496 1137.34793,770.293337 1138.57172,769.997027 C1139.09672,769.284184 1139.64224,768.570126 1140.16,767.849996 C1140.24931,767.7152 1140.22759,767.528185 1140.17328,767.346027 C1140.08759,767.089792 1139.42138,766.827485 1139.69293,766.633183 C1141.82431,765.093344 1146.93914,764.905115 1148.77845,766.602824 C1149.30103,767.08372 1148.03621,767.624121 1148.38983,767.975078 C1148.81707,768.387969 1150.15069,768.623559 1151.03414,768.343036 C1151.40345,768.225241 1151.94655,767.966577 1151.99603,767.539114 C1152.04552,767.145654 1151.48431,766.746121 1151.05828,766.412166 C1150.92069,766.307729 1150.60931,766.29437 1150.60931,766.177789 C1150.66,764.710813 1154.70552,763.916606 1156.65828,764.523798 C1156.71138,764.543228 1156.75121,764.619735 1156.70293,764.652523 C1158.31534,763.562006 1160.91862,764.062332 1162.94259,763.921464 C1164.61776,764.404789 1166.17466,764.855325 1167.67845,765.292503 C1168.83948,764.804321 1169.86052,764.376858 1170.99259,763.902034 C1171.63103,764.012543 1172.36,764.070833 1172.99483,764.269992 C1174.38879,764.703527 1175.84914,764.639165 1177.31672,764.692598 C1178.85914,764.750888 1180.10586,763.984612 1181.5119,763.99797 C1182.92034,764.012543 1184.30707,764.517726 1185.73603,764.633093 C1186.6581,764.70717 1187.72379,764.582089 1188.57948,764.331926 C1191.46759,763.495215 1194.2519,763.523146 1197.10259,764.376858 C1198.55448,764.809179 1199.93879,764.554158 1201.29534,764.04776 C1202.36586,763.647013 1203.37603,763.260839 1204.03862,762.520065 C1204.41155,762.099888 1205.14293,761.931088 1205.93103,762.050098 C1206.40172,762.122961 1206.95931,762.381625 1207.33345,762.29176 C1209.9319,761.648137 1212.63052,761.836366 1215.30862,761.776861 C1216.03155,761.761074 1216.89328,761.813293 1217.46534,761.583774 C1219.70655,760.683916 1222.22655,760.929221 1224.23121,760.732491 C1226.69448,760.226093 1228.44931,759.259443 1230.54328,759.062713 C1231.36759,759.199938 1232.05552,759.317734 1232.64207,759.416099 C1236.30138,757.972196 1239.84603,756.569582 1243.42931,755.153611 C1245.32897,754.79901 1247.10793,755.930816 1249.07276,755.442634 C1250.91931,755.851881 1252.755,756.282988 1254.62569,756.653375 C1255.02759,756.734739 1255.5369,756.597513 1256.11983,756.546509 C1256.91517,755.998822 1257.35328,755.242261 1257.93379,754.545204 C1258.41052,753.985373 1258.74362,753.368466 1259.22155,752.814707 C1259.81172,752.13708 1259.45931,751.203219 1260.73862,750.636102 C1261.22259,750.937269 1262.02034,751.203219 1262.19534,751.58575 C1262.76741,752.840209 1263.50845,753.936798 1265.25724,754.726147 C1266.00069,755.066175 1266.37121,755.764446 1267.3319,756.021895 C1268.46397,756.321848 1269.55621,756.734739 1270.7281,756.895037 C1271.90724,757.052907 1272.9319,757.61031 1274.22448,757.440296 C1274.93293,757.346788 1275.82121,757.052907 1276.33052,757.22535 C1278.63207,757.997698 1281.0881,757.918763 1283.52362,757.927264 C1285.26397,757.933336 1286.92466,758.085134 1288.50569,758.603676 C1289.12121,758.804049 1290.04931,758.491952 1290.34138,758.083919 C1290.75052,757.514373 1290.67569,756.797887 1291.66414,756.321848 C1293.14138,755.979392 1294.73569,755.604147 1296.33724,755.245904 C1296.55086,755.1949 1296.82121,755.237403 1297.02517,755.237403 C1297.47414,755.424418 1297.99431,755.540999 1298.2731,755.779018 C1299.15293,756.539223 1299.79259,757.448796 1300.81362,758.106993 C1301.83586,758.767618 1303.24793,759.157435 1304.40655,759.740339 C1305.56155,760.322029 1306.61276,760.999656 1307.4769,761.498767 C1310.67517,761.94809 1313.29052,762.993674 1316.3681,762.792087 C1317.04397,762.74594 1317.82724,762.949956 1318.45724,763.170974 C1320.11431,763.753879 1321.70741,763.764808 1323.34276,763.155187 C1324.46276,762.735011 1325.71914,762.616001 1326.86328,763.014319 C1329.50155,763.925107 1332.01672,763.843743 1334.53914,762.845519 C1335.16431,762.597785 1335.85103,762.411984 1336.53897,762.235899 C1336.98069,762.122961 1337.46466,762.084101 1337.93293,762.008809 C1339.13741,762.041597 1340.11138,762.790872 1341.63207,762.443558 C1342.03759,762.232255 1342.69414,761.983307 1343.16483,761.627492 C1344.12431,760.908577 1344.97034,760.132585 1345.86828,759.377238 C1346.28103,759.499891 1346.79276,759.554539 1347.08724,759.751269 C1348.31586,760.544262 1348.51741,761.808435 1349.98621,762.496991 C1351.57931,763.235337 1353.20621,763.938465 1354.75586,764.714457 C1355.75879,765.217212 1356.80034,765.557239 1358.03983,765.721181 C1358.735,765.811045 1359.46759,766.010204 1360.01431,766.3053 C1362.71293,767.750417 1365.88707,768.578627 1368.99845,769.494272 C1369.78897,769.494272 1370.52759,769.514917 1371.25655,769.494272 C1375.38172,769.38012 1379.59983,769.950881 1383.57052,768.685493 C1384.18362,768.489977 1385.01517,768.567697 1385.75138,768.567697 C1388.93397,768.556768 1392.12621,768.56284 1395.18086,768.56284 C1396.88259,769.257468 1398.46603,769.882875 1400,770.538643 L1400,715 L0,715 Z" id="Fill-1"></path>
            </g>
        </g>
    </g>
</svg>