<svg id="elements" xmlns="http://www.w3.org/2000/svg" viewBox="0 0 1330 35"><defs><style>.cls-1{fill:#E7EEF3;}</style></defs><title>rip-course-datescosts</title><path class="cls-1" d="M1330,35V32.26c-2.2-.45-4-1.17-6.08-1.23-2.73-3.51-7.82-1.94-10.68-2.2-4,1.86-8,2.67-12.7,1-2.6-.35-5-.12-7.81-1.16-3.12-3.82-4.09.7-6.54-.78-2.21.61-5.43-2.94-8.11-.68a13.4,13.4,0,0,1-7.94.84c-4.83.69-10.75-.48-15.15-1.48-1.18-.33-5,.21-5.7-.58-2.18-.47-4.34.17-6.28,0a18,18,0,0,0-5.87-.27,43.6,43.6,0,0,0-5.39-.91c-.55-.23,1-.65-2.1-.64-3.12-.14.43-.43-4-.6a71.14,71.14,0,0,0-7.29-1.79c-.58-.41,0-.74-3.31-2.64-.51-2-1-5.1-3.7-5.1-3.45,1.27-3.35-2.27-6.49,1.31-1.57.44-2.08-.54-2.87,0-3.32.64-5.63-.07-8.16.47a13.51,13.51,0,0,0-8.54-.16c-1.64-1-4.53-1.41-8.14-2.35-4.19.22-9.78,1.52-14.59-.62-4.72-.58-8.86-1.23-13.1-1.8s-8.59-1.05-13.72-1.28c-3.57.26-6.52.39-9.09.42a43.65,43.65,0,0,0-6.81-.12c-2.64.54-4.6-1.44-7.41-1-1.41-3.42-5-.74-6.81-2.16-2.88-.61-6.06-.76-9.08-2-3.77.82-6.91-.72-10.42-2.26-3.58-1.31-8.18-.8-12.53-2.29-6.27,0-12.27,1.87-16.42.49-4.85.58-9.28,2-12.94,2.64s-6.73,1.43-10,2a36.51,36.51,0,0,1-11,.5c-6.78,1-11.29,3.49-17.2,3.78-5.1-2-9.25-4.23-15.4-5.77a15,15,0,0,0-5.35,1c-1.32.4-3.19.73-9.25,1.23a15.91,15.91,0,0,0-8.83.51C964,6.73,960,6.83,957,5.63c-8.75-1.26-10.28-4.21-14.7-1.44-3.08.35-5.57-.29-13.71-.19a19.72,19.72,0,0,0-7-1.73c-2.34-.21-4.89.37-6.71-.68-2-.85-5.28,2.29-6.63.26-2.79,2-3.83-.62-6.38,1.16-1-2.48-3.49-.67-5.71.56-1.41-1-4.17,1.81-6.26,2.87-3,0-6.6,1.68-8.93-.29-2.84-.72-6.13-.47-9.87-.27-8.17-.29-12,.74-13.63,1.36-10.36-.12-8.75.29-10.09.37-4.93-.58-7.11-.79-6.41-.34-4.35-.65-5.48-.18-9.19-.29-3.44.55-6,.27-9,2.09-1.36,2.72-5.79,1-9,1.4-2.19.87-5.73.76-8.37,1.31a78.21,78.21,0,0,0-9.22.2c.6.69-.3,1.89-3.74,1.08-2.8-.69-5.14.2-5.66,1.88-1.52.14-3.31.59-5.25,1a25,25,0,0,1-6,.64c-1.88-.15-4.26,1.11-6.4,2-1.93.29-4.48,2.59-5.78,1.95-1.55-.73-5.32,4.72-6.72,3.6-1.93.34-4.08,1.3-5.94,1.47-3.81.59-6.52-1.87-11,.71-3.41-.45-7.91,2.15-11.73,2.78a8.05,8.05,0,0,1-5.63.65c-1.67-.39-3.22-1.2-4.89-1.72-3.77.17-6.52-3.1-10.52-3.41-3.23-2.51-8.23-.06-11.13-2.52-2,.8-4.48.18-6.78.63a7.44,7.44,0,0,1-4.85,1.61c-3.93.64-6.64,1.93-10,2.39-4.1-.44-7,1.27-10.62,1.37-3.71.27-8.08,1.13-11.63.67-3.37-.78-6.24-1.68-10.28-1-1.67-.14-3.87.9-5.41.26a12.81,12.81,0,0,1-4.57,1.26c-2.27.79-4.37.47-6.6.32a25.54,25.54,0,0,1-3.83-.78,58.15,58.15,0,0,0-9.06-1.84c-16.67-2.62-21-3.05-24.6-3.17a36.14,36.14,0,0,1-11.26-1.21c-3.34-1.77-7.29-2.2-11.93-1.34-4.45.18-8.21-1.62-12.27-2.5-3.9-1.18-7.15-4.66-12.25-2.45-3.3-2.76-8.39,0-12.35,1.38q-3.39-.24-6.9-.28a69.11,69.11,0,0,1-7.18.15c-2.64.69-4.62-.51-7.45.61a65.57,65.57,0,0,1-7.77,1.13c-5.87.26-11.43.31-16.38-1.19-6.12,1.76-11.53,1.73-17.06,1.69-3.93-.21-7.87-.34-11.81-.45s-7.86-.2-11.76-.32-7.24-1.51-10.86-2.27c-3.06-2.32-7.53-.91-12.63,1.39-5,2.92-7.47-1.42-11.32-2-4-.11-6.42-4.74-11.55-1.95-3.89-.51-7.39-2.07-11.81-.72-3.38-1.82-7.31-.23-11.94-1.59-4.25-.16-7.88,0-11,.1-3,.08-5.21.2-8.07.29-5.4-.12-7.65-.09-7.78.21-1.62.11-6.13-1-5.53,0-2.14-.19-4.37-.78-5.85-.92a13.44,13.44,0,0,1-4.91-.56c-1.64.59-3.9-.09-6.36-.4s-5.18-1.94-9.2-.56a26.31,26.31,0,0,0-12-1.14c-3.72.78-6.85,1.5-9.08.68A36,36,0,0,1,284,10.73c-2.21.37-4.15.28-6.6,1.27-4,.22-8.18-.26-13.71,2.45a50.49,50.49,0,0,1-7.35,1,25.06,25.06,0,0,0-8,2c-3.67,1.26-7.26,3.21-9.26,1.27-3,.83-4.63-1.63-7.67-.07-2.42-.15-5,.35-7.36-.31-2.5-.11-4.57-1.77-8.26.42-5.73.24-10.44-.33-14.66-2.25A35.46,35.46,0,0,0,187,16.43c-3.17.51-6-.51-9.43.39-1.62.37-3.25.28-5.2,1.15s-3.66.1-6.15,1.88c-2.65-1.07-5.88-.25-8.93-.42-3.07.43-6.24-.69-9.4.07-3.7,1.57-6.65-.56-10.1-.09-3.5-3.31-7.87-1.2-12.22-.23-4.93-.95-11.3-2.67-13.19-2.36-2.23-.13-8-1.41-9.47-1.18-2.13-.87-2.7-1.52-4.31-.5-.52-1.4-3-.21-4.47.31a21.7,21.7,0,0,0-6.82,1.17c-4.26.2-6.68.87-8.25,1.61-3.4-.06-4.1,1.2-7.33.75-1.58,1-4,2.08-6.48.8-2.09.55-4.45-.85-6.38,0-2.13-.15-4.41.36-6.39-.26-3.07-1.3-7.51,1.37-11,1.5a44.8,44.8,0,0,1-10.14-.74c-8.32,3.33-13.53,2-20.65,3.27A80.21,80.21,0,0,0,0,24.81V35Z"/></svg>