<svg id="elements" xmlns="http://www.w3.org/2000/svg" viewBox="0 0 580 30"><defs><style>.cls-1{fill:#221c38;}</style></defs><title>rip-curriculum-intro2</title><path class="cls-1" d="M580,30H0V2.76a15.51,15.51,0,0,1,2.32,1,1.58,1.58,0,0,0,1.2.58c.44-.12.91,1,1.41.51A3.53,3.53,0,0,0,6.78,5a1.35,1.35,0,0,1,1,0,1.54,1.54,0,0,1,1.39.42c.39.36.73.66,1.08,1,.37.07.78-.49,1.13.2a8,8,0,0,0,2.36.23c.44,0,.85,0,1.28,0a7.11,7.11,0,0,0,1.4-.34c.38-.1.82-.44,1.19-.37.41-.14.8.08,1.21,0,.37.27.8,0,1.24-.22a8,8,0,0,1,1.41-.47c.1,0,.27-.19.41-.3s.41-.17.45-.14a4.15,4.15,0,0,1,.74-.17.92.92,0,0,1,.62,0c.47.14.54,0,.87,0a7.46,7.46,0,0,0,1,0c.32,0,.26-.26.8-.13a12.52,12.52,0,0,0,1.26-.12.88.88,0,0,1,.67,0c.24.1.55.42.74.38a10.21,10.21,0,0,0,1.48.82c.12-.45.46.24.77.81.25.21.52.81.72.55.47.1.88-.72,1.46,0,.25,0,.51.5.77.72.13.44.26.41.39.27a1.4,1.4,0,0,1,.39.74,1.08,1.08,0,0,0,.4.42c.13.3.27.18.4.49a4.81,4.81,0,0,1,.41.56,3.62,3.62,0,0,0,.4.7c.27-.19.55.43.82.7s.55.52.83.51c1.15-.59,2.34,0,3.56.53s2.6.2,3.86-.43a20.17,20.17,0,0,0,2.92.12c.91.22,1.78.38,2.57.54a3.82,3.82,0,0,0,1.11.07c.36,0,.71-.09,1.07-.07.19-.16.55,0,.91-.08a8.47,8.47,0,0,1,1.27.08c.91.05,2,.11,2.76.21.31.08.62.06.86.11a2.26,2.26,0,0,0,.81,0,4.89,4.89,0,0,0,1.48-.1A13.26,13.26,0,0,0,63.75,13a5.92,5.92,0,0,1,3-.61,2.36,2.36,0,0,0,1.71.7,2.13,2.13,0,0,1,2.07.57,2.71,2.71,0,0,0,1.74.2,3.92,3.92,0,0,1,1.55.08c1,.16,1.8.07,2.57.16a14,14,0,0,1,2.18.36c.73,0,1.65.68,2.52.81a7.56,7.56,0,0,1,3,1,19.74,19.74,0,0,0,3.26,0c1.15.39,2.33-.28,3.44-.07a5.69,5.69,0,0,0,3.37,0,6,6,0,0,0,3.39-.79c1.14-.7,2.29-.92,3.46-1.92a16.75,16.75,0,0,0,2.69-.29c.91-.13,1.84-.3,2.78-.51a3.52,3.52,0,0,0,2.77-.07,3.68,3.68,0,0,1,2.93-.42,6.63,6.63,0,0,1,3-.35,5.81,5.81,0,0,0,3.37-.9,10.15,10.15,0,0,0,2-.28c.6-.29,1.19.12,1.73.34.54,0,1,.43,1.31.88a6.63,6.63,0,0,1,2.76.31,6.37,6.37,0,0,1,2.54,1.26A2.38,2.38,0,0,0,131.35,15a4.72,4.72,0,0,1,2.79.35c1.06-.09,2.08.92,3.09.75a11.13,11.13,0,0,0,3.28.08,10.91,10.91,0,0,0,3.59-.28,8.78,8.78,0,0,1,3.52.5c1.63-.12,3,.38,4.47.13.74-.1,1.57-.22,2.62-.41a12,12,0,0,1,1.43-.16c.28,0,.85-.19,1-.09a4.78,4.78,0,0,1,.94-.1,5.79,5.79,0,0,1,1.39-.13c1-.09,1.19-.26,2.18-.41.89.11,1.1-.16,1.7-.14a4.08,4.08,0,0,1,2,.16c.57-.29,1.16-.07,1.68-.09a6.76,6.76,0,0,1,1.5-.09,5.29,5.29,0,0,1,1.58,0h1.56a10.26,10.26,0,0,0,1.56-.13,17.43,17.43,0,0,1,2.95-.08,4,4,0,0,0,1.15.08c.4,0,.81,0,1.26.1,1,.21,1.38,0,2.48.27.93,0,1.73-.14,3.26-.11a10,10,0,0,0,2.94-.9,20.86,20.86,0,0,1,3.12.23c1,.14,2,.53,3,.67a3.76,3.76,0,0,0,1.45.14c.54-.44,1,.11,1.46,0s.93.16,1.39.07a4.49,4.49,0,0,0,1.32,0,19.58,19.58,0,0,0,3.28.5c1.16-.09,2.36.32,3.53.1a33,33,0,0,0,3.49.51,7.93,7.93,0,0,0,2.3,1.46,12.21,12.21,0,0,0,4.94.21c1.27-.1,2.54-.71,3.79.21a11.8,11.8,0,0,0,3.83.4c1.29.18,2.61.3,4,.53,1.54-.25,2.71.44,4.05.74a8.81,8.81,0,0,1,3.28.14c1.07.15,2.24.17,3.55.47a9.5,9.5,0,0,0,3.67.46,20.18,20.18,0,0,0,2.89-.09c1,.19,2.3.07,3,.15,1-.19,1.62-.06,2.42-.17a6,6,0,0,1,2.53-.07c.86.11,1.76,0,2.65.07a2.38,2.38,0,0,1,1.84.22,12.59,12.59,0,0,0,1.72.1h1.64l1.53-.06a11.31,11.31,0,0,1,3-.08,6.91,6.91,0,0,1,1.84,0,6.44,6.44,0,0,1,1.94-.12,13,13,0,0,1,2-.39,8,8,0,0,1,2-.14,7.73,7.73,0,0,0,1.31-.3c.44-.1.89-.19,1.34-.26a4.4,4.4,0,0,1,2.74.35,5.61,5.61,0,0,0,2.76,1c.44.47.9-.18,1.34.25.45-.08.9.47,1.34.44a4.9,4.9,0,0,0,1.34.59c.45.1.89.14,1.32.21.82-.05,1.61.26,2.39-.17.81-.15,1.67.72,2.52.73.89.28,1.76.89,2.58,1.2a2.06,2.06,0,0,0,.88.84c.53-.15.71.4,1.31.13.6.47,1.45.25,2.22.31.76-.16,1.32.07,2.1-.61.56-.17,1.05-.07,1.57-.19a3.22,3.22,0,0,0,1.66,0,2.25,2.25,0,0,0,1.75,0c.6.15,1.12-.2,1.69-.26s1.1-.07,1.7-.23a6.6,6.6,0,0,1,1.79.28,3.27,3.27,0,0,1,2.07.11c.69.07,1.38.13,2.06.15a6.33,6.33,0,0,1,1.75-.24,3,3,0,0,1,1.44-.1c.53-.28.71,0,1.3-.2s.79.1,1.39,0a4.44,4.44,0,0,1,1.63-.14,5.88,5.88,0,0,1,1.57,0c.52,0,1,0,1.47-.06s.66-.35,1.21-.34a5.91,5.91,0,0,1,1.71-.19,4.74,4.74,0,0,0,1.87.21c2.08.07.88-.18,2.3-.17.69-.28,1.2-.62,1.79-.82.64,0,1.26-.39,1.76-.4s1.31-.13,1.89-.11a10.59,10.59,0,0,1,1.93-.18c.67-.1,1.32.06,1.93,0,.3.1.57-.18.88-.07.28-.17.59,0,.93.39.62.21,1.44.68,1.85.57a7,7,0,0,1,1.82.35,3.33,3.33,0,0,1,1.63.16c.55-.2,1.37-.74,1.89-.17.74-.19,1.32.06,2.21-1.1.55,0,1.17-.84,1.75-1.18s1.08.23,1.65-.09a3,3,0,0,1,1.71.05,3.66,3.66,0,0,1,1.92,0,4.06,4.06,0,0,1,1.91.3c.53,0,1.21.44,1.8.63.87,1,1.2.41,1.77.52a1.48,1.48,0,0,1,1.6,0c.5-.08,1.14.24,1.59,0a9.51,9.51,0,0,1,1.63.26c.39-.5,1.15.39,1.62.24a7.48,7.48,0,0,0,1.6.33,1.69,1.69,0,0,0,1.49,0,6,6,0,0,1,1.4-.4c.46,0,.94-.58,1.44-.41a15.49,15.49,0,0,1,1.56-.18,5,5,0,0,0,1.58-.06,1.4,1.4,0,0,0,1.41,0,5.27,5.27,0,0,0,1.31-.05c.17,0,.47-.07.57,0s.47-.07.84-.2c.73-.17.88-.06,1.51-.18a7.92,7.92,0,0,0,1.56-.21,2.44,2.44,0,0,1,1.39-.18c.26.2.86-.14,1.3-.25.3-.36.81-.26,1.24-.22s.79,0,1-.42c.18-.19,0-.52.51-.65A2.55,2.55,0,0,1,396,19.5c.59-.26,1-.14,1.54-.68a1.51,1.51,0,0,0,1.16-.27c.71,0,1.39-.09,2.07-.11a11.4,11.4,0,0,0,1.65,0,10.8,10.8,0,0,0,1.79-.14c.84-1,1.81-.34,2.82-.15,1-.12,2.06.79,3,1A2.55,2.55,0,0,0,412.77,18c.5-.24,1,.28,1.48,0,.5.27.95-.65,1.45-.12.47-.07,1,.13,1.43-.1a1.68,1.68,0,0,1,1.45,0,1.47,1.47,0,0,1,1.53.23c.53.15,1.11.43,1.67.54a1.5,1.5,0,0,1,1.59.05,3.59,3.59,0,0,0,1.65.1,3.32,3.32,0,0,1,1.59-.14c.51-.05.95.38,1.47-.18.49-.21.84,0,1.37-.3s1.26-.52,1.55-.24a4.55,4.55,0,0,1,1.62.33c.93-.38.86,1.13,1.75.88.46.53,1.24.21,1.68.64.58-.13,1.13-.25,1.57.24s1,.29,1.59,0a2.56,2.56,0,0,1,1.57-.23,6.9,6.9,0,0,0,1.83.32,4.8,4.8,0,0,0,1.81.05c1.19.17,2.37-.11,3.54,0,1.16-.24,2.3-.27,3.43-.42a23.27,23.27,0,0,0,3.34-.91A23.09,23.09,0,0,0,458,17.35c2.77.47,5.17-1.65,8-.83a23.48,23.48,0,0,0,7.58-.78c5.12.91,5-.54,8.44-.29,1.55.11,2.86.13,4.07.1a12.07,12.07,0,0,0,3.5-.3c1.08.21,1.81-.22,3.08.33,1,.05,2,.19,3,.18a7,7,0,0,1,2.7,0,1.41,1.41,0,0,0,1.85-.22c.58-.16,1-.8,1.69-.57.34-1.06,1.11-.5,1.58-1.19.21-.65.48-1,.81-.9a3.23,3.23,0,0,1,.91-.2c.37-.54.64-.05,1-.11.33.14.8-.24,1,.13a9.55,9.55,0,0,1,2,.28c.67,0,1.27.06,1.89,0a4,4,0,0,0,1.74.08,11.31,11.31,0,0,1,1.68.14,4.12,4.12,0,0,0,1.71-.06,3.77,3.77,0,0,0,1.67.08,5.71,5.71,0,0,0,1.65,0,9,9,0,0,1,3.14.6c1,.3,2,.66,3,1,1.94-1.19,3.77,1.29,5.91,1,.81,1.7,2.68,1.5,4.56,1.4a7,7,0,0,1,2.42.13c1.65-.27,2.15.26,3.24.32a3.49,3.49,0,0,0,2.44.91c.84.72,2.06.64,3.2.7a3,3,0,0,1,1.65.05,8.25,8.25,0,0,0,1.52.42,2.14,2.14,0,0,0,1.36.56c.46.08.8.4,1.38.21.2.52,1,0,1.46,0a1.72,1.72,0,0,0,1.51-.23,4.54,4.54,0,0,1,3.67-.12c.59,0,1.17.08,1.74.09s1.13.11,1.68-.05c.53.53,1.09-.15,1.61,0a5.16,5.16,0,0,1,1.55-.29,6.57,6.57,0,0,0,2.13-.2,1.66,1.66,0,0,0,1.93-.32c.6,0,1.18-.35,1.73-.35s1.07-.34,1.56-.07c.5-.06,1,.11,1.41,0a1.66,1.66,0,0,1,1.24.27,9.61,9.61,0,0,1,2.62.55c.59.18.89.32.89.21V30Z"/></svg>