<svg id="elements" xmlns="http://www.w3.org/2000/svg" viewBox="0 0 1260 60"><defs><style>.cls-1{fill:#ebf0f4;}</style></defs><title>rip-about-juno2</title><path class="cls-1" d="M1260,0V15.1l-.46-.54a8.55,8.55,0,0,1-4.35.06,12.28,12.28,0,0,0-5-.31,5.38,5.38,0,0,0-1.15.36l-.38,1-3.11,0a2.63,2.63,0,0,0-2,.7,6.58,6.58,0,0,0-3.39.84,7.51,7.51,0,0,1-4.77.48,2.74,2.74,0,0,1-.58-.15,8.87,8.87,0,0,0-5,0,24.33,24.33,0,0,0-3.39-.9,19.64,19.64,0,0,1-5.48-1.61,20.75,20.75,0,0,0-7.59.44c-1.43-.07-2.85-.23-4.3-.23-.4,0-.78-.2-1.18-.24-1.82-.21-3.37,0-4.41,1a3.34,3.34,0,0,1-.61.25,21.16,21.16,0,0,1-7.34-.35,24.64,24.64,0,0,0-4.35-.23c-.8.33-1.52.58-2.17.89a4.91,4.91,0,0,1-3.53.38,10.91,10.91,0,0,0-5.51-.25c-1.34.3-2.83.12-4.26.38a10.8,10.8,0,0,1-5-.29,5.88,5.88,0,0,0-3.64,0,6.58,6.58,0,0,1-3.66.15,3,3,0,0,0-1.2-.12c-2.45.6-5,.3-7.56.37a11.92,11.92,0,0,0-3.08.38,6,6,0,0,1-3.64,0,7.81,7.81,0,0,0-1.8-.32,3.52,3.52,0,0,1-.69,1.92,1,1,0,0,1-1,.28,3.6,3.6,0,0,1-1.47-.61,9.53,9.53,0,0,1-1-1.71s-.09-.07-.14-.11l-.61-.09c-.19,0-.48-.14-.48-.22v0a2.94,2.94,0,0,0-.37,0,5,5,0,0,0-2.31.53,3.6,3.6,0,0,1-2.87.17,2.56,2.56,0,0,0-1.77.18,4.36,4.36,0,0,1-3.41.48,5.66,5.66,0,0,1-3.59-.15,3.14,3.14,0,0,0-2.72.53,2.31,2.31,0,0,0-.54.65c-.25.59-.42,1.19-.63,1.77l-3.08,1.86c-1,.95-.32,1.82-1.59,2.34-1-.6.11-1.48-.83-2.09a2.72,2.72,0,0,0-1.86,1.33c-.88,1.11-2.37,1.69-4.27,2l-1.63.3-7.8-.13-2.16.86c-.88.33-1.77.64-2.45.88a15.53,15.53,0,0,0-1.13,1.09c-.79,1-1.1,2.12-2.73,2.84a1.13,1.13,0,0,0-.59.64,4.14,4.14,0,0,1-1.58,2c-.34.24-.55.72-1.11.71-3.57-.09-5.13-3.12-8.61-1.74-2,.79-1.45,2.08-2.32,3.2-.29.37-.54,1-1.1.9s-.14-.56-.66-.77l-2.33.11a13,13,0,0,1-2.71-1.1c-.52-.57-.3-1.17-.33-1.75l-3.23,1-1.85-.38a19.55,19.55,0,0,1-5.51.43c-.21,0-.43,0-.64,0-1.85-.09-3.35.23-4.24,1.23a4.74,4.74,0,0,1-2.11,1.33c-.5.16-1.17-.06-1.26-.47-.06-.22-.08-.44-.13-.67-1.58-.33-3.2-.6-4.21-1.5a8.53,8.53,0,0,0-1.65-.92,27.82,27.82,0,0,1-3.91-.57c-1.58-.48-2.87.23-4.33.12a15.48,15.48,0,0,1-4.25-.62,5.61,5.61,0,0,0-3.05-.1c-1.39.27-2.82.47-4.24.71L1025,35.27l-2.51-.3a22.63,22.63,0,0,1-9.21,2.05l-2.49,2.14a3.73,3.73,0,0,1-.64.06,3.82,3.82,0,0,0-3.41.35c-.55.36-1,.76-1.46,1.1a29.85,29.85,0,0,0-8.2,2.13c-1.45-.21-2.66-.87-4.29-.68l-4,.91-1.27-.18-1.3-.12a7,7,0,0,1-1.77,1c-3.64.94-7,2.21-10.5,3.32a12.77,12.77,0,0,1-4.69-3.46,4.2,4.2,0,0,0-3.23-.94c-.82,0-1.63.21-2.47.27-1.86.13-2.55,1.23-4.2,1.64l-5-.16A17,17,0,0,0,949,42.54a2.48,2.48,0,0,1-1-.42,6.31,6.31,0,0,0-3.3-1,11.63,11.63,0,0,1-3-.55,3.22,3.22,0,0,0-1.82,0,19.88,19.88,0,0,1-3.72.37,8.56,8.56,0,0,0-2.28.57c-1,.42-2,1-2.18,1.74s-1.06,1.32-1.61,2a4.84,4.84,0,0,1-2.89,1.34c-.59.1-1.18.23-1.77.34a5.33,5.33,0,0,0-3-.21c-1.14.28-2.38.43-3.43.61a8.78,8.78,0,0,1-4.16,2.34c-.43-.06-.85-.08-1.23-.16-2.22-.5-2.48-.48-3.82.38-.55.36-1.07.74-1.31.9-2.7.58-4-.17-5.15-1.15a2.74,2.74,0,0,0-.63,0c-1.19.17-2.36.61-3.59.05-1.42-.65-3.35-.29-4.83-.8A1.13,1.13,0,0,0,893,49c-.44.44-.42,1.14-1.49,1.44a4.06,4.06,0,0,0-1.75,1,6.84,6.84,0,0,1-3,1.26c-1.19.28-2.46.38-3.63.65s-1.65,1.06-2.92,1.35a23.9,23.9,0,0,0-3.06,1.11c-1.67,0-3.15.07-4.62.14-1,0-1.74.7-1.55,1.33.15.46.23.93.34,1.39a4.18,4.18,0,0,1-3.08-1c-1.35-1.73-3.68-3-5.82-4.35a9,9,0,0,0-1.41-.57c-2.39.32-2.43.32-3.57-.34-.6-.35-1.15-.73-1.77-1.06a4.68,4.68,0,0,0-4-.22,5.57,5.57,0,0,1-2.07.61c-1.13-.22-2.2-.35-3.12-.63s-1.66-.76-2.54-1.08a18.6,18.6,0,0,0-4.32-1.24c-2.76,0-5.92-.47-9,.28a11.58,11.58,0,0,1-2.52.08c-1.48,0-3,0-4.54-.07a26.16,26.16,0,0,1-8,2.06,3.69,3.69,0,0,0-1.53.62,15.18,15.18,0,0,0-1.51,1.09l-4.77.7c-1.35-.43-2.45-.81-3.58-1.15a11,11,0,0,0-1.27-.22c-1.47.2-1.44,1.54-2.75,1.5-1.54-.05-1.31-1.56-3.06-1.9-.53-.1-1.29,0-1.65-.21s-.07-.85-.75-1.09c-2.61-.93-4.21-2.39-6-3.62-.07-1.8-2.61-2.89-3.14-4.5l.55-1.34c-.33-.79-1.32-1.29-2.18-1.81-1.15-.68-.86-1.63-1.53-2.38a3.23,3.23,0,0,0-.7-.61c-1-.63-2-1.25-2.88-1.77-1.9-.21-3.32-.77-5.12-.72a14.2,14.2,0,0,1-3.57-.65,4.21,4.21,0,0,1-1.44-.7,15.62,15.62,0,0,1-1.32-1.22c-2.07-.49-4.34-.12-5.66-.49-1.71-.54-2.31-1.32-3.72-1.38l-1.9.24-.38-.11a7,7,0,0,0-1.14.49c-.75.42-1.25,1-1.94,1.43a5.34,5.34,0,0,1-2.3.55c-1.64.18-2.6.76-2.9,1.71a4.73,4.73,0,0,1-.37.7,1.5,1.5,0,0,1-.48,0,2.65,2.65,0,0,0-2.06-.48,21.66,21.66,0,0,1-4.88.62,1.68,1.68,0,0,0-1.4.59,3.2,3.2,0,0,1-2.85.29c-1.1-.36-2.1-.81-3.08-1.19l-5.3-.16L715.2,31.19h-5l-1.93,1.06-3.56-.8a13,13,0,0,1-5.09.17l-1.73-1-6.62-1.3c-1.1-.61-2.26-1.33-3.57-1.95s-2.55-1.27-3.81-1.9-2.67-1.19-3.92-1.85a5.06,5.06,0,0,0-3.54-.36,7.89,7.89,0,0,1-3,.4c-1-.14-2-.36-2.74-.5-2.08.42-3.85.82-5.68,1.13-1.19.2-2.45.28-3.5.39a6.16,6.16,0,0,0-.93.67A4.89,4.89,0,0,1,657,26.73c-.81.06-1.59.25-2.36.38l-2.29-.81c-.94.12-2,.27-3,.38-1.22.14-2.46.24-3.81.38a14.43,14.43,0,0,0-2.58-.92,17.18,17.18,0,0,1-4-1.09,13.8,13.8,0,0,0-3.93-1.16,19.5,19.5,0,0,1-4.46-1.3l-2.33.29-4.78-1.3a24.91,24.91,0,0,1-6.18-.64,3.89,3.89,0,0,0-3.34.68c-.41.31-.57.68-.26,1s1,.78,1.44,1.2a3.09,3.09,0,0,1,.57,1c.12.3-.44.78-.94.85a1.3,1.3,0,0,1-1.11-.25,8.81,8.81,0,0,0-4.21-2.41c-1,0-2.24,0-3.5-.08s-2.45-.18-3.66-.26c-1.11,1-2.71,1.15-4.49.92-.61-.08-1.15-.34-1.76-.41A23.4,23.4,0,0,0,593,23c-2.15,0-4,.71-6,1a2.23,2.23,0,0,0-1,.48c-.38.29-.62.64-1,.92a3.2,3.2,0,0,1-2.29.4c-.62-.1-1.18-.26-1.77-.4a5.16,5.16,0,0,0-3.55.33c-1.13.53-2.29,1-3.42,1.55-.07.57-.11,1.05-.18,1.54a1.53,1.53,0,0,1-.16.73,1.46,1.46,0,0,1-.79.51,2.76,2.76,0,0,1-1.17-.08A3.07,3.07,0,0,1,569.94,29a1.94,1.94,0,0,0-1.4-.67c-3.58-.08-7.19-.44-10.69.39a10.67,10.67,0,0,1-4.39.11,31.72,31.72,0,0,1-6.39-1.54c-1.84-.82-3.81-1.54-5.51-2.46-2.28-.46-3.68-1.64-5.44-2.33a16.74,16.74,0,0,0-5.81.19,17,17,0,0,1-7.44,0c-1.19-.25-2.4-.47-3.73-.73-.53-.28-1.13-.63-1.78-.94s-1.32-.58-1.87-.82c-1.88.18-3.35.79-5.13.63a19.25,19.25,0,0,0-5,.38,1.64,1.64,0,0,1-.6-.1,17.44,17.44,0,0,0-4.4-.28c-3,0-6-.13-8.91.08a38.11,38.11,0,0,0-6.62,1.23,4,4,0,0,1-1.85,0,17.76,17.76,0,0,0-5.57-.6,13.14,13.14,0,0,1-3.68-.5,5.06,5.06,0,0,0-3.54.3c-1.14.53-1.89,1.35-3.48,1.52-2.39-.18-4-1.27-5.83-1.72-1.15.16-2,.31-2.8.38-2.7.25-5.36.67-8,1.13a10.22,10.22,0,0,1-4.27-.06,15.71,15.71,0,0,0-3.11-.29c-2.1-.06-4.25.13-6.2-.57a2.38,2.38,0,0,0-1.21.05c-1.2.41-2.47.07-3.7.14a42.31,42.31,0,0,0-4.74.38c-1.4.3-2.08,1.27-3.52,1.29-1.43-.2-2.64-.44-3.87-.53-1.46-.11-2.95-.09-4-.12-1.83-.64-3.2-1.23-4.72-1.64-1.72-.46-3.56-.77-5.36-1.11a4.52,4.52,0,0,0-2.43.25c-.7.26-1.38.54-2.07.82-1.54-.46-2.82.41-4.3.28a9.05,9.05,0,0,1-1.87-.16,12.21,12.21,0,0,0-7.28.08c-.77.2-1.68.23-2.41.45a16.37,16.37,0,0,1-3.72.39,30.38,30.38,0,0,1-5.51-.6c-1.25.22-2.35.68-3.67.21a5.7,5.7,0,0,0-3.63,0,10.27,10.27,0,0,1-4.65.21l-3.61-1.72c-1.47-.3-2.83-.67-4.26-.86a20.8,20.8,0,0,0-3.79-.15c-1.5.09-2.78-.67-4.53-.23-1.54,1.21-3.92,1-6.21.86-1.48-.25-2.24-1.21-3.88-1.21-3,.55-3.05,1-6.32-.53a5.08,5.08,0,0,0-.55-.18c-1.25-.29-2.41.61-3.67.09a6.45,6.45,0,0,0-2.72.81c.15.55.89.83,1.42,1.19s.79.57,1.17.87-.23.7-.84.85a1,1,0,0,1-1-.26c-.22-.2-.51-.37-.81-.59l-3.63-.65a20.46,20.46,0,0,1-3.21,1.05c-1.78.33-3.67.44-5.66.66a12.61,12.61,0,0,0-1.39-1.17,7.27,7.27,0,0,0-1.42-.52L306,21.5c-1.36,0-2.84,0-4.32,0-1.7,0-3.38.06-4.95.09l-3.24,1.29-3.38.24c-.57.25-1.27.52-1.91.84a13.83,13.83,0,0,1-2.94.65,11.35,11.35,0,0,0-2.11.8,7.45,7.45,0,0,1-4.81.29,14.6,14.6,0,0,1-4.29-1.54,22.77,22.77,0,0,0-2.77-1.52,4,4,0,0,0-2.4-.27c-1,.19-2,.42-3.05.65-2-.38-4-.7-5.95-1.17a7,7,0,0,0-3,.12l-5.93-1-2,.32-3.67-1.81a4.48,4.48,0,0,0-2.63.26,8.63,8.63,0,0,1-1.76,1,25.17,25.17,0,0,1-6,1.51c-2.94-.94-6.3-.81-9.56-.61L222,22.91l-4.52.2c-.86.36-1.65.78-2.57,1.07s-1.94.44-3,.66c-.46.55-.93,1.09-1.38,1.64a.48.48,0,0,0,0,.39c.08.19.65.39.42.54-1.85,1.18-6.28,1.32-7.87,0-.45-.37.64-.79.34-1.05a3.12,3.12,0,0,0-2.29-.28c-.32.09-.8.28-.84.61s.45.61.81.86c.12.08.39.09.39.18,0,1.12-3.55,1.73-5.24,1.26,0,0-.08-.07,0-.1-1.39.84-3.65.45-5.4.56l-4.1-1-2.87,1.06a17,17,0,0,1-1.74-.28,15.51,15.51,0,0,0-3.74-.33c-1.34,0-2.42.54-3.63.53s-2.43-.39-3.66-.48a8.11,8.11,0,0,0-2.47.23,14.21,14.21,0,0,1-7.38,0,6.23,6.23,0,0,0-3.63.26,6.09,6.09,0,0,0-2.38,1.16,2,2,0,0,1-1.64.36,4.67,4.67,0,0,0-1.21-.18,36.1,36.1,0,0,1-6.91.39,6.54,6.54,0,0,0-1.87.15c-1.94.68-4.12.5-5.86.65-2.13.38-3.65,1.12-5.47,1.27l-1.81-.27L121,36.18c-1.64.27-3.18-.6-4.89-.22-1.6-.32-3.19-.65-4.81-.93a6.19,6.19,0,0,0-1.29.08,7.61,7.61,0,0,0-1.57,1.53c-.41.43-.7.9-1.12,1.32s-.2,1.23-1.31,1.67c-.42-.23-1.11-.44-1.26-.73a4.67,4.67,0,0,0-2.65-2.4c-.65-.26-1-.79-1.8-1a29.08,29.08,0,0,0-2.94-.66,12,12,0,0,0-3-.42,6.16,6.16,0,0,1-1.83.17,22.27,22.27,0,0,0-6.23-.54A15.62,15.62,0,0,1,82,33.54a1.82,1.82,0,0,0-1.59.4c-.36.43-.29,1-1.15,1.35l-4.05.82a2.91,2.91,0,0,1-.59,0,4.89,4.89,0,0,1-1.08-.41,20.34,20.34,0,0,0-2.2-1.78c-.89-.5-2.11-.8-3.12-1.25s-1.91-1-2.66-1.34c-2.77-.34-5-1.14-7.7-1a5.57,5.57,0,0,1-1.81-.28,6.66,6.66,0,0,0-4.23,0,5,5,0,0,1-3,.1,10.43,10.43,0,0,0-6.65.13,14.56,14.56,0,0,1-1.73.47,11.37,11.37,0,0,1-1.21.17c-1,0-1.88-.59-3.2-.33a9.64,9.64,0,0,0-1.33.62c-.83.55-1.56,1.15-2.34,1.72a4.8,4.8,0,0,1-1.06-.28c-1.06-.61-1.23-1.57-2.51-2.1s-2.79-1.1-4.13-1.69a9.27,9.27,0,0,0-2.84-.77,5.5,5.5,0,0,1-1.71-.45,45.46,45.46,0,0,0-7.79-2.43c-.68,0-1.32,0-1.95,0-3.46.08-7-.31-10.32.53V0Z"/></svg>