<svg id="elements" xmlns="http://www.w3.org/2000/svg" viewBox="0 0 1330 65"><defs><style>.cls-1{fill:#f5dfd0;}</style></defs><title>rip-course-landing-coned2</title><path class="cls-1" d="M1330,0H0V50.45a40,40,0,0,0,5.32-1.94,4.07,4.07,0,0,1,2.76-1.07c1,.23,2.08-1.86,3.23-.95a10.18,10.18,0,0,1,4.23-.21,3.89,3.89,0,0,0,2.27,0A4.2,4.2,0,0,0,21,45.5c.89-.67,1.68-1.23,2.47-1.93.86-.13,1.78.91,2.59-.36,1.75-.59,3.49-.26,5.41-.43,1,0,1.95-.06,2.95,0a19.33,19.33,0,0,1,3.2.62c.87.19,1.88.82,2.74.7.92.25,1.83-.15,2.76.06.85-.49,1.83-.06,2.85.42a25.11,25.11,0,0,0,3.22.87c.24,0,.62.35,1,.55a3.24,3.24,0,0,0,1,.26,13.87,13.87,0,0,0,1.69.31,2.52,2.52,0,0,0,1.41.09c1.1-.26,1.26,0,2,0a19.45,19.45,0,0,1,2.34-.06c.73-.07.6.48,1.83.24,1.07-.06,1.88.2,2.89.21a2.45,2.45,0,0,0,1.53,0c.56-.19,1.26-.78,1.71-.71A26.81,26.81,0,0,1,70,44.79c.28.84,1.07-.43,1.77-1.5.56-.38,1.19-1.5,1.66-1,1.08-.18,2,1.34,3.34,0,.57-.06,1.16-.92,1.76-1.33.29-.81.59-.75.89-.5a2.52,2.52,0,0,0,.91-1.37,2.28,2.28,0,0,1,.91-.78c.3-.56.61-.33.92-.91a7,7,0,0,0,.93-1A6.53,6.53,0,0,1,84,35.11c.62.35,1.25-.79,1.88-1.3a3.22,3.22,0,0,1,1.9-.94c2.63,1.1,5.36.06,8.17-1,2.92-1.26,6-.37,8.84.81a55.2,55.2,0,0,1,6.71-.24c2.08-.4,4.07-.7,5.88-1a10.09,10.09,0,0,1,2.56-.14c.83,0,1.62.18,2.45.13.43.3,1.24.1,2.07.16a29.22,29.22,0,0,0,2.92-.16c2.09-.09,4.51-.21,6.33-.39.7-.14,1.43-.11,2-.19a6.61,6.61,0,0,1,1.87,0,13.4,13.4,0,0,1,3.4.2,36,36,0,0,1,5.25.44c2.56,1.24,4.51.93,6.8,1.13a6.22,6.22,0,0,1,3.93-1.3,5.59,5.59,0,0,0,4.73-1.06c1.49-.72,2.74-.38,4-.37a10.82,10.82,0,0,0,3.55-.14c2.32-.3,4.12-.14,5.88-.29a39.25,39.25,0,0,0,5-.69c1.69.07,3.79-1.24,5.8-1.49,2.27.11,4.61-1.09,6.93-1.88a55.15,55.15,0,0,1,7.49,0c2.62-.73,5.35.51,7.87.12s5.15-.95,7.73-.07c2.58.14,5.17,0,7.79,1.46,2.61,1.3,5.25,1.71,7.93,3.56,2-.19,4.08.44,6.17.53,2.09.25,4.2.56,6.36.94a9.81,9.81,0,0,1,6.36.15,10.34,10.34,0,0,0,6.71.77c2.39,1,4.6.54,6.86.64a15.87,15.87,0,0,1,7.74,1.67,28.1,28.1,0,0,1,4.59.52c1.37.54,2.73-.21,4-.63a4,4,0,0,0,3-1.63,18.29,18.29,0,0,0,6.33-.57,16.42,16.42,0,0,0,5.82-2.34c1.52-2.62,3.52-2.78,5.65-2.84s4.39.31,6.41-.66c2.43.17,4.76-1.71,7.09-1.38a30.59,30.59,0,0,1,7.52-.15c2.77-.43,5.46.21,8.23.51,2.81-.08,5.58,0,8.07-.93,3.73.24,6.91-.69,10.25-.24,1.7.19,3.6.42,6,.76A29.94,29.94,0,0,0,358,26c.64-.05,1.94.36,2.28.17a14.58,14.58,0,0,0,2.15.19,16.41,16.41,0,0,0,3.2.23c2.22.18,2.73.49,5,.76,2.05-.2,2.52.3,3.9.27s2.85.31,4.56-.31c1.32.54,2.67.15,3.86.18a19.67,19.67,0,0,0,3.45.15,15.7,15.7,0,0,0,3.61-.05c1.18,0,2.37,0,3.57,0a30.46,30.46,0,0,1,3.58.24A45.85,45.85,0,0,0,404,28a12.64,12.64,0,0,1,2.64-.15c.92,0,1.87-.08,2.88-.18,2.2-.39,3.17,0,5.7-.51,2.12,0,4,.27,7.46.21A27.68,27.68,0,0,1,429.37,29c2,.21,4.75-.3,7.17-.42,2.24-.26,4.61-1,6.85-1.24a11,11,0,0,1,3.33-.25c1.24.81,2.23-.21,3.34,0,1.16.46,2.14-.29,3.2-.12a12.62,12.62,0,0,1,3,0,53.21,53.21,0,0,1,7.54-.93c2.64.16,5.4-.6,8.09-.19,2.75-.66,5.45-.54,8-.93a18.41,18.41,0,0,1,5.25-2.72c3.63-1,7.47-.62,11.35-.38,2.9.18,5.83,1.31,8.69-.39a32.27,32.27,0,0,1,8.77-.74c2.95-.33,6-.56,9.1-1,3.52.47,6.19-.81,9.27-1.37a25,25,0,0,0,7.53-.25c2.45-.28,5.14-.33,8.14-.87a26.71,26.71,0,0,1,8.41-.85,53.68,53.68,0,0,1,6.64.16c2.17-.35,5.26-.13,6.87-.28,2.17.36,3.71.11,5.54.31a17.1,17.1,0,0,0,5.8.14c2-.21,4.05,0,6.08-.13,1.53.16,3,.32,4.21-.42a35.58,35.58,0,0,1,4-.17c1.27,0,2.52,0,3.75,0s2.37.08,3.53.12a33.94,33.94,0,0,0,6.91.15,20,20,0,0,0,4.22-.06,18.1,18.1,0,0,0,4.44.22,37.27,37.27,0,0,0,4.5.72c1.42,0,3,.58,4.53.27a20.19,20.19,0,0,1,3,.55c1,.17,2,.34,3.06.47,2.06.63,4.17-.17,6.28-.64,2.1-1.33,4.22-1.43,6.33-1.77,1-.87,2.06.34,3.09-.45,1,.14,2.05-.87,3.07-.82a12.84,12.84,0,0,1,3.07-1.09c1-.19,2-.27,3-.39,1.88.09,3.69-.49,5.5.31,1.85.28,3.81-1.34,5.76-1.35,2-.52,4-1.64,5.93-2.21a4.55,4.55,0,0,1,2-1.57c1.22.28,1.63-.73,3-.24,1.37-.87,3.32-.46,5.08-.58,1.75.31,3-.13,4.82,1.14,1.29.32,2.4.13,3.6.36a8.75,8.75,0,0,1,3.81,0,6.21,6.21,0,0,1,4,0c1.35-.28,2.57.37,3.85.48s2.54.13,3.91.42a17.74,17.74,0,0,0,4.11-.52,9.15,9.15,0,0,0,4.73-.19c1.59-.12,3.17-.24,4.74-.27a19.17,19.17,0,0,0,4,.44,8.17,8.17,0,0,0,3.3.17c1.23.53,1.64,0,3,.39s1.8-.2,3.17,0a12.53,12.53,0,0,0,3.74.25,17.39,17.39,0,0,0,3.61.05,32.69,32.69,0,0,1,3.36.11c1.24-.11,1.51.65,2.78.63a17,17,0,0,0,3.93.35c1.82-.36,4-.61,4.29-.39,4.75-.14,2,.34,5.26.32,1.6.5,2.75,1.15,4.11,1.51,1.47,0,2.89.72,4,.75,1.3-.1,3,.24,4.35.19a27.72,27.72,0,0,0,4.43.34c1.52.18,3-.11,4.41.08.7-.2,1.32.34,2,.12.64.31,1.35,0,2.14-.71,1.41-.4,3.3-1.28,4.25-1.07a19.58,19.58,0,0,0,4.16-.64,9.67,9.67,0,0,0,3.74-.29c1.26.36,3.15,1.36,4.34.31,1.68.35,3-.11,5,2,1.28,0,2.69,1.55,4,2.19s2.47-.43,3.77.17a8.68,8.68,0,0,0,3.94-.1,10.31,10.31,0,0,0,4.4,0,11.29,11.29,0,0,0,4.37-.55c1.21,0,2.77-.83,4.12-1.17,2-1.85,2.76-.76,4.08-1a4,4,0,0,0,3.66,0c1.15.15,2.6-.44,3.64-.05a29.61,29.61,0,0,0,3.75-.48c.87.93,2.61-.72,3.71-.45A20,20,0,0,1,857.8,12a4.79,4.79,0,0,1,3.42,0,16,16,0,0,0,3.21.74c1.06,0,2.16,1.08,3.3.76,1.16.1,2.37.32,3.58.33a14.26,14.26,0,0,1,3.62.12,3.9,3.9,0,0,1,3.24.06,17,17,0,0,1,3,.1c.39,0,1.08.13,1.3,0s1.08.14,1.93.38c1.66.31,2,.1,3.46.33a24.49,24.49,0,0,1,3.56.38,6.68,6.68,0,0,0,3.19.34c.62-.37,2,.26,3,.46.67.66,1.86.48,2.83.42.92.1,1.82-.05,2.38.77.4.36.07,1,1.15,1.21a6.86,6.86,0,0,0,4.11,1.08c1.34.49,2.27.27,3.53,1.26a4.15,4.15,0,0,1,2.65.5c1.64.08,3.2.17,4.76.21a71.42,71.42,0,0,1,7.89.27c1.91,1.86,4.14.63,6.46.28,2.32.23,4.72-1.47,7-1.79a6.6,6.6,0,0,1,6.16,2c1.14.45,2.28-.52,3.39.06,1.14-.51,2.17,1.2,3.32.22,1.08.12,2.21-.24,3.27.18a4.7,4.7,0,0,0,3.34-.05,4,4,0,0,0,3.51-.44c1.22-.26,2.54-.79,3.81-1a4.14,4.14,0,0,0,3.66-.09,10.14,10.14,0,0,1,3.78-.19,9.33,9.33,0,0,0,3.64.26c1.17.1,2.19-.7,3.37.34,1.12.38,1.93-.06,3.16.55,1.43.58,2.89,1,3.55.45,1.44.13,2.34-.38,3.71-.62,2.13.71,2-2.09,4-1.62,1.05-1,2.84-.39,3.85-1.19,1.34.23,2.6.47,3.61-.44s2.38-.55,3.63,0a7.16,7.16,0,0,0,3.61.42,19.15,19.15,0,0,1,4.2-.59,13.39,13.39,0,0,1,4.14-.09c2.75-.32,5.45.2,8.12,0,2.66.45,5.29.51,7.88.79a62.08,62.08,0,0,1,7.65,1.68,58.22,58.22,0,0,1,7.42,2.67c6.36-.88,11.87,3.05,18.38,1.53,6.82-.56,12.36.61,17.39,1.45,11.74-1.69,11.37,1,19.36.53,3.53-.2,6.54-.24,9.32-.18a34.11,34.11,0,0,1,8,.55c2.47-.38,4.15.42,7.07-.6,2.3-.1,4.6-.36,6.76-.34,2,.53,4.18.13,6.2,0,1.56-.61,3-.7,4.24.41,1.33.29,2.31,1.48,3.87,1.06.77,1.95,2.55.92,3.63,2.19.48,1.21,1.1,1.84,1.84,1.67a9,9,0,0,0,2.11.38c.84,1,1.46.08,2.22.19.74-.24,1.82.44,2.3-.24a25.1,25.1,0,0,0,4.53-.52c1.53,0,2.91-.1,4.34-.06,1.16-.48,2.64-.15,4-.15a29.54,29.54,0,0,0,3.84-.27c1.32,0,2.56-.36,3.91.11a11,11,0,0,1,3.84-.14,15.52,15.52,0,0,1,3.79,0,25.52,25.52,0,0,0,7.2-1.12c2.37-.55,4.69-1.22,6.91-1.89,4.46,2.21,8.65-2.39,13.56-1.94,1.87-3.15,6.16-2.78,10.45-2.59a20.16,20.16,0,0,0,5.55-.24c3.78.5,4.93-.49,7.43-.6a9.32,9.32,0,0,1,5.59-1.69c2-1.33,4.73-1.19,7.35-1.3a8.32,8.32,0,0,0,3.79-.08,20.62,20.62,0,0,1,3.48-.78c.93-.85,2.07-.83,3.11-1s1.85-.74,3.17-.4c.46-1,2.27.05,3.35,0a4.8,4.8,0,0,1,3.47.42,12.74,12.74,0,0,0,8.42.23c1.35-.09,2.68-.16,4-.17,1.31.21,2.58-.2,3.84.09,1.24-1,2.51.27,3.7,0a15.15,15.15,0,0,0,3.55.54,18.39,18.39,0,0,1,4.89.37,4.5,4.5,0,0,1,4.43.6c1.39,0,2.71.64,4,.65s2.46.61,3.59.12c1.14.12,2.21-.21,3.22-.06a4.71,4.71,0,0,0,2.85-.49c2.65.14,4.66-.94,6-1,1.35-.35,2-.6,2-.4V0Z"/></svg>