<svg id="elements" xmlns="http://www.w3.org/2000/svg" viewBox="0 0 550 45"><defs><style>.cls-1{fill:#4a455c;}</style></defs><title>rip-navMediumSmall-menu</title><path class="cls-1" d="M0,0V18l.21.19a2,2,0,0,1,1.87.61,1.55,1.55,0,0,0,2.1.42c.86.65,1.63.74,1.74-.48.85.81.46-.29.66-.45.37,0,1,.13,1.63.15,1.32.95,1.65.3,2.77.94a5.45,5.45,0,0,1,2.69,1.35c.5-1.49,1.11-1.92,1.93-1.44a3.67,3.67,0,0,0,1.87,0c.82.74,1.28.44,1.84.48.76.47,1.39.56,1.76.21a2.7,2.7,0,0,0,1.27-.05,1.88,1.88,0,0,1,1.46-.05,7.54,7.54,0,0,0,1.62.19,8.45,8.45,0,0,0,1.74,0c.54,0,1,.86,1.55.27.46.18.81.77,1.39.27.29.58.86.25,1.43,0,.44.17.81.54,1.58-.11.23.92,1.22-.62,1.67-.1.65-.5,1.16-.16,1.84-1.27.59-.45,1.14-.88,1.71-.43.55.75,1.13,0,1.71-.11,1.17-.38,2.42.55,3.67.55,1.15.79,2.11.15,3.09.37.83-.07,2,.65,2.9.88a4,4,0,0,0,1.34.2,6.84,6.84,0,0,0,1.51-.95c.92.22,1.72.7,2.25-.16.58-.4,1.11-1,1.66-1.42.55-.16,1.09-1.13,1.72-1,.58-.79,1.24.85,1.85-.25.65.49,1.3-.52,2,0a2.42,2.42,0,0,1,2.19.62c.77.07,1.76-.62,2.77.39,1,.74,2,.72,2.78-.91,1,.93,1.94.43,2.84-.08s1.81-.94,2.85-.32a1.38,1.38,0,0,1,1.36.54c.45.67.89-.13,1.34.37.44.15.87-.33,1.31,0,.44.11.86-.38,1.28-.44.33.93.56-.6.85-.27.29-.19.56-.79.85-.31.29-.09.58.22.86-.23.27-.82.56-.24.85-.35.29-.3.58-.07.87-.36s.59-.05.88.05c.91,0,1.86.6,2.8.56a13.05,13.05,0,0,0,2.93.19c.66,0,1.34.24,2-.21.67-.05,1.33-.45,2-.48.34-.11.67-.24,1-.37s.67-.29,1-.45c1.34-.2,2.66-1.1,3.94-.76,1.28-.53,2.5.24,3.72-.84,1.18-.11,2.29.88,3.43-.13a2,2,0,0,0,1.93,0c.66-.75,1.24.57,1.88.27a2.05,2.05,0,0,1,1.86.19,9.32,9.32,0,0,1,1.81.53,5.13,5.13,0,0,0,3.43.28c1.11-.59,2.13,0,3.18-.75s2.12-1.16,3.12-1.8a6.84,6.84,0,0,1,3.18-.46c2-.41,3.87-1.62,5.17-1.9a4,4,0,0,1,2.22-.37c1.44-1.51,2.39-2.26,3.22-2.49.81-.54,1.61,1,2.4,1.5a6.44,6.44,0,0,0,2.49,1.76c.43.35.87.87,1.29,1.14a.87.87,0,0,0,1.07-.08c.77.19,1.66.58,2.23.23,0-.52.91.07,1.52.28.1-.46,1.19,1.77,1.6,1.26.68-.63,1.3-1.33,1.68.55.71-.52.9.43,1.57,0,.42.45,1,.24,2-.74a4.13,4.13,0,0,0,2.14-.89,4.7,4.7,0,0,0,1.63,0c.24.41.3,1,1.07.47,0,.58.56.37.7.74.33.07,0,1.1.84.43.11.37.94-.21,1,.2.38,0,1-.35,1.25-.26.45-.33.76-.4,1-.17s.62-.24.79.4c.33-.19.52.58.88.41.65-.56.88,0,1.13.59.36.24.88.15,1.9-.3s1.72-1.11,1.47-.13c1-1.37.57.14.93-.05.44-.72.6-.31.87-.19s.74,0,1-.32c.22-.6.55-.89,1.11-.32.52.34.44-.84,1.13,0,.44.11,1.45,1.08,1.63.65.92.71,1.15.29,1.76.41.15-.46,1-.14,1.34-.38s.19-.76.91-.5c1.07.39,1,.25.93-.22.28.12.37,0,.53,0s.42.08.5-.23c.24.11.43-.09.65,0a.8.8,0,0,1,.66.24c.44-.06.87.4,1.3.18.22,0,.43.23.65.23a.73.73,0,0,0,.67-.11,1.74,1.74,0,0,1,1.43-.06c.49-.62,1-.06,1.51-.5.49-.25,1-.3,1.47-.6.49.54.95.11,1.4-.28.49-.76,29.32-.39,29.83-.36s1,1,1.51.12A11.6,11.6,0,0,1,230,12.84c1,.55,2,1.16,2.93,1.74,1.58,0,3.3.11,5.13.15H241a8,8,0,0,1,3,0c.87.34,2.09-.35,3.16-.49a3.68,3.68,0,0,1,1.62-.4c.47,0,1-.15,1.26,0a1.51,1.51,0,0,0,1.19-.11c.51-.28,1-.58,1.3-.4s.48.5,1.26-.25c.64-.49,1.33-1.11,1.48-.57.67-.48.75.12,1.3-.06.83-.66,1-.11,1.67-.27.55,0,.83.88,1.63.31.51.4,1.2,0,1.74.35.51.87,1.13.5,1.69.74.47,1.25,1.16-.06,1.71.2.6-.3,1.07.53,1.72,0s1.16-.17,1.8-.73c.41-.2.82-.47,1.11.15.43-.42.85-.73,1.09,0a3.2,3.2,0,0,1,2.25-.4,8.48,8.48,0,0,0,2.38-1.26,4.59,4.59,0,0,0,2,.29,32.91,32.91,0,0,0,4.29-.77c2,.18,4.25-.19,5.86,1.38a15,15,0,0,1,5.41,2.74c1.72.47,3.28-.84,5.48,2.22,2.21,1.33,4.61.69,6.9,2.12a11.07,11.07,0,0,1,3.64-1.47c.81-.93,1.93-.08,2.77,1.09.69.76,1.55.59,2.29,1.32.9,0,2,1.17,2.75-.15.89,0,1.41-.84,2.95,0,.3-.82,1.38-.3,2-.2s1-.28,1.77-.29c.78-.18,1.81.3,3-1.11l1.37.48c.46.15.91.3,1.37.43.91.29,1.87.18,2.83.82.75-.86,1.4,1.24,2.13.52a3.85,3.85,0,0,0,2.34.41,4.49,4.49,0,0,1,2.54.36,1.13,1.13,0,0,1,1.95.12c.63-.05,1.23.44,1.84.4s1.16.71,1.72.87c.14.81.56,1,1.22.93-.28.42-.28.57.23.51.59-.24.55,0,.68.15.19.47.83.44,1.77.1.6.17,2.22-2.09,2.34-.26.9-1.52.82,1.15,1.56.64.44.68.88,2,1.48.74.41,2,.93,1.6,1.44,1.56.46,1.24,1,.39,1.49.66.54-.64,1,.37,1.51.6s1,1.38,1.49,1.18c.5.38,1,.29,1.5.83a8.93,8.93,0,0,1,1.48,1.33,7.41,7.41,0,0,1,1.49.65c.52-.37,1,.12,1.5.42s1.07-1.24,1.52.23c.34.29.68.22,1,1.08.34.36.68.64,1,.59.68,0,1.35-.4,2,.14s1.36-.53,2.09,0c.51-.32,1.06-.12,1.64.24a13,13,0,0,1,1.77.54,3.18,3.18,0,0,0,.92.23c.26-.06.62.3.85.1.32.15.65.32,1,.43.19-.27.49-.22.68-.56.51-.37,1.06-1,1.72-.62.65-.34,1.48.89,2.12.49.64-.58,1.6.7,2.5,1.19a4.59,4.59,0,0,0,2,1.75,2.47,2.47,0,0,0,1.66.35,5.66,5.66,0,0,0,2.46-1.17c4.23,4.49,34.33-.35,36.62,2.22,1.31-1.1,2.66-.68,3.94-.57a1.87,1.87,0,0,0,1.89-.73c.6,1.64,1.22,1.71,1.85,1.72A3.92,3.92,0,0,0,439,39.17c.72-.28,1.42-.27,2.14-.52s1.31.38,1.93.43c.31,0,.62,0,.93,0a1.82,1.82,0,0,1,.88.07,5.05,5.05,0,0,1,1,0c.85-.84.79,0,1.1.25,1.3-1.47,1,.88,1.59.51a2,2,0,0,1,1.81.23,4.4,4.4,0,0,0,1.23.16c.31,0,.75.3,1,.23.42.18.53-.06.86,0,.21-.13.63,0,.78-.28.42,0,.84-.06,1.36,0s1.13.4,1.41-.26.81-.83,1.38-.6c.59.54.87-.83,1.36-1,.51-.78,1-1.25,1.45-1.09.41.34.9-.47,1.33-.84.43-.11.86-.58,1.22-.53a1.3,1.3,0,0,1,1.1-.58,1.61,1.61,0,0,1,1-.46c.33-.27.64-.14,1-.41a3.56,3.56,0,0,0,1.23-.27c.44,0,.91-.08,1.36-.08s.94-.08,1.59-.1c.29-.29,1.09-.26,1.58-.39.93-.31,1.51-.69,2.05-.88s.92-.64,1.32-.83c.44-.36.78-.28,1.25-.76.4-.1,1-.74,1.55-.95s1.36-.65,2-.05c1,.14,2,.06,2.95.11.9.45,1.82.09,2.78.2.94-.38,1.88.79,3,1.1a13.44,13.44,0,0,0,2.13-.15,17.5,17.5,0,0,0,1.77-.51,5.81,5.81,0,0,1,2,0c2.09,3.17,3.3,3.59,3.48,3,0-.79,1.33-1,1.49-1.73.8-.63,1.27-1.68,2.18-1.79a3.08,3.08,0,0,0,2.37-.91c.53,0,1.06,0,1.58,0l1.64,0c.53-.13,1.74.88,2,.44.65,0,1.75.44,1.92.14-.29-.72,1.16.1,1.22-.18.66.16.42-.48.91-.42s1.07.37,1.09-.59c.42,0,.84-.33,1.27-.49a3,3,0,0,1,2.56-.75,4.18,4.18,0,0,1,1.34-.29c.48,0,1-.07,1.64-.13,1.18-.35,2.62-.35,2.93-1.16a6.05,6.05,0,0,0,2-.93c.73-.28,1.55-1,2.5-.39.43-.17.9-1.22,1.34-.79.43-1.34.88-.07,1.33-.66.44-.41.88-.23,1.34-.54.42.28.87,0,1.3.37.45-.35.87-.06,1.3.28a1.23,1.23,0,0,0,1.3.07c.4-.55.81-.31,1.23-.16a3,3,0,0,0,1.24,0,9.75,9.75,0,0,1,2.45-.84c.82,0,1.61-1.14,2.43-1.47.78.08,1.55-1.17,2.35-1.16.79-.79,1.6-.18,2.38-1.16a1.17,1.17,0,0,1,.45-.22V0Z"/></svg>