<svg id="elements" xmlns="http://www.w3.org/2000/svg" viewBox="0 0 870 70"><defs><style>.cls-1{fill:#ea593e;}</style></defs><title>rip-enhancedpost-3</title><path class="cls-1" d="M870,0H0V68.08S2.49,64,3.63,63.27c.51-.52,1-1.05,1.7-.85s1-2.1,1.89-.78a4.94,4.94,0,0,1,2.6-.3,2,2,0,0,0,1.41-.25,2.7,2.7,0,0,0,2-1.14,16.54,16.54,0,0,0,1.65-2.88c.58-.38,1.22,1,1.69-1.18.76-1.7,2-1.43,3-2.32.57-.23.95-.71,1.47-1s1.42,0,2.16-.16c.58-.1,1.5.14,1.82-.46.59-.28.71-1.25,1.25-1.61.08-.94.8-1.13,1.52-1.34s1.43-.72,2-1c.13-.1.47-.07.73-.11a5.42,5.42,0,0,0,.73-.2c.58-.11.79-.19,1.22-.25a6.08,6.08,0,0,0,1-.15,5.57,5.57,0,0,1,1.45-.09,11.78,11.78,0,0,1,1.47.08c.44,0,.42.2,1.19.2s1.43.12,2.16.16a3.08,3.08,0,0,0,1,.1c.32,0,.72-.26,1-.17a13.5,13.5,0,0,1,2-.4c.52.29.51-.08.48-.29.33-.07.94-.48,1.22-.36.42-.4,2,.09,2.53-.62.46,0,.09-.21.2-.25-.25-.05,0-.06.42-.06a.74.74,0,0,0,.38-.2c.38-.06.76-.11,1.12-.13s.76-.08,1.21-.24a1,1,0,0,0,.58-.28c-.07-.11-.23-.23-.15-.3.7,0,.75-.26,1.12-.44s.3-.36.85-.52c4.11-.47,4.94-1.21,4.56-2.17C62,40.05,64.58,38.55,68.5,38a10.48,10.48,0,0,1,5.11-1.76A6.51,6.51,0,0,1,76.34,35a8.12,8.12,0,0,1,2.41,0c.86.05,2.51.43,3.27.5,1.34.81,1.54.5,2.39.91a5.35,5.35,0,0,0,1.88.47,14.85,14.85,0,0,0,3.45.8c.32-.09.72.12,1,.1a1.6,1.6,0,0,1,1,.47,3.53,3.53,0,0,1,1.75.87A19.45,19.45,0,0,1,96.2,40c1.48,1,2.6.78,4,.92a2.67,2.67,0,0,1,2.2-.77,2.18,2.18,0,0,0,2.71-.74c.75-.79,1.68-.29,2.53-.21a4.22,4.22,0,0,0,2.35.07c1.5-.22,2.74,0,3.89-.33A27.85,27.85,0,0,0,117.1,37c1.27.11,2.4-.67,3.69-.35,1.77.61,3.13-.72,5-1.29,1.64-.24,3.38-.33,5.18-.49,1.72-.9,3.58-.41,5.2-1.28s2.9-2.06,4.66-2c1.54-.44,3-1,5.09-.3,1.95.65,3.68.61,5.64,2.08,1.28-.44,2.66.11,4,.12,1.36.21,2.6.38,3.85.68,1.15-.72,2.84-.38,4.12,0a6.77,6.77,0,0,0,4.18.6c1.5.51,2.63-.09,3.89-.12a6.11,6.11,0,0,1,4.09.15,12.08,12.08,0,0,1,2.73.52,4.94,4.94,0,0,0,2.54.23,3.64,3.64,0,0,0,2.15-.07,20.48,20.48,0,0,0,4.65.83,9.31,9.31,0,0,0,4.22-.58c.84-1.32,2.29-1.58,3.86-1.91a15.07,15.07,0,0,0,4.57-1.6c1.61.14,2.77-1.48,5-2.6a28.12,28.12,0,0,0,5.6-2.94c1.8-2.14,3.73-.52,5.56.61,1.88.47,3.64,1.65,5.65,0,2.28,2.34,4.64,1,6.56,2.87a5.35,5.35,0,0,0,3.41.52,17.75,17.75,0,0,1,2-1.08c.5-.07,1.42.46,1.77.29.61.29,1.09.28,1.55.48a6.7,6.7,0,0,0,2.11.49c1.85-.19,2.28.48,4,1.17,1.66-1.07,1.68-.46,2.72-1,1.13-.1,2,.27,3.6-.39.62.48,1.88.3,2.78.44a8.5,8.5,0,0,0,2.31.59c.79.09,1.23.58,2.35.28.71.12,1.44.21,2.16.31a7.9,7.9,0,0,1,2,.52c1.29.52,2.76.25,4.11.26a6.5,6.5,0,0,1,1.69-.19c.57-.06,1.15-.13,1.76-.25,1.2-.35,1.92-.19,3.2-.64,1.23-.17,2.45-.25,4.52-.63,1.6-.16,3.19-.35,5.65-.43,1.48-.23,3-.84,4.62-1.25s2.81-1.09,4.26-1.51a6.66,6.66,0,0,1,2.13-.47c.73.71,1.36-.3,2-.09.56.56,1.25-.32,1.78-.1a2.33,2.33,0,0,1,1.62.11,18.07,18.07,0,0,1,4.84-1.25c1.32.36,4.35-1.12,5-.1,2.94-1.22,3.77-.48,5.54-.69a13.56,13.56,0,0,1,4.54-1.79c1.9-.31,3.63-.22,5.61-.72,1.36-.58,3-.48,3.68-1.93,1.26-.46,2.92-.32,5.26,0s5.16.51,7.72.52c2.51.81,4.78.09,7.14-.13a6.72,6.72,0,0,0,5.15.73c1.68-.17,3.57.11,5.51-.65a8.26,8.26,0,0,1,5.63-.62,32.76,32.76,0,0,1,4.8.57c1.48-.17,3.69.14,4.8.11,1.51.31,2.52.2,3.73.38a12.08,12.08,0,0,0,3.62.21c1.16-.08,2.39.08,3.53,0,.91.13,1.77.27,2.3-.3a10.92,10.92,0,0,1,2.2-.26c.71-.09,1.41-.15,2.11-.21s1.39-.07,2.07-.12c1.66.58,2.84-.22,4.3-.82a3.42,3.42,0,0,0,2.72-1.16c1.32.21,2.56.27,3.27-.4a9.79,9.79,0,0,0,3.55.51c1-.29,2.29.29,3.4-.42a11.7,11.7,0,0,1,2.21.11c.72,0,1.44,0,2.16-.06,1.4.28,2.79-.84,4.17-1.53a10.63,10.63,0,0,1,4-1.76c.65-.47,1.2,0,1.83-.46.59,0,1.22-.49,1.8-.51a8.52,8.52,0,0,1,1.78-.53c.58-.09,1.15-.15,1.68-.22,1,0,2.06-.32,3,.07,1.05.17,2.24-.87,3.37-.95,1.26-.44,2.62-1.32,3.92-1.87a5.09,5.09,0,0,1,1.61-1.23c.74.08,1.22-.64,2-.4,1.07-.7,2.26-.55,3.43-.75,1.12.08,2-.3,3.08.38.83.1,1.61-.11,2.4-.06A6.5,6.5,0,0,1,456,9.07a5.43,5.43,0,0,1,3-.13,10.27,10.27,0,0,1,2.83.24c.92.11,1.89,0,2.86.18A23.54,23.54,0,0,0,468,8.88a11.86,11.86,0,0,0,3.54-.24l3.12-.34a17.11,17.11,0,0,0,2.09-.13A6.39,6.39,0,0,0,478.32,8c.37.09.79-.13,1.3-.13s.95-.24,1.53-.31a9.24,9.24,0,0,0,1.8-.33A13.79,13.79,0,0,0,485,6.7c.69-.2,1.36-.41,1.91-.55.74-.29.58.11,1.38-.13a17,17,0,0,0,2.28-.28,7.09,7.09,0,0,1,2.92-.25c3.65.67,1.34.42,3.8.94.81.43.93.79,1.37,1.07,1,.22.8.52,1.62.67,1.22.17,1.87.44,3.09.62a19.91,19.91,0,0,0,2.62.72,24,24,0,0,1,2.75.9c.81.1.15.41,1,.52-.12.29.77.37,2.38.31,1.31.23,3.36.42,3.63.72a17.27,17.27,0,0,0,3.16.79,11.84,11.84,0,0,0,3.09.7c1.11.39,3.17,1.28,4,.94,1.47.28,2.24-.28,4,.59a6.93,6.93,0,0,1,3.21-.42c1.08.9,1.37-.07,2.48,1.17a3.81,3.81,0,0,0,2.45.19,11.44,11.44,0,0,0,2.64-.09,13.71,13.71,0,0,0,2.63-.08,14.28,14.28,0,0,0,2.47-.19c.94-1.05,1.62-.15,2.4-.12a2.64,2.64,0,0,0,2.31.6c.76.33,1.63.12,2.39.61a11.47,11.47,0,0,0,2.49.19c.77.83,1.69-.31,2.53,0a13.28,13.28,0,0,1,2.56-.32,3.48,3.48,0,0,1,2.48,0,9.82,9.82,0,0,0,2.36.34c.74-.06,1.52.69,2.3.3a16.15,16.15,0,0,0,2.39-.15,7.29,7.29,0,0,1,2.34-.48c.59-.51,1.08-1.06,1.92-.64a5,5,0,0,1,1.6-.66c.18-.19.57-.11.62-.42,0-.46.55-.1,1,0,.89.05,1-.42,1.72-.44.59-.15.89-.52,1.82-.41,1.12.49,1.35,0,1.75-.36.17-.79,1.2-.12,1.88-.05.75,1,1.34.34,1.91,0,.65,0,1.18-.37,1.88.76.41.44.44,1.33,1.22,1.45a3.57,3.57,0,0,0,3,.71c.92.37,1.46.14,2.35,1a2,2,0,0,1,1.62.41c1,.13,1.88.28,2.8.41a16.7,16.7,0,0,1,2.27.32,19.41,19.41,0,0,1,2.62.58c1.67,1.5,2.86.86,4.39.87,1.67.37,3.15-.46,4.8-.46a7.15,7.15,0,0,1,4.86,1.52c.89.31,1.71-.24,2.6.14.86-.29,1.73.82,2.57.23a9.8,9.8,0,0,1,2.48.24,4,4,0,0,0,2.5.16,3.21,3.21,0,0,0,2.61,0c.9-.06,1.85-.3,2.77-.27a3,3,0,0,0,2.55.47,6.26,6.26,0,0,1,2.47.42,5.41,5.41,0,0,0,2.22.65c.7.21,1.44-.15,2,.61.62.34,1.19.16,1.85.61a2.71,2.71,0,0,0,2.15.45,9.34,9.34,0,0,0,2.54-.26c1.22.4,2.19-1.06,3.33-.87,1.38-.49,2.18-.27,3.4-.7a4,4,0,0,0,2.46-.45c1.17-.57,1.66-.47,2-.25a2.48,2.48,0,0,0,1.66.06,8.25,8.25,0,0,1,2.09-.5,4.44,4.44,0,0,1,1.85,0c1.19-.1,2.56.2,3.74.18a10.36,10.36,0,0,0,3.27.51,10.5,10.5,0,0,1,3.16.26c1.12.57,2.24,1.24,3.17,1.72,4.37-.74,5.55,2.59,12.18,1.71,8.74,1,11.33-.41,16.31.27,8.19-2.34,9,2.22,13.5.89a26.8,26.8,0,0,1,5.91-.1,16.68,16.68,0,0,1,5.26.68c1.24-.43,2.55.34,3.71-.61a29.29,29.29,0,0,1,3.63.06,12.7,12.7,0,0,0,3.57.42,3.14,3.14,0,0,1,2.54.44c.81.19,1.42.76,2.33.59.51.91,1.51.39,2.14.93.28.55.66.83,1.08.71a5.9,5.9,0,0,0,1.26.1c.52.54.88,0,1.34,0,.44-.17,1.12.21,1.4-.22a13.5,13.5,0,0,0,2.83-.51c1,0,1.84-.21,2.76-.23a5.37,5.37,0,0,1,2.6-.23,21.83,21.83,0,0,0,2.69-.18c.95.12,1.9-.18,2.87.37a6.91,6.91,0,0,1,2.9,0,9.53,9.53,0,0,1,2.72,0,13,13,0,0,0,4-.77c1.26-.19,2.58-.38,4-.57,4.09.63,5.89-1.24,8.52-1.68a22.69,22.69,0,0,1,7.62-2.32,20.94,20.94,0,0,0,3.43-.82c1.68.05,3.66-.92,5.43-1.19,2-.86,4-1.66,5.91-1.5,2-.82,3.92-.37,5.9-.07a7,7,0,0,0,3,.6,17.74,17.74,0,0,1,2.62,0c.56-.68,1.43-.51,2.16-.57s1.25-.5,2.23.05c.28-.93,1.61.37,2.36.47a3.26,3.26,0,0,1,2.44.83,8.79,8.79,0,0,0,5.71,1.05c.92,0,1.83,0,2.71,0,.84.15,1.79-.29,2.57-.15,1.12-1.33,1.61-.14,2.51-.81a4.3,4.3,0,0,0,2.28-.56c1.19-.72,2.38-1.79,3.29-1.86,1.23-1.72,2.14-2.2,2.8-1.36.91-.66,1.56-.15,2.36-.68s1.32.43,2.17-.91c.64,0,1.34-.73,1.89-.49a1.38,1.38,0,0,0,1.72-.71c1.48.82,2.84-.46,3.64-.14.85,0,1.29-1.64,1.29-1.64Z"/></svg>