<?xml version="1.0" encoding="UTF-8"?>
<svg width="359px" height="43px" viewBox="0 0 359 43" version="1.1" xmlns="http://www.w3.org/2000/svg" xmlns:xlink="http://www.w3.org/1999/xlink">
    <!-- Generator: sketchtool 63.1 (101010) - https://sketch.com -->
    <title>4509E6D1-F82B-4AC2-BFA9-F23B50E75FCE</title>
    <desc>Created with sketchtool.</desc>
    <defs>
        <rect id="path-1" x="0" y="0" width="358.928386" height="52"></rect>
        <polygon id="path-3" points="0.000123365255 0 1431.03695 0 1431.03695 42.7393125 0.000123365255 42.7393125"></polygon>
    </defs>
    <g id="Page-1" stroke="none" stroke-width="1" fill="none" fill-rule="evenodd">
        <g id="juno-corporate-partners-page" transform="translate(-140.000000, -2211.000000)">
            <g id="Group-3" transform="translate(140.000000, 2211.000000)">
                <mask id="mask-2" fill="white">
                    <use xlink:href="#path-1"></use>
                </mask>
                <g id="Mask"></g>
                <g mask="url(#mask-2)">
                    <g transform="translate(-140.297741, 0.000000)">
                        <mask id="mask-4" fill="white">
                            <use xlink:href="#path-3"></use>
                        </mask>
                        <g id="Clip-2" stroke="none" fill="none"></g>
                        <path d="M0.000123365255,-7.63833441e-14 L0.000123365255,4.23997917 C2.47976498,4.15845833 5.02725749,4.042 7.66974124,3.86641667 C9.88908217,7.02602083 25.1259248,4.28208333 22.9793693,9.42147917 C27.0220487,9.5701875 31.1843924,9.22529167 35.2209036,9.42147917 C38.1458937,9.562125 37.3983003,10.7285 38.2828292,10.809125 C41.2139876,11.0751875 41.1226973,9.40983333 41.3447548,9.42147917 C49.3227858,9.80310417 54.8187079,12.0579167 65.8401597,10.809125 C68.9551324,10.4552708 67.3291784,9.74935417 68.9020854,9.42147917 C70.007438,9.18945833 74.3030162,9.82191667 75.0259366,9.42147917 C75.1937134,9.32741667 74.8396551,8.0436875 75.0259366,8.03204167 C78.6195665,7.80270833 84.5941458,9.21185417 90.3293964,9.42147917 C95.4009421,9.605125 100.561311,9.28083333 105.639025,9.42147917 C111.110274,9.03089583 111.917082,10.7329792 108.70095,10.809125 C109.454712,12.3177083 114.789025,11.7506458 114.824801,13.5862083 C124.763106,14.3897708 129.062385,12.6393125 136.252112,12.1976667 C138.028572,13.485875 145.448992,15.6976875 151.561741,16.3632917 C158.224698,17.087125 167.965618,14.7902083 176.050977,16.3632917 C177.443771,16.6311458 178.478805,18.4299792 179.112903,19.1385833 L182.174828,19.1385833 C181.187906,18.2938125 189.172106,15.1485417 191.359372,16.3632917 C191.551821,16.4663125 195.754876,18.7076875 197.484457,17.7500417 C197.638663,17.6649375 197.329016,16.3686667 197.484457,16.3632917 C199.31273,16.2898333 203.045762,17.646125 206.669,17.7500417 C210.179975,17.8521667 212.153819,17.7948333 212.794085,19.1385833 C224.32997,18.0716458 227.427671,20.8317083 237.283321,20.527125 C242.414082,17.0754792 252.526332,20.1652083 258.716801,20.527125 C267.296854,21.0278958 275.640046,20.8379792 283.206037,21.9156667 C284.257109,22.064375 288.695791,21.5618125 289.328655,21.9156667 C289.796209,22.171875 288.809287,23.0775625 289.328655,23.3024167 C289.854191,23.5335417 291.876148,23.0695 292.390581,23.3024167 C292.797686,23.4869583 291.918092,24.5610625 292.390581,24.6909583 C293.874665,25.1030417 296.899581,24.3774167 298.514432,24.6909583 C299.083146,24.8029375 299.782627,25.7543125 301.577591,26.0795 C304.213907,26.5596667 308.035762,25.6969792 310.762134,26.0795 L313.82406,26.0795 L313.82406,24.6909583 C323.901768,24.6345208 329.060903,22.3483542 341.375222,23.3024167 L344.438382,23.3024167 C348.803044,19.0785625 370.982883,19.602625 371.987077,24.6909583 C378.303378,25.53125 393.260181,22.451375 390.359864,27.4680417 C400.884154,26.8606667 407.51627,28.0171875 414.847867,28.8565833 C417.634688,33.1467292 431.092604,32.5984792 430.157495,38.5745833 L436.28258,38.5745833 C438.889288,38.3192708 439.170561,39.1156667 439.344506,39.963125 C445.773069,39.1237292 447.41136,41.2468542 451.592208,41.3516667 C461.794515,41.6042917 472.833238,37.6545625 476.080211,42.7393125 C482.174455,40.8741875 490.655816,40.0930208 497.514924,38.5745833 C509.450512,38.6704375 519.060666,38.442 528.128012,38.5745833 C533.575822,38.6543125 534.634296,40.1485625 540.375714,39.963125 C543.179807,39.87175 545.010547,38.3963125 549.560258,38.5745833 C548.580738,38.5360625 551.605654,39.8475625 552.622183,39.963125 C554.541747,40.1817083 556.796864,39.7956042 558.739866,39.963125 C561.150423,41.2925417 573.990279,38.232375 577.11142,39.963125 C577.255757,40.0401667 576.991756,41.349875 577.11142,41.3516667 C583.523946,41.4260208 588.401808,38.2906042 595.482974,41.3516667 C603.370948,39.8368125 610.195514,37.8435833 613.849593,34.41075 C621.456294,34.6176875 626.556214,33.6913958 629.159221,31.6336667 C640.711143,33.3330625 649.515722,36.2857292 665.894926,35.7983958 C666.236648,38.4213958 676.019513,36.7614167 675.07947,39.963125 C682.710844,38.7949583 691.484581,38.146375 702.631866,38.5745833 C699.994316,43.473 707.559074,39.8484583 714.879568,39.963125 C719.143071,40.0294167 720.972578,41.6213125 724.065345,41.3516667 C732.958746,40.5731875 741.013264,39.242875 739.374973,35.7983958 C742.932827,35.57175 744.821549,36.1047708 745.498824,37.1869375 C751.030522,35.974875 749.20595,35.3773542 757.739125,34.41075 C759.47364,34.211875 760.970061,33.0123542 760.80105,33.0222083 C766.806471,32.6844792 772.476338,36.3439583 773.048753,30.245125 C776.028024,30.28275 775.423534,31.9445208 776.110679,33.0222083 C779.668532,32.7955625 781.559722,33.3285833 782.235763,34.41075 C787.181476,34.8004375 787.50346,33.0974583 791.420307,33.0222083 C796.785462,31.7528125 806.694159,32.5447292 809.786926,30.245125 C814.33787,31.8845 823.469366,31.4464375 822.033395,35.7983958 C843.101713,35.4973958 859.017064,37.5372083 874.079962,39.963125 C875.02494,38.0791875 881.747112,38.8110833 886.327664,38.5745833 C886.705162,35.5081458 899.310624,37.9842292 904.69305,37.1869375 C907.103607,38.5163542 919.943463,35.4570833 923.064603,37.1869375 C926.16724,38.9069375 925.367833,37.7253333 932.251614,35.7983958 C934.277271,35.2295417 936.204237,35.0369375 938.374232,34.41075 C938.991058,34.2315833 940.927892,34.6391875 941.431223,34.41075 C941.71743,34.28175 941.095669,33.0750625 941.431223,33.0222083 C946.142542,32.2786667 946.896303,34.6409792 950.615766,34.41075 C954.448724,34.1715625 955.842752,32.1783333 959.801543,31.6336667 C967.432917,30.5828542 975.751436,32.4551458 984.296948,30.245125 C987.155321,29.2274583 988.93178,27.7197708 990.414631,26.0795 C1000.03095,29.74525 1011.64456,25.4273333 1017.97073,23.3024167 C1026.83452,23.7557083 1028.06077,24.1203125 1039.39927,24.6909583 C1045.87595,25.0179375 1050.40839,26.3894583 1054.7089,26.0795 C1058.79846,25.7865625 1059.47573,23.4869583 1063.89344,23.3024167 C1067.91268,22.2345833 1087.5512,16.9814167 1088.38268,23.3024167 L1100.63038,23.3024167 C1098.20996,28.105875 1104.03403,29.16475 1106.75423,31.6336667 C1120.67724,30.1206042 1124.62369,24.6291458 1140.43048,27.4680417 C1149.47809,25.0295833 1164.46943,22.9799167 1164.92465,30.245125 C1170.31818,30.6419792 1174.40404,23.7082292 1177.17235,27.4680417 C1184.36702,25.4479375 1191.75783,30.7817292 1201.66159,28.8565833 C1203.01367,28.5932083 1201.30383,27.3515833 1204.72352,27.4680417 C1209.8185,27.6427292 1210.5846,28.0270417 1210.84737,30.245125 C1214.98627,28.8807708 1216.96505,26.5408542 1220.03315,24.6909583 C1236.7183,24.0656667 1245.18609,27.1670417 1262.8927,26.0795 C1267.47449,28.1658958 1268.36765,31.9266042 1275.13794,33.0222083 C1279.54578,33.7988958 1282.6077,35.1874375 1284.32248,37.1869375 C1291.91561,36.9808958 1299.17936,36.9271458 1299.63087,39.963125 C1302.9531,39.6200208 1301.70588,37.2030625 1305.75103,37.1869375 L1317.99873,37.1869375 C1322.57805,35.5601042 1330.52153,35.4597708 1333.30589,33.0222083 C1335.7843,33.2846875 1336.35794,34.4143333 1339.42974,34.41075 C1345.25381,35.3648125 1353.76108,35.35675 1357.79759,37.1869375 C1359.67028,38.0352917 1357.40652,38.2081875 1360.85952,38.5745833 C1365.51162,39.0690833 1372.68531,37.6214167 1373.10352,39.963125 C1379.21257,38.1051667 1386.37762,36.7264792 1388.41315,33.0222083 C1390.93103,32.3109167 1398.61916,33.9467083 1400.65838,33.0222083 C1400.8681,32.92725 1400.43509,31.6524792 1400.65838,31.6336667 C1402.54464,31.4786875 1416.96357,32.7776458 1419.02994,31.6336667 C1419.16564,31.5575208 1418.91274,30.245125 1419.02994,30.245125 C1421.06916,30.2325833 1422.61246,31.4186667 1425.15132,31.6336667 C1426.50587,31.7474375 1428.58951,31.7510208 1431.03708,31.7205625 L1431.03708,-7.63833441e-14 L0.000123365255,-7.63833441e-14 Z" id="Fill-1" stroke="none" fill="#F5DFD0" fill-rule="evenodd" mask="url(#mask-4)"></path>
                    </g>
                </g>
            </g>
        </g>
    </g>
</svg>