<svg id="elements" xmlns="http://www.w3.org/2000/svg" viewBox="0 0 1400 50"><defs><style>.cls-1{fill:#e2ebf1;}</style></defs><title>rip-contact-locations</title><path class="cls-1" d="M1397.31,32.21v1.63a93.93,93.93,0,0,1-13.89-2.42c-.55-.15.37-1.22-.13-1.42-1.17-.46-5.29.53-6.58.12s.78-2.39-.26-2.85c-3.93-1.72-10-1.76-10.26-4.09-4-.62-7.6-1.38-10.13-2.67-9.55.14-8,2.45-12.89,3.07-4.18.53-6.86,1.23-9.73,1.59-3.51.45-5.26-.72-6.71-1.3-2.27-.91-10.38.9-13.15.23-7.62-.31-3.27,4.16-9.47,4.43-.83-1.09-.35-2.8-3.55-2.78-.06-.79-2.81-1.57-3.29.05-4.94-.16-12.08.72-13.28-1.19-2.24-2.64-7.62-3.39-10.26-4.09-6.1-1.61-6.47-2.32-10.26-4.09-1.69-.79-2-2-3.55-2.79-.8-.39-5.38.32-6.58.12-3.51-.59-7.41-.92-10-1.25a118.47,118.47,0,0,0-13.28-1.2c-4.92-.14-6.73,1.45-9.73,1.6-5.43.26-8.28-.74-13.29-1.2-2.79-.25-2.26-1.17-3.42-1.36-2.83-.47-7,.59-9.86.17-4.26-.62-4.2-1.44-6.84-2.73-.84-.41-5.35.36-6.58.12-.44-.09-2.16-1-3.42-1.37-2.35-.59-4.48-.79-6.71-1.3-6-1.37-7.13-2.45-13.41-2.62s-13.24,2.08-19.6,1.77c-3.36-.77-2.34,1.33-3.15,1.48-11.46,2.09-28.22-4.24-36.17.62-12.25,2-21.42,5.14-39.06,4.95-15.92-.88-11.3,6.44-29.2,4.78-8.5-.95-15.31-1.84-19.59,1.76-3.68.21-5.32-2-6.58.11-13.71,1.47-22.39-1.09-29.73-.9,1.08,0-2.09,1.31-3.15,1.47-2.84.43-6.88,0-9.87.17-.17,0,.29,1.33.14,1.43-1.69,1-4.05-1.4-3.42-1.37-12.39-.63-15.35,1.58-22.89,1.82-5.78.19-10.36-1.27-13.28-1.19-11.59.3-22.51,2.43-32.75,2-17.13-.74-30.57-6.9-49.85-4.83C834.49,16,832.14,15,828.52,14c-1.81-.47-2.18-1-3.42-1.36-.54-.17.33-1.2-.13-1.42-.87-.43-5.35.38-6.58.11-.49-.11.3-1.25-.13-1.42-1.71-.68-7.18.4-6.71-1.31-18.75-.61-35.81-2-49.84-4.82-5.65,1.39-16.37.77-19.47,3.18-9.59.54-10.4-3-20-2.5-.65,2.94-8.52,3-12.76,4.49-.2,2.43-8.1,1-13,1.65-1.43.18-3.7,1.53-3.15,1.48-6.17.53-14.75.16-19.73.34-5.57.21-10.35,2-13.15.23,2.71,3.82-15.6-.75-12.89,3.07-6.11.3-10.9,1.12-12.89,3.07a113.38,113.38,0,0,1-20.26-5.34c-2.25-.9.31-.86-3.42-1.37-4.6-.62-12.33,1.07-13.28-1.19-.27-.86-.65-1.67-3.42-1.36l-36.17.63c-5.76,3.08-9.09.08-13.15.22-6.94.26-10.22,1.78-16.31,1.71-4,0-12.52-.78-16.57-1.14-.27,0,.09-1.31-.13-1.42-.6-.29-5.57.16-6.58.12-21.64-1-35.11-1-49.19,2.27-4.31-1.9-10.3-.63-16.57-1.13-3.22-.26-4-1-6.71-1.31-3.73-.42-9.43.61-10-1.25-5,1.9-14.21,3-19.47,3.19-3.25.13-2,1.29-3.15,1.47-2,.32-4.58-.14-6.58.12-2.25.28-2.64,1.39-3.16,1.47-5.15.81-13.64.84-19.59,1.77-6.12,1-14.37,1.48-16,4.54-18.92-.31-24.77,2.46-39.46.69-3.08,3.25-12.4,6.33-15.77,7.39-2.95.92-3.55,2.08-6.32,3-1.43.45-4.3,0-3.15,1.47-17.75.42-17.37.95-29.46,1.94-7.95,2.3-25.46.79-32.62,3.41-4.8-.71-8.23-2.08-10.26-4.09-.7-1.82-5.35-1.23-10-1.25-2.89,0-2.73-1.31-3.41-1.37-5.24-.43-11.14.56-16.44.29C183.7,32,183.36,31,178,31c-1.83,0-4.13-1.36-3.42-1.36a72.07,72.07,0,0,0-19.47,3.18c-3.3.23-4-1.29-6.7-1.31-3.25,0-2.29-1.22-3.43-1.36-3.68-.45-9.29.25-13.14.23-3.15,0-2.41-1.25-3.42-1.37-3-.33-6.77.41-9.87.17-4.28-.32-4.68-1.21-10-1.24-3.8,0-1.55-.89-3.42-1.37-8-2-25.13-.45-33-.85-.21,0,.06-1.32-.13-1.42-1.63-.81-4.23,1.45-3.16,1.48C63.2,25.6,58,25.08,52.28,24.63,44.24,24,32.6,22.46,29,22.19c-3.17-.24-6.69.41-9.86.17-.25,0,.08-1.31-.14-1.42-.57-.28-5.59.15-6.57.12L0,20.61V50H1400V34.34Z"/></svg>