<svg id="elements" xmlns="http://www.w3.org/2000/svg" preserveAspectRatio="none" viewBox="0 0 1020 60"><defs><style>.cls-1{fill:#ea593e;}</style></defs><title>rip-curriculum-immersive</title><path class="cls-1" d="M1020,60V28.76a10.94,10.94,0,0,1-2.27.1,14.53,14.53,0,0,0-5.33-.19,36.17,36.17,0,0,0-4.93-.84c-.51-.23.87-.69-1.94-.63s.37-.44-3.65-.55a64.37,64.37,0,0,0-6.7-1.72c-.55-.41,0-.76-3.16-2.66-.58-2-1.2-5.21-3.65-5.17-3,1.36-3.16-2.27-5.79,1.46-1.39.47-1.92-.52-2.6.07-3,.71-5.09,0-7.35.6a11,11,0,0,0-7.74,0c-1.54-1-4.17-1.38-7.49-2.28-3.78.29-8.76,1.71-13.24-.41-4.3-.51-8.09-1.12-12-1.63a122.81,122.81,0,0,0-12.49-1.1c-3.21.32-5.87.5-8.19.58a34.41,34.41,0,0,0-6.17,0c-2.36.59-4.25-1.41-6.76-.89-1.48-3.49-4.56-.68-6.3-2.11-2.64-.57-5.52-.68-8.33-1.87-3.35.9-6.29-.63-9.56-2.16C871.08,6,867,6.63,862.93,5.18c-5.67.12-11,2.1-14.82.76-4.35.67-8.27,2.22-11.55,2.91s-6,1.57-8.94,2.25a29.06,29.06,0,0,1-9.92.69c-6.07,1.13-10,3.75-15.33,4.15-4.73-2-8.62-4.2-14.28-5.68a12.11,12.11,0,0,0-4.78,1.15c-1.16.43-2.84.8-8.29,1.41a12.64,12.64,0,0,0-7.95.66c-2.93.07-6.53.24-9.26-1-8-1.15-9.55-4.15-13.38-1.23-2.76.4-5-.22-12.42,0a16.8,16.8,0,0,0-6.44-1.66c-2.13-.18-4.4.45-6.11-.59-1.82-.84-4.64,2.43-6,.38-2.41,2.08-3.5-.58-5.7,1.28-1.06-2.53-3.2-.63-5.14.66-1.33-1-3.66,1.93-5.48,3-2.77,0-5.87,1.82-8.1-.16-2.61-.69-5.57-.38-8.94-.12-7.41-.17-10.83.95-12.25,1.61-9.38,0-7.9.44-9.11.54-4.49-.52-6.48-.7-5.82-.25-4-.59-5-.1-8.32-.15-3.08.61-5.43.37-8,2.28-1.06,2.82-5.17,1.13-8,1.59-1.93.92-5.14.86-7.49,1.47a62.23,62.23,0,0,0-8.33.35c.58.7-.16,1.94-3.32,1.17-2.57-.66-4.64.28-5,2a45.57,45.57,0,0,0-4.7,1.09,20.3,20.3,0,0,1-5.38.76c-1.71-.13-3.79,1.19-5.66,2.12-1.73.33-3.9,2.72-5.12,2.08-1.44-.72-4.53,4.93-5.86,3.8-1.72.38-3.61,1.4-5.28,1.6-3.42.67-6-1.81-9.95.9-3.11-.4-7,2.33-10.43,3a6.46,6.46,0,0,1-5.06.76c-1.54-.38-3-1.18-4.52-1.69-3.41.23-6.09-3.07-9.73-3.33-3.07-2.52-7.45.07-10.22-2.41-1.75.86-4,.26-6.1.75A5.86,5.86,0,0,1,512.09,36c-3.51.73-5.89,2.09-8.89,2.61-3.73-.39-6.22,1.42-9.52,1.58-3.34.33-7.24,1.28-10.48.86-3.1-.74-5.75-1.61-9.37-.9-1.51-.11-3.44,1-4.87.36-1.46,1-2.75,1-4.06,1.36-2,.85-3.92.56-5.95.43a20.33,20.33,0,0,1-3.51-.74,48.37,48.37,0,0,0-8.31-1.74C431.9,37.37,428,37,424.69,36.93a29.52,29.52,0,0,1-10.26-1.07c-3.13-1.76-6.72-2.13-10.87-1.18-4,.25-7.53-1.53-11.25-2.37-3.6-1.15-6.75-4.67-11.23-2.32-3.15-2.78-7.59.17-11.09,1.62q-3.08-.2-6.26-.18a56.35,56.35,0,0,1-6.48.26c-2.34.75-4.21-.45-6.7.74a50.13,50.13,0,0,1-7,1.28c-5.29.37-10.32.51-14.89-1-5.43,1.91-10.33,2-15.32,2-3.57-.15-7.15-.23-10.72-.28s-7.12-.08-10.65-.14-6.64-1.43-10-2.16c-2.91-2.32-6.87-.81-11.35,1.63-4.36,3.07-6.84-1.33-10.35-1.84-3.64,0-6.1-4.76-10.57-1.82-3.55-.45-6.81-2-10.73-.55-3.16-1.81-6.62-.12-10.89-1.44-3.86-.09-7.13.1-10,.28s-4.7.29-7.28.42c-4.9,0-6.93,0-7,.34-1.46.14-5.61-1-5,.1-2-.16-4-.74-5.35-.85a11,11,0,0,1-4.47-.5c-1.45.63-3.54,0-5.78-.31s-4.8-1.9-8.35-.43a21.48,21.48,0,0,0-10.95-1c-3.33.86-6.11,1.65-8.18.84a27.65,27.65,0,0,1-6.45,1.33c-2,.42-3.74.36-5.89,1.41-3.64.29-7.42-.13-12.26,2.74a39.77,39.77,0,0,1-6.58,1.14,19.86,19.86,0,0,0-7.09,2.21c-3.24,1.35-6.36,3.4-8.29,1.44-2.66.9-4.29-1.59-6.94,0-2.2-.12-4.54.44-6.67-.2-2.28-.07-4.25-1.74-7.46.56-5.16.34-9.46-.17-13.4-2.07-5.22-1.19-8.83-.64-12.79.1-2.84.58-5.45-.42-8.51.56-1.44.4-2.92.34-4.63,1.26s-3.3.16-5.45,2c-2.46-1.06-5.33-.17-8.1-.29-2.75.48-5.68-.61-8.5.21-3.26,1.68-6.05-.47-9.14.07-3.37-3.34-7.19-1.1-11.07,0C3.43,39,2.59,38,0,37.53V60Z"/></svg>