<svg id="elements" xmlns="http://www.w3.org/2000/svg" viewBox="0 0 600 50"><defs><style>.cls-1{fill:#38334c;}</style></defs><title>rip-company-news2</title><path class="cls-1" d="M598.85,32.64v1.07a28.38,28.38,0,0,1-6-1.58c-.24-.11.15-.81-.06-.94-.5-.3-2.27.35-2.82.08s.33-1.57-.11-1.86c-1.69-1.13-4.29-1.16-4.4-2.69A11.38,11.38,0,0,1,581.17,25c-4.09.1-3.43,1.61-5.52,2-1.8.34-2.94.8-4.17,1a3.44,3.44,0,0,1-2.88-.86c-1-.59-4.45.6-5.64.15-3.26-.2-1.4,2.74-4.06,2.91-.35-.72-.15-1.84-1.52-1.83,0-.51-1.2-1-1.41,0-2.11-.1-5.18.47-5.69-.78-1-1.73-3.26-2.23-4.4-2.68a14.39,14.39,0,0,1-4.39-2.69c-.73-.51-.84-1.31-1.53-1.82-.34-.26-2.3.21-2.81.07-1.51-.38-3.18-.6-4.29-.82a33.55,33.55,0,0,0-5.69-.78c-2.11-.09-2.88.95-4.17,1-2.33.17-3.55-.49-5.7-.79-1.19-.16-1-.77-1.46-.89-1.22-.31-3,.39-4.23.11-1.82-.41-1.8-.94-2.93-1.79-.36-.27-2.29.24-2.82.08a16,16,0,0,0-1.47-.9c-1-.38-1.92-.52-2.87-.85-2.56-.9-3.06-1.61-5.75-1.72s-5.67,1.37-8.4,1.16c-1.44-.5-1,.87-1.35,1-4.91,1.37-12.09-2.78-15.5.41-5.25,1.28-9.18,3.37-16.74,3.24-6.82-.57-4.84,4.23-12.51,3.14-3.65-.62-6.57-1.21-8.4,1.15-1.58.14-2.28-1.29-2.82.08-5.88,1-9.59-.72-12.74-.6.46,0-.9.87-1.35,1-1.22.28-2.95,0-4.23.11-.08,0,.12.87.06.93-.72.65-1.74-.91-1.47-.89-5.31-.41-6.58,1-9.81,1.19-2.47.12-4.44-.83-5.69-.78-5,.2-9.65,1.6-14,1.31-7.34-.49-13.1-4.53-21.36-3.17a26.92,26.92,0,0,1-4.34-1.75,15.12,15.12,0,0,1-1.47-.89c-.23-.11.14-.79-.05-.94-.37-.27-2.29.26-2.82.08-.21-.07.13-.82-.06-.93-.73-.45-3.07.26-2.87-.86-8-.4-15.35-1.32-21.36-3.16-2.42.91-7,.5-8.35,2.08-4.11.36-4.45-2-8.57-1.64-.27,1.93-3.65,2-5.46,2.95-.09,1.59-3.47.67-5.58,1.08-.62.12-1.59,1-1.35,1-2.65.35-6.33.1-8.46.22-2.39.14-4.44,1.28-5.64.15,1.17,2.51-6.68-.49-5.52,2-2.62.19-4.67.73-5.52,2a35.82,35.82,0,0,1-8.68-3.5c-1-.59.13-.57-1.47-.9-2-.41-5.29.7-5.69-.78-.12-.57-.28-1.1-1.47-.89l-15.5.41c-2.47,2-3.9,0-5.64.15-3,.16-4.37,1.16-7,1.12-1.71,0-5.36-.52-7.1-.75-.11,0,0-.86-.05-.93a16.06,16.06,0,0,0-2.82.08c-9.28-.63-15.05-.63-21.08,1.49-1.85-1.25-4.42-.41-7.1-.75-1.39-.17-1.71-.65-2.88-.85-1.6-.28-4,.39-4.28-.82-2.13,1.24-6.09,1.95-8.35,2.08-1.39.09-.86.85-1.35,1-.83.21-2-.09-2.82.08s-1.13.91-1.35,1c-2.21.53-5.85.54-8.4,1.15s-6.15,1-6.88,3c-8.1-.2-10.61,1.62-16.91.45-1.32,2.14-5.31,4.16-6.76,4.85-1.26.6-1.52,1.37-2.7,1.94-.62.29-1.85,0-1.36,1-7.6.27-7.44.61-12.62,1.26-3.41,1.52-10.91.52-14,2.24a6.79,6.79,0,0,1-4.4-2.68c-.3-1.19-2.29-.8-4.28-.82-1.24,0-1.17-.86-1.47-.89-2.24-.29-4.77.36-7,.18-1.85-.14-2-.8-4.29-.82-.78,0-1.76-.89-1.46-.89A21.21,21.21,0,0,0,66.49,33c-1.42.15-1.72-.85-2.88-.86-1.39,0-1-.8-1.47-.89-1.58-.3-4,.16-5.63.14-1.35,0-1-.82-1.47-.89-1.3-.22-2.89.27-4.22.11-1.84-.21-2-.8-4.29-.82-1.63,0-.66-.58-1.46-.89-3.42-1.34-10.78-.3-14.15-.56-.09,0,0-.87-.06-.93-.7-.53-1.81.95-1.35,1-2.43-.11-4.63-.45-7.1-.75-3.45-.4-8.44-1.42-10-1.6-1.36-.15-2.87.27-4.23.12-.1,0,0-.87-.06-.94a17,17,0,0,0-2.81.08L0,25V0H600V34Z"/></svg>