<svg id="elements" xmlns="http://www.w3.org/2000/svg" viewBox="0 0 1050 40"><defs><style>.cls-1{fill:#f2f7f5;}</style></defs><title>rip-campus-location2_1</title><path class="cls-1" d="M4.42,21.89a27.42,27.42,0,0,1,3.36-.08,15.94,15.94,0,0,0,4.11.1c1.43-.33,2.94,0,4.52-.26a6.38,6.38,0,0,1,1.84.6c.61.26,1.2.83,1.86.39.71-1.24,1.2.84,1.9.35.66,0,1.52-1.62,2.13-.65.71,0,1.52-.72,2.28-1.08.64,1.13,1.53-.88,2.29-1.29.71-2.23,1.49-.9,2.22-1.74.68-1.71,1.49-.1,2.13-1.53a5.57,5.57,0,0,0,2.3.56c.73.06,1.42-.31,2.15.45.72.5,1.39-.81,2.15.35.8,1.8,1.49.54,2.28.83.67,0,1.38-3.21,2.07-1.59.73.38,1.49-1.17,2.22-.26.78-1.72,1.51.58,2.25-.39.73-.75,1.49.14,2.2-.59a2.38,2.38,0,0,0,2.26.27,7.15,7.15,0,0,1,2.2-.74,4.37,4.37,0,0,1,2.22-.47c.68-.61,1.5-.15,2.22-.44a9.13,9.13,0,0,1,2.28-.29A22,22,0,0,1,64.14,14a2.75,2.75,0,0,0,2.3-.15c.72-.13,1.32-.71,2.16-.2,1,.12,2,.2,2.9.28s1.76.27,2.59.43c1,.77,1.67.44,2.58.94.71-.1,1.67.51,2.63,1.09.6-.21,1.74.73,2.46.87a3.2,3.2,0,0,1,2.16.53,3.58,3.58,0,0,1,1.91-.26,5.05,5.05,0,0,0,2.06-.44,23.07,23.07,0,0,0,2.3-.6c.8-.21,1.58-.36,2.45-.59a18.45,18.45,0,0,1,2.76-.55,9.52,9.52,0,0,0,2.89-.23,15.28,15.28,0,0,1,3.17,0,5.21,5.21,0,0,1,3.36.15,18.77,18.77,0,0,1,4.44.59,9,9,0,0,1,2.44-.2,18.08,18.08,0,0,0,2.44,0c.89.18,1.84.51,2.6-.18.56-.62,1.58-.5,2.34-.74a5.71,5.71,0,0,1,1.88-.93c.27-.5.54-1.07,2-.76.66-.28.38-1.77,1.57-1.34.6-.69,2,0,2.37-1.1,1,.15,1.79-1.63,2.71-1.26,1-.73,1.81-.47,2.7-.9,1.49.36,3.16-.32,3.89.74a4.45,4.45,0,0,1,2.07,0,9.93,9.93,0,0,0,2.07.3,5.2,5.2,0,0,1,2.27.53c1.27,0,2,.32,2.26.73.9.4,2.43.64,2.41,1.13a13.16,13.16,0,0,1,2.95.82c.81.3,2.56.27,3.05.83a3.36,3.36,0,0,1,2,.38,9,9,0,0,1,2,2.09c1.07.82,2,.38,2.92.36,1-1,1.91-.27,2.72.67,1-.24,1.44,1.17,2.6,1.11a8.14,8.14,0,0,0,2.71,1.1c0,.62,1,.94,1.89,1.32,1.3.37.19.79,1.37,1.11a5.27,5.27,0,0,0,1.6,1c1.51.25.86.84,2.41,1a8.51,8.51,0,0,1,2.6.88,5.65,5.65,0,0,0,2.5.83,6.2,6.2,0,0,0,2.75.24,11.06,11.06,0,0,1,2.94-.35c.68.77,1.48,1.89,2.48,1.73,1,0,2,.84,3.11,1.41a29.44,29.44,0,0,1,2.85,1.38c1,.19,2.24-.19,3.9-2a8.51,8.51,0,0,1,2.88-.51c.95-.49,1.93-.17,3.14-1.22.57.31,1.32-.4,2.19-.21.44.09.91-.24,1.41-.62a3.15,3.15,0,0,1,1.55-1c.53-1.15,1.09-.42,1.65-.89.56.1,1.14.17,1.71-1,.65.22,1.31.66,2,0,.67-.91,1.35-.81,2-1.71s1.37-.34,2.05-.71c.68.38,1.36-.09,2-.53.67.27,1.33.63,2-.28.64-.67,1.27.13,1.86.06.76-.77,1.5.17,2.23-.94.73.41,1.46-1,2.18-.69a4.38,4.38,0,0,1,2.16-.41c.72-.29,1.44-.07,2.17-.43s1.46-1,2.19-.2c.74-.37,1.49.53,2.25-.08,1.16-.2,2.31.14,3.4-.37,1.09-.21,2.11-1,3-.89.46,0,.89-1.12,1.3-1.07.4-.68.78-.91,1.11-.8.72-.45,1.39-.51,2-.91.66-1.42,1.3.05,2-1s1.34.71,2.12-.36c.71,1.16,1.5,1.44,2.42,1a13.38,13.38,0,0,1,5.83.94,15.57,15.57,0,0,0,2.9.27,2.46,2.46,0,0,1,2.77.45c.93.06,1.8.35,2.73.4s1.75,1,2.75.39,1.94.05,2.88.65c1,.34,1.64,3,2.87,1.3.47,1.08,1.46-.85,1.93.39.51.7,1.28.29,1.85.66.75-.32,1.35-.09,2.17-.63.73-.28.93,1.2,1.81.55,1.07-1.74,1.43-.42,2.17-.76s1.53-1.47,1.94-.2c.44.69,1.45-1.17,1.95-.11.56.54,1.5-.91,2.2-.83.79-1,1.5-.88,2.24-1.1.75-.61,1.49-1.23,2.2-.95.74-.13,1.43-1.55,2.14-.88a3.26,3.26,0,0,0,2.07,0c.78,1.54,1.35.1,2,.41a7.84,7.84,0,0,1,2,.55,5.78,5.78,0,0,0,2.11,1.7c.73.83,1.29-.1,1.95,0,.6-.74,1.3.21,1.93.15.65.53,1.28.81,1.87.17A2.12,2.12,0,0,1,317,14.46c.62,0,1.6-2.08,2-.91.83-.75,1.42-.46,2.26-1,1.28-1.41,1.56-.31,2.62-1a14.19,14.19,0,0,1,4-2.79c.37-.36.42-1,1.32-.84s1.62.06,1.53-.75a9,9,0,0,1,2.56-.19c1,0,1.74-.34,2.72-.43,1.47.56,1.89-.4,2.91-.48a11.37,11.37,0,0,1,3.2.79,14.65,14.65,0,0,1,2.44-.22,11.74,11.74,0,0,0,2.24-.3c.64-1.34,1.44-.15,2.14-.35A3.34,3.34,0,0,0,351,5.41a3,3,0,0,0,2-.19,19.7,19.7,0,0,1,2,.41,10.58,10.58,0,0,1,1.92.65c.6.25,1.16.53,1.7.82a13,13,0,0,1,3.57.47c.64.13,1.31.28,2,.44l2.22.55c.51.25,1.11.22,1.67.45a3.24,3.24,0,0,1,1.79.48,3.28,3.28,0,0,0,1.94.17c.62.3,1.23,1.24,1.92.85.65.24,1.31.66,2,.38a3,3,0,0,1,1.93.72,3,3,0,0,0,1.87.8c.65-.17,1.08.89,1.71.82.89,1.27,2.32.59,3.31,1.35,1.2.09,2.31.49,3.46.51a8.37,8.37,0,0,1,5.07.06c.86.21,1.73.39,2.58.52s1.67.11,2.45.26c.75.77,1.53,1.41,2.33.74.79-.15,1.61.33,2.43-.1a7.81,7.81,0,0,1,2.46-.06c.82-.53,1.63.6,2.42.35a11.5,11.5,0,0,1,4.19,1.25c1.41,1.15,2.91.63,4.68.38a24.41,24.41,0,0,1,4.83,0l2.36.07c.78-.33,1.55.58,2.32.13a3.27,3.27,0,0,0,4.48.68c1.55.77,3.1.59,4.53.82a5.58,5.58,0,0,1,3.07-.23,3.6,3.6,0,0,0,3,.37,20.31,20.31,0,0,0,3,.07c1,.73,2-.35,3,.56a2.72,2.72,0,0,1,3-.09c1-.36,2,.07,3.06-.91,1.7,1,3.39.64,5.09.19.84.12,1.69.33,2.54.5a9.2,9.2,0,0,1,2.55.24c.86.27,1.72-.09,2.59.19.87-.36,1.74.29,2.61,0a12.55,12.55,0,0,1,2.6,0,6.29,6.29,0,0,1,2.59.39c.55-.11,1.1-.22,1.67,1,.56.62,1.13-.51,1.7.51,1.14-.34,2.3.18,3.47.06,1.17.07,2.34-1.18,3.5-.57.88.11,1.74-.53,2.59-.23s1.69,1,2.54.65c.84.24,1.68,1,2.53.73a21.89,21.89,0,0,0,2.56,0c.56.18,1.12.45,1.67.59.56,1.64,1.12.12,1.67.9.56-1.34,1.11,1.19,1.66.59.56,0,1.11.4,1.66.45a4.32,4.32,0,0,0,3.33-1.57c3.25.82,6.46,1,9.8,2.17,1.78,1.11,3.43,2,5,1.12,1.56,0,3-2.32,4.52-1.72,1.46-.08,2.91-1.6,4.4-2.19a4.62,4.62,0,0,1,4.56-2.51,11.25,11.25,0,0,1,2.55.25c.86.17,1.74.92,2.62.64.88.1,1.76,2.19,2.63.7.86,1,1.72-.85,2.55-.38s1.84.32,2.76.66c.92-.92,1.84.8,2.76.68.92.4,1.84,1.74,2.75,1.46.92-.08,1.83-1,2.75-.66a5,5,0,0,1,2.72,0,2.22,2.22,0,0,0,2.7-.95c.87.35,1.76,0,2.62.41s1.77-.2,2.6.22c.87,0,1.74.09,2.6.15a5.34,5.34,0,0,0,2.61.21,2.59,2.59,0,0,0,2.64.22,3.35,3.35,0,0,1,2.63.62c1.78.57,3.66,0,5.43.84a7.33,7.33,0,0,0,2.67,1c.88.51,1.75-.41,2.62,0,.58-.93,1.16-.29,1.73.43.58.21,1.15.54,1.73.19,1.14,1.5,2.28.34,3.42-.11a1.71,1.71,0,0,0,1.7-.77c.56.41,1.13-.32,1.69-1.62,1.69.66,3.39-.39,5.09.28,1.7-.53,3.4.2,5.1-.77.86-.13,1.71-.22,2.57-.31s1.71-.63,2.58-.22c.85-.52,1.8.16,2.64-.24a2,2,0,0,0,2.65-.36,33.86,33.86,0,0,1,3.79.52c1-.45,2.2-.55,3.19-1.08a2.4,2.4,0,0,0,1.76,0c.45-.52,1-.88,1.59-.6a3,3,0,0,1,2.6-.52c.92.68,1.71-.2,2.54-.72.92,1.19,1.68-.61,2.53.1a3.16,3.16,0,0,0,2.5-.83,17.65,17.65,0,0,0,6.27-.59c2-.41,4.06.66,6.07-.41a8.53,8.53,0,0,1,3-.38,10.33,10.33,0,0,0,3.06-.3A5.68,5.68,0,0,0,658,19c.79-.23,1.59-.66,2.42-.18.83-.34,1.67,0,2.52-.3.85,0,1.71.46,2.57-.32a8.77,8.77,0,0,1,5.07-.5c1.64-.2,3.21-.35,4.64.9a12.48,12.48,0,0,0,2.37.15c.8.14,1.61.4,2.44.5.83.95,1.67-.05,2.53,0a21.1,21.1,0,0,0,2.65-.42c1.13-.95,2.32-.68,3.58-.71,1.25.4,2.56.11,3.92-1.73,1.36-.2,2.77-1.71,4.22-2.36a11.05,11.05,0,0,0,3.56.71,4.18,4.18,0,0,0,1.89.35,4.8,4.8,0,0,0,2-.55,7.18,7.18,0,0,1,2-.73c.69-.15,1.39-.7,2.11-.45.58-.48,1.19-.27,1.8-.18.62-.5,1.25,0,1.88-.37.63.21,1.27-1.37,1.9-.73a4.7,4.7,0,0,1,1.9-.83c.63-.32,1.25-1.19,1.86-.79.6.78,1.2-.32,1.77-.62.56-1,1.12-.71,1.68-1.22a5.22,5.22,0,0,1,1.65-.8c1.09-.93,2.15,0,3.18-1.18a2.63,2.63,0,0,0,1.52-.7,13.49,13.49,0,0,1,1.46-1.27c.65.28,1.26-.44,1.84.51.58-1.2,1.12-.22,1.65-.28A2.92,2.92,0,0,1,734.16,4c.51,1.55,1-.67,1.58-.52a1.74,1.74,0,0,0,1.69-.38c.6-1.18,1.23.35,1.92.3s1.39.78,2.14.69c.75.75,1.53.13,2.32,1.11.8,1.58,1.61.37,2.42,1.63.82.61,1.65,1.48,2.44,1.34.76,2.25,1.51,2.16,2.25,1.92.67.43,1.3.81,2,.55.74,0,1.12,1.65,1.69,2.14.62.2,1.35-.09,1.85.54.66,0,1.55-1,1.85.39a5.71,5.71,0,0,1,2-.16c.86-.87,1.15.82,2.15-.78.84-.87,1.16,1,2.29-1.44,1.17,2.53,2.77,2.19,4.45.45s3-3,4.4-1.8c1.39.27,2.75-1.12,4.08-.7a22.94,22.94,0,0,1,2.87.09,19.78,19.78,0,0,1,2.86.22,6.25,6.25,0,0,1,3,.91c1,.27,2.11,1.45,3.15,1.42a7.06,7.06,0,0,1,3.08.73,7.61,7.61,0,0,0,3,.6c.92.47,1.86.16,2.76.3a3.51,3.51,0,0,1,2.62-.12,4.15,4.15,0,0,1,2.5-.17c.79.34,1.64-.11,2.46-.29a5.22,5.22,0,0,1,2.5-.3c.85.13,1.72-.39,2.6-.33a37.74,37.74,0,0,1,3.83.52,10.8,10.8,0,0,0,3.84.57c1.24-.67,2.49.22,3.66-.92,1.45,1.21,2.79,2.32,4.1,1.72a5.16,5.16,0,0,0,4,.13,5.94,5.94,0,0,1,4.24.87,6.59,6.59,0,0,1,3.09-.08,25.15,25.15,0,0,0,3.06.4c1,.31,2-.14,3,.1,1,0,1.85.48,2.84-.1a29.73,29.73,0,0,0,3.48-.34c.54-.08,1.13-.4,1.57-.14s.89.16,1.61-.5a2.89,2.89,0,0,1,3.23-.62c1.24-2,2.13-2.21,2.76-.73,1-.41,1.43,1.95,2.35,2.27a2.43,2.43,0,0,1,2.89,1c1.11-.21,1.39,1.81,2.68,1.58a4.31,4.31,0,0,0,2.49.82c.75.51,1.43,1.33,2.69.29.76.37,1.48.83,2.39.24.81-.3,1.39.47,2,.71a6.24,6.24,0,0,0,2,.57,5.69,5.69,0,0,1,2.45.13c.86-.5,1.69,1.34,2.53.06a22.31,22.31,0,0,0,2.36.5,7.45,7.45,0,0,0,3.11.58c1.09,1.18,2.22.29,3.36-.82,1.14-.72,2.28-.95,3.41-1.71a10,10,0,0,0,2.78.13,7.44,7.44,0,0,1,2.78.12c.93-1.05,1.86,0,2.78-.54a7.77,7.77,0,0,1,2.77-.35c1.84,0,3.68-1,5.51-1.14a12.48,12.48,0,0,0,2.77-.38c.92,0,1.82-.69,2.76.34,1,1.82,1.85,1.06,2.77,1.55a2.41,2.41,0,0,1,2.72,1.63c.92-1.28,1.87.17,2.77-1,1,2.27,1.74-3.18,2.68-1.7a17.58,17.58,0,0,0,5.29-2.34c1.77-.66,3.55-.33,5.35-1a25.82,25.82,0,0,1,5.42-.06,6.37,6.37,0,0,1,2.76.46c.93.83,1.86.25,2.81.89,1.88.66,3.74.37,5.56.57a13.19,13.19,0,0,0,2.69.53,14.42,14.42,0,0,0,2.63,0,2.16,2.16,0,0,0,2.54.49c.83-.6,1.65.12,2.45-.33s1.76.29,2.59.69c.83.1,1.64,1.17,2.44.33.79.66,1.56-.39,2.32,0,.76-.11,1.52-.18,2.28-.33s1.52-.33,2.29-.48c.79-1.36,1.52.59,2.34-.35.7,1.72,1.53.76,2.2,1.42.72-.06,1.31.58,2.12-.36.72-.26,1.73-2.32,2.11-.45.63.25,1.21.75,1.92.7,1-.94,1.87-1.3,2.2.18a2.16,2.16,0,0,0,2.07.78,1.42,1.42,0,0,0,1.89.89c.53.53,1.35.35,2.13.29a8.76,8.76,0,0,1,2,.39c.37.87,1.08.88,1.95.42a8.63,8.63,0,0,1,1.88.48c.61.16,1.2.33,1.76.51,3.26,1,6.76.22,9.49,1.1a2.8,2.8,0,0,1,3.22-.31,10.91,10.91,0,0,1,1.44,1.32c.42-.24,1,1.41,1.43,1.83.52,1.22,1,1.46,1.4,1.51.48.81.93.8,1.41,1.2,1.11.92,2.17,1.47,3.18.94.51-.13,1-1.14,1.5-.65.49-.56,1-.78,1.46.25a14,14,0,0,1,2.76.07,2.36,2.36,0,0,0,2.56.22,2.38,2.38,0,0,1,2.38-.25c.75.21,1.48-.28,2.17.11.69-.56,1.35,0,2,1.18.62.61,1.22.4,1.77.57a14.39,14.39,0,0,0,3,1.45c.84,1.15,1.55.74,2.12-.15,1.13-.32,1.71-.6,1.71.33V0H0V25C0,22.54,1.61,22.05,4.42,21.89Z"/></svg>