<svg preserveAspectRatio="none" id="elements" xmlns="http://www.w3.org/2000/svg" viewBox="0 0 550 88"><defs><style>.cls-1{fill:#4a455c;}</style></defs><title>rip-footer-mailinglist</title><path class="cls-1" d="M0,0V82.49c3.67,1.5,9.44,1.17,12.49,3.2,1.3.13,1.52-1.06,2.57-1.11,1.49-.07,1.94-1.37,2.57-2.21s.64-1.52,1.28-2.22c.82-.88,3.18-1.23,3.86-2.21.33-.48-.12-1.65,0-2.21.23-1.08.85-1.35,1.28-2.22.82-.13,1.76.18,2.57,0,3.65-.78,6-5.37,9-5.53,0,0,1.08,1.75,1.28,0C36,65.11,38,64.33,39.46,63.56A12.17,12.17,0,0,1,42,62.45s-.05,1,0,1.11c1.37,1.43,7.61-1.93,6.43,1.1,1.71,1.58,7.27,1.58,9,0,.17,1.56,2.1.85,3.86,1.11,2.16.31,4,0,5.14,1.1,1.87-1,5-.87,3.85-4.42,3.19.16,5.33-.57,6.42-2.21.34-4.88,9.51-2.14,12.85-4.43.42,0,.85,0,1.28,0,1.45-.07.61-.78,1.28-1.11,2.84-1.35,6.61-1.51,9-2.21h9c1.3.29.84-.63,1.28-1.11,1-1.05.6-.78,2.57-1.1,1.81-.3,4.82,0,5.14,1.1,1.67,1.47,6.79.25,7.7-2.21.28-1,1.09-1.07,2.57-1.11,2.95-.07,7.32,2.15,10.28,2.22,5.28.12,4.27-5.17,9-5.54,4.08-.89,6.13,1,7.7,1.11,1.31.12,1.52-1.11,2.57-1.11-.37,0,.78,1,1.29,1.11a9.22,9.22,0,0,0,2.57,0c1.2-.19.77-.92,1.28-1.11,2.93-1.08,5.21.63,5.14-2.21,3.28-1.42,6.17-1.59,9-3.32.21-.13-.19-.94,0-1.1.44-.38,2.08.34,2.57,0s-.39-1.85,0-2.22c1.47-1.39,3.83-1.51,3.85-3.32a9.21,9.21,0,0,0,3.85-2.21c3.73,0,3.21,1.8,5.14,2.21,1.65.36,2.72.87,3.85,1.11,1.39.3,2-.64,2.57-1.11.86-.73,4.08.57,5.14,0,3-.33,1.43,3.2,3.85,3.32.29-.86,0-2.18,1.29-2.21,0-.61,1-1.26,1.28,0,1.92-.19,4.74.39,5.14-1.11.78-2.08,2.85-2.74,3.85-3.32,2.32-1.33,2.44-1.89,3.86-3.31.62-.64.69-1.59,1.28-2.22.3-.31,2.11.17,2.57,0,1.35-.5,2.86-.81,3.85-1.1a23.85,23.85,0,0,1,5.14-1.11c1.91-.18,2.68,1,3.85,1.11,2.13.13,3.2-.69,5.14-1.11,1.08-.23.84-.94,1.29-1.11,1.08-.4,2.74.37,3.85,0,1.64-.54,1.58-1.17,2.57-2.21.31-.33,2.1.2,2.57,0a5.63,5.63,0,0,0,.55-.51l31.05-2.17a4.43,4.43,0,0,1,.51.47c4.84,1.35,8.54,3.7,15.41,3.32,6.18-.9,4.64,4.85,11.56,3.32,3.28-.85,5.9-1.63,7.7,1.1,1.45.11,2-1.61,2.57,0,5.4,1,8.69-1.15,11.56-1.1-.42,0,.87,1,1.29,1.1,1.12.29,2.68-.11,3.85,0,.07,0-.07,1,0,1.11.69.74,1.53-1.14,1.28-1.11,4.81-.65,6.05,1,9,1.11,2.26.06,4-1.13,5.13-1.11,4.53.08,8.87,1.59,12.85,1.11,6.65-.81,11.67-5.78,19.26-4.43A22,22,0,0,0,394,18.19c.68-.39.81-.81,1.28-1.11.21-.13-.17-.93,0-1.1.32-.34,2.1.22,2.57,0,.19-.09-.16-1,0-1.11.64-.55,2.82.21,2.57-1.11,7.29-.72,13.89-2,19.26-4.42,2.26,1,6.41.38,7.71,2.21,3.76.29,3.95-2.5,7.71-2.21.36,2.27,3.43,2.21,5.13,3.32.17,1.88,3.2.69,5.14,1.1.57.13,1.5,1.14,1.29,1.11,2.42.33,5.75-.08,7.7,0,2.18.09,4.11,1.37,5.14,0-.92,3,6.06-.79,5.14,2.21,2.39.16,4.29.73,5.14,2.22a28.76,28.76,0,0,0,7.7-4.43c.85-.73-.15-.67,1.29-1.11,1.77-.54,4.85.67,5.13-1.1.08-.68.2-1.31,1.29-1.11h14.13c2.36,2.32,3.55-.06,5.13,0,2.72.1,4,1.24,6.43,1.11a60.31,60.31,0,0,0,6.42-1.11c.1,0-.09-1,0-1.11s2.17.05,2.57,0c8.4-1,13.65-1.21,19.26,1.11,1.62-1.54,4-.63,6.42-1.11A21.6,21.6,0,0,1,550,10V0Z"/></svg>
