<svg id="elements" xmlns="http://www.w3.org/2000/svg" viewBox="0 0 1100 60"><defs><style>.cls-1{fill:#fff;}</style></defs><title>rip-blogenhanced-bottom</title><path class="cls-1" d="M1100,0V23.35l-.4-.41a8.7,8.7,0,0,1-3.8,0,12.23,12.23,0,0,0-4.33-.23,5.36,5.36,0,0,0-1,.27c-.11.24-.22.5-.33.76l-2.72,0a2.46,2.46,0,0,0-1.71.53,6.41,6.41,0,0,0-3,.64,7.39,7.39,0,0,1-4.16.36,2.55,2.55,0,0,1-.51-.11,8.89,8.89,0,0,0-4.32,0,23.75,23.75,0,0,0-3-.67,19.56,19.56,0,0,1-4.79-1.23,21,21,0,0,0-6.62.33c-1.26-.05-2.49-.17-3.76-.17-.34,0-.68-.15-1-.18a5.23,5.23,0,0,0-3.85.72,2,2,0,0,1-.53.2,21.3,21.3,0,0,1-6.41-.27,26,26,0,0,0-3.79-.18c-.7.25-1.33.45-1.9.68a4.8,4.8,0,0,1-3.08.29,11,11,0,0,0-4.81-.19c-1.17.23-2.47.09-3.72.29a10.87,10.87,0,0,1-4.32-.22,5.82,5.82,0,0,0-3.18,0,6.6,6.6,0,0,1-3.19.11,3,3,0,0,0-1.05-.09,36.24,36.24,0,0,1-6.6.28,11.8,11.8,0,0,0-2.69.29,6,6,0,0,1-3.18,0,7.56,7.56,0,0,0-1.57-.25,2.52,2.52,0,0,1-.6,1.46,1,1,0,0,1-.92.21,3.21,3.21,0,0,1-1.28-.47,6.74,6.74,0,0,1-.91-1.29.36.36,0,0,0-.12-.08l-.54-.07c-.16,0-.42-.11-.42-.17v0l-.33,0a4.94,4.94,0,0,0-2,.4,3.55,3.55,0,0,1-2.5.13,2.55,2.55,0,0,0-1.55.14,4.3,4.3,0,0,1-3,.37,5.64,5.64,0,0,1-3.13-.12,3.09,3.09,0,0,0-2.38.4,1.57,1.57,0,0,0-.47.5c-.22.44-.37.9-.55,1.34l-2.69,1.41c-.89.72-.28,1.38-1.39,1.78-.86-.46.1-1.13-.73-1.59a2.38,2.38,0,0,0-1.62,1,6.32,6.32,0,0,1-3.72,1.55l-1.43.23-6.81-.1c-.67.23-1.27.45-1.89.65s-1.54.49-2.13.67a12,12,0,0,0-1,.82c-.69.76-1,1.61-2.39,2.17a.9.9,0,0,0-.51.48,3.29,3.29,0,0,1-1.37,1.51c-.3.18-.49.55-1,.54-3.11-.07-4.48-2.37-7.51-1.32-1.73.59-1.27,1.57-2,2.43-.25.28-.47.78-1,.68s-.12-.43-.57-.59l-2,.09a12,12,0,0,1-2.36-.84c-.46-.43-.27-.88-.3-1.33l-2.81.79-1.62-.29a19.44,19.44,0,0,1-4.81.33,5.19,5.19,0,0,0-.56,0,4.94,4.94,0,0,0-3.7.93,4.28,4.28,0,0,1-1.84,1c-.44.12-1,0-1.1-.36-.05-.16-.07-.33-.11-.5a8.82,8.82,0,0,1-3.68-1.15A8.19,8.19,0,0,0,914,38a27.6,27.6,0,0,1-3.42-.43c-1.37-.37-2.5.17-3.77.09a15.76,15.76,0,0,1-3.71-.48,5.7,5.7,0,0,0-2.67-.07c-1.21.2-2.46.36-3.7.54l-1.81,1-2.19-.23a22.43,22.43,0,0,1-8,1.56l-2.18,1.62a2.48,2.48,0,0,1-.56,0,3.81,3.81,0,0,0-3,.27c-.48.28-.89.58-1.27.84a29.3,29.3,0,0,0-7.16,1.62c-1.26-.16-2.32-.67-3.75-.52l-3.52.69c-.4,0-.75-.1-1.1-.13l-1.13-.1a6.36,6.36,0,0,1-1.55.74c-3.18.71-6.1,1.67-9.16,2.52a10.92,10.92,0,0,1-4.1-2.63,4.05,4.05,0,0,0-2.82-.71c-.72,0-1.43.16-2.16.2-1.62.1-2.23.94-3.66,1.25l-4.37-.12a16.32,16.32,0,0,0-4.73-1.39,2.5,2.5,0,0,1-.88-.32,6,6,0,0,0-2.88-.74,11.48,11.48,0,0,1-2.62-.42,3.17,3.17,0,0,0-1.59,0,20.35,20.35,0,0,1-3.25.29,7.63,7.63,0,0,0-2,.43c-.91.32-1.72.72-1.9,1.31s-.93,1-1.41,1.51a4.53,4.53,0,0,1-2.52,1c-.52.07-1,.17-1.55.26a5.29,5.29,0,0,0-2.64-.17c-1,.22-2.08.33-3,.47a7.78,7.78,0,0,1-3.63,1.77c-.37,0-.74,0-1.08-.12-1.93-.38-2.16-.36-3.33.29-.48.27-.93.56-1.14.69a5.08,5.08,0,0,1-4.5-.87,2.59,2.59,0,0,0-.55,0,6,6,0,0,1-3.13,0c-1.24-.49-2.92-.22-4.22-.61a1.09,1.09,0,0,0-1,.12c-.39.33-.37.87-1.31,1.09a3.72,3.72,0,0,0-1.53.78,6.39,6.39,0,0,1-2.64,1c-1,.22-2.15.29-3.16.5s-1.45.8-2.55,1a23.75,23.75,0,0,0-2.68.84c-1.46,0-2.75.06-4,.11-.91,0-1.53.53-1.35,1s.2.7.29,1.06a3.94,3.94,0,0,1-2.69-.78c-1.17-1.3-3.21-2.26-5.07-3.29a7,7,0,0,0-1.24-.43c-2.08.24-2.12.23-3.12-.27-.52-.26-1-.55-1.54-.8a4.63,4.63,0,0,0-3.53-.17,5.31,5.31,0,0,1-1.81.46c-1-.16-1.92-.26-2.72-.47s-1.45-.58-2.22-.82a18.17,18.17,0,0,0-3.76-.94c-2.42,0-5.18-.36-7.91.21a12.18,12.18,0,0,1-2.2.06c-1.29,0-2.59,0-4-.06a25.36,25.36,0,0,1-7,1.57,3.57,3.57,0,0,0-1.34.47,13.6,13.6,0,0,0-1.31.83l-4.17.53c-1.17-.33-2.14-.61-3.12-.87-.32-.08-.69-.11-1.11-.17-1.29.15-1.25,1.17-2.4,1.14-1.35,0-1.14-1.19-2.67-1.44-.47-.08-1.12,0-1.44-.16s-.06-.65-.65-.83a22.43,22.43,0,0,1-5.28-2.75c-.06-1.37-2.28-2.2-2.74-3.42l.48-1c-.29-.6-1.16-1-1.91-1.38-1-.51-.74-1.23-1.33-1.8a2.52,2.52,0,0,0-.61-.47L679.77,38a36.31,36.31,0,0,0-4.47-.55,14,14,0,0,1-3.13-.49,4,4,0,0,1-1.24-.53,11.23,11.23,0,0,1-1.16-.93c-1.81-.37-3.79-.09-4.95-.37-1.48-.41-2-1-3.24-1l-1.66.18-.33-.08a7.74,7.74,0,0,0-1,.37c-.65.32-1.08.75-1.69,1.09a5.38,5.38,0,0,1-2,.42c-1.43.13-2.26.58-2.53,1.29a3.74,3.74,0,0,1-.32.53,2,2,0,0,1-.42,0,2.51,2.51,0,0,0-1.8-.36,22.59,22.59,0,0,1-4.26.47,1.53,1.53,0,0,0-1.22.44,3.18,3.18,0,0,1-2.49.22c-1-.27-1.84-.61-2.69-.9l-4.62-.12-10.16-2.1H620l-1.68.81-3.12-.61a13,13,0,0,1-4.44.13l-1.51-.79-5.78-1c-1-.46-2-1-3.12-1.48s-2.21-1-3.32-1.45-2.33-.9-3.42-1.4a5,5,0,0,0-3.1-.27,7.94,7.94,0,0,1-2.65.3c-.88-.11-1.74-.27-2.39-.37-1.82.31-3.37.61-5,.85-1,.15-2.14.21-3.06.3a7.67,7.67,0,0,0-.82.5,4.57,4.57,0,0,1-3,1.08c-.71,0-1.4.19-2.07.29l-2-.62-2.59.29c-1.07.1-2.14.18-3.33.28a13,13,0,0,0-2.25-.69,17,17,0,0,1-3.46-.83,13.51,13.51,0,0,0-3.42-.88,18.76,18.76,0,0,1-3.91-1l-2,.22-4.18-1a24.84,24.84,0,0,1-5.4-.49,3.83,3.83,0,0,0-2.91.51c-.36.24-.5.53-.23.78s.9.59,1.26.91a2.4,2.4,0,0,1,.5.78c.1.23-.39.59-.83.65a1.31,1.31,0,0,1-1-.19,7.89,7.89,0,0,0-3.66-1.83c-.85,0-2,0-3.06-.06s-2.14-.13-3.2-.2a5.33,5.33,0,0,1-3.91.7c-.54-.06-1-.26-1.54-.31a25,25,0,0,0-2.74-.16,40.36,40.36,0,0,0-5.26.78,2.37,2.37,0,0,0-.84.36c-.33.22-.54.49-.9.7a3.15,3.15,0,0,1-2,.31c-.54-.08-1-.2-1.54-.31a5.2,5.2,0,0,0-3.1.25c-1,.41-2,.8-3,1.18,0,.43-.09.8-.15,1.17a1,1,0,0,1-.15.55,1.2,1.2,0,0,1-.68.39,2.78,2.78,0,0,1-1-.06,2.69,2.69,0,0,1-1.45-.82,1.85,1.85,0,0,0-1.22-.51c-3.13-.06-6.29-.33-9.34.3a10.74,10.74,0,0,1-3.83.08,31.19,31.19,0,0,1-5.58-1.17c-1.6-.62-3.32-1.17-4.81-1.86-2-.36-3.21-1.25-4.75-1.78a16.7,16.7,0,0,0-5.07.15,17.12,17.12,0,0,1-6.5,0c-1-.19-2.09-.35-3.25-.55-.46-.22-1-.48-1.56-.72s-1.15-.44-1.63-.62a27.11,27.11,0,0,1-4.48.48,19,19,0,0,0-4.35.29,1.71,1.71,0,0,1-.53-.08,17.48,17.48,0,0,0-3.84-.21c-2.59,0-5.22-.1-7.78.06a36.49,36.49,0,0,0-5.78.94,4.2,4.2,0,0,1-1.62,0,17.61,17.61,0,0,0-4.85-.45,13.38,13.38,0,0,1-3.21-.38,5,5,0,0,0-3.1.23,9,9,0,0,1-3,1.15c-2.1-.13-3.51-1-5.1-1.31-1,.13-1.71.24-2.44.3-2.36.18-4.68.5-6.95.85a9.93,9.93,0,0,1-3.73-.05,16.9,16.9,0,0,0-2.71-.22,19.71,19.71,0,0,1-5.41-.43,2.38,2.38,0,0,0-1.06,0,13.41,13.41,0,0,1-3.23.1c-1.8.09-3.36.15-4.14.29-1.22.23-1.82,1-3.07,1-1.25-.15-2.3-.33-3.38-.4-1.28-.08-2.57-.07-3.5-.09-1.6-.49-2.79-.93-4.12-1.24-1.5-.35-3.11-.59-4.68-.85a4.67,4.67,0,0,0-2.12.19c-.62.2-1.21.41-1.81.62-1.35-.34-2.46.31-3.76.22a9,9,0,0,1-1.62-.12,12.18,12.18,0,0,0-6.37.06c-.66.15-1.46.17-2.1.34a15.75,15.75,0,0,1-3.24.29,30.68,30.68,0,0,1-4.81-.45,6.69,6.69,0,0,1-3.21.16,5.6,5.6,0,0,0-3.17,0,10.3,10.3,0,0,1-4.05.16l-3.16-1.31c-1.28-.23-2.47-.51-3.72-.65a20.28,20.28,0,0,0-3.31-.11c-1.31.06-2.42-.51-3.95-.18-1.34.92-3.42.75-5.42.65-1.29-.19-2-.91-3.39-.92-2.62.42-2.66.79-5.51-.4-.14,0-.33-.09-.49-.13-1.09-.22-2.1.46-3.2.06a6.38,6.38,0,0,0-2.37.62c.12.41.77.63,1.23.9s.69.44,1,.66-.19.53-.73.65a1,1,0,0,1-.89-.2c-.19-.15-.45-.28-.7-.44l-3.17-.5a22.54,22.54,0,0,1-2.81.8c-1.55.24-3.2.33-4.94.5a9.15,9.15,0,0,0-1.22-.89,6.81,6.81,0,0,0-1.23-.4l-2.58.86c-1.19,0-2.48,0-3.77,0-1.48,0-2.95,0-4.32.06l-2.83,1-3,.19c-.5.18-1.11.39-1.67.63a12.9,12.9,0,0,1-2.56.49,12,12,0,0,0-1.84.61,7.47,7.47,0,0,1-4.2.22,13.42,13.42,0,0,1-3.75-1.17,22.65,22.65,0,0,0-2.42-1.15,3.92,3.92,0,0,0-2.1-.2c-.87.14-1.72.32-2.65.49-1.74-.29-3.52-.53-5.2-.89a6.86,6.86,0,0,0-2.65.09l-5.18-.78-1.76.24-3.21-1.37a4.44,4.44,0,0,0-2.29.19,7.41,7.41,0,0,1-1.54.78A24.72,24.72,0,0,1,205,28.77a26.75,26.75,0,0,0-8.34-.47l-2.87,1-3.94.15c-.75.27-1.44.59-2.25.81s-1.69.33-2.61.5L183.76,32a.3.3,0,0,0,0,.29c.07.15.57.3.37.41-1.61.9-5.48,1-6.87,0-.4-.28.56-.59.29-.8a3.22,3.22,0,0,0-2-.21c-.28.07-.69.22-.73.47s.39.46.71.65c.11.06.34.07.34.14,0,.85-3.09,1.31-4.57,1,0,0-.07-.06,0-.08-1.21.63-3.18.34-4.71.43l-3.59-.8-2.5.81c-.48-.07-1-.1-1.52-.22a16,16,0,0,0-3.26-.24c-1.17,0-2.11.41-3.18.4s-2.11-.3-3.19-.37a8.05,8.05,0,0,0-2.15.18,14.33,14.33,0,0,1-6.45,0,6.3,6.3,0,0,0-3.17.19,5.56,5.56,0,0,0-2.07.89,2,2,0,0,1-1.43.27,4.83,4.83,0,0,0-1.06-.14,36.65,36.65,0,0,1-6,.3,7,7,0,0,0-1.63.11,22.6,22.6,0,0,1-5.12.49c-1.86.3-3.19.86-4.77,1l-1.59-.2-8.16,2.47c-1.43.2-2.78-.45-4.27-.17-1.39-.24-2.78-.49-4.19-.7a6,6,0,0,0-1.14.06A6.56,6.56,0,0,0,94.7,39.7c-.36.33-.61.68-1,1s-.18.94-1.15,1.27c-.36-.18-1-.33-1.1-.55a3.82,3.82,0,0,0-2.31-1.82c-.57-.2-.85-.61-1.57-.76s-1.69-.41-2.57-.5A11.94,11.94,0,0,0,82.38,38a5.73,5.73,0,0,1-1.59.13,21.83,21.83,0,0,0-5.44-.41,15.51,15.51,0,0,1-3.77-.39,1.72,1.72,0,0,0-1.38.3c-.31.33-.26.74-1,1-1.12.2-2.33.42-3.54.62a3,3,0,0,1-.52,0A5.44,5.44,0,0,1,64.2,39a16,16,0,0,0-1.92-1.35c-.78-.39-1.84-.61-2.72-1s-1.67-.73-2.32-1c-2.42-.26-4.4-.87-6.73-.75a5.14,5.14,0,0,1-1.57-.22,6.74,6.74,0,0,0-3.7,0,5.11,5.11,0,0,1-2.66.08,10.33,10.33,0,0,0-5.81.1c-.47.14-1,.25-1.51.35-.33.07-.7.09-1,.13-.91,0-1.65-.45-2.8-.25a8.2,8.2,0,0,0-1.16.48c-.72.41-1.36.86-2,1.3a4.39,4.39,0,0,1-.93-.22c-.92-.46-1.08-1.19-2.19-1.59s-2.43-.83-3.6-1.28A9.28,9.28,0,0,0,19,33.22a5.52,5.52,0,0,1-1.49-.34A44.55,44.55,0,0,0,10.72,31c-.6,0-1.16,0-1.71,0-3,.07-6.1-.23-9,.41V0Z"/></svg>