<svg xmlns="http://www.w3.org/2000/svg" xmlns:xlink="http://www.w3.org/1999/xlink" width="1400" height="60" viewBox="0 0 1400 60">
    <defs>
        <path id="wpy2ihraqa" d="M0 0.014L1400 0.014 1400 58.014 0 58.014z"/>
    </defs>
    <g fill="none" fill-rule="evenodd">
        <g>
            <g>
                <g transform="translate(0 -2598) translate(0 1825) translate(0 773.99)">
                    <mask id="wrh3br8nbb" fill="#fff">
                        <use xlink:href="#wpy2ihraqa"/>
                    </mask>
                    <path fill="#DEEBE7" d="M0 .014v5.754c2.426-.11 4.918-.269 7.503-.507 2.171 4.288 17.078.564 14.978 7.539 3.955.201 8.027-.267 11.976 0 2.861.19 2.13 1.773 2.995 1.883 2.868.36 2.779-1.9 2.996-1.883 7.805.517 13.182 3.577 23.964 1.883 3.047-.48 1.457-1.438 2.996-1.883 1.081-.315 5.283.543 5.99 0 .165-.128-.182-1.87 0-1.886 3.516-.311 9.361 1.601 14.972 1.886 4.962.249 10.01-.191 14.978 0 5.352-.53 6.142 1.78 2.995 1.883.738 2.047 5.956 1.277 5.991 3.768 9.723 1.09 13.93-1.285 20.963-1.884 1.738 1.748 8.997 4.75 14.977 5.653 6.519.982 16.049-2.135 23.959 0 1.362.364 2.375 2.805 2.995 3.766h2.996c-.966-1.146 6.845-5.414 8.985-3.766.188.14 4.3 3.182 5.992 1.882.151-.116-.152-1.875 0-1.882 1.789-.1 5.44 1.74 8.986 1.882 3.434.139 5.365.06 5.992 1.884 11.285-1.448 14.316 2.298 23.958 1.885 5.02-4.684 14.912-.492 20.969 0 8.393.68 16.556.421 23.958 1.884 1.028.202 5.37-.48 5.99 0 .457.348-.509 1.577 0 1.882.514.314 2.492-.316 2.995 0 .398.25-.462 1.708 0 1.884 1.452.56 4.411-.425 5.991 0 .556.152 1.24 1.443 2.997 1.885 2.579.651 6.318-.52 8.985 0h2.996V33.52c9.859-.076 14.906-3.179 26.953-1.884h2.997c4.27-5.732 25.969-5.021 26.951 1.884 6.18 1.14 20.812-3.039 17.974 3.769 10.296-.824 16.785.745 23.957 1.884 2.727 5.822 15.893 5.078 14.978 13.188h5.992c2.55-.346 2.826.734 2.996 1.885 6.289-1.14 7.892 1.742 11.982 1.884 9.98.343 20.78-5.017 23.957 1.883 5.962-2.531 14.26-3.591 20.97-5.652 11.676.13 21.078-.18 29.949 0 5.33.108 6.365 2.136 11.982 1.885 2.743-.124 4.534-2.127 8.985-1.885-.958-.052 2.001 1.728 2.996 1.885 1.877.296 4.084-.228 5.985 0 2.358 1.804 14.92-2.35 17.973 0 .14.104-.117 1.881 0 1.884 6.273.1 11.045-4.154 17.973 0 7.717-2.056 14.393-4.76 17.968-9.42 7.442.281 12.431-.976 14.978-3.768 11.301 2.306 19.915 6.313 35.939 5.652.334 3.56 9.905 1.307 8.985 5.652 7.466-1.586 16.05-2.466 26.955-1.885-2.58 6.648 4.82 1.729 11.982 1.885 4.17.09 5.96 2.25 8.986 1.884 8.7-1.057 16.58-2.862 14.978-7.536 3.48-.308 5.328.416 5.991 1.884 5.412-1.645 3.627-2.456 11.975-3.767 1.697-.27 3.16-1.898 2.995-1.885 5.876-.458 11.422 4.508 11.982-3.768 2.915.05 2.324 2.306 2.996 3.768 3.48-.307 5.33.416 5.992 1.885 4.839.528 5.154-1.783 8.986-1.885 5.248-1.722 14.942-.648 17.968-3.768 4.452 2.224 13.385 1.63 11.98 7.536 20.612-.409 36.182 2.36 50.918 5.652.925-2.557 7.501-1.564 11.982-1.885.37-4.161 12.702-.8 17.968-1.883 2.358 1.804 14.92-2.347 17.973 0 3.035 2.334 2.253.73 8.987-1.884 1.982-.772 3.867-1.034 5.99-1.883.604-.244 2.499.31 2.99 0 .28-.175-.327-1.813 0-1.885 4.61-1.009 5.347 2.197 8.986 1.885 3.75-.325 5.114-3.03 8.987-3.77 7.466-1.425 15.604 1.116 23.964-1.883 2.796-1.381 4.534-3.427 5.985-5.653 9.408 4.974 20.77-.885 26.958-3.77 8.672.616 9.872 1.11 20.964 1.885 6.336.444 10.77 2.305 14.978 1.885 4-.398 4.663-3.519 8.985-3.77 3.932-1.448 23.145-8.577 23.958 0h11.982c-2.368 6.52 3.33 7.956 5.991 11.307 13.621-2.053 17.482-9.506 32.946-5.653 8.852-3.31 23.518-6.09 23.963 3.769 5.277.538 9.274-8.871 11.982-3.77 7.039-2.74 14.27 4.498 23.958 1.885 1.323-.357-.35-2.042 2.996-1.884 4.984.237 5.734.759 5.99 3.769 4.05-1.852 5.986-5.027 8.987-7.538 16.324-.848 24.608 3.36 41.93 1.885 4.483 2.83 5.357 7.934 11.98 9.421 4.312 1.054 7.308 2.939 8.985 5.652 7.429-.28 14.535-.352 14.977 3.768 3.25-.466 2.03-3.746 5.987-3.768h11.982c4.48-2.208 12.251-2.344 14.975-5.652 2.425.356 2.986 1.89 5.991 1.885 5.698 1.294 14.021 1.283 17.97 3.767 1.832 1.151-.383 1.386 2.995 1.883 4.552.671 11.57-1.293 11.979 1.885 5.976-2.522 12.986-4.393 14.978-9.42 2.463-.965 9.984 1.255 11.98 0 .204-.129-.22-1.859 0-1.884 1.845-.21 15.95 1.552 17.972 0 .133-.103-.114-1.884 0-1.884 1.995-.017 3.505 1.592 5.989 1.884 1.325.154 3.364.16 5.758.118V.014H0z" mask="url(#wrh3br8nbb)"/>
                </g>
            </g>
        </g>
    </g>
</svg>
