<svg id="elements" xmlns="http://www.w3.org/2000/svg" viewBox="0 0 600 50"><defs><style>.cls-1{fill:#38334c;}</style></defs><title>rip-company-news4</title><path class="cls-1" d="M600,0V9a11.41,11.41,0,0,1-4.08-.14c-.49-.17,0-.56-.93-.5-1.33.08-1.48-.28-2.56-.33-.79,0-1.67.32-2.45.24-.26,0-.15-.55-.93-.5a20.34,20.34,0,0,1-3.27.32c-.29,0-.12-.54-.93-.49s-.93-.57-1.74-.42a11.22,11.22,0,0,1-4.67,1.63c.17,0-.48-.52-.93-.49C576.17,8.38,576,8,574.94,8c-1.33,0-2.75.49-4.08.4-.17,0-.21-.54-.93-.49-1.16.07-2.28.39-2.56-.34a4.27,4.27,0,0,0-2.79-1.48c-1.63,1.19-6.09.87-7.93,2a46.28,46.28,0,0,1-7.24,1.3c.37.57-.37.45-.7.65-.64.41-.72.89-1.41,1.32s-2.92,1.9-3.51,3.28c-3.76-.47-5.06.76-9.79,1-.25,1.27-2.27,1.63-3.74,2.13s-3.55.64-4.79,1.05c-.12,0-.16.5-.7.66s-1.17,0-1.63.16c-.28.09.1.54-.71.65a11.89,11.89,0,0,0-4.67,1.64c-.24-.75-1.6-.23-2.56-.34-.7-.08-.93-.36-1.74-.41-1.6-.1-3,.52-4.2-.18-3.32,1.56-6.68,1.79-12.13,1.78a8.88,8.88,0,0,1-1.63.16c-.06,0-.05-.57-.12-.57-1-.08-3.19-.23-4.19-.18-1.52.08-2.25.75-4,1-1,.13-2-1-3.26.32l-9,.88c-.67.17-.82-.15-.93-.49-.37-.91-2.2-.09-3.38-.26-1-.14-.32-.17-.93-.5a21.81,21.81,0,0,0-5.35-1.82c-.39.83-1.54,1.25-3,1.48.89,1.5-3.93,0-3,1.47-.79-.65-1.89.14-3.26.32s-3.39.16-4.9.48c.13,0-.36.56-.7.66-1.19.33-3.24-.1-3.15.89-1,.69-2.93.84-2.93,2.05-2.36.39-2.76-1.06-5.12-.67-.64,1-3.35,1-4.67,1.63a51.28,51.28,0,0,0-12.7-1.1c0-.7-1.28-.17-1.75-.41-.11-.06,0-.54-.11-.58-.32-.09-1.39.32-1.63.16s0-.52-.12-.57a8.25,8.25,0,0,0-.93-.5,17.82,17.82,0,0,0-2.67-.91c-4.69,1.18-8.39-1.1-12.7-1.1-2.58,0-5.18,1.05-8.05,1.38-.73.08-1.95-.43-3.38-.26-1.87.23-2.48,1.18-5.6,1.14.16,0-.57-.93-.93-.5,0,.05.16.57.11.58a21.63,21.63,0,0,0-2.45.24c-.25.08-1,.69-.7.66-1.82.2-4.13-.69-7.46.14-.2.87-.73,0-1.63.16-.87,1.54-2.61,1.3-4.78,1.06-4.56-.37-3,2.53-7,2.45-4.41.23-6.51,1.68-9.45,2.69-1.71,2.11-6.25-.17-9,.88-.2.08.17.91-.71.66-1.6,0-3.18,1-4.78,1s-1.92-.37-3.49-.83c-.59-.17-1.13-.21-1.75-.41-.33-.11-.81-.47-.93-.5-.32-.08-1.4.31-1.63.16-.73-.47-.76-.81-1.86-1-.74-.12-1.72.38-2.45.24-.3-.06-.22-.44-.93-.49a12.64,12.64,0,0,0-3.38-.26c-.74.11-1.1.79-2.33.82a19.32,19.32,0,0,1-3.38-.26c-.67-.09-1.66-.15-2.57-.33-.31-.06-1.41.3-1.63.16-.44-.29-.58-.78-1-1.07A9.21,9.21,0,0,0,305,31.55c-.7-.24-2.08-.45-2.79-1.49-.41-.75-2.14-.27-3.38-.25,0,.67-.76.4-.82.08-.79.06-.77-.64-1-1.07-1.53.21-.19,2-2.11,2-.73-.23-2.64.65-3.26.32a2.06,2.06,0,0,0-1.75-.42c-.69.2-1.32.53-2.33.82-1.19.33-.67,1.25-3,1.47a7,7,0,0,0-2.68-.91c-.2-.94-1.71-.85-2.79-1.49-.28-.16.08-1-.23-1.15s-1.31.33-1.63.16c-.13-.07,0-.52-.11-.57-2-.73-3.82-.63-6.06-1.17-.24-1.48-1.51-.45-3.49-.83-.34-.07-.14-.47-.93-.5a8,8,0,0,0-1.63.16c-.31.09-.94.68-.7.66-.67.07-.93-.56-1.75-.41-1,.17-2.1,1.26-4.78,1.05-3,.11-2.94-2.71-6.29-2.32-1.87.23-4.42,1.65-6.3,1.8-1,.07-1.46.1-1.75-.42-.82-1.22-4.2-1.53-5.12-.67-.09.61-2,.94-3.15.9s-1,.07-1.75-.42c-.33-.22-.13-.73-.93-.49l-5.71.56c-1.59-.22-4-.06-5.94-.59-.47-.13,0-.55-.93-.5-.28,0-.55.07-.82.08-2.36-1-7.9,1-8.62-1.5-.86-.78-2.3-1-4.31-.75.35-1.91-1.61-1.67-2.9-2.06-.57.67-1.81.6-3.15.9-1.09.24-2.39,0-2.34.81-1.25-.71-4.78-.36-5.71.56,1.07,1.51-3.25.15-4,1,0,0,.13.58.12.58a9.42,9.42,0,0,1-1.75-.42c-1-.31-2.37-.59-2.09-2.14-.31-.9-.84.08-.81.08-1.93.1-3.89-2.14-6.28-2.32-.54,0-1.1.18-1.64.16-.36-.42-.78-.53-1-1.07-.14-.28,0-.92-.23-1.15-.53-.47-2.06-.5-2.68-.91s-.58-.69-1-1.07-.91-1.05-1.86-1c-.67,0-.94-.57-1.75-.42-1.78,1.28-5.68,1.44-7.82,2.53.33.74-6.66,1.5-9.68,1.54-.93,0-1.47.15-1.74-.42a15.06,15.06,0,0,1-5-.09c-.69-.12-.56-.41-.93-.5s-1.39.32-1.63.16,0-.49-.11-.57-.66.16-.82.08,0-.54-.11-.58c-.33-.09-1.39.32-1.63.16s0-.49-.12-.57-.66.16-.81.08,0-.54-.12-.58c-.43-.13-1.17.25-1.63.16a5.48,5.48,0,0,0-.93-.49c-1.19-.3-2.15,0-3.38-.26,0,0-.69-.41-.93-.49a25.87,25.87,0,0,0-5.24-1.25c-1.66-.12-2.18.13-3.38-.25-.42-.14-.7-.43-.93-.5-.84-.25-1.48-.13-2.56-.33a7.74,7.74,0,0,0-1.75-.42,13,13,0,0,1-1.63.16c-.91-.17-.32-.17-.93-.5-1.07-.57-4.66,0-7.57-.43-.3,0-.12-.54-.93-.49a4.65,4.65,0,0,1-.82.08c-1.25-.22-1.18-.66-3.49-.83-3.11-.23-6,.44-9.09.31-1.41-.07-2.72-.56-4.31-.75-.14,0-.34-.46-.93-.5-1.33-.1-2.75.44-4.08.4-2.81-.11-7.68,1.53-9.09.31A4.11,4.11,0,0,0,68.4,9c-2.17.12-1.75-1.69-3.72-2C60.42,6.4,54,9.63,48.47,9.22c-2.18,0-.2,2.3-2.92,2l-4.08.4c-3.18-.32-2,1.66-4.67,1.63-1.29.29-1.52-.41-2.57-.33-.83.5-5.86,0-8.16.8-1.2.39-1,.66-2.45.24-.68,0-.93-.5-1.74-.42-.59.06-.77.83-1.52.74-.42-.05-.72-1-1.05-1.07s-1.14.25-1.63.16c-.28-.05-.23-.44-.93-.5-.53,0-1.1.18-1.63.16L0,14.57V0Z"/></svg>