<svg id="elements" xmlns="http://www.w3.org/2000/svg" viewBox="0 0 350 35"><defs><style>.cls-1{fill:#105754;}</style></defs><title>rip-campus-location2</title><path class="cls-1" d="M.25,19c1.19-1.15,1.3.39,4,.13.75-.07.32-.42.68-.54s.94.16,1.33.05.69-.45,1.35-.52c1.09-.11,2.82.33,4,.14.34-.06.47-1,.72-1.11.53-.19,1.42.17,2,.07a20.28,20.28,0,0,1,7.31-.31c1.21.19,1.66,1,3.3.11,1.11-.58,4-.64,6-.92a12.2,12.2,0,0,1,2-.5c3.19-.17,8.61-1,13.25-.11.62.12,1,.7,2,.63,1.34-.09,3.51-1.81,6-1.48,2.83-.34,7.79,1.3,8.66-.84,3.12-.42,5-.58,8.65-.83.2,0,1.2.16,1.32.05s0-.56,0-.57c.64-.09,1.34.17,2,.07s3.07-.72,4.68-1c1.16-.17,2.2-.38,3.34-.45-.22,0,.3.91.63.59,0,0,0-.56,0-.56,1.58-.16,5,.47,6.64-.34.38-.19-.08-.53.69-.54,1.07,0,1.15-.37,2-.5.62-.09,1.37.2,2,.07.21,0,.06-.53.69-.54a13.93,13.93,0,0,0,2.65.09c.23-.05,0-.53.69-.54s.68-.61,1.34-.52A8.27,8.27,0,0,0,104,9.6c-.14,0,.32-.53.69-.54,1.07,0,1.14-.4,2-.49,1.07-.11,2.25.28,3.31.11.13,0,.1-.53.68-.54.94,0,1.87.23,2-.49A3.23,3.23,0,0,1,114.81,6c1.44,1,5,.44,6.56,1.36a31.28,31.28,0,0,0,5.93.76c-.24.58.34.41.63.59.56.34.68.8,1.27,1.17a9.19,9.19,0,0,1,3.17,2.93c3-.7,4.14.4,7.94.27.34,1.21,2,1.42,3.23,1.8s2.9.38,3.94.7c.11,0,.18.47.64.59s.93-.08,1.32,0c.23.08,0,.54.63.59A8.73,8.73,0,0,1,154,18.08c.11-.74,1.26-.33,2-.5.55-.12.7-.41,1.35-.51,1.26-.2,2.46.3,3.33-.45,2.84,1.28,5.55,1.28,9.9.9.2,0,1.2.16,1.32,0s0-.55,0-.56a31.67,31.67,0,0,1,3.33-.45c1.23,0,1.88.58,3.28.68.82.06,1.49-1.13,2.65.09l7.27.25c.56.12.64-.2.69-.54.19-.9,1.75-.23,2.67-.48.75-.2.24-.18.69-.54a15.25,15.25,0,0,1,4.07-2.11c.41.77,1.37,1.09,2.6,1.21-.55,1.52,3.14-.29,2.59,1.22.56-.68,1.53,0,2.65.09a37,37,0,0,1,4,.14c-.11,0,.35.51.64.58,1,.25,2.58-.31,2.62.65.85.6,2.43.62,2.56,1.78,1.93.22,2.1-1.2,4-1,.62,1,2.78.71,3.91,1.27a33.49,33.49,0,0,1,10-1.92c-.1-.67,1-.25,1.35-.52.08-.06-.07-.52,0-.56s1.14.21,1.32,0-.08-.5,0-.57c.25-.14.33-.35.69-.54a11.9,11.9,0,0,1,2-1.06c3.88.83,6.58-1.61,10-1.91,2.06-.17,4.25.67,6.59.79.58,0,1.5-.55,2.67-.47,1.51.09,2.11,1,4.6.72-.12,0,.35-.93.69-.54,0,0-.06.56,0,.56a14.6,14.6,0,0,1,2,.07c.21.06.85.6.63.59,1.48.07,3.22-.95,6-.36.26.82.58,0,1.32,0,.87,1.43,2.24,1.07,3.94.7,3.61-.66,2.68,2.24,5.88,1.89,3.55-.07,5.39,1.19,7.86,2,1.6,1.93,5-.58,7.27.25.16.06,0,.89.64.59,1.28-.13,2.65.77,3.94.7s1.49-.5,2.7-1c.44-.2.87-.28,1.35-.52a5.7,5.7,0,0,0,.68-.54c.25-.09,1.16.21,1.33.05.53-.51.52-.84,1.37-1.08.58-.17,1.42.25,2,.06.23-.07.12-.44.69-.54a8.46,8.46,0,0,1,2.67-.47c.6.06,1,.69,2,.63a12.58,12.58,0,0,0,2.67-.47c.52-.13,1.3-.26,2-.5.24-.08,1.16.2,1.32,0,.32-.31.38-.79.72-1.1a6.65,6.65,0,0,1,2.06-1.63,3.53,3.53,0,0,0,2.06-1.62c.24-.75,1.68-.41,2.68-.47.09.64.64.34.66,0,.64,0,.54-.67.71-1.1,1.25.1.37,1.88,1.91,1.76.55-.27,2.18.45,2.64.09a1.4,1.4,0,0,1,1.35-.52c.58.14,1.12.42,2,.63s.67,1.16,2.59,1.22a4.78,4.78,0,0,1,2-1.06c.05-.92,1.27-.94,2.06-1.62.21-.18-.18-1,.06-1.13s1.08.23,1.32.05-.09-.51,0-.57a10.58,10.58,0,0,1,2.79-1V0H0V19.07A.34.34,0,0,0,.25,19Z"/></svg>