<svg id="elements" xmlns="http://www.w3.org/2000/svg" viewBox="0 0 480 640"><title>rip-reviews-mask-studentportrait</title><path d="M477.92,613a4,4,0,0,0-1.25,1.17,1.37,1.37,0,0,0-1.46.58c-.58.76-1.11.76-1.63.4-.66.62-1.26.71-1.35-.46-.66.77-.36-.27-.51-.43s-.79.12-1.27.14c-1,.91-1.28.29-2.14.9a4,4,0,0,0-2.1,1.29c-.38-1.42-.86-1.84-1.49-1.37-.57.27-1,0-1.46,0-.63.7-1,.41-1.42.45-.59.46-1.08.54-1.37.21a1.75,1.75,0,0,1-1-.05c-.32-.28-.72-.15-1.13,0a5,5,0,0,1-1.25.18,5.54,5.54,0,0,1-1.35,0c-.43,0-.78.82-1.21.25-.36.17-.63.74-1.07.25-.23.56-.68.25-1.12,0-.34.16-.63.51-1.22-.11-.18.88-.95-.59-1.3-.1-.5-.47-.9-.15-1.43-1.21-.45-.43-.89-.84-1.32-.4-.44.71-.88,0-1.34-.11-.9-.37-1.87.52-2.84.52-.9.75-1.64.15-2.4.36-.65-.07-1.53.62-2.25.84a2.8,2.8,0,0,1-1,.19,5.26,5.26,0,0,1-1.17-.91c-.72.21-1.34.67-1.75-.15-.45-.39-.86-1-1.29-1.35-.42-.16-.85-1.08-1.33-1-.45-.75-1,.82-1.44-.23-.5.47-1-.49-1.55,0a1.64,1.64,0,0,0-1.7.59c-.6.06-1.37-.59-2.15.37-.79.71-1.56.69-2.16-.87-.81.89-1.5.42-2.2-.07s-1.41-.9-2.21-.31c-.36-.1-.71,0-1.06.51-.35.65-.69-.11-1,.36-.34.14-.68-.32-1,0-.34.12-.66-.35-1-.41-.25.89-.43-.58-.66-.26-.21-.18-.43-.76-.66-.3-.21-.08-.44.21-.66-.21-.21-.79-.44-.23-.66-.34-.22-.29-.45-.06-.67-.34s-.46,0-.69,0c-.7,0-1.44.57-2.17.53a8.23,8.23,0,0,1-2.27.18c-.52,0-1.05.23-1.55-.2-.52,0-1-.43-1.55-.46-.27-.11-.53-.22-.79-.35s-.52-.28-.78-.43c-1-.19-2.07-1.05-3.06-.73-1-.5-1.94.23-2.89-.79-.91-.11-1.77.83-2.66-.13-.49.43-1,.23-1.49,0-.52-.72-1,.54-1.47.26a1.32,1.32,0,0,0-1.44.18,5.73,5.73,0,0,0-1.4.5,3.3,3.3,0,0,1-2.67.27c-.86-.57-1.65,0-2.46-.72s-1.65-1.1-2.43-1.72a4.44,4.44,0,0,0-2.47-.44c-1.51-.38-3-1.54-4-1.8a2.62,2.62,0,0,0-1.73-.36c-1.11-1.45-1.85-2.16-2.49-2.38-.63-.51-1.25.95-1.86,1.44a5.17,5.17,0,0,1-1.93,1.67c-.34.34-.68.84-1,1.1a.59.59,0,0,1-.83-.08c-.59.18-1.29.55-1.73.21,0-.49-.7.07-1.18.27-.08-.43-.92,1.69-1.24,1.21-.53-.6-1-1.27-1.31.53-.54-.51-.69.4-1.22,0-.32.43-.81.23-1.52-.7a3,3,0,0,1-1.66-.86,2.82,2.82,0,0,1-1.26,0c-.19.4-.24,1-.83.46,0,.55-.44.35-.54.7-.26.07,0,1.05-.66.41-.09.36-.73-.2-.79.19-.29,0-.74-.34-1-.24-.35-.32-.59-.39-.77-.17s-.48-.23-.61.38c-.25-.18-.4.56-.68.4-.51-.54-.69,0-.88.56-.28.22-.69.14-1.48-.29s-1.33-1.06-1.13-.12c-.78-1.31-.45.13-.73,0-.34-.69-.46-.29-.68-.18s-.57,0-.79-.31c-.17-.57-.42-.85-.86-.31-.4.33-.34-.8-.87,0-.34.1-1.13,1-1.27.62-.72.68-.89.27-1.36.39-.12-.44-.8-.13-1-.36s-.16-.73-.72-.48c-.82.37-.8.24-.72-.21-.21.11-.28,0-.41,0s-.32.08-.39-.22c-.18.11-.33-.08-.5,0a.54.54,0,0,0-.51.22c-.34-.05-.68.39-1,.18-.17,0-.33.21-.5.21s-.35,0-.53-.1a1.13,1.13,0,0,0-1.1-.06c-.38-.59-.78,0-1.17-.48a8.66,8.66,0,0,1-1.14-.57c-.39.52-.74.1-1.1-.27-.38-.72-.77-.37-1.17-.34s-.76.94-1.16.11a8.28,8.28,0,0,0-2.29,1.2c-.76.53-1.52,1.11-2.28,1.66-1.22,0-2.56.11-4,.14h-2.25a5,5,0,0,0-2.3,0c-.68.32-1.63-.34-2.45-.48a2.39,2.39,0,0,0-1.26-.37c-.36,0-.75-.14-1,0a1,1,0,0,1-.92-.11c-.4-.27-.81-.55-1-.38s-.38.47-1-.25c-.5-.46-1-1.05-1.15-.53-.52-.47-.58.11-1-.06-.64-.64-.81-.11-1.29-.27-.43,0-.65.84-1.27.3-.4.39-.93,0-1.35.34-.4.83-.88.47-1.31.7-.37,1.19-.9-.06-1.33.2-.47-.3-.83.5-1.33,0s-.9-.17-1.41-.7c-.31-.19-.63-.45-.85.14-.34-.4-.67-.69-.85,0a2.07,2.07,0,0,0-1.75-.38,6.2,6.2,0,0,1-1.84-1.2,3,3,0,0,1-1.54.27,20.17,20.17,0,0,1-3.33-.73c-1.59.17-3.3-.19-4.55,1.31a11,11,0,0,0-4.2,2.62c-1.34.45-2.55-.8-4.25,2.11-1.72,1.27-3.58.67-5.36,2a7.56,7.56,0,0,0-2.82-1.4c-.63-.89-1.5-.08-2.15,1-.54.72-1.2.56-1.78,1.26-.7,0-1.54,1.11-2.14-.15-.68,0-1.09-.8-2.29,0-.23-.78-1.07-.29-1.56-.19s-.81-.27-1.37-.28c-.6-.17-1.4.28-2.31-1.06l-1.06.45c-.35.15-.71.29-1.06.42-.71.27-1.45.17-2.2.78-.58-.82-1.09,1.18-1.65.49-.59.25-1.2.62-1.82.4-.64,0-1.29-.17-2,.34-.49-.61-1-.71-1.51.12-.49-.05-1,.41-1.44.38s-.89.67-1.33.82c-.1.78-.44.94-.94.9.21.4.21.54-.18.48-.46-.23-.43,0-.53.15-.15.44-.65.42-1.37.1-.47.15-1.73-2-1.82-.26-.7-1.45-.64,1.1-1.21.61-.34.65-.69,1.92-1.15.71-.32,1.92-.72,1.53-1.12,1.49-.35,1.19-.77.37-1.16.63-.41-.61-.78.35-1.17.57s-.75,1.32-1.15,1.13c-.39.36-.79.28-1.17.79a7.23,7.23,0,0,0-1.14,1.27,4.85,4.85,0,0,0-1.16.62c-.4-.35-.78.11-1.17.4s-.83-1.19-1.18.21c-.26.29-.53.22-.78,1-.26.34-.52.61-.78.56-.53,0-1-.38-1.59.14s-1.06-.51-1.62,0c-.4-.3-.82-.11-1.27.23a9.74,9.74,0,0,0-1.37.52,2.12,2.12,0,0,1-.72.22c-.21-.06-.49.28-.66.09a6.14,6.14,0,0,1-.74.41c-.16-.25-.39-.2-.53-.53-.4-.35-.83-1-1.34-.59-.5-.33-1.15.85-1.65.46-.49-.55-1.24.67-1.94,1.14a3.72,3.72,0,0,1-1.58,1.67,1.65,1.65,0,0,1-1.29.34,4.13,4.13,0,0,1-1.91-1.12c-3.28,4.29-3.24-.33-5,2.12-1-1-2.07-.65-3.06-.54a1.31,1.31,0,0,1-1.46-.7c-.47,1.56-.95,1.63-1.44,1.64a3.24,3.24,0,0,1-1.6-1.59c-.55-.27-1.1-.27-1.65-.5s-1,.37-1.5.41c-.24,0-.49,0-.72,0a1.17,1.17,0,0,0-.68.07,3.07,3.07,0,0,0-.8,0c-.67-.8-.62,0-.86.24-1-1.41-.74.84-1.23.48s-1,0-1.41.23a2.85,2.85,0,0,1-1,.15c-.24,0-.58.29-.77.21-.32.17-.41-.05-.67,0-.16-.12-.49,0-.6-.26-.33,0-.66-.06-1.06,0s-.87.38-1.09-.25-.64-.8-1.07-.57c-.46.51-.68-.8-1.06-.94-.4-.75-.8-1.19-1.12-1-.33.33-.7-.45-1-.8-.33-.1-.66-.55-1-.51a1,1,0,0,0-.85-.55,1.17,1.17,0,0,0-.76-.44c-.26-.26-.5-.13-.77-.39-.28.06-.61-.16-.95-.25s-.71-.08-1.06-.08a12,12,0,0,0-1.23-.1c-.22-.28-.85-.25-1.23-.37-.72-.29-1.17-.65-1.59-.84s-.71-.61-1-.8-.6-.26-1-.72c-.32-.1-.77-.7-1.21-.91s-1.05-.62-1.56,0c-.81.13-1.56,0-2.29.11-.7.43-1.41.07-2.16.18-.73-.35-1.46.76-2.36,1.06a8.88,8.88,0,0,1-1.65-.15,11,11,0,0,1-1.37-.49,3.69,3.69,0,0,0-1.53,0c-1.63,3-2.57,3.43-2.7,2.84,0-.75-1-1-1.16-1.65-.62-.61-1-1.6-1.69-1.71a2.2,2.2,0,0,1-1.84-.86l-1.23,0-1.27,0c-.41-.12-1.35.84-1.58.43-.5,0-1.35.42-1.49.13.22-.69-.9.09-1-.17-.5.15-.32-.46-.7-.4s-.83.35-.85-.57c-.32,0-.65-.32-1-.47a2,2,0,0,0-2-.71,2.6,2.6,0,0,0-1-.28c-.37,0-.8-.07-1.27-.12-.92-.33-2-.34-2.28-1.11a4.27,4.27,0,0,1-1.52-.89c-.56-.26-1.2-1-1.94-.37-.33-.16-.7-1.17-1-.76-.33-1.27-.68-.06-1-.62-.34-.4-.68-.22-1-.52-.33.27-.68,0-1,.36-.35-.34-.68-.06-1,.26a.8.8,0,0,1-1,.07c-.31-.52-.63-.3-1-.15a2,2,0,0,1-1,0,6.45,6.45,0,0,0-1.9-.79c-.64,0-1.25-1.09-1.88-1.4-.61.07-1.21-1.12-1.83-1.12-.61-.75-1.24-.17-1.85-1.1-.3-.3-.61-.27-.92-.36a4,4,0,0,0-.9-.14c-.55.63-1.14-.21-1.76,0-.61,0-1.23.15-1.84-.5-.61.08-1.22.52-1.75.56s-1.2,2-1.84.7c-.61-.13-1-1.72-1.59-1.59a4.82,4.82,0,0,0-.9-.41c-.27-.37-.58-.12-.8-.55-.22-.75-.49-.34-.72-.62-.26-.51-.5.16-.72-.56-.28-.29-.56-.5-.77-.47-.3-.23-.76-.73-.85-.52-.25-.07-.42.19-.81-.38-.32-.27-.78-.8-.94-.67s-.55-.74-.75-.94-.82-1.16-.73-.78c-.49-.49-.49-.15-.92-.53a1,1,0,0,0-1.23.29c-.08.21-.42.2-.54.34-.71-.22-.21.46-.58.4s-.5.33-.77.55c-.14,0-.28.17-.45.46-.15.13-.31.33-.39.29s-.41.18-.62.47l-.57.22c-.42-.35-1-.33-1.81,0-.37.18-.92.22-1.44.39s-.93.38-1,.64c-.79.14-1.09.32-1.15.59-1.23.08-.74.4-1.27.54-.43.84-.83.33-1.29.26s-.5.35-1,.2c0,.22-.3.22-.47.3s-.52.18-.49.28c-.44.11-.65.19-.5.35-.5,0-.46.26-.6.44-.37.21-.63.94-.95.9A10.57,10.57,0,0,0,58.1,616a1.81,1.81,0,0,1-1.23.41c-.86.53-.46-.79-.95-.44-.34-.14-.88.06-1.66.36-.6-.32-.93-1-1.26-1.33a4.3,4.3,0,0,0-1.24-.9c.21-.75-.47-.08-2.41,2.37-1.15-1.91-2.71.51-4.08-3-1.29-1.21-2.77,1.43-3.84-2.76a3.66,3.66,0,0,1-2.17,1.42c-.66.32-1.28.17-1.88.41-.45-.58-1.12.42-1.67.63-.54-.19-1.12-.55-1.86.35-.67.12-1.31-.25-2-.28a1.51,1.51,0,0,1-1-.32c-.33-.22-.67-.42-1-.21-.35-.08-.71,0-1-.45-.34.12-.69.45-1-.08-.66.89-1.23.13-1.83.66-.6,0-1.24.71-1.78.13a7.23,7.23,0,0,0-1.63-.35,4.16,4.16,0,0,0-1.5-.42c-.26-.32-.46.2-.71-.22a1.59,1.59,0,0,1-.68-.24,5.27,5.27,0,0,1-2-.44c-.62-.13-1.35-1.15-1.83-.15a14.22,14.22,0,0,1-1.87.65c-.31.17-.66,0-1,.3-.36.47-.68,0-1,.16a4.48,4.48,0,0,1-1.39-.42c-.44-.17-.9-.17-1.3-.37a1.3,1.3,0,0,1-1.24-.34,2.23,2.23,0,0,0-1.28,0c-.91.3-1.42-1.09-2.08-1.16-.48-.93-1-1.07-1.61-.64a2.69,2.69,0,0,0-1.2-.72,1,1,0,0,0-1,.4c-.33.17-.21,0-.49,0s-.31-.24-.31-.23a.79.79,0,0,0-.13-.58V0H480V613.41s-.67-.7-1.18-.69A2,2,0,0,0,477.92,613Z"/></svg>