<svg id="elements" xmlns="http://www.w3.org/2000/svg" viewBox="0 0 275 25"><defs><style>.cls-1{fill:#4a455c;}</style></defs><title>rip-navLarge-dropdown-about</title><path class="cls-1" d="M275,0V4.5c-.48,0-1-.09-1.47-.16-.43,1.34-3.36.18-2.95,2.35-.77.07-1.57-.08-2.35,0-.56.06-.42.56-.59.59-.56.12-.54-.59-.59-.59-1.53.17-2.58,1.12-4.7.59-.6-.15-.29-.45-.59-.59s-1,.17-1.18,0,0-.58,0-.58c-.69-.1-1.84.5-2.94.58s-2-.05-2.94,0c-1-.16-1.21.56-.59.59-.14.64-1.17.4-1.18,1.18-1.91.34-2.73-.4-4.11-.59a6.05,6.05,0,0,1-2.95,1.77c-1.28.3-3.15-.67-4.7,0-.27.11-.47.87-.59,1.17H240c.19-.36-1.34-1.69-1.76-1.17,0,0-.85,1-1.18.58,0,0,0-.58,0-.58-.35,0-1.07.54-1.77.58s-1.05,0-1.17.59c-2.22-.45-2.81.72-4.71.59-1-1.46-2.93-.15-4.12,0a27.43,27.43,0,0,0-4.7.59c-.21.06-1.06-.15-1.18,0s.1.49,0,.59-.49-.1-.59,0,.09.53,0,.59c-.28.17-.86-.14-1.18,0-.1,0-.24.45-.58.58-.51.21-1.24-.16-1.77,0h-.59v-.58c-1.93,0-2.93-1-5.29-.59h-.59c-.84-1.79-5.1-1.57-5.29.59-1.22.35-4.09-.95-3.53,1.17a11.06,11.06,0,0,0-4.71.59c-.54,1.82-3.12,1.59-2.94,4.12h-1.18c-.5-.11-.55.23-.59.59-1.23-.36-1.55.54-2.35.59-2,.1-4.08-1.57-4.71.58a34,34,0,0,0-4.12-1.76c-2.29,0-4.14-.06-5.88,0-1,0-1.25.67-2.35.59-.54,0-.89-.67-1.77-.59.19,0-.39.54-.59.59-.37.09-.8-.07-1.17,0-.47.56-2.93-.74-3.53,0,0,0,0,.59,0,.59-1.23,0-2.17-1.3-3.53,0A6.36,6.36,0,0,1,157,17.28q-2.19.13-2.94-1.17c-2.22.72-3.92,2-7.06,1.76-.07,1.11-1.95.41-1.77,1.77a12.65,12.65,0,0,0-5.29-.59c.5,2.08-.95.54-2.36.59-.82,0-1.17.7-1.76.59-1.71-.33-3.26-.9-2.94-2.36-.69-.09-1,.13-1.18.59-1.06-.51-.71-.77-2.35-1.18a1.11,1.11,0,0,1-.59-.58c-1.16-.15-2.25,1.4-2.36-1.18-.57,0-.45.72-.58,1.18-.69-.1-1,.13-1.18.58-1,.17-1-.55-1.77-.58-1-.54-2.93-.21-3.53-1.18-.87.69-2.62.51-2.35,2.35a25.89,25.89,0,0,0-10,1.77c-.18-.8-1.47-.49-2.35-.59-.08-1.3-2.5-.25-3.53-.59-.47.56-2.93-.73-3.53,0s-.45.23-1.77-.59c-.39-.24-.76-.32-1.18-.59-.11-.07-.49.1-.58,0s.06-.56,0-.58c-.91-.32-1,.68-1.77.58s-1-.94-1.76-1.17c-1.47-.45-3.07.35-4.71-.59a4.19,4.19,0,0,1-1.18-1.77c-1.84,1.56-4.08-.27-5.29-1.17-1.71.19-1.94.34-4.12.59-1.24.13-2.12.72-2.94.58s-.92-1.09-1.77-1.17c-.77-.46-4.54-2.68-4.7,0H63.49c.47,2-.65,2.48-1.17,3.53-2.68-.64-3.44-3-6.47-1.77-1.74-1-4.62-1.9-4.71,1.18-1,.17-1.82-2.77-2.36-1.18-1.38-.85-2.8,1.41-4.7.59-.26-.11.07-.64-.59-.59-1,.08-1.13.24-1.18,1.18a10.31,10.31,0,0,1-1.76-2.35c-3.21-.27-4.84,1-8.24.58-.88.89-1.05,2.48-2.35,2.95a3,3,0,0,0-1.77,1.76c-1.46-.09-2.85-.11-2.94,1.18-.64-.15-.4-1.17-1.17-1.18H21.72c-.88-.69-2.4-.73-2.94-1.76-.48.11-.59.59-1.18.58-1.12.41-2.75.41-3.53,1.18-.36.36.08.43-.58.59-.9.21-2.28-.4-2.36.59C10,18.85,8.58,18.27,8.19,16.7c-.48-.31-2,.39-2.35,0,0,0,0-.58,0-.59-.36-.07-3.14.48-3.53,0,0,0,0-.59,0-.59-.39,0-.69.5-1.18.59a5.55,5.55,0,0,1-1.13,0V0Z"/></svg>