<svg id="elements" preserveAspectRatio="none" xmlns="http://www.w3.org/2000/svg" viewBox="0 0 1400 290"><defs><style>.cls-1{fill:#4a455c;}</style></defs><title>rip-privacyterms-landing</title><path class="cls-1" d="M0,0V287.33A6.74,6.74,0,0,0,3.76,284c1.11.69,2.17-1.51,3.78-1.24.81.1,1.52-.93,2.25-2.13a6.46,6.46,0,0,1,2.38-3.13c.53-3.33,1.76-1.48,2.59-2.94,1,.09,2.06.13,2.65-3.31,1.21.39,2.53,1.4,3.48-.53.86-2.72,2.09-2.63,3-5.32.91-2.49,2.29-1.37,3.36-2.58,1.33.83,2.36-.66,3.38-2.08,1.26.54,2.55,1.34,3.35-1.35.88-2,2.26,0,3.29-.42,1-2.34,2.68,0,3.57-3.24,1.44.89,2.22-3.12,3.59-2.56,1.19-.87,2.34-2,3.66-1.79,1.16-1,2.51-.62,3.65-1.84s2.2-3.19,3.79-1.21c1.16-1.26,2.79,1,3.91-.91,2-.89,4.12-.31,5.85-2.05,1.84-.9,3.35-3.47,5-3.35.81-.15,1.18-3.37,1.9-3.37.47-2,1-2.72,1.68-2.53,1.09-1.45,2.25-1.81,3.26-3.12.64-4.1,2.3-.26,3.08-3.46.86-2.84,2.62,1.56,3.6-1.64,1.67,3,3.16,3.52,4.62,2a16,16,0,0,1,10.57.82c1.73.63,3.48-.27,5.19-.14,1.78-1.49,3.45-1.28,5,.41,1.65-.11,3.29.44,4.94.27,1.64-.37,3.44,2.29,5,.25s3.42-.44,5.3.92c1.83.65,3.93,7.71,5.5,2.72,1.22,2.82,2.26-2.79,3.54.49,1.14,1.76,2.34.4,3.47,1.25,1.21-1.11,2.35-.67,3.59-2.39,1.2-1,2.08,3,3.39,1,1.26-5.12,2.36-1.61,3.53-2.74,1.14-1.44,2.17-4.52,3.34-1.15,1,1.75,2.14-3.67,3.39-.9,1.18,1.33,2.32-2.95,3.57-3,1.05-2.91,2.33-2.86,3.55-3.7,1.1-1.91,2.17-3.84,3.53-3.28,1.26-.57,1.95-4.69,3.44-3.08,1.27,0,2.59.51,3.63-.69,1.92,4,2.42-.14,3.74.52a10,10,0,0,1,3.78.87,11.59,11.59,0,0,0,4.32,4c1.57,2.07,2.23-.66,3.43-.47.8-2.2,2.36.18,3.45-.17,1.33,1.25,2.55,1.86,3.35-.09.75-2.89,1.84-3.07,2.91-3.52,1.08-.18,2.06-6.22,3.18-3.1,1.2-2.32,2.33-1.71,3.64-3.32,1.74-4.26,2.62-1.31,4.24-3.47,2.48-5.65,4.57-6.92,6-8.9.51-1.11.39-2.87,2-2.71,1.81.27,2.87-.31,2.43-2.53,1.06-.8,2.74-1,4.44-1.3s2.92-1.44,4.63-2c2.77,1.12,3.16-1.66,4.93-2.18,2,.22,3.82.07,5.92,1.19a16.86,16.86,0,0,1,4.19-1.34c1.42,0,2.56-1.17,3.84-1.49.65-3.9,2.47-.87,3.63-1.62,1.28,0,2.38-1.09,3.43-2.43,1.31.57,2.38-.39,3.49-1.12a23.29,23.29,0,0,1,3.68.52,13.26,13.26,0,0,1,3.6,1.2,29.88,29.88,0,0,1,3.27,1.73c2-.1,4.24-.56,6.45.23,1.18.16,2.4.36,3.68.59s2.67.55,4.09.86c1,.52,2,.27,3.1.72a4.14,4.14,0,0,1,3.32.8,4,4,0,0,0,3.47-.12c1.2.63,2.6,3,3.66,1.74,1.24.47,2.54,1.42,3.6.46,1.11-.34,2.36.33,3.64,1.4,1.32,1.68,2.45,1.36,3.58,1.62,1.08-.66,2.22,2.15,3.3,1.76,2,3.22,4.28.91,6.29,2.72,2.15-.11,4.23.64,6.28.36,2.63-2.3,5.73-1.95,8.92-1.37a44.33,44.33,0,0,0,4.73.65c1.51.05,3-.22,4.39,0,1.59,1.89,3.19,3.41,4.35,1.33,1.35-.64,2.95.44,4.24-1,1.42-.42,2.8-1.21,4.3-.92,1.25-1.7,3.08,1.17,4.38.23a14.75,14.75,0,0,1,7.81,2.19c2.9,2.74,5.35.84,8.36-.39,2.77-1.32,5.69-1.17,8.48-1.58,1.4-.2,2.78-.38,4.17-.53,1.25-1.13,2.93,1.13,4.12-.34,3,3.95,5.7,3.31,8.12.51,3,1.64,5.66.69,8.25.89a6.77,6.77,0,0,1,5.32-1.58c2,.91,3.88,1.76,5.47.11a22.23,22.23,0,0,0,5.33-.73c2,1.73,3.41-1.55,5.5.63,1.58-1.72,3.25-2.79,5.29-1.14,1.66-1.29,3.6-.42,5.06-3.43,3.34,2.2,6.19.73,9-1,1.53.06,3.09.38,4.64.59,1.44-.67,3.05-.08,4.58-.1,1.6.47,3-.76,4.61-.27,1.4-1.23,3.16.28,4.57-.9,1.56,0,3-1.17,4.59-.71,1.53-.2,3-.51,4.68.29.93-.45,1.87-.92,3.27,2.15,1.22,1.53,1.81-1.74,3.18.88,1.89-1.28,4.12-.18,6.12-.89,2.08-.15,3.69-3.94,6-2.61,1.57,0,2.85-2,4.46-1.42,1.64.84,3.33,2.14,4.7,1,1.56.4,3.32,2.29,4.71,1.23,1.53.08,3-.64,4.49-.84,1,.31,2.12.89,3.15,1.09,1.56,4.35,2,0,3.25,2,.49-3.86,2.37,2.94,3.13,1.11,1-.23,2.09.77,3.08.75,1.94-.33,3.75-1.69,5.28-5.32,6,1.27,11.74.9,18,3,3.52,2.51,6.74,4.58,9.16,1.57,2.76-.4,4.54-7.31,7.33-6.09,2.55-.67,4.55-5.31,7-7.37,1.55-6.76,4.23-7.66,7.12-8.3a13.12,13.12,0,0,1,4.56-.08c1.58.2,3.39,2,4.84,1,1.58,0,3.87,5.49,4.86,1.12,1.89,2.54,2.73-2.87,4.37-1.81,1.79,1.09,3.34.31,5.08,1,1.28-2.82,3.51,1.64,5.09,1,1.76.83,3.85,4.22,5.36,3.19,1.58-.49,2.86-3.32,4.59-2.64a5.81,5.81,0,0,1,4.79-.8c1.68.56,3.22,0,4.4-3.44,1.66.69,3.09-.62,4.76.33s3-1.09,4.65-.17c1.54-.2,3.08-.29,4.62-.37a6.2,6.2,0,0,0,4.65-.23c1.61,1.44,3.18,1.08,4.72-.17a4.28,4.28,0,0,1,4.85.9c3.33,1,6.43-1.2,9.84.65a10,10,0,0,0,5,1.89c1.73,1.13,2.93-1.66,4.61-.79.68-2.75,1.93-1.17,3.2.64,1.09.42,2.21,1.14,3.09,0,2.55,3.76,4.14.23,6-1.36,1,.14,2-.55,2.71-2.62,1.14.95,1.87-1.23,2.4-5,3.21,1.31,5.82-2.09,9-.77,2.8-2,6-.49,8.7-3.65,1.46-.62,2.93-1.15,4.4-1.64s2.78-2.25,4.46-1.39c1.31-1.7,3.21-.11,4.55-1.47,2.12,1.47,3.49.36,4.52-1.78,2.26.32,4.23-.46,6.86.28,1.62-1.54,3.66-2.18,5.22-3.93a3,3,0,0,0,3.08-.64c.61-1.59,1.43-2.73,2.59-2.14,1.29-1.79,2.72-2.76,4.37-2.21,1.86,1.57,2.94-1.08,4.21-2.75,2,3,2.74-2.19,4.48-.51,1.5-.08,2.9-.74,4.1-3,3.79-.47,7.45-1,10.8-3.53,3.45-1.74,7.37.58,10.53-3a10.59,10.59,0,0,1,5.19-2,12.17,12.17,0,0,0,5.27-1.74c1.28-.1,2.69.27,4-.68s2.56-2.3,4.18-1.24c1.33-1.19,2.93-.5,4.33-1.58,1.5-.22,3.17.75,4.4-1.68a10.63,10.63,0,0,1,8.73-2.88c2.81-1.06,5.51-2,8.47,1.06a15,15,0,0,0,4.22-.29c1.46.13,3,.61,4.47.64,1.79,2.36,2.92-.65,4.43-.89,1.44-.87,3-.76,4.52-2,1.64-3,3.83-2.58,6-3,2.35.72,4.55-.48,6.28-6,2.32-1,4.26-5.54,6.57-7.76a13.5,13.5,0,0,0,6.52.87,5,5,0,0,0,3.45.37,6.61,6.61,0,0,0,3.25-2.09,10.82,10.82,0,0,1,3.32-2.64c1.16-.61,2.19-2.35,3.53-1.88.86-1.49,2-1.1,3.12-1,.9-1.57,2.17-.49,3.16-1.59,1.19.4,1.74-4.16,3.09-2.57a7.56,7.56,0,0,1,3-2.86c1-1.07,1.77-3.68,3-2.75,1.34,2,2-1.24,2.9-2.23.63-2.94,1.72-2.3,2.51-3.87S907.18,77.88,908,77c1.59-2.89,3.78-.69,5.18-4.2.9-.19,1.68-1.16,2.42-2.39a35.76,35.76,0,0,1,2.1-4c1.26.58,2.07-1.59,3.42.87.59-3.48,1.9-1,2.81-1.27.76-1.47,1.54-2.58,2.44-2.85,1.47,4.11,1.59-2.16,2.59-1.9s2-.07,2.85-1.57c.62-3.44,2.28.58,3.47.23,1.19-.07,2.72,1.74,4,1.28,1.58,1.82,2.73-.11,4.48,2.35,2,4.1,3,.53,4.83,3.73,1.66,1.45,3.43,3.6,4.78,3,2.12,6,3.42,5.5,4.62,4.61,1.34,1,2.58,1.86,3.65.92,1.3-.23,2.56,4.22,3.73,5.39,1.17.36,2.34-.65,3.44.92,1.16-.27,2.38-3.22,3.4.53,1.15-.43,2.3-1.3,3.44-1.06,1.2-2.65,2.32,1.93,3.5-2.79,1.17-2.64,2.38,2.35,3.5-4.64,3,6.6,5.66,5.17,8-.12,2.2-4.87,4.29-9.08,7.09-6.3,2.54.33,4.44-3.91,6.93-3.14a24.87,24.87,0,0,1,5.07-.64c1.71,0,3.34-.61,5.11-.26,1.65-.64,3.62.71,5.58,1.61,1.91.44,4.22,3.34,6,3,1.78-.53,3.74.26,5.68,1.06,1.88.49,3.76,1.41,5.43.76,1.78,1,3.33-.11,5,0a4.29,4.29,0,0,1,4.56-1.13c1.4-1,2.79-1.7,4.33-1.21,1.51.69,2.84-.8,4.22-1.55a6.49,6.49,0,0,1,4.29-1.59c1.55.11,2.89-1.59,4.46-1.71a42.79,42.79,0,0,1,6.91.3c2.36.33,4.82,1.34,6.94.39,2-2.21,4.46-.13,6.11-3.62,3,2.88,5.75,5.54,7.82,3.47,2.49,1,4.84,1,7-.82,2.26-1.41,4.89-.59,7.76,1.11a7.67,7.67,0,0,1,5.39-1.18,28.77,28.77,0,0,0,5.54.2c1.86.54,3.44-1,5.25-.64,1.69-.3,3.42.77,5-1.12a37.71,37.71,0,0,0,6-2c.92-.38,1.84-1.46,2.7-.85.78.44,1.63.16,2.65-1.87,1.75-3.16,3.58-3.51,5.46-2.69,1.46-5.89,3-6.72,4.59-2.86,1.56-1.4,3.21,5,4.93,5.56,1.91-1.55,3.69-.63,5.43,1.77,1.87-.93,3.08,4.55,5.28,3.54a6,6,0,0,0,4.67,1.5c1.49,1.17,3,3.23,4.83,0,1.46.79,2.89,1.84,4.28,0,1.31-1.08,2.61.88,3.77,1.35a8,8,0,0,0,3.79,1c1.3-1,2.84-.34,4.35-.41,1.33-1.63,3.45,3.18,4.48-.58,1.57.66,3,.28,4.33.64,1.88,1.11,3.73.83,5.67.68,2.33,2.91,4,.13,5.6-3.29,1.74-2.33,3.68-3.3,5.38-5.72a11,11,0,0,0,4.94-.51c1.62-.42,3.2-1,4.94-.5,1.25-3.18,3.26-.48,4.68-2.31,1.48-1.41,3.15-1.34,4.74-1.82,3.24-.54,6.13-3.73,9.3-4.79,1.64-.14,3.16-1.2,4.71-1.9,1.61-.37,3-2.44,5,.1,2.33,4.74,3.63,2.36,5.42,3.44,1.6-.19,3.1-1,5.37,3.66,1.15-3.81,3.34-.1,4.49-3.63,2.5,6,1.93-9.27,4.12-5.49a29.17,29.17,0,0,0,8.45-8c2.88-2.36,6.14-2,9.07-4.29a30,30,0,0,1,9.51-1.82c1.64,0,3.2-.67,5,.44,1.93,2,3.36.12,5.25,1.59,3.55,1.25,6.71-.11,10-.11a15.31,15.31,0,0,0,4.92.65,16.34,16.34,0,0,0,4.61-.86c1.8,2,3.3,1.81,4.64.58,1.25-1.89,2.94-.16,4.19-1.64,1.47-1.1,3.19.27,4.8,1.12,1.5,0,3.31,2.71,4.4.18,1.63,1.56,2.6-1.56,4.1-.61,1.3-.54,2.6-.95,3.88-1.59s2.56-1.37,3.86-2c.9-4,2.88,1.16,4-1.66,1.85,4.5,3,1.63,4.37,3.23,1.24-.37,2.51,1.21,3.61-1.64,1.17-.91,2.19-6.89,3.53-1.86,1.21.5,2.4,1.71,3.63,1.34,1.42-2.89,2.83-4.15,3.94-.17,1.19,1.47,2.44,2.21,3.9,1.51,1,2.13,2.21,3,3.65,1.89,1.11,1.3,2.5.55,3.85.15,1.24.13,2.54-.07,3.66.47a3,3,0,0,0,1.18,1.58V0Z"/></svg>
