<svg id="elements" xmlns="http://www.w3.org/2000/svg" viewBox="0 0 1160 60"><defs><style>.cls-1{fill:#fff;}</style></defs><title>rip-curriculum-coursepanel2</title><path class="cls-1" d="M4.89,38.19A28.91,28.91,0,0,1,8.6,38.1a18.36,18.36,0,0,0,4.54.11c1.58-.37,3.25,0,5-.3a7.36,7.36,0,0,1,2,.68c.67.27,1.32.9,2.06.43.79-1.38,1.32.92,2.1.38.73,0,1.67-1.8,2.35-.72.79,0,1.67-.8,2.52-1.2.7,1.25,1.69-1,2.52-1.42.8-2.47,1.65-1,2.46-1.92.75-1.89,1.65-.11,2.36-1.69a6.06,6.06,0,0,0,2.53.62c.81.06,1.57-.34,2.38.5.8.55,1.53-.9,2.37.38.89,2,1.65.6,2.52.92.75,0,1.52-3.55,2.29-1.76.8.42,1.64-1.29,2.46-.28.85-1.9,1.66.64,2.48-.43.81-.83,1.64.14,2.43-.66a2.62,2.62,0,0,0,2.49.3,8.27,8.27,0,0,1,2.44-.82,4.85,4.85,0,0,1,2.45-.52c.75-.67,1.65-.16,2.45-.49a10.11,10.11,0,0,1,2.52-.31,24,24,0,0,1,2.52-.39,3,3,0,0,0,2.54-.17c.79-.14,1.46-.78,2.39-.21,1.12.12,2.19.22,3.2.31s1.94.29,2.86.47c1.14.85,1.85.48,2.86,1,.77-.11,1.83.56,2.9,1.2.66-.23,1.92.81,2.71,1a3.48,3.48,0,0,1,2.39.58,3.92,3.92,0,0,1,2.11-.29,5.63,5.63,0,0,0,2.28-.49,23.15,23.15,0,0,0,2.53-.66c.9-.24,1.76-.39,2.72-.65a21,21,0,0,1,3-.61,10.61,10.61,0,0,0,3.19-.25,16.49,16.49,0,0,1,3.51,0,5.82,5.82,0,0,1,3.72.16,21.49,21.49,0,0,1,4.89.65,9.73,9.73,0,0,1,2.7-.21,22.16,22.16,0,0,0,2.7,0c1,.2,2,.56,2.87-.2.62-.68,1.75-.55,2.58-.81a6.23,6.23,0,0,1,2.08-1c.3-.56.6-1.18,2.23-.84.73-.31.43-2,1.74-1.48.66-.77,2.19,0,2.62-1.22,1.07.17,2-1.8,3-1.39,1.06-.8,2-.52,3-1,1.64.41,3.49-.35,4.29.83a4.68,4.68,0,0,1,2.28,0,11.3,11.3,0,0,0,2.29.33,5.63,5.63,0,0,1,2.52.59c1.39,0,2.19.35,2.49.8,1,.44,2.68.7,2.66,1.25a14.92,14.92,0,0,1,3.26.9c.89.33,2.83.3,3.37.92a3.77,3.77,0,0,1,2.26.42,9.66,9.66,0,0,1,2.25,2.31c1.18.9,2.19.42,3.22.4,1.08-1.08,2.11-.3,3,.73,1.16-.25,1.59,1.3,2.87,1.24a9.26,9.26,0,0,0,3,1.21c0,.69,1.17,1,2.1,1.46,1.43.41.2.87,1.5,1.23a6,6,0,0,0,1.78,1.09c1.66.27.94.93,2.66,1.07a8.76,8.76,0,0,1,2.86,1,6.52,6.52,0,0,0,2.77.91,7,7,0,0,0,3,.27,11.79,11.79,0,0,1,3.24-.39c.75.84,1.64,2.08,2.75,1.91,1.1,0,2.22.92,3.44,1.56a31.89,31.89,0,0,1,3.14,1.52c1.14.21,2.48-.21,4.31-2.22a9.35,9.35,0,0,1,3.18-.57c1.05-.54,2.13-.18,3.47-1.34.62.34,1.45-.45,2.42-.23a2.17,2.17,0,0,0,1.55-.69,3.53,3.53,0,0,1,1.72-1.06c.59-1.27,1.2-.47,1.82-1,.62.1,1.26.19,1.89-1.12.72.23,1.45.72,2.19,0,.74-1,1.49-.89,2.25-1.88s1.51-.39,2.27-.79c.75.42,1.5-.1,2.24-.59.74.3,1.46.7,2.17-.3.71-.74,1.39.14,2.05.06.83-.85,1.65.18,2.46-1,.81.44,1.61-1.08,2.41-.77A4.76,4.76,0,0,1,256,33c.8-.32,1.59-.07,2.4-.48s1.6-1.1,2.42-.21c.81-.42,1.64.58,2.48-.1,1.29-.21,2.56.16,3.76-.41,1.2-.23,2.33-1.13,3.35-1,.51,0,1-1.25,1.44-1.2.45-.74.86-1,1.23-.88.79-.49,1.53-.55,2.25-1,.73-1.57,1.44.05,2.17-1.15s1.49.79,2.35-.4c.79,1.29,1.66,1.59,2.68,1.1a14.88,14.88,0,0,1,6.43,1c1,.37,2.16.13,3.21.3a2.73,2.73,0,0,1,3.06.5c1,.07,2,.39,3,.44s1.93,1.13,3,.43,2.13.06,3.18.72c1.07.38,1.8,3.29,3.16,1.44.53,1.19,1.62-.94,2.14.43.56.77,1.41.32,2,.73.83-.35,1.49-.1,2.4-.7.81-.3,1,1.33,2,.61,1.19-1.92,1.58-.47,2.39-.83s1.69-1.63,2.14-.23c.5.76,1.61-1.3,2.16-.12.62.6,1.66-1,2.43-.92.88-1.07,1.66-1,2.48-1.22.83-.67,1.64-1.36,2.43-1.05.82-.13,1.58-1.7,2.36-1a3.59,3.59,0,0,0,2.29,0c.86,1.7,1.49.11,2.25.46a8.82,8.82,0,0,1,2.26.6,6.18,6.18,0,0,0,2.33,1.88c.8.91,1.42-.11,2.15,0,.67-.81,1.44.23,2.13.17.73.58,1.42.9,2.07.19A2.34,2.34,0,0,1,350.18,30c.68,0,1.76-2.31,2.21-1,.92-.83,1.56-.51,2.49-1,1.41-1.56,1.72-.34,2.89-1.08a15.93,15.93,0,0,1,4.4-3.09c.41-.4.47-1.1,1.46-.93s1.79.08,1.69-.82a9.8,9.8,0,0,1,2.84-.21c1.09,0,1.91-.37,3-.48,1.62.63,2.08-.44,3.21-.52a12.38,12.38,0,0,1,3.54.86,16.49,16.49,0,0,1,2.69-.24,13.46,13.46,0,0,0,2.48-.32c.71-1.49,1.58-.18,2.36-.39a3.75,3.75,0,0,0,2.3-.73,3.29,3.29,0,0,0,2.24-.2,18.86,18.86,0,0,1,2.21.46,10.87,10.87,0,0,1,2.13.71c.65.28,1.27.58,1.87.9a14.59,14.59,0,0,1,3.94.53c.72.14,1.45.3,2.22.48s1.59.39,2.44.61c.57.27,1.23.24,1.85.49a3.59,3.59,0,0,1,2,.54,3.61,3.61,0,0,0,2.14.18c.69.34,1.36,1.37,2.12.94.72.26,1.45.73,2.17.42a3.32,3.32,0,0,1,2.13.8,3.31,3.31,0,0,0,2.07.87c.72-.18,1.19,1,1.89.92,1,1.4,2.55.64,3.65,1.49,1.33.1,2.55.54,3.83.56,1.8-.72,3.68-.37,5.6.07.95.23,1.91.42,2.85.57s1.84.12,2.7.29c.83.85,1.69,1.55,2.57.81.88-.16,1.78.37,2.69-.1a8.57,8.57,0,0,1,2.72-.07c.9-.58,1.8.66,2.67.38A12.51,12.51,0,0,1,455.05,34c1.56,1.27,3.22.69,5.17.41a26.5,26.5,0,0,1,5.34,0c.87,0,1.74,0,2.6.07.86-.36,1.72.64,2.56.14,1.55,1.76,3.25,1.69,5,.75,1.71.85,3.42.66,5,.91a6.2,6.2,0,0,1,3.4-.26c1.12.49,2.24.95,3.35.41a21.82,21.82,0,0,0,3.33.08c1.11.81,2.22-.38,3.33.62a3,3,0,0,1,3.35-.09c1.12-.4,2.25.07,3.38-1,1.88,1.09,3.75.7,5.62.21.94.13,1.87.36,2.81.55a10,10,0,0,1,2.82.27c.95.29,1.9-.1,2.86.2,1-.39,1.92.32,2.88,0,1,.11,1.92-.25,2.88,0a6.88,6.88,0,0,1,2.85.43c.61-.12,1.23-.24,1.85,1.06.62.69,1.25-.56,1.88.56,1.26-.37,2.54.21,3.83.07,1.29.08,2.59-1.3,3.87-.63,1,.12,1.92-.58,2.86-.25s1.87,1.07,2.81.72c.93.26,1.86,1.13,2.79.8a22.29,22.29,0,0,0,2.83,0c.62.2,1.24.5,1.85.65.62,1.81,1.23.14,1.84,1,.61-1.49,1.23,1.31,1.84.65.61,0,1.22.44,1.83.5A4.77,4.77,0,0,0,557.29,41c3.6.9,7.15,1.14,10.83,2.39,2,1.22,3.79,2.26,5.52,1.24,1.72,0,3.37-2.57,5-1.9,1.62-.09,3.22-1.78,4.86-2.42,1.5-2.55,3.21-2.72,5-2.78a13,13,0,0,1,2.81.28c1,.19,1.93,1,2.9.71,1,.11,1.94,2.42,2.9.77,1,1.13,1.91-.94,2.83-.41s2,.34,3,.72c1-1,2,.88,3,.75,1,.45,2,1.92,3,1.62,1-.09,2-1.11,3-.73a5.4,5.4,0,0,1,3,0,2.46,2.46,0,0,0,3-1.05c1,.38,2,0,2.9.45s2-.23,2.88.24c1,0,1.91.1,2.86.17a6,6,0,0,0,2.89.23,2.88,2.88,0,0,0,2.91.25,3.71,3.71,0,0,1,2.91.68c2,.63,4,0,6,.92a7.79,7.79,0,0,0,2.95,1.08c1,.56,1.93-.45,2.89,0,.64-1,1.28-.33,1.92.47.63.24,1.27.6,1.9.22,1.27,1.64,2.53.37,3.78-.13a1.89,1.89,0,0,0,1.88-.85c.62.45,1.25-.35,1.87-1.79,1.87.73,3.74-.43,5.62.31,1.87-.58,3.75.22,5.64-.85.94-.14,1.89-.25,2.84-.34s1.89-.7,2.85-.25c.94-.57,2,.18,2.91-.27a2.19,2.19,0,0,0,2.93-.39,39.34,39.34,0,0,1,4.19.57c1.12-.49,2.42-.61,3.52-1.19a2.65,2.65,0,0,0,2,0c.5-.58,1.1-1,1.76-.66a3.23,3.23,0,0,1,2.86-.58c1,.75,1.9-.22,2.81-.79,1,1.31,1.86-.68,2.8.1a3.47,3.47,0,0,0,2.76-.91,19.43,19.43,0,0,0,6.92-.65c2.26-.45,4.48.72,6.71-.46a9.65,9.65,0,0,1,3.35-.42,11.48,11.48,0,0,0,3.38-.32A6.52,6.52,0,0,0,727,35c.86-.26,1.76-.73,2.67-.21.91-.38,1.84,0,2.79-.32.94,0,1.89.5,2.83-.37a9.66,9.66,0,0,1,5.6-.54c1.81-.22,3.55-.39,5.13,1a14.25,14.25,0,0,0,2.62.17c.88.15,1.78.44,2.69.55.92,1.05,1.85,0,2.8,0a24.31,24.31,0,0,0,2.93-.46c1.24-1,2.56-.75,4-.78,1.38.44,2.83.11,4.33-1.91,1.51-.23,3.06-1.89,4.66-2.61a12.22,12.22,0,0,0,3.94.78,4.49,4.49,0,0,0,2.09.38,5,5,0,0,0,2.17-.6,8.06,8.06,0,0,1,2.24-.81c.77-.16,1.54-.77,2.33-.5.65-.53,1.32-.29,2-.19.68-.56,1.37-.05,2.07-.41.7.24,1.4-1.52,2.1-.8a5.07,5.07,0,0,1,2.1-.92c.69-.35,1.38-1.32,2-.88.67.87,1.32-.35,2-.68.62-1.11,1.24-.78,1.85-1.34a5.82,5.82,0,0,1,1.83-.89c1.2-1,2.37,0,3.51-1.3a2.93,2.93,0,0,0,1.68-.78,15.31,15.31,0,0,1,1.61-1.41c.72.31,1.4-.48,2,.57.64-1.32,1.24-.24,1.83-.31a3.28,3.28,0,0,1,1.73-.95c.57,1.72,1.15-.74,1.74-.57a2,2,0,0,0,1.88-.42c.65-1.31,1.35.38,2.11.32s1.54.87,2.37.77c.82.83,1.69.15,2.57,1.23.87,1.74,1.77.41,2.66,1.79.91.68,1.83,1.65,2.71,1.48.83,2.49,1.67,2.39,2.48,2.12.74.48,1.43.91,2.16.61.82,0,1.24,1.83,1.87,2.37.69.22,1.49-.1,2,.59.73,0,1.72-1.1,2.05.44a6.43,6.43,0,0,1,2.2-.18c1-1,1.27.91,2.37-.86.93-1,1.28,1.08,2.53-1.59,1.3,2.79,3.06,2.42,4.91.5,1.74-1.77,3.37-3.28,4.87-2,1.53.3,3-1.23,4.51-.76a23.78,23.78,0,0,1,3.16.09,24.16,24.16,0,0,1,3.17.24c1.06-.14,2.17.53,3.3,1,1.14.3,2.33,1.6,3.48,1.57a8,8,0,0,1,3.41.8,8.43,8.43,0,0,0,3.27.67c1,.52,2.06.18,3.05.33a4,4,0,0,1,2.9-.13,4.53,4.53,0,0,1,2.76-.18c.87.37,1.81-.13,2.71-.33a6,6,0,0,1,2.77-.33c.94.15,1.9-.43,2.88-.37a40.25,40.25,0,0,1,4.22.58c1.43.29,2.86.86,4.24.63,1.38-.74,2.75.25,4-1,1.61,1.33,3.09,2.56,4.53,1.89a5.74,5.74,0,0,0,4.4.15,6.5,6.5,0,0,1,4.68,1,7.15,7.15,0,0,1,3.41-.09,30.9,30.9,0,0,0,3.39.45c1.1.34,2.19-.16,3.28.1,1.06,0,2,.53,3.13-.11a36.15,36.15,0,0,0,3.85-.37c.6-.09,1.24-.45,1.73-.16s1,.18,1.78-.55a3.19,3.19,0,0,1,3.57-.69c1.36-2.21,2.35-2.43,3-.81,1.07-.44,1.57,2.16,2.59,2.52A2.67,2.67,0,0,1,955,32.2c1.23-.24,1.54,2,3,1.75a4.9,4.9,0,0,0,2.75.9c.82.56,1.58,1.47,3,.31.84.41,1.63.92,2.63.27.9-.33,1.54.52,2.22.79a6.88,6.88,0,0,0,2.25.63c.88-.32,1.77.06,2.7.13,1-.55,1.87,1.48,2.8.08a22.54,22.54,0,0,0,2.61.54,8,8,0,0,0,3.44.65c1.2,1.3,2.45.32,3.7-.91,1.26-.8,2.53-1.05,3.77-1.88a10.62,10.62,0,0,0,3.08.13,8.36,8.36,0,0,1,3.07.14c1-1.16,2,0,3.07-.59a8.72,8.72,0,0,1,3.06-.4c2,0,4.06-1.05,6.09-1.25a13.83,13.83,0,0,0,3-.42c1,0,2-.76,3.06.37,1,2,2,1.17,3,1.72,1,0,2-.2,3,1.8,1-1.42,2.06.19,3.05-1.12,1,2.51,1.92-3.51,3-1.88a19.25,19.25,0,0,0,5.84-2.58c2-.73,3.93-.37,5.92-1.07a27.87,27.87,0,0,1,6-.07,7.16,7.16,0,0,1,3,.51c1,.91,2,.27,3.09,1,2.09.73,4.14.41,6.15.63a14.55,14.55,0,0,0,3,.59,16.5,16.5,0,0,0,2.9,0,2.36,2.36,0,0,0,2.8.54c.92-.65,1.83.14,2.71-.36,1-.33,1.94.32,2.86.76.92.12,1.82,1.29,2.7.37.87.73,1.72-.43,2.56,0,.84-.12,1.68-.2,2.52-.36s1.68-.37,2.53-.53c.87-1.51,1.68.65,2.59-.39.77,1.9,1.69.84,2.42,1.57.8-.06,1.45.64,2.35-.4.8-.28,1.9-2.56,2.32-.49.71.28,1.34.83,2.13.77,1.1-1,2.07-1.44,2.43.2a2.41,2.41,0,0,0,2.28.86,1.57,1.57,0,0,0,2.1,1c.58.59,1.49.39,2.35.32a10.56,10.56,0,0,1,2.21.43c.41,1,1.19,1,2.16.47a9.65,9.65,0,0,1,2.07.52c.67.18,1.32.37,1.94.57,3.6,1.1,7.47.24,10.49,1.21a3.09,3.09,0,0,1,3.55-.33,11.31,11.31,0,0,1,1.6,1.46c.46-.27,1.07,1.55,1.58,2,.57,1.35,1.06,1.61,1.54,1.66.54.89,1,.89,1.56,1.33,1.23,1,2.4,1.62,3.52,1,.56-.14,1.1-1.25,1.65-.71.54-.62,1.08-.87,1.61.28a15.43,15.43,0,0,1,3,.07,2.6,2.6,0,0,0,2.84.24c.9-.77,1.78-.46,2.62-.28s1.63-.3,2.4.13c.76-.61,1.49,0,2.18,1.3.69.67,1.35.44,2,.63a16.18,16.18,0,0,0,3.26,1.61c.93,1.26,1.71.81,2.34-.17,1.25-.35,1.89-.66,1.89.36V0H0V41.66C0,38.9,1.78,38.36,4.89,38.19Z"/></svg>