<svg id="elements" xmlns="http://www.w3.org/2000/svg" viewBox="0 0 1400 40"><defs><style>.cls-1{fill:#f8efe9;}</style></defs><title>rip-currentstudents</title><path class="cls-1" d="M1381,17.19c-.22-.1.11-1.36-.13-1.38-3.18-.23-6.71.4-9.89.17-3.6-.27-15.26-1.77-23.32-2.37-5.78-.44-10.94-.94-16.6-1.1,1.07,0-1.53,2.22-3.17,1.43-.19-.09.08-1.37-.13-1.38-7.89-.39-25.1,1.15-33.08-.82-1.87-.47.39-1.31-3.42-1.33-5.33,0-5.73-.9-10-1.21-3.11-.23-6.83.49-9.88.17-1-.11-.28-1.31-3.43-1.33-3.86,0-9.48.66-13.17.22-1.15-.13-.18-1.3-3.43-1.32-2.7,0-3.41-1.49-6.72-1.27a74.25,74.25,0,0,1-19.5,3.09c.7,0-1.6-1.31-3.43-1.32-5.35,0-5.69-1-10-1.21-5.31-.27-11.22.69-16.47.27-.69,0-.53-1.31-3.42-1.32-4.66,0-9.32.55-10-1.21q-3-2.94-10.28-4c-7.17,2.54-24.72,1.07-32.68,3.31-12.12,1-11.73,1.47-29.52,1.87,1.16,1.42-1.72,1-3.16,1.44-2.77.84-3.37,2-6.32,2.87-3.38,1-12.72,4-15.81,7.17-14.71-1.72-20.58,1-39.53.66-1.69,3-10,3.48-16.08,4.41-6,.91-14.47.93-19.64,1.72-.52.07-.9,1.15-3.16,1.43-2,.25-4.63-.2-6.59.11-1.13.18.1,1.31-3.16,1.43-5.27.21-14.54,1.26-19.5,3.09-.56-1.8-6.27-.8-10-1.21-2.74-.3-3.49-1-6.73-1.27-6.28-.49-12.28.75-16.6-1.1-14.11,3.14-27.6,3.14-49.28,2.21-1,0-6,.39-6.59.11-.23-.11.13-1.36-.13-1.38-4.07-.34-12.59-1.06-16.61-1.1-6.1-.07-9.38,1.41-16.34,1.66-4.06.14-7.4-2.77-13.17.22l-36.24.61c-2.78.3-3.16-.49-3.43-1.33-.95-2.19-8.69-.55-13.31-1.15-3.73-.49-1.17-.46-3.43-1.33a115.64,115.64,0,0,0-20.29-5.18c-2,1.89-6.79,2.69-12.91,3,2.71,3.7-15.63-.73-12.92,3-2.8-1.67-7.59,0-13.17.22-5,.18-13.59-.19-19.77.33.55,0-1.72,1.26-3.16,1.44-4.93.6-12.84-.76-13.05,1.6-4.24,1.45-12.13,1.51-12.78,4.35-9.61.53-10.42-2.94-20-2.42-3.11,2.34-13.85,1.73-19.5,3.09-14.06-2.74-31.16-4.1-49.94-4.69.47-1.65-5-.6-6.73-1.27-.42-.16.37-1.27-.13-1.37-1.23-.26-5.72.52-6.58.11-.46-.22.41-1.22-.14-1.38-1.23-.36-1.61-.86-3.42-1.32-3.63-.93-6-2-10.15-2.6-19.32,2-32.79-4-49.95-4.68-10.25-.43-21.2,1.64-32.81,1.93-2.92.07-7.51-1.34-13.31-1.16-7.55.24-10.52,2.38-22.93,1.77.63,0-1.74-2.28-3.42-1.32-.16.09.31,1.36.13,1.37-3,.2-7-.24-9.89.17-1.06.16-4.24,1.46-3.16,1.44-7.35.18-16-2.31-29.78-.89-1.27,2-2.91-.09-6.59.12-4.29,3.48-11.11,2.62-19.63,1.71-17.93-1.62-13.3,5.48-29.25,4.63-17.68-.19-26.87,2.9-39.14,4.8-8,4.72-24.75-1.42-36.24.61-.81.14.21,2.18-3.16,1.43C254.24,33,247.37,35.13,241,35s-7.45-1.21-13.44-2.54c-2.23-.49-4.37-.69-6.72-1.27-1.27-.31-3-1.24-3.43-1.32-1.23-.24-5.75.51-6.59.11-2.65-1.25-2.59-2-6.85-2.65-2.89-.41-7,.62-9.89.17-1.15-.19-.63-1.08-3.42-1.33-5-.43-7.88-1.41-13.32-1.15-3,.14-4.82,1.68-9.74,1.54a121.73,121.73,0,0,1-13.32-1.16c-2.58-.32-6.49-.64-10-1.21-1.2-.19-5.79.49-6.59.11-1.6-.75-1.87-1.93-3.56-2.7-3.79-1.72-4.16-2.41-10.28-4-2.65-.68-8-1.41-10.28-4-1.2-1.85-8.36-1-13.31-1.16-.48,1.58-3.23.82-3.29.06-3.21,0-2.72-1.65-3.56-2.7-6.21.25-1.85,4.59-9.49,4.3-2.77-.66-10.89,1.1-13.18.22A11.29,11.29,0,0,0,64,13.08c-2.87.35-5.55,1-9.75,1.55-4.89.6-3.34,2.84-12.91,3-2.54-1.25-6.19-2-10.15-2.6-.26-2.25-6.34-2.29-10.28-4-1-.43.89-2.39-.26-2.75s-5.42.56-6.59.11c-.5-.19.42-1.23-.14-1.38A95.23,95.23,0,0,0,0,4.68V40H1400V17.52c-3.74-.15-7.8-.29-12.45-.44C1386.56,17.05,1381.54,17.46,1381,17.19Z"/></svg>