<svg id="elements" xmlns="http://www.w3.org/2000/svg" viewBox="0 0 870 70"><defs><style>.cls-1{fill:#105754;}</style></defs><title>rip-enhancedpost-1</title><path class="cls-1" d="M870,0l-.26,16.5a6.06,6.06,0,0,1-1.54.3c-.73.4-1.41.31-2.08.71a5,5,0,0,0-2.06.76,3.93,3.93,0,0,0-2.28.93,16.13,16.13,0,0,0-2.55.91c-.89.53-1.83,1.61-2.77,1.29-.91-.1-2,.57-3,1.62-1,.28-1.47,2-2.81,1.48a3.15,3.15,0,0,0-2.89,1c-.52.85-2,.47-3,.62s-2,.23-2.91.31c-.28.39-1.2.31-1.64.5-.72,0-.93.29-1.84.17-.52.14-1.51-.13-2.17-.05a16.83,16.83,0,0,1-2.67.07,7.13,7.13,0,0,0-3.91.12c-1.31.58-.87-2.31-3.46-.26-.72-.24-.68-1.26-2.41-.08-.78.09-1.44.1-2.2.26a6.6,6.6,0,0,0-1.9.1c-.65.07-1.33.16-2,.22-1.34.07-2.74-.53-4.2-.09s-3,.58-4.51,1.08a9.44,9.44,0,0,1-4.2,2.44,4.08,4.08,0,0,1-4.19-1.65,6,6,0,0,1-4,1.28c-2.76.14-5.71-.06-8.38,1.54-5.24-2.58-4.54,3.21-14.15-1.26A17.61,17.61,0,0,1,769,32.76a9,9,0,0,1-3.61-.06,10.57,10.57,0,0,1-4.59-1.65c-2-.4-4.21-1.72-5.51-.89-1.33.62-3.26-.67-4.6-.12-1.48-.34-2.57.57-3.63,1.11-.36.46-1,.46-1.39.82-.68-.06-1.41-.19-2.1-.31-.47.29-1.28-.06-1.85.08a12.43,12.43,0,0,1-2-.08c-1.38-.26-2.6-.12-3.86-.27a5.5,5.5,0,0,0-3.55.06c-1.62-.46-2.91.89-4.47.48s-3,.14-4.4.27a3.81,3.81,0,0,1-2.25-.48c-.8-1-1.53-.8-2.29-1.09-1.14-1.66-2.17.48-3.29.06-1.1-.25-2.2-.73-3.27-.18a23.28,23.28,0,0,0-3.28-.45,19.19,19.19,0,0,0-3.32-1.28c-1.12-.53-2.21-.32-3.33-.67-1.08.36-2.23-.88-3.34-1.09s-2.23-1.27-3.3-.39c-1.1-.22-2.15.93-3.28-.46-1.09.15-2.16.76-3.28-1.56-1.13,1.65-2.24.15-3.26-.57-1.52.77-1.69-2.45-3.44-.43-.46-2.17-3.67.89-5,.83-2,.61-3.34.78-3.8.26-.3-.13-.24-.45-1.47,0-1.08.18-1.11,0-.57-.56-1.39.19-1.83,1.15-2.11.17-1.22-.19-2.38-1.16-3.71-1s-2.62-.54-4-.48a3.59,3.59,0,0,0-4.21-.15c-1.88-.65-3.68-.39-5.46-.44a14.31,14.31,0,0,1-5.06-.49c-1.56.87-3-1.65-4.6-.63-2.07-.76-4.13-.64-6.1-1-1-.16-2-.34-2.94-.53l-3-.57c-2.51,1.7-4.73,1.12-6.4,1.34-1.55,0-2.64.51-3.82.35-1.35-.12-3.68-.74-4.33.24-3.33-1-4.45,0-6.35,0-1.68,1.59-4,.16-5.94.19-1.61-.88-3.45-.68-4.94-1.59-1.82-1.41-4.22-2.44-6-1.32A36.66,36.66,0,0,0,585,20c-5-1.72-10.11-.95-14.9-2.55-4.73-3.68-8.1-2.11-11.81-2.67a45.75,45.75,0,0,0-11.67-3.3c-3.46-1.9-8.2-1.45-12.63-1.66-3.12.32-6.3.85-9.25.92a17.17,17.17,0,0,1-4.27-.34,25.49,25.49,0,0,1-5.13,1.51,12,12,0,0,0-4.86.48c-.5-.94-1.41-.56-2.35-.06-.62-.75-1.5-.42-2.38-.18-1.4.67-2.53.3-3.9.88s-2.4-.38-3.7,0c-1.19-.32-2.66,1.26-3.68-.25-1.21-.29-2.55.17-3.64-.88-1.18-.41-2.66.06-3.77-.43-1.73.69-2.32-.36-3.51-.37-1.34.2-1.8-.47-3.59.33-1.19.21-1.36-.51-2.8.07-.32-.65-1.83.1-3.2.68a2.81,2.81,0,0,1-2.72.31,5.81,5.81,0,0,0-2.81.48,5.74,5.74,0,0,1-2.56.13,9.12,9.12,0,0,0-2.71-.06,13.32,13.32,0,0,0-3.5.48c-2.3.18-4.94,1-6.81.6s-4.23,0-6.39,0h-6.27c-3.94-.05-7.65-.19-11.06-.18-2.1-.7-4.21-1.43-6.32-2.1a38.24,38.24,0,0,0-6.35-1.51c-1.12,1.05-2.16,0-3.24-.14s-2.19-.48-3.25.43c-1,.47-2,1-3,.34-1,.36-2.1.43-3.17.72-1.08.54-2.2-.13-3.26.61a6.49,6.49,0,0,0-3.07.07,2.64,2.64,0,0,1-1.46.13c-.47,0-.91-.3-1.38-.27-.93.27-1.87-.29-2.81-.22a2.6,2.6,0,0,0-1.42-.29c-.49-.05-.9.2-1.4.06-.18.37-.58.37-1.08.28a2.21,2.21,0,0,1-1.15,0c.25.58.3.74-2,.27-1.55-.31-1.34.34-2,.6s-2.56-.09-2.89.46c-1.31-.15-1.79.36-3.78-.49-.4.51-2.57-.66-3.52-.78-1.49-1-1.32.42-2.42,0-1.23-.68-1.93-.34-2.4.39a2.44,2.44,0,0,1-2.2.39c-.59-.15-.93-.65-1.88.23-.77.22.15-1.59-2,.05.54-1.17-1.09-.42-3.15.16s-3.32.65-4.1.37A1.63,1.63,0,0,0,351.9,13c-.78.2-1.19-.73-1.89-.5-.37-.78-1.16-.27-1.7-.48a2.43,2.43,0,0,0-2.13.21c-.63-.12-1.89.32-2.7.3-.18-.49-2,.21-2.2-.24-1.9.82-1.1-.43-1.82-.51-.3-.45-1.45-.19-1.5-.89-1.65.63-1.8-.07-2.3-.57a18,18,0,0,1-3.52,0,13.35,13.35,0,0,1-4.62,1.08c-2,1.18-3.33,1.44-4.22.89-1.45.51-1.86-.64-3.38,0-.83-2.27-2.17-1.43-3.63-.67-.9.61-3.24-2.07-3.45-1.52-1.33-.26-3.2-1-3.28-.34-1.22.42-3.16,0-4.82-.28a3,3,0,0,1-2.29.11c-.91-.33-1.86-1-2.8-1.39a16.67,16.67,0,0,1-5.36-2.11c-1.71-.61-3.43-2.46-5.16-1.81-1.81.27-3.86,1.18-6.95,3a14.8,14.8,0,0,0-4.8.45c-2.8.33-6.94,1.79-11.13,2.28a25.8,25.8,0,0,0-6.87.56c-2.16.77-4.34,1.19-6.74,2.17-2.25,1-4.44.19-6.84.9a19.19,19.19,0,0,1-7.4-.34,31.85,31.85,0,0,0-3.91-.63,7.44,7.44,0,0,0-4-.23c-1.37.36-2.63-1.24-4.06-.33a7.39,7.39,0,0,1-4.17,0c-2.45,1.21-4.83,0-7.38.16-2.64,1.29-5.27.37-8,1-2.75-.41-5.62.68-8.5.92-.73.2-1.45.38-2.18.54s-1.44.31-2.17.45c-1.45,0-2.88.52-4.33.58a11,11,0,0,1-4.28.25,49.42,49.42,0,0,1-6.33-.23c-2,.05-4.06-.62-6-.67a3.42,3.42,0,0,0-1.9-.07c-.62.36-1.26.08-1.88.44-.61.13-1.25-.57-1.84.43-.59.53-1.23.16-1.84.27-.63-.59-1.22.14-1.83.37-.63-.4-1.14,1.45-1.83.33-.93.07-1.83.66-2.77.52-.95-.44-1.88.14-2.84,0-.95-.6-1.91.36-2.88-.45a4.43,4.43,0,0,0-2.94-.65c-2.22-.74-4.18-.18-6.13.39s-3.88,1.22-6.12.1c-1.67,2-3.82,2-6,1.09-2.18-1.21-4.32-.39-6-.47a8.4,8.4,0,0,0-4.72-.75c-1.52-.68-2.92.54-4.32-.06-1.32,1.33-2.74-.65-4,.3-1.35-.17-2.52,1-3.7,1.19-1.19.5-2.34,1.22-3.59,1.71-1.15,1-2.87.46-4.85.19a18.62,18.62,0,0,1-3.26,1.14A16,16,0,0,1,95,20.87c-2-.28-4.46-1.15-6.26-1.07-2.12-.26-4.18.5-6.66-.45-2.7,0-5.4-1.12-7.91-.65-1.26.18-2.5,1-3.7.13-1.21-.55-2.42,0-3.67.51-1.47,1.34-2.58.93-4,1.53-1-.62-3.11,1.23-3.6.12a4,4,0,0,1-3.39.14c-1.24.3-2.47.69-3.11,0-1.23.61-2-.1-3-.32-1.18.72-2.17-.29-3.35-.32a33.57,33.57,0,0,1-3.75,0,31.64,31.64,0,0,1-3.49-.24,6.84,6.84,0,0,0-3.14.07,11.39,11.39,0,0,1-2.75.06c-.8.42-2.16.31-3.8-.27-1.2,0-2.19.32-4-.56a14.21,14.21,0,0,1-4,0c-1.76-.59-3.1-.06-4.16,1.73a16.83,16.83,0,0,0-5.81-1.62c-2.41-.78-3.12,0-6-1.14-1.34,0-2.72-.23-3.53-.18-.42.2.42,1.52-1.41.54a1.26,1.26,0,0,1-.57.92V0Z"/></svg>