<svg id="elements" xmlns="http://www.w3.org/2000/svg" viewBox="0 0 210 30"><defs><style>.cls-1{fill:#ea593e;}</style></defs><title>rip-navSidefixed-IntroImmersive</title><path class="cls-1" d="M210,0V12a3,3,0,0,1-.79,0c-.5.14-1.07.14-1.61.27a9.35,9.35,0,0,1-1.72.31c-.45-.11-.84.23-1.29-.11s-.79-.1-1.18-.23c-.81-.11-1.57-.32-2.31-.48-.6-.75-1.5,0-2.27.11a10.16,10.16,0,0,1-2.4.32,3,3,0,0,1-.85.19c-.31.31-.55-.08-.87.16a7.53,7.53,0,0,0-1.85.31,14.38,14.38,0,0,0-2,.26c-.68.43-1.47-.09-2.2-.1-.75-.39-1.45.18-2.27-.49-.35.39-.77.15-1.19.06-.37.36-.82.28-1.25.33a1.87,1.87,0,0,0-1.3.16,2.73,2.73,0,0,1-1.26.24,19.15,19.15,0,0,1-2.48.21,2.37,2.37,0,0,0-2.29-.26c-.68-.16-1.51-.9-2.06-.47-.75-.18-1.51-.07-2.33-.31a5.39,5.39,0,0,1-2.68-1.05c-1.33,3.12-3.16,1.15-4.75,2.05-1.69,2.6-3.61.8-5,2.22-2.39-1.82-3.23-2.32-3-1.76a6.21,6.21,0,0,0-1.53.66,5.76,5.76,0,0,1-1.55,1,5.46,5.46,0,0,0-2.05-.28c-.61-.25-.11.73-1.17.33a3.37,3.37,0,0,1-1.53-.3c-.34-.24-.55-.66-1.06-.94-.4,0-.71-.52-1.17-.68-.18-.13-.12-.29-.74-.32.18-.12-.08-.18-.62-.26,0-.08-.23-.15-.61-.21-.21-.06-.57-.06-.58-.23-.67.11-.83-.11-1.28-.15s-1.07.44-1.59-.19c-.66-.1,0-.34-1.58-.4-.07-.2-.44-.33-1.41-.44-.11-.19-.6-.34-1.25-.48s-1.32-.15-1.79-.28a3.1,3.1,0,0,0-2.23,0l-.71-.16c-.26-.22-.56-.44-.76-.35s-.3-.13-.48-.22a1.14,1.14,0,0,0-.55-.34c-.34-.17-.51-.44-1-.41s.16-.46-.71-.3c-.16-.1-.57-.1-.68-.25a1.85,1.85,0,0,0-1.51-.22c-.54.29-.54,0-1.14.4.11-.28-.68.47-.9.58s-.87.82-.93.69-.76.31-1.16.51c-.49.42-.69.22-1,.28-.11-.16-.68.21-1.05.39a1.69,1.69,0,0,0-.95.35c-.27.53-.57,0-.89.41-.28.21-.62-.09-.89.46-.27.32-.65.14-1,.41a7,7,0,0,0-1.11.31c-.78-.1-1.21,1.08-2,1.18-.79.94-1.57-.53-2.27-.53s-1.42-.35-2.18-.41a3.86,3.86,0,0,1-2.27.37c-.76-.12-1.5.5-2.17,0a8.66,8.66,0,0,0-1.12.11,3.14,3.14,0,0,0-1.13.26c-.76.7-1.53.27-2.29.82-.76,0-1.5.89-2.25.83-.78.23-1.54,1-2.33,1.05a11.86,11.86,0,0,0-2.35.58,4,4,0,0,1-1.19,0c-.4-.11-.8-.27-1.18.12a1.56,1.56,0,0,1-1.25-.05c-.41-.25-.82-.46-1.25-.2-.4-.24-.84-.07-1.24-.27-.44.22-.86.09-1.28.39s-.87-.49-1.28.46c-.42-.3-.87.45-1.28.56-.92-.44-1.71.09-2.4.28a6.75,6.75,0,0,1-1.88.66c-.3.57-1.69.58-2.81.82-.59,0-1.11.06-1.58.1a5,5,0,0,0-1.28.2,3.68,3.68,0,0,0-2.46.53,4,4,0,0,1-1.21.35c0,.68-.54.55-1,.42s-.25.42-.88.3c-.06.2-1.45-.39-1.17.13-.17.21-1.22-.07-1.84-.1-.28.31-1.44-.41-2-.32l-1.57,0H59.8a3.64,3.64,0,0,1-2.27.65c-.87.08-1.33.82-2.09,1.27-.15.52-1.42.66-1.43,1.23-.17.44-1.33.14-3.34-2.11a7.34,7.34,0,0,0-1.89,0c-.54.13-1.1.26-1.69.36a17,17,0,0,1-2,.11c-1.12-.22-2-1.05-2.92-.79a10.28,10.28,0,0,1-2.67-.13c-.9-.05-1.83,0-2.83-.09-.62-.42-1.39-.07-1.93,0s-1.1.6-1.48.67c-.45.34-.78.28-1.2.54s-.8.38-1.27.59-1.07.41-2,.63a5.6,5.6,0,0,0-1.52.27c-.63,0-1.09,0-1.52.07s-.89.08-1.31.06a4.44,4.44,0,0,1-1.17.19c-.34.19-.64.1-.95.29a1.87,1.87,0,0,0-.95.33,1.43,1.43,0,0,0-1.05.41c-.35,0-.76.3-1.17.38-.42.26-.88.84-1.28.59s-.89.22-1.39.77c-.46.11-.74,1.08-1.3.71a1.17,1.17,0,0,0-1.33.42c-.27.47-.89.16-1.35.19s-.9,0-1.3,0c-.14.2-.55.11-.75.19s-.43.12-.82,0c-.24.05-.66-.17-1-.16a6.14,6.14,0,0,1-1.18-.11,2.39,2.39,0,0,0-1.74-.17c-.61.26-.28-1.4-1.52-.36-.31-.18-.25-.77-1.06-.18a6.55,6.55,0,0,0-1,0,2.1,2.1,0,0,0-.84-.05H.45A2.39,2.39,0,0,1,0,28.78V0Z"/></svg>