<svg id="elements" xmlns="http://www.w3.org/2000/svg" viewBox="0 0 800 80"><defs><style>.cls-1{fill:#ea593e;}</style></defs><title>rip-blogcard-combo2</title><path class="cls-1" d="M0,80V73.13a15.59,15.59,0,0,0,4.4-1.55C14.83,69.9,14.5,69,29.79,68.3c-1-2.46,1.48-1.74,2.72-2.5,2.39-1.47,2.9-3.44,5.44-5,2.91-1.8,10.94-7,13.6-12.52,12.66,3,17.7-1.7,34-1.15,1.45-5.19,8.56-6.08,13.83-7.7s12.45-1.63,16.89-3c.45-.13.78-2,2.72-2.5,1.73-.43,4,.35,5.67-.19,1-.32-.08-2.28,2.72-2.5,4.53-.36,12.5-2.19,16.77-5.4.49,3.15,5.4,1.41,8.62,2.12,2.35.52,3,1.77,5.78,2.21,5.4.86,10.56-1.29,14.28,1.93,12.14-5.48,23.74-5.48,42.39-3.86.87.08,5.15-.68,5.67-.19.19.18-.12,2.36.11,2.4,3.5.6,10.83,1.85,14.28,1.92,5.25.12,8.08-2.45,14.06-2.88,3.5-.25,6.36,4.83,11.33-.39l31.17-1.06c2.39-.53,2.72.84,3,2.31.82,3.83,7.48,1,11.45,2,3.21.85,1,.78,2.95,2.31a64.4,64.4,0,0,0,17.45,9c1.72-3.29,5.85-4.69,11.11-5.2-2.34-6.46,13.45,1.27,11.11-5.2,2.41,2.91,6.53,0,11.33-.38,4.29-.32,11.69.32,17-.58-.47.08,1.48-2.2,2.72-2.51,4.24-1.05,11,1.32,11.22-2.79,3.66-2.54,10.44-2.63,11-7.6,8.26-.91,9,5.14,17.23,4.23,2.67-4.08,11.91-3,16.77-5.39,12.1,4.77,26.8,7.14,43,8.17-.41,2.89,4.31,1.06,5.78,2.22.37.28-.31,2.22.12,2.4,1.06.46,4.91-.91,5.66-.19.4.37-.35,2.13.12,2.4,1.06.63,1.39,1.51,2.94,2.31,3.12,1.62,5.15,3.41,8.73,4.52,16.62-3.51,28.2,6.92,43,8.18,8.82.75,18.24-2.86,28.22-3.37,2.52-.13,6.47,2.33,11.45,2,6.5-.41,9-4.15,19.73-3.09-.54-.05,1.49,4,2.94,2.31.14-.16-.27-2.38-.11-2.4,2.57-.34,6,.43,8.5-.29.91-.27,3.65-2.55,2.72-2.5,6.32-.32,13.8,4,25.62,1.53,1.09-3.54,2.5.16,5.66-.19,3.7-6.09,9.57-4.58,16.89-3,15.42,2.82,11.44-9.56,25.16-8.08,15.2.33,23.11-5.06,33.66-8.38,6.86-8.23,21.3,2.48,31.18-1.06.69-.25-.18-3.8,2.72-2.5,5.48.53,11.38-3.28,16.88-3s6.41,2.11,11.56,4.43c1.92.86,3.76,1.21,5.79,2.21a36.13,36.13,0,0,1,2.94,2.31,8.92,8.92,0,0,0,3.09-.22V80Z"/></svg>