<svg id="elements" xmlns="http://www.w3.org/2000/svg" viewBox="0 0 600 50"><defs><style>.cls-1{fill:#4a455c;}</style></defs><title>rip-company-news1</title><path class="cls-1" d="M600,0V5.15a11.54,11.54,0,0,0-3.3,1.17c-7.82,1.26-7.57,1.93-19,2.45.74,1.85-1.12,1.31-2,1.88-1.8,1.11-2.18,2.58-4.08,3.75-2.18,1.35-8.21,5.25-10.2,9.39-9.49-2.26-13.28,1.27-25.51.87-1.08,3.88-6.41,4.55-10.37,5.77s-9.33,1.22-12.66,2.24c-.34.1-.59,1.51-2,1.87-1.3.33-3-.25-4.25.15-.74.24.06,1.71-2,1.88-3.4.27-9.38,1.64-12.58,4-.37-2.36-4.05-1.06-6.47-1.59-1.76-.39-2.25-1.33-4.33-1.66-4-.64-7.92,1-10.71-1.44-9.1,4.11-17.81,4.11-31.8,2.89-.65-.05-3.86.51-4.25.15-.14-.14.09-1.78-.08-1.81a104.53,104.53,0,0,0-10.71-1.44c-3.94-.09-6.06,1.85-10.54,2.17-2.63.18-4.78-3.63-8.5.29L381.12,39c-1.79.4-2-.63-2.21-1.73-.61-2.87-5.61-.72-8.59-1.51-2.41-.64-.75-.59-2.21-1.73A48.2,48.2,0,0,0,355,27.2c-1.29,2.47-4.38,3.52-8.33,3.9,1.75,4.85-10.09-1-8.33,3.9-1.81-2.18-4.9,0-8.5.29-3.22.24-8.77-.24-12.75.43.35-.06-1.12,1.65-2,1.88-3.18.79-8.29-1-8.42,2.1-2.74,1.9-7.83,2-8.24,5.7-6.2.68-6.73-3.86-12.93-3.18-2,3.06-8.93,2.27-12.58,4.05-9.07-3.58-20.1-5.36-32.22-6.13.31-2.17-3.23-.8-4.33-1.66-.28-.22.23-1.67-.09-1.81-.79-.34-3.69.68-4.25.15-.29-.28.27-1.6-.08-1.8-.8-.47-1.05-1.13-2.21-1.74-2.34-1.21-3.86-2.55-6.55-3.39C210.71,32.52,202,24.7,191,23.76c-6.62-.56-13.68,2.14-21.17,2.53-1.88.1-4.85-1.75-8.58-1.52-4.88.31-6.79,3.11-14.8,2.32.41,0-1.12-3-2.21-1.74-.1.12.2,1.79.09,1.81-1.93.25-4.54-.32-6.38.22-.68.2-2.73,1.91-2,1.87-4.74.24-10.35-3-19.21-1.15-.82,2.65-1.87-.12-4.25.15-2.77,4.56-7.17,3.43-12.66,2.23-11.57-2.11-8.59,7.18-18.88,6.07-11.4-.25-17.33,3.8-25.24,6.28-5.14,6.18-16-1.86-23.38.8-.53.19.13,2.85-2,1.87-4.11-.4-8.54,2.46-12.67,2.24s-4.8-1.58-8.67-3.32c-1.44-.64-2.82-.9-4.33-1.65A26.13,26.13,0,0,1,2.32,41,6.74,6.74,0,0,0,0,41.2V0Z"/></svg>