<svg id="elements" xmlns="http://www.w3.org/2000/svg" viewBox="0 0 1330 35"><defs><style>.cls-1{fill:#fff;}</style></defs><title>rip-course-immersive-opportunity</title><path class="cls-1" d="M0,35V.58a43.32,43.32,0,0,0,6.08,1C8.81,4.32,13.9,3.08,16.76,3.29a19.62,19.62,0,0,1,12.7-.79c2.6.28,5,.1,7.81.92,3.12,3,4.09-.55,6.54.61,2.21-.48,5.43,2.32,8.11.54a16.72,16.72,0,0,1,7.94-.66c4.83-.55,10.75.37,15.15,1.16,1.18.26,5-.16,5.7.46,2.18.37,4.35-.13,6.28,0a22.68,22.68,0,0,0,5.88.21,50.69,50.69,0,0,0,5.38.71c.55.19-1,.52,2.1.51s-.43.34,4,.48c1,.19,1.25.39,7.29,1.41.58.32,0,.58,3.32,2.08.51,1.54,1,4,3.69,4,3.45-1,3.35,1.79,6.49-1,1.57-.34,2.08.43,2.87,0,3.32-.5,5.63.06,8.16-.37a17.07,17.07,0,0,0,8.55.13c1.63.8,4.52,1.11,8.13,1.85,4.19-.17,9.78-1.2,14.59.49,4.72.45,8.86,1,13.1,1.42s8.6.82,13.72,1c3.57-.21,6.52-.31,9.09-.34a54.19,54.19,0,0,0,6.81.1c2.64-.42,4.6,1.14,7.41.78,1.41,2.69,5,.57,6.81,1.7,2.88.48,6.06.59,9.08,1.55,3.77-.65,6.92.57,10.42,1.78,3.58,1,8.18.63,12.53,1.81,6.27,0,12.27-1.48,16.42-.39,4.85-.46,9.28-1.6,12.95-2.08s6.72-1.13,10-1.61a46.31,46.31,0,0,1,11-.4c6.78-.79,11.29-2.74,17.2-3,5.1,1.6,9.25,3.34,15.4,4.56a18.64,18.64,0,0,0,5.35-.83c1.32-.31,3.19-.57,9.25-1a20.2,20.2,0,0,0,8.83-.4c3.23,0,7.23-.1,10.16.85,8.75,1,10.28,3.31,14.7,1.13,3.08-.28,5.57.23,13.71.15a24,24,0,0,0,7,1.36c2.34.17,4.89-.29,6.71.54,2,.67,5.28-1.8,6.63-.21,2.79-1.57,3.83.49,6.38-.91,1,2,3.49.53,5.71-.44,1.41.82,4.17-1.43,6.26-2.26,3.05,0,6.6-1.33,8.93.22,2.84.57,6.13.37,9.87.22,8.17.23,12-.59,13.63-1.07,10.36.09,8.75-.23,10.09-.3,4.93.46,7.11.63,6.41.27,4.35.51,5.48.14,9.19.23,3.44-.43,6-.21,9-1.65,1.36-2.14,5.79-.79,9-1.1,2.19-.69,5.73-.6,8.37-1,3.25,0,6.54.09,9.22-.16-.6-.54.3-1.49,3.74-.86,2.8.55,5.14-.15,5.66-1.47,1.52-.12,3.31-.47,5.25-.78a32.75,32.75,0,0,1,6-.51c1.88.13,4.26-.86,6.4-1.55,1.93-.23,4.48-2,5.78-1.53,1.55.58,5.32-3.72,6.72-2.84,1.93-.27,4.08-1,5.94-1.16,3.81-.47,6.52,1.48,11.05-.56,3.4.35,7.9-1.69,11.72-2.19a10,10,0,0,1,5.63-.52c1.67.31,3.22.95,4.89,1.36,3.77-.13,6.52,2.45,10.52,2.69,3.23,2,8.24,0,11.13,2,2-.63,4.48-.14,6.78-.5a8.76,8.76,0,0,1,4.85-1.27c3.93-.51,6.64-1.52,10-1.88,4.09.35,7-1,10.61-1.08s8.08-.89,11.63-.53c3.37.61,6.24,1.32,10.28.82,1.67.11,3.88-.71,5.41-.21a15.83,15.83,0,0,1,4.57-1,19.84,19.84,0,0,1,6.6-.25,29,29,0,0,1,3.83.62,72.21,72.21,0,0,0,9.06,1.44c16.67,2.07,21,2.41,24.6,2.5a45.45,45.45,0,0,1,11.26,1,22.28,22.28,0,0,0,11.93,1.05c4.45-.14,8.21,1.28,12.27,2,3.9.94,7.15,3.68,12.25,1.94,3.3,2.17,8.39,0,12.35-1.09q3.39.18,6.9.22,3.63-.21,7.18-.12c2.64-.54,4.62.4,7.45-.48,2.62-.39,5.24-.76,7.77-.89,5.87-.21,11.43-.25,16.38.94,6.12-1.39,11.53-1.37,17.06-1.34,3.93.17,7.87.27,11.81.36l11.76.25c3.92.1,7.24,1.19,10.86,1.79,3.06,1.83,7.53.72,12.63-1.09,5-2.31,7.47,1.11,11.32,1.55,4,.08,6.42,3.74,11.55,1.54,3.89.39,7.39,1.63,11.81.57,3.38,1.43,7.31.18,11.94,1.24,4.25.13,7.88,0,11-.07s5.21-.16,8.07-.23c5.4.09,7.65.07,7.78-.17,1.62-.09,6.13.83,5.53,0,2.14.15,4.37.62,5.85.73a17.08,17.08,0,0,1,4.91.44c1.64-.46,3.9.08,6.36.32s5.18,1.52,9.2.44a33.22,33.22,0,0,0,12,.9c3.72-.61,6.85-1.18,9.08-.54a45,45,0,0,1,7.21-.93c2.21-.3,4.15-.23,6.6-1,4-.17,8.18.21,13.71-1.93a63.7,63.7,0,0,1,7.35-.79,30.68,30.68,0,0,0,8-1.6c3.67-1,7.26-2.53,9.26-1,3-.65,4.63,1.29,7.67.06,2.42.12,5-.28,7.36.24,2.5.08,4.57,1.39,8.26-.33,5.73-.19,10.44.26,14.66,1.77a44.75,44.75,0,0,0,14.14.09c3.17-.4,6,.4,9.43-.31a28.28,28.28,0,0,0,5.2-.9c2.08-.71,3.66-.08,6.15-1.49,2.65.85,5.88.2,8.93.33,3.07-.33,6.24.55,9.4,0,3.7-1.24,6.65.44,10.1.07,3.5,2.61,7.87.95,12.22.18,4.93.75,11.3,2.11,13.19,1.86,2.23.11,8.05,1.11,9.47.93,2.13.69,2.7,1.2,4.31.39.52,1.11,3,.17,4.47-.24a26.91,26.91,0,0,0,6.82-.92,26.2,26.2,0,0,0,8.25-1.27c3.4,0,4.1-1,7.33-.59a7.84,7.84,0,0,1,6.48-.63c2.09-.44,4.45.67,6.38,0,2.13.11,4.41-.28,6.39.2,3.07,1,7.51-1.08,11-1.18a56.71,56.71,0,0,1,10.14.58c8.32-2.63,13.53-1.55,20.65-2.58a99.06,99.06,0,0,0,10.67-1V35Z"/></svg>