<svg id="elements" xmlns="http://www.w3.org/2000/svg" viewBox="0 0 1400 66"><defs><style>.cls-1{fill:#7c7d98;}</style></defs><title>rip-company-landing</title><path class="cls-1" d="M1400,46.57l-1.3.24A135.1,135.1,0,0,1,1381.81,49c-4.4-.45-8-.67-11.19-.73-3.11.14-5.68.69-8.38.21-3.26-.92-5.67,2.48-9.13,1.69-1.73,5.87-6.14,1.26-8.39,3.7-3.55,1-7.45,1.3-11.18,3.38-4.63-1.41-8.51,1.23-12.82,3.88-4.42,2.25-10.08,1.37-15.43,3.93-7.72,0-15.11-3.21-20.22-.84-6-1-11.42-3.48-15.93-4.53s-8.29-2.46-12.34-3.51a32.44,32.44,0,0,0-13.54-.86c-8.34-1.71-13.89-6-21.17-6.49-6.28,3.48-11.4,7.27-19,9.92a14.25,14.25,0,0,1-6.59-1.8c-1.62-.67-3.92-1.24-11.38-2.1-3.27.91-5.87,1.19-10.87-.87-4,0-8.9-.22-12.52,1.85-10.76,2.16-12.64,7.22-18.08,2.46-3.8-.6-6.86.5-16.9.33a18.87,18.87,0,0,1-8.62,3c-2.88.36-6-.63-8.26,1.17-2.42,1.46-6.51-3.93-8.16-.46-3.45-3.41-4.72,1.07-7.86-2-1.24,4.26-4.3,1.16-7-1-1.74,1.78-5.14-3.11-7.71-4.93-3.76.06-8.12-2.89-11,.49-3.5,1.24-7.54.81-12.15.46-10.06.51-14.8-1.27-16.79-2.33-12.75.2-10.77-.5-12.42-.63-6.07,1-8.75,1.36-7.89.59-5.35,1.11-6.74.3-11.31.49-4.24-.94-7.41-.46-11.13-3.58-1.67-4.68-7.12-1.73-11.06-2.42-2.7-1.48-7.06-1.29-10.31-2.24a67.08,67.08,0,0,1-11.35-.35c.74-1.17-.36-3.23-4.6-1.85-3.44,1.19-6.33-.34-7-3.21a54.5,54.5,0,0,1-6.47-1.69,22.73,22.73,0,0,0-7.37-1.11c-2.32.27-5.25-1.89-7.88-3.37-2.37-.51-5.51-4.44-7.12-3.34-1.9,1.25-6.55-8.1-8.27-6.18-2.37-.58-5-2.23-7.31-2.52-4.7-1-8,3.2-13.6-1.22-4.2.76-9.74-3.69-14.43-4.77a7.47,7.47,0,0,0-6.94-1.13c-2.06.68-4,2.06-6,3-4.65-.28-8,5.32-13,5.86-4,4.29-10.14.09-13.71,4.32-2.44-1.38-5.51-.31-8.35-1.08-1.33-1.2-3.32-3.15-6-2.76-4.83-1.11-8.17-3.32-12.3-4.1-5,.75-8.56-2.2-13.07-2.36-4.57-.45-9.94-1.94-14.32-1.14-4.15,1.32-7.69,2.87-12.66,1.78-2,.24-4.77-1.56-6.66-.46-2.06-1.65-3.82-1.64-5.63-2.15-2.78-1.36-5.37-.82-8.12-.55a22.83,22.83,0,0,0-4.71,1.34,54.15,54.15,0,0,1-11.16,3.15c-20.52,4.5-25.86,5.24-30.29,5.44A32.68,32.68,0,0,0,693,26.88c-4.12,3-9,3.77-14.68,2.29-5.49-.29-10.12,2.79-15.11,4.3-4.8,2-8.81,8-15.08,4.21-4.07,4.73-10.34-.07-15.22-2.38q-4.17.41-8.49.48a60.87,60.87,0,0,0-8.83-.25c-3.26-1.18-5.7.88-9.18-1a58.12,58.12,0,0,0-9.56-1.94c-7.23-.46-14.08-.54-20.17,2-7.54-3-14.2-3-21-2.91-4.84.36-9.7.59-14.55.78s-9.68.34-14.47.55-8.92,2.58-13.37,3.9c-3.77,4-9.28,1.56-15.56-2.39-6.18-5-9.2,2.42-13.93,3.38-4.95.18-7.91,8.14-14.22,3.34-4.79.87-9.1,3.55-14.55,1.24-4.16,3.12-9,.4-14.69,2.72a121.09,121.09,0,0,1-13.6-.17c-3.71-.14-6.41-.34-9.93-.49-6.65.21-9.43.16-9.59-.36-2-.2-7.55,1.8-6.8,0-2.64.33-5.39,1.35-7.21,1.59a12.19,12.19,0,0,0-6,.95c-2-1-4.8.17-7.83.7-3.19.35-6.38,3.32-11.32,1a23.92,23.92,0,0,1-14.81,2c-4.59-1.34-8.44-2.57-11.19-1.17-3.39-1.07-6.32-2-8.88-2-2.72-.64-5.11-.49-8.12-2.18-5-.38-10.07.44-16.88-4.22-3.08-1.08-6-1.25-9.05-1.72a24.06,24.06,0,0,1-9.81-3.48c-4.51-2.16-8.93-5.49-11.39-2.16-3.69-1.43-5.7,2.79-9.44.12-3,.25-6.21-.61-9.06.52-3.09.19-5.63,3-10.18-.71-7.05-.42-12.85.56-18.05,3.85-7,2.14-12,1.32-17.41.2-3.9-.89-7.38.86-11.61-.68-2-.64-4-.48-6.4-2-2.55-1.53-4.5-.17-7.56-3.23-3.28,1.84-7.25.44-11,.72-3.78-.73-7.68,1.18-11.58-.11-4.56-2.71-8.18,1-12.43.16-4.31,5.67-9.69,2-15,.39-6.07,1.63-13.91,4.57-16.23,4-2.76.23-9.91,2.42-11.67,2-2.62,1.5-3.32,2.61-5.31.85-.63,2.41-3.71.36-5.49-.52-3,.11-5.64-.88-8.4-2-5.25-.34-8.22-1.49-10.16-2.76-4.19.1-5-2.07-9-1.3-2-1.69-4.87-3.57-8-1.36-2.56-1-5.47,1.45-7.85-.06-2.62.25-5.43-.61-7.87.44-3.77,2.23-9.25-2.35-13.6-2.57A40.56,40.56,0,0,0,22,30.65C13.16,25.7,7.15,26.8,0,25.72V0H1400Z"/></svg>