<svg xmlns="http://www.w3.org/2000/svg" xmlns:xlink="http://www.w3.org/1999/xlink" width="911" height="55" viewBox="0 0 911 55">
    <defs>
        <path id="d7orfoftja" d="M0 0L911 0 911 54.886 0 54.886z"/>
    </defs>
    <g fill="none" fill-rule="evenodd">
        <g>
            <g transform="translate(-229 -261) translate(229 261)">
                <mask id="776cx6n9kb" fill="#fff">
                    <use xlink:href="#d7orfoftja"/>
                </mask>
                <path fill="#F1F5F7" d="M0-2.84v33.325c1.77-.065 4.25-3.24 6.136-3.38 1.586 2.502 11.468-2.623 9.935 1.447 2.887.118 4.37-6.824 7.252-6.67 2.09.112 7.172 1.444 7.803 1.508 2.094.21 2.484-4.946 2.632-4.887 16.967 6.77 6.59-.384 13.263-2.061 2.175-.546 1.063-.84 2.187-1.1.789-.183 3.264 3.41 3.781 3.093.12-.074 5.641-1.024 5.774-1.032 2.568-.182 2.504-.165 6.6 0 3.623.145 6.454-2.17 10.08-2.06 3.909-.31 4.485 1.039 2.188 1.099.537 1.194 4.348.745 4.373 2.199 7.098.636 10.168-.75 15.303-1.1 1.27 1.02 6.568 2.772 10.933 3.299 4.758.573 11.715-1.246 17.49 0 .995.212 1.733 1.636 2.186 2.198h2.187c-.704-.67 4.997-3.16 6.56-2.198.137.082 3.139 1.856 4.374 1.098.11-.067-.11-1.094 0-1.098 1.306-.058 3.971 1.015 6.56 1.098 2.507.08 3.916.036 4.374 1.1 8.238-.846 10.45 1.34 17.489 1.099 3.664-2.734 10.886-.287 15.307 0 6.128.396 12.086.245 17.49 1.1.75.118 3.92-.282 4.372 0 .333.202-.37.92 0 1.098.376.182 1.82-.185 2.187 0 .29.145-.338.996 0 1.098 1.06.328 3.22-.247 4.373 0 .407.09.906.842 2.188 1.1 1.883.38 4.612-.302 6.56 0h2.186v-1.1c7.197-.044 10.882-1.854 19.676-1.098h2.188c3.117-3.345 18.958-2.93 19.675 1.098 4.51.666 15.191-1.772 13.12 2.2 7.517-.481 12.254.434 17.49 1.1 1.99 3.396 11.6 2.962 10.932 7.694h4.375c1.861-.202 2.062.429 2.186 1.1 4.591-.665 5.762 1.016 8.747 1.1 7.287.2 15.17-2.928 17.49 1.098 4.351-1.477 10.409-2.095 15.307-3.298 8.524.077 15.387-.105 21.863 0 3.89.063 4.646 1.246 8.747 1.1 2.002-.073 3.31-1.241 6.56-1.1-.7-.03 1.46 1.008 2.186 1.1 1.37.173 2.982-.133 4.369 0 1.72 1.053 10.891-1.37 13.12 0 .103.06-.085 1.097 0 1.1 4.58.058 8.064-2.425 13.12 0 5.634-1.2 10.508-2.779 13.117-5.497 5.433.164 9.076-.57 10.934-2.199 8.25 1.346 14.537 3.684 26.235 3.298.244 2.077 7.231.763 6.56 3.298 5.45-.925 11.715-1.44 19.676-1.1-1.883 3.88 3.52 1.009 8.748 1.1 3.045.052 4.351 1.313 6.56 1.1 6.35-.618 12.104-1.67 10.933-4.398 2.542-.18 3.89.243 4.374 1.1 3.95-.96 2.647-1.433 8.742-2.199 1.239-.157 2.307-1.108 2.187-1.1 4.288-.267 8.337 2.63 8.746-2.199 2.128.03 1.696 1.345 2.187 2.2 2.541-.18 3.892.242 4.374 1.099 3.533.31 3.762-1.04 6.56-1.1 3.831-1.005 10.907-.378 13.116-2.199 3.251 1.3 9.772.952 8.747 4.398 15.045-.238 26.412 1.377 37.17 3.298.674-1.492 5.475-.912 8.747-1.1.269-2.427 9.272-.467 13.115-1.098 1.721 1.052 10.892-1.37 13.12 0 2.217 1.36 1.645.426 6.562-1.1 1.447-.45 2.822-.603 4.372-1.099.44-.142 1.825.181 2.183 0 .204-.102-.24-1.057 0-1.1 3.365-.587 3.903 1.282 6.56 1.1 2.738-.19 3.733-1.768 6.56-2.199 5.45-.832 11.391.65 17.494-1.1 2.041-.805 3.31-1.999 4.368-3.297 6.869 2.902 15.163-.517 19.68-2.2 6.33.359 7.206.648 15.304 1.1 4.625.26 7.863 1.344 10.933 1.1 2.921-.232 3.405-2.054 6.56-2.2 2.87-.845 16.896-5.005 17.49 0h8.746c-1.728 3.803 2.431 4.641 4.374 6.597 9.944-1.198 12.762-5.546 24.05-3.299 6.462-1.93 17.169-3.553 17.493 2.199 3.853.315 6.77-5.175 8.747-2.199 5.138-1.6 10.417 2.625 17.49 1.1.965-.208-.256-1.192 2.186-1.1 3.639.14 4.186.443 4.374 2.199 2.956-1.08 4.369-2.933 6.56-4.398 11.916-.494 17.963 1.961 30.61 1.1 3.272 1.653 3.91 4.63 8.744 5.498 3.148.614 5.335 1.714 6.559 3.298 5.424-.163 10.61-.207 10.934 2.198 2.371-.272 1.48-2.186 4.37-2.198h8.747c3.27-1.288 8.943-1.368 10.931-3.298 1.77.207 2.18 1.102 4.375 1.099 4.158.755 10.234.75 13.117 2.199 1.337.671-.28.808 2.187 1.098 3.322.392 8.446-.755 8.744 1.1 4.363-1.472 9.48-2.564 10.933-5.496 1.8-.563 7.29.732 8.745 0 .15-.076-.16-1.085 0-1.1 1.348-.122 11.645.906 13.12 0 .098-.06-.083-1.1 0-1.1 1.458-.01 2.56.93 4.373 1.1.967.09 2.455.094 4.203.07V-2.84H0z" mask="url(#776cx6n9kb)"/>
            </g>
        </g>
    </g>
</svg>
