<svg id="Layer_1" data-name="Layer 1" xmlns="http://www.w3.org/2000/svg" viewBox="0 0 335 50"><defs><style>.cls-1{fill:#f1f5f8;}</style></defs><path class="cls-1" d="M-755-2V33.65c1.9-.07,4.55-3.47,6.57-3.61,1.7,2.67,12.28-2.81,10.64,1.54,3.09.13,4.68-7.3,7.77-7.13,2.23.12,7.68,1.54,8.35,1.61,2.25.23,2.66-5.29,2.82-5.23,18.17,7.25,7.06-.41,14.21-2.2,2.33-.59,1.14-.9,2.34-1.18.84-.19,3.49,3.65,4,3.31.13-.08,6-1.1,6.18-1.1a42.59,42.59,0,0,1,7.07,0c3.88.15,6.91-2.33,10.8-2.21,4.18-.33,4.8,1.11,2.34,1.18.57,1.27,4.65.79,4.68,2.35,7.6.68,10.89-.8,16.39-1.18,1.36,1.1,7,3,11.71,3.53,5.09.62,12.55-1.33,18.73,0,1.06.23,1.86,1.75,2.34,2.35h2.34c-.75-.71,5.35-3.38,7-2.35.14.09,3.36,2,4.68,1.18.12-.07-.12-1.17,0-1.18,1.4-.06,4.26,1.09,7,1.18s4.19,0,4.68,1.17c8.82-.9,11.19,1.44,18.73,1.18,3.93-2.92,11.66-.31,16.39,0,6.57.42,13,.26,18.73,1.18.81.12,4.2-.3,4.69,0s-.4,1,0,1.17,2-.2,2.34,0-.36,1.07,0,1.18c1.13.35,3.45-.27,4.68,0,.44.09,1,.9,2.35,1.17,2,.41,4.93-.32,7,0H-515V30.39c7.71-.05,11.66-2,21.07-1.18h2.35c3.33-3.58,20.3-3.13,21.07,1.18,4.83.71,16.27-1.9,14.05,2.35,8.05-.51,13.12.46,18.73,1.18,2.13,3.63,12.42,3.17,11.71,8.23h4.68c2-.22,2.21.46,2.34,1.17,4.92-.71,6.17,1.09,9.37,1.18,7.8.22,16.25-3.13,18.73,1.18,4.66-1.58,11.15-2.25,16.39-3.53,9.13.08,16.48-.11,23.42,0,4.16.07,5,1.33,9.37,1.17,2.14-.07,3.54-1.32,7-1.17-.75,0,1.56,1.08,2.34,1.17,1.47.19,3.2-.14,4.68,0,1.84,1.13,11.67-1.46,14.05,0,.11.07-.09,1.18,0,1.18,4.91.06,8.64-2.59,14.05,0,6-1.28,11.26-3,14.05-5.88q8.73.27,11.71-2.35c8.84,1.44,15.57,3.94,28.1,3.53.26,2.22,7.74.81,7,3.52a99.29,99.29,0,0,1,21.07-1.17c-2,4.15,3.77,1.08,9.37,1.17,3.26.06,4.66,1.41,7,1.18,6.8-.66,13-1.79,11.71-4.7,2.72-.19,4.16.26,4.68,1.17,4.23-1,2.84-1.53,9.36-2.35a4,4,0,0,0,2.34-1.18c4.6-.28,8.93,2.82,9.37-2.35,2.28,0,1.82,1.44,2.34,2.35,2.72-.19,4.17.26,4.69,1.18,3.78.33,4-1.11,7-1.18,4.11-1.07,11.68-.4,14-2.35,3.48,1.39,10.46,1,9.37,4.71a195.89,195.89,0,0,1,39.8,3.52c.73-1.59,5.87-1,9.37-1.17.29-2.6,9.93-.5,14-1.18C-61.22,42.1-51.4,39.51-49,41s1.76.46,7-1.17c1.55-.49,3-.65,4.69-1.18.47-.15,1.95.19,2.33,0,.22-.11-.25-1.13,0-1.18,3.61-.62,4.18,1.38,7,1.18s4-1.89,7-2.35c5.84-.89,12.2.69,18.74-1.18A11,11,0,0,0,2.5,31.56c7.35,3.11,16.24-.55,21.07-2.35,6.78.38,7.72.69,16.39,1.18,5,.27,8.42,1.44,11.71,1.17,3.13-.24,3.65-2.19,7-2.35,3.07-.9,18.09-5.35,18.73,0H86.8c-1.86,4.07,2.6,5,4.68,7.06,10.65-1.28,13.67-5.94,25.76-3.53,6.92-2.07,18.38-3.8,18.73,2.35,4.12.34,7.25-5.54,9.37-2.35,5.5-1.71,11.15,2.81,18.73,1.18,1-.23-.28-1.28,2.34-1.18,3.9.15,4.48.47,4.68,2.35,3.17-1.15,4.68-3.14,7-4.7,12.76-.53,19.24,2.09,32.78,1.17,3.5,1.77,4.19,5,9.36,5.88,3.37.66,5.72,1.84,7,3.53,5.81-.17,11.36-.22,11.71,2.35,2.54-.29,1.58-2.33,4.68-2.35H253c3.51-1.38,9.58-1.46,11.71-3.53,1.9.23,2.34,1.18,4.69,1.18,4.45.81,11,.8,14,2.35,1.44.72-.29.87,2.35,1.18,3.55.42,9-.81,9.36,1.17,4.67-1.57,10.15-2.74,11.71-5.88,1.93-.6,7.81.79,9.37,0,.16-.08-.18-1.16,0-1.17,1.44-.13,12.47,1,14.05,0,.1-.07-.09-1.18,0-1.18,1.56,0,2.74,1,4.68,1.18,1,.1,2.63.1,4.5.07V-2Z"/></svg>