<?xml version="1.0" encoding="UTF-8"?>
<svg width="300px" height="60px" viewBox="0 0 300 60" version="1.1" xmlns="http://www.w3.org/2000/svg" xmlns:xlink="http://www.w3.org/1999/xlink">
    <title>E8042DA9-98CD-4D65-9978-DE56B6680B7B</title>
    <defs>
        <rect id="path-1" x="0" y="0" width="300" height="60"></rect>
        <path d="M521,0.0522231892 L520.84431,22.687792 C520.546004,22.9159446 520.236018,23.0542891 519.922143,23.0993477 C519.485013,23.6480888 519.077822,23.5246221 518.67662,24.0733631 C518.236797,24.2072128 517.815456,24.5633348 517.443073,25.1159711 C516.940072,25.1952041 516.461477,25.6424391 516.077788,26.3917941 C515.554428,26.7091484 515.043641,27.1267478 514.550824,27.64018 C514.017884,28.3672619 513.455003,29.8488628 512.892122,29.40987 C512.347206,29.2726847 511.694504,30.191826 511.095695,31.6322712 C510.496885,32.01639 510.215445,34.3759766 509.41304,33.6626132 C508.77149,33.4046947 508.117253,33.9233232 507.682482,35.0344658 C507.371101,36.2005406 506.484863,35.6792366 505.886054,35.8850145 C505.287245,36.0907924 504.688435,36.2005406 504.143519,36.3102888 C503.975852,36.8453113 503.424948,36.7355631 503.161472,36.9962151 C502.730329,36.9962151 502.604579,37.3940524 502.059663,37.2294301 C501.748282,37.4214894 501.155461,37.0510892 500.760246,37.1608374 C500.229258,37.2898319 499.694635,37.3219429 499.161426,37.2568671 C498.389541,36.8105923 497.578568,36.8676127 496.820081,37.4214894 C496.035641,38.217164 496.299117,34.2525098 494.748201,37.0648078 C494.317059,36.7355631 494.341011,35.3362734 493.305071,36.9550595 C492.838,37.0785263 492.442786,37.0922448 491.987691,37.3117412 C491.607543,37.2313389 491.224316,37.2775474 490.849953,37.4489265 C490.460727,37.5449562 490.053537,37.6684229 489.652334,37.7507341 C488.84993,37.8467638 488.011597,37.0236522 487.137335,37.6272673 C486.263074,38.2308825 485.340908,38.4229419 484.436706,39.1088682 C483.740169,40.7081176 482.873134,41.8620925 481.921707,42.4561887 C480.96289,42.9231119 479.975092,42.0319495 479.412696,40.1926318 C478.732693,41.4199154 477.882137,42.0434665 477.017459,41.9486032 C475.364745,42.1406626 473.598258,41.866292 471.999437,44.0612563 C468.861676,40.5218764 469.280843,48.4649033 463.526286,42.3327219 C462.589717,43.5674613 461.575873,44.4650725 460.520263,44.9941161 C459.804666,45.301482 459.069304,45.2734816 458.358561,44.9118049 C457.377884,44.6585069 456.436648,43.8833515 455.610027,42.648248 C454.412408,42.099507 453.08904,40.2886615 452.310588,41.4272992 C451.514171,42.2778478 450.35847,40.5081579 449.556065,41.2626769 C448.669827,40.796247 448.017125,42.0446329 447.382387,42.7854333 C447.166816,43.4164855 446.783578,43.4164855 446.550043,43.9103525 C446.142852,43.8280413 445.705721,43.6497005 445.292543,43.4850782 C445.011103,43.8829154 444.526067,43.402767 444.184746,43.5948264 C443.784901,43.6320592 443.384397,43.5953575 442.987127,43.4850782 C442.160771,43.1283965 441.430223,43.3204558 440.675724,43.1146779 C439.982645,42.6029753 439.235085,42.6319213 438.549951,43.1969891 C437.57988,42.5659369 436.807416,44.417938 435.873273,43.8554784 C434.939131,43.2930188 434.076845,44.0475378 433.238512,44.2258786 C432.770517,44.3296899 432.299951,44.0997056 431.891191,43.5673893 C431.412144,42.1955367 430.975013,42.4699072 430.519918,42.0720699 C429.837276,39.7947945 429.220502,42.7305592 428.549836,42.1543811 C427.891145,41.8114179 427.232455,41.1529287 426.591729,41.9074476 C425.944256,41.595143 425.287898,41.3888436 424.627635,41.2901139 C423.99012,40.5649991 423.324578,39.9771489 422.639588,39.5341425 C421.968922,38.8070606 421.31622,39.0951497 420.645553,38.6150012 C419.998839,39.1088682 419.310208,37.4077709 418.64553,37.1196819 C417.980852,36.8315928 417.310186,35.377429 416.66946,36.5846593 C416.010769,36.2828517 415.38202,37.8604823 414.705365,35.9536071 C414.052663,36.159385 413.411937,36.9962151 412.741271,33.813517 C412.064616,36.0770738 411.399938,34.0192949 410.789152,33.031561 C409.878962,34.0878875 409.777165,29.670522 408.729249,32.4416643 C408.453796,29.4647441 406.531619,33.6626132 405.735202,33.580302 C404.537584,34.4171321 403.735179,34.6503471 403.459727,33.9369837 C403.280084,33.7586429 403.316013,33.31965 402.579477,33.9369837 C401.932763,34.1839172 401.914799,33.9369837 402.238156,33.1687462 C401.405811,33.4293982 401.142335,34.7463768 400.974668,33.4019612 C400.244121,33.1413092 399.549502,31.8106121 398.753086,32.0301085 C397.95667,32.2496049 397.184206,31.2893081 396.357849,31.3716192 C395.625253,30.0619794 394.608284,29.9789683 393.836862,31.1658413 C392.7111,30.2741371 391.633244,30.6308188 390.567363,30.5622262 C389.547954,30.7542493 388.521773,30.5265883 387.537388,29.8900184 C386.603246,31.0835302 385.74096,27.6264615 384.782866,29.0257512 C383.54333,27.9831432 382.309783,28.1477655 381.130129,27.6538986 C380.53132,27.4344021 379.93251,27.1874687 379.36963,26.9268166 L377.573202,26.1448606 C376.070191,28.4770101 374.740834,27.6813356 373.740822,27.9831432 C372.812668,27.9831432 372.159966,28.682788 371.453371,28.4632916 C370.644979,28.2986693 369.249753,27.4481207 368.860527,28.7925363 C366.866492,27.4206836 366.195826,28.7925363 365.058088,28.7925363 C364.052088,30.973782 362.662851,29.0120327 361.501161,29.0531883 C360.537078,27.8459579 359.435269,28.1203285 358.543043,26.8719425 C357.45321,24.9376303 356.016068,23.5246221 354.950187,25.061097 C353.379549,25.4875934 351.83363,26.3017132 350.339356,27.4892762 C347.34531,25.1296897 344.285394,26.1860162 341.417098,23.991052 C338.58473,18.9426342 336.566743,21.0964429 334.34516,20.3282054 C332.113804,18.1154076 329.763794,16.592997 327.357056,15.8010916 C325.285176,13.1945716 322.44682,13.8119053 319.794095,13.5238162 C317.92581,13.9628091 316.021596,14.689891 314.255109,14.7859207 C313.397647,14.875573 312.538658,14.7188773 311.698193,14.3194908 C310.708765,15.2548336 309.679136,15.9491527 308.626302,16.3909883 C307.646784,16.1511576 306.656202,16.3752949 305.716089,17.0494776 C305.416684,15.7599361 304.871767,16.2812401 304.308887,16.9671664 C303.937625,15.9382769 303.410673,16.3909883 302.883721,16.7202329 C302.045388,17.6393742 301.368733,17.1317887 300.548364,17.9274633 C299.727996,18.7231378 299.111222,17.4061592 298.33277,17.9274633 C297.620187,17.4884704 296.739937,19.6559976 296.129152,17.5845001 C295.404593,17.1866628 294.602188,17.817715 293.949486,16.3772698 C293.242891,15.8148102 292.356654,16.4595809 291.691975,15.7873731 C290.656035,16.7339514 290.302738,15.2935062 289.590155,15.2797876 C288.78775,15.5541582 288.512298,14.6350169 287.440429,15.732499 C286.727846,16.0205881 286.626049,15.0328542 285.763763,15.8285287 C285.572144,14.9368245 284.667942,15.965714 283.847574,16.7613885 C283.373542,17.5404131 282.757203,17.701341 282.218812,17.1866628 C281.642762,17.0826241 281.064471,17.3089323 280.536158,17.8451521 C280.037575,18.1685675 279.513526,18.2295344 279.003207,18.0234929 C278.467092,17.8110162 277.920128,17.7832727 277.380434,17.9411818 C276.67216,17.9465198 275.967351,18.1679633 275.284601,18.599671 C273.90734,18.8466045 272.326483,19.9715237 271.20671,19.4227826 C270.086937,18.8740416 268.673747,19.4227826 267.380319,19.4227826 L263.625784,19.4227826 C261.266476,19.35419 259.044893,19.1621306 257.002954,19.1758492 C255.745454,18.2155523 254.481967,17.2140999 253.218479,16.2949586 C251.979085,15.357452 250.706973,14.664429 249.41604,14.2234611 C248.745374,15.6639064 248.122612,14.2234611 247.475898,14.0314017 C246.829184,13.8393423 246.164506,13.3729124 245.529768,14.6212984 C244.930959,15.2660691 244.33215,15.993151 243.73334,15.0877283 C243.134531,15.5815952 242.475841,15.6776249 241.835115,16.0754622 C241.188401,16.8162626 240.517734,15.8971213 239.882997,16.9122923 C239.275685,16.6069346 238.645257,16.6398663 238.044652,17.008322 C237.766422,17.2556343 237.463317,17.3174647 237.170391,17.1866628 C236.88895,17.1866628 236.625474,16.775107 236.344034,16.8162626 C235.787141,17.1866628 235.22426,16.4184253 234.66138,16.514455 C234.400132,16.1998841 234.105237,16.0619106 233.811071,16.1166177 C233.517654,16.0480251 233.272142,16.3909883 232.972738,16.1989289 C232.864952,16.7065144 232.625428,16.7065144 232.326023,16.5830477 C232.100502,16.7222682 231.862914,16.7222682 231.637393,16.5830477 C231.787095,17.3787222 231.817036,17.5982186 230.439774,16.9534479 C229.51162,16.5281735 229.63737,17.4198778 229.242156,17.7765595 C228.846942,18.1332411 227.709204,17.6530927 227.511597,18.4076117 C226.727157,18.2018338 226.439728,18.9014786 225.248098,17.7354039 C225.008574,18.4350487 223.709158,16.8299811 223.140289,16.6653588 C222.248063,15.2935062 222.349861,17.2415369 221.691171,16.6653588 C220.954635,15.732499 220.535469,16.1989289 220.254028,17.2003813 C219.878433,17.8559109 219.387714,18.0552048 218.936648,17.7354039 C218.583351,17.529626 218.379755,16.8436997 217.810887,18.05093 C217.349803,18.3527376 217.900708,15.8696843 216.613268,18.1195226 C216.936625,16.514455 215.960566,17.5433445 214.727019,18.339019 C213.493472,19.1346936 212.738972,19.2307233 212.271901,18.8466045 C212.161219,18.1826364 211.919352,17.6787536 211.62035,17.4892269 C211.321348,17.2997002 211.000825,17.4471037 210.756913,17.8863077 C210.289842,18.1606782 210.04433,16.8848552 209.625164,17.2003813 C209.403604,16.1303363 208.930545,16.8299811 208.607188,16.5418921 C208.185474,16.1806985 207.71453,16.2870706 207.331724,16.8299811 C206.954474,16.6653588 206.199975,17.268974 205.714939,17.2415369 C205.607154,16.5693291 204.517321,17.529626 204.397559,16.9122923 C203.259821,18.0372115 203.738869,16.3223956 203.307726,16.2126474 C203.128083,15.5953137 202.439452,15.9519954 202.409512,14.9916986 C201.421477,15.8559657 201.331655,14.8956689 201.032251,14.2097426 C200.331335,14.3675076 199.625357,14.3675076 198.924442,14.2097426 C198.048287,15.078075 197.111326,15.579865 196.157943,15.6913434 C194.960325,17.3101296 194.163908,17.6668112 193.630968,16.9122923 C192.762695,17.6119371 192.517183,16.0343066 191.606993,16.9122923 C191.109981,13.7981868 190.307576,14.950543 189.433315,15.993151 C188.894387,16.8299811 187.493173,13.153416 187.367423,13.907935 C186.571007,13.5512533 185.451233,12.5360823 185.403329,13.4415051 C184.672781,14.0176832 183.511091,13.4415051 182.517068,13.0573863 C182.086724,13.5216189 181.59358,13.5758877 181.145795,13.2082901 C180.600878,12.7555788 180.032009,11.8364375 179.469129,11.3014149 C178.334044,10.7705457 177.247959,9.79105554 176.259511,8.40680584 C175.235547,7.56997572 174.205595,5.03204832 173.169655,5.92375254 C172.08581,6.29415276 170.858251,7.54253867 169.00793,10.0393105 C168.041548,9.88380147 167.070573,10.0923456 166.133646,10.6566442 C164.45698,11.1093556 161.97791,13.1122604 159.468899,13.7844682 C158.088799,13.617855 156.705181,13.8762395 155.355079,14.5527057 C154.061651,15.6090323 152.756247,16.1852104 151.319104,17.529626 C149.971784,18.9014786 148.660391,17.790278 147.223249,18.7642934 C145.746982,19.2696258 144.241881,19.1111979 142.79206,18.2978635 C142.020194,17.8987813 141.238234,17.6101344 140.450716,17.4335963 C139.679919,16.8286179 138.851464,16.7194851 138.055479,17.1180702 C137.23511,17.6119371 136.480611,15.4169729 135.624313,16.6653588 C134.809226,17.2145159 133.942365,17.2145159 133.127279,16.6653588 C131.660196,18.3253005 130.23503,16.6653588 128.708066,16.8848552 C127.12721,18.6545452 125.552341,17.3924407 123.917592,18.2567079 C122.270866,17.6942483 120.552284,19.1895677 118.827713,19.5188123 C118.390582,19.7931829 117.95944,20.0401163 117.522309,20.2596128 C117.085178,20.4791092 116.660023,20.6848871 116.222893,20.8769465 C115.354619,20.8769465 114.498322,21.5903098 113.630049,21.672621 C112.793835,22.170936 111.922996,22.28747 111.067145,22.0155842 C109.802012,22.0962093 108.535925,21.9908175 107.276682,21.700058 C106.079064,21.7686507 104.845516,20.8495094 103.683826,20.7809168 C103.316165,20.5031876 102.921673,20.4698909 102.546089,20.6848871 C102.174827,21.178754 101.791589,20.7946353 101.420327,21.2885022 C101.055054,21.4668431 100.671816,20.5065462 100.318518,21.8783989 C99.9652208,22.6054808 99.5819829,22.0978953 99.2167092,22.2487991 C98.8394593,21.439406 98.4861619,22.4408585 98.1208882,22.7563846 C97.7436384,22.2076435 97.4382456,24.7455709 97.0250672,23.209096 C96.4681746,23.3051256 95.9292463,24.1145187 95.3663655,23.9224593 C94.7974967,23.3188442 94.2406041,24.1145187 93.6657472,23.9224593 C93.0968784,23.0993477 92.5220215,24.4163263 91.9411765,23.3051256 C91.4177865,22.5461058 90.7949554,22.2306378 90.1806772,22.4134214 C88.8513206,21.3982505 87.6776544,22.1664879 86.5099763,22.948444 C85.3422982,23.7304 84.1865963,24.6221042 82.8452635,23.0856292 C81.8452521,25.8293345 80.5578121,25.8293345 79.2524079,24.5809486 C77.9470037,22.9210069 76.6655518,24.0459261 75.6595522,23.9361779 C74.7807844,22.973487 73.7989107,22.6160547 72.8331724,22.9072884 C71.9229823,21.9744286 71.0846493,23.6480888 70.2463163,22.8249772 C69.4558881,24.6495412 68.6055789,21.933273 67.8510792,23.236533 C67.0426867,23.0033181 66.3420799,24.6083857 65.6354849,24.8690377 C64.9229019,25.554964 64.2342712,26.5426979 63.4857596,27.2149057 C62.7971289,28.5867584 61.767177,27.8459579 60.5815346,27.4755577 C59.9533816,28.134284 59.2998653,28.6578394 58.6294164,29.0394697 C58.057039,29.0376021 57.4858861,28.9182308 56.9228099,28.682788 C55.7251914,28.2986693 54.2521205,27.1051575 53.1742638,27.2149057 C51.9047882,26.858224 50.6712411,27.900832 49.1861941,26.597572 C47.569409,26.597572 45.952624,25.061097 44.4496127,25.7058678 C43.695113,25.9528013 42.9525895,27.0777204 42.2340183,25.8842086 C41.5094591,25.1296897 40.7848999,25.8842086 40.0363883,26.5838535 C39.1561387,28.422136 38.4914604,27.8596765 37.6411512,28.682788 C37.0423419,27.8322394 35.7788543,30.3701668 35.4854378,28.8474104 C34.8547384,29.598279 34.1110509,29.6686409 33.4554743,29.0394697 C32.7129508,29.4510255 31.9764154,29.9860481 31.5931775,29.0394697 C30.8566421,29.8762999 30.3955589,28.9022845 29.7967496,28.6004769 C29.0901547,29.5882108 28.4973335,28.2026396 27.7907386,28.161484 C27.0428117,28.2573372 26.2931307,28.2573372 25.5452038,28.161484 C24.8464717,28.140113 24.1487909,28.0301968 23.4553594,27.8322394 C22.8338388,27.5296926 22.1901163,27.5625691 21.5750983,27.9282691 C21.0296567,28.1080082 20.4767172,28.1356467 19.9283728,28.0105802 C19.4493253,28.5867584 18.6349447,28.4358546 17.6528975,27.64018 C16.9343264,27.64018 16.3415052,28.0791729 15.2576604,26.8719425 C14.4632417,27.1306739 13.656842,27.1306739 12.8624233,26.8719425 C11.808519,26.0625495 11.0061145,26.7896314 10.3713767,29.2452476 C9.27956066,28.0305242 8.10094274,27.2776353 6.89229478,27.0228463 C5.44916443,25.9528013 5.02400984,27.0228463 3.29943912,25.4589343 C2.49703469,25.4589343 1.67067788,25.1434082 1.18564237,25.2120008 C0.934142473,25.4863714 1.43714227,27.2972169 0.341321288,25.9528013 C0.316223965,26.4697208 0.190861769,26.9332729 0,27.2149057 L0,0.0522231892 L521,0.0522231892 Z" id="path-3"></path>
    </defs>
    <g id="Page-1" stroke="none" stroke-width="1" fill="none" fill-rule="evenodd">
        <g id="juno-website-workshop-landing-page" transform="translate(-220.000000, -2153.000000)">
            <g id="Group-5" transform="translate(220.000000, 2153.000000)">
                <mask id="mask-2" fill="white">
                    <use xlink:href="#path-1"></use>
                </mask>
                <g id="Rectangle"></g>
                <g id="enhancedpost-1" mask="url(#mask-2)">
                    <g transform="translate(-221.000000, 2.371110)">
                        <mask id="mask-4" fill="white">
                            <use xlink:href="#path-3"></use>
                        </mask>
                        <use id="Path" stroke="none" fill="#F5DFD0" fill-rule="nonzero" xlink:href="#path-3"></use>
                    </g>
                </g>
            </g>
        </g>
    </g>
</svg>