<?xml version="1.0" encoding="UTF-8"?>
<svg width="1400px" height="86px" viewBox="0 0 1400 86" version="1.1" xmlns="http://www.w3.org/2000/svg" xmlns:xlink="http://www.w3.org/1999/xlink">
    <title>7150EC4B-C89E-4742-A50F-5508A5C7A82D</title>
    <defs>
        <polygon id="path-1" points="0 -0.000120689655 1399.99988 -0.000120689655 1399.99988 85.8812777 0 85.8812777"></polygon>
    </defs>
    <g id="Page-1" stroke="none" stroke-width="1" fill="none" fill-rule="evenodd">
        <g id="juno-website-workshop-landing-page" transform="translate(0.000000, -597.000000)">
            <g id="Group-3" transform="translate(0.000000, 597.000000)">
                <mask id="mask-2" fill="white">
                    <use xlink:href="#path-1"></use>
                </mask>
                <g id="Clip-2"></g>
                <path d="M1399.99988,-0.00024137931 L1399.99988,20.9526897 C1396.44074,21.2785517 1392.87436,21.4064828 1390.47626,20.6183793 C1389.32609,20.2394138 1390.52453,19.327 1388.30747,19.4621724 C1385.21178,19.6480345 1384.85574,18.814069 1382.3285,18.6801034 C1380.4904,18.5823448 1378.43143,19.4356207 1376.61384,19.2413103 C1376.00919,19.1761379 1376.2735,17.9728621 1374.44384,18.0851034 C1372.1954,18.2202759 1369.02971,19.1097586 1366.82591,18.8333793 C1366.14522,18.7476897 1366.5435,17.5625172 1364.65591,17.6759655 C1363.08816,17.7725172 1362.47143,16.3556207 1360.58143,16.7080345 C1357.73557,18.3180345 1354.23919,20.1211379 1349.68436,20.517 C1350.09229,20.4832069 1348.57884,19.2968276 1347.51436,19.3607931 C1344.40298,19.549069 1344.0735,18.6161379 1341.5354,18.5787241 C1338.41557,18.5316552 1335.11471,19.7156207 1332.01178,19.514069 C1331.60505,19.4875172 1331.5266,18.2564828 1329.84298,18.3578621 C1327.13591,18.5232069 1324.51212,19.2763103 1323.86402,17.5757931 C1322.41333,15.7473448 1320.24453,14.5911379 1317.35281,14.1083793 C1313.54022,16.8842414 1303.15247,16.1576897 1298.83902,18.6656207 C1291.93436,20.097 1292.23126,20.5833793 1281.96057,21.6937241 C1282.8235,23.0297586 1281.09764,22.7388966 1280.3216,23.224069 C1278.82626,24.1630345 1278.63557,25.289069 1277.04367,26.2847586 C1275.22247,27.4264828 1270.21022,30.724931 1268.84884,33.9388966 C1260.0735,32.8478621 1257.03574,35.7226897 1245.99264,36.1837241 C1245.42057,39.1587241 1240.69316,39.9926897 1237.26557,41.1488966 C1233.92609,42.2761379 1228.99109,42.6430345 1226.10178,43.6157931 C1225.80971,43.7123448 1225.73367,44.784069 1224.4616,45.144931 C1223.33074,45.4671724 1221.74367,45.1388966 1220.65384,45.519069 C1220.01781,45.7423448 1220.88678,46.7947586 1219.01488,47.0494138 C1215.98316,47.4645862 1210.74643,48.8621724 1208.11781,50.8595862 C1207.54333,49.1204483 1204.36316,50.324931 1202.13884,50.0775172 C1200.50712,49.8976897 1199.97367,49.2254483 1198.06316,49.1083793 C1194.35195,48.8814828 1191.0366,50.3309655 1188.27522,48.7004483 C1180.51609,52.3380345 1172.68212,52.8835517 1159.97229,52.8509655 C1159.3785,52.8509655 1156.54712,53.4761379 1156.16212,53.2251034 C1156.01609,53.1297586 1156.05471,51.8938966 1155.89781,51.8818276 C1153.49247,51.7128621 1148.44402,51.3544138 1146.10988,51.4751034 C1142.55798,51.6573448 1140.85505,53.2323448 1136.84936,53.7537241 C1134.50919,54.0578621 1132.17747,51.3423448 1129.23264,54.502 C1122.24953,55.1887241 1115.26402,55.8742414 1108.28091,56.5609655 C1106.71195,56.9676897 1106.38126,56.2145862 1106.11091,55.4059655 C1105.26247,53.2963103 1100.98884,55.2152759 1098.22867,54.8109655 C1095.99471,54.4838966 1097.48884,54.4163103 1096.05867,53.6535517 C1093.94902,52.529931 1088.32609,50.2368276 1083.56971,49.404069 C1082.67178,51.3302759 1079.99367,52.3042414 1076.4816,52.8388966 C1078.56471,56.3533793 1067.3104,52.7604483 1069.39471,56.2737241 C1067.5385,54.7578621 1064.98953,56.6007931 1061.77678,57.022 C1058.90436,57.3997586 1053.86316,57.3901034 1050.34867,58.1456207 C1050.66005,58.0780345 1049.51953,59.4454483 1048.7085,59.6759655 C1045.93264,60.4664828 1041.15091,59.4538966 1041.35609,61.7675172 C1039.09074,63.3654483 1034.52022,63.7347586 1034.53471,66.5456207 C1029.02643,67.4447586 1028.08264,64.0847586 1022.57436,64.9814828 C1021.08988,67.3952759 1014.77419,67.2359655 1011.67729,68.7916552 C1003.13971,66.6844138 993.031948,66.0471724 982.047983,66.2257931 C982.097466,64.5868276 979.057293,65.8347586 977.972293,65.2566552 C977.703155,65.1130345 978.010914,63.9954483 977.707983,63.9133793 C976.956086,63.7082069 974.459017,64.6532069 973.899017,64.2875172 C973.603328,64.0956207 973.971431,63.0782069 973.634707,62.9442414 C972.865914,62.6461379 972.576259,62.1657931 971.464707,61.7880345 C969.231948,61.0288966 967.725741,60.1188966 965.219017,59.6626897 C954.280914,62.4107931 945.64919,57.1076897 935.5885,57.0956207 C929.575741,57.0895862 923.506259,59.554069 916.807983,60.3107931 C915.120741,60.5002759 912.261603,59.3078621 908.924534,59.7157931 C904.573672,60.2504483 903.141086,62.4626897 895.855052,62.3697586 C896.221948,62.3733793 894.5335,60.2094138 893.685052,61.2135517 C893.606603,61.3088966 894.053155,62.5387241 893.950569,62.5568276 C892.24281,62.8657931 889.832638,62.6002759 888.238328,63.1180345 C887.642121,63.3123448 885.975397,64.7183793 886.599362,64.6483793 C882.355914,65.1238966 876.968328,63.042 869.191086,64.989931 C868.732466,67.0247586 867.492983,65.0176897 865.380914,65.364069 C863.366603,68.9485517 859.289707,68.3788966 854.221948,67.8297586 C843.590397,66.974069 847.2485,73.7314828 837.874534,73.5456207 C827.590569,74.0730345 822.6785,77.4668276 815.816086,79.8202759 C811.838155,84.7576897 801.250052,79.4292414 794.864362,81.8780345 C794.412983,82.0518276 795.280741,83.9997586 793.225397,83.4083793 C789.485224,83.3673448 785.796948,85.7823448 782.06281,85.8752759 C778.38781,85.967 777.573155,84.9930345 773.915052,83.937 C772.552466,83.5447586 771.285224,83.4337241 769.839362,82.969069 C769.063328,82.7192414 767.9385,81.8768276 767.670569,81.8128621 C766.924707,81.6318276 764.404707,82.5418276 763.860397,82.187 C762.152638,81.0718276 762.079017,80.2945862 759.51919,79.8745862 C757.7885,79.5897586 755.517121,80.764069 753.806948,80.4345862 C753.110569,80.3006207 753.294017,79.4051034 751.636948,79.2783793 C748.664362,79.0514828 746.873328,78.2175172 743.752293,78.6845862 C742.024017,78.9416552 741.18281,80.529931 738.304362,80.589069 C735.312466,80.6506207 733.465914,80.4092414 730.419707,79.994069 C728.874879,79.7828621 726.561259,79.6271724 724.441948,79.212 C723.715397,79.0695862 721.148328,79.9228621 720.631776,79.5861379 C719.599879,78.9114828 719.281259,77.7673448 718.196259,77.0866552 C715.759534,75.5563103 715.448155,74.8985517 711.686259,73.6192414 C710.055741,73.0628621 706.830914,72.5668276 705.175052,70.1494138 C704.227638,68.384931 700.188155,69.5037241 697.29281,69.5544138 C697.231259,71.114931 695.529534,70.4885517 695.389534,69.7414828 C693.529707,69.8863103 693.584017,68.2425172 692.955224,67.2432069 C689.385224,67.744069 692.508672,71.8125172 688.035914,71.8342414 C686.332983,71.302 681.863845,73.3537241 680.416776,72.5825172 C679.497121,72.0925172 678.327638,71.0485517 676.341086,71.6133793 C674.722638,72.0744138 673.256259,72.8456207 670.894362,73.5178621 C668.135397,74.3023448 669.339879,76.4337241 663.807466,76.9538966 C662.162466,75.8363103 659.941776,75.2582069 657.562983,74.8273448 C657.098328,72.6344138 653.566948,72.8371724 651.051776,71.359931 C650.390397,70.9713103 651.240052,68.9811379 650.520741,68.6733793 C649.718155,68.3282069 647.451603,69.4421724 646.711776,69.0475172 C646.396776,68.8785517 646.789017,67.8297586 646.446259,67.7042414 C641.861259,66.0218276 637.530914,66.2342414 632.319534,64.9826897 C631.741431,61.5297586 628.776086,63.9326897 624.169362,63.0456207 C623.36919,62.889931 623.830224,61.944931 621.999362,61.8894138 C621.030224,61.8592414 619.087121,62.0088966 618.190397,62.2635517 C617.460224,62.4711379 615.995052,63.8494138 616.550224,63.7951034 C614.987293,63.9483793 614.383845,62.4868276 612.474534,62.8259655 C610.17419,63.2326897 607.586603,65.7816552 601.315569,65.2916552 C594.229879,65.5402759 594.45919,58.9614828 586.65419,59.8847586 C582.288845,60.4001034 576.341259,63.7287241 571.950569,64.0678621 C569.737121,64.2392414 568.533845,64.3176897 567.874879,63.0987241 C565.940224,60.2516552 558.053155,59.5142414 555.914534,61.5345862 C555.71781,62.9575172 551.324707,63.7251034 548.563328,63.6273448 C545.570224,63.5223448 546.180914,63.7938966 544.488845,62.6582069 C543.721259,62.1416552 544.178672,60.9576897 542.320052,61.5007931 C537.873845,61.9376897 533.430052,62.3745862 528.985052,62.8114828 C525.287121,62.307 519.650914,62.669069 515.123845,61.4356207 C514.040052,61.1411379 515.123845,60.1466552 512.952638,60.2794138 C512.315397,60.3180345 511.686603,60.4218276 511.050569,60.4664828 C505.549534,58.177 492.605569,62.8344138 490.940052,56.964069 C488.929362,55.1307931 485.57781,54.5466552 480.886603,55.214069 C481.697638,50.7425172 477.127121,51.2988966 474.112293,50.4009655 C472.782293,51.9675172 469.886948,51.7985517 466.759879,52.4937241 C464.219362,53.0573448 461.180397,52.484069 461.310741,54.3982069 C458.390052,52.7302759 450.142121,53.5413103 447.979362,55.7076897 C450.463155,59.2173448 440.400052,56.042 438.720052,57.9875172 C438.659707,58.0563103 439.02419,59.3295862 438.985569,59.3307931 C438.231259,59.3488966 435.802983,58.6344138 434.911086,58.3616552 C432.54919,57.6363103 429.373845,56.9821724 430.040052,53.3614828 C429.3135,51.2735517 428.063155,53.5533793 428.134362,53.5485517 C423.645914,53.7911379 419.07419,48.5652759 413.479017,48.1428621 C412.240741,48.0487241 410.913155,48.5592414 409.668845,48.517 C408.817983,47.5285517 407.834362,47.2847586 407.233328,46.0163103 C406.918328,45.3525172 407.308155,43.8668276 406.702293,43.3297586 C405.460397,42.2351034 401.883155,42.1626897 400.45781,41.2056207 C399.329362,40.4476897 399.096431,39.5956207 398.022293,38.7061379 C396.892638,37.7695862 395.905397,36.2585517 393.682293,36.3925172 C392.115741,36.4878621 391.49781,35.0745862 389.60781,35.4245862 C385.440397,38.4116552 376.353672,38.7809655 371.358328,41.3263103 C372.115052,43.0557931 355.805052,44.8202759 348.768845,44.9144138 C346.585569,44.9433793 345.330397,45.2764828 344.693155,43.9464828 C340.388155,44.5354483 337.052293,44.4316552 333.001948,43.7244138 C331.384707,43.4444138 331.685224,42.7745862 330.830741,42.5682069 C330.0885,42.3883793 327.566086,43.2983793 327.020569,42.9435517 C326.683845,42.7226897 327.124362,41.7873448 326.755052,41.599069 C326.384534,41.4095862 325.217466,41.9804483 324.852983,41.7861379 C324.568155,41.6352759 324.902466,40.537 324.587466,40.4428621 C323.830741,40.2195862 321.348155,41.1911379 320.777293,40.817 C320.438155,40.5973448 320.879879,39.662 320.512983,39.474931 C320.141259,39.2854483 318.972983,39.8563103 318.607293,39.662 C318.318845,39.5087241 318.660397,38.4152759 318.341776,38.3187241 C317.341259,38.0109655 315.597293,38.8968276 314.53281,38.6928621 C314.449534,38.6759655 313.136431,37.7297586 312.36281,37.5366552 C309.577293,36.839069 307.346948,37.6452759 304.478155,36.9416552 C304.426259,36.9283793 302.8585,35.9725172 302.308155,35.7854483 C300.525569,35.1783793 294.378845,33.2026897 290.085914,32.8768276 C286.21781,32.5859655 284.998845,33.1857931 282.201259,32.2842414 C281.221259,31.9668276 280.5635,31.2837241 280.031259,31.1280345 C278.068845,30.5475172 276.580741,30.8311379 274.052293,30.3459655 C272.470052,30.0406207 271.873845,29.4371724 269.97781,29.3756207 C268.8385,29.3394138 267.258672,29.9561379 266.168845,29.7497586 C264.0435,29.3466552 265.415741,29.349069 263.998845,28.5935517 C261.487293,27.2551034 253.130741,28.4885517 246.326259,27.5918276 C245.622638,27.4988966 246.059534,26.3209655 244.156259,26.4344138 C243.645741,26.467 242.74419,26.7083793 242.250569,26.6226897 C239.325052,26.1121724 239.49281,25.079069 234.10281,24.6856207 C226.843328,24.1533793 220.149879,25.7163103 212.885569,25.4001034 C209.597983,25.2564828 206.550569,24.1051034 202.833328,23.6488966 C202.500224,23.6078621 202.037983,22.5964828 200.664534,22.4914828 C197.571259,22.2597586 194.251086,23.5294138 191.140914,23.4280345 C184.585052,23.1721724 173.222121,26.9859655 169.924879,24.1425172 C167.719879,21.9604483 165.461776,19.8242414 159.604707,21.0492414 C154.5285,21.322 155.512121,17.1111379 150.924707,16.4244138 C140.970224,14.9314828 126.002293,22.4806207 113.099362,21.5102759 C108.011086,21.6044138 112.628672,26.8688966 106.276776,26.2895862 C103.101431,26.6009655 99.9260862,26.9135517 96.7531552,27.224931 C89.3536724,26.4875172 91.9835,31.0942414 85.8560862,31.0338966 C82.8557414,31.7145862 82.3259138,30.0876897 79.8783276,30.2530345 C77.9388448,31.4357931 66.2041897,30.3761379 60.8298793,32.124931 C58.0286724,33.034931 58.406431,33.6588966 55.1176379,32.6861379 C53.5233276,32.5775172 52.9524655,31.5287241 51.0443621,31.7157931 C49.6841897,31.8497586 49.2557414,33.6564828 47.4997069,33.4344138 C46.5257414,33.3101034 45.8281552,31.0918276 45.0641897,30.9337241 C43.9369483,30.7007931 42.3921207,31.5178621 41.2540172,31.3078621 C40.5974655,31.1871724 40.7133276,30.2747586 39.0840172,30.1516552 C37.8481552,30.0587241 36.5193621,30.5692414 35.2750517,30.5257931 C23.5150517,31.682 11.7574655,32.837 -0.000120689655,33.992 L-0.000120689655,-0.00024137931 L1399.99988,-0.00024137931 Z" id="Fill-1" fill="#DEEBE7" mask="url(#mask-2)"></path>
            </g>
        </g>
    </g>
</svg>