<svg id="elements" xmlns="http://www.w3.org/2000/svg" width="176" height="40" viewBox="0 0 176 40"><defs><style>.cls-1{fill:#ea593e;}</style></defs><title>logo-juno-collegeoftechnology</title><path class="cls-1" d="M117.37,13.79h1.22a4,4,0,0,1-4.13,3c-2.6,0-4.33-1.89-4.33-4.64s1.72-4.75,4.35-4.75a4,4,0,0,1,4.11,3h-1.22a2.9,2.9,0,0,0-2.9-1.95c-2,0-3.19,1.53-3.19,3.69s1.23,3.64,3.19,3.64a2.88,2.88,0,0,0,2.9-2"/><path class="cls-1" d="M122.71,15.87a2.23,2.23,0,0,0,2.22-2.49,2.24,2.24,0,1,0-4.45,0,2.23,2.23,0,0,0,2.23,2.49m0-5.9A3.22,3.22,0,0,1,126,13.39a3.33,3.33,0,1,1-6.65,0A3.2,3.2,0,0,1,122.71,10"/><rect class="cls-1" x="127.24" y="7.12" width="1.06" height="9.54"/><rect class="cls-1" x="129.8" y="7.12" width="1.06" height="9.54"/><path class="cls-1" d="M133.21,12.89h4.16a2,2,0,0,0-2.07-2.05,2,2,0,0,0-2.09,2.05m5.24.79h-5.26a2.06,2.06,0,0,0,2.15,2.2,2,2,0,0,0,1.95-1.28h1.09a3,3,0,0,1-3.06,2.17,3.13,3.13,0,0,1-3.22-3.4,3.12,3.12,0,0,1,3.2-3.4,3,3,0,0,1,3.15,3.24Z"/><path class="cls-1" d="M144.61,13.27a2.12,2.12,0,0,0-2.07-2.37c-1.25,0-2,1-2,2.36s.78,2.33,2,2.33a2.08,2.08,0,0,0,2.07-2.32m1.08-3.17v6.27a2.88,2.88,0,0,1-3.11,3,2.77,2.77,0,0,1-3-2.2h1.1a1.77,1.77,0,0,0,1.87,1.3,1.85,1.85,0,0,0,2.06-1.94V15.3a2.48,2.48,0,0,1-2.28,1.21,2.94,2.94,0,0,1-2.93-3.26A3,3,0,0,1,142.37,10a2.53,2.53,0,0,1,2.25,1.19l.13-1.06Z"/><path class="cls-1" d="M147.89,12.89h4.16A2,2,0,0,0,150,10.84a2,2,0,0,0-2.1,2.05m5.25.79h-5.26a2.05,2.05,0,0,0,2.15,2.2A2,2,0,0,0,152,14.6h1.09A3,3,0,0,1,150,16.77a3.12,3.12,0,0,1-3.21-3.4A3.12,3.12,0,0,1,150,10a3,3,0,0,1,3.15,3.24Z"/><path class="cls-1" d="M159.7,15.87a2.24,2.24,0,0,0,2.23-2.49,2.24,2.24,0,1,0-4.46,0,2.23,2.23,0,0,0,2.23,2.49m0-5.9A3.22,3.22,0,0,1,163,13.39a3.33,3.33,0,1,1-6.65,0A3.2,3.2,0,0,1,159.7,10"/><path class="cls-1" d="M164.49,10.1V8.84c0-1.2.6-1.73,1.8-1.73h.89V8h-.8c-.69,0-.82.35-.82.85V10.1h1.62v1h-1.62v5.61h-1.07V11.05h-1.13v-1Z"/><polygon class="cls-1" points="114.36 30.76 113.26 30.76 113.26 22.64 110.14 22.64 110.14 21.61 117.48 21.61 117.48 22.64 114.36 22.64 114.36 30.76"/><path class="cls-1" d="M117.13,27h4.16a2,2,0,0,0-2.06-2,2,2,0,0,0-2.1,2m5.25.79h-5.27a2.07,2.07,0,0,0,2.16,2.2,2,2,0,0,0,1.94-1.28h1.09a3,3,0,0,1-3.06,2.18A3.13,3.13,0,0,1,116,27.47a3.12,3.12,0,0,1,3.2-3.4,3,3,0,0,1,3.15,3.24Z"/><path class="cls-1" d="M126.59,25c-1.22,0-2.12.85-2.12,2.47s.92,2.48,2.11,2.48a2,2,0,0,0,2-1.48h1.12a3,3,0,0,1-3.08,2.41,3.12,3.12,0,0,1-3.2-3.41,3.11,3.11,0,0,1,3.2-3.39,3,3,0,0,1,3.07,2.31h-1.16a2,2,0,0,0-1.9-1.39"/><path class="cls-1" d="M136.59,26.9v3.86h-1.07V27.08c0-1.41-.67-2-1.72-2a1.91,1.91,0,0,0-2,2.13v3.56h-1.06V21.22h1.06v4A2.45,2.45,0,0,1,134,24.07c1.26,0,2.57.68,2.57,2.83"/><path class="cls-1" d="M143.77,26.84v3.92H142.7v-3.7c0-1.37-.71-2-1.77-2-1.23,0-1.89.88-1.89,2.16v3.55H138V24.2h.94l.11,1a2.28,2.28,0,0,1,2.16-1.15,2.49,2.49,0,0,1,2.59,2.77"/><path class="cls-1" d="M148.18,30a2.24,2.24,0,0,0,2.23-2.49,2.24,2.24,0,1,0-4.46,0A2.23,2.23,0,0,0,148.18,30m0-5.89a3.21,3.21,0,0,1,3.33,3.42,3.33,3.33,0,1,1-6.65,0,3.2,3.2,0,0,1,3.32-3.42"/><rect class="cls-1" x="152.65" y="21.22" width="1.06" height="9.54"/><path class="cls-1" d="M158.16,30a2.24,2.24,0,0,0,2.23-2.49,2.24,2.24,0,1,0-4.46,0A2.23,2.23,0,0,0,158.16,30m0-5.89a3.21,3.21,0,0,1,3.33,3.42,3.33,3.33,0,1,1-6.65,0,3.2,3.2,0,0,1,3.32-3.42"/><path class="cls-1" d="M167.56,27.38A2.12,2.12,0,0,0,165.48,25c-1.24,0-2,1-2,2.36s.78,2.33,2,2.33a2.09,2.09,0,0,0,2.08-2.32m1.07-3.18v6.28a2.87,2.87,0,0,1-3.11,3,2.78,2.78,0,0,1-3-2.2h1.11a1.76,1.76,0,0,0,1.86,1.31,1.85,1.85,0,0,0,2.06-1.94V29.4a2.47,2.47,0,0,1-2.28,1.22,3,3,0,0,1-2.93-3.27,3,3,0,0,1,2.94-3.28,2.54,2.54,0,0,1,2.26,1.2l.13-1.07Z"/><path class="cls-1" d="M172.74,30.05l2-5.86h1.13l-2.75,7.62A2,2,0,0,1,171,33.35h-1.3v-1H171a1,1,0,0,0,1.09-1.1,1.58,1.58,0,0,0-.12-.57l-2.51-6.52h1.15Z"/><path class="cls-1" d="M33.78,30.81h9l-3.34-3.34V7.74h-9l3.33,3.33V25.36a7.53,7.53,0,0,1-2.3,2.07,5.55,5.55,0,0,1-2.73.7,4,4,0,0,1-3.22-1.3c-.72-.86-.91-2.33-.91-4.62V7.74h-9L19,11.07V23.81a7.83,7.83,0,0,0,1.83,5.54,6.75,6.75,0,0,0,5.22,2,9,9,0,0,0,4.34-1.15A9.23,9.23,0,0,0,33.78,27Z"/><path class="cls-1" d="M87,27.54a3.56,3.56,0,0,1-3.19,2.05q-3,0-4.89-3.88A21.5,21.5,0,0,1,77,16.05a10.27,10.27,0,0,1,1.08-5.33A3.58,3.58,0,0,1,81.3,9q3,0,4.91,3.9a21.4,21.4,0,0,1,2,9.63,9.92,9.92,0,0,1-1.18,5m4.23-17.17a9.44,9.44,0,0,0-7.38-3.15A12.1,12.1,0,0,0,74.55,11,13.15,13.15,0,0,0,71,20.33a11.4,11.4,0,0,0,2.82,7.9,9.43,9.43,0,0,0,7.38,3.14,12.08,12.08,0,0,0,9.28-3.8A13.13,13.13,0,0,0,94,18.26a11.39,11.39,0,0,0-2.82-7.89"/><path class="cls-1" d="M51.86,11.59V7.74h-9l3.33,3.33V30.81h9l-3.34-3.34V13.19a7.53,7.53,0,0,1,2.3-2.07,5.55,5.55,0,0,1,2.73-.7,4,4,0,0,1,3.23,1.3c.71.85.91,2.33.91,4.62V30.81h9l-3.34-3.34V14.74a7.87,7.87,0,0,0-1.83-5.55,6.78,6.78,0,0,0-5.21-2,8.85,8.85,0,0,0-4.35,1.15,9.31,9.31,0,0,0-3.41,3.22"/><path class="cls-1" d="M3.21,0,7,3.79V31.33a8.72,8.72,0,0,1-.21,2.56H0v5.22H4.65s6-6,6.91-7.12a4.62,4.62,0,0,0,1-3V0Z"/></svg>