<svg id="Layer_1" data-name="Layer 1" xmlns="http://www.w3.org/2000/svg" width="230" height="40" viewBox="0 0 230 40"><defs><style>.cls-1{fill:#ea593e;}</style></defs><title>logo-juno-tagline</title><path class="cls-1" d="M33.78,30.81h9l-3.34-3.34V7.74h-9l3.33,3.33V25.36a7.53,7.53,0,0,1-2.3,2.07,5.55,5.55,0,0,1-2.73.7,4,4,0,0,1-3.22-1.3c-.72-.86-.91-2.33-.91-4.62V7.74h-9L19,11.07V23.81a7.83,7.83,0,0,0,1.83,5.54,6.75,6.75,0,0,0,5.22,2,9,9,0,0,0,4.34-1.15A9.23,9.23,0,0,0,33.78,27Z"/><path class="cls-1" d="M87,27.54a3.56,3.56,0,0,1-3.19,2.05q-3,0-4.89-3.88A21.5,21.5,0,0,1,77,16.05a10.27,10.27,0,0,1,1.08-5.33A3.58,3.58,0,0,1,81.3,9q3,0,4.91,3.9a21.4,21.4,0,0,1,2,9.63,9.92,9.92,0,0,1-1.18,5m4.23-17.17a9.44,9.44,0,0,0-7.38-3.15A12.1,12.1,0,0,0,74.55,11,13.15,13.15,0,0,0,71,20.33a11.4,11.4,0,0,0,2.82,7.9,9.43,9.43,0,0,0,7.38,3.14,12.08,12.08,0,0,0,9.28-3.8A13.13,13.13,0,0,0,94,18.26a11.39,11.39,0,0,0-2.82-7.89"/><path class="cls-1" d="M51.86,11.59V7.74h-9l3.33,3.33V30.81h9l-3.34-3.34V13.19a7.53,7.53,0,0,1,2.3-2.07,5.55,5.55,0,0,1,2.73-.7,4,4,0,0,1,3.23,1.3c.71.85.91,2.33.91,4.62V30.81h9l-3.34-3.34V14.74a7.87,7.87,0,0,0-1.83-5.55,6.78,6.78,0,0,0-5.21-2,8.85,8.85,0,0,0-4.35,1.15,9.31,9.31,0,0,0-3.41,3.22"/><path class="cls-1" d="M3.21,0,7,3.79V31.33a8.72,8.72,0,0,1-.21,2.56H0v5.22H4.65s6-6,6.91-7.12a4.62,4.62,0,0,0,1-3V0Z"/><path class="cls-1" d="M116.87,15.91V17h-5.73V7.79h1.12v8.12Z"/><path class="cls-1" d="M124,16.13V17h-.65a1,1,0,0,1-1.07-.9,2.69,2.69,0,0,1-2.3,1c-1.47,0-2.38-.77-2.38-2,0-1.05.65-1.9,2.52-1.9h2.08v-.36a1.51,1.51,0,0,0-1.66-1.68c-1,0-1.63.48-1.68,1.26h-1c.08-1.39,1.21-2.14,2.75-2.14a2.41,2.41,0,0,1,2.7,2.55v2.82c0,.41.11.5.48.5ZM122.21,14h-2c-1.13,0-1.52.46-1.52,1.09s.61,1.14,1.45,1.14a1.86,1.86,0,0,0,2-1.94Z"/><path class="cls-1" d="M130.54,10.39V17h-.93l-.1-1a2.19,2.19,0,0,1-2,1.11,2.49,2.49,0,0,1-2.56-2.77V10.39h1v3.77c0,1.34.71,2,1.73,2,1.18,0,1.82-.87,1.82-2.13v-3.6Z"/><path class="cls-1" d="M138,13V17h-1.06V13.25c0-1.37-.72-2-1.78-2-1.24,0-1.9.89-1.9,2.17V17h-1.07V10.39h.94l.11,1a2.28,2.28,0,0,1,2.16-1.14A2.49,2.49,0,0,1,138,13Z"/><path class="cls-1" d="M142.47,11.18c-1.22,0-2.13.86-2.13,2.48s.92,2.49,2.12,2.49a2,2,0,0,0,2-1.49h1.13a3.05,3.05,0,0,1-3.09,2.42,3.13,3.13,0,0,1-3.21-3.42,3.12,3.12,0,0,1,3.21-3.4,3,3,0,0,1,3.08,2.32h-1.17A2,2,0,0,0,142.47,11.18Z"/><path class="cls-1" d="M152.59,13.09V17h-1.07v-3.7c0-1.41-.67-2-1.73-2a1.91,1.91,0,0,0-2,2.13V17h-1.06V7.4h1.06v4a2.45,2.45,0,0,1,2.19-1.1C151.28,10.26,152.59,10.93,152.59,13.09Z"/><path class="cls-1" d="M158.8,16.25l2-5.88,1.13,0L159.17,18A2,2,0,0,1,157,19.57h-1.3v-1H157a1,1,0,0,0,1.09-1.1,1.54,1.54,0,0,0-.12-.57l-2.52-6.54h1.15Z"/><path class="cls-1" d="M165.57,10.26a3.22,3.22,0,0,1,3.34,3.43,3.34,3.34,0,1,1-6.67,0A3.21,3.21,0,0,1,165.57,10.26Zm0,5.91a2.24,2.24,0,0,0,2.24-2.49,2.25,2.25,0,1,0-4.48,0A2.24,2.24,0,0,0,165.57,16.17Z"/><path class="cls-1" d="M175.77,10.39V17h-.92l-.11-1a2.19,2.19,0,0,1-2,1.11,2.49,2.49,0,0,1-2.56-2.77V10.39h1v3.77c0,1.34.72,2,1.73,2,1.18,0,1.82-.87,1.82-2.13v-3.6Z"/><path class="cls-1" d="M181,10.39v1h-.87c-1.13,0-1.64.74-1.64,2V17h-1.07V10.39h.94l.14.93a1.87,1.87,0,0,1,1.67-.93Z"/><path class="cls-1" d="M186.07,15.78l1.72-5.39h1.1l1.7,5.39L192,10.39h1.12L191.24,17H190l-1.7-5.31L186.62,17h-1.23l-1.93-6.58h1.14Z"/><path class="cls-1" d="M200.06,14h-5.28a2.07,2.07,0,0,0,2.16,2.21,2,2,0,0,0,1.95-1.29H200a3,3,0,0,1-3.07,2.18,3.14,3.14,0,0,1-3.22-3.42,3.12,3.12,0,0,1,3.21-3.4,3,3,0,0,1,3.16,3.25Zm-5.26-.8H199a2,2,0,0,0-2.07-2A2,2,0,0,0,194.8,13.18Z"/><path class="cls-1" d="M208,13.69a3.11,3.11,0,0,1-3.14,3.41,2.78,2.78,0,0,1-2.4-1.17l-.12,1h-1V7.4h1.08v4.09a2.69,2.69,0,0,1,2.39-1.23A3.13,3.13,0,0,1,208,13.69Zm-1.11,0a2.24,2.24,0,0,0-2.2-2.5,2.26,2.26,0,0,0-2.19,2.51,2.21,2.21,0,1,0,4.39,0Z"/><path class="cls-1" d="M116.42,21.4V31h-.94l-.13-1.12A2.72,2.72,0,0,1,113,31.1a3.09,3.09,0,0,1-3.13-3.4A3.13,3.13,0,0,1,113,24.26a2.71,2.71,0,0,1,2.4,1.21V21.4Zm-1.09,6.3a2.25,2.25,0,0,0-2.21-2.49,2.23,2.23,0,0,0-2.2,2.49,2.19,2.19,0,0,0,2.2,2.46A2.23,2.23,0,0,0,115.33,27.7Z"/><path class="cls-1" d="M124.16,28h-5.28A2.07,2.07,0,0,0,121,30.19,2,2,0,0,0,123,28.9h1.09A3,3,0,0,1,121,31.08a3.14,3.14,0,0,1-3.23-3.42,3.12,3.12,0,0,1,3.21-3.4,3,3,0,0,1,3.16,3.25Zm-5.26-.8h4.17A2,2,0,0,0,121,25.13,2,2,0,0,0,118.9,27.18Z"/><path class="cls-1" d="M127.79,29.77,130,24.39h1.15L128.36,31h-1.15l-2.73-6.58h1.14Z"/><path class="cls-1" d="M137.8,28h-5.28a2.07,2.07,0,0,0,2.16,2.21,2,2,0,0,0,1.95-1.29h1.09a3,3,0,0,1-3.06,2.18,3.14,3.14,0,0,1-3.23-3.42,3.12,3.12,0,0,1,3.21-3.4,3,3,0,0,1,3.16,3.25Zm-5.26-.8h4.17a2,2,0,0,0-2.07-2.05A2,2,0,0,0,132.54,27.18Z"/><path class="cls-1" d="M140.22,31h-1.06V21.4h1.06Z"/><path class="cls-1" d="M144.88,24.26a3.22,3.22,0,0,1,3.34,3.43,3.34,3.34,0,1,1-6.67,0A3.21,3.21,0,0,1,144.88,24.26Zm0,5.91a2.23,2.23,0,0,0,2.23-2.49,2.25,2.25,0,1,0-4.47,0A2.24,2.24,0,0,0,144.88,30.17Z"/><path class="cls-1" d="M156.14,27.69A3.11,3.11,0,0,1,153,31.1a2.71,2.71,0,0,1-2.4-1.2v3.67h-1.07V24.39h1l.12,1.09a2.75,2.75,0,0,1,2.4-1.22A3.12,3.12,0,0,1,156.14,27.69Zm-1.1,0a2.21,2.21,0,0,0-2.2-2.48,2.25,2.25,0,0,0-2.2,2.51,2.21,2.21,0,1,0,4.4,0Z"/><path class="cls-1" d="M167,26.82V31H166V27c0-1.25-.6-1.75-1.53-1.75s-1.61.58-1.65,1.85V31h-1.05V27.09c0-1.22-.56-1.84-1.51-1.84A1.59,1.59,0,0,0,158.56,27V31h-1.07V24.39h.94l.15.76a2,2,0,0,1,1.81-.89,2.2,2.2,0,0,1,2.15,1.27,2.24,2.24,0,0,1,2.1-1.27A2.3,2.3,0,0,1,167,26.82Z"/><path class="cls-1" d="M174.73,28h-5.28a2.07,2.07,0,0,0,2.16,2.21,2,2,0,0,0,1.95-1.29h1.09a3,3,0,0,1-3.06,2.18,3.14,3.14,0,0,1-3.23-3.42,3.12,3.12,0,0,1,3.21-3.4,3,3,0,0,1,3.16,3.25Zm-5.26-.8h4.17a2,2,0,0,0-2.07-2.05A2,2,0,0,0,169.47,27.18Z"/><path class="cls-1" d="M181.9,27V31h-1.06V27.25c0-1.37-.72-2-1.78-2-1.24,0-1.9.89-1.9,2.17V31h-1.07V24.39H177l.12,1a2.26,2.26,0,0,1,2.15-1.14A2.49,2.49,0,0,1,181.9,27Z"/><path class="cls-1" d="M183.75,29.31v-4h-1.18v-1h.62c.42,0,.56-.18.56-.59V22.67h1.07v1.72h1.54v1h-1.54v3.82c0,.48.15.83.79.83h.74v1h-1A1.48,1.48,0,0,1,183.75,29.31Z"/><path class="cls-1" d="M192.67,25.18c-1.22,0-2.13.86-2.13,2.48s.92,2.49,2.12,2.49a2,2,0,0,0,2-1.49h1.13a3.05,3.05,0,0,1-3.09,2.42,3.14,3.14,0,0,1-3.22-3.42,3.13,3.13,0,0,1,3.22-3.4,3,3,0,0,1,3.08,2.32h-1.17A2,2,0,0,0,192.67,25.18Z"/><path class="cls-1" d="M203,30.13V31h-.65a1,1,0,0,1-1.07-.9,2.69,2.69,0,0,1-2.3,1c-1.47,0-2.38-.77-2.38-2,0-1,.65-1.9,2.52-1.9h2.08v-.36a1.5,1.5,0,0,0-1.66-1.68c-1,0-1.62.48-1.68,1.26h-1c.07-1.39,1.21-2.14,2.74-2.14a2.41,2.41,0,0,1,2.7,2.55v2.82c0,.41.11.5.48.5ZM201.22,28h-2c-1.13,0-1.52.46-1.52,1.09s.61,1.14,1.45,1.14a1.86,1.86,0,0,0,2-1.94Z"/><path class="cls-1" d="M207.67,24.39v1h-.88c-1.13,0-1.63.74-1.63,2V31h-1.07V24.39H205l.14.93a1.86,1.86,0,0,1,1.66-.93Z"/><path class="cls-1" d="M214.59,28h-5.28a2.07,2.07,0,0,0,2.16,2.21,2,2,0,0,0,1.95-1.29h1.09a3,3,0,0,1-3.07,2.18,3.14,3.14,0,0,1-3.22-3.42,3.12,3.12,0,0,1,3.21-3.4,3,3,0,0,1,3.16,3.25Zm-5.26-.8h4.17a2,2,0,0,0-2.07-2.05A2,2,0,0,0,209.33,27.18Z"/><path class="cls-1" d="M222,28h-5.28a2.07,2.07,0,0,0,2.16,2.21,2,2,0,0,0,2-1.29H222a3,3,0,0,1-3.07,2.18,3.14,3.14,0,0,1-3.22-3.42,3.12,3.12,0,0,1,3.21-3.4A3,3,0,0,1,222,27.51Zm-5.27-.8h4.18a2,2,0,0,0-2.07-2.05A2,2,0,0,0,216.76,27.18Z"/><path class="cls-1" d="M227,24.39v1h-.87c-1.13,0-1.64.74-1.64,2V31H223.4V24.39h.93l.15.93a1.85,1.85,0,0,1,1.66-.93Z"/></svg>