<svg id="elements" xmlns="http://www.w3.org/2000/svg" width="95" height="40" viewBox="0 0 95 40"><defs><style>.cls-1{fill:#ea593e;}</style></defs><title>logo-juno</title><path class="cls-1" d="M33.78,30.81h9l-3.34-3.34V7.74h-9l3.33,3.33V25.36a7.53,7.53,0,0,1-2.3,2.07,5.55,5.55,0,0,1-2.73.7,4,4,0,0,1-3.22-1.3c-.72-.86-.91-2.33-.91-4.62V7.74h-9L19,11.07V23.81a7.83,7.83,0,0,0,1.83,5.54,6.75,6.75,0,0,0,5.22,2,9,9,0,0,0,4.34-1.15A9.23,9.23,0,0,0,33.78,27Z"/><path class="cls-1" d="M87,27.54a3.56,3.56,0,0,1-3.19,2.05q-3,0-4.89-3.88A21.5,21.5,0,0,1,77,16.05a10.27,10.27,0,0,1,1.08-5.33A3.58,3.58,0,0,1,81.3,9q3,0,4.91,3.9a21.4,21.4,0,0,1,2,9.63,9.92,9.92,0,0,1-1.18,5m4.23-17.17a9.44,9.44,0,0,0-7.38-3.15A12.1,12.1,0,0,0,74.55,11,13.15,13.15,0,0,0,71,20.33a11.4,11.4,0,0,0,2.82,7.9,9.43,9.43,0,0,0,7.38,3.14,12.08,12.08,0,0,0,9.28-3.8A13.13,13.13,0,0,0,94,18.26a11.39,11.39,0,0,0-2.82-7.89"/><path class="cls-1" d="M51.86,11.59V7.74h-9l3.33,3.33V30.81h9l-3.34-3.34V13.19a7.53,7.53,0,0,1,2.3-2.07,5.55,5.55,0,0,1,2.73-.7,4,4,0,0,1,3.23,1.3c.71.85.91,2.33.91,4.62V30.81h9l-3.34-3.34V14.74a7.87,7.87,0,0,0-1.83-5.55,6.78,6.78,0,0,0-5.21-2,8.85,8.85,0,0,0-4.35,1.15,9.31,9.31,0,0,0-3.41,3.22"/><path class="cls-1" d="M3.21,0,7,3.79V31.33a8.72,8.72,0,0,1-.21,2.56H0v5.22H4.65s6-6,6.91-7.12a4.62,4.62,0,0,0,1-3V0Z"/></svg>