<svg id="elements" preserveAspectRatio="none" xmlns="http://www.w3.org/2000/svg" viewBox="0 0 275 25"><defs><style>.cls-1{fill:#4a455c;}</style></defs><title>rip-navLarge-dropdown-courses</title><path class="cls-1" d="M0,0V9a.43.43,0,0,1,.1.09,1,1,0,0,1,.94.3.76.76,0,0,0,1,.21c.43.33.81.38.87-.24.43.41.23-.14.33-.22a7.94,7.94,0,0,1,.82.08c.66.47.82.14,1.38.47a2.77,2.77,0,0,1,1.35.67c.24-.74.55-1,1-.72a1.75,1.75,0,0,0,.94,0c.41.37.64.22.91.24.38.24.7.28.88.11a1.51,1.51,0,0,0,.64,0,.88.88,0,0,1,.73,0,4.46,4.46,0,0,0,.81.09,4.22,4.22,0,0,0,.87,0c.27,0,.5.43.78.14.23.09.4.38.69.13.15.29.43.13.72,0,.22.09.4.27.79-.06.11.46.6-.3.83-.05.32-.25.58-.08.92-.63.29-.23.57-.44.85-.21s.57,0,.86-.06c.58-.19,1.21.27,1.84.27.57.4,1.05.08,1.54.19a5.94,5.94,0,0,1,1.45.44,2,2,0,0,0,.67.1,3.55,3.55,0,0,0,.75-.47c.46.11.86.35,1.13-.08.29-.21.56-.5.83-.71s.55-.57.86-.5c.29-.39.62.43.92-.12.33.25.65-.26,1,0a1.21,1.21,0,0,1,1.09.32c.38,0,.88-.31,1.39.19s1,.36,1.39-.45c.52.46,1,.21,1.42,0a1.35,1.35,0,0,1,1.42-.17.7.7,0,0,1,.68.27c.22.34.45-.06.67.19.22.07.43-.17.65,0s.43-.19.65-.22c.16.47.28-.3.42-.13.14-.1.28-.4.43-.16.14,0,.29.11.42-.11.14-.42.29-.12.43-.18s.29,0,.43-.18.3,0,.45,0a12.64,12.64,0,0,0,1.39.27,6,6,0,0,0,1.47.1c.33,0,.67.12,1-.1.34,0,.67-.23,1-.25l.5-.18.5-.22c.67-.1,1.34-.56,2-.39.63-.26,1.24.12,1.85-.41.6-.06,1.15.43,1.72-.07a1,1,0,0,0,1,0c.34-.37.63.29.94.14a1,1,0,0,1,.93.1,4.27,4.27,0,0,1,.91.26,2.58,2.58,0,0,0,1.72.14c.55-.3,1.06,0,1.58-.37S62.47,6.22,63,5.9a3.61,3.61,0,0,1,1.59-.23c1-.2,1.93-.81,2.58-.94a2,2,0,0,1,1.11-.19,4.14,4.14,0,0,1,1.61-1.25c.4-.26.8.5,1.2.76a3.07,3.07,0,0,0,1.24.87c.22.18.44.44.65.58a.43.43,0,0,0,.53,0c.39.1.84.29,1.12.12,0-.26.45,0,.76.14,0-.23.59.88.8.63s.65-.66.84.28c.35-.27.45.21.79,0,.2.23.52.12,1-.37a2.1,2.1,0,0,0,1.07-.45,2.21,2.21,0,0,0,.81,0c.12.21.15.5.54.24,0,.29.27.18.34.37.17,0,0,.55.43.21,0,.19.46-.1.51.1.18,0,.48-.18.62-.13.22-.17.38-.2.5-.08s.3-.13.39.2c.16-.1.26.29.44.2.32-.28.44,0,.57.3.18.11.44.07,1-.16s.85-.55.73-.06c.5-.68.29.07.47,0,.22-.37.29-.16.43-.1s.37,0,.51-.16.27-.44.56-.16.21-.42.56,0c.22,0,.72.53.82.32.46.36.57.14.87.21.08-.23.52-.07.67-.19s.1-.38.46-.25c.53.19.52.12.47-.12.13.06.18,0,.26,0s.21,0,.25-.12c.12.06.21,0,.33,0a.38.38,0,0,1,.33.12c.21,0,.43.2.65.09s.21.11.32.11.22,0,.34-.06a.92.92,0,0,1,.71,0c.24-.3.5,0,.75-.25a6.74,6.74,0,0,0,.74-.3c.24.27.47.06.7-.14.25-.37,14.66-.19,14.92-.18s.49.5.75.06a5.82,5.82,0,0,1,1.47.63c.49.28,1,.58,1.47.87.79,0,1.65.06,2.56.08h1.45a4.1,4.1,0,0,1,1.48,0c.44.17,1-.17,1.58-.25a1.85,1.85,0,0,1,.82-.19c.23,0,.47-.08.62,0a.76.76,0,0,0,.6,0c.25-.14.52-.29.65-.2s.24.24.63-.13.67-.55.74-.28c.34-.25.38.06.65,0,.42-.34.52-.06.83-.14s.42.44.82.15c.25.21.6,0,.87.18.25.44.56.25.85.37.23.62.57,0,.85.1.3-.15.54.27.86,0s.58-.09.9-.37c.2-.1.41-.24.55.07.22-.2.43-.36.55,0a1.64,1.64,0,0,1,1.13-.2,4.6,4.6,0,0,0,1.19-.63,2.19,2.19,0,0,0,1,.14,14.18,14.18,0,0,0,2.14-.38c1,.09,2.13-.1,2.93.69a7.42,7.42,0,0,1,2.7,1.37c.87.23,1.65-.42,2.74,1.11,1.11.66,2.31.34,3.46,1.06a5.56,5.56,0,0,1,1.81-.74c.41-.46,1,0,1.39.55.35.38.77.29,1.15.66.44,0,1,.58,1.37-.08.44,0,.7-.42,1.47,0,.16-.41.7-.15,1-.1s.53-.14.89-.15.9.15,1.48-.56l.69.24.68.22a4.32,4.32,0,0,1,1.41.41c.38-.43.71.62,1.07.26a1.93,1.93,0,0,0,1.17.2,2.39,2.39,0,0,1,1.27.18c.32-.31.65-.37,1,.07.32,0,.62.21.93.2s.57.35.86.43a.49.49,0,0,0,.6.47c-.13.21-.13.28.12.25s.27,0,.34.08c.09.23.42.22.88,0,.31.08,1.12-1,1.17-.14.45-.75.42.58.79.32.22.34.44,1,.74.38.2,1,.46.79.71.78.23.62.5.19.75.33.27-.33.5.18.75.29s.49.7.75.59c.25.19.5.15.75.42a4.88,4.88,0,0,1,.74.66,3.73,3.73,0,0,1,.74.33c.26-.18.51.06.75.21s.54-.62.76.11c.17.15.35.12.51.55.16.17.33.32.5.29.34,0,.68-.2,1,.07s.68-.27,1,0c.26-.16.53-.05.82.12a6.84,6.84,0,0,1,.88.28,2.18,2.18,0,0,0,.46.11c.14,0,.32.15.43.05a3.33,3.33,0,0,0,.48.21c.1-.13.25-.1.34-.28.25-.18.53-.51.86-.3.33-.18.74.44,1.06.24s.8.35,1.25.59a2.28,2.28,0,0,0,1,.88,1.3,1.3,0,0,0,.83.18,3,3,0,0,0,1.23-.59c2.11,2.25,17.16-.17,18.31,1.11a2.31,2.31,0,0,1,2-.28.94.94,0,0,0,.94-.37c.3.82.62.86.93.86a2,2,0,0,0,1-.83c.35-.15.71-.14,1.06-.26s.66.19,1,.21a3.53,3.53,0,0,0,.46,0,1,1,0,0,1,.44,0,3,3,0,0,1,.52,0c.42-.42.39,0,.55.13.65-.74.48.43.79.25a1,1,0,0,1,.91.12,2.19,2.19,0,0,0,.62.08c.15,0,.37.15.5.11s.26,0,.43,0,.31,0,.38-.14c.22,0,.43,0,.68,0s.57.2.71-.13.41-.42.69-.3.44-.42.68-.49c.26-.39.51-.62.72-.55s.45-.23.67-.41.43-.29.61-.27a.66.66,0,0,1,.55-.29.8.8,0,0,1,.49-.23c.17-.14.32-.07.5-.21a1.86,1.86,0,0,0,.61-.13c.22,0,.45,0,.68,0a7.88,7.88,0,0,1,.79,0c.15-.15.55-.13.8-.19.46-.16.75-.35,1-.45s.46-.31.66-.41.39-.14.62-.38c.21-.05.5-.37.78-.48s.68-.32,1,0c.53.07,1,0,1.48.06.45.22.91,0,1.39.09.47-.18.94.4,1.52.56a6.19,6.19,0,0,0,1.07-.08,7.54,7.54,0,0,0,.88-.26,3.22,3.22,0,0,1,1,0c1,1.59,1.65,1.8,1.73,1.49s.67-.5.75-.86c.4-.32.63-.84,1.09-.9a1.57,1.57,0,0,0,1.19-.45h.79l.81,0c.27-.07.87.44,1,.22.33,0,.87.22,1,.07-.14-.36.58,0,.61-.09.33.08.21-.24.46-.21s.53.18.54-.29c.21,0,.42-.17.64-.25a1.51,1.51,0,0,1,1.28-.38,2.1,2.1,0,0,1,.66-.14l.83-.07c.58-.17,1.3-.17,1.46-.57a3,3,0,0,0,1-.47c.36-.14.77-.51,1.25-.2.22-.08.45-.61.67-.39.21-.67.44,0,.66-.33s.44-.11.67-.27c.22.14.44,0,.65.19.23-.18.44,0,.65.14a.65.65,0,0,0,.66,0c.19-.27.4-.16.61-.08a1.44,1.44,0,0,0,.62,0,4.87,4.87,0,0,1,1.22-.41c.42,0,.81-.58,1.22-.74.39,0,.77-.58,1.17-.58.4-.39.8-.09,1.2-.58a.57.57,0,0,1,.22-.11V0Z"/></svg>
