<svg id="elements" preserveAspectRatio="none" xmlns="http://www.w3.org/2000/svg" viewBox="0 0 1400 60"><defs><style>.cls-1{fill:#fbf7f4;}</style></defs><title>rip-faq-landing</title><path class="cls-1" d="M1400,60V55.45c-2.32-.75-4.18-1.94-6.4-2-2.87-5.83-8.23-3.22-11.24-3.66-4.27,3.1-8.41,4.44-13.38,1.66-2.73-.59-5.3-.2-8.22-1.94-3.28-6.33-4.3,1.17-6.87-1.29-2.34,1-5.72-4.88-8.54-1.13-1.95,1.09-5,2.74-8.36,1.4-5.09,1.14-11.32-.79-16-2.46-1.24-.55-5.22.35-6-1-2.3-.78-4.57.27-6.61,0a12.16,12.16,0,0,0-6.18-.46,30.22,30.22,0,0,0-5.67-1.5c-.58-.38,1.05-1.09-2.21-1.07-3.28-.22.45-.7-4.21-1a55.43,55.43,0,0,0-7.67-3c-.62-.68,0-1.24-3.5-4.39-.53-3.25-1-8.47-3.89-8.47-3.62,2.11-3.52-3.77-6.83,2.19-1.65.72-2.19-.9-3,0-3.49,1.06-5.92-.11-8.59.77-2.59-1.41-5.21-1.83-9-.26-1.73-1.68-4.77-2.34-8.56-3.9-4.42.37-10.3,2.53-15.37-1-5-.95-9.32-2-13.79-3a104.17,104.17,0,0,0-14.44-2.13c-3.76.43-6.86.65-9.56.71-2.66-.14-4.86-.68-7.17-.21-2.78.89-4.84-2.39-7.8-1.63-1.48-5.68-5.25-1.22-7.17-3.59-3-1-6.37-1.25-9.56-3.27-4,1.37-7.28-1.19-11-3.75-3.78-2.17-8.62-1.32-13.19-3.79-6.61,0-12.92,3.09-17.29.81-5.1,1-9.77,3.36-13.63,4.38s-7.08,2.38-10.54,3.39a24.66,24.66,0,0,1-11.58.83c-7.13,1.66-11.88,5.79-18.1,6.28-5.37-3.37-9.74-7-16.22-9.6a11.34,11.34,0,0,0-5.63,1.74c-1.38.66-3.36,1.21-9.73,2-2.8-.88-5-1.15-9.29.84-3.41,0-7.61.21-10.7-1.79-9.21-2.09-10.82-7-15.47-2.38-3.24.58-5.86-.49-14.44-.32a15.09,15.09,0,0,0-7.37-2.88c-2.47-.34-5.16.62-7.07-1.12-2.06-1.41-5.56,3.79-7,.44-2.94,3.3-4-1-6.71,1.92-1.06-4.12-3.68-1.12-6,.92-1.48-1.73-4.38,3-6.58,4.77-3.22-.06-7,2.79-9.4-.48-3-1.2-6.45-.78-10.39-.44-8.6-.49-12.65,1.22-14.35,2.25-10.9-.2-9.21.48-10.62.61-5.19-1-7.49-1.31-6.75-.57-4.57-1.07-5.76-.29-9.67-.47-3.62.9-6.34.44-9.51,3.46-1.43,4.52-6.09,1.67-9.46,2.34-2.31,1.43-6,1.24-8.81,2.16a51.44,51.44,0,0,0-9.7.34c.63,1.14-.32,3.13-3.94,1.79-2.95-1.14-5.41.33-6,3.11a41.67,41.67,0,0,0-5.53,1.64,17.63,17.63,0,0,1-6.31,1.07c-2-.26-4.48,1.83-6.73,3.26-2,.49-4.71,4.3-6.08,3.23-1.64-1.21-5.61,7.84-7.08,6-2,.56-4.29,2.16-6.25,2.44-4,1-6.86-3.1-11.63,1.17-3.58-.73-8.32,3.58-12.33,4.62a5.79,5.79,0,0,1-5.94,1.09c-1.76-.65-3.38-2-5.14-2.86-4,.27-6.86-5.15-11.08-5.67-3.39-4.15-8.66-.09-11.71-4.18-2.1,1.34-4.72.3-7.14,1-1.14,1.16-2.85,3-5.11,2.68-4.13,1.07-7,3.21-10.51,4-4.31-.73-7.32,2.12-11.18,2.28-3.91.44-8.5,1.87-12.24,1.1-3.55-1.28-6.57-2.78-10.83-1.72-1.75-.23-4.07,1.5-5.69.44-1.76,1.6-3.27,1.58-4.81,2.08-2.38,1.32-4.6.79-7,.53a17.74,17.74,0,0,1-4-1.3,42.72,42.72,0,0,0-9.53-3c-17.55-4.35-22.11-5.07-25.9-5.26a24.93,24.93,0,0,1-11.85-2c-3.52-2.93-7.67-3.64-12.55-2.21-4.7.29-8.65-2.7-12.92-4.16-4.11-2-7.53-7.74-12.9-4.07-3.47-4.58-8.83.06-13,2.3-2.38-.26-4.8-.42-7.27-.46a45.54,45.54,0,0,1-7.55.23c-2.78,1.15-4.86-.84-7.85,1a45.26,45.26,0,0,1-8.17,1.87c-6.18.45-12,.53-17.24-2-6.44,2.92-12.14,2.87-18,2.82-4.13-.36-8.29-.58-12.43-.76s-8.28-.33-12.38-.54-7.62-2.49-11.43-3.76c-3.22-3.85-7.93-1.52-13.3,2.3-5.28,4.85-7.86-2.34-11.91-3.27-4.23-.17-6.77-7.87-12.16-3.23-4.09-.84-7.78-3.43-12.44-1.2-3.55-3-7.68-.38-12.56-2.63A94.19,94.19,0,0,0,379,21.7c-3.17.14-5.49.34-8.49.49-5.69-.21-8.06-.16-8.2.34-1.7.19-6.45-1.74-5.81,0-2.26-.32-4.61-1.31-6.17-1.54a9.33,9.33,0,0,1-5.16-.92c-1.73,1-4.11-.16-6.7-.67-2.73-.35-5.45-3.21-9.68-.93a18.32,18.32,0,0,0-12.66-1.9c-3.93,1.29-7.22,2.49-9.56,1.13-2.9,1-5.41,2-7.6,2-2.32.62-4.36.48-6.94,2.12-4.25.36-8.61-.43-14.43,4.07-2.64,1.06-5.13,1.22-7.73,1.67a19.1,19.1,0,0,0-8.39,3.36c-3.86,2.09-7.64,5.32-9.74,2.1-3.16,1.38-4.88-2.7-8.08-.12-2.55-.24-5.31.59-7.74-.51-2.64-.17-4.81-2.93-8.71.69-6,.41-11-.54-15.43-3.72-6-2.07-10.22-1.28-14.88-.19-3.34.86-6.31-.84-9.92.65-1.71.62-3.42.47-5.47,1.91s-3.85.17-6.48,3.13c-2.79-1.79-6.19-.43-9.4-.7-3.23.71-6.56-1.15-9.9.1-3.89,2.62-7-.92-10.62-.15-3.69-5.49-8.29-2-12.87-.38-5.19-1.57-11.89-4.42-13.88-3.91-2.35-.22-8.47-2.34-10-2-2.24-1.45-2.85-2.52-4.54-.82-.55-2.33-3.18-.35-4.7.51-2.56-.11-4.82.84-7.18,1.94-4.49.32-7,1.44-8.69,2.67-3.58-.1-4.32,2-7.71,1.25-1.67,1.64-4.16,3.46-6.83,1.32-2.19.92-4.68-1.4-6.71.05-2.24-.24-4.64.59-6.73-.42C52,32.2,47.36,36.63,43.64,36.85A30.79,30.79,0,0,1,33,35.62c-8.75,5.53-14.24,3.25-21.73,5.43-3.77.07-7.67,1.18-11.23,2V60Z"/></svg>