<svg id="elements" preserveAspectRatio="none" xmlns="http://www.w3.org/2000/svg" viewBox="0 0 210 30"><defs><style>.cls-1{fill:#4a455c;}</style></defs><title>rip-navSidefixed-FAQs</title><path class="cls-1" d="M0,0V6C4,5.59,6.46,7,12.47,6.84c.62,2.24,3.69,2.63,6,3.33s5.37.71,7.29,1.3c.19,0,.34.87,1.17,1.08s1.73-.15,2.45.08c.42.14,0,1,1.17,1.09,2,.15,5.4.94,7.25,2.33.2-1.36,2.33-.61,3.71-.92,1-.22,1.3-.76,2.5-1,2.33-.38,4.56.56,6.17-.84,5.23,2.37,10.25,2.37,18.3,1.67.37,0,2.22.3,2.44.09s0-1,0-1a60,60,0,0,1,6.17-.83c2.26-.05,3.48,1.07,6.06,1.25,1.51.11,2.75-2.09,4.9.17l13.45.46c1,.23,1.18-.37,1.28-1,.35-1.66,3.22-.42,4.94-.87,1.38-.37.43-.34,1.27-1a27.56,27.56,0,0,1,7.54-3.92c.74,1.43,2.52,2,4.79,2.25-1,2.8,5.81-.55,4.8,2.25,1-1.26,2.82,0,4.89.17,1.85.13,5-.14,7.34.25-.2,0,.64.95,1.17,1.08,1.83.46,4.77-.57,4.85,1.21,1.57,1.1,4.5,1.14,4.74,3.29,3.57.4,3.87-2.22,7.44-1.83,1.16,1.77,5.14,1.31,7.24,2.34,5.23-2.07,11.57-3.1,18.55-3.54-.18-1.25,1.86-.46,2.49-1,.16-.13-.13-1,.05-1,.46-.2,2.13.39,2.45.08.17-.16-.15-.92.05-1,.46-.27.6-.65,1.27-1a21,21,0,0,1,3.77-2c6.8,1.44,11.65-2.54,17.56-3.42V0Z"/></svg>