<svg id="Layer_1" data-name="Layer 1" xmlns="http://www.w3.org/2000/svg" xmlns:xlink="http://www.w3.org/1999/xlink" width="64" height="64" viewBox="0 0 64 64"><defs><style>.cls-1,.cls-3,.cls-5{fill:none;}.cls-2{fill:#ea593e;}.cls-3,.cls-4,.cls-5,.cls-6{stroke:#ea593e;stroke-linecap:round;stroke-linejoin:round;}.cls-4{fill:url(#_6_lpi_30_8);}.cls-5{stroke-width:1.33px;}.cls-6{stroke-width:0.96px;fill:url(#_6_lpi_30_8-5);}</style><pattern id="_6_lpi_30_8" data-name="6 lpi 30% 8" width="4" height="4" patternTransform="translate(-4.36 -9.12)" patternUnits="userSpaceOnUse" viewBox="0 0 4 4"><rect class="cls-1" width="4" height="4"/><rect class="cls-2" x="2.5" y="2.51" width="1" height="1"/><rect class="cls-2" x="0.5" y="0.49" width="1" height="1"/></pattern><pattern id="_6_lpi_30_8-5" data-name="6 lpi 30% 8" width="4" height="4" patternTransform="matrix(0.69, -0.71, 0.71, 0.62, -14.15, 11.34)" patternUnits="userSpaceOnUse" viewBox="0 0 4 4"><rect class="cls-1" width="4" height="4"/><rect class="cls-2" x="2.5" y="2.51" width="1" height="1"/><rect class="cls-2" x="0.5" y="0.49" width="1" height="1"/></pattern></defs><title>cta-immersive-whatwelookfor</title><polyline class="cls-3" points="34.34 32.94 34.34 38.05 24.91 38.05 24.91 35.26"/><line class="cls-3" x1="20.04" y1="56.72" x2="29.62" y2="38.05"/><line class="cls-3" x1="39.21" y1="56.72" x2="29.62" y2="38.05"/><line class="cls-3" x1="29.62" y1="38.05" x2="29.62" y2="57.05"/><path class="cls-3" d="M54.07,10.35c-5,2.08-7.67,4.33-8.86,7.18l4.07,9.89c2.85,1.19,6.29,1,11.34-1.12"/><polygon class="cls-4" points="46.96 28.38 42.89 18.48 24.48 27.23 27.72 35.1 46.96 28.38"/><polygon class="cls-4" points="12.53 40.43 9.93 34.12 24.8 28.01 27.4 34.32 12.53 40.43"/><rect class="cls-3" x="2.69" y="37.43" width="8.87" height="3.06" transform="translate(-14.27 5.63) rotate(-22.33)"/><path class="cls-5" d="M9.41,14.7A6.26,6.26,0,0,1,15.67,21a6.26,6.26,0,0,1,6.26-6.26,6.26,6.26,0,0,1-6.26-6.26A6.26,6.26,0,0,1,9.41,14.7Z"/><line class="cls-5" x1="7.81" y1="7.11" x2="7.81" y2="10.75"/><line class="cls-5" x1="9.63" y1="8.93" x2="5.99" y2="8.93"/><ellipse class="cls-6" cx="57.49" cy="18.31" rx="2.58" ry="8.59" transform="translate(-2.62 23.55) rotate(-22.65)"/></svg>