<svg id="Layer_1" data-name="Layer 1" xmlns="http://www.w3.org/2000/svg" xmlns:xlink="http://www.w3.org/1999/xlink" width="64" height="64" viewBox="0 0 64 64"><defs><style>.cls-1,.cls-4,.cls-5{fill:none;}.cls-2{fill:#fff;}.cls-3{fill:url(#_6_lpi_30_9);}.cls-4,.cls-5{stroke:#fff;stroke-linejoin:round;}.cls-4{stroke-linecap:round;}</style><pattern id="_6_lpi_30_9" data-name="6 lpi 30% 9" width="4" height="4" patternTransform="translate(14.64 -5.8)" patternUnits="userSpaceOnUse" viewBox="0 0 4 4"><rect class="cls-1" width="4" height="4"/><rect class="cls-2" x="2.5" y="2.51" width="1" height="1"/><rect class="cls-2" x="0.5" y="0.49" width="1" height="1"/></pattern></defs><title>cta-speaktoagrad</title><path class="cls-3" d="M43.51,29.64H26.22A4.38,4.38,0,0,0,21.85,34V48.82a4.38,4.38,0,0,0,4.37,4.36H44.54l7.7,7.71h1.88V53.18h1.75a4.38,4.38,0,0,0,4.36-4.36V34a4.38,4.38,0,0,0-4.36-4.36H43.51Z"/><path class="cls-4" d="M43.08,13.05a8.2,8.2,0,0,1,8.19,8.2,8.2,8.2,0,0,1,8.2-8.2,8.2,8.2,0,0,1-8.2-8.19A8.19,8.19,0,0,1,43.08,13.05Z"/><line class="cls-4" x1="40.98" y1="3.11" x2="40.98" y2="7.88"/><line class="cls-4" x1="43.36" y1="5.5" x2="38.6" y2="5.5"/><path class="cls-5" d="M43.51,29.64H26.22A4.38,4.38,0,0,0,21.85,34V48.82a4.38,4.38,0,0,0,4.37,4.36H44.54l7.7,7.71h1.88V53.18h1.75a4.38,4.38,0,0,0,4.36-4.36V34a4.38,4.38,0,0,0-4.36-4.36H43.51Z"/><path class="cls-5" d="M24.38,42.73H41.71a4.37,4.37,0,0,0,4.36-4.36V23.55a4.37,4.37,0,0,0-4.36-4.36H8.13a4.38,4.38,0,0,0-4.36,4.36V38.37a4.38,4.38,0,0,0,4.36,4.36H9.88v7.71h1.88L19.21,43"/></svg>