<svg id="Layer_1" data-name="Layer 1" xmlns="http://www.w3.org/2000/svg" width="90" height="90" viewBox="0 0 90 90"><defs><style>.cls-1{fill:#ffcdaf;}.cls-2{fill:#221c38;}</style></defs><title>flag-soldout-bottom</title><polygon class="cls-1" points="90 38.5 90 0 0 90 38.5 90 90 38.5"/><path class="cls-2" d="M41.53,74.4c-1.84,1.85-3.88,2.08-5.23.73l1.23-1.23c.72.72,1.82.63,3-.54.92-.91,1.19-2.06.46-2.79s-1.35-.54-2.29.11l-1.45,1c-1.58,1.1-3,1.06-4.11,0-1.27-1.27-1.09-3.25.61-4.95,1.52-1.53,3.5-2.1,5-.57l-1.2,1.19c-.81-.81-1.87-.58-2.86.41s-1.1,1.91-.41,2.6,1.3.54,2.3-.14l1.44-1c1.64-1.12,3-1,4.18.13C43.6,70.7,43.15,72.78,41.53,74.4Z"/><path class="cls-2" d="M42.49,62.14a4,4,0,1,1,0,5.62A3.8,3.8,0,0,1,42.49,62.14Zm4.65,4.65a2.62,2.62,0,1,0-3.43-.23A2.29,2.29,0,0,0,47.14,66.79Z"/><path class="cls-2" d="M53.24,62.48l-1.16,1.16L44.2,55.76l1.16-1.16Z"/><path class="cls-2" d="M52.22,47.74l7.88,7.88L59,56.68,58.11,56a3,3,0,0,1-.94,2.81c-1.5,1.5-3.62,1.54-5.39-.23s-1.71-4-.26-5.42a2.94,2.94,0,0,1,2.77-1l-3.24-3.25Zm4,6.37A2.29,2.29,0,1,0,53,57.33a2.29,2.29,0,1,0,3.22-3.22Z"/><path class="cls-2" d="M60.55,44.07a4,4,0,0,1,5.66,5.66,4,4,0,0,1-5.66-5.66Zm4.66,4.66A2.31,2.31,0,0,0,65,45.28c-1.13-1.12-2.47-1.2-3.45-.22s-.89,2.31.23,3.44A2.31,2.31,0,0,0,65.21,48.73Z"/><path class="cls-2" d="M69.44,35.4l5.44,5.44-1,1-.78-.62a2.46,2.46,0,0,1-.73,2.35,2.94,2.94,0,0,1-4.46-.15l-3.24-3.25,1.11-1.11,3.09,3.08c1,1,2,1,2.72.16s.69-1.92-.24-2.85l-3-3Z"/><path class="cls-2" d="M75.2,37.58l-2.93-2.93-.91.91-1-1,.46-.46c.34-.34.28-.62-.06-1l-.94-.94L70.94,31l1.46,1.45,1.26-1.26,1,1-1.27,1.26,2.71,2.71c.43.43.79.54,1.3,0l.62-.61,1,1-1,1A1.87,1.87,0,0,1,75.2,37.58Z"/></svg>