<svg id="Layer_1" data-name="Layer 1" xmlns="http://www.w3.org/2000/svg" width="90" height="90" viewBox="0 0 90 90"><defs><style>.cls-1{fill:#ffcdaf;}.cls-2{fill:#221c38;}</style></defs><title>flag-soldout-top</title><polygon class="cls-1" points="38.5 0 0 0 90 90 90 51.5 38.5 0"/><path class="cls-2" d="M33.37,22.22c-1.85-1.85-2.08-3.89-.73-5.23l1.23,1.23c-.72.72-.63,1.81.54,3,.91.91,2.06,1.19,2.79.45s.54-1.34-.11-2.29l-1-1.45c-1.1-1.58-1.06-3,0-4.1,1.27-1.28,3.25-1.1,5,.6,1.53,1.53,2.1,3.5.57,5l-1.19-1.2c.81-.82.58-1.88-.41-2.86s-1.91-1.11-2.6-.42-.54,1.31.14,2.3l1,1.45c1.12,1.63,1,3-.13,4.17C37.07,24.28,35,23.84,33.37,22.22Z"/><path class="cls-2" d="M45.63,23.17a3.79,3.79,0,0,1,0,5.63A4,4,0,1,1,40,23.21,3.8,3.8,0,0,1,45.63,23.17ZM41,27.83a2.29,2.29,0,0,0,3.44-.23,2.28,2.28,0,0,0,.22-3.44c-1-1-2.31-.89-3.43.23A2.29,2.29,0,0,0,41,27.83Z"/><path class="cls-2" d="M45.29,33.92l-1.16-1.16L52,24.88,53.17,26Z"/><path class="cls-2" d="M60,32.9l-7.88,7.88-1.06-1.06.73-.92A3.06,3.06,0,0,1,49,37.85c-1.5-1.49-1.54-3.61.23-5.38s4-1.71,5.42-.27a3,3,0,0,1,1,2.78l3.24-3.25Zm-6.37,4a2.29,2.29,0,1,0-3.22-3.23,2.29,2.29,0,1,0,3.22,3.23Z"/><path class="cls-2" d="M63.7,41.24a4,4,0,1,1-5.62,0A3.81,3.81,0,0,1,63.7,41.24ZM59,45.89a2.62,2.62,0,0,0,3.67-3.67c-1-1-2.31-.89-3.44.24A2.3,2.3,0,0,0,59,45.89Z"/><path class="cls-2" d="M72.37,50.13l-5.44,5.44-1-1,.62-.79A2.47,2.47,0,0,1,64.16,53a2.93,2.93,0,0,1,.15-4.45l3.25-3.25,1.11,1.11-3.08,3.09c-1,1-1,2-.16,2.73s1.92.69,2.85-.25l3-3Z"/><path class="cls-2" d="M70.19,55.88,73.12,53,72.21,52l1-1,.46.47c.34.34.62.27,1-.07l.94-.94,1.16,1.16-1.45,1.45,1.26,1.26-1,1-1.26-1.26-2.71,2.7c-.43.44-.54.8,0,1.31l.62.61-1,1-.95-.94A1.89,1.89,0,0,1,70.19,55.88Z"/></svg>