<svg id="Layer_1" data-name="Layer 1" xmlns="http://www.w3.org/2000/svg" width="90" height="90" viewBox="0 0 90 90"><defs><style>.cls-1{fill:#aef9ff;}.cls-2{fill:#221c38;}</style></defs><title>flag-almostfull-bottom</title><polygon class="cls-1" points="90 38.5 90 0 0 90 38.5 90 90 38.5"/><path class="cls-2" d="M34.41,77.85,31.23,81l1.08,2.37-1.22,1.22L26.43,74.18,27.64,73l10.44,4.66-1.3,1.3Zm-1.33-.6-4.49-2.06,2,4.51Z"/><path class="cls-2" d="M40.08,75.64l-1.15,1.15-7.88-7.88,1.15-1.15Z"/><path class="cls-2" d="M46.3,62.66,49.68,66,48.5,67.22l-3.17-3.17c-.92-.93-1.75-.88-2.44-.19A1.68,1.68,0,0,0,43,66.4l3.14,3.14L45,70.68,42,67.58c-1-.94-1.82-1-2.51-.28a1.66,1.66,0,0,0,.12,2.56L42.71,73l-1.15,1.16-5.44-5.44,1.05-1,.76.47A2.29,2.29,0,0,1,38.67,66a2.56,2.56,0,0,1,2.73-.76,2.52,2.52,0,0,1,.71-2.68A2.78,2.78,0,0,1,46.3,62.66Z"/><path class="cls-2" d="M48.11,56.52a4,4,0,1,1,0,5.62A3.79,3.79,0,0,1,48.11,56.52Zm4.66,4.65A2.62,2.62,0,0,0,49.1,57.5c-1,1-.89,2.31.23,3.44A2.3,2.3,0,0,0,52.77,61.17Z"/><path class="cls-2" d="M56.85,55.58c.58.55,1.42.36,2.14-.35s.87-1.4.39-1.88-.85-.42-1.56.1l-1.28.9c-1.25.88-2.21.74-3,0-1-1-.65-2.58.58-3.81s2.93-1.66,4-.58L57,51.07c-.56-.54-1.34-.37-2,.3s-.78,1.3-.33,1.75.85.3,1.56-.2L57.49,52c1.19-.83,2.15-.8,3,0,1.12,1.12.67,2.74-.59,4-1.44,1.43-3.09,1.7-4.17.67Z"/><path class="cls-2" d="M62.17,50.61l-2.93-2.93-.91.91-1-1,.46-.46c.34-.34.28-.62-.06-1l-.94-.94L57.91,44l1.46,1.45,1.26-1.26,1,1L60.4,46.52l2.7,2.71c.44.43.8.54,1.3,0l.62-.62,1,1-1,.95A1.87,1.87,0,0,1,62.17,50.61Z"/><path class="cls-2" d="M64.13,40.73l-.88-.88c-1-1-1.09-2.07.08-3.24l.8-.8,1,1-.59.59a.84.84,0,0,0,0,1.39l.79.79,1.3-1.29,1,1-1.3,1.29L70.73,45l-1.17,1.16-4.41-4.41-.89.89-1-1Z"/><path class="cls-2" d="M72.31,32.53,77.75,38l-1,1-.78-.62a2.46,2.46,0,0,1-.73,2.35,2.94,2.94,0,0,1-4.46-.15L67.5,37.34l1.11-1.11,3.09,3.09c1,1,2,.94,2.72.15s.69-1.91-.24-2.85l-3-3Z"/><path class="cls-2" d="M80.38,35.34l-1.15,1.15-7.88-7.88,1.15-1.15Z"/><path class="cls-2" d="M83,32.71l-1.16,1.16L74,26l1.16-1.16Z"/><path class="cls-2" d="M83,29.8l1.47-1.48,1.47,1.48-1.47,1.47Zm-5.91-6.25,1.12-1.13,2.09,2.09a37.51,37.51,0,0,1,3,3.3l-.82.83a39.14,39.14,0,0,1-3.3-3Z"/></svg>