<svg xmlns="http://www.w3.org/2000/svg" xmlns:xlink="http://www.w3.org/1999/xlink" preserveAspectRatio="none" viewBox="0 0 865 48">
    <defs>
        <path id="prefix__a" d="M0 0L1112 0 1112 48 0 48z"/>
    </defs>
    <g fill="none" fill-rule="evenodd" transform="translate(-247)">
        <mask id="prefix__b" fill="#fff">
            <use xlink:href="#prefix__a"/>
        </mask>
        <path fill="#4A455C" d="M0 0v4.762c1.927-.092 3.906-.222 5.96-.42 1.724 3.549 13.564.467 11.896 6.24 3.142.166 6.376-.221 9.513 0 2.273.157 1.692 1.467 2.379 1.558 2.278.298 2.207-1.572 2.38-1.559 6.199.429 10.47 2.961 19.034 1.559 2.42-.398 1.157-1.19 2.379-1.559.859-.26 4.197.45 4.758 0 .13-.105-.144-1.547 0-1.56 2.793-.258 7.436 1.325 11.892 1.56 3.941.206 7.951-.158 11.897 0 4.251-.439 4.878 1.473 2.379 1.559.586 1.694 4.73 1.057 4.759 3.119 7.722.902 11.063-1.064 16.65-1.56 1.38 1.447 7.146 3.93 11.896 4.678 5.178.813 12.747-1.766 19.03 0 1.082.301 1.886 2.321 2.38 3.117h2.378c-.766-.948 5.438-4.48 7.137-3.117.15.116 3.416 2.633 4.76 1.558.12-.096-.12-1.552 0-1.558 1.42-.082 4.321 1.441 7.137 1.558 2.728.115 4.262.05 4.76 1.56 8.964-1.199 11.37 1.9 19.029 1.559 3.987-3.877 11.845-.407 16.655 0 6.667.562 13.15.349 19.03 1.56.816.166 4.266-.398 4.757 0 .364.287-.403 1.304 0 1.557.409.26 1.98-.262 2.38 0 .316.207-.368 1.413 0 1.56 1.153.462 3.503-.353 4.758 0 .442.125.986 1.193 2.38 1.559 2.049.539 5.019-.43 7.137 0h2.38v-1.56c7.83-.063 11.84-2.63 21.409-1.56h2.38c3.391-4.743 20.626-4.155 21.407 1.56 4.908.944 16.53-2.515 14.277 3.119 8.178-.682 13.331.617 19.028 1.56 2.166 4.818 12.623 4.202 11.897 10.914h4.76c2.025-.287 2.243.607 2.378 1.56 4.996-.944 6.269 1.44 9.518 1.559 7.927.283 16.505-4.153 19.028 1.558 4.736-2.095 11.326-2.972 16.656-4.677 9.275.107 16.743-.15 23.788 0 4.234.09 5.056 1.767 9.518 1.56 2.179-.104 3.601-1.76 7.137-1.56-.762-.044 1.589 1.43 2.379 1.56 1.492.245 3.244-.189 4.754 0 1.873 1.492 11.85-1.945 14.275 0 .113.086-.093 1.557 0 1.559 4.983.083 8.774-3.438 14.276 0 6.13-1.702 11.433-3.94 14.272-7.796 5.911.233 9.874-.808 11.897-3.119 8.976 1.909 15.818 5.225 28.545 4.678.266 2.946 7.868 1.081 7.137 4.677 5.93-1.312 12.748-2.04 21.41-1.56-2.05 5.502 3.829 1.431 9.517 1.56 3.313.075 4.735 1.862 7.138 1.56 6.911-.875 13.17-2.369 11.897-6.237 2.764-.255 4.232.344 4.758 1.56 4.299-1.362 2.881-2.033 9.512-3.119 1.348-.223 2.51-1.57 2.38-1.56 4.666-.378 9.072 3.731 9.516-3.118 2.315.042 1.846 1.909 2.38 3.119 2.764-.255 4.234.344 4.76 1.56 3.842.437 4.092-1.476 7.136-1.56 4.17-1.426 11.869-.536 14.272-3.12 3.536 1.842 10.632 1.35 9.516 6.238 16.372-.338 28.739 1.953 40.444 4.677.734-2.116 5.957-1.294 9.517-1.56.293-3.443 10.088-.662 14.27-1.558 1.874 1.493 11.851-1.943 14.276 0 2.411 1.932 1.79.605 7.14-1.56 1.573-.638 3.07-.854 4.757-1.558.48-.2 1.984.257 2.375 0 .223-.145-.26-1.5 0-1.56 3.661-.834 4.247 1.819 7.137 1.56 2.979-.268 4.062-2.507 7.138-3.119 5.93-1.18 12.394.923 19.035-1.56 2.22-1.142 3.601-2.835 4.753-4.677 7.473 4.117 16.497-.733 21.413-3.12 6.888.51 7.84.92 16.651 1.56 5.033.367 8.555 1.908 11.897 1.56 3.178-.33 3.704-2.912 7.137-3.12 3.123-1.199 18.383-7.098 19.03 0h9.517c-1.881 5.395 2.644 6.585 4.758 9.357 10.82-1.699 13.886-7.866 26.169-4.678 7.03-2.739 18.68-5.04 19.033 3.119 4.191.446 7.366-7.342 9.517-3.119 5.59-2.269 11.334 3.722 19.03 1.56 1.05-.296-.278-1.69 2.379-1.56 3.96.196 4.554.628 4.759 3.119 3.216-1.532 4.753-4.16 7.138-6.238 12.965-.702 19.545 2.781 33.304 1.56 3.56 2.343 4.254 6.566 9.515 7.797 3.425.872 5.805 2.432 7.137 4.677 5.9-.231 11.545-.292 11.896 3.118 2.581-.385 1.612-3.1 4.755-3.118h9.518c3.558-1.827 9.73-1.94 11.894-4.677 1.926.295 2.372 1.563 4.759 1.56 4.525 1.07 11.136 1.062 14.273 3.117 1.455.953-.304 1.147 2.379 1.559 3.615.555 9.19-1.07 9.514 1.56 4.747-2.088 10.315-3.636 11.897-7.796 1.956-.799 7.93 1.038 9.515 0 .163-.107-.174-1.538 0-1.56 1.466-.174 12.67 1.285 14.276 0 .105-.085-.091-1.56 0-1.56 1.584-.013 2.784 1.319 4.756 1.56 1.053.128 2.672.132 4.574.098V0H0z" mask="url(#prefix__b)"/>
    </g>
</svg>
