<svg id="Layer_1" data-name="Layer 1" xmlns="http://www.w3.org/2000/svg" width="140" height="50" viewBox="0 0 140 50"><defs><style>.cls-1{fill:#ffcdaf;}</style></defs><title>highlight-immersive-mostpopular</title><path class="cls-1" d="M2.06,4.59c.35-.2.89.13,1.48,0A2.86,2.86,0,0,1,4,4.53c.26,0,.81.3,1.26.15.17-.06.11,0,.35,0,.46.11,1.19-.06,1.76,0,.09,0,.24.11.35.13.88.08,1.83,0,2.75.06.17,0,.14.21.35.12,1.07-.08,2,.17,2.83,0,.12,0,.15-.1.28-.11s.07.15.14.12S14,5,14.1,5a1.12,1.12,0,0,0,.57.12s0-.19.07-.11.93.18,1.27.13c.13,0,.16-.11.29-.1s.26.28.35.11.1,0,.35,0,.61,0,.92,0,.16-.21.36-.11l4.83.05c.17,0,.15-.2.35-.1h1.07c.6-.29,1.6.07,2.2-.21,2.09,0,4.36.18,6.34-.07a3.77,3.77,0,0,0,1.56.11c.11,0,.24-.11.36-.11s.17.1.28.12a1.42,1.42,0,0,0,.79-.11c1.14.33,2.76-.09,3.91.23.17-.21.57-.07.86-.11.11-.16.41.09.71,0a2.58,2.58,0,0,1,.71-.34,3.13,3.13,0,0,1,.93.11c.83-.24,1.94,0,2.71-.35a7.2,7.2,0,0,0,1.14,0h1.28a.88.88,0,0,1,.57-.12c.14,0,.09.31.29.23s.07.26.21.23c.12-.21.24.09.5,0a4.08,4.08,0,0,1,.57-.34h.64c.21.29.34,0,.5.33.43,0,.74.19,1.22.11,0-.21.24-.08.28-.23s.09-.24.21-.23h.36c.14,0,.09-.31.28-.23s.27-.17.5-.12.43.15.36-.23c-.13,0-.19.2-.22,0-.39.18-1,0-1.35.24,0-.25-.25,0-.36-.11H51.23c-.16.16-.27-.29-.28,0H47c-.18,0-.16.2-.36.11a3.37,3.37,0,0,0-1.43.12A1,1,0,0,1,44.53,4,24.38,24.38,0,0,1,41,4.08c-1.29-.32-3,.09-4.34-.24-.17,0-.16.21-.36.11h-.92c-.07-.07-.13-.14-.15,0l-8,0c-.17-.05-.16.21-.36.11a4.24,4.24,0,0,0-1.49.1c-.72-.06-1.25.19-2,.09a4.65,4.65,0,0,0-.56-.34A5.44,5.44,0,0,0,21.2,4c-.22.06-.15-.35-.42-.23-.7.07-1.4-.11-2.06,0-.1,0-.24.1-.35.11a8.68,8.68,0,0,1-1.91,0c-.13,0-.21-.11-.35-.12s-.23.11-.36.11-.24-.12-.35-.12-.17.1-.28.11c-1.15.12-2.32-.14-3.61-.06-.17,0-.15-.21-.35-.12l-.71,0c-.16,0-.2-.19-.42-.11-.26-.09-.31.18-.56.1A1.72,1.72,0,0,0,8.42,3.4c-.21-.14-.41-.28-.63-.13,0-.14-.09-.23-.21-.23-1.8.07-3.23-.43-5-.36-.17,0-.14-.21-.34-.12C1.66,2.5,1,2.63.6,2.39c-.08.25-.41,0-.6.09V4.6A9.46,9.46,0,0,1,2.06,4.59Z"/><path class="cls-1" d="M131.71,37.25c0,.24-.48.19-.45,0s.29,0,.22-.13c-.33,0-.78.18-.91-.17a4.29,4.29,0,0,0,.5-.37c.15-.06.2.06.3.09a.38.38,0,0,1,.44-.26c.12-.11.37-.06.43-.26-.36-.15-.63.05-1,.19a.31.31,0,0,0-.31-.09,20.21,20.21,0,0,1-2,.45c-.23.07-.22-.38-.37-.09-.22.09-.23-.18-.45-.09l-.37,0c-.3.06-.78.44-1,.06.12,0,.29,0,.29-.13a11.18,11.18,0,0,0-1.38.3c-.67,0-1.27.18-1.77.1a.37.37,0,0,1-.36.14c-.11-.06-.38.15-.38-.1.32,0,.29-.44.57-.48.1,0,.21,0,.21-.13l-.58,0c-.14-.06-.43.16-.45-.09.1-.06,0-.1,0-.23.16-.4.77-.19.92-.62-.31-.1-.32,0-.66,0a.35.35,0,0,1-.36.13c-.12,0-.28.07-.3-.09.35,0,.55-.23.87-.28a1.05,1.05,0,0,1,.64-.49c0-.4.41-.27.4-.7-.12-.17-.4.18-.52-.2a2.89,2.89,0,0,1,.86-.27c.23.06.21-.21.43-.14s.39.11.36-.13c-.12,0-.14-.09-.15-.22a.56.56,0,0,1,.65,0c0-.29.23-.24.43-.25,0-.26.2-.35.34-.48,0-.33.31.1,0,0,.07.24.51.1.58,0s.06-.54.34-.47c.27-.1.33.17.59.08.06-.52-.49,0-.53-.31-.17.22-.29-.08-.5.14,0-.16-.07,0-.15,0-.21-.38-.76-.15-1-.51,0,.25-.17.25-.35.24s-.42.17-.45-.08c.12,0,.28,0,.29-.13a2.23,2.23,0,0,0-1.15.4c-.11-.17-.38-.07-.59-.08a1.5,1.5,0,0,1-.87.16c-.12,0-.33.13-.37-.09-.16.1-.27.26-.5.25-.2-.29-.34,0-.45-.31-.09,0,0-.17,0,0l.58,0c.07-.08.06-.26.21-.24s.41-.2.64-.26c1.54-.29,2.75-1,4.31-1.27.07-.08.06-.26.21-.24l.51,0c.07-.14.25-.15.43-.14s.13-.2.29,0c0,.27-.15.25-.27.36s-.17-.05-.22,0,0,.28-.06.23-.2-.07-.3-.1,0,.23-.13.24c0,.38.24.16.38.2l.51,0c.12-.1.06-.46.34-.36,0,.13-.14.09-.13.24.37.05.56-.14.87-.16.11-.05-.08-.2.05-.24s.22-.11.44,0c.05-.18.23-.18.35-.26.11.38,0-.31.22-.12s.27-.19.5-.16.42,0,.24.33h.15a.91.91,0,0,0,.12-.35c.13-.11-.08-.06-.09-.22.24-.09.53-.12.64-.39-.3,0-.39.23-.73.17-.08,0-.07-.2-.09-.34-.2.09-.32.19-.51.15s-.22-.36-.38-.2-.13.09-.36,0c-.07.13-.51.27-.58,0s.3-.14.42-.25.35,0,.35-.26c-.13,0-.16-.09-.08-.1.28-.17.17.36.45.19a13.36,13.36,0,0,1,1.72-.58c0-.22.21-.09.05-.34.16,0,.27-.05.27-.25a7.45,7.45,0,0,0-1.92.71c-.2-.25-.35.14-.58.15l-.87.06c-.18,0-.14.21-.36.13s-.56.18-.66-.07c.39,0,.54-.23.94-.17.19,0,0-.44.27-.36a2.81,2.81,0,0,0,.93-.29l.51,0a.29.29,0,0,1,.28-.14h.22c0-.1,0-.11-.08-.11-.24,0-.62.19-.67-.18,0-.13.14-.09.13-.24-.12,0-.27.08-.3-.09s.42-.12.65-.16a.5.5,0,0,1,.49-.26c.07-.21.37-.12.49-.26.27.06.3-.22.57-.16a.51.51,0,0,0,.42-.26c-.13,0-.2-.07-.24-.21.11,0,.21,0,.21-.13a2,2,0,0,0-.72.06c-.15.09-.48.48-.58,0,.12,0,.28,0,.28-.13-.23.09-.13-.23-.09-.34-.47.09-.86,0-1.16.09-.13,0-.16-.13-.3-.1s-.13.13-.14,0c-.17-.07-.55.25-.52-.19.22-.09.23.18.44.09.06-.27.52,0,.56-.27-.2-.26-.76.14-.88-.28.18.16.18-.4,0-.34-.09.24-.5.07-.63.27-.13-.22,0-.14,0-.45l-.5,0c-.08-.1-.05-.42-.24-.33a.31.31,0,0,1-.28.13c-.12-.21-.47,0-.59-.19l-.36,0c0-.26-.14-.16-.16-.33.17,0,.2-.21.42-.14,0-.25.12-.46.33-.47-.1.54.54.35.59.19-.13-.06-.41.16-.44-.09.32.05.27-.38.56-.37-.07.14,0,.23.08.22-.05-.47.23-.09.36-.13.05-.52-.49,0-.53-.31.22-.18.6-.14.93-.17s.8.14.84-.29c-.18,0-.35.05-.37-.2a1.55,1.55,0,0,0,1.05-.31,2.64,2.64,0,0,0,.92-.18c.08,0,.13,0,.14-.12l-.43,0c-.08-.15-.48-.37-.58-.07.11,0,.27-.07.29.09-.25-.07-.26.19-.49.15.07-.14,0-.23-.09-.22-.53.1-.88-.07-1.28.09.09-.45-.31,0-.3-.31.28.12.15-.35.33-.37s.27,0,.28-.13c-.21-.25-.49,0-.72,0l-.71,0c-.22,0-.55.16-.59-.19.07-.08.06-.27.2-.24s.09.25.23.21c.11-.32.18-.11.42-.14.11-.26.42-.24.62-.37s.63-.15.79,0c-.14-.5.47,0,.33-.48-1,.09-2.31-.29-3.22,0a1,1,0,0,1-.1-.45c.11-.06,0-.11-.08-.11s.1.62-.1.58-.17,0-.43,0a1.06,1.06,0,0,1,0-.56c-.14-.1-.22.35-.28,0,.21-.45.62,0,1-.28.11,0,.27-.07.29.1.6-.28,1.36,0,2,0,.61-.33,1.65-.05,2.25-.39.17-.06.17.2.36.09s.32-.1.49-.15.29-.12.41-.15.37.09.5,0,.18-.29.33-.37c.3.08.31-.24.54-.26s.2,0,.2-.13c-.33.17-.36-.25-.65-.18a1,1,0,0,0-.62.16l-.5,0c-.15,0-.4.09-.36-.08s.3.17.35-.14c-.21-.09-.65.28-.65-.18a1.16,1.16,0,0,0,.69-.17.53.53,0,0,0,.55-.26c-.64,0-.79.25-1.27.09-.22,0-.16.32-.33.36-.14-.37-.24,0-.5-.19,0,.56.52.12.66.41-1.27.43-2.93.32-4.29.63-.14,0-.15-.31-.37-.2-.23-.06-.32.09-.49.14,0-.25-.3,0-.43-.09-.16.16-.29-.28-.29,0-.21.1-.22-.18-.43-.08-.11-.06-.36.15-.36-.1.33-.08.74-.07.9-.39-.1,0-.2,0-.22-.1s-.26.06-.29-.1c.11,0,.26-.05.29.1a1.32,1.32,0,0,0,.56-.26c.22.23.71,0,.93.17,0-.27.44,0,.49-.25,0,.15.18.09.29.1.29-.22.79-.13,1.19-.19a1.36,1.36,0,0,1,.41-.26,1.25,1.25,0,0,0,.58.19c.29,0,.32-.21.56,0,0-.25.45,0,.48-.26-.31-.12-.39,0-.71.05s-.14-.07-.35,0a1.59,1.59,0,0,0-1-.15c-.05,0-.06,0-.06.11s.06.17,0,0l-1,.07c-.35,0-.47.21-.71-.07.45-.09,1.1.1,1.33-.31-1.12-.16-2.06.28-3.21,0,0-.13.14-.09.13-.24l-1.13.07a4.46,4.46,0,0,1-1,.05.35.35,0,0,0-.36-.09,7.45,7.45,0,0,1-2.06.12c-.23.14-.84.3-1-.07.1-.06.37.12.35-.13-.21.12-.73-.21-.7.26.12,0,.17-.2.21,0s-.39.06-.56.14c0-.22.21-.09,0-.34-.2,0-.47,0-.56.14,0-.25-.31,0-.43-.1s-.07,0-.15,0h-.21c-.09-.26-.51.08-.58-.2.24-.08.67.11.78-.15-.26-.16-.66-.07-1-.07-.21-.24-.49.17-.58-.2.84,0,1.52-.27,2.41-.22,0-.1.19-.08.2-.24.11,0,.28.05.28-.12.24,0,.51,0,.48-.36,0-.22-.23.14-.42,0,0,.25-.3.07-.42.14a.11.11,0,0,1-.22,0h.22c.08-.2.3-.19.4-.36.39-.05.63-.3,1-.39.27.09.56-.06.85,0a1.17,1.17,0,0,0,.71,0c.24.11.24,0,.5.08.14-.31.23,0,.41-.25.06.11.46.22.49,0-.11,0-.26.07-.29-.09a.88.88,0,0,0,.56-.15l.57,0c.15.06.45-.17.5.08a1,1,0,0,1,.62-.14c.17-.11.62.18.56-.26-.17,0-.28,0-.43,0s-.2.13-.34.13c0,0,0-.1-.08-.1s-.12.12-.21.12,0-.11-.07-.11c-.2,0-.38.14-.63.15s-.49-.14-.85-.06a.94.94,0,0,1-.5,0s0,.13-.06.12,0-.11-.08-.11-.1.13-.2.13-.06-.1-.08-.11-.33.23-.63.15c-.22.15-.07-.37-.29-.21a.46.46,0,0,1-.41.25c-.39-.11-.53.06-1,0a.69.69,0,0,0-.64,0c-.22.09-.16-.31-.37-.21a1.9,1.9,0,0,1-1.35.06l-.71,0-.35,0c-.12,0-.27.06-.29-.1s.5-.11.19-.35c0,.33-.23-.06-.35,0s0,.32-.06.35c-.25.05-.85.38-1-.07.3.14.25-.22.34-.36a.3.3,0,0,0,.22.11c.08,0,.06.22.15.22s.22-.19.27-.36c-.13-.2-.17.1-.42,0-.08,0-.06-.22-.16-.22s-.12,0-.14-.1a1.63,1.63,0,0,1,1,0c0-.37-.24-.15-.3-.33-.08.14-.24.14-.42.14s-.08-.26-.22-.22c-.35.09-.58-.12-.78,0-.11-.06-.19-.16-.3-.22,0,.25-.29.06-.41.14s-.14-.07-.36,0a.31.31,0,0,1-.28.13,14.85,14.85,0,0,0-2.85-.11c-.13.16-.4.12-.56.24a16.56,16.56,0,0,1-3.07,0c-.33,0-.42.17-.64,0l-.71,0c-.2.1-.19-.15-.36-.1a.34.34,0,0,1-.35.13,5.12,5.12,0,0,0-1.56.17c-.17.05-.17-.2-.36-.1s-.36.13-.3-.22l4.35-.16c.19-.1.19.16.36.1a16.4,16.4,0,0,1,3.12-.22,6.42,6.42,0,0,1,1.85-.19c.14,0,.08-.31.27-.24l.85,0c.13,0,.15-.15.28-.13h.43c.25,0,.09-.21-.08-.11l-.85,0c-.17,0-.14.21-.35.13l-.71,0c-.08.14-.11.05-.21,0,0,.14-.08.23-.2.23-.17-.25-.24.1-.5,0s-.74,0-1.15-.18h-.5c-.07-.24-.45.06-.5-.2.2,0,.49.08.49-.25-.12,0-.12.11-.21.12s-.16-.13-.29-.1c0-.16-.22,0-.22-.22a.88.88,0,0,1,.57.09c.06-.15.58-.23.36.1h.14c.21.09.22.09.43,0s.1.31.29.22c.28-.33.61.1,1,0,.19-.07.28-.29.48-.36a2.33,2.33,0,0,0,.92-.15c.21-.09.15.3.36.21,0-.13.07-.07.07,0,.68-.35,1.43,0,1.91-.2.19.17.54-.21.78.07,0-.21.23,0,.28-.12s0,0,.28,0c0-.16.09,0,.21,0a.3.3,0,0,1,.28-.13c1.06.24,2.42-.12,3.4,0a4.5,4.5,0,0,1,.83-.28c.29-.21.49.09.62-.26-.39,0-.91.18-1.19,0,0,.2-.11.26-.27.24-.29-.22-.55,0-.85,0s-.19-.15-.36-.1-.51.17-.57-.09c.23.06.07-.41.28-.12.21-.09.26.1.42.09s.13-.32.35-.24c0,.24.25,0,.36.09s.27,0,.27-.12c-.3.13-.25-.37-.51-.32-.11,0-.27,0-.28.13-.07,0,0-.22-.15-.22,0,.25-.3.06-.42.13l-.42,0c-.17.05-.16-.2-.36-.1s-.72.15-.92-.07c0,.34-.19-.14-.36,0,0-.16-.27,0-.29-.21a1.11,1.11,0,0,1,.64.08c.13-.2.09,0,.28,0s.38.11.35-.13c-.13,0-.42.17-.36-.21-.17,0-.2.2-.42.13a.28.28,0,0,0-.29-.1c-.39.06-.5-.1-.78,0l-.49,0c-.11-.06-.36.15-.36-.1a1,1,0,0,1-.63.14c-.17.06-.16-.2-.36-.09l-.92,0-.49,0c-.11-.06-.36.15-.36-.1,1.28,0,2.41-.3,3.74-.28,0-.41-.29-.15-.43-.21a7.84,7.84,0,0,0-1.27.17c-.17.06-.16-.2-.36-.09a4.4,4.4,0,0,1-2.4.1.33.33,0,0,1-.35.13c-.15-.14-.21.06-.43-.1s-.51.16-.57-.09c.13,0,.7,0,.49-.13l-.57,0c-.2,0,.18.3-.13.23-.2.1-.39-.08-.57-.09s-.07.11-.14.12-.07-.12-.15-.11-.14.12-.28.12c0,0,0-.11-.07-.11s-.44,0-.71,0-.35-.09-.5-.1a4.77,4.77,0,0,0-1.14,0,2.26,2.26,0,0,1-1.13,0c-.25.16-.26,0-.49.13s-.53-.13-.57.13c.24-.1.28.16.5.1s.25-.21.49-.13c.22-.09.22.18.43.09.21.09.18-.16.36-.12a.33.33,0,0,0,.35.1l2.63-.1a7.13,7.13,0,0,0,2.91,0c0,.31.33-.1.3.21l-.57,0c0,.13-.12.09-.21.12s-.2,0-.21.12c.37,0,.8-.11,1.07.06,0-.25.3-.06.42-.13a.33.33,0,0,0,.35-.13c0,.16.18.09.29.1s.13.09.21.11a2,2,0,0,1,.92-.16s0,.11.07.11.2,0,.22.11a5.8,5.8,0,0,0-1.76.19c-.18-.11-.15,0-.43-.09L111.78,8a5.42,5.42,0,0,0-1.78.18c-.18-.21-.57,0-.85-.08l-.43,0c-.11-.06-.36.14-.36-.1l2.06-.08c.16-.09.56.18.49-.24a.66.66,0,0,1-.5,0c-.16,0-.26.19-.49.13-.5-.1-1-.3-1.42.06a1.77,1.77,0,0,0-.51-.21c.05.31-.39-.08-.34.24.3.18.48-.13.65.2l-.64,0c-.11-.23-.16,0-.29,0s-.07,0-.07-.12c-.07-.3.33.07.27-.23-2.77-.11-5.32.11-8-.19l-.78,0c-.17.06-.16-.2-.36-.1l-1.85.06c-.17,0-.16-.21-.36-.11l-.93,0c-.26-.06-.72.21-.79-.2.52-.17,1.12.17,1.72.06a3.38,3.38,0,0,1,.42-.13c.12,0,.31.09.43.1a5.65,5.65,0,0,0,1.64,0c.12,0,.15-.12.28-.12s.23.08.36.1a3.61,3.61,0,0,0,1,0c.13,0,.15-.11.29-.12s.17.1.28.1.08-.1.14-.12.3.15.5,0c.26.17.32-.07.57.1.33-.25,1-.1,1.35-.16.07,0,.05-.11.07-.11s.09.16.28,0c.36.07.38,0,.79,0l1.7-.07c.37,0,.42-.13.71,0a.27.27,0,0,1,.21-.12c.21.13.42-.09.78,0,.36.21,1,0,1.35.18.37-.18.64.1,1-.15,0,.12.15.07.15.22s.12-.12.21-.12.33.32.42-.13c-.42-.1-1.06-.06-1.57-.17-.68-.15-1.62-.08-2.42-.25-.13,0-.12.32-.35.24s-.5.09-.78-.2c0,.25-.3.06-.43.13-.18-.21-.57,0-.85-.08-.07.07-.07.26-.21.23a4.4,4.4,0,0,1-1.28-.18c-.1.05,0,.1,0,.23-.12,0-.12.11-.21.12-.13-.28-.5,0-.64,0,0-.25-.36,0-.51-.09a1.25,1.25,0,0,0-.43-.22,10.22,10.22,0,0,0-1.35.16A1.87,1.87,0,0,0,99,6.74a8.26,8.26,0,0,0-.86-.2c-.44.32-1.16.23-1.63.5-.37-.31-1.06-.1-1.44-.41-.09.22-.34.22-.48.36a.32.32,0,0,1-.36-.11c-.11.14-.17.33-.35.35-.2-.32-.28-.09-.5,0-.07-.07-.08-.26-.22-.22s-.6-.06-1,0L91,7.08c-.17,0-.16-.21-.36-.11s-1-.08-1.27.37c0-.5-.2.06-.29-.22-.19,0-.41,0-.51-.1,0,.25-.16.41-.42.35s-.42-.3-.72-.32c-.59.34-1.06-.18-1.49.26,0-.2-.13-.26-.29-.22s0,.51-.21.34c-.32.15-.28-.3-.57-.21s-.48,0-.79-.09A6.36,6.36,0,0,1,83,7.26a3.38,3.38,0,0,0-1.57-.08c-.13-.06-.3,0-.36-.22s-.13.09-.14.23h-.21a9.57,9.57,0,0,0-2.29-.07c-.38-.31-.69,0-1.08-.32-.2-.09-.18.16-.35.12s-.18-.09-.29-.11a6.2,6.2,0,0,1-1.07,0c-.15,0-.19.08-.28.12-.22-.23-.68,0-1-.1s-.16-.2-.36-.1a12.06,12.06,0,0,1-2.58-.19,11.88,11.88,0,0,1-2.36-.19c0,.25-.37,0-.42.23a.29.29,0,0,0-.29-.11c-.14.25-.23-.1-.35.11-.15-.15-.41-.1-.58-.21-.27.3-.48.05-.71.34-.07-.19-.13-.39-.36-.33-.4.14-.57,0-.93.12a.29.29,0,0,0-.21-.11s-.07.17-.07,0c-.17,0-.16-.21-.36-.11a1.37,1.37,0,0,0-.43.23c0-.25-.3,0-.43-.11h-.5c-.29-.12-.39,0-.78,0,0-.22.21-.49-.08-.46-.06,0-.07,0-.07-.11-.31-.15-.15.44-.42.35s-.31-.2-.58-.11c0,.45.4.13.58.22s.46-.35.43.11c0,.17-.1,0-.22,0a.28.28,0,0,1-.21.12,3.1,3.1,0,0,0-1.93.35,1.33,1.33,0,0,0-.71.12,3.69,3.69,0,0,0-1.5-.1c-.07,0-.05.11-.07.12s-.07-.12-.07-.12-.11.11-.22.12a3,3,0,0,1-.85,0c-.07,0,0-.1-.07-.11s-.06.12-.08.12A4.37,4.37,0,0,1,55.1,7c-.22.14-.31-.06-.57.12A.28.28,0,0,0,54.25,7H53.18A.11.11,0,0,0,53,7c-.12-.06-.42.14-.43-.11-.22,0-.16.35-.42.23,0-.12.14-.08.14-.23-.34-.11-.43.15-.64.23h-1c0-.09.07-.11.07-.23s-.13,0-.15-.11c-.49,0-1.11.11-1.5-.11,0,.25-.25.06-.35.12h-.43c0,.29-.12-.16-.29,0h-.35a.3.3,0,0,0-.29-.11,2.15,2.15,0,0,0-.93.11c-.21-.1-.22-.1-.43,0a1.13,1.13,0,0,0-.42-.22,2.14,2.14,0,0,0-1.07.22,20.48,20.48,0,0,1-2.86.13c.08-.14.06-.24-.07-.23s-.17.12-.21-.11c-.06.07-.2.17-.22,0-.3.06-.47-.08-.71-.11-1,.31-1.8-.11-2.64.1-.17.05-.15-.2-.35-.11-.56.18-1.42-.31-2.07,0-.35-.08-.6-.17-.86.11,0-.2-.12-.26-.28-.22s-.56,0-.86,0a1.1,1.1,0,0,1-.57,0c-.22-.05-.47.11-.71.11-.05,0-.49-.26-.57-.11s0,0-.14,0-.23.12-.36.12-.17-.1-.28-.12c-1.25-.15-2.57.1-4.06,0a12.06,12.06,0,0,1-2.49.09c-.17,0-.16.21-.36.11-1.13,0-2.1,0-3,0-.11,0-.13-.12-.22-.11s-.07.1-.14.11-.07-.13-.14-.12,0,.11-.07.12-.16-.13-.36-.12-.15.12-.28.11-.17-.1-.28-.12a2.13,2.13,0,0,0-1.07.1,22.56,22.56,0,0,0-3.54-.18c-.17,0-.13-.39-.35-.34a14.63,14.63,0,0,1-3.54-.06c-.14,0-.08-.31-.28-.24-1.8-.07-3.29-.5-5.06-.24a13.51,13.51,0,0,0-2.67-.18A7.27,7.27,0,0,0,.86,5c-.17,0-.2-.2-.41-.13A3.5,3.5,0,0,0,0,5V44.07H.45a.32.32,0,0,0,.29.12l.52,0a1,1,0,0,0,.59.13c.13,0,.36.32.44,0-.13-.11-.37,0-.44-.24l3.09.42.81,0c.09.16.32.12.51.13,0,.32.41-.08.37.24-.16.06-.48-.16-.52.1.11,0,.28-.05.29.12l1.11,0c.07.07.07.26.21.23.47,0,.59-.08,1,0,.18.06.17-.2.37-.1s.16.21.37.12c.12-.4-.25-.07-.22-.34.13.06.44-.13.44.12a.06.06,0,0,1,0,.11c.12.37.2-.29.44-.11s.22.11.44,0c.45.28.75.09,1.32.14.18,0,.15.21.36.12h1c.17.15.13,0,.36.12s.68-.12.81,0c.07-.41-.29-.16-.44-.24s-.2-.28-.28-.45a6.13,6.13,0,0,0,1.75.14c0,.15-.13.18-.15.34.26.16.48-.31.59,0-.05.15-.29,0-.3.22a2.76,2.76,0,0,1,1.1.13c.1-.32-.39-.29-.14-.45.82.34,1.49.09,2.56.15,0,.37-.44.08-.37.56.17-.06.53.15.58-.11-.11,0-.28.06-.29-.11.19-.3.63.07.74-.11s-.46.09-.44-.23c.46-.14,1.05.46,1.32-.1-1.38.05-2.51-.28-3.88-.28-.81-.33-2-.13-3-.39l-1,0c-.18-.09-.28-.31-.51-.35a6.77,6.77,0,0,0-1.39-.13c-.13,0-.15-.14-.29-.12a1.44,1.44,0,0,1-.8-.13c-.2-.07-.59.13-.66-.12,1.39.15,2.56,0,3.88.18,0,.19.35,0,.36.23a6.86,6.86,0,0,1,.81-.21,2.89,2.89,0,0,1,.51.35c.08-.29.56.05.66-.22,0,.13.13.1.22.12s.09.09.14.11.26-.12.45-.1a.31.31,0,0,1,.28.23c.23.09.15-.31.37-.22.13.39.44,0,.81.13a2.64,2.64,0,0,0,1.39.13c.22-.08.13.32.36.23,0-.24.26,0,.37-.11s.43-.13.43.12h.15c0-.13.1-.07,0,0a.48.48,0,0,0,0,.12c.28-.07,1-.13,1.31-.22.37.34,1.28-.15,1.53.36,0-.25.11-.22.22-.23s.61.25.88,0c.14.05.13.33.36.23.64-.06,1.31.12,1.75,0a.35.35,0,0,0,.3.12c.11,0,.27,0,.29-.11-.1,0-.21,0-.22-.12.4-.13.4.36.8.23.24.15.06-.36.3-.22.12,0,.13.09.14.23.23.1.1-.37.29-.34.22.32.4.06.81.12.07,0,.05.14.07.23.23.14.06-.37.29-.23s.28.24.51.23.6-.32.87-.11c0-.14.11-.07,0,0s.45,0,.73,0c.07,0,.05.11.08.12s.42-.23.65-.11.06.35.29.22.28.06.29-.11c0,0-.08,0-.07-.11s-.27,0-.29-.12c.11,0,.27,0,.29.12s.09,0,.07.11.08.12.15.12c.07-.2.23-.25.44-.23s.3.16.51,0c0,.28.24,0,.29,0a.49.49,0,0,0,.22.23c.12-.44.4.08.65-.22,0,.15.18.09.29.11s.1.23.22.23c.15-.18.49-.08.66-.23.33.38.75-.05,1.16.23,0-.13.14-.09.22-.11,0-.19.06-.21.15-.22.3-.1.34.22.58.23.12-.19.43-.09.66-.12s.24.3.43.35.05-.32.15-.34c0,.16,0,.32.07.34,0-.17,0-.33.07-.35a.32.32,0,0,0,.3.12c-.09.14-.07.23.07.22s0-.22.14-.22v.22c.17.07.11-.21.22-.22,0,.19.06.21.15.22.26.08.28-.24.51-.22.07.07.07.26.22.22,0-.19,0-.21.14-.22.32.2.76-.17,1.24.11,0-.25.26-.06.36-.12.36,0,.36.11.66,0,.07,0,0,.14.07.23.4-.23.77.09,1.16-.23,0,.25.31.05.44.11h.44c.15.13.28-.07.43.22,0-.24.26,0,.37-.11s.22-.18.36-.23.08.26.22.23.07-.11.14-.11c0-.24.32,0,.37-.23,0,.24.26,0,.36.11h.44c.29-.15.28,0,.65,0s.26-.07.44,0,.48-.1.73-.12c.05,0,.12.11.22.12s0-.11.07-.12.12.15.22.11.09-.11.07-.11.12.11.22.11c1,0,2.1,0,3.34,0,.18,0,.16-.21.37-.12.44,0,1,.08,1.3-.12a11,11,0,0,0,1.6.1c.06.22.41,0,.44.22.27-.23.49,0,.8,0a7.76,7.76,0,0,1,2.33-.13c.07-.19.31-.13.43-.24.32,0,.68-.06,1,0,.13,0,.16.11.29.11s.18-.11.29-.12.08.14.15.12,0-.13.07-.12.16.11.29.11a4.43,4.43,0,0,0,1.09,0c.13,0,.16-.12.29-.12s0,.11.08.11a7.59,7.59,0,0,1,2,.09,1.22,1.22,0,0,1,.87-.12c.13,0,.16.1.29.11s.07-.13.15-.12.25.29.29,0c-.06,0-.14,0-.15-.11s.15,0,.15.11a3.67,3.67,0,0,0,1.82.2c0,.13-.14.08-.14.23.58-.08,1.29.09,1.67,0a.11.11,0,0,1,.22,0c.13,0,.15.14.29.11h1c.13,0,.14-.11.07-.12s-.58.16-.66-.1l1,0c.11,0,0,.1,0,.23.24.14.05-.37.29-.23.54.28,1.49-.08,2,.19.22.08.21-.2.44-.12s.15.36.37.33.26-.12.43-.12c.54.29,1.49-.08,2,.19.22-.08.14-.08.37,0,.07-.07.07-.26.21-.23s.19.32.44.22c.25.09.28-.17.51-.12.36-.11.49,0,.94,0,.17,0,.22.19.44.11s.26-.21.51-.13a1.62,1.62,0,0,0,1,0c.22-.08.22.19.44.11s.34,0,.73,0l.87,0c.25.12.25,0,.51.1.13-.1.18-.32.43-.24,0,.13-.14.09-.14.24,1,0,1.71-.14,2.55-.06.08-.08.07-.27.22-.24s.24-.12.36-.12,0,.11.07.11a3.33,3.33,0,0,0,.58-.12c1.19-.21,2.73-.06,4-.33.23-.08.22.19.45.1l1.38,0c.18.07.53-.15.59.1.16-.05.39-.27.44.1-.1,0-.21,0-.22.12l.66,0c.11,0-.07-.2.07-.23s.25.29.51.21-.18-.3.15-.23.35-.12.65,0c.13,0,.15-.14.29-.12s.3,0,.51,0l1.75-.05c0,.17.09,0,.22,0s.28-.07.3.1c-.11,0-.21,0-.22.12.62,0,.93-.18,1.39.07.13-.1.21-.28.35-.35.28.33.45.1.82.2.17,0,.15-.21.36-.12,1.14.06,2-.36,3.07-.34.17,0,.15-.21.36-.13a55.24,55.24,0,0,0,8.61-1.25c.21,0-.16.32.16.22a.57.57,0,0,1,.66,0c0-.19,0-.21.14-.23s-.16.32.16.22a13.55,13.55,0,0,1,3-.48c.17,0,.2-.2.43-.13s.38-.15.37.09c-1,.28-2,.63-3.13.83-.53-.08-1,.22-1.39.06a.32.32,0,0,1-.29.24,23.52,23.52,0,0,0-3.66.5,10.36,10.36,0,0,0-2.63.32,11.17,11.17,0,0,1-1.54.06c-.13,0-.15.15-.29.13-.18-.31-.4.21-.59-.1,0,.14-.13.1-.21.13s-.09.23-.21.23-.23-.35-.52-.21a10.82,10.82,0,0,1-2.18.65c0-.23,0-.35-.16-.33-.81,0-1.61.22-2.55.19,0,0,0-.11-.08-.11s-.11.13-.22.12-.16-.11-.29-.11a4.35,4.35,0,0,0-.51,0c-.12,0-.29-.11-.36.12.47.09.81,0,1.32.19.28.08.34-.15.58-.13l1.24,0c.12-.21.19.09.44,0,.1-.19.29-.1.37.1l-.52,0c.08.36.07.23,0,.45.43-.17,1-.09,1.46-.28a15.21,15.21,0,0,0,2.84-.33c.13,0,.38.31.44,0-.13,0-.15-.1-.07-.11l.88,0c.17,0,.15-.21.36-.13l.88,0c.72-.28,1.83,0,2.47-.43,1.06,0,1.45-.24,2.5-.22.18,0,.15-.22.37-.13l.66,0c.18,0,.15-.22.36-.13l1.77-.08c.17-.05.29-.24.44,0,.1-.29.51-.07.66,0,.11-.18.32-.2.51-.25s.34-.16.5-.25c.28.07.35-.16.59-.14a.5.5,0,0,0,.43-.25c-.13,0-.16-.1-.08-.11a1.12,1.12,0,0,1,.66-.14.49.49,0,0,1,.43-.26c0-.14.08-.23.21-.24s0-.22.14-.23A7.61,7.61,0,0,0,125.9,42V41.8a6.26,6.26,0,0,0-1.55.31,1.14,1.14,0,0,0-.66.15.36.36,0,0,0-.38-.09,7.68,7.68,0,0,1-2.27.33c-.31.21-.85.09-1.17.28s-.81-.08-1,.16a.34.34,0,0,0-.3-.1c-.05.08-.19.19-.22,0,.45-.22,1-.26,1.45-.52.35,0,.73,0,.79-.37-.23-.06-.62.17-.74-.08.23,0,.35-.16.51-.25.32-.1.36,0,.58-.14.14.14.72.22.73-.15-.11-.06-.38.15-.38-.1a10.5,10.5,0,0,0,1.31-.39l.51,0a3.28,3.28,0,0,1,1.18-.18,5.06,5.06,0,0,1,1.55-.2c.09-.23.52,0,.5-.37-.36,0-.49.22-.75-.07-.13.22-.18,0-.37,0s-.23.35-.29,0a.9.9,0,0,1,.79-.39c.17-.22.62-.07.8-.27a17.18,17.18,0,0,0,3.35-1l.59,0a4.18,4.18,0,0,1,1.4-.43c0-.14.13-.11.22-.13s.13-.11.21-.13c-.08-.36-.08-.23.05-.46Zm-5-5.26c0,.06,0,.15-.06.12S126.71,32,126.73,32Zm-.79.28c.2-.43.27.33,0,0Zm0,.45c0,.13-.07.07-.07,0S125.89,32.66,125.89,32.72Zm-.15-.1c-.1.16-.29.43-.42.25C125.42,32.7,125.61,32.43,125.74,32.62Zm-.65.15s0,.15-.07.12S125.07,32.74,125.09,32.77ZM124,34.19c0,.11-.08.09-.14.12S123.94,34.22,124,34.19Zm-.08-.22c0,.11-.09.09-.14.12S123.85,34,123.91,34Zm6-5.67c0,.38-.41.2-.64.26C129.23,28.19,129.64,28.36,129.87,28.3Zm.66-4.36c0,.11-.08.1-.13.13S130.48,24,130.53,23.94Zm.31,2.48c-.13,0-.16-.13-.3-.09C130.51,26.13,130.94,26.09,130.84,26.42Zm-.27.24s0-.11,0-.11a.51.51,0,0,1,.51.08c.13.29-.44,0-.36,0-.12,0-.24.25-.43.15C130.25,26.59,130.51,26.76,130.57,26.66Zm-.87-3.23c0,.11-.08.1-.13.12S129.65,23.46,129.7,23.43Zm.31.32a.32.32,0,0,1,.28-.13c0,.47-.49.16-.7.27C129.36,23.73,129.89,23.78,130,23.75Zm-.39-3.83c0,.06,0,.15-.06.12S129.6,19.89,129.62,19.92Zm-2.48-3.15c0,.14-.13.11-.21.13S127.05,16.8,127.14,16.77Zm-.5,1.28h.14C126.82,18.36,126.25,18,126.64,18.05Zm-.14-1.24c0,.11-.08.09-.14.12S126.44,16.84,126.5,16.81Zm-.64,0s0,.14-.07.11S125.84,16.82,125.86,16.85Zm1.89-1.7c0,.16-.21,0-.2.24-.18-.08-.6.25-.58-.19C127.29,15.33,127.37,15.14,127.75,15.15Zm-8.37-6.69c0,.06,0,.15-.07.12S119.36,8.43,119.38,8.46Zm-1.14-.18c.26.18.34,0,.57.09-.09.27-.49.07-.7.15C118.12,8.39,118.24,8.43,118.24,8.28Zm-1-.75c0,.06,0,.15-.06.12S117.26,7.5,117.28,7.53Zm-1.23.85c.18,0,.4-.06.5.1,0-.13.13-.09.13-.24a3.75,3.75,0,0,0,1.34,0c0,.38-.25.18-.41.14s-.24.12-.35.12,0-.1-.08-.1a.74.74,0,0,0-.21,0c-.24,0-.51.26-.85,0h-.28C115.84,8.37,116,8.41,116.05,8.38Zm-.79-.07c.11,0,.13.1.22.1C115.52,8.63,115.17,8.59,115.26,8.31Zm-.06.11c0,.06,0,.15-.07.12S115.18,8.39,115.2,8.42Zm-.86-.07v.23h-.14V8.35Zm-.21,0c0,.05,0,.15-.06.11S114.11,8.33,114.13,8.36Zm-.56,0c0,.06,0,.15-.07.12S113.55,8.35,113.57,8.38Zm-.64,0c0,.06-.05.15-.07.12S112.91,8.38,112.93,8.41Zm-.5,0c0,.11-.08.09-.13.12S112.38,8.46,112.43,8.43Zm-.21,0c0,.06,0,.15-.07.12S112.2,8.41,112.22,8.44Zm-.5,0c0,.06,0,.15-.06.11S111.7,8.43,111.72,8.46Zm-1.84.18c0,.11-.08.09-.14.12S109.82,8.67,109.88,8.64Zm-2.51,1.56h.36c.06,0,.07,0,.07-.11.2.24.35-.19.5.09s-.37.22-.42.13l-.43,0h-.36C107.11,10.17,107.27,10.23,107.37,10.2Zm-.52-.77c0,.13-.13.1-.21.12C106.64,9.42,106.76,9.45,106.85,9.43Zm-2-3c0,.06,0,.15-.06.12S104.87,6.41,104.89,6.44Zm-1.49.06c0,.06,0,.14-.06.11S103.38,6.47,103.4,6.5ZM1.34,44.1c0-.1.09-.08.15-.1S1.39,44.08,1.34,44.1Zm5.51.83c0-.11.09-.08.15-.11h.15C7.12,45,7,44.92,6.85,44.93Zm.81.14c0-.11.09-.09.15-.11S7.72,45,7.66,45.07Zm.58.13c0-.11.1-.09.16-.11S8.3,45.17,8.24,45.2Zm4.56,0c.18.1.63-.21.58.24a3,3,0,0,0-.88-.13C12.53,45,12.7,45,12.8,45.17Zm-1-.13c-.11.34-.32-.1-.51,0C11.45,44.69,11.65,45.13,11.84,45Zm-.94-.24c0,.06-.06.14-.08.11S10.88,44.76,10.9,44.8Zm-2.36.4c0-.11.09-.08.15-.1S8.6,45.18,8.54,45.2Zm.22,0c0-.13.14-.09.22-.11S8.85,45.2,8.76,45.21Zm19.69-.41c0-.06.05-.14.07-.11S28.47,44.83,28.45,44.8Zm.58.12c0-.06,0-.15.07-.11S29.05,45,29,44.92Zm1.24,0h-.22c0-.11.09-.08.15-.11h.22C30.41,44.92,30.33,44.9,30.27,44.92Zm2.62.24c0-.06,0-.15.07-.11S32.91,45.19,32.89,45.16ZM42.33,9.28c0,.06,0,.15-.07.12S42.31,9.25,42.33,9.28Zm0,35.9c.22-.42.25.34,0,0Zm1.75.11c0-.11.09-.09.15-.12S44.09,45.26,44,45.29Zm18-35.66c-.12,0-.19.08-.21.23s-.28-.06-.29.11c-.07-.07-.07-.26-.21-.22s-.18.09-.29.11c0-.35-.3.52-.29-.11a.77.77,0,0,1-.64.23c-.33.1-.07-.17-.21-.22s-.32.33-.57.34c0-.24-.26,0-.36-.11s-.12-.2-.22-.22-.22.45-.28.11-.13.07-.36,0a3.21,3.21,0,0,0-1.79,0c-.26.07-.38-.07-.5-.22,0,.24-.44.1-.5,0-.4.19-.65-.06-1.07.12a14.86,14.86,0,0,0-2.72-.21,3.12,3.12,0,0,0-1.79,0c-.57-.14-1.33-.09-1.93-.23-.15,0-.19.08-.29.12s-.2,0-.21.11c-.22,0-.43-.42-.64-.11-.21,0-.22-.26-.43-.23s-.42.14-.43-.11c-.14.05-.18.24-.36.23,0-.25-.25-.05-.36-.11-.2.09-.18-.16-.35-.12-.48.14-1.28.11-1.72.23-.33,0-.34-.12-.64,0,.17-.45.87-.06,1.14-.34h.64c.21.09.19-.16.36-.11h1.15c.16-.1.31,0,.57-.12.06,0,.07-.11.14-.11s.34.1.5.11c.59,0,1.21-.05,1.86,0,.13,0,.24.09.35.11.77.12,1.59-.18,2.22.1a4.3,4.3,0,0,1,1.5.1c.22.08.21-.2.43-.11a9.82,9.82,0,0,0,1.22,0c.15.13.46,0,.5.33.18.15.29-.33.36,0,.08.13.25.13.43.11s.34-.13.49-.23c.22.15.26-.06.58,0a4.57,4.57,0,0,0,1.36.1c.2-.1.18.16.35.11s.37-.14.36.11c.18,0,.16-.21.36-.12s.27.06.28-.11c.09,0,.15.14.15.34.19.07.14-.24.21-.34a1.92,1.92,0,0,0,.65.22c.25-.09.26,0,.57-.12h1c.27.22.35-.28.64,0C62.74,9.79,62.31,9.56,62.06,9.63Zm1,0c0-.25.14-.16.14-.34.08,0,.06.21.07.34ZM94.31,7.33v.23h-.15V7.34Zm-1.07.15s0,.14-.06.11S93.22,7.45,93.24,7.48Zm-7.41.28c.49-.06.78.19,1.28.09a7.89,7.89,0,0,1,1.71-.16c.22,0,.42.22.72.1s.08,0,.36,0a.79.79,0,0,0,.43,0s.16-.19.21-.12c.14.26.58,0,.92,0s.29.31.58.22l.5,0h.36s0-.19.07-.12.26.14.5.1.2,0,.21-.12c.26.26.45-.06.71.09s.36-.07.65.1c.56,0,1-.12,1.42,0s.53.21.86.2c0,.24-.25.06-.35.12a4.2,4.2,0,0,1-1.14-.08c-.4.1-.86,0-1.43.05a20.93,20.93,0,0,0-3,0l-.85,0h-.43c-.11,0-.27.06-.29-.11-.4.23-.93-.19-1.28,0,0-.24-.26,0-.36-.1h-.36c-.71-.09-1.72.24-2.29-.06a.4.4,0,0,0,0-.11C85.71,7.92,85.8,7.47,85.83,7.76Zm11.1,1.65h-.49c-.21,0-.22.27-.43.24-.09-.75.35-.22.49-.46.11,0,.13.1.22.1H97C97.11,9.35,97,9.41,96.93,9.41Zm-1.07-.08c0,.16-.06,0-.14,0C95.73,9.19,95.86,9.21,95.86,9.33Zm-.64,0c-.06.21-.21.26-.42.25V9.13C95.07,9,95,9.37,95.22,9.34Zm-.57.14c-.26,0-.62.11-.78-.09,0-.17.21-.05.2-.24C94.2,9.37,94.66,9,94.65,9.48Zm-2.1-1.31c0,.11-.09.09-.14.12H92.2c0-.11.08-.09.13-.12Zm-.71.25c0,.15-.64.29-.57-.1C91.47,8.33,91.73,8.24,91.84,8.42ZM90,8.57h-.22V8.35C89.91,8.31,90,8.37,90,8.57Zm-.5-.1c-.07.07-.13.14-.15,0S89.48,8.36,89.49,8.47Zm-.29-.1c0,.1-.09.09-.14.11S89.14,8.39,89.2,8.37Zm-1.79,0c0,.19-.32.13-.49.12s-.49.14-.44-.21c.18.11.18,0,.36,0s.11.1.15.11S87.28,8.14,87.41,8.41Zm-2-.52c0,.14-.14.12-.14,0S85.32,7.9,85.4,7.89ZM85,8.24c0,.06,0,.14-.07.11S85,8.21,85,8.24Zm-.22-.45c0,.06-.05.15-.07.11S84.74,7.76,84.76,7.79Zm-.15-.11c0,.14-.08.24-.21.23C84.36,7.67,84.5,7.69,84.61,7.68Zm-.49.13c-.06.19-.25.29-.36.12-.09.13-.11,0-.21,0-.27,0-.2.13-.43,0s-.14.19-.29,0C83.16,7.48,83.76,7.83,84.12,7.81Zm-.28.46c0,.1-.09.08-.14.11S83.79,8.29,83.84,8.27Zm-.43.12h-.5c-.19,0-.14.19-.28,0h-1c-.18,0-.34,0-.43-.1,0,.28-.24,0-.29,0s.09-.09.14-.11c.29,0,.69-.12.86.09s.18-.16.36-.12.16.21.36.11h.78A.06.06,0,0,1,83.41,8.39Zm-.72-.55c-.12.38-.54,0-.93.13h-.57c-.13-.05-.43.16-.36-.22C81.57,7.79,82.06,7.58,82.69,7.84Zm-1.85.37c0,.25-.35,0-.5.12s-.26-.11-.43-.1C80.15,7.88,80.52,8.3,80.84,8.21Zm-.65-.44c0,.2-.4.21-.29-.11C80,7.64,80.05,7.8,80.19,7.77Zm-.41,1.14c.25.19.63-.18.93.1,0,.25-.35.05-.5.12S79.72,9.32,79.78,8.91Zm-.37-.79h.36c0,.24-.26.05-.36.12h-.36C79,8,79.31,8.19,79.41,8.12Zm-.86,0h.22c0,.11-.09.09-.15.12h-.21C78.41,8.14,78.5,8.16,78.55,8.14Zm-.44-.45c0,.06,0,.15-.06.12S78.09,7.66,78.11,7.69Zm-.48,1.14h.43l.79,0c0,.49-.35-.09-.5.24-.17.06-.12-.21-.36-.11,0,0-.08.12-.07.11s-.12-.11-.21-.1-.26.1-.43,0C77.26,8.71,77.53,8.9,77.63,8.83ZM77,7.71c.13.07.42-.14.43.11H77c-.16,0-.21-.19-.43-.11C76.57,7.47,76.92,7.62,77,7.71ZM76,7.5c0,.11-.09.09-.14.12S75.91,7.53,76,7.5Zm-.36,0c0,.13-.13.1-.21.12C75.41,7.49,75.53,7.53,75.61,7.51Zm-.19,1.14s0,.14-.07.11S75.4,8.62,75.42,8.65Zm-.31-1.13c-.16.37-.29-.39,0,0Zm-1.21.36c.3-.11,0,.34,0,0C73.82,7.89,73.86,7.72,73.9,7.88Zm-.14-.11c0,.11-.09.09-.14.12S73.7,7.8,73.76,7.77ZM73,7.33c.17,0,.34,0,.43.11s-.32.07-.36,0a.6.6,0,0,1-.57,0C72.49,7.2,72.82,7.4,73,7.33Zm-.34,1.25c0,.11-.09.09-.14.12S72.57,8.61,72.63,8.58Zm-.36,0c0,.06,0,.14-.07.11S72.25,8.56,72.27,8.59Zm-1.51-1c.07.34-.16.2-.29.23C70.49,7.62,70.59,7.56,70.76,7.59Zm-.22-.22s-.05.14-.07.11S70.52,7.34,70.54,7.37Zm-.43-.22c.08.14,0,.17,0,.34-.08,0,0-.23-.15-.23S70.05,7.17,70.11,7.15ZM69.75,7c0,.23,0,.3-.07.45-.15-.06-.15-.17-.07-.34h-.29C69.1,7,69.63,7.05,69.75,7Zm-1,.24c0,.11-.09.08-.14.11S68.69,7.3,68.75,7.28Zm-.29-.23c-.16.37-.29-.39,0,0Zm-.15-.33C68.37,7,68,6.64,68,7a.32.32,0,0,0-.29-.12C67.79,6.58,68.14,6.79,68.31,6.72Zm-.56.46c.15,0,.19.07.29.11s.54.13.14.11h-.57C67.62,7.28,67.75,7.32,67.75,7.18ZM68,8.65h-.21V8.42C67.91,8.38,68,8.44,68,8.65Zm-.52-1.36c0,.06,0,.15-.07.12S67.44,7.26,67.46,7.29Zm-.21.12c-.18,0-.31,0-.29-.34C67.1,7.12,67.27,7.11,67.25,7.41ZM65.77,9.24c0,.18-.46.23-.36-.11C65.59,9.08,65.57,9.33,65.77,9.24Zm-1.21-.1c-.11.21-.32.6-.5.35A.6.6,0,0,1,64.56,9.14Zm-1,.24c0-.18.07,0,.07.11S63.48,9.39,63.56,9.38Zm-.14.68c-.08-.35.11-.28.14-.45C63.74,9.68,63.6,10.18,63.42,10.06Zm3.44.18c0-.05,0-.14.07-.11S66.88,10.27,66.86,10.24Zm.29.57c0-.11.09-.09.14-.12S67.21,10.78,67.15,10.81Zm.93-.13c0-.25.3,0,.43-.12s.43-.16.36.22C68.56,10.62,68.39,10.89,68.08,10.68Zm.86.1c0-.11.09-.09.14-.11S69,10.76,68.94,10.78Zm.73.67h-.36c-.15,0-.23,0-.22-.22s.19.07.29.11h.43C69.94,11.43,69.77,11.46,69.67,11.45Zm-.51-.67c0-.13.12-.1.21-.11S69.24,10.76,69.16,10.78Zm.79.67c0-.06,0-.15.07-.11S70,11.48,70,11.45Zm.5.11h-.14c0-.1,0-.11-.07-.11C70.21,11.23,70.56,11.28,70.45,11.56Zm.42,33.85c0-.06,0-.14.07-.11S70.89,45.44,70.87,45.41Zm-.08-.22c0-.11.09-.09.15-.12S70.85,45.16,70.79,45.19Zm.38-33.64c0-.13.13-.1.21-.12C71.37,11.57,71.25,11.53,71.17,11.55Zm1.45,34c0-.13.13-.09.21-.11S72.7,45.48,72.62,45.5Zm-.15-.33c0-.14.13-.1.21-.12C72.67,45.18,72.55,45.15,72.47,45.17ZM74,11.62c0-.11.09-.09.15-.12S74.09,11.59,74,11.62Zm.55,33.73c0-.05,0-.14.07-.11S74.6,45.39,74.58,45.35Zm1.84-32.3h-.36c0-.11.09-.09.14-.11h.51C76.69,13.08,76.53,13,76.42,13.05Zm1.22.2c-.22,0-.26-.34-.58-.22.1-.26.5,0,.72-.12s.15.22.29.22c0-.19.16-.07.15.11Zm.93,0c0-.06.05-.14.07-.11S78.59,13.27,78.57,13.23Zm.29-.11H79C79,13.43,78.47,13.09,78.86,13.12Zm.29.1c0-.14.14-.11.14,0S79.23,13.21,79.15,13.22Zm.28-.11.64,0A.32.32,0,1,1,79.43,13.11Zm.55-1c-.1-.06-.36.14-.36-.11a1.36,1.36,0,0,1-.79-.1l-1.21,0c-.73-.23-1.16,0-1.72-.19l-1.08,0c-.12,0-.14-.11-.07-.12h1.36c.12,0,.12-.11.21-.12.29.23.85,0,1.15.21a2.54,2.54,0,0,1,1.36.09c.36-.11.43,0,.86,0,.13.06.3,0,.36.22.2,0,.14-.19.29,0S80.09,12,80,12.08Zm-2.3-.64c0-.06,0-.15.07-.12S77.7,11.47,77.68,11.44Zm2.15,0c0-.18.07,0,.07.11S79.75,11.41,79.83,11.4Zm.8,34.3c0-.06.05-.15.07-.11S80.65,45.73,80.63,45.7Zm.81-32.18c-.11,0-.24,0-.35,0a1.36,1.36,0,0,0-.72-.1c-.16,0-.23-.09-.22-.34a12.28,12.28,0,0,1,2.15.19C82.15,13.76,81.79,13.56,81.44,13.52Zm-1-2c0-.11.09-.09.14-.11S80.46,11.48,80.4,11.5ZM82,12c-.14.19-.09,0-.29,0l-.86,0c-.11-.06,0-.12.07-.11l1.5,0C82.41,12.17,82.11,12,82,12Zm.78,3.5c0-.06,0-.15.07-.12S82.8,15.57,82.77,15.54Zm1.33-2c-.07,0-.06-.14-.08-.22a.52.52,0,0,1-.78.13c-.12.19-.42.1-.65.12a.58.58,0,0,0-.22-.22c0-.16.22,0,.21-.23.13.06.42-.14.43.11,0-.09.4-.26.43,0,0-.2.34,0,.36-.24.15.06.21.28.43.22C84.19,13.36,84.07,13.36,84.1,13.58Zm1.49-.26c-.13,0,0,.44-.28.35,0-.19.07-.2.07-.34-.26-.07-.38.08-.5.23s-.14-.3-.36-.21c-.07.07-.07.26-.21.23v-.34l1.58,0C86.11,13.33,85.69,13.33,85.59,13.32Zm.58,0c0-.25.25-.06.35-.13C86.48,13.54,86.33,13.34,86.17,13.31Zm1.28,0c0-.06,0-.15.07-.12S87.47,13.31,87.45,13.28ZM87.93,12c0,.47-.5.13-.71.24,0-.25.3,0,.42-.12,0-.36-.47-.07-.58-.33-.29.1-.37-.16-.64-.1-.1.52.46-.07.36.45-.12.21-.18-.09-.42,0s-.31.12-.5.13-.19-.16-.36-.11l-1.72,0c-.45-.17-.79-.06-1.15-.2.1-.26.5,0,.72-.13s.57.13.64-.13c-.1-.34-.27.18-.36-.1h-.5c-.22.09-.22-.19-.44-.1s-.39.06-.49.23c-.14,0-.1-.31-.29-.22h-.86c-.11-.06-.37.14-.36-.1h.36l1.57,0c.12,0,.18-.19.21,0a10.59,10.59,0,0,1,1.22,0l1.29,0c.2-.1.19.16.36.11a10.47,10.47,0,0,1,2,.06c0,.25.14.16.15.34C88,11.87,88,12,87.93,12ZM89,45.52c0-.06,0-.14.07-.11S89,45.55,89,45.52Zm1.18-32.08c0-.2.39-.21.29.11C90.34,13.56,90.31,13.41,90.18,13.44Zm1.86.07c0-.06,0-.15.07-.12S92.06,13.54,92,13.51Zm.29,0c0-.14.08-.23.21-.23C92.51,13.41,92.45,13.51,92.33,13.5Zm.78-.13h.15C93.28,13.69,92.72,13.35,93.11,13.37ZM95,11.84c-.29.11-.24,0-.57,0s-.18.17-.35.13l-2,0c-.21-.09-.18.16-.36.12l-1,0c-.1-.27-.21.21-.29-.11C90.3,12,90,12.22,90,12c-.14,0-.08.31-.28.23s-.5.17-.72,0l-.78,0c0-.24.31,0,.28-.35h-.29c.06-.44.36-.1.57-.13s.32,0,.5,0a4.18,4.18,0,0,0,1.57,0c.15-.06.12,0,.36,0,.43.07.87-.16,1.43-.15.18,0,.35.08.5,0h.71c.54.16,1.23.05,1.79.17C95.57,12,95.2,11.77,95,11.84Zm2.82,33.34c0-.14.14-.12.14,0S97.84,45.32,97.82,45.18Zm.43-34.68c.11.17.32.18.51.22,0,.18-.2.06-.21.23s-.16-.13-.29-.11-.45.2-.57,0a.28.28,0,0,0-.21.12c-.19.09-.15-.22-.29-.22a3.22,3.22,0,0,0-.28.24c-.17.15-.31-.33-.36,0-.08,0-.11-.13-.15-.23-.19,0-.13.2-.28,0-.35.05-.69,0-1,0-.13,0-.16.12-.28.12s-.15-.09-.22-.1a1.62,1.62,0,0,0-.93.14.84.84,0,0,0-.85,0c0-.09,0-.22-.08-.23-.46.24-.93-.07-1.5.15v-.34a2.91,2.91,0,0,1-1.2.37c0-.15.12-.11.13-.23-.15-.32-.44,0-.64,0s-.12.39-.35.34a.54.54,0,0,0-.3-.44c-.26-.12-.22.24-.34.35s-.17,0-.15-.23c-.13,0-.18.09-.21.24a.33.33,0,0,1-.22-.11c-.15.31-.23,0-.42.23-.79,0-1.76.1-2.5.06-.3,0-.28-.15-.5,0-.37-.15-.48.15-.72-.21-.1,0-.06.2-.14.23-.27,0-.52,0-.65-.21-.25.26-.43-.07-.71.13A3.38,3.38,0,0,0,81,11c-.14,0-.15-.15-.22-.23s-.21,0-.22.12c.3-.11,0,.34,0,0-.22.1-.22-.17-.36-.22s-.14,0-.14.12-.2,0-.21.11-.1-.3-.29-.22-.47.16-.79,0c.08-.32.44-.22.71-.24a.4.4,0,0,0-.36-.33c.09-.3.44,0,.57,0,0-.5-.5,0-.58-.33h-.57c-.17.07-.52-.14-.57.12-.14-.2-.47-.07-.71-.1s-.14.15-.21.23a.27.27,0,0,1-.22-.11c.09.75.63.23.94.44.18,0,.22-.18.28-.35.09,0,.07.2.14.23.27.11.2-.29.43-.24.1.34-.46.46-.06.57,0,.24-.26,0-.36.12h-.5c-.13,0-.15.13-.28.12a2.42,2.42,0,0,0-.87-.22c0-.26.21-.12.21-.34s-.35-.24-.43-.1.54.72.16.9c-.13,0-.15-.09-.07-.23-.1,0-.15-.14-.15-.33-.25.09-.28-.17-.51-.11,0-.53.29.05.36-.23s-.45,0-.65-.1c0-.2.06-.57-.15-.45s0,.36,0,.56.32,0,.36.22-.51,0-.35.57c-.1-.13-.11-.42-.22-.56s-.06.2-.14.23-.37-.3-.43,0c-.1,0-.07-.27-.08-.45-.13,0,0,.37-.21.34s-.14,0-.14.12c-.09-.16-.34-.07-.43-.22-.3.11-.62-.05-1.07,0-.14,0-.16-.13-.29-.11-.65.31-1.32-.09-2.07,0-.2.08-.15-.23-.29-.23s-.07.2-.14.23a6.57,6.57,0,0,1-1.58-.2c-.21,0-.47-.06-.57.12a1.19,1.19,0,0,0-.72-.11c0-.16.09-.19,0-.34-.31-.07-.44.14-.57.35a1.12,1.12,0,0,0-.93-.1c-.21,0-.44-.43-.5,0-.11-.05-.18-.16-.29-.22h-.36c-.11,0-.26.05-.29-.1-.14.06-.13.34-.28.11,0-.37.41-.18.64-.23.13-.28.45-.11.35-.57h.5c0,.16-.15.13-.21.23a1.3,1.3,0,0,1,.08.45c.13,0,0-.37.21-.34.32-.06.4.19.64,0a.06.06,0,0,0,0-.11c0-.34.15.11.29,0s.08-.09.06-.22h.5c.06.31-.33-.08-.28.23s.34-.25.36.22c.15-.29.28-.1.43-.23,0-.09-.06-.13-.15-.11,0-.18.34-.19.29,0,.09-.16.31-.12.5-.12s.33-.35.43,0-.28.27-.43.12c-.09.19-.4,0-.5.23,0,.4.24-.24.22.11h.78c.08,0,.09-.09.15-.11s.06-.57.27-.57c-.09-.42-.67-.06-.86-.33,0-.11.13-.14.15,0a.3.3,0,0,0,.21-.12c.14.1.32,0,.5,0s.46.07.64,0a.3.3,0,0,1,.29.11.28.28,0,0,0,.21-.12c.27.15.6.18.79.44.14,0,.16-.12.29-.11.06.24.37.09.43.33a.27.27,0,0,0,.22-.11c.31.21.5,0,.78.1s.16-.13.29-.12.18.08.21.22c.23.08.14-.31.36-.23.24.38.53,0,.93.21V8.89c-.06,0-.14,0-.15-.11s0-.16,0,0c.09,0,.1-.14.22-.12s0,.32.14.34.07-.27.07-.45c.09.15.31.1.5.1-.22.27,0,.07,0,.45.49,0,.78-.28,1.08.33.11-.2.41-.1.64-.13.39.32.89-.23,1.29.09.24-.05.63-.27.85,0a12.65,12.65,0,0,0,1.86,0c.15,0,.14-.3.21-.45.43.28,1.06-.08,1.43.08,0,.46-.34,0-.43.24.22.31.86-.1,1.08.2.12-.05,0-.14,0-.34a.43.43,0,0,1,.37.33c.08,0,.11-.16.14,0s.47-.15.5.1c.07,0,.09-.09.14-.11s.08-.1,0-.12c.06-.37.14.13.22.11s-.05-.18.06-.23.16.09.08.23c.28-.12.42.24.57,0,0-.16-.17-.1-.29-.1s-.06-.15.07-.12h.29l.57,0a.3.3,0,0,1,.22.11c.18,0,.4,0,.49-.12.35.2.92,0,1.16.42.11-.16.36-.1.42-.35a.42.42,0,0,1,.36.33c.09,0,.06-.19.14-.23h.5c.14-.07.47.13.5-.12.09.15.31.1.5.1s.2,0,.21-.12a1.88,1.88,0,0,0,1,.09c.1,0,.15-.11.21-.12s.14.23.15,0c0,0,.14,0,.14.11.17,0,.15-.21.36-.12,0,.13.11.12.21.11,0,.38-.19.14-.05.56-.38.34-.67-.2-1,0,.09.43.63.12.93.2.13-.06.3-.06.35-.23.06,0,.09.09.08.22.1-.06.17-.17.28-.23,0-.61-.31,0-.3-.56a.35.35,0,0,1,.36.1c.08,0,.15-.2.21,0,.21-.15.36-.13.5.1-.12.46-.62-.23-.63.47,0,.25.31,0,.44.1l.57,0,1.14,0c.08,0,.2,0,.21-.12.77.26,2.35-.17,3.07.25H99c.12,0,0,.16-.14.11C98.62,10.25,98.38,10.3,98.25,10.5Zm.65.32c0-.11.09-.09.14-.11S99,10.8,98.9,10.82Zm.5,0c0-.11.09-.09.14-.12S99.46,10.78,99.4,10.81Zm5.77-.53c0,.06,0,.15-.07.12S105.15,10.26,105.17,10.28Zm-.21,0c0,.22-.24.09-.21.35C104.53,10.51,104.75,10.15,105,10.29Zm-.67-.76h.21c0,.11-.08.09-.14.12h-.21C104.15,9.53,104.23,9.55,104.29,9.53Zm0,1c-.06.07-.12.14-.14,0S104.25,10.43,104.25,10.55ZM104,8.18c0,.05,0,.14-.07.11S103.94,8.15,104,8.18Zm0,2.26v.23h-.14v-.22ZM103,8.1c0,.11-.09.09-.14.11S102.9,8.13,103,8.1Zm0,1.58c0,.17-.06,0-.14,0C102.81,9.55,102.93,9.57,102.94,9.68Zm-.57,0c0,.13-.13.1-.21.12C102.16,9.69,102.28,9.72,102.37,9.7ZM102,8.13c0,.06,0,.14-.07.11S101.94,8.1,102,8.13Zm.09.56c0,.13-.13.1-.21.12C101.85,8.68,102,8.71,102.05,8.69Zm0,1c0,.06,0,.15-.07.11S102.06,9.68,102.08,9.71Zm-.6-1s0,.14-.07.11S101.46,8.68,101.48,8.71Zm-.09-.57c0,.06,0,.15-.07.12S101.37,8.11,101.39,8.14Zm0,1.59c0,.06-.05.15-.07.12S101.35,9.7,101.37,9.73Zm-.32-1c0,.11-.08.09-.14.12S101,8.75,101.05,8.72ZM99.69,10.8c0-.11.08-.09.14-.12S99.74,10.77,99.69,10.8Zm.5,0H100c0-.11.09-.09.14-.11h.22C100.33,10.78,100.24,10.76,100.19,10.78Zm.3-1.93c0,.14-.11.07,0,0,0-.24.25-.06.35-.12C100.86,9,100.59,8.79,100.49,8.85Zm.77,1.9c-.27-.06-.44.31-.64,0,0-.32.44.08.42-.24.26,0,.28.15.5,0a.34.34,0,0,1-.13.34c0,.11.09.09.14.11C101.52,11.25,101.19,11,101.26,10.75Zm1.55,1.54c0-.13.13-.1.21-.12C103,12.31,102.89,12.27,102.81,12.29Zm-1.11-1.21V11c-.08,0,0-.17,0,0h.22c0-.36-.36,0-.3-.44l.64,0c-.06.2-.26.19-.27.46.36-.15,1.12.29,1.13-.37.11,0,.07.27.09.45C102.72,11,102.11,11.13,101.7,11.08Zm1.48-2.88c0-.16.06,0,.14,0C103.31,8.34,103.18,8.32,103.18,8.2Zm.13,4.08c0-.06,0-.15.07-.12S103.33,12.31,103.31,12.28Zm.22-4.09h.21c0,.11-.08.09-.13.11h-.22C103.39,8.2,103.48,8.22,103.53,8.19Zm-.07,4.2c0-.06,0-.15.06-.12S103.48,12.42,103.46,12.39Zm.21-.12c.13-.22.18,0,.35,0h.36c.12,0,.18.12,0,.11l-.71,0v-.11C103.58,12.28,103.62,12.1,103.67,12.27Zm0,1.7c0-.11.09-.09.14-.12h.57c0,.24-.25.06-.35.12Zm.07,30.92c0-.06,0-.14.07-.11S103.74,44.92,103.72,44.89Zm.36-.12c0-.11.09-.09.15-.12S104.14,44.74,104.08,44.77Zm.23-30.49c-.13,0-.58.39-.58-.09.21-.14.35,0,.71,0C104.45,14.28,104.36,14.25,104.31,14.28Zm.13-.34c0-.11.08-.09.14-.12S104.49,13.91,104.44,13.94Zm.21,0c0-.06,0-.15.07-.12S104.67,14,104.65,13.93Zm.43-.13h-.22c0-.13.13-.1.21-.12h.22C105.28,13.81,105.16,13.78,105.08,13.8Zm1.2-.16c0-.05,0-.14.07-.11S106.3,13.67,106.28,13.64Zm.52-1.49c0,.26-.18.27-.28.13S106.7,12.17,106.8,12.15Zm-.19,31.62c0-.05,0-.14.07-.11S106.64,43.8,106.61,43.77Zm.09-30.37c.06,0,.08.11.15.11C106.86,13.75,106.51,13.64,106.7,13.4Zm.06,30.37c0-.11.09-.09.14-.12S106.82,43.74,106.76,43.77Zm.45-30.27c0-.13.07-.07.07,0S107.21,13.56,107.21,13.5Zm.29.1v-.23h.14v.22Zm-.4-1.23c0-.24.09-.22.2-.24s.21-.22.36,0C107.58,12.59,107.29,12.1,107.1,12.37Zm2.41-.32.5,0c.08,0,.13,0,.14-.11,0,.19.34,0,.36.21a1.19,1.19,0,0,1,1.07,0c-.1.28-.49.06-.64,0a.48.48,0,0,0-.42.25.31.31,0,0,0-.36-.1c-.26.23-.45-.11-.63.24-.09,0-.15-.13-.16-.33-.1.14-.17.14-.28,0S109.39,12.12,109.51,12.05Zm-.86,0c0,.14-.12.1-.2.12S108.57,12.1,108.65,12.08Zm0,1.25c0,.06,0,.14-.06.11S108.68,13.3,108.7,13.33ZM108.15,12c0,.11-.08.09-.14.12S108.1,12,108.15,12Zm-.09,1.48c-.08,0-.11.15-.21,0s.4-.05.57-.13C108.4,13.73,108.18,13.47,108.06,13.47Zm2.24.59c-.12.07-.42-.12-.42.13-.21-.09-.22-.09-.43,0,0-.07,0-.14-.08-.11l-.71,0-.36,0a.06.06,0,0,1,0-.12h.21c.14,0,.16-.14.28-.13h.15c0-.14.1-.08,0,0V14a3.12,3.12,0,0,1,.86,0c.13.1.22-.35.28,0,.09-.05.14-.15.13-.35l.57,0c-.21.28,0,.07,0,.45C110.63,14.16,110.57,14.15,110.3,14.06Zm-.16-.56-1,0c-.13,0-.16-.13-.29-.1.07-.26.45-.06.64-.14,0,.17.09-.05.21,0s.18.09.29.1c.36,0,.58-.21,1-.15C110.87,13.64,110.45,13.48,110.14,13.5Zm.87.31c.09-.13.17-.13.22.11a.33.33,0,0,1,.35-.13c.12,0,.35-.13.29.21C111.51,13.84,111,14.42,111,13.81Zm.77-.37h-.22c0-.13.13-.1.21-.12H112C112,13.46,111.86,13.42,111.78,13.44Zm7-.65c0,.15-.12.19-.13.35-.2,0-.16-.38-.44-.21C118,12.74,118.66,12.83,118.81,12.79Zm-.78,0c0,.14-.14.12-.15,0S118,12.84,118,12.83Zm-2.33-1h.14C115.87,12.11,115.31,11.79,115.7,11.8Zm-1.92,1.68a1.19,1.19,0,0,0-.44-.21c-.52,0-.69.21-1,0,0-.26.39-.06.56-.14l.57,0c.21.08.18-.17.35-.13a1.85,1.85,0,0,0,.71,0,2.6,2.6,0,0,0,1.07.06s.14,0,.15,0v-.12s.08.11.08.11.12-.12.2-.12c.29,0,.63.19,1,.07a.86.86,0,0,1,.71-.26c-.1.6-.89.21-1.19.51,0-.25-.26-.05-.36-.1l-.43,0c-.21-.09-.18.17-.35.13-.47.06-1.06,0-1.42.18A.11.11,0,1,0,113.78,13.48Zm2.49,0c0,.06,0,.15-.06.12S116.25,13.45,116.27,13.47Zm-2,.66c0-.51.54-.13.64,0C114.9,14.29,114.37,14.32,114.31,14.13Zm.54,28.65c0-.11.09-.09.15-.12h.15C115.13,42.81,115,42.76,114.85,42.78Zm.52,0c0-.13.13-.1.22-.12S115.46,42.74,115.37,42.76Zm.24.44c0-.11.09-.09.14-.12S115.67,43.17,115.61,43.2Zm1.17-.16h-.51c-.18,0-.21.2-.44.13.11-.37.61-.2,1-.27S117.05,43.11,116.78,43Zm0-28.46c0-.05.05-.14.07-.11S116.84,14.61,116.82,14.58Zm.38,27.87c0,.14-.11.07,0,0S117.3,42.38,117.2,42.45ZM117,14.57c0-.13.12-.1.2-.12C117.24,14.58,117.12,14.55,117,14.57Zm-.19-.89c0,.27.32-.08.23.32-.2.11-.43.16-.63.26-.37-.21-1,0-1.21-.06-.09-.48.43-.4.56-.25s.51-.17.57.09c.12-.11.17-.33.42-.25,0-.34-.35-.13-.45-.32s.38-.1.43,0c0-.22.4,0,.42-.24.33.19.85,0,1.28,0,.09.34-.15.21-.27.24l-.36,0c-.14.05-.19-.07-.29-.1A4.82,4.82,0,0,1,116.85,13.68Zm.57,28.87s0-.14.07-.11S117.45,42.58,117.42,42.55Zm.11-28.11h.14C117.7,14.75,117.14,14.42,117.53,14.44ZM105.36,45.63c0-.06,0-.15.07-.11S105.38,45.66,105.36,45.63Zm18.32-3.26c0,.12-.08.1-.14.13S123.63,42.4,123.68,42.37Zm-4.5-.12c-.2,0-.43,0-.51.13l-.81,0c0,.06,0,.13-.07,0s-.06-.16,0,0h.07c0-.25.31-.06.43-.13a.27.27,0,0,0,.22-.13c.09,0,.21,0,.22-.12s.1.14.22.1.37,0,.43-.24C119.6,42,119.3,42.27,119.18,42.25ZM122,37.36a.32.32,0,0,1,.35-.25A.33.33,0,0,1,122,37.36Zm.42-.25c0-.06,0-.15.07-.12S122.47,37.14,122.45,37.11Zm2.15,2.94c0-.11.09-.09.14-.12S124.66,40,124.6,40.05Zm5.4-2.68a.32.32,0,0,1,.35-.25A.33.33,0,0,1,130,37.37Zm.44-.14c-.05-.06,0-.15.06-.12S130.46,37.26,130.44,37.23Z"/><path class="cls-1" d="M59.44,4.67c.11,0,.26,0,.29.11.22,0,.23-.3.49-.23s.29,0,.64,0a11.37,11.37,0,0,0,2.5.09c.17,0,.13-.4.36-.35s.45.14.71-.12c0,.2.12.26.29.22a16.39,16.39,0,0,1,3.78,0c.06-.46-.4-.39-.51-.22,0-.25-.25,0-.35-.11a15.61,15.61,0,0,0-2.71.14c-.17,0-.16-.2-.36-.11s-.33.09-.5.13a.31.31,0,0,0-.29-.23c-.13,0-.13-.32-.36-.22-.22-.08-.2.2-.42.12s-.42.14-.43-.11.3,0,.43-.12,0-.13.07,0h.28c.21-.19.61-.1.85-.24s.91.21,1-.24a4.8,4.8,0,0,0-1.5.13c-.62-.44-1.5.32-2.28-.08-.17-.05-.15.21-.35.12-.13.06-.42-.14-.43.11a.59.59,0,0,1,.29.45c0,.22-.65,0-.43.23.19,0,.41,0,.5.11s.56-.21.51.22a3.21,3.21,0,0,0-1.22-.1c-.45.13-.84-.28-1.07.12A.54.54,0,0,1,59.44,4.67Z"/><path class="cls-1" d="M66,3H65.7v.23C65.83,3.21,66.06,3.35,66,3Z"/><path class="cls-1" d="M68.84,3.09A.33.33,0,0,0,68.48,3C68.37,3.32,68.85,3.27,68.84,3.09Z"/><path class="cls-1" d="M71.62,3.16c-.18,0-.23-.17-.36-.22C71.12,3.37,71.59,3.39,71.62,3.16Z"/><path class="cls-1" d="M66.27,3.12s-.11,0-.07.11S66.31,3.18,66.27,3.12Z"/><path class="cls-1" d="M69.26,3.08c-.05,0-.14,0-.14.12C69.18,3.17,69.26,3.19,69.26,3.08Z"/><path class="cls-1" d="M69.69,3.07s-.14,0-.14.12S69.69,3.18,69.69,3.07Z"/><path class="cls-1" d="M60.07,3.3h-.14C59.54,3.28,60.09,3.62,60.07,3.3Z"/><path class="cls-1" d="M60.57,3.3s-.11.06-.07.11S60.6,3.36,60.57,3.3Z"/><path class="cls-1" d="M72.76,3.15c-.09,0-.21,0-.21.11S72.75,3.28,72.76,3.15Z"/><path class="cls-1" d="M73.4,3.25a.27.27,0,0,1,.22.11C73.72,3.08,73.37,3,73.4,3.25Z"/><path class="cls-1" d="M74.26,3.23c-.11,0-.27,0-.29.12S74.24,3.49,74.26,3.23Z"/><path class="cls-1" d="M76.75,3.3c-.27,0-.24-.12-.36,0S76.84,3.42,76.75,3.3Z"/><path class="cls-1" d="M78,3.5a.26.26,0,0,0-.43-.22C77.55,3.69,77.89,3.44,78,3.5Z"/><path class="cls-1" d="M74.83,3.33s-.11.06-.07.12S74.86,3.39,74.83,3.33Z"/><path class="cls-1" d="M77,3.29c-.06,0-.14,0-.14.12S77,3.41,77,3.29Z"/><path class="cls-1" d="M78.54,3.61c0-.33-.29-.43-.29-.11C78.35,3.53,78.39,3.66,78.54,3.61Z"/><path class="cls-1" d="M55.79,3.68c-.08,0-.2,0-.21.11S55.78,3.81,55.79,3.68Z"/><path class="cls-1" d="M56.44,3.67c-.15.07-.47-.14-.5.12C56.07,4,56.34,3.84,56.44,3.67Z"/><path class="cls-1" d="M57.93,3.77c-.08,0-.2,0-.21.12C57.8,3.87,57.92,3.91,57.93,3.77Z"/><path class="cls-1" d="M58.43,3.77c-.08,0-.2,0-.21.11S58.42,3.9,58.43,3.77Z"/><path class="cls-1" d="M58.65,3.77s-.11,0-.07.11S58.68,3.82,58.65,3.77Z"/><path class="cls-1" d="M59.07,3.76c-.08,0-.2,0-.21.12S59.06,3.9,59.07,3.76Z"/><path class="cls-1" d="M60.14,3.76c-.21-.09-.2.19-.42.11C59.69,4.43,60.13,4.08,60.14,3.76Z"/><path class="cls-1" d="M81.53,3.55c.14,0,.16.13.29.11C81.93,3.34,81.51,3.35,81.53,3.55Z"/><path class="cls-1" d="M82.67,3.42h-.14c0,.12-.06.14-.07.23S82.71,3.66,82.67,3.42Z"/><path class="cls-1" d="M93.34,3.17s-.1.06-.06.12S93.38,3.23,93.34,3.17Z"/><path class="cls-1" d="M93.91,3.15s-.14,0-.14.12S93.91,3.26,93.91,3.15Z"/><path class="cls-1" d="M84.1,3.5s-.11.06-.07.12S84.13,3.56,84.1,3.5Z"/><path class="cls-1" d="M86.66,3.67c.25-.1.44.32.5-.13-.14-.2-.47-.07-.72-.09s-.66-.13-.78.13c.14,0,.16.12.29.1Z"/><path class="cls-1" d="M91.36,3.67c.09,0,.21,0,.22.11h.29c.11,0,.18-.15.06-.23-.21.43-.52-.6-.79-.09C91.27,3.44,91.33,3.53,91.36,3.67Z"/><path class="cls-1" d="M91.92,3.32c-.08,0-.2,0-.21.12C91.8,3.42,91.92,3.45,91.92,3.32Z"/><path class="cls-1" d="M103.85,3h-.21s-.14,0-.14.11h.22S103.86,3.08,103.85,3Z"/><path class="cls-1" d="M87.3,3.65c.14,0,.16.13.29.11C87.7,3.44,87.28,3.45,87.3,3.65Z"/><path class="cls-1" d="M90.15,3.47c-.24.08-.67-.13-.78.13C89.51,3.74,90.12,3.85,90.15,3.47Z"/><path class="cls-1" d="M90.5,3.46c-.08,0-.2,0-.21.12S90.5,3.6,90.5,3.46Z"/><path class="cls-1" d="M102.44,3.13s-.11.06-.07.11S102.48,3.19,102.44,3.13Z"/><path class="cls-1" d="M103.08,3.11s-.11.06-.07.11S103.12,3.17,103.08,3.11Z"/><path class="cls-1" d="M104.49,3.06s-.1.06-.06.11S104.53,3.12,104.49,3.06Z"/><path class="cls-1" d="M69.63,4.21c.1,0,.14.16.29.11C70,3.93,69.64,3.88,69.63,4.21Z"/><path class="cls-1" d="M93.64,3.62c.11.21.47,0,.57.21A.31.31,0,0,0,93.64,3.62Z"/><path class="cls-1" d="M105.28,3.14s-.11.06-.07.12S105.31,3.2,105.28,3.14Z"/><path class="cls-1" d="M108.46,3H108s-.13,0-.13.12h.28C108.29,3.13,108.44,3.18,108.46,3Z"/><path class="cls-1" d="M70.56,4.2c-.12.06-.3-.33-.35,0C70.25,4.27,70.55,4.46,70.56,4.2Z"/><path class="cls-1" d="M92.57,3.64s-.1.06-.06.12S92.61,3.7,92.57,3.64Z"/><path class="cls-1" d="M95.28,3.79c0-.12,0-.28-.07-.11C95.13,3.69,95.16,3.83,95.28,3.79Z"/><path class="cls-1" d="M103.44,3.44c0-.07-.06-.13-.07,0S103.44,3.57,103.44,3.44Z"/><path class="cls-1" d="M113.9,2.93c-.05,0-.14,0-.13.12S113.9,3,113.9,2.93Z"/><path class="cls-1" d="M114.46,2.9s-.13,0-.13.12S114.47,3,114.46,2.9Z"/><path class="cls-1" d="M114.88,2.88s-.13,0-.13.12S114.89,3,114.88,2.88Z"/><path class="cls-1" d="M73.91,4.14s-.1.06-.07.12S74,4.2,73.91,4.14Z"/><path class="cls-1" d="M74,4.37c.32.1.43,0,.64.1.05-.39-.25-.4-.36-.22C74.17,4.27,74,4.21,74,4.37Z"/><path class="cls-1" d="M94.71,3.81c0-.06-.06-.13-.07,0S94.7,3.94,94.71,3.81Z"/><path class="cls-1" d="M95.7,3.67s-.14,0-.14.12S95.7,3.78,95.7,3.67Z"/><path class="cls-1" d="M63.86,4.39c-.06,0-.14,0-.14.12S63.86,4.5,63.86,4.39Z"/><path class="cls-1" d="M97,3.74s-.11.06-.07.12S97,3.8,97,3.74Z"/><path class="cls-1" d="M97.34,3.85c-.08,0-.11-.17-.14,0S97.33,4,97.34,3.85Z"/><path class="cls-1" d="M98.27,3.93c-.09-.34-.37.14,0,0Z"/><path class="cls-1" d="M98.56,3.92c-.15-.18-.09,0-.29,0C98.23,4.12,98.61,4.11,98.56,3.92Z"/><path class="cls-1" d="M100.05,4c.06-.08-.69-.34-.64,0C99.74,3.93,99.84,4.15,100.05,4Z"/><path class="cls-1" d="M99.27,3.9c-.09,0-.21,0-.21.12S99.26,4,99.27,3.9Z"/><path class="cls-1" d="M100.55,4c.25.17.65.08,1,.08.1,0,.26,0,.28-.12h-.36c-.14-.09-1.21-.26-.92.14Z"/><path class="cls-1" d="M79.63,4.49c-.06,0-.15,0-.15.12S79.62,4.61,79.63,4.49Z"/><path class="cls-1" d="M80.05,4.6c-.13.11-.24-.33-.28,0C79.81,4.64,80.05,4.88,80.05,4.6Z"/><path class="cls-1" d="M81.77,4.57c-.14,0-.16-.13-.29-.11C81.37,4.78,81.79,4.77,81.77,4.57Z"/><path class="cls-1" d="M100.05,4c0,.17.09,0,0,0Z"/><path class="cls-1" d="M102.82,4h.43l.29.1a.12.12,0,0,0,.14-.11c-.17,0-.28-.17-.5-.1S102.59,3.88,102.82,4Z"/><path class="cls-1" d="M103.75,4.11c.17-.08.52.12.56-.14C104.2,3.82,103.74,3.76,103.75,4.11Z"/><path class="cls-1" d="M106.72,4c.06-.35-.16-.2-.29-.22,0,.27-.61,0-.34.24Z"/><path class="cls-1" d="M107.79,4.07c.13,0,.15-.13.28-.12s.26,0,.28-.13l-.78,0c-.09,0-.1-.14-.22-.1s-.35,0-.41.24C107.2,4.05,107.64,3.82,107.79,4.07Z"/><path class="cls-1" d="M110,3.76l-.43,0c-.1-.15-.35-.16-.35.13l.78,0C110.1,3.9,110.15,3.74,110,3.76Z"/><path class="cls-1" d="M111.88,3.58s-.1.06-.06.12S111.92,3.64,111.88,3.58Z"/><path class="cls-1" d="M113.23,3.64c-.21,0-.44-.3-.49.13C112.88,3.7,113.21,3.89,113.23,3.64Z"/><path class="cls-1" d="M61.87,4.87c-.37,0-.57.16-.86.24h-.42c-.11.06-.37-.13-.36.12h.86c.29.12.33,0,.71,0h.43c.12-.07.42.13.42-.12S62.18,4.86,61.87,4.87Z"/><path class="cls-1" d="M80.48,4.59s-.14,0-.14.12S80.48,4.7,80.48,4.59Z"/><path class="cls-1" d="M109.05,3.8s-.13,0-.13.12S109.06,3.91,109.05,3.8Z"/><path class="cls-1" d="M110.61,3.74h-.21c-.05,0-.14,0-.14.12h.22S110.61,3.85,110.61,3.74Z"/><path class="cls-1" d="M83.48,4.65c-.06,0-.14,0-.14.12S83.48,4.76,83.48,4.65Z"/><path class="cls-1" d="M84.76,4.62c0,.09-.17.18-.14.23S85,4.81,84.76,4.62Z"/><path class="cls-1" d="M85.48,4.72c0-.07-.35-.26-.36,0C85.29,4.57,85.42,5.05,85.48,4.72Z"/><path class="cls-1" d="M88.32,4.65c-.34-.31-.16.37,0,0Z"/><path class="cls-1" d="M113.44,3.74s-.1.06-.06.12S113.48,3.8,113.44,3.74Z"/><path class="cls-1" d="M58.59,5.24h.21c.06,0,.14,0,.14-.12h-.21C58.67,5.15,58.59,5.13,58.59,5.24Z"/><path class="cls-1" d="M82.34,4.79s-.11,0-.07.11S82.38,4.84,82.34,4.79Z"/><path class="cls-1" d="M89.68,4.73c.09,0,.17.2.21,0C89.81,4.71,89.73,4.53,89.68,4.73Z"/><path class="cls-1" d="M90.32,4.71a.34.34,0,0,0-.36-.1C89.86,5,90.34,4.9,90.32,4.71Z"/><path class="cls-1" d="M89.18,4.74s-.11.06-.07.12S89.22,4.8,89.18,4.74Z"/><path class="cls-1" d="M90.68,4.71h-.15C90.14,4.69,90.7,5,90.68,4.71Z"/><path class="cls-1" d="M91.53,4.8c.09,0,.21,0,.22-.12C91.66,4.7,91.54,4.67,91.53,4.8Z"/><path class="cls-1" d="M92.6,4.66s-.14,0-.14.12S92.6,4.77,92.6,4.66Z"/><path class="cls-1" d="M93.39,4.76c-.17-.07-.61-.28-.64.12C92.94,4.81,93.32,5,93.39,4.76Z"/><path class="cls-1" d="M93.6,4.86c0-.12,0-.28-.07-.11C93.45,4.76,93.48,4.9,93.6,4.86Z"/><path class="cls-1" d="M94.24,4.73H94.1C93.71,4.71,94.26,5.05,94.24,4.73Z"/><path class="cls-1" d="M94.52,4.72s-.14,0-.13.12S94.52,4.83,94.52,4.72Z"/><path class="cls-1" d="M94.81,4.83c.08,0,.35.28.36,0C94.91,4.63,94.45,4.69,94.81,4.83Z"/><path class="cls-1" d="M103.12,4.47s-.1.06-.06.11S103.16,4.53,103.12,4.47Z"/><path class="cls-1" d="M95.52,4.81s-.14,0-.14.11S95.52,4.92,95.52,4.81Z"/><path class="cls-1" d="M96.81,5a.34.34,0,0,0-.64,0C96.43,4.85,96.67,5.34,96.81,5Z"/><path class="cls-1" d="M98.38,5.06c-.1-.34-.38.14,0,0Z"/><path class="cls-1" d="M98.38,5.06v.11c.21-.07.62.13.71-.13-.23-.07-.14-.07-.36,0A.2.2,0,0,0,98.38,5.06Z"/><path class="cls-1" d="M100.51,5c-.11,0-.25,0-.21.23C100.42,5.23,100.48,5.14,100.51,5Z"/><path class="cls-1" d="M101.79,5.07s.09,0,.08.11H102C102.11,4.9,101.76,4.86,101.79,5.07Z"/><path class="cls-1" d="M103.42,4.91c0,.18-.18.1-.13.35C103.44,5.35,103.6,5,103.42,4.91Z"/><path class="cls-1" d="M103.78,5c0-.17-.12,0-.14.12s.14,0,.15.11c.2.08.18-.17.35-.13,0,.09.06.13.14.11s.47.12.5-.13c-.22-.2-.23-.18-.5-.1C104.05,4.85,104.08,5,103.78,5Z"/><path class="cls-1" d="M117.23,4.93c.13,0,.17-.25.34-.24.39,0,.57-.23,1-.16-.06-.3.34.07.28-.24a3.48,3.48,0,0,0-1.81.54h-.22c-.07,0-.17.06-.06.11Z"/><path class="cls-1" d="M101.16,5.21s.14,0,.13-.12S101.15,5.1,101.16,5.21Z"/><path class="cls-1" d="M102.36,5.06s-.14,0-.14.11S102.36,5.17,102.36,5.06Z"/><path class="cls-1" d="M103.15,5.15s.1-.06.06-.12S103.11,5.09,103.15,5.15Z"/><path class="cls-1" d="M109.24,5c.11-.07.38.12.35-.13S109.3,4.84,109.24,5Z"/><path class="cls-1" d="M113.77,4.75c-.08,0-.12-.16-.14,0S113.76,4.89,113.77,4.75Z"/><path class="cls-1" d="M49.67,6.21s.11-.06.07-.11S49.64,6.15,49.67,6.21Z"/><path class="cls-1" d="M50,6.09c-.06,0-.14,0-.14.12S50,6.2,50,6.09Z"/><path class="cls-1" d="M111.58,4.84s-.11.06-.07.11S111.62,4.9,111.58,4.84Z"/><path class="cls-1" d="M110.31,5s-.11.06-.07.11S110.35,5.06,110.31,5Z"/><path class="cls-1" d="M63,6.22c-.05,0-.14,0-.14.11S63,6.33,63,6.22Z"/><path class="cls-1" d="M112.08,5.05c-.08,0-.2,0-.2.12C112,5.15,112.08,5.18,112.08,5.05Z"/><path class="cls-1" d="M112.93,5l-.35,0h-.14c-.06,0-.14,0-.14.12h.35C112.76,5.11,112.92,5.17,112.93,5Z"/><path class="cls-1" d="M115.75,4.88l-.35,0h-.14c-.06,0-.14,0-.14.12l.35,0C115.58,5,115.73,5,115.75,4.88Z"/><path class="cls-1" d="M116.59,4.85h-.21c-.08,0-.2,0-.2.12h.21C116.47,5,116.59,5,116.59,4.85Z"/><path class="cls-1" d="M117.33,5.49c.61-.24,1.5-.07,1.8-.76-.49.07-.75.46-1.32.4C117.69,5.31,117.42,5.27,117.33,5.49Z"/><path class="cls-1" d="M52,6.53s-.08.1,0,.12h.79c.13,0,.16.13.28.11.1-.22.5,0,.5-.34C53.08,6.46,52.44,6.31,52,6.53Z"/><path class="cls-1" d="M42.18,6.79c.18,0,.83.12.57-.23C42.68,6.78,42.26,6.35,42.18,6.79Z"/><path class="cls-1" d="M53.89,6.63s.14,0,.14-.11S53.89,6.52,53.89,6.63Z"/><path class="cls-1" d="M54.53,6.52s-.11.05-.07.11S54.57,6.57,54.53,6.52Z"/><path class="cls-1" d="M54.67,6.63c-.07.22.27,0,.22-.12S54.68,6.6,54.67,6.63Z"/><path class="cls-1" d="M57.24,6.61s-.1,0-.07.11S57.28,6.67,57.24,6.61Z"/><path class="cls-1" d="M59.67,6.82s.11-.06.07-.12S59.64,6.76,59.67,6.82Z"/><path class="cls-1" d="M84.23,6.44s-.11.06-.07.12S84.27,6.5,84.23,6.44Z"/><path class="cls-1" d="M86.66,6.5c-.08,0-.06.15.07.11S86.69,6.32,86.66,6.5Z"/><polygon class="cls-1" points="103.32 6.16 103.31 5.93 103.17 5.94 103.18 6.17 103.32 6.16"/><path class="cls-1" d="M104.31,5.9c-.38,0-.79-.14-.92.26.7-.28,1.34,0,2.06-.19.22-.06.25.2.5.09l.78,0,.42,0c.13-.11.25.33.29,0a2.71,2.71,0,0,0,1.2.07c.09,0,.33.09.35-.13-.21-.09-.22-.09-.42,0s-.1-.14-.22-.11-.17.18-.21,0l-1.21,0c-.12,0-.27-.08-.42-.09s-.08.11-.14.11-.05-.09-.08-.1c-.32-.12-.45.23-.56,0,0,0-.12,0-.15,0A4.87,4.87,0,0,0,104.31,5.9Z"/><path class="cls-1" d="M118.89,5.53c.17,0,.34,0,.34-.24C119.05,5.28,118.88,5.29,118.89,5.53Z"/><rect class="cls-1" x="87.87" y="6.47" width="0.14" height="0.23" transform="translate(-0.13 2.07) rotate(-1.35)"/><path class="cls-1" d="M91.43,6.39h-.14C90.9,6.37,91.45,6.71,91.43,6.39Z"/><path class="cls-1" d="M100.12,6.26c.08,0,.2,0,.21-.12h-.71c-.08,0-.2,0-.21.12l.5,0Z"/><path class="cls-1" d="M100.69,6.12c-.09,0-.21,0-.21.13l.92,0,.5,0c.12-.07.42.13.42-.12l-.92,0-.5,0Z"/><path class="cls-1" d="M102.82,6.06s-.14,0-.14.12S102.82,6.17,102.82,6.06Z"/><path class="cls-1" d="M103,6.06s-.1.05-.06.11S103.07,6.11,103,6.06Z"/><path class="cls-1" d="M88.8,6.56c-.06,0-.14,0-.14.12S88.8,6.67,88.8,6.56Z"/><path class="cls-1" d="M89.65,6.54s-.1.06-.07.12S89.69,6.6,89.65,6.54Z"/><path class="cls-1" d="M90,6.65c.09,0,.21,0,.21-.12S90,6.52,90,6.65Z"/><path class="cls-1" d="M90.51,6.64s.11-.06.07-.12S90.47,6.58,90.51,6.64Z"/><path class="cls-1" d="M116.49,5.76h-.14C116,5.75,116.52,6.07,116.49,5.76Z"/><path class="cls-1" d="M117.84,5.81c-.17.08-.52-.12-.56.14C117.47,6.05,117.76,6.13,117.84,5.81Z"/><path class="cls-1" d="M117.28,6c-.11,0-.27,0-.28.12C117.11,6.06,117.27,6.12,117.28,6Z"/><path class="cls-1" d="M93.44,6.91s-.1,0-.06.11S93.48,7,93.44,6.91Z"/><path class="cls-1" d="M113,6.82c.52-.21.94,0,1.4-.17.22-.07.26.19.5.09a3.27,3.27,0,0,1,1.4-.29c.16-.23.56-.14.69-.38-.4-.06-.57.23-.9.27l-1.56.07c-.17,0-.14.22-.34.13l-.71,0C113.33,6.66,112.93,6.4,113,6.82Z"/><path class="cls-1" d="M112.65,6.73c-.05-.17-.09,0,0,0Z"/><path class="cls-1" d="M112.51,6.73h-.15C112,6.72,112.53,7.05,112.51,6.73Z"/><path class="cls-1" d="M112.65,6.73c0,.16.08,0,0,0Z"/><polygon class="cls-1" points="103.72 7.51 103.86 7.5 103.86 7.28 103.71 7.28 103.72 7.51"/><path class="cls-1" d="M104.79,7.47a.75.75,0,0,0,.49-.25C105.12,7.31,104.72,7,104.79,7.47Z"/><path class="cls-1" d="M118.67,6.9c.38,0,.88.08,1-.27a1.75,1.75,0,0,0-.78.15C118.83,6.79,118.67,6.74,118.67,6.9Z"/><path class="cls-1" d="M101.87,7.45s-.11.06-.07.12S101.91,7.51,101.87,7.45Z"/><path class="cls-1" d="M102.51,7.43c-.06,0-.14,0-.14.12S102.51,7.54,102.51,7.43Z"/><path class="cls-1" d="M103.15,7.53s.11-.06.07-.12S103.11,7.47,103.15,7.53Z"/><path class="cls-1" d="M103.65,7.4s-.11,0-.07.11S103.69,7.45,103.65,7.4Z"/><path class="cls-1" d="M104.5,7.36s-.11.06-.07.12S104.54,7.42,104.5,7.36Z"/><path class="cls-1" d="M117.76,7.06c.12,0,.35.1.27-.24h-.28Z"/><path class="cls-1" d="M118.24,6.92h.08C118.3,6.79,118.24,6.86,118.24,6.92Z"/><path class="cls-1" d="M117.61,7h-.14C117.08,7,117.64,7.27,117.61,7Z"/><path class="cls-1" d="M118.24,6.92c-.29-.09,0,.34,0,0Z"/><path class="cls-1" d="M118.67,6.9l-.35,0C118.29,7.11,118.71,7.09,118.67,6.9Z"/><path class="cls-1" d="M111.62,7.78c.15-.07.48.12.5-.13-.15-.18-.09,0-.29,0l-.57,0H111c0,.13.12.12.22.11C111.46,7.8,111.41,7.92,111.62,7.78Z"/><path class="cls-1" d="M69.2,8.74c-.08,0-.2,0-.21.12S69.19,8.88,69.2,8.74Z"/><path class="cls-1" d="M119.33,7.44c.1.15.43.18.42-.13C119.63,7.38,119.33,7.19,119.33,7.44Z"/><path class="cls-1" d="M74.35,8.89c.1-.07,0-.13,0,0Z"/><path class="cls-1" d="M68.92,9.54c.18-.1.56-.23.72,0C69.7,8.68,68.92,9,68.92,9.54Z"/><path class="cls-1" d="M69.63,9.08S69.74,9,69.7,9,69.59,9,69.63,9.08Z"/><path class="cls-1" d="M130.85,6.89a.29.29,0,0,0-.32.25A.3.3,0,0,0,130.85,6.89Z"/><path class="cls-1" d="M52.9,9.36S53,9.3,53,9.25,52.87,9.3,52.9,9.36Z"/><path class="cls-1" d="M127.48,7.23h-.21c-.08,0-.2,0-.21.12h.21C127.35,7.33,127.47,7.36,127.48,7.23Z"/><path class="cls-1" d="M128.46,7.28c.18.07.5-.17.57.08-.1,0-.58,0-.34.14.15-.09.55.17.47-.26,0-.25-.29,0-.42-.08S128.23,7.17,128.46,7.28Z"/><path class="cls-1" d="M130.11,7.06c-.05,0-.14,0-.13.12S130.11,7.17,130.11,7.06Z"/><path class="cls-1" d="M126.22,7.41a.31.31,0,0,0-.26.24C126.08,7.62,126.32,7.75,126.22,7.41Z"/><path class="cls-1" d="M70.49,9.29v.23h.21C70.72,9.31,70.64,9.25,70.49,9.29Z"/><path class="cls-1" d="M81.86,9.1c-.17,0-.27,0-.28.23C81.7,9.3,81.94,9.44,81.86,9.1Z"/><path class="cls-1" d="M127.21,7.47s-.14,0-.13.12S127.22,7.58,127.21,7.47Z"/><path class="cls-1" d="M121.55,8c.11,0,.26-.06.29.09s-.51,0-.28.14c.3-.08.66,0,.76-.39l-.49,0C121.73,7.88,121.32,7.9,121.55,8Z"/><path class="cls-1" d="M73.5,9.47h-.43c-.12.07-.42-.13-.43.12.14.23.34.05.5,0,.08.19.31.12.44.22s.36,0,.42-.23C73.77,9.65,73.67,9.51,73.5,9.47Z"/><path class="cls-1" d="M85.43,9.25c-.05,0-.14,0-.14.11S85.43,9.36,85.43,9.25Z"/><path class="cls-1" d="M122.53,8s-.1.06-.06.12S122.57,8,122.53,8Z"/><path class="cls-1" d="M122.67,8s-.1.06-.06.12S122.71,8,122.67,8Z"/><path class="cls-1" d="M123.09,7.93s-.1.06-.06.12S123.13,8,123.09,7.93Z"/><path class="cls-1" d="M66.07,9.8s.1-.06.07-.11S66,9.74,66.07,9.8Z"/><path class="cls-1" d="M74.15,9.69c0,.06.06.13.07,0S74.16,9.56,74.15,9.69Z"/><path class="cls-1" d="M82,9.43s-.11.06-.07.12S82,9.49,82,9.43Z"/><path class="cls-1" d="M85.72,9.35s-.11.06-.07.12S85.76,9.41,85.72,9.35Z"/><path class="cls-1" d="M74.65,9.68c-.1,0-.52,0-.29.12s.53-.09.65.1C75.08,9.52,74.78,9.73,74.65,9.68Z"/><path class="cls-1" d="M75.58,9.78c.09.11.26.1.36.22C76,9.66,75.63,9.51,75.58,9.78Z"/><path class="cls-1" d="M76,9.66c-.06.44.37.07.43.33h.43c0-.09-.08-.11-.08-.23C76.53,10,76.39,9.55,76,9.66Z"/><path class="cls-1" d="M90.79,9.35h-.14C90.26,9.33,90.82,9.67,90.79,9.35Z"/><path class="cls-1" d="M72.51,10.17h.64C73.13,9.68,72.58,10,72.51,10.17Z"/><path class="cls-1" d="M124.19,8.66V8.55l-.77,0c-.16-.06-.46-.4-.49,0C123.31,8.69,123.84,8.89,124.19,8.66Z"/><path class="cls-1" d="M131.54,7.86s-.09.06-.06.12S131.58,7.92,131.54,7.86Z"/><rect class="cls-1" x="80.37" y="9.92" width="0.14" height="0.23" transform="translate(-0.18 1.56) rotate(-1.11)"/><path class="cls-1" d="M81.66,9.89c-.06,0-.14,0-.14.12h.36c.1,0,.26,0,.28-.11h-.5Z"/><path class="cls-1" d="M83.16,9.87c-.22-.08-.26.12-.43.12s-.4-.25-.43,0c.49.26.48.13,1.08.2C83.48,9.8,83.14,10.14,83.16,9.87Z"/><path class="cls-1" d="M85.38,10s0-.18-.08-.11-.16-.24-.28,0-.08-.07-.36,0c0,0,0,.19-.07.12s-.16-.17-.43-.1c-.14-.14-.78-.29-.71.24.26.11.31,0,.65.1.32-.16.29-.05.64,0s.28-.1.57,0c.13-.2.47-.1.71-.13,0-.13.13-.1.22-.12C86.15,9.72,85.55,10,85.38,10Z"/><path class="cls-1" d="M79.88,10.15c.05,0,.14,0,.14-.11S79.88,10,79.88,10.15Z"/><path class="cls-1" d="M86.81,10.12a.62.62,0,0,0,.78-.24C87.33,10,86.85,9.71,86.81,10.12Z"/><path class="cls-1" d="M88.59,10c0-.17-.08,0,0,0Z"/><path class="cls-1" d="M89.88,9.94s.11-.06.07-.12S89.84,9.88,89.88,9.94Z"/><path class="cls-1" d="M90.09,9.82c0,.07,0,.13-.07.11v.23h.14c0-.06,0-.13.07-.11V9.81Z"/><path class="cls-1" d="M90.73,9.8h-.14C90.2,9.78,90.76,10.12,90.73,9.8Z"/><path class="cls-1" d="M128,8.33c-.06,0-.14,0-.14.13C127.89,8.43,128,8.44,128,8.33Z"/><path class="cls-1" d="M128.53,8.3c-.08,0-.2,0-.2.13C128.41,8.41,128.53,8.44,128.53,8.3Z"/><path class="cls-1" d="M86.24,10c.09.34.37-.13,0,0Z"/><path class="cls-1" d="M88.24,10.09s.11-.06.07-.12S88.2,10,88.24,10.09Z"/><path class="cls-1" d="M88.59,10c.07.19.23.24.44.21C89.08,9.77,88.74,10,88.59,10Z"/><path class="cls-1" d="M89.24,10.06c0-.16-.09,0,0,0Z"/><path class="cls-1" d="M89.24,10.06c0,.11.27.38.29.11.11,0,.27.05.28-.12C89.66,9.83,89.4,10,89.24,10.06Z"/><path class="cls-1" d="M124.19,8.66c.1.34.36-.14,0,0Z"/><rect class="cls-1" x="90.6" y="10.03" width="0.14" height="0.23" transform="translate(-0.22 2.25) rotate(-1.42)"/><path class="cls-1" d="M90.89,10.25c.22,0,.43,0,.49-.24C91.22,10.1,90.82,9.82,90.89,10.25Z"/><path class="cls-1" d="M79.67,10.5s.1-.06.07-.12S79.63,10.44,79.67,10.5Z"/><path class="cls-1" d="M80.53,10.59c.08,0,.2,0,.21-.11S80.54,10.46,80.53,10.59Z"/><path class="cls-1" d="M81.53,10.57c0,.07,0,.24.08.23S81.63,10.17,81.53,10.57Z"/><path class="cls-1" d="M82.74,10.55c.11-.07,0-.13,0,0Z"/><path class="cls-1" d="M110.56,9.63c-.1.08,0,.14,0,0Z"/><path class="cls-1" d="M82.74,10.55c-.1.08,0,.14,0,0Z"/><path class="cls-1" d="M83.89,10.64c-.07,0,0,.15.07.11S83.92,10.47,83.89,10.64Z"/><path class="cls-1" d="M95.53,10.36s.11-.06.07-.12S95.5,10.3,95.53,10.36Z"/><path class="cls-1" d="M116,9.52s-.1.06-.06.11S116.06,9.58,116,9.52Z"/><path class="cls-1" d="M85.18,10.61H85C84.64,10.59,85.2,10.93,85.18,10.61Z"/><path class="cls-1" d="M85.89,10.71c.06,0,.14,0,.14-.12S85.89,10.6,85.89,10.71Z"/><path class="cls-1" d="M87.68,10.78c.11,0,.25,0,.21-.23h-.14C87.75,10.67,87.69,10.69,87.68,10.78Z"/><path class="cls-1" d="M96.61,10.44s.1-.06.07-.12S96.57,10.38,96.61,10.44Z"/><path class="cls-1" d="M97,10.43s.1-.06.06-.12S97,10.37,97,10.43Z"/><path class="cls-1" d="M97.75,10.4s.11-.05.07-.11S97.71,10.35,97.75,10.4Z"/><path class="cls-1" d="M115.56,10.33c.1.13.12,0,.22,0s.55-.1.2-.12C115.86,10.27,115.56,10.08,115.56,10.33Z"/><path class="cls-1" d="M116.2,10.3c.06,0,.14,0,.14-.12S116.2,10.19,116.2,10.3Z"/><path class="cls-1" d="M116.55,10.17s-.14,0-.13.12S116.56,10.28,116.55,10.17Z"/><path class="cls-1" d="M115.56,10.33c-.1.08,0,.14,0,0Z"/><path class="cls-1" d="M117.9,10.23c0,.11-.05.13-.06.23C118,10.74,118.19,10.12,117.9,10.23Z"/><path class="cls-1" d="M120.32,10.23a.47.47,0,0,0-.57,0l-.85,0c-.29.35-.67,0-.83.38a3.42,3.42,0,0,0,1.21.06c.16-.19.44-.2.62-.37S120.32,10.48,120.32,10.23Z"/><path class="cls-1" d="M121.81,10.27s-.1.06-.07.12S121.85,10.33,121.81,10.27Z"/><path class="cls-1" d="M122.58,10.23s-.1.06-.06.11S122.62,10.28,122.58,10.23Z"/><path class="cls-1" d="M123.65,10.39c0-.12-.05-.28-.08-.11S123.53,10.43,123.65,10.39Z"/><path class="cls-1" d="M84.2,11.65c-.07.39.54.26.57.1C84.5,11.85,84.43,11.62,84.2,11.65Z"/><path class="cls-1" d="M122.17,10.48s.11-.06.07-.12S122.13,10.42,122.17,10.48Z"/><path class="cls-1" d="M123.15,10.31c-.08,0-.2,0-.2.12h.28c.08,0,.2,0,.2-.13Z"/><path class="cls-1" d="M85.06,11.86c.18-.15.3.33.36,0C85.37,11.79,85.07,11.59,85.06,11.86Z"/><path class="cls-1" d="M85.92,11.84c.08,0,.2,0,.21-.12C86.05,11.74,85.93,11.71,85.92,11.84Z"/><path class="cls-1" d="M86.2,11.83c.06,0,.15,0,.15-.11S86.2,11.72,86.2,11.83Z"/><path class="cls-1" d="M118.86,11c-.39.06-.5-.1-.78,0,0-.09-.06-.13-.14-.11C117.92,11.45,118.82,11.31,118.86,11Z"/><path class="cls-1" d="M119.07,10.85c-.06,0-.14,0-.14.12S119.07,11,119.07,10.85Z"/><path class="cls-1" d="M124,10.72c-.17.07-.52-.12-.56.14s.31-.26.43.09c.22-.19.31-.06.56,0,.43,0,1-.15,1.28,0,.1-.2.41-.11.63-.15a1.64,1.64,0,0,0,.78.07c.23-.06.2-.07.35,0,.4.14.71-.15,1-.17a1.32,1.32,0,0,0,.78.07c0-.35-.17-.19-.3-.21s-.22-.18-.43-.09l-.7,0-.35,0c-.11-.06-.36.15-.36-.09a1.56,1.56,0,0,1-.84.16c-.31-.12-.36.05-.64-.08-.24.25-.76.1-1.12.18C124.3,11,124.2,10.61,124,10.72Z"/><path class="cls-1" d="M129.92,10.48c-.08,0-.19,0-.2.13C129.8,10.58,129.92,10.61,129.92,10.48Z"/><path class="cls-1" d="M120.24,11.59h-.14C119.71,11.59,120.27,11.91,120.24,11.59Z"/><path class="cls-1" d="M124.45,12.16s-.14,0-.13.12S124.46,12.27,124.45,12.16Z"/><path class="cls-1" d="M125.44,12.11h-.14C124.91,12.1,125.47,12.42,125.44,12.11Z"/><path class="cls-1" d="M126,12.19h.21c.06,0,.14,0,.14-.13l-.21,0C126.09,12.1,126,12.08,126,12.19Z"/><path class="cls-1" d="M127.42,12c-.06,0-.14,0-.14.13S127.42,12.1,127.42,12Z"/><path class="cls-1" d="M127.57,12.21h.21c.06,0,.14,0,.14-.12h-.21C127.65,12.12,127.57,12.1,127.57,12.21Z"/><path class="cls-1" d="M129.89,13.09c.23-.09.66.1.76-.17-.13,0-.16-.13-.29-.09a.3.3,0,0,1-.27.13l-.42,0c-.08,0,0,.12,0,.12Z"/><path class="cls-1" d="M130.65,12.92c.29.09,0-.34,0,0Z"/><path class="cls-1" d="M134,12.56s-.1.07-.06.12S134,12.62,134,12.56Z"/><path class="cls-1" d="M122.4,13.41s-.11.06-.07.12S122.44,13.47,122.4,13.41Z"/><path class="cls-1" d="M122.61,13.4s-.11.06-.07.12S122.65,13.46,122.61,13.4Z"/><path class="cls-1" d="M129,13s-.1.06-.06.11S129.08,13.09,129,13Z"/><polygon class="cls-1" points="119.17 14.36 119.31 14.36 119.3 14.13 119.16 14.14 119.17 14.36"/><path class="cls-1" d="M119.37,14.24c0,.06.07.13.08,0S119.38,14.11,119.37,14.24Z"/><path class="cls-1" d="M122.36,14.1c-.14-.4-.2.38,0,0Z"/><path class="cls-1" d="M124.48,13.86c-.06,0-.14,0-.14.12S124.48,14,124.48,13.86Z"/><path class="cls-1" d="M119.81,14.33s.1-.06.06-.11S119.77,14.28,119.81,14.33Z"/><path class="cls-1" d="M120.94,14.17s-.1.06-.06.12S121,14.23,120.94,14.17Z"/><path class="cls-1" d="M121.58,14.14s-.14,0-.14.12S121.59,14.25,121.58,14.14Z"/><path class="cls-1" d="M122.44,14.21c0-.1,0-.11-.08-.11S122.39,14.2,122.44,14.21Z"/><path class="cls-1" d="M122.44,14.21c0,.16.08,0,0,0Z"/><path class="cls-1" d="M122.94,14.29s-.14,0-.14.12S122.94,14.4,122.94,14.29Z"/><path class="cls-1" d="M123.94,14.35c-.09,0-.21,0-.21.12C123.81,14.45,123.93,14.48,123.94,14.35Z"/><path class="cls-1" d="M132.14,15.09c.46.09.13-.36,0,0Z"/><path class="cls-1" d="M133.11,14.9H133C132.58,14.91,133.15,15.22,133.11,14.9Z"/><path class="cls-1" d="M132.14,15.09c-.3-.09,0,.33,0,0Z"/><path class="cls-1" d="M127.74,16.17c.15-.07.51.16.42-.25l-.43,0Z"/><path class="cls-1" d="M128.45,16.13c0-.33.24.06.36,0C128.9,15.66,128.11,15.93,128.45,16.13Z"/><path class="cls-1" d="M128.94,16c0,.06.07.13.07,0S129,15.86,128.94,16Z"/><path class="cls-1" d="M129.72,15.94c-.05-.08-.41-.22-.42,0C129.47,15.84,129.66,16.29,129.72,15.94Z"/><path class="cls-1" d="M134.58,15.59h-.21c-.06,0-.14,0-.13.13l.21,0C134.5,15.68,134.59,15.7,134.58,15.59Z"/><path class="cls-1" d="M129.24,16.2s.11-.06.07-.12S129.2,16.14,129.24,16.2Z"/><path class="cls-1" d="M131.14,16s-.14,0-.14.13C131.06,16,131.14,16.06,131.14,16Z"/><path class="cls-1" d="M133.54,15.89c-.1.07-.37-.11-.34.14C133.29,16,133.57,16.13,133.54,15.89Z"/><path class="cls-1" d="M135.38,15.87c-.08,0-.2,0-.2.13C135.26,16,135.38,16,135.38,15.87Z"/><path class="cls-1" d="M128.2,17.73c-.12,0-.27.07-.3-.09h-.14C127.56,18.08,128.12,18,128.2,17.73Z"/><path class="cls-1" d="M135.06,17.14c-.33.26-1,0-1.33.33-.18-.24-.44,0-.4.37.22.22.52-.13.77-.17a.3.3,0,0,1,.3.09C134.52,17.4,134.94,17.68,135.06,17.14Z"/><path class="cls-1" d="M135.28,17.24c0-.11-.14-.13-.14,0S135.22,17.31,135.28,17.24Z"/><path class="cls-1" d="M127.13,17.79s-.11.06-.07.12S127.17,17.85,127.13,17.79Z"/><path class="cls-1" d="M129.12,17.68s-.1.06-.06.12S129.16,17.74,129.12,17.68Z"/><path class="cls-1" d="M133.09,17.4l-.29,0c0,.2-.33,0-.33.25l.28,0C132.78,17.45,133.08,17.63,133.09,17.4Z"/><path class="cls-1" d="M131.62,17.73h-.15C131.09,17.74,131.65,18.05,131.62,17.73Z"/><path class="cls-1" d="M132.11,17.7c-.05,0-.14,0-.13.12S132.12,17.81,132.11,17.7Z"/><path class="cls-1" d="M132.22,18.26c.12-.12.35-.07.41-.26C132.44,18,132.21,18,132.22,18.26Z"/><path class="cls-1" d="M131.23,18.33c-.08,0-.2,0-.2.13C131.11,18.43,131.23,18.46,131.23,18.33Z"/><path class="cls-1" d="M132.82,18.55c0,.07.06.13.07,0S132.82,18.42,132.82,18.55Z"/><path class="cls-1" d="M133.3,18.4s-.1.07-.06.12S133.35,18.46,133.3,18.4Z"/><path class="cls-1" d="M134.45,18.44c-.32-.38-.14.37,0,0Z"/><path class="cls-1" d="M134.86,18.29c-.08,0-.2,0-.2.13C134.74,18.4,134.86,18.42,134.86,18.29Z"/><path class="cls-1" d="M132.32,18.59s-.14,0-.13.12S132.32,18.7,132.32,18.59Z"/><path class="cls-1" d="M132.47,18.69c.05,0,.14,0,.13-.12S132.46,18.58,132.47,18.69Z"/><path class="cls-1" d="M131.28,19a.55.55,0,0,0,.55-.27.33.33,0,0,0-.35.14C131.4,18.9,131.28,18.87,131.28,19Z"/><path class="cls-1" d="M130.85,19a.3.3,0,0,1-.29-.1C130.47,19.27,130.89,19.24,130.85,19Z"/><path class="cls-1" d="M130.66,19.39c.1-.08,0-.13,0,0Z"/><path class="cls-1" d="M130.66,19.39c-.46-.1-.13.36,0,0Z"/><path class="cls-1" d="M135.11,19.52a12.35,12.35,0,0,1-1.56.23.84.84,0,0,1-.56.15c-.12.12-.36.07-.41.26a6.7,6.7,0,0,0,1.69-.35C134.57,19.75,135,19.89,135.11,19.52Z"/><path class="cls-1" d="M136.25,19.44c-.06,0-.15,0-.14.12S136.25,19.55,136.25,19.44Z"/><path class="cls-1" d="M132.14,20.08s.1-.06.06-.12S132.1,20,132.14,20.08Z"/><path class="cls-1" d="M133.31,20.45c.05,0,.3.26.29,0C133.47,20.54,133.34,20.11,133.31,20.45Z"/><path class="cls-1" d="M133.24,20.45c-.16.08-.53-.1-.56.16l-.29,0c-.1,0-.27,0-.13.12l.57,0C132.86,20.48,133.23,20.71,133.24,20.45Z"/><path class="cls-1" d="M129.87,21.49c-.06,0-.14,0-.14.13S129.87,21.6,129.87,21.49Z"/><path class="cls-1" d="M134.16,22.09c0-.11-.14-.13-.15,0C134.09,22.08,134.14,22.26,134.16,22.09Z"/><path class="cls-1" d="M133.58,22.13c-.18.06-.39.09-.48.26C133.32,22.53,133.52,22.46,133.58,22.13Z"/><path class="cls-1" d="M133.66,22.24s.11-.06.07-.12S133.62,22.18,133.66,22.24Z"/><path class="cls-1" d="M132.32,22.56c-.25-.07-.4.2-.07.12s.37-.05.42-.26C132.46,22.35,132.49,22.6,132.32,22.56Z"/><path class="cls-1" d="M130.19,23.17h-.14C129.65,23.18,130.23,23.49,130.19,23.17Z"/><path class="cls-1" d="M130.8,23.58s.1-.06.06-.12S130.76,23.53,130.8,23.58Z"/><path class="cls-1" d="M131.4,24c.09,0,.21,0,.21-.13C131.53,23.89,131.41,23.86,131.4,24Z"/><path class="cls-1" d="M132.8,24.23c-.06,0-.14,0-.14.13S132.8,24.34,132.8,24.23Z"/><path class="cls-1" d="M136.31,24.54c-.4,0,.18.31.14,0Z"/><path class="cls-1" d="M135.89,24.8c.06,0,.14,0,.14-.12S135.89,24.69,135.89,24.8Z"/><path class="cls-1" d="M135.1,24.86c-.4-.09-.06.35,0,0Z"/><path class="cls-1" d="M135.25,25c.05,0,.14,0,.14-.12S135.24,24.85,135.25,25Z"/><path class="cls-1" d="M132.5,26.18s-.1.07-.06.12S132.54,26.24,132.5,26.18Z"/><path class="cls-1" d="M133.63,26.67l0,.22c.1.3.27-.17.34-.25Z"/><path class="cls-1" d="M133.3,27.15c.06,0,.15,0,.14-.13S133.3,27,133.3,27.15Z"/><path class="cls-1" d="M129.89,27.51c.05,0,.14,0,.14-.13S129.89,27.4,129.89,27.51Z"/><path class="cls-1" d="M135.26,27.8c.13,0,.14-.15.28-.13l0-.23C135.38,27.5,135.21,27.5,135.26,27.8Z"/><path class="cls-1" d="M135.88,27.41s-.1.06-.06.12S135.93,27.47,135.88,27.41Z"/><path class="cls-1" d="M135.54,27.67c.06.16.08,0,0,0Z"/><path class="cls-1" d="M134.32,28s.1-.06.06-.12S134.27,27.93,134.32,28Z"/><path class="cls-1" d="M135.11,27.81c-.05,0-.14,0-.14.12S135.12,27.92,135.11,27.81Z"/><path class="cls-1" d="M134.24,28c-.08,0-.21,0-.21.13C134.12,28.09,134.24,28.12,134.24,28Z"/><path class="cls-1" d="M133.81,28.13h-.14C133.27,28.14,133.85,28.45,133.81,28.13Z"/><path class="cls-1" d="M133.25,28.4s.1-.06.06-.12S133.2,28.34,133.25,28.4Z"/><path class="cls-1" d="M133,28.42h-.14C132.41,28.43,133,28.74,133,28.42Z"/><path class="cls-1" d="M134.14,28.56a.31.31,0,0,1,.3.09C134.53,28.33,134.1,28.36,134.14,28.56Z"/><path class="cls-1" d="M132.2,29.16c.22-.19.65-.09.78-.4C132.71,28.89,132.29,28.79,132.2,29.16Z"/><path class="cls-1" d="M133.49,28.72c-.05,0-.14,0-.14.13S133.5,28.83,133.49,28.72Z"/><path class="cls-1" d="M135.68,28.56s-.1.07-.06.12S135.73,28.62,135.68,28.56Z"/><path class="cls-1" d="M135,28.84c.4.09.06-.35,0,0Z"/><path class="cls-1" d="M133.76,29.38c.36-.11.66-.28,1-.41.11,0,.28,0,.28-.13l-.44,0C134.37,29.11,133.9,29,133.76,29.38Z"/><path class="cls-1" d="M131.78,29.53c-.39-.1-.06.35,0,0Z"/><path class="cls-1" d="M133.4,29.52c.18.09.33-.18.07-.11l-.52,0c0,.09,0,.14-.13.13-.1.28.27.31.22.09C133.26,29.74,133.22,29.49,133.4,29.52Z"/><path class="cls-1" d="M127.93,30c-.15-.22-.27,0-.44,0a.72.72,0,0,0,.1.34.52.52,0,0,0-.5.25c.28.07.3-.21.58-.14C127.57,30.06,128,30.35,127.93,30Z"/><path class="cls-1" d="M131.35,29.67s-.14,0-.14.13S131.36,29.78,131.35,29.67Z"/><path class="cls-1" d="M126.92,30.17s-.11.06-.07.11S127,30.23,126.92,30.17Z"/><path class="cls-1" d="M130.93,30c0,.22-.06.26,0,.46.21.07.13-.23.28-.25.07.34.15-.12.29,0,.3-.12.92.2.86-.4C131.65,29.84,131.46,30.27,130.93,30Z"/><path class="cls-1" d="M130.72,30.17c-.33,0-.48-.17-.49.38C130.46,30.52,130.8,30.62,130.72,30.17Z"/><path class="cls-1" d="M127.88,30.34s-.11.06-.07.12S127.92,30.4,127.88,30.34Z"/><path class="cls-1" d="M129.81,30.8c0-.25.45,0,.33-.47-.14,0-.13.16-.2.23,0-.14-.11-.22-.23-.21s-.6,0-.36.13C129.6,30.41,129.68,30.65,129.81,30.8Z"/><path class="cls-1" d="M128.85,30.63c.08,0,.2,0,.21-.13C129,30.52,128.85,30.49,128.85,30.63Z"/><path class="cls-1" d="M128.2,30.78c.08,0,.2,0,.21-.13C128.32,30.67,128.2,30.64,128.2,30.78Z"/><path class="cls-1" d="M129.37,30.82c-.09,0-.11-.14-.23-.1C129.05,31,129.41,31,129.37,30.82Z"/><path class="cls-1" d="M129.44,30.82c.06,0,.15,0,.14-.12S129.44,30.71,129.44,30.82Z"/><path class="cls-1" d="M132.24,30.86c-.37-.29-.15.38,0,0Z"/><path class="cls-1" d="M132.82,30.7l-.22,0s-.14,0-.14.12l.22,0C132.74,30.79,132.83,30.81,132.82,30.7Z"/><path class="cls-1" d="M134.52,30.69c-.08,0-.21,0-.21.13S134.52,30.82,134.52,30.69Z"/><path class="cls-1" d="M122.76,31.65c.31.09,0-.34,0,0Z"/><path class="cls-1" d="M129.83,31.14c-.06,0-.15,0-.14.12S129.83,31.25,129.83,31.14Z"/><path class="cls-1" d="M131.82,31.11s.11-.06.06-.11S131.78,31.06,131.82,31.11Z"/><path class="cls-1" d="M129.33,31.28h-.15C128.78,31.28,129.36,31.6,129.33,31.28Z"/><path class="cls-1" d="M128,31.58s.11-.06.07-.11S127.91,31.53,128,31.58Z"/><path class="cls-1" d="M128.68,31.43c-.06,0-.15,0-.14.12S128.68,31.54,128.68,31.43Z"/><path class="cls-1" d="M129.86,31.59c.19-.09.45-.07.57-.26C130.25,31.43,129.78,31.15,129.86,31.59Z"/><path class="cls-1" d="M129.12,31.52s-.11.06-.07.12S129.16,31.58,129.12,31.52Z"/><path class="cls-1" d="M128.48,31.78c.05,0,.14,0,.14-.12S128.47,31.67,128.48,31.78Z"/><path class="cls-1" d="M136.12,31.26c.06,0,.14,0,.14-.13S136.11,31.15,136.12,31.26Z"/><path class="cls-1" d="M135.61,31.41l.22,0c.06,0,.15,0,.14-.12h-.22C135.7,31.31,135.61,31.3,135.61,31.41Z"/><path class="cls-1" d="M135.39,31.42h-.15C134.84,31.43,135.43,31.74,135.39,31.42Z"/><path class="cls-1" d="M133.66,32c.1-.07,0-.13,0,0Z"/><path class="cls-1" d="M133.29,32a.58.58,0,0,0-.58.27C132.93,32.25,133.3,32.38,133.29,32Z"/><path class="cls-1" d="M133.66,32c-.11.08,0,.14,0,0Z"/><path class="cls-1" d="M132.43,32.43s.1-.06.06-.12S132.38,32.38,132.43,32.43Z"/><path class="cls-1" d="M131.19,32.86l.52,0c0-.27.52.06.42-.37C131.87,32.65,131.37,32.37,131.19,32.86Z"/><path class="cls-1" d="M132.37,32.66c.1-.07,0-.13,0,0Z"/><path class="cls-1" d="M132.37,32.66c-.1.08,0,.14,0,0Z"/><path class="cls-1" d="M126.29,33.15l-.3,0h-.14c-.32,0,0,.19.15.1S126.27,33.31,126.29,33.15Z"/><path class="cls-1" d="M128.56,33.14s.11-.06.07-.12S128.52,33.08,128.56,33.14Z"/><path class="cls-1" d="M131.05,32.87c-.09,0-.22,0-.22.13C130.92,33,131,33,131.05,32.87Z"/><path class="cls-1" d="M130.32,33s-.11.06-.07.12S130.36,33.09,130.32,33Z"/><path class="cls-1" d="M127,33.34c-.09,0-.21,0-.21.12C126.9,33.44,127,33.47,127,33.34Z"/><path class="cls-1" d="M129.08,33.22a.32.32,0,0,0-.29.13c-.09,0-.45,0-.21.13S129.09,33.55,129.08,33.22Z"/><path class="cls-1" d="M129.37,33.21s-.11.06-.06.11S129.41,33.26,129.37,33.21Z"/><path class="cls-1" d="M130,33.17c-.06,0-.15,0-.14.12S130,33.28,130,33.17Z"/><path class="cls-1" d="M125.51,33.65h-.15c0,.11,0,.14-.06.23S125.55,33.89,125.51,33.65Z"/><path class="cls-1" d="M125.9,34.08s.14,0,.14-.12S125.89,34,125.9,34.08Z"/><path class="cls-1" d="M124.73,34.26s.11-.06.07-.11S124.69,34.21,124.73,34.26Z"/><path class="cls-1" d="M125.46,34.11c0,.22-.09.23-.13.35.17.23.4,0,.43-.26C125.66,34.17,125.61,34.05,125.46,34.11Z"/><path class="cls-1" d="M126.42,34.28c.11,0,.28,0,.29-.13h-.15S126.42,34.17,126.42,34.28Z"/><path class="cls-1" d="M126.13,34.3s-.14,0-.14.12S126.13,34.41,126.13,34.3Z"/><path class="cls-1" d="M125.11,34.47H125C124.56,34.47,125.14,34.79,125.11,34.47Z"/><path class="cls-1" d="M128.8,34.6c-.17,0-.28,0-.28.24A.32.32,0,0,0,128.8,34.6Z"/><path class="cls-1" d="M131,35.15c-.3,0-.57.07-.64.38l.44,0C130.63,35.11,131,35.42,131,35.15Z"/><path class="cls-1" d="M134.32,34.91c0,.24-.26.07-.37.14-.12.22-.13-.06-.37,0-.08.14-.25.15-.44.15-.12.28-.41.35-.55.61a8.36,8.36,0,0,0,1.39-.44l.37,0c0-.23.42,0,.43-.26C134.55,35.17,134.59,34.77,134.32,34.91Z"/><path class="cls-1" d="M128.64,35.63s-.11.06-.07.12S128.68,35.68,128.64,35.63Z"/><path class="cls-1" d="M125.27,36.05h-.15c.06.26-.63,0-.35.24.27-.09.74.11.88-.16C125.44,36.24,125.45,36,125.27,36.05Z"/><path class="cls-1" d="M126.23,36c-.13.15-.43,0-.51.26C125.93,36.22,126.23,36.32,126.23,36Z"/><path class="cls-1" d="M124.18,36.34l.22,0c.06,0,.15,0,.14-.12h-.22S124.18,36.23,124.18,36.34Z"/><path class="cls-1" d="M127,36.18s-.1.06-.06.11S127,36.23,127,36.18Z"/><path class="cls-1" d="M131.18,36s.11-.06.07-.11S131.14,36,131.18,36Z"/><path class="cls-1" d="M130.59,36.2c.09,0,.21,0,.22-.13C130.72,36.1,130.59,36.06,130.59,36.2Z"/><path class="cls-1" d="M125.44,36.49s-.11.06-.06.12S125.48,36.55,125.44,36.49Z"/><path class="cls-1" d="M123.76,36.7s-.11.06-.07.12S123.8,36.76,123.76,36.7Z"/><path class="cls-1" d="M131.67,36.69c-.06,0-.15,0-.14.12l.37,0c.11,0,.28,0,.29-.13l-.37,0Z"/><path class="cls-1" d="M131.48,37.16c.31.08,0-.34,0,0Z"/><path class="cls-1" d="M131.46,39.2c-.1-.12-.27-.11-.46-.08a.86.86,0,0,1-.05.35c.23.06.27-.14.44-.15s.4.1.37-.14S131.67,39.2,131.46,39.2Z"/><path class="cls-1" d="M132,39.16c0,.12.14.14.15,0C132.05,39.17,132,39,132,39.16Z"/><path class="cls-1" d="M130.87,39.47c0-.12-.05-.29-.08-.11C130.72,39.37,130.74,39.51,130.87,39.47Z"/><path class="cls-1" d="M129.91,39.52s.11-.06.07-.11S129.87,39.47,129.91,39.52Z"/><path class="cls-1" d="M120.84,41.72s-.1.06-.06.11S120.89,41.77,120.84,41.72Z"/><path class="cls-1" d="M120.56,42c.31.09,0-.34,0,0Z"/><path class="cls-1" d="M126.1,41.67c-.16.08-.25-.31-.21.13C126,41.8,126.1,41.8,126.1,41.67Z"/><path class="cls-1" d="M126.54,41.53c-.13.07-.44-.11-.44.14C126.23,41.6,126.54,41.78,126.54,41.53Z"/><path class="cls-1" d="M129.36,41.49c.09,0,.22,0,.22-.13C129.49,41.38,129.37,41.35,129.36,41.49Z"/><path class="cls-1" d="M121,42.05s-.11.06-.07.12S121.05,42.11,121,42.05Z"/><path class="cls-1" d="M127.23,41.83s.11-.06.06-.11S127.18,41.78,127.23,41.83Z"/><path class="cls-1" d="M127.44,41.71s-.11.06-.07.11S127.48,41.76,127.44,41.71Z"/><path class="cls-1" d="M126.48,41.88h-.22c-.05,0-.14,0-.14.12h.22C126.4,42,126.49,42,126.48,41.88Z"/><path class="cls-1" d="M125.9,42c0,.16.09,0,0,0Z"/><path class="cls-1" d="M127.61,42c.32.09,0-.34,0,0Z"/><path class="cls-1" d="M126.88,42.19h.22c.05,0,.14,0,.14-.12H127C127,42.1,126.87,42.08,126.88,42.19Z"/><path class="cls-1" d="M127.61,42c-.31-.09,0,.34,0,0Z"/><path class="cls-1" d="M11.86,44s-.11,0-.07.11S11.9,44.08,11.86,44Z"/><path class="cls-1" d="M129.81,42.59s.1-.06.06-.11S129.76,42.54,129.81,42.59Z"/><path class="cls-1" d="M123.79,43.05c.06,0,.15,0,.14-.12S123.79,42.94,123.79,43.05Z"/><path class="cls-1" d="M128.62,42.78c.06,0,.15,0,.15-.13S128.62,42.66,128.62,42.78Z"/><path class="cls-1" d="M129.14,42.75c.06,0,.15,0,.15-.13S129.14,42.64,129.14,42.75Z"/><path class="cls-1" d="M129.59,42.72c.06,0,.15,0,.14-.12S129.59,42.61,129.59,42.72Z"/><path class="cls-1" d="M.63,45.44c0-.09,0-.1-.07-.11s-.28.05-.29-.12c.36,0,.86.14,1.11-.08.08.13.26.13.44.12s.44.17.37-.22c-.17-.05-.16.21-.37.11a2.06,2.06,0,0,0-1-.26,5.91,5.91,0,0,0-.8-.39v.94Z"/><path class="cls-1" d="M.62,45.78c-.18,0-.15-.21-.37-.12,0-.22-.16-.08-.25-.11V46c.87,0,1.39.41,2.23.41,0-.59.52.26.67-.2A3.45,3.45,0,0,0,1.06,46a.54.54,0,0,0-.22-.23c0-.23,0-.35-.14-.34H.63C.6,45.64.73,45.74.62,45.78Z"/><path class="cls-1" d="M2.73,44.48c-.09,0-.21,0-.23.11C2.59,44.57,2.71,44.61,2.73,44.48Z"/><path class="cls-1" d="M20.05,44.83c-.1.07,0,.14,0,0Z"/><path class="cls-1" d="M2.79,44.71H3s.14,0,.15-.11H3C2.89,44.63,2.8,44.6,2.79,44.71Z"/><path class="cls-1" d="M118.43,43.64s.11-.06.07-.11S118.39,43.58,118.43,43.64Z"/><path class="cls-1" d="M123.07,43.43s.11-.06.06-.12S123,43.37,123.07,43.43Z"/><path class="cls-1" d="M3.46,44.73s-.11.05-.08.11S3.5,44.79,3.46,44.73Z"/><path class="cls-1" d="M3.6,44.84s.12-.05.08-.11S3.57,44.79,3.6,44.84Z"/><path class="cls-1" d="M4.19,44.86s.12,0,.08-.11S4.16,44.8,4.19,44.86Z"/><path class="cls-1" d="M5.15,44.89c.11,0,.27,0,.3-.11H5.3C5.24,44.8,5.16,44.78,5.15,44.89Z"/><path class="cls-1" d="M5.52,44.9c.06,0,.15,0,.15-.11S5.53,44.79,5.52,44.9Z"/><path class="cls-1" d="M5.89,44.91c.3.11,0-.34,0,0Z"/><path class="cls-1" d="M30.19,45.38c.13,0,.37.11.3-.23C30.32,45.12,30.21,45.18,30.19,45.38Z"/><path class="cls-1" d="M2.12,44.92s.12-.05.08-.11S2.09,44.86,2.12,44.92Z"/><path class="cls-1" d="M5.89,44.91c-.09,0-.13,0-.15.11s0,.34.14.34S6,45.18,6,45C6,45,5.9,45,5.89,44.91Z"/><path class="cls-1" d="M29.25,45.37s.11,0,.07-.11S29.21,45.31,29.25,45.37Z"/><path class="cls-1" d="M37.77,45.4s.11,0,.07-.11S37.73,45.35,37.77,45.4Z"/><path class="cls-1" d="M62.36,45.29s.11,0,.07-.11S62.32,45.24,62.36,45.29Z"/><path class="cls-1" d="M62.51,45.29c.05,0,.14,0,.14-.11S62.51,45.18,62.51,45.29Z"/><path class="cls-1" d="M3.52,45.07c-.25-.09-.1.46-.38.33-.2.08-.14-.23-.28-.23s-.07.12-.08,0h.08c0-.14,0-.21-.07-.23,0,.25-.37,0-.52.1,0,.57.62.32.87.59.18-.07.53.15.59-.1C3.61,45.41,3.34,45.32,3.52,45.07Z"/><rect class="cls-1" x="3.12" y="44.99" width="0.23" height="0.15" transform="translate(-41.91 47) rotate(-88.36)"/><path class="cls-1" d="M4.33,45.09s.12-.05.08-.11S4.3,45,4.33,45.09Z"/><path class="cls-1" d="M14.26,45.19s-.11.06-.07.12S14.3,45.25,14.26,45.19Z"/><path class="cls-1" d="M14.33,45.31c.06,0,.15,0,.15-.11S14.34,45.2,14.33,45.31Z"/><path class="cls-1" d="M60.69,45.42s.11-.05.07-.11S60.65,45.36,60.69,45.42Z"/><path class="cls-1" d="M63.89,45.39c.18-.13.35.34.43,0C64.27,45.29,63.92,45.13,63.89,45.39Z"/><path class="cls-1" d="M65.41,45.37c0-.19-.55-.18-.58,0C65,45.34,65.46,45.79,65.41,45.37Z"/><path class="cls-1" d="M65.56,45.36c0-.16-.09,0,0,0Z"/><path class="cls-1" d="M3.67,45.19s.11,0,.07-.11S3.63,45.13,3.67,45.19Z"/><path class="cls-1" d="M5.14,45.23c.06,0,.15,0,.15-.11S5.15,45.12,5.14,45.23Z"/><path class="cls-1" d="M6.25,45.37c0-.12.15-.07.15-.22C6.25,45,6,45.32,6.25,45.37Z"/><path class="cls-1" d="M9.64,45.34v-.11C9.46,45.21,9.51,45.36,9.64,45.34Z"/><path class="cls-1" d="M38.64,45.63c.06,0,.15,0,.15-.11S38.65,45.52,38.64,45.63Z"/><path class="cls-1" d="M38.94,45.63s.11-.05.07-.11S38.9,45.57,38.94,45.63Z"/><path class="cls-1" d="M42.65,45.52c0,.16.09,0,0,0Z"/><path class="cls-1" d="M42.87,45.63c.05,0,.14,0,.14-.12C43,45.54,42.87,45.52,42.87,45.63Z"/><path class="cls-1" d="M47.3,45.51c0,.33.31-.11,0,0Z"/><path class="cls-1" d="M48.76,45.5h-.14c-.06,0-.15,0-.15.12S48.74,45.66,48.76,45.5Z"/><path class="cls-1" d="M49.42,45.61s.14,0,.14-.11S49.42,45.5,49.42,45.61Z"/><path class="cls-1" d="M49.78,45.61s.11,0,.07-.11S49.74,45.55,49.78,45.61Z"/><path class="cls-1" d="M60.33,45.54c.05,0,.14,0,.14-.12S60.33,45.43,60.33,45.54Z"/><path class="cls-1" d="M62.65,45.52c.09,0,.21,0,.22-.12C62.78,45.42,62.66,45.38,62.65,45.52Z"/><path class="cls-1" d="M63.16,45.51c.09,0,.21,0,.22-.12C63.29,45.41,63.17,45.38,63.16,45.51Z"/><path class="cls-1" d="M63.53,45.5s.14,0,.14-.11S63.53,45.39,63.53,45.5Z"/><path class="cls-1" d="M63.89,45.39c-.31-.11,0,.34,0,0Z"/><path class="cls-1" d="M65.56,45.36c0,.17.09,0,0,0Z"/><path class="cls-1" d="M14.62,45.54s.11,0,.08-.11S14.59,45.48,14.62,45.54Z"/><path class="cls-1" d="M22.23,45.53c-.42-.06-.87,0-1.31,0-.12,0-.28-.06-.29.11h.29c.08,0,0,.23.14.23s0-.13.08-.11c.09-.31.38,0,.51,0s.26-.12.44-.11a2.09,2.09,0,0,0,1.09.13c.23,0,.55.12.59-.22a6.08,6.08,0,0,1-1.17.1C22.47,45.64,22.36,45.55,22.23,45.53Z"/><path class="cls-1" d="M24.5,45.67h-.22c-.08,0-.19,0-.08.11a13.58,13.58,0,0,0,2.85,0c.25,0,.31.2.44-.11l-2.77,0C24.69,45.48,24.62,45.69,24.5,45.67Z"/><path class="cls-1" d="M14.4,45.65s.11,0,.08-.11S14.36,45.59,14.4,45.65Z"/><path class="cls-1" d="M48.25,45.84c.06,0,.15,0,.15-.11S48.25,45.73,48.25,45.84Z"/><path class="cls-1" d="M48.76,45.73c-.08,0-.2,0-.22.11h.8c.09,0,.21,0,.22-.11h-.8Z"/><path class="cls-1" d="M49.78,45.84c.11-.07,0-.14,0,0Z"/><path class="cls-1" d="M50,45.84h.22c.05,0,.14,0,.14-.12h-.22S50,45.73,50,45.84Z"/><path class="cls-1" d="M50.51,45.84c-.08,0-.06.14.07.11S50.55,45.66,50.51,45.84Z"/><path class="cls-1" d="M50.87,45.83c0-.16-.08,0,0,0Z"/><path class="cls-1" d="M51.75,45.94c.12,0,.18-.09.21-.23S51.71,45.7,51.75,45.94Z"/><path class="cls-1" d="M72.4,45.5h-.22A.11.11,0,0,0,72.4,45.5Z"/><path class="cls-1" d="M73.93,45.59s.11-.05.07-.11S73.89,45.53,73.93,45.59Z"/><path class="cls-1" d="M10.88,45.7h.22c.06,0,.14,0,.15-.11H11C11,45.61,10.88,45.59,10.88,45.7Z"/><path class="cls-1" d="M16.89,45.81c.09,0,.21,0,.22-.11S16.91,45.67,16.89,45.81Z"/><path class="cls-1" d="M17.33,45.81c.06,0,.15,0,.15-.11S17.34,45.7,17.33,45.81Z"/><path class="cls-1" d="M19.68,45.73c.08.35.38-.12,0,0Z"/><path class="cls-1" d="M21.06,45.86c0,.31.23.2.29,0a.24.24,0,0,0-.21-.11C21.15,45.84,21.11,45.85,21.06,45.86Z"/><path class="cls-1" d="M27.56,45.93c.06,0,.15,0,.15-.12S27.57,45.82,27.56,45.93Z"/><path class="cls-1" d="M28.37,45.82h-.44c-.06,0-.14,0-.15.11H30c.11,0,.27,0,.3-.11h-2Z"/><path class="cls-1" d="M30.63,45.94c0-.33-.31.11,0,0Z"/><path class="cls-1" d="M32.45,46h-1a.9.9,0,0,0-.8,0v.12H33A.06.06,0,0,0,33,46Z"/><path class="cls-1" d="M49.78,45.84c-.1.07,0,.14,0,0Z"/><path class="cls-1" d="M50.87,45.83c.16.35.47-.13,0,0Z"/><path class="cls-1" d="M74.44,45.7s.11-.06.07-.12S74.4,45.64,74.44,45.7Z"/><path class="cls-1" d="M74.58,45.69c.06,0,.15,0,.15-.11S74.59,45.58,74.58,45.69Z"/><path class="cls-1" d="M75,45.69s.11-.06.07-.12S74.91,45.63,75,45.69Z"/><path class="cls-1" d="M75.17,45.68s.14,0,.14-.11S75.17,45.57,75.17,45.68Z"/><path class="cls-1" d="M120.45,44.23l-.37,0v.11C120.19,44.29,120.47,44.47,120.45,44.23Z"/><path class="cls-1" d="M130.17,43.71a12.06,12.06,0,0,1-2,.45.55.55,0,0,1-.51.26c.15.43-.31,0-.27.35,1.12,0,1.63-.45,2.73-.61.1-.24.44-.16.57-.37C130.43,43.66,130.43,43.81,130.17,43.71Z"/><path class="cls-1" d="M130.7,43.79c.4.1.07-.35,0,0Z"/><path class="cls-1" d="M3.88,45.64c0-.16-.09,0,0,0Z"/><path class="cls-1" d="M12.27,45.84c.09,0,.21,0,.22-.11C12.41,45.75,12.28,45.71,12.27,45.84Z"/><path class="cls-1" d="M17.7,45.93c.08,0,.2,0,.22-.11C17.83,45.84,17.71,45.8,17.7,45.93Z"/><path class="cls-1" d="M33.4,46.07c.08,0,.2,0,.21-.12C33.53,46,33.41,45.93,33.4,46.07Z"/><path class="cls-1" d="M101.91,45.17h-.44c0-.18-.27,0-.29.13C101.35,45.29,102.37,45.33,101.91,45.17Z"/><path class="cls-1" d="M119.65,44.49c.13-.07.44.12.44-.13C120,44.43,119.65,44.24,119.65,44.49Z"/><path class="cls-1" d="M3.88,45.64c0,.1,0,.11.07.12.28-.08.35.15.58.13C4.57,45.43,4.08,45.75,3.88,45.64Z"/><path class="cls-1" d="M12.85,46c.09,0,.21,0,.23-.11S12.87,45.83,12.85,46Z"/><path class="cls-1" d="M20.62,46.2a.32.32,0,0,0,.29-.23C20.75,45.94,20.64,46,20.62,46.2Z"/><path class="cls-1" d="M21.42,46.09c.09,0,.21,0,.23-.11C21.56,46,21.44,46,21.42,46.09Z"/><path class="cls-1" d="M23.1,46.11c0,.06.06.13.08,0S23.12,46,23.1,46.11Z"/><path class="cls-1" d="M24.42,46.12c0-.34-.3.11,0,0Z"/><path class="cls-1" d="M33.69,46.18c.05,0,.14,0,.14-.11S33.69,46.07,33.69,46.18Z"/><path class="cls-1" d="M34.05,46.07s-.14,0-.14.11S34.05,46.18,34.05,46.07Z"/><path class="cls-1" d="M34.34,46.07c-.05,0-.14,0-.14.11h.65c.06,0,.15,0,.15-.12h-.66Z"/><path class="cls-1" d="M35.15,46.19s.11-.06.07-.12S35.11,46.13,35.15,46.19Z"/><path class="cls-1" d="M35.44,46.07c-.06,0-.15,0-.15.12H36s.14,0,.14-.11h-.65Z"/><path class="cls-1" d="M36.46,46.19s.11,0,.07-.11S36.42,46.13,36.46,46.19Z"/><path class="cls-1" d="M36.68,46.19h.21c.09,0,.21,0,.22-.11h-.22C36.81,46.1,36.69,46.06,36.68,46.19Z"/><path class="cls-1" d="M38.28,46.2c-.16-.35-.47.13,0,0Z"/><path class="cls-1" d="M39.23,46.2s.11-.05.07-.11S39.19,46.14,39.23,46.2Z"/><path class="cls-1" d="M96.36,45.34c-.06,0-.14,0-.14.11S96.36,45.45,96.36,45.34Z"/><path class="cls-1" d="M97.31,45.31h-.15C96.76,45.29,97.33,45.63,97.31,45.31Z"/><path class="cls-1" d="M98.92,45.37s.11,0,.07-.11S98.88,45.32,98.92,45.37Z"/><path class="cls-1" d="M100.67,45.21c-.06,0-.15,0-.15.12S100.67,45.32,100.67,45.21Z"/><path class="cls-1" d="M101,45.2h-.15C100.48,45.18,101.05,45.52,101,45.2Z"/><path class="cls-1" d="M108.42,45.07c0-.17-.09,0,0,0Z"/><path class="cls-1" d="M119.29,44.62c.1-.06.38.12.36-.13C119.55,44.56,119.26,44.38,119.29,44.62Z"/><path class="cls-1" d="M22.3,46.21c.09,0,.21,0,.22-.11S22.31,46.08,22.3,46.21Z"/><path class="cls-1" d="M23.62,46.11h-.15C23.07,46.08,23.63,46.43,23.62,46.11Z"/><path class="cls-1" d="M24.42,46.12c0,.34.3-.11,0,0Z"/><path class="cls-1" d="M25.73,46.25c.06,0,.15,0,.15-.11S25.74,46.14,25.73,46.25Z"/><path class="cls-1" d="M26.83,46.15h-.15C26.29,46.11,26.84,46.46,26.83,46.15Z"/><path class="cls-1" d="M26.9,46.26c.25,0,.31.21.44-.11C27.21,46.21,26.91,46,26.9,46.26Z"/><path class="cls-1" d="M27.56,46.27c0-.17-.09,0,0,0Z"/><path class="cls-1" d="M27.71,46.38c.13,0,.36.12.29-.22A.3.3,0,0,0,27.71,46.38Z"/><path class="cls-1" d="M37.33,46.31s.11-.06.08-.11S37.29,46.25,37.33,46.31Z"/><path class="cls-1" d="M38.28,46.2c0,.34.3-.11,0,0Z"/><path class="cls-1" d="M38.93,46.31s.12-.05.08-.11S38.9,46.25,38.93,46.31Z"/><path class="cls-1" d="M39.52,46.2c-.4,0,.16.32.14,0Z"/><path class="cls-1" d="M40,46.31s.11-.05.07-.11S40,46.25,40,46.31Z"/><path class="cls-1" d="M89.8,45.62s-.11.05-.07.11S89.84,45.67,89.8,45.62Z"/><path class="cls-1" d="M98.19,45.51c.06,0,.14,0,.14-.12S98.19,45.4,98.19,45.51Z"/><path class="cls-1" d="M107,45.12h-.22c-.06,0-.15,0-.15.11h.22C106.94,45.21,107,45.23,107,45.12Z"/><path class="cls-1" d="M108.27,45.07s-.14,0-.14.12S108.27,45.18,108.27,45.07Z"/><path class="cls-1" d="M119.21,44.63h-.14C118.66,44.62,119.24,44.94,119.21,44.63Z"/><path class="cls-1" d="M27.56,46.27c0,.16.09,0,0,0Z"/><path class="cls-1" d="M30.62,46.4s.12-.06.08-.12S30.59,46.34,30.62,46.4Z"/><path class="cls-1" d="M69.94,46.22s.11-.06.07-.12S69.9,46.16,69.94,46.22Z"/><path class="cls-1" d="M106.38,45.37s.1-.06.06-.12S106.34,45.31,106.38,45.37Z"/><path class="cls-1" d="M118.63,44.88c.06,0,.15,0,.15-.12S118.63,44.77,118.63,44.88Z"/><path class="cls-1" d="M33,46.52s.11-.06.07-.11S33,46.46,33,46.52Z"/><path class="cls-1" d="M33.25,46.52c.06,0,.14,0,.15-.11S33.25,46.41,33.25,46.52Z"/><path class="cls-1" d="M33.69,46.52c.05,0,.14,0,.14-.11S33.69,46.41,33.69,46.52Z"/><path class="cls-1" d="M33.91,46.52c.18,0,.22.22.29-.11C34.09,46.43,33.93,46.37,33.91,46.52Z"/><path class="cls-1" d="M34.49,46.52s.11-.05.07-.11S34.45,46.47,34.49,46.52Z"/><path class="cls-1" d="M34.78,46.52c.06,0,.14,0,.15-.11S34.78,46.41,34.78,46.52Z"/><path class="cls-1" d="M91.78,45.91s.14,0,.14-.12S91.78,45.8,91.78,45.91Z"/><path class="cls-1" d="M98.56,45.61c-.53.14-1.07,0-1.53,0-.18,0-.27.21-.51.12a.18.18,0,0,1-.08-.11c-.12,0-.12.12-.21.12s-.14-.12-.23-.1,0,.11-.07.11-.16-.1-.36-.1a4,4,0,0,0-.59,0,3.45,3.45,0,0,1-.43.12c-.09,0-.22-.21-.44-.1s-.44-.13-.44.12c.11,0,.21,0,.22.11S94,46,94,46c.25-.1.31.12.44.21,0-.22.33-.37.36-.12a1.45,1.45,0,0,1,.44-.24c-.08.14-.06.24.08.23s.27-.18.5-.13a3.25,3.25,0,0,0,1.39.07s0-.13.07-.12,0,.11.08.12.41,0,.66,0c.22-.25.41.09.58-.13s.58.12.65-.14h-.07C98.93,45.79,98.8,45.61,98.56,45.61Z"/><path class="cls-1" d="M99.51,45.7c-.06-.08-.2-.17-.22,0,.33.34.7-.07,1.1.2C100.4,45.42,99.78,45.8,99.51,45.7Z"/><path class="cls-1" d="M100.82,45.66c0-.17-.08,0,0,0Z"/><path class="cls-1" d="M125.09,44.9c-.85-.27-1.85.2-2.47,0-.34.23-.92.12-1.39.18-.18,0-.15.21-.36.13l-.52,0h-.22c-.08,0-.19.07-.07.12l1.11-.05c.18,0,.15-.21.36-.13l1.11-.05.59,0c.22.15.36-.33.44,0-.32.26-1,.1-1.4.18-.18,0-.15.21-.36.13l-.52,0c-.13.06-.45-.13-.35.25.28.15.87-.1,1.24-.17l.59,0c.18,0,.15-.22.37-.13l1.27-.07c.21-.17.59-.11.8-.28l.6,0a1.23,1.23,0,0,1,.74-.15c.1-.26.48-.12.58-.38-.93,0-1.28.18-2.08.23C125,44.71,125.2,44.86,125.09,44.9Z"/><path class="cls-1" d="M35.29,46.64c.06,0,.14,0,.15-.11S35.29,46.53,35.29,46.64Z"/><path class="cls-1" d="M87,46.13c.09,0,.21,0,.22-.11S87,46,87,46.13Z"/><path class="cls-1" d="M100.61,45.78s.11-.06.07-.12S100.57,45.72,100.61,45.78Z"/><path class="cls-1" d="M100.82,45.66c.05.16.09,0,0,0Z"/><path class="cls-1" d="M101.12,45.76c.06,0,.14,0,.14-.12S101.12,45.65,101.12,45.76Z"/><path class="cls-1" d="M116.35,45.1a.32.32,0,0,0-.29.12c-.09,0-.45,0-.21.13S116.36,45.42,116.35,45.1Z"/><path class="cls-1" d="M119.23,45.08s.11-.06.07-.12S119.19,45,119.23,45.08Z"/><path class="cls-1" d="M6.44,46.4s.12-.06.08-.12S6.41,46.33,6.44,46.4Z"/><path class="cls-1" d="M39.66,46.77c.06,0,.15,0,.15-.12S39.67,46.66,39.66,46.77Z"/><path class="cls-1" d="M40.68,46.77c.09,0,.21,0,.22-.12C40.82,46.67,40.7,46.63,40.68,46.77Z"/><path class="cls-1" d="M41,46.77c.08,0,.2,0,.21-.12C41.11,46.67,41,46.63,41,46.77Z"/><path class="cls-1" d="M115.41,45.37s.11-.06.06-.12S115.37,45.31,115.41,45.37Z"/><path class="cls-1" d="M104.63,45.77c0,.09-.06.14-.14.12A9,9,0,0,1,103,46c-.09,0-.1.15-.22.12s-.49.09-.87,0c-.14,0,0,.19-.07.23-.08-.12-.53-.22-.58,0,.28.13.33,0,.66.09.51-.56,1.8,0,2.32-.52.12,0,.07.28.23.22C104.45,46,104.89,46,104.63,45.77Z"/><path class="cls-1" d="M115.19,45.38H115c-.06,0-.15,0-.15.12S115.17,45.53,115.19,45.38Z"/><path class="cls-1" d="M116.52,45.43s.14,0,.14-.12S116.51,45.32,116.52,45.43Z"/><path class="cls-1" d="M2.59,46.52H3c0-.25-.26-.06-.36-.13H2.23C2.21,46.64,2.49,46.45,2.59,46.52Z"/><path class="cls-1" d="M27.19,46.83H27C26.64,46.79,27.2,47.15,27.19,46.83Z"/><path class="cls-1" d="M119.47,45.41h-.29c-.08,0-.06.15.08.11h.29c.12,0,.19-.17.06-.23C119.6,45.38,119.56,45.42,119.47,45.41Z"/><path class="cls-1" d="M29.23,47.07c.06,0,.15,0,.15-.11S29.24,47,29.23,47.07Z"/><path class="cls-1" d="M117,45.52c-.31-.08-.61.18-.73,0-.08,0-.09.1-.15.12s0,.15.08.11c.41.08.59-.3.74,0,0,.07.09-.12.07-.12l.44,0,.44,0c.06,0,.15,0,.15-.12h-.22Z"/><path class="cls-1" d="M118.37,45.57h.3c.08,0,.21,0,.21-.13l-.29,0C118.5,45.47,118.38,45.44,118.37,45.57Z"/><path class="cls-1" d="M75.26,46.93s.11-.06.07-.12S75.22,46.87,75.26,46.93Z"/><path class="cls-1" d="M75.69,46.81h-.14c-.06,0-.14,0-.14.11h.87c.11,0,.27,0,.29-.12h-.88Z"/><path class="cls-1" d="M115.2,45.71c-.32,0,0,.2.15.11s.28,0,.29-.13l-.29,0Z"/><path class="cls-1" d="M64.85,47.19s.11-.06.08-.12S64.82,47.13,64.85,47.19Z"/><path class="cls-1" d="M65.22,47.18h.22c.08,0,.2,0,.21-.12h-.22C65.35,47.08,65.23,47.05,65.22,47.18Z"/><path class="cls-1" d="M68,47.15c-.18.15-.3-.33-.36,0a2.23,2.23,0,0,0-1-.1h-.51c-.13.06-.43-.13-.43.11a15.26,15.26,0,0,0,2.76.08H69c.13-.07.43.13.44-.12H68Z"/><path class="cls-1" d="M79.12,47s.11,0,.07-.11S79.08,46.91,79.12,47Z"/><path class="cls-1" d="M101,46.33c-.1.28.26.33.22.11C101.12,46.44,101.11,46.3,101,46.33Z"/><path class="cls-1" d="M111.17,46c0,.25.26.05.37.1C111.54,45.84,111.28,46,111.17,46Z"/><path class="cls-1" d="M111.76,46.08c.17-.08.54.12.58-.14H112C111.87,46,111.76,45.94,111.76,46.08Z"/><path class="cls-1" d="M112.85,45.92h-.14C112.3,45.91,112.88,46.24,112.85,45.92Z"/><path class="cls-1" d="M70.68,47.11c-.19.21-.42-.21-.51.24a1.48,1.48,0,0,1,1,.1c.16-.34.48.21.5-.23h-.87S70.66,47.21,70.68,47.11Z"/><path class="cls-1" d="M80.14,47h-.29c-.09,0-.21,0-.22.12h1.75c.15-.07.48.13.51-.13l-1.17,0Z"/><path class="cls-1" d="M108.68,46.3c.13-.07.44.12.44-.13C109,46.24,108.68,46.05,108.68,46.3Z"/><path class="cls-1" d="M109.49,46.16c-.09,0-.21,0-.22.12l.51,0H110c.09,0,.21,0,.22-.12l-.51,0Z"/><path class="cls-1" d="M111.76,46.08h-.22A.11.11,0,0,0,111.76,46.08Z"/><path class="cls-1" d="M69.88,47.35c.08,0,.2,0,.22-.12C70,47.25,69.89,47.22,69.88,47.35Z"/><path class="cls-1" d="M72.21,47.32s.11-.06.07-.11S72.17,47.26,72.21,47.32Z"/><path class="cls-1" d="M85.39,47.08s.14,0,.14-.12S85.39,47,85.39,47.08Z"/><path class="cls-1" d="M99.69,46.71s.11-.06.07-.11S99.65,46.65,99.69,46.71Z"/><path class="cls-1" d="M99.91,46.7s.11-.05.07-.11S99.87,46.65,99.91,46.7Z"/><path class="cls-1" d="M100.05,46.7s.11-.06.07-.11S100,46.64,100.05,46.7Z"/><path class="cls-1" d="M100.42,46.69s.11-.06.07-.12S100.38,46.63,100.42,46.69Z"/><path class="cls-1" d="M106.56,46.38a.57.57,0,0,0-.58.25A.57.57,0,0,0,106.56,46.38Z"/><path class="cls-1" d="M107.14,46.36c-.1.06-.38-.12-.36.12l1,0,.51,0c.11-.07.38.12.36-.13l-1,0Z"/><path class="cls-1" d="M120.9,45.91s.11-.06.07-.12S120.86,45.85,120.9,45.91Z"/><path class="cls-1" d="M72.57,47.43c.06,0,.15,0,.15-.12S72.57,47.32,72.57,47.43Z"/><path class="cls-1" d="M73.74,47.41s.11-.06.07-.12S73.7,47.35,73.74,47.41Z"/><path class="cls-1" d="M94.28,47h.66c.06,0,.15,0,.15-.11h-.44C94.54,46.92,94.27,46.74,94.28,47Z"/><path class="cls-1" d="M101.74,46.76c.3.1,0-.34,0,0Z"/><path class="cls-1" d="M104.51,46.68s.11-.06.07-.12S104.47,46.62,104.51,46.68Z"/><path class="cls-1" d="M104.8,46.67h.67s.14,0,.14-.12h-.44C105.06,46.61,104.78,46.43,104.8,46.67Z"/><path class="cls-1" d="M74.61,47.51s.11-.06.07-.12S74.58,47.45,74.61,47.51Z"/><path class="cls-1" d="M75.34,47.49c.06,0,.15,0,.15-.11S75.34,47.38,75.34,47.49Z"/><path class="cls-1" d="M75.71,47.49c.08,0,.2,0,.21-.12C75.84,47.39,75.72,47.35,75.71,47.49Z"/><path class="cls-1" d="M76,47.48s.11,0,.07-.11S76,47.42,76,47.48Z"/><path class="cls-1" d="M96.41,47s.14,0,.14-.11S96.41,46.92,96.41,47Z"/><path class="cls-1" d="M101.74,46.76c-.48-.11-.15.35,0,0Z"/><path class="cls-1" d="M102.91,46.84s.14,0,.14-.12S102.91,46.73,102.91,46.84Z"/><path class="cls-1" d="M103.49,46.82s.11,0,.07-.11S103.45,46.77,103.49,46.82Z"/><path class="cls-1" d="M77.67,47.56c.06,0,.15,0,.15-.11S77.67,47.45,77.67,47.56Z"/><path class="cls-1" d="M77.89,47.56s.11-.06.07-.11S77.85,47.5,77.89,47.56Z"/><path class="cls-1" d="M95.39,47.18c.08,0,.2,0,.21-.12S95.39,47,95.39,47.18Z"/><path class="cls-1" d="M96.12,47.16s.11-.06.07-.12S96.08,47.1,96.12,47.16Z"/><path class="cls-1" d="M88.68,47.57s.11-.06.07-.12S88.64,47.51,88.68,47.57Z"/><path class="cls-1" d="M89.05,47.56s.14,0,.14-.12S89.05,47.45,89.05,47.56Z"/><path class="cls-1" d="M89.56,47.55s.11-.06.07-.12S89.52,47.49,89.56,47.55Z"/><path class="cls-1" d="M89.78,47.54s.11-.06.07-.11S89.74,47.48,89.78,47.54Z"/><path class="cls-1" d="M90.43,47.53s.11-.06.07-.12S90.39,47.47,90.43,47.53Z"/><path class="cls-1" d="M90.58,47.52c.08,0,.21,0,.21-.12C90.71,47.42,90.59,47.39,90.58,47.52Z"/><path class="cls-1" d="M91,47.51h.21c.06,0,.15,0,.15-.12h-.22C91.1,47.42,91,47.4,91,47.51Z"/><path class="cls-1" d="M92.26,47.48s.1,0,.07-.11S92.22,47.43,92.26,47.48Z"/><path class="cls-1" d="M92.69,47.47c.06,0,.15,0,.14-.11S92.69,47.36,92.69,47.47Z"/><path class="cls-1" d="M93,47.47c.09,0,.21,0,.22-.12S93,47.33,93,47.47Z"/><path class="cls-1" d="M92,47.6s.11-.05.07-.11S91.93,47.55,92,47.6Z"/><path class="cls-1" d="M95.1,47.52h.22c.09,0,.21,0,.22-.12h-.22C95.23,47.43,95.11,47.39,95.1,47.52Z"/></svg>