<svg id="Layer_1" data-name="Layer 1" xmlns="http://www.w3.org/2000/svg" width="195" height="50" viewBox="0 0 195 50"><defs><style>.cls-1{fill:#ffcdaf;}</style></defs><title>highlight-readinstructorfeature</title><path class="cls-1" d="M45.78,1.4a.87.87,0,0,0,.25.37c0-.56.79.16.68-.35-.05-.27-.66-.06-.93-.14l-1.06,0c-.18,0-.26.17-.53.11,0-.18-.22,0-.27.12C44.42,1.77,45.27,1.5,45.78,1.4Z"/><path class="cls-1" d="M42.46,1.7c.23,0,.66.13.53-.23-.4,0-1-.15-1.06.22A.4.4,0,0,0,42.46,1.7Z"/><path class="cls-1" d="M39.54,1.76c.1,0,.26,0,.27-.11S39.54,1.65,39.54,1.76Z"/><path class="cls-1" d="M50.53,2.21c.22-.16.77.11,1.32,0,.32,0,.29-.21.66-.11l.8,0c.23-.07.77.16.79-.11-.16-.29-.4.21-.52-.13-1,0-1.45.06-2.25,0l-1,0c-.08,0-.16,0-.14.11C50.35,2,50.24,2.27,50.53,2.21Z"/><path class="cls-1" d="M49.74,2.31V2c-.2,0-.48-.06-.53.1C49.64,1.92,49.3,2.45,49.74,2.31Z"/><path class="cls-1" d="M54.63,2.05c-.1,0-.26,0-.27.12S54.62,2.17,54.63,2.05Z"/><path class="cls-1" d="M55.55,2.31c.46-.09.55.24.79,0a11.8,11.8,0,0,0,1.72.15c0,.27.56.07.79.14.38-.16.66.34.79,0,.16.16.57.13.92.13s.53.3.66-.1a35.85,35.85,0,0,0-6.32-.61C54.75,2.46,55.3,2.25,55.55,2.31Z"/><path class="cls-1" d="M33.7,1.9c.44.37.41-.44,0,0Z"/><path class="cls-1" d="M31.83,2c-.14.27-.95-.07-1.07.22.31.23.85-.11,1.47,0,.27-.18.87-.07,1.07-.34C32.69,1.82,32.47,2.09,31.83,2Z"/><path class="cls-1" d="M43,2.55l1.19,0c.36-.07,1.05.17,1.2-.1a3.92,3.92,0,0,0-1.06-.26c-.28.07-.39.29-.8.23s-.4-.43-.92-.38c0,.36-1-.19-.8.34A3.25,3.25,0,0,1,43,2.55Z"/><path class="cls-1" d="M47.48,2.15s-.2.06-.13.12S47.55,2.22,47.48,2.15Z"/><path class="cls-1" d="M40.85,2.51a.6.6,0,0,0,.53-.23C41.19,2.08,40.79,2.13,40.85,2.51Z"/><path class="cls-1" d="M46.15,2.61c.07.16.51,0,.52.25a13.38,13.38,0,0,0,2.65-.07h.54c0-.14-.21-.14-.4-.13l-1.06,0c-.64-.07-1.56.09-2-.16C46.39,2.31,46.2,2.47,46.15,2.61Z"/><path class="cls-1" d="M61.61,2.92c.16.23.69-.09.67-.11A.61.61,0,0,0,61.61,2.92Z"/><path class="cls-1" d="M63.2,2.83h-.26c0,.12-.11.14-.14.24C63,3.05,63.26,3.09,63.2,2.83Z"/><polygon class="cls-1" points="63.85 3.08 64.12 3.09 64.13 2.85 63.86 2.84 63.85 3.08"/><path class="cls-1" d="M28,2.53c.27-.07.91.21.8-.23C28.53,2.41,28.1,2.33,28,2.53Z"/><path class="cls-1" d="M40.45,2.5s-.2,0-.14.12S40.52,2.56,40.45,2.5Z"/><path class="cls-1" d="M64.51,3.09h.4c.1,0,.26,0,.26-.11h-.39C64.68,3,64.52,3,64.51,3.09Z"/><path class="cls-1" d="M29.43,2.43h-.27C28.44,2.38,29.45,2.77,29.43,2.43Z"/><path class="cls-1" d="M29.83,2.56s.2-.06.13-.12S29.76,2.5,29.83,2.56Z"/><path class="cls-1" d="M51.7,2.83c-.1,0-.26,0-.26.12C51.54,2.92,51.7,3,51.7,2.83Z"/><path class="cls-1" d="M69.77,3.32c.11,0,.26,0,.27-.11S69.78,3.21,69.77,3.32Z"/><path class="cls-1" d="M70.83,3.34h-.66c0,.26.46.06.65.13l.66,0C71.51,3.22,71,3.41,70.83,3.34Z"/><path class="cls-1" d="M53.15,3.1c-.1,0-.26,0-.27.12C53,3.19,53.14,3.22,53.15,3.1Z"/><path class="cls-1" d="M53.28,3.23c.09.09.73.28.79,0C53.69,3.4,53.41,2.9,53.28,3.23Z"/><path class="cls-1" d="M71.48,3.48c.08.17.16,0,0,0Z"/><path class="cls-1" d="M72.27,3.61s.2,0,.13-.12S72.2,3.55,72.27,3.61Z"/><path class="cls-1" d="M73.19,3.75c.29,0,.49,0,.53-.23C73.42,3.48,73.22,3.54,73.19,3.75Z"/><path class="cls-1" d="M54.86,3.26h-.39c-.11,0-.26,0-.27.11h.4C54.7,3.35,54.86,3.37,54.86,3.26Z"/><path class="cls-1" d="M58.29,3.57c-.15,0-.37,0-.39-.13l-1.45,0c-.18,0-.25-.18-.53-.13,0,.34-.81-.12-.8.22l2.11,0C57.48,3.58,58.1,3.87,58.29,3.57Z"/><path class="cls-1" d="M75.16,3.79c.1,0,.26,0,.26-.11S75.17,3.68,75.16,3.79Z"/><path class="cls-1" d="M75.69,3.68c.06.71.45.07.92.14C76.56,3.55,76,3.76,75.69,3.68Z"/><path class="cls-1" d="M76.61,3.82c.14.37.7-.11,0,0Z"/><path class="cls-1" d="M37,3.15c-.24,0-.66-.13-.54.23C36.75,3.42,37,3.36,37,3.15Z"/><path class="cls-1" d="M77.52,4.08c.11,0,.26,0,.27-.11S77.53,4,77.52,4.08Z"/><path class="cls-1" d="M35.12,3.48h.27c.21-.29-.44-.35-.4-.12C35.07,3.37,35.15,3.38,35.12,3.48Z"/><path class="cls-1" d="M80.8,4.38a.6.6,0,0,0,.53-.23C81,4.11,80.83,4.17,80.8,4.38Z"/><path class="cls-1" d="M80,4.37c.1,0,.26,0,.27-.12C80.17,4.28,80,4.25,80,4.37Z"/><path class="cls-1" d="M83.16,4.43c-.08-.18-.16,0,0,0Z"/><path class="cls-1" d="M83.16,4.43c0,.36.55-.11,0,0Z"/><path class="cls-1" d="M84.46,4.69s.21-.05.14-.12S84.4,4.63,84.46,4.69Z"/><path class="cls-1" d="M87.48,4.63c-.43,0-.48.18-.65,0s-.54.06-.66,0-.26,0-.26.12c.18,0,.14.26.25.36,2,0,3.82.26,5.77.35.42.16.11-.39.53-.23s1.36.26,1.7-.09a21,21,0,0,1-3.4-.3A24.88,24.88,0,0,1,87.48,4.63Z"/><path class="cls-1" d="M147.72,5.19h-.26C146.74,5.16,147.75,5.53,147.72,5.19Z"/><path class="cls-1" d="M17.71,3.58s.2-.05.13-.12S17.64,3.52,17.71,3.58Z"/><path class="cls-1" d="M75.53,4.88c.1,0,.26,0,.26-.12C75.69,4.79,75.53,4.76,75.53,4.88Z"/><path class="cls-1" d="M25.54,4.05c.11,0,.27,0,.27-.12S25.55,3.93,25.54,4.05Z"/><path class="cls-1" d="M116.91,6.25a13,13,0,0,0-2,0c-.75-.24-2-.06-2.75-.27-1.59.1-3.16-.08-5.22-.06-.32,0-.28-.22-.66-.13-2,.15-3.93-.3-6.54-.22-.31,0-.28-.22-.65-.13L97,5.39c-.53-.18-.63,0-1.18-.14-.44.07-1.21-.17-1.44.1.22.15.87-.08,1.44,0,.69.44,1.59.22,2.35.4a7.7,7.7,0,0,1,3.14.17c.19-.23.85,0,1.05-.23,0,.13.26.09.25.25.77-.16,1.69.12,2.75,0,.21,0,.11.38.52.25.5.1.63-.14,1-.11.23.11.33.34.78.25.22,0,.23.12.39.13.36-.36.66-.14,1,0-.13-.41.41-.18.66-.24a1,1,0,0,1,.65-.11,1,1,0,0,1,.91.25c.34-.46,1,.11,1.44-.22.26,0,.17.33.52.24s.29-.21.66-.11c.19.14.53.16.65.37a11.34,11.34,0,0,1,2.61-.21c.37,0-.31.32.26.24.14,0,.09-.24.27-.24a.63.63,0,0,0,.39.13c0-.13.26-.08.26-.24C117.86,6.14,117.43,6.46,116.91,6.25Z"/><path class="cls-1" d="M163,5.73h-.39c-.1,0-.26,0-.26.12h.39C162.83,5.82,163,5.84,163,5.73Z"/><path class="cls-1" d="M165.08,5.71h-.92c-.1,0-.25,0-.26.12h.66C164.75,5.81,165,5.88,165.08,5.71Z"/><path class="cls-1" d="M80.51,5.34s.2-.06.14-.12S80.44,5.27,80.51,5.34Z"/><path class="cls-1" d="M81.3,5.23H81C80.32,5.18,81.32,5.57,81.3,5.23Z"/><path class="cls-1" d="M166.39,5.82c-.11,0-.26,0-.27.12S166.38,5.94,166.39,5.82Z"/><path class="cls-1" d="M20.36,4.33s.2,0,.13-.12S20.29,4.27,20.36,4.33Z"/><path class="cls-1" d="M54.81,5.17c.16,0,.38,0,.4-.11C55.06,5.08,54.84,5,54.81,5.17Z"/><path class="cls-1" d="M102.65,6c-.54-.13,0,.36,0,0Z"/><path class="cls-1" d="M37.21,4.84c0,.17-.32.1-.53.11-.37-.11-.35.16-.66.1h-.8c.09.32-.62-.1-.54.23a11.5,11.5,0,0,1,2.65.17c.4-.38,1.07.16,1.07-.46C38,5,37.43,5,37.21,4.84Z"/><path class="cls-1" d="M118.47,6.39c.19-.07,0-.15,0,0Z"/><path class="cls-1" d="M149.42,8c0-.13.26-.09.26-.24h-.39c.13.43-.73.25-.65,0h.65V7.59H149c-.49.13-.37-.3-.79-.24-.65.08-.91-.2-1.56-.12-.24-.34-1-.17-1.44-.36H143a3.83,3.83,0,0,1-2,0h-2.74c-.23,0-.28-.15-.52-.13s-.49,0-.78,0c-.12,0-.21.13-.4.12,0,0-.09-.11-.13-.12-.28-.07-.31.12-.65.11-.11,0-.13-.12-.26-.12s-.13.13-.26.12-.29-.19-.53-.12c-.36-.1-.33.17-.65.11,0-.26-.55,0-.78-.12h-2.61c-.24,0-.28-.15-.53-.13-.05.18-.11,0-.26,0s-.23.1-.39.12c-.06-.17-.11,0-.26,0-.67,0-1.29-.11-2-.13-.19,0-.47.12-.65.12s-.23-.11-.39-.13a8.1,8.1,0,0,0-2,.11c-1-.37-2.75-.13-3.92-.39-.53.3-1.36-.34-1.7.22.22.09.59.64.91.25.33-.22.52.11.92-.11.25.15.66-.1.91.25.1-.27.74,0,1-.11s.34.17.65.13a20.8,20.8,0,0,1,2.74,0c.62.27,1.86,0,2.48.25.34-.35.61,0,.92-.35.11.43.32,0,.78.12.26,0,.17.33.52.25a9.68,9.68,0,0,1,2.22.13c.58-.19,1.53,0,2.09-.23.26,0,.17.33.53.24a6.25,6.25,0,0,1,.65-.12c.23,0,.27.14.52.13,0,0,.09-.11.13-.12.26-.06.47.09.79.12,0,0,0-.13.13-.12s0,.12.13.12,1.31-.13,1.43,0,0,.12,0,.12c.27,0,.5-.18.92,0A6.13,6.13,0,0,1,142,7.35c.51.24,1.09-.15,1.43.36-.39,0-1-.13-1,.24a2,2,0,0,0,1.43,0c0,.16.33.1.53.12a5.65,5.65,0,0,1,1.3,0c.24,0,.28.14.53.12,1.64,0,2.81.38,4.44.35C150.5,8.07,150,8,149.42,8Zm-3.92-.24h-.65c-.19,0-.37,0-.39-.12-.28.1-.73.29-.92.12s.09-.32.13-.48c.17,0,.21.21.4.24a.36.36,0,0,0,.39-.24c.17,0,.2.21.39.24s.34.08.52.12S146,7.76,145.5,7.71Zm1.05.12c0-.12.16-.09.26-.12C146.81,7.83,146.65,7.8,146.55,7.83Z"/><path class="cls-1" d="M38.67,5c-.22.44,1,.58.92.14C39.54,4.85,38.94,5.06,38.67,5Z"/><path class="cls-1" d="M44.22,5.33c-.91.18-1.85-.26-2.91-.06,0-.07,0-.14-.13-.12s-.11.14-.27.12-1.08-.07-.66.1,1-.13,1.19.14c0,.19-.34.09-.28.36a25.25,25.25,0,0,1,4,0c.32.06.29-.21.66-.1s.16.33.53.25c0-.19.29-.08.4,0,.12-.12.49,0,.4-.35A11.49,11.49,0,0,1,44.22,5.33Z"/><path class="cls-1" d="M62.06,5.92c.1,0,.26,0,.27-.11S62.07,5.8,62.06,5.92Z"/><path class="cls-1" d="M31.62,5.58c.37-.07,1.05.17,1.2-.1-.25,0-.29-.14-.53-.13C32.36,5.64,31.14,5.32,31.62,5.58Z"/><path class="cls-1" d="M35,5.39c-.11,0-.26,0-.27.12S34.94,5.51,35,5.39Z"/><path class="cls-1" d="M63.25,6c-.58,0,0,.2.26.12S64,6.12,64,6h-.79Z"/><path class="cls-1" d="M107.48,6.87c.1,0,.26,0,.27-.12C107.64,6.78,107.49,6.75,107.48,6.87Z"/><path class="cls-1" d="M107.87,7c.3,0,.5,0,.53-.23C108.17,6.78,107.75,6.63,107.87,7Z"/><path class="cls-1" d="M109.44,6.89c.16,0,.37,0,.4-.12C109.68,6.79,109.47,6.75,109.44,6.89Z"/><path class="cls-1" d="M110,6.9c.15,0,.37,0,.39-.12C110.21,6.8,110,6.76,110,6.9Z"/><path class="cls-1" d="M30.29,5.68c0-.07,0-.14.14-.12h.4c.14,0,.1-.15-.13-.12S29.87,5.54,30.29,5.68Z"/><path class="cls-1" d="M50.82,6.17c-1-.52-2.21-.16-3.43-.42,0,.37.39.36.79.37s.5.19.92.14c1.08-.08,2,.21,2.78,0a4.73,4.73,0,0,0,.92.26.92.92,0,0,1,.66-.11V6.35A13.58,13.58,0,0,0,50.82,6.17Z"/><path class="cls-1" d="M29.5,5.67c.15,0,.37,0,.4-.11C29.74,5.57,29.52,5.53,29.5,5.67Z"/><path class="cls-1" d="M119.51,7.24c0,.12.22.15.26,0C119.62,7.25,119.57,7.07,119.51,7.24Z"/><path class="cls-1" d="M163.27,7.4c-.42.06-.47-.21-.92-.11a1.2,1.2,0,0,0-.78.13c-.25,0-.79-.16-.65.24,1.44-.06,2.55.19,4.05.09.31,0,.28.22.65.11,1-.19,2,.39,2.48-.13-1.44-.22-2.52,0-3.66-.46C164.23,7.48,163.67,7.38,163.27,7.4Z"/><path class="cls-1" d="M38.77,6.42c.28-.1.79,0,.67-.46C39,5.92,38.8,6.09,38.77,6.42Z"/><path class="cls-1" d="M125.12,7.53c-.15,0-.53-.34-.65,0,.13.13.93.25,1,0C125.34,7.36,125.28,7.54,125.12,7.53Z"/><path class="cls-1" d="M.78,5.7c-.15,0-.2-.18-.26,0-.19,0-.34-.09-.52-.12V6l.91,0C.88,5.85.91,5.7.78,5.7Z"/><path class="cls-1" d="M38.11,6.17c-.14,0-.11.15.13.12C38.25,6.17,38.18,6,38.11,6.17Z"/><path class="cls-1" d="M127,7.66c.1,0,.26,0,.26-.12S127,7.54,127,7.66Z"/><path class="cls-1" d="M53.46,6.46c0,.27.56.07.79.14C54.24,6.34,53.69,6.54,53.46,6.46Z"/><path class="cls-1" d="M54.64,6.61c.27,0,1,.32,1.19,0C55.57,6.58,54.86,6.32,54.64,6.61Z"/><path class="cls-1" d="M56,6.76c.32.15,1.59.32,1.72-.09C57.24,7,56.16,6.28,56,6.76Z"/><path class="cls-1" d="M107.86,7.59s.2,0,.14-.12S107.8,7.53,107.86,7.59Z"/><path class="cls-1" d="M112.44,7.64s.2,0,.13-.12S112.37,7.58,112.44,7.64Z"/><path class="cls-1" d="M132.57,7.81s.2-.06.13-.12S132.5,7.74,132.57,7.81Z"/><path class="cls-1" d="M133.22,7.81s.2-.06.13-.12S133.15,7.75,133.22,7.81Z"/><path class="cls-1" d="M135.44,7.82c0,.15.15.07.26,0S135.48,7.67,135.44,7.82Z"/><path class="cls-1" d="M138.84,7.72c-.1,0-.26,0-.26.12.35.23,1.14.07,1.7.11.64-.17,1.4.35,1.56-.12a5.64,5.64,0,0,1-1.17-.11Z"/><path class="cls-1" d="M150.46,7.71s-.19,0-.12.12S150.53,7.77,150.46,7.71Z"/><path class="cls-1" d="M34.92,6.47c.2-.07,0-.14,0,0Z"/><path class="cls-1" d="M35.32,6.48c.16,0,.38,0,.4-.11C35.57,6.38,35.35,6.34,35.32,6.48Z"/><path class="cls-1" d="M38.1,6.53c.11,0,.26,0,.27-.11S38.11,6.41,38.1,6.53Z"/><path class="cls-1" d="M57.81,6.91c.19.15,1.13.26,1.32,0C58.75,7,58.11,6.59,57.81,6.91Z"/><path class="cls-1" d="M83.22,7.42s.2,0,.13-.11S83.15,7.36,83.22,7.42Z"/><path class="cls-1" d="M34.92,6.47c-.19.07,0,.15,0,0Z"/><path class="cls-1" d="M6.3,46.84a42.58,42.58,0,0,0,5.09-.07,8.34,8.34,0,0,0,2.35.15,1.92,1.92,0,0,1,.79,0,3,3,0,0,0,.52,0c.25,0,.52-.11.78-.11s.26.14.65.13c.24,0,.28-.11.53-.11s.52.19,1,0c1.67.34,4.19,0,5.87.32,2.74,0,4.48.31,7.2.35,1.55.35,3.93,0,5.49.33.37.11.34-.16.66-.11.1.23.47.13.65.14.62,0,1.44,0,2.23,0a12.35,12.35,0,0,0,2.89-.07,9.12,9.12,0,0,0,2.36.17c.32-.05.28.22.65.13l1.58,0c.31,0,.28.22.65.13l2.1,0c.32,0,.28.23.66.13.76.2,1.76-.2,2.63.06,0,0,.18.12.13.12.17,0,1-.32,1.18-.1s.06,0,.27,0a3.88,3.88,0,0,0,.52.13s.15-.16.27-.11,0,.1.13.12c.88.1,2.15-.06,3.29.07.16,0,.44.12.65.13,2.21.14,4.58,0,7.12.14.32.06.29-.21.66-.1,2.64,0,5-.2,7.55-.33a10.23,10.23,0,0,0,2.38-.07c.32,0,.28.22.66.13a.73.73,0,0,1,.4-.11c.15,0,.07.11.13.12s.09-.11.13-.11c.59,0,1.37,0,2.12,0,.27,0,.67-.1.79.13.23-.2.79-.08,1.2-.1,2.84.35,5.46.19,8.34.52a1,1,0,0,1,.67-.11l8.63.13c.32.06.3-.21.67-.11l2.39,0c.32.05.3-.21.67-.11l2.26,0c.32.06.29-.21.67-.11a29.41,29.41,0,0,0,4.13-.07,1.22,1.22,0,0,0,.79.13,3.87,3.87,0,0,1,1.47-.11,5.93,5.93,0,0,0,.66.13c.25,0,.55-.1.8-.11,4.47-.23,9.73.31,14.39.11.32,0,.28.22.66.12.56-.11,1.15.07,2,0,.38-.09.34.18.67.13s.29-.22.66-.12c.89.29,2.44,0,3.33.26a2.68,2.68,0,0,0,1.07-.12c.11.18.33.26.67.24,1.28-.11,2.46-.13,4.13-.12a14.09,14.09,0,0,0,2.4.36c.93-.14,1.38,0,2.26-.12,1.88.11,4.87.18,6.67.35.24,0,.28-.15.54-.12.47.19,1-.1,1.73,0a6,6,0,0,1,.93-.24c.82,0,1.27-.23,2.13-.14a75.5,75.5,0,0,0,8.11-1.5h.8c.26-.28.93-.21,1.33-.36s1-.07,1.2-.37c.64.09.67-.35,1.32-.25.24-.27,1,0,1.2-.37a8.86,8.86,0,0,1-2.67,0,2.24,2.24,0,0,1-1.33,0c-.67.24-1.6.24-2.25.49-.54-.14-1,.33-1.07-.11a14.46,14.46,0,0,0,2-.61h.8c.26-.28.92-.21,1.32-.37.33.05.29-.22.67-.12-.1-.33.63.08.53-.24.68.08.87-.26,1.46-.26.26-.24,1.08,0,1.19-.37-1.25.12-2.34.39-3.59.51-.21-.21-.71-.15-.93-.35.08-.41.89-.16,1.19-.37a3.44,3.44,0,0,1,1.2-.25,19.9,19.9,0,0,1,2.51-.5c.12-.21.47-.23.66-.37.52,0,1-.1,1.06-.49a6.24,6.24,0,0,0-1.46.38,10.79,10.79,0,0,0-2.25.26c-.24-.3-1.24.09-1.47-.23s.51-.26.53-.6c-.32,0-.29.22-.67.12-.23-.1-.39-.37-.66-.11,0-.27-.57-.05-.8-.12,0-.24,0-.37-.27-.35-.44.21-.59-.06-1.2,0-.08-.21-.63,0-.66-.24a8.55,8.55,0,0,1-3.06.14c-.39,0-.4.28-.79.25,0-.34-.82.11-.8-.23a4.63,4.63,0,0,1-1.46.13c0-.26-.47,0-.67-.12,0-.35.53-.59,0-.72.05.29-.61-.06-.4.36a.37.37,0,0,0-.39.25c-.54-.08-.33.51-.8.48a1,1,0,0,0-.66.13c-.29-.3-1-.24-1.47-.35,0-.07.33-.46,0-.48.07.27-.72.37-.79.13a1.22,1.22,0,0,1,.79-.13c-.1-.22-.39-.08-.13-.36,1,0,1.25-.26,2.12,0,.09-.17.28-.23.53-.25s.14-.27.4-.24c.43-.15.1.39.53.24a10.25,10.25,0,0,1,2.26-.26c.1-.46-.63-.15-.94-.23-.49-.13-.37.3-.79.24V41a2.16,2.16,0,0,1-1.33,0c-.49-.07-1.4.24-1.33-.35,1.86-.25,3.76-.46,5.57-.76.7,0,.78-.13,1.32,0,.53-.2,1.35-.15,1.72-.49-.4.09-.39-.2-.79-.11-.1.27-.75.05-1.06.12,0-.14-.15-.07-.27,0a1,1,0,0,1-.4-.24,6.72,6.72,0,0,1,1.73.11c0-.26.47-.06.66-.13s.24,0,.4,0c.08-.3,0-.47.52-.6,0,.23,0,.37.27.35.53,0,.73-.22,1.33-.13a2.05,2.05,0,0,0,.66-.12c.2,0,.51.07.53-.13a5.87,5.87,0,0,0-1.46.13c-.09-.35-.29.12-.53,0s-.5.31-.53,0,.67,0,.52-.48h-.93c.47-.42-.48-.07-.53-.36.24-.26.78-.26,1.32-.25.28-.19.88-.09,1.19-.25.63.14,1.08-.28,1.46,0,.12-.36.77-.26,1-.49h.8a1.25,1.25,0,0,1,1.05-.25,4.68,4.68,0,0,1,.66-.37c.21,0,.51.05.53-.12.21,0,.51,0,.53-.13.4,0,.9,0,.92-.37a4,4,0,0,0-1.59.26c-1.79,0-3.08.51-4.89.52a1.23,1.23,0,0,1-.79.13c-.2-.07-.69.14-.67-.12.24-.26.78-.26,1.33-.25a12.33,12.33,0,0,1,2.77-.5c0-.26.47-.06.66-.12,0-.23.45-.08.53-.25l1.18-.37a11.26,11.26,0,0,1,2.5-.76c.08-.16.51,0,.53-.24.19-.07.69.13.66-.13.19-.07.68.13.66-.13.19-.07.68.13.66-.13a7.53,7.53,0,0,0-1.33-.22c-.45,0-1.07-.08-1.32.14-.09-.36-.28.12-.53,0s-.5,0-.52.13c-.55-.11-.54,0-1.2,0-.49-.16-.9.37-1.18,0a.63.63,0,0,1,.39-.13c.14,0,.09-.24.26-.24,0-.25.35-.25.52-.37,1.13-.08,1.94-.43,3-.52-.09-.43.79,0,.65-.49-.48,0-.63.23-1,.25s-1.05.17-1.19-.1a.86.86,0,0,1,.51-.73c0-.2.75-.48.13-.48a5.37,5.37,0,0,1-1.45.14c-.29.08-1,.32-1.06-.1a18.64,18.64,0,0,0,3.95-.9c.46.09.5-.18.92-.13s.78.05.79-.25a24.58,24.58,0,0,0-3.3.17c-.27,0-.27-.32-.4-.48-.35.08-.48,0-.4-.35s.77-.11.91-.37a3.17,3.17,0,0,1,1.06,0,6.06,6.06,0,0,1,1.58-.26c.25-.21.39-.52.78-.61a11,11,0,0,0,2.23-.39c.9.07,1.37-.22,2.24-.15.08-.25.62-.09.66-.37a3.83,3.83,0,0,0-1.72,0l-1.32,0c-.31-.07-.95.16-1.05-.1a12.18,12.18,0,0,0,1.84-.39,5.58,5.58,0,0,0,2.1-.39,2.93,2.93,0,0,0,1.83-.51,5.72,5.72,0,0,0-1.44.14c-.32.06-.29-.21-.66-.11l-.79,0c-.21,0-.51.06-.53-.12a7,7,0,0,1,1.7-.26c.21-.07,0-.13-.13-.12-.67.11-.87-.24-1.45-.22a5.29,5.29,0,0,0-1.32.14c-.64-.12-1.93.36-2-.33.09-.44,1-.18,1.44-.26,1.27-.34,3-.3,4.21-.66h.66a5.55,5.55,0,0,1,1.18-.26c.1-.34.95,0,.91-.49-.15-.27-.83,0-1.19-.1-.08.28-.81,0-.92.25-.44-.27-1.55.09-1.85-.33.2-.54,1.23-.33,1.57-.74-.11-.1-.36-.07-.4-.24s-.26-.11-.26,0c-.28-.26-.38.06-.79,0-.19-.24-.45.12-.79-.11h-1.06c-1-.24-1.76,0-2.63-.32a9.71,9.71,0,0,0-2.37.16,5.21,5.21,0,0,0-3-.32c-.44,0-.46-.38-.93-.35a2.36,2.36,0,0,1-.92-.1h-.79c-.19-.06-.68.15-.66-.11a13.1,13.1,0,0,1,2.5-.39c.25-.05.09-.46.52-.36,1.6-.08,2.79-.52,4.32-.66.76-.8,2.18-1,3.66-1.13.16,0,.11-.23.13-.37.21,0,.22-.11.39-.12a2,2,0,0,1,.92,0c2-.49,4.52-.57,6.14-1.41.86,0,1.14-.49,2.09-.39,0-.26.1-.38.39-.37-.1-.32.26-.24.25-.48-.43,0-.65.21-1.18.14-.31-.07-.94.16-1-.11s.69-.47.25-.72c-.18.24-.8.08-1,.26-.43,0-.55.22-1,.13a.37.37,0,0,1-.4-.23c-.21,0-.5.06-.53-.12a4,4,0,0,0,1.18-.37c-.17-.47.38-.91,0-1.2-.09.27-.73.06-1.05.13l-1.17,0c-.44.2-1.27.06-1.7.27-.94-.3-2.6.09-3.55-.2l-1.57,0c-.3-.08-.36-.39-.66-.47,0,.13-.13.07-.13,0-1.31,0-2.88.2-3.81-.19l-1.44,0c-.31,0-.39-.21-.79-.11-.19-.07-.67.14-.65-.12L175,12c.25-.23.24.07.66,0h.78c.36-.08.32-.51.78-.49.21,0,.23-.12.39-.13s.87.14.92-.13c-.54-.12-.62,0-1.31,0-.14-.08-.14-.27-.4-.23s-.48-.12-.79-.11-.38.21-.78.13-.29-.22-.66-.11h-.78c-.19-.07-.68.14-.66-.12l2.36,0c.25-.16.74-.12,1-.25,1.41.05,2.88,0,4.2.18.74-.24,1,.08,2.09,0,.39-.24,1.17-.14,1.43-.5-1.52-.31-3.85.14-5.37-.16l-1.44,0c-.35-.28-1.49.19-1.45-.46,2-.31,4,.07,6.29-.09.08-.24.72,0,.77-.25-2.5,0-5,0-7.32-.14a61.55,61.55,0,0,1-7.2-.17,20.69,20.69,0,0,1-4-.09h-1.05c-.37,0-.71,0-.66-.36a20.27,20.27,0,0,0,3.27.1,1.18,1.18,0,0,0,.92,0c0,.14.24.1.39.12h1c.23,0,.26-.11.12-.12h-1c-.31,0-.29-.22-.66-.12-1.91,0-2.74-.24-4.7-.08-.14,0-.09.24-.26.24-.06-.27-.65,0-.92-.11s-.77-.14-.78.12c.25.06.79-.16.65.24-4.51-.22-10.42.27-15.42-.31-.4-.09-.38.21-.78.12-2.57-.19-5.79-.09-8.89-.13-.4.09-.38-.21-.78-.12a.92.92,0,0,1-.66.11c-.41.11-.74-.1-1.17-.12,0,0-.07.11-.13.12-.33,0-.45-.14-.79-.13-.1,0-.22.1-.39.12h-.39c-.29,0-.62-.12-.92-.13a5.21,5.21,0,0,1-.65.12,14.81,14.81,0,0,1-2.35-.13c-1,.09-2.68-.11-3.66,0-.31,0-.24-.42-.65-.37h-2.62c-.19.06-.67-.15-.65.11.22,0,.24.1.26.24-5.71,0-11.62-.21-17.15-.08-.31-.05-.28.21-.65.11a36.52,36.52,0,0,0-4.59.05,26.21,26.21,0,0,1-4.06-.19c-.37-.1-.34.17-.66.12,0-.17-.32-.11-.52-.13s-.35-.2-.39,0c-.1-.09-.36-.19-.39,0-.23,0-.25-.1-.26-.24-.31,0-.75.49-1,.1.26,0,.41,0,.39-.24-.37-.1-.34.17-.65.11,0,.26-.12.38-.41.36-.08-.27.38-.38-.12-.37s-1-.17-1.18.1c.22,0,.24.1.25.25-.18,0-.37,0-.39-.13s-.23-.15-.26,0c-.41.08-.48-.13-.79-.13A2.91,2.91,0,0,1,86,8,18.4,18.4,0,0,1,82,8.12c-.32,0-.3.21-.66.11a8,8,0,0,0-2.11.08c-.26-.22-.26.08-.52-.13s-.68.13-.65-.13a3.15,3.15,0,0,1-1.19.09c-.09-.27-.91.09-.78-.37-1.45.26-3.38.05-4.88.26a.89.89,0,0,0-.65-.14c-.31.12-.8.06-1.06.22-.19-.19-.68-.12-1-.14s-.46.22-.93.1c-.06,0-.15-.12-.13-.12-.22,0-.22.11-.4.11-.91,0-2.07,0-3.16-.06-.23,0-.27-.12-.52-.14S63,8,62.8,8a.19.19,0,0,0-.13-.12c-.39,0-.86.11-1.32.09A15.42,15.42,0,0,0,59,7.78a5.44,5.44,0,0,1-.66.1c-.1,0-.14-.15-.26-.12s0,.13-.14.11-.28-.11-.52-.13c-1-.06-1.91,0-2.91-.06a26.78,26.78,0,0,1-4.09,0c-.32,0-.29.21-.66.11l-4-.08c-.31,0-.29.21-.66.11-3.84-.23-6.59-.09-11-.44-1.79.24-4.11,0-6.11,0a10.25,10.25,0,0,1-3.45-.05c-.63.23-1.71,0-2.39.2-1.19-.33-2.61,0-3.72-.16-.69.05-1.38.09-2.12.09s-1.64-.08-2.4,0c-.23,0-.28.11-.53.11s-.22-.12-.4-.12a.42.42,0,0,0-.26.11,3.26,3.26,0,0,0-.66-.12,5,5,0,0,0-.67,0c-.39,0-.3.08-.66,0a9.46,9.46,0,0,0-2.13.1c-.22,0-.23-.12-.4-.13s-.22.11-.4.12c-.83,0-1.91,0-2.92,0A2.31,2.31,0,0,0,4,7.27c-1.11.1-2.51.12-4,.12v40H.29C2.22,47.14,4.47,47.17,6.3,46.84Zm160.08-4c0,.12-.16.09-.26.12S166.28,42.88,166.38,42.85Zm-4.91.63c1.26,0,1.79,0,3.05,0-.51.46-1.83.2-2.52.5-.21,0-.22-.11-.4-.12a2.1,2.1,0,0,1-1.46,0C160.44,43.34,161,43.72,161.47,43.48Zm-1.59.26c-.13.24-.51.26-.93.24C159,43.64,159.5,43.76,159.88,43.74Zm7.38-5.69c.07.06-.1.15-.13.12S167.22,38,167.26,38.05Zm16.33-12.77c-.13.19-.34.28-.52.13A.34.34,0,0,1,183.59,25.28ZM156.28,42.69c0,.14-.24.1-.4.12C155.9,42.67,156.13,42.71,156.28,42.69Zm-.93.72c.22,0,.24.11.4.12C155.81,43.76,155.15,43.7,155.35,43.41Zm-16.49,5.88c0,.12-.17.1-.27.13C138.59,49.3,138.75,49.32,138.86,49.29Zm-1.71-7.55c0,.13-.13.06-.13,0S137.15,41.67,137.15,41.74Zm-1.59,0c.12-.07.49-.27.39.12.32,0,.29-.21.67-.11.09.43-1.12.29-1.06,0-.19-.07-.69.14-.67-.12C135.09,41.67,135.58,41.47,135.56,41.73Zm-1.46,0c.06.07-.1.16-.14.12S134.06,41.69,134.1,41.72Zm-35,4.57h-.8c-1.19,0-2.48-.15-3.31-.05-.13-.41.41-.19.66-.24l.93,0c.38-.09.35.17.67.13l1.85,0C99.58,46.09,99.58,46.38,99.1,46.29Zm3.72-.06a13.32,13.32,0,0,1-2.79.07c-.23,0-.25-.09-.26-.24L98,46c.47-.34.78-.08,1.47-.21.28,0,.35.08.53.12s.29-.21.66-.11v.36c.42,0,1-.26,1.32,0,.31,0,.16-.34.41-.35s.16.09.13.24a1,1,0,0,1,.66.13C103.19,46.38,102.82,46.38,102.82,46.23Zm-1.52-3.86c-.34,0-.22.44-.41.59s-.5-.07-.53.11c-.4-.32-1,.29-1-.37.29-.26.53.12,1.06,0s0-.42.27-.59c.5-.08.57.21,1.06.13C101.68,42.35,101.26,42.61,101.3,42.37Zm-.14.59c-.07-.06.1-.15.13-.11S101.19,43,101.16,43ZM96,42.29c-.44,0-.66-.22-1.19-.14s-.33-.09-.79-.13c-.11.21-.25,0-.4,0-.1.21-.24,0-.4,0-.1.27-.75,0-1.06.11a.91.91,0,0,0-.4-.25c0-.12.17-.09.27-.12,1.23.21,2.19,0,3.58.3l1.59,0c.37-.09.34.18.66.13l1.19,0c.27.08.93-.18.79.26-.66,0-.65-.13-1.19,0-.28,0-.4-.1-.66-.13-.1,0-.14.12-.27.11s0-.12-.13-.12Zm1.44,1.1c0,.28-.59.06-.67,0-.44.2-.59-.07-1.19,0-.4-.19.57-.1.8-.11C96.76,43.27,97.25,43.2,97.44,43.39Zm-6.5-.23c-1.45-.25-2.55-.15-4-.31,0-.26.47-.05.66-.11l.8,0,1.45,0c.58.2,1.55.07,2.11.28.57-.14.66,0,1.33,0,.13-.15.3,0,.53,0s.44-.05.39.25A20.19,20.19,0,0,0,90.94,43.16Zm1.44,1c0-.15.26-.12.26,0,.27,0,.18-.32.54-.23C93.28,44.38,92.57,44.33,92.38,44.15Zm-2.33-2.68c.06-.27.73-.1.66.13.24,0,.28-.14.53-.11a.53.53,0,0,1,.13.36c.08.13.3.13.25.37a7.45,7.45,0,0,0-1.84-.4C89.52,41.43,90.54,41.67,90.05,41.47Zm1.7,1.23c.06.06-.1.15-.14.12S91.71,42.67,91.75,42.7Zm1.61-1.17c.07.06-.1.15-.13.11S93.33,41.49,93.36,41.53Zm.93,0c.28,0,.35.09.53.13C94.86,41.88,94.07,41.87,94.29,41.54Zm.92.25c0-.11.17-.09.27-.11S95.32,41.77,95.21,41.79Zm3.71.18c-.33.39-.63-.34,0,0Zm.8-.11c.07.07-.1.16-.14.12S99.68,41.83,99.72,41.86Zm-.56,1.43c-.12-.13-.49,0-.39-.36-.38,0-.27.4-.8.23,0-.15,0-.34-.13-.37.11-.23,1-.16.93.14Q99.3,42.83,99.16,43.29Zm-.53.11,2.12,0c-.31.38-.75,0-1.07.22-.48,0-.5-.17-.92,0a2.62,2.62,0,0,0-1.06-.14C97.78,43.1,98.34,43.34,98.63,43.4Zm1.35-1c.41-.44.43.37,0,0Zm1.68,2.18c.47-.18.07.41.39.37.15.16,0,.18,0,.35C101.66,45.22,101.47,44.71,101.66,44.53Zm.1,1.44c-.07-.06.1-.15.14-.12S101.8,46,101.76,46ZM103,44.91c.19.38-.78.56-.67.11C102.63,45.07,102.6,44.81,103,44.91Zm-.35-2.64c.07.06-.1.15-.14.12S102.59,42.23,102.63,42.27Zm1.91,4.1c0-.14.25-.1.4-.11C104.92,46.4,104.7,46.36,104.54,46.37Zm3.59-.07a14,14,0,0,1-2.79.08c-.13-.4.42-.18.67-.23s.76,0,.93.14a3.11,3.11,0,0,1,1.19-.11v.12C108.69,46.19,108.15,46.66,108.13,46.3Zm19-.42c0-.11.16-.09.26-.12C127.42,45.88,127.26,45.86,127.16,45.88Zm1.19.13c-.06-.26.19-.23.4-.24A.37.37,0,0,1,128.35,46Zm2-.95a4.49,4.49,0,0,1-1.6,0h-1.33c-.24-.09.08-.12.27-.12h3.19c.33,0,.41-.22.66,0C131.38,45.45,130.89,44.93,130.36,45.06Zm-2.12-1.57c0-.34.82.1.8-.24.11,0,.12,0,.13.13a2,2,0,0,1,1.2,0c-.06.27-.71,0-.8.24C129.12,43.58,128.49,43.7,128.24,43.49Zm2.92.14a.86.86,0,0,0-.66-.13c.14-.27.83,0,1.2-.11C131.79,43.71,131.07,43.3,131.16,43.63Zm1.46,1.44c0-.14.24-.1.4-.12C133,45.09,132.77,45.05,132.62,45.07Zm0-1.68c0-.11.16-.09.26-.11S132.73,43.37,132.63,43.39Zm-.4-.24c-.17-.16-.63-.08-.8-.24,0-.35.92.11.93-.24.42-.05.52.18.8.25C133.14,43.26,132.25,42.81,132.23,43.15Zm1.46-.23c0,.14-.24.1-.4.12C133.31,42.9,133.54,42.94,133.69,42.92Zm-2.51-1.57c-.27.51.51.22,1.06.24.15,0,.07-.11,0-.11,0-.27.47-.06.66-.12,0,.13-.26.08-.26.24s.24,0,.66.12c-.36.5-1,0-1.73.11-.23.07-.55.06-.66.24a.55.55,0,0,1-.26-.6c-.32,0-.4.2-.8.11-.13.43.57.13.66.36-.14.2-.57.13-.8.24,0-.12-.16-.1-.26-.12.05-.25-.09-.32-.13-.48-.34.06-.52.2-.53-.24Zm-3.59.1c0,.14-.24.1-.4.12C127.22,41.43,127.44,41.47,127.59,41.45ZM126,42h.54a15,15,0,0,1,2.65-.1,1.09,1.09,0,0,1-1.06.23c-.06,0-.17-.12-.14-.12s-.13.12-.26.12c-.55,0-1.22,0-1.86,0C125.66,42.09,125.85,42,126,42Zm.79.84c.42,0,.77,0,1.07,0s.27.11.39.12c0,0,.07-.11.14-.12s.16.11.26.12c.15-.3,1,.06,1.2-.23a3.29,3.29,0,0,0,1.19.13c-.15.21-.69.09-.93.23-.53-.22-1,.17-1.46-.13-.18.32-1.06,0-1.07.48-.26,0-.26-.17-.39-.24h-1.46c-.41-.12-1.35.25-1.33-.25A9.59,9.59,0,0,0,126.78,42.88Zm-.14.48c0,.14-.24.1-.39.12C126.27,43.34,126.49,43.38,126.64,43.36ZM125.83,45c0,.14-.24.1-.4.11C125.46,45,125.68,45.05,125.83,45Zm-1.43-3c0,.14-.13.07-.13,0S124.4,42,124.4,42Zm.25,1.56c.11.39-1.32.38-1.2,0A2.13,2.13,0,0,0,124.65,43.59Zm-1.45-1.45c.33-.39.63.34,0,0Zm.36,3.72c.25,0,.4-.1.67-.11s.87,0,1.33,0,1.18-.18,1.2.25c-.64,0-.92-.22-1.6-.13a.82.82,0,0,0-.53.12c-.2,0-.49-.05-.54.11-.64-.15-1.33.08-2.26,0a10.82,10.82,0,0,0-2.53.09c-.23-.14-.77,0-.92-.25-.39,0-.42.27-.8.23l-1.86,0c-.72-.1-1.1.24-1.6,0a12.59,12.59,0,0,1-4.39.19c-.06-.56,1.24.31,1.33-.35-.22-.27-1,0-1.46-.13,0,.14-.19.07,0,0,.1-.27.75,0,1.07-.11H112l1.33,0c0,.19.29.09.4,0a.82.82,0,0,1,.53.13,3.64,3.64,0,0,1,2,0c.3,0,.68-.23.93,0a6.43,6.43,0,0,1,1.86-.1c.24-.22.34.1.8,0h1.06c.26,0,.54-.1.8-.11s.61.11.93.13c.16,0,.2-.12.4-.12S123.33,45.86,123.56,45.86Zm-13.68-.74c.07.06-.1.15-.14.12S109.84,45.09,109.88,45.12Zm.53,0h.27C110.7,45.47,109.68,45.09,110.41,45.13Zm-.24-1.32c0-.12.16-.09.26-.12C110.43,43.81,110.27,43.78,110.17,43.81ZM111,41.3c.15-.27.84,0,1.2-.11.36.08,1-.14,1.19.14a1,1,0,0,1,.67-.12c-.13.21-.42.26-.8.23a.33.33,0,0,0-.27.36c-.16,0-.34.21-.14.24a.84.84,0,0,1-.93.23c-.13,0-.11.14-.14.24-.25-.06-.33-.27-.66-.25-.05-.33.72.1.67-.23s-.69-.11-.93-.25c.15-.27.84,0,1.2-.11C112.15,41.15,111.13,41.62,111,41.3Zm4.5.65c0,.34-.86-.16-.66.35a3.13,3.13,0,0,0-.93.11c-.32,0,.06.55-.41.36,0-.14,0-.22.14-.24-.19-.19-.17-.56-.39-.73.39-.48.35.39.66.37s.42-.09.4-.36C114.73,41.85,115.29,41.75,115.5,42Zm-.92-.49v-.24c.26,0,.41,0,.39.24Zm.24,2.4c-.07-.07.09-.15.13-.12S114.85,43.89,114.82,43.86Zm-.53-.13c0,.34-1,0-.27,0Zm-2.38-1c0,.11-.16.09-.27.11S111.81,42.77,111.91,42.75ZM121.05,45c.06.07-.1.16-.14.12S121,45,121.05,45Zm1.6-1.18c0-.14.25-.1.4-.12C123,43.84,122.81,43.8,122.65,43.82Zm-.12-.72a.82.82,0,0,1,.53-.12v.36C122.82,43.31,122.39,43.46,122.53,43.1Zm-1,2c.32,0,.29-.22.66-.11.13.4-.41.18-.66.23C121.09,45.33,121.1,45,121.58,45.13Zm-.5-3.12c-.32.38-.53-.43,0,0Zm-.3,3c.12.44-.52.16-.8.23h-.93c-.37-.1-.35.17-.67.11l-2,0c-.23-.22-.34.1-.8,0h-.93l-2,0c-.4.14-.9-.09-1.6,0,.06-.4.77-.18,1.2-.23,0-.1,0-.12-.13-.12s.06-.12.14-.12c.26,0,.41,0,.39.24.49.09.52-.25.94-.23-.06.21.1.23.26.24C116.15,45,118.71,45.23,120.78,45Zm-4.48-2.8c.42.17-.47.11-.67.11V42a.77.77,0,0,1,.53-.11C116.19,42.17,115.59,42.17,116.3,42.2Zm.93-.35c0-.21-.1-.23-.26-.25,0-.12.26-.08.27-.23.13,0,.1.15.13.24a1,1,0,0,0,.39.24c.12.1.08.33.26.36,0,.24-.6.17-.39-.12A.36.36,0,0,0,117.23,41.85Zm1.73,0c.07-.19.14,0,.13.12S119,42,119,41.87Zm.53-.48c.49-.11.18.48.26.72.16,0,.15-.18.14-.35.09.19.65,0,.52.36-.37-.1-.34.17-.66.11v-.12C119.4,42.17,119.31,41.41,119.49,41.39Zm-.15,1.8c0,.12-.16.09-.27.11S119.24,43.21,119.34,43.19ZM119,41.51c-.07-.07.1-.16.14-.12S119,41.54,119,41.51Zm.14-.48c-.06.17-.12,0-.27,0C118.87,40.88,119.1,40.91,119.1,41ZM119,42.58c.07.07-.1.16-.14.12S118.91,42.55,119,42.58Zm-2.63-1.7a8.93,8.93,0,0,0,2.25,0c0,.41-.73.23-1.19.23s-1.11,0-1.33-.14C116.05,40.88,116.21,40.9,116.32,40.88Zm-1.08.83a.59.59,0,0,0,.14-.36c.28-.05.35.08.53.12C115.89,41.73,115.57,41.73,115.24,41.71Zm-2.9-1.35c.07.06-.09.15-.13.11S112.31,40.32,112.34,40.36Zm-.26-.37c0,.14-.24.1-.4.12C111.71,40,111.93,40,112.08,40Zm-.79,0c-.06.36-.57.13-.93.11-.17,0-.22.16-.4,0C110.15,39.82,110.88,40.05,111.29,40Zm0,.36c0,.14-.24.1-.4.12C110.91,40.32,111.13,40.36,111.28,40.34Zm-.66,0c0,.33-1-.05-.27,0Zm-.8.47c.31-.09.92-.23,1.19,0,.36-.23,1.16-.06,1.73-.1.58.18.82,0,1.32.13s.35-.16.67-.11a2.59,2.59,0,0,0,1.06.13c-.12.18-.43.17-.67.24a1.22,1.22,0,0,1-.79-.13c-.31.05-.69.23-.93,0s-.35.16-.67.11-.28-.15-.53-.13h-2.52C109.66,40.82,109.74,40.81,109.82,40.81Zm1.05.49c0,.14-.24.1-.4.11a.62.62,0,0,1-.4.12c0,.21.12.6-.27.47,0-.31.08-.7-.26-.72C109.73,41.05,110.67,41.15,110.87,41.3Zm-1.26,3.82c0,.12-.16.09-.26.12C109.35,45.12,109.51,45.15,109.61,45.12Zm-.15,1.2c-.06.17-.12,0-.26,0C109.23,46.16,109.46,46.19,109.46,46.32Zm-.52-.37c-.07-.06.09-.15.13-.12S109,46,108.94,46Zm.14-.84c0,.14-.24.1-.4.12C108.71,45.09,108.93,45.13,109.08,45.11Zm-.41.72c0,.11-.16.09-.27.11S108.57,45.85,108.67,45.83Zm-.25-.72c.07.06-.1.15-.14.12S108.38,45.07,108.42,45.11Zm-.15.59c0,.25-.49.11-.53.36a20.49,20.49,0,0,0-3.59-.17c-.19,0,0,.1,0,.24.19,0,0,.1,0,.24l-.8,0c-.14-.3.63-.45,0-.47,0-.26.47-.05.66-.11h.8l1.59,0c.11,0,.13,0,.14-.11.51.16.69-.06,1.06.13S107.9,45.6,108.27,45.7Zm-4.71-3.42c.06.07-.1.15-.14.12S103.52,42.25,103.56,42.28Zm.28-1c0-.12.16-.09.27-.12S103.94,41.3,103.84,41.33Zm.34,3.36h.26C104.46,45,103.45,44.65,104.18,44.69Zm3.7.53h-.53a2.58,2.58,0,0,0-.93.11c0-.26-.56-.06-.79-.13.1-.27.74,0,1.06-.1h1.06C108,45.07,108,45.21,107.88,45.22Zm-1-2.65c0-.11.16-.09.27-.11S107,42.55,106.87,42.57Zm1.06-.11c.07.07-.1.16-.13.12S107.89,42.43,107.93,42.46Zm-.15,1.32c0,.14-.14.07-.14,0S107.78,43.71,107.78,43.78Zm-.37-2c-.36.43-.85-.27,0,0Zm-.52-.48a.34.34,0,0,1-.53.11C106.48,41,106.56,41.24,106.89,41.26Zm-.46,3.46c0,.12-.16.09-.27.12h-.39c0-.11.16-.09.26-.11Zm-.87-3.36c.17,0,.21.21.4.24,0,.21-.24.27-.54.23C105.41,41.62,105.59,41.58,105.56,41.36Zm-.2,3.71c-.14.47-1,.15-1.19,0C104.32,44.81,104.88,45.21,105.36,45.07Zm-.46-3.73c-.12.08-.24.15-.27,0S104.9,41.22,104.9,41.34Zm-.39-.48c-.44.34-.81,0-1.33.22C103.18,40.43,104.1,40.84,104.51,40.86Zm-6.08-.69s.29-.22.4-.12S98.28,40.4,98.43,40.17Zm-.54.59c0-.14.24-.1.4-.12-.09.11-.17.22,0,.24-.09.12-.31.12-.27.36C97.54,41.2,98.26,40.71,97.89,40.76Zm-2-.15H97c.25.06.8-.15.66.25-.53-.23-1.06.17-1.59-.14-.66.25-1.29-.11-1.86.09C94.34,40.36,95.34,40.69,95.9,40.61Zm-2.77-.53h.26C93.41,40.43,92.4,40,93.13,40.08Zm-.8,0c.07.06-.09.15-.13.12S92.3,40,92.33,40.07Zm-.26,0c0,.16-.33.09-.53.11C91.58,39.9,91.9,39.91,92.07,40.07Zm.25.48c.17.25.7.18.79.49.4-.07-.12-.26,0-.48l.93,0c.19.43-.45.06-.41.35s.21-.14.4.13c.2,0,.5-.05.52.13.27,0,.18-.33.54-.24.28.37,1,0,1.58.39.52,0,1.27-.09,1.59.14.08-.11.55-.43.27-.47.1-.38.36-.15.67-.11,0,.11-.17.09-.27.11,0,.4.76.2,1.19.26s.34-.16.66-.11c-.05.29.61,0,.39.37.09,0,.52-.29.53,0,.33-.11.36-.48.94-.35.29,0,.42.1.39.37.11-.1.81-.12.79.25a1.56,1.56,0,0,1-1.45-.5c-.3,0-.15.34-.4.35s-.87-.08-1.07.1c-.52-.2-1.84.2-2.51-.16l-1.46,0c-.56-.29-1.83,0-2.38-.28a4,4,0,0,1-2,0c-.2,0,.05.16,0,.36-.19-.1-.51-.1-.38-.48-.55-.1-.68.17-1.2.1-.28-.26.08-.34,0-.72C91.64,40.36,92.12,41.06,92.32,40.55Zm-1.17-.62a.45.45,0,0,1-.67.11C90.47,39.78,91,40,91.15,39.93ZM88.85,8c.26,0,.41,0,.39.25h-.4ZM88.5,39.88a.4.4,0,0,1,.53,0c.4.13,1.35-.23,1.32.27a1.21,1.21,0,0,1-.79-.14c-.31,0-.4.2-.8.11C88.54,40.21,88.19,39.88,88.5,39.88Zm-.79,0a2,2,0,0,1-.93.22C86.68,39.63,87.41,40,87.71,39.87ZM87,40.93c.42.07.36-.31.67-.34s.38,0,.4.12c.08-.2.62,0,.66-.23.19.07.69-.12.66.14.61-.15.55,0,1.19,0-.09.38.24.38,0,.6A14.56,14.56,0,0,0,89,41c-.07.25.18.23.39.25-.07.26-.66,0-.93.1,0,.31.51.1.38.49a2.47,2.47,0,0,1-.92-.14c.22-.16.18-.57.67-.47-.13-.2-.55-.14-.78-.25s-.42.18-.67.22c-.46.09-.51-.18-.92-.13C86.42,40.74,86.69,40.83,87,40.93Zm-.27.36c0,.46-.64.62-.67.11C86.4,41.45,86.38,41.18,86.75,41.29Zm-5.38-1.78c.27.07.87-.13.92.14.39-.22.82.05,1.06-.1s.28.15.53.13l1.05,0c.34,0,.68,0,.66.37-1.61-.44-3.25-.08-5.15-.46C80.5,39.35,81.09,39.57,81.37,39.51Zm3.8,1.39c0,.13-.13.06-.13,0S85.17,40.83,85.17,40.9Zm-.44,1.79v-.36C85.13,42.16,85.11,42.87,84.73,42.69Zm-3.81-1.15c0-.12.16-.09.27-.12a8.48,8.48,0,0,0,1.58.15c-.09.49-.37.23-.8.23S81.18,41.71,80.92,41.54Zm1,1c-.35-.13-1,0-.91-.5.32-.09.6.6.66,0C81.93,42.07,82,42.24,82,42.52Zm.54-.47c.32,0,.39.21.8.13-.05.16-.34.09-.54.11,0,.26.47.06.66.13s.48.09.26.13l-1.45,0C82.29,42.35,82.42,42.22,82.49,42.05Zm1.74-.69c-.31.45-.22-.42-.38-.49s-.4.2-.8.11c0-.49.83-.12,1.2-.22C84.32,41,83.85,41.25,84.23,41.36Zm-.66,0c-.39,0,.14-.5,0,0C83.73,41.34,83.65,41.52,83.57,41.35Zm-.27.47c-.42-.12,1.26-.32,1,.14C84.16,41.77,83.68,41.84,83.3,41.82Zm.91.5c.17,0,.2.21.39.25,0,.1,0,.11-.13.11H84.2Zm.3-1.43c-.07-.07.1-.16.13-.12S84.54,40.92,84.51,40.89Zm-6.21-.24a10,10,0,0,1,1.44.27l1.46,0c.37,0-.31-.33.27-.23.34,0,.16.09.13.24.42.08.41-.22.66,0,0,.27.56.06.79.14-.11.54-.42.18-.93.22s-.66-.18-1.06,0c-.3-.13-.8-.09-1-.26a12.73,12.73,0,0,1-2.38-.16C77.65,40.62,78,40.63,78.3,40.65Zm2.34,1.6c-.07.17-.12,0-.27,0C80.41,42.1,80.64,42.13,80.64,42.25ZM79.85,42c-.07-.06.1-.15.13-.12S79.88,42,79.85,42Zm-2.12-.16c.36.08,1.06-.13,1.19.14.16,0,.32,0,.27-.24a2.3,2.3,0,0,1,.52.37c.71-.11.15.37,0,0-.1,0-.26,0-.26.12a14.43,14.43,0,0,1-2.51-.29c-.25,0-.3.13-.53.11-.48,0-.5-.17-.93,0,0-.35-1,.15-.78-.37h.93c.23.08.78-.12.78.14A2.36,2.36,0,0,1,77.73,41.84Zm-3.65-1.51a22.91,22.91,0,0,0,3.29.18c.12.44-.52.16-.79.23l-.93,0a7.42,7.42,0,0,0-1.84-.16C73.76,40.36,73.91,40.34,74.08,40.33Zm.24.72c0,.14-.24.1-.4.11C74,41,74.17,41.06,74.32,41.05Zm-1.59.33a.76.76,0,0,1,.4-.12c.4-.07.38.22.79.14-.06.29.6,0,.38.37-.25.13-1-.11-1.58,0Zm0,1.19c.24,0,.29-.12.53-.1s.34.17.65.13.69-.13.66.13c.15,0,.21-.13.27-.23.36,0,.61.51.79,0a6.49,6.49,0,0,0,2.77.42c.26,0,.26.17.39.24s.27-.15.4-.23c.45,0,1.08-.07,1.32.15,3,0,5.29.49,8.2.51.25,0,.29.14.53.13a15,15,0,0,1,3,.18.87.87,0,0,1-.28.35c.06-.23-.59-.19-.39.11-.19,0-.15-.35-.27-.12-.19-.07-.68.13-.66-.13-.2,0-.12.37-.53.23,0,.27.65.06.92.13,0,.09,0,.12.13.13s.35-.24.53,0c.45-.12.45,0,.93-.11,0,.2.37.07.4.25.25,0,.29-.13.53-.11s.68.15.67-.11c.13,0,.15.09.26.12s.16,0,.13-.12-.15,0-.13-.12c-.09-.27-.92.1-.78-.37.62.1,1.56,0,2.52,0,.23.07.78-.14.79.13.25,0,.29-.13.53-.11a5.14,5.14,0,0,0,1.59.14c-.23.36-.48.13-.93.11-.83.27-1.94,0-2.66.08a1,1,0,0,1-.66-.13c-.15,0-.2.13-.27.23a6.09,6.09,0,0,1,1.59.27h.93c.23-.1.66,0,.8-.23.43-.14.09.39.53.25a.82.82,0,0,0,.53-.11c.16,0,.31,0,.27-.24a.68.68,0,0,0,.4-.11c.23.11.71,0,.66.37.41,0,.38-.37.93-.23-.06.18-.16.21,0,.36-.18,0-.14.31.13.25,0-.15.2-.07,0,0,0,.26-.56,0-.8.1s-.26-.16-.39-.24c-.42-.15-.33.18-.54.23a2.68,2.68,0,0,0-1.46,0A8.67,8.67,0,0,0,96.07,45a.76.76,0,0,0-.4.12c-.23.06-.78-.16-.8.11-.31-.24-1.06-.1-1.59-.15-1.1,0-1.6.05-2.51,0-.52.07-.48,0-.8.1-.33-.19-1,0-1.32-.26a9.68,9.68,0,0,1-3.31-.06,10.32,10.32,0,0,1-2.51-.17,2.39,2.39,0,0,1-.93.1,38.26,38.26,0,0,0-4.63-.32.69.69,0,0,1-.39-.13l-2.78-.06a.73.73,0,0,1-.52-.13c-.4.16-.47-.07-1.06,0s-1.06.06-1-.38c.58,0,.65.18,1,0,0-.26-.46-.06-.65-.13-.42-.11.24-.16.4-.11s0-.35-.13-.37c0,.36-.54-.12,0,0v-.24L74,43c0-.34-.91.09-.92-.26-.18,0-.26.17-.53.11H72a.19.19,0,0,1-.13-.12c-.2,0-.43.25-.66,0,0-.15.24-.1.27-.23-.25-.43-.6,0-1.18-.14-.2-.48.57,0,.53-.35a2.43,2.43,0,0,0,1.32.26c0,.22-.45.07-.54.23C71.88,42.84,72.49,42.24,72.7,42.57Zm-3.93-1.39c.38-.16,1.25.12,2,0,.39.24,1.34,0,1.71.27-.3.6-.94.13-1.72.21a.69.69,0,0,1-.39-.13c-.36.06-1-.18-1.2.09.17,0,.08.18,0,0C68.81,41.69,68.73,41.49,68.77,41.18Zm1.16,1c-.33.4-.76,0-1.32.21-.21,0-.23-.12-.4-.13C68.39,41.8,69.55,42.06,69.93,42.16Zm-29.24.13c.21,0,.22.12.39.13C41.13,42.65,40.48,42.58,40.69,42.29Zm0-.35a26.36,26.36,0,0,0-4.59-.33c-.11-.18-.19-.38-.52-.37.1-.27.74,0,1-.1a3.49,3.49,0,0,1,.79.25c.43,0,.65-.19,1.18-.09-.09-.27-.73-.07-1-.14,0-.24,0-.38-.25-.37.24-.39.53.15.65.25s.23-.1.4-.11.23,0,.26-.11c.2.06.33.18.52.25.63-.28,1.23.07,2,0-.17.51-.71,0-1.18.1-.15.4.4.2.65.25a.85.85,0,0,0,.65.13C41.19,41.83,40.74,41.69,40.7,41.94Zm-3.92-1.16a.65.65,0,0,0,.39.13c0,.14-.62.2-.92.1S36.61,41,36.78,40.78Zm4.69,1.77c.29-.4,1,.21,1.19-.1.22.24,1.08-.08,1,.38C42.94,42.75,42.18,42.67,41.47,42.55Zm-.12-.6c0-.12.17-.09.27-.12C41.62,42,41.46,41.92,41.35,42Zm1.45,0c.07.07-.1.16-.13.12S42.76,41.94,42.8,42Zm1.05.14c.27-.33.82.06,1.18,0C44.74,42.5,44.29,42,43.85,42.11Zm1,.86c0-.11.16-.09.26-.11S45,43,44.88,43Zm.93-.46c-.07-.06.1-.15.13-.12S45.85,42.54,45.81,42.51Zm5,.46c0-.12.16-.09.26-.12S50.9,42.94,50.8,43Zm1.83.39c0-.11.16-.09.27-.11S52.73,43.34,52.63,43.36Zm2.24-.19c-.06-.06.1-.15.14-.12S54.91,43.2,54.87,43.17Zm.27,0c.29-.37.74.12,1.18,0C56,43.56,55.58,43.07,55.14,43.18Zm2,.16c.31-.07.62-.18.65.25C57.51,43.53,57,43.74,57.11,43.34Zm7,0c.24,0,.28.15.53.13C64.65,43.7,63.87,43.69,64.09,43.36Zm2.78-.31c.07.07-.1.16-.13.12S66.84,43,66.87,43.05Zm.13.25c.07.55-.73.28-1.2.33C65.87,43.21,66.5,43.31,67,43.3Zm-1.33.21c-.33.39-.62-.35,0,0Zm-1.13-2.06a.64.64,0,0,1,.12.48c.26,0,.41,0,.39.25a2.29,2.29,0,0,0-.92-.14c-.18-.08,0-.46-.25-.48C63.86,41.3,64.35,41.51,64.54,41.45Zm-.29.83c-.06-.06.1-.15.14-.11S64.29,42.32,64.25,42.28Zm-.91-.61c0,.13-.24.09-.39.11C63,41.64,63.19,41.68,63.34,41.67Zm-.65-.26c0,.56-.38.22-.79.23A1.13,1.13,0,0,1,62.69,41.41Zm-3.82-.08c0,.12-.16.09-.26.12C58.61,41.33,58.77,41.36,58.87,41.33ZM21.47,39c.39.09.38-.2.78-.11.42-.09.41.2.65.25s.11-.3.4-.23.39.21.79.13c.07.21.62,0,.65.25.38,0,.41-.26.79-.23,0,.14.21.14.39.13l1.18,0a.69.69,0,0,1,.39.12l2.37,0c.23-.06.54-.05.66-.23a1.18,1.18,0,0,0,.92,0c0,.18.15.21,0,.36.41.11.41-.18.66-.22l1.31,0,.39.36c.41.14.32-.18.53-.23l1.7,0c.43-.1.27.32.52.37s.13-.21.27-.24a18.57,18.57,0,0,1,2.62.29,10.34,10.34,0,0,0,1.32-.09,5,5,0,0,0,2,.16c.36-.08.26.24.52.24,1-.28,1.69.14,2.5-.07a.83.83,0,0,1,.52.13c.25,0,.29-.13.53-.11a6,6,0,0,0,2.1.16c.37.07.68.19,1,.26a2.36,2.36,0,0,0,.92-.1,12.19,12.19,0,0,1,2.36.29.82.82,0,0,0,.53-.11c1.33.23,2.1.22,3.42.43.36-.08.26.24.52.25,0-.11.59-.31.53-.11.27,0,.11.45.38.49s.29-.13.53-.11,0-.44.28-.48c.57,0,.23.22.24.61.57-.09,1.16.39,1.58,0,.14.09.6.48.79.14.17,0,.11.21.26.24l.79,0c.31,0,.38.21.79.13.16,0,.18.16.39.13,0,.14,0,.34.12.36-.18.51-.43-.12-.92,0-.33,0-.42.18-.67.22A25.45,25.45,0,0,1,59,42.89a.35.35,0,0,1-.38-.24c0-.18-.32-.12-.53-.14s-.08.14,0,.24-.33.09-.27.36c-.64.06-.92-.18-1.31,0-.09-.47-1.29,0-1.17-.62.66.06,1.77.75,2.1,0-.2-.51-.36.18-.78-.13-.36.07-.26-.25-.52-.25A1.27,1.27,0,0,1,55,41.85c-.16,0-.31,0-.27.24-.25,0-.08-.4-.39-.37s-.28.18-.14.36c-.06.19-.41.09-.27.47a2.68,2.68,0,0,0-1.06.1.6.6,0,0,1-.52-.25c-.15,0-.21.17-.26,0-.3,0-.5,0-.54.23-.07-.21-.62,0-.65-.25-.35-.1-.27.23-.53.23a2.21,2.21,0,0,0-1.32,0c-1-.15-2.05-.31-3.14-.42a3.29,3.29,0,0,0-1.7-.51l.41-.35c.23-.06.77.16.79-.1.17,0,.11.21.26.24s.14-.19.14-.36-.69,0-.92,0-1-.16-1.06.11c-.28-.11-.44-.32-.91-.26s.34.47-.27.35c-.1-.22-.39-.09-.12-.36-.24.07-.77-.16-.8.11-.28-.11-.44-.32-.91-.26,0-.19-.33-.1-.26-.36a7.81,7.81,0,0,0-1.57.09,1.13,1.13,0,0,1-.79-.26c-1.65.3-2.68-.16-4.46-.08A4.87,4.87,0,0,1,31.29,40a5.51,5.51,0,0,1-1.7-.14c-.33,0-.42.18-.67.23-.42-.06-1.13.14-1.17-.26a.94.94,0,0,1-.66.11,3.76,3.76,0,0,1-.78-.25c-.89.07-1.39-.19-2.23-.16a2,2,0,0,0-.93.35c-1,0-1.55-.12-2.36,0,0-.16-.18-.23-.12-.48A1,1,0,0,1,20,39.2C20.12,38.77,21,39.05,21.47,39Zm-1.09,2.14c.27.08.86-.13.91.14a1.19,1.19,0,0,1,.79-.11c.27.07.87-.14.92.13.33-.09.52-.32.92-.34s.26.24.52.24c.08.17.51,0,.52.25,1.71-.41,3.61.55,5.38.09.16,0,.08-.14,0-.24.24,0,.31-.12.27-.36,1.34.08,2.17-.11,3,0,0,.3-.5.27-.66.11a3.16,3.16,0,0,1-.79.22c-.5.05-.93-.32-1.31,0,.39.86,2.75.38,3.25.89.7-.12.15.37,0,0a.81.81,0,0,0-.52.11c-2.68-.24-5.23-.33-7.86-.48-.24,0-.44-.11-.65-.13-1.92-.17-3.44-.15-5.37-.32C19.74,41.09,20.05,41.1,20.38,41.12Zm-6-.43c0-.11.16-.08.26-.11S14.46,40.67,14.36,40.69Zm4.09-2c.11,0,.13,0,.13.12.16.37.51-.17.65.13-.12.35-.19.13-.52.11s-1,.3-.92-.25C18,38.75,18.47,39,18.45,38.7Zm-.69,2.39c.06.06-.1.15-.14.12S17.72,41.06,17.76,41.09Zm-.26-.48c.07.06-.09.15-.13.12S17.47,40.58,17.5,40.61Zm-.14.6c-.58-.19-1.73.12-1.82-.5.1.1.35.07.39.24.36.1.34-.16.65-.11S17.42,40.8,17.36,41.21ZM14,39.13l3,0c-.07.55-.62.27-1.05.24-.4.15-1,.06-1.44.22C14.43,39.37,13.84,39.58,14,39.13Zm-.68,1.43h.26C13.6,40.9,12.6,40.52,13.31,40.56Zm-.52,0c-.07.61-.28.13-.66.11C12.11,40.41,12.6,40.62,12.79,40.56Zm-2.23-.15c.27,0,.41,0,.39.25h-.39Zm-1.18,0c0-.15,0-.28.27-.24v.24H9.38c0,.23.15.27.13.48-.35,0-.34-.25-.39-.48Zm-.91.11c-.12.07-.24.14-.27,0S8.47,40.39,8.47,40.51Zm-2.62,0c0,.12-.16.09-.27.12C5.59,40.48,5.75,40.51,5.85,40.48Zm-.39,0c0,.11-.17.09-.27.12C5.2,40.48,5.35,40.5,5.46,40.48Z"/><path class="cls-1" d="M51.59,7.15c.11,0,.26,0,.27-.12S51.6,7,51.59,7.15Z"/><path class="cls-1" d="M1.17,6.9c0-.34.91.11.93-.24a.6.6,0,0,1-.53-.24,3.59,3.59,0,0,0-1.06.24c-.1-.2-.29-.23-.51-.21v.43a2,2,0,0,0,.64-.1C.89,6.75.93,6.91,1.17,6.9Z"/><path class="cls-1" d="M3.44,6.55c0,.15.14.08.26,0S3.47,6.4,3.44,6.55Z"/><path class="cls-1" d="M3.83,6.43v.24h.4C4.25,6.46,4.1,6.39,3.83,6.43Z"/><path class="cls-1" d="M49.21,7.22c.16,0,.38,0,.4-.11C49.45,7.12,49.24,7.08,49.21,7.22Z"/><path class="cls-1" d="M2.5,6.79c.16,0,.38,0,.4-.12C2.75,6.69,2.52,6.65,2.5,6.79Z"/><path class="cls-1" d="M169.42,8.55h-.26C168.44,8.53,169.45,8.89,169.42,8.55Z"/><path class="cls-1" d="M170.08,8.67c.1,0,.25,0,.26-.12S170.08,8.55,170.08,8.67Z"/><path class="cls-1" d="M16.72,7.05s.2-.06.14-.12S16.65,7,16.72,7.05Z"/><path class="cls-1" d="M11.94,7.12c.15,0,.2.17.26,0S12,7,11.94,7.12Z"/><path class="cls-1" d="M12.34,7v.24h.4C12.75,7,12.6,7,12.34,7Z"/><path class="cls-1" d="M15,7H13c-.11.45.63.16.93.25s.29-.22.66-.12h.67C15.23,7.06,15.15,7,15,7Z"/><path class="cls-1" d="M179.93,11.19c.1,0,.26,0,.26-.12S179.93,11.07,179.93,11.19Z"/><path class="cls-1" d="M180.45,11.18c.16,0,.37,0,.39-.12C180.69,11.08,180.47,11,180.45,11.18Z"/><path class="cls-1" d="M179,11.32c.1,0,.26,0,.26-.12C179.17,11.23,179,11.21,179,11.32Z"/><path class="cls-1" d="M177.75,30.88c.1,0,.26,0,.26-.13C177.91,30.78,177.75,30.76,177.75,30.88Z"/><path class="cls-1" d="M169.78,38c-.76-.05-.19.45,0,0Z"/><path class="cls-1" d="M169,38.28s.2-.06.13-.13S168.91,38.21,169,38.28Z"/><path class="cls-1" d="M32.61,39.39s-.2.06-.13.12S32.68,39.46,32.61,39.39Z"/><path class="cls-1" d="M163.31,41.19s.2-.06.13-.12S163.24,41.13,163.31,41.19Z"/><path class="cls-1" d="M36.67,39.94s-.2.06-.13.12S36.74,40,36.67,39.94Z"/><path class="cls-1" d="M45.87,40.23s-.21.06-.14.12S45.93,40.3,45.87,40.23Z"/><path class="cls-1" d="M112.86,41.56c-.42.06-.54-.29-.67.11C112.38,41.61,112.87,41.82,112.86,41.56Z"/><path class="cls-1" d="M112.59,41.8h-.53V42C112.29,42,112.72,42.16,112.59,41.8Z"/><path class="cls-1" d="M157.21,42.2s.2-.06.13-.12S157.14,42.14,157.21,42.2Z"/><path class="cls-1" d="M46.62,41.57c1-.15,1.73.41,2.11-.08-.21-.19-1-.16-.65-.5-.15,0-.37,0-.4.12h.14c-.15.33-.56,0-.79,0-.11.3-.8-.35-.8.23C46.23,41.52,46.6,41.39,46.62,41.57Z"/><path class="cls-1" d="M57.43,41.3c-.08-.07-.62-.29-.66,0C56.84,41.36,57.38,41.58,57.43,41.3Z"/><path class="cls-1" d="M161.33,42.41c.1,0,.26,0,.26-.12S161.33,42.29,161.33,42.41Z"/><path class="cls-1" d="M58.08,41.56c.07-.26-.18-.23-.39-.25A.36.36,0,0,0,58.08,41.56Z"/><path class="cls-1" d="M64.4,41.69s-.2.05-.13.11S64.47,41.75,64.4,41.69Z"/><path class="cls-1" d="M49.52,41.5s-.21.06-.14.12S49.58,41.57,49.52,41.5Z"/><path class="cls-1" d="M53.33,41.82c-.16,0-.37,0-.4.11C53.08,41.92,53.3,42,53.33,41.82Z"/><path class="cls-1" d="M46.35,41.92s.2-.05.13-.12S46.28,41.86,46.35,41.92Z"/><path class="cls-1" d="M49.5,42.1s.2-.05.14-.12S49.43,42,49.5,42.1Z"/><path class="cls-1" d="M53.85,42.19c-.18,0-.25-.18-.53-.13C53.28,42.41,53.82,42.53,53.85,42.19Z"/><path class="cls-1" d="M52.92,42.29s-.2.05-.13.12S53,42.35,52.92,42.29Z"/><path class="cls-1" d="M75.19,43.22c-.08-.06-.39-.49-.53-.13C74.75,43.16,75.05,43.59,75.19,43.22Z"/><path class="cls-1" d="M76.25,43.13c0-.07-.11-.14-.13,0S76.22,43.26,76.25,43.13Z"/><path class="cls-1" d="M73,43.06h-.27C72,43,73,43.4,73,43.06Z"/><path class="cls-1" d="M80.74,43.21c-.15,0-.37,0-.39.11C80.5,43.31,80.72,43.35,80.74,43.21Z"/><path class="cls-1" d="M77.69,43.64c.31-.22,1.24.32,1.46-.22-.4-.09-.48.12-.8.11v-.24c-.37,0-.91-.12-.93.22C77.53,43.54,77.69,43.52,77.69,43.64Z"/><path class="cls-1" d="M73.33,43.55c0,.06.11.13.13,0S73.36,43.41,73.33,43.55Z"/><path class="cls-1" d="M86.82,43.69v.24h.4C87.24,43.72,87.09,43.65,86.82,43.69Z"/><path class="cls-1" d="M85.23,43.78s-.2,0-.13.11S85.3,43.84,85.23,43.78Z"/><path class="cls-1" d="M89.47,44c-.08-.18-.16,0,0,0Z"/><path class="cls-1" d="M88.94,44c-.25,0-.45.06-.54.22C88.7,44.23,88.9,44.17,88.94,44Z"/><path class="cls-1" d="M89.47,44c.07.17.16,0,0,0Z"/><path class="cls-1" d="M73.45,43.91c.15,0,.21.18.27,0S73.49,43.76,73.45,43.91Z"/><path class="cls-1" d="M90,44.34c-.11,0-.26,0-.27.12S90,44.46,90,44.34Z"/><path class="cls-1" d="M112.12,46.11a.86.86,0,0,0-.66-.13C111.25,46.34,112.15,46.3,112.12,46.11Z"/><path class="cls-1" d="M112.26,46.23s.2-.06.13-.12S112.19,46.16,112.26,46.23Z"/><path class="cls-1" d="M143.79,49.77h-.27C142.79,49.74,143.81,50.11,143.79,49.77Z"/></svg>