<svg id="elements" preserveAspectRatio="none" xmlns="http://www.w3.org/2000/svg" viewBox="0 0 840 45"><defs><style>.cls-1{fill:#ea593e;}</style></defs><title>rip-course-landing-immersive</title><path class="cls-1" d="M0,0V24.72a10.81,10.81,0,0,1,1.87-.08,11.87,11.87,0,0,0,4.39.16,28.53,28.53,0,0,0,4.05.69c.43.19-.7.57,1.6.52s-.3.36,3,.46a53.78,53.78,0,0,0,5.52,1.41A6.65,6.65,0,0,0,23,30.07c.48,1.64,1,4.29,3,4.26,2.5-1.12,2.6,1.87,4.77-1.2,1.14-.39,1.58.43,2.14-.06,2.43-.58,4.19,0,6-.5a9,9,0,0,0,6.37,0c1.27.83,3.44,1.13,6.18,1.87,3.11-.24,7.21-1.41,10.9.34,3.54.42,6.66.92,9.85,1.34a102.68,102.68,0,0,0,10.28.91c2.65-.27,4.84-.42,6.75-.48a28.79,28.79,0,0,0,5.08,0c1.94-.49,3.5,1.15,5.57.73,1.21,2.87,3.75.55,5.18,1.73,2.18.48,4.55.56,6.86,1.55,2.76-.75,5.19.51,7.87,1.77,2.74,1.06,6.14.57,9.45,1.77,4.67-.1,9.05-1.74,12.21-.63,3.58-.55,6.81-1.83,9.51-2.39s4.94-1.3,7.36-1.86a23.93,23.93,0,0,1,8.17-.57c5-.93,8.23-3.09,12.62-3.41,3.9,1.64,7.11,3.45,11.76,4.68a9.89,9.89,0,0,0,3.94-1c1-.35,2.34-.65,6.83-1.15a10.44,10.44,0,0,0,6.55-.55c2.4-.06,5.37-.2,7.62.78,6.58.95,7.86,3.42,11,1,2.27-.34,4.16.17,10.23,0a13.81,13.81,0,0,0,5.3,1.38c1.75.14,3.63-.38,5,.48,1.51.69,3.82-2,4.93-.31,2-1.72,2.88.48,4.69-1.06.88,2.08,2.64.53,4.23-.54,1.1.86,3-1.59,4.52-2.51,2.28,0,4.83-1.5,6.67.13,2.15.57,4.58.32,7.36.1,6.1.14,8.92-.79,10.09-1.33,7.72,0,6.51-.36,7.5-.44,3.7.43,5.33.57,4.79.21,3.27.48,4.09.07,6.86.12,2.53-.51,4.47-.31,6.62-1.88.88-2.32,4.26-.93,6.63-1.31,1.59-.76,4.23-.71,6.17-1.21a49.39,49.39,0,0,0,6.86-.29c-.48-.57.13-1.6,2.73-1,2.12.55,3.82-.24,4.12-1.66a35.84,35.84,0,0,0,3.87-.9,16.78,16.78,0,0,1,4.43-.62c1.41.11,3.12-1,4.66-1.74,1.43-.28,3.21-2.25,4.21-1.72,1.19.59,3.73-4.06,4.83-3.13,1.42-.31,3-1.15,4.35-1.32,2.81-.55,4.95,1.5,8.19-.74,2.56.33,5.79-1.92,8.6-2.5a5.26,5.26,0,0,1,4.16-.63c1.27.31,2.46,1,3.73,1.39,2.8-.19,5,2.54,8,2.75,2.53,2.07,6.13-.06,8.41,2,1.44-.7,3.33-.21,5-.62a4.89,4.89,0,0,1,3.53-1.42c2.89-.6,4.85-1.72,7.32-2.15,3.07.32,5.12-1.17,7.84-1.3s6-1.06,8.63-.71c2.55.61,4.74,1.33,7.71.74,1.25.1,2.84-.82,4-.29A8.35,8.35,0,0,1,457.14,14c1.65-.7,3.23-.46,4.9-.36a17.08,17.08,0,0,1,2.89.61,40,40,0,0,0,6.84,1.43c12.55,2,15.8,2.31,18.49,2.36a24.17,24.17,0,0,1,8.44.88,12.07,12.07,0,0,0,8.95,1c3.32-.21,6.2,1.26,9.27,1.95,3,.95,5.56,3.85,9.25,1.91,2.59,2.29,6.25-.14,9.13-1.33q2.54.16,5.16.15a43.42,43.42,0,0,1,5.33-.21c1.94-.62,3.47.37,5.53-.62A40.86,40.86,0,0,1,557,20.65c4.36-.31,8.5-.42,12.26.79,4.48-1.57,8.51-1.61,12.63-1.66,2.93.13,5.88.19,8.82.24s5.87.06,8.77.11,5.47,1.18,8.21,1.78c2.39,1.91,5.66.67,9.34-1.34,3.59-2.53,5.63,1.1,8.53,1.52,3,0,5,3.92,8.7,1.49,2.92.38,5.61,1.65,8.84.46,2.6,1.48,5.45.1,9,1.18,3.18.08,5.88-.08,8.23-.23s3.87-.23,6-.35c4,0,5.71,0,5.79-.28,1.2-.11,4.62.81,4.11-.08,1.61.13,3.3.61,4.41.71a8.89,8.89,0,0,1,3.68.4c1.2-.52,2.91,0,4.76.26s4,1.57,6.88.35a17.71,17.71,0,0,0,9,.81c2.74-.71,5-1.35,6.73-.69A23.15,23.15,0,0,1,717,25c1.62-.34,3.07-.29,4.85-1.16,3-.24,6.1.11,10.09-2.25a33.11,33.11,0,0,1,5.42-.95,16.21,16.21,0,0,0,5.83-1.81c2.68-1.11,5.25-2.8,6.84-1.19,2.19-.74,3.53,1.31,5.71,0,1.81.1,3.74-.36,5.5.16,1.87.06,3.49,1.44,6.14-.45,4.25-.29,7.79.14,11,1.7A23.35,23.35,0,0,0,789,18.94c2.33-.47,4.49.35,7-.45,1.19-.34,2.41-.28,3.82-1s2.71-.13,4.48-1.67c2,.87,4.4.14,6.68.24,2.26-.4,4.68.5,7-.18,2.68-1.38,5,.39,7.52-.05,2.78,2.74,5.92.9,9.12,0,2.59.51,3.28,1.33,5.41,1.68V0Z"/></svg>
