<svg id="ICONS_ROTATED" data-name="ICONS ROTATED" xmlns="http://www.w3.org/2000/svg" xmlns:xlink="http://www.w3.org/1999/xlink" width="110" height="110" viewBox="0 0 110 110"><defs><style>.cls-1,.cls-3,.cls-5,.cls-6{fill:none;}.cls-2{fill:#105754;}.cls-3,.cls-5,.cls-6{stroke:#105754;}.cls-3,.cls-5{stroke-linejoin:round;}.cls-4{fill:url(#_6_lpi_30_5);}.cls-5{stroke-linecap:round;}.cls-6{stroke-miterlimit:10;}</style><pattern id="_6_lpi_30_5" data-name="6 lpi 30% 5" width="4" height="4" patternTransform="translate(-4.08 -2.16) rotate(12.54) scale(0.87)" patternUnits="userSpaceOnUse" viewBox="0 0 4 4"><rect class="cls-1" width="4" height="4"/><rect class="cls-2" x="2.5" y="2.51" width="1" height="1"/><rect class="cls-2" x="0.5" y="0.49" width="1" height="1"/></pattern></defs><title>stamp-awardwinning-bootcamp</title><polyline class="cls-3" points="44.61 58.66 36.31 68.55 43.14 69.61 45.9 75.52 51.96 68.31"/><polyline class="cls-3" points="62.43 62.63 65.76 75.11 59.12 73.16 54.11 77.35 50.55 63.72"/><path class="cls-4" d="M73,49.26a3.32,3.32,0,0,0-.18-4,6.59,6.59,0,0,1-1.41-4.5,3.32,3.32,0,0,0-2.15-3.38,6.62,6.62,0,0,1-3.48-3.19,3.33,3.33,0,0,0-3.56-1.86,6.65,6.65,0,0,1-4.61-1,3.3,3.3,0,0,0-4,.17,6.61,6.61,0,0,1-4.51,1.41A3.33,3.33,0,0,0,45.74,35a6.6,6.6,0,0,1-3.19,3.47,3.34,3.34,0,0,0-1.86,3.56,6.59,6.59,0,0,1-1,4.61,3.33,3.33,0,0,0,.17,4,6.63,6.63,0,0,1,1.42,4.5,3.31,3.31,0,0,0,2.15,3.38,6.66,6.66,0,0,1,3.48,3.19,3.32,3.32,0,0,0,3.55,1.86,6.57,6.57,0,0,1,4.61,1,3.32,3.32,0,0,0,4-.17,6.59,6.59,0,0,1,4.5-1.41,3.32,3.32,0,0,0,3.38-2.16,6.58,6.58,0,0,1,3.2-3.47A3.33,3.33,0,0,0,72,53.87,6.64,6.64,0,0,1,73,49.26ZM53.91,58.92A11.22,11.22,0,1,1,67.29,50.4,11.23,11.23,0,0,1,53.91,58.92Z"/><path class="cls-5" d="M51.15,38.09a11,11,0,0,0-2.43,1.69A11.19,11.19,0,1,0,67.19,50.47"/><path class="cls-6" d="M57.63,31.3a6.65,6.65,0,0,0,4.61,1,3.33,3.33,0,0,1,3.56,1.86,6.62,6.62,0,0,0,3.48,3.19,3.32,3.32,0,0,1,2.15,3.38,6.59,6.59,0,0,0,1.41,4.5,3.32,3.32,0,0,1,.18,4,6.64,6.64,0,0,0-1,4.61,3.33,3.33,0,0,1-1.85,3.56,6.58,6.58,0,0,0-3.2,3.47,3.32,3.32,0,0,1-3.38,2.16,6.59,6.59,0,0,0-4.5,1.41,3.32,3.32,0,0,1-4,.17,6.57,6.57,0,0,0-4.61-1,3.32,3.32,0,0,1-3.55-1.86,6.66,6.66,0,0,0-3.48-3.19,3.31,3.31,0,0,1-2.15-3.38,6.63,6.63,0,0,0-1.42-4.5,3.33,3.33,0,0,1-.17-4,6.59,6.59,0,0,0,1-4.61,3.34,3.34,0,0,1,1.86-3.56A6.6,6.6,0,0,0,45.74,35a3.33,3.33,0,0,1,3.38-2.16,6.61,6.61,0,0,0,4.51-1.41A3.3,3.3,0,0,1,57.63,31.3Z"/><polygon class="cls-5" points="55.54 51.59 50.77 52.88 52.64 48.31 49.94 44.17 54.86 44.54 57.96 40.69 59.13 45.49 63.75 47.25 59.55 49.84 59.31 54.78 55.54 51.59"/></svg>