<svg id="OUTLINED" xmlns="http://www.w3.org/2000/svg" width="110" height="110" viewBox="0 0 110 110"><defs><style>.cls-1{fill:#105754;}.cls-2{fill:none;stroke:#105754;stroke-miterlimit:10;}</style></defs><title>stamp-awardwinning-bootcamp-outer</title><path class="cls-1" d="M94.39,74c-1.34-.51-1.83-1.83-1.21-3.46l1.39-3.62,8.1,3.12-1.27,3.32c-.64,1.67-1.85,2.3-3.11,1.81a2.05,2.05,0,0,1-1.37-1.83A2.09,2.09,0,0,1,94.39,74Zm.47-1a1.5,1.5,0,0,0,2-1.07l1-2.59-2.83-1.09-1,2.5C93.68,71.89,94,72.67,94.86,73Zm5.66,0,.89-2.31-2.66-1-.94,2.44a1.42,1.42,0,0,0,.75,2C99.37,74.44,100.11,74.08,100.52,73Z"/><path class="cls-1" d="M88.88,80.36l-.82-.52,3.18-5,7.32,4.66-3,4.8-.82-.52,2.49-3.91-2.42-1.54-2,3.1-.8-.51,2-3.09-2.47-1.57Z"/><path class="cls-1" d="M85,83.09c1.39-1.49,3-1.72,4.08-.69l-.76.8c-.69-.64-1.68-.5-2.67.55-.76.82-1,1.91-.3,2.58s1.3.46,2.1-.15l1.18-.86c1.23-.92,2.36-.88,3.24,0,1.06,1,.91,2.56-.34,3.89s-2.78,1.66-4,.56l.75-.8c.74.69,1.68.53,2.57-.42.73-.78,1-1.76.26-2.41s-1.24-.45-2,.15L88,87.1c-1.27,1-2.41.91-3.35,0C83.47,86.08,83.76,84.42,85,83.09Z"/><path class="cls-1" d="M78.87,88.64l.84-.62,4.55,6.22,2.39-1.75.58.78L81.6,97.39,81,96.61l2.39-1.75Z"/><path class="cls-1" d="M67,97.1c-.51-1.35.16-2.59,1.79-3.21l3.62-1.36,3,8.12-3.33,1.26c-1.67.62-2.94.14-3.42-1.12a2.05,2.05,0,0,1,.46-2.24A2.11,2.11,0,0,1,67,97.1Zm1.06-.32a1.51,1.51,0,0,0,2.16.83l2.6-1-1.06-2.84-2.51.94C68.1,95.16,67.73,95.91,68.05,96.78ZM71.82,101l2.31-.87-1-2.67-2.45.92a1.41,1.41,0,0,0-1,1.9C70,101.11,70.73,101.42,71.82,101Z"/><path class="cls-1" d="M65.4,99.56c.36,2.58-1,4.68-3.48,5s-4.34-1.3-4.7-3.88,1-4.61,3.47-5A4.08,4.08,0,0,1,65.4,99.56Zm-7.09,1c.29,2,1.63,3.3,3.47,3s2.81-1.84,2.53-3.88-1.63-3.23-3.48-3S58,98.51,58.31,100.55Z"/><path class="cls-1" d="M54.77,100.75c-.24,2.6-2.09,4.31-4.55,4.08s-3.92-2.26-3.67-4.86,2.07-4.25,4.51-4A4.08,4.08,0,0,1,54.77,100.75Zm-7.12-.67c-.19,2,.82,3.58,2.67,3.76s3.16-1.15,3.35-3.19S52.83,97.12,51,97,47.84,98,47.65,100.08Z"/><path class="cls-1" d="M42.39,94.29l1,.31L41.13,102l2.83.87-.28.92-6.66-2,.28-.93,2.83.87Z"/><path class="cls-1" d="M31.53,92.3l-1-.55a3.84,3.84,0,0,1,4.79-.61c2.16,1.17,2.75,3.53,1.51,5.82s-3.59,3.19-5.78,2A3.81,3.81,0,0,1,29,94.61l1,.56a2.76,2.76,0,0,0,1.54,2.93c1.63.88,3.35.16,4.32-1.63s.62-3.59-1-4.48A2.75,2.75,0,0,0,31.53,92.3Z"/><path class="cls-1" d="M25.32,86.72l3,2.58,2-1.09.83.7L23,93.32l-.85-.73,3.11-8.77.85.74Zm-.32.91L23.44,92l4-2.21Z"/><path class="cls-1" d="M12.78,81.81l-.71-1,7-5.1.62.84L16,79.31a17.4,17.4,0,0,1-1.83,1.19l7.25-1.63.6.83-3.85,6.42a19.16,19.16,0,0,1,1.78-1.4L23.64,82l.61.85-7,5.1-.72-1,4.17-7Z"/><path class="cls-1" d="M10.1,77,8.79,73.86a2.77,2.77,0,1,1,5.1-2.13l.9,2.15,2.9-1.21.41,1ZM13,72.07a1.69,1.69,0,0,0-2.38-1,1.72,1.72,0,0,0-1,2.43l.91,2.18,3.35-1.39Z"/><path class="cls-2" d="M100.92,52.24c0,.91.08,1.83.08,2.76a46.75,46.75,0,0,1-.72,8.17"/><path class="cls-1" d="M13.56,43.23l-.79,3.23,1.63,1.11L14,49.32,6.18,44l.41-1.67L16,41.14,15.52,43Zm-1.42.15-3.41.36,2.85,1.93Z"/><path class="cls-1" d="M8.32,35.93l.91-1.61,6.55,1.87-4.87-4.86.95-1.69,6.63,1.76-5-4.69.88-1.57,6.53,6.45-1,1.73-6.57-1.65,4.78,4.82-1,1.72Z"/><path class="cls-1" d="M25.56,23.59,23.22,26l.83,1.79L22.79,29l-3.92-8.62,1.21-1.22,8.63,3.86-1.35,1.37ZM24.27,23l-3.11-1.45,1.45,3.12Z"/><path class="cls-1" d="M25.78,14.29l3.38-2.1a2.82,2.82,0,0,1,4.11.84,2.7,2.7,0,0,1-.07,3.29l3.08,1.86-1.68,1-2.82-1.75-1.42.89,1.57,2.52-1.48.92Zm5.45,1.77a1.31,1.31,0,0,0,.51-2,1.3,1.3,0,0,0-2-.41l-1.65,1,1.49,2.41Z"/><path class="cls-1" d="M38.67,17.05,35.91,8.64l3.07-1a4.18,4.18,0,0,1,5.61,2.82A4.15,4.15,0,0,1,41.74,16Zm1.19-2,1.3-.43A2.62,2.62,0,0,0,42.82,11a2.53,2.53,0,0,0-3.45-1.84l-1.31.42Z"/><path class="cls-1" d="M49.86,4.9l1.84,0,1.44,6.65,2-6.58,2,0,1.58,6.67,1.78-6.6,1.79,0L59.62,14l-2-.05L56,7.35l-2,6.49-2-.05Z"/><path class="cls-1" d="M65.83,15.3l-1.7-.43,2.14-8.58L68,6.72Z"/><path class="cls-1" d="M72.37,8,74,8.71l.91,7,2.48-5.46,1.57.72-3.65,8-1.6-.72-1-6.88L70.3,16.76,68.71,16Z"/><path class="cls-1" d="M83.27,13.61l1.38,1.1-.81,7L87.57,17l1.36,1.08L83.43,25l-1.38-1.09L82.78,17l-3.65,4.59-1.37-1.08Z"/><path class="cls-1" d="M86.58,28.6l-1.16-1.32,6.66-5.82,1.16,1.32Z"/><path class="cls-1" d="M96.15,26.36l.9,1.52-3.24,6.27L99,31.08l.88,1.49-7.6,4.53-.9-1.51,3.14-6.2-5,3-.89-1.5Z"/><path class="cls-1" d="M100.56,46l-4.87,1.42L95.28,46l1-.44a3.39,3.39,0,0,1-1.92-2.33,4,4,0,0,1,3.06-5.15c2.68-.77,5,.36,5.76,2.91a3.82,3.82,0,0,1-1.73,4.7l-.55-1.88a2.06,2.06,0,0,0,.73-2.39c-.43-1.48-1.78-2.14-3.54-1.62s-2.55,1.77-2.13,3.21a2.23,2.23,0,0,0,2.62,1.74l0,.11.14,0L98,42.24l1.38-.41Z"/><path class="cls-2" d="M9.08,52.24C9,53.15,9,54.07,9,55a46.75,46.75,0,0,0,.72,8.17"/></svg>