<svg id="elements" xmlns="http://www.w3.org/2000/svg" preserveAspectRatio="none" viewBox="0 0 1400 66"><defs><style>.cls-1{fill:#f7e1c0;}</style></defs><title>rip-howitworks-step2</title><path class="cls-1" d="M1383.64,36.14c-2,.4-3.94,1.13-6.46,1.74-3.31.29-7.94.81-12.58,1.4-4.37.87-7.41,1.79-9.29,1a84.68,84.68,0,0,1-8.9,3.86c-2.9,1-5.66,2.93-8,2-2.5.35-4.94-.2-7.34,1.37-2.39.4-4.72.28-7,.93-2.24-.5-4.45.29-6.61.82-2.16.27-4.26-1-6.28.91-2.47-.15-4.75-1.25-6.8-.1-2,.38-3.88.53-5.47,1.55a35.23,35.23,0,0,1-7.63.49c-3-.08-6.46,1.52-10.93,2.59-1.89.58-3.73,2.25-5.52,2.44a12,12,0,0,1-5.29,1.38,12.16,12.16,0,0,1-5.1.59,8.66,8.66,0,0,1-5-2.1c-4.81,1.7-8.89.48-12.69-.68-3.8.53-7.33-1.73-11-2.62-2.54-1.45-6.36-1.87-9.74-1.53-3.39.56-6.33-.12-7.13-2.66-3.23-1.25-5.33-.54-7.17-1.52-1.83-1.93-3.41-.92-5.58-1.65-4.51-.48-9-2-13.45-1.3a93.93,93.93,0,0,1-13.55-2c-5.12-.47-9.77-.42-16.15-1.26a27.93,27.93,0,0,1-8.25-.55c-2.8-.93-5.62.64-8.42-1.07-1.87-1.75-3.63-1-5.47-.69-1.83,1.6-3.75-1.82-5.91-1.45a6.4,6.4,0,0,0-6.62-.89c-2.26-1.69-4.29,1-6.49-1.55-2.81-1.35-4.92.11-7.83-1.82-2.77-.2-7.91.62-10-.15-2.24.33-6.28,1.48-7.43,1.29a39.45,39.45,0,0,1-10.21.52c-9.61-.08-7.77-1.28-17.89.1-.39-.5-6.42-.38-8.28-.8-.82-1.36-4.51-1.1-7.08-3.12-3.76-.92-7-2.63-9.79-1.2-2.83,2.57-5.29.59-7.79.36a5.72,5.72,0,0,1-7-.85,7.58,7.58,0,0,0-6.38-2.18,12.4,12.4,0,0,1-3.7-2.25c-.74-.67-1.19-1.1-1.89-1-1-.3-2.56.94-2.57-1.31a17.19,17.19,0,0,0-3.58-2.52c-.07-.85-4.06-1.21-1.11-1.81-7.85,0-.75-.93-5-2.35a10.44,10.44,0,0,1-3.24-1.8c-.93-.2-.77-.61-1.66-.75-1.58.28,2.18-.73,1.11-.95-.62-.2,4.1-1.75,2.37-2.2.09-1-3.49-.14-.89-2.89-2.72-1-3.48.11-8.61,0-4.77.2-6.13.3-7.6.32a9.58,9.58,0,0,1-5.11-1.45c-2,.14-4.2-2.18-6.09-3.7C972.61.7,969.92.49,966.77.93S960,2.47,956.22,2.67C951,3.91,946.59,3,941.05,5.86a37.34,37.34,0,0,0-8.12-.27c-2.72.21-5.43,2.43-8.18,1.51-1.72-.41-3.36.05-5.06,0-1.26.75-3.49-.28-5,.22a4.4,4.4,0,0,0-4.83.82c-2.64-.25-2.84.76-5.5.82-1,.63-2.71,1.22-6,1.51a14.1,14.1,0,0,1-5,1.12c-1,.45-2.59,1.46-3.39.38-1,.85-1.6.36-3.5-.26-1,.23-5.94-.59-7.72-.63-1.38.3-6.83-.84-10.94-1.43-3.12.89-5.93,2.67-9.59.2-2.55.47-5.45-1.11-7.89.24-2.26.69-5-.09-7.31.34-2.43,0-4.71.7-7.08,0-1.44,1.46-2.9.89-4.27,1.66A14.57,14.57,0,0,1,828,13.09c-2.43.81-4.92.1-7.24.6a27.4,27.4,0,0,1-11,.35,27.72,27.72,0,0,0-12.06-1.3c-2.27,1.81-4.34.58-6.33.58-2-.45-3.89,0-5.82,0-1.93,1.3-3.89-.56-6,.18-2.11-1.46-4.36.17-6.86,1.27A15.51,15.51,0,0,1,767,16.59a34.41,34.41,0,0,0-5.45,1c-3.54,2.29-6.91,2.05-10,2.34-1.63.85-3.17.84-4.79,1.2a23.49,23.49,0,0,0-5.28,1.15c-2-.57-4.21.09-6.89.81a22.13,22.13,0,0,1-9.7-.52c-2.74,1.2-5.25-.07-7.33-.15s-4-.63-5.07-.12a11.39,11.39,0,0,0-4-.28c-1.19-.07-3.1-.46-4.82-.55.77.82-3.07.05-4.3.19,0,.24-1.76.33-6,.4-2.2.16-3.88.32-6.2.47s-5.22.41-8.59.42c-4-.91-6.6.44-9.74-.87-3.07,1.19-6.24.08-9.41-.2-3.21,2.34-6.39-1.2-9.55-1.16-3.16-.32-6.28-3.62-9.38-1.19-3.32,1.95-6.42,3.19-9.45,1.48-3-.49-6-1.47-9.1-1.44s-6.16.08-9.26.11-6.21.05-9.34,0c-4.31.14-8.54.28-12.81,1.85-4.28-1-8.6-.82-13.1-.42a40.69,40.69,0,0,0-5.74,1.12c-1.89,1-3.77.08-5.64.7a51.35,51.35,0,0,0-5.55.34c-1.83,0-3.65,0-5.45,0-2.71,1.17-5.89,3.51-9.24,1.46-3.35,1.89-6.87-.73-10.24-1.53-3.41-.57-6.84-1.85-10.27-1.58a15.28,15.28,0,0,1-9.67-.67,30.55,30.55,0,0,0-9.11-.6c-2.84,0-6.34-.19-20.07-1.72a54.06,54.06,0,0,1-7.58-1.15,21.26,21.26,0,0,0-3.2-.49c-1.78-.06-3.51-.24-5.05.45a7.64,7.64,0,0,0-3.21,1.12c-1.38-.45-2.8.43-4.14.37-3,.62-5.46,0-8.31-.49-2.9-.25-6.06.56-8.88.88s-4.57,1.62-7.88,1.4c-2.49.46-4.24,1.54-7.12,2.17a4.22,4.22,0,0,0-3.33,1.41c-1.67.42-3.78,0-5.11.7-2.95-1.84-6.16.23-9.38-1.63-3.21-.12-6.27-2.58-9.16-2.34-1.45-.35-2.88-.93-4.29-1.19a5.64,5.64,0,0,0-4.21.69c-2.8.61-5.57,2.77-8.35,2.53-2.81,2.15-5.61.31-8.42.89-1.4.19-2.8,1-4.21,1.33-1.4-.83-2.81,3.54-4.23,3-1.19-.46-2.53,1.41-4,1.7-1.42.74-2.92,1.79-4.43,1.73a17,17,0,0,0-4.48.69c-1.41.36-2.68.77-3.82.93.06,1.32-1.52,2.09-3.89,1.63-2.91-.52-3.27.44-2.61,1a56.07,56.07,0,0,1-7.13.44c-1.9.52-4.69.54-6.16,1.28-2.38.41-6.31-.79-6.6,1.37-1.84,1.52-3.93,1.38-6.46,1.91-2.92,0-3.67.43-7.24.06.67.33-1.09.23-5.09-.07-1,.1.34.37-7.76.6-1.09.53-3.8,1.46-10.25,1.48a27.43,27.43,0,0,1-7.76.1c-2.37-1.47-4.65,0-7,0-1.33.89-2.68,3.2-4.07,2.43-1.39,1-2.82,2.52-4.3.61-1.49,1.47-3-.54-4.65,1.1-1.62-1.54-3.32,1-5.09.41-1.71-.76-3.54-.23-5.42-.32a18.84,18.84,0,0,1-6-1.14c-6.32.33-8.44-.09-10.74.27-2.67,2.3-4.69,0-11.86-.66-2.63-.85-5.71-.65-8.22-.53a11.73,11.73,0,0,1-6.74.67c-4.58.58-5.95.89-6.86,1.24a9.46,9.46,0,0,1-3.88,1c-5.23-1-9.08-2.61-13.63-4-4.52.41-7.34,2.49-12.34,3.48a26.71,26.71,0,0,0-8.43.73c-2.39.58-4.63,1.29-7.23,1.9s-5.74,1.86-9.35,2.46c-3.62-.95-7.78.68-12.66.89-3.81-1-7.25-.49-10.41-1.4-3.17-1.1-6-2.2-8.75-1.44-2.71-.86-5.22-.87-7.64-1.26-1.82-1-3.86,1.15-5.92-1.47-2,.44-4.14-1-6-.54a34.41,34.41,0,0,1-5.35.11c-2,.11-4.25.3-7,.61-4.06,0-7.58-.26-11-.58s-6.88-.69-10.72-1c-4.35-1.53-8.34-.34-11.55,0-3.07-.62-5.43-.84-7-1.58a10.73,10.73,0,0,1-6.71.14c-1.82.49-3.82,0-6.23.61-.45.47-1.13-.27-2.23.11-1.44,2.9-2.36.13-4.69,1.23-2.1.08-3.36-2.35-4.31-3.86a9.82,9.82,0,0,1-3.33-2c-5.07-.81-5.34-1-6.18-1.17-3.5,0-.82-.33-3.29-.34s-1.32-.28-1.82-.44c-1.51-.14-2.94-.25-4.18-.49V66H1400V31.55c-.91.15-1.89.33-3,.55A46.37,46.37,0,0,0,1383.64,36.14Z"/></svg>