<svg id="ICONS_ROTATED" data-name="ICONS ROTATED" xmlns="http://www.w3.org/2000/svg" xmlns:xlink="http://www.w3.org/1999/xlink" width="110" height="110" viewBox="0 0 110 110"><defs><style>.cls-1,.cls-3,.cls-6,.cls-7{fill:none;}.cls-2{fill:#105754;}.cls-3,.cls-6,.cls-7{stroke:#105754;}.cls-3,.cls-7{stroke-linejoin:round;}.cls-4{fill:url(#_6_lpi_30_5);}.cls-5{fill:url(#_6_lpi_30_5-3);}.cls-6,.cls-7{stroke-linecap:round;}.cls-6{stroke-miterlimit:10;}</style><pattern id="_6_lpi_30_5" data-name="6 lpi 30% 5" width="4" height="4" patternTransform="translate(-1.37 -0.29) rotate(-4.41) scale(0.8)" patternUnits="userSpaceOnUse" viewBox="0 0 4 4"><rect class="cls-1" width="4" height="4"/><rect class="cls-2" x="2.5" y="2.51" width="1" height="1"/><rect class="cls-2" x="0.5" y="0.49" width="1" height="1"/></pattern><pattern id="_6_lpi_30_5-3" data-name="6 lpi 30% 5" width="4" height="4" patternTransform="translate(-0.39 1.79) rotate(-4.41) scale(0.8)" patternUnits="userSpaceOnUse" viewBox="0 0 4 4"><rect class="cls-1" width="4" height="4"/><rect class="cls-2" x="2.5" y="2.51" width="1" height="1"/><rect class="cls-2" x="0.5" y="0.49" width="1" height="1"/></pattern></defs><title>stamp-timetested-provenprocess-innerfixed</title><polyline class="cls-3" points="71.27 56.5 68.3 59.19 66.2 57.39 64.4 59.49"/><polygon class="cls-4" points="61.63 56.39 62.37 58.78 66.1 56.05 70.14 58.42 70.56 55.7 65.44 47.71 61.63 56.39"/><polygon class="cls-5" points="45.67 46.94 46.41 49.33 50.14 46.59 54.19 48.97 54.6 46.25 49.49 38.26 45.67 46.94"/><polyline class="cls-6" points="71.18 69.93 80.19 69.24 65.44 47.71 61.56 55.82"/><line class="cls-6" x1="48.95" y1="31.29" x2="49.49" y2="38.26"/><polyline class="cls-6" points="48.95 31.29 54.49 30.86 53.14 32.72 54.76 34.36 49.22 34.78"/><polygon class="cls-6" points="49.49 38.26 32.9 72.88 71.18 69.93 49.49 38.26"/><path class="cls-3" d="M54.55,45.67c.74,1.13,1.23,3.51.65,4.77a4.09,4.09,0,0,1-2.37,1.93c-1.45.62-3.27,1-4.31,2.28a1.68,1.68,0,0,0-.43,1.18c.08.79.89,1.24,1.61,1.51C53.55,58.8,58,59.22,61,62.15c1,1,1.29,2.14.22,3.13-1.78,1.67-4.47,2.24-6.72,3-2.91.94-13.17,4-13.17,4"/><path class="cls-7" d="M49.3,62.92c.17,2.24-2.53,5.19-2.53,5.19s-3.12-2.58-3.28-4.74a2.91,2.91,0,0,1,5.81-.45Z"/><circle class="cls-7" cx="46.4" cy="63.26" r="1.25"/></svg>