<svg id="OUTLINED" xmlns="http://www.w3.org/2000/svg" width="110" height="110" viewBox="0 0 110 110"><defs><style>.cls-1{fill:#105754;}.cls-2{fill:none;stroke:#105754;stroke-miterlimit:10;}</style></defs><title>stamp-timetested-provenprocess-outer</title><path class="cls-1" d="M103.65,66.31l-1,3.26A2.77,2.77,0,1,1,97.38,68L98,65.77l-3-.89.3-1Zm-5.37,2a1.71,1.71,0,0,0,1.19,2.32,1.73,1.73,0,0,0,2.29-1.29l.66-2.26L99,66Z"/><path class="cls-1" d="M100.53,75.56l-1.65,3.12c-.88,1.67-2.34,2.15-3.82,1.37a2.53,2.53,0,0,1-1.39-3l-3.76.07L90.47,76,94.08,76l1.09-2.06-2.8-1.48.49-.92Zm-5.69,1A1.81,1.81,0,1,0,98,78.23L99.2,76,96,74.35Z"/><path class="cls-1" d="M92.4,81.24c2,1.68,2.35,4.17.75,6.06s-4.09,1.93-6.08.24-2.31-4.12-.72-6A4.09,4.09,0,0,1,92.4,81.24ZM87.79,86.7c1.56,1.33,3.41,1.37,4.6,0s.87-3.24-.7-4.57-3.37-1.32-4.58.11S86.22,85.38,87.79,86.7Z"/><path class="cls-1" d="M83,96.35l-.89.68-2.51-9,.91-.7,8,4.75-.91.7-6.85-4.09Z"/><path class="cls-1" d="M70.67,94.3l-.43-.87,5.32-2.61,3.82,7.79-5.11,2.51-.43-.88,4.16-2-1.26-2.57-3.29,1.61L73,96.39l3.28-1.61L75,92.16Z"/><path class="cls-1" d="M71,102.4l-1.08.28-6.31-5.6,1.78,6.79-1,.26-2.2-8.4,1.06-.27L69.52,101l-1.77-6.75,1-.26Z"/><path class="cls-1" d="M56.74,105l-3.41-.08a2.78,2.78,0,1,1,.14-5.53l2.33.06.07-3.15,1.07,0Zm-3.32-4.66A1.69,1.69,0,0,0,51.5,102a1.73,1.73,0,0,0,1.83,1.87l2.36,0,.09-3.62Z"/><path class="cls-1" d="M47,104.36l-3.45-.77c-1.84-.42-2.69-1.7-2.32-3.33a2.51,2.51,0,0,1,2.54-2.14l-1.06-3.61,1.18.26,1,3.46,2.28.51.69-3.08,1,.23Zm-2.45-5.24a1.81,1.81,0,1,0-.79,3.53l2.43.54L47,99.67Z"/><path class="cls-1" d="M39.35,98c-1.11,2.36-3.42,3.35-5.66,2.3s-2.92-3.46-1.81-5.82A4.14,4.14,0,1,1,39.35,98Zm-6.47-3c-.88,1.86-.44,3.65,1.24,4.44s3.36,0,4.23-1.86.4-3.6-1.29-4.4S33.75,93.07,32.88,94.93Z"/><path class="cls-1" d="M25.46,87.67,24.55,87a3.84,3.84,0,0,1,4.83.22c1.93,1.52,2.1,4,.49,6s-4.08,2.52-6,1a3.78,3.78,0,0,1-1.3-4.63l.91.72a2.74,2.74,0,0,0,1,3.15c1.45,1.15,3.27.74,4.54-.86s1.22-3.43-.23-4.58A2.72,2.72,0,0,0,25.46,87.67Z"/><path class="cls-1" d="M20.49,79.51l.75-.62L25,83.44,18.36,89l-3.64-4.38.74-.62,3,3.56,2.2-1.83-2.34-2.81L19,82.3l2.34,2.82,2.25-1.87Z"/><path class="cls-1" d="M19.06,75c1,1.78.72,3.37-.59,4.09l-.54-1c.83-.46,1-1.44.3-2.71-.54-1-1.5-1.56-2.36-1.08s-.84,1.1-.5,2l.45,1.38c.51,1.46.12,2.52-.94,3.11-1.27.7-2.71.07-3.6-1.53s-.73-3.15.68-3.93l.53,1c-.88.49-1,1.44-.38,2.58.52.93,1.38,1.45,2.21,1s.81-1,.49-2l-.47-1.37c-.51-1.5-.12-2.58,1-3.2C16.69,72.59,18.18,73.38,19.06,75Z"/><path class="cls-1" d="M15.91,67.73c.63,2,.06,3.45-1.37,3.91l-.34-1c.9-.29,1.25-1.22.81-2.6-.35-1.07-1.18-1.82-2.11-1.51s-1,.91-.89,1.91l.18,1.44c.22,1.54-.36,2.5-1.52,2.88-1.38.44-2.68-.45-3.24-2.19s-.11-3.24,1.42-3.74l.34,1c-1,.32-1.27,1.22-.87,2.46.33,1,1.08,1.69,2,1.4s1-.87.86-1.87L11,68.37c-.22-1.57.37-2.55,1.59-3C14,65,15.34,66,15.91,67.73Z"/><path class="cls-2" d="M98.11,41.29A45.78,45.78,0,0,1,99.94,61"/><path class="cls-2" d="M11.57,41.29A45.92,45.92,0,0,0,9.75,61"/><path class="cls-1" d="M20.3,32.76l-.92,1.49-6.21-3.82-1.44,2.35L10.41,32l3.79-6.18,1.32.81L14.08,29Z"/><path class="cls-1" d="M24.3,27.51l-1.14,1.33-6.72-5.76,1.15-1.34Z"/><path class="cls-1" d="M26.37,13.88,28,12.59l5.42,7-1.37,1.06-2-2.58c-.56-.72-1.18-1.59-1.61-2.27L30.39,22l-1.28,1-5.66-3.56a22.29,22.29,0,0,1,1.92,2.32l2,2.58L26,25.35l-5.43-7L22.33,17l6.26,3.9Z"/><path class="cls-1" d="M40.91,14.51l.62,1.42-5.66,2.48L32.33,10.3l5.53-2.42.62,1.42L34.56,11l.84,1.93,3-1.3L39,13l-3,1.29.86,2Z"/><path class="cls-1" d="M46,10.24l.37,1.52-3.81.93-.37-1.52Z"/><path class="cls-1" d="M52.45,13.89,50.71,14l-.6-7.28L47.37,7l-.13-1.54,7.23-.59.13,1.54-2.75.23Z"/><path class="cls-1" d="M63.52,13l-.19,1.54-6.13-.75L58.28,5l6,.73-.18,1.54-4.25-.52-.25,2.08,3.22.4-.19,1.5-3.22-.4-.26,2.12Z"/><path class="cls-1" d="M68.45,16.2c-2.12-.73-3.07-2.21-2.53-3.75L67.6,13c-.24.69.16,1.37,1.34,1.78.93.32,1.7.12,1.93-.55s-.06-1-.82-1.41l-1.22-.71c-1.4-.79-2-1.88-1.52-3.13.49-1.42,2-2.11,4-1.42,1.64.57,3,1.81,2.34,3.66l-1.64-.57c.29-.83-.27-1.42-1.19-1.73s-1.58-.11-1.79.5.05,1,.88,1.44l1.24.7c1.44.84,1.87,1.91,1.42,3.23C72.05,16.43,70.3,16.84,68.45,16.2Z"/><path class="cls-1" d="M77.14,20.28l-1.49-.91,3.79-6.24L77.09,11.7l.81-1.32,6.19,3.77-.8,1.32L80.93,14Z"/><path class="cls-1" d="M86.61,26.1l-1.06,1.13L81.05,23l6-6.45,4.4,4.13-1.06,1.13-3.12-2.93-1.43,1.53,2.36,2.22-1,1.1-2.37-2.22-1.46,1.56Z"/><path class="cls-1" d="M87.05,28.92l7.33-5,1.81,2.68A4.17,4.17,0,0,1,95,32.8a4.15,4.15,0,0,1-6.16-1.2Zm2.27.58.77,1.15a2.61,2.61,0,0,0,3.94.59,2.54,2.54,0,0,0,.83-3.82l-.78-1.14Z"/></svg>