<?xml version="1.0" encoding="UTF-8"?>
<svg width="1401px" height="70px" viewBox="0 0 1360 66" version="1.1" xmlns="http://www.w3.org/2000/svg" xmlns:xlink="http://www.w3.org/1999/xlink">
    <title>Group 3@2x</title>
    <defs>
        <polygon id="path-1" points="0 0.351023707 1360 0.351023707 1360 65.3510237 0 65.3510237"></polygon>
    </defs>
    <g id="Page-1" stroke="none" stroke-width="1" fill="none" fill-rule="evenodd">
        <g id="web-dev-landing-page" transform="translate(-20.000000, -2555.000000)">
            <g id="Group-3" transform="translate(700.000000, 2588.000000) rotate(-180.000000) translate(-700.000000, -2588.000000) translate(20.000000, 2555.000000)">
                <mask id="mask-2" fill="white">
                    <use xlink:href="#path-1"></use>
                </mask>
                <g id="Clip-2"></g>
                <path d="M0,0.351023707 L0,64.5404676 C0.916827586,64.6464997 1.83717241,64.8114384 2.76689655,65.0612028 C4.2242069,65.4488088 6.0262069,65.274445 7.63593103,65.3510237 C8.53868966,64.9339643 9.34765517,64.6099775 10.0686897,64.2153027 C11.2668966,63.5590821 12.6268966,63.284577 14.0302759,63.7287334 C16.0597241,64.367282 18.034069,64.6099775 20.2077241,64.0550765 C21.7177931,63.6686486 23.3837931,63.8972066 24.9935172,63.5732197 C26.7638621,63.2138889 28.778069,63.319921 30.5437241,63.9431538 C31.9037241,64.4191198 33.266069,64.4650671 34.6237241,63.9773197 C35.9497241,63.5037099 37.2944828,63.3823621 38.7248276,63.7852838 C39.1422069,63.8983847 39.7155172,64.042117 40.0695862,63.9431538 C42.8224138,63.1761886 45.715931,63.5567259 48.5484828,63.4636533 C49.7478621,63.4235968 50.9144138,63.3599775 52.000069,62.9806184 C53.3506897,62.5128993 54.7317931,62.4598833 56.0824138,62.9558776 C56.7401379,63.1973951 57.4189655,63.302249 58.1071724,63.3682245 C58.1388276,62.5447089 58.3744828,61.727084 58.8821379,60.9271312 C59.0837931,60.6055006 59.5738621,60.4181773 60.0615862,60.5678003 C60.6747586,60.7563017 61.4227586,60.9931066 61.7088276,61.3512593 C62.2516552,62.0239738 62.4837931,62.7956514 62.8753793,63.5237381 C62.8929655,63.5673291 62.9715172,63.6132763 63.0289655,63.6556891 C63.2634483,63.6933894 63.4873793,63.7310897 63.7171724,63.7711462 C63.9282069,63.8053121 64.2553103,63.9490444 64.2553103,64.0456514 C64.2553103,64.0633234 64.2517931,64.0833517 64.2517931,64.1022018 C64.4030345,64.1292989 64.5507586,64.1493272 64.6691724,64.1505053 C65.6915172,64.1669992 66.5333103,63.892494 67.2602069,63.4813253 C68.2825517,62.8969709 69.2849655,62.845133 70.4773103,63.2704394 C71.1244828,63.5037099 71.9053103,63.3328804 72.4657241,63.0395251 C73.6088276,62.4457457 74.7249655,61.8684601 76.2807586,62.4198267 C77.6771034,61.9803828 78.9515172,62.069921 80.3091724,62.6130407 C81.274069,62.9994686 82.7724138,62.5859436 83.3633103,61.9497513 C83.6024828,61.6858493 83.8568966,61.4089879 83.9694483,61.1156326 C84.2496552,60.3663394 84.4431034,59.6005525 84.6705517,58.8642188 C86.0364138,57.9311368 87.3495172,57.034577 88.1326897,56.5044167 C89.269931,55.2968296 88.4914483,54.1929181 89.910069,53.5272725 C91.0226897,54.2930595 89.7904828,55.4193555 90.8456552,56.1886769 C92.0931034,55.9247749 92.4917241,55.1307127 92.9313793,54.4968767 C93.9138621,53.0866505 95.588069,52.3526731 97.7148276,51.9108729 C98.3901379,51.7718531 99.0631034,51.6269427 99.5449655,51.5232669 C102.606138,51.5821736 105.453931,51.6328333 108.288828,51.6846712 C109.155241,51.2970652 109.92669,50.9365562 110.716897,50.5996099 C111.701724,50.1825506 112.704138,49.7843413 113.46269,49.473314 C113.999655,48.900741 114.424069,48.5190256 114.725379,48.0984318 C115.612897,46.841363 115.958759,45.4052179 117.797103,44.4803828 C118.137103,44.3107315 118.364552,43.9643602 118.454828,43.6733611 C118.735034,42.7320322 119.329448,41.876707 120.221655,41.146264 C120.606207,40.8352367 120.846552,40.2273197 121.470276,40.2461698 C125.468207,40.3545581 127.224483,44.2105902 131.127448,42.4539926 C133.346828,41.453757 132.755931,39.8173291 133.730207,38.3835402 C134.047931,37.9169992 134.33869,37.0722772 134.962414,37.2407504 C135.487655,37.3774139 135.116,37.9605902 135.701034,38.223314 C136.61669,38.1738324 137.539379,38.1243508 138.310828,38.0831161 C139.432828,38.6179888 140.640414,38.8312311 141.348552,39.4803828 C141.939448,40.2049351 141.695586,40.961297 141.729586,41.7070558 C142.93131,41.2735025 144.143586,40.8352367 145.342966,40.3981491 C146.014759,40.5536627 146.672483,40.7021076 147.421655,40.872937 C149.388966,40.4935779 151.427793,40.0600246 153.604966,40.3321736 C153.840621,40.3580925 154.084483,40.3368861 154.320138,40.3474893 C156.39531,40.4641246 158.075379,40.0494214 159.075448,38.786462 C159.639379,38.0760473 160.367448,37.4975836 161.444897,37.0946618 C161.999448,36.8861321 162.752138,37.1665279 162.85531,37.6884412 C162.915103,37.9688371 162.947931,38.2527673 162.996,38.5414101 C164.771034,38.9584695 166.583586,39.3083753 167.725517,40.4499869 C168.229655,40.951872 169.071448,41.304134 169.573241,41.6151613 C171.235724,41.8708164 172.748138,41.9167636 173.960414,42.3350011 C175.723724,42.9476307 177.16931,42.0487146 178.809517,42.1877344 C180.46731,42.3243979 182.102828,42.3585638 183.578897,42.9782622 C184.634069,43.4177061 185.806483,43.3705807 186.998828,43.1066787 C188.558138,42.7626637 190.160828,42.5034742 191.756483,42.201872 C192.545517,41.6104488 193.313448,41.0343413 194.082552,40.459412 C194.99,40.5819379 195.895103,40.7021076 196.897517,40.837593 C199.836759,39.1552179 203.403241,38.4294874 207.227655,38.2315609 C208.227724,37.2654912 209.148069,36.3736439 210.025034,35.520675 C210.331034,35.485331 210.593655,35.3969709 210.740207,35.4464525 C212.209241,35.9648314 213.495379,35.8034271 214.565793,34.9964054 C215.186,34.5392895 215.710069,34.0256231 216.20131,33.5956043 C219.697448,33.1832574 222.590966,32.1641717 225.396552,30.8882527 C227.021517,31.154511 228.380345,32.0027673 230.210483,31.753003 C231.693586,31.3760001 233.24,30.9777909 234.732483,30.5996099 C235.254207,30.6856137 235.696207,30.7621924 236.153448,30.8222772 C236.603655,30.8823621 237.062069,30.9212405 237.608414,30.9777909 C238.235655,30.5725129 238.793724,29.9799115 239.590966,29.7478192 C243.676828,28.5508352 247.429724,26.9450388 251.36669,25.5359907 C253.784207,26.7188371 255.327103,28.2433423 256.634345,29.9245393 C257.329586,30.811674 258.723586,31.1827862 260.254759,31.1227014 C261.175103,31.083823 262.083724,30.8576213 263.020483,30.7810426 C265.107379,30.6102132 265.885862,29.2105902 267.730069,28.6922113 L273.337724,28.8995628 C275.249931,29.8114384 276.941724,30.9506938 279.414345,31.2157739 C279.828207,31.2640774 280.22331,31.542117 280.546897,31.762428 C281.55869,32.4669521 282.717034,32.959412 284.247034,32.9971123 C285.460483,33.0336345 286.543793,33.3446618 287.613034,33.7016363 C288.254345,33.9195911 288.978897,33.9561132 289.657724,33.7310897 C290.980207,33.2951802 292.434,33.3917871 293.829172,33.2515892 C294.727241,33.1585166 295.638207,32.8804771 296.387379,32.5317494 C297.550414,31.9956985 298.599724,31.3241623 298.828345,30.3262829 C299.041724,29.3602132 300.017172,28.6415515 300.642069,27.8086109 C301.305655,26.9285449 302.438207,26.3866033 303.877931,26.1050294 C304.546207,25.9754346 305.200414,25.8140303 305.865172,25.6667636 C306.963724,26.0543696 308.002483,26.2923526 309.261655,25.9412688 C310.540759,25.5854723 311.933586,25.3957928 313.107172,25.1648786 C314.360483,23.8112028 315.724,22.7591293 317.772207,22.1948032 C318.251724,22.2607787 318.728897,22.2866976 319.156828,22.3950859 C321.641172,23.0301 321.940138,23.0053592 323.438483,21.9108729 C324.059862,21.4561132 324.639034,20.9742565 324.907517,20.7610143 C327.932345,20.0352838 329.423655,20.978969 330.685172,22.2230784 C330.923172,22.2478192 331.179931,22.3149728 331.39331,22.2819851 C332.726345,22.0652084 334.033586,21.5055949 335.411172,22.2160096 C337.009172,23.0348126 339.168759,22.5824092 340.834759,23.2339172 C341.350621,23.4353781 341.746897,23.4165279 342.173655,23.0348126 C342.674276,22.4869804 342.644966,21.5868861 343.850207,21.2051707 C344.750621,20.9165279 345.312207,20.4464525 345.814,19.9092235 C346.601862,19.0703922 347.85869,18.6851425 349.214,18.3152084 C350.545862,17.9523432 351.965655,17.827461 353.275241,17.4858022 C354.566069,17.1476778 355.13,16.1474422 356.550966,15.7680831 C357.846483,15.4228899 358.962621,14.7973008 359.98731,14.3649257 C361.864345,14.3036627 363.518621,14.2753875 365.170552,14.1834931 C366.330069,14.121052 367.124966,13.2998927 366.902207,12.4987617 C366.740414,11.912051 366.647793,11.3159153 366.523517,10.7268484 C367.999586,10.7892895 369.350207,11.1050294 369.976276,12.016905 C371.491034,14.2058776 374.100828,15.8152084 376.500759,17.5376401 C376.946276,17.8592706 377.614552,18.0501283 378.089379,18.2574799 C380.763655,17.8510237 380.815241,17.8604488 382.089655,18.7016363 C382.764966,19.1410803 383.37931,19.6194026 384.072207,20.045887 C385.466207,20.9047466 386.869586,20.9931066 388.609448,20.327461 C389.407862,20.0223244 390.044483,19.5098361 390.929655,19.5498927 C392.200552,19.8279323 393.396414,19.9869804 394.430483,20.3439549 C395.463379,20.7032857 396.289931,21.3064902 397.280621,21.7211934 C398.678138,22.3008352 400.034621,22.9582339 402.116828,23.2904676 C405.21669,23.2833988 408.764414,23.8972066 412.267586,22.9429181 C413.09531,22.7167164 414.146966,22.827461 415.095448,22.8321736 C416.755586,22.8439549 418.426276,22.8934365 420.188414,22.9287805 C422.907241,21.7035214 425.732759,20.5866505 429.159724,20.3027202 C429.772897,20.2532386 430.396621,19.8538512 430.879655,19.52633 C431.537379,19.0892424 432.055586,18.5696853 432.573793,18.134954 C434.516483,17.8109672 436.320828,17.5128993 437.922345,17.246641 C439.428897,17.7991858 440.66931,18.2692612 441.932,18.7051707 C442.337655,18.8418343 442.818345,18.8854252 443.356483,18.989101 C445.011931,18.7310897 444.969724,17.0286863 446.438759,17.0817023 C448.172759,17.1394309 447.91131,19.0668578 449.869241,19.4898079 C450.47069,19.6241151 451.317172,19.4462169 451.726345,19.7619568 C452.256276,20.1719474 451.799034,20.8399492 452.561103,21.1486203 C455.490966,22.325576 457.281241,24.1776024 459.332966,25.7421641 C459.415034,28.0371689 462.266345,29.4214761 462.863103,31.4678946 C462.660276,32.0192612 462.449241,32.6106844 462.246414,33.162051 C462.615724,34.1705336 463.727172,34.807904 464.693241,35.4664808 C465.979379,36.3324092 465.649931,37.5305713 466.400276,38.4895722 C466.613655,38.7652556 466.871586,39.0350482 467.188138,39.262428 C468.304276,40.0635591 469.455586,40.8481962 470.415793,41.5138418 C472.554276,41.7801 474.137034,42.492871 476.159448,42.4280737 C477.481931,42.3844827 478.877103,42.8969709 480.170276,43.258658 C480.78931,43.4342 481.349724,43.7923526 481.774138,44.1457928 C482.354483,44.6252933 482.775379,45.1790162 483.256069,45.6973951 C485.579793,46.3229841 488.125103,45.8470181 489.611724,46.3100246 C491.525103,46.9968767 492.195724,47.9900435 493.782,48.0725129 C494.470207,47.9711934 495.160759,47.8698738 495.906414,47.7626637 C496.043586,47.809789 496.193655,47.8557362 496.334345,47.9005053 C496.781034,47.7096476 497.246483,47.5293932 497.61931,47.2866976 C498.452897,46.7494686 499.014483,46.0378757 499.785931,45.459412 C500.44131,44.9740209 501.428483,44.8750576 502.368759,44.7607787 C504.209448,44.534577 505.281034,43.795887 505.625724,42.5918343 C505.714828,42.2914101 505.891862,42.0051236 506.032552,41.7082339 C506.213103,41.7082339 506.460483,41.6587523 506.569517,41.7164808 C507.249517,42.0746335 507.662207,42.5753404 508.887379,42.3208635 C510.661241,41.9579983 512.436276,41.44551 514.362552,41.5362263 C515.280552,41.5821736 515.526759,41.1533328 515.931241,40.794002 C516.773034,40.0517777 518.076759,40.0317494 519.120207,40.4181773 C520.358276,40.872937 521.484966,41.4490444 522.58,41.9367919 C524.850966,42.0121924 526.985931,42.0840586 528.520621,42.1358965 C533.244276,43.4071029 537.412207,44.5298644 541.567241,45.6455572 L547.213586,45.6455572 C547.988552,45.1625223 548.660345,44.7395722 549.381379,44.2918814 C550.687448,44.6252933 552.016966,44.9657739 553.37931,45.3145016 C555.173103,45.0470652 556.965724,44.52633 559.086621,45.0977249 C559.590759,45.4405619 560.246138,45.8847183 561.026966,46.4089879 C563.324897,46.920298 565.783448,47.4657739 568.448345,48.0571971 C569.686414,48.8300529 570.983103,49.7513536 572.455655,50.5359907 C573.918828,51.3170935 575.305793,52.1476778 576.723241,52.9499869 C578.133655,53.7534742 579.717586,54.4627108 581.12331,55.3027202 C582.287517,55.9989973 583.649862,56.1297702 585.096621,55.7527673 C586.195172,55.4617683 587.270276,55.0435308 588.506,55.2461698 C589.636207,55.4287805 590.740621,55.6985732 591.578897,55.8776495 C593.912,55.3486674 595.900414,54.8456043 597.950966,54.4497513 C599.289862,54.1940963 600.702621,54.095133 601.882069,53.9502226 C602.345172,53.5814667 602.71331,53.3670463 602.92669,53.1019662 C603.768483,52.0604959 605.00069,51.4502226 606.830828,51.3053121 C607.739448,51.2322678 608.621103,50.9860378 609.482828,50.8222772 C610.353931,51.172183 611.15469,51.4961698 612.048069,51.8543225 C613.106759,51.7035214 614.236966,51.5173762 615.376552,51.3736439 C616.752966,51.1992801 618.135241,51.0626165 619.658207,50.8941434 C620.542207,51.2640774 621.45669,51.8460755 622.542345,52.0604959 C624.163793,52.3797702 625.616414,52.7720887 626.990483,53.443625 C628.301241,54.0868861 629.832414,54.7325034 631.390552,54.9139361 C633.407103,55.1554535 634.790552,55.9742565 636.403793,56.5727485 C637.335862,56.4372631 638.246828,56.3088465 639.010069,56.1981019 C640.889448,56.7777438 642.609379,57.3090821 644.373862,57.8474893 C646.722207,57.9181773 649.065862,57.9476307 651.305172,58.6615798 C652.705034,59.1057362 654.082621,58.619167 655.046345,57.8050765 C655.510621,57.4104017 655.688828,56.9309012 655.34531,56.5079511 C654.896276,55.9660096 654.185793,55.5159624 653.728552,54.9787334 C653.393241,54.5852367 653.249034,54.1163394 653.084897,53.6698267 C652.951241,53.2904676 653.583172,52.686085 654.144759,52.5918343 C654.652414,52.5070086 655.097931,52.6036156 655.389862,52.9099304 C656.511862,54.1163394 657.717103,55.2614855 660.102966,55.9707221 C661.195655,55.9978192 662.620138,56.0013536 664.035241,56.0767541 C665.40931,56.1486203 666.775172,56.295887 668.141034,56.4089879 C669.380276,55.1366033 671.172897,54.9433894 673.167172,55.2379229 C673.851862,55.3415986 674.459172,55.6655854 675.14269,55.7563017 C676.29869,55.908281 677.489862,56.0449445 678.661103,56.0249163 C681.066897,55.9848597 683.152621,55.1153969 685.420069,54.7089408 C685.832759,54.6323621 686.205586,54.3519662 686.494,54.1092706 C686.923103,53.7405148 687.186897,53.2881114 687.653517,52.9393837 C688.320621,52.4422113 689.232759,52.2407504 690.223448,52.4233611 C690.90931,52.5482433 691.543586,52.7614855 692.204828,52.9358493 C693.659793,53.329346 694.962345,53.1738324 696.180483,52.5164337 C697.44669,51.8366505 698.757448,51.1886769 700.023655,50.5454158 C700.092828,49.8279323 700.145586,49.2082339 700.218276,48.5850011 C700.255793,48.27633 700.23,47.9429181 700.403517,47.6648786 C700.572345,47.404511 700.913517,47.1040869 701.286345,47.0110143 C701.654483,46.9179417 702.205517,47.0027673 702.602966,47.1194026 C703.52331,47.3821264 704.054414,47.9252461 704.467103,48.4825034 C704.810621,48.9466882 705.40269,49.323691 706.03931,49.3425411 C710.06069,49.4438607 714.110207,49.8986203 718.034276,48.8406561 C719.613517,48.4177061 721.422552,48.3576213 722.951379,48.707527 C725.370069,49.2694968 727.928276,49.5546052 730.124207,50.6585166 C732.179448,51.6988088 734.390621,52.6165751 736.304,53.786462 C738.862207,54.3731726 740.423862,55.8670463 742.399379,56.7482904 C744.766483,57.0392895 746.820552,57.069921 748.918,56.5091293 C751.641517,55.7857551 754.46469,55.7975364 757.264414,56.4678946 C758.596276,56.7859907 759.952759,57.0640303 761.438207,57.3891952 C762.036138,57.7520605 762.716138,58.1903263 763.441862,58.5908918 C764.155862,58.9843885 764.914414,59.3295817 765.533448,59.6311839 C767.640276,59.4073385 769.293379,58.6262358 771.293517,58.8359436 C773.217448,59.0350482 775.058138,58.6945675 776.884759,58.3481962 C777.07469,58.3104959 777.349034,58.4165279 777.562414,58.4766128 C779.147517,58.94551 780.833448,58.8265185 782.491241,58.8265185 C785.827931,58.8312311 789.200966,58.9926354 792.490759,58.7299115 C795.032552,58.5213819 797.512207,57.8545581 799.912138,57.1629935 C800.503034,56.990986 801.439793,56.9686015 801.989655,57.158281 C803.975724,57.8439549 806.069655,57.9617683 808.228069,57.9181773 C809.693586,57.888724 811.028966,58.1467353 812.354966,58.5531915 C813.754828,58.9867447 815.08669,58.8147372 816.328276,58.1655854 C817.601517,57.4952273 818.450345,56.4490444 820.226552,56.2346241 C822.917241,56.4620039 824.728621,57.8522018 826.770966,58.4224186 C828.061793,58.2174233 828.970414,58.0289219 829.909517,57.9346712 C832.942552,57.6201095 835.91931,57.0934837 838.842138,56.5079511 C840.569103,56.1592235 841.991241,56.1568673 843.630276,56.5821736 C844.70069,56.8625694 845.936414,56.9191198 847.111172,56.9532857 C849.472414,57.0227956 851.884069,56.7859907 854.064759,57.6719474 C854.39069,57.8027202 855.069517,57.7544167 855.423586,57.6153969 C856.768345,57.0911274 858.192828,57.5246806 859.568069,57.4374987 C861.884759,57.2937664 863.884897,57.1959813 864.884966,56.9532857 C866.458345,56.568036 867.226276,55.3380642 868.839517,55.3109672 C870.441034,55.5701566 871.791655,55.8705807 873.180966,55.9848597 C874.816483,56.1215232 876.48131,56.0991387 877.676,56.1344827 C879.721862,56.9532857 881.260069,57.7002226 882.969448,58.2174233 C884.893379,58.8017777 886.956828,59.2011651 888.975724,59.6347183 C889.932414,59.8420699 890.860966,59.658281 891.699241,59.3166222 C892.490621,58.9867447 893.253862,58.6238795 894.027655,58.2751519 C895.756966,58.8536156 897.18731,57.7520605 898.849793,57.9146429 C899.547379,57.9829747 900.38331,57.8981491 900.940207,58.1161038 C903.730552,59.2046995 906.396621,58.8229841 909.113103,58.0112499 C909.968966,57.7603074 910.990138,57.7296759 911.814345,57.4492801 C913.152069,56.9980548 914.563655,57.0369332 915.982276,56.9532857 C918.193448,56.8166222 920.157241,57.4374987 922.159724,57.7108258 C923.561931,57.4327862 924.802345,56.8519662 926.281931,57.4492801 C927.596207,57.977084 928.973793,57.9723715 930.350207,57.492871 C931.893103,56.955642 933.526276,56.8955572 935.560414,57.2254346 C936.762138,57.8792989 938.218276,58.6627579 939.615793,59.4179417 C941.259517,59.8020133 942.783655,60.2661981 944.393379,60.5077155 C945.762759,60.7127108 947.242345,60.7857551 948.641034,60.6973951 C950.324621,60.5878286 951.760828,61.5491858 953.717586,60.9883941 C955.444552,59.4497513 958.114138,59.7313253 960.684069,59.896264 C962.344207,60.221429 963.194207,61.4325506 965.032552,61.4384412 C968.398552,60.7350953 968.457172,60.1224657 972.119793,62.105265 C972.296828,62.2030501 972.533655,62.2560661 972.741172,62.3326448 C974.143379,62.7002226 975.445931,61.5645016 976.85869,62.2230784 C978.034621,62.0675647 979.095655,61.7730312 979.904621,61.1945675 C979.744,60.4994686 978.912759,60.1436722 978.314828,59.6771312 C977.857586,59.3225129 977.42731,58.953757 977.007586,58.5826448 C976.708621,58.3210991 977.259655,57.6907975 977.949034,57.4975836 C978.430897,57.36092 978.784966,57.4905148 979.092138,57.8203922 C979.332483,58.0760473 979.665448,58.302249 979.994897,58.5720416 C981.297448,58.8382999 982.648069,59.1151613 984.065517,59.4014478 C985.227379,58.9584695 986.361103,58.3246335 987.673034,58.0619097 C989.669655,57.6530972 991.787034,57.5058305 994.021655,57.2254346 C994.518759,57.7143602 994.956069,58.2716175 995.578621,58.7216646 C996.004207,59.0268013 996.679517,59.1858493 997.170759,59.3802414 C998.319724,58.8842471 999.304552,58.4624752 1000.47697,57.9523432 C1002.00579,57.9523432 1003.66593,57.967659 1005.32607,57.9476307 C1007.22303,57.9287805 1009.11648,57.8734082 1010.87276,57.8368861 C1012.20931,57.2336816 1013.3829,56.709412 1014.50607,56.1981019 C1015.75234,56.0967824 1016.93414,55.9989973 1018.29414,55.8894309 C1018.93545,55.5784035 1019.72448,55.2296759 1020.44083,54.8314667 C1021.41041,54.2989502 1022.63324,54.2777438 1023.73414,54.0044167 C1024.59117,53.786462 1025.34386,53.3611557 1026.09655,52.9876872 C1027.79538,52.1476778 1029.63724,52.1135119 1031.49434,52.6201095 C1033.24241,53.0972537 1034.97876,53.6156326 1036.30828,54.5781679 C1037.26028,55.2697325 1038.30607,55.9200623 1039.41283,56.5079511 C1040.15966,56.9061604 1041.14683,57.0510708 1042.11055,56.8484318 C1043.23724,56.6116269 1044.32524,56.3123809 1045.52228,56.0202037 C1047.74986,56.5055949 1050.03607,56.9144073 1052.20386,57.5058305 C1053.48062,57.8580925 1054.49945,57.5694497 1055.60621,57.3585638 C1057.87248,57.8027202 1060.13407,58.2480548 1062.25731,58.6674705 C1063.06745,58.5213819 1063.73572,58.4035685 1064.52241,58.2633705 C1065.9469,59.0550765 1067.37372,59.8573856 1068.63641,60.5595534 C1069.86276,60.6490916 1070.81828,60.758658 1071.58738,60.2332103 C1072.23338,59.7914101 1072.77621,59.2235496 1073.55938,58.9372631 C1075.62283,58.1856137 1077.60421,57.2843413 1080.32538,57.0157268 C1083.62455,58.2021076 1087.39386,58.0454158 1091.04593,57.7874045 C1092.38834,57.1924469 1093.57014,56.6717117 1094.72966,56.1568673 C1096.43434,56.0720416 1098.08862,55.9931066 1099.79448,55.908281 C1100.75469,55.4476307 1101.64572,54.9139361 1102.68097,54.5498927 C1103.69276,54.1870275 1104.85228,53.9938135 1106.0411,53.7063489 C1106.5511,53.0147843 1107.08103,52.3220416 1107.584,51.6234082 C1107.67076,51.4926354 1107.64966,51.3112028 1107.5969,51.1344827 C1107.51366,50.8858965 1106.86648,50.6314196 1107.13028,50.4429181 C1109.20076,48.9490444 1114.16945,48.7664337 1115.95621,50.4134648 C1116.46386,50.8800058 1115.23517,51.4042754 1115.57869,51.744756 C1115.99372,52.1453215 1117.28924,52.3738795 1118.14745,52.1017306 C1118.50621,51.9874516 1119.03379,51.7365091 1119.08186,51.321806 C1119.12993,50.9400906 1118.58476,50.5524846 1118.1709,50.2284978 C1118.03724,50.1271783 1117.73476,50.1142188 1117.73476,50.001118 C1117.784,48.5779323 1121.71393,47.8074328 1123.6109,48.3964997 C1123.66248,48.4153498 1123.70117,48.4895722 1123.65428,48.5213819 C1125.22062,47.4634177 1127.74952,47.9488088 1129.71566,47.8121453 C1131.34297,48.2810426 1132.85538,48.7181302 1134.31621,49.1422584 C1135.44407,48.6686486 1136.43593,48.2539455 1137.53566,47.7932951 C1138.15586,47.9005053 1138.864,47.9570558 1139.48069,48.1502697 C1140.83483,48.5708635 1142.25345,48.5084224 1143.6791,48.5602603 C1145.17745,48.6168107 1146.38855,47.8734082 1147.75441,47.8863677 C1149.12262,47.9005053 1150.46972,48.390609 1151.85786,48.5025317 C1152.75359,48.5743979 1153.78883,48.4530501 1154.62007,48.2103545 C1157.42566,47.3986203 1160.13041,47.4257174 1162.89966,48.2539455 C1164.31007,48.6733611 1165.65483,48.425953 1166.97262,47.9346712 C1168.01255,47.545887 1168.99386,47.1712405 1169.63752,46.4525788 C1169.99979,46.0449445 1170.71028,45.8811839 1171.47586,45.996641 C1171.9331,46.0673291 1172.47476,46.3182716 1172.83821,46.2310897 C1175.36241,45.6066787 1177.98393,45.7892895 1180.58552,45.7315609 C1181.28779,45.7162452 1182.1249,45.766905 1182.68062,45.5442377 C1184.85779,44.6712405 1187.30579,44.9092235 1189.25317,44.7183658 C1191.64607,44.227084 1193.35076,43.2892895 1195.3849,43.0984318 C1196.18566,43.2315609 1196.85393,43.3458399 1197.42372,43.4412688 C1200.97848,42.0404676 1204.42186,40.679723 1207.90276,39.306019 C1209.74814,38.9620039 1211.47628,40.0600246 1213.38497,39.5864148 C1215.17876,39.983446 1216.962,40.4016835 1218.77924,40.7610143 C1219.16966,40.8399492 1219.66441,40.7068201 1220.23069,40.6573385 C1221.00331,40.1260001 1221.4289,39.3920228 1221.99283,38.7157739 C1222.45593,38.1726542 1222.77952,37.5741623 1223.24379,37.0369332 C1223.8171,36.3795345 1223.47476,35.4735496 1224.71752,34.9233611 C1225.18766,35.2155383 1225.96262,35.4735496 1226.13262,35.8446618 C1226.68834,37.061674 1227.40821,38.1255289 1229.10703,38.8913159 C1229.82924,39.2211934 1230.18917,39.8986203 1231.12241,40.1483847 C1232.22214,40.4393837 1233.28317,40.8399492 1234.42159,40.9954629 C1235.56703,41.1486203 1236.56241,41.6893837 1237.81807,41.524445 C1238.50628,41.4337287 1239.36917,41.1486203 1239.86393,41.3159153 C1242.09972,42.0652084 1244.48559,41.9886297 1246.85152,41.9968767 C1248.54214,42.0027673 1250.15538,42.1500341 1251.69124,42.6530972 C1252.28917,42.8474893 1253.19076,42.5447089 1253.47448,42.1488559 C1253.87193,41.5963112 1253.79924,40.9012122 1254.75945,40.4393837 C1256.19448,40.10715 1257.74324,39.7431066 1259.29903,39.3955572 C1259.50655,39.3460755 1259.76917,39.3873102 1259.96731,39.3873102 C1260.40345,39.5687428 1260.90876,39.6818437 1261.17959,39.9127579 C1262.03428,40.6502697 1262.65566,41.5326919 1263.64752,42.1712405 C1264.64055,42.8121453 1266.01228,43.1903263 1267.13779,43.7558305 C1268.25979,44.3201566 1269.28097,44.9775553 1270.12041,45.4617683 C1273.22731,45.8976778 1275.76793,46.912051 1278.75759,46.7164808 C1279.41414,46.6717117 1280.17503,46.8696382 1280.78703,47.0840586 C1282.39676,47.6495628 1283.94434,47.660166 1285.53297,47.0687428 C1286.62097,46.6611085 1287.84145,46.5456514 1288.9529,46.9320793 C1291.51579,47.8156797 1293.9591,47.7367447 1296.40945,46.7683187 C1297.01676,46.5279794 1297.68386,46.3477249 1298.35214,46.1768955 C1298.78124,46.0673291 1299.25138,46.0296288 1299.70628,45.9565845 C1300.87634,45.9883941 1301.82248,46.7153027 1303.29972,46.3783564 C1303.69366,46.1733611 1304.33145,45.9318437 1304.78869,45.5866505 C1305.72076,44.8891952 1306.54262,44.1363677 1307.4149,43.4035685 C1307.81586,43.52256 1308.31297,43.575576 1308.59903,43.7664337 C1309.79255,44.5357551 1309.98834,45.7621924 1311.41517,46.4301943 C1312.96276,47.1464997 1314.54317,47.8286392 1316.04855,48.5814667 C1317.02283,49.0692141 1318.03462,49.3990916 1319.23869,49.5581396 C1319.914,49.6453215 1320.62566,49.8385355 1321.15676,50.124822 C1323.77828,51.5268013 1326.86172,52.3302886 1329.88421,53.2186015 C1330.65214,53.2186015 1331.36966,53.2386297 1332.07779,53.2186015 C1336.0851,53.1078569 1340.18269,53.6615798 1344.03993,52.4339643 C1344.63552,52.2442848 1345.44331,52.3196853 1346.15848,52.3196853 C1349.25014,52.3090821 1352.35117,52.3149728 1355.31855,52.3149728 C1356.97166,52.9888654 1358.50986,53.5956043 1360,54.2317966 L1360,0.351023707 L0,0.351023707 Z" id="Fill-1" fill="#DEEBE7" mask="url(#mask-2)"></path>
            </g>
        </g>
    </g>
</svg>
