<?xml version="1.0" encoding="UTF-8"?>
<svg width="171px" height="62px" viewBox="0 0 171 62" version="1.1" xmlns="http://www.w3.org/2000/svg" xmlns:xlink="http://www.w3.org/1999/xlink">
    <title>AD723EBC-0288-49DA-A62E-09DE90A80D35</title>
    <defs>
        <polygon id="path-1" points="0.42824337 0.39 1.42824337 0.39 1.42824337 1.3810397 0.42824337 1.3810397"></polygon>
        <polygon id="path-3" points="0.5356 0.37065 2.99161542 0.37065 2.99161542 1.5 0.5356 1.5"></polygon>
        <polygon id="path-5" points="0.764103538 0.204812718 1.76410354 0.204812718 1.76410354 1.5 0.764103538 1.5"></polygon>
        <polygon id="path-7" points="0.3079 0.0804 1.3079 0.0804 1.3079 1.5 0.3079 1.5"></polygon>
        <polygon id="path-9" points="1 0.4883 1.901 0.4883 1.901 1.9883 1 1.9883"></polygon>
        <polygon id="path-11" points="0 0.326909305 169.78 0.326909305 169.78 53.9833539 0 53.9833539"></polygon>
    </defs>
    <g id="Page-1" stroke="none" stroke-width="1" fill="none" fill-rule="evenodd">
        <g id="web-dev-landing-page" transform="translate(-504.000000, -3022.000000)">
            <g id="Group-17" transform="translate(504.000000, 2844.000000)">
                <g id="Group-243" transform="translate(0.000000, 178.000000)">
                    <g id="Group-3" transform="translate(126.000000, 0.000000)">
                        <mask id="mask-2" fill="white">
                            <use xlink:href="#path-1"></use>
                        </mask>
                        <g id="Clip-2"></g>
                        <path d="M1.1606,0.73755 C1.1836,0.23055 0.2856,0.78255 0.9266,0.73755 L1.1606,0.73755 Z" id="Fill-1" fill="#4A455C" mask="url(#mask-2)"></path>
                    </g>
                    <g id="Group-6" transform="translate(39.000000, 60.000000)">
                        <mask id="mask-4" fill="white">
                            <use xlink:href="#path-3"></use>
                        </mask>
                        <g id="Clip-5"></g>
                        <path d="M2.3906,0.74115 C2.2856,0.87765 2.2196,1.07565 2.1676,1.29015 C1.7236,1.14165 0.9716,0.73515 0.5356,1.16115 C0.5796,1.36665 0.7476,1.60965 0.7716,1.33515 C1.0136,1.25115 1.0806,1.44615 1.2386,1.50015 L2.1696,1.47015 C2.4086,1.35615 2.9366,1.66665 2.9816,1.26465 C3.0806,0.50265 2.4136,1.57365 2.3906,0.74115" id="Fill-4" fill="#4A455C" mask="url(#mask-4)"></path>
                    </g>
                    <g id="Group-9" transform="translate(37.000000, 60.000000)">
                        <mask id="mask-6" fill="white">
                            <use xlink:href="#path-5"></use>
                        </mask>
                        <g id="Clip-8"></g>
                        <path d="M1.252,0.84225 C1.077,0.63975 0.957,0.64425 0.787,0.85725 C0.821,1.41675 1.37,1.14225 1.721,1.18725 C1.832,0.64425 1.459,0.87825 1.252,0.84225" id="Fill-7" fill="#4A455C" mask="url(#mask-6)"></path>
                    </g>
                    <g id="Group-12" transform="translate(35.000000, 60.000000)">
                        <mask id="mask-8" fill="white">
                            <use xlink:href="#path-7"></use>
                        </mask>
                        <g id="Clip-11"></g>
                        <path d="M0.6904,0.74415 C0.6954,0.91965 0.8364,0.87915 0.9254,0.91665 C0.9194,0.74415 0.7814,0.78165 0.6904,0.74415" id="Fill-10" fill="#4A455C" mask="url(#mask-8)"></path>
                    </g>
                    <path d="M47.3988937,60.4027771 L46.7986498,60.4187771 C46.5183635,60.5247771 46.5364743,60.2567771 46.2975841,60.3137771 C45.8784483,60.2267771 45.4670743,60.4997771 45.2971776,60.3407771 C45.0755359,60.2787771 45.160053,60.5727771 45.0030926,60.5867771 C44.9858442,60.6907771 45.0436263,60.6997771 45.1048581,60.7037771 L45.9034585,60.6827771 C46.5080145,60.5757771 46.8478077,60.6907771 47.6032871,60.6367771 C47.6947035,60.2987771 47.8740868,60.8037771 48,60.5067771 C47.983614,60.2417771 47.5756897,60.4677771 47.3988937,60.4027771" id="Fill-13" fill="#4A455C"></path>
                    <path d="M44.2655,60.581061 C44.3065,60.744061 44.5595,60.675061 44.7345,60.691061 L44.7265,60.331061 C44.3465,60.192061 44.6455,60.722061 44.2655,60.581061" id="Fill-15" fill="#4A455C"></path>
                    <path d="M48.3825,60.443 C48.3885,60.56 48.5255,60.532 48.6175,60.557 C48.6105,60.441 48.4715,60.467 48.3825,60.443" id="Fill-17" fill="#4A455C"></path>
                    <path d="M54.3722809,59.184158 C54.0406557,59.191158 53.6584254,59.153158 53.5023031,59.321158 C53.378482,58.997158 53.1168427,59.497158 52.7539931,59.337158 C52.5364986,59.412158 52.01645,59.209158 52.0078364,59.473158 C51.2078445,59.519158 50.9332846,59.524158 50.3895485,59.629158 C50.1602103,59.409158 50.0751506,59.733158 49.6401618,59.645158 C49.4043633,59.702158 48.8843147,59.498158 49.0232097,59.897158 C51.3208985,59.976158 53.0619307,59.543158 55,59.288158 C54.8751022,58.889158 54.7652783,59.235158 54.3722809,59.184158" id="Fill-19" fill="#4A455C"></path>
                    <path d="M30.3599043,60.4835122 C30.7219043,60.9205122 30.7449043,60.1125122 30.3599043,60.4835122" id="Fill-21" fill="#4A455C"></path>
                    <path d="M28,60.3741561 C28.0944669,60.6661561 28.7296446,60.3251561 28.8421053,60.5951561 C29.3432299,60.4931561 29.5213675,60.7701561 30,60.6931561 C29.8425551,60.4301561 29.3711201,60.5411561 29.154296,60.3521561 C28.6693657,60.4831561 28.2420153,60.1471561 28,60.3741561" id="Fill-23" fill="#4A455C"></path>
                    <path d="M41,60.3580549 C40.8765125,60.0870549 40.3046706,60.3270549 40.0035512,60.2600549 L39.0080523,60.2820549 C38.73543,60.3880549 38.421012,60.4520549 38.017303,60.4250549 C37.8729176,60.9560549 38.6793857,60.4100549 38.6869849,60.7690549 C39.1163413,60.8230549 39.1372392,60.4520549 39.454507,60.3930549 C39.799322,60.3260549 39.8886129,60.5520549 40.1203893,60.6160549 C40.4614047,60.5790549 40.7425761,60.4810549 41,60.3580549" id="Fill-25" fill="#4A455C"></path>
                    <path d="M42.440466,60.4413266 C42.381466,60.5053266 42.528466,60.5913266 42.559466,60.5593266 C42.618466,60.4953266 42.472466,60.4073266 42.440466,60.4413266" id="Fill-27" fill="#4A455C"></path>
                    <path d="M37.7367392,60.5581361 C37.6577392,60.4011361 37.4857392,60.3401361 37.2677392,60.3301361 C37.2197392,60.7041361 37.5697392,60.7521361 37.7367392,60.5581361" id="Fill-29" fill="#4A455C"></path>
                    <path d="M42.4250154,59.2905153 C42.4130301,59.5135153 42.0626921,59.3735153 42,59.5415153 C42.0405655,59.6775153 42.1945298,59.8395153 42.2166564,59.6575153 C42.5642286,59.4035153 43.3017824,59.5665153 43.8236017,59.4995153 L44.6791641,59.4795153 C44.8322065,59.4855153 44.984327,59.4915153 45,59.3525153 L44.5703749,59.3625153 C43.9803319,59.1915153 43.1634911,59.2885153 42.4250154,59.2905153" id="Fill-31" fill="#4A455C"></path>
                    <path d="M55.2086864,59.4609045 C55.3976864,59.6479045 55.7026864,59.6629045 55.7906864,59.5679045 C55.8106864,59.5439045 55.3466864,59.2259045 55.2086864,59.4609045" id="Fill-33" fill="#4A455C"></path>
                    <path d="M56.3195398,59.381 C56.3445398,59.478 56.4395398,59.498 56.4425398,59.619 L56.6735398,59.614 C56.7225398,59.354 56.5015398,59.388 56.3195398,59.381" id="Fill-35" fill="#4A455C"></path>
                    <polygon id="Fill-37" fill="#4A455C" points="57.3805 59.382 57.3865 59.623 57.6195 59.617 57.6135 59.377"></polygon>
                    <path d="M25.1417952,59.3969556 C25.2627952,59.5959556 25.6397952,59.5199556 25.8457952,59.6259556 C25.9487952,59.1909556 25.3837952,59.4669556 25.1417952,59.3969556" id="Fill-39" fill="#4A455C"></path>
                    <path d="M36.4405,59.4413299 C36.3815,59.5053299 36.5275,59.5923299 36.5595,59.5593299 C36.6185,59.4953299 36.4725,59.4063299 36.4405,59.4413299" id="Fill-41" fill="#4A455C"></path>
                    <path d="M57.5575,59.4385 L57.2105,59.4465 C57.2165,59.5625 57.3545,59.5375 57.4445,59.5615 L57.7895,59.5535 C57.7855,59.4375 57.6465,59.4625 57.5575,59.4385" id="Fill-43" fill="#4A455C"></path>
                    <path d="M26.4988592,59.5702199 L26.7318592,59.5662199 C26.7488592,59.2282199 25.8608592,59.6142199 26.4988592,59.5702199" id="Fill-45" fill="#4A455C"></path>
                    <path d="M27.4405,59.440312 C27.3815,59.503312 27.5275,59.592312 27.5595,59.559312 C27.6185,59.497312 27.4725,59.408312 27.4405,59.440312" id="Fill-47" fill="#4A455C"></path>
                    <path d="M46.6165,59.558 C46.6115,59.441 46.4725,59.469 46.3835,59.442 C46.3875,59.559 46.5255,59.534 46.6165,59.558" id="Fill-49" fill="#4A455C"></path>
                    <path d="M62.3835,58.442 C62.3895,58.559 62.5275,58.534 62.6165,58.558 C62.6125,58.441 62.4735,58.468 62.3835,58.442" id="Fill-51" fill="#4A455C"></path>
                    <path d="M63.0008327,58.5725 L63.5016994,58.5595 C63.6455469,58.4915 64.0207637,58.6865 63.9990999,58.4275 L63.4990998,58.4415 C63.3543857,58.5105 62.9800355,58.3145 63.0008327,58.5725" id="Fill-53" fill="#4A455C"></path>
                    <path d="M47.382,59.442 C47.388,59.559 47.528,59.532 47.618,59.558 C47.611,59.442 47.474,59.467 47.382,59.442" id="Fill-55" fill="#4A455C"></path>
                    <path d="M48.847,58.5038719 C48.791,58.2398719 48.231,58.4258719 48.153,58.5198719 C48.266,58.8438719 48.511,58.3458719 48.847,58.5038719" id="Fill-57" fill="#4A455C"></path>
                    <path d="M63.459987,58.5381096 C63.600987,58.5461096 63.525987,58.3621096 63.459987,58.5381096" id="Fill-59" fill="#4A455C"></path>
                    <path d="M64.440758,58.4403108 C64.381758,58.5043108 64.528758,58.5923108 64.558758,58.5593108 C64.618758,58.4963108 64.472758,58.4083108 64.440758,58.4403108" id="Fill-61" fill="#4A455C"></path>
                    <path d="M65.266,58.3852288 C65.298,58.5942288 65.471,58.6532288 65.734,58.6152288 C65.702,58.4052288 65.528,58.3462288 65.266,58.3852288" id="Fill-63" fill="#4A455C"></path>
                    <path d="M48.5575,58.439 L48.2085,58.447 C48.2135,58.564 48.3525,58.537 48.4445,58.561 L48.7915,58.553 C48.7845,58.438 48.6475,58.463 48.5575,58.439" id="Fill-65" fill="#4A455C"></path>
                    <path d="M49.7554961,58.7074405 C50.0187937,58.7524405 50.0856972,58.6184405 50.254035,58.5774405 L51.6277145,58.5474405 C51.6439008,58.4074405 51.8543231,58.4424405 52,58.4204405 C51.8219504,58.1154405 51.2327682,58.4104405 50.9996851,58.4414405 L49.0001343,58.4844405 C48.9882643,58.8254405 49.7673661,58.3694405 49.7554961,58.7074405" id="Fill-67" fill="#4A455C"></path>
                    <path d="M67.3835,58.443 C67.3885,58.56 67.5265,58.532 67.6165,58.557 C67.6115,58.442 67.4735,58.467 67.3835,58.443" id="Fill-69" fill="#4A455C"></path>
                    <path d="M67.097,58.6641389 C67.335,58.5881389 67.859,58.7971389 67.903,58.5261389 C67.49,58.6011389 67.154,57.9581389 67.097,58.6641389" id="Fill-71" fill="#4A455C"></path>
                    <path d="M68.3479685,58.5608671 C68.9629685,58.6768671 68.4759685,58.1938671 68.3479685,58.5608671" id="Fill-73" fill="#4A455C"></path>
                    <path d="M33.2741333,58.3836695 C33.1661333,58.7466695 33.5381333,58.5916695 33.7451333,58.6126695 C33.7121333,58.4026695 33.5381333,58.3436695 33.2741333,58.3836695" id="Fill-75" fill="#4A455C"></path>
                    <path d="M69.3835,57.443 C69.3875,57.559 69.5265,57.532 69.6165,57.557 C69.6115,57.441 69.4725,57.467 69.3835,57.443" id="Fill-77" fill="#4A455C"></path>
                    <path d="M31.4223172,58.3711279 C31.4463172,58.4741279 31.3803172,58.4841279 31.3083172,58.4931279 C31.2673172,58.7251279 31.8433172,58.6581279 31.6563172,58.3671279 L31.4223172,58.3711279 Z" id="Fill-79" fill="#4A455C"></path>
                    <path d="M72.7325,57.6093296 C72.6525,57.4503296 72.4815,57.3923296 72.2675,57.3793296 C72.2995,57.5903296 72.4705,57.6483296 72.7325,57.6093296" id="Fill-81" fill="#4A455C"></path>
                    <path d="M71.3835,57.4425 C71.3905,57.5595 71.5265,57.5325 71.6165,57.5575 C71.6115,57.4405 71.4735,57.4665 71.3835,57.4425" id="Fill-83" fill="#4A455C"></path>
                    <path d="M73.5396485,57.4620301 C73.3996485,57.4530301 73.4746485,57.6380301 73.5396485,57.4620301" id="Fill-85" fill="#4A455C"></path>
                    <path d="M74.3910889,57.5618354 C74.8730889,57.6658354 74.4070889,57.2018354 74.3910889,57.5618354" id="Fill-87" fill="#4A455C"></path>
                    <path d="M75.4410338,57.4415301 C75.3830338,57.5045301 75.5270338,57.5925301 75.5590338,57.5585301 C75.6170338,57.4945301 75.4720338,57.4075301 75.4410338,57.4415301" id="Fill-89" fill="#4A455C"></path>
                    <path d="M81.5551567,56.3203121 C81.1966036,56.4763121 81.4623775,55.9333121 81.1057573,56.0913121 C79.4531272,56.1833121 77.9483639,56.4283121 76.2155184,56.4383121 C76.1208063,56.5363121 76.1575314,56.7673121 76,56.8023121 C76.0048323,56.9203121 76.1382024,56.8923121 76.2242165,56.9173121 C76.3256938,56.8413121 76.7093746,57.0043121 76.7799254,56.9043121 C76.9229601,56.7103121 76.9645175,56.9263121 77.3375673,56.8923121 C78.0314787,56.8303121 79.0539832,56.6483121 80.1161121,56.7123121 C81.0274748,56.5573121 81.9301394,56.3933121 83,56.4133121 C82.7052326,56.0543121 81.9997239,56.2033121 81.5551567,56.3203121" id="Fill-91" fill="#4A455C"></path>
                    <path d="M130.497969,56.5702995 L130.726969,56.5702995 C130.750969,56.2332995 129.871969,56.6032995 130.497969,56.5702995" id="Fill-93" fill="#4A455C"></path>
                    <path d="M16.4403274,58.4406624 C16.3813274,58.5036624 16.5283274,58.5926624 16.5593274,58.5596624 C16.6193274,58.4966624 16.4713274,58.4066624 16.4403274,58.4406624" id="Fill-95" fill="#4A455C"></path>
                    <path d="M67.3835,56.4425 C67.3885,56.5575 67.5265,56.5315 67.6165,56.5575 C67.6105,56.4395 67.4735,56.4675 67.3835,56.4425" id="Fill-97" fill="#4A455C"></path>
                    <path d="M23.382,57.4415 C23.387,57.5585 23.526,57.5325 23.618,57.5585 C23.611,57.4415 23.473,57.4675 23.382,57.4415" id="Fill-99" fill="#4A455C"></path>
                    <path d="M104.769143,54.1632944 C104.611922,54.1593817 104.51938,54.2415494 104.428829,54.3263255 C104.276583,54.3263255 104.321361,54.0537375 104.196977,54.0172185 C103.695461,53.9115744 104.291509,54.3263255 103.9701,54.3328468 C102.955127,54.2480706 102.470527,54.3732785 101.685415,54.0576502 C101.585908,54.3328468 101.288381,54.349802 101.120214,54.5363096 C100.798806,54.669343 100.822688,54.3211085 100.548048,54.3889295 C100.235595,54.2793726 100.321171,54.7032535 100.09529,54.7084705 C99.6843252,54.2715471 99.1320603,55.014969 98.837519,54.4163187 C98.6474602,54.6276071 98.4583965,54.8362869 98.0414613,54.7410767 C97.7777672,54.7958552 97.6036296,54.7241215 97.4692949,54.5963051 C97.2523692,54.5284841 96.7846854,54.8193317 96.8951384,54.2911108 C96.5508434,54.4815312 96.2921247,54.7697702 95.9826573,54.3054576 C95.8363817,54.3171958 95.826431,54.5102246 95.6433378,54.4684887 C95.2453089,54.3524105 95.1617229,54.6523878 94.9607183,54.7932467 C94.5925417,54.8375911 94.4731331,54.5271799 94.044257,54.6602133 C93.6830459,54.4867482 93.7696171,54.9119333 93.5905042,54.9823628 C92.6650872,54.8780229 91.8560936,55.2432126 91.1903904,55.0371412 C91.1923806,55.2445168 90.9923711,55.1845214 90.9664992,55.3540738 C90.7963419,55.0645305 90.2182051,55.3540738 90.0490428,55.0645305 C89.2629359,55.2653848 88.1434799,55.6344873 87.3086145,55.2823401 C86.6468916,55.5171049 85.8627748,55.2353871 85.257771,55.7988227 C84.7612301,55.9318561 84.1960292,55.6305745 84,55.8275162 C84.2019996,56.1809676 84.8726782,55.8666436 85.2597612,55.9566368 C85.7344105,55.7949099 85.823967,56.0166323 86.2856804,55.7753462 L88.1136277,55.7336102 C88.4380212,55.8549054 88.4061789,55.5066709 88.6828089,55.5640579 C90.9595337,55.6683978 92.6312547,55.0801815 94.3935273,55.2745146 C94.7189158,55.397114 94.6880686,55.0475752 94.9637036,55.1062664 C96.7667741,55.1414812 98.134003,54.8975866 99.5271039,55.03062 C100.205743,54.7541192 101.267485,54.988884 101.921247,54.6784728 C102.542172,54.8584591 102.85363,54.5989136 103.631776,54.6510835 C104.086524,54.3771912 104.466641,54.8023764 105,54.4737057 C104.997015,54.2676343 104.798,54.3315425 104.769143,54.1632944" id="Fill-101" fill="#4A455C"></path>
                    <path d="M143.558,55.441 L143.214,55.438 C143.217,55.554 143.354,55.531 143.443,55.559 L143.786,55.562 C143.784,55.447 143.646,55.468 143.558,55.441" id="Fill-103" fill="#4A455C"></path>
                    <path d="M145.556741,55.441 L145,55.436 C145.00388,55.552 145.13676,55.529 145.222114,55.557 L145.445199,55.559 C145.628516,55.561 145.814743,55.563 146,55.564 C145.967022,55.401 145.722599,55.463 145.556741,55.441" id="Fill-105" fill="#4A455C"></path>
                    <path d="M71.4413779,56.4403108 C71.3823779,56.5043108 71.5273779,56.5923108 71.5593779,56.5593108 C71.6163779,56.4963108 71.4723779,56.4083108 71.4413779,56.4403108" id="Fill-107" fill="#4A455C"></path>
                    <path d="M72.7287763,56.5650361 C72.7447763,56.2280361 71.8697763,56.6160361 72.4987763,56.5700361 L72.7287763,56.5650361 Z" id="Fill-109" fill="#4A455C"></path>
                    <path d="M146.3855,55.4385 C146.3885,55.5565 146.5255,55.5325 146.6145,55.5615 C146.6115,55.4455 146.4745,55.4665 146.3855,55.4385" id="Fill-111" fill="#4A455C"></path>
                    <path d="M18.4401177,57.4406734 C18.3811177,57.5026734 18.5271177,57.5936734 18.5591177,57.5586734 C18.6201177,57.4966734 18.4731177,57.4076734 18.4401177,57.4406734" id="Fill-113" fill="#4A455C"></path>
                    <path d="M49.325,56.444 C49.346,56.586 49.538,56.541 49.675,56.556 C49.652,56.415 49.461,56.46 49.325,56.444" id="Fill-115" fill="#4A455C"></path>
                    <path d="M90.6086302,55.5572047 C90.5796302,55.1982047 90.1346302,55.6812047 90.6086302,55.5572047" id="Fill-117" fill="#4A455C"></path>
                    <path d="M34.1375495,56.1995 C33.6255842,56.4705 32.6961562,56.2905 32.0061958,56.3665 C31.9346308,56.6935 32.5080686,56.2725 32.4383386,56.5975 L33.0778364,56.5835 C33.3338191,56.5295 33.3136341,56.7965 33.6136567,56.6915 C33.7824768,56.6975 34.0191919,56.6245 34.0421295,56.8005 C34.2146196,56.5965 34.6669473,56.6915 35,56.6595 C34.9972475,56.0325 34.4623447,56.5785 34.1375495,56.1995" id="Fill-119" fill="#4A455C"></path>
                    <path d="M104.464181,55.4585271 C104.454181,55.6035271 104.631181,55.5285271 104.464181,55.4585271" id="Fill-121" fill="#4A455C"></path>
                    <path d="M128.636923,52.6283254 C128.029076,52.6547381 128.051107,52.7300144 127.489324,52.6270048 C127.318086,52.6520969 127.065734,52.5715381 127.030686,52.7841604 C126.728264,52.6309667 126.047316,52.477773 125.767927,52.7828398 C125.793963,53.2754368 126.339723,53.0509288 126.686206,53.0997923 C126.38779,53.7759576 125.87808,53.2582685 125.424448,53.5725797 C124.862666,53.5554115 124.214763,53.6571004 123.818211,53.4114622 C123.454705,53.6452147 123.247416,53.3612781 123.014091,53.4101416 C123.007081,53.4114622 123.021101,53.5593734 123.014091,53.5686178 C122.901935,53.7561481 121.920568,53.5554115 121.752334,53.5725797 C121.659204,53.5818242 121.653196,53.7284147 121.638175,53.7336973 C121.560066,53.7548274 121.499982,53.5778623 121.523014,53.575221 C121.247631,53.618802 121.064375,53.8155766 120.834055,53.7403004 C120.797003,53.7284147 120.680841,53.5778623 120.718894,53.5818242 C120.501592,53.5593734 120.466543,53.7587893 120.260255,53.7442623 C120.049962,53.7270941 119.886735,53.6491766 119.686456,53.589748 C119.372018,53.4761734 119.455134,53.9080211 119.227817,53.9106624 C118.735131,53.6425734 117.899968,53.8525544 117.391259,53.6082369 C116.852509,53.8195386 116.133507,53.7812401 115.440542,53.7825608 C115.128107,53.6703068 115.210221,54.0981926 114.982905,54.1021545 C114.578341,54.2447831 114.389078,53.6993607 114.295948,54.2672339 C114.019563,53.8340655 113.789242,54.2645927 113.488824,53.7984084 C112.945066,54.1563006 111.85655,53.7746369 111.311791,54.1312085 C110.239298,54.0070688 109.532313,54.4283515 108.901434,54.151018 C108.625049,54.0876275 108.65409,54.4415578 108.328636,54.3134562 C108.053253,54.2210117 107.497479,54.5260785 107.409356,54.1708276 C107.191052,54.6356912 106.828547,54.3108149 106.606237,54.4996658 C106.252745,54.2157292 106.09152,54.6502182 105.802117,54.3557165 C105.521727,53.8367068 105.194271,54.5656975 105,54.6845547 C105.298416,55.4227899 106.025428,54.5789039 106.496084,54.9764151 C107.524516,54.6370119 109.029613,54.9486818 109.935875,54.4587261 C110.385501,54.6066372 111.223669,54.6700277 111.658274,54.603996 C111.801473,54.5815452 111.920639,54.4428785 112.000751,54.4428785 C112.16498,54.4402372 112.406316,54.6066372 112.576553,54.5960722 C113.158363,54.5670182 113.703122,54.4125038 114.295948,54.4243896 C114.424126,54.4072213 114.475198,54.6541801 114.525267,54.4217483 C114.660456,54.4455197 114.851722,54.3913737 114.869747,54.5775833 C114.999928,54.5934309 115.048997,54.3464721 115.099067,54.5762626 C115.316369,54.6092785 115.352419,54.3953356 115.558707,54.4138245 L117.049784,54.4019388 L117.852902,54.3953356 C118.055184,54.3042117 118.527842,54.5815452 118.54086,54.2328974 C118.816244,54.165545 118.791209,54.5194753 119.11466,54.3860911 C119.320947,54.4798562 119.465148,54.23818 119.573299,54.223653 C119.68946,54.209126 119.709488,54.3808086 119.803619,54.379488 C119.919781,54.379488 119.938808,54.223653 120.032939,54.2210117 C120.332356,54.2144085 120.354386,54.4653293 120.605737,54.3728848 C120.640785,54.3609991 120.761954,54.2104466 120.719896,54.2157292 C120.886127,54.1972403 120.969243,54.3702435 121.065377,54.3702435 C121.320732,54.3676022 121.513,54.2104466 121.753335,54.3636403 C121.970638,54.3992975 122.006688,54.1853546 122.213977,54.2038434 L124.62133,54.2051641 C125.108008,54.0466878 125.877079,53.9251894 126.343729,54.2078054 L128.292443,54.2104466 C128.651944,53.9674497 129.348915,54.1893165 129.555202,53.7376592 C130.132005,53.8485925 130.355316,53.4695702 130.93212,53.5805035 C131.293623,53.658421 131.193484,53.0945097 131.620078,53.2635511 L131.8514,53.2635511 L131.852402,53.1063954 L132.19588,53.1077161 C132.194879,52.8990557 131.995601,52.9637668 131.966561,52.7920842 C132.474268,52.7551064 132.914881,52.6230429 133,52.0010236 C131.565001,51.9732903 130.545581,52.5187127 129.097564,52.4698492 C128.87926,52.4355127 128.844212,52.6494556 128.636923,52.6283254" id="Fill-123" fill="#4A455C"></path>
                    <path d="M35.1056189,56.7009503 C35.3436189,56.6239503 35.8726189,56.8319503 35.9156189,56.5629503 C35.9776189,56.1209503 34.9106189,56.2639503 35.1056189,56.7009503" id="Fill-125" fill="#4A455C"></path>
                    <path d="M36.8931176,56.912847 C36.9897539,56.931847 36.998539,56.864847 37.0034196,56.789847 C37.9131672,56.995847 38.7174933,56.556847 39.4993686,56.735847 C40.2939335,56.587847 41.2817709,56.325847 41.9894607,56.441847 C42.0607178,56.117847 41.7512865,56.214847 41.6419606,56.089847 C41.5521572,56.175847 41.3354577,56.283847 41.3012934,56.096847 C40.9899098,56.015847 41.0787371,56.340847 40.8532525,56.347847 C40.5350361,56.452847 40.5555347,56.184847 40.2841722,56.239847 C39.1177041,56.406847 38.0732515,56.245847 36.8784758,56.193847 C36.8218606,56.460847 37.0981037,56.360847 37.1117694,56.548847 C36.9975629,56.822847 36.4011512,56.608847 36.0946483,56.690847 C35.7364108,56.863847 36.4987636,56.799847 36.6637285,56.797847 C36.7955052,56.775847 36.8667623,56.820847 36.8931176,56.912847" id="Fill-127" fill="#4A455C"></path>
                    <path d="M55.3825,55.4425 C55.3895,55.5595 55.5275,55.5325 55.6175,55.5575 C55.6115,55.4405 55.4735,55.4665 55.3825,55.4425" id="Fill-129" fill="#4A455C"></path>
                    <path d="M29.5969278,56.6297662 C29.7780056,56.6407662 29.8076048,56.4787662 30,56.5027662 C29.8885675,56.2327662 29.363616,56.4687662 29.0859054,56.4007662 C28.7185264,56.6657662 29.6517735,56.3437662 29.5969278,56.6297662" id="Fill-131" fill="#4A455C"></path>
                    <path d="M31.617,56.5575 C31.612,56.4415 31.473,56.4675 31.383,56.4425 C31.388,56.5575 31.528,56.5335 31.617,56.5575" id="Fill-133" fill="#4A455C"></path>
                    <path d="M56.4918024,55.4462528 C56.2398024,55.3642528 55.7568024,55.5862528 56.2638024,55.5712528 L56.4938024,55.5652528 L56.9588024,55.5542528 C56.9178024,55.3922528 56.6648024,55.4622528 56.4918024,55.4462528" id="Fill-135" fill="#4A455C"></path>
                    <path d="M95.3835,54.442 C95.3885,54.557 95.5255,54.533 95.6165,54.558 C95.6105,54.442 95.4725,54.467 95.3835,54.442" id="Fill-137" fill="#4A455C"></path>
                    <path d="M95.7410491,54.6164246 C95.7120491,54.4054246 95.5400491,54.3454246 95.2790491,54.3824246 C95.1690491,54.7444246 95.5370491,54.5914246 95.7410491,54.6164246" id="Fill-139" fill="#4A455C"></path>
                    <path d="M97.3265,54.4425 C97.3475,54.5815 97.5375,54.5405 97.6735,54.5575 C97.6525,54.4175 97.4635,54.4595 97.3265,54.4425" id="Fill-141" fill="#4A455C"></path>
                    <path d="M97.3275,54.4425 C97.3485,54.5815 97.5375,54.5395 97.6725,54.5575 C97.6535,54.4165 97.4625,54.4595 97.3275,54.4425" id="Fill-143" fill="#4A455C"></path>
                    <path d="M27.7645487,56.4799977 L27.4145487,56.4859977 C27.3165487,56.5089977 27.3045487,56.4399977 27.2975487,56.3679977 C26.9245487,56.5099977 27.4155487,56.7079977 27.6515487,56.6019977 C27.8595487,56.6299977 27.8875487,56.4829977 27.7645487,56.4799977" id="Fill-145" fill="#4A455C"></path>
                    <path d="M47.4506828,55.087 C47.2046639,55.18 46.8976097,55.208 46.6947849,55.345 C46.0609574,55.191 45.2928523,55.477 44.4073718,55.4 C44.0636965,55.352 44.0280143,55.627 43.6467788,55.538 C43.3218835,55.547 42.9819642,55.541 43.0007443,55.913 C44.0045392,55.652 45.0027002,56.012 45.8271454,55.486 C46.6037015,55.483 47.3661725,55.467 48,55.313 L47.997183,55.193 C47.746469,55.237 47.5793263,55.185 47.4506828,55.087" id="Fill-147" fill="#4A455C"></path>
                    <path d="M27.324,55.443 C27.345,55.583 27.538,55.54 27.676,55.557 C27.655,55.417 27.461,55.46 27.324,55.443" id="Fill-149" fill="#4A455C"></path>
                    <path d="M105.385502,53.5144799 C105.437502,53.6884799 105.486502,53.5024799 105.614502,53.5114799 C105.584502,53.3604799 105.384502,53.3944799 105.385502,53.5144799" id="Fill-151" fill="#4A455C"></path>
                    <path d="M145.935003,53.2452565 C145.62862,53.1432565 145.651386,53.4122565 145.389585,53.3592565 C144.145085,53.2552565 143.219299,53.5062565 142.018432,53.4492565 C141.903657,53.8512565 142.35422,53.6392565 142.560055,53.6932565 C142.68811,53.8322565 142.944219,53.8332565 143.21171,53.8192565 C143.588285,53.9192565 143.630022,53.6452565 143.973398,53.7062565 C144.313928,53.7342565 144.772078,53.6332565 144.951354,53.8352565 C145.896112,53.3942565 146.801979,53.5962565 148,53.3832565 C147.585483,52.8592565 146.727043,53.4432565 145.935003,53.2452565" id="Fill-153" fill="#4A455C"></path>
                    <path d="M35.1975325,55.2641361 C35.2265325,55.5991361 35.4095325,55.7701361 35.7875325,55.7301361 C35.8895325,55.2531361 35.4445325,55.3651361 35.1975325,55.2641361" id="Fill-155" fill="#4A455C"></path>
                    <path d="M110.6145,53.4953935 C110.7505,53.4823935 110.8065,53.6613935 110.9585,53.4933935 C110.8585,53.2473935 110.1595,53.3723935 110.0415,53.4983935 C110.1455,53.8283935 110.4805,53.5103935 110.6145,53.4953935" id="Fill-157" fill="#4A455C"></path>
                    <g id="Group-161" transform="translate(0.000000, 55.000000)">
                        <mask id="mask-10" fill="white">
                            <use xlink:href="#path-9"></use>
                        </mask>
                        <g id="Clip-160"></g>
                        <path d="M1,1.51955 C1.158,1.47005 1.287,1.37855 1.453,1.34255 C1.506,1.60505 1.555,1.32305 1.686,1.34105 C1.8,1.33505 1.776,1.11905 1.802,0.98105 C1.532,0.96905 1.266,0.96155 1,0.95705 L1,1.51955 Z" id="Fill-159" fill="#4A455C" mask="url(#mask-10)"></path>
                    </g>
                    <path d="M34.4800656,55.524188 C34.5440656,55.707188 34.6010656,55.528188 34.5920656,55.401188 C34.3860656,55.373188 34.3570656,55.520188 34.4800656,55.524188" id="Fill-162" fill="#4A455C"></path>
                    <path d="M112.3845,53.441 C112.3895,53.558 112.5275,53.533 112.6155,53.559 C112.6105,53.443 112.4735,53.467 112.3845,53.441" id="Fill-164" fill="#4A455C"></path>
                    <path d="M48.1535,54.568 C48.3555,54.494 48.8385,54.697 48.8465,54.432 C48.6435,54.506 48.1625,54.303 48.1535,54.568" id="Fill-166" fill="#4A455C"></path>
                    <path d="M50,54.4876606 C49.818618,54.1946606 49.2207294,54.4576606 49,54.5116606 C49.181382,54.8056606 49.7792706,54.5426606 50,54.4876606" id="Fill-168" fill="#4A455C"></path>
                    <path d="M52,54.5833311 C51.8410596,54.1713311 50.3748344,54.3443311 50,54.4993311 C50.2264901,54.9763311 51.4874172,54.2843311 52,54.5833311" id="Fill-170" fill="#4A455C"></path>
                    <path d="M95.4421743,53.4401496 C95.3821743,53.5031496 95.5271743,53.5931496 95.5581743,53.5591496 C95.6171743,53.4971496 95.4731743,53.4081496 95.4421743,53.4401496" id="Fill-172" fill="#4A455C"></path>
                    <path d="M99.5587926,53.5591496 C99.6177926,53.4971496 99.4737926,53.4081496 99.4407926,53.4401496 C99.3827926,53.5031496 99.5267926,53.5931496 99.5587926,53.5591496" id="Fill-174" fill="#4A455C"></path>
                    <path d="M117.557535,53.5594945 C117.616535,53.4974945 117.473535,53.4084945 117.442535,53.4394945 C117.383535,53.5024945 117.525535,53.5934945 117.557535,53.5594945" id="Fill-176" fill="#4A455C"></path>
                    <path d="M117.557965,53.5594945 C117.616965,53.4974945 117.474965,53.4084945 117.441965,53.4394945 C117.382965,53.5024945 117.525965,53.5934945 117.557965,53.5594945" id="Fill-178" fill="#4A455C"></path>
                    <path d="M119.6145,53.4896392 C119.5115,53.4176392 119.4085,53.3466392 119.3855,53.4906392 C119.4135,53.6426392 119.6135,53.6106392 119.6145,53.4896392" id="Fill-180" fill="#4A455C"></path>
                    <path d="M124.920419,53.6590869 C125.363351,53.5930869 125.351832,53.5480869 126,53.5400869 C125.853403,53.0730869 125.154974,53.5980869 124.560209,53.4200869 C124.048168,53.4680869 123.321466,53.3030869 123,53.5370869 C123.003141,53.6540869 123.147644,53.6310869 123.239791,53.6580869 L124.920419,53.6590869 Z" id="Fill-182" fill="#4A455C"></path>
                    <path d="M132.443604,53.4396538 C132.383604,53.5016538 132.526604,53.5936538 132.556604,53.5596538 C132.615604,53.4986538 132.475604,53.4076538 132.443604,53.4396538" id="Fill-184" fill="#4A455C"></path>
                    <path d="M31.463145,54.4585271 C31.454145,54.6035271 31.634145,54.5285271 31.463145,54.4585271" id="Fill-186" fill="#4A455C"></path>
                    <path d="M32.6755,54.5565 C32.6545,54.4155 32.4625,54.4595 32.3245,54.4435 C32.3465,54.5845 32.5385,54.5415 32.6755,54.5565" id="Fill-188" fill="#4A455C"></path>
                    <path d="M34.383,54.4425 C34.388,54.5595 34.527,54.5325 34.617,54.5575 C34.611,54.4395 34.473,54.4675 34.383,54.4425" id="Fill-190" fill="#4A455C"></path>
                    <path d="M53,54.4849238 C52.8557858,54.2539238 52.1476684,54.3619238 52,54.5119238 C52.2262522,54.8389238 52.7124352,54.4759238 53,54.4849238" id="Fill-192" fill="#4A455C"></path>
                    <path d="M74.5589662,53.5586658 C74.6169662,53.4956658 74.4729662,53.4066658 74.4409662,53.4416658 C74.3829662,53.5046658 74.5279662,53.5926658 74.5589662,53.5586658" id="Fill-194" fill="#4A455C"></path>
                    <path d="M31.536632,54.5418383 C31.545632,54.3958383 31.366632,54.4708383 31.536632,54.5418383" id="Fill-196" fill="#4A455C"></path>
                    <g id="Group-200" transform="translate(1.000000, 0.000000)">
                        <mask id="mask-12" fill="white">
                            <use xlink:href="#path-11"></use>
                        </mask>
                        <g id="Clip-199"></g>
                        <path d="M169.5596,43.8860512 C169.3086,43.9074 169.1956,43.7541907 169.2206,43.4264233 C168.3846,43.5469814 168.1416,42.9203302 167.3856,42.9379116 C165.9626,41.8792605 163.7746,41.7850744 161.9956,41.1722372 C161.5356,41.2463302 161.6476,41.247586 161.1876,41.1559116 C161.0416,41.1458651 161.0326,40.9587488 160.8466,40.9976791 C160.8296,40.8218651 160.8706,40.5707023 160.7356,40.5430744 C159.4336,40.363493 158.1836,40.1198651 157.5236,39.1240047 C156.1816,38.9444233 155.1316,38.3956326 153.7266,38.2951674 C153.3566,38.4207488 153.4926,37.899586 153.2706,37.8355395 C152.4566,37.7727488 151.7576,37.5856326 151.0836,37.3520512 C151.0666,37.0280512 151.4946,37.2892605 151.6626,37.2088884 L152.3536,37.2164233 C152.6246,37.171214 152.7896,36.9853535 153.1636,37.0795395 C153.5766,37.1272605 153.5906,36.6362372 153.9766,36.6437721 C154.9686,36.9501907 155.8806,36.6701442 156.6346,36.2469349 C157.1546,36.5282372 158.0136,36.381307 158.7106,36.4403302 C159.4766,36.0824233 160.1256,36.3386093 161.0236,36.037214 L161.9476,36.0560512 C162.2456,35.7634465 162.4766,36.2230744 162.6426,35.9166558 C163.0056,35.8513535 163.0886,36.2557256 163.3336,35.9317256 C163.3336,36.0836791 163.5346,36.1263767 163.5656,35.935493 C163.5976,35.7257721 163.8216,35.7709814 163.9166,35.6428884 C163.6226,35.1267488 162.7106,35.3879581 162.5426,34.713586 C162.7986,34.1886558 163.7786,34.6407488 164.1656,34.2941442 C164.2586,34.6206558 164.9026,34.2527023 164.9696,34.6118651 C165.2836,34.525214 165.8836,34.821586 166.0116,34.4825163 C166.0466,33.8960512 165.2996,34.2954 165.2106,33.8634 C164.8516,33.7729814 164.4606,33.7252605 164.1766,33.5419116 L163.5986,33.5293535 C162.5106,33.0760047 161.0226,33.1249814 159.9116,32.7030279 C159.4836,32.6000512 158.7186,32.9227953 158.6436,32.3765163 C158.6846,31.5137721 159.8166,32.1165628 160.3826,31.9583302 C160.7736,32.0085628 161.0436,32.2132605 161.5376,32.1341442 C162.0486,32.1592605 162.2196,31.7272605 162.8116,31.8591209 C162.9346,31.8679116 163.1066,31.7925628 162.9296,31.7096791 C162.3116,31.7473535 161.9196,31.5024698 161.4306,31.3794 C161.4546,31.1571209 161.7116,31.2462837 161.8946,31.2387488 L162.5886,31.2525628 C162.9136,31.3819116 162.8916,31.0466093 163.1686,31.1144233 C163.5726,31.1960512 163.9186,31.3530279 164.4386,31.2902372 C164.1046,30.8230744 163.4866,30.7138186 162.8286,30.6547953 C162.2786,30.4111674 161.7676,30.117307 160.9846,30.1662837 C160.4976,29.9389814 159.9436,29.7945628 159.3696,29.6802837 C159.4606,29.3424698 160.0196,29.6363302 160.2966,29.5484233 L161.4546,29.5722837 C161.9766,29.8108884 162.4016,29.6903302 162.9576,29.6024233 C162.9246,29.2507953 162.4556,29.4479581 162.3846,29.1402837 C161.6196,29.2168884 161.2026,28.8527023 160.4196,28.9506558 C159.8716,28.6530279 159.1406,28.5889814 158.4586,28.4596326 C158.1166,28.3453535 157.9956,27.9547953 157.7726,27.6910744 C157.2526,27.6584233 156.7866,27.5541907 156.3876,27.363307 C155.9136,27.4788419 155.9886,27.3783767 155.4616,27.3444698 C155.3326,27.0104233 154.6976,27.3180977 154.6556,26.877307 C154.5906,26.485493 154.7066,26.337307 155.0076,26.4327488 C155.1246,26.2343302 155.1236,25.8751674 155.3616,25.837493 C156.2656,25.9819116 157.2156,26.0723302 158.2566,26.0459581 C158.2466,25.6629349 157.8706,25.7395395 157.5646,25.7307488 C157.1976,25.7985628 157.1576,25.453214 156.7546,25.5649814 C155.8266,24.9056791 154.4566,24.8001907 153.2906,24.4410279 C153.3596,23.9148419 153.9646,24.2124698 154.2196,24.3091674 C154.7406,24.2451209 155.0856,24.4046093 155.4936,24.4849814 C156.0336,24.4862372 155.3606,24.1396326 155.3826,23.8809349 C155.1216,23.7164233 154.9656,23.4162837 154.9286,22.969214 C155.0556,22.6314 155.6586,22.9265163 155.9736,22.8411209 C156.3436,22.8712605 156.4796,23.1902372 156.8966,23.1600977 C157.0176,22.563586 156.2506,23.0860047 156.3246,22.5447488 C155.3596,22.4254465 154.6496,21.9846558 153.6636,21.8904698 C153.5106,21.7360047 153.2336,21.7397721 153.2046,21.429586 C153.0516,21.4245628 153.1006,21.1646093 152.9756,21.1244233 C152.8156,21.1269349 152.7216,21.0478186 152.6296,20.9661907 C152.8756,20.5216326 153.2376,21.1796791 153.6726,20.9862837 C154.2486,20.9812605 154.2416,21.1470279 154.7176,21.0076326 C154.7366,21.2299116 154.9966,21.1507953 155.1786,21.1696326 C155.3976,21.0277256 155.5636,21.625493 155.6426,21.1784233 C155.8616,21.4496791 156.4096,21.3027488 156.8026,21.3517256 C157.1726,21.2361907 157.6576,21.2726093 157.9656,21.0729349 C157.9886,20.7489349 157.5546,20.9988419 157.3876,20.9134465 C157.4106,20.5856791 156.9766,20.8368419 156.8096,20.7501907 C156.8326,20.4249349 156.3996,20.673586 156.2306,20.5881907 C156.2156,20.3094 155.8386,20.4877256 155.7696,20.2767488 C154.9736,20.0431674 154.2116,19.7643767 153.5736,19.3298651 C153.2256,19.1716326 152.8826,19.0171674 152.5336,18.8589349 C152.4636,18.6517256 152.0866,18.8325628 152.0716,18.5525163 C151.9046,18.4696326 151.4706,18.723307 151.4926,18.3980512 C150.5386,18.3679116 149.8386,18.0175395 149.0576,17.7688884 C148.5806,17.7789349 148.1086,17.7827023 147.8986,17.4561907 C147.8816,17.1284233 148.3116,17.3908884 148.4816,17.3105163 C148.7676,17.2929349 149.0416,17.2954465 149.1766,17.4687488 C150.7676,17.4863302 151.8986,18.0727953 153.4696,18.1242837 C153.9116,18.2611674 154.2356,18.5462372 154.8606,18.4545628 C154.8446,17.9773535 154.4046,18.0363767 154.0526,17.9848884 C154.0326,17.7613535 153.7726,17.8404698 153.5886,17.8254 C153.5706,17.6031209 153.3106,17.6809814 153.1256,17.6659116 C152.8856,17.5704698 152.7546,17.3419116 152.5496,17.2050279 C152.1056,17.2728419 151.8076,17.1535395 151.6226,16.8923302 L150.9246,16.8847953 C150.6746,16.6085163 150.1086,16.731586 150.0016,16.2744698 C149.6696,16.6185628 149.2756,16.0923767 148.7226,16.2594 C148.4496,16.0597256 147.9196,16.1865628 147.6776,15.9479581 C147.2006,15.9592605 146.7286,15.9617721 146.5176,15.6352605 C146.5596,15.2685628 147.3966,15.7156326 146.9846,15.1881907 L147.7996,15.1969814 C147.9276,14.6381442 147.4106,14.8993535 147.3396,14.5891674 C147.3706,14.2023767 147.5386,14.7976326 147.8046,14.5941907 C148.0226,14.4535395 148.1896,15.0487953 148.2706,14.599214 C148.6786,14.6783302 149.0256,14.8327953 149.5496,14.7637256 C149.5336,14.5188419 149.2646,14.6507023 149.0846,14.6080047 C148.8776,14.5602837 148.6976,14.4108419 148.5046,14.4535395 C147.9856,14.5640512 147.8076,14.2450744 147.3426,14.2890279 C147.1326,14.2664233 147.0696,14.437214 147.1046,14.7373535 C146.6696,14.5678186 146.7166,14.3530744 146.6456,13.9800977 C146.5086,14.0001907 146.3796,14.2438186 146.2976,13.9763302 C146.1296,13.8921907 145.6936,14.1446093 145.7166,13.8206093 C146.0716,13.9323767 146.0606,13.5631674 146.4156,13.6774465 C146.0876,13.249214 145.3716,13.3145163 144.9066,13.0570744 C144.4326,13.2115395 144.3556,13.0106093 143.7446,13.0445163 C142.1566,12.6740512 140.4886,12.4065628 138.8586,12.0900977 C138.7956,11.3541907 139.5906,11.7384698 140.0246,11.6530744 C140.4456,11.5676791 140.8066,11.4056791 141.1886,11.6656326 L141.1916,11.2110279 C141.5586,11.143214 141.4536,11.6769349 141.8886,11.521214 C142.1546,11.4144698 142.7956,11.8025163 142.7066,11.2286093 C141.9436,11.2537256 141.3456,11.0678651 140.7276,10.9071209 C140.3516,10.7162372 140.6366,11.3918651 140.2606,11.2022372 C140.0316,11.2449349 140.0296,10.9962837 139.9136,10.8983302 C139.6956,10.8744698 139.5226,10.7940977 139.4476,10.5919116 C138.6806,10.9020977 138.4586,10.5441907 137.5836,10.5718186 C137.3536,10.2227023 137.6126,10.4035395 137.7016,10.123493 C137.9926,10.1034 137.7386,9.61237674 137.7046,9.51944651 C138.1396,9.38256279 138.7356,9.4554 138.9886,9.08242326 C139.1226,9.21051628 139.2996,9.28335349 139.5706,9.23814419 C139.9836,9.21177209 139.7986,9.94767907 140.2676,9.84846977 C140.3136,10.0380977 140.4156,10.1586558 140.6156,10.1548884 C140.4316,10.6860977 141.0106,10.2490744 140.9616,10.6082372 C141.4246,10.4525163 140.9356,10.1511209 140.9666,9.70530698 C141.1366,9.62493488 141.5686,9.88865581 141.5506,9.56088837 C142.0296,9.55209767 142.5066,9.54205116 142.8326,9.7254 C142.8156,9.29967907 143.5496,9.85851628 143.5336,9.43153953 C143.8746,9.39512093 143.8886,9.77563256 144.2306,9.74046977 C145.2426,9.61237674 145.8816,9.59102791 146.9096,9.92130698 C146.9416,9.60735349 147.4216,9.88363256 147.4956,9.62493488 C148.0256,9.7078186 148.1576,9.37251628 148.5446,9.63623721 C148.7526,9.65884186 148.8166,9.49056279 148.7816,9.18916744 C148.9856,9.10377209 149.4646,9.37753953 149.4806,9.04474884 C149.7206,9.37502791 149.8586,9.03093488 150.0666,8.90033023 C150.3956,8.78102791 150.3656,9.11633023 150.6476,9.05730698 C150.6296,8.63284186 150.0956,8.86391163 150.1876,8.30005116 C150.3856,7.90070233 151.2616,8.39423721 151.4746,8.01372558 C152.0906,8.1769814 152.6876,8.35656279 153.4526,8.34149302 C153.8886,8.48716744 154.2006,8.78856279 154.7296,8.81870233 C154.6516,8.32391163 154.2576,8.2221907 153.8026,8.19958605 C153.6306,8.01874884 153.3286,8.00116744 153.2256,7.73493488 C152.3946,7.63949302 151.7466,7.32051628 151.0146,7.10451628 C150.5796,7.10953953 150.2786,6.94628372 149.9666,6.79307442 C149.7056,6.5306093 148.9886,6.84205116 148.9216,6.33093488 C149.1156,6.07851628 149.5556,6.15009767 149.7416,5.88763256 C150.8356,6.04335349 151.7866,6.3774 152.8866,6.52433023 C152.7886,6.05465581 152.0736,6.36358605 151.8416,6.06093488 C151.3236,6.06972558 151.1596,5.63395814 150.5596,5.74572558 C150.6476,5.33758605 150.0096,5.84744651 150.0966,5.44056279 C149.7646,5.56237674 149.7956,5.22330698 149.5136,5.28358605 C149.1616,5.08516744 148.5786,5.17684186 148.3506,4.8201907 L147.6486,4.8114 C147.1416,4.46102791 146.4846,4.30028372 145.9036,4.04033023 C145.9876,3.49153953 146.3696,4.07926047 146.8386,3.89967907 C147.4116,4.22116744 148.2316,4.22242326 148.8206,4.5238186 C149.2056,4.27391163 149.5666,4.4421907 149.9866,4.53763256 C150.7616,4.28521395 151.5126,4.4698186 152.3226,4.56274884 C152.1866,4.13953953 151.4856,4.42837674 151.2756,4.09809767 C150.7066,4.22367907 150.6806,3.66233023 150.1116,3.78414419 C149.9366,3.40991163 149.3246,3.58823721 149.0626,3.32074884 C148.7096,3.12358605 148.1276,3.21526047 147.8986,2.8586093 L147.1966,2.85107442 C145.0766,1.90670233 142.4526,1.59526047 140.0796,0.968609302 C139.3246,1.07786512 138.9286,0.731260465 138.2076,0.797818605 C137.9426,0.684795349 137.6116,0.655911628 137.3926,0.486376744 C136.7356,0.60567907 136.2846,0.237725581 135.8706,0.477586047 C135.6496,0.512748837 135.6136,0.309306977 135.4026,0.328144186 C133.8176,0.544144186 131.2026,0.624516279 129.5526,0.771446512 C128.7756,0.581818605 128.3776,0.797818605 127.5646,0.619493023 C126.8616,0.766423256 126.0386,0.760144186 125.4596,1.06656279 C123.9966,1.07535349 122.9606,1.05902791 121.8326,0.912097674 C121.5416,0.888237209 121.3476,0.988702326 121.2486,1.21349302 C120.9676,1.12307442 120.7136,1.00126047 120.3126,1.06907442 C119.5276,1.41693488 118.1666,1.03391163 117.3906,1.3918186 C117.0596,1.51991163 117.0856,1.18209767 116.8056,1.2474 C116.5226,1.18712093 116.5506,1.52367907 116.2206,1.4006093 C115.4776,1.32902791 114.9596,1.55758605 114.4676,1.41442326 C114.1356,1.2926093 114.1646,1.62916744 113.8826,1.57014419 C109.7976,1.32526047 105.1786,1.99586512 101.2616,1.71205116 C101.0446,1.69572558 100.7776,1.57014419 100.5596,1.57265581 C100.3716,1.57391163 100.1336,1.71205116 99.9786,1.7334 C99.3956,1.80749302 99.0796,1.73716744 98.6916,1.60153953 C98.4036,1.58646977 98.1286,1.58646977 97.9936,1.76353953 C97.0066,1.43953953 95.5446,1.7421907 94.3706,1.66809767 C94.0406,1.79870233 94.0636,1.46088837 93.7836,1.52870233 L91.8016,1.57014419 C91.4746,1.70074884 91.4966,1.3641907 91.2166,1.43200465 L89.1186,1.47846977 C88.7906,1.60907442 88.8136,1.27251628 88.5336,1.34158605 L80.9556,1.5086093 C80.6856,1.5626093 80.5076,1.49353953 80.3696,1.37172558 C77.8386,1.7874 75.5426,1.58395814 73.0536,2.01972558 C72.6896,1.99712093 72.2006,2.14153953 72.0026,1.89665581 C71.8966,2.1829814 71.5426,2.05112093 71.3096,2.0661907 C70.6486,2.10763256 69.9676,2.13777209 69.4486,2.11516744 C69.4156,2.11391163 69.4586,1.9318186 69.3306,1.96823721 C69.2826,1.98079535 69.3506,2.12646977 69.2166,2.12144651 C69.0576,2.11516744 68.9596,2.07121395 68.8656,1.98079535 C68.5356,1.86651628 68.5686,2.2018186 68.2866,2.14656279 C67.7066,1.95065581 66.9286,2.03730698 66.1966,2.05488837 C64.0076,1.89791163 61.8896,1.64172558 59.5806,1.64549302 C59.2546,1.78237674 59.2766,1.44456279 58.9976,1.51363256 C56.7666,1.66558605 54.6886,1.52367907 52.7506,1.6969814 C52.5616,1.71205116 52.3226,1.84014419 52.1746,1.86274884 C51.1776,2.02474884 50.0686,1.82507442 49.2886,1.94688837 C49.1746,1.96572558 49.2206,2.07749302 49.1756,2.10386512 C49.0696,2.15786512 48.9576,1.95693488 48.9426,1.95693488 C48.7316,1.97953953 48.6056,2.09758605 48.4846,2.12270233 C48.3036,2.15786512 48.3716,1.92930698 48.2526,2.13023721 C48.0836,2.41279535 47.3596,2.0034 47.2106,2.00716744 C47.2536,2.00591163 47.1336,2.14907442 47.0986,2.16414419 C46.3376,2.48688837 45.4596,1.97828372 44.7886,2.23195814 C44.4596,2.11391163 44.4926,2.4529814 44.2136,2.39772558 L42.3676,2.45046977 C42.0416,2.33493488 42.0746,2.67023721 41.7956,2.61623721 L40.4146,2.65391163 C40.0866,2.53586512 40.1206,2.87367907 39.8426,2.81842326 C39.1746,2.91512093 38.2516,2.69158605 37.7736,3.02437674 C37.0646,2.7769814 36.1536,2.91763256 35.2386,2.94149302 C34.5476,2.96033023 33.8276,2.95656279 33.2826,2.99423721 C33.1206,3.00553953 32.7996,2.87116744 32.7086,3.16126047 C32.4326,3.23033023 32.4536,2.89377209 32.1316,3.02563256 C30.7586,3.4701907 28.6746,3.00302791 27.3106,3.44130698 C24.9286,3.48777209 23.3976,3.83437674 21.0006,3.88209767 C19.5226,4.3254 17.3146,3.8569814 15.8426,4.28646977 C15.3786,4.05037674 15.2466,4.3166093 14.9236,4.30153953 C14.7096,4.29149302 14.6686,4.16088837 14.4636,4.15837674 C14.1176,4.15084186 14.0196,4.3166093 13.8926,4.3166093 C13.6626,4.3166093 13.4266,4.18726047 13.2056,4.17721395 C13.0596,4.17344651 12.8886,4.15712093 12.7456,4.18474884 C12.3236,4.26512093 12.4136,4.25130698 12.0586,4.19605116 C11.3086,4.07800465 10.4516,4.24126047 9.9966,4.37814419 C8.7046,4.08805116 6.9996,4.34674884 5.5256,4.29777209 C3.9186,3.8758186 1.9456,3.91977209 0.2526,3.59702791 L-0.0004,3.59828372 L-0.0004,53.8346093 C1.2756,53.8333535 2.5046,53.8660047 3.4746,53.9827953 C3.8356,53.9953535 4.0306,53.7931674 4.2896,53.6751209 C5.1766,53.6914465 6.1246,53.6098186 6.8536,53.6361907 C7.0086,53.6424698 7.1166,53.7818651 7.2046,53.7806093 C7.3566,53.7780977 7.3606,53.6110744 7.5526,53.6248884 C8.0136,53.661307 8.9526,53.9061907 9.4196,53.7467023 C9.7376,53.6387023 9.6646,53.6901907 10.0026,53.7379116 C10.1886,53.7655395 10.3966,53.7379116 10.5856,53.7278651 C10.9426,53.7127953 11.0246,53.5859581 11.1666,53.5683767 C11.1756,53.5671209 11.2766,53.7228419 11.4016,53.715307 C11.5536,53.7065163 11.5596,53.5620977 11.7486,53.559586 C11.9676,53.5583302 12.0106,53.6801442 12.2166,53.7027488 C12.8766,53.7793535 13.6136,53.661307 14.3156,53.6700977 C14.9696,53.6788884 15.5756,53.7178186 16.1826,53.7919116 C17.1566,53.5231674 18.4006,54.0028884 19.4436,53.5809349 C20.0376,53.8057256 20.9886,53.553307 21.5406,53.8358651 C22.3296,53.5796791 23.7736,53.5470279 24.5676,53.769307 C26.3246,53.8195395 28.3556,53.4980512 29.9236,53.8007023 C33.7796,53.3611674 36.1966,53.5319581 39.5616,53.2468884 C39.8876,53.1162837 39.8666,53.451586 40.1446,53.3825163 L43.6296,53.2883302 C43.9546,53.155214 43.9326,53.4905163 44.2116,53.4214465 C45.3876,53.4390279 47.1616,53.2079581 47.8056,53.4679116 C48.6786,53.3988419 49.5206,53.4754465 50.3526,53.3925628 C50.5636,53.371214 50.6916,53.2519116 50.8136,53.2280512 C50.9336,53.2054465 50.8956,53.3661907 50.9306,53.3762372 C51.0406,53.4088884 51.0726,53.2217721 51.1616,53.2192605 C51.3526,53.2142372 51.5926,53.3347953 51.7426,53.3523767 C52.5266,53.4427953 53.3316,53.1715395 53.8246,53.1414 C54.2306,53.1162837 54.6426,53.2920977 54.9856,53.2569349 C55.0596,53.2519116 55.1116,53.1024698 55.0996,53.1037256 C55.3036,53.0798651 55.4646,53.2506558 55.5646,53.2406093 C55.7836,53.2217721 55.8206,53.0936791 56.0256,53.0760977 C56.9766,53.0020047 57.9966,52.9919581 58.7976,52.9944698 C58.9506,52.9957256 58.9566,53.1589814 59.1486,53.1363767 C59.1296,53.1388884 59.2046,53.0020047 59.2606,52.9819116 C59.6726,52.8362372 59.7466,53.2192605 60.0716,53.1087488 C60.4036,53.0798651 60.8296,53.1702837 60.9936,52.9316791 C61.2236,53.1326093 61.6556,53.0572605 61.9226,53.2041907 C62.1916,53.2468884 62.3656,53.1690279 62.4976,53.0384233 C63.8126,53.2996326 65.5116,53.0371674 66.7796,53.3649349 C66.6636,52.777214 67.3866,53.2380977 67.4636,52.8927488 C67.8846,52.8337256 68.2156,52.8952605 68.5056,53.0120512 C68.4796,52.6867953 68.9136,52.9341907 69.0786,52.8462837 C69.3096,52.5775395 69.3066,52.9530279 69.5386,52.6830279 C69.9996,52.9254 70.7546,52.7696791 71.3836,52.7847488 C71.7056,52.6516326 71.6846,52.9894465 71.9626,52.9191209 C73.2166,52.8500512 74.4096,52.8676326 75.4226,53.1288419 C75.9546,53.0610279 76.0826,52.9254 76.5746,53.0974465 C76.8456,53.0949349 76.9086,52.8287023 77.2626,52.9304233 C77.2896,53.1087488 77.3926,53.0170744 77.4946,52.9241442 C77.5106,52.7458186 77.6736,52.7546093 77.8356,52.7621442 C77.8266,52.945493 77.8076,53.1200512 77.6106,53.0698186 C77.7396,53.4088884 78.3356,53.107493 78.6506,53.1928884 C79.0926,53.2079581 78.6896,53.067307 78.7576,52.7370279 C79.0086,52.7031209 79.1276,52.851307 79.1126,53.1803302 C79.3886,53.1125163 79.3656,53.4478186 79.6896,53.317214 C79.7006,53.0434465 79.5686,52.9668419 79.3396,53.0233535 C79.6036,52.5247953 79.9946,53.1451674 80.2636,53.1501907 C80.2736,52.965586 80.2926,52.7910279 80.4896,52.8437721 C80.5236,53.0748419 80.7436,52.9404698 80.8346,52.8337256 C80.8686,53.0660512 81.0896,52.9304233 81.1796,52.8249349 C81.3526,52.7947953 81.6046,52.8676326 81.6366,52.6616791 C81.9136,52.5963767 81.8916,52.9329349 82.2146,52.8023302 C83.1906,52.459493 84.6106,52.6729814 85.7746,52.5700047 C86.9266,52.851307 88.4716,52.5951209 89.8006,52.6340512 C90.1236,52.5009349 90.1006,52.8387488 90.3766,52.7709349 C95.2246,52.9316791 100.4076,52.6993535 105.4186,52.6629349 C105.4056,52.8475395 105.3866,53.019586 105.1906,52.9668419 C105.1746,53.2933535 105.5986,53.0296326 105.7656,53.1087488 L106.5696,53.0961907 L108.0596,53.0773535 C108.4206,53.1464233 108.3606,52.6704698 108.6296,52.6227488 C109.4936,52.7382837 110.9786,52.4820977 111.8416,52.5976326 C112.4756,52.4783302 113.1936,52.3866558 113.9046,52.4318651 C114.2346,52.4507023 114.3656,52.5787953 114.4786,52.5775395 C114.7386,52.5750279 115.0246,52.419307 115.2806,52.4205628 C115.3926,52.419307 115.5136,52.4042372 115.6246,52.4180512 C115.7716,52.4381442 115.8816,52.5624698 115.9696,52.5662372 C116.2636,52.5800512 116.3716,52.3916791 116.6566,52.4105163 C116.7096,52.4142837 116.8106,52.5574465 116.7726,52.561214 C117.1516,52.5348419 117.4406,52.2723767 117.8036,52.4017256 C118.0686,52.3489814 118.2446,52.4218186 118.3766,52.5486558 C118.7286,52.6528884 118.7136,52.2849349 119.0646,52.3916791 C121.7816,52.3389349 124.6076,52.4645163 126.8616,52.2309349 C127.2136,52.1216791 127.1996,52.4896326 127.5496,52.3816326 C131.9356,51.6557721 137.1166,52.2736326 141.0816,51.9910744 C141.1976,52.4971674 140.7246,52.2221442 140.5076,52.2874465 C140.5196,52.6189814 140.9926,52.3565163 141.1956,52.4444233 C141.4326,52.3577721 141.9466,52.6390744 141.9976,52.3037721 C142.1496,52.3075395 142.1016,52.567493 142.2256,52.6064233 C143.9496,52.8023302 144.6746,52.4569814 146.3546,52.4996791 C146.6796,52.6277721 146.6546,52.291214 146.9306,52.3577721 L147.8466,52.3665628 C147.9686,52.3590279 147.9406,52.1744233 147.7336,52.2133535 L147.2746,52.2083302 C147.1236,52.2058186 146.9696,52.2045628 146.8156,52.203307 C146.6806,52.2271674 146.4916,52.1744233 146.4706,52.351493 C146.1476,52.1907488 145.9946,52.189493 145.6686,52.3427023 C144.5486,52.3314 143.5006,52.2811674 142.8006,52.4620047 C142.7506,51.9910744 143.0486,51.9847953 143.3766,52.0161907 L144.2946,52.0262372 C145.6346,51.8290744 146.7356,51.7838651 147.8506,51.9144698 C150.0836,51.6394465 151.5416,51.6444698 154.1646,51.697214 C156.2226,51.5251674 158.3976,51.5088419 160.5956,51.5276791 C160.5516,51.1886093 159.9876,51.5126093 159.9116,51.2137256 C157.9446,51.0127953 156.1626,51.487493 154.4006,51.1007023 C154.3606,50.2844233 155.3666,50.8784233 155.6696,50.5242837 L156.9336,50.5494 C158.2686,50.1651209 160.3146,50.7390279 161.6446,50.3459581 C161.4146,49.8976326 160.7316,50.0219581 160.3886,49.7180512 C159.4326,49.5824233 159.2066,49.9867953 158.5516,49.6803767 C157.4016,49.8587023 156.1116,49.8486558 154.8716,49.9064233 C154.6116,49.7444233 154.1806,49.7971674 153.9566,49.5861907 L151.8886,49.5497721 C151.8726,49.2245163 152.2966,49.4857256 152.4636,49.4066093 L153.1536,49.4191674 C153.4776,49.5510279 153.4536,49.213214 153.7306,49.2822837 C154.0826,49.179307 154.0656,49.5485163 154.4176,49.4455395 C154.6886,49.4568419 154.7586,49.1931209 155.1086,49.3099116 C155.3336,49.3588884 155.3386,49.1102372 155.4566,49.0160512 C156.0626,48.9859116 156.1356,49.1893535 156.6046,49.0399116 C156.5596,48.7020977 156.0396,48.9658186 155.8036,48.8716326 C155.6566,48.8603302 155.6456,48.6757256 155.4596,48.7146558 C155.0556,48.733493 155.0876,48.1985163 154.7766,48.0980512 L154.0876,48.0842372 C153.7206,47.9887953 153.7296,48.3592605 153.5116,48.0716791 L151.9036,48.045307 C151.8876,47.7200512 152.3116,47.9825163 152.4786,47.9021442 C152.8306,48.0189349 152.9006,47.7564698 153.1706,47.7652605 L154.4356,47.7903767 C155.2496,47.3119116 156.6296,47.5944698 157.7726,47.5580512 C157.7716,47.4751674 157.8666,47.3885163 157.8886,47.5605628 C158.1556,47.4626093 158.2006,47.0657721 158.4696,46.971586 L159.8486,46.999214 C160.6806,46.641307 162.1376,47.133586 162.9566,46.7606093 C163.3386,47.0167953 164.0676,46.8359581 164.4476,47.0934 L165.4826,47.113493 C165.7556,47.2089349 166.3196,46.9427023 166.4016,47.2842837 C166.7576,46.9150744 166.2766,46.3662837 166.4236,45.7785628 C166.1536,45.5274 165.7616,45.4307023 165.3926,45.3063767 C165.4176,45.0840977 165.6736,45.1732605 165.8556,45.163214 C165.9056,44.9773535 166.0096,44.8580512 166.2056,44.8693535 C166.6416,44.7626093 166.7526,45.0640047 167.1236,45.0388884 C167.3356,45.2649349 167.8856,45.0627488 168.0396,45.3603767 C168.4266,45.0489349 167.7006,44.9145628 167.8226,44.4511674 C167.9136,44.1133535 168.4696,44.407214 168.7466,44.3205628 C169.2106,44.2263767 169.4016,44.4787953 169.780621,44.4900977 C169.7836,44.1937256 169.4696,44.2929349 169.5596,43.8860512" id="Fill-198" fill="#4A455C" mask="url(#mask-12)"></path>
                    </g>
                    <path d="M46.3825,54.4425 C46.3885,54.5595 46.5265,54.5315 46.6175,54.5575 C46.6115,54.4405 46.4735,54.4665 46.3825,54.4425" id="Fill-201" fill="#4A455C"></path>
                    <path d="M2.11496746,54.2614274 C1.88720174,54.2474274 1.84707158,54.4104274 1.60845987,54.3834274 C1.43817787,54.3164274 1.22559653,54.2914274 1,54.2784274 L1,54.7124274 C1.20932755,54.7294274 1.38720174,54.6984274 1.48264642,54.5054274 C1.78091106,54.6204274 2.10629067,54.7114274 2.4978308,54.7394274 C2.5802603,54.5764274 2.76681128,54.5134274 3,54.4974274 C2.98264642,54.1534274 2.13340564,54.6044274 2.11496746,54.2614274" id="Fill-203" fill="#4A455C"></path>
                    <path d="M4.3835,54.4915356 C4.4135,54.6425356 4.6165,54.6105356 4.6165,54.4905356 C4.5125,54.4165356 4.4065,54.3465356 4.3835,54.4915356" id="Fill-205" fill="#4A455C"></path>
                    <path d="M4.32526832,54.6155197 C4.56026832,54.6555197 4.69226832,54.5885197 4.67526832,54.3735197 L4.32326832,54.3765197 L4.32526832,54.6155197 Z" id="Fill-207" fill="#4A455C"></path>
                    <path d="M44.324,54.4435 C44.345,54.5825 44.538,54.5405 44.676,54.5565 C44.654,54.4165 44.461,54.4595 44.324,54.4435" id="Fill-209" fill="#4A455C"></path>
                    <path d="M3.3245,54.44 C3.3435,54.582 3.5375,54.541 3.6755,54.56 C3.6545,54.418 3.4615,54.459 3.3245,54.44" id="Fill-211" fill="#4A455C"></path>
                    <path d="M149.498633,52.5704426 L149.727633,52.5724426 C149.753633,52.2344426 148.868633,52.5974426 149.498633,52.5704426" id="Fill-213" fill="#4A455C"></path>
                    <path d="M150.386,52.438 C150.388,52.555 150.526,52.534 150.614,52.562 C150.611,52.445 150.474,52.467 150.386,52.438" id="Fill-215" fill="#4A455C"></path>
                    <path d="M15.4416737,54.4408375 C15.3816737,54.5028375 15.5276737,54.5928375 15.5586737,54.5588375 C15.6176737,54.4968375 15.4726737,54.4078375 15.4416737,54.4408375" id="Fill-217" fill="#4A455C"></path>
                    <path d="M11.383,54.4879385 C11.415,54.6379385 11.616,54.6069385 11.617,54.4849385 C11.564,54.3119385 11.515,54.4989385 11.383,54.4879385" id="Fill-219" fill="#4A455C"></path>
                    <path d="M11.3275914,54.6169256 C11.5615914,54.6549256 11.6925914,54.5889256 11.6735914,54.3729256 L11.3245914,54.3779256 L11.3275914,54.6169256 Z" id="Fill-221" fill="#4A455C"></path>
                    <path d="M12.8262471,54.3809856 C12.5619517,54.4709856 11.91076,54.1769856 12.0102476,54.6309856 L13.4161383,54.6129856 L13.7678622,54.6089856 C13.9035272,54.6259856 13.9758818,54.5799856 14,54.4859856 L13.4141285,54.4929856 C13.083508,54.5969856 13.1076262,54.3299856 12.8262471,54.3809856" id="Fill-223" fill="#4A455C"></path>
                    <path d="M158.386,49.4385 C158.386,49.5545 158.523,49.5335 158.614,49.5615 C158.611,49.4445 158.472,49.4665 158.386,49.4385" id="Fill-225" fill="#4A455C"></path>
                    <path d="M159.672,49.5625 C159.655,49.4225 159.464,49.4575 159.328,49.4375 C159.345,49.5775 159.537,49.5425 159.672,49.5625" id="Fill-227" fill="#4A455C"></path>
                    <path d="M158.614,48.5625 C158.613,48.4445 158.474,48.4685 158.386,48.4375 C158.386,48.5545 158.525,48.5335 158.614,48.5625" id="Fill-229" fill="#4A455C"></path>
                    <path d="M157.615,24.562 C157.614,24.447 157.474,24.466 157.385,24.438 C157.386,24.556 157.525,24.533 157.615,24.562" id="Fill-231" fill="#4A455C"></path>
                    <path d="M149.667129,15.5946783 C149.501129,15.1396783 149.006129,15.6406783 149.667129,15.5946783" id="Fill-233" fill="#4A455C"></path>
                    <path d="M149.443037,15.4392062 C149.382037,15.5002062 149.525037,15.5922062 149.557037,15.5612062 C149.618037,15.4982062 149.474037,15.4072062 149.443037,15.4392062" id="Fill-235" fill="#4A455C"></path>
                    <path d="M144.4425,11.4389744 C144.3815,11.5009744 144.5255,11.5929744 144.5575,11.5609744 C144.6185,11.4999744 144.4745,11.4069744 144.4425,11.4389744" id="Fill-237" fill="#4A455C"></path>
                    <path d="M138.442853,10.440665 C138.380853,10.501665 138.525853,10.591665 138.557853,10.560665 C138.617853,10.498665 138.474853,10.405665 138.442853,10.440665" id="Fill-239" fill="#4A455C"></path>
                    <path d="M142.616,9.561 C142.612,9.444 142.473,9.468 142.384,9.439 C142.386,9.555 142.526,9.534 142.616,9.561" id="Fill-241" fill="#4A455C"></path>
                </g>
            </g>
        </g>
    </g>
</svg>