<?xml version="1.0" encoding="UTF-8"?>
<svg width="720px" height="47px" viewBox="0 0 720 47" version="1.1" xmlns="http://www.w3.org/2000/svg" xmlns:xlink="http://www.w3.org/1999/xlink">
    <title>526B3E7E-3976-4965-888E-D33C5F6E9167</title>
    <defs>
        <polygon id="path-1" points="0.0001 0 1160 0 1160 47.709 0.0001 47.709"></polygon>
    </defs>
    <g id="Page-1" stroke="none" stroke-width="1" fill="none" fill-rule="evenodd">
        <g id="web-dev-landing-page" transform="translate(0.000000, -528.000000)">
            <g id="Group-3-Copy" transform="translate(-440.000000, 528.000000)">
                <mask id="mask-2" fill="white">
                    <use xlink:href="#path-1"></use>
                </mask>
                <g id="Clip-2"></g>
                <path d="M0.0001,0 L0.0001,4.733 C2.0101,4.642 4.0751,4.512 6.2171,4.316 C8.0161,7.843 20.3671,4.78 18.6271,10.517 C21.9041,10.683 25.2781,10.298 28.5501,10.517 C30.9211,10.674 30.3151,11.976 31.0321,12.066 C33.4081,12.363 33.3341,10.504 33.5141,10.517 C39.9811,10.943 44.4361,13.46 53.3701,12.066 C55.8951,11.671 54.5771,10.883 55.8521,10.517 C56.7481,10.258 60.2301,10.964 60.8161,10.517 C60.9521,10.412 60.6651,8.979 60.8161,8.966 C63.7291,8.71 68.5721,10.283 73.2211,10.517 C77.3321,10.722 81.5151,10.36 85.6311,10.517 C90.0661,10.081 90.7201,11.981 88.1131,12.066 C88.7241,13.75 93.0481,13.117 93.0771,15.166 C101.1331,16.063 104.6181,14.109 110.4461,13.616 C111.8861,15.054 117.9011,17.523 122.8561,18.266 C128.2571,19.074 136.1531,16.51 142.7071,18.266 C143.8361,18.565 144.6751,20.573 145.1891,21.364 L147.6711,21.364 C146.8711,20.421 153.3431,16.91 155.1161,18.266 C155.2721,18.381 158.6791,20.883 160.0811,19.814 C160.2061,19.719 159.9551,18.272 160.0811,18.266 C161.5631,18.184 164.5891,19.698 167.5261,19.814 C170.3721,19.928 171.9721,19.864 172.4911,21.364 C181.8421,20.173 184.3531,23.254 192.3421,22.914 C196.5011,19.061 204.6981,22.51 209.7161,22.914 C216.6711,23.473 223.4341,23.261 229.5671,24.464 C230.4191,24.63 234.0171,24.069 234.5301,24.464 C234.9091,24.75 234.1091,25.761 234.5301,26.012 C234.9561,26.27 236.5951,25.752 237.0121,26.012 C237.3421,26.218 236.6291,27.417 237.0121,27.562 C238.2151,28.022 240.6671,27.212 241.9761,27.562 C242.4371,27.687 243.0041,28.749 244.4591,29.112 C246.5961,29.648 249.6941,28.685 251.9041,29.112 L254.3861,29.112 L254.3861,27.562 C262.5551,27.499 266.7371,24.947 276.7191,26.012 L279.2021,26.012 C282.7401,21.297 300.7191,21.882 301.5331,27.562 C306.6531,28.5 318.7771,25.062 316.4261,30.662 C324.9571,29.984 330.3331,31.275 336.2761,32.212 C338.5351,37.001 349.4441,36.389 348.6861,43.06 L353.6511,43.06 C355.7641,42.775 355.9921,43.664 356.1331,44.61 C361.3441,43.673 362.6721,46.043 366.0611,46.16 C374.3311,46.442 383.2791,42.033 385.9111,47.709 C390.8511,45.627 397.7261,44.755 403.2861,43.06 C412.9611,43.167 420.7511,42.912 428.1011,43.06 C432.5171,43.149 433.3751,44.817 438.0291,44.61 C440.3021,44.508 441.7861,42.861 445.4741,43.06 C444.6801,43.017 447.1321,44.481 447.9561,44.61 C449.5121,44.854 451.3401,44.423 452.9151,44.61 C454.8691,46.094 465.2771,42.678 467.8071,44.61 C467.9241,44.696 467.7101,46.158 467.8071,46.16 C473.0051,46.243 476.9591,42.743 482.6991,46.16 C489.0931,44.469 494.6251,42.244 497.5871,38.412 C503.7531,38.643 507.8871,37.609 509.9971,35.312 C519.3611,37.209 526.4981,40.505 539.7751,39.961 C540.0521,42.889 547.9821,41.036 547.2201,44.61 C553.4061,43.306 560.5181,42.582 569.5541,43.06 C567.4161,48.528 573.5481,44.482 579.4821,44.61 C582.9381,44.684 584.4211,46.461 586.9281,46.16 C594.1371,45.291 600.6661,43.806 599.3381,39.961 C602.2221,39.708 603.7531,40.303 604.3021,41.511 C608.7861,40.158 607.3071,39.491 614.2241,38.412 C615.6301,38.19 616.8431,36.851 616.7061,36.862 C621.5741,36.485 626.1701,40.57 626.6341,33.762 C629.0491,33.804 628.5591,35.659 629.1161,36.862 C632.0001,36.609 633.5331,37.204 634.0811,38.412 C638.0901,38.847 638.3511,36.946 641.5261,36.862 C645.8751,35.445 653.9071,36.329 656.4141,33.762 C660.1031,35.592 667.5051,35.103 666.3411,39.961 C683.4191,39.625 696.3201,41.902 708.5301,44.61 C709.2961,42.507 714.7451,43.324 718.4581,43.06 C718.7641,39.637 728.9821,42.401 733.3451,41.511 C735.2991,42.995 745.7071,39.58 748.2371,41.511 C750.7521,43.431 750.1041,42.112 755.6841,39.961 C757.3261,39.326 758.8881,39.111 760.6471,38.412 C761.1471,38.212 762.7171,38.667 763.1251,38.412 C763.3571,38.268 762.8531,36.921 763.1251,36.862 C766.9441,36.032 767.5551,38.669 770.5701,38.412 C773.6771,38.145 774.8071,35.92 778.0161,35.312 C784.2021,34.139 790.9451,36.229 797.8721,33.762 C800.1891,32.626 801.6291,30.943 802.8311,29.112 C810.6261,33.204 820.0401,28.384 825.1681,26.012 C832.3531,26.518 833.3471,26.925 842.5381,27.562 C847.7881,27.927 851.4621,29.458 854.9481,29.112 C858.2631,28.785 858.8121,26.218 862.3931,26.012 C865.6511,24.82 881.5701,18.956 882.2441,26.012 L892.1721,26.012 C890.2101,31.374 894.9311,32.556 897.1361,35.312 C908.4221,33.623 911.6211,27.493 924.4341,30.662 C931.7681,27.94 943.9201,25.652 944.2891,33.762 C948.6611,34.205 951.9731,26.465 954.2171,30.662 C960.0491,28.407 966.0401,34.361 974.0681,32.212 C975.1641,31.918 973.7781,30.532 976.5501,30.662 C980.6801,30.857 981.3011,31.286 981.5141,33.762 C984.8691,32.239 986.4731,29.627 988.9601,27.562 C1002.4851,26.864 1009.3491,30.326 1023.7021,29.112 C1027.4161,31.441 1028.1401,35.639 1033.6281,36.862 C1037.2011,37.729 1039.6831,39.279 1041.0731,41.511 C1047.2281,41.281 1053.1161,41.221 1053.4821,44.61 C1056.1751,44.227 1055.1641,41.529 1058.4431,41.511 L1068.3711,41.511 C1072.0831,39.695 1078.5221,39.583 1080.7791,36.862 C1082.7881,37.155 1083.2531,38.416 1085.7431,38.412 C1090.4641,39.477 1097.3601,39.468 1100.6321,41.511 C1102.1501,42.458 1100.3151,42.651 1103.1141,43.06 C1106.8851,43.612 1112.7001,41.996 1113.0391,44.61 C1117.9911,42.536 1123.7991,40.997 1125.4491,36.862 C1127.4901,36.068 1133.7221,37.894 1135.3751,36.862 C1135.5451,36.756 1135.1941,35.333 1135.3751,35.312 C1136.9041,35.139 1148.5921,36.589 1150.2671,35.312 C1150.3771,35.227 1150.1721,33.762 1150.2671,33.762 C1151.9201,33.748 1153.1711,35.072 1155.2291,35.312 C1156.3271,35.439 1158.0161,35.443 1160.0001,35.409 L1160.0001,0 L0.0001,0 Z" id="Fill-1" fill="#DEEBE7" mask="url(#mask-2)"></path>
            </g>
        </g>
    </g>
</svg>