<?xml version="1.0" encoding="UTF-8"?>
<svg width="1401px" height="67px" viewBox="0 0 1401 67" version="1.1" xmlns="http://www.w3.org/2000/svg" xmlns:xlink="http://www.w3.org/1999/xlink">
    <title>39F39A42-4E88-4DBA-B26D-4F10DE38DD27</title>
    <defs>
        <polygon id="path-1" points="1.13686838e-13 0 1401 0 1401 67 1.13686838e-13 67"></polygon>
    </defs>
    <g id="Page-1" stroke="none" stroke-width="1" fill="none" fill-rule="evenodd">
        <g id="web-dev-landing-page" transform="translate(0.000000, -5047.000000)">
            <g id="Group-3" transform="translate(700.500000, 5080.500000) rotate(-180.000000) translate(-700.500000, -5080.500000) translate(0.000000, 5047.000000)">
                <mask id="mask-2" fill="white">
                    <use xlink:href="#path-1"></use>
                </mask>
                <g id="Clip-2"></g>
                <path d="M1.13686838e-13,0 L1.13686838e-13,66.1645037 C0.944467241,66.2737983 1.89255776,66.4438121 2.85031034,66.7012615 C4.35155431,67.1007939 6.20787931,66.921065 7.8661319,67 C8.79610603,66.570108 9.62945948,66.2361524 10.372231,65.8293337 C11.6065603,65.1529218 13.0075603,64.8699703 14.4532474,65.3277931 C16.5438776,65.9859893 18.5777431,66.2361524 20.8169276,65.6641775 C22.3725207,65.2658595 24.0887457,65.50145 25.7469983,65.1674944 C27.5707138,64.7971072 29.6456431,64.9064018 31.4645276,65.548811 C32.8655276,66.0394222 34.2689431,66.0867832 35.6675276,65.5840281 C37.0335026,65.0958457 38.4188017,64.9707642 39.8922672,65.3860835 C40.3222293,65.5026644 40.9128233,65.6508193 41.2775664,65.548811 C44.1133836,64.7582469 47.0941319,65.150493 50.0120767,65.0545567 C51.2476138,65.0132676 52.4493336,64.9476909 53.5677181,64.5566592 C54.959056,64.0745487 56.3817957,64.0199014 57.7731336,64.5311571 C58.4506862,64.7801059 59.1499784,64.888186 59.8589328,64.9561915 C59.8915422,64.1073371 60.1343017,63.2645545 60.6572612,62.4399877 C60.8649957,62.1084608 61.3698388,61.9153737 61.8722664,62.0696005 C62.5039241,62.263902 63.2744741,62.5079932 63.5691672,62.877166 C64.1283595,63.5705793 64.3674957,64.3660009 64.7708871,65.1164902 C64.7890034,65.1614225 64.8699233,65.2087834 64.9291034,65.2525013 C65.1706552,65.2913616 65.4013371,65.3302219 65.6380578,65.3715109 C65.8554543,65.4067281 66.192419,65.5548829 66.192419,65.6544624 C66.192419,65.6726782 66.1887957,65.6933227 66.1887957,65.7127528 C66.3445966,65.7406837 66.4967741,65.7613282 66.6187578,65.7625426 C67.6719233,65.779544 68.539094,65.4965925 69.2879043,65.0727724 C70.3410698,64.4704379 71.3737034,64.417005 72.601994,64.8553977 C73.2686767,65.0958457 74.073044,64.91976 74.6503526,64.6173784 C75.8279172,64.0053288 76.9777034,63.4102806 78.5803991,63.9786123 C80.0188397,63.5256471 81.3316733,63.6179403 82.7302578,64.1777713 C83.7242431,64.5760893 85.2677586,64.1498405 85.876469,63.4940731 C86.1228517,63.222051 86.3849353,62.9366708 86.5008802,62.6342891 C86.7895345,61.8619408 86.9888147,61.0725912 87.2231198,60.3136011 C88.6301586,59.3518089 89.9828483,58.4276626 90.789631,57.8811897 C91.9611569,56.636446 91.1592052,55.4985681 92.6205931,54.8124411 C93.766756,55.6017908 92.4974017,56.762742 93.5843845,57.5557348 C94.8694397,57.2837128 95.2800776,56.4652179 95.7329871,55.8118792 C96.7450888,54.3582614 98.4697681,53.6017001 100.660642,53.1463061 C101.356311,53.0030088 102.049565,52.8536395 102.545953,52.7467737 C105.699411,52.8074929 108.633057,52.8597114 111.553417,52.9131443 C112.445951,52.513612 113.240656,52.1420104 114.054685,51.7946966 C115.069203,51.3648046 116.101836,50.9543428 116.883256,50.6337454 C117.436409,50.0435547 117.873618,49.6500943 118.184012,49.2165591 C119.098285,47.9208113 119.454574,46.4404771 121.34834,45.4871855 C121.69859,45.3123142 121.932895,44.9552853 122.025892,44.6553324 C122.314547,43.6850395 122.92688,42.8033967 123.845984,42.0504785 C124.242129,41.7298811 124.48972,41.1032589 125.132247,41.122689 C129.250704,41.2344124 131.059927,45.2090916 135.080555,43.3984449 C137.366842,42.3674328 136.758132,40.6806532 137.761779,39.2027478 C138.089082,38.7218517 138.388606,37.8511383 139.031134,38.0247952 C139.572209,38.1656637 139.18935,38.7667839 139.792022,39.0375915 C140.735281,38.9865874 141.685787,38.9355833 142.480492,38.8930798 C143.636317,39.4444102 144.880309,39.6642137 145.609795,40.3333394 C146.218505,41.0801856 145.967291,41.8598202 146.002316,42.6285253 C147.240269,42.181632 148.489091,41.7298811 149.724628,41.2793446 C150.416674,41.4396433 151.094227,41.5926557 151.865984,41.7687414 C153.892603,41.3777097 155.992896,40.9308164 158.235703,41.2113391 C158.478463,41.2380555 158.729677,41.2161966 158.972436,41.2271261 C161.110169,41.3473501 162.840887,40.9198869 163.871105,39.6180671 C164.452037,38.8857935 165.202055,38.2895309 166.311985,37.8742116 C166.883255,37.6592656 167.658636,37.948289 167.764919,38.4862611 C167.826515,38.7752846 167.860332,39.0679511 167.90985,39.3654752 C169.738397,39.7953672 171.605591,40.1560393 172.781948,41.3327775 C173.301284,41.8501051 174.168455,42.213206 174.685376,42.5338034 C176.397978,42.7973247 177.955986,42.8446857 179.204809,43.2757921 C181.021278,43.9072718 182.510444,42.9806967 184.200098,43.1239941 C185.907869,43.2648626 187.592692,43.3000798 189.11326,43.9388458 C190.200243,44.3918111 191.408002,44.3432357 192.636292,44.0712137 C194.242611,43.7166135 195.893617,43.449449 197.537377,43.1385667 C198.350198,42.5289458 199.14128,41.935112 199.93357,41.3424926 C200.868375,41.4687885 201.800765,41.5926557 202.833398,41.7323099 C205.861249,39.9981694 209.535251,39.2501088 213.474959,39.0460922 C214.505178,38.0502973 215.453268,37.1310085 216.356672,36.2517944 C216.671897,36.2153629 216.942434,36.1242841 217.093404,36.1752882 C218.606726,36.7096172 219.931637,36.5432466 221.034321,35.7113935 C221.673225,35.2402124 222.213093,34.710741 222.719144,34.2674908 C226.32068,33.8424563 229.301428,32.7920141 232.191595,31.4768361 C233.865548,31.7512869 235.265341,32.6256434 237.150652,32.368194 C238.678466,31.9795911 240.2715,31.5691293 241.808977,31.179312 C242.346429,31.267962 242.801754,31.346897 243.27278,31.4088306 C243.736559,31.4707642 244.208793,31.5108388 244.771609,31.5691293 C245.417759,31.1513811 245.992653,30.5405459 246.813928,30.3013123 C251.022967,29.067498 254.889003,27.4122925 258.944656,25.9598891 C261.435054,27.1791307 263.024465,28.7505438 264.371116,30.4834699 C265.087316,31.3979011 266.523341,31.7804321 268.100674,31.7184985 C269.048765,31.6784238 269.984778,31.4452621 270.949777,31.3663271 C273.099587,31.1902414 273.901539,29.7475531 275.801343,29.2132241 L281.578053,29.4269557 C283.547907,30.366889 285.290703,31.5411984 287.837866,31.8144349 C288.264204,31.8642246 288.671219,32.1508193 289.00456,32.3779091 C290.046856,33.1041108 291.240122,33.6117233 292.816247,33.6505836 C294.066277,33.6882295 295.182246,34.0088269 296.283722,34.3767853 C296.944366,34.6014464 297.69076,34.6390923 298.390053,34.4071449 C299.752404,33.9578228 301.250025,34.0574023 302.687258,33.9128906 C303.612401,33.8169543 304.550829,33.5303596 305.322587,33.1709019 C306.520684,32.6183571 307.601628,31.9261582 307.837141,30.8975749 C308.056953,29.9017799 309.061808,29.1610056 309.705543,28.302436 C310.389134,27.3952911 311.555829,26.8366744 313.038957,26.5464366 C313.727379,26.4128543 314.401309,26.2464837 315.086108,26.0946857 C316.217778,26.4942181 317.287852,26.7395237 318.584984,26.3776372 C319.902649,26.0108932 321.337466,25.8153774 322.546433,25.5773581 C323.837527,24.1820307 325.24215,23.0975857 327.352104,22.5158957 C327.846078,22.5839013 328.337635,22.6106177 328.778467,22.722341 C331.337708,23.3768941 331.645686,23.351392 333.189202,22.2232292 C333.829314,21.7544769 334.425947,21.2577938 334.702523,21.0379903 C337.818541,20.2899297 339.354809,21.2626513 340.654358,22.545041 C340.899533,22.570543 341.164032,22.6397629 341.383844,22.6057602 C342.757066,22.3823135 344.103716,21.805481 345.522833,22.5377547 C347.169008,23.3817516 349.393699,22.9154281 351.109924,23.5869825 C351.641338,23.7946422 352.04956,23.7752121 352.489184,23.3817516 C353.004897,22.817063 352.974703,21.8892735 354.216279,21.4958131 C355.143838,21.198289 355.722354,20.7137497 356.239275,20.1599906 C357.050889,19.2953491 358.345606,18.8982455 359.741775,18.5169289 C361.113789,18.1428986 362.576384,18.0141739 363.925451,17.6620025 C365.255193,17.3134742 365.836125,16.2824621 367.299928,15.8914304 C368.634502,15.5356159 369.784288,14.8907779 370.839869,14.445099 C372.773491,14.381951 374.477638,14.3528058 376.17937,14.2580838 C377.373843,14.1937215 378.192703,13.3472957 377.963229,12.5215145 C377.796559,11.9167513 377.701146,11.3022729 377.573123,10.6950808 C379.093691,10.7594432 380.485029,11.0848981 381.129972,12.0248314 C382.690397,14.2811571 385.378867,15.9400058 387.851149,17.7154354 C388.310097,18.0469622 388.99852,18.2436925 389.487662,18.4574241 C392.242559,18.0384615 392.295701,18.0481766 393.608534,18.9152469 C394.304203,19.3682121 394.937069,19.8612521 395.650854,20.3008591 C397.086879,21.1861451 398.532566,21.277224 400.32488,20.5910969 C401.147364,20.2765714 401.803177,19.7483144 402.715034,19.7896034 C404.024245,20.0761981 405.256159,20.2401399 406.321402,20.6080983 C407.385437,20.9784855 408.236907,21.6002501 409.257463,22.0277133 C410.697111,22.6251903 412.094488,23.3028166 414.239467,23.645273 C417.432781,23.6379867 421.087459,24.2706808 424.696241,23.2870297 C425.548919,23.0538679 426.632278,23.16802 427.609355,23.1728775 C429.319541,23.1850214 431.040597,23.2360255 432.855859,23.272457 C435.656651,22.0094976 438.567349,20.8582614 442.097628,20.5655949 C442.729285,20.5145907 443.371813,20.1029145 443.869409,19.7653157 C444.546962,19.3147792 445.080791,18.7792358 445.614621,18.3311281 C447.615877,17.9971725 449.474617,17.6899333 451.124416,17.4154825 C452.676385,17.9850286 453.954194,18.4695679 455.25495,18.91889 C455.672834,19.0597586 456.168016,19.1046908 456.722377,19.2115566 C458.427732,18.9456065 458.384253,17.1908214 459.897574,17.2454687 C461.683849,17.3049735 461.414519,19.2917059 463.431476,19.7276698 C464.051056,19.8661096 464.923058,19.6827376 465.344566,20.0081926 C465.890472,20.4307982 465.419447,21.119354 466.20449,21.4375227 C469.222678,22.6506924 471.066926,24.5597042 473.180503,26.1724063 C473.265047,28.5380265 476.202316,29.9649279 476.817065,32.0743131 C476.608122,32.6426448 476.390726,33.2522656 476.181784,33.8205974 C476.562228,34.8601102 477.707183,35.517092 478.702376,36.1959327 C480.027287,37.088505 479.687907,38.3235337 480.460872,39.3120423 C480.680684,39.5962082 480.946391,39.8743022 481.272486,40.1086783 C482.422272,40.9344595 483.608291,41.7432393 484.597446,42.4293663 C486.800397,42.7038172 488.430872,43.4385195 490.514255,43.3717284 C491.876607,43.3267962 493.31384,43.8550533 494.645997,44.2278692 C495.283694,44.4088124 495.861003,44.7779852 496.298211,45.1423004 C496.896052,45.6365548 497.329637,46.2073153 497.824818,46.7416443 C500.218596,47.3864823 502.84064,46.8958711 504.372078,47.373124 C506.34314,48.08111 507.033978,49.1048358 508.668075,49.1898427 C509.377029,49.0854056 510.088399,48.9809686 510.856534,48.8704597 C510.997841,48.919035 511.152434,48.966396 511.297366,49.0125426 C511.757522,48.8158124 512.237002,48.6300116 512.621069,48.3798485 C513.479785,47.8260893 514.058302,47.0926013 514.853007,46.4963387 C515.528144,45.9960125 516.545077,45.8940042 517.513699,45.7762089 C519.40988,45.5430472 520.513772,44.7816284 520.868853,43.5405278 C520.960642,43.2308599 521.143014,42.9357645 521.287945,42.6297397 C521.47394,42.6297397 521.728777,42.5787356 521.841098,42.6382404 C522.541598,43.0074132 522.966729,43.5235264 524.228837,43.2612195 C526.056176,42.8871892 527.884722,42.3589321 529.86907,42.4524396 C530.814745,42.4998006 531.068374,42.0577648 531.485051,41.6873777 C532.352222,40.9223157 533.695249,40.9016711 534.770154,41.2999891 C536.045547,41.7687414 537.206203,42.3625752 538.33425,42.8653302 C540.673678,42.9430508 542.873007,43.0171283 544.453963,43.0705612 C549.320022,44.3808816 553.613604,45.5381897 557.893901,46.6882114 L563.710466,46.6882114 C564.508795,46.1903139 565.200841,45.75435 565.943612,45.2928841 C567.289055,45.6365548 568.658653,45.9875118 570.062069,46.3469695 C571.90994,46.0713043 573.756603,45.5345465 575.941438,46.1235228 C576.460774,46.4769086 577.135911,46.9347314 577.940278,47.4751323 C580.307485,48.002175 582.840155,48.5644349 585.585391,49.1740557 C586.860784,49.9706917 588.196565,50.92034 589.713509,51.7291198 C591.220792,52.5342565 592.649571,53.3903973 594.109751,54.2173929 C595.562684,55.0456028 597.194366,55.7766621 598.642469,56.6425179 C599.841773,57.360219 601.245189,57.4950156 602.735563,57.1064127 C603.867233,56.8064598 604.974747,56.3753534 606.247725,56.5842275 C607.412004,56.772457 608.549713,57.050551 609.41326,57.2351374 C611.8167,56.6898789 613.865059,56.1713369 615.977428,55.7633038 C617.356689,55.4997825 618.812038,55.3977742 620.027043,55.248405 C620.504108,54.8683028 620.883344,54.6472849 621.103156,54.3740484 C621.970327,53.3005329 623.239681,52.6714819 625.124992,52.5221127 C626.061005,52.4468209 626.96924,52.1930146 627.856942,52.0242152 C628.754307,52.3848873 629.579206,52.7188429 630.499518,53.0880157 C631.590124,52.9325745 632.754403,52.7407018 633.928345,52.5925469 C635.346253,52.4128181 636.770201,52.2719495 638.339079,52.0982926 C639.249729,52.4796092 640.191781,53.079515 641.310166,53.3005329 C642.980496,53.629631 644.476909,54.0340209 645.892402,54.7262198 C647.242676,55.3892735 648.820009,56.054756 650.42512,56.2417712 C652.502465,56.4907199 653.92762,57.3347169 655.589496,57.951624 C656.549664,57.8119698 657.488092,57.679602 658.274343,57.5654499 C660.21038,58.1629268 661.982162,58.7106141 663.799839,59.2655876 C666.218979,59.3384507 668.633289,59.3688103 670.940108,60.104727 C672.382172,60.5625498 673.801288,60.0610092 674.794066,59.2218698 C675.272338,58.8150511 675.455917,58.3207968 675.102044,57.8848329 C674.639472,57.3262162 673.907571,56.8623215 673.436545,56.3085623 C673.091126,55.902958 672.942572,55.4196331 672.773485,54.9593816 C672.635801,54.5683499 673.286783,53.9453708 673.865299,53.8482201 C674.388259,53.7607845 674.847207,53.860364 675.147939,54.1761038 C676.303764,55.4196331 677.54534,56.6000145 680.003128,57.3310737 C681.128759,57.3590046 682.596186,57.3626477 684.053951,57.4403683 C685.469444,57.5144457 686.876483,57.6662437 688.283522,57.7828246 C689.560122,56.4712898 691.406785,56.2721308 693.461183,56.5757268 C694.166514,56.6825926 694.792133,57.0165482 695.496256,57.1100558 C696.687106,57.2667114 697.914189,57.4075799 699.12074,57.3869354 C701.59906,57.3456463 703.747663,56.4494309 706.083468,56.0304684 C706.508599,55.9515334 706.892666,55.66251 707.189775,55.4123468 C707.631815,55.0322446 707.90356,54.5659211 708.384248,54.2064634 C709.071463,53.6939933 710.011099,53.4863336 711.031655,53.6745632 C711.738194,53.8032879 712.391591,54.0230914 713.072767,54.2028203 C714.571596,54.6084246 715.913416,54.4481259 717.168277,53.7704995 C718.472656,53.0697999 719.82293,52.4018886 721.127309,51.7388349 C721.198567,50.999275 721.252916,50.360509 721.327797,49.7180998 C721.366446,49.3999311 721.339875,49.0562604 721.518623,48.7696658 C721.692541,48.5012869 722.043998,48.1916189 722.428066,48.0956826 C722.807302,47.9997462 723.374948,48.0871819 723.784378,48.2074059 C724.732469,48.4782136 725.279584,49.0380447 725.704715,49.6124483 C726.058588,50.0909157 726.668506,50.4795186 727.324319,50.4989487 C731.466931,50.6033858 735.638529,51.072138 739.680897,49.9816211 C741.307748,49.5456572 743.17132,49.4837236 744.746237,49.8443957 C747.237843,50.4236569 749.873172,50.7175379 752.135304,51.8554158 C754.252505,52.927717 756.530338,53.8737222 758.5014,55.0796056 C761.136729,55.6843689 762.745464,57.2242079 764.780537,58.1325672 C767.219002,58.4325201 769.334995,58.4640941 771.495675,57.8860473 C774.301298,57.1404154 777.209581,57.1525593 780.093709,57.8435438 C781.465722,58.1714275 782.863099,58.4580222 784.393329,58.7931922 C785.009286,59.1672225 785.709786,59.6189734 786.457389,60.031864 C787.192914,60.4374683 787.974334,60.7932828 788.61203,61.1041652 C790.782372,60.8734322 792.485312,60.0682955 794.545748,60.2844559 C796.52768,60.4896868 798.423861,60.1387298 800.305549,59.7817009 C800.501206,59.7428406 800.783822,59.8521351 801.003634,59.9140687 C802.636523,60.3973936 804.37328,60.2747408 806.081051,60.2747408 C809.518332,60.2795983 812.993053,60.445969 816.382024,60.1751613 C819.000445,59.9602153 821.554854,59.2728739 824.027136,58.5600305 C824.635847,58.3827304 825.600846,58.3596571 826.167284,58.5551729 C828.213228,59.2619445 830.370284,59.3833829 832.593768,59.3384507 C834.103466,59.3080911 835.479103,59.5740412 836.845078,59.9930037 C838.287142,60.439897 839.659156,60.262597 840.938172,59.5934713 C842.249798,58.9024868 843.124216,57.8241137 844.95397,57.6030958 C847.725776,57.8374719 849.591763,59.2704452 851.695678,59.8582071 C853.025421,59.6469042 853.961434,59.4526028 854.928848,59.355452 C858.05332,59.0312115 861.119819,58.4883818 864.130761,57.8848329 C865.90979,57.5253752 867.374801,57.5229464 869.063247,57.9613391 C870.165931,58.2503625 871.438909,58.3086529 872.649083,58.3438701 C875.081509,58.4155187 877.565868,58.1714275 879.812299,59.0846444 C880.148056,59.219441 880.847348,59.1696513 881.212091,59.0263539 C882.597391,58.485953 884.064817,58.9328464 885.481518,58.8429819 C887.868049,58.6948271 889.928485,58.5940332 890.958703,58.3438701 C892.579516,57.9467665 893.370597,56.6789495 895.032473,56.6510186 C896.682272,56.9181831 898.073609,57.2278511 899.504803,57.3456463 C901.189627,57.4865149 902.904644,57.4634416 904.13535,57.4998731 C906.242889,58.3438701 907.827468,59.1137896 909.58838,59.6469042 C911.570312,60.2492387 913.695967,60.660915 915.775728,61.1078083 C916.761259,61.3215399 917.717803,61.132096 918.581351,60.7799246 C919.396588,60.439897 920.182839,60.0658667 920.979959,59.706409 C922.761403,60.3026716 924.234869,59.1672225 925.947471,59.3348075 C926.666087,59.4052418 927.527219,59.3178061 928.100904,59.5424672 C930.97537,60.6645581 933.721813,60.2710977 936.52019,59.434387 C937.401853,59.1757232 938.453811,59.1441492 939.302866,58.8551258 C940.680918,58.3900167 942.135059,58.4300914 943.596447,58.3438701 C945.87428,58.2030015 947.897276,58.8429819 949.960128,59.1247191 C951.404607,58.8381244 952.682416,58.239433 954.206607,58.8551258 C955.560504,59.3991699 956.979621,59.3943123 958.397529,58.900058 C959.98694,58.3462988 961.669347,58.2843653 963.764809,58.6243928 C965.002761,59.298376 966.502797,60.1059414 967.942446,60.8843616 C969.635723,61.2802509 971.205809,61.7587182 972.864062,62.0076669 C974.274724,62.2189698 975.798916,62.2942616 977.239772,62.2031828 C978.974113,62.0902451 980.453617,63.0811825 982.469366,62.5031356 C984.248395,60.91715 986.998461,61.2073878 989.645868,61.3774016 C991.356054,61.7125716 992.231679,62.9609585 994.125445,62.9670304 C997.59292,62.2420431 997.653308,61.6105633 1001.42635,63.6543718 C1001.60872,63.7551657 1001.85268,63.8098129 1002.06646,63.8887479 C1003.51094,64.2676358 1004.85276,63.0969695 1006.30811,63.7758102 C1007.51949,63.6155115 1008.61251,63.3119155 1009.44586,62.7156529 C1009.2804,61.9991662 1008.4241,61.6324222 1007.80814,61.1515261 C1007.33712,60.7859965 1006.89387,60.4058943 1006.46149,60.0233633 C1006.15351,59.75377 1006.72116,59.1040745 1007.43132,58.9049155 C1007.92771,58.764047 1008.29245,58.8976292 1008.60889,59.2376568 C1008.85648,59.5011781 1009.19948,59.7343399 1009.53886,60.0124338 C1010.88068,60.2868847 1012.27202,60.5722649 1013.7322,60.8673603 C1014.92909,60.4107518 1016.09699,59.7574132 1017.44847,59.4866055 C1019.50528,59.0652142 1021.6865,58.9134162 1023.98848,58.6243928 C1024.50057,59.1283622 1024.95107,59.7027659 1025.59239,60.1666606 C1026.0308,60.4811861 1026.72647,60.645128 1027.23252,60.8455013 C1028.41613,60.3342456 1029.43064,59.8994961 1030.6384,59.3736678 C1032.21332,59.3736678 1033.92351,59.3894548 1035.63369,59.3688103 C1037.58785,59.3493801 1039.53838,59.2923041 1041.3476,59.2546582 C1042.72444,58.6328935 1043.93341,58.0924926 1045.09044,57.5654499 C1046.37429,57.4610128 1047.59171,57.360219 1048.99271,57.2472812 C1049.65336,56.9266838 1050.46618,56.5672261 1051.20412,56.1567643 C1052.20293,55.6078627 1053.46263,55.5860038 1054.59671,55.3042667 C1055.47958,55.0796056 1056.25496,54.6412129 1057.03034,54.2562532 C1058.78039,53.3903973 1060.67778,53.3551802 1062.59087,53.8773653 C1064.39163,54.3691909 1066.18032,54.9035199 1067.54992,55.8956717 C1068.53062,56.6085152 1069.60794,57.2788552 1070.74807,57.8848329 C1071.51741,58.2952947 1072.53434,58.444664 1073.52712,58.2357899 C1074.68778,57.9916987 1075.80858,57.6832451 1077.0417,57.3820779 C1079.33644,57.8824041 1081.69157,58.3037954 1083.92471,58.9134162 C1085.23996,59.2765171 1086.28951,58.978993 1087.42963,58.7616182 C1089.76423,59.219441 1092.09399,59.6784782 1094.28124,60.110799 C1095.11581,59.9602153 1095.80423,59.8387769 1096.61463,59.6942652 C1098.08206,60.5103313 1099.5519,61.3373269 1100.85266,62.0610998 C1102.11597,62.153393 1103.1003,62.2663307 1103.89259,61.7247154 C1104.55806,61.2693214 1105.11725,60.6839883 1105.92404,60.3888929 C1108.04969,59.6141159 1110.0908,58.685112 1112.89401,58.4082324 C1116.29264,59.6311172 1120.17559,59.4696041 1123.93776,59.203654 C1125.32064,58.5903901 1126.53806,58.0536323 1127.73253,57.5229464 C1129.48862,57.4355108 1131.19276,57.354147 1132.95005,57.2667114 C1133.93921,56.7918872 1134.8571,56.2417712 1135.92355,55.8665265 C1136.96585,55.4924962 1138.16032,55.2933372 1139.38499,54.9970275 C1139.91036,54.284184 1140.45627,53.5701262 1140.9744,52.8499964 C1141.06377,52.7151997 1141.04203,52.5281846 1140.98769,52.346027 C1140.90193,52.0897919 1140.23525,51.827485 1140.507,51.6331835 C1142.6399,50.0933445 1147.75838,49.9051149 1149.599,51.6028239 C1150.12196,52.08372 1148.85623,52.6241209 1149.21011,52.9750779 C1149.63765,53.3879685 1150.97223,53.6235591 1151.85631,53.3430363 C1152.22588,53.2252411 1152.76937,52.9665772 1152.81889,52.539114 C1152.86841,52.1456536 1152.3068,51.7461212 1151.88046,51.4121656 C1151.74278,51.3077286 1151.43117,51.2943703 1151.43117,51.1777895 C1151.4819,49.7108135 1155.53031,48.9166062 1157.48446,49.5237983 C1157.5376,49.5432284 1157.57746,49.6197346 1157.52915,49.652523 C1159.14271,48.5620061 1161.74785,49.0623323 1163.77326,48.9214638 C1165.44963,49.4047887 1167.00764,49.8553252 1168.5125,50.2925034 C1169.67437,49.804321 1170.69613,49.3768578 1171.82901,48.9020336 C1172.46791,49.0125426 1173.1974,49.070833 1173.83268,49.269992 C1175.22764,49.7035272 1176.68903,49.6391648 1178.15766,49.6925977 C1179.70118,49.7508881 1180.94879,48.9846118 1182.35583,48.99797 C1183.76529,49.0125426 1185.153,49.5177264 1186.58299,49.6330929 C1187.50572,49.7071703 1188.57217,49.5820887 1189.42847,49.3319256 C1192.31863,48.495215 1195.10493,48.5231458 1197.95766,49.3768578 C1199.41059,49.8091786 1200.79589,49.5541579 1202.15341,49.0477597 C1203.22469,48.647013 1204.23559,48.2608388 1204.89865,47.5200645 C1205.27185,47.0998876 1206.00375,46.9310882 1206.79241,47.0500979 C1207.26344,47.1229609 1207.82142,47.3816247 1208.19583,47.2917603 C1210.79613,46.6481367 1213.49668,46.8363663 1216.1767,46.7768615 C1216.90015,46.7610745 1217.76249,46.813293 1218.33496,46.5837744 C1220.57777,45.6839158 1223.09957,45.9292213 1225.10566,45.7324911 C1227.57069,45.2260929 1229.32677,44.2594432 1231.42224,44.062713 C1232.24713,44.1999384 1232.93556,44.3177336 1233.52253,44.4160987 C1237.18445,42.972196 1240.73164,41.5695824 1244.31747,40.1536105 C1246.21849,39.7990104 1247.99872,40.9308164 1249.96495,40.4426339 C1251.81282,40.8518814 1253.64983,41.2829877 1255.52185,41.6533749 C1255.92403,41.7347386 1256.43371,41.5975132 1257.01706,41.5465091 C1257.81297,40.9988219 1258.25139,40.2422606 1258.83232,39.5452041 C1259.30938,38.985373 1259.64272,38.3684659 1260.121,37.8147067 C1260.71159,37.1370804 1260.35892,36.203219 1261.63915,35.6361016 C1262.12346,35.9372689 1262.92179,36.203219 1263.09691,36.58575 C1263.66939,37.8402088 1264.41095,38.9367977 1266.161,39.7261473 C1266.90498,40.0661749 1267.27576,40.7644457 1268.23713,41.0218952 C1269.37001,41.321848 1270.46303,41.7347386 1271.63577,41.8950373 C1272.81575,42.0529073 1273.84113,42.6103096 1275.13464,42.4402958 C1275.8436,42.3467882 1276.73251,42.0529073 1277.24218,42.2253498 C1279.54538,42.9976981 1282.00317,42.9187631 1284.44042,42.9272638 C1286.18201,42.9333358 1287.84389,43.0851338 1289.42605,43.6036758 C1290.04201,43.8040492 1290.97077,43.4919524 1291.26305,43.0839194 C1291.67248,42.5143732 1291.5976,41.7978866 1292.58676,41.321848 C1294.06505,40.9793917 1295.6605,40.604147 1297.2632,40.2459037 C1297.47697,40.1948996 1297.74751,40.237403 1297.95162,40.237403 C1298.40091,40.4244182 1298.92145,40.5409991 1299.20044,40.7790183 C1300.0809,41.5392228 1300.72101,42.4487965 1301.74277,43.1069927 C1302.76574,43.7676176 1304.17882,44.1574349 1305.33827,44.7403393 C1306.4941,45.3220293 1307.54605,45.9996556 1308.41081,46.4987675 C1311.61137,46.9480896 1314.22858,47.9936743 1317.30837,47.7920866 C1317.98471,47.74594 1318.76855,47.9499565 1319.399,48.1709744 C1321.05725,48.7538788 1322.65149,48.7648082 1324.288,48.1551874 C1325.4088,47.7350105 1326.66608,47.6160009 1327.81104,48.0143189 C1330.4512,48.9251069 1332.96816,48.8437432 1335.49238,47.8455195 C1336.118,47.5977851 1336.80521,47.4119843 1337.49364,47.2358986 C1337.93568,47.1229609 1338.41999,47.0841006 1338.8886,47.0088088 C1340.09394,47.0415972 1341.0686,47.7908722 1342.59038,47.4435583 C1342.99618,47.2322555 1343.65321,46.9833067 1344.12423,46.6274922 C1345.0844,45.9085768 1345.93104,45.1325854 1346.82961,44.3772385 C1347.24266,44.4998912 1347.75475,44.5545385 1348.04945,44.7512688 C1349.27894,45.5442616 1349.48064,46.8084354 1350.95048,47.4969912 C1352.54472,48.2353368 1354.17278,48.9384652 1355.72354,49.7144566 C1356.72719,50.2172116 1357.76949,50.5572392 1359.00986,50.721181 C1359.70552,50.8110455 1360.43863,51.0102045 1360.98575,51.3052998 C1363.6863,52.7504169 1366.8627,53.5786268 1369.9763,54.4942725 C1370.76739,54.4942725 1371.50653,54.514917 1372.23602,54.4942725 C1376.36414,54.3801204 1380.58526,54.9508809 1384.55878,53.6854926 C1385.17232,53.4899768 1386.00447,53.5676974 1386.7412,53.5676974 C1389.92606,53.5567679 1393.12058,53.5628398 1396.17742,53.5628398 C1397.88036,54.2574676 1399.46494,54.8828754 1401,55.5386428 L1401,0 L1.13686838e-13,0 Z" id="Fill-1" fill="#E9EEF2" mask="url(#mask-2)"></path>
            </g>
        </g>
    </g>
</svg>