<?xml version="1.0" encoding="UTF-8"?>
<svg width="426px" height="68px" viewBox="0 0 426 68" version="1.1" xmlns="http://www.w3.org/2000/svg" xmlns:xlink="http://www.w3.org/1999/xlink">
    <title>E8CFBF24-80E2-4CAB-A245-7B4E04C10731</title>
    <defs>
        <polygon id="path-1" points="0 0.305454545 426 0.305454545 426 66.3054545 0 66.3054545"></polygon>
    </defs>
    <g id="Page-1" stroke="none" stroke-width="1" fill="none" fill-rule="evenodd">
        <g id="web-dev-landing-page-menu" transform="translate(-1069.000000, -390.000000)">
            <g id="Group-3" transform="translate(1069.000000, 390.694545)">
                <mask id="mask-2" fill="white">
                    <use xlink:href="#path-1"></use>
                </mask>
                <g id="Clip-2"></g>
                <path d="M0,0.305454545 L0,63.8392406 C2.83870909,64.9890932 7.31016,64.7411009 9.67562182,66.2975993 C10.6794327,66.3992607 10.8521564,65.481227 11.66388,65.4450294 C12.8171782,65.3926583 13.1703709,64.3922172 13.6544618,63.7406598 C14.1145418,63.1214491 14.1478473,62.5769442 14.6489782,62.03552 C15.2825564,61.353156 17.10816,61.0897604 17.6340764,60.3319205 C17.8904509,59.9607022 17.5395818,59.0603822 17.6340764,58.6275509 C17.8137709,57.8019367 18.29244,57.5893718 18.6285927,56.9231812 C19.2621709,56.8207496 19.9941164,57.0571895 20.6191745,56.9231812 C23.4431673,56.3178335 25.2563782,52.7866384 27.5815636,52.6626422 C27.5443855,52.6641826 28.4149745,54.0065758 28.57608,52.6626422 C27.86892,50.4499653 29.4296291,49.8492386 30.5658873,49.2531328 C30.99576,49.0290155 32.1676473,48.4359904 32.5564691,48.4013331 C32.5758327,48.3990226 32.5177418,49.2138545 32.5564691,49.2531328 C33.6129491,50.3613967 38.4476618,47.7690296 37.5306,50.1057027 C38.8581709,51.3217893 43.1661927,51.3217893 44.4937636,50.1057027 C44.6207891,51.3048457 46.1203091,50.7626513 47.4780873,50.9582726 C49.1511055,51.1985633 50.61732,50.9166838 51.4584764,51.8100723 C52.9115236,51.0668655 55.3095164,51.1338697 54.4420255,48.4013331 C56.9128255,48.52918 58.5703527,47.9608001 59.4153818,46.6969634 C59.6748545,42.941651 66.7782109,45.0495858 69.3651927,43.2882242 C69.6959236,43.2766717 70.0289782,43.3036274 70.3589345,43.2882242 C71.4851236,43.2373934 70.8290836,42.6851869 71.3542255,42.4356543 C73.5492873,41.3913139 76.4739709,41.2719387 78.3173891,40.7320548 L85.2821018,40.7320548 C86.2897855,40.9569423 85.9350436,40.2476226 86.2758436,39.8794849 C87.0287018,39.0692739 86.7436691,39.2756775 88.2664255,39.0276852 C89.6714509,38.7974066 92.0005091,39.0068908 92.2444909,39.8794849 C93.5449527,41.0070028 97.5114,40.0650941 98.2146873,38.1751153 C98.4292364,37.3772269 99.0527455,37.3525817 100.204495,37.3225454 C102.488629,37.2655534 105.873393,38.9737738 108.162175,39.0276852 C112.254873,39.1239555 111.471033,35.0451748 115.126887,34.766376 C118.290131,34.0778507 119.874076,35.5065022 121.09476,35.6189459 C122.106316,35.7129057 122.267422,34.766376 123.083793,34.766376 C122.794887,34.766376 123.68484,35.534228 124.079858,35.6189459 C124.564724,35.7221477 125.575505,35.6967323 126.068891,35.6189459 C127.001444,35.4718449 126.669164,34.9119367 127.064182,34.766376 C129.334375,33.9330602 131.09724,35.2461873 131.043796,33.0627765 C133.587404,31.965295 135.828164,31.8335972 138.006185,30.505837 C138.169615,30.406486 137.862895,29.7772633 138.006185,29.6532671 C138.346211,29.3629158 139.620338,29.9174329 139.995993,29.6532671 C140.333695,29.4175974 139.697018,28.230777 139.995993,27.9488975 C141.136124,26.8760611 142.9656,26.7859521 142.981091,25.3927281 C144.156851,24.9791508 145.236567,24.4839364 145.966189,23.6883585 C148.853695,23.6729552 148.450931,25.0731107 149.945029,25.3927281 C151.223029,25.666906 152.052567,26.0573784 152.928578,26.245298 C154.002873,26.4748064 154.497033,25.7539343 154.918385,25.3927281 C155.582171,24.8243482 158.08008,25.8278699 158.898,25.3927281 C161.192204,25.1324132 160.003276,27.8549377 161.883098,27.9488975 C162.104618,27.288098 161.910207,26.2684029 162.878389,26.245298 C162.874516,25.7716481 163.682367,25.2779739 163.872131,26.245298 C165.360807,26.0997373 167.543476,26.548742 167.850971,25.3927281 C168.454342,23.7869393 170.056102,23.2817127 170.835295,22.8357886 C172.634564,21.8099321 172.72596,21.3809516 173.821167,20.2803894 C174.307582,19.7897959 174.354829,19.0581415 174.815684,18.5752496 C175.045724,18.3341887 176.448425,18.7084877 176.805491,18.5752496 C177.849578,18.1870877 179.018367,17.9491075 179.789815,17.7234498 C181.307924,17.2790661 182.229633,17.0156705 183.768655,16.87088 C185.249585,16.7322507 185.842113,17.6679981 186.752978,17.7234498 C188.399662,17.8228008 189.232298,17.193578 190.732593,16.87088 C191.569102,16.6906619 191.38476,16.1446167 191.727884,16.0183101 C192.571364,15.7087047 193.853236,16.3017299 194.711433,16.0183101 C195.980138,15.600882 195.939087,15.1125989 196.70124,14.3139404 C196.944447,14.0597868 198.327785,14.4725939 198.691047,14.3139404 C198.759207,14.2846742 198.925735,14.1098474 199.121695,13.9211575 L223.165909,12.2522154 C223.302229,12.3600381 223.437,12.4709415 223.561702,12.610341 C227.316698,13.6546813 230.177095,15.4661035 235.499771,15.1665103 C240.283364,14.4772149 239.092887,18.9056493 244.453516,17.7234498 C246.9948,17.0718924 249.026433,16.468085 250.421389,18.5752496 C251.538284,18.6615078 251.97048,17.3368283 252.411971,18.5752496 C256.592967,19.3122951 259.142771,17.686482 261.364942,17.7234498 C261.038084,17.7180587 262.034924,18.4905317 262.360233,18.5752496 C263.229273,18.800137 264.437564,18.4874511 265.343782,18.5752496 C265.398,18.5806407 265.292662,19.3723678 265.343782,19.4278195 C265.879767,20.0000502 266.525738,18.5498342 266.339073,18.5752496 C270.062313,18.0715633 271.019651,19.3608153 273.303011,19.4278195 C275.055033,19.47788 276.398869,18.5606165 277.282625,18.5752496 C280.791316,18.6368626 284.15052,19.799808 287.230113,19.4278195 C292.383938,18.8055282 296.270607,14.9770503 302.15328,16.0183101 C303.390229,15.5816279 304.071055,14.923139 305.137604,14.3139404 C305.668942,14.0112666 305.768858,13.6947298 306.13212,13.4621407 C306.291676,13.3589389 306.000447,12.7474299 306.13212,12.610341 C306.382298,12.3484857 307.757116,12.7836275 308.121927,12.610341 C308.268316,12.5402562 307.998,11.8632833 308.121927,11.7585412 C308.619185,11.3318712 310.302273,11.9225858 310.11096,10.9059713 C315.757396,10.345293 320.872495,9.33021883 325.033353,7.49723205 C326.777629,8.27586635 329.997415,7.79066397 331.002,9.20160169 C333.915065,9.42340849 334.059131,7.27388493 336.971422,7.49723205 C337.248709,9.24781144 339.628113,9.19775087 340.951036,10.0534014 C341.080385,11.5059279 343.427258,10.5840434 344.929876,10.9059713 C345.368269,10.9999311 346.091695,11.7801058 345.924393,11.7585412 C347.802665,12.0126948 350.384225,11.6984685 351.893815,11.7585412 C353.583098,11.824005 355.074873,12.8152042 355.872655,11.7585412 C355.160847,14.0721094 360.564076,11.1478023 359.851495,13.4621407 C361.705756,13.5799756 363.176618,14.022819 363.831884,15.1665103 C366.183404,14.3570695 368.833124,12.5856958 369.800531,11.7585412 C370.455796,11.1963226 369.683575,11.245613 370.795047,10.9059713 C372.169091,10.4854626 374.552367,11.4173592 374.773887,10.0534014 C374.830429,9.53277157 374.923375,9.04448854 375.769178,9.20160169 L386.711956,9.20160169 C388.540658,10.9883787 389.460818,9.15539194 390.690796,9.20160169 C392.795236,9.28092843 393.827705,10.1573734 395.665702,10.0534014 C396.874767,9.98562712 399.424571,9.45421499 400.639833,9.20160169 C400.718836,9.18542827 400.574771,8.41834642 400.639833,8.34980195 C400.811007,8.16958392 402.325244,8.38599959 402.62964,8.34980195 C409.138145,7.55268376 413.207607,7.41251418 417.551258,9.20160169 C418.801375,8.01863207 420.646342,8.71716947 422.525389,8.34980195 C422.965331,8.26354375 423.246491,8.12260401 426,7.97473281 L426,0.305454545 L0,0.305454545 Z" id="Fill-1" fill="#4A455C" mask="url(#mask-2)"></path>
            </g>
        </g>
    </g>
</svg>