<svg id="elements" xmlns="http://www.w3.org/2000/svg" viewBox="0 0 800 550"><title>rip-companycareers-photocallout1-mask</title><path d="M800,0V491.3c-.82-.39-1.64-.93-2.4-.37-1.09-1-2.07-.8-3.07-1.08a22.27,22.27,0,0,1-3.67-.49c-1.24-.27-2.48-.61-3.73-1-2.38.79-4.93-.73-7.48-2.15-2.39.93-5.41-2.36-8-2.47-2.85-1.14-5.87-4.7-8.47-4-1.19.46-1.51,4-3.61.56a15.41,15.41,0,0,0-2.72,3.22c-1.45,3.59-3.26,5-5.22,3.92s-3.54,1.07-5.25,1.26c-1.68.73-3.46,0-5.15-.44-1.56-1.33-3.13-3.45-4.73-3.66-1.51-1.6-3.24.89-4.8-.33s-3,2.1-4.47-.49c-.78,0-1.49,2.26-2.25,2.05-.59,2.23-1.47.36-2.07,2.1a2.87,2.87,0,0,0-2,1.07,14.49,14.49,0,0,0-1.83,2.59c-.67.39-1.25,1.48-2,1.16s-1.35,1-2.08,1.12c-1.11-.14-2.22-.33-3.25.65-1.09.08-2.15.52-3.25.27-1.13-.68-2.23-1.12-3.24-.24-1.06.24-2.16-.25-3.23-.32a7.21,7.21,0,0,0-4.06.53c-1.3.51-2.65.17-4,1.34-.67.54-1.39.45-2.2-.37-.78-.43-1.64-1.64-2.46-1.76-.8-.77-1.52-.59-2.26-.85a19.36,19.36,0,0,0-2.19-.45,12,12,0,0,0-4.32-.56c-1.51-1-2.94-.69-4.51-1.55a11.11,11.11,0,0,1-6.61-.93c-2.18.36-4.52-1.2-6.82-1.06-1.15-.51-2.18.34-3.34-.21-1.06.38-2.25-.43-3.27.3-1.13-.24-2.14.44-3.32,0-1,.57-2.19.38-3.28.68-1.11-.62-1.85.76-3.2-1.13-1.33-1.59-2.26-1.16-3.19-.72-1.13-.56-2.07-.11-3.12-.27-1,.19-1.81,1.15-3,.43-1.14-.55-2,.23-3,.9-.8,1.17-1.91,1-2.86,1.73-1,.27-1.75,2.09-2.83,2.22s-1.77,2.29-3.07,1.1a29,29,0,0,0-3.16.63,7.16,7.16,0,0,1-3.45-.4,4.14,4.14,0,0,0-3.39-.33c-1.24-.86-2,1.12-3.27-.19a24,24,0,0,0-3.21-.44c-1,.37-2.13-.25-3.16-.05-1.19-1.25-2.11.24-3.18.31-1.11-.24-2.16.46-3.27.24-2.16.39-4.27,1.49-6.49.32q-2.29,1.41-4.36,2.49a3.22,3.22,0,0,1-4.12.67,5.9,5.9,0,0,1-4-.78c-.91.68-2-1.49-2.94-1.21-.92.44-1.9-.11-2.95-1.51a4.3,4.3,0,0,0-2.53-.6c-.83.18-1.69-.23-2.49.23-.87-.51-1.75-1.12-2.61-1.55a3.87,3.87,0,0,0-2.55-.52,9.93,9.93,0,0,1-5.28-3.23,45.67,45.67,0,0,1-5.4-3.85,10.27,10.27,0,0,0-2.73-2.19c-.87-.8-1.7-.51-2.53-1.07a3.25,3.25,0,0,1-2.56,1.81,6.36,6.36,0,0,0-2.31.36,2.72,2.72,0,0,1-2-.08c-.62-.47-1.23-.33-1.83-.44-.91-.39-1.81-.57-2.76-.89-1.07-.85-1.92,0-3-.11-1.15-.4-1.73,2.37-2.83,3.16a29.1,29.1,0,0,1-6.2,6.14,2.78,2.78,0,0,0-2.28-.29c-.82-.23-2.18.15-3.4.2s-2.41-.08-3.81.1c-1.67,1.39-2.55-.46-4-.18-1.24-1-2.72-.8-4.07-1.23a9.46,9.46,0,0,0-3.88-1.57c-.71-.41-1.45-2.31-2.31-1.1a9.88,9.88,0,0,1-2.62.39c-.91-.2-1.88.4-2.9,1.5-1,.79-.35,3.28-2.84,2.28-.78-.66-1,.32-1,1.17.28.66-1.9-.86-.25,1.25-1.3.41,2,1.65-1.09,1.79-.35.57-.29,1.15-1.33,1.71-.69.6-4,1.34-3.79,1.88.45.64-1.8,1.41-3.27,2-1,.55-2.24.82-2.73,1.41-.72.45-1.42.87-2.11,1.26s-1.51.75-2.28,1.12a40.72,40.72,0,0,0-6.28,3.58c-1,0-1.87,0-2.71,0l-2.24-.21c-1.18-.61-4.18,1.33-4.84-.48-1.9.07-3.94.74-5.86.85-1.24,1.33-2.29.09-3.41.36-1.09.48-2.17.15-3.23.46-1-.5-1.93-.95-3,.17-1,.6-1.87.16-3,1-1,.13-2.51,2.08-3.55,2.16-1.5,2-2.7,2.93-3.77,2.33a32.73,32.73,0,0,0-3.17,2.13,7.58,7.58,0,0,1-2.31,1c-1.58.7-2.64,0-5.62,2.09-1.56.14-2.93,1.32-5.31.33,1.35,1.54-1.9-.09-.12,1.63-.53.35-1.8-.2-2.63.69-1.15,0-2.93.87-3.85.47A14.25,14.25,0,0,0,406,523a10.13,10.13,0,0,0-3.56,1.56c-2.3.33-3.34,2.55-5.39,3-.7.41-3.49-.29-3.78.38-1.66-.09-3.59-.46-3.07.61-1.86-.4-2,.13-3.05,0a4.21,4.21,0,0,0-1.56.31c-1.86-1.87,0,1.07-1.7-.19.46,1.26.1,1.62-1.32.56-.5.27-1.15.5-2.34-.54-.85.15-1.77,1-3.05-.37-1.41-2-2.73,3.86-4-.37-1.49,5.91-2.76,1-4.39-1.47-1.75-1.33-2.92-.24-4,.78-1.75-1.89-2.12,1.17-3.92-2.06.08,4.33-.52,5.45-1.94,3.46-.38,1.72-1.16,1.89-3.41,6.57-.16,5.19-2.6,1.31-3.76,2.39-.94.74-1,2.7-1.51,3.51-1,.12-2.53-.62-3.68-.81-.39.91-2-.06-2.75.3.72,2.16-1.71-1.27-1.32,1a5,5,0,0,1-2-.32c1,2.9-.57,1.32-1.65.22-.61-.1-1.23-.29-1.82-.37a18.94,18.94,0,0,1-3.6-.63c-1.31-.33-2.79-1.86-4.44-1.65a11.46,11.46,0,0,1-7,0c-2.29,1-4.71.14-7.08-.27-2.33.24-4.64.6-7,0-2.41-1.67-4.58-.19-6.78-.24-2.18-.28-4.33-.56-6.48-.75a26.17,26.17,0,0,1-5.53-4.53c-1.8-3.74-3.58-1.47-5.35-3-1.88-1-3.52.25-5.3-.6-1.66.24-3.32-.63-4.87-.88-.77-.24-1.52-.47-2.27-.68s-1.5-.47-2.25-.65a26,26,0,0,1-7,2.06c-2.22,0-4.22.9-6.23.09-1.91.73-4-1.89-5.69-1-1.88-1-3.55.3-5.41-1.21a4.27,4.27,0,0,1-3.58-.49c-1.25-.76-2.41,0-3.65.05-1.08,1.44-2.82-.16-4.58.35s-3.77-.22-5.53,1.39-3.51,2-5,.49c-1-.36-2-.45-2.91-.71s-1.79-.53-2.61-.82a39,39,0,0,1-4.33-2c-3.16.76-5.87.86-8.33-.43-2.3.91-4.45-1.2-6.25-1.34-1.83-.57-3.47-1.85-5-1.72-.74.5-1.56-.83-2.36-.58a11,11,0,0,0-2.63,0c-2,1-4-.31-6.41-.63-4.39,0-3.1-2.11-8.91-1.18-1.89-.08-1-1.16-3.23-.84,1.22-1.91-1.39-.81-2.44-1-.39-.84-1.62-.25-2.2-.77-.72-.34-1.4-1.25-2.14-.91a5.58,5.58,0,0,0-2.27-1.39,5,5,0,0,1-2.32-1.77c-4.7-8.12-3.54-1.78-5.66-3.44-.67,2.88-3.64-.9-4.63,3.1-1.51,3.15-3.95,2.23-6.46,3.75-2.84-.45-5.74-1.07-8.26-.65a16.52,16.52,0,0,1-6.52-1,30,30,0,0,0-5.29-2c-1.24-2.08-4.36,1.49-6,.54-2.27.47-4.79,1.42-7.06,1.08-1-1.07-2.32.1-3.3-.46-.94-.8-2.13-.28-3.22-.26a3.09,3.09,0,0,0-3.18-.39,22.4,22.4,0,0,0-3.15-.39c-1-.87-2-1.61-3.06-1a4.09,4.09,0,0,0-3.11-1.14c-.81-.69-1.63-.61-2.51-1.69-.78-1.64-1.67-.49-2.36-1.62-.36-1.82-1.12-1.78-1.78-2.08-1,.7-.74-1.7-1.23-2.09-.28-.6.52-1.95-.91-1.54.39-.87-.79-.75-1.2-1.14.06-.67.12-1.5-2-1-1.26-.19-3.2-.07-3.34-1.17-1.7-.16-3.45-.23-4.37-1.38-1.36-.87-2.78-2.09-4.66-1-1.39-.65-3,.25-4.46.6-1.54,1.57-2.59-.2-4,.66-.64-.32-1.26-.51-1.86-.78-.56-.7-1.12-1.58-1.74-.88a5.07,5.07,0,0,0-3.25-1.35c-1.06-1.59-2.07-2.12-3-1.8-1-1.27-2.12-2.48-3.08-1.35-1.14-1-2.15,1-3.44-.1-1.25-.13-2.44,2.36-4,1.15a3.16,3.16,0,0,0-1.66-1.67c-.64-.41-1.4-.18-2.23.31-.79-1.35-1.74.29-2.69.31-.92-1.06-1.89,1.11-2.89-.39a10.34,10.34,0,0,1-2.83-.8c-.93-1.14-1.8-.33-2.64-1.31-1.55-.42-3.09-.08-4.8-1.52-1.69-1.05-3.26.62-5,.66-.85.44-1.75.39-2.61,1.25-.83,1.34-1.8.8-2.63,2.65a3.16,3.16,0,0,1-2.91-.19c-1.1-1.62-1.94.76-3,.34H0V0Z"/></svg>