<svg id="elements" preserveAspectRatio="none" xmlns="http://www.w3.org/2000/svg" viewBox="0 0 850 40"><defs><style>.cls-1{fill:#fff;}</style></defs><title>rip-scholarships-sidebar-box1</title><path class="cls-1" d="M0,0V9.44a3,3,0,0,1,1.94.46c1.59.46,3-.1,4.33.09a9.85,9.85,0,0,0,4.12.32,25.93,25.93,0,0,0,3.88.89c.43.22-.56.6,1.58.62s-.22.39,2.87.6a49,49,0,0,0,5.37,1.73,9,9,0,0,0,2.78,2.47c.72,1.8,1.64,4.69,3.51,4.72,2.14-1.13,2.73,2.13,4.23-1.13,1-.38,1.54.52,2,0,2.17-.55,3.9.13,5.55-.33a7.38,7.38,0,0,0,5.93.24c1.32.95,3.39,1.35,6.06,2.25,2.85-.15,6.48-1.28,10.2.74,3.36.59,6.34,1.23,9.38,1.8a86.14,86.14,0,0,0,9.72,1.34c2.42-.19,4.43-.28,6.2-.28a23.39,23.39,0,0,0,4.72.19c1.73-.46,3.45,1.38,5.3,1,1.61,3.16,3.59.73,5.11,2.06,2.11.6,4.33.77,6.65,1.92,2.44-.71,4.9.74,7.61,2.2,2.72,1.24,5.8.83,9.08,2.24,4.33.06,8.13-1.57,11.26-.25,3.24-.49,6-1.76,8.45-2.28s4.38-1.24,6.54-1.76a18.41,18.41,0,0,1,7.5-.33c4.5-.84,7.15-3.07,11.18-3.28,3.9,1.92,7.18,4,11.72,5.49a7,7,0,0,0,3.5-.9c.83-.35,2.07-.63,6.16-1a8.06,8.06,0,0,0,6-.36c2.23,0,5,0,7.22,1.11,6.28,1.26,7.88,4,10.42,1.49,2.06-.29,3.9.33,9.51.33a13.37,13.37,0,0,0,5.16,1.68c1.66.21,3.32-.29,4.77.7,1.51.8,3.22-2,4.53-.17,1.56-1.8,2.76.62,4.19-1,1.16,2.3,2.54.66,3.84-.44,1.17,1,2.55-1.62,3.79-2.57,2.12.07,4.25-1.47,6.22.37,2.1.7,4.32.5,6.87.36,5.7.37,8.16-.54,9.17-1.09,7.17.23,6-.16,6.9-.22,3.51.59,5.06.81,4.49.39,3.12.65,3.82.23,6.4.37,2.27-.46,4.11-.17,5.85-1.81.43-2.49,3.81-.86,5.95-1.19,1.35-.77,3.82-.62,5.54-1.1a39.75,39.75,0,0,0,6.33-.08c-.54-.64-.15-1.73,2.38-1,2.06.67,3.52-.12,3.56-1.66a25.51,25.51,0,0,0,3.45-.84,12.25,12.25,0,0,1,4-.52c1.33.16,2.73-1,4-1.73,1.28-.25,2.61-2.33,3.63-1.73,1.21.69,2.8-4.27,4-3.22,1.27-.29,2.58-1.15,3.83-1.29,2.52-.5,4.85,1.8,7.5-.52,2.44.45,5.06-1.88,7.58-2.41a4,4,0,0,1,3.77-.54c1.23.38,2.44,1.13,3.69,1.63,2.58-.1,5.09,2.93,7.91,3.26,2.7,2.34,5.7.15,8.16,2.45,1.22-.72,3.06-.12,4.57-.5A3.44,3.44,0,0,1,392.68,18c2.59-.54,4.23-1.7,6.46-2.07,2.9.45,4.56-1.1,7.07-1.14,2.52-.2,5.37-1,7.91-.48,2.48.75,4.63,1.61,7.3,1.07,1.18.15,2.51-.78,3.69-.18a6,6,0,0,1,2.92-1.1c1.42-.7,2.93-.38,4.5-.21a15.59,15.59,0,0,1,2.79.76,38.06,38.06,0,0,0,6.6,1.79c12,2.6,15.08,3.05,17.59,3.2a21,21,0,0,1,8,1.24A10.55,10.55,0,0,0,476,22.28c3.05-.11,6,1.59,8.94,2.44,2.92,1.13,5.81,4.37,8.92,2.4,2.8,2.57,5.8.06,8.28-1.13,1.59.17,3.19.28,4.82.33a35.26,35.26,0,0,1,4.93,0c1.69-.61,3.29.52,5-.48a29.84,29.84,0,0,1,5.15-.94c4-.18,7.84-.16,11.53,1.28,3.9-1.55,7.65-1.46,11.47-1.36,2.76.24,5.51.41,8.25.56s5.47.27,8.18.43,5.28,1.46,7.93,2.21c2.54,2.16,5.37.92,8.46-1.13,2.93-2.63,5.43,1.38,8.19,1.94,2.79.14,5.32,4.43,8.34,1.92,2.78.51,5.49,2,8.3.81,2.67,1.7,5.09.29,8.54,1.59a75.05,75.05,0,0,0,7.61,0c2.06,0,3.56-.13,5.52-.18,3.75.18,5.3.18,5.34-.1,1.09-.08,4.43,1,3.81.05,1.52.2,3.17.78,4.22.92a7.8,7.8,0,0,1,3.49.57c1-.52,2.71.13,4.47.45s3.94,1.83,6.46.62a15,15,0,0,0,8.52,1.18c2.43-.67,4.46-1.29,6.15-.51a16.29,16.29,0,0,1,4.76-1c1.46-.32,2.81-.22,4.32-1.09,2.75-.16,5.7.33,9-2.1a24.68,24.68,0,0,1,4.88-.84A11.39,11.39,0,0,0,695,29.34c2.3-1.11,4.42-2.86,6.16-1.05,1.92-.73,3.5,1.55,5.31.15,1.7.17,3.42-.26,5.14.37,1.75.13,3.49,1.68,5.63-.28a19.13,19.13,0,0,1,10.55,2.23,18.68,18.68,0,0,0,9.79.27c2.09-.44,4.23.53,6.44-.26,1-.32,2.19-.22,3.37-1s2.51-.05,3.9-1.66c2,1,4.11.3,6.25.49,2-.36,4.44.71,6.49.05,2.26-1.4,4.69.59,7,.2,3,3.08,5.66,1.19,8.49.35,3.58.93,8.3,2.58,9.55,2.32,1.57.15,5.82,1.39,6.76,1.2,1.64.83,2.15,1.43,3.08.5.61,1.3,2.12.23,3-.23a10.09,10.09,0,0,0,4.5-1c2.91-.13,4.45-.72,5.4-1.38,2.36.09,2.61-1.06,4.92-.61a3.23,3.23,0,0,1,4.33-.65c1.34-.49,3.23.82,4.4,0,1.5.16,3-.28,4.47.31,2.36,1.23,4.93-1.18,7.35-1.25a25.62,25.62,0,0,1,7.14.79A15,15,0,0,1,850,27.35V0Z"/></svg>
