<svg id="elements" xmlns="http://www.w3.org/2000/svg" preserveAspectRatio="none" viewBox="0 0 580 30"><defs><style>.cls-1{fill:#f5dfd0;}</style></defs><title>rip-curriculum-coned1</title><path class="cls-1" d="M0,30H580V8a17.53,17.53,0,0,0-2.32.84,1.77,1.77,0,0,1-1.2.47c-.44-.1-.91.81-1.41.41a4.37,4.37,0,0,1-1.84.1,1.62,1.62,0,0,0-1,0,1.78,1.78,0,0,0-1.39.34c-.39.29-.73.53-1.08.84-.37.06-.78-.4-1.13.16a10.09,10.09,0,0,1-2.36.18c-.44,0-.85,0-1.28,0a7.71,7.71,0,0,1-1.4-.28c-.38-.08-.82-.35-1.19-.3-.41-.11-.8.07-1.21,0-.37.21-.8,0-1.24-.19a11.64,11.64,0,0,0-1.41-.38c-.1,0-.27-.15-.41-.24a1.59,1.59,0,0,0-.45-.11c-.35-.1-.49-.08-.74-.14a1.12,1.12,0,0,0-.62,0c-.47.11-.54,0-.87,0a7.42,7.42,0,0,1-1,0c-.32,0-.26-.21-.8-.1s-.82-.09-1.26-.1a1.19,1.19,0,0,0-.67,0c-.24.09-.55.34-.74.31a10.39,10.39,0,0,1-1.48.67c-.12-.37-.46.19-.77.65-.24.17-.52.66-.72.44-.47.08-.88-.58-1.46,0-.25,0-.51.4-.77.58-.13.35-.26.33-.39.22a1.09,1.09,0,0,0-.39.59,1,1,0,0,1-.4.35c-.13.24-.27.14-.4.39a3.14,3.14,0,0,0-.4.46,3.54,3.54,0,0,1-.41.56c-.27-.16-.55.34-.82.57a1.48,1.48,0,0,1-.83.41c-1.15-.48-2.34,0-3.56.42a4.93,4.93,0,0,1-3.86-.35,23.19,23.19,0,0,1-2.92.1c-.91.18-1.78.31-2.57.44a5.24,5.24,0,0,1-1.11.06c-.36,0-.71-.08-1.07-.06-.19-.13-.54,0-.91-.07a12.1,12.1,0,0,0-1.27.07c-.91,0-2,.09-2.76.17-.31.06-.62.05-.85.08a2.52,2.52,0,0,1-.82,0,6.06,6.06,0,0,1-1.48-.09,16.71,16.71,0,0,1-2.29-.19,7.2,7.2,0,0,0-3-.5,2.65,2.65,0,0,1-1.71.57,2.47,2.47,0,0,0-2.07.46,3.24,3.24,0,0,1-1.74.16,4.87,4.87,0,0,0-1.55.07c-1,.13-1.8.06-2.57.12a18.4,18.4,0,0,0-2.18.3,24.79,24.79,0,0,0-2.52.65,9.21,9.21,0,0,0-3,.82,23.62,23.62,0,0,1-3.26,0c-1.15.31-2.33-.23-3.44-.06a7,7,0,0,1-3.37,0,7.22,7.22,0,0,1-3.39-.63A23.28,23.28,0,0,1,479,16.67a19.16,19.16,0,0,1-2.69-.23c-.91-.11-1.84-.24-2.78-.41a4.33,4.33,0,0,1-2.77-.06,4.5,4.5,0,0,0-2.93-.34,8.11,8.11,0,0,0-3-.28,6.81,6.81,0,0,1-3.37-.73,13.45,13.45,0,0,1-2-.22,2.49,2.49,0,0,0-1.73.27,1.74,1.74,0,0,0-1.31.71,8.07,8.07,0,0,0-2.76.25,7.29,7.29,0,0,0-2.54,1,2.49,2.49,0,0,1-2.47,1.24,5.64,5.64,0,0,0-2.79.29c-1.06-.08-2.08.74-3.09.6a13.18,13.18,0,0,1-3.28.06,13.56,13.56,0,0,1-3.59-.22,10.7,10.7,0,0,0-3.52.41c-1.63-.11-3,.3-4.47.1-.74-.08-1.57-.18-2.62-.33a12.76,12.76,0,0,0-1.43-.13c-.28,0-.85-.16-1-.07a6.88,6.88,0,0,0-.94-.09,7.61,7.61,0,0,0-1.39-.1c-1-.07-1.19-.21-2.18-.33a10.77,10.77,0,0,1-1.7-.11,4.91,4.91,0,0,0-2,.13A4.38,4.38,0,0,0,413,18a8.25,8.25,0,0,0-1.5-.07,7,7,0,0,0-1.58,0c-.51,0-1,0-1.56,0a13.3,13.3,0,0,1-1.55-.11,21.28,21.28,0,0,0-3-.06,5.44,5.44,0,0,1-1.15.06c-.4,0-.81,0-1.26.08-.95.17-1.38,0-2.48.22-.93,0-1.73-.11-3.26-.09a12.31,12.31,0,0,1-2.94-.72,23.34,23.34,0,0,0-3.12.18c-1,.12-2,.43-3,.54a4.72,4.72,0,0,1-1.45.11c-.54-.35-1,.09-1.46,0s-.93.13-1.39.05a5.3,5.3,0,0,1-1.32,0,22.12,22.12,0,0,1-3.28.4,34.52,34.52,0,0,1-3.53.09c-1.2.28-2.38.23-3.49.41a8.37,8.37,0,0,1-2.3,1.18,15.08,15.08,0,0,1-4.94.17c-1.27-.08-2.54-.58-3.79.16a14.05,14.05,0,0,1-3.83.33c-1.29.14-2.61.24-4,.43-1.54-.21-2.71.35-4,.6a10.65,10.65,0,0,0-3.28.11c-1.07.12-2.24.14-3.55.38a11.93,11.93,0,0,1-3.67.37,23.93,23.93,0,0,1-2.89-.07c-.95.15-2.3.05-3,.12-.95-.16-1.62-.05-2.42-.14a7.66,7.66,0,0,0-2.53-.06c-.86.1-1.76,0-2.65.06A2.93,2.93,0,0,0,322,23a14.34,14.34,0,0,1-1.72.08h-1.63L317.13,23a14.51,14.51,0,0,0-3-.07,9.14,9.14,0,0,0-1.84,0,8.4,8.4,0,0,0-1.93-.1,17.68,17.68,0,0,0-2-.31,10.54,10.54,0,0,0-2-.12,8.6,8.6,0,0,1-1.31-.24c-.44-.07-.88-.15-1.33-.2a5.34,5.34,0,0,0-2.75.28,6.79,6.79,0,0,1-2.76.77c-.44.38-.89-.15-1.34.19-.45-.06-.89.38-1.34.36a6,6,0,0,1-1.34.48c-.45.08-.89.11-1.32.17a6.19,6.19,0,0,1-2.39-.14c-.81-.12-1.67.59-2.52.59-.89.23-1.76.72-2.58,1a2,2,0,0,1-.88.68c-.53-.12-.71.32-1.31.1a4.85,4.85,0,0,1-2.22.26c-.76-.14-1.32.05-2.1-.5-.56-.14-1.05-.06-1.57-.16a3.72,3.72,0,0,1-1.66,0,2.69,2.69,0,0,1-1.75,0,5.68,5.68,0,0,1-1.69-.21c-.55-.09-1.1-.06-1.7-.19a7.92,7.92,0,0,0-1.79.23,4,4,0,0,0-2.07.08c-.69.06-1.38.11-2.06.12a8.72,8.72,0,0,0-1.75-.19,3.77,3.77,0,0,0-1.44-.08c-.53-.22-.71,0-1.3-.16s-.79.09-1.39,0a5.44,5.44,0,0,0-1.63-.11,8.2,8.2,0,0,0-1.57,0,13.77,13.77,0,0,1-1.47,0c-.54,0-.66-.28-1.21-.27a7.76,7.76,0,0,0-1.71-.16,6,6,0,0,1-1.87.18,18.94,18.94,0,0,1-2.3-.14c-.69-.22-1.19-.5-1.79-.66s-1.26-.32-1.76-.33-1.31-.1-1.89-.08a12.65,12.65,0,0,0-1.93-.15c-.67-.08-1.32.05-1.93,0-.3.09-.57-.14-.88-.05-.28-.13-.59,0-.93.31a5.76,5.76,0,0,1-1.85.47,8,8,0,0,0-1.82.28,4.16,4.16,0,0,0-1.63.13c-.55-.16-1.37-.6-1.89-.14-.74-.15-1.32.05-2.21-.89-.55,0-1.17-.67-1.75-.95s-1.08.19-1.65-.07a3.56,3.56,0,0,0-1.71,0,4.42,4.42,0,0,0-1.92,0,4.9,4.9,0,0,0-1.91.24,7.94,7.94,0,0,0-1.8.51c-.87.81-1.2.33-1.77.42a1.78,1.78,0,0,0-1.6,0c-.5-.06-1.13.19-1.59,0a10.4,10.4,0,0,0-1.63.21c-.39-.41-1.14.31-1.62.19a8.63,8.63,0,0,1-1.6.27,2.12,2.12,0,0,1-1.49,0,6.3,6.3,0,0,0-1.4-.32c-.46,0-.94-.48-1.44-.34-.5,0-1-.14-1.56-.14a6,6,0,0,1-1.58,0,1.69,1.69,0,0,1-1.41,0,7.23,7.23,0,0,1-1.31,0c-.17,0-.47-.06-.57,0s-.47-.05-.84-.16c-.73-.14-.88-.05-1.51-.15a10.16,10.16,0,0,1-1.56-.16,2.87,2.87,0,0,0-1.39-.15c-.26.16-.86-.11-1.3-.2-.29-.29-.81-.21-1.24-.18s-.79,0-1-.34c-.18-.16,0-.42-.51-.52a3,3,0,0,0-1.79-.48c-.58-.21-1-.11-1.54-.55a1.82,1.82,0,0,1-1.16-.22l-2.07-.09a13,13,0,0,1-1.65,0,13.46,13.46,0,0,1-1.79-.12c-.84-.81-1.81-.27-2.82-.12-1-.1-2.06.64-3.05.78a2.85,2.85,0,0,1-2.68-.86c-.5-.19-1,.23-1.48,0-.5.23-.95-.52-1.45-.09a5.73,5.73,0,0,1-1.43-.08,2.07,2.07,0,0,0-1.45,0,1.78,1.78,0,0,0-1.53.19c-.53.12-1.11.35-1.67.44a1.78,1.78,0,0,0-1.59,0,4.41,4.41,0,0,1-1.65.09,3.89,3.89,0,0,0-1.59-.11c-.51-.05-.95.3-1.47-.15-.48-.17-.84,0-1.37-.25s-1.26-.41-1.55-.19a5.24,5.24,0,0,0-1.62.27c-.93-.31-.86.91-1.75.71-.46.43-1.23.17-1.68.51a1.72,1.72,0,0,0-1.57.2,1.48,1.48,0,0,1-1.58,0,3.1,3.1,0,0,0-1.58-.19,8.24,8.24,0,0,1-1.83.26,5.79,5.79,0,0,1-1.81,0c-1.19.14-2.37-.09-3.54,0-1.16-.19-2.3-.22-3.43-.34a29.23,29.23,0,0,1-3.34-.73A26.78,26.78,0,0,1,122,19.78c-2.77.39-5.17-1.33-8-.66a28.62,28.62,0,0,1-7.58-.64c-5.12.74-5-.43-8.44-.23-1.54.09-2.86.11-4.07.08a15.21,15.21,0,0,1-3.5-.24c-1.08.17-1.81-.18-3.08.26-1,0-2,.16-2.95.15a8.73,8.73,0,0,0-2.7,0,1.64,1.64,0,0,1-1.85-.18c-.58-.13-1-.64-1.69-.46-.33-.85-1.11-.4-1.58-1-.21-.52-.48-.8-.81-.72a4.06,4.06,0,0,0-.91-.17c-.37-.43-.64,0-1-.08-.33.1-.79-.19-1,.1a11.19,11.19,0,0,0-2,.23c-.67,0-1.27.05-1.89,0a5,5,0,0,1-1.74.06,12.89,12.89,0,0,0-1.68.12,5.12,5.12,0,0,1-1.7-.05,4.75,4.75,0,0,1-1.68.06,7,7,0,0,1-1.65,0,11.17,11.17,0,0,0-3.14.48c-1,.24-2,.54-3,.83-1.94-1-3.77,1-5.91.84-.81,1.38-2.68,1.22-4.56,1.14a8.28,8.28,0,0,0-2.42.1c-1.64-.22-2.14.21-3.23.26a4.15,4.15,0,0,1-2.44.74,6.28,6.28,0,0,1-3.21.56,3.66,3.66,0,0,0-1.65,0,9.7,9.7,0,0,1-1.52.34,2.46,2.46,0,0,1-1.36.45c-.46.07-.8.32-1.38.17-.2.42-1,0-1.46,0a2,2,0,0,1-1.51-.19,5.59,5.59,0,0,0-3.67-.1c-.59,0-1.17.07-1.74.08s-1.12.08-1.68,0c-.53.42-1.09-.12-1.61,0A6.08,6.08,0,0,0,13.52,22a8,8,0,0,1-2.14-.16,2,2,0,0,1-1.93-.26c-.6,0-1.18-.28-1.73-.29S6.65,21,6.16,21.22c-.5,0-1,.09-1.41,0a2,2,0,0,0-1.24.21,12.57,12.57,0,0,0-2.62.44c-.59.15-.89.26-.89.18V30Z"/></svg>