<svg id="elements" xmlns="http://www.w3.org/2000/svg" preserveAspectRatio="none" viewBox="0 0 580 30"><defs><style>.cls-1{fill:#f5dfd0;}</style></defs><title>rip-curriculum-coned2</title><path class="cls-1" d="M573.52,20.85c-1.62.4-3.39,1.36-6.24,1.51-.92.05-5.25-.34-6.62-.34-4.56,0-11.34,1-17,1.63-.88.1-.65-1.28-2.07-1.26-1.91,0-4.71,1.36-8.29,1-4,.16-12.37-2.05-13.74-.46-4.48.22-5.94,1.95-11.17,2a4.8,4.8,0,0,0-1.14.52c-.06,0-2,.69-2.07.69-.91.05-2.06-.39-3-.34s-3-.19-5.32-.06c-1.66.1-1.6-.3-3.23-.29a8.37,8.37,0,0,0-2.42.06c-.05,0-1.28.29-1.34.29-2.26.06-5.88-.39-8.21.17-.55.13.08.4-1,.39a23.64,23.64,0,0,0-2.9.3c-.89.05-1.94-.19-2.82-.11-.29,0-.11.4-1,.38a37,37,0,0,0-3.77-.15c-.33,0-.08.4-1,.38-.77,0-1,.44-2,.35a19,19,0,0,0-5.5-1.08c.2,0-.49.39-1,.38-1.53,0-1.65.27-2.89.31-1.53.05-3.2-.29-4.71-.19-.19,0-.18.4-1,.38-1.33,0-2.65-.23-2.89.31a5.47,5.47,0,0,1-3.05,1.16c-2-.83-7-.49-9.26-1.24a79.91,79.91,0,0,0-8.39-.78c.36-.43-.47-.32-.87-.46-.77-.28-.91-.64-1.74-.94s-3.53-1.32-4.34-2.32c-4.25.43-5.86-.44-11.29-.47-.4-.93-2.75-1.15-4.48-1.48s-4.12-.38-5.57-.66c-.15,0-.23-.36-.87-.46s-1.33,0-1.88-.08c-.32-.06.06-.41-.87-.47a20.4,20.4,0,0,1-5.5-1.08c-.21.55-1.82.2-2.9.31-.79.07-1,.29-1.95.34-1.81.11-3.49-.31-4.78.23-3.95-1.06-7.81-1.15-14-1a18.06,18.06,0,0,0-1.88-.08c-.06,0,0,.42-.07.43-1.17.08-3.63.24-4.78.23-1.74,0-2.64-.5-4.63-.62-1.16-.07-2.18.81-3.76-.16l-10.35-.43c-.79-.11-.92.13-1,.39-.33.67-2.5.11-3.84.27-1.08.12-.34.13-1,.38a32.6,32.6,0,0,1-5.94,1.48c-.52-.6-1.87-.88-3.62-1,.87-1.13-4.48.12-3.61-1-.85.49-2.17-.06-3.77-.16-1.42-.09-3.89,0-5.64-.23.15,0-.46-.41-.87-.47-1.39-.22-3.69.15-3.69-.58-1.18-.48-3.43-.55-3.54-1.44-2.74-.22-3.06.85-5.8.62-.82-.75-3.91-.63-5.49-1.09a87.07,87.07,0,0,1-14.41,1.12c.1.52-1.45.16-1.95.35-.13.05.07.4-.07.43-.36.07-1.63-.2-1.89-.08s.09.38-.07.42a9.06,9.06,0,0,1-1,.39,25.27,25.27,0,0,1-3,.74c-5.47-.76-9.48,1-14.4,1.11-2.95.07-6-.65-9.34-.81-.83-.05-2.18.36-3.83.27-2.16-.13-2.95-.81-6.52-.7.18,0-.55.69-1,.38,0,0,.12-.42.07-.42-.85-.08-2,0-2.82-.12-.3-.06-1.18-.48-.87-.47-2.1-.1-4.65.61-8.54.08-.31-.64-.83,0-1.88-.08-1.14-1.11-3.11-.89-5.57-.66-5.17.38-3.67-1.79-8.25-1.63-5.06-.06-7.61-1.08-11.07-1.75-2.16-1.52-7.12.27-10.35-.43-.23-.05.11-.67-.87-.47-1.83.06-3.74-.67-5.57-.66a14.55,14.55,0,0,0-3.91.7c-.65.14-1.27.18-1.95.35-.37.08-.89.36-1,.38-.35.07-1.63-.19-1.88-.07a4.53,4.53,0,0,1-2,.77c-.83.11-2-.24-2.82-.12-.33.05-.21.33-1,.39a22.85,22.85,0,0,1-3.84.27c-.86-.06-1.34-.56-2.75-.54a30.82,30.82,0,0,0-3.83.27c-.75.08-1.88.15-2.9.3-.35.06-1.64-.19-1.88-.07-.48.22-.58.58-1.09.81a11.58,11.58,0,0,1-3,1.16c-.77.19-2.33.38-3,1.16-.39.57-2.41.26-3.83.27-.1-.49-.91-.27-.94,0-.92,0-.83.49-1.09.82-1.77-.12-.41-1.44-2.61-1.4-.81.19-3.08-.41-3.76-.16a3.07,3.07,0,0,1-1.95.35c-.82-.13-1.57-.35-2.75-.54-1.39-.22-.89-.9-3.62-1a10.49,10.49,0,0,1-3,.73c-.13.7-1.87.67-3,1.17-.31.13.19.74-.14.85s-1.54-.21-1.89-.08c-.14.06.09.38-.07.43-2.17.58-4.3.55-6.8,1-.14,1.1-1.69.37-3.91.7-.39.05-.12.35-1,.38a13,13,0,0,1-1.88-.07c-.36-.06-1.14-.48-.87-.47-.77,0-1,.44-2,.35-1.14-.11-2.52-.88-5.57-.66-3.48,0-3.09,2.07-7,1.86-2.16-.12-5.22-1.11-7.38-1.17-1.09,0-1.68,0-2,.35-.82.92-4.65,1.23-5.79.62-.15-.45-2.34-.65-3.69-.59s-1.17,0-2,.35c-.35.17-.08.54-1,.39L58,21.69c-1.79.2-4.57.15-6.73.58-.52.11.05.41-1,.39l-.94,0c-2.6.78-9.14-.55-9.71,1.32-.9.59-2.52.81-4.84.65C35.3,26,33,25.87,31.6,26.18c-.72-.48-2.13-.4-3.69-.58-1.27-.15-2.73.06-2.75-.55-1.36.56-5.43.39-6.58-.27,1.06-1.13-3.73,0-4.63-.62,0,0,.09-.43.07-.43a15,15,0,0,0-2,.35c-1.12.25-2.65.49-2.17,1.63-.27.66-1,0-.94,0-2.21,0-4.23,1.66-6.95,1.85-.6.05-1.27-.1-1.88-.07L0,27.53V30H580V23.67l-.32,0C578,23.46,575.9,20.26,573.52,20.85Z"/></svg>