<svg id="elements" xmlns="http://www.w3.org/2000/svg" preserveAspectRatio="none" viewBox="0 0 1160 60"><defs><style>.cls-1{fill:#fff;}</style></defs><title>rip-curriculum-coursepanel3</title><path class="cls-1" d="M0,0V11.24c1.92.54,3.46,1.39,5.31,1.46,2.37,4.16,6.81,2.3,9.3,2.61,3.54-2.21,7-3.17,11.09-1.18,2.26.42,4.39.14,6.81,1.38,2.72,4.52,3.56-.83,5.7.92,1.93-.72,4.74,3.48,7.07.81,1.62-.78,4.15-2,6.93-1,4.21-.81,9.37.57,13.21,1.75,1,.39,4.33-.25,5,.69,1.9.56,3.78-.2,5.47,0A11.8,11.8,0,0,0,81,19a27.64,27.64,0,0,0,4.69,1.07c.48.27-.87.78,1.83.76,2.72.16-.37.5,3.49.71a49.41,49.41,0,0,0,6.36,2.12c.51.49,0,.88,2.89,3.13.45,2.32.87,6,3.23,6,3-1.51,2.91,2.69,5.66-1.56,1.36-.51,1.81.64,2.5,0,2.89-.76,4.91.08,7.12-.55a8.92,8.92,0,0,0,7.45.19c1.43,1.2,3.94,1.67,7.09,2.78,3.66-.26,8.54-1.8,12.73.73,4.11.68,7.73,1.46,11.43,2.13a100,100,0,0,0,12,1.52c3.12-.31,5.69-.46,7.93-.5s4,.48,5.94.14c2.3-.63,4,1.71,6.46,1.17,1.23,4,4.35.87,5.94,2.55,2.52.72,5.28.9,7.92,2.34,3.28-1,6,.84,9.09,2.67,3.12,1.55,7.13,1,10.93,2.71,5.46,0,10.7-2.21,14.32-.58,4.23-.69,8.09-2.39,11.29-3.12s5.87-1.7,8.73-2.43a23.8,23.8,0,0,1,9.6-.59c5.91-1.18,9.84-4.12,15-4.48,4.44,2.41,8.07,5,13.43,6.85a10.36,10.36,0,0,0,4.67-1.24c1.15-.47,2.78-.86,8.06-1.45,2.32.62,4.16.82,7.7-.6,2.82,0,6.31-.15,8.87,1.27,7.63,1.5,9,5,12.81,1.7,2.69-.41,4.86.35,12,.23a13.7,13.7,0,0,0,6.1,2c2.05.25,4.28-.44,5.86.81,1.71,1,4.61-2.71,5.78-.32,2.44-2.36,3.35.74,5.57-1.37.88,2.94,3,.8,5-.65,1.23,1.22,3.64-2.15,5.46-3.41,2.66,0,5.75-2,7.78.34,2.48.86,5.35.56,8.61.32,7.13.35,10.48-.88,11.9-1.61,9,.14,7.63-.34,8.8-.44,4.29.69,6.2.94,5.59.41,3.78.77,4.77.21,8,.34,3-.64,5.25-.31,7.88-2.47,1.18-3.22,5-1.19,7.83-1.67,1.92-1,5-.89,7.31-1.54a49.63,49.63,0,0,0,8-.24c-.53-.82.26-2.23,3.26-1.28,2.44.82,4.48-.24,4.93-2.22a37.39,37.39,0,0,0,4.59-1.17,16.63,16.63,0,0,1,5.22-.76c1.64.18,3.72-1.3,5.58-2.33,1.68-.35,3.91-3.06,5-2.3,1.35.86,4.64-5.59,5.87-4.26,1.68-.41,3.55-1.55,5.17-1.75,3.33-.7,5.69,2.22,9.64-.83,3,.52,6.89-2.55,10.22-3.3a5.45,5.45,0,0,1,4.92-.78c1.45.47,2.8,1.42,4.26,2,3.29-.19,5.68,3.68,9.18,4.05,2.81,3,7.18.06,9.7,3,1.74-1,3.91-.21,5.92-.74.94-.83,2.35-2.18,4.23-1.91,3.42-.77,5.79-2.29,8.71-2.83,3.57.52,6.07-1.51,9.26-1.63,3.24-.31,7-1.34,10.14-.79,3,.92,5.45,2,9,1.23,1.46.17,3.38-1.07,4.72-.31,1.46-1.15,2.71-1.13,4-1.49,2-.94,3.81-.56,5.75-.38a16.88,16.88,0,0,1,3.34.93,39.74,39.74,0,0,0,7.9,2.17c14.54,3.11,18.32,3.62,21.46,3.76a23.62,23.62,0,0,1,9.82,1.43c2.92,2.1,6.36,2.6,10.4,1.58,3.89-.2,7.17,1.93,10.71,3,3.4,1.4,6.24,5.52,10.68,2.9,2.88,3.27,7.32,0,10.78-1.64,2,.19,4,.3,6,.33a45.36,45.36,0,0,1,6.26-.17c2.3-.82,4,.61,6.5-.72a43.31,43.31,0,0,1,6.77-1.34c5.12-.32,10-.37,14.29,1.41,5.34-2.09,10.06-2.05,14.88-2,3.43.25,6.87.41,10.3.54s6.86.24,10.26.38,6.31,1.78,9.47,2.69c2.67,2.74,6.57,1.08,11-1.65,4.38-3.45,6.52,1.68,9.87,2.34,3.5.12,5.6,5.61,10.07,2.3,3.39.6,6.45,2.45,10.31.86,2.94,2.15,6.37.27,10.41,1.88a90,90,0,0,0,9.63-.12c2.62-.1,4.54-.24,7-.34,4.72.14,6.68.11,6.79-.25,1.41-.14,5.35,1.24,4.82,0,1.87.23,3.82.93,5.11,1.1a8.84,8.84,0,0,1,4.28.65c1.43-.69,3.4.12,5.54.48s4.53,2.29,8,.66A17.33,17.33,0,0,0,898.09,39c3.25-.92,6-1.78,7.92-.81a23.62,23.62,0,0,1,6.29-1.4c1.93-.44,3.62-.34,5.76-1.51,3.52-.26,7.13.3,12-2.91a33.92,33.92,0,0,1,6.4-1.19,17.29,17.29,0,0,0,7-2.4c3.2-1.49,6.33-3.79,8.07-1.49,2.62-1,4,1.92,6.69.08,2.12.18,4.4-.42,6.42.36,2.19.13,4,2.09,7.21-.49,5-.29,9.1.39,12.79,2.66,5,1.47,8.47.91,12.33.13,2.76-.61,5.23.6,8.22-.46,1.41-.44,2.84-.33,4.53-1.36s3.19-.12,5.37-2.23c2.31,1.27,5.13.3,7.79.49,2.68-.5,5.44.82,8.2-.07,3.23-1.87,5.8.66,8.8.11,3.06,3.91,6.87,1.41,10.66.27,4.3,1.12,9.86,3.15,11.51,2.79,2,.16,7,1.67,8.26,1.4,1.85,1,2.35,1.8,3.76.58.45,1.67,2.63.25,3.89-.36a14.36,14.36,0,0,0,6-1.38c3.72-.24,5.83-1,7.2-1.91,3,.07,3.58-1.43,6.39-.89,1.38-1.17,3.45-2.47,5.66-.94,1.81-.66,3.87,1,5.56,0,1.85.17,3.84-.42,5.58.3,2.67,1.54,6.54-1.62,9.63-1.77a29.35,29.35,0,0,1,8.85.87c7.25-3.94,11.8-2.32,18-3.87a51.92,51.92,0,0,0,9.31-1.45V0Z"/></svg>