<svg id="elements" preserveAspectRatio="none" xmlns="http://www.w3.org/2000/svg" viewBox="0 0 1260 70"><defs><style>.cls-1{fill:#fff;}</style></defs><title>rip-campustour</title><path class="cls-1" d="M1255.89,8.75c-.59.52-1.19,1-1.93.83s-1.2,2.06-2.15.77a6.59,6.59,0,0,1-3,.3,2.46,2.46,0,0,0-1.6.24A3.18,3.18,0,0,0,1245,12a15.37,15.37,0,0,0-1.87,2.81c-.66.38-1.39-.93-1.93,1.16-.85,1.67-2.3,1.4-3.37,2.28-.65.22-1.08.69-1.68.95s-1.6,0-2.44.16c-.66.09-1.7-.14-2.07.45-.66.27-.8,1.22-1.42,1.57-.08.93-.9,1.11-1.72,1.32s-1.63.7-2.31,1a2.53,2.53,0,0,1-.82.11,7.21,7.21,0,0,0-.83.2c-.65.1-.89.18-1.38.24a9.06,9.06,0,0,0-1.16.15,7.13,7.13,0,0,1-1.64.09,15,15,0,0,1-1.67-.08,7.27,7.27,0,0,0-1.35-.2c-.86,0-1.62-.11-2.45-.15a4,4,0,0,0-1.16-.1c-.36,0-.82.25-1.12.17a18.44,18.44,0,0,1-2.3.39c-.59-.29-.58.08-.53.28-.38.07-1.08.47-1.39.36-.48.39-2.27-.1-2.87.6-.52,0-.11.2-.23.25.28.05,0,.06-.48.06a.87.87,0,0,0-.43.19c-.43.06-.86.11-1.27.13-.56.12-.86.08-1.37.23a1.16,1.16,0,0,0-.66.28c.08.11.26.22.17.29-.8,0-.85.26-1.27.44a2.47,2.47,0,0,1-1,.5c-4.66.46-5.61,1.19-5.18,2.13-4.15,1.25-7.13,2.72-11.58,3.22a13.34,13.34,0,0,1-5.79,1.73,8.2,8.2,0,0,1-3.1,1.24,10.88,10.88,0,0,1-2.73,0c-1,0-2.85-.42-3.71-.49-1.52-.79-1.76-.49-2.72-.89a6.76,6.76,0,0,0-2.13-.46,19.58,19.58,0,0,0-3.91-.79c-.37.09-.83-.12-1.12-.1a1.83,1.83,0,0,1-1.12-.46,4.32,4.32,0,0,1-2-.85,24.49,24.49,0,0,1-3.12-.85c-1.68-1-2.94-.77-4.47-.91a3.28,3.28,0,0,1-2.5.76,2.71,2.71,0,0,0-3.07.73c-.86.77-1.92.29-2.88.2a5.37,5.37,0,0,0-2.66-.06c-1.7.21-3.11,0-4.41.32a31.15,31.15,0,0,0-3.71,1.91c-1.45-.11-2.72.66-4.19.35-2-.61-3.56.7-5.68,1.25-1.86.24-3.84.33-5.88.49-2,.88-4.07.4-5.9,1.25s-3.29,2-5.29,1.94c-1.74.43-3.37,1-5.77.29-2.21-.63-4.18-.59-6.4-2-1.45.43-3-.12-4.57-.12-1.54-.2-3-.37-4.37-.67-1.31.7-3.22.38-4.68,0a8.74,8.74,0,0,0-4.74-.58c-1.7-.51-3,.08-4.41.11a7.87,7.87,0,0,1-4.63-.15,16,16,0,0,1-3.11-.5,6.44,6.44,0,0,0-2.88-.23,4.62,4.62,0,0,0-2.43.07,27,27,0,0,0-5.29-.82,12,12,0,0,0-4.78.57c-1,1.3-2.59,1.55-4.37,1.87a18.9,18.9,0,0,0-5.19,1.58c-1.83-.14-3.14,1.44-5.62,2.54a33.59,33.59,0,0,0-6.35,2.88c-2,2.09-4.23.51-6.31-.6-2.14-.46-4.12-1.62-6.41,0-2.58-2.29-5.26-1-7.44-2.81a6.88,6.88,0,0,0-3.87-.51,21.64,21.64,0,0,1-2.24,1.06c-.57.07-1.61-.46-2-.29-.7-.28-1.23-.27-1.77-.47a8.63,8.63,0,0,0-2.39-.48c-2.09.19-2.58-.46-4.56-1.15-1.89,1.06-1.92.46-3.09,1-1.28.11-2.22-.25-4.09.39-.69-.47-2.13-.29-3.15-.44a11.75,11.75,0,0,0-2.62-.57c-.9-.09-1.4-.57-2.67-.28-.81-.11-1.63-.2-2.44-.3a9.87,9.87,0,0,1-2.25-.51c-1.47-.51-3.13-.24-4.66-.26a7.45,7.45,0,0,1-1.92.19c-.65.06-1.31.13-2,.25-1.36.34-2.18.19-3.63.63-1.39.17-2.78.24-5.12.61-1.82.16-3.63.35-6.41.43-1.68.22-3.43.82-5.25,1.22-1.66.43-3.19,1.07-4.83,1.48a8.38,8.38,0,0,1-2.42.46c-.83-.7-1.54.3-2.23.08-.64-.55-1.43.32-2,.11a3.18,3.18,0,0,1-1.85-.11A23.44,23.44,0,0,1,915.5,45c-1.5-.36-4.93,1.09-5.66.09-3.34,1.2-4.28.47-6.29.68a17.09,17.09,0,0,1-5.15,1.75c-2.16.3-4.11.22-6.37.71-1.53.56-3.42.47-4.16,1.88-1.44.46-3.31.32-6,0-2.83-.26-5.85-.5-8.76-.51-2.85-.8-5.42-.09-8.1.12A8.74,8.74,0,0,0,859.2,49c-1.91.17-4.06-.1-6.25.64a10.84,10.84,0,0,1-6.39.61,42.11,42.11,0,0,1-5.45-.57c-1.67.17-4.18-.14-5.44-.1-1.72-.3-2.87-.2-4.24-.38a15.93,15.93,0,0,0-4.11-.2c-1.31.08-2.7-.07-4,0-1-.13-2-.27-2.61.3a14.91,14.91,0,0,1-2.49.25c-.81.09-1.61.15-2.39.2s-1.58.07-2.35.12c-1.89-.57-3.22.22-4.88.81-1.22.12-2.43.27-3.08,1.13-1.51-.21-2.92-.26-3.71.39a12.76,12.76,0,0,0-4-.49c-1.19.28-2.6-.29-3.86.4a14.11,14.11,0,0,1-2.51-.11c-.82,0-1.63,0-2.45.07-1.58-.28-3.16.82-4.73,1.49a13.26,13.26,0,0,1-4.52,1.73c-.75.46-1.37,0-2.08.45-.66,0-1.38.48-2,.5a11.34,11.34,0,0,1-2,.52c-.66.09-1.3.14-1.91.21-1.17,0-2.34.31-3.44-.06-1.19-.17-2.54.85-3.82.93-1.43.43-3,1.29-4.44,1.83a6,6,0,0,1-1.83,1.21c-.84-.09-1.38.62-2.3.39-1.2.68-2.56.53-3.89.73-1.26-.08-2.3.29-3.49-.37-1-.1-1.83.11-2.72.05a8.34,8.34,0,0,1-3,.25,7.18,7.18,0,0,1-3.41.13,13.61,13.61,0,0,1-3.21-.24c-1.05-.1-2.15,0-3.25-.18a31.8,31.8,0,0,0-3.73.48,15.23,15.23,0,0,0-4,.24l-3.54.32a19.75,19.75,0,0,0-2.37.14,8.79,8.79,0,0,0-1.8.18,9.57,9.57,0,0,0-1.48.13c-.56,0-1.07.23-1.74.3a11.78,11.78,0,0,0-2,.32,18.72,18.72,0,0,0-2.32.5c-.79.2-1.55.41-2.17.54-.84.29-.66-.11-1.56.13a23.81,23.81,0,0,0-2.59.27,9,9,0,0,1-3.31.24c-4.14-.65-1.53-.4-4.31-.91a10.85,10.85,0,0,1-1.56-1.06c-1.19-.21-.91-.5-1.83-.65-1.39-.16-2.13-.43-3.51-.6a25.08,25.08,0,0,0-3-.71c-.75-.31-2.6-.53-3.12-.88-.91-.1-.16-.41-1.11-.51.14-.29-.87-.37-2.69-.3-1.49-.23-3.81-.41-4.12-.71a22.07,22.07,0,0,0-3.59-.77,15.46,15.46,0,0,0-3.5-.69c-1.27-.38-3.6-1.25-4.51-.92-1.68-.27-2.55.27-4.59-.58a9,9,0,0,1-3.65.42c-1.22-.89-1.54.07-2.81-1.16a5,5,0,0,0-2.78-.18,14.76,14.76,0,0,0-3,.09,17.6,17.6,0,0,0-3,.08,18.09,18.09,0,0,0-2.79.19c-1.07,1-1.84.14-2.73.12a3.33,3.33,0,0,0-2.62-.6c-.87-.32-1.85-.11-2.72-.6a16.45,16.45,0,0,0-2.81-.18c-.88-.81-1.93.3-2.88,0a19.2,19.2,0,0,1-2.9.32,4.65,4.65,0,0,1-2.81,0,12.69,12.69,0,0,0-2.68-.34c-.84.05-1.73-.68-2.61-.29a20.68,20.68,0,0,0-2.71.14,9.63,9.63,0,0,1-2.66.48c-.67.49-1.22,1-2.17.62a6.12,6.12,0,0,1-1.82.65c-.21.18-.64.1-.71.41s-.62.1-1.17,0c-1-.05-1.1.41-2,.43a4.53,4.53,0,0,1-2.07.4,1.57,1.57,0,0,0-2,.36c-.18.77-1.36.11-2.12,0-.86-.94-1.53-.33-2.18,0-.73,0-1.34.37-2.13-.74-.47-.43-.5-1.31-1.39-1.42a4.48,4.48,0,0,0-3.34-.69c-1-.37-1.65-.15-2.67-.94a2.61,2.61,0,0,1-1.83-.41c-1.09-.12-2.13-.27-3.17-.4a19.51,19.51,0,0,1-2.58-.32,24.59,24.59,0,0,1-3-.56c-1.89-1.47-3.24-.84-5-.85-1.9-.37-3.58.44-5.45.45A9,9,0,0,1,558.4,50c-1-.31-1.94.23-3-.14-1,.29-2-.81-2.91-.22a13.85,13.85,0,0,1-2.81-.24,5.15,5.15,0,0,0-2.84-.15,4.13,4.13,0,0,0-3,0c-1,.06-2.1.29-3.15.27a3.73,3.73,0,0,0-2.89-.46,8.33,8.33,0,0,1-2.79-.41,7.06,7.06,0,0,0-2.53-.65c-.79-.2-1.63.15-2.26-.59-.71-.33-1.36-.16-2.11-.6a3.44,3.44,0,0,0-2.44-.43,11.89,11.89,0,0,0-2.87.24c-1.38-.39-2.49,1.05-3.79.86-1.55.48-2.46.26-3.86.69a5.13,5.13,0,0,0-2.78.44c-1.33.55-1.89.46-2.3.24a3.28,3.28,0,0,0-1.89-.06,10.22,10.22,0,0,1-2.37.49,5.93,5.93,0,0,1-2.1,0c-1.35.09-2.9-.21-4.24-.18a12.8,12.8,0,0,0-3.71-.5,14.3,14.3,0,0,1-3.58-.26c-1.27-.56-2.54-1.21-3.6-1.69-5,.73-6.3-2.54-13.82-1.67-9.92-1-12.85.4-18.5-.26-9.29,2.29-10.17-2.18-15.31-.88a35.34,35.34,0,0,1-6.71.1,21.67,21.67,0,0,1-6-.66c-1.4.42-2.9-.34-4.2.59a40.54,40.54,0,0,1-4.13-.05,16.19,16.19,0,0,0-4-.42,4,4,0,0,1-2.89-.43c-.91-.19-1.61-.75-2.64-.58-.58-.89-1.71-.38-2.42-.91-.33-.53-.75-.82-1.24-.69a7.48,7.48,0,0,0-1.42-.1c-.6-.53-1,0-1.52,0-.51.16-1.27-.21-1.59.21a19.21,19.21,0,0,0-3.21.5c-1,0-1.95.18-2.91.22a4.09,4.09,0,0,1-1.57-.12c-1.54,0-3.33.19-2.84-.25a23.72,23.72,0,0,1-2.82,0,8.65,8.65,0,0,1-1.45-.12c-1.72.76,0-.44-1.57.07.43-.51.1-.66-1.21-.23a3.33,3.33,0,0,0-2.17.22,4.51,4.51,0,0,0-2.82.16c-1.3.81-2.53-1.58-3.68.15-1.37-2.42-2.55-.41-4.05.6a4.56,4.56,0,0,1-3.66-.32c-1.62.77-2-.48-3.63.84.08-1.77-.48-2.23-1.8-1.41-.35-.71-1.07-.78-3.15-2.69-.15-2.13-2.4-.54-3.47-1-.87-.3-.95-1.11-1.4-1.44-.89,0-2.34.26-3.41.34-.35-.38-1.8,0-2.54-.13.66-.88-1.58.52-1.22-.43a10.93,10.93,0,0,0-1.83.13c.88-1.18-.53-.54-1.53-.09-.56,0-1.14.12-1.68.15-1.05,0-2.16.12-3.33.26s-2.58.76-4.1.68a23.05,23.05,0,0,0-6.48,0,24.83,24.83,0,0,0-6.55.11,38.83,38.83,0,0,0-6.47,0c-2.24.68-4.25.07-6.28.1s-4,.23-6,.3a30.68,30.68,0,0,0-5.12,1.86c-1.66,1.53-3.3.6-4.94,1.21-1.74.4-3.26-.1-4.9.24a33.06,33.06,0,0,0-4.51.37l-2.09.27c-.7.1-1.39.19-2.09.27a46,46,0,0,0-6.5-.84c-2.05,0-3.9-.37-5.76,0-1.77-.3-3.65.77-5.26.4-1.74.43-3.28-.12-5,.5a8.11,8.11,0,0,0-3.3.2,11.26,11.26,0,0,1-3.38,0c-1-.59-2.6.06-4.23-.14s-3.49.08-5.12-.58a6,6,0,0,0-4.64-.19c-1,.15-1.84.18-2.69.28s-1.66.22-2.42.34c-1.51.18-2.87.62-4,.81a23.47,23.47,0,0,0-7.7.18c-2.13-.37-4.12.49-5.78.55a31.3,31.3,0,0,1-4.59.71c-.69-.21-1.45.33-2.18.23s-1.59.06-2.44,0c-1.82-.43-3.66.12-5.93.25-4.06,0-2.86.86-8.23.49-1.75,0-.91.47-3,.34,1.13.78-1.28.33-2.26.41-.35.35-1.49.11-2,.32a4.9,4.9,0,0,1-2,.37,7.85,7.85,0,0,1-2.1.57,6.13,6.13,0,0,0-2.14.72c-4.35,3.32-3.28.73-5.24,1.41-.62-1.18-3.37.37-4.28-1.27-1.39-1.29-3.65-.91-6-1.53a55.73,55.73,0,0,1-7.64.26,34,34,0,0,0-6,.42c-1.63.35-3.24.62-4.89.82-1.16.85-4-.61-5.59-.22a43.43,43.43,0,0,0-6.53-.44c-.88.44-2.14,0-3.05.19a8.66,8.66,0,0,1-3,.1,5.87,5.87,0,0,1-2.94.16c-1,.08-1.93.15-2.91.17a4.75,4.75,0,0,1-2.83.42,7.3,7.3,0,0,1-2.88.47,14.65,14.65,0,0,0-2.32.69c-.72.67-1.54.2-2.19.66-.32.75-1,.73-1.64.85-.91-.28-.68.7-1.14.86-.26.24.49.8-.84.63.37.35-.73.3-1.1.46,0,.28.1.62-1.9.43-1.17.08-3,0-3.09.48a10.92,10.92,0,0,0-4,.56,7.38,7.38,0,0,1-4.31.4,13.82,13.82,0,0,1-4.13-.25c-1.42-.64-2.39.09-3.65-.26-.59.13-1.16.2-1.72.31-.52.29-1,.65-1.61.36a8.72,8.72,0,0,1-3,.56,3.93,3.93,0,0,1-2.8.73c-1,.52-1.95,1-2.85.55-1,.4-2-.4-3.17.05-1.16,0-2.26-1-3.67-.47a3,3,0,0,1-1.53.68,4,4,0,0,1-2.06-.13c-.74.55-1.61-.12-2.49-.12-.85.43-1.75-.46-2.67.16a20.38,20.38,0,0,0-2.62.32c-.86.47-1.66.14-2.44.54a17.08,17.08,0,0,0-4.45.62c-1.56.43-3-.25-4.63-.27a12.44,12.44,0,0,1-2.42-.51c-.76-.55-1.66-.33-2.43-1.08a6.14,6.14,0,0,0-2.69.07c-1,.67-1.8-.31-2.77-.14s-1.92.09-2.88.06a15.58,15.58,0,0,1-2.82-.27,16,16,0,0,0-2.86,0,7.42,7.42,0,0,0-2.86-.06,7.67,7.67,0,0,0-3,.08A4.82,4.82,0,0,1,13.83,56a4.26,4.26,0,0,0-2.55-.75,12.34,12.34,0,0,1-2.77-.49,29,29,0,0,0-3.28-.14c-1.23-.1-2.57-.25-4.06-.45L0,54.05V70H1260V4S1257.18,8.09,1255.89,8.75Z"/></svg>
