<svg xmlns="http://www.w3.org/2000/svg" width="110" height="110" viewBox="0 0 110 110"><defs><style>.cls-1{fill:none;stroke:#105754;stroke-miterlimit:10;}.cls-2{fill:#105754;}</style></defs><title>stamp-formerlyhackeryou-outer</title><g id="OUTLINED_BOTTOM" data-name="OUTLINED BOTTOM"><path class="cls-1" d="M89.74,84.93a46.08,46.08,0,0,0,7.61-12.74"/><path class="cls-1" d="M20.55,85.27a46.07,46.07,0,0,1-7.9-13.09"/><path class="cls-2" d="M80.11,89.23l-.63-.74L84,84.64l5.64,6.6-4.33,3.7-.63-.74,3.52-3L86.32,89l-2.78,2.38-.62-.72,2.79-2.38-1.9-2.22Z"/><path class="cls-2" d="M74.67,91.22c1.8-1,3.38-.68,4.09.65l-1,.52c-.45-.83-1.43-1-2.71-.33-1,.53-1.57,1.48-1.11,2.34s1.09.85,2,.53l1.38-.43c1.47-.49,2.52-.09,3.1,1,.69,1.28,0,2.71-1.57,3.58s-3.17.69-3.93-.73l1-.52c.48.89,1.43,1,2.57.42.94-.51,1.47-1.37,1-2.2s-1-.83-2-.52L76.18,96c-1.51.5-2.58.09-3.18-1C72.26,93.56,73.07,92.08,74.67,91.22Z"/><path class="cls-2" d="M66.09,94.79l1-.28,2.12,7.4,2.85-.81.27.93L65.63,104l-.27-.93,2.85-.82Z"/><path class="cls-2" d="M61.81,97.16l-1.41.19L60.21,96l1.41-.19Z"/><path class="cls-2" d="M47.72,96.68l.11-1,5.7.63-.1.94L49.8,100c-1,.77-1.46,1.29-1.55,2a1.57,1.57,0,0,0,1.59,1.84,1.74,1.74,0,0,0,2-1.45l1.05.12a2.75,2.75,0,0,1-3.14,2.27c-1.64-.18-2.74-1.22-2.57-2.83a3.84,3.84,0,0,1,1.93-2.6L52,97.16Z"/><path class="cls-2" d="M39.31,102.48c-2.15-.72-2.77-2.8-1.92-5.35S40,93.29,42.14,94s2.75,2.79,1.9,5.34S41.44,103.19,39.31,102.48Zm-.91-5c-.69,2-.34,3.63,1.2,4.14S42.35,101.06,43,99s.35-3.62-1.19-4.13S39.08,95.42,38.4,97.46Z"/><path class="cls-2" d="M35,91l-3.72,6.62,2.25.08-.52.92-2.26-.06-.9-.51,4.25-7.56Z"/><path class="cls-2" d="M26.42,86l.63-.77,4.45,3.62-.6.73-4.53.31c-1.27.09-1.91.3-2.37.84a1.56,1.56,0,0,0,.33,2.41A1.73,1.73,0,0,0,26.79,93l.82.67a2.74,2.74,0,0,1-3.87.21c-1.28-1-1.65-2.51-.63-3.77a3.84,3.84,0,0,1,3-1.15l3.63-.22Z"/></g><g id="OUTLINED_TOP" data-name="OUTLINED TOP"><path class="cls-2" d="M7.81,66.43,10,66,9.2,62.54l1.47-.32.75,3.42,3.52-.77.38,1.71-8.65,1.9L5.4,62.68l1.51-.33Z"/><path class="cls-2" d="M9.44,59.83a4.31,4.31,0,1,1-.14-8.61,4.31,4.31,0,1,1,.14,8.61ZM9.33,53.1c-1.76,0-2.88.94-2.86,2.47S7.64,58,9.41,58s2.86-.94,2.84-2.49S11.09,53.08,9.33,53.1Z"/><path class="cls-2" d="M5.4,47.48l.86-3.88a2.81,2.81,0,0,1,3.47-2.35A2.67,2.67,0,0,1,12,43.59l3.48-.9-.42,1.93-3.22.8-.37,1.63,2.91.64L14,49.39Zm5.08-2.66a1.32,1.32,0,0,0-1.09-1.76,1.28,1.28,0,0,0-1.68,1.15l-.43,1.9,2.77.62Z"/><path class="cls-2" d="M11.41,30.27l.94-1.88,7.91,4-.77,1.55-2.93-1.47a27.11,27.11,0,0,1-2.42-1.36l4.38,4.75-.73,1.45-6.64-.78a22.56,22.56,0,0,1,2.73,1.27l2.93,1.47L16,40.79l-7.91-4,1-2,7.34.83Z"/><path class="cls-2" d="M24.45,25l1.19,1-4,4.71L14.89,25l3.89-4.61,1.19,1-2.76,3.27L18.81,26,20.9,23.5l1.16,1L20,27l1.64,1.38Z"/><path class="cls-2" d="M21.44,17.76l3.13-2.46a2.82,2.82,0,0,1,4.18.38,2.7,2.7,0,0,1,.3,3.28l3.26,1.51-1.55,1.22-3-1.43-1.31,1,1.84,2.34-1.37,1.07Zm5.62,1.16a1.31,1.31,0,0,0,.28-2.05,1.29,1.29,0,0,0-2-.18L23.77,17.9l1.76,2.23Z"/><path class="cls-2" d="M38.53,15.4l.73,1.44-5.17,2.6-4-7.9,1.57-.79,3.26,6.47Z"/><path class="cls-2" d="M36.3,8.43l2-.61,3.11,3.09,1-4.33,2-.61-1.56,6.45.91,3L42,15.93l-.91-3Z"/><path class="cls-2" d="M53.24,10.12l-.06,3.71-1.75,0L51.57,5l1.76,0-.06,3.54,3.79.06.06-3.54,1.76,0-.14,8.84-1.76,0L57,10.18Z"/><path class="cls-2" d="M66.2,13.46,63,12.71l-1.09,1.66L60.11,14l5.25-7.87L67,6.47l1.28,9.38-1.88-.43ZM66,12l-.42-3.41-1.88,2.88Z"/><path class="cls-2" d="M76.11,16.19l1.74.83a4,4,0,0,1-5.09,1,4.11,4.11,0,0,1-1.93-5.86c1.15-2.4,3.48-3.47,5.92-2.3a3.92,3.92,0,0,1,2.36,4.54l-1.75-.83A2.15,2.15,0,0,0,76,11.29c-1.38-.67-2.76,0-3.51,1.57s-.42,3.05,1,3.71A2.2,2.2,0,0,0,76.11,16.19Z"/><path class="cls-2" d="M83.45,13.75l1.36,1.09L82.2,18.12l5.53-.95,1.62,1.29-5,.83-.49,6.1L82.09,24l.36-4.45-1.58.24-1.57,2-1.37-1.09Z"/><path class="cls-2" d="M90,30.28l-1.18,1-4-4.75,6.8-5.66,3.86,4.64-1.19,1L91.56,23.2l-1.62,1.35L92,27l-1.17,1-2.07-2.5-1.64,1.37Z"/><path class="cls-2" d="M97.58,28.58l1.88,3.52a2.82,2.82,0,0,1-1.12,4,2.68,2.68,0,0,1-3.27-.29l-2.07,3-.93-1.74L94,34.37l-.79-1.48-2.63,1.4-.82-1.54Zm-2.13,5.34a1.32,1.32,0,0,0,2,.63,1.3,1.3,0,0,0,.54-2L97,30.85l-2.51,1.34Z"/><path class="cls-2" d="M101.92,37.18l.57,2-3.15,3.05,4.32,1,.57,2L97.8,43.58l-3,.86-.48-1.68,3-.86Z"/><path class="cls-2" d="M100.21,47.8A4.31,4.31,0,1,1,96,52.4,4.23,4.23,0,0,1,100.21,47.8Zm.44,6.72c1.76-.11,2.84-1.07,2.74-2.6s-1.29-2.37-3.06-2.26-2.81,1.08-2.71,2.63S98.89,54.63,100.65,54.52Z"/><path class="cls-2" d="M99.15,60.67a1.88,1.88,0,0,0-.62,3.71l5.47.92-.29,1.76-5.31-.9A3.35,3.35,0,0,1,95.47,62a3.36,3.36,0,0,1,4.15-3l5.3.9-.29,1.75Z"/></g></svg>