<svg xmlns="http://www.w3.org/2000/svg" xmlns:xlink="http://www.w3.org/1999/xlink" width="237" height="44" viewBox="0 0 237 44">
    <defs>
        <path id="379xqx0e7a" d="M0.704 0L236.704 0 236.704 44 0.704 44z"/>
    </defs>
    <g fill="none" fill-rule="evenodd">
        <g>
            <g transform="translate(-582 -1357) translate(582 1357)">
                <mask id="whpjffxdpb" fill="#fff">
                    <use xlink:href="#379xqx0e7a"/>
                </mask>
                <path fill="#EA593E" d="M234.922 17.338h-15.607c-.19 0-.358-.125-.416-.309l-1.142-3.593h-.48v-.925h.186l-1.468-4.616h-.527v-.924h.233l-1.475-4.637h-.3l-1.475 4.637h.3v.924h-.594l-1.468 4.616h.25v.925h-.543l-1.143 3.593c-.058.184-.226.31-.416.31H193.23l.99.734h.426v.316l8.146 6.049v-.824h.904v.926h-.768l1.676 1.245v-.31h.906v.926h-.075l.422.314c.153.113.217.315.159.498l-.624 1.963h.118v.926h-.413l-1.467 4.615h.066v.926h-.36l-1.474 4.637h.027v.925h-.322l-.374 1.18 5.22-3.878v-.089h.12l1.692-1.257v-.582h.786l1.26-.936h-.237v-.926h.905v.43l1.81-1.344h-.902v-.926h.905v.924l1.067-.793c.077-.057.167-.085.257-.085s.18.028.257.085l2.944 2.186v-.477h.905v.926h-.301l1.26.936h.854v.633l1.624 1.206h.184v.137l5.157 3.83-.375-1.18h-.254v-.795l-1.515-4.767h-.297v-.926h.003l-1.467-4.615h-.345v-.926h.05l-.623-1.963c-.058-.183.005-.385.158-.498l.423-.314h-.008v-.925h.906v.258l1.608-1.194h-.705v-.926h.905v.777l8.15-6.052v-.266h.358l.99-.735zm1.602-.086l-13.458 9.994 5.14 16.169c.059.184-.005.386-.158.5-.154.114-.36.114-.514 0l-13.458-9.994-13.458 9.993c-.076.057-.166.086-.256.086s-.181-.029-.257-.086c-.154-.113-.218-.315-.16-.5l5.141-16.168-13.458-9.994c-.153-.113-.217-.315-.158-.498.058-.184.225-.31.415-.31h16.635L213.66.277c.117-.368.715-.368.831 0l5.141 16.169h16.635c.189 0 .357.125.415.309.059.183-.005.385-.158.498zM197.361 19h.906v-.926h-.906V19zm1.81 1.839h.905v-.926h-.905v.926zm1.812 1.861h.905v-.925h-.905v.925zm0-3.7h.905v-.926h-.905V19zm1.809 20.344h.905v-.925h-.905v.925zm1.812-1.84h.906v-.925h-.906v.925zm0-3.7h.906v-.926h-.906v.926zm-1.812-12.965h.905v-.926h-.905v.926zm1.812 1.861h.906v-.925h-.906v.925zm0-3.7h.906v-.926h-.906V19zm1.809 16.644h.905v-.926h-.905v.926zm0-3.701h.905v-.925h-.905v.925zm1.812 1.86h.906v-.925h-.906v.926zm-1.812-5.562h.905v-.925h-.905v.925zm1.812 1.862h.906v-.926h-.906v.926zm-1.812-5.562h.905v-.926h-.905v.926zm1.812 1.861h.906v-.925h-.906v.925zm-1.812-5.563h.905v-.926h-.905v.926zm1.812 1.861h.906v-.925h-.906v.925zm0-3.7h.906v-.926h-.906V19zm1.809 12.943h.905v-.925h-.905v.925zm0-3.702h.905v-.925h-.905v.925zm1.813 1.862h.906v-.926h-.906v.926zm-1.813-5.562h.905v-.926h-.905v.926zm1.813 1.861h.906v-.925h-.906v.925zm-1.813-5.563h.905v-.926h-.905v.926zm1.813 1.861h.906v-.925h-.906v.925zm-1.813-5.562h.905v-.925h-.905v.925zM211.847 19h.906v-.926h-.906V19zm0-3.701h.906v-.926h-.906v.926zm0-3.702h.906v-.925h-.906v.925zm1.808 20.346h.905v-.925h-.905v.925zm1.813 1.86h.906v-.925h-.906v.926zm-1.813-5.562h.905v-.925h-.905v.925zm1.813 1.862h.906v-.926h-.906v.926zm-1.813-5.562h.905v-.926h-.905v.926zm1.813 1.861h.906v-.925h-.906v.925zm-1.813-5.563h.905v-.926h-.905v.926zm1.813 1.861h.906v-.925h-.906v.925zm-1.813-5.562h.905v-.925h-.905v.925zM215.468 19h.906v-.926h-.906V19zm-1.813-5.563h.905v-.925h-.905v.925zm1.813 1.862h.906v-.926h-.906v.926zm-1.813-5.562h.905V8.81h-.905v.926zm1.813 1.86h.906v-.925h-.906v.925zm-1.813-5.561h.905v-.926h-.905v.926zm3.622 25.907h.905v-.925h-.905v.925zm1.812 1.86h.906v-.925h-.906v.926zm-1.812-5.562h.905v-.925h-.905v.925zm1.812 1.862h.906v-.926h-.906v.926zm-1.812-5.562h.905v-.926h-.905v.926zm1.812 1.861h.906v-.925h-.906v.925zm-1.812-5.563h.905v-.926h-.905v.926zm1.812 1.861h.906v-.925h-.906v.925zm-1.812-5.562h.905v-.925h-.905v.925zM219.089 19h.906v-.926h-.906V19zm1.809 16.644h.905v-.926h-.905v.926zm1.812 1.861h.906v-.925h-.906v.925zm-1.812-5.562h.905v-.925h-.905v.925zm1.812 1.86h.906v-.925h-.906v.926zm-1.812-5.562h.905v-.925h-.905v.925zm0-3.7h.905v-.926h-.905v.926zm0-3.701h.905v-.926h-.905v.926zm1.812 1.86h.906v-.925h-.906v.925zm0-3.7h.906v-.926h-.906V19zm1.809 20.344h.905v-.925h-.905v.925zm0-18.504h.905v-.926h-.905v.926zm1.813 1.86h.906v-.925h-.906v.925zm0-3.7h.906v-.926h-.906V19zm1.808 1.84h.905v-.926h-.905v.926zm1.813-1.84h.906v-.926h-.906V19zm-42.717-1.66H171.63c-.144 0-.259-.087-.34-.202h-.372v-.924h.036l-1.467-4.617h-.377v-.924h.082l-1.474-4.637h-.42v-.926h.126l-1.033-3.25-.448 1.41h.452v.926h-.746l-1.467 4.615h.4v.926h-.695l-1.474 4.636h.36v.926h-.654l-.55 1.731c-.06.184-.227.31-.417.31h-15.607l1.837 1.363v-.629h.906V19h-.507l1.41 1.047v-.133h.905v.805l1.424 1.056h.39v.29l6.262 4.65c.153.114.217.316.159.499l-1.21 3.804h.218v.925h-.511l-1.475 4.637h.178v.924h-.471l-1.468 4.617h.126v.108l1.378-1.023h-.47v-.925h.905v.602l8.145-6.049v-.116h.157l1.656-1.23v-.61h.906v.047c.088 0 .177.027.253.084l7.892 5.86v-.45h.905v.925h-.265l1.26.937h.818v.606l1.66 1.234h.148v.11l.209.154-.967-3.04h-.147v-.462l-1.615-5.08h-.193v-.609l-1.575-4.953h-.238v-.75l-.088-.277c-.059-.183.005-.385.158-.498l3.551-2.637v-.464h.624l1.232-.915h-.043v-.925h.906v.285l1.644-1.221h-.742v-.925h.906v.803l4.55-3.378zm1.76-.585c.059.183-.005.385-.159.498l-13.457 9.994 5.14 16.169c.059.184-.005.386-.158.5-.154.114-.36.114-.514 0L166.39 33.92l-13.458 9.993c-.076.057-.167.086-.257.086s-.18-.029-.256-.086c-.154-.113-.218-.315-.16-.5l5.141-16.168-13.458-9.994c-.153-.113-.217-.315-.158-.498.058-.184.225-.31.415-.31h16.635l5.14-16.168c.117-.368.715-.368.831 0l5.141 16.169h16.635c.189 0 .357.125.415.309zm-37.993 2.245h.906v-.926h-.906V19zm1.808 1.839h.906v-.926h-.906v.926zm1.813 1.861h.906v-.925h-.906v.925zm0-3.7h.906v-.926h-.906V19zm1.808 20.344h.906v-.925h-.906v.925zm0-3.7h.906v-.926h-.906v.926zm1.813 1.86h.906v-.925h-.906v.925zm0-3.7h.906v-.926h-.906v.926zm0-3.701h.906v-.926h-.906v.926zm-1.813-5.562h.906v-.926h-.906v.926zm1.813 1.861h.906v-.925h-.906v.925zm-1.813-5.563h.906v-.926h-.906v.926zm1.813 1.861h.906v-.925h-.906v.925zm0-3.7h.906v-.926h-.906V19zm1.808 16.644h.906v-.926h-.906v.926zm0-3.701h.906v-.925h-.906v.925zm1.814 1.86h.906v-.925h-.906v.926zm-1.814-5.562h.906v-.925h-.906v.925zm1.814 1.862h.906v-.926h-.906v.926zm-1.814-5.562h.906v-.926h-.906v.926zm1.814 1.861h.906v-.925h-.906v.925zm-1.814-5.563h.906v-.926h-.906v.926zm1.814 1.861h.906v-.925h-.906v.925zm0-3.7h.906v-.926h-.906V19zm1.808 12.943h.906v-.925h-.906v.925zm0-3.702h.906v-.925h-.906v.925zm1.813 1.862h.906v-.926h-.906v.926zm-1.813-5.562h.906v-.926h-.906v.926zm1.813 1.861h.906v-.925h-.906v.925zm-1.813-5.563h.906v-.926h-.906v.926zm1.813 1.861h.906v-.925h-.906v.925zm-1.813-5.562h.906v-.925h-.906v.925zM165.488 19h.906v-.926h-.906V19zm-1.813-5.563h.906v-.925h-.906v.925zm1.813 1.862h.906v-.926h-.906v.926zm0-3.702h.906v-.925h-.906v.925zm0-3.7h.906V6.97h-.906v.925zm1.808 24.046h.906v-.925h-.906v.925zm1.813 1.86h.906v-.925h-.906v.926zm-1.813-5.562h.906v-.925h-.906v.925zm1.813 1.862h.906v-.926h-.906v.926zm-1.813-5.562h.906v-.926h-.906v.926zm1.813 1.861h.906v-.925h-.906v.925zm-1.813-5.563h.906v-.926h-.906v.926zm1.813 1.861h.906v-.925h-.906v.925zm-1.813-5.562h.906v-.925h-.906v.925zM169.11 19h.906v-.926h-.906V19zm-1.813-5.563h.906v-.925h-.906v.925zm1.813 1.862h.906v-.926h-.906v.926zm-1.813-5.562h.906V8.81h-.906v.926zm3.621 25.907h.906v-.926h-.906v.926zm1.813 1.861h.906v-.925h-.906v.925zm-1.813-5.562h.906v-.925h-.906v.925zm1.813 1.86h.906v-.925h-.906v.926zm-1.813-5.562h.906v-.925h-.906v.925zm1.813 1.862h.906v-.926h-.906v.926zm-1.813-5.562h.906v-.926h-.906v.926zm1.813 1.861h.906v-.925h-.906v.925zm-1.813-5.563h.906v-.926h-.906v.926zm1.813 1.861h.906v-.925h-.906v.925zm0-3.7h.906v-.926h-.906V19zm1.808 16.644h.906v-.926h-.906v.926zm1.813 1.861h.906v-.925h-.906v.925zm-1.813-5.562h.906v-.925h-.906v.925zm0-7.402h.906v-.926h-.906v.926zm0-3.701h.906v-.926h-.906v.926zm1.813 1.86h.906v-.925h-.906v.925zm0-3.7h.906v-.926h-.906V19zm1.808 1.84h.906v-.926h-.906v.926zm1.814-1.84h.906v-.926h-.906V19zm3.621 0h.906v-.926h-.906V19zm-44.044-1.66h-15.608c-.189 0-.357-.126-.415-.31l-.55-1.731h-.226v-.711l-1.543-4.851h-.27v-.85l-1.492-4.691h-.317v-.926h.023l-.448-1.41-1.033 3.25h.55v.926h-.845l-1.473 4.637h.51v.924h-.805l-1.467 4.617h.459v.924h-.796c-.08.115-.195.201-.339.201H97.858l6.786 5.039v-.603h.905v.925h-.47l1.373 1.021v-.106h.906v.778l1.458 1.084h.354v.262l1.315.977c.153.113.217.315.159.498l-.032.102h.367v.925h-.662l-1.474 4.637h.327v.926h-.621l-1.468 4.615h.277v.925h-.57l-.967 3.041 2.444-1.815v-.29h.39l1.42-1.053v-.808h.904v.135l1.414-1.05h-.506v-.924h.905v.629l5.655-4.2c.077-.057.167-.085.257-.085s.18.028.257.085l.168.126v-.257h.905v.926h-.003l1.231.914h.58v.43l8.15 6.053v-.92h.906v.925H130l1.588 1.18-1.552-4.882h-.043v-.135l-1.726-5.426h-.087v-.276l-1.416-4.453c-.058-.183.006-.385.16-.498l8.498-6.312v-.49h.66l1.232-.914h-.08v-.926h.906v.312l1.41-1.047zm1.76-.585c.059.183-.005.385-.159.498l-13.457 9.994 5.14 16.169c.059.184-.005.386-.158.5-.154.114-.36.114-.514 0l-13.458-9.994-13.458 9.993c-.077.057-.167.086-.257.086s-.18-.029-.257-.086c-.153-.113-.217-.315-.158-.5l5.14-16.168-13.458-9.994c-.153-.113-.217-.315-.158-.498.057-.184.225-.31.415-.31h16.635l5.14-16.168c.117-.368.715-.368.831 0l5.141 16.169h16.634c.19 0 .358.125.416.309zm-40.287 2.245h.905v-.926h-.905V19zm1.808 1.839h.906v-.926h-.906v.926zm1.813-1.84h.905v-.925h-.905V19zm3.62 18.505h.906v-.925h-.905v.925zm-1.812-16.665h.906v-.926h-.906v.926zm1.813 1.861h.905v-.925h-.905v.925zm0-3.7h.905v-.926h-.905V19zm1.81 16.644h.905v-.926h-.906v.926zm0-3.701h.905v-.925h-.906v.925zm1.812 1.86h.905v-.925h-.905v.926zm0-3.7h.905v-.926h-.905v.926zm-1.813-5.562h.906v-.926h-.906v.926zm1.813 1.861h.905v-.925h-.905v.925zm-1.813-5.563h.906v-.926h-.906v.926zm1.813 1.861h.905v-.925h-.905v.925zm0-3.7h.905v-.926h-.905V19zm1.808 16.644h.906v-.926h-.906v.926zm0-3.701h.906v-.925h-.906v.925zm1.813 1.86h.905v-.925h-.905v.926zm-1.813-5.562h.906v-.925h-.906v.925zm1.813 1.862h.905v-.926h-.905v.926zm-1.813-5.562h.906v-.926h-.906v.926zm1.813 1.861h.905v-.925h-.905v.925zm-1.813-5.563h.906v-.926h-.906v.926zm1.813 1.861h.905v-.925h-.905v.925zm0-3.7h.905v-.926h-.905V19zm0-3.701h.905v-.926h-.905v.926zm1.808 16.644h.906v-.925h-.906v.925zm0-3.702h.906v-.925h-.906v.925zm1.813 1.862h.905v-.926h-.905v.926zm-1.813-5.562h.906v-.926h-.906v.926zm1.813 1.861h.905v-.925h-.905v.925zm-1.813-5.563h.906v-.926h-.906v.926zm1.813 1.861h.905v-.925h-.905v.925zm-1.813-5.562h.906v-.925h-.906v.925zM119.13 19h.905v-.926h-.905V19zm-1.813-5.563h.906v-.925h-.906v.925zm1.813 1.862h.905v-.926h-.905v.926zm-1.813-5.562h.906V8.81h-.906v.926zm1.813 1.86h.905v-.925h-.905v.925zm0-3.7h.905V6.97h-.905v.925zm1.808 24.046h.906v-.925h-.906v.925zm1.814 1.86h.905v-.925h-.905v.926zm-1.814-5.562h.906v-.925h-.906v.925zm1.814 1.862h.905v-.926h-.905v.926zm-1.814-5.562h.906v-.926h-.906v.926zm1.814 1.861h.905v-.925h-.905v.925zm-1.814-5.563h.906v-.926h-.906v.926zm1.814 1.861h.905v-.925h-.905v.925zm-1.814-5.562h.906v-.925h-.906v.925zM122.751 19h.905v-.926h-.905V19zm-1.814-5.563h.906v-.925h-.906v.925zm3.621 22.207h.906v-.926h-.906v.926zm1.813 1.861h.905v-.925h-.905v.925zm-1.813-5.562h.906v-.925h-.906v.925zm1.813 1.86h.905v-.925h-.905v.926zm-1.813-5.562h.906v-.925h-.906v.925zm1.813 1.862h.905v-.926h-.905v.926zm-1.813-5.562h.906v-.926h-.906v.926zm1.813 1.861h.905v-.925h-.905v.925zm-1.813-5.562h.906v-.926h-.906v.926zm1.813 1.86h.905v-.925h-.905v.925zm0-3.7h.905v-.926h-.905V19zm1.81 20.344h.905v-.925h-.906v.925zm0-3.7h.905v-.926h-.906v.926zm0-11.103h.905v-.926h-.906v.926zm0-3.701h.905v-.926h-.906v.926zm1.812 1.86h.905v-.925h-.905v.925zm0-3.7h.905v-.926h-.905V19zm1.808 1.84h.906v-.926h-.906v.926zm1.813-1.84h.905v-.926h-.905V19zm-41.75-1.66H76.256c-.189 0-.357-.126-.415-.31l-1.143-3.593h-.12v-.377l-1.64-5.164h-.168v-.524l-1.602-5.037h-.211V2.05l-1.564 4.921h.661v.924h-.905v-.157l-1.518 4.773h.61v.925h-.903l-1.143 3.593c-.058.184-.226.31-.416.31H50.172l.99.734h.786v.584l1.692 1.256h.116V20l8.15 6.053v-.576h.906v.925h-.435l.422.314c.153.113.217.315.159.498l-.624 1.963h.478v.926h-.773l-1.467 4.615h.426v.926h-.72l-1.474 4.637h.387v.925h-.682l-.374 1.18 7.392-5.49v-.316h.426l1.383-1.027v-.835h.905v.162l1.45-1.076h-.542v-.926h.905v.656l.707-.525c.077-.057.167-.085.257-.085s.18.028.257.085l3.303 2.453v-.744h.906v.926h-.661l1.568 1.165v-.23h.906v.901l1.264.939h.544v.405l4.796 3.561-1.175-3.696v.655h-.905v-.925h.82L80.918 33v.803h-.906v-.926h.867l-1.8-5.664c-.06-.183.005-.385.158-.498l.775-.577v-.662h.894l1.26-.936h-.345v-.926h.905v.51l9.138-6.786zm1.76-.585c.059.183-.005.385-.159.498l-13.457 9.994 5.14 16.169c.059.184-.005.386-.158.5-.154.114-.361.114-.514 0L71.018 33.92 57.56 43.914c-.077.057-.167.086-.257.086s-.18-.029-.257-.086c-.153-.113-.217-.315-.158-.5l5.14-16.168-13.458-9.994c-.153-.113-.217-.315-.158-.498.057-.184.225-.31.415-.31h16.635L70.602.277c.117-.368.715-.368.831 0l5.141 16.169h16.634c.19 0 .358.125.416.309zm-38.96 2.245h.905v-.926h-.905V19zm1.808 1.839h.905v-.926h-.905v.926zm1.813 1.861h.905v-.925h-.905v.925zm0-3.7h.905v-.926h-.905V19zm1.809 20.344h.905v-.925h-.905v.925zm1.812-1.84h.906v-.925h-.906v.925zm0-3.7h.906v-.926h-.906v.926zm-1.812-9.263h.905v-.926h-.905v.926zm0-3.702h.905v-.926h-.905v.926zm1.812 1.861h.906v-.925h-.906v.925zm0-3.7h.906v-.926h-.906V19zm1.809 16.644h.905v-.926h-.905v.926zm0-3.701h.905v-.925h-.905v.925zm1.812 1.86h.906v-.925h-.906v.926zm-1.812-5.562h.905v-.925h-.905v.925zm1.812 1.862h.906v-.926h-.906v.926zm-1.812-5.562h.905v-.926h-.905v.926zm1.812 1.861h.906v-.925h-.906v.925zm-1.812-5.563h.905v-.926h-.905v.926zm1.812 1.861h.906v-.925h-.906v.925zm0-3.7h.906v-.926h-.906V19zm1.809 12.943h.905v-.925h-.905v.925zm0-3.702h.905v-.925h-.905v.925zm1.813 1.862h.906v-.926h-.906v.926zm-1.813-5.562h.905v-.926h-.905v.926zm1.813 1.861h.906v-.925h-.906v.925zm-1.813-5.563h.905v-.926h-.905v.926zm1.813 1.861h.906v-.925h-.906v.925zm-1.813-5.562h.905v-.925h-.905v.925zM69.149 19h.906v-.926h-.906V19zm0-3.701h.906v-.926h-.906v.926zm0-3.702h.906v-.925h-.906v.925zm1.808 20.346h.905v-.925h-.905v.925zm1.813 1.86h.906v-.925h-.906v.926zm-1.813-5.562h.905v-.925h-.905v.925zm1.813 1.862h.906v-.926h-.906v.926zm-1.813-5.562h.905v-.926h-.905v.926zM72.77 26.4h.906v-.925h-.906v.925zm-1.813-5.563h.905v-.926h-.905v.926zm1.813 1.861h.906v-.925h-.906v.925zm-1.813-5.562h.905v-.925h-.905v.925zM72.77 19h.906v-.926h-.906V19zm-1.813-5.563h.905v-.925h-.905v.925zm1.813 1.862h.906v-.926h-.906v.926zm-1.813-5.562h.905V8.81h-.905v.926zm1.813 1.86h.906v-.925h-.906v.925zm-1.813-5.561h.905v-.926h-.905v.926zm3.62 25.907h.906v-.925h-.905v.925zm1.814 1.86h.906v-.925h-.906v.926zm-1.813-5.562h.905v-.925h-.905v.925zm1.813 1.862h.906v-.926h-.906v.926zm-1.813-5.562h.905v-.926h-.905v.926zM76.39 26.4h.906v-.925h-.906v.925zm-1.813-5.563h.905v-.926h-.905v.926zm1.813 1.861h.906v-.925h-.906v.925zm-1.813-5.562h.905v-.925h-.905v.925zM76.39 19h.906v-.926h-.906V19zM78.2 35.643h.905v-.926H78.2v.926zm1.812 1.861h.906v-.925h-.906v.925zM78.2 31.942h.905v-.925H78.2v.925zm0-3.702h.905v-.925H78.2v.925zm0-3.7h.905v-.926H78.2v.926zm0-3.701h.905v-.926H78.2v.926zm1.812 1.86h.906v-.925h-.906v.925zm0-3.7h.906v-.926h-.906V19zm1.809 1.84h.905v-.926h-.905v.926zm1.812 1.86h.906v-.925h-.906v.925zm0-3.7h.906v-.926h-.906V19zm1.809 1.84h.905v-.926h-.905v.926zm1.813-1.84h.906v-.926h-.906V19zm-43.077-1.66H28.57c-.143 0-.258-.087-.338-.202h-.013v-.016c-.02-.032-.053-.054-.064-.092l-.838-2.636v.905h-.906v-.926h.899l-.882-2.776h-.017v-.05L24.66 6.034h-.06v-.191L23.331 1.86l-.448 1.41h.812v.925h-.906v-.63L21.122 8.81h.76v.926h-.905v-.47l-1.623 5.106h.72v.926h-.906v-.343l-.659 2.074c-.058.184-.226.31-.416.31H2.486l2.197 1.631v-.897h.906V19h-.866l1.77 1.314v-.4h.904v.925H7.2l1.26.936h.75v.557l1.728 1.283h.08v.06l4.095 3.04c.153.114.217.316.159.499l-1.21 3.804h.578v.925h-.871l-1.475 4.637h.538v.924H12l-1.467 4.617h.272l1.231-.915h-.11v-.925h.906v.335l1.711-1.272h-.809v-.925h.906v.854l8.15-6.052v-.343h.906v.21l8.144 6.048v-.717h.906v.925h-.626l1.533 1.138v-.201h.906v.874l1.3.966h.272l-1.572-4.946v.33h-.906v-.925h.717l-1.624-5.108v.47h-.906v-.924h.762l-1.21-3.804c-.058-.183.006-.385.16-.498l3.91-2.904v-.197h.264l1.55-1.15v-.69h.904v.018l1.284-.954h-.38v-.925h.905v.536l4.189-3.11zm1.76-.585c.059.183-.005.385-.159.498l-13.457 9.994 5.14 16.169c.059.184-.005.386-.158.5-.154.114-.361.114-.514 0L23.332 33.92 9.874 43.914c-.077.057-.167.086-.257.086s-.18-.029-.257-.086c-.153-.113-.217-.315-.158-.5l5.14-16.168L.884 17.252c-.153-.113-.217-.315-.16-.498.06-.184.227-.31.417-.31h16.635L22.916.277c.117-.368.714-.368.831 0l5.141 16.169h16.634c.19 0 .358.125.416.309zM8.305 18.999h.906v-.926h-.906V19zm1.808 1.839h.906v-.926h-.906v.926zm1.813 1.861h.906v-.925h-.906v.925zm0-3.7h.906v-.926h-.906V19zm1.808 16.644h.906v-.926h-.906v.926zm1.813 1.86h.906v-.925h-.906v.925zm0-3.7h.906v-.926h-.906v.926zm0-3.701h.906v-.926h-.906v.926zm-1.813-5.562h.906v-.926h-.906v.926zm1.813 1.861h.906v-.925h-.906v.925zm-1.813-5.563h.906v-.926h-.906v.926zm1.813 1.861h.906v-.925h-.906v.925zm0-3.7h.906v-.926h-.906V19zm1.809 16.644h.905v-.926h-.905v.926zm0-3.701h.905v-.925h-.905v.925zm1.812 1.86h.906v-.925h-.906v.926zm-1.812-5.562h.905v-.925h-.905v.925zm1.812 1.862h.906v-.926h-.906v.926zm-1.812-5.562h.905v-.926h-.905v.926zm1.812 1.861h.906v-.925h-.906v.925zm-1.812-5.563h.905v-.926h-.905v.926zm1.812 1.861h.906v-.925h-.906v.925zm0-3.7h.906v-.926h-.906V19zm1.809 12.943h.905v-.925h-.905v.925zm0-3.702h.905v-.925h-.905v.925zm1.813 1.862h.906v-.926h-.906v.926zm-1.813-5.562h.905v-.926h-.905v.926zM22.79 26.4h.906v-.925h-.906v.925zm-1.813-5.563h.905v-.926h-.905v.926zm1.813 1.861h.906v-.925h-.906v.925zm-1.813-5.562h.905v-.925h-.905v.925zM22.79 19h.906v-.926h-.906V19zm-1.813-5.563h.905v-.925h-.905v.925zm1.813 1.862h.906v-.926h-.906v.926zm0-3.702h.906v-.925h-.906v.925zm0-3.7h.906V6.97h-.906v.925zm1.808 24.046h.906v-.925h-.906v.925zm1.813 1.86h.906v-.925h-.906v.926zm-1.813-5.562h.906v-.925h-.906v.925zm1.813 1.862h.906v-.926h-.906v.926zm-1.813-5.562h.906v-.926h-.906v.926zm1.813 1.861h.906v-.925h-.906v.925zm-1.813-5.563h.906v-.926h-.906v.926zm1.813 1.861h.906v-.925h-.906v.925zm-1.813-5.562h.906v-.925h-.906v.925zM26.411 19h.906v-.926h-.906V19zm-1.813-5.563h.906v-.925h-.906v.925zm0-3.7h.906V8.81h-.906v.926zm3.621 25.907h.906v-.926h-.906v.926zm1.813 1.861h.906v-.925h-.906v.925zm-1.813-5.562h.906v-.925h-.906v.925zm1.813 1.86h.906v-.925h-.906v.926zM28.22 28.24h.906v-.925h-.906v.925zm1.813 1.862h.906v-.926h-.906v.926zM28.22 24.54h.906v-.926h-.906v.926zm1.813 1.861h.906v-.925h-.906v.925zm-1.813-5.563h.906v-.926h-.906v.926zm1.813 1.861h.906v-.925h-.906v.925zm0-3.7h.906v-.926h-.906V19zm1.808 16.644h.906v-.926h-.906v.926zm0-11.103h.906v-.926h-.906v.926zm0-3.701h.906v-.926h-.906v.926zm1.813 1.86h.906v-.925h-.906v.925zm0-3.7h.906v-.926h-.906V19zm1.809 1.84h.905v-.926h-.905v.926zm1.812-1.84h.906v-.926h-.906V19zm3.622 0h.906v-.926h-.906V19z" mask="url(#whpjffxdpb)"/>
            </g>
        </g>
    </g>
</svg>
