<svg xmlns="http://www.w3.org/2000/svg" width="1400" height="60" viewBox="0 0 1400 60">
    <path fill="#BDDDD8" fill-rule="evenodd" d="M1424 60v-5.952c-2.509.114-5.087.278-7.76.524-2.246-4.436-17.664-.583-15.492-7.798-4.09-.21-8.302.275-12.386 0-2.96-.198-2.203-1.835-3.098-1.949-2.966-.373-2.874 1.965-3.099 1.949-8.072-.536-13.633-3.702-24.785-1.949-3.152.497-1.507 1.488-3.099 1.949-1.118.325-5.465-.563-6.196 0-.17.132.188 1.934 0 1.95-3.636.322-9.682-1.656-15.485-1.95-5.132-.258-10.353.197-15.491 0-5.536.548-6.353-1.842-3.098-1.949-.763-2.117-6.16-1.321-6.197-3.898-10.056-1.128-14.406 1.33-21.681 1.95-1.798-1.81-9.306-4.914-15.491-5.849-6.742-1.016-16.599 2.209-24.78 0-1.409-.376-2.456-2.901-3.098-3.896h-3.098c.998 1.186-7.08 5.602-9.294 3.896-.194-.144-4.447-3.291-6.197-1.947-.156.12.157 1.94 0 1.947-1.85.103-5.627-1.8-9.294-1.947-3.552-.143-5.55-.062-6.197-1.949-11.673 1.498-14.807-2.377-24.78-1.95-5.191 4.846-15.424.509-21.687 0-8.682-.702-17.124-.436-24.78-1.949-1.063-.208-5.555.497-6.195 0-.473-.36.525-1.63 0-1.946-.532-.325-2.578.327-3.098 0-.412-.26.478-1.767 0-1.95-1.502-.578-4.563.44-6.197 0-.575-.157-1.283-1.492-3.1-1.949-2.667-.674-6.534.537-9.293 0h-3.098v1.95c-10.197.079-15.417 3.288-27.878 1.949h-3.1c-4.416 5.93-26.858 5.194-27.874-1.95-6.392-1.18-21.526 3.144-18.59-3.898-10.65.852-17.36-.771-24.78-1.95-2.82-6.022-16.437-5.253-15.49-13.642h-6.198c-2.638.358-2.922-.76-3.098-1.95-6.505 1.179-8.163-1.802-12.393-1.949-10.323-.355-21.493 5.19-24.778-1.948-6.167 2.618-14.749 3.715-21.69 5.847-12.076-.135-21.8.186-30.975 0-5.513-.112-6.584-2.21-12.393-1.95-2.837.129-4.69 2.2-9.293 1.95.99.054-2.07-1.787-3.099-1.95-1.942-.306-4.224.236-6.19 0-2.439-1.866-15.431 2.43-18.59 0-.145-.108.122-1.946 0-1.949-6.488-.104-11.423 4.297-18.589 0-7.981 2.127-14.886 4.925-18.584 9.744-7.697-.29-12.857 1.01-15.49 3.899-11.69-2.386-20.599-6.531-37.172-5.847-.346-3.682-10.245-1.352-9.294-5.847-7.721 1.64-16.6 2.55-27.879 1.95 2.67-6.877-4.985-1.789-12.392-1.95-4.314-.093-6.166-2.327-9.295-1.949-8.999 1.093-17.149 2.96-15.491 7.796-3.6.318-5.511-.43-6.197-1.95-5.597 1.702-3.75 2.541-12.385 3.898-1.755.28-3.27 1.963-3.098 1.95-6.077.474-11.814-4.664-12.393 3.898-3.015-.053-2.403-2.386-3.098-3.899-3.6.319-5.514-.43-6.198-1.949-5.004-.547-5.33 1.844-9.293 1.95-5.43 1.781-15.455.67-18.585 3.898-4.605-2.301-13.844-1.686-12.391-7.796-21.318.423-37.422-2.441-52.664-5.847-.956 2.645-7.758 1.618-12.393 1.95-.382 4.305-13.137.828-18.583 1.948-2.439-1.867-15.431 2.428-18.59 0-3.139-2.415-2.33-.756-9.295 1.95-2.05.798-4 1.068-6.195 1.947-.624.252-2.584-.32-3.094 0-.29.181.34 1.875 0 1.95-4.767 1.043-5.53-2.273-9.293-1.95-3.878.336-5.289 3.134-9.295 3.899-7.721 1.475-16.139-1.153-24.785 1.95-2.893 1.428-4.69 3.544-6.19 5.847-9.73-5.146-21.482.916-27.883 3.899-8.97-.637-10.21-1.149-21.683-1.95-6.553-.459-11.14-2.384-15.49-1.949-4.139.411-4.824 3.64-9.294 3.899-4.067 1.499-23.939 8.873-24.78 0h-12.393c2.45-6.744-3.444-8.23-6.196-11.696-14.088 2.124-18.081 9.833-34.076 5.848-9.155 3.423-24.324 6.3-24.784-3.899-5.458-.557-9.592 9.177-12.393 3.899-7.28 2.836-14.758-4.652-24.78-1.95-1.368.37.362 2.113-3.098 1.95-5.155-.246-5.93-.785-6.196-3.899-4.188 1.915-6.19 5.2-9.295 7.797-16.883.878-25.451-3.476-43.368-1.949-4.636-2.929-5.54-8.208-12.39-9.747-4.46-1.09-7.558-3.04-9.293-5.846-7.683.289-15.033.364-15.49-3.898-3.362.482-2.1 3.875-6.193 3.898H90.378c-4.633 2.284-12.671 2.424-15.488 5.846-2.508-.368-3.089-1.954-6.197-1.949-5.893-1.34-14.501-1.328-18.585-3.897-1.895-1.191.395-1.434-3.099-1.948-4.707-.695-11.966 1.338-12.389-1.95-6.181 2.609-13.431 4.544-15.49 9.744-2.549.999-10.328-1.297-12.391 0-.212.134.226 1.923 0 1.95-1.909.217-16.499-1.606-18.59 0-.137.107.12 1.95 0 1.95-2.063.017-3.625-1.648-6.193-1.95-1.371-.16-3.48-.165-5.956-.122V60h1448z"/>
</svg>
