<svg id="Layer_1" data-name="Layer 1" xmlns="http://www.w3.org/2000/svg" xmlns:xlink="http://www.w3.org/1999/xlink" width="1240" height="1320" viewBox="0 0 1240 1320"><defs><style>.cls-1{fill:none;}.cls-2{clip-path:url(#clip-path);}.cls-3{fill:#eef5f3;}.cls-4{fill:#e5efec;}.cls-5{fill:#d2e4de;}</style><clipPath id="clip-path"><rect class="cls-1" width="1240" height="1320"/></clipPath></defs><title>home-bg-full-static</title><g id="mask"><g class="cls-2"><path id="_3bottom" data-name="3bottom" class="cls-3" d="M-82.76-161.06l7.86,1518.87c11.46,2.35,27.38-2.64,37.54,1.85,3.74-.45,3.42-4.48,6.32-5.35,4.12-1.24,4.37-5.78,5.45-9s.58-5.35,1.84-8.08c1.59-3.44,7.93-6.17,9.05-9.83.55-1.79-1.65-5.29-1.76-7.2-.19-3.64,1.32-5,1.85-8.08,2.19-1,5.08-.63,7.2-1.75,9.6-5.05,12.52-21.56,20.81-24.13-.13,0,4.4,4.94,3.6-.88-4.84-8.72.19-12.64,3.69-16.15,1.32-1.33,4.95-4.87,6.33-5.36.06,0,.69,3.47.87,3.6,5,3.75,19.79-11.46,18.88-.78,6,4,21.64.17,25.19-6.14,1.7,5,6.56,1.34,11.68,1,6.3-.46,11.32-2.94,15.28.09,4.49-4.42,13.24-6.25,7.28-17q13.62-2.46,16.25-11.58c-2.93-16.09,24.94-13.45,32.49-23.17,1.18-.34,2.42-.52,3.6-.88,4-1.2,1.08-3,2.72-4.47,6.87-6.35,17.33-9.43,23.44-13.34l25.2-6.14c3.88.06,1.87-2.62,2.72-4.47,1.89-4.09,1.07-3,6.33-5.36,4.84-2.21,13.49-3.38,15.27.1,5.86,3.61,19.25-3.86,19.85-12.47,0-3.56,2.18-4.21,6.32-5.35,8.21-2.26,22.21,2,30.55.19,14.9-3.2,7.87-19.74,20.81-24.14,10.74-5.7,17.94-1.06,22.47-1.66,3.76-.5,3.37-4.64,6.32-5.36-1,.26,3,2.72,4.48,2.72a22.81,22.81,0,0,0,7.2-1.75c3.23-1.44,1.45-3.51,2.72-4.48,7.36-5.52,15.09-1.52,12.65-10.7,8.08-6.88,16.05-9.41,22.56-16.94.49-.56-1.27-2.95-.87-3.6.93-1.52,6.11-.31,7.2-1.75,1-1.29-2.55-5.75-1.76-7.2,3-5.54,9.55-7.53,8.17-13.43,3.83-2.78,7.23-5.83,9.05-9.83,10.43-2.61,10.42,3.66,16.15,3.69,4.91,0,8.31,1,11.67,1,4.13,0,5.17-3.45,6.33-5.35,1.81-3,11.88-.95,14.39-3.51,8-3.12,6.54,9.43,13.44,8.17.12-3-1.64-7.13,1.84-8.08-.5-2,1.92-4.79,3.6-.87,5.23-1.93,13.6-2,13.52-7.11.53-7.31,5.81-10.86,8.17-13.43,5.45-5.92,5.34-7.81,8.17-13.43,1.25-2.5.67-5.63,1.84-8.08.59-1.22,6.05-.87,7.2-1.75,3.38-2.56,7.37-4.6,9.92-6.23,5-3.22,8.11-5.14,13.53-7.11,5.21-1.89,8.32,1.54,11.67,1,6.06-1,8.43-4.42,13.52-7.11,2.84-1.49,1.61-3.64,2.73-4.47,2.73-2.05,8-.68,10.79-2.63,4.16-2.89,3.51-4.91,5.45-9,.62-1.28,6-.76,7.2-1.75a14,14,0,0,0,1.15-2l24.08-6.53,13.52-9.32,8.69-2.43,39-10a11.72,11.72,0,0,1,1.81,1.16c14.65,1.1,26.87,6.23,45.82.27,16.6-7.12,16.85,12.63,35,2.91,8.52-5,15.25-9.33,22.47-1.66,4.13-.62,4.33-6.6,7.2-1.75,15.89-.58,23.44-9.69,31.52-11.49-1.19.26,3.21,2.65,4.48,2.72,3.37.18,7.42-2.21,10.79-2.63.2,0,.64,3.41.88,3.6,2.53,1.94,3.37-4.75,2.72-4.48,13-5.41,17.75-.81,26.08-2.54,6.39-1.33,10.31-6.39,13.52-7.11,12.76-2.83,26.11-.88,36.87-5.16,18-7.18,28.13-26.77,50.49-27.56,4-2.93,5.81-6.32,9-9.83,1.61-1.75,1.65-3.17,2.73-4.48.47-.57-1.22-2.9-.88-3.59.63-1.33,6.06-.7,7.2-1.76.46-.42-1.22-3-.88-3.6,1.36-2.23,8.06-1.22,6.32-5.35,19.86-7.34,37.32-16.14,50.49-27.55,7.11,1.75,18.26-3.14,23.35,1.94,10.77-1.63,9.08-10.84,19.85-12.46,2.8,7.15,11.36,4.84,17,7.29,2,6,9.51,0,15.28.09,1.68,0,5.1,2.67,4.47,2.72,7.06-.58,16.08-4.18,21.6-5.26,6.18-1.21,12.6,1.66,14.4-3.51-.2,10.41,16.35-6.71,16.15,3.69,6.83-1.13,12.61-.56,16.15,3.7,7.68-5.5,15.45-15.31,18.09-19.66,1.8-3-1-2.07,2.73-4.48,4.53-3,14.12-1.15,13.52-7.11-.34-2.24-.5-4.39,2.72-4.47l39.6-9.65c8.45,5.94,9.89-2.62,14.39-3.5,7.7-1.52,12.33,1.27,18.88-.79,4.3-1.35,13-5.85,17.12-8,.27-.14-1-3.26-.88-3.6.44-.91,6.14-1.33,7.2-1.76,22.73-9.1,37.31-13.28,54.87-9.55,3.31-6.1,10.7-4.77,17.12-8a9.93,9.93,0,0,0,3.14-2.45l-4-913Z"/><path id="_2middle" data-name="2middle" class="cls-4" d="M1459.48-203.59l-1553-2.25L-98.63,970.84c3.16.61,23.62-28.11,26.16-28.83C-68,948.32-57.84,921-51.16,924.59c3.75,2,7.55,5.2,12,4.86,9.25-.7,16.29-8.86,24-13.1a45.54,45.54,0,0,1,26.33-5.75c7.71.74,16.08,5.74,23.28,0,2.08-1.65,3.55-4,5.75-5.47,1.9-1.28,4.25-1.83,6-3.34,2.11-1.84,2.91-4.74,4.6-7,2-2.64,5.09-4.16,7.93-5.86,8.22-4.91,15-11.87,21.65-18.75l4.87,3.4a94.5,94.5,0,0,1,23.86-20.1c3.09-1.82,6.58-3.52,10.1-2.87,3.08.56,5.59,2.84,8.59,3.72a10.15,10.15,0,0,0,9-1.74l2.57,4.91c3.55-4.76,10.28-5.49,15.54-8.26,6.79-3.56,11.08-10.52,17.16-15.2,3.6-2.76,7.79-4.69,11.39-7.46s6.72-6.73,6.78-11.28l2.38,4.19A41.34,41.34,0,0,1,201,807.26a41.24,41.24,0,0,1,4.25,12.15c-.1-.56,3.67-5,4.19-6,1.31-2.48,2.08-5.29,3.24-7.73-1.05,4.39,4.54,1.27,5.8,0,2.2-2.32,3.87-5.07,5.91-7.52a68.94,68.94,0,0,1,12.25-11.52c3.06-2.23,7.3-4.2,10.43-2.06-2.64-1.8,4.15-6.19,6.35-5.09,4-6.56,5.82-15.49,7.11-23,1.11,2,5,3.33,7.08,1.41,3-2.74,3-7.36,4.69-11,.9-2,3.07-3.91,5-2.94a1.41,1.41,0,0,1,.42.32,21,21,0,0,0,3.25-6.93c4.45-4.25,7.51-10.74,10.77-14.33,3.3-3.84,5.9-8,8.9-11.64s6.64-6.35,12.13-6.64c4.6-4.6,8-19.64,15.46-19.82,2.65-.07,5.15,1.23,7.32,2.76,4.13,2.89,7.76,6.79,12.61,8.14,8.57,2.37,13.08-8.79,19.14-13,3.79.68,6.47.32,9.58-5.71,3.73-1.52,8.24-3.66,13.27-.73,11.87.55,17.6,10.22,19-1.49,3.12-2.59,6.88-1.44,16.22-5.41a14.6,14.6,0,0,0,10.47,3c3-.32,5.2-3.47,8.72-.59,3.42,2.1,3.07-10.39,7.36-3.88.57-8.24,5.29.48,5.86-6.9,4.51,8.27,5,.82,5.91-4.49,3,3,2.41-8.22,3.42-12.88,3.59-1.23,5.42-8.83,10.77-3,4.27,1.28,7.76-1.07,11.84-3.45,9.9-2.59,13-7.93,14-10.82,12.2-4.19,9.78-4.91,11.23-5.79,6.52-.14,9.34-.37,7.92-1.64,5.92.34,6.61-1.81,11.07-3.07,3.27-3.45,6.64-3.61,7.71-11.35-2.08-10.17,5.38-6.1,8.56-8.93,1.39-4,5.66-5.19,8-8.31,3.82-1.33,7.76-2.49,10.44-4.81-1.61-2.15-2.18-6.75,2.9-5.46,4.18,1.18,5.72-3,4.07-9.09,1.58-1.19,3.06-3.56,4.79-5.8s3.77-4.41,6.11-4.92c2.39-.3,3.47-5.77,4.8-9.76,1.84-1.88,1.73-11.08,4.11-9.4,2.78,1.87-.15-18.95,3-15.63,1.78-2,3-6.39,4.92-7.81,3.64-3.79,10.1,3.67,11.9-7.4,4.56,0,6.31-11.07,9.91-15,1.11-4.66,3.22-5.41,5.67-4.82s5.34,2.78,8,3.88c4.17-2.25,11.75,8,16.82,7.32,7.12,7.36,9.65-3.47,16.33,3.9,1.24-3.7,5-2.62,7-5.21.32-2.94.68-7.65,3.47-7.82,3.7-4,5.13-9.75,8.42-12.84,5.35-.27,6.37-7.57,10.51-9.54,4-2.58,7.87-7.56,12.63-7.5,5,1.21,9.51,3.1,13.35-.93,2.13-.26,3.29-4.9,5.93-3.34.66-4.13,2.34-4.73,3.64-6.44,1.57-3.79,4.44-3.61,7.24-4.05a15.19,15.19,0,0,1,5.51,1.05,37.24,37.24,0,0,0,13,2.41c22.9,1.81,28.52,1.4,32.87.21,3.9-2.45,9.42-2.51,14.72-.74,6.26,4.72,11.43,4.48,15.66-.61,5-2.59,11.74,2.06,17.64,3.34,6.12,2.42,14.58,13.21,17.54,3.17,7.54,8.23,9.71-3.86,12.51-10.35a49.6,49.6,0,0,0,8.4-2.09,28.39,28.39,0,0,1,8.15-3.68c2.15-3.61,6.06-.27,7.86-5.47,2.36-2.92,4.79-5.7,7.51-7.41,6.47-3.55,12.88-6.19,20.65-3.11,4.75-8.9,11.09-11.2,17.56-13.54,4.86-1,9.62-2.29,14.35-3.64s9.42-2.79,14.11-4.1,10.44,2.06,15.68,3.15c6.67,6.78,10-.15,12.83-10.5,1.92-12.49,10.59,1.65,15.81,1.9,4.8-1.43,13.84,13.8,16,1.71,5.19,0,11.37,4,14.71-2.72,6.36,4.88,8.8-2.43,16,.27a57.52,57.52,0,0,0,12.72-5.25c3.39-1.63,5.79-3,9-4.61,6.45-2,9-3.07,8.77-4.19,1.73-1.12,8.55,1,6.41-2.51,2.75-.28,6.15.82,8,.65,1.4-1,3.42-1.3,6.46-.23,1.12-2.79,4.66-1.39,7.94-1.4,3.29-.43,8.62,4.49,11.45-2.13,7.17,3.53,11.85,1.62,15.52-1.33,3.29-4.39,6-8.31,9.66-6.42,2.36-3.42,4.38-6.42,6.79-7.38,2.07-2.29,4.44-2.85,6-7.4,4.39-2.58,9.86-2.73,12.65-14.73,2.06-3.33,4.68-4.74,7.19-6.78s4.92-4.75,6.55-10.67c2.58-6.05,4.14-14.48,9.07-8.55,2.37-4.25,7.57,3.66,9-3.15,3-.56,5.4-3.49,9-2.2,3.06-.74,7.69,4.17,9.06-5.13,6.33-3.42,12.58-3.49,20.06,1.36,8.3,1.84,12.34-1.6,16.6-5.87,3-3.23,7.65-.9,10.44-5.57,1.39-2,3.41-2.44,4.51-6.35,1.21-4.07,4.11-2,4.62-9.36,4.53,2.6,7.18-1.71,11-2.49,3-2.86,8.18-.34,10.86-4.4,2.18-7.18,8.48-1,11.86-4.16,8.51,10.06,10.75.69,14.52-4.63,7,1.15,16.72,4.34,18.51,2.42,2.78-.52,11.25,1.37,12.6-.07,3.65,2.13,5.18,4.15,5.68-.17,2.49,4.71,3.79-.6,4.78-3.05,2.91-.86,4.64-3.84,6.37-7.15a14.12,14.12,0,0,0,7.43-9.32c4-1.31,3.16-6.05,7.51-5.9.52-4.17,1.81-9.08,6.48-5.67,1.68-2.89,6.31,1,7.38-2.95,2.66-.44,4.65-3.21,7.78-1.94,5.31,3.2,6.89-8.16,10.83-10.19a20.49,20.49,0,0,1,12.79-1.91c5.2-15.38,13.11-12.88,19.63-20.65,4.1-1.75-11.42-11.61-8.17-14.9Z"/><path id="_1top" data-name="1top" class="cls-5" d="M-224.24,771.77c-.24-7.15,5-3,11.87-12.36,1.93-2.62-.44-2.24.24-3.77s3.22-2.55,4-4.12c1-2.17.56-3.54,2.22-5.83,2.79-3.84,9.19-8.14,11.86-12.36.78-1.23-1.92-4.41-1.48-5.47.9-2.25,4.62-4.09,5.93-6.19,4.52-7.23,9.64-15.95,20-24.37,4.13-3.35,7.9-2.58,9.89-10.3,1.34-5.23,9.51-14.76,14.33-22,1.55-2.32,1.6-4.65,4.2-7.89,8.63-10.77,21.67-30.48,37.82-42.92,2.15-1.66,5-1.07,7.66-4.47,3.56-4.57,4.28-16.48,12.6-23.67,7.07-10,26.62-21.26,22.24-30.2,7.64-11.27,12.49-17.71,22.25-30.2.52-.68,4-3.43,4-4.12,0-.26-1.85-1.53-1.73-1.71,1.54-2.32,4.4-3.86,5.93-6.18C-28.74,511-24,501.75-20.1,495.84c2.77-4.24,5.09-8.16,8.15-12-.58.73,3.8,1.63,3.71-.35,0-.24-1.83-1.56-1.73-1.71,4.06-5.55,16-14.84,18-22.31.48-1.76-1.93-1.29.25-3.77,3-3.47,2.13-4.76,4.2-7.89,1.5-2.27,4.59-3.83,5.93-6.18.45-.78-1.55-1.72.25-3.77,2.2-2.52,6.34-5.34,7.9-8.24.49-.9-1.61-1.65.25-3.77,1.54-1.76,0-3.95,2.22-5.83,4.91-1.7,10.68-4,15.33-8.95-.41.45-.8-2.57.25-3.76,3.05-3.49,2-4.85,4.2-7.89,2.72-3.74,7.41-6.43,9.89-10.31.32-.51-1.41-1.88.24-3.76,2.66-3,6.11-5.36,4.2-7.89a13.81,13.81,0,0,1,.73-11.3c7.48-1.64,15.71-14.69,23.24-17.2,8.28-6.68,8.73-5.83,19.54-16.83,1.18,2.4,2.3.06,3.71-.36,2.71-.79,4.54.15,7.42-.7,3.3-1,12.62-3.49,18.55-1.77,6.25-11.52,13.18-12.13,23.74-24.72,4.87,2.4,10.32-2.33,15.08-5.19s9.59-8.24,13.6-10.65c.41-.25,2.05.77,3.71-.36,1.49-1,2.43-3.22,4-4.12.89-.52,1.66,1.6,3.71-.35,3.32-3.16,10.05-7.91,15.33-8.95-2-2.48,2.57-5,4.2-7.89,1.2-2.11.69-3.45,2.23-5.83,3-4.63,8.07-7.05,8.15-12,12.27-5.41,20.08-14.12,31.4-29.2.52-.7,4-3.4,3.95-4.12,0-.27-1.86-1.51-1.73-1.71,1.9-3,5.89-9.37,8.15-12,3.45-4,7.28-4.4,11.62-8.6,2.55-2.46.65-8,7.91-8.24l21.76-22.67c2-1.44,1.19-2.61.25-3.77-2.34-3.19,4.3-6.26,6.17-9.95,1.52-3,.09-1.28.25-3.76A64.46,64.46,0,0,1,324.74,126c3.63.93,7.45-1.23,11.38-4.83,3.29,6.11,8.08-10.94,11.37-4.83-.56-3.77,4.42-4.88,7.91-8.24,3.12-3,7.62-9,11.87-12.37-.38.3,2.65.37,3.71-.35,3.64-2.47,6.43-9.18,9.64-6.53,4.37-1,9-6.06,13.11-3.12,6.25-5.59,2.16-10.19,8.4-15.78,4.87.74,10.29-6.9,15.33-8.95C422,48.72,430.11,36.09,440.2,23.27c-2.45-1.64,2.1-3.94,2.22-5.83,0-.46-1.88-1.26-1.74-1.7.38-1.11,4-3.08,4-4.12,0-.55-1.84-1.17-1.73-1.71.24-1.22-.2-2.06.24-3.77C444,2.71,444,0,445.62-3.45c13.81-10.1,13.75-25.82,22.73-37.74,5.36-7.13,14.41-11.75,21.51-18.9,1.78-1.8,2.59-6.42,6.17-10,4.68-4.6,9.21-4,15.58-12.72-.32.44-2-3.8.25-3.77.21,0,1.61,1.82,1.73,1.71,2-1.7,3.75-4.83,5.93-6.18.82-.5,4.37-1,3.71-.35,4.5-4.53,6.26-13.07,16.07-20.26,3.39,1.57,1.56-2,4-4.12,7,1.34,9.87-4.08,13.59-10.65,8.25-13.47,14.89-2.13,23-13.42,10-11.63,19.35-13.93,28.93-19.61,10.8.41,12.45-17.64,21.76-22.66.66-.36,2.74,2.69,3.71-.36,3.28-4.47,10.12-6.33,13.6-10.65s2.72-6.23,4.44-11.66c.64-2,1.61-3.63,2.22-5.83.33-1.17.1-3.38.25-3.76.4-1.07,4-3.12,4-4.13-.1-3.17-1.18-4.07.49-7.53,1.13-2.35,4.89-3.82,5.93-6.18.43-1-1-1.68.25-3.77,2.32-3.76,2.7-6.74,6.18-9.95,1.92-1.78,5-1.13,7.66-4.47a54.19,54.19,0,0,0,6.18-10c1.07-2,2.91-4.94,4.2-7.88.44-1,4-3.17,3.95-4.12-.06-1.93-1.46-3.49-1.49-5.48-.06-4.47-.75-5.52.74-11.3.64-2.51,2.8-6.84.73-11.31-1.74-2.95,3.52-6.57,6.18-9.95,2.34,1.55,2.95-1.12,2-2.06,1.88-2.05-.58-3.69-1.48-5.47,3.93-3.71,7.1,4.21,11.13-1.06.74-2.57,7.75-5.73,7.91-8.24.1-1.6-.38-4.07,2.22-5.83,2.13-1.44,4.57-2.38,7.67-4.48,3.62-2.45,5.66,1.19,11.38-4.82-.17-3.11,1-6.34,2.46-9.6-2.8-2.82.65-6.79.74-11.3,0-1.19-3.66-2.25-3.47-3.42s3.87-2.83,4-4.12c0-.55-1.86-1.17-1.74-1.71,1-4.39,3-7.93,5-11.73l-993.16,3.56L-224.81,772.7C-224.46,772.33-224.23,772-224.24,771.77Z"/></g></g></svg>