<svg id="Layer_1" data-name="Layer 1" xmlns="http://www.w3.org/2000/svg" viewBox="0 0 1050 1050"><defs><style>.cls-1{opacity:0.4;}.cls-2{fill:#fff;}</style></defs><title>home-bg-polkacorner1-0.4white</title><g class="cls-1"><rect class="cls-2" x="1030.91" y="38.39" width="19.09" height="19.09"/><rect class="cls-2" x="992.69" width="19.09" height="19.09"/><rect class="cls-2" x="1030.91" y="114.74" width="19.09" height="19.09"/><rect class="cls-2" x="992.69" y="76.35" width="19.09" height="19.09"/><rect class="cls-2" x="1030.91" y="191.09" width="19.09" height="19.09"/><rect class="cls-2" x="992.69" y="152.69" width="19.09" height="19.09"/><rect class="cls-2" x="1030.91" y="267.44" width="19.09" height="19.09"/><rect class="cls-2" x="992.69" y="229.04" width="19.09" height="19.09"/><rect class="cls-2" x="1030.91" y="343.78" width="19.09" height="19.09"/><rect class="cls-2" x="992.69" y="305.39" width="19.09" height="19.09"/><rect class="cls-2" x="1030.91" y="420.13" width="19.09" height="19.09"/><rect class="cls-2" x="992.69" y="381.74" width="19.09" height="19.09"/><rect class="cls-2" x="1030.91" y="496.48" width="19.09" height="19.09"/><rect class="cls-2" x="992.69" y="458.09" width="19.09" height="19.09"/><rect class="cls-2" x="1030.91" y="572.83" width="19.09" height="19.09"/><rect class="cls-2" x="992.69" y="534.43" width="19.09" height="19.09"/><rect class="cls-2" x="1030.91" y="649.18" width="19.09" height="19.09"/><rect class="cls-2" x="992.69" y="610.78" width="19.09" height="19.09"/><rect class="cls-2" x="1030.91" y="725.52" width="19.09" height="19.09"/><rect class="cls-2" x="992.69" y="687.13" width="19.09" height="19.09"/><rect class="cls-2" x="1030.91" y="801.87" width="19.09" height="19.09"/><rect class="cls-2" x="992.69" y="763.48" width="19.09" height="19.09"/><rect class="cls-2" x="1030.91" y="878.22" width="19.09" height="19.09"/><rect class="cls-2" x="992.69" y="839.82" width="19.09" height="19.09"/><rect class="cls-2" x="1030.91" y="954.57" width="19.09" height="19.09"/><rect class="cls-2" x="992.69" y="916.17" width="19.09" height="19.09"/><rect class="cls-2" x="1030.91" y="1030.91" width="19.09" height="19.09"/><rect class="cls-2" x="992.69" y="992.52" width="19.09" height="19.09"/><rect class="cls-2" x="954.57" y="38.39" width="19.09" height="19.09"/><rect class="cls-2" x="916.35" width="19.09" height="19.09"/><rect class="cls-2" x="954.57" y="114.74" width="19.09" height="19.09"/><rect class="cls-2" x="916.35" y="76.35" width="19.09" height="19.09"/><rect class="cls-2" x="954.57" y="191.09" width="19.09" height="19.09"/><rect class="cls-2" x="916.35" y="152.69" width="19.09" height="19.09"/><rect class="cls-2" x="954.57" y="267.44" width="19.09" height="19.09"/><rect class="cls-2" x="916.35" y="229.04" width="19.09" height="19.09"/><rect class="cls-2" x="954.57" y="343.78" width="19.09" height="19.09"/><rect class="cls-2" x="916.35" y="305.39" width="19.09" height="19.09"/><rect class="cls-2" x="954.57" y="420.13" width="19.09" height="19.09"/><rect class="cls-2" x="916.35" y="381.74" width="19.09" height="19.09"/><rect class="cls-2" x="954.57" y="496.48" width="19.09" height="19.09"/><rect class="cls-2" x="916.35" y="458.09" width="19.09" height="19.09"/><rect class="cls-2" x="954.57" y="572.83" width="19.09" height="19.09"/><rect class="cls-2" x="916.35" y="534.43" width="19.09" height="19.09"/><rect class="cls-2" x="954.57" y="649.18" width="19.09" height="19.09"/><rect class="cls-2" x="916.35" y="610.78" width="19.09" height="19.09"/><rect class="cls-2" x="954.57" y="725.52" width="19.09" height="19.09"/><rect class="cls-2" x="916.35" y="687.13" width="19.09" height="19.09"/><rect class="cls-2" x="954.57" y="801.87" width="19.09" height="19.09"/><rect class="cls-2" x="916.35" y="763.48" width="19.09" height="19.09"/><rect class="cls-2" x="954.57" y="878.22" width="19.09" height="19.09"/><rect class="cls-2" x="916.35" y="839.82" width="19.09" height="19.09"/><rect class="cls-2" x="954.57" y="954.57" width="19.09" height="19.09"/><rect class="cls-2" x="916.35" y="916.17" width="19.09" height="19.09"/><rect class="cls-2" x="878.22" y="38.39" width="19.09" height="19.09"/><rect class="cls-2" x="840" width="19.09" height="19.09"/><rect class="cls-2" x="878.22" y="114.74" width="19.09" height="19.09"/><rect class="cls-2" x="840" y="76.35" width="19.09" height="19.09"/><rect class="cls-2" x="878.22" y="191.09" width="19.09" height="19.09"/><rect class="cls-2" x="840" y="152.69" width="19.09" height="19.09"/><rect class="cls-2" x="878.22" y="267.44" width="19.09" height="19.09"/><rect class="cls-2" x="840" y="229.04" width="19.09" height="19.09"/><rect class="cls-2" x="878.22" y="343.78" width="19.09" height="19.09"/><rect class="cls-2" x="840" y="305.39" width="19.09" height="19.09"/><rect class="cls-2" x="878.22" y="420.13" width="19.09" height="19.09"/><rect class="cls-2" x="840" y="381.74" width="19.09" height="19.09"/><rect class="cls-2" x="878.22" y="496.48" width="19.09" height="19.09"/><rect class="cls-2" x="840" y="458.09" width="19.09" height="19.09"/><rect class="cls-2" x="878.22" y="572.83" width="19.09" height="19.09"/><rect class="cls-2" x="840" y="534.43" width="19.09" height="19.09"/><rect class="cls-2" x="878.22" y="649.18" width="19.09" height="19.09"/><rect class="cls-2" x="840" y="610.78" width="19.09" height="19.09"/><rect class="cls-2" x="878.22" y="725.52" width="19.09" height="19.09"/><rect class="cls-2" x="840" y="687.13" width="19.09" height="19.09"/><rect class="cls-2" x="878.22" y="801.87" width="19.09" height="19.09"/><rect class="cls-2" x="840" y="763.48" width="19.09" height="19.09"/><rect class="cls-2" x="878.22" y="878.22" width="19.09" height="19.09"/><rect class="cls-2" x="840" y="839.82" width="19.09" height="19.09"/><rect class="cls-2" x="801.87" y="38.39" width="19.09" height="19.09"/><rect class="cls-2" x="763.65" width="19.09" height="19.09"/><rect class="cls-2" x="801.87" y="114.74" width="19.09" height="19.09"/><rect class="cls-2" x="763.65" y="76.35" width="19.09" height="19.09"/><rect class="cls-2" x="801.87" y="191.09" width="19.09" height="19.09"/><rect class="cls-2" x="763.65" y="152.69" width="19.09" height="19.09"/><rect class="cls-2" x="801.87" y="267.44" width="19.09" height="19.09"/><rect class="cls-2" x="763.65" y="229.04" width="19.09" height="19.09"/><rect class="cls-2" x="801.87" y="343.78" width="19.09" height="19.09"/><rect class="cls-2" x="763.65" y="305.39" width="19.09" height="19.09"/><rect class="cls-2" x="801.87" y="420.13" width="19.09" height="19.09"/><rect class="cls-2" x="763.65" y="381.74" width="19.09" height="19.09"/><rect class="cls-2" x="801.87" y="496.48" width="19.09" height="19.09"/><rect class="cls-2" x="763.65" y="458.09" width="19.09" height="19.09"/><rect class="cls-2" x="801.87" y="572.83" width="19.09" height="19.09"/><rect class="cls-2" x="763.65" y="534.43" width="19.09" height="19.09"/><rect class="cls-2" x="801.87" y="649.18" width="19.09" height="19.09"/><rect class="cls-2" x="763.65" y="610.78" width="19.09" height="19.09"/><rect class="cls-2" x="801.87" y="725.52" width="19.09" height="19.09"/><rect class="cls-2" x="763.65" y="687.13" width="19.09" height="19.09"/><rect class="cls-2" x="801.87" y="801.87" width="19.09" height="19.09"/><rect class="cls-2" x="763.65" y="763.48" width="19.09" height="19.09"/><rect class="cls-2" x="725.52" y="38.39" width="19.09" height="19.09"/><rect class="cls-2" x="687.3" width="19.09" height="19.09"/><rect class="cls-2" x="725.52" y="114.74" width="19.09" height="19.09"/><rect class="cls-2" x="687.3" y="76.35" width="19.09" height="19.09"/><rect class="cls-2" x="725.52" y="191.09" width="19.09" height="19.09"/><rect class="cls-2" x="687.3" y="152.69" width="19.09" height="19.09"/><rect class="cls-2" x="725.52" y="267.44" width="19.09" height="19.09"/><rect class="cls-2" x="687.3" y="229.04" width="19.09" height="19.09"/><rect class="cls-2" x="725.52" y="343.78" width="19.09" height="19.09"/><rect class="cls-2" x="687.3" y="305.39" width="19.09" height="19.09"/><rect class="cls-2" x="725.52" y="420.13" width="19.09" height="19.09"/><rect class="cls-2" x="687.3" y="381.74" width="19.09" height="19.09"/><rect class="cls-2" x="725.52" y="496.48" width="19.09" height="19.09"/><rect class="cls-2" x="687.3" y="458.09" width="19.09" height="19.09"/><rect class="cls-2" x="725.52" y="572.83" width="19.09" height="19.09"/><rect class="cls-2" x="687.3" y="534.43" width="19.09" height="19.09"/><rect class="cls-2" x="725.52" y="649.18" width="19.09" height="19.09"/><rect class="cls-2" x="687.3" y="610.78" width="19.09" height="19.09"/><rect class="cls-2" x="725.52" y="725.52" width="19.09" height="19.09"/><rect class="cls-2" x="687.3" y="687.13" width="19.09" height="19.09"/><rect class="cls-2" x="649.18" y="38.39" width="19.09" height="19.09"/><rect class="cls-2" x="610.96" width="19.09" height="19.09"/><rect class="cls-2" x="649.18" y="114.74" width="19.09" height="19.09"/><rect class="cls-2" x="610.96" y="76.35" width="19.09" height="19.09"/><rect class="cls-2" x="649.18" y="191.09" width="19.09" height="19.09"/><rect class="cls-2" x="610.96" y="152.69" width="19.09" height="19.09"/><rect class="cls-2" x="649.18" y="267.44" width="19.09" height="19.09"/><rect class="cls-2" x="610.96" y="229.04" width="19.09" height="19.09"/><rect class="cls-2" x="649.18" y="343.78" width="19.09" height="19.09"/><rect class="cls-2" x="610.96" y="305.39" width="19.09" height="19.09"/><rect class="cls-2" x="649.18" y="420.13" width="19.09" height="19.09"/><rect class="cls-2" x="610.96" y="381.74" width="19.09" height="19.09"/><rect class="cls-2" x="649.18" y="496.48" width="19.09" height="19.09"/><rect class="cls-2" x="610.96" y="458.09" width="19.09" height="19.09"/><rect class="cls-2" x="649.18" y="572.83" width="19.09" height="19.09"/><rect class="cls-2" x="610.96" y="534.43" width="19.09" height="19.09"/><rect class="cls-2" x="649.18" y="649.18" width="19.09" height="19.09"/><rect class="cls-2" x="610.96" y="610.78" width="19.09" height="19.09"/><rect class="cls-2" x="572.83" y="38.39" width="19.09" height="19.09"/><rect class="cls-2" x="534.61" width="19.09" height="19.09"/><rect class="cls-2" x="572.83" y="114.74" width="19.09" height="19.09"/><rect class="cls-2" x="534.61" y="76.35" width="19.09" height="19.09"/><rect class="cls-2" x="572.83" y="191.09" width="19.09" height="19.09"/><rect class="cls-2" x="534.61" y="152.69" width="19.09" height="19.09"/><rect class="cls-2" x="572.83" y="267.44" width="19.09" height="19.09"/><rect class="cls-2" x="534.61" y="229.04" width="19.09" height="19.09"/><rect class="cls-2" x="572.83" y="343.78" width="19.09" height="19.09"/><rect class="cls-2" x="534.61" y="305.39" width="19.09" height="19.09"/><rect class="cls-2" x="572.83" y="420.13" width="19.09" height="19.09"/><rect class="cls-2" x="534.61" y="381.74" width="19.09" height="19.09"/><rect class="cls-2" x="572.83" y="496.48" width="19.09" height="19.09"/><rect class="cls-2" x="534.61" y="458.09" width="19.09" height="19.09"/><rect class="cls-2" x="572.83" y="572.83" width="19.09" height="19.09"/><rect class="cls-2" x="534.61" y="534.43" width="19.09" height="19.09"/><rect class="cls-2" x="496.48" y="38.39" width="19.09" height="19.09"/><rect class="cls-2" x="458.26" width="19.09" height="19.09"/><rect class="cls-2" x="496.48" y="114.74" width="19.09" height="19.09"/><rect class="cls-2" x="458.26" y="76.35" width="19.09" height="19.09"/><rect class="cls-2" x="496.48" y="191.09" width="19.09" height="19.09"/><rect class="cls-2" x="458.26" y="152.69" width="19.09" height="19.09"/><rect class="cls-2" x="496.48" y="267.44" width="19.09" height="19.09"/><rect class="cls-2" x="458.26" y="229.04" width="19.09" height="19.09"/><rect class="cls-2" x="496.48" y="343.78" width="19.09" height="19.09"/><rect class="cls-2" x="458.26" y="305.39" width="19.09" height="19.09"/><rect class="cls-2" x="496.48" y="420.13" width="19.09" height="19.09"/><rect class="cls-2" x="458.26" y="381.74" width="19.09" height="19.09"/><rect class="cls-2" x="496.48" y="496.48" width="19.09" height="19.09"/><rect class="cls-2" x="458.26" y="458.09" width="19.09" height="19.09"/><rect class="cls-2" x="420.13" y="38.39" width="19.09" height="19.09"/><rect class="cls-2" x="381.91" width="19.09" height="19.09"/><rect class="cls-2" x="420.13" y="114.74" width="19.09" height="19.09"/><rect class="cls-2" x="381.91" y="76.35" width="19.09" height="19.09"/><rect class="cls-2" x="420.13" y="191.09" width="19.09" height="19.09"/><rect class="cls-2" x="381.91" y="152.69" width="19.09" height="19.09"/><rect class="cls-2" x="420.13" y="267.44" width="19.09" height="19.09"/><rect class="cls-2" x="381.91" y="229.04" width="19.09" height="19.09"/><rect class="cls-2" x="420.13" y="343.78" width="19.09" height="19.09"/><rect class="cls-2" x="381.91" y="305.39" width="19.09" height="19.09"/><rect class="cls-2" x="420.13" y="420.13" width="19.09" height="19.09"/><rect class="cls-2" x="381.91" y="381.74" width="19.09" height="19.09"/><rect class="cls-2" x="343.79" y="38.39" width="19.09" height="19.09"/><rect class="cls-2" x="305.56" width="19.09" height="19.09"/><rect class="cls-2" x="343.79" y="114.74" width="19.09" height="19.09"/><rect class="cls-2" x="305.56" y="76.35" width="19.09" height="19.09"/><rect class="cls-2" x="343.79" y="191.09" width="19.09" height="19.09"/><rect class="cls-2" x="305.56" y="152.69" width="19.09" height="19.09"/><rect class="cls-2" x="343.79" y="267.44" width="19.09" height="19.09"/><rect class="cls-2" x="305.56" y="229.04" width="19.09" height="19.09"/><rect class="cls-2" x="343.79" y="343.78" width="19.09" height="19.09"/><rect class="cls-2" x="305.56" y="305.39" width="19.09" height="19.09"/><rect class="cls-2" x="267.44" y="38.39" width="19.09" height="19.09"/><rect class="cls-2" x="229.22" width="19.09" height="19.09"/><rect class="cls-2" x="267.44" y="114.74" width="19.09" height="19.09"/><rect class="cls-2" x="229.22" y="76.35" width="19.09" height="19.09"/><rect class="cls-2" x="267.44" y="191.09" width="19.09" height="19.09"/><rect class="cls-2" x="229.22" y="152.69" width="19.09" height="19.09"/><rect class="cls-2" x="267.44" y="267.44" width="19.09" height="19.09"/><rect class="cls-2" x="229.22" y="229.04" width="19.09" height="19.09"/><rect class="cls-2" x="191.09" y="38.39" width="19.09" height="19.09"/><rect class="cls-2" x="152.87" width="19.09" height="19.09"/><rect class="cls-2" x="191.09" y="114.74" width="19.09" height="19.09"/><rect class="cls-2" x="152.87" y="76.35" width="19.09" height="19.09"/><rect class="cls-2" x="191.09" y="191.09" width="19.09" height="19.09"/><rect class="cls-2" x="152.87" y="152.69" width="19.09" height="19.09"/><rect class="cls-2" x="114.74" y="38.39" width="19.09" height="19.09"/><rect class="cls-2" x="76.52" width="19.09" height="19.09"/><rect class="cls-2" x="114.74" y="114.74" width="19.09" height="19.09"/><rect class="cls-2" x="76.52" y="76.35" width="19.09" height="19.09"/><rect class="cls-2" x="38.39" y="38.39" width="19.09" height="19.09"/><rect class="cls-2" x="0.17" width="19.09" height="19.09"/></g></svg>