<svg id="Layer_1" data-name="Layer 1" xmlns="http://www.w3.org/2000/svg" viewBox="0 0 700 700"><defs><style>.cls-1{fill:#faf3ee;}</style></defs><title>home-bg-polkacorner2-almond2.30</title><rect class="cls-1" x="687.28" y="25.6" width="12.72" height="12.72"/><rect class="cls-1" x="661.8" width="12.72" height="12.72"/><rect class="cls-1" x="687.28" y="76.49" width="12.72" height="12.72"/><rect class="cls-1" x="661.8" y="50.9" width="12.72" height="12.72"/><rect class="cls-1" x="687.28" y="127.39" width="12.72" height="12.72"/><rect class="cls-1" x="661.8" y="101.8" width="12.72" height="12.72"/><rect class="cls-1" x="687.28" y="178.29" width="12.72" height="12.72"/><rect class="cls-1" x="661.8" y="152.7" width="12.72" height="12.72"/><rect class="cls-1" x="687.28" y="229.19" width="12.72" height="12.72"/><rect class="cls-1" x="661.8" y="203.59" width="12.72" height="12.72"/><rect class="cls-1" x="687.28" y="280.09" width="12.72" height="12.72"/><rect class="cls-1" x="661.8" y="254.49" width="12.72" height="12.72"/><rect class="cls-1" x="687.28" y="330.99" width="12.72" height="12.72"/><rect class="cls-1" x="661.8" y="305.39" width="12.72" height="12.72"/><rect class="cls-1" x="687.28" y="381.88" width="12.72" height="12.72"/><rect class="cls-1" x="661.8" y="356.29" width="12.72" height="12.72"/><rect class="cls-1" x="687.28" y="432.78" width="12.72" height="12.72"/><rect class="cls-1" x="661.8" y="407.19" width="12.72" height="12.72"/><rect class="cls-1" x="687.28" y="483.68" width="12.72" height="12.72"/><rect class="cls-1" x="661.8" y="458.09" width="12.72" height="12.72"/><rect class="cls-1" x="687.28" y="534.58" width="12.72" height="12.72"/><rect class="cls-1" x="661.8" y="508.98" width="12.72" height="12.72"/><rect class="cls-1" x="687.28" y="585.48" width="12.72" height="12.72"/><rect class="cls-1" x="661.8" y="559.88" width="12.72" height="12.72"/><rect class="cls-1" x="687.28" y="636.38" width="12.72" height="12.72"/><rect class="cls-1" x="661.8" y="610.78" width="12.72" height="12.72"/><rect class="cls-1" x="687.28" y="687.28" width="12.72" height="12.72"/><rect class="cls-1" x="661.8" y="661.68" width="12.72" height="12.72"/><rect class="cls-1" x="636.38" y="25.6" width="12.72" height="12.72"/><rect class="cls-1" x="610.9" width="12.72" height="12.72"/><rect class="cls-1" x="636.38" y="76.49" width="12.72" height="12.72"/><rect class="cls-1" x="610.9" y="50.9" width="12.72" height="12.72"/><rect class="cls-1" x="636.38" y="127.39" width="12.72" height="12.72"/><rect class="cls-1" x="610.9" y="101.8" width="12.72" height="12.72"/><rect class="cls-1" x="636.38" y="178.29" width="12.72" height="12.72"/><rect class="cls-1" x="610.9" y="152.7" width="12.72" height="12.72"/><rect class="cls-1" x="636.38" y="229.19" width="12.72" height="12.72"/><rect class="cls-1" x="610.9" y="203.59" width="12.72" height="12.72"/><rect class="cls-1" x="636.38" y="280.09" width="12.72" height="12.72"/><rect class="cls-1" x="610.9" y="254.49" width="12.72" height="12.72"/><rect class="cls-1" x="636.38" y="330.99" width="12.72" height="12.72"/><rect class="cls-1" x="610.9" y="305.39" width="12.72" height="12.72"/><rect class="cls-1" x="636.38" y="381.88" width="12.72" height="12.72"/><rect class="cls-1" x="610.9" y="356.29" width="12.72" height="12.72"/><rect class="cls-1" x="636.38" y="432.78" width="12.72" height="12.72"/><rect class="cls-1" x="610.9" y="407.19" width="12.72" height="12.72"/><rect class="cls-1" x="636.38" y="483.68" width="12.72" height="12.72"/><rect class="cls-1" x="610.9" y="458.09" width="12.72" height="12.72"/><rect class="cls-1" x="636.38" y="534.58" width="12.72" height="12.72"/><rect class="cls-1" x="610.9" y="508.98" width="12.72" height="12.72"/><rect class="cls-1" x="636.38" y="585.48" width="12.72" height="12.72"/><rect class="cls-1" x="610.9" y="559.88" width="12.72" height="12.72"/><rect class="cls-1" x="636.38" y="636.38" width="12.72" height="12.72"/><rect class="cls-1" x="610.9" y="610.78" width="12.72" height="12.72"/><rect class="cls-1" x="585.48" y="25.6" width="12.72" height="12.72"/><rect class="cls-1" x="560" width="12.72" height="12.72"/><rect class="cls-1" x="585.48" y="76.49" width="12.72" height="12.72"/><rect class="cls-1" x="560" y="50.9" width="12.72" height="12.72"/><rect class="cls-1" x="585.48" y="127.39" width="12.72" height="12.72"/><rect class="cls-1" x="560" y="101.8" width="12.72" height="12.72"/><rect class="cls-1" x="585.48" y="178.29" width="12.72" height="12.72"/><rect class="cls-1" x="560" y="152.7" width="12.72" height="12.72"/><rect class="cls-1" x="585.48" y="229.19" width="12.72" height="12.72"/><rect class="cls-1" x="560" y="203.59" width="12.72" height="12.72"/><rect class="cls-1" x="585.48" y="280.09" width="12.72" height="12.72"/><rect class="cls-1" x="560" y="254.49" width="12.72" height="12.72"/><rect class="cls-1" x="585.48" y="330.99" width="12.72" height="12.72"/><rect class="cls-1" x="560" y="305.39" width="12.72" height="12.72"/><rect class="cls-1" x="585.48" y="381.88" width="12.72" height="12.72"/><rect class="cls-1" x="560" y="356.29" width="12.72" height="12.72"/><rect class="cls-1" x="585.48" y="432.78" width="12.72" height="12.72"/><rect class="cls-1" x="560" y="407.19" width="12.72" height="12.72"/><rect class="cls-1" x="585.48" y="483.68" width="12.72" height="12.72"/><rect class="cls-1" x="560" y="458.09" width="12.72" height="12.72"/><rect class="cls-1" x="585.48" y="534.58" width="12.72" height="12.72"/><rect class="cls-1" x="560" y="508.98" width="12.72" height="12.72"/><rect class="cls-1" x="585.48" y="585.48" width="12.72" height="12.72"/><rect class="cls-1" x="560" y="559.88" width="12.72" height="12.72"/><rect class="cls-1" x="534.58" y="25.6" width="12.72" height="12.72"/><rect class="cls-1" x="509.1" width="12.72" height="12.72"/><rect class="cls-1" x="534.58" y="76.49" width="12.72" height="12.72"/><rect class="cls-1" x="509.1" y="50.9" width="12.72" height="12.72"/><rect class="cls-1" x="534.58" y="127.39" width="12.72" height="12.72"/><rect class="cls-1" x="509.1" y="101.8" width="12.72" height="12.72"/><rect class="cls-1" x="534.58" y="178.29" width="12.72" height="12.72"/><rect class="cls-1" x="509.1" y="152.7" width="12.72" height="12.72"/><rect class="cls-1" x="534.58" y="229.19" width="12.72" height="12.72"/><rect class="cls-1" x="509.1" y="203.59" width="12.72" height="12.72"/><rect class="cls-1" x="534.58" y="280.09" width="12.72" height="12.72"/><rect class="cls-1" x="509.1" y="254.49" width="12.72" height="12.72"/><rect class="cls-1" x="534.58" y="330.99" width="12.72" height="12.72"/><rect class="cls-1" x="509.1" y="305.39" width="12.72" height="12.72"/><rect class="cls-1" x="534.58" y="381.88" width="12.72" height="12.72"/><rect class="cls-1" x="509.1" y="356.29" width="12.72" height="12.72"/><rect class="cls-1" x="534.58" y="432.78" width="12.72" height="12.72"/><rect class="cls-1" x="509.1" y="407.19" width="12.72" height="12.72"/><rect class="cls-1" x="534.58" y="483.68" width="12.72" height="12.72"/><rect class="cls-1" x="509.1" y="458.09" width="12.72" height="12.72"/><rect class="cls-1" x="534.58" y="534.58" width="12.72" height="12.72"/><rect class="cls-1" x="509.1" y="508.98" width="12.72" height="12.72"/><rect class="cls-1" x="483.68" y="25.6" width="12.72" height="12.72"/><rect class="cls-1" x="458.2" width="12.72" height="12.72"/><rect class="cls-1" x="483.68" y="76.49" width="12.72" height="12.72"/><rect class="cls-1" x="458.2" y="50.9" width="12.72" height="12.72"/><rect class="cls-1" x="483.68" y="127.39" width="12.72" height="12.72"/><rect class="cls-1" x="458.2" y="101.8" width="12.72" height="12.72"/><rect class="cls-1" x="483.68" y="178.29" width="12.72" height="12.72"/><rect class="cls-1" x="458.2" y="152.7" width="12.72" height="12.72"/><rect class="cls-1" x="483.68" y="229.19" width="12.72" height="12.72"/><rect class="cls-1" x="458.2" y="203.59" width="12.72" height="12.72"/><rect class="cls-1" x="483.68" y="280.09" width="12.72" height="12.72"/><rect class="cls-1" x="458.2" y="254.49" width="12.72" height="12.72"/><rect class="cls-1" x="483.68" y="330.99" width="12.72" height="12.72"/><rect class="cls-1" x="458.2" y="305.39" width="12.72" height="12.72"/><rect class="cls-1" x="483.68" y="381.88" width="12.72" height="12.72"/><rect class="cls-1" x="458.2" y="356.29" width="12.72" height="12.72"/><rect class="cls-1" x="483.68" y="432.78" width="12.72" height="12.72"/><rect class="cls-1" x="458.2" y="407.19" width="12.72" height="12.72"/><rect class="cls-1" x="483.68" y="483.68" width="12.72" height="12.72"/><rect class="cls-1" x="458.2" y="458.09" width="12.72" height="12.72"/><rect class="cls-1" x="432.78" y="25.6" width="12.72" height="12.72"/><rect class="cls-1" x="407.3" width="12.72" height="12.72"/><rect class="cls-1" x="432.78" y="76.49" width="12.72" height="12.72"/><rect class="cls-1" x="407.3" y="50.9" width="12.72" height="12.72"/><rect class="cls-1" x="432.78" y="127.39" width="12.72" height="12.72"/><rect class="cls-1" x="407.3" y="101.8" width="12.72" height="12.72"/><rect class="cls-1" x="432.78" y="178.29" width="12.72" height="12.72"/><rect class="cls-1" x="407.3" y="152.7" width="12.72" height="12.72"/><rect class="cls-1" x="432.78" y="229.19" width="12.72" height="12.72"/><rect class="cls-1" x="407.3" y="203.59" width="12.72" height="12.72"/><rect class="cls-1" x="432.78" y="280.09" width="12.72" height="12.72"/><rect class="cls-1" x="407.3" y="254.49" width="12.72" height="12.72"/><rect class="cls-1" x="432.78" y="330.99" width="12.72" height="12.72"/><rect class="cls-1" x="407.3" y="305.39" width="12.72" height="12.72"/><rect class="cls-1" x="432.78" y="381.88" width="12.72" height="12.72"/><rect class="cls-1" x="407.3" y="356.29" width="12.72" height="12.72"/><rect class="cls-1" x="432.78" y="432.78" width="12.72" height="12.72"/><rect class="cls-1" x="407.3" y="407.19" width="12.72" height="12.72"/><rect class="cls-1" x="381.89" y="25.6" width="12.72" height="12.72"/><rect class="cls-1" x="356.41" width="12.72" height="12.72"/><rect class="cls-1" x="381.89" y="76.49" width="12.72" height="12.72"/><rect class="cls-1" x="356.41" y="50.9" width="12.72" height="12.72"/><rect class="cls-1" x="381.89" y="127.39" width="12.72" height="12.72"/><rect class="cls-1" x="356.41" y="101.8" width="12.72" height="12.72"/><rect class="cls-1" x="381.89" y="178.29" width="12.72" height="12.72"/><rect class="cls-1" x="356.41" y="152.7" width="12.72" height="12.72"/><rect class="cls-1" x="381.89" y="229.19" width="12.72" height="12.72"/><rect class="cls-1" x="356.41" y="203.59" width="12.72" height="12.72"/><rect class="cls-1" x="381.89" y="280.09" width="12.72" height="12.72"/><rect class="cls-1" x="356.41" y="254.49" width="12.72" height="12.72"/><rect class="cls-1" x="381.89" y="330.99" width="12.72" height="12.72"/><rect class="cls-1" x="356.41" y="305.39" width="12.72" height="12.72"/><rect class="cls-1" x="381.89" y="381.88" width="12.72" height="12.72"/><rect class="cls-1" x="356.41" y="356.29" width="12.72" height="12.72"/><rect class="cls-1" x="330.99" y="25.6" width="12.72" height="12.72"/><rect class="cls-1" x="305.51" width="12.72" height="12.72"/><rect class="cls-1" x="330.99" y="76.49" width="12.72" height="12.72"/><rect class="cls-1" x="305.51" y="50.9" width="12.72" height="12.72"/><rect class="cls-1" x="330.99" y="127.39" width="12.72" height="12.72"/><rect class="cls-1" x="305.51" y="101.8" width="12.72" height="12.72"/><rect class="cls-1" x="330.99" y="178.29" width="12.72" height="12.72"/><rect class="cls-1" x="305.51" y="152.7" width="12.72" height="12.72"/><rect class="cls-1" x="330.99" y="229.19" width="12.72" height="12.72"/><rect class="cls-1" x="305.51" y="203.59" width="12.72" height="12.72"/><rect class="cls-1" x="330.99" y="280.09" width="12.72" height="12.72"/><rect class="cls-1" x="305.51" y="254.49" width="12.72" height="12.72"/><rect class="cls-1" x="330.99" y="330.99" width="12.72" height="12.72"/><rect class="cls-1" x="305.51" y="305.39" width="12.72" height="12.72"/><rect class="cls-1" x="280.09" y="25.6" width="12.72" height="12.72"/><rect class="cls-1" x="254.61" width="12.72" height="12.72"/><rect class="cls-1" x="280.09" y="76.49" width="12.72" height="12.72"/><rect class="cls-1" x="254.61" y="50.9" width="12.72" height="12.72"/><rect class="cls-1" x="280.09" y="127.39" width="12.72" height="12.72"/><rect class="cls-1" x="254.61" y="101.8" width="12.72" height="12.72"/><rect class="cls-1" x="280.09" y="178.29" width="12.72" height="12.72"/><rect class="cls-1" x="254.61" y="152.7" width="12.72" height="12.72"/><rect class="cls-1" x="280.09" y="229.19" width="12.72" height="12.72"/><rect class="cls-1" x="254.61" y="203.59" width="12.72" height="12.72"/><rect class="cls-1" x="280.09" y="280.09" width="12.72" height="12.72"/><rect class="cls-1" x="254.61" y="254.49" width="12.72" height="12.72"/><rect class="cls-1" x="229.19" y="25.6" width="12.72" height="12.72"/><rect class="cls-1" x="203.71" width="12.72" height="12.72"/><rect class="cls-1" x="229.19" y="76.49" width="12.72" height="12.72"/><rect class="cls-1" x="203.71" y="50.9" width="12.72" height="12.72"/><rect class="cls-1" x="229.19" y="127.39" width="12.72" height="12.72"/><rect class="cls-1" x="203.71" y="101.8" width="12.72" height="12.72"/><rect class="cls-1" x="229.19" y="178.29" width="12.72" height="12.72"/><rect class="cls-1" x="203.71" y="152.7" width="12.72" height="12.72"/><rect class="cls-1" x="229.19" y="229.19" width="12.72" height="12.72"/><rect class="cls-1" x="203.71" y="203.59" width="12.72" height="12.72"/><rect class="cls-1" x="178.29" y="25.6" width="12.72" height="12.72"/><rect class="cls-1" x="152.81" width="12.72" height="12.72"/><rect class="cls-1" x="178.29" y="76.49" width="12.72" height="12.72"/><rect class="cls-1" x="152.81" y="50.9" width="12.72" height="12.72"/><rect class="cls-1" x="178.29" y="127.39" width="12.72" height="12.72"/><rect class="cls-1" x="152.81" y="101.8" width="12.72" height="12.72"/><rect class="cls-1" x="178.29" y="178.29" width="12.72" height="12.72"/><rect class="cls-1" x="152.81" y="152.7" width="12.72" height="12.72"/><rect class="cls-1" x="127.39" y="25.6" width="12.72" height="12.72"/><rect class="cls-1" x="101.91" width="12.72" height="12.72"/><rect class="cls-1" x="127.39" y="76.49" width="12.72" height="12.72"/><rect class="cls-1" x="101.91" y="50.9" width="12.72" height="12.72"/><rect class="cls-1" x="127.39" y="127.39" width="12.72" height="12.72"/><rect class="cls-1" x="101.91" y="101.8" width="12.72" height="12.72"/><rect class="cls-1" x="76.5" y="25.6" width="12.72" height="12.72"/><rect class="cls-1" x="51.01" width="12.72" height="12.72"/><rect class="cls-1" x="76.5" y="76.49" width="12.72" height="12.72"/><rect class="cls-1" x="51.01" y="50.9" width="12.72" height="12.72"/><rect class="cls-1" x="25.6" y="25.6" width="12.72" height="12.72"/><rect class="cls-1" x="0.11" width="12.72" height="12.72"/></svg>