<svg xmlns="http://www.w3.org/2000/svg" xmlns:xlink="http://www.w3.org/1999/xlink" width="400" height="75" viewBox="0 0 400 75"><defs><style>.cls-1{fill:none;}.cls-2{fill:#7c7d98;}.cls-3{isolation:isolate;}.cls-4{mix-blend-mode:multiply;}.cls-5,.cls-6,.cls-7,.cls-8,.cls-9{stroke:#7c7d98;stroke-linecap:round;stroke-linejoin:round;stroke-width:1.25px;}.cls-5{fill:url(#_6_lpi_30_11);}.cls-6{fill:url(#_6_lpi_30_11-3);}.cls-7{fill:url(#_6_lpi_30_11-5);}.cls-8{fill:url(#_6_lpi_30_11-7);}.cls-9{fill:url(#_6_lpi_30_11-9);}</style><pattern id="_6_lpi_30_11" data-name="6 lpi 30% 11" width="4" height="4" patternTransform="translate(22.52 48.73) scale(1.52)" patternUnits="userSpaceOnUse" viewBox="0 0 4 4"><rect class="cls-1" width="4" height="4"/><rect class="cls-2" x="2.5" y="2.51" width="1" height="1"/><rect class="cls-2" x="0.5" y="0.49" width="1" height="1"/></pattern><pattern id="_6_lpi_30_11-3" data-name="6 lpi 30% 11" width="4" height="4" patternTransform="translate(27.38 48.73) scale(1.52)" patternUnits="userSpaceOnUse" viewBox="0 0 4 4"><rect class="cls-1" width="4" height="4"/><rect class="cls-2" x="2.5" y="2.51" width="1" height="1"/><rect class="cls-2" x="0.5" y="0.49" width="1" height="1"/></pattern><pattern id="_6_lpi_30_11-5" data-name="6 lpi 30% 11" width="4" height="4" patternTransform="translate(32.25 48.73) scale(1.52)" patternUnits="userSpaceOnUse" viewBox="0 0 4 4"><rect class="cls-1" width="4" height="4"/><rect class="cls-2" x="2.5" y="2.51" width="1" height="1"/><rect class="cls-2" x="0.5" y="0.49" width="1" height="1"/></pattern><pattern id="_6_lpi_30_11-7" data-name="6 lpi 30% 11" width="4" height="4" patternTransform="translate(37.11 48.73) scale(1.52)" patternUnits="userSpaceOnUse" viewBox="0 0 4 4"><rect class="cls-1" width="4" height="4"/><rect class="cls-2" x="2.5" y="2.51" width="1" height="1"/><rect class="cls-2" x="0.5" y="0.49" width="1" height="1"/></pattern><pattern id="_6_lpi_30_11-9" data-name="6 lpi 30% 11" width="4" height="4" patternTransform="translate(41.98 48.73) scale(1.52)" patternUnits="userSpaceOnUse" viewBox="0 0 4 4"><rect class="cls-1" width="4" height="4"/><rect class="cls-2" x="2.5" y="2.51" width="1" height="1"/><rect class="cls-2" x="0.5" y="0.49" width="1" height="1"/></pattern></defs><title>reviews-5stars-mauveblue</title><g class="cls-3"><g id="Layer_1" data-name="Layer 1"><g class="cls-4"><polygon class="cls-5" points="40.2 2.14 48.98 29.15 77.38 29.15 54.4 45.85 63.18 72.86 40.2 56.17 17.22 72.86 26 45.85 3.02 29.15 31.42 29.15 40.2 2.14"/><polygon class="cls-6" points="120.1 2.14 128.88 29.15 157.28 29.15 134.3 45.85 143.08 72.86 120.1 56.17 97.12 72.86 105.9 45.85 82.92 29.15 111.32 29.15 120.1 2.14"/><polygon class="cls-7" points="200 2.14 208.78 29.15 237.18 29.15 214.2 45.85 222.98 72.86 200 56.17 177.02 72.86 185.8 45.85 162.82 29.15 191.22 29.15 200 2.14"/><polygon class="cls-8" points="279.9 2.14 288.68 29.15 317.08 29.15 294.1 45.85 302.88 72.86 279.9 56.17 256.92 72.86 265.7 45.85 242.72 29.15 271.12 29.15 279.9 2.14"/><polygon class="cls-9" points="359.8 2.14 368.58 29.15 396.98 29.15 374 45.85 382.78 72.86 359.8 56.17 336.82 72.86 345.6 45.85 322.62 29.15 351.02 29.15 359.8 2.14"/></g></g></g></svg>