<svg id="elements" preserveAspectRatio="none" xmlns="http://www.w3.org/2000/svg" viewBox="0 0 1260 62"><defs><style>.cls-1{fill:#ffebdf;}</style></defs><title>rip-home-video</title><path class="cls-1" d="M1249.57,1.25c-1.5.2-3.06.49-4.68.83s-3.32,1-5.08,1.16A13.79,13.79,0,0,1,1234,5.29c-2.16.76-4.43,1.29-5.13,3-1.06.3-4-.06-.85.93-1.6.32-2.59.62-.85.79-5,.44-1,.9-5.26,1.21-2.56,1-5,1-7.46,2.12-1.4-.06-2.62,1-3.64,1.7a3.94,3.94,0,0,0-2.88,2c-1.08.71-3.1-.2-4.49,1.41-.78.24-1.91.27-2.74.47,1,.57-2.52,0-4.52-.71-2.09.88-6.14.07-9.74-.15-3.28.06-6.82.81-10.34.23a19.51,19.51,0,0,0-6.86-1.53c-2.85.71-1.64-1.26-3.62-.68a7.13,7.13,0,0,0-4.23-.08c-.75.07-2.52.75-4,.54-1.77,0-4.66-.64-6.18,0-4.08.08-5.69.66-7.13,1.28a23.67,23.67,0,0,1-5.85,1.5,20.83,20.83,0,0,0-4.79.16c-1.5.16-3.83-.09-5.86-.08a30,30,0,0,1-5.22.93,23,23,0,0,0-5.07,2c-2.37,1.48-4.07,1.15-7,1.64-2.51.09-3.06.79-5.43.64s-1,.48-3.65.42c-1.65.16-4.26.25-6.93.46-.83.1-2.35,0-2.24.7-.29.46-2.75.59-5,.82-1.76.77-4.77.72-7,1.1s-4.18,1-5.79,0c-2.71-.07-5-.07-6.78.07a29,29,0,0,0-5.07,1.06c-3.39-.23-6.35,1.15-8.51,2A27.88,27.88,0,0,1,1047,33c-3.1-.07-5.3.94-7.71.92-3.15,2.56-6.72,1.23-9,1.34a11.89,11.89,0,0,0-9.74-1.13c-2.15.19-4-.06-6.49.65-3.55,2.77-3-.65-5.38.39-1.57-.53-5.12,2.05-6.59.27a9.79,9.79,0,0,0-6-.87c-3.62-.66-8.62,0-12.37.66-1,.22-3.85-.3-4.66.27-1.86.29-3.38-.25-5-.17a15.49,15.49,0,0,1-4.71,0,41.07,41.07,0,0,1-4.51.52c-.5.16.6.52-1.84.42s.22.33-3.32.34c-.85.15-1.13.33-6.26,1.12A10.12,10.12,0,0,1,950,39.67c-1,1.46-2.23,3.81-4.36,3.73-2.36-1.06-3.28,1.6-4.75-1.19-1.11-.37-1.79.35-2.25-.1-2.44-.58-4.46-.12-6.3-.59a11.44,11.44,0,0,1-6.79-.14c-1.58.72-4,.93-7.08,1.52-3.24-.28-7.29-1.43-11.69,0-3.88.29-7.33.66-10.84,1s-7.08.54-11.19.56c-2.74-.3-5-.49-7-.59a35.14,35.14,0,0,1-5.41-.11c-1.93-.48-4,1-6.12.52-2.08,2.53-4.14.4-6,1.42-2.44.37-5,.39-7.72,1.21-2.74-.73-5.66.33-8.86,1.39-3.2.88-6.68.36-10.53,1.35-4.94-.2-9.15-1.77-12.81-.86-3.66-.58-6.74-1.79-9.46-2.36s-4.9-1.28-7.32-1.84a28.11,28.11,0,0,0-8.54-.7c-5.05-1-7.9-3-12.48-3.36-4.6,1.38-8.51,2.91-13.8,3.89a10,10,0,0,1-3.92-1c-.92-.33-2.31-.64-6.94-1.19a12.33,12.33,0,0,1-6.82-.65c-2.54-.11-5.66-.31-8.32.51-7.26.69-9.3,2.86-12,.64-2.33-.35-4.48.06-10.87-.26a20,20,0,0,1-6,1.1c-1.91.08-3.76-.43-5.49.31-1.78.58-3.51-1.88-5.15-.4-1.64-1.58-3.2.36-4.7-1.06-1.51,1.84-2.95.41-4.35-.58-1.41.73-2.77-1.49-4.12-2.35-2.42-.06-4.73-1.46-7.12,0A28.89,28.89,0,0,1,675,39.4c-6.53,0-9.27-.91-10.37-1.43-8.2-.22-6.82-.48-7.85-.58-4.06.3-5.84.39-5.16.07-3.61.36-4.37,0-7.32-.05-2.56-.52-4.68-.38-6.54-1.84-.29-2.09-4.27-.93-6.68-1.33-1.49-.71-4.31-.73-6.23-1.23a61.93,61.93,0,0,1-7.22-.42c.67-.5.3-1.43-2.64-.93-2.4.44-4-.3-3.93-1.57-1.16-.16-2.44-.55-3.87-.9a18.79,18.79,0,0,0-4.54-.66c-1.52.06-3-1-4.48-1.67-1.44-.28-2.8-2.08-4-1.64-1.43.51-2.85-3.7-4.28-2.9C588.44,22,587,21.22,585.6,21c-2.84-.57-5.67,1.21-8.51-.86-2.81.23-5.63-1.86-8.46-2.44a5.86,5.86,0,0,0-4.25-.66c-1.43.24-2.88.8-4.34,1.15-2.93-.24-6,2.13-9.28,2.25-3.25,1.79-6.51-.2-9.49,1.56-1.34-.66-3.48-.26-5.17-.67A4.39,4.39,0,0,0,532.73,20c-2.91-.6-4.69-1.65-7.2-2.09-3.35.21-5.12-1.17-8-1.35s-6-1.09-9-.84c-2.88.48-5.4,1.07-8.4.47-1.36.06-2.8-.79-4.19-.36a8.21,8.21,0,0,0-3.25-1.08c-1.56-.66-3.31-.49-5.11-.43a24.43,24.43,0,0,0-3.25.47,56.49,56.49,0,0,1-7.66,1.11c-13.89,1.48-17.43,1.67-20.31,1.65a33,33,0,0,0-9.22.58,16.15,16.15,0,0,1-9.79.65c-3.46-.26-6.94,1-10.39,1.52-3.41.77-7,3.29-10.35,1.48-3.4,2-6.62-.28-9.36-1.41q-2.73.07-5.52,0a55.18,55.18,0,0,0-5.61-.31c-1.89-.6-3.79.24-5.71-.69a48.1,48.1,0,0,0-5.8-1.08c-4.56-.37-8.93-.57-13.26.41-4.33-1.51-8.61-1.64-13-1.78-3.16,0-6.31,0-9.45,0l-9.36-.11c-3.13,0-6.14.92-9.21,1.39-3.08,1.65-6.21.46-9.57-1.42-3.13-2.35-6.3.84-9.49,1.14-3.2,0-6.42,3.38-9.66,1.12-3.21.27-6.42,1.34-9.53.2-3.18,1.26-5.82,0-9.86.83-3.4,0-6.22-.21-8.68-.4s-4.05-.31-6.28-.46c-4.3-.07-6.07-.15-6.08-.39-1.24-.13-5.14.61-4.35-.17-1.75.08-3.68.46-4.88.52a12.14,12.14,0,0,0-4,.27c-1.13-.49-3.11,0-5.13.12s-4.64,1.3-7.42.15a23.54,23.54,0,0,1-9.81.5c-2.72-.7-5-1.33-7-.78a24.34,24.34,0,0,0-5.35-1.11c-1.64-.35-3.19-.34-4.84-1.15-3.12-.29-6.53-.05-10.12-2.26a37.11,37.11,0,0,0-5.51-1,16.05,16.05,0,0,1-5.71-1.76c-2.53-1.06-4.81-2.63-6.94-1.23-2.12-.71-4.11,1.09-6.06-.17-2,0-3.88-.42-5.89,0-2,0-4.11,1.19-6.41-.56a29.65,29.65,0,0,0-12.2,1.25,28.85,28.85,0,0,1-11.18-.33c-2.35-.48-4.87.2-7.33-.57a15.19,15.19,0,0,1-3.77-1C126,8.82,124.49,9.37,123,8c-2.4.73-4.71,0-7.17,0-2.3-.41-5.11.33-7.4-.33-2.46-1.29-5.4.22-8-.23-3.71,2.38-6.55.66-9.71-.19-4.15.57-9.67,1.67-11.07,1.38-1.8,0-6.75.82-7.8.6-1.93.6-2.57,1.07-3.55.25-.8,1-2.44.07-3.43-.36a15.12,15.12,0,0,1-5.05-1.08c-3.3-.28-5-.85-6-1.46-2.7-.06-2.89-1-5.56-.78A4.58,4.58,0,0,0,43.37,5c-1.49-.48-3.75.5-5-.22-1.71,0-3.37-.4-5.11,0-2.79.88-5.53-1.26-8.29-1.46a40.22,40.22,0,0,0-8.21.25C11.12.85,6.62,1.73,1.38.53.92.51.46.47,0,.43V62H1260V2C1256.91,1.88,1253.42.9,1249.57,1.25Z"/></svg>