<svg id="elements" preserveAspectRatio="none" xmlns="http://www.w3.org/2000/svg" viewBox="0 0 1400 40"><defs><style>.cls-1{fill:#f8efe9;}</style></defs><title>rip-company-meettheteam</title><path class="cls-1" d="M1381,17.09c-.22-.09.11-1.27-.13-1.29-3.18-.21-6.71.38-9.89.16-3.6-.25-15.26-1.65-23.32-2.22-5.78-.41-10.94-.88-16.6-1,1.07,0-1.53,2.08-3.17,1.34-.19-.09.08-1.28-.13-1.29-7.89-.36-25.1,1.08-33.08-.77-1.87-.44.39-1.22-3.42-1.24-5.33,0-5.73-.84-10-1.14-3.11-.21-6.83.46-9.88.16-1-.1-.28-1.23-3.43-1.24-3.86,0-9.48.61-13.17.21-1.15-.13-.18-1.23-3.43-1.24-2.7,0-3.41-1.4-6.72-1.19a78.62,78.62,0,0,1-19.5,2.89c.7,0-1.6-1.23-3.43-1.24-5.35,0-5.69-.93-10-1.13-5.31-.25-11.22.65-16.47.26-.69,0-.53-1.23-3.42-1.24-4.66,0-9.32.52-10-1.14q-3-2.74-10.28-3.71c-7.17,2.38-24.72,1-32.68,3.1-12.12.9-11.73,1.38-29.52,1.75,1.16,1.33-1.72.94-3.16,1.35-2.77.79-3.37,1.84-6.32,2.68-3.38,1-12.72,3.76-15.81,6.72-14.71-1.62-20.58.91-39.53.62-1.69,2.78-10,3.26-16.08,4.13-6,.85-14.47.87-19.64,1.6-.52.07-.9,1.09-3.16,1.34-2,.23-4.63-.18-6.59.11-1.13.17.1,1.22-3.16,1.34-5.27.19-14.54,1.17-19.5,2.89-.56-1.68-6.27-.75-10-1.13-2.74-.28-3.49-.95-6.73-1.19-6.28-.46-12.28.7-16.6-1-14.11,2.94-27.6,2.94-49.28,2.07-1,0-6,.36-6.59.1-.23-.1.13-1.27-.13-1.29-4.07-.32-12.59-1-16.61-1-6.1-.06-9.38,1.32-16.34,1.55-4.06.13-7.4-2.6-13.17.21l-36.24.57c-2.78.28-3.16-.46-3.43-1.24-.95-2.06-8.69-.52-13.31-1.09-3.73-.45-1.17-.42-3.43-1.24A122.4,122.4,0,0,0,764.12,19c-2,1.77-6.79,2.52-12.91,2.79,2.71,3.47-15.63-.68-12.92,2.79-2.8-1.56-7.59,0-13.17.21-5,.17-13.59-.18-19.77.31.55,0-1.72,1.18-3.16,1.34-4.93.57-12.84-.71-13.05,1.5-4.24,1.36-12.13,1.41-12.78,4.08-9.61.49-10.42-2.76-20-2.27-3.11,2.19-13.85,1.62-19.5,2.89-14.06-2.56-31.16-3.83-49.94-4.38.47-1.56-5-.57-6.73-1.19-.42-.16.37-1.19-.13-1.29-1.23-.25-5.72.48-6.58.1-.46-.2.41-1.14-.14-1.29-1.23-.33-1.61-.81-3.42-1.24-3.63-.87-6-1.83-10.15-2.43-19.32,1.89-32.79-3.71-49.95-4.38-10.25-.41-21.2,1.53-32.81,1.81-2.92.07-7.51-1.25-13.31-1.09-7.55.22-10.52,2.23-22.93,1.66.63,0-1.74-2.14-3.42-1.24-.16.08.31,1.28.13,1.29-3,.18-7-.23-9.89.15-1.06.15-4.24,1.37-3.16,1.35-7.35.17-16-2.16-29.78-.83-1.27,1.9-2.91-.08-6.59.11-4.29,3.26-11.11,2.45-19.63,1.6-17.93-1.51-13.3,5.13-29.25,4.34-17.68-.18-26.87,2.71-39.14,4.49-8,4.42-24.75-1.33-36.24.57-.81.14.21,2-3.16,1.35-6.37-.29-13.24,1.76-19.63,1.6s-7.45-1.13-13.44-2.38c-2.23-.46-4.37-.65-6.72-1.18-1.27-.29-3-1.16-3.43-1.24-1.23-.22-5.75.47-6.59.1-2.65-1.17-2.59-1.91-6.85-2.48-2.89-.38-7,.58-9.89.16-1.15-.18-.63-1-3.42-1.24-5-.41-7.88-1.32-13.32-1.08-3,.13-4.82,1.58-9.74,1.44a132.33,132.33,0,0,1-13.32-1.08c-2.58-.3-6.49-.6-10-1.14-1.2-.18-5.79.46-6.59.11-1.6-.71-1.87-1.82-3.56-2.53-3.79-1.62-4.16-2.26-10.28-3.72-2.65-.63-8-1.32-10.28-3.72-1.2-1.73-8.36-.94-13.31-1.08-.48,1.47-3.23.77-3.29.05-3.21,0-2.72-1.54-3.56-2.53-6.21.24-1.85,4.3-9.49,4-2.77-.62-10.89,1-13.18.21A11.82,11.82,0,0,0,64,13.25c-2.87.33-5.55,1-9.75,1.44-4.89.57-3.34,2.67-12.91,2.79a39.61,39.61,0,0,0-10.15-2.42c-.26-2.11-6.34-2.15-10.28-3.72-1-.41.89-2.24-.26-2.58s-5.42.52-6.59.1c-.5-.18.42-1.15-.14-1.29A102.41,102.41,0,0,0,0,5.38V40H1400V17.4L1387.55,17C1386.56,17,1381.54,17.35,1381,17.09Z"/></svg>