<svg id="OUTLINED" xmlns="http://www.w3.org/2000/svg" width="110" height="110" viewBox="0 0 110 110"><defs><style>.cls-1{fill:#105754;}.cls-2{fill:none;stroke:#105754;stroke-miterlimit:10;}</style></defs><title>stamp-innovative-educationmodel-outer</title><path class="cls-1" d="M96.24,64.36l-1-.14.86-5.86,8.58,1.26-.82,5.63-1-.14.67-4.59-2.83-.41-.53,3.62-.94-.13L99.84,60,97,59.55Z"/><path class="cls-1" d="M94.75,66.36l8.13,3.06-1,2.68A4.34,4.34,0,0,1,93.74,69Zm.54,1.33-.67,1.76a3.07,3.07,0,0,0,2,4.16,3,3,0,0,0,4.26-1.78l.66-1.76Z"/><path class="cls-1" d="M93.2,77.88a2.35,2.35,0,1,0-2.63,3.9l4.5,3-.6.88-4.49-3A3.4,3.4,0,0,1,93.78,77l4.5,3-.58.87Z"/><path class="cls-1" d="M82.54,89.34l-.85.78a3.83,3.83,0,0,1,1-4.73c1.81-1.66,4.24-1.45,6,.47s1.84,4.43,0,6.12a3.78,3.78,0,0,1-4.78.54l.85-.78a2.72,2.72,0,0,0,3.27-.5c1.37-1.25,1.25-3.11-.12-4.61s-3.2-1.76-4.57-.51A2.73,2.73,0,0,0,82.54,89.34Z"/><path class="cls-1" d="M74.71,93.69l3.45-2-.35-2.28.94-.54,1.38,9.21-1,.55L72,92.79l1-.57Zm.75.61L79,97.24l-.7-4.56Z"/><path class="cls-1" d="M67.88,94.17l1-.34,2.51,7.29,2.8-1,.32.92-6.6,2.27-.31-.92,2.8-1Z"/><path class="cls-1" d="M61.82,95.67l1-.19L64.4,104l-1,.19Z"/><path class="cls-1" d="M59.38,100.47c0,2.61-1.59,4.51-4.06,4.55s-4.15-1.81-4.19-4.41,1.59-4.45,4-4.49A4.08,4.08,0,0,1,59.38,100.47Zm-7.14.12c0,2,1.21,3.47,3.06,3.44s3-1.49,3-3.54-1.22-3.41-3.09-3.38S52.2,98.54,52.24,100.59Z"/><path class="cls-1" d="M46.56,104.31l-1.09-.26-2.9-7.92L40.92,103l-1-.24,2-8.43,1.07.26L46,102.42l1.64-6.78,1,.24Z"/><path class="cls-1" d="M25,95l-1-.66,4.76-7.25.87.57-2.54,3.87a20.53,20.53,0,0,1-1.29,1.77L32,89.21l.86.56-1.34,7.37a18.47,18.47,0,0,1,1.17-1.94l2.54-3.87.87.57-4.76,7.25-1-.67,1.45-8Z"/><path class="cls-1" d="M23.68,88.32c-1.95,1.73-4.46,1.73-6.1-.12s-1.33-4.32.62-6a4.14,4.14,0,1,1,5.48,6.17ZM18.93,83c-1.53,1.37-1.84,3.19-.61,4.57s3.09,1.32,4.63-.05,1.78-3.15.54-4.54S20.46,81.61,18.93,83Z"/><path class="cls-1" d="M20.09,77.19l-7.68,4L11.07,78.7a4,4,0,0,1,1.82-5.86,4,4,0,0,1,5.86,1.82Zm-1.35-.48-.88-1.66a3.06,3.06,0,0,0-4.47-1.24,3,3,0,0,0-1.49,4.37l.87,1.67Z"/><path class="cls-1" d="M13.44,63l.94-.25,1.54,5.72L7.54,70.68,6.06,65.19,7,64.93,8.2,69.41,11,68.66l-1-3.54.92-.24,1,3.53,2.83-.76Z"/><path class="cls-1" d="M12.69,55.16l1-.08.4,5.41-8.65.63-.08-1L13,59.51Z"/><path class="cls-2" d="M9.48,52.25a45.42,45.42,0,0,1,3.39-14.49"/><path class="cls-2" d="M96.72,37.56a45.2,45.2,0,0,1,3.48,14.68"/><path class="cls-1" d="M21.08,31.62l-1,1.47-7.38-4.88,1-1.46Z"/><path class="cls-1" d="M16.39,23l1.23-1.28,6.9,1.47L20.2,19l1.2-1.25,6.38,6.13-1.22,1.27-6.8-1.37L24,27.85l-1.2,1.26Z"/><path class="cls-1" d="M25.33,14.56l1.5-.94,6.34,3.09L30,11.63l1.47-.92,4.71,7.49-1.49.94-6.27-3,3.12,5L30,22.05Z"/><path class="cls-1" d="M37,12.88a4.32,4.32,0,1,1,8.21-2.62A4.31,4.31,0,1,1,37,12.88Zm6.42-2.05c-.54-1.68-1.73-2.49-3.19-2s-2,1.82-1.45,3.5,1.73,2.47,3.2,2S44,12.51,43.44,10.83Z"/><path class="cls-1" d="M53.48,5l1.88-.15L52.67,13.9,50.83,14l-4-8.56,1.9-.15,2.94,6.51Z"/><path class="cls-1" d="M62.53,12.61l-3.3-.46L58.3,13.9l-1.78-.25,4.53-8.31,1.71.24,2.1,9.22L63,14.54Zm-.29-1.39-.72-3.37-1.62,3Z"/><path class="cls-1" d="M69.53,16.47l-1.65-.58L70.31,9l-2.59-.92.51-1.46,6.84,2.42-.52,1.46L72,9.59Z"/><path class="cls-1" d="M75.7,19.4l-1.54-.85,4.29-7.73,1.53.85Z"/><path class="cls-1" d="M88.49,17.78,90,19l-8.21,4.72-1.43-1.17,3-9,1.48,1.2L82.4,21.49Z"/><path class="cls-1" d="M90.76,31.4l-1.22,1-3.8-4.88,7-5.43,3.71,4.75-1.22.95-2.63-3.37-1.66,1.29,2,2.56-1.19.93-2-2.56L88,27.91Z"/></svg>