<svg id="ICONS_ROTATED" data-name="ICONS ROTATED" xmlns="http://www.w3.org/2000/svg" xmlns:xlink="http://www.w3.org/1999/xlink" width="110" height="110" viewBox="0 0 110 110"><defs><style>.cls-1,.cls-4{fill:none;}.cls-2{fill:#105754;}.cls-3{fill:url(#_6_lpi_30_5);}.cls-4{stroke:#105754;stroke-linecap:round;stroke-miterlimit:10;}</style><pattern id="_6_lpi_30_5" data-name="6 lpi 30% 5" width="4" height="4" patternTransform="matrix(0.99, -0.15, 0.15, 0.99, -2.37, 3.41)" patternUnits="userSpaceOnUse" viewBox="0 0 4 4"><rect class="cls-1" width="4" height="4"/><rect class="cls-2" x="2.5" y="2.51" width="1" height="1"/><rect class="cls-2" x="0.5" y="0.49" width="1" height="1"/></pattern></defs><title>stamp-innovative-educationmodel-innerfixed</title><path class="cls-3" d="M76.89,49.52c-2.46,2-8.63,6.89-8.63,6.89l-.16.1a3,3,0,0,0-3.41-.88l-9,3.65-7.78-2.35-9,4.41,5,11c.48-.23,2.27-.8,7.28-.86,6.83-.07,9.37.67,14-2.2s16-18.79,16-18.79C81.21,49,78.31,48.34,76.89,49.52Z"/><path class="cls-4" d="M50.91,57.5a11.2,11.2,0,0,1,19-3.4"/><path class="cls-4" d="M43.88,72.39s.45-.78,7.28-.86,9.37.67,14-2.2,16-18.79,16-18.79c0-1.53-2.91-2.2-4.33-1-2.46,2-8.63,6.89-8.63,6.89"/><path class="cls-4" d="M38.87,61.34l9-4.41,7.78,2.35,9-3.65a3,3,0,0,1,3.88,1.65h0a3,3,0,0,1-1.65,3.88l-10,4"/><path class="cls-4" d="M38.32,77.3l5-2.14a1.24,1.24,0,0,0,.65-1.62L38.34,60.49a1.23,1.23,0,0,0-1.62-.64L31.77,62"/><path class="cls-4" d="M49.6,40.08A6,6,0,0,0,55.1,39a6,6,0,0,0-9.45-2.9A6,6,0,0,0,49.6,40.08Z"/><path class="cls-4" d="M67.76,40.47a10.82,10.82,0,0,1-9.2,4.44A10.83,10.83,0,0,1,69.17,30.35,10.84,10.84,0,0,1,67.76,40.47Z"/><line class="cls-4" x1="65.63" y1="35.18" x2="60.37" y2="42.41"/><polyline class="cls-4" points="62.88 35.53 63.32 38.35 66.14 37.91"/><polyline class="cls-4" points="60.81 38.37 61.25 41.19 64.07 40.75"/><path class="cls-4" d="M55.06,30.39C53,40.36,58.33,40,59.91,50"/></svg>