<svg width="35" height="35" xmlns="http://www.w3.org/2000/svg" >
    <g transform="translate(1 1)" fill="none" fill-rule="evenodd">
        <path d="M7.74 10.662v-.325c.96-.093 1.689-.678 1.689-1.613 0-.826-.496-1.357-1.359-1.551l-.84-.187c-.578-.133-.848-.351-.848-.803 0-.515.397-.795 1.02-.795.69 0 1.119.304 1.119.904h.803c0-1.006-.698-1.528-1.584-1.63v-.324a.338.338 0 1 0-.675 0v.332c-.946.125-1.539.74-1.539 1.575 0 .896.616 1.364 1.343 1.52l.849.195c.577.125.855.327.855.803 0 .553-.48.834-1.118.834-.818 0-1.216-.366-1.216-.897h-.81c0 .89.607 1.505 1.636 1.63v.332a.338.338 0 1 0 .675 0z" fill="#7C7D98" fill-rule="nonzero"/>
        <circle stroke="#7C7D98" stroke-width=".8" cx="7.5" cy="7.5" r="7.5"/>
    </g>
</svg>
