<svg id="elements" xmlns="http://www.w3.org/2000/svg" viewBox="0 0 110.16 110.16">
  <defs>
    <style>
      .cls-1 {
        fill: #ea593e;
      }
    </style>
  </defs>
  <path class="cls-1" d="M34.58,15.57,33,16.63l0,.17a2.09,2.09,0,0,1-1,2.36c-1.21.79-2.59.38-3.51-1s-.76-2.89.46-3.68a2.13,2.13,0,0,1,2.56,0l.14.11,1.63-1.06L33,13.31A3.92,3.92,0,0,0,28,13a4.12,4.12,0,0,0-1.91,2.8,4.79,4.79,0,0,0,.82,3.38,4.1,4.1,0,0,0,6,1.43,4,4,0,0,0,1.79-4.73Z"/>
  <path class="cls-1" d="M38,8.15l-.32,9.45L39.47,17l.05-2,3-1,1.3,1.57,1.85-.64L39.6,7.61Zm3.44,4.48-1.87.65.07-2.83Z"/>
  <path class="cls-1" d="M54.24,8a2.82,2.82,0,0,0-3.38-2.6l-3.8.36.83,8.77,1.8-.17-.27-2.9,1.52-.15L52.75,14l2-.19-2-3A2.75,2.75,0,0,0,54.24,8Zm-1.86.21a1.19,1.19,0,0,1-1.25,1.43l-1.87.18L49,7.2,50.89,7C51.8,6.93,52.3,7.32,52.38,8.16Z"/>
  <polygon class="cls-1" points="57.56 13.96 63.75 14.77 63.97 13.1 59.58 12.53 59.83 10.62 63.1 11.04 63.31 9.4 60.04 8.97 60.29 7.11 64.49 7.66 64.71 6 58.7 5.22 57.56 13.96"/>
  <polygon class="cls-1" points="74.55 10.82 75.12 9.26 69.43 7.18 66.41 15.46 72.28 17.6 72.86 16.02 68.7 14.51 69.36 12.7 72.45 13.82 73.02 12.27 69.92 11.14 70.57 9.37 74.55 10.82"/>
  <path class="cls-1" d="M82.68,13.49l-3.2-2.08-4.8,7.39,1.51,1,1.59-2.45,1.28.83-.29,3.29,1.72,1.12L80.8,19a2.74,2.74,0,0,0,2.91-1.34A2.83,2.83,0,0,0,82.68,13.49Zm-1,1.33a1.17,1.17,0,0,1,.45,1.82,1.27,1.27,0,0,1-.81.63,1.45,1.45,0,0,1-1-.29l-1.57-1,1.41-2.17Z"/>
  <path class="cls-1" d="M29.86,88.69a3.23,3.23,0,0,0-1.18-2.12L25.92,84.2l-5.74,6.7,1.4,1.2,1.9-2.22L24.83,91a3.2,3.2,0,0,0,2.27.85,3,3,0,0,0,2.76-3.2Zm-4,1-1.27-1.1,1.69-2,1.27,1.09a1.3,1.3,0,1,1-1.69,2Z"/>
  <path class="cls-1" d="M27.71,97l1.66.89,1.53-1.34,2.78,1.5-.28,2,1.73.93,1.21-9.36-1.47-.79Zm4.45-1.54,2.13-1.86-.38,2.79Z"/>
  <polygon class="cls-1" points="39.6 95.12 42.22 95.88 40.22 102.75 41.95 103.25 43.95 96.39 46.57 97.15 47.03 95.55 40.07 93.52 39.6 95.12"/>
  <polygon class="cls-1" points="54.72 99.68 51.14 99.51 51.3 96.04 49.48 95.95 49.07 104.76 50.89 104.85 51.06 101.23 54.63 101.4 54.46 105.01 56.28 105.1 56.7 96.29 54.88 96.2 54.72 99.68"/>
  <polygon class="cls-1" points="68.64 100.2 65.67 94.82 63.89 95.24 63.63 101.39 60.75 96 58.91 96.44 63.34 104.44 65.15 104 65.43 97.91 68.43 103.22 70.24 102.78 70.61 93.63 68.79 94.06 68.64 100.2"/>
  <path class="cls-1" d="M74.18,91.49l1.3,9.35,1.65-.91-.3-2,2.76-1.53,1.55,1.32,1.72-.95-7.21-6.08Zm4.15,3.81-1.73,1-.41-2.79Z"/>
  <polygon class="cls-1" points="86.49 89.83 85.23 83.31 83.61 84.72 84.52 88.91 80.53 87.41 78.89 88.84 85.12 91.02 87.15 93.34 88.51 92.15 86.49 89.83"/>
  <path class="cls-1" d="M10.08,55.08a44.83,44.83,0,0,1,13.2-31.8l-.71-.71a45.91,45.91,0,0,0-2.71,62.06l.77-.64A44.79,44.79,0,0,1,10.08,55.08Z"/>
  <path class="cls-1" d="M100.08,55.08a44.83,44.83,0,0,0-13.2-31.8l.71-.71A45.91,45.91,0,0,1,90.3,84.63L89.53,84A44.79,44.79,0,0,0,100.08,55.08Z"/>
</svg>
