<svg id="elements" xmlns="http://www.w3.org/2000/svg" viewBox="0 0 110.16 110.16">
  <defs>
    <style>
      .cls-1 {
        fill: #ea593e;
      }
    </style>
  </defs>
  <g>
    <polygon class="cls-1" points="67.07 56.62 67.13 56.66 67.87 56.6 67.81 55.8 67.01 55.86 67.07 56.62"/>
    <rect class="cls-1" x="66.79" y="52.64" width="0.8" height="0.8" transform="translate(-3.88 5.32) rotate(-4.41)"/>
    <rect class="cls-1" x="63.85" y="56.08" width="0.8" height="0.8" transform="translate(-4.15 5.11) rotate(-4.41)"/>
    <rect class="cls-1" x="65.32" y="54.37" width="0.8" height="0.8" transform="matrix(1, -0.08, 0.08, 1, -4.02, 5.22)"/>
    <rect class="cls-1" x="63.6" y="52.89" width="0.8" height="0.8" transform="matrix(1, -0.08, 0.08, 1, -3.91, 5.08)"/>
    <rect class="cls-1" x="65.08" y="51.18" width="0.8" height="0.8" transform="translate(-3.77 5.19) rotate(-4.41)"/>
    <rect class="cls-1" x="53.05" y="46.9" width="0.8" height="0.8" transform="translate(-3.48 4.25) rotate(-4.41)"/>
    <rect class="cls-1" x="51.33" y="45.41" width="0.8" height="0.8" transform="translate(-3.37 4.11) rotate(-4.41)"/>
    <rect class="cls-1" x="48.14" y="45.66" width="0.8" height="0.8" transform="translate(-3.4 3.87) rotate(-4.41)"/>
    <rect class="cls-1" x="49.61" y="43.95" width="0.8" height="0.8" transform="matrix(1, -0.08, 0.08, 1, -3.26, 3.98)"/>
    <rect class="cls-1" x="49.37" y="40.76" width="0.8" height="0.8" transform="translate(-3.02 3.95) rotate(-4.41)"/>
    <rect class="cls-1" x="46.67" y="47.39" width="0.8" height="0.8" transform="translate(-3.54 3.76) rotate(-4.41)"/>
    <path class="cls-1" d="M41.65,72.71,71.56,70.4l9.53-.73-15.73-23-3.9,8.15L50,38.09l-.22-2.85,6.11-.46-2.08-2.11,1.74-2.39-6.62.51a.5.5,0,0,0-.46.54l.27,3.49h0L49,38.16,32.07,73.44l9.39-.72v0Zm4.5-1.35c3.12-.94,6.92-2.09,8.51-2.61L56,68.33a14,14,0,0,0,5.59-2.68A2.38,2.38,0,0,0,62.4,64a3.09,3.09,0,0,0-1-2.16c-2.21-2.16-5.17-3-8-3.83-1.15-.33-2.33-.67-3.44-1.09-.82-.3-1.25-.67-1.29-1.06a1.18,1.18,0,0,1,.32-.84,6.6,6.6,0,0,1,3-1.71c.38-.14.76-.28,1.07-.41a4.58,4.58,0,0,0,2.67-2.2,4.18,4.18,0,0,0,.29-2.09L70.28,69.5Zm25.28-2-6.61-9.65,1.43-1.66L68,59.57a.52.52,0,0,0,.67,0l2.66-2.41,8,11.66Zm-9.13-14,.66,0-.06-.8-.21,0,2.8-5.84h.07l1,1.49v0h0l2.62,3.82-.73.06.07.8.79-.06,0-.69,1,1.4h0l.06.79h.19l.06-.4.22.32L69.54,57.4v-.11l-.8.06,0,.25.34.2-.8.72L66.53,57a.51.51,0,0,0-.71.06l-1.58,1.84-2.12-3.1Zm-8.65-21.5-4,.3-.19-2.49,4-.31-1,1.33ZM46.81,45l.44,0-.06-.76.69-1.44,0,.52.8-.06-.06-.8-.64,0,1.55-3.22,2,3-.54,0,.07.8.79-.06,0-.35.9,1.32,0,.58.33,0,1,1.43h0a5.61,5.61,0,0,1,.63,4.26,3.62,3.62,0,0,1-2.13,1.71c-.34.15-.7.28-1.06.41a7.53,7.53,0,0,0-3.42,2,2.18,2.18,0,0,0-.56,1.56c.09.83.74,1.48,1.93,1.93s2.36.78,3.53,1.11c2.86.83,5.57,1.6,7.6,3.58a2.23,2.23,0,0,1,.75,1.43,1.41,1.41,0,0,1-.52,1,13.26,13.26,0,0,1-5.2,2.46l-1.33.42c-2.61.85-11.24,3.43-12.89,3.92l-7.73.6Z"/>
    <path class="cls-1" d="M46.45,68.5a.54.54,0,0,0,.32.11.52.52,0,0,0,.37-.16c.11-.13,2.84-3.14,2.66-5.57h0a3.42,3.42,0,1,0-6.81.53C43.17,65.75,46.32,68.38,46.45,68.5Zm-1.89-6.92a2.42,2.42,0,0,1,1.65-.84h.19A2.42,2.42,0,0,1,48.8,63c.11,1.44-1.26,3.44-2.08,4.44-1-.88-2.63-2.67-2.73-4.07A2.38,2.38,0,0,1,44.56,61.58Z"/>
    <path class="cls-1" d="M48.15,63.26A1.75,1.75,0,1,0,46.4,65,1.75,1.75,0,0,0,48.15,63.26Zm-2.5,0a.75.75,0,1,1,.75.75A.76.76,0,0,1,45.65,63.26Z"/>
  </g>
</svg>
