<svg xmlns="http://www.w3.org/2000/svg" xmlns:xlink="http://www.w3.org/1999/xlink" width="107" height="115" viewBox="0 0 107 115">
    <defs>
        <path id="rragp1lota" d="M0 0L8.825 0 8.825 11.031 0 11.031z"/>
    </defs>
    <g fill="none" fill-rule="evenodd">
        <g>
            <g>
                <path fill="#EA593E" d="M29.432 11.75L27.6 13.034l.04.203c.234 1.205-.15 2.169-1.14 2.863-1.36.953-2.909.458-3.945-1.263-1.052-1.748-.85-3.498.517-4.457.972-.68 1.967-.664 2.876.049l.157.122 1.83-1.284-.269-.265c-1.607-1.566-3.703-1.706-5.613-.368-1.191.835-1.931 2.01-2.14 3.394-.199 1.327.125 2.78.914 4.09 1.037 1.725 2.51 2.634 4.058 2.634.881 0 1.787-.295 2.653-.9 1.924-1.35 2.674-3.49 2.007-5.727l-.113-.377zM37.25 8.308l-2.071.785.084-3.434 1.988 2.65zm-3.806-5.437l-.351 11.47 1.97-.747.057-2.47 3.307-1.252 1.436 1.904 2.055-.778L35.2 2.206l-1.756.665zM50.192 3.42c.094 1.037-.385 1.615-1.422 1.719l-2.132.212-.278-3.099 2.132-.212c1.037-.107 1.609.361 1.7 1.38m2.133-.255c-.191-2.123-1.71-3.355-3.866-3.14l-4.335.432.948 10.574 2.055-.205-.313-3.501 1.736-.174 2.067 3.328 2.331-.232-2.279-3.643c1.167-.604 1.794-1.888 1.656-3.439" transform="translate(-993.000000, -179.000000) translate(993.000000, 179.000000)"/>
                <g transform="translate(-993.000000, -179.000000) translate(993.000000, 179.000000) translate(56.257732, 0.000000)">
                    <mask id="bh8dok2ilb" fill="#fff">
                        <use xlink:href="#rragp1lota"/>
                    </mask>
                    <path fill="#EA593E" d="M0 10.098L7.645 11.031 7.914 9.106 2.495 8.446 2.803 6.236 6.836 6.728 7.099 4.831 3.067 4.339 3.369 2.181 8.558 2.816 8.825 0.905 1.408 -0.001z" mask="url(#bh8dok2ilb)"/>
                </g>
                <path fill="#EA593E" d="M76.567 5.343L77.216 3.518 70.728 1.103 67.289 10.748 73.978 13.237 74.632 11.399 69.893 9.635 70.646 7.525 74.173 8.837 74.818 7.025 71.292 5.713 72.026 3.654zM84.18 10.655c.883.589 1.06 1.316.526 2.16-.27.426-.588.679-.943.747-.36.07-.766-.043-1.208-.339l-1.819-1.21 1.627-2.57 1.817 1.212zm1.175-1.576L81.66 6.62l-5.548 8.763 1.75 1.169 1.84-2.904 1.478.986-.344 3.899 1.987 1.324.364-4.278c1.28.288 2.546-.3 3.359-1.585 1.114-1.76.645-3.688-1.192-4.914zM19.204 97.73l-1.593-1.223 2.107-2.192 1.594 1.222c.822.632.91 1.393.24 2.09-.67.696-1.527.733-2.348.104zm5.047-1.159c-.099-.885-.61-1.706-1.478-2.372l-3.445-2.642-7.194 7.48 1.751 1.344 2.384-2.478 1.692 1.299c.866.664 1.851.996 2.842.948.97-.042 1.877-.454 2.553-1.156.674-.701.992-1.56.895-2.423zM27.182 104.799l2.448-2.22-.446 3.34-2.002-1.12zm-5.12 1.84l1.904 1.066 1.76-1.6 3.197 1.788-.318 2.407 1.986 1.112 1.399-11.184-1.698-.95-8.23 7.36zM35.299 103.482L38.403 104.431 36.03 112.989 38.092 113.619 40.465 105.062 43.569 106.01 44.124 104.013 35.854 101.485zM52.862 108.19L48.725 107.988 48.915 103.794 46.811 103.691 46.33 114.313 48.435 114.417 48.632 110.053 52.769 110.256 52.572 114.619 54.676 114.722 55.155 104.099 53.052 103.997zM69.472 109.959L66.113 103.921 64.103 104.4 63.809 111.302 60.554 105.247 58.464 105.745 63.48 114.722 65.527 114.234 65.847 107.392 69.236 113.348 71.282 112.859 71.701 102.588 69.649 103.077zM80.861 104.807l-1.98 1.141-.469-3.338 2.449 2.197zm-4.748-4.561l1.491 11.166 1.883-1.084-.339-2.402 3.163-1.822 1.767 1.579 1.963-1.133-8.249-7.272-1.679.968zM89.236 97.238L87.799 89.351 85.94 91.058 86.984 96.13 82.4 94.313 80.526 96.038 87.671 98.675 89.994 101.485 91.557 100.047zM67.572 60.429L67.711 60.51 69.339 60.384 69.203 58.624 67.444 58.761zM68.236 55.967L68.099 54.206 66.341 54.343 66.476 56.103zM64.927 60.379L64.79 58.618 63.032 58.755 63.166 60.516z" transform="translate(-993.000000, -179.000000) translate(993.000000, 179.000000)"/>
                <path fill="#EA593E" d="M65.374 57.205L67.134 57.069 66.997 55.31 65.237 55.445zM64.791 54.207L63.031 54.344 63.168 56.102 64.928 55.968zM66.03 53.761L65.893 52.001 64.135 52.138 64.269 53.896zM52.793 49.348L52.656 47.587 50.898 47.724 51.032 49.485zM50.587 47.142L50.45 45.381 48.692 45.518 48.826 47.279zM47.277 47.142L47.141 45.381 45.382 45.518 45.517 47.279zM46.621 45.071L48.382 44.934 48.245 43.176 46.484 43.311zM47.277 41.626L47.141 39.866 45.382 40.003 45.517 41.763zM45.071 49.348L44.934 47.587 43.176 47.724 43.311 49.485z" transform="translate(-993.000000, -179.000000) translate(993.000000, 179.000000)"/>
                <path fill="#EA593E" d="M43.722 45.61l.512-.038-.068-.87.808-1.658.047.605.934-.071-.073-.918-.749.058 1.81-3.712 2.366 3.395-.626.048.072.917.933-.071-.03-.395 1.057 1.518.052.66.387-.03 1.144 1.64-.013.007c.8 1.202 1.29 3.712.738 4.893-.528.939-1.391 1.63-2.491 1.969-.4.167-.822.318-1.25.473-1.402.503-2.991 1.074-3.999 2.293-.443.484-.675 1.11-.65 1.8.099.954.86 1.699 2.258 2.215 1.342.5 2.757.9 4.126 1.285 3.353.946 6.52 1.838 8.892 4.115.408.401.891 1.012.879 1.645-.008.394-.205.763-.609 1.129-1.587 1.463-3.872 2.16-6.083 2.832-.535.163-1.06.323-1.56.49-3.05.967-13.144 3.934-15.078 4.5l-9.053.687 15.317-31.41zm7.994-12.715l-4.64.346-.226-2.868 4.637-.353-1.127 1.526 1.356 1.349zm10.124 24.72l.779-.059-.073-.917-.24.018 3.265-6.706.087-.007 1.192 1.71.003.026h.015l3.067 4.399-.854.064.071.918.934-.07-.062-.785 1.121 1.608-.055.005.072.916.222-.016.071-.459.253.362-1.396 1.242-.01-.123-.933.072.022.292.396.227-.933.83-2.066-1.74c-.244-.206-.614-.179-.825.063l-1.85 2.121-2.483-3.562.21-.429zM72.527 73.68l-7.73-11.093 1.674-1.918 2.014 1.695c.223.188.555.184.773-.01l3.117-2.775 9.349 13.408-9.197.693zm-29.583 2.24c3.648-1.079 8.098-2.404 9.96-2.995.497-.165 1.013-.322 1.539-.482 2.336-.713 4.754-1.448 6.534-3.09.637-.579.967-1.234.98-1.949.017-.82-.405-1.677-1.226-2.483-2.588-2.484-6.046-3.46-9.392-4.404-1.344-.379-2.736-.771-4.035-1.255-.95-.35-1.457-.773-1.505-1.217-.011-.353.114-.692.374-.975.822-.995 2.188-1.486 3.51-1.96.448-.162.892-.32 1.251-.476 1.334-.406 2.439-1.29 3.133-2.528.317-.676.4-1.53.335-2.398L71.18 73.781 42.944 75.92zm-5.27 1.552l35.002-2.65 11.16-.841L65.428 47.58l-4.562 9.368-13.442-19.287-.259-3.273 7.158-.534-2.435-2.423 2.033-2.75-7.746.59c-.322.026-.563.302-.538.618l.316 4.01v.003l.304 3.848-19.784 40.57 10.984-.832.014.043.201-.059z" transform="translate(-993.000000, -179.000000) translate(993.000000, 179.000000)"/>
                <path fill="#EA593E" d="M40.651 64.937c.542-.547 1.3-.88 2.13-.935.08-.006.162-.008.242-.008 1.613 0 2.983 1.078 3.11 2.49.14 1.617-1.628 3.85-2.692 4.97-1.249-.99-3.396-2.99-3.53-4.553-.065-.719.199-1.416.74-1.964m2.444 7.739c.12.086.266.128.41.128.176 0 .351-.062.478-.182.15-.142 3.676-3.508 3.438-6.223v-.001c-.187-2.1-2.319-3.665-4.74-3.511-2.427.163-4.247 2.002-4.06 4.099.225 2.622 4.3 5.565 4.474 5.69" transform="translate(-993.000000, -179.000000) translate(993.000000, 179.000000)"/>
                <path fill="#EA593E" d="M43.178 67.289c0-.522.424-.946.946-.946s.945.424.945.946-.423.945-.945.945-.946-.423-.946-.945m3.152 0c0-1.217-.99-2.207-2.206-2.207-1.217 0-2.206.99-2.206 2.207 0 1.216.99 2.206 2.206 2.206s2.206-.99 2.206-2.206M1.166 57.417c0-14.334 5.883-27.331 15.38-36.745l-.823-.816C6.013 29.479 0 42.766 0 57.417c0 12.99 4.733 24.898 12.57 34.14l.892-.742C5.796 81.774 1.166 70.123 1.166 57.417M105.834 57.417c0-14.334-5.883-27.331-15.38-36.745l.823-.816C100.987 29.479 107 42.766 107 57.417c0 12.99-4.733 24.898-12.57 34.14l-.892-.742c7.666-9.041 12.296-20.692 12.296-33.398" transform="translate(-993.000000, -179.000000) translate(993.000000, 179.000000)"/>
            </g>
        </g>
    </g>
</svg>
