<svg xmlns="http://www.w3.org/2000/svg" width="110" height="110" viewBox="0 0 110 110"><defs><style>.cls-1{fill:#105754;}.cls-2{fill:none;stroke:#105754;stroke-miterlimit:10;}</style></defs><title>stamp-cohort20-outer</title><g id="OUTLINED_BOTTOM" data-name="OUTLINED BOTTOM"><path class="cls-1" d="M88,84.21l-.71.91a3.85,3.85,0,0,1,.17-4.83c1.5-2,3.93-2.15,6-.56s2.57,4.06,1,6a3.78,3.78,0,0,1-4.62,1.35l.71-.91a2.75,2.75,0,0,0,3.14-1c1.14-1.47.7-3.28-.91-4.53s-3.45-1.19-4.58.28A2.75,2.75,0,0,0,88,84.21Z"/><path class="cls-1" d="M85.81,88.8c1.57,2.07,1.38,4.58-.58,6.08s-4.42,1-6-1.08-1.36-4.53.6-6A4.09,4.09,0,0,1,85.81,88.8Zm-5.7,4.33c1.25,1.63,3,2.08,4.51,1s1.55-3,.31-4.61-3-2-4.5-.89S78.87,91.5,80.11,93.13Z"/><path class="cls-1" d="M74.29,95.9l-1.48-3.61,1-.41,3.3,8-1,.4-1.44-3.5-4.37,1.8,1.44,3.5-1,.4-3.3-8,1-.4,1.48,3.62Z"/><path class="cls-1" d="M64.88,99.68c.33,2.58-1.09,4.66-3.54,5s-4.33-1.34-4.66-3.92a4.14,4.14,0,1,1,8.2-1Zm-7.1.91c.26,2,1.59,3.31,3.43,3.08s2.83-1.81,2.57-3.85-1.59-3.25-3.45-3S57.52,98.55,57.78,100.59Z"/><path class="cls-1" d="M51.85,104.92l-3.5-.43c-1.88-.24-2.85-1.43-2.64-3.09A2.52,2.52,0,0,1,48,99l-1.4-3.49,1.2.14L49.17,99l2.32.29.39-3.13,1,.12Zm-2.94-5a1.81,1.81,0,1,0-.45,3.59l2.47.3.44-3.58Z"/><path class="cls-1" d="M40.27,93.55l1,.36-2.66,7.23,2.79,1-.34.91-6.54-2.41.33-.91,2.78,1Z"/><path class="cls-1" d="M26.52,86.32l.62-.78,4.49,3.58-.59.74-4.53.35a3.07,3.07,0,0,0-2.37.87,1.56,1.56,0,0,0,.36,2.4A1.74,1.74,0,0,0,27,93.32l.83.66a2.75,2.75,0,0,1-3.88.24c-1.28-1-1.67-2.49-.66-3.76a3.83,3.83,0,0,1,3-1.17L29.91,89Z"/><path class="cls-1" d="M16.1,86.47c-1.43-1.76-.84-3.85,1.25-5.54s4.26-1.83,5.68-.07.82,3.82-1.27,5.52S17.51,88.21,16.1,86.47ZM18,81.75c-1.67,1.35-2.23,2.87-1.21,4.14s2.61,1,4.28-.34,2.24-2.85,1.22-4.11S19.69,80.4,18,81.75Z"/><path class="cls-2" d="M100.64,59.36a45.75,45.75,0,0,1-5.59,18"/><path class="cls-2" d="M9.34,59.36a45.58,45.58,0,0,0,5.59,18"/></g><g id="OUTLINED_TOP" data-name="OUTLINED TOP"><path class="cls-1" d="M12.57,50.43c.09-.79-.33-1.34-1.27-1.44l-5.91-.67.2-1.75,5.93.68a2.79,2.79,0,0,1,2.64,3.32,2.76,2.76,0,0,1-3.32,2.72l.2-1.7A1.24,1.24,0,0,0,12.57,50.43Z"/><path class="cls-1" d="M12.52,41.65a1.88,1.88,0,1,0,1.28-3.53l-5.22-1.9.61-1.68,5.06,1.84a3.36,3.36,0,0,1,2.12,4.67,3.35,3.35,0,0,1-4.62,2.22L6.69,41.43l.61-1.68Z"/><path class="cls-1" d="M11.67,29.74l1-1.46,7,.33-4.94-3.4,1-1.43,7.29,5-1,1.45L15.12,30,20,33.31l-1,1.44Z"/><path class="cls-1" d="M21.55,23.74A4.31,4.31,0,1,1,28,18a4.31,4.31,0,1,1-6.45,5.71Zm5.05-4.46C25.42,18,24,17.69,22.86,18.71s-1.08,2.47.09,3.8,2.58,1.55,3.74.53S27.76,20.6,26.6,19.28Z"/><path class="cls-1" d="M38.76,17.18l-1.6.72-3.66-8,1.6-.73Z"/><path class="cls-1" d="M47.05,5.57l2.05-.43L51,13.79l-1.7.36L48.57,11c-.19-.89-.37-2-.46-2.75l-1,6.39-1.59.34L42,9.27a22.77,22.77,0,0,1,.72,2.93l.68,3.2-1.68.36L39.89,7.1l2.16-.46L46,12.88Z"/><path class="cls-1" d="M62.25,5.47l2.09.19-.81,8.81-1.72-.16.3-3.25c.08-.91.22-2,.37-2.76l-2.81,5.82L58.05,14,56.35,7.5a21.62,21.62,0,0,1-.18,3l-.3,3.26-1.71-.16L55,4.8l2.19.2,1.91,7.12Z"/><path class="cls-1" d="M73,16.12l-.54,1.45-5.79-2.14,3.08-8.3,5.65,2.1-.54,1.45-4-1.49-.73,2,3,1.13-.53,1.42-3-1.13-.74,2Z"/><path class="cls-1" d="M79.84,11.49l3.32,2.2a2.82,2.82,0,0,1,.94,4.09,2.68,2.68,0,0,1-3,1.3l-.41,3.58L79,21.56l.41-3.29-1.39-.92-1.64,2.48-1.46-1Zm.66,5.7a1.32,1.32,0,0,0,2-.38,1.29,1.29,0,0,0-.46-2l-1.63-1.08-1.57,2.37Z"/><path class="cls-1" d="M85,27c-1.54-1.64-1.69-3.38-.49-4.5l1.21,1.3c-.53.5-.49,1.29.36,2.19.67.72,1.44.9,2,.43s.42-.89,0-1.63l-.76-1.2c-.86-1.36-.84-2.58.13-3.48s2.79-.91,4.23.63c1.18,1.27,1.79,3,.36,4.33l-1.18-1.27c.64-.6.42-1.38-.25-2.09s-1.34-.83-1.81-.39-.41.87.1,1.69l.77,1.2c.88,1.41.76,2.56-.25,3.51C88.1,28.92,86.36,28.46,85,27Z"/><path class="cls-1" d="M90.11,33.5l-1-1.48,7.44-4.8,1,1.47Z"/><path class="cls-1" d="M102.29,38.52l.7,1.74-9.46.19-.69-1.71,6.93-6.43.71,1.76-5.31,4.77Z"/><path class="cls-1" d="M97.75,51.91l-1.53.23L95.29,46,104,44.71l.9,6-1.53.23-.64-4.23L100.7,47l.48,3.21-1.5.23-.48-3.21-2.11.32Z"/></g></svg>