<svg xmlns="http://www.w3.org/2000/svg" width="110" height="110" viewBox="0 0 110 110"><defs><style>.cls-1{fill:#105754;}.cls-2{fill:none;stroke:#105754;stroke-miterlimit:10;}</style></defs><title>stamp-cohort2-outer</title><g id="OUTLINED_BOTTOM" data-name="OUTLINED BOTTOM"><path class="cls-1" d="M84.28,87.9l-.81.82a3.84,3.84,0,0,1,.73-4.78c1.73-1.75,4.16-1.67,6,.16s2.07,4.33.32,6.11a3.79,3.79,0,0,1-4.75.79l.81-.82a2.74,2.74,0,0,0,3.24-.67c1.3-1.32,1.09-3.17-.36-4.6s-3.28-1.59-4.59-.27A2.75,2.75,0,0,0,84.28,87.9Z"/><path class="cls-1" d="M81.62,92.2c1.32,2.24.83,4.71-1.29,6s-4.51.47-5.83-1.77-.82-4.66,1.3-5.9S80.29,90,81.62,92.2Zm-6.17,3.63c1,1.77,2.77,2.42,4.37,1.48s1.89-2.78.84-4.55-2.74-2.36-4.35-1.42S74.41,94.06,75.45,95.83Z"/><path class="cls-1" d="M69.31,97.9l-1-3.76,1-.29,2.31,8.36-1,.29-1-3.65L65,100.11l1,3.65L65,104l-2.31-8.36,1-.28,1.05,3.77Z"/><path class="cls-1" d="M59.58,100.49C59.63,103.1,58,105,55.52,105s-4.15-1.81-4.19-4.41,1.59-4.45,4-4.49A4.08,4.08,0,0,1,59.58,100.49Zm-7.14.12c0,2,1.21,3.47,3.06,3.44s3-1.49,3-3.54-1.22-3.41-3.09-3.38S52.4,98.56,52.44,100.61Z"/><path class="cls-1" d="M46,104.21l-3.42-.85c-1.84-.45-2.66-1.75-2.26-3.38a2.54,2.54,0,0,1,2.59-2.08l-1-3.63,1.17.29L44,98l2.27.56L47,95.53l1,.26Zm-2.33-5.28a1.8,1.8,0,1,0-.86,3.5l2.41.6L46,99.52Z"/><path class="cls-1" d="M35.85,91.55l.93.48L33.29,98.9l2.64,1.34-.44.86L29.28,98l.44-.87,2.64,1.34Z"/><path class="cls-1" d="M23,82.74l.7-.7,4,4.08-.67.66-4.54-.18a3.07,3.07,0,0,0-2.45.58,1.56,1.56,0,0,0,.08,2.43,1.73,1.73,0,0,0,2.45.13l.75.75a2.74,2.74,0,0,1-3.87-.22c-1.16-1.16-1.37-2.67-.22-3.81a3.88,3.88,0,0,1,3.14-.81l3.64.17Z"/><path class="cls-2" d="M100.64,59.36a45.75,45.75,0,0,1-5.59,18"/><path class="cls-2" d="M9.34,59.36a45.58,45.58,0,0,0,5.59,18"/></g><g id="OUTLINED_TOP" data-name="OUTLINED TOP"><path class="cls-1" d="M12.57,50.43c.09-.79-.33-1.34-1.27-1.44l-5.91-.67.2-1.75,5.93.68a2.79,2.79,0,0,1,2.64,3.32,2.76,2.76,0,0,1-3.32,2.72l.2-1.7A1.24,1.24,0,0,0,12.57,50.43Z"/><path class="cls-1" d="M12.52,41.65a1.88,1.88,0,1,0,1.28-3.53l-5.22-1.9.61-1.68,5.06,1.84a3.36,3.36,0,0,1,2.12,4.67,3.35,3.35,0,0,1-4.62,2.22L6.69,41.43l.61-1.68Z"/><path class="cls-1" d="M11.67,29.74l1-1.46,7,.33-4.94-3.4,1-1.43,7.29,5-1,1.45L15.12,30,20,33.31l-1,1.44Z"/><path class="cls-1" d="M21.56,23.74A4.31,4.31,0,1,1,28,18a4.31,4.31,0,1,1-6.44,5.71Zm5-4.46C25.42,18,24,17.69,22.86,18.71s-1.08,2.47.09,3.8,2.58,1.55,3.74.53S27.76,20.6,26.6,19.28Z"/><path class="cls-1" d="M38.76,17.18l-1.6.72-3.66-8,1.6-.73Z"/><path class="cls-1" d="M47.05,5.57l2.05-.43L51,13.79l-1.7.36L48.57,11c-.19-.89-.37-2-.46-2.75l-1,6.39-1.59.34L42,9.27a22.77,22.77,0,0,1,.72,2.93l.68,3.2-1.68.36L39.89,7.1l2.16-.46L46,12.88Z"/><path class="cls-1" d="M62.25,5.47l2.1.19-.82,8.81-1.72-.16.3-3.25c.08-.91.22-2,.37-2.76l-2.81,5.82L58.05,14,56.35,7.5a21.62,21.62,0,0,1-.18,3l-.3,3.26-1.71-.16L55,4.8l2.19.2,1.91,7.12Z"/><path class="cls-1" d="M73,16.12l-.54,1.45-5.79-2.14,3.08-8.3,5.65,2.1-.54,1.45-4-1.49-.73,2,3,1.13-.53,1.42-3-1.13-.74,2Z"/><path class="cls-1" d="M79.84,11.49l3.32,2.2a2.82,2.82,0,0,1,.94,4.09,2.68,2.68,0,0,1-3,1.3l-.41,3.58L79,21.56l.41-3.29-1.39-.92-1.64,2.48-1.46-1Zm.66,5.7a1.32,1.32,0,0,0,2-.38,1.29,1.29,0,0,0-.46-2l-1.63-1.08-1.57,2.37Z"/><path class="cls-1" d="M85,27c-1.54-1.64-1.69-3.38-.49-4.5l1.21,1.3c-.53.5-.49,1.29.36,2.19.67.72,1.44.9,2,.43s.42-.89,0-1.63l-.76-1.2c-.86-1.36-.84-2.58.13-3.48s2.79-.91,4.23.63c1.18,1.27,1.79,3,.36,4.33l-1.18-1.27c.64-.6.42-1.38-.25-2.09s-1.34-.83-1.81-.39-.41.87.1,1.69l.77,1.2c.88,1.41.76,2.56-.25,3.51C88.1,28.92,86.36,28.46,85,27Z"/><path class="cls-1" d="M90.11,33.5l-1-1.48,7.44-4.8,1,1.47Z"/><path class="cls-1" d="M102.29,38.52l.7,1.74-9.46.19-.69-1.71,6.93-6.43.71,1.76-5.31,4.77Z"/><path class="cls-1" d="M97.75,51.91l-1.53.23L95.3,46,104,44.71l.9,6-1.53.23-.64-4.23L100.7,47l.48,3.21-1.5.23-.48-3.21-2.11.32Z"/></g></svg>