<svg id="ICONS_ROTATED" data-name="ICONS ROTATED" xmlns="http://www.w3.org/2000/svg" xmlns:xlink="http://www.w3.org/1999/xlink" width="110" height="110" viewBox="0 0 110 110"><defs><style>.cls-1,.cls-3{fill:none;}.cls-2{fill:#105754;}.cls-3,.cls-4{stroke:#105754;stroke-linecap:round;stroke-linejoin:round;}.cls-4{fill:url(#_6_lpi_30_5);}</style><pattern id="_6_lpi_30_5" data-name="6 lpi 30% 5" width="4" height="4" patternTransform="translate(-4.41 1.51)" patternUnits="userSpaceOnUse" viewBox="0 0 4 4"><rect class="cls-1" width="4" height="4"/><rect class="cls-2" x="2.5" y="2.51" width="1" height="1"/><rect class="cls-2" x="0.5" y="0.49" width="1" height="1"/></pattern></defs><title>stamp-cohort15-innerfixed</title><circle class="cls-3" cx="42.45" cy="36" r="1.01"/><circle class="cls-3" cx="54.65" cy="36.61" r="1.01"/><ellipse class="cls-4" cx="49.14" cy="63.07" rx="5.86" ry="17.66" transform="translate(-29.8 75.73) rotate(-61.19)"/><path class="cls-3" d="M64.61,71.58A36.24,36.24,0,0,0,75.14,55.21a14.67,14.67,0,0,1-4,3.62c-2,1.08-3.47-.72-4.1-2.52-1.3-3.73-.55-7.57.85-11.07C65,47.84,61.07,50.82,57,48.71h0c-3.95-2.27-3.53-7.19-2.9-11.06-2.21,3.06-5,5.75-8.9,6.65-1.85.43-4.16.17-4.32-2.11a14.41,14.41,0,0,1,.94-5.29,36.13,36.13,0,0,0-8.19,17.66"/><circle class="cls-3" cx="75.58" cy="54.22" r="1.01"/><circle class="cls-3" cx="68.54" cy="44.25" r="1.01"/><path class="cls-2" d="M49.29,47.77a3.1,3.1,0,0,1,1.58,1,2.22,2.22,0,0,1,.22,2.08,2.3,2.3,0,0,1-1.39,1.6,3,3,0,0,1-1.9,0l-1-.33a.44.44,0,0,1-.29-.55l1.23-3.84a.43.43,0,0,1,.55-.29Zm-.89.51-1,3.24.53.17a2.33,2.33,0,0,0,1.39.09,1.55,1.55,0,0,0,1-1.15,1.45,1.45,0,0,0-.16-1.46,2.53,2.53,0,0,0-1.2-.73Z"/><path class="cls-2" d="M51.58,53.09a.5.5,0,1,1-.45.9.51.51,0,0,1-.23-.67A.51.51,0,0,1,51.58,53.09Z"/><path class="cls-2" d="M56,55.6a.5.5,0,0,1,.16.7.5.5,0,0,1-.85-.54A.49.49,0,0,1,56,55.6Z"/><path class="cls-2" d="M58.36,57.11l3.43-1.79a.43.43,0,0,1,.57.19.4.4,0,0,1-.2.55L58.39,58a.6.6,0,0,1-.76-.08.58.58,0,0,1-.13-.73l1.62-3.91a.41.41,0,0,1,.54-.24.43.43,0,0,1,.23.56Z"/><path class="cls-2" d="M54,55a.4.4,0,0,1-.56.16.39.39,0,0,1-.17-.55l2-3.62a.42.42,0,0,1,.57-.16.41.41,0,0,1,.16.56Z"/></svg>