<svg id="ICONS_ROTATED" data-name="ICONS ROTATED" xmlns="http://www.w3.org/2000/svg" xmlns:xlink="http://www.w3.org/1999/xlink" width="110" height="110" viewBox="0 0 110 110"><defs><style>.cls-1,.cls-3{fill:none;}.cls-2{fill:#105754;}.cls-3{stroke:#105754;stroke-linecap:round;stroke-linejoin:round;}.cls-4{fill:url(#_6_lpi_30_5);}.cls-5{fill:url(#_6_lpi_30_7);}</style><pattern id="_6_lpi_30_5" data-name="6 lpi 30% 5" width="4" height="4" patternTransform="translate(-3.42 1.55) rotate(-10.91) scale(0.8 0.84)" patternUnits="userSpaceOnUse" viewBox="0 0 4 4"><rect class="cls-1" width="4" height="4"/><rect class="cls-2" x="2.5" y="2.51" width="1" height="1"/><rect class="cls-2" x="0.5" y="0.49" width="1" height="1"/></pattern><pattern id="_6_lpi_30_7" data-name="6 lpi 30% 7" width="6" height="6" patternTransform="translate(-7.07 -0.48) rotate(-10.91) scale(0.8)" patternUnits="userSpaceOnUse" viewBox="0 0 6 6"><rect class="cls-1" width="6" height="6"/><polygon class="cls-2" points="6.26 12.46 5.56 11.75 12.01 5.3 12.72 6 6.26 12.46"/><polygon class="cls-2" points="0.27 12.46 -0.44 11.75 6.01 5.3 6.72 6 0.27 12.46"/><polygon class="cls-2" points="-5.74 12.46 -6.44 11.75 0.01 5.3 0.72 6 -5.74 12.46"/><polygon class="cls-2" points="6.26 6.46 5.56 5.75 12.01 -0.7 12.72 0 6.26 6.46"/><polygon class="cls-2" points="0.27 6.46 -0.44 5.75 6.01 -0.7 6.72 0 0.27 6.46"/><polygon class="cls-2" points="-5.74 6.46 -6.44 5.75 0.01 -0.7 0.72 0 -5.74 6.46"/><polygon class="cls-2" points="6.26 0.46 5.56 -0.25 12.01 -6.7 12.72 -6 6.26 0.46"/><polygon class="cls-2" points="0.27 0.46 -0.44 -0.25 6.01 -6.7 6.72 -6 0.27 0.46"/><polygon class="cls-2" points="-5.74 0.46 -6.44 -0.25 0.01 -6.7 0.72 -6 -5.74 0.46"/></pattern></defs><title>stamp-cohort-default-innerfixed</title><circle class="cls-1" cx="54.99" cy="55.06" r="46"/><polyline class="cls-3" points="35.74 71.24 30.46 43.84 72.1 35.81 73.82 44.71"/><path class="cls-3" d="M72.24,64.38,63.7,66l.15.8-14.2,2.74-.15-.8L31.18,72.3l.16.83A2.29,2.29,0,0,0,34,74.94L74,67.24"/><polygon class="cls-4" points="67.21 44.08 70.59 61.9 70.59 61.9 37.38 68.3 32.99 45.55 70.44 38.33 71.39 43.27 71.39 43.27 67.21 44.08"/><polygon class="cls-5" points="83.39 61.38 72.36 63.5 69.48 48.58 80.51 46.45 83.39 61.38"/><rect class="cls-3" x="70.92" y="44.45" width="11.23" height="22.09" rx="1.37" transform="translate(-9.12 15.49) rotate(-10.91)"/><circle class="cls-3" cx="78.26" cy="64.45" r="0.95"/></svg>