<svg xmlns="http://www.w3.org/2000/svg" width="110" height="110" viewBox="0 0 110 110"><defs><style>.cls-1{fill:#105754;}.cls-2{fill:none;stroke:#105754;stroke-miterlimit:10;}</style></defs><title>stamp-cohort32-outer</title><g id="OUTLINED_BOTTOM" data-name="OUTLINED BOTTOM"><path class="cls-1" d="M87.58,84.62l-.71.9a3.84,3.84,0,0,1,.22-4.82c1.53-1.93,4-2.1,6-.48s2.51,4.09,1,6a3.81,3.81,0,0,1-4.64,1.29l.72-.91a2.75,2.75,0,0,0,3.16-1c1.15-1.45.74-3.27-.85-4.54s-3.43-1.23-4.59.22A2.75,2.75,0,0,0,87.58,84.62Z"/><path class="cls-1" d="M85.4,89.17c1.55,2.09,1.33,4.6-.66,6.07s-4.42.94-6-1.15-1.3-4.55.67-6A4.09,4.09,0,0,1,85.4,89.17Zm-5.75,4.26c1.23,1.65,3,2.11,4.5,1s1.58-3,.36-4.61-3-2.06-4.48-1S78.43,91.78,79.65,93.43Z"/><path class="cls-1" d="M73.76,96.15l-1.44-3.64,1-.38,3.19,8.07-1,.38-1.39-3.52-4.4,1.74,1.39,3.52-1,.39L67,94.64l1-.39,1.44,3.64Z"/><path class="cls-1" d="M64.34,99.79c.3,2.59-1.14,4.65-3.6,4.93s-4.3-1.4-4.6-4,1.14-4.59,3.59-4.87A4.08,4.08,0,0,1,64.34,99.79Zm-7.1.82c.23,2,1.55,3.34,3.39,3.12s2.85-1.77,2.62-3.81-1.56-3.27-3.41-3.06S57,98.57,57.24,100.61Z"/><path class="cls-1" d="M51.22,104.88l-3.5-.47c-1.87-.26-2.82-1.47-2.6-3.13a2.53,2.53,0,0,1,2.36-2.34l-1.36-3.51,1.19.16L48.62,99l2.31.31.43-3.13,1,.15Zm-2.88-5a1.81,1.81,0,1,0-.49,3.58l2.46.33.49-3.58Z"/><path class="cls-1" d="M39.81,93.37l1,.37L38,100.94l2.76,1-.34.91L34,100.42l.35-.91,2.76,1Z"/><path class="cls-1" d="M25,86.81c1-1.17,2.49-1.16,3.9,0s1.66,2.74.66,4l-.82-.68a1.67,1.67,0,0,0-.39-2.54,1.66,1.66,0,0,0-2.52,0c-.63.76-.48,1.69.47,2.48l.49.4-.58.7-.46-.38A1.51,1.51,0,1,0,23.86,93a1.67,1.67,0,0,0,2.58-.12l.81.67c-1,1.22-2.54,1.32-4,.13-1.28-1.06-1.59-2.46-.67-3.58a2.07,2.07,0,0,1,2.29-.67A2.11,2.11,0,0,1,25,86.81Z"/><path class="cls-1" d="M20.28,79.21l.78-.62,3.58,4.48-.74.59L19.41,83a3.06,3.06,0,0,0-2.5.32,1.56,1.56,0,0,0-.18,2.43,1.74,1.74,0,0,0,2.43.38l.66.83A2.75,2.75,0,0,1,16,86.34c-1-1.29-1.08-2.81.19-3.82a3.87,3.87,0,0,1,3.21-.47l3.6.55Z"/><path class="cls-2" d="M100.64,59.36a45.75,45.75,0,0,1-5.59,18"/><path class="cls-2" d="M9.34,59.36a45.58,45.58,0,0,0,5.59,18"/></g><g id="OUTLINED_TOP" data-name="OUTLINED TOP"><path class="cls-1" d="M12.57,50.43c.09-.79-.33-1.34-1.27-1.44l-5.91-.67.2-1.75,5.93.68a2.79,2.79,0,0,1,2.64,3.32,2.76,2.76,0,0,1-3.32,2.72l.2-1.7A1.24,1.24,0,0,0,12.57,50.43Z"/><path class="cls-1" d="M12.52,41.65a1.88,1.88,0,1,0,1.28-3.53l-5.22-1.9.61-1.68,5.06,1.84a3.36,3.36,0,0,1,2.12,4.67,3.35,3.35,0,0,1-4.62,2.22L6.69,41.43l.61-1.68Z"/><path class="cls-1" d="M11.67,29.74l1-1.46,7,.33-4.94-3.4,1-1.43,7.29,5-1,1.45L15.12,30,20,33.31l-1,1.44Z"/><path class="cls-1" d="M21.56,23.74A4.31,4.31,0,1,1,28,18a4.31,4.31,0,1,1-6.44,5.71Zm5-4.46C25.42,18,24,17.69,22.86,18.71s-1.08,2.47.09,3.8,2.58,1.55,3.74.53S27.76,20.59,26.6,19.28Z"/><path class="cls-1" d="M38.76,17.18l-1.6.72-3.66-8,1.6-.73Z"/><path class="cls-1" d="M47.05,5.57l2.05-.43L51,13.79l-1.7.36L48.57,11c-.19-.89-.37-2-.46-2.75l-1,6.39-1.59.34L42,9.27a22.77,22.77,0,0,1,.72,2.93l.68,3.2-1.68.36L39.89,7.1l2.16-.46L46,12.88Z"/><path class="cls-1" d="M62.25,5.47l2.1.19-.82,8.81-1.72-.16.3-3.25c.08-.91.22-2,.37-2.76l-2.81,5.82L58.05,14,56.35,7.5a21.62,21.62,0,0,1-.18,3l-.3,3.25-1.71-.15L55,4.8l2.19.2,1.91,7.12Z"/><path class="cls-1" d="M73,16.12l-.54,1.45-5.79-2.15,3.08-8.29,5.65,2.1-.54,1.45-4-1.49-.73,2,3,1.13-.53,1.42-3-1.13-.74,2Z"/><path class="cls-1" d="M79.84,11.49l3.32,2.2a2.82,2.82,0,0,1,.94,4.09,2.68,2.68,0,0,1-3,1.3l-.41,3.58L79,21.56l.41-3.29-1.39-.92-1.64,2.48-1.46-1Zm.66,5.7a1.32,1.32,0,0,0,2-.38,1.29,1.29,0,0,0-.46-2l-1.63-1.08-1.57,2.37Z"/><path class="cls-1" d="M85,27c-1.54-1.64-1.69-3.38-.49-4.5l1.21,1.3c-.53.5-.49,1.29.36,2.19.67.72,1.44.9,2,.43s.42-.9,0-1.63l-.76-1.2c-.86-1.36-.84-2.58.13-3.48s2.79-.91,4.23.63c1.18,1.27,1.79,3,.36,4.33l-1.18-1.27c.64-.6.42-1.38-.25-2.09s-1.34-.83-1.81-.39-.41.87.1,1.69l.77,1.2c.88,1.41.76,2.56-.25,3.51C88.1,28.92,86.36,28.46,85,27Z"/><path class="cls-1" d="M90.11,33.5l-1-1.48,7.44-4.8,1,1.47Z"/><path class="cls-1" d="M102.29,38.52l.7,1.74-9.46.19-.69-1.71,6.93-6.44.71,1.77-5.31,4.77Z"/><path class="cls-1" d="M97.75,51.91l-1.53.23L95.3,46,104,44.71l.9,6-1.53.23-.64-4.23L100.7,47l.48,3.21-1.5.22-.48-3.2-2.11.32Z"/></g></svg>