<svg xmlns="http://www.w3.org/2000/svg" width="110" height="110" viewBox="0 0 110 110"><defs><style>.cls-1{fill:#105754;}.cls-2{fill:none;stroke:#105754;stroke-miterlimit:10;}</style></defs><title>stamp-cohort19-outer</title><g id="OUTLINED_BOTTOM" data-name="OUTLINED BOTTOM"><path class="cls-1" d="M86.93,85.32l-.74.89a3.85,3.85,0,0,1,.33-4.82c1.58-1.89,4-2,6-.34s2.42,4.14.83,6a3.8,3.8,0,0,1-4.67,1.19l.74-.89a2.75,2.75,0,0,0,3.18-.93c1.18-1.43.82-3.25-.75-4.56s-3.4-1.31-4.59.12A2.74,2.74,0,0,0,86.93,85.32Z"/><path class="cls-1" d="M84.62,89.84c1.5,2.12,1.23,4.62-.79,6s-4.44.84-6-1.28-1.2-4.57.81-6A4.07,4.07,0,0,1,84.62,89.84ZM78.79,94c1.18,1.67,2.95,2.18,4.47,1.11s1.64-2.93.46-4.6-2.93-2.13-4.46-1S77.6,92.29,78.79,94Z"/><path class="cls-1" d="M72.84,96.55l-1.35-3.66,1-.37,3,8.14-1,.36-1.32-3.55-4.43,1.64,1.31,3.55-1,.36-3-8.13,1-.36,1.36,3.66Z"/><path class="cls-1" d="M63.35,100c.24,2.59-1.25,4.62-3.71,4.84s-4.27-1.49-4.51-4.08,1.24-4.56,3.69-4.79A4.09,4.09,0,0,1,63.35,100Zm-7.12.65c.19,2,1.47,3.37,3.32,3.2s2.89-1.71,2.7-3.75S60.77,96.78,58.91,97,56,98.6,56.23,100.64Z"/><path class="cls-1" d="M50.12,104.78l-3.48-.55c-1.87-.3-2.79-1.53-2.53-3.18a2.52,2.52,0,0,1,2.41-2.29l-1.28-3.54,1.19.19,1.22,3.39,2.31.37.5-3.12,1,.17Zm-2.76-5.07a1.81,1.81,0,1,0-.57,3.57l2.45.39.57-3.56Z"/><path class="cls-1" d="M39,93l1,.4L37,100.55l2.74,1.12-.36.9-6.46-2.63.37-.9,2.74,1.12Z"/><path class="cls-1" d="M29.06,87.07,24.28,93l2.2.46-.66.82-2.23-.44-.8-.65,5.46-6.74Z"/><path class="cls-1" d="M18.32,82.17c1.9-1.62,3.92-2.21,5.49-.38a2.74,2.74,0,0,1,.24,3.55l-.68-.8a1.83,1.83,0,0,0-.27-2.16c-1-1.19-2.4-.85-3.51.09-.08.08-.17.15-.25.24a2.48,2.48,0,0,1,2.36.94,2.86,2.86,0,0,1-.39,4.23A2.9,2.9,0,0,1,17,87.56C15.8,86.14,15.94,84.19,18.32,82.17ZM17.72,87a2,2,0,0,0,2.92.12A2,2,0,1,0,18.06,84,2,2,0,0,0,17.72,87Z"/><path class="cls-2" d="M100.64,59.36a45.75,45.75,0,0,1-5.59,18"/><path class="cls-2" d="M9.34,59.36a45.58,45.58,0,0,0,5.59,18"/></g><g id="OUTLINED_TOP" data-name="OUTLINED TOP"><path class="cls-1" d="M12.57,50.43c.09-.79-.33-1.34-1.27-1.44l-5.91-.67.2-1.75,5.93.68a2.79,2.79,0,0,1,2.64,3.32,2.76,2.76,0,0,1-3.32,2.72l.2-1.7A1.24,1.24,0,0,0,12.57,50.43Z"/><path class="cls-1" d="M12.52,41.65a1.88,1.88,0,1,0,1.28-3.53l-5.22-1.9.61-1.68,5.06,1.84a3.36,3.36,0,0,1,2.12,4.67,3.35,3.35,0,0,1-4.62,2.22L6.69,41.43l.61-1.68Z"/><path class="cls-1" d="M11.67,29.74l1-1.46,7,.33-4.94-3.4,1-1.43,7.29,5-1,1.45L15.12,30,20,33.31l-1,1.44Z"/><path class="cls-1" d="M21.55,23.74A4.31,4.31,0,1,1,28,18a4.31,4.31,0,1,1-6.45,5.71Zm5.05-4.46C25.42,18,24,17.69,22.86,18.71s-1.08,2.47.09,3.8,2.58,1.55,3.74.53S27.76,20.6,26.6,19.28Z"/><path class="cls-1" d="M38.76,17.18l-1.6.72-3.66-8,1.6-.73Z"/><path class="cls-1" d="M47.05,5.57l2.05-.43L51,13.79l-1.7.36L48.57,11c-.19-.89-.37-2-.46-2.75l-1,6.39-1.59.34L42,9.27a22.77,22.77,0,0,1,.72,2.93l.68,3.2-1.68.36L39.89,7.1l2.16-.46L46,12.88Z"/><path class="cls-1" d="M62.25,5.47l2.09.19-.81,8.81-1.72-.16.3-3.25c.08-.91.22-2,.37-2.76l-2.81,5.82L58.05,14,56.35,7.5a21.62,21.62,0,0,1-.18,3l-.3,3.26-1.71-.16L55,4.8l2.19.2,1.91,7.12Z"/><path class="cls-1" d="M73,16.12l-.54,1.45-5.79-2.14,3.08-8.3,5.65,2.1-.54,1.45-4-1.49-.73,2,3,1.13-.53,1.42-3-1.13-.74,2Z"/><path class="cls-1" d="M79.84,11.49l3.32,2.2a2.82,2.82,0,0,1,.94,4.09,2.68,2.68,0,0,1-3,1.3l-.41,3.58L79,21.56l.41-3.29-1.39-.92-1.64,2.48-1.46-1Zm.66,5.7a1.32,1.32,0,0,0,2-.38,1.29,1.29,0,0,0-.46-2l-1.63-1.08-1.57,2.37Z"/><path class="cls-1" d="M85,27c-1.54-1.64-1.69-3.38-.49-4.5l1.21,1.3c-.53.5-.49,1.29.36,2.19.67.72,1.44.9,2,.43s.42-.89,0-1.63l-.76-1.2c-.86-1.36-.84-2.58.13-3.48s2.79-.91,4.23.63c1.18,1.27,1.79,3,.36,4.33l-1.18-1.27c.64-.6.42-1.38-.25-2.09s-1.34-.83-1.81-.39-.41.87.1,1.69l.77,1.2c.88,1.41.76,2.56-.25,3.51C88.1,28.92,86.36,28.46,85,27Z"/><path class="cls-1" d="M90.11,33.5l-1-1.48,7.44-4.8,1,1.47Z"/><path class="cls-1" d="M102.29,38.52l.7,1.74-9.46.19-.69-1.71,6.93-6.43.71,1.76-5.31,4.77Z"/><path class="cls-1" d="M97.75,51.91l-1.53.23L95.29,46,104,44.71l.9,6-1.53.23-.64-4.23L100.7,47l.48,3.21-1.5.23-.48-3.21-2.11.32Z"/></g></svg>