<svg id="ICONS_ROTATED" data-name="ICONS ROTATED" xmlns="http://www.w3.org/2000/svg" xmlns:xlink="http://www.w3.org/1999/xlink" width="110" height="110" viewBox="0 0 110 110"><defs><style>.cls-1,.cls-4,.cls-5,.cls-6{fill:none;}.cls-2{fill:#105754;}.cls-3{fill:url(#_6_lpi_30_5);}.cls-4,.cls-5,.cls-6{stroke:#105754;}.cls-4,.cls-6{stroke-linecap:round;}.cls-4{stroke-linejoin:round;}.cls-5,.cls-6{stroke-miterlimit:10;}</style><pattern id="_6_lpi_30_5" data-name="6 lpi 30% 5" width="4" height="4" patternTransform="translate(3.37 4.93) rotate(17.97) scale(0.8)" patternUnits="userSpaceOnUse" viewBox="0 0 4 4"><rect class="cls-1" width="4" height="4"/><rect class="cls-2" x="2.5" y="2.51" width="1" height="1"/><rect class="cls-2" x="0.5" y="0.49" width="1" height="1"/></pattern></defs><title>stamp-cohort18-innerfixed</title><path class="cls-3" d="M72.52,57.89c.27-1.08.64-2.59,1-4.15a3.39,3.39,0,0,0-1.9-3.33,228.4,228.4,0,0,0-28.06-9.1,3.4,3.4,0,0,0-3.49,1.58c-.64,1.5-1.23,3-1.65,4Z"/><path class="cls-2" d="M48.93,55.2a1.67,1.67,0,0,0-1.37.11,1.82,1.82,0,0,0-.89,1.11,1.76,1.76,0,0,0,1.14,2.3,1.64,1.64,0,0,0,1.31-.07c.27-.15.47-.11.59.1a.38.38,0,0,1-.16.58,2.43,2.43,0,0,1-2,.15A2.65,2.65,0,0,1,46,58.19a2.81,2.81,0,0,1,1.17-3.64,2.66,2.66,0,0,1,2-.12,2.43,2.43,0,0,1,1.49,1.27.39.39,0,0,1-.21.57c-.22.1-.4,0-.54-.26A1.48,1.48,0,0,0,48.93,55.2Z"/><path class="cls-2" d="M51.57,59.42a.43.43,0,0,1,.6.16c.09.14.16.26.23.35a2,2,0,0,0,.88.57c.59.2,1,0,1.14-.34s-.07-.7-.58-1l-.56-.29c-.87-.47-1.25-1.14-1-1.92a1.26,1.26,0,0,1,.83-.85,2.05,2.05,0,0,1,1.34,0,2.79,2.79,0,0,1,.67.33,1.73,1.73,0,0,1,.41.34,3,3,0,0,1,.28.36.43.43,0,1,1-.71.47,1.76,1.76,0,0,0-.93-.76c-.56-.18-.94,0-1,.35s.09.66.59.92l.46.24c1,.51,1.34,1.21,1.08,2a1.31,1.31,0,0,1-.84.86,2.26,2.26,0,0,1-1.49-.05,2.57,2.57,0,0,1-.74-.37,2.31,2.31,0,0,1-.44-.39l-.3-.43A.43.43,0,0,1,51.57,59.42Z"/><path class="cls-2" d="M57,61.2a.43.43,0,0,1,.61.15c.08.14.16.26.22.35a2,2,0,0,0,.89.58c.59.19,1,0,1.13-.35s-.07-.69-.57-1l-.56-.29a1.58,1.58,0,0,1-1-1.93,1.29,1.29,0,0,1,.83-.84,2,2,0,0,1,1.35,0,2.77,2.77,0,0,1,.67.32,2.32,2.32,0,0,1,.41.35,4.26,4.26,0,0,1,.28.35.43.43,0,0,1-.12.61.43.43,0,0,1-.6-.14,1.72,1.72,0,0,0-.92-.75c-.56-.18-.95,0-1,.34s.08.66.59.93l.46.24c1,.51,1.33,1.21,1.07,2a1.3,1.3,0,0,1-.83.86,2.26,2.26,0,0,1-1.49,0,2.91,2.91,0,0,1-.75-.37,2.71,2.71,0,0,1-.44-.39c-.08-.11-.18-.25-.29-.43A.43.43,0,0,1,57,61.2Z"/><path class="cls-4" d="M64.12,73.53a228.4,228.4,0,0,1-28.06-9.1,3.42,3.42,0,0,1-1.9-3.33,102.16,102.16,0,0,1,5.91-18.21,3.4,3.4,0,0,1,3.49-1.58,228.4,228.4,0,0,1,28.06,9.1,3.39,3.39,0,0,1,1.9,3.33A102.16,102.16,0,0,1,67.61,72,3.38,3.38,0,0,1,64.12,73.53Z"/><path class="cls-4" d="M34.25,60.34a9.06,9.06,0,0,1-1-3.75A88.06,88.06,0,0,1,39,38.69C40.28,36.4,77.16,48.36,76.84,51A88.09,88.09,0,0,1,71,68.86a8.47,8.47,0,0,1-2.75,2.25"/><polyline class="cls-4" points="39.01 38.69 34.28 36.98 32.52 42.4 36.07 45.21"/><polyline class="cls-4" points="76.84 50.96 81.67 52.35 79.92 57.77 75.4 57.97"/><rect class="cls-4" x="61.62" y="66.9" width="4.24" height="3.03" transform="translate(24.22 -16.33) rotate(17.97)"/><path class="cls-5" d="M41,51.24A1,1,0,0,1,40,49.43c.5-.25,2.86-.94,3.11-.45S41.45,51,41,51.24Z"/><line class="cls-6" x1="38.58" y1="47.23" x2="48.58" y2="50.47"/></svg>