<svg id="ICONS_ROTATED" data-name="ICONS ROTATED" xmlns="http://www.w3.org/2000/svg" xmlns:xlink="http://www.w3.org/1999/xlink" width="110" height="110" viewBox="0 0 110 110"><defs><style>.cls-1,.cls-4{fill:none;}.cls-2{fill:#105754;}.cls-3{fill:url(#_6_lpi_30_5);}.cls-4{stroke:#105754;stroke-linecap:round;stroke-linejoin:round;}</style><pattern id="_6_lpi_30_5" data-name="6 lpi 30% 5" width="4" height="4" patternTransform="translate(-5.69 3.7) rotate(-19.84) scale(0.8)" patternUnits="userSpaceOnUse" viewBox="0 0 4 4"><rect class="cls-1" width="4" height="4"/><rect class="cls-2" x="2.5" y="2.51" width="1" height="1"/><rect class="cls-2" x="0.5" y="0.49" width="1" height="1"/></pattern></defs><title>stamp-cohort20-innerfixed</title><path class="cls-3" d="M42.37,41.59s-10.88,18.58-3,39.59c0,0-5.55-15.19,13.27-32.75Z"/><path class="cls-3" d="M71.87,58.32,60.81,53.09,51,60.68a41,41,0,0,0-11.71,20.5A49.49,49.49,0,0,1,71.87,58.32Z"/><polyline class="cls-4" points="66.29 55.68 60.81 53.09 51.04 60.67 52.6 48.43 42.37 41.59 54.49 39.18 57.84 27.45 63.88 38.12 76.07 37.79 67.78 46.72 71.87 58.32"/><path class="cls-2" d="M60.86,47.94l1.66-.17a.43.43,0,1,1,.09.86l-4.34.45a.43.43,0,1,1-.09-.86L60,48l-.66-6.4-1.38,1a.43.43,0,0,1-.71-.26.54.54,0,0,1,.28-.5l1.59-1.15a1.29,1.29,0,0,1,.53-.27c.27,0,.49.12.53.49Z"/><path class="cls-4" d="M42.37,41.59s-10.88,18.58-3,39.59c0,0-5.55-15.19,13.27-32.75"/><path class="cls-4" d="M39.33,81.18A49.49,49.49,0,0,1,71.87,58.32"/><path class="cls-4" d="M39.33,81.18S43,67.45,51,60.68"/></svg>