<svg xmlns="http://www.w3.org/2000/svg" width="110" height="110" viewBox="0 0 110 110"><defs><style>.cls-1{fill:#105754;}.cls-2{fill:none;stroke:#105754;stroke-miterlimit:10;}</style></defs><title>stamp-cohort3-outer</title><g id="OUTLINED_BOTTOM" data-name="OUTLINED BOTTOM"><path class="cls-1" d="M84.43,87.77l-.81.82a3.85,3.85,0,0,1,.71-4.78c1.72-1.76,4.15-1.69,6,.13s2.09,4.32.35,6.11a3.8,3.8,0,0,1-4.74.82l.8-.83A2.75,2.75,0,0,0,90,89.35c1.3-1.33,1.08-3.18-.39-4.6s-3.28-1.57-4.58-.24A2.73,2.73,0,0,0,84.43,87.77Z"/><path class="cls-1" d="M81.75,92.09c1.33,2.24.86,4.71-1.27,6s-4.49.49-5.82-1.75-.83-4.65,1.28-5.91A4.08,4.08,0,0,1,81.75,92.09Zm-6.14,3.65c1,1.77,2.77,2.41,4.37,1.46s1.87-2.78.82-4.54-2.75-2.35-4.36-1.4S74.56,94,75.61,95.74Z"/><path class="cls-1" d="M69.51,97.83l-1.06-3.76,1-.28,2.35,8.35-1,.28-1-3.64-4.56,1.28,1,3.64-1,.29-2.35-8.35,1-.29L65,99.11Z"/><path class="cls-1" d="M59.75,100.49c0,2.61-1.6,4.51-4.07,4.55s-4.14-1.81-4.18-4.41,1.58-4.45,4-4.49A4.08,4.08,0,0,1,59.75,100.49Zm-7.15.12c0,2,1.21,3.47,3.07,3.44s3-1.49,3-3.54-1.23-3.41-3.09-3.38S52.57,98.56,52.6,100.61Z"/><path class="cls-1" d="M46.15,104.23l-3.42-.83c-1.84-.44-2.66-1.74-2.27-3.37A2.53,2.53,0,0,1,43,97.94l-1-3.62,1.17.28,1,3.48,2.27.55.74-3.07,1,.25ZM43.81,99a1.81,1.81,0,1,0-.86,3.51l2.41.59.86-3.51Z"/><path class="cls-1" d="M36,91.62l.93.47L33.45,99l2.64,1.34-.43.86L29.44,98l.43-.86,2.65,1.33Z"/><path class="cls-1" d="M22,83.6c1.08-1.07,2.59-.91,3.88.39s1.37,2.89.26,4l-.76-.76a1.67,1.67,0,0,0-.12-2.57,1.66,1.66,0,0,0-2.51-.25c-.7.69-.65,1.63.22,2.51l.44.45-.64.63-.43-.42a1.51,1.51,0,1,0-2.13,2.08,1.66,1.66,0,0,0,2.57.14l.74.74c-1.13,1.12-2.66,1.06-4-.27-1.17-1.18-1.33-2.6-.3-3.62a2.07,2.07,0,0,1,2.35-.44A2.09,2.09,0,0,1,22,83.6Z"/><path class="cls-2" d="M100.64,59.36a45.75,45.75,0,0,1-5.59,18"/><path class="cls-2" d="M9.34,59.36a45.58,45.58,0,0,0,5.59,18"/></g><g id="OUTLINED_TOP" data-name="OUTLINED TOP"><path class="cls-1" d="M12.57,50.43c.09-.79-.33-1.34-1.27-1.44l-5.91-.67.2-1.75,5.93.68a2.79,2.79,0,0,1,2.64,3.32,2.76,2.76,0,0,1-3.32,2.72l.2-1.7A1.24,1.24,0,0,0,12.57,50.43Z"/><path class="cls-1" d="M12.52,41.65a1.88,1.88,0,1,0,1.28-3.53l-5.22-1.9.61-1.68,5.06,1.84a3.36,3.36,0,0,1,2.12,4.67,3.35,3.35,0,0,1-4.62,2.22L6.69,41.43l.61-1.68Z"/><path class="cls-1" d="M11.67,29.74l1-1.46,7,.33-4.94-3.4,1-1.43,7.29,5-1,1.45L15.12,30,20,33.31l-1,1.44Z"/><path class="cls-1" d="M21.56,23.74A4.31,4.31,0,1,1,28,18a4.31,4.31,0,1,1-6.44,5.71Zm5-4.46C25.42,18,24,17.69,22.86,18.71s-1.08,2.47.09,3.8,2.58,1.55,3.74.53S27.76,20.6,26.6,19.28Z"/><path class="cls-1" d="M38.76,17.18l-1.6.72-3.66-8,1.6-.73Z"/><path class="cls-1" d="M47.05,5.57l2.05-.43L51,13.79l-1.7.36L48.57,11c-.19-.89-.37-2-.46-2.75l-1,6.39-1.59.34L42,9.27a22.77,22.77,0,0,1,.72,2.93l.68,3.2-1.68.36L39.89,7.1l2.16-.46L46,12.88Z"/><path class="cls-1" d="M62.25,5.47l2.1.19-.82,8.81-1.72-.16.3-3.25c.08-.91.22-2,.37-2.76l-2.81,5.82L58.05,14,56.35,7.5a21.62,21.62,0,0,1-.18,3l-.3,3.26-1.71-.16L55,4.8l2.19.2,1.91,7.12Z"/><path class="cls-1" d="M73,16.12l-.54,1.45-5.79-2.14,3.08-8.3,5.65,2.1-.54,1.45-4-1.49-.73,2,3,1.13-.53,1.42-3-1.13-.74,2Z"/><path class="cls-1" d="M79.84,11.49l3.32,2.2a2.82,2.82,0,0,1,.94,4.09,2.68,2.68,0,0,1-3,1.3l-.41,3.58L79,21.56l.41-3.29-1.39-.92-1.64,2.48-1.46-1Zm.66,5.7a1.32,1.32,0,0,0,2-.38,1.29,1.29,0,0,0-.46-2l-1.63-1.08-1.57,2.37Z"/><path class="cls-1" d="M85,27c-1.54-1.64-1.69-3.38-.49-4.5l1.21,1.3c-.53.5-.49,1.29.36,2.19.67.72,1.44.9,2,.43s.42-.89,0-1.63l-.76-1.2c-.86-1.36-.84-2.58.13-3.48s2.79-.91,4.23.63c1.18,1.27,1.79,3,.36,4.33l-1.18-1.27c.64-.6.42-1.38-.25-2.09s-1.34-.83-1.81-.39-.41.87.1,1.69l.77,1.2c.88,1.41.76,2.56-.25,3.51C88.1,28.92,86.36,28.46,85,27Z"/><path class="cls-1" d="M90.11,33.5l-1-1.48,7.44-4.8,1,1.47Z"/><path class="cls-1" d="M102.29,38.52l.7,1.74-9.46.19-.69-1.71,6.93-6.43.71,1.76-5.31,4.77Z"/><path class="cls-1" d="M97.75,51.91l-1.53.23L95.3,46,104,44.71l.9,6-1.53.23-.64-4.23L100.7,47l.48,3.21-1.5.23-.48-3.21-2.11.32Z"/></g></svg>