<svg xmlns="http://www.w3.org/2000/svg" width="110" height="110" viewBox="0 0 110 110"><defs><style>.cls-1{fill:#105754;}.cls-2{fill:none;stroke:#105754;stroke-miterlimit:10;}</style></defs><title>stamp-cohort27-outer</title><g id="OUTLINED_BOTTOM" data-name="OUTLINED BOTTOM"><path class="cls-1" d="M87.27,85l-.73.9A3.86,3.86,0,0,1,86.82,81c1.55-1.91,4-2,6-.41s2.47,4.12.9,6a3.78,3.78,0,0,1-4.65,1.24L89.8,87A2.74,2.74,0,0,0,93,86c1.17-1.44.78-3.26-.8-4.55s-3.42-1.27-4.59.17A2.73,2.73,0,0,0,87.27,85Z"/><path class="cls-1" d="M85,89.48c1.53,2.11,1.28,4.62-.72,6.07s-4.44.89-6-1.22-1.26-4.55.73-6A4.1,4.1,0,0,1,85,89.48Zm-5.79,4.2c1.2,1.67,3,2.15,4.48,1.06s1.62-2.95.41-4.61-3-2.09-4.47-1S78,92,79.25,93.68Z"/><path class="cls-1" d="M73.35,96.33,72,92.68l1-.38,3.1,8.11-1,.37L73.7,97.25l-4.42,1.69,1.35,3.54-1,.37-3.1-8.1,1-.37L68.93,98Z"/><path class="cls-1" d="M63.87,99.89c.27,2.59-1.2,4.63-3.65,4.89s-4.29-1.44-4.56-4a4.14,4.14,0,1,1,8.21-.86Zm-7.11.74c.21,2.05,1.51,3.36,3.35,3.16S63,102,62.77,100s-1.52-3.28-3.38-3.09S56.54,98.59,56.76,100.63Z"/><path class="cls-1" d="M50.68,104.84l-3.49-.52c-1.87-.27-2.81-1.49-2.56-3.15A2.54,2.54,0,0,1,47,98.85l-1.32-3.52,1.19.17,1.27,3.39,2.31.34.46-3.13,1,.16Zm-2.82-5a1.81,1.81,0,1,0-.53,3.58l2.46.36.53-3.58Z"/><path class="cls-1" d="M39.4,93.21l1,.38-2.82,7.16,2.75,1.09-.35.9-6.49-2.55.36-.9,2.76,1.08Z"/><path class="cls-1" d="M25.83,85.67l.63-.76,4.41,3.67-.61.73-4.53.25c-1.27.07-1.92.27-2.38.81a1.55,1.55,0,0,0,.3,2.41,1.73,1.73,0,0,0,2.46-.11l.81.68a2.75,2.75,0,0,1-3.88.16c-1.26-1.06-1.61-2.53-.57-3.78a3.82,3.82,0,0,1,3.05-1.1l3.64-.18Z"/><path class="cls-1" d="M18.7,88l-.74.6-3.63-4.5.7-.56a18.28,18.28,0,0,0,8.19-2.23l.66.82a19.56,19.56,0,0,1-8,2.34Z"/><path class="cls-2" d="M100.64,59.36a45.75,45.75,0,0,1-5.59,18"/><path class="cls-2" d="M9.34,59.36a45.58,45.58,0,0,0,5.59,18"/></g><g id="OUTLINED_TOP" data-name="OUTLINED TOP"><path class="cls-1" d="M12.57,50.43c.09-.79-.33-1.34-1.27-1.44l-5.91-.67.2-1.75,5.93.68a2.79,2.79,0,0,1,2.64,3.32,2.76,2.76,0,0,1-3.32,2.72l.2-1.7A1.24,1.24,0,0,0,12.57,50.43Z"/><path class="cls-1" d="M12.52,41.65a1.88,1.88,0,1,0,1.28-3.53l-5.22-1.9.61-1.68,5.06,1.84a3.36,3.36,0,0,1,2.12,4.67,3.35,3.35,0,0,1-4.62,2.22L6.69,41.43l.61-1.68Z"/><path class="cls-1" d="M11.67,29.74l1-1.46,7,.33-4.94-3.4,1-1.43,7.29,5-1,1.45L15.12,30,20,33.31l-1,1.44Z"/><path class="cls-1" d="M21.55,23.74A4.31,4.31,0,1,1,28,18a4.31,4.31,0,1,1-6.45,5.71Zm5.05-4.46C25.42,18,24,17.69,22.86,18.71s-1.08,2.47.09,3.8,2.58,1.55,3.74.53S27.76,20.6,26.6,19.28Z"/><path class="cls-1" d="M38.76,17.18l-1.6.72-3.66-8,1.6-.73Z"/><path class="cls-1" d="M47.05,5.57l2.05-.43L51,13.79l-1.7.36L48.57,11c-.19-.89-.37-2-.46-2.75l-1,6.39-1.59.34L42,9.27a22.77,22.77,0,0,1,.72,2.93l.68,3.2-1.68.36L39.89,7.1l2.16-.46L46,12.88Z"/><path class="cls-1" d="M62.25,5.47l2.09.19-.81,8.81-1.72-.16.3-3.25c.08-.91.22-2,.37-2.76l-2.81,5.82L58.05,14,56.35,7.5a21.62,21.62,0,0,1-.18,3l-.3,3.26-1.71-.16L55,4.8l2.19.2,1.91,7.12Z"/><path class="cls-1" d="M73,16.12l-.54,1.45-5.79-2.14,3.08-8.3,5.65,2.1-.54,1.45-4-1.49-.73,2,3,1.13-.53,1.42-3-1.13-.74,2Z"/><path class="cls-1" d="M79.84,11.49l3.32,2.2a2.82,2.82,0,0,1,.94,4.09,2.68,2.68,0,0,1-3,1.3l-.41,3.58L79,21.56l.41-3.29-1.39-.92-1.64,2.48-1.46-1Zm.66,5.7a1.32,1.32,0,0,0,2-.38,1.29,1.29,0,0,0-.46-2l-1.63-1.08-1.57,2.37Z"/><path class="cls-1" d="M85,27c-1.54-1.64-1.69-3.38-.49-4.5l1.21,1.3c-.53.5-.49,1.29.36,2.19.67.72,1.44.9,2,.43s.42-.89,0-1.63l-.76-1.2c-.86-1.36-.84-2.58.13-3.48s2.79-.91,4.23.63c1.18,1.27,1.79,3,.36,4.33l-1.18-1.27c.64-.6.42-1.38-.25-2.09s-1.34-.83-1.81-.39-.41.87.1,1.69l.77,1.2c.88,1.41.76,2.56-.25,3.51C88.1,28.92,86.36,28.46,85,27Z"/><path class="cls-1" d="M90.11,33.5l-1-1.48,7.44-4.8,1,1.47Z"/><path class="cls-1" d="M102.29,38.52l.7,1.74-9.46.19-.69-1.71,6.93-6.43.71,1.76-5.31,4.77Z"/><path class="cls-1" d="M97.75,51.91l-1.53.23L95.29,46,104,44.71l.9,6-1.53.23-.64-4.23L100.7,47l.48,3.21-1.5.23-.48-3.21-2.11.32Z"/></g></svg>