<svg xmlns="http://www.w3.org/2000/svg" width="110" height="110" viewBox="0 0 110 110"><defs><style>.cls-1{fill:#105754;}.cls-2{fill:none;stroke:#105754;stroke-miterlimit:10;}</style></defs><title>stamp-cohort13-outer</title><g id="OUTLINED_BOTTOM" data-name="OUTLINED BOTTOM"><path class="cls-1" d="M86.82,85.44l-.74.88a3.83,3.83,0,0,1,.35-4.81c1.58-1.89,4-2,6-.32s2.41,4.14.81,6a3.78,3.78,0,0,1-4.67,1.17l.74-.88a2.75,2.75,0,0,0,3.18-.93c1.19-1.42.83-3.24-.73-4.55s-3.4-1.33-4.59.1A2.74,2.74,0,0,0,86.82,85.44Z"/><path class="cls-1" d="M84.49,90c1.5,2.13,1.21,4.63-.81,6s-4.45.83-6-1.3-1.18-4.57.83-6A4.09,4.09,0,0,1,84.49,90Zm-5.85,4.11c1.18,1.68,3,2.19,4.47,1.13s1.66-2.92.48-4.6-2.93-2.14-4.46-1.06S77.46,92.38,78.64,94.06Z"/><path class="cls-1" d="M72.68,96.62,71.35,93l1-.36,3,8.14-1,.36L73,97.54l-4.44,1.62,1.3,3.56-1,.35-3-8.14,1-.36,1.34,3.67Z"/><path class="cls-1" d="M63.17,100c.23,2.59-1.27,4.61-3.73,4.83s-4.26-1.51-4.49-4.1,1.26-4.56,3.71-4.77A4.08,4.08,0,0,1,63.17,100Zm-7.12.63c.18,2,1.46,3.37,3.31,3.21s2.89-1.7,2.71-3.74S60.61,96.8,58.75,97,55.87,98.6,56.05,100.65Z"/><path class="cls-1" d="M49.92,104.77l-3.48-.57c-1.87-.31-2.78-1.54-2.51-3.19a2.52,2.52,0,0,1,2.41-2.28l-1.26-3.55,1.19.2,1.21,3.4,2.3.37L50.29,96l1,.17Zm-2.74-5.08a1.81,1.81,0,1,0-.58,3.56l2.45.4.58-3.56Z"/><path class="cls-1" d="M38.81,93l1,.4-2.94,7.13,2.74,1.12-.37.9-6.44-2.65.37-.9,2.74,1.13Z"/><path class="cls-1" d="M28.94,87l-4.8,5.89,2.2.46-.67.82-2.22-.45-.8-.65,5.49-6.72Z"/><path class="cls-1" d="M19.89,81c1.16-1,2.65-.71,3.84.68s1.15,3,0,4L23,84.9a1.68,1.68,0,0,0,.07-2.58,1.65,1.65,0,0,0-2.48-.43c-.75.63-.77,1.57,0,2.52l.41.47-.69.59-.4-.45a1.51,1.51,0,1,0-2.28,1.91,1.67,1.67,0,0,0,2.56.34l.67.79c-1.2,1-2.72.86-3.93-.56-1.08-1.27-1.14-2.7,0-3.64a2.06,2.06,0,0,1,2.37-.26A2.11,2.11,0,0,1,19.89,81Z"/><path class="cls-2" d="M100.64,59.36a45.75,45.75,0,0,1-5.59,18"/><path class="cls-2" d="M9.34,59.36a45.58,45.58,0,0,0,5.59,18"/></g><g id="OUTLINED_TOP" data-name="OUTLINED TOP"><path class="cls-1" d="M12.57,50.43c.09-.79-.33-1.34-1.27-1.44l-5.91-.67.2-1.75,5.93.68a2.79,2.79,0,0,1,2.64,3.32,2.76,2.76,0,0,1-3.32,2.72l.2-1.7A1.24,1.24,0,0,0,12.57,50.43Z"/><path class="cls-1" d="M12.52,41.65a1.88,1.88,0,1,0,1.28-3.53l-5.22-1.9.61-1.68,5.06,1.84a3.36,3.36,0,0,1,2.12,4.67,3.35,3.35,0,0,1-4.62,2.22L6.69,41.43l.61-1.68Z"/><path class="cls-1" d="M11.67,29.74l1-1.46,7,.33-4.94-3.4,1-1.43,7.29,5-1,1.45L15.12,30,20,33.31l-1,1.44Z"/><path class="cls-1" d="M21.56,23.74A4.31,4.31,0,1,1,28,18a4.31,4.31,0,1,1-6.44,5.71Zm5-4.46C25.42,18,24,17.69,22.86,18.71s-1.08,2.47.09,3.8,2.58,1.55,3.74.53S27.76,20.6,26.6,19.28Z"/><path class="cls-1" d="M38.76,17.18l-1.6.72-3.66-8,1.6-.73Z"/><path class="cls-1" d="M47.05,5.57l2.05-.43L51,13.79l-1.7.36L48.57,11c-.19-.89-.37-2-.46-2.75l-1,6.39-1.59.34L42,9.27a22.77,22.77,0,0,1,.72,2.93l.68,3.2-1.68.36L39.89,7.1l2.16-.46L46,12.88Z"/><path class="cls-1" d="M62.25,5.47l2.1.19-.82,8.81-1.72-.16.3-3.25c.08-.91.22-2,.37-2.76l-2.81,5.82L58.05,14,56.35,7.5a21.62,21.62,0,0,1-.18,3l-.3,3.26-1.71-.16L55,4.8l2.19.2,1.91,7.12Z"/><path class="cls-1" d="M73,16.12l-.54,1.45-5.79-2.14,3.08-8.3,5.65,2.1-.54,1.45-4-1.49-.73,2,3,1.13-.53,1.42-3-1.13-.74,2Z"/><path class="cls-1" d="M79.84,11.49l3.32,2.2a2.82,2.82,0,0,1,.94,4.09,2.68,2.68,0,0,1-3,1.3l-.41,3.58L79,21.56l.41-3.29-1.39-.92-1.64,2.48-1.46-1Zm.66,5.7a1.32,1.32,0,0,0,2-.38,1.29,1.29,0,0,0-.46-2l-1.63-1.08-1.57,2.37Z"/><path class="cls-1" d="M85,27c-1.54-1.64-1.69-3.38-.49-4.5l1.21,1.3c-.53.5-.49,1.29.36,2.19.67.72,1.44.9,2,.43s.42-.89,0-1.63l-.76-1.2c-.86-1.36-.84-2.58.13-3.48s2.79-.91,4.23.63c1.18,1.27,1.79,3,.36,4.33l-1.18-1.27c.64-.6.42-1.38-.25-2.09s-1.34-.83-1.81-.39-.41.87.1,1.69l.77,1.2c.88,1.41.76,2.56-.25,3.51C88.1,28.92,86.36,28.46,85,27Z"/><path class="cls-1" d="M90.11,33.5l-1-1.48,7.44-4.8,1,1.47Z"/><path class="cls-1" d="M102.29,38.52l.7,1.74-9.46.19-.69-1.71,6.93-6.43.71,1.76-5.31,4.77Z"/><path class="cls-1" d="M97.75,51.91l-1.53.23L95.3,46,104,44.71l.9,6-1.53.23-.64-4.23L100.7,47l.48,3.21-1.5.23-.48-3.21-2.11.32Z"/></g></svg>