<svg id="ICONS_ROTATED" data-name="ICONS ROTATED" xmlns="http://www.w3.org/2000/svg" xmlns:xlink="http://www.w3.org/1999/xlink" width="110" height="110" viewBox="0 0 110 110"><defs><style>.cls-1,.cls-4,.cls-5{fill:none;}.cls-2{fill:#105754;}.cls-3{fill:url(#_6_lpi_30_6);}.cls-4,.cls-5{stroke:#105754;stroke-miterlimit:10;}.cls-5{stroke-linecap:round;}</style><pattern id="_6_lpi_30_6" data-name="6 lpi 30% 6" width="4" height="4" patternTransform="matrix(0.77, 0.22, -0.22, 0.77, -5.28, -5.4)" patternUnits="userSpaceOnUse" viewBox="0 0 4 4"><rect class="cls-1" width="4" height="4"/><rect class="cls-2" x="1.5" width="1" height="4"/></pattern></defs><title>stamp-cohort21-innerfixed</title><path class="cls-3" d="M66.52,69.86,35.28,61c-2.54-.72-3.06-2.81-1.17-4.65L57.44,33.7c1.89-1.83,4-1.24,4.62,1.32L70,66.52C70.61,69.08,69.06,70.58,66.52,69.86ZM65.2,61.6l-5-20c-.65-2.56-2.72-3.15-4.62-1.31L40.76,54.64c-1.89,1.83-1.37,3.93,1.17,4.65l19.82,5.65C64.29,65.66,65.84,64.16,65.2,61.6Z"/><path class="cls-4" d="M70.14,67.19c.55,2.19-.78,3.48-3,2.86L34.62,60.78c-2.17-.62-2.62-2.42-1-4L57.93,33.22c1.63-1.57,3.41-1.06,4,1.13Z"/><path class="cls-4" d="M70.14,67.19c.55,2.19-.78,3.48-3,2.86L34.62,60.78c-2.17-.62-2.62-2.42-1-4L57.93,33.22c1.63-1.57,3.41-1.06,4,1.13Z"/><path class="cls-5" d="M47,48.57l-6.75,6.55c-1.63,1.57-1.17,3.36,1,4l15.09,4.3"/><path class="cls-2" d="M53.58,56a1,1,0,1,1-1.22.7A1,1,0,0,1,53.58,56ZM55,53.49c-.14.51-.43.72-.87.59s-.61-.46-.47-1l2.06-7.23c.15-.51.45-.71.91-.58s.58.45.43,1Z"/><path class="cls-4" d="M70.08,69.1l-1.23,4.32a1.6,1.6,0,0,1-2,1.1L32.5,64.73a1.61,1.61,0,0,1-1.1-2l1.23-4.32"/></svg>