<svg xmlns="http://www.w3.org/2000/svg" width="110" height="110" viewBox="0 0 110 110"><defs><style>.cls-1{fill:#105754;}.cls-2{fill:none;stroke:#105754;stroke-miterlimit:10;}</style></defs><title>stamp-cohort17-outer</title><g id="OUTLINED_BOTTOM" data-name="OUTLINED BOTTOM"><path class="cls-1" d="M86.43,85.85l-.76.87a3.84,3.84,0,0,1,.42-4.81c1.6-1.87,4-2,6-.25s2.36,4.18.73,6.07a3.79,3.79,0,0,1-4.68,1.12L88.9,88a2.74,2.74,0,0,0,3.19-.89c1.21-1.4.87-3.23-.68-4.56s-3.38-1.37-4.59,0A2.72,2.72,0,0,0,86.43,85.85Z"/><path class="cls-1" d="M84.07,90.31c1.47,2.15,1.15,4.64-.89,6s-4.46.77-5.93-1.38-1.13-4.59.9-6A4.1,4.1,0,0,1,84.07,90.31Zm-5.91,4c1.16,1.69,2.93,2.23,4.46,1.18s1.69-2.9.54-4.6-2.91-2.17-4.45-1.11S77,92.65,78.16,94.35Z"/><path class="cls-1" d="M72.17,96.84l-1.29-3.69,1-.35L74.75,101l-1,.35L72.5,97.76,68,99.33l1.25,3.57-1,.35-2.87-8.19,1-.34,1.3,3.69Z"/><path class="cls-1" d="M62.6,100.12c.2,2.6-1.33,4.6-3.79,4.78s-4.25-1.56-4.44-4.16A4.08,4.08,0,0,1,58.14,96C60.6,95.83,62.4,97.52,62.6,100.12Zm-7.13.54c.15,2,1.42,3.39,3.27,3.25s2.91-1.66,2.76-3.71S60.07,96.87,58.21,97,55.31,98.61,55.47,100.66Z"/><path class="cls-1" d="M49.3,104.7l-3.47-.61c-1.86-.33-2.77-1.58-2.48-3.22a2.52,2.52,0,0,1,2.45-2.25l-1.22-3.56,1.18.21,1.17,3.41,2.3.4L49.78,96l1,.19Zm-2.68-5.12a1.81,1.81,0,1,0-.62,3.56l2.44.43.63-3.55Z"/><path class="cls-1" d="M38.33,92.75l1,.41-3,7.08L39,101.4l-.38.89-6.4-2.74.38-.89,2.72,1.16Z"/><path class="cls-1" d="M28.55,86.65l-4.87,5.83,2.2.5-.68.81L23,93.31l-.8-.66L27.76,86Z"/><path class="cls-1" d="M19.65,89l-.73.63-3.75-4.4.68-.58A18.46,18.46,0,0,0,24,82.19l.68.79a19.59,19.59,0,0,1-7.95,2.57Z"/><path class="cls-2" d="M100.64,59.36a45.75,45.75,0,0,1-5.59,18"/><path class="cls-2" d="M9.34,59.36a45.58,45.58,0,0,0,5.59,18"/></g><g id="OUTLINED_TOP" data-name="OUTLINED TOP"><path class="cls-1" d="M12.57,50.43c.09-.79-.33-1.34-1.27-1.44l-5.91-.67.2-1.75,5.93.68a2.79,2.79,0,0,1,2.64,3.32,2.76,2.76,0,0,1-3.32,2.72l.2-1.7A1.24,1.24,0,0,0,12.57,50.43Z"/><path class="cls-1" d="M12.52,41.65a1.88,1.88,0,1,0,1.28-3.53l-5.22-1.9.61-1.68,5.06,1.84a3.36,3.36,0,0,1,2.12,4.67,3.35,3.35,0,0,1-4.62,2.22L6.69,41.43l.61-1.68Z"/><path class="cls-1" d="M11.67,29.74l1-1.46,7,.33-4.94-3.4,1-1.43,7.29,5-1,1.45L15.12,30,20,33.31l-1,1.44Z"/><path class="cls-1" d="M21.55,23.74A4.31,4.31,0,1,1,28,18a4.31,4.31,0,1,1-6.45,5.71Zm5.05-4.46C25.42,18,24,17.69,22.86,18.71s-1.08,2.47.09,3.8,2.58,1.55,3.74.53S27.76,20.6,26.6,19.28Z"/><path class="cls-1" d="M38.76,17.18l-1.6.72-3.66-8,1.6-.73Z"/><path class="cls-1" d="M47.05,5.57l2.05-.43L51,13.79l-1.7.36L48.57,11c-.19-.89-.37-2-.46-2.75l-1,6.39-1.59.34L42,9.27a22.77,22.77,0,0,1,.72,2.93l.68,3.2-1.68.36L39.89,7.1l2.16-.46L46,12.88Z"/><path class="cls-1" d="M62.25,5.47l2.09.19-.81,8.81-1.72-.16.3-3.25c.08-.91.22-2,.37-2.76l-2.81,5.82L58.05,14,56.35,7.5a21.62,21.62,0,0,1-.18,3l-.3,3.26-1.71-.16L55,4.8l2.19.2,1.91,7.12Z"/><path class="cls-1" d="M73,16.12l-.54,1.45-5.79-2.14,3.08-8.3,5.65,2.1-.54,1.45-4-1.49-.73,2,3,1.13-.53,1.42-3-1.13-.74,2Z"/><path class="cls-1" d="M79.84,11.49l3.32,2.2a2.82,2.82,0,0,1,.94,4.09,2.68,2.68,0,0,1-3,1.3l-.41,3.58L79,21.56l.41-3.29-1.39-.92-1.64,2.48-1.46-1Zm.66,5.7a1.32,1.32,0,0,0,2-.38,1.29,1.29,0,0,0-.46-2l-1.63-1.08-1.57,2.37Z"/><path class="cls-1" d="M85,27c-1.54-1.64-1.69-3.38-.49-4.5l1.21,1.3c-.53.5-.49,1.29.36,2.19.67.72,1.44.9,2,.43s.42-.89,0-1.63l-.76-1.2c-.86-1.36-.84-2.58.13-3.48s2.79-.91,4.23.63c1.18,1.27,1.79,3,.36,4.33l-1.18-1.27c.64-.6.42-1.38-.25-2.09s-1.34-.83-1.81-.39-.41.87.1,1.69l.77,1.2c.88,1.41.76,2.56-.25,3.51C88.1,28.92,86.36,28.46,85,27Z"/><path class="cls-1" d="M90.11,33.5l-1-1.48,7.44-4.8,1,1.47Z"/><path class="cls-1" d="M102.29,38.52l.7,1.74-9.46.19-.69-1.71,6.93-6.43.71,1.76-5.31,4.77Z"/><path class="cls-1" d="M97.75,51.91l-1.53.23L95.29,46,104,44.71l.9,6-1.53.23-.64-4.23L100.7,47l.48,3.21-1.5.23-.48-3.21-2.11.32Z"/></g></svg>