<svg id="ICONS_ROTATED" data-name="ICONS ROTATED" xmlns="http://www.w3.org/2000/svg" xmlns:xlink="http://www.w3.org/1999/xlink" width="110" height="110" viewBox="0 0 110 110"><defs><style>.cls-1,.cls-5{fill:none;}.cls-2{fill:#105754;}.cls-3{fill:url(#_6_lpi_30_5);}.cls-4{fill:url(#_6_lpi_30_7);}.cls-5{stroke:#105754;stroke-linecap:round;stroke-linejoin:round;}</style><pattern id="_6_lpi_30_5" data-name="6 lpi 30% 5" width="4" height="4" patternTransform="translate(-0.94 3.84) rotate(11.01) scale(0.8)" patternUnits="userSpaceOnUse" viewBox="0 0 4 4"><rect class="cls-1" width="4" height="4"/><rect class="cls-2" x="2.5" y="2.51" width="1" height="1"/><rect class="cls-2" x="0.5" y="0.49" width="1" height="1"/></pattern><pattern id="_6_lpi_30_7" data-name="6 lpi 30% 7" width="6" height="6" patternTransform="translate(-1.9 0.4) rotate(11.01) scale(0.8)" patternUnits="userSpaceOnUse" viewBox="0 0 6 6"><rect class="cls-1" width="6" height="6"/><polygon class="cls-2" points="6.26 12.46 5.56 11.75 12.01 5.3 12.72 6 6.26 12.46"/><polygon class="cls-2" points="0.27 12.46 -0.44 11.75 6.01 5.3 6.72 6 0.27 12.46"/><polygon class="cls-2" points="-5.74 12.46 -6.44 11.75 0.01 5.3 0.72 6 -5.74 12.46"/><polygon class="cls-2" points="6.26 6.46 5.56 5.75 12.01 -0.7 12.72 0 6.26 6.46"/><polygon class="cls-2" points="0.27 6.46 -0.44 5.75 6.01 -0.7 6.72 0 0.27 6.46"/><polygon class="cls-2" points="-5.74 6.46 -6.44 5.75 0.01 -0.7 0.72 0 -5.74 6.46"/><polygon class="cls-2" points="6.26 0.46 5.56 -0.25 12.01 -6.7 12.72 -6 6.26 0.46"/><polygon class="cls-2" points="0.27 0.46 -0.44 -0.25 6.01 -6.7 6.72 -6 0.27 0.46"/><polygon class="cls-2" points="-5.74 0.46 -6.44 -0.25 0.01 -6.7 0.72 -6 -5.74 0.46"/></pattern></defs><title>stamp-cohort17-innerfixed</title><path class="cls-3" d="M60.09,63l-1.17,6c2.06,1.38,3.37,1.77,6.13.28l1.19-6.09C63.85,62.73,62.22,64.77,60.09,63Z"/><path class="cls-4" d="M48.52,54.15,44.94,72.53c-2.18-1.49-2.7-5.2-4.62-8L42.55,53h0l2.57-13.2L52.24,35,48.52,54.15"/><polygon class="cls-3" points="62.66 49.46 63.84 43.36 69.81 44.52 68.63 50.62 62.66 49.46"/><polyline class="cls-5" points="69.86 44.6 68.68 50.69 62.71 49.53 63.9 43.44"/><polygon class="cls-5" points="51.08 40.95 69.86 44.6 65.06 37.47 52.24 34.98 51.08 40.95"/><polyline class="cls-5" points="42.55 52.99 45.12 39.79 52.24 34.98 48.52 54.15"/><path class="cls-5" d="M65.05,69.29l1.19-6.09c-2.39-.47-4,1.57-6.15-.23l-1.17,6"/><path class="cls-5" d="M46.1,66.56a14.35,14.35,0,0,1,9.64.51c3.43,1.4,4.89,5,9.31,2.22-2.85,1.92-4.71,5.17-7.3,5.73-5.22-3.37-6.7-3.66-12.81-2.49Z"/><path class="cls-5" d="M42.73,52.07,40.32,64.48c1.92,2.85,2.44,6.56,4.62,8l3.58-18.38"/></svg>