<svg xmlns="http://www.w3.org/2000/svg" width="110" height="110" viewBox="0 0 110 110"><defs><style>.cls-1{fill:#105754;}.cls-2{fill:none;stroke:#105754;stroke-miterlimit:10;}</style></defs><title>stamp-cohort8-outer</title><g id="OUTLINED_BOTTOM" data-name="OUTLINED BOTTOM"><path class="cls-1" d="M84.57,87.63l-.8.83a3.84,3.84,0,0,1,.69-4.78c1.71-1.77,4.14-1.71,6,.11s2.1,4.31.37,6.1a3.79,3.79,0,0,1-4.74.84l.8-.84a2.76,2.76,0,0,0,3.24-.69c1.29-1.34,1.06-3.18-.41-4.6s-3.29-1.56-4.58-.23A2.73,2.73,0,0,0,84.57,87.63Z"/><path class="cls-1" d="M82,92c1.34,2.23.88,4.71-1.24,6s-4.49.51-5.83-1.72S74,91.56,76.12,90.3A4.08,4.08,0,0,1,82,92Zm-6.13,3.69c1.06,1.76,2.79,2.39,4.38,1.44s1.86-2.8.8-4.56-2.76-2.33-4.37-1.37S74.77,93.88,75.82,95.64Z"/><path class="cls-1" d="M69.71,97.77,68.63,94l1-.29L72,102.06l-1,.29-1-3.64L65.43,100l1,3.63-1,.29L63.08,95.6l1-.28,1.08,3.75Z"/><path class="cls-1" d="M60,100.48c0,2.61-1.59,4.52-4.06,4.56s-4.15-1.8-4.19-4.4,1.57-4.46,4-4.5A4.08,4.08,0,0,1,60,100.48Zm-7.15.13c0,2.06,1.22,3.47,3.08,3.44s3-1.5,3-3.55-1.24-3.4-3.1-3.37S52.77,98.56,52.81,100.61Z"/><path class="cls-1" d="M46.41,104.29,43,103.48c-1.84-.44-2.67-1.73-2.28-3.36A2.53,2.53,0,0,1,43.27,98l-1-3.62,1.17.27,1,3.48,2.27.54.73-3.07,1,.24ZM44,99a1.81,1.81,0,1,0-.84,3.51l2.42.58.83-3.52Z"/><path class="cls-1" d="M36.18,91.72l.94.47-3.44,6.9,2.66,1.32-.44.87-6.23-3.11.43-.87,2.65,1.32Z"/><path class="cls-1" d="M21.71,83.49c1.06-1,2.71-.93,4.09.46s1.48,3,.42,4.08a2.45,2.45,0,0,1-2.61.53,2,2,0,0,1-.54,2.08c-1,1-2.43.77-3.61-.43s-1.38-2.64-.39-3.62a2,2,0,0,1,2.08-.51A2.42,2.42,0,0,1,21.71,83.49Zm.66,6.43c.64-.63.54-1.55-.25-2.35a1.57,1.57,0,0,0-2.33-.26c-.64.63-.53,1.52.26,2.32S21.74,90.55,22.37,89.92Zm.07-5.68c-.75.74-.64,1.8.29,2.74s2,1.06,2.73.31.61-1.77-.31-2.71S23.17,83.51,22.44,84.24Z"/><path class="cls-2" d="M100.64,59.36a45.75,45.75,0,0,1-5.59,18"/><path class="cls-2" d="M9.34,59.36a45.58,45.58,0,0,0,5.59,18"/></g><g id="OUTLINED_TOP" data-name="OUTLINED TOP"><path class="cls-1" d="M12.57,50.43c.09-.79-.33-1.34-1.27-1.44l-5.91-.67.2-1.75,5.93.68a2.79,2.79,0,0,1,2.64,3.32,2.76,2.76,0,0,1-3.32,2.72l.2-1.7A1.24,1.24,0,0,0,12.57,50.43Z"/><path class="cls-1" d="M12.52,41.65a1.88,1.88,0,1,0,1.28-3.53l-5.22-1.9.61-1.68,5.06,1.84a3.36,3.36,0,0,1,2.12,4.67,3.35,3.35,0,0,1-4.62,2.22L6.69,41.43l.61-1.68Z"/><path class="cls-1" d="M11.67,29.74l1-1.46,7,.33-4.94-3.4,1-1.43,7.29,5-1,1.45L15.12,30,20,33.31l-1,1.44Z"/><path class="cls-1" d="M21.55,23.74A4.31,4.31,0,1,1,28,18a4.31,4.31,0,1,1-6.45,5.71Zm5.05-4.46C25.42,18,24,17.69,22.86,18.71s-1.08,2.47.09,3.8,2.58,1.55,3.74.53S27.76,20.6,26.6,19.28Z"/><path class="cls-1" d="M38.76,17.18l-1.6.72-3.66-8,1.6-.73Z"/><path class="cls-1" d="M47.05,5.57l2.05-.43L51,13.79l-1.7.36L48.57,11c-.19-.89-.37-2-.46-2.75l-1,6.39-1.59.34L42,9.27a22.77,22.77,0,0,1,.72,2.93l.68,3.2-1.68.36L39.89,7.1l2.16-.46L46,12.88Z"/><path class="cls-1" d="M62.25,5.47l2.09.19-.81,8.81-1.72-.16.3-3.25c.08-.91.22-2,.37-2.76l-2.81,5.82L58.05,14,56.35,7.5a21.62,21.62,0,0,1-.18,3l-.3,3.26-1.71-.16L55,4.8l2.19.2,1.91,7.12Z"/><path class="cls-1" d="M73,16.12l-.54,1.45-5.79-2.14,3.08-8.3,5.65,2.1-.54,1.45-4-1.49-.73,2,3,1.13-.53,1.42-3-1.13-.74,2Z"/><path class="cls-1" d="M79.84,11.49l3.32,2.2a2.82,2.82,0,0,1,.94,4.09,2.68,2.68,0,0,1-3,1.3l-.41,3.58L79,21.56l.41-3.29-1.39-.92-1.64,2.48-1.46-1Zm.66,5.7a1.32,1.32,0,0,0,2-.38,1.29,1.29,0,0,0-.46-2l-1.63-1.08-1.57,2.37Z"/><path class="cls-1" d="M85,27c-1.54-1.64-1.69-3.38-.49-4.5l1.21,1.3c-.53.5-.49,1.29.36,2.19.67.72,1.44.9,2,.43s.42-.89,0-1.63l-.76-1.2c-.86-1.36-.84-2.58.13-3.48s2.79-.91,4.23.63c1.18,1.27,1.79,3,.36,4.33l-1.18-1.27c.64-.6.42-1.38-.25-2.09s-1.34-.83-1.81-.39-.41.87.1,1.69l.77,1.2c.88,1.41.76,2.56-.25,3.51C88.1,28.92,86.36,28.46,85,27Z"/><path class="cls-1" d="M90.11,33.5l-1-1.48,7.44-4.8,1,1.47Z"/><path class="cls-1" d="M102.29,38.52l.7,1.74-9.46.19-.69-1.71,6.93-6.43.71,1.76-5.31,4.77Z"/><path class="cls-1" d="M97.75,51.91l-1.53.23L95.29,46,104,44.71l.9,6-1.53.23-.64-4.23L100.7,47l.48,3.21-1.5.23-.48-3.21-2.11.32Z"/></g></svg>