<svg xmlns="http://www.w3.org/2000/svg" width="110" height="110" viewBox="0 0 110 110"><defs><style>.cls-1{fill:#105754;}.cls-2{fill:none;stroke:#105754;stroke-miterlimit:10;}</style></defs><title>stamp-cohort37-outer</title><g id="OUTLINED_BOTTOM" data-name="OUTLINED BOTTOM"><path class="cls-1" d="M87.38,84.84l-.73.9a3.83,3.83,0,0,1,.27-4.82c1.54-1.92,4-2.07,6-.44s2.48,4.11.92,6a3.79,3.79,0,0,1-4.65,1.26l.72-.9a2.74,2.74,0,0,0,3.17-1c1.16-1.44.77-3.26-.82-4.54s-3.42-1.26-4.59.18A2.74,2.74,0,0,0,87.38,84.84Z"/><path class="cls-1" d="M85.14,89.39c1.54,2.1,1.3,4.61-.7,6.06s-4.43.91-6-1.19-1.27-4.55.71-6A4.09,4.09,0,0,1,85.14,89.39Zm-5.77,4.22c1.21,1.66,3,2.13,4.49,1s1.6-3,.39-4.61-3-2.08-4.47-1S78.16,92,79.37,93.61Z"/><path class="cls-1" d="M73.48,96.28l-1.42-3.65,1-.38,3.13,8.09-1,.38-1.37-3.53L69.42,98.9l1.37,3.53-1,.38-3.13-8.09,1-.38L69.06,98Z"/><path class="cls-1" d="M64,99.87c.28,2.59-1.18,4.64-3.64,4.9s-4.29-1.43-4.57-4S57,96.17,59.4,95.91,63.71,97.28,64,99.87Zm-7.11.76c.22,2,1.52,3.35,3.37,3.15s2.86-1.75,2.64-3.8-1.52-3.28-3.38-3.08S56.66,98.59,56.88,100.63Z"/><path class="cls-1" d="M50.83,104.85l-3.49-.5c-1.87-.27-2.82-1.49-2.58-3.14a2.53,2.53,0,0,1,2.37-2.33l-1.32-3.52,1.19.17,1.27,3.38,2.31.33L51,96.12l1,.15Zm-2.84-5a1.81,1.81,0,1,0-.51,3.58l2.45.35.52-3.57Z"/><path class="cls-1" d="M39.51,93.25l1,.38-2.81,7.18,2.76,1.07-.35.91-6.49-2.54.35-.9,2.76,1.08Z"/><path class="cls-1" d="M24.79,86.58c1-1.17,2.5-1.14,3.91,0s1.64,2.75.63,4l-.82-.69a1.68,1.68,0,0,0-.37-2.55,1.66,1.66,0,0,0-2.52,0c-.64.76-.5,1.69.45,2.48l.48.41L26,90.9l-.46-.38a1.51,1.51,0,1,0-1.94,2.27,1.67,1.67,0,0,0,2.58-.1l.81.68c-1,1.21-2.55,1.3-4,.1S21.4,91,22.33,89.88a2.1,2.1,0,0,1,2.3-.66A2.11,2.11,0,0,1,24.79,86.58Z"/><path class="cls-1" d="M18.6,87.87l-.75.6L14.24,84l.7-.56a18.47,18.47,0,0,0,8.2-2.2l.66.81a19.47,19.47,0,0,1-8,2.32Z"/><path class="cls-2" d="M100.64,59.36a45.75,45.75,0,0,1-5.59,18"/><path class="cls-2" d="M9.34,59.36a45.58,45.58,0,0,0,5.59,18"/></g><g id="OUTLINED_TOP" data-name="OUTLINED TOP"><path class="cls-1" d="M12.57,50.43c.09-.79-.33-1.34-1.27-1.44l-5.91-.67.2-1.75,5.93.68a2.79,2.79,0,0,1,2.64,3.32,2.76,2.76,0,0,1-3.32,2.72l.2-1.7A1.24,1.24,0,0,0,12.57,50.43Z"/><path class="cls-1" d="M12.52,41.65a1.88,1.88,0,1,0,1.28-3.53l-5.22-1.9.61-1.68,5.06,1.84a3.36,3.36,0,0,1,2.12,4.67,3.35,3.35,0,0,1-4.62,2.22L6.69,41.43l.61-1.68Z"/><path class="cls-1" d="M11.67,29.74l1-1.46,7,.33-4.94-3.4,1-1.43,7.29,5-1,1.45L15.12,30,20,33.31l-1,1.44Z"/><path class="cls-1" d="M21.55,23.74A4.31,4.31,0,1,1,28,18a4.31,4.31,0,1,1-6.45,5.71Zm5.05-4.46C25.42,18,24,17.69,22.86,18.71s-1.08,2.47.09,3.8,2.58,1.55,3.74.53S27.76,20.59,26.6,19.28Z"/><path class="cls-1" d="M38.76,17.18l-1.6.72-3.66-8,1.6-.73Z"/><path class="cls-1" d="M47.05,5.57l2.05-.43L51,13.79l-1.7.36L48.57,11c-.19-.89-.37-2-.46-2.75l-1,6.39-1.59.34L42,9.27a22.77,22.77,0,0,1,.72,2.93l.68,3.2-1.68.36L39.89,7.1l2.16-.46L46,12.88Z"/><path class="cls-1" d="M62.25,5.47l2.09.19-.81,8.81-1.72-.16.3-3.25c.08-.91.22-2,.37-2.76l-2.81,5.82L58.05,14,56.35,7.5a21.62,21.62,0,0,1-.18,3l-.3,3.25-1.71-.15L55,4.8l2.19.2,1.91,7.12Z"/><path class="cls-1" d="M73,16.12l-.54,1.45-5.79-2.15,3.08-8.29,5.65,2.1-.54,1.45-4-1.49-.73,2,3,1.13-.53,1.42-3-1.13-.74,2Z"/><path class="cls-1" d="M79.84,11.49l3.32,2.2a2.82,2.82,0,0,1,.94,4.09,2.68,2.68,0,0,1-3,1.3l-.41,3.58L79,21.56l.41-3.29-1.39-.92-1.64,2.48-1.46-1Zm.66,5.7a1.32,1.32,0,0,0,2-.38,1.29,1.29,0,0,0-.46-2l-1.63-1.08-1.57,2.37Z"/><path class="cls-1" d="M85,27c-1.54-1.64-1.69-3.38-.49-4.5l1.21,1.3c-.53.5-.49,1.29.36,2.19.67.72,1.44.9,2,.43s.42-.9,0-1.63l-.76-1.2c-.86-1.36-.84-2.58.13-3.48s2.79-.91,4.23.63c1.18,1.27,1.79,3,.36,4.33l-1.18-1.27c.64-.6.42-1.38-.25-2.09s-1.34-.83-1.81-.39-.41.87.1,1.69l.77,1.2c.88,1.41.76,2.56-.25,3.51C88.1,28.92,86.36,28.46,85,27Z"/><path class="cls-1" d="M90.11,33.5l-1-1.48,7.44-4.8,1,1.47Z"/><path class="cls-1" d="M102.29,38.52l.7,1.74-9.46.19-.69-1.71,6.93-6.44.71,1.77-5.31,4.77Z"/><path class="cls-1" d="M97.75,51.91l-1.53.23L95.29,46,104,44.71l.9,6-1.53.23-.64-4.23L100.7,47l.48,3.21-1.5.22-.48-3.2-2.11.32Z"/></g></svg>