<svg xmlns="http://www.w3.org/2000/svg" width="110" height="110" viewBox="0 0 110 110"><defs><style>.cls-1{fill:#105754;}.cls-2{fill:none;stroke:#105754;stroke-miterlimit:10;}</style></defs><title>stamp-cohort28-outer</title><g id="OUTLINED_BOTTOM" data-name="OUTLINED BOTTOM"><path class="cls-1" d="M87.69,84.5l-.71.9a3.83,3.83,0,0,1,.21-4.82c1.52-1.93,4-2.11,6-.5s2.53,4.08,1,6a3.78,3.78,0,0,1-4.63,1.3l.72-.91a2.74,2.74,0,0,0,3.15-1c1.15-1.46.73-3.27-.87-4.54s-3.43-1.22-4.58.23A2.75,2.75,0,0,0,87.69,84.5Z"/><path class="cls-1" d="M85.52,89.05c1.56,2.09,1.35,4.59-.63,6.07s-4.42,1-6-1.13a4.14,4.14,0,1,1,6.61-4.94Zm-5.73,4.28c1.23,1.64,3,2.1,4.5,1s1.58-3,.35-4.61-3-2-4.49-.93S78.57,91.69,79.79,93.33Z"/><path class="cls-1" d="M73.91,96.08l-1.45-3.63,1-.4,3.22,8.06-1,.4L74.28,97l-4.4,1.76,1.41,3.51-1,.39L67.1,94.59l1-.39,1.45,3.63Z"/><path class="cls-1" d="M64.5,99.76c.31,2.59-1.13,4.65-3.58,4.95s-4.31-1.39-4.62-4a4.14,4.14,0,1,1,8.2-1Zm-7.1.84c.24,2,1.56,3.33,3.4,3.12s2.85-1.79,2.61-3.83-1.57-3.27-3.42-3S57.16,98.57,57.4,100.6Z"/><path class="cls-1" d="M51.41,104.89l-3.49-.46c-1.88-.25-2.83-1.46-2.61-3.11A2.52,2.52,0,0,1,47.65,99l-1.36-3.5,1.19.16L48.79,99l2.32.31.41-3.13,1,.13Zm-2.89-5a1.81,1.81,0,1,0-.48,3.58l2.46.32.48-3.58Z"/><path class="cls-1" d="M40,93.43l1,.36L38.21,101,41,102l-.34.91-6.52-2.46.35-.9,2.77,1Z"/><path class="cls-1" d="M26.26,86.09l.63-.78,4.46,3.61-.6.74L26.22,90c-1.27.09-1.91.3-2.37.84a1.56,1.56,0,0,0,.34,2.41,1.74,1.74,0,0,0,2.46-.14l.82.66a2.76,2.76,0,0,1-3.88.22c-1.28-1-1.65-2.51-.63-3.77a3.84,3.84,0,0,1,3-1.15l3.63-.23Z"/><path class="cls-1" d="M19,80c1.15-.94,2.78-.66,4,.87s1.17,3.16,0,4.1a2.46,2.46,0,0,1-2.66.27,2,2,0,0,1-.74,2c-1.08.87-2.5.52-3.56-.79s-1.11-2.77,0-3.64a2,2,0,0,1,2.13-.3A2.43,2.43,0,0,1,19,80Zm0,6.47a1.58,1.58,0,0,0,0-2.36,1.58,1.58,0,0,0-2.3-.5c-.69.57-.67,1.47,0,2.34S18.34,87,19,86.48Zm.63-5.65c-.83.66-.82,1.73,0,2.75s1.87,1.26,2.69.59.79-1.71,0-2.73S20.47,80.18,19.67,80.83Z"/><path class="cls-2" d="M100.64,59.36a45.75,45.75,0,0,1-5.59,18"/><path class="cls-2" d="M9.34,59.36a45.58,45.58,0,0,0,5.59,18"/></g><g id="OUTLINED_TOP" data-name="OUTLINED TOP"><path class="cls-1" d="M12.57,50.43c.09-.79-.33-1.34-1.27-1.44l-5.91-.67.2-1.75,5.93.68a2.79,2.79,0,0,1,2.64,3.32,2.76,2.76,0,0,1-3.32,2.72l.2-1.7A1.24,1.24,0,0,0,12.57,50.43Z"/><path class="cls-1" d="M12.52,41.65a1.88,1.88,0,1,0,1.28-3.53l-5.22-1.9.61-1.68,5.06,1.84a3.36,3.36,0,0,1,2.12,4.67,3.35,3.35,0,0,1-4.62,2.22L6.69,41.43l.61-1.68Z"/><path class="cls-1" d="M11.67,29.74l1-1.46,7,.33-4.94-3.4,1-1.43,7.29,5-1,1.45L15.12,30,20,33.31l-1,1.44Z"/><path class="cls-1" d="M21.55,23.74A4.31,4.31,0,1,1,28,18a4.31,4.31,0,1,1-6.45,5.71Zm5.05-4.46C25.42,18,24,17.69,22.86,18.71s-1.08,2.47.09,3.8,2.58,1.55,3.74.53S27.76,20.6,26.6,19.28Z"/><path class="cls-1" d="M38.76,17.18l-1.6.72-3.66-8,1.6-.73Z"/><path class="cls-1" d="M47.05,5.57l2.05-.43L51,13.79l-1.7.36L48.57,11c-.19-.89-.37-2-.46-2.75l-1,6.39-1.59.34L42,9.27a22.77,22.77,0,0,1,.72,2.93l.68,3.2-1.68.36L39.89,7.1l2.16-.46L46,12.88Z"/><path class="cls-1" d="M62.25,5.47l2.09.19-.81,8.81-1.72-.16.3-3.25c.08-.91.22-2,.37-2.76l-2.81,5.82L58.05,14,56.35,7.5a21.62,21.62,0,0,1-.18,3l-.3,3.26-1.71-.16L55,4.8l2.19.2,1.91,7.12Z"/><path class="cls-1" d="M73,16.12l-.54,1.45-5.79-2.14,3.08-8.3,5.65,2.1-.54,1.45-4-1.49-.73,2,3,1.13-.53,1.42-3-1.13-.74,2Z"/><path class="cls-1" d="M79.84,11.49l3.32,2.2a2.82,2.82,0,0,1,.94,4.09,2.68,2.68,0,0,1-3,1.3l-.41,3.58L79,21.56l.41-3.29-1.39-.92-1.64,2.48-1.46-1Zm.66,5.7a1.32,1.32,0,0,0,2-.38,1.29,1.29,0,0,0-.46-2l-1.63-1.08-1.57,2.37Z"/><path class="cls-1" d="M85,27c-1.54-1.64-1.69-3.38-.49-4.5l1.21,1.3c-.53.5-.49,1.29.36,2.19.67.72,1.44.9,2,.43s.42-.89,0-1.63l-.76-1.2c-.86-1.36-.84-2.58.13-3.48s2.79-.91,4.23.63c1.18,1.27,1.79,3,.36,4.33l-1.18-1.27c.64-.6.42-1.38-.25-2.09s-1.34-.83-1.81-.39-.41.87.1,1.69l.77,1.2c.88,1.41.76,2.56-.25,3.51C88.1,28.92,86.36,28.46,85,27Z"/><path class="cls-1" d="M90.11,33.5l-1-1.48,7.44-4.8,1,1.47Z"/><path class="cls-1" d="M102.29,38.52l.7,1.74-9.46.19-.69-1.71,6.93-6.43.71,1.76-5.31,4.77Z"/><path class="cls-1" d="M97.75,51.91l-1.53.23L95.29,46,104,44.71l.9,6-1.53.23-.64-4.23L100.7,47l.48,3.21-1.5.23-.48-3.21-2.11.32Z"/></g></svg>