<svg xmlns="http://www.w3.org/2000/svg" width="110" height="110" viewBox="0 0 110 110"><defs><style>.cls-1{fill:#105754;}.cls-2{fill:none;stroke:#105754;stroke-miterlimit:10;}</style></defs><title>stamp-cohort9-outer</title><g id="OUTLINED_BOTTOM" data-name="OUTLINED BOTTOM"><path class="cls-1" d="M84.53,87.67l-.81.83a3.87,3.87,0,0,1,.7-4.78c1.71-1.76,4.14-1.7,6,.11s2.1,4.31.37,6.1a3.77,3.77,0,0,1-4.74.83l.81-.82a2.75,2.75,0,0,0,3.23-.7c1.29-1.33,1.06-3.18-.4-4.6s-3.29-1.56-4.58-.23A2.73,2.73,0,0,0,84.53,87.67Z"/><path class="cls-1" d="M81.89,92c1.34,2.24.88,4.71-1.24,6s-4.5.5-5.84-1.73-.85-4.65,1.26-5.91A4.08,4.08,0,0,1,81.89,92Zm-6.13,3.68c1,1.76,2.78,2.4,4.38,1.45s1.86-2.8.81-4.56-2.77-2.34-4.37-1.38S74.7,93.91,75.76,95.67Z"/><path class="cls-1" d="M69.64,97.79,68.57,94l1-.29L72,102.08l-1,.29-1-3.64L65.37,100l1,3.64-1,.29L63,95.62l1-.29,1.07,3.76Z"/><path class="cls-1" d="M59.88,100.49c0,2.6-1.59,4.51-4.06,4.55s-4.15-1.81-4.19-4.42,1.59-4.45,4-4.49A4.08,4.08,0,0,1,59.88,100.49Zm-7.14.11c0,2.06,1.21,3.47,3.06,3.44s3-1.48,3-3.53-1.22-3.41-3.09-3.38S52.7,98.55,52.74,100.6Z"/><path class="cls-1" d="M46.34,104.27l-3.43-.82c-1.84-.44-2.66-1.73-2.28-3.36A2.54,2.54,0,0,1,43.21,98l-1-3.62,1.17.28,1,3.47,2.27.55.73-3.08,1,.25ZM44,99a1.81,1.81,0,1,0-.84,3.51l2.42.58.84-3.52Z"/><path class="cls-1" d="M36.13,91.69l.93.47-3.44,6.89,2.65,1.32-.44.87L29.6,98.13l.44-.87,2.65,1.32Z"/><path class="cls-1" d="M20.48,84.86c1.77-1.75,3.75-2.5,5.44-.78a2.72,2.72,0,0,1,.51,3.51l-.74-.75a1.81,1.81,0,0,0-.43-2.13c-1.1-1.1-2.46-.66-3.49.36-.07.08-.16.16-.23.25a2.48,2.48,0,0,1,2.42.77,2.85,2.85,0,0,1-.07,4.24,2.89,2.89,0,0,1-4.32,0C18.26,89,18.26,87.06,20.48,84.86Zm-.24,4.84a2,2,0,0,0,2.93-.1,2,2,0,1,0-2.81-2.89A2,2,0,0,0,20.24,89.7Z"/><path class="cls-2" d="M100.64,59.36a45.75,45.75,0,0,1-5.59,18"/><path class="cls-2" d="M9.34,59.36a45.58,45.58,0,0,0,5.59,18"/></g><g id="OUTLINED_TOP" data-name="OUTLINED TOP"><path class="cls-1" d="M12.57,50.43c.09-.79-.33-1.34-1.27-1.44l-5.91-.67.2-1.75,5.93.68a2.79,2.79,0,0,1,2.64,3.32,2.76,2.76,0,0,1-3.32,2.72l.2-1.7A1.24,1.24,0,0,0,12.57,50.43Z"/><path class="cls-1" d="M12.52,41.65a1.88,1.88,0,1,0,1.28-3.53l-5.22-1.9.61-1.68,5.06,1.84a3.36,3.36,0,0,1,2.12,4.67,3.35,3.35,0,0,1-4.62,2.22L6.69,41.43l.61-1.68Z"/><path class="cls-1" d="M11.67,29.74l1-1.46,7,.33-4.94-3.4,1-1.43,7.29,5-1,1.45L15.12,30,20,33.31l-1,1.44Z"/><path class="cls-1" d="M21.55,23.74A4.31,4.31,0,1,1,28,18a4.31,4.31,0,1,1-6.45,5.71Zm5.05-4.46C25.42,18,24,17.69,22.86,18.71s-1.08,2.47.09,3.8,2.58,1.55,3.74.53S27.76,20.6,26.6,19.28Z"/><path class="cls-1" d="M38.76,17.18l-1.6.72-3.66-8,1.6-.73Z"/><path class="cls-1" d="M47.05,5.57l2.05-.43L51,13.79l-1.7.36L48.57,11c-.19-.89-.37-2-.46-2.75l-1,6.39-1.59.34L42,9.27a22.77,22.77,0,0,1,.72,2.93l.68,3.2-1.68.36L39.89,7.1l2.16-.46L46,12.88Z"/><path class="cls-1" d="M62.25,5.47l2.09.19-.81,8.81-1.72-.16.3-3.25c.08-.91.22-2,.37-2.76l-2.81,5.82L58.05,14,56.35,7.5a21.62,21.62,0,0,1-.18,3l-.3,3.26-1.71-.16L55,4.8l2.19.2,1.91,7.12Z"/><path class="cls-1" d="M73,16.12l-.54,1.45-5.79-2.14,3.08-8.3,5.65,2.1-.54,1.45-4-1.49-.73,2,3,1.13-.53,1.42-3-1.13-.74,2Z"/><path class="cls-1" d="M79.84,11.49l3.32,2.2a2.82,2.82,0,0,1,.94,4.09,2.68,2.68,0,0,1-3,1.3l-.41,3.58L79,21.56l.41-3.29-1.39-.92-1.64,2.48-1.46-1Zm.66,5.7a1.32,1.32,0,0,0,2-.38,1.29,1.29,0,0,0-.46-2l-1.63-1.08-1.57,2.37Z"/><path class="cls-1" d="M85,27c-1.54-1.64-1.69-3.38-.49-4.5l1.21,1.3c-.53.5-.49,1.29.36,2.19.67.72,1.44.9,2,.43s.42-.89,0-1.63l-.76-1.2c-.86-1.36-.84-2.58.13-3.48s2.79-.91,4.23.63c1.18,1.27,1.79,3,.36,4.33l-1.18-1.27c.64-.6.42-1.38-.25-2.09s-1.34-.83-1.81-.39-.41.87.1,1.69l.77,1.2c.88,1.41.76,2.56-.25,3.51C88.1,28.92,86.36,28.46,85,27Z"/><path class="cls-1" d="M90.11,33.5l-1-1.48,7.44-4.8,1,1.47Z"/><path class="cls-1" d="M102.29,38.52l.7,1.74-9.46.19-.69-1.71,6.93-6.43.71,1.76-5.31,4.77Z"/><path class="cls-1" d="M97.75,51.91l-1.53.23L95.29,46,104,44.71l.9,6-1.53.23-.64-4.23L100.7,47l.48,3.21-1.5.23-.48-3.21-2.11.32Z"/></g></svg>