<svg xmlns="http://www.w3.org/2000/svg" width="110" height="110" viewBox="0 0 110 110"><defs><style>.cls-1{fill:#105754;}.cls-2{fill:none;stroke:#105754;stroke-miterlimit:10;}</style></defs><title>stamp-cohort10-outer</title><g id="OUTLINED_BOTTOM" data-name="OUTLINED BOTTOM"><path class="cls-1" d="M87.21,85l-.73.9a3.85,3.85,0,0,1,.28-4.82c1.56-1.91,4-2,6-.4s2.46,4.11.88,6.05A3.79,3.79,0,0,1,89,88l.73-.9a2.76,2.76,0,0,0,3.17-1c1.17-1.43.78-3.25-.8-4.54s-3.41-1.28-4.58.16A2.71,2.71,0,0,0,87.21,85Z"/><path class="cls-1" d="M84.93,89.57c1.53,2.11,1.27,4.62-.73,6.06s-4.44.88-6-1.23-1.25-4.56.75-6A4.08,4.08,0,0,1,84.93,89.57Zm-5.8,4.18c1.2,1.67,3,2.16,4.49,1.07s1.62-2.94.42-4.6-3-2.1-4.47-1S77.93,92.09,79.13,93.75Z"/><path class="cls-1" d="M73.22,96.39l-1.39-3.66,1-.37,3.08,8.11-1,.38-1.35-3.54L69.15,99l1.34,3.54-1,.37-3.09-8.11,1-.37,1.39,3.65Z"/><path class="cls-1" d="M63.74,99.91c.26,2.59-1.21,4.63-3.67,4.88s-4.28-1.46-4.54-4.05,1.2-4.57,3.65-4.81A4.08,4.08,0,0,1,63.74,99.91Zm-7.11.72c.2,2,1.5,3.36,3.34,3.17s2.88-1.74,2.67-3.78-1.51-3.29-3.36-3.1S56.42,98.59,56.63,100.63Z"/><path class="cls-1" d="M50.55,104.82l-3.49-.52c-1.87-.29-2.8-1.51-2.55-3.16a2.53,2.53,0,0,1,2.38-2.31l-1.3-3.53,1.19.18L48,98.86l2.31.35.47-3.12,1,.16Zm-2.81-5a1.81,1.81,0,1,0-.53,3.57l2.45.37.54-3.57Z"/><path class="cls-1" d="M39.28,93.15l1,.39L37.4,100.7l2.75,1.09-.36.9-6.47-2.57.36-.91,2.75,1.1Z"/><path class="cls-1" d="M29.35,87.3l-4.73,5.94,2.21.44-.66.83L24,94.09l-.81-.64,5.4-6.79Z"/><path class="cls-1" d="M16.93,87.47c-1.47-1.72-.93-3.82,1.12-5.57s4.21-1.93,5.67-.21.92,3.8-1.13,5.55S18.39,89.18,16.93,87.47Zm1.8-4.76c-1.63,1.39-2.15,2.93-1.1,4.16s2.64,1,4.27-.44,2.17-2.91,1.12-4.14S20.37,81.31,18.73,82.71Z"/><path class="cls-2" d="M100.64,59.36a45.75,45.75,0,0,1-5.59,18"/><path class="cls-2" d="M9.34,59.36a45.58,45.58,0,0,0,5.59,18"/></g><g id="OUTLINED_TOP" data-name="OUTLINED TOP"><path class="cls-1" d="M12.57,50.43c.09-.79-.33-1.34-1.27-1.44l-5.91-.67.2-1.75,5.93.68a2.79,2.79,0,0,1,2.64,3.32,2.76,2.76,0,0,1-3.32,2.72l.2-1.7A1.24,1.24,0,0,0,12.57,50.43Z"/><path class="cls-1" d="M12.52,41.65a1.88,1.88,0,1,0,1.28-3.53l-5.22-1.9.61-1.68,5.06,1.84a3.36,3.36,0,0,1,2.12,4.67,3.35,3.35,0,0,1-4.62,2.22L6.69,41.43l.61-1.68Z"/><path class="cls-1" d="M11.67,29.74l1-1.46,7,.33-4.94-3.4,1-1.43,7.29,5-1,1.45L15.12,30,20,33.31l-1,1.44Z"/><path class="cls-1" d="M21.55,23.74A4.31,4.31,0,1,1,28,18a4.31,4.31,0,1,1-6.45,5.71Zm5.05-4.46C25.42,18,24,17.69,22.86,18.71s-1.08,2.47.09,3.8,2.58,1.55,3.74.53S27.76,20.6,26.6,19.28Z"/><path class="cls-1" d="M38.76,17.18l-1.6.72-3.66-8,1.6-.73Z"/><path class="cls-1" d="M47.05,5.57l2.05-.43L51,13.79l-1.7.36L48.57,11c-.19-.89-.37-2-.46-2.75l-1,6.39-1.59.34L42,9.27a22.77,22.77,0,0,1,.72,2.93l.68,3.2-1.68.36L39.89,7.1l2.16-.46L46,12.88Z"/><path class="cls-1" d="M62.25,5.47l2.09.19-.81,8.81-1.72-.16.3-3.25c.08-.91.22-2,.37-2.76l-2.81,5.82L58.05,14,56.35,7.5a21.62,21.62,0,0,1-.18,3l-.3,3.26-1.71-.16L55,4.8l2.19.2,1.91,7.12Z"/><path class="cls-1" d="M73,16.12l-.54,1.45-5.79-2.14,3.08-8.3,5.65,2.1-.54,1.45-4-1.49-.73,2,3,1.13-.53,1.42-3-1.13-.74,2Z"/><path class="cls-1" d="M79.84,11.49l3.32,2.2a2.82,2.82,0,0,1,.94,4.09,2.68,2.68,0,0,1-3,1.3l-.41,3.58L79,21.56l.41-3.29-1.39-.92-1.64,2.48-1.46-1Zm.66,5.7a1.32,1.32,0,0,0,2-.38,1.29,1.29,0,0,0-.46-2l-1.63-1.08-1.57,2.37Z"/><path class="cls-1" d="M85,27c-1.54-1.64-1.69-3.38-.49-4.5l1.21,1.3c-.53.5-.49,1.29.36,2.19.67.72,1.44.9,2,.43s.42-.89,0-1.63l-.76-1.2c-.86-1.36-.84-2.58.13-3.48s2.79-.91,4.23.63c1.18,1.27,1.79,3,.36,4.33l-1.18-1.27c.64-.6.42-1.38-.25-2.09s-1.34-.83-1.81-.39-.41.87.1,1.69l.77,1.2c.88,1.41.76,2.56-.25,3.51C88.1,28.92,86.36,28.46,85,27Z"/><path class="cls-1" d="M90.11,33.5l-1-1.48,7.44-4.8,1,1.47Z"/><path class="cls-1" d="M102.29,38.52l.7,1.74-9.46.19-.69-1.71,6.93-6.43.71,1.76-5.31,4.77Z"/><path class="cls-1" d="M97.75,51.91l-1.53.23L95.29,46,104,44.71l.9,6-1.53.23-.64-4.23L100.7,47l.48,3.21-1.5.23-.48-3.21-2.11.32Z"/></g></svg>