<svg id="ICONS_ROTATED" data-name="ICONS ROTATED" xmlns="http://www.w3.org/2000/svg" xmlns:xlink="http://www.w3.org/1999/xlink" width="110" height="110" viewBox="0 0 110 110"><defs><style>.cls-1,.cls-4,.cls-5{fill:none;}.cls-2{fill:#105754;}.cls-3{fill:url(#_6_lpi_30_5);}.cls-4,.cls-5{stroke:#105754;}.cls-4{stroke-miterlimit:10;}.cls-5{stroke-linecap:round;stroke-linejoin:round;}</style><pattern id="_6_lpi_30_5" data-name="6 lpi 30% 5" width="4" height="4" patternTransform="translate(-1.67 -6.75) rotate(16.23)" patternUnits="userSpaceOnUse" viewBox="0 0 4 4"><rect class="cls-1" width="4" height="4"/><rect class="cls-2" x="2.5" y="2.51" width="1" height="1"/><rect class="cls-2" x="0.5" y="0.49" width="1" height="1"/></pattern></defs><title>stamp-cohort19-innerfixed</title><path class="cls-3" d="M38.37,57.24c0,.18,0,.36,0,.54-.5,6.71,6.17,13.92,16,16.77,10.71,3.12,21.1-.18,23.19-7.37L78,65.31c-1.31,4.47-11,5.58-21.75,2.46C47.25,65.14,43,61.8,41,59a9,9,0,0,1-.6-.92c-.45-.79-1-.13-1.26-.33-.62-.43-.72-.86-.77-.54"/><path class="cls-4" d="M38.37,57.24c-.91,6.85,5.86,14.38,15.91,17.31,10.71,3.12,21.1-.18,23.19-7.37L78,65.31"/><path class="cls-4" d="M66.51,53.54C74.18,56.87,79.08,61.65,78,65.31"/><path class="cls-4" d="M60.75,56.81c3.64,1.29,6.13,3.32,5.71,4.77s-4.31,1.88-8.58.64A14.52,14.52,0,0,1,51.76,59"/><path class="cls-5" d="M52.63,58.83c18.21-2.49,17.64-12.66,17.64-12.66C69.11,39.3,59.44,34.57,48.69,35.6S30.15,43.05,31.32,49.91C31.32,49.91,33.77,61.41,52.63,58.83Z"/><path class="cls-5" d="M42.63,44.78c.24,1.18,3.87,1.69,8.09,1.14s7.45-2,7.2-3.12"/><path class="cls-5" d="M47.21,44.06a5.84,5.84,0,0,0-1.4.62"/><path class="cls-5" d="M53.9,43.32a16.35,16.35,0,0,0-3.7.1,17.8,17.8,0,0,0-3,.64"/><path class="cls-5" d="M51.39,66.06c-5.22-2.16-9.24-5-11.12-7.77"/></svg>