<svg id="ICONS_ROTATED" data-name="ICONS ROTATED" xmlns="http://www.w3.org/2000/svg" xmlns:xlink="http://www.w3.org/1999/xlink" width="110" height="110" viewBox="0 0 110 110"><defs><style>.cls-1,.cls-4{fill:none;}.cls-2{fill:#105754;}.cls-3{fill:url(#_6_lpi_30_5);}.cls-4{stroke:#105754;stroke-miterlimit:10;}</style><pattern id="_6_lpi_30_5" data-name="6 lpi 30% 5" width="4" height="4" patternTransform="translate(1.53 2.67) rotate(19.86) scale(0.8)" patternUnits="userSpaceOnUse" viewBox="0 0 4 4"><rect class="cls-1" width="4" height="4"/><rect class="cls-2" x="2.5" y="2.51" width="1" height="1"/><rect class="cls-2" x="0.5" y="0.49" width="1" height="1"/></pattern></defs><title>stamp-blog-featured-innerfixed</title><path class="cls-3" d="M44.89,49.29,39.94,63s-2,5.09-7.23,3.22l.7.25C28,64.51,31,59.22,31,59.22L35.73,46l8.78,3.17"/><path class="cls-4" d="M44.51,49.15,35.73,46,31,59.22s-3,5.29,2.46,7.25"/><line class="cls-4" x1="65.86" y1="45.77" x2="75.17" y2="49.13"/><line class="cls-4" x1="64.19" y1="50.39" x2="73.5" y2="53.76"/><line class="cls-4" x1="49.23" y1="50.21" x2="71.83" y2="58.38"/><line class="cls-4" x1="47.56" y1="54.84" x2="70.16" y2="63"/><rect class="cls-4" x="53.49" y="39.92" width="6.82" height="10.81" transform="translate(-5.06 83.44) rotate(-70.14)"/><path class="cls-4" d="M50.39,34.07,39.94,63s-2,5.09-7.23,3.22L63.47,77.33c5.18,1.87,7.22-3.22,7.22-3.22L81.14,45.18Z"/><line class="cls-4" x1="45.89" y1="59.46" x2="68.49" y2="67.62"/><line class="cls-4" x1="44.22" y1="64.08" x2="66.82" y2="72.25"/></svg>