<svg id="ICONS_ROTATED" data-name="ICONS ROTATED" xmlns="http://www.w3.org/2000/svg" xmlns:xlink="http://www.w3.org/1999/xlink" width="110" height="110" viewBox="0 0 110 110"><defs><style>.cls-1,.cls-4,.cls-5{fill:none;}.cls-2{fill:#105754;}.cls-3{fill:url(#_6_lpi_30_6);}.cls-4,.cls-5{stroke:#105754;stroke-miterlimit:10;}.cls-5{stroke-linecap:round;}</style><pattern id="_6_lpi_30_6" data-name="6 lpi 30% 6" width="4" height="4" patternTransform="translate(-2.52 2.04) rotate(-12.31) scale(0.8)" patternUnits="userSpaceOnUse" viewBox="0 0 4 4"><rect class="cls-1" width="4" height="4"/><rect class="cls-2" x="1.5" width="1" height="4"/></pattern></defs><title>stamp-cohort16-innerfixed</title><path class="cls-3" d="M70.74,38.22l-.39.08c3.21,8.53-7.81,25.84-13.1,27s-22.53-10-23.17-19.08l-.38.08c-.11,2.62,2.2,10.3,3.65,13,4.25,8,17.35,15.85,21.84,14.87S72.3,60.58,72.84,51.57C73,48.49,71.93,40.55,70.74,38.22Z"/><path class="cls-4" d="M33.72,46.23a6.59,6.59,0,0,1,.78-3.8C39,34.27,48,40,51.59,39.26S61,29.47,68.45,35a6.57,6.57,0,0,1,2.28,3.09v.11c1.19,2.33,2.29,10.27,2.1,13.35-.54,9-9.16,21.64-13.65,22.62S41.6,67.28,37.35,59.32c-1.45-2.72-3.76-10.4-3.65-13Z"/><path class="cls-2" d="M50.58,52.75l2.23-.49A.6.6,0,1,1,53,53.43l-6,1.31c-.89.19-1-1-.12-1.2l2.4-.52-1-7.68-1.66,1.27c-.33.27-.83.19-.87-.19,0-.2.1-.39.36-.6L48,44.36a1.93,1.93,0,0,1,.62-.36.49.49,0,0,1,.65.43Z"/><path class="cls-2" d="M56.77,43.05A2.34,2.34,0,0,0,55,44.51a4.32,4.32,0,0,0,0,3,3.1,3.1,0,0,1,2.36-2,4,4,0,0,1,2.68.32,3.56,3.56,0,0,1,1.87,2.11,3,3,0,0,1-.24,2.79,3.54,3.54,0,0,1-2.31,1.58,3.78,3.78,0,0,1-3.47-.93,7,7,0,0,1-2-3.72A5.34,5.34,0,0,1,54.1,44a3.31,3.31,0,0,1,2.42-1.78,4.15,4.15,0,0,1,2.68.27c.37.18.46.41.29.67a.61.61,0,0,1-.83.14A2.74,2.74,0,0,0,56.77,43.05Zm-.58,4.31a2.19,2.19,0,0,0-.25,1.79,2.54,2.54,0,0,0,1.17,1.6,2.6,2.6,0,0,0,2,.34,2.21,2.21,0,0,0,1.46-1,2.13,2.13,0,0,0,.13-1.94,2.46,2.46,0,0,0-1.23-1.49,2.68,2.68,0,0,0-1.82-.24A2.35,2.35,0,0,0,56.19,47.36Z"/><path class="cls-5" d="M47.23,61.74c-6.8-4.19-13.87-11.18-13.45-17.08"/></svg>