<svg xmlns="http://www.w3.org/2000/svg" xmlns:xlink="http://www.w3.org/1999/xlink" width="69" height="60" viewBox="0 0 69 60">
    <defs>
        <path id="u3xgjk48oa" d="M0 58.32L68.826 58.32 68.826 0.118 0 0.118z"/>
    </defs>
    <g fill="none" fill-rule="evenodd">
        <g>
            <g>
                <path fill="#E9593D" d="M32.152 46.019L46.361 46.019 46.361 43.338 32.152 43.338zM23.828 42.911L32.936 33.803 23.828 24.694 21.932 26.59 29.145 33.803 21.932 41.015zM62.318 12.667L63.542 12.667 63.542 11.443 62.318 11.443zM64.768 10.234L65.991 10.234 65.991 9.01 64.768 9.01zM62.318 7.772L63.542 7.772 63.542 6.548 62.318 6.548zM64.768 5.339L65.991 5.339 65.991 4.115 64.768 4.115zM57.423 12.667L58.647 12.667 58.647 11.443 57.423 11.443zM59.873 10.234L61.096 10.234 61.096 9.01 59.873 9.01zM57.423 7.772L58.647 7.772 58.647 6.548 57.423 6.548zM59.873 5.339L61.096 5.339 61.096 4.115 59.873 4.115zM52.528 12.667L53.752 12.667 53.752 11.443 52.528 11.443zM54.978 10.234L56.202 10.234 56.202 9.01 54.978 9.01zM52.528 7.772L53.752 7.772 53.752 6.548 52.528 6.548zM54.978 5.339L56.202 5.339 56.202 4.115 54.978 4.115zM47.633 12.667L48.857 12.667 48.857 11.443 47.633 11.443zM50.083 10.234L51.306 10.234 51.306 9.01 50.083 9.01zM47.633 7.772L48.857 7.772 48.857 6.548 47.633 6.548zM50.083 5.339L51.306 5.339 51.306 4.115 50.083 4.115zM42.738 12.667L43.962 12.667 43.962 11.443 42.738 11.443zM45.188 10.234L46.411 10.234 46.411 9.01 45.188 9.01zM42.738 7.772L43.962 7.772 43.962 6.548 42.738 6.548zM45.188 5.339L46.411 5.339 46.411 4.115 45.188 4.115zM37.843 12.667L39.067 12.667 39.067 11.443 37.843 11.443zM40.293 10.234L41.517 10.234 41.517 9.01 40.293 9.01zM37.843 7.772L39.067 7.772 39.067 6.548 37.843 6.548zM40.293 5.339L41.517 5.339 41.517 4.115 40.293 4.115zM32.948 12.667L34.172 12.667 34.172 11.443 32.948 11.443zM35.398 10.234L36.622 10.234 36.622 9.01 35.398 9.01zM32.948 7.772L34.172 7.772 34.172 6.548 32.948 6.548zM35.398 5.339L36.622 5.339 36.622 4.115 35.398 4.115zM28.053 12.667L29.277 12.667 29.277 11.443 28.053 11.443zM30.503 10.234L31.727 10.234 31.727 9.01 30.503 9.01zM28.053 7.772L29.277 7.772 29.277 6.548 28.053 6.548zM30.503 5.339L31.727 5.339 31.727 4.115 30.503 4.115zM23.158 12.666L24.382 12.666 24.382 11.443 23.158 11.443zM25.608 10.234L26.832 10.234 26.832 9.01 25.608 9.01zM25.608 5.339L26.832 5.339 26.832 4.115 25.608 4.115zM18.263 12.666L19.487 12.666 19.487 11.443 18.263 11.443zM13.368 12.666L14.592 12.666 14.592 11.443 13.368 11.443zM15.818 5.339L17.042 5.339 17.042 4.115 15.818 4.115zM8.473 12.666L9.697 12.666 9.697 11.443 8.473 11.443z" transform="translate(-202 -8085) translate(202 8085)"/>
                <g transform="translate(-202 -8085) translate(202 8085) translate(0 .098)">
                    <path fill="#E9593D" d="M13.983 6.102c.822 0 1.491.67 1.491 1.492 0 .823-.669 1.492-1.491 1.492-.823 0-1.492-.67-1.492-1.492s.669-1.492 1.492-1.492zM12.147 9.59c.484.445 1.127.72 1.836.72.708 0 1.351-.275 1.835-.72v.545h1.224V8.911h-.687c.218-.39.343-.839.343-1.317 0-1.497-1.218-2.715-2.715-2.715-1.498 0-2.716 1.218-2.716 2.715 0 .478.125.927.343 1.317h-.687v1.224h1.224V9.59z"/>
                    <mask id="hguui2iezb" fill="#fff">
                        <use xlink:href="#u3xgjk48oa"/>
                    </mask>
                    <path fill="#E9593D" d="M10.923 5.24L12.147 5.24 12.147 4.017 10.923 4.017zM3.578 12.568L4.802 12.568 4.802 11.344 3.578 11.344z" mask="url(#hguui2iezb)"/>
                    <path fill="#E9593D" d="M67.087 53.575c0 1.583-1.287 2.871-2.87 2.871H4.608c-1.583 0-2.87-1.288-2.87-2.87V15.19h65.348v38.385zM3.578 2.025v.753h1.224v-.825h3.671v.825h1.224v-.825h3.67v.825h1.225v-.825h3.67v.825h1.225v-.825h3.671v.825h1.224v-.825h3.67v.825h1.225v-.825h3.67v.825h1.225v-.825h3.67v.825h1.225v-.825h3.67v.825h1.225v-.825h3.67v.825h1.225v-.825h3.67v.825h1.225v-.825h3.67v.825h1.224v-.825h3.672v.825h1.223v-.825h1.145c1.27 0 2.304 1.034 2.304 2.304v9.097H1.836v-3.219h.52V8.912h-.52V5.24h.52V4.017h-.508c.102-.97.806-1.759 1.73-1.992zM64.686.118H4.14C1.858.118 0 1.974 0 4.258V54.18c0 2.284 1.858 4.14 4.14 4.14h60.546c2.283 0 4.14-1.856 4.14-4.14V4.257c0-2.283-1.857-4.14-4.14-4.14z" mask="url(#hguui2iezb)"/>
                    <path fill="#E9593D" d="M7.237 6.102c.822 0 1.492.67 1.492 1.492 0 .823-.67 1.492-1.492 1.492-.823 0-1.492-.67-1.492-1.492s.67-1.492 1.492-1.492m0 4.208c1.497 0 2.716-1.218 2.716-2.716 0-1.492-1.21-2.707-2.701-2.715v-.862H6.028v1.15c-.548.273-.99.726-1.25 1.282h-1.2v1.224h.948c.042 1.46 1.24 2.637 2.711 2.637M20.728 6.102c.823 0 1.492.67 1.492 1.492 0 .823-.67 1.492-1.492 1.492s-1.492-.67-1.492-1.492.67-1.492 1.492-1.492m0 4.208c1.47 0 2.67-1.176 2.711-2.637h.943V6.449h-1.195c-.26-.556-.702-1.009-1.25-1.283v-1.15h-1.224v.863c-1.49.009-2.7 1.223-2.7 2.715 0 1.498 1.218 2.716 2.715 2.716" mask="url(#hguui2iezb)"/>
                </g>
            </g>
        </g>
    </g>
</svg>
