<svg xmlns="http://www.w3.org/2000/svg" xmlns:xlink="http://www.w3.org/1999/xlink" width="83" height="63" viewBox="0 0 83 63">
    <defs>
        <path id="bha6732wya" d="M0 0.06L82.465 0.06 82.465 61.44 0 61.44z"/>
    </defs>
    <g fill="none" fill-rule="evenodd">
        <g>
            <g>
                <path fill="#E9593D" d="M69.057 19.969L70.438 19.969 70.438 18.586 69.057 18.586zM66.297 17.221L67.678 17.221 67.678 15.838 66.297 15.838zM63.529 14.442L64.912 14.442 64.912 13.06 63.529 13.06zM66.297 22.75L67.678 22.75 67.678 21.367 66.297 21.367zM63.529 19.969L64.912 19.969 64.912 18.586 63.529 18.586zM63.529 31.025L64.912 31.025 64.912 29.643 63.529 29.643zM63.529 36.552L64.912 36.552 64.912 35.171 63.529 35.171zM63.529 42.079L64.912 42.079 64.912 40.698 63.529 40.698zM60.769 33.804L62.151 33.804 62.151 32.423 60.769 32.423zM60.769 39.331L62.151 39.331 62.151 37.95 60.769 37.95zM60.769 44.859L62.151 44.859 62.151 43.477 60.769 43.477z" transform="translate(-1111 -8084) translate(1111 8084)"/>
                <g transform="translate(-1111 -8084) translate(1111 8084) translate(0 .18)">
                    <mask id="gce6wf55ob" fill="#fff">
                        <use xlink:href="#bha6732wya"/>
                    </mask>
                    <path fill="#E9593D" d="M64.703 23.935H63.53v.51l-22.297 9.7-17.762-7.727 17.902-7.789c1.014-.035 1.82-.423 1.82-.91 0-.51-.879-.923-1.963-.923-1.083 0-1.963.414-1.963.924 0 .012.013.02.015.032l-17.866 7.772-17.303-7.527 37.12-16.15 18.586 8.086c.343.368.654.746.95 1.13.116.149.226.299.335.45h1.048v-.565l6.906 3.004v.31h.711l3.213 1.398h-1.158v1.381h1.383v-1.285l5.147 2.241-3.05 1.326.663-.288v-.627h-1.381v1.229l-9.882 4.298zm2.11 16.937c-.039.853-.213 1.425-.584 1.909-1.327 1.736-4.078 2.393-6.287 2.919l-.99.242c-4.944 1.254-10.563 1.82-17.644 1.778-5.508-.032-11.374-.265-17.085-1.618-.088-.42-.18-.813-.278-1.16l-.052-.183c.586-.813.915-1.874.915-2.982 0-2.147-1.161-3.885-2.762-4.345l-.039-9.861 19.225 8.363 19.536-8.498v.661h1.383v-1.263l4.655-2.025v1.905h-.51v1.383h.51v4.145h-.51v1.381h.51v4.147h-.51v1.382h.512l.008.57c.009.39.015.774-.002 1.15zM21.429 59.78l-.04-2.543c-.008-.453-.424-.866-.833-.808-.453.009-.813.381-.806.834l.039 2.53-1.057.007v-.038c.029-6.071.534-11.58 1.315-14.377l.288-1.029-.306-.335c-.5-.547-.785-1.366-.785-2.244 0-1.563.88-2.835 1.963-2.835 1.083 0 1.962 1.272 1.962 2.835 0 .88-.285 1.697-.784 2.244l-.308.337.29 1.027c.783 2.8 1.286 8.309 1.313 14.377l-2.251.018zm-5.192-17c-.37-.483-.545-1.055-.586-1.91-.016-.374-.01-.759-.001-1.147l.007-14.915 4.708 2.048.043 10.56c-1.622.441-2.804 2.195-2.804 4.361 0 .933.246 1.825.672 2.573-.815-.401-1.531-.906-2.039-1.57zm52.217-9.69l-.002-8.996 14.014-6.097L41.232.06 0 17.997l15.306 6.659-1.287-.56V39.01l-.009.68c-.009.427-.016.847.003 1.256.037.807.176 1.858.92 2.831.829 1.083 1.993 1.807 3.255 2.336-.659 3.129-1.07 8.178-1.096 13.64l-.007 1.687h8.244l-.01-1.686c-.02-4.544-.31-8.793-.784-11.9v.001c5.645 1.25 11.376 1.474 16.764 1.505.246.003.49.003.733.003 6.893 0 12.414-.585 17.322-1.832l.967-.235c2.462-.588 5.529-1.32 7.21-3.519.746-.973.885-2.024.921-2.83.02-.41.013-.83.003-1.257l-.003-6.6h.001z" mask="url(#gce6wf55ob)"/>
                </g>
            </g>
        </g>
    </g>
</svg>
