<svg id="elements" xmlns="http://www.w3.org/2000/svg" width="110" height="20" perserveAspectRatio="true" viewBox="0 0 110 20"><defs><style>.cls-1{fill:#edd7c8;}</style></defs><title>highlight-activefilter</title><path class="cls-1" d="M8,3.12s-.06,0-.1,0-.18.09-.26.14-.22,0-.25.14a8.16,8.16,0,0,0-.83.25.23.23,0,0,0-.22-.12c0-.06,0-.16.15-.17s.1,0,.11.12C7.16,3.45,7.41,3.15,8,3.12Z"/><polygon class="cls-1" points="8.6 3.1 8.71 3.09 8.71 3.17 8.6 3.18 8.6 3.1"/><path class="cls-1" d="M9.55,3.13s.06,0,.1,0S9.59,3.12,9.55,3.13Z"/><path class="cls-1" d="M91.28,2.8a.5.5,0,0,0,.32,0c.1,0,.07.11.21.08s.45,0,.74,0,.22-.11.37-.14a2.86,2.86,0,0,0,.68-.06c.16,0,.1.11.26.08s.06,0,.06,0c.51-.13,1.06,0,1.42-.08.14.06.41-.08.58,0,0-.08.18,0,.21-.05s0,0,.21,0c0-.06.07,0,.16,0a.41.41,0,0,1,.21-.05c.79.09,1.81,0,2.54,0a3.93,3.93,0,0,1,.63-.11c.22-.07.36,0,.47-.09a4.37,4.37,0,0,1-.9,0c0,.07-.09.1-.21.09a1.35,1.35,0,0,0-.63,0c-.15,0-.14-.06-.26,0s-.39.07-.43,0c.17,0,.07-.15.21-.05s.2,0,.32,0,.1-.12.26-.09c0,.09.19,0,.27,0s.2,0,.21,0c-.23,0-.18-.13-.38-.11s-.2,0-.21,0,0-.08-.1-.08-.23,0-.32,0h-.32c-.12,0-.11-.07-.26,0a2.54,2.54,0,0,1-.69,0c0,.12-.13-.06-.26,0s-.21,0-.22-.08a1.91,1.91,0,0,1,.48,0c.1-.07.07,0,.21,0s.28,0,.26-.05-.31.06-.26-.08C97,1.91,97,2,96.8,2a.34.34,0,0,0-.21,0,3.54,3.54,0,0,0-.58,0h-.37c-.08,0-.27.06-.27,0A1.33,1.33,0,0,1,94.9,2c-.13,0-.12-.07-.27,0L94,2h-.37c-.08,0-.27.06-.27,0,1,0,1.81-.13,2.8-.13,0-.15-.21-.05-.32-.07-.45,0-.6,0-1,.07-.13,0-.12-.08-.26,0a6.66,6.66,0,0,1-1.8.06.46.46,0,0,1-.26,0c-.11,0-.15,0-.32,0s-.38.06-.42,0,.52,0,.37-.06l-.42,0c-.15,0,.12.11-.11.09s-.28,0-.42,0,0,0-.1,0-.06,0-.11,0-.11,0-.21,0,0,0,0,0l-.53,0-.37,0a7.58,7.58,0,0,0-.84,0,3,3,0,0,1-.85,0C88,2,88,1.9,87.77,2s-.38,0-.42.05c.19,0,.21.06.37,0s.19-.08.37,0,.16.07.32,0,.13-.06.26,0a.43.43,0,0,0,.27,0l2-.06a10.38,10.38,0,0,0,2.16,0c0,.12.25,0,.21.08h-.42c0,.05-.09,0-.16.05s-.15,0-.15,0a3.41,3.41,0,0,1,.79,0c0-.09.22,0,.31-.05a.41.41,0,0,0,.27,0c0,.06.13,0,.21,0s.09,0,.16,0A3.58,3.58,0,0,1,95,2s0,0,.06,0,.15,0,.16,0a8.91,8.91,0,0,0-1.32.08c-.13,0-.11,0-.32,0l-1.42,0a7,7,0,0,0-1.32.08c-.13-.08-.42,0-.63,0h-.32c-.08,0-.27.06-.26,0l1.53,0c.11,0,.41.06.36-.1a.92.92,0,0,1-.37,0,1.17,1.17,0,0,1-.36.06,2.09,2.09,0,0,0-1.06,0,2,2,0,0,0-.37-.07c0,.11-.29,0-.26.09.22.06.36-.05.48.07h-.48c-.08-.08-.11,0-.21,0s0,0,0,0,.25,0,.21-.09c-2.06,0-4,.11-5.91,0l-.58,0c-.12,0-.11-.07-.26,0l-1.37.05c-.13,0-.12-.08-.26,0l-.69,0c-.19,0-.54.09-.58-.06.38-.08.82,0,1.26,0,.13,0,.2-.05.32-.05l.32,0a9.85,9.85,0,0,0,1.21,0c.09,0,.11-.05.21-.05a2.3,2.3,0,0,1,.26,0,4.49,4.49,0,0,0,.74,0c.09,0,.11,0,.21,0a1.58,1.58,0,0,0,.21,0s0,0,.1-.05.22.05.37,0,.23,0,.42,0a5.35,5.35,0,0,1,1-.07s0,0,0-.05.06.06.21,0a4,4,0,0,0,.58,0l1.27,0a3.24,3.24,0,0,1,.52,0,.38.38,0,0,1,.16,0c.16.05.31,0,.58,0s.73,0,1,.05.47,0,.74-.07c0,.05.11,0,.11.08s.09,0,.16,0,.23.11.31-.05c-.31,0-.78,0-1.16-.05s-1.2,0-1.8-.07c-.1,0-.09.12-.26.09s-.37.05-.58-.06c0,.09-.22,0-.32,0s-.42,0-.63,0c0,0,0,.1-.15.09a5.68,5.68,0,0,1-1-.05c-.08,0,0,0,0,.08s-.09.05-.16.05-.37,0-.47,0-.26,0-.37,0a1.5,1.5,0,0,0-.32-.07c-.49,0-.57,0-1,.08a2.68,2.68,0,0,0-.84.07c-.19,0-.44,0-.63-.06s-.86.1-1.21.21c-.27-.11-.78,0-1.06-.13-.07.08-.25.09-.36.14a.45.45,0,0,1-.27,0,.43.43,0,0,1-.25.13c-.15-.11-.21,0-.37,0s-.06-.1-.16-.08-.45,0-.74,0l-.84,0c-.13,0-.12-.07-.27,0s-.7,0-.94.16c0-.18-.15,0-.21-.07s-.3,0-.37,0-.13.15-.31.14-.32-.11-.53-.11c-.44.14-.79,0-1.1.13,0-.07-.1-.09-.22-.08s0,.19-.15.14-.21-.11-.42-.07a1.42,1.42,0,0,1-.58,0c-.25,0-.43.05-.79.07a5,5,0,0,0-1.16,0c-.09,0-.22,0-.27-.07s-.09,0-.1.08H69.2a13.88,13.88,0,0,0-1.69,0c-.28-.11-.51,0-.79-.1s-.14.07-.26.06-.14,0-.21,0c-.31,0-.42,0-.79,0-.11,0-.14,0-.21,0a2.25,2.25,0,0,0-.74,0c-.12,0-.12-.08-.26,0a17.19,17.19,0,0,1-1.9,0,16.68,16.68,0,0,1-1.74,0c0,.1-.28,0-.31.1a.34.34,0,0,0-.21,0c-.11.09-.17,0-.26,0s-.3,0-.42-.07c-.21.12-.36,0-.52.15a.24.24,0,0,0-.27-.11c-.3.06-.42,0-.68.07a.27.27,0,0,0-.16,0s-.06.07-.06,0-.11-.07-.26,0a1.25,1.25,0,0,0-.31.1c0-.09-.23,0-.32,0l-.37,0a4.12,4.12,0,0,0-.58,0c0-.08.16-.18-.06-.16,0,0,0,0,0,0-.23,0-.1.17-.31.14s-.22-.07-.42,0c0,.17.29,0,.42.07s.34-.14.32,0-.07,0-.16,0a.23.23,0,0,1-.15.05,4.23,4.23,0,0,0-1.42.19,1.6,1.6,0,0,0-.52.07,5.05,5.05,0,0,0-1.1,0c-.06,0,0,0-.06.05s0,0,0,0a1,1,0,0,1-.16,0,6.22,6.22,0,0,1-.63,0c-.05,0,0,0-.05,0s0,.05,0,.05a6.89,6.89,0,0,1-1.11,0c-.16,0-.23,0-.41.06a.46.46,0,0,0-.22,0l-.78,0s-.15,0-.16,0-.31.06-.32,0-.11.13-.31.1c0-.05.1,0,.1-.09-.25,0-.31.07-.47.1l-.73,0s0,0,0-.08-.1,0-.11,0a5.92,5.92,0,0,1-1.11,0c0,.09-.18,0-.26.05l-.31,0c0,.11-.1-.06-.21,0h-.26a.37.37,0,0,0-.22,0,2.37,2.37,0,0,0-.68.07.47.47,0,0,0-.31,0,1.5,1.5,0,0,0-.32-.07,3.55,3.55,0,0,0-.79.12c-.67.07-1.36.12-2.09.14.05,0,0-.09-.06-.08s-.13.05-.16,0-.14.08-.16,0a1.74,1.74,0,0,1-.52,0c-.77.15-1.33,0-2,.13-.12,0-.11-.07-.26,0-.41.09-1-.06-1.52.08a.93.93,0,0,0-.63.07c0-.08-.1-.1-.21-.08s-.42,0-.63,0a1.94,1.94,0,0,1-.42,0,5.15,5.15,0,0,0-.53.07s-.37-.08-.42,0,0,0-.1,0a2.16,2.16,0,0,1-.27,0,2.06,2.06,0,0,0-.21,0c-.92,0-1.89.13-3,.14-.42.08-1.19.09-1.84.13-.12,0-.11.08-.26,0L25.06,4C25,4,25,4,24.9,4s0,0-.1,0-.06,0-.11,0a.07.07,0,0,1-.05,0,1.17,1.17,0,0,0-.27,0c-.09,0-.1.05-.2.05S24,4,24,4a2.79,2.79,0,0,0-.78.08c-.78-.06-1.77.06-2.63.08-.12,0-.1-.14-.27-.11a21.08,21.08,0,0,1-2.62.12c-.11,0-.07-.11-.21-.07a34,34,0,0,0-3.79.14,16.94,16.94,0,0,0-2,0,10.51,10.51,0,0,0-1.47,0c-.13,0-.16-.06-.32,0a4.44,4.44,0,0,1-1.31.11c-.13,0-.11.08-.26,0s-.31.06-.48,0c0-.08.16,0,0-.12s-.13.17-.31.18-.34.07-.37,0,.16,0,.16-.1-.15,0-.16,0a1.42,1.42,0,0,1,.37,0c0-.14.34-.07.52-.11s.16.09.32.07c0-.05.13,0,.21-.05a.34.34,0,0,1,.2,0c.06,0,.06.09.16.07a13.43,13.43,0,0,1,2.1-.18,8.28,8.28,0,0,1,1.1-.05A1.7,1.7,0,0,1,12.48,4a5,5,0,0,0,.95,0,.5.5,0,0,1,.26,0c.35,0,.89-.07,1.32-.06l.26,0c.66,0,1.37-.08,2.05-.1.12,0,.12.07.26,0,.79-.07,1.48,0,2.1-.1.09,0,.11,0,.21,0s.06,0,.11,0,0,0,.05,0a1.62,1.62,0,0,0,.42,0s0-.07.05,0a3.29,3.29,0,0,0,.95,0,1.52,1.52,0,0,1,.2-.06s.21.1.27,0,.07,0,.26,0l.68,0c.13,0,.11-.08.27-.06l3.56-.16c.13,0,.12-.09.26-.06l.79,0c.44-.12,1.18,0,1.63-.16,1.54-.1,3.22-.09,4.67-.26a5,5,0,0,0,1.16,0,2,2,0,0,1,.26,0,2.06,2.06,0,0,0,.21,0,1.72,1.72,0,0,0,.57-.07c.86.08,2-.13,2.9,0,.12-.08.42,0,.62-.07s.31,0,.53,0a3.55,3.55,0,0,1,.52-.15,4.7,4.7,0,0,1,.68,0c.61-.12,1.43-.07,2-.22.32,0,.46,0,.84,0l.95,0a1.25,1.25,0,0,1,.42-.06c.1,0,.07.11.21.08s.06.09.16.07.18,0,.37,0a2.86,2.86,0,0,1,.41-.15l.48,0c.15.1.25,0,.37.11.32,0,.55,0,.9,0,0-.08.17,0,.2-.09A.16.16,0,0,1,49,2.05h.26c.1,0,.06-.12.21-.1s.19-.07.36-.05.32,0,.26-.1-.13.08-.16,0c-.28.07-.72,0-1,.13,0-.1-.19,0-.27,0l-.31,0-.58,0-.32,0c-.11.06-.2-.1-.21,0l-.57,0-2.37.11c-.12,0-.11.08-.26.05A5.52,5.52,0,0,0,43,2.23a1.18,1.18,0,0,1-.47,0c-.78.14-1.84.09-2.57.16-1-.08-2.25.14-3.21.07-.13,0-.11.08-.26.05l-.47,0h-.21c-.05,0-.1,0-.11,0l-5.93.27c-.13,0-.11.08-.26.06a6.12,6.12,0,0,0-1.1.09c-.53,0-.92.12-1.47.11-.15,0-.26-.09-.43-.11a8.68,8.68,0,0,0-1.2.1c-.17,0-.13-.12-.32-.07-.52.06-1,0-1.52.08l-.26,0a13.91,13.91,0,0,1-1.42.07,1.18,1.18,0,0,0-.27,0c-.09,0-.16.05-.26.05a2.3,2.3,0,0,1-.26,0,.81.81,0,0,1-.21.05c-.84.1-1.72,0-2.68.13-.12,0-.11-.07-.26,0l-.53,0c-.12,0-.15-.07-.31,0s-.23.08-.42.06a2.61,2.61,0,0,0-.79,0,.69.69,0,0,0-.47,0,.18.18,0,0,0-.17-.08c-1.34.11-2.43,0-3.78.1-.13,0-.12-.07-.26,0a7.1,7.1,0,0,1-1.21,0c-.05.1-.33,0-.47.06L8,3.5s-.09,0-.16,0-.17,0-.15.14-.06.11-.2.09a1.93,1.93,0,0,1-.58.11A1,1,0,0,1,6.59,4c0-.05-.09,0-.15,0s-.3,0-.37.1-.27,0-.42,0-.1,0-.1.09a.15.15,0,0,1-.1.09c0,.12-.14.08-.1.21s.15.06.16,0,.09,0,.11,0,0,.33.27.24c0-.16.1-.2.2-.27s.12,0,.21,0,.12,0,.16,0-.23,0-.26.14a.64.64,0,0,1-.31.14l0,.37c-.07,0-.08.08-.15.1-.23,0-.48,0-.69,0a1.48,1.48,0,0,0-.67.2c.14,0,.41-.09.62-.12s.7-.11.8,0,.06.09.06.16a4.73,4.73,0,0,1-1.1.23l-.31.14A6.25,6.25,0,0,0,3.8,6c-.11,0-.1.12-.21.14H3.33c-.07.16.18,0,.16.12s-.41-.06-.36.1.27-.06.26,0,.2,0,.22,0L2.4,6.55s-.09,0-.15,0,0,.08-.1.08l-.37,0c0,.09-.29,0-.31.1.23,0,.32,0,.53,0a8.58,8.58,0,0,0,1.46-.2l1.42-.07c.09,0,.3-.13.36,0s-.3.08-.47.11l-.52,0a2.74,2.74,0,0,1-.63.11c0,.13-.17.17-.35.19a.13.13,0,0,0,0,.12c.07,0,.06.08,0,.09s-.52,0-.62.07c.19,0,.25,0,.42,0l.47,0c.09,0,.28,0,.27.11l-1,0c-.11,0,.08.11-.1.13s0,0-.1,0c-.29,0-.51.15-.78.21l-.53,0s-.09,0-.15,0S1,8,.79,8A.41.41,0,0,0,.53,8c-.09.09-.43,0-.42.15a4.78,4.78,0,0,1,1.48.09L2,8.2c.09.09.29,0,.42,0s.14.09.17.2c-.21.08-.4.17-.62.24s0,0,0,.08,0,0,0,.09-.42-.06-.37.1a2.42,2.42,0,0,1,1.33.14.47.47,0,0,1-.37.15,1.68,1.68,0,0,1-.3.14.31.31,0,0,0-.37.1c.11,0,.17,0,.16.08s-.22,0-.25.13a3.67,3.67,0,0,1,1,.16c0,.12-.1.09-.15.14s0,.16-.09.17-.43,0-.53,0-.13,0-.21.06H1.53c-.09,0,0,0,.11,0l.26,0c.17.09.57,0,.59.18-.33,0-.39.16-.68.08.06.15-.11.14-.15.22.16,0,.19,0,.32,0s.3-.06.31,0-.1.17-.2.22a.28.28,0,0,0-.2.18c.25,0,.37,0,.63,0,0,.08.2,0,.22.11s.26,0,.21.08a.35.35,0,0,0-.26,0,.21.21,0,0,1-.21.13c-.18,0-.3.08-.46.11s-.46,0-.52.19c.12.09.21-.05.42,0s.27-.09.32.07c-.18,0-.25.12-.47.11,0,.06-.07.14-.2.14s-.14.06-.26,0-.2,0-.21.05c.3,0,.5.06.79,0,0,.13.12.13.27.11s.07.17.22.16.41-.15.47,0-.13.09-.26.09-.09.12-.26.1l-.84,0c0,.1.24,0,.17.12s-.34-.1-.37.06a1.82,1.82,0,0,1,.53,0c.16,0,.41-.06.42.07s.07.08.06.16a2.58,2.58,0,0,1-.73.08c-.18,0-.3.08-.05,0h.37a.72.72,0,0,0,.37,0c.11.06.13.2.32.19s.56-.05.59.14a.9.9,0,0,0-.37.11s.31,0,.22.11-.5,0-.36.06c.59,0,1.09,0,1.63,0,0,.16.28,0,.22.2-.67,0-1.43,0-2.16.06l-.15.13a.14.14,0,0,0-.15.09c.41,0,.63.11,1.05.08,0,.12.23.06.22.2-.18.06-.34-.1-.42,0,.08,0,.17.05.17.16s.15,0,.16,0c.36,0,.85-.11,1,.08a.93.93,0,0,0-.36.06L3.5,15c-.1,0-.18-.12-.21,0a.14.14,0,0,1,.11.07c.06,0,.09,0,.11,0a.52.52,0,0,1,.31-.06c0,.06.13,0,.21,0s.13,0,.21,0,.33,0,.38.11a4.16,4.16,0,0,1-1.06,0c-.19,0-.54,0-.57.12.09,0,.1,0,.11.07s.15,0,.16,0l.42,0c0,.1.17.08.22.16l-.42,0c0,.11-.29,0-.26.09a9.8,9.8,0,0,0,1.1-.05c.14,0,0,.16.22.11a.57.57,0,0,1,.31,0c.08,0,.27-.06.27,0s.3-.07.31,0,.27-.06.27,0-.09.05,0,0c.07.15-.47.05-.31.14s.34-.07.37,0-.1,0-.1.09c.23,0,.68-.13.69.09a1.06,1.06,0,0,1-.42.07s-.1,0-.1.09,0,0,0,0l-.78,0c-.06,0,0,.09-.16.09a1.4,1.4,0,0,1-.47,0,1.41,1.41,0,0,1-.31.1H3.9c-.1,0-.11,0,0,0,.24,0,.32,0,.47,0,.06.09.35,0,.37.11s-.14,0-.15.09.36-.09.32.07H4.54c0,.11-.1.09-.15.14s-.35,0-.36.06.06,0,0,.08c-.26,0-.3.15-.51.19s-.28,0-.26.05.2,0,.21,0-.26,0-.26.09.23,0,.26,0v0a6.88,6.88,0,0,0,1.11-.05,2.14,2.14,0,0,1,.47-.07,0,0,0,0,0,.05,0s0,0,0,0l.37,0c0,.09.33,0,.37.07s-.27,0-.26.05.49-.08.48.1a5.77,5.77,0,0,1-.85,0c0,.07.1.1,0,.13s-.23,0-.37,0-.35,0-.36.06,0,.05,0,.05,0,.05.1,0H4.9c.17,0,.39,0,.48-.06s.09.09.21.07a3.2,3.2,0,0,0,.73-.08,2.16,2.16,0,0,0,.58,0c.06,0,0-.09.1-.09a.54.54,0,0,0,.32,0c.09,0,.3-.06.31,0-.19,0-.52,0-.62.07.08,0,.2,0,.21,0l-.37,0c-.1,0-.13.1-.26.1s-.26,0-.2.09c-.18.08.13.08.11.16s-.25,0-.26.1.16.07.32,0c0,.17.28.13.43.19s.09,0,.11,0,.09-.12.25-.09a.16.16,0,0,0,.17.07c.11-.09.25,0,.47,0,0,.06.06,0,.15,0a.37.37,0,0,0,.22,0h.36c.15.07.49,0,.64,0s.15,0,.31-.06c0,.09.19,0,.26,0s.14,0,.27,0a7.24,7.24,0,0,1,1,0l.36,0a.36.36,0,0,0,.22,0h.36a1.39,1.39,0,0,0,.42,0c.1,0,.27.1.32,0-.1,0-.26,0-.32-.07l2.21,0,.58,0a.68.68,0,0,0,.36,0c0,.12.29-.05.27.07s-.35,0-.36.06.19,0,.21,0l.78,0c.06,0,.06.1.17.08a5.63,5.63,0,0,1,.68,0c.12,0,.11-.08.26-.06s.11.07.26,0-.18,0-.16-.12.3-.06.31,0,.07,0,0,0,.13-.11.31-.05a.42.42,0,0,0,.31,0,3,3,0,0,0,.95,0c.12,0,.12.07.26,0l.69,0c.12.05.09,0,.26,0s.48-.07.58,0c0-.16-.21-.05-.32-.07s-.16-.1-.22-.16a7.68,7.68,0,0,0,1.26,0c0,.06-.09.07-.1.13.19.05.33-.13.42,0s-.2,0-.21.1a4.15,4.15,0,0,1,.79,0c.07-.12-.28-.09-.11-.16a10.71,10.71,0,0,0,1.84-.05c0,.14-.31.05-.25.23.12,0,.38,0,.41-.07s-.2,0-.21,0,.45,0,.52-.06-.32.05-.32-.07c.33-.07.77.13.95-.09-1,.07-1.81,0-2.79.05-.59-.09-1.41,0-2.15,0l-.74,0a1.79,1.79,0,0,0-.37-.11,8.42,8.42,0,0,0-1,0c-.09,0-.11-.05-.21,0a2.16,2.16,0,0,1-.58,0c-.14,0-.41.07-.47,0,1,0,1.83-.08,2.78-.09,0,.07.25,0,.27.07s.38-.07.57-.11.26.06.37.11c.05-.11.41,0,.47-.11,0,.05.1,0,.16,0s.06,0,.11,0a.54.54,0,0,1,.31,0,.25.25,0,0,1,.21.07c.16,0,.1-.12.26-.1s.31,0,.58,0a3.73,3.73,0,0,0,1,0c.16,0,.1.11.26.08,0-.1.19,0,.26-.06s.31-.06.32,0h.1c0-.05.08,0,0,0v0l.94-.13c.27.11.91-.11,1.1.07,0-.09.07-.08.16-.09a1.16,1.16,0,0,0,.63,0c.1,0,.1.12.26.07.46,0,1,0,1.26-.06a.34.34,0,0,0,.21,0c.08,0,.2,0,.21-.05s-.15,0-.16,0c.29-.07.29.12.58.05s0-.13.21-.09.1,0,.11.08c.17,0,.06-.14.2-.14s.28,0,.58,0c0,0,0,0,0,.08.18,0,0-.14.21-.09a1,1,0,0,0,.37.06,1,1,0,0,1,.63-.07c0-.05.07,0,0,0s.32,0,.52,0c0,0,0,0,.06,0a1.39,1.39,0,0,1,.47-.07c.08,0,.05.13.21.08s.2,0,.21-.05-.06,0-.06,0-.19,0-.21,0,.19,0,.21,0,.07,0,.06,0,.05,0,.11,0,.15-.1.31-.09.21,0,.36,0c0,.1.18,0,.21,0a.4.4,0,0,0,.16.08c.09-.17.29,0,.47-.11,0,.06.13,0,.21,0a.16.16,0,0,0,.16.08c.11-.07.35-.05.47-.11.25.13.54,0,.85,0,0,0,.09,0,.15,0s0-.08.1-.09c.22-.05.25.07.42.06s.31,0,.47-.06.19.1.32.11,0-.11.1-.13,0,.12.06.12,0-.11.05-.12a.34.34,0,0,0,.21,0c-.06.05,0,.09.06.08s0-.08.1-.09v.09c.12,0,.07-.09.15-.1s.05.08.11.08.2-.1.37-.1.06.1.16.08,0-.08.1-.09c.23.07.55-.08.89,0,0-.09.19,0,.26,0a2.29,2.29,0,0,0,.47,0c.05,0,.05.05.06.08.28-.1.56,0,.84-.12,0,.09.22,0,.31,0H44c.11,0,.2,0,.31.07,0-.09.19,0,.26-.05s.16-.08.26-.1.06.09.16.08,0-.05.11-.05.23,0,.26-.09c0,.09.18,0,.26,0l.31,0c.21-.07.21,0,.47,0a1.18,1.18,0,0,1,.32,0,3,3,0,0,0,.52-.07,1.57,1.57,0,0,0,.16,0c.06,0,0,0,.05,0s.09.05.16,0,.06-.05.05-.05.09,0,.16,0l2.41-.11c.13,0,.11-.08.26-.05a4.35,4.35,0,0,0,.94-.09c.42,0,.64,0,1.16,0,0,.08.29,0,.32.07.19-.09.35,0,.57,0A10,10,0,0,1,55.2,17c0-.07.22-.05.31-.1s.49,0,.73,0,.12,0,.21,0l.21-.05s.06.05.11,0,0,0,0,0,.11,0,.21,0a5.37,5.37,0,0,0,.79,0,.72.72,0,0,1,.21-.05s0,0,0,0a9.62,9.62,0,0,1,1.42,0,1.5,1.5,0,0,1,.62-.07c.09,0,.12,0,.21,0s.05-.05.11-.05.18.1.21,0-.11,0-.11,0,.1,0,.11,0a5.1,5.1,0,0,0,1.31,0s-.1,0-.1.09c.42,0,.93,0,1.2-.05,0-.06.15-.06.16,0s.11.05.21,0l.47,0h.21c.1,0,.11-.05,0-.05s-.41.07-.47,0l.74,0c.07,0,0,0,0,.08.17,0,0-.13.2-.09.4.09,1.08-.06,1.48,0,.16,0,.15-.07.31-.05s.11.13.26.11.19-.05.32-.05c.39.09,1.07-.07,1.47,0a.46.46,0,0,1,.26,0s0-.1.15-.09.14.11.32.07.2-.07.37-.05a4.65,4.65,0,0,1,.68,0c.12,0,.15.06.31,0s.18-.09.37-.06a2.26,2.26,0,0,0,.73,0c.16,0,.16.07.32,0a2.78,2.78,0,0,1,.52,0l.63,0c.18,0,.18,0,.37,0s.13-.12.31-.1c0,.05-.1,0-.1.09.7,0,1.22-.08,1.83-.07,0,0,0-.1.15-.09s.18-.05.26-.05,0,0,.06,0a3.85,3.85,0,0,0,.42-.06c.85-.1,2-.07,2.87-.19.16,0,.16.06.32,0l1,0c.13,0,.38-.07.42,0s.28-.1.32,0-.15,0-.16,0h.47c.08,0,0-.08,0-.09s.18.1.37.07-.13-.11.1-.09.26-.05.47,0,.11-.06.21-.05a1.22,1.22,0,0,0,.37,0l1.25,0c0,.06.07,0,.16,0s.2,0,.21,0-.15,0-.15,0a3.58,3.58,0,0,1,1,0,1.59,1.59,0,0,1,.26-.14c.19.12.32,0,.58.07s.11-.08.26-.05c.81,0,1.39-.16,2.19-.16.13,0,.11-.08.26-.05,2.18-.05,4.19-.36,6.15-.53.15,0-.12.11.11.08a.75.75,0,0,1,.47,0c0-.07,0-.08.1-.08s-.12.12.11.08a18.53,18.53,0,0,1,2.13-.19c.12,0,.15-.07.31-.05s.27,0,.26,0c-.74.1-1.45.24-2.23.31-.38,0-.74.09-1,0,0,.06-.11.08-.21.09-.94,0-1.68.09-2.6.2a13.39,13.39,0,0,0-1.88.15c-.51,0-.77.07-1.1,0-.09,0-.11.06-.21,0s-.29.09-.42,0c0,.05-.09,0-.15.05a.14.14,0,0,1-.15.09c-.17,0-.16-.13-.37-.07a14.09,14.09,0,0,1-1.56.26c0-.08,0-.13-.11-.12-.58,0-1.15.11-1.83.11,0,0,0,0-.06,0s-.08,0-.15,0a1,1,0,0,0-.21,0h-.37c-.09,0-.2,0-.26.06a4.42,4.42,0,0,1,1,.05c.19,0,.24-.06.41-.06l.89,0c.09-.09.14,0,.32,0a.19.19,0,0,1,.26,0h-.37c0,.13,0,.09,0,.17.31-.07.74-.05,1-.12.88,0,1.39-.11,2-.15.1,0,.27.11.32,0s-.11,0-.06,0l.63,0c.13,0,.11-.08.26-.05l.63,0c.52-.12,1.3,0,1.77-.19.75,0,1-.1,1.77-.1.13,0,.11-.07.26,0l.47,0c.13,0,.11-.08.26-.05l1.25,0c.12,0,.21-.09.31,0,.08-.1.37,0,.47,0a.77.77,0,0,1,.37-.1,1,1,0,0,0,.36-.09c.19,0,.25-.06.41-.05a.5.5,0,0,0,.31-.09c-.09,0-.1,0,0,0a1.31,1.31,0,0,1,.47-.06.52.52,0,0,1,.31-.09.14.14,0,0,1,.15-.09c.06,0,0-.08.11-.09a11.44,11.44,0,0,0,1.24-.11v-.08a8.83,8.83,0,0,0-1.09.1,1.58,1.58,0,0,0-.47.06.47.47,0,0,0-.26,0,8.9,8.9,0,0,1-1.61.13c-.22.08-.61,0-.84.11a2.28,2.28,0,0,0-.72.06.41.41,0,0,0-.21,0s-.14.07-.16,0c.32-.09.73-.1,1-.2s.51,0,.57-.14c-.16,0-.45.07-.52,0a1,1,0,0,0,.36-.09c.23,0,.26,0,.41,0s.51.08.53-.06-.27.06-.27,0c.35,0,.62-.11.94-.16h.36a4.6,4.6,0,0,1,.84-.06,5.39,5.39,0,0,1,1.09-.06c.06-.09.36,0,.36-.14-.26,0-.35.08-.52,0-.1.08-.13,0-.26,0s-.17.12-.21,0a1,1,0,0,1,.57-.14c.12-.08.43,0,.57-.09a23.09,23.09,0,0,0,2.38-.34h.42a5.46,5.46,0,0,1,1-.15s.1,0,.16,0,.09,0,.15,0,0-.09,0-.17h-.41c0,.09-.34.06-.31,0s.19,0,.15-.05c-.22,0-.54.06-.62-.07a3.82,3.82,0,0,0,.36-.13c.11,0,.14,0,.21,0s.16-.1.31-.09.25,0,.3-.09a1.39,1.39,0,0,0-.67.05.32.32,0,0,0-.21,0c-.4.1-1,.07-1.4.15-.16,0-.14-.14-.26,0s-.15-.07-.31,0h-.26c-.22,0-.57.16-.68,0,.08,0,.2,0,.21,0-.34,0-.68,0-1,.1-.47,0-.9.06-1.25,0a.46.46,0,0,1-.26.05c-.07,0-.27.05-.26,0,.22,0,.21-.16.41-.18s.15,0,.16,0H100c-.09,0-.3.06-.31,0s0,0,0-.08.56-.07.68-.23a1.26,1.26,0,0,0-.47,0,.47.47,0,0,1-.26,0c-.08,0-.2,0-.21,0,.24,0,.39-.09.62-.1a.8.8,0,0,1,.47-.18c0-.15.3-.1.31-.26s-.29.06-.37-.08a3.69,3.69,0,0,1,.62-.09c.16,0,.16-.08.31-.05s.28,0,.27-.05-.1,0-.11-.08a.69.69,0,0,1,.47,0c0-.11.17-.09.31-.09s.15-.13.26-.17.21,0,0,0c0,.08.36,0,.41,0s.07-.2.26-.17.23.06.42,0c.06-.19-.35,0-.37-.12-.13.08-.2,0-.36.05s0,0-.11,0-.53-.06-.68-.19c0,.09-.13.09-.26.08s-.3.06-.31,0,.2,0,.21-.05a3.27,3.27,0,0,0-.84.14c-.08-.06-.27,0-.42,0a2,2,0,0,1-.62.06c-.09,0-.25.05-.27,0a1.11,1.11,0,0,1-.36.09c-.14-.11-.25,0-.32-.12s0-.06,0,0h.42c.05,0,.05-.1.16-.09s.3-.07.46-.09c1.12-.11,2-.37,3.13-.45.06,0,.06-.09.16-.08h.36a.6.6,0,0,1,.32-.05c.14,0,.1-.07.21,0s-.12.09-.21.13-.12,0-.16,0,0,.1,0,.08-.14,0-.21,0,0,.08-.1.08.16.07.26.08h.37c.09,0,.06-.17.26-.13,0,0-.11,0-.11.09a5.56,5.56,0,0,0,.63-.05c.08,0,0-.08,0-.09a.47.47,0,0,1,.31,0c0-.06.17-.06.27-.09.05.15,0-.11.15,0s.2-.06.37,0,.29,0,.15.13h.11a.26.26,0,0,0,.1-.13c.1,0-.06,0,0-.08.17,0,.38,0,.46-.13-.2,0-.28.08-.52,0-.06,0,0-.07,0-.12a.93.93,0,0,1-.36,0c-.1,0-.15-.13-.27-.08a.39.39,0,0,1-.26,0c-.05,0-.37.09-.42,0s.22-.05.32-.09.24,0,.26-.09-.11,0-.06,0c.21-.06.11.13.32.07.44,0,.78-.16,1.25-.17,0-.08.15,0,.05-.13.12,0,.2,0,.21-.08a8.33,8.33,0,0,0-1.41.22c-.13-.1-.25,0-.42.05h-.63c-.12,0-.11.08-.26,0s-.41.07-.47,0c.28,0,.4-.08.68,0s0-.17.21-.13a4.44,4.44,0,0,0,.68-.1H106a.33.33,0,0,1,.21-.05h.16s0,0,0,0-.45.06-.47-.08.1,0,.1-.09-.2,0-.21,0,.31,0,.47,0a.52.52,0,0,1,.36-.09c.06-.08.28,0,.37-.08s.22-.08.42-.05a.52.52,0,0,0,.31-.09.14.14,0,0,1-.16-.08c.08,0,.15,0,.16,0a2.26,2.26,0,0,0-.52,0c-.12,0-.37.17-.42,0,.08,0,.2,0,.21-.05-.18,0-.09-.08-.06-.12-.34,0-.61,0-.84,0s-.11-.05-.21,0-.1,0-.1,0-.41.09-.37-.07.16.07.32,0,.37,0,.41-.09c-.13-.1-.56,0-.63-.11.13.06.16-.15,0-.13s-.36,0-.47.09c-.09-.08,0-.05,0-.17h-.37s0-.15-.16-.12a.36.36,0,0,1-.21,0c-.07-.08-.34,0-.42-.08h-.26c0-.1-.1-.06-.11-.13s.16-.07.32,0a.25.25,0,0,1,.26-.17c-.1.2.37.14.42.08s-.31,0-.32,0c.23,0,.21-.14.42-.13-.06,0,0,.08.05.08,0-.18.18,0,.27-.05.06-.19-.36,0-.37-.12a2.39,2.39,0,0,1,.68-.05c.21,0,.58.06.63-.1-.13,0-.26,0-.26-.08a2,2,0,0,0,.78-.09,4.84,4.84,0,0,0,.69,0c.06,0,.09,0,.1,0h-.31s-.34-.14-.42,0c.08,0,.2,0,.21,0-.19,0-.2.06-.37,0,.06,0,0-.09-.06-.08a7.14,7.14,0,0,0-.94,0c.08-.17-.23,0-.22-.12.21.05.13-.13.27-.13s.2,0,.21,0c-.14-.1-.36,0-.53,0h-.53c-.16,0-.41.06-.42-.07s0-.1.16-.09,0,.09.16.08.13,0,.31-.05.32-.09.47-.13.47,0,.58,0c-.08-.19.35,0,.27-.17a21.27,21.27,0,0,0-2.38,0,.2.2,0,0,1,0-.17c.08,0,0,0-.06,0s.05.23-.1.21-.12,0-.32,0a.26.26,0,0,1,0-.21c-.1,0-.17.13-.21,0,.17-.17.46,0,.74-.1.08,0,.2,0,.21,0a6.58,6.58,0,0,1,1.47,0c.47-.11,1.23,0,1.7-.1.12,0,.11.08.26,0a1.45,1.45,0,0,1,.37,0l.32-.05a1.14,1.14,0,0,0,.37,0,1.58,1.58,0,0,1,.26-.13c.23,0,.25-.08.43-.08s.15,0,.16,0c-.27.06-.26-.1-.48-.08a1.39,1.39,0,0,0-.48,0h-.37c-.12,0-.31,0-.26,0s.21.07.26,0c-.15,0-.5.09-.48-.08a1.67,1.67,0,0,0,.53-.05A.6.6,0,0,0,108.3,5a4.44,4.44,0,0,1-1,0c-.16,0-.14.12-.26.13-.09-.14-.18,0-.37-.08,0,.2.38,0,.47.16-1,.13-2.21.06-3.22.17-.1,0-.1-.12-.26-.08a1.22,1.22,0,0,0-.37,0c0-.09-.23,0-.32,0s-.2-.11-.21,0-.16-.07-.32,0-.27.05-.26,0c.25,0,.55,0,.68-.14-.07,0-.15,0-.16,0s-.19,0-.21,0,.19,0,.21,0a1.63,1.63,0,0,0,.42-.09c.15.08.53,0,.69.07,0-.1.32,0,.37-.09s.13,0,.21,0a3.57,3.57,0,0,1,.9-.06.94.94,0,0,1,.31-.09,1.73,1.73,0,0,0,.43.08c.22,0,.25-.07.42,0,.05-.09.34,0,.37-.08a1.35,1.35,0,0,0-.53,0,.39.39,0,0,0-.26,0,2.23,2.23,0,0,0-.75-.07s0,0,0,0,0,.06,0,0l-.74,0c-.26,0-.35.07-.53,0,.34,0,.82.05,1-.1-.83-.07-1.54.09-2.38,0,0,0,.1,0,.1-.08h-.84a5.88,5.88,0,0,1-.74,0,.53.53,0,0,0-.27,0,12.92,12.92,0,0,1-1.53,0c-.18,0-.63.11-.74,0,.08,0,.28,0,.27,0s-.54-.08-.53.1c.09,0,.14-.08.16,0s-.3,0-.42.06c0-.08.16,0,0-.13s-.35,0-.42,0c0-.09-.23,0-.32,0s-.05,0-.1,0h-.16c-.06-.1-.38,0-.43-.08.18,0,.49,0,.58,0a2.89,2.89,0,0,0-.74,0c-.14-.09-.36.07-.42-.07.62,0,1.13-.1,1.79-.09,0,0,.14,0,.16-.09s.2,0,.21,0c.17,0,.37,0,.36-.14s-.17,0-.31,0-.23,0-.32.05-.14.06-.16,0H98c.07-.07.23-.07.31-.14.29,0,.47-.11.74-.14a4.56,4.56,0,0,0,.63,0,1.59,1.59,0,0,0,.53,0c.17,0,.18,0,.37,0,.11-.12.17,0,.31-.09s.34.08.37,0-.2,0-.21,0a1.61,1.61,0,0,0,.42-.05h.43c.11,0,.34-.06.37,0a1.33,1.33,0,0,1,.47,0c.14,0,.46.07.43-.09-.13,0-.21,0-.32,0a2.56,2.56,0,0,1-.27,0s0,0,0,0-.09,0-.16,0,0,0,0,0-.29,0-.48.06a3.77,3.77,0,0,0-.63,0,1.15,1.15,0,0,1-.37,0s0,.05,0,.05,0,0-.06,0-.08,0-.16,0,0,0,0,0-.26.08-.47,0,0-.13-.22-.07a.52.52,0,0,1-.31.09,4.72,4.72,0,0,0-.74,0,1.06,1.06,0,0,0-.47,0c-.17,0-.11-.11-.27-.08a2.59,2.59,0,0,1-1,0l-.53,0h-.26c-.09,0-.2,0-.22,0s.38,0,.16-.13c0,.12-.17,0-.27,0s0,.12,0,.13-.65.15-.74,0c.21,0,.18-.08.26-.13a.24.24,0,0,0,.16,0s0,.09.1.09a.21.21,0,0,0,.21-.14c-.09-.07-.13,0-.31,0s0-.08-.11-.08-.1,0-.11,0a2.35,2.35,0,0,1,.74,0c0-.13-.18,0-.22-.12a.47.47,0,0,1-.31,0c-.06,0-.06-.09-.16-.08-.27,0-.43,0-.58,0l-.22-.08c0,.09-.22,0-.31.05s-.1,0-.26,0a.41.41,0,0,1-.21.05,20.48,20.48,0,0,0-2.11,0c-.1.06-.3,0-.42.1-.75,0-1.6.1-2.27,0-.24,0-.31.07-.47,0H88c-.15,0-.14,0-.26,0a.39.39,0,0,1-.26,0,8.13,8.13,0,0,0-1.16.08c-.13,0-.12-.07-.26,0s-.27,0-.22-.07l3.21-.11c.15,0,.14,0,.27,0,.55-.11,1.56-.07,2.31-.12A8.42,8.42,0,0,1,93,3c.11,0,.06-.12.21-.09l.63,0c.1,0,.11-.06.21-.05h.32c.19,0,.07-.08-.06,0l-.63,0c-.13,0-.11.08-.26,0h-.53c-.07.06-.08,0-.16,0a.14.14,0,0,1-.15.09c-.12-.09-.18,0-.37,0S91.7,3,91.39,3H91c0-.08-.34,0-.38-.07.15,0,.37,0,.37-.09s-.09,0-.16,0-.11,0-.21,0-.16,0-.16-.08a1.33,1.33,0,0,1,.42,0c0-.06.44-.09.27,0ZM6.41,4.55s0,0,0,0S6.41,4.57,6.41,4.55Zm53.21-2c0-.1.3,0,.42-.06s-.25,0-.21.09A.32.32,0,0,0,59.62,2.59Zm.53.06c-.12.14-.22-.14,0,0Zm-1.1.05c.1,0,.22,0,.21.12S59,2.81,59.05,2.7Zm2.05-.09c0,.09,0,.11-.05.17s-.11-.06-.06-.12h-.21C60.62,2.61,61,2.62,61.1,2.61Zm-1.57.19s.1,0,.1-.08.14,0,.21,0,.4,0,.11,0Zm1.73-.11s.06,0,.1,0,0,.07,0,.13S61.33,2.69,61.26,2.69Zm-1.89.12s0-.05.05,0S59.38,2.82,59.37,2.81Zm.89,0s.06,0,.1,0S60.3,2.76,60.26,2.77Zm25.61-1s0-.05,0,0S85.89,1.77,85.87,1.76Zm1.11,0s0-.05,0,0S87,1.73,87,1.72Zm-25.35,1s0-.06,0,0S61.64,2.77,61.63,2.76Zm1.47-.07c0-.09.26,0,.37,0a.59.59,0,0,1,.31,0c0,.1-.23,0-.26,0A.83.83,0,0,1,63.1,2.69Zm1.95,0c-.12.14-.22-.14,0,0Zm-3.21.13c.06.12-.11.08-.21.09S61.72,2.78,61.84,2.79Zm3.42-.1s.09,0,.15,0S65.32,2.68,65.26,2.69Zm.31,0c0-.05.07,0,.11-.05S65.61,2.66,65.57,2.68Zm.53,0c0-.1.28-.05.32,0s.3-.06.31,0h-.31C66.29,2.73,66.26,2.66,66.1,2.7ZM64,2.83c0-.05.06,0,.1-.05S64,2.82,64,2.83Zm.21,0c.22,0,0,.12,0,0S64.12,2.76,64.16,2.82Zm3-.13s0,0,.05,0S67.22,2.7,67.21,2.69Zm1.36-.1c.1,0,.11.05.21,0S68.49,2.71,68.57,2.59Zm2.05,0c-.09.15-.39,0-.68.07l-.42,0c-.1,0-.31.07-.26-.07A7,7,0,0,1,70.62,2.59Zm8.47-.41h.1v.09h-.11Zm-7.41.37a.19.19,0,0,1-.27.05c-.06.06-.08,0-.15,0s-.15.05-.32,0-.1.08-.21,0C71,2.45,71.42,2.57,71.68,2.55ZM72,2.49c0,.06-.06.09-.15.09S72,2.5,72,2.49Zm9.37-.1c0,.09-.18,0-.26,0a7.68,7.68,0,0,1-.84,0c-.3,0-.64,0-1,0-.7,0-1.36,0-2.21,0l-.63,0-.32,0c-.08,0-.2,0-.21,0-.3.1-.69,0-1,0,0-.09-.19,0-.26,0h-.27a11.94,11.94,0,0,1-1.68,0s0,0,0,0,.19-.12.21,0c.36,0,.57,0,1,0a9,9,0,0,1,1.26-.09,2.1,2.1,0,0,0,.52,0c.12,0,.06,0,.27,0a1.15,1.15,0,0,0,.31,0s.13-.07.16,0,.43,0,.68,0,.21.11.43.07l.36,0h.27s0-.07,0,0a.73.73,0,0,0,.37,0c.07,0,.15,0,.15-.05.2.09.34,0,.53,0s.27,0,.48,0c.41,0,.75-.06,1,0S81.17,2.4,81.41,2.39Zm-3.06-.1s0,0,.06,0S78.37,2.3,78.35,2.29Zm-6.25.29s0-.06.05-.05S72.11,2.59,72.1,2.58Zm.42,0c0-.06,0,0,.1,0S72.52,2.6,72.52,2.56Zm-5,.29s.06,0,.1-.05h.16s-.06,0-.11,0Zm.47,0c0-.09.19,0,.26-.05h.26c0,.09-.18,0-.26,0Zm.63,0c.18-.13.45,0,.68,0,0,.09-.25,0-.36.05S68.7,2.8,68.58,2.8Zm-8.93.38c.1,0,.16,0,.16.08h-.16ZM67,3.66c.13,0,.16-.07.2-.13s.05.07.11.08.15-.11.31-.1-.34.18,0,.21c0,.1-.19,0-.26.06H67c-.1,0-.11,0-.21,0a4,4,0,0,0-.63-.06c0-.09.15,0,.15-.13a.37.37,0,0,0-.32,0c-.12.07.4.26.12.34-.1,0-.11,0,0-.09a.11.11,0,0,1-.11-.12c-.19,0-.21,0-.37,0,0-.19.21,0,.25-.09s-.33,0-.47,0,0-.21-.11-.16,0,.13,0,.2.23,0,.26.08-.37,0-.25.22c-.08-.05-.09-.16-.17-.21s0,.08-.1.09-.27-.1-.31,0-.06-.1-.06-.17,0,.14-.16.13-.1,0-.1,0-.25,0-.32-.07c-.22,0-.45,0-.79,0-.1,0-.11,0-.21,0a10.55,10.55,0,0,1-1.52.06c-.14,0-.11-.08-.22-.07s0,.07-.1.09a7.84,7.84,0,0,1-1.16,0c-.15,0-.34,0-.41.06a1.81,1.81,0,0,0-.53,0c0-.06.06-.07,0-.12a.46.46,0,0,0-.41.14,1.59,1.59,0,0,0-.69,0c-.15,0-.33-.15-.36,0a1.87,1.87,0,0,1-.22-.07h-.26c-.08,0-.19,0-.21,0s-.1.13-.21.05.3-.08.47-.11.33-.05.25-.22h.37c0,.06-.11.05-.15.09s.07.08.06.16,0-.14.15-.13.3.06.47,0,.06,0,0,0,.11,0,.21,0a.07.07,0,0,0,0-.09H59c0,.11-.25,0-.21.09s.25-.1.26.07c.11-.11.21,0,.32-.09s-.05,0-.11,0,.24-.08.21,0,.23,0,.37-.06.24-.14.31,0-.2.1-.31,0-.3,0-.37.1.17-.09.16,0l.58,0c.05,0,.06,0,.1,0s.05-.22.2-.22c-.07-.15-.49,0-.63-.1s.09-.06.1,0a.43.43,0,0,0,.16,0,1.2,1.2,0,0,0,.37,0,1.81,1.81,0,0,0,.47,0,.34.34,0,0,1,.21,0,.31.31,0,0,0,.16,0,1.9,1.9,0,0,1,.58.14c.1,0,.12,0,.21,0s.27,0,.32.11a.34.34,0,0,0,.16-.05c.23.07.37,0,.58,0s.11,0,.21,0a.14.14,0,0,1,.16.07c.16,0,.09-.12.26-.09s.38,0,.68.06V3.18s-.1,0-.11,0,0-.06,0,0,.07-.05.16,0,0,.11.11.12,0-.11,0-.17a.72.72,0,0,0,.37,0c-.15.11,0,0,0,.17.36,0,.58-.12.79.1.09-.08.31,0,.48-.07s.65-.1.94,0,.47-.12.63,0c.63,0,.79,0,1.37-.06.11,0,.1-.11.15-.17.32.1.79,0,1,0,0,.17-.24,0-.31.1.16.11.64-.06.79,0s0-.06,0-.13.23,0,.27.12.08-.07.1,0,.34-.06.37,0,.06,0,.1-.05.06,0,0,0,.11,0,.16,0,0-.07.05-.09.11,0,.06.08c.2-.05.31.08.42,0s-.13,0-.21,0,0,0,0,0h.21L73,3a.38.38,0,0,1,.16,0c.14,0,.3,0,.36-.06.26.07.68,0,.85.14.08-.06.27-.05.31-.14s.23,0,.27.12S75,3,75,3l.37,0c.11,0,.35,0,.37-.05a.72.72,0,0,0,.37,0c.06,0,.15,0,.15,0a2.6,2.6,0,0,0,.74,0,1.56,1.56,0,0,0,.16-.05s.09.08.1,0,.1,0,.11,0,.11-.09.26-.06.08.05.16,0c0,.14-.14.06,0,.21-.28.13-.48-.06-.73,0,.06.16.46,0,.68.06s.22,0,.26-.1.07,0,.06.08a1.89,1.89,0,0,0,.21-.09c0-.22-.23,0-.22-.2a.41.41,0,0,1,.26,0c.06,0,.12-.08.16,0a.34.34,0,0,1,.37,0c-.09.18-.46-.07-.47.19,0,.09.23,0,.32,0l.42,0,.84,0c.06,0,.15,0,.16,0,.57.09,1.73-.1,2.27,0h.26c.08,0,0,.06-.1,0a1.88,1.88,0,0,0-.42.14.92.92,0,0,0,.37.08c0,.06-.15,0-.16.09s-.11-.05-.21,0-.33.08-.42,0a.3.3,0,0,0-.15,0c-.15,0-.11-.08-.22-.07a1.76,1.76,0,0,0-.2.09c-.13.06-.23-.12-.27,0s-.08,0-.11-.08-.1.07-.21,0-.5,0-.73,0-.12,0-.21,0-.11,0-.16,0a2.16,2.16,0,0,0-.68.06,1.22,1.22,0,0,0-.63,0s0-.08-.06-.08c-.34.09-.68,0-1.1.08V3.44A4.2,4.2,0,0,1,76,3.6c0-.06.09,0,.1-.09s-.33,0-.48,0-.09.15-.25.13a.32.32,0,0,0-.22-.16c-.2,0-.17.1-.26.14s-.12,0-.11-.08a.14.14,0,0,0-.15.09.26.26,0,0,1-.16,0c-.11.11-.17,0-.31.09-.58,0-1.29.07-1.84.07-.22,0-.2,0-.37,0s-.35.06-.53-.06,0,.07-.1.08a.71.71,0,0,1-.48-.06c-.18.1-.31,0-.52.06a5,5,0,0,0-1,0c-.1,0-.11,0-.16-.08s-.15,0-.16,0c.22,0,0,.12,0,0-.16,0-.16-.06-.26-.07s-.11,0-.11,0-.15,0-.15.05-.07-.11-.21-.07a1.43,1.43,0,0,1-.58,0c.06-.12.32-.09.52-.11,0-.08-.15-.1-.27-.11.07-.11.32,0,.42,0,0-.18-.37,0-.42-.11l-.42,0c-.13,0-.39,0-.42.06-.11-.07-.35,0-.53,0s-.1.06-.15.09a.24.24,0,0,1-.16,0C66.41,3.8,66.81,3.6,67,3.66Zm2.28-.84s.06,0,.1,0c.21,0,.5-.06.63,0s.14-.07.26-.06.12.07.27,0h.58c.06,0,0,0,0,0l-.37,0c-.14,0-.1.07-.21,0l-.74,0a.58.58,0,0,1-.31,0C69.52,2.91,69.35,2.83,69.32,2.82ZM56,3.67c0,.15-.34.08-.52.11s-.13,0-.15.09-.2,0-.21,0-.06-.1-.16-.08-.13,0-.21.05-.21.2-.21,0a1,1,0,0,1-.47.1c-.24,0-.06-.06-.16-.07s-.23.13-.42.14c0-.09-.18,0-.26,0s-.09-.07-.16-.08-.16.18-.21.06-.09,0-.26,0a4.51,4.51,0,0,0-1.32.06A.49.49,0,0,1,50.89,4c0,.09-.32.05-.36,0-.3.09-.48,0-.79.08a19.15,19.15,0,0,0-2,0,4.1,4.1,0,0,0-1.31,0c-.42,0-1,0-1.42,0-.11,0-.14,0-.21.06s-.15,0-.16,0c-.16,0-.32-.15-.47,0s-.17-.08-.32-.06-.31.06-.32,0-.13.09-.26.09-.18,0-.26,0-.14,0-.27,0c-.35.07-.93.08-1.25.14a1.21,1.21,0,0,0-.47,0c.11-.18.63-.06.83-.17l.47,0c.15,0,.14-.06.26-.05l.84,0c.13,0,.24,0,.42-.06s0,0,.1,0,.26,0,.37,0c.44,0,.89-.06,1.37-.07.1,0,.18,0,.26,0a15.25,15.25,0,0,1,1.63,0,5.87,5.87,0,0,1,1.11,0c.16,0,.15-.08.31-.06.41,0,.54,0,.89,0,.12,0,.34,0,.38.11s.21-.13.26,0a.61.61,0,0,0,.32,0,.67.67,0,0,0,.36-.1c.16.05.19,0,.42,0a6.66,6.66,0,0,0,1,0c.15,0,.14.05.27,0s.26-.06.26,0,.11-.08.26-.06.2,0,.21,0,.11,0,.11.12.1-.09.15-.13a2.25,2.25,0,0,0,.48.06c.18,0,.19,0,.42-.06l.73,0C55.71,3.77,55.77,3.58,56,3.67Zm15.39-.9s.06,0,.1,0S71.41,2.76,71.37,2.77Zm.89,0s0-.06,0-.05S72.28,2.75,72.26,2.74Zm-9.35.42s0-.05.05,0S62.92,3.17,62.91,3.16Zm.21,0c0-.05.06,0,.1-.05S63.16,3.14,63.12,3.16Zm10.3-.47c.13,0,.13,0,.26,0s.08,0,.11,0,.22-.11.31,0-.24,0-.36,0S73.38,2.82,73.42,2.69Zm4.21-.12s.06,0,.1,0h.16s-.06,0-.1,0Zm-12.41.54s0-.06,0,0S65.24,3.12,65.22,3.11Zm10.1-.41s.06,0,.1,0S75.36,2.69,75.32,2.7Zm.21,0s.1,0,.1,0S75.54,2.74,75.53,2.69Zm.31,0c.1,0,.16,0,.16.08h-.16Zm1.1,0c.16,0,.35,0,.43,0S76.9,2.74,76.94,2.6Zm7.43-.19s0-.06,0-.05S84.38,2.42,84.37,2.41Zm.42,0s0-.06,0,0S84.8,2.4,84.79,2.39Zm.68,0c0-.05.06,0,.1-.05S85.51,2.35,85.47,2.37Zm.26,0c0-.07,0,0,.11,0S85.74,2.4,85.73,2.36ZM96.17,2s0-.05,0,0S96.18,2,96.17,2ZM66.65,3.14c0-.1.18,0,.26-.06h.31l.58,0c0,.18-.26,0-.36.09s-.1-.07-.27,0c0,0-.06.05,0,.05s-.09,0-.16,0A.79.79,0,0,1,66.65,3.14Zm19.24-.75s.07,0,.11,0h.15s-.06,0-.1.05Zm.37,0s0-.06,0,0S86.28,2.39,86.26,2.38ZM40.91,4.3s0,0,.05,0S40.93,4.31,40.91,4.3Zm16.38-.77c-.07.08-.22.23-.36.14A.6.6,0,0,1,57.29,3.53Zm.63,0c.13,0,.12.07.27,0S57.85,3.63,57.92,3.5Zm10.57-.44c.18.06.46-.08.68,0,0,.1-.26,0-.37.06S68.44,3.21,68.49,3.06ZM56.3,3.62c.06,0,.05.07.06.12H56.2C56.17,3.65,56.3,3.68,56.3,3.62Zm.26,0c0-.07.06,0,.06,0S56.51,3.65,56.56,3.65ZM84,2.59c0,.09-.18,0-.26.05s-.07,0,0,0S83.93,2.61,84,2.59Zm.06,0s.06,0,.1,0S84.1,2.62,84.06,2.63Zm.36,0s0,0,.06,0S84.44,2.62,84.42,2.61Zm.32,0c0-.05.1,0,.16-.05S84.8,2.59,84.74,2.6ZM56.57,3.73c.12,0,0,.21-.1.17S56.55,3.8,56.57,3.73ZM92,2.4s0-.06,0,0S92,2.41,92,2.4Zm.37,0s0-.06.05-.05S92.39,2.4,92.38,2.39Zm.1,0s.07,0,.11,0S92.52,2.37,92.48,2.38Zm.43,0s0-.06,0,0S92.92,2.38,92.91,2.37Zm.47,0s0-.05.05,0S93.39,2.37,93.38,2.35Zm.42,0s0,0,0,0S93.82,2.35,93.8,2.34Zm.1,0H94v.09h-.1Zm.8,0c.08,0,.09,0,.16,0S94.62,2.38,94.7,2.27Zm2.06,0c0,.14-.2.06-.32.05s-.18,0-.26,0,0,0-.06,0H96a1.35,1.35,0,0,1-.64,0h-.21s.1,0,.16,0,.3,0,.37,0,.1,0,.1-.09A5.27,5.27,0,0,0,96.76,2.26ZM79.43,3c-.19,0-.46.06-.58,0s.16,0,.16-.09S79.44,2.8,79.43,3Zm.1-.13c.21-.06.17.09.32.07,0,.08-.16.1-.31.1Zm11.06-.34s.06,0,.1-.05S90.63,2.48,90.59,2.49Zm4-.13s0-.06,0,0S94.61,2.37,94.59,2.36Zm2.75-.08c-.07.1-.37,0-.53.06,0,0,.11,0,.11-.09C97.11,2.32,97.17,2.24,97.34,2.28Zm-17.12.61a.06.06,0,0,1,.11,0C80.3,3,80.28,2.88,80.22,2.89Zm.22.12c-.07-.28.25-.09.36-.18s.09,0,.16,0h.21c.08,0,0,0,0,0h-.37C80.59,2.91,80.59,3,80.44,3Zm17.27-.65s0-.06.05,0S97.73,2.37,97.71,2.36ZM59,3.88s0-.06,0,0S59,3.89,59,3.88Zm26.45-1c0-.05.1,0,.1,0S85.5,2.91,85.44,2.91Zm1,0s.06,0,.1,0h.16c0,.05-.07,0-.11.05Zm1.84-.07c0-.05.09,0,.16,0S88.34,2.8,88.28,2.81Zm-4,.18s0-.05,0,0S84.35,3,84.33,3Zm.53,0s0-.05,0,0S84.87,3,84.86,3ZM85,3c0-.05.1,0,.16-.05S85,3,85,3ZM59.89,4c0-.1.23,0,.32-.06s.31-.07.26.07C60.24,4,60.12,4.08,59.89,4Zm-.68.07s.06,0,.11,0S59.25,4.07,59.21,4.08ZM60.53,4s.06,0,.1,0S60.57,4,60.53,4Zm.15,0s.1,0,.16,0S60.74,4,60.68,4ZM89.5,3c0,.16-.28.09-.32.06H88.6c0-.06.14,0,.21-.05h.27s0,0,0,0S89.39,2.92,89.5,3ZM87,3.11c0,.08-.17,0-.15.13C86.71,3.19,86.87,3.05,87,3.11Zm.11,0s0-.05.05,0S87.14,3.16,87.13,3.14Zm-26.49,1c.11,0,.14,0,.21,0l.31,0c.1,0,0,0-.1,0H60.8C60.69,4.28,60.63,4.26,60.64,4.18ZM84.5,3.24c0,.07,0,.11-.1.13s.07,0,.11,0-.27,0-.22-.08c-.19,0-.33.12-.47,0s.32,0,.31-.1C84.33,3.25,84.34,3.3,84.5,3.24Zm.27.16c0-.14-.26,0-.22-.16l.48,0c0,.08-.19.08-.21.18.27-.06.82.08.84-.16.08,0,0,.1.06.17-.35,0-.81,0-1.11,0V3.4c-.06,0,0-.06,0,0Zm1.41-.22h.11v.08h-.1Zm.22,0s.1,0,.1,0S86.41,3.26,86.4,3.21Zm-25.13,1s0,0,0,0S61.29,4.25,61.27,4.24Zm.21,0c0-.08.24-.07.16,0h-.1S61.51,4.23,61.48,4.23Zm21.08-.84s.06,0,.1,0S82.6,3.38,82.56,3.39Zm.36,0s.07,0,.11,0S83,3.37,82.92,3.38Zm.21,0s.07,0,.11,0S83.18,3.36,83.13,3.37Zm.22,0c0-.05.06,0,.1-.05h.16s-.07,0-.11,0Zm-21.18.87s.09,0,.15,0S62.23,4.24,62.17,4.24ZM67,4.05S67,4,67,4,67,4.06,67,4.05ZM68.52,4c0-.06.06,0,.06,0S68.47,4,68.52,4Zm-4.25.22s.06,0,.1,0S64.31,4.19,64.27,4.2Zm4.63,0c0,.09-.19,0-.26.05s-.27.06-.27,0a2.16,2.16,0,0,1-.58,0l-.89,0c-.53-.07-.85,0-1.26,0l-.79,0c-.09,0-.11,0-.06,0l.53,0,.47,0c.09,0,.09,0,.16,0s.62,0,.84,0a3.72,3.72,0,0,1,1,0,4.09,4.09,0,0,1,.63,0c.1,0,.22,0,.27.07S68.79,4.11,68.9,4.18ZM69,4s.06,0,.1,0S69,4,69,4Zm5.52,0c0,.17-.36,0-.52.1,0-.09.22,0,.31,0s-.35,0-.42-.11c-.22,0-.27-.06-.48,0-.07.2.35,0,.27.16s-.13,0-.31,0-.23,0-.37.06-.14,0-.26,0l-1.26,0c-.34-.06-.59,0-.85,0,.07-.1.37,0,.53-.06s.42,0,.47-.07-.2.07-.27,0l-.37,0c-.15,0-.15-.07-.31,0a.77.77,0,0,0-.37.1c-.1,0-.07-.11-.21-.08l-.63,0c-.08,0-.27.06-.26,0h.26l1.15-.05c.09,0,.14-.08.16,0,.38,0,.62-.06.89,0l.95,0c.15,0,.14.05.27,0,.58,0,1.06,0,1.47,0,0,.1.1.06.11.13S74.53,4,74.47,4Zm5.68-.27c-.05.1-.33,0-.47.06a1.17,1.17,0,0,1-.42,0c-.15,0-.14.06-.27,0L77.52,4c-.15,0-.13.06-.26,0l-.73,0c-.08-.1-.16.08-.22,0S76,4.07,76,4s-.07.11-.21.09-.37.07-.53,0l-.57,0c0-.09.23,0,.2-.13h-.21c0-.17.27-.05.42-.06a1.51,1.51,0,0,1,.37,0,5.67,5.67,0,0,0,1.15,0c.11,0,.09,0,.27,0s.64-.08,1-.08a1.4,1.4,0,0,0,.36,0h.53C79.22,3.79,79.74,3.74,80.15,3.77ZM69.27,4.2c-.08,0,0,0,0,0l1.1,0c0,.1-.22,0-.31.06s-.07,0-.21,0Zm16.15-.32s.09,0,.15,0S85.48,3.87,85.42,3.88Zm.37,0s0,0,0,0S85.8,3.88,85.79,3.86Zm.26,0c.1-.08.13,0,.26,0h.26c.09,0,.14,0,0,0l-.53,0v0C86,3.86,86,3.8,86.05,3.85Zm3-.1c-.07.18-.28,0-.42.1,0-.09.07-.08.15-.09S88.89,3.68,89,3.75Zm.26,0s.06,0,.1,0S89.3,3.74,89.26,3.75Zm2.63,0c-.08.11-.37,0-.47,0a.5.5,0,0,0-.31.09.45.45,0,0,0-.27,0c-.19.09-.33,0-.47.1s-.11,0-.11-.12a.17.17,0,0,1-.21,0c0-.09.22,0,.31,0h.37c.06,0,.1,0,.11-.05s.25,0,.26.08A1.76,1.76,0,0,1,91.89,3.7Zm-26.13,1s.07,0,.11,0h.36c0,.06-.13,0-.2,0Zm.74,0c.07-.1.36,0,.52-.06s.11.08.22.07.11,0,.1,0l-.42,0C66.76,4.71,66.73,4.6,66.5,4.65ZM85.89,3.9s0,0,0,0S85.91,3.91,85.89,3.9Zm2.26-.08s.14,0,.21,0S88.23,3.88,88.15,3.82Zm1.43,0s.09,0,.15,0S89.64,3.77,89.58,3.78ZM95,3.57h.1C95.07,3.68,94.66,3.56,95,3.57ZM67.61,4.69s0-.05,0,0S67.62,4.7,67.61,4.69Zm.2-.05h.11C67.93,4.75,67.53,4.64,67.81,4.64Zm.22,0s.1,0,.1,0S68.08,4.67,68,4.67Zm.2,0,.48,0C68.77,4.79,68.18,4.81,68.23,4.62Zm.53,0c.61,0,1,0,1.58,0-.11.18-.37.12-.63.11a2.26,2.26,0,0,1-.26,0,1.68,1.68,0,0,0-.53,0C68.81,4.73,68.75,4.69,68.76,4.6Zm3,0c0,.05-.12.05-.1.13s0-.05-.06-.08a.66.66,0,0,1-.57.07c-.09.07-.31,0-.48.06a.34.34,0,0,0-.16-.08c0-.06.16,0,.16-.09s.3-.06.31,0,.29-.11.32,0c0-.08.25,0,.26-.1S71.59,4.59,71.76,4.56ZM2.15,7.78s.06,0,.1,0S2.19,7.76,2.15,7.78ZM71.81,4.56l1.16,0c.17,0-.14.06-.21,0s0,.17-.21.14c0-.07,0-.08,0-.13a.48.48,0,0,0-.37.1c-.16,0-.1-.11-.26-.07s0,.09-.16.09Zm1.37,0c0-.09.18,0,.26,0S73.3,4.56,73.18,4.55Zm.94,0s0,0,0,0S74.14,4.52,74.12,4.51Zm2,0c0-.08.29-.09.22,0S76.22,4.5,76.12,4.52Zm1.74-.11a.17.17,0,0,1-.16.09A.16.16,0,0,1,77.86,4.41Zm-.37.1s0-.06.05,0S77.51,4.52,77.49,4.51Zm.79-.08h.1C78.4,4.55,78,4.43,78.28,4.43ZM96.43,3.9c-.08.23-.66.08-.89.2,0-.1-.19,0-.26,0H95c-.15,0-.13.06-.26,0a4.86,4.86,0,0,0-1,.07c0-.05-.16-.05-.16,0a1.5,1.5,0,0,0-.32-.08c-.39,0-.51.09-.74,0,0-.1.3,0,.42-.06h.42c.15,0,.14-.07.27,0a2.9,2.9,0,0,0,.52,0,3.91,3.91,0,0,0,.79,0H95V4S95,4,95,4s.1-.05.16-.05a4.31,4.31,0,0,0,.74,0A1.09,1.09,0,0,1,96.43,3.9Zm.11,0c0-.06,0,0,.11,0S96.54,4,96.54,3.94Zm.68,0c0,.06-.09.07-.1.13S97,3.91,96.8,4,97.11,3.94,97.22,3.92Zm-9,.32s.06,0,.11,0S88.13,4.33,88.27,4.24Zm.37,0a0,0,0,1,1,.06,0C88.69,4.32,88.65,4.29,88.64,4.27Zm.21,0H89V4.3h-.1Zm.27,0c0-.09.29,0,.42,0,0,.15-.18,0-.26,0S89.19,4.31,89.12,4.25Zm.58,0s0-.06,0,0S89.71,4.25,89.7,4.24Zm.15,0c.06-.1.34,0,.48-.06s.06,0,.15,0,.14,0,.22,0c.26,0,.43-.08.73-.06-.09.14-.39.09-.63.1l-.73,0C90,4.27,90,4.22,89.85,4.23ZM88,4.33s0,0,.05,0S88,4.34,88,4.33Zm3.9-.12s.09,0,.15,0h.16s-.09,0-.16,0Zm-5,.2s.1,0,.16,0h.15s-.09,0-.15,0ZM97,4.1c0,.12-.12.08-.21.09h-.27c-.11,0-.14,0-.21,0l-.52.1c0,.1.24,0,.16.12l-.47.09a6.87,6.87,0,0,0-.9,0c-.06-.18.33-.15.42-.1s.38-.06.42,0,.13-.12.32-.09c0-.13-.25,0-.32-.12s.27,0,.31,0,.3,0,.32-.09A4.87,4.87,0,0,0,97,4.1ZM86,4.49s.06,0,.1,0h.42c0,.09-.18,0-.26.06Zm.58,0s.06,0,.1,0S86.64,4.45,86.6,4.46Zm.15,0s0-.06.06,0S86.77,4.47,86.75,4.46Zm3.16,0a4.61,4.61,0,0,1,.64,0c.09,0,.17-.13.21,0a.13.13,0,0,0,.1-.13h.42c-.16.1,0,0,0,.17a.61.61,0,0,1-.36,0c-.1,0-.32,0-.32,0a.5.5,0,0,0-.32,0s0,0,0,0l-.52,0h-.27s-.06,0,0,0h.16c.1,0,.11,0,.21,0h.1c0-.05.08,0,0,0Zm2.16,0c-.26-.06-.64.16-.63-.06.07,0,.13,0,.16,0a.46.46,0,0,1,.26,0C92,4.34,92.12,4.28,92.07,4.41Zm3.21-.18s0-.06,0-.05S95.3,4.24,95.28,4.23Zm-8.68.32s-.06,0-.1,0-.43.16-.43,0A1.25,1.25,0,0,1,86.6,4.55Zm7.74-.13a.61.61,0,0,1-.48,0C93.88,4.25,94.27,4.38,94.34,4.42Zm-23.65,1s0-.06,0,0S70.7,5.46,70.69,5.45Zm25-.86s0,0,.06,0S95.73,4.6,95.71,4.59Zm.16,0s.1,0,.16,0S95.93,4.58,95.87,4.59Zm.37,0h.1C96.36,4.65,96,4.53,96.24,4.54Zm7,.29a2.86,2.86,0,0,0,.58,0c0,.06-.16,0-.16.09S103.18,5,103.21,4.83Zm-.94.65s0-.06.06-.05S102.29,5.49,102.27,5.48Zm.43,0s.06,0,.1,0S102.74,5.46,102.7,5.47Zm.42,0s.09,0,.16,0S103.18,5.45,103.12,5.46Zm-.26.43H103C103,6,102.57,5.88,102.86,5.89Zm2.07.75s0,0,0,0S104.94,6.65,104.93,6.64Zm-.14,1.3s.07,0,.11,0S104.83,7.93,104.79,7.94Zm.53,0c0,.17-.37,0-.53.09s.23,0,.32-.05A.32.32,0,0,1,105.32,8Zm.05.16s.07,0,.11,0S105.41,8.13,105.37,8.14Zm0,.84c0-.07.29-.08.21,0S105.48,9,105.39,9Zm.36.12c.08.11-.32,0-.26,0s-.18.08-.31,0,.16,0,.21,0v0A.59.59,0,0,1,105.75,9.1Zm-.93.61c0,.14-.3.07-.47.09C104.37,9.66,104.65,9.73,104.82,9.71Zm-2.43,1.39s0-.06,0,0S102.4,11.11,102.39,11.1Zm-.52.05c.15-.16.18.12,0,0Zm-.16.13c-.07.06-.22.16-.31.09C101.48,11.31,101.62,11.21,101.71,11.28Zm.06,0c0-.05,0,0,0,0S101.77,11.34,101.77,11.32Zm-.58,0s0,0,.06,0S101.21,11.38,101.19,11.37Zm-.93.44s.07,0,.11,0S100.3,11.8,100.26,11.81Zm.06.08s.06,0,.1,0S100.36,11.88,100.32,11.89Zm-1.07,1s0,0,0,0S99.26,12.94,99.25,12.93Zm-.06,0a.3.3,0,0,1-.26.09A.31.31,0,0,1,99.19,12.93Zm5.63.05a.3.3,0,0,1-.26.09C104.6,13,104.69,13,104.82,13Zm.05,0s0-.06,0,0S104.89,13,104.87,13Zm-4.19,1s.07,0,.11,0S100.72,14,100.68,14ZM7.27,18s.07,0,.11,0h.15s-.06,0-.1.05Zm88.89-3.16a.23.23,0,0,0,.16,0c.06,0,.15,0,.15,0s.08.05.16,0,.26,0,.31-.09-.06.14-.15.13-.3,0-.36.05l-.58,0s0,.05,0,0,0-.06,0,0h0C95.86,14.82,96.07,14.89,96.16,14.86Zm-.78.06c0,.05-.07,0,0,0S95.46,14.9,95.38,14.92Zm.16,0s0-.05,0,0S95.56,15,95.54,15Zm-1.82.1s.06,0,.1-.05h.1C93.91,15.07,93.79,15.05,93.72,15.06Zm.36,0s.1,0,.16,0S94.14,15,94.08,15Zm5.79-.11s.06,0,.1,0S99.91,14.92,99.87,14.93Zm-5.47.27c.09-.14.44-.08.68-.1s.19.07,0,0h-.37C94.59,15.15,94.56,15.23,94.4,15.2ZM12.14,18.71s.07,0,.11-.05S12.18,18.7,12.14,18.71Zm82.1-3.5s.07,0,.11-.05S94.28,15.2,94.24,15.21ZM31.55,17.87s0-.05.05,0S31.56,17.88,31.55,17.87ZM87.82,15.5s0-.05.05,0S87.83,15.51,87.82,15.5Zm.1,0s.07,0,.11-.05S88,15.49,87.92,15.5ZM32,17.9s0-.06.05,0S32,17.91,32,17.9Zm.73,0s.06,0,.11-.05H33s-.06,0-.1,0Zm-13.78.74s0-.06,0-.05S18.93,18.61,18.92,18.6Zm15.83-.75s0-.06,0,0S34.77,17.86,34.75,17.85Zm6.76-.31c.16-.16.19.12,0,0ZM16.09,18.77s.06,0,.1,0h.11C16.28,18.78,16.17,18.76,16.09,18.77Zm3.2-.15c.07-.13.23,0,.36,0C19.58,18.73,19.42,18.58,19.29,18.62Zm23.48-1.1s.07,0,.11,0S42.81,17.51,42.77,17.52Zm-26.1,1.27s.06,0,.1-.05S16.71,18.78,16.67,18.79Zm4.09-.11a5.46,5.46,0,0,0-.63,0c0-.09.13-.1.21-.05S20.78,18.51,20.76,18.68Zm41.3-2s.07,0,.11,0S62.1,16.71,62.06,16.72Zm1.21-.06s.09,0,.15,0S63.33,16.66,63.27,16.66ZM17.09,18.81s.06,0,.1,0S17.13,18.8,17.09,18.81Zm.21,0s.06,0,.1-.05S17.34,18.79,17.3,18.8Zm.16,0c0-.05.09,0,.15-.05S17.52,18.78,17.46,18.79Zm44.66-2s0-.06.05-.05S62.13,16.81,62.12,16.8Zm2.67-.12s0-.05,0,0S64.81,16.7,64.79,16.68Zm-1.41.11c0-.05.09,0,.15-.05S63.44,16.78,63.38,16.79ZM86,15.9s.06,0,.1-.05S86,15.89,86,15.9Zm-.26,0s0,0,.05,0S85.75,16,85.74,16Zm-4.24.2c0-.06.1,0,.11,0S81.52,16.2,81.5,16.15Zm-12.35.52s0-.05,0,0S69.16,16.68,69.15,16.67Zm6-.24s0-.05,0,0S75.18,16.44,75.17,16.43ZM86.9,16.2s0-.05,0,0S86.91,16.21,86.9,16.2Z"/><path class="cls-1" d="M57.72,1.29c-.06.16-.49.07-.73.11s-.47,0-.63.11h-.21c0-.05,0,0,0,0s-.31,0-.31.06.22,0,.32,0,.15-.08.31-.06.16.06.27.08a.27.27,0,0,1,.21.07,1.19,1.19,0,0,1,.37-.06c.14,0,.13.06.26,0,.46-.07,1.31-.1,2-.12.07,0,.26-.06.26,0,.08-.07.41-.11.37.06a27.52,27.52,0,0,0-2.78.12c-.12,0-.2,0-.22-.07-.18.1-.25.05-.52.06s-.14.12-.26.14a16.54,16.54,0,0,1-1.84,0,2.64,2.64,0,0,1-.47,0c-.2,0-.2.1-.37.1s-.13,0-.21,0a.4.4,0,0,0-.16-.08c.16-.16.45,0,.79-.08a4.35,4.35,0,0,1,.89,0c0-.17-.25-.05-.37-.07s-.23,0-.37,0,.3,0,.31-.1a.27.27,0,0,0-.22-.15c0-.1.23,0,.32-.06s.13-.06.26-.05c.57.12,1.22-.18,1.68,0A6.2,6.2,0,0,1,57.72,1.29Z"/><path class="cls-1" d="M58.09,1.23h.21c.06.12-.11.08-.21.09Z"/><path class="cls-1" d="M60.14,1.14a.41.41,0,0,1,.26,0C60.42,1.24,60.06,1.27,60.14,1.14Z"/><path class="cls-1" d="M62.19,1.05c.1,0,.14.09.27.08C62.43,1.21,62.09,1.22,62.19,1.05Z"/><path class="cls-1" d="M58.46,1.3s0-.06,0-.05S58.48,1.31,58.46,1.3Z"/><path class="cls-1" d="M60.62,1.21c0-.05.06,0,.1-.05S60.66,1.19,60.62,1.21Z"/><path class="cls-1" d="M60.93,1.19s.06,0,.1,0S61,1.18,60.93,1.19Z"/><path class="cls-1" d="M53.84,1.5h.1C54,1.61,53.55,1.5,53.84,1.5Z"/><path class="cls-1" d="M54.26,1.52s0-.05.05,0S54.27,1.53,54.26,1.52Z"/><path class="cls-1" d="M63.14,1.14s.1,0,.16,0S63.2,1.13,63.14,1.14Z"/><path class="cls-1" d="M63.77,1.11c0-.08.24-.07.16,0A.34.34,0,0,0,63.77,1.11Z"/><path class="cls-1" d="M64.19,1.14c0-.06.13,0,.21,0S64.27,1.19,64.19,1.14Z"/><path class="cls-1" d="M66.24,1.05c.07.05-.43.11-.26,0S66.05,1.05,66.24,1.05Z"/><path class="cls-1" d="M67.19,1.1c-.11,0-.36.08-.32-.07S67.2,1,67.19,1.1Z"/><path class="cls-1" d="M64.77,1.16s0-.06,0,0S64.79,1.17,64.77,1.16Z"/><path class="cls-1" d="M66.35,1.09s.06,0,.1-.05S66.39,1.08,66.35,1.09Z"/><path class="cls-1" d="M67.56,1.12c-.11,0-.14,0-.21,0S67.57,1,67.56,1.12Z"/><path class="cls-1" d="M50.64,1.81c0-.05.09,0,.16-.05S50.7,1.8,50.64,1.81Z"/><path class="cls-1" d="M50.9,1.8c0-.1.26,0,.37-.06A.38.38,0,0,1,50.9,1.8Z"/><path class="cls-1" d="M52.22,1.78c0-.05.09,0,.15-.05S52.28,1.77,52.22,1.78Z"/><path class="cls-1" d="M52.59,1.76c0-.05.09,0,.15-.05S52.65,1.75,52.59,1.76Z"/><path class="cls-1" d="M52.85,1.75s0-.05,0,0S52.86,1.76,52.85,1.75Z"/><path class="cls-1" d="M53.06,1.74c0-.05.09,0,.15-.05S53.12,1.73,53.06,1.74Z"/><path class="cls-1" d="M54,1.66c0,.12-.33.26-.31.05C53.85,1.74,53.84,1.63,54,1.66Z"/><path class="cls-1" d="M69.77,1c0-.07.29-.08.21,0S69.87,1,69.77,1Z"/><path class="cls-1" d="M70.51,1h.1c0,.09-.07.08-.15.09S70.51,1,70.51,1Z"/><path class="cls-1" d="M78.45.69s0,0,0,0S78.47.7,78.45.69Z"/><path class="cls-1" d="M78.82.68s.06,0,.1-.05S78.86.67,78.82.68Z"/><path class="cls-1" d="M71.61,1s0-.05,0,0S71.63,1,71.61,1Z"/><path class="cls-1" d="M72.82,1c.09-.1.4,0,.58-.06s.43-.05.53,0c-.05.16-.18,0-.37.06L73,1C72.94,1,72.92.94,72.82,1Z"/><path class="cls-1" d="M76.87.8c.2-.2.42.18.59,0,.09,0,0,.1,0,.09H77.2c0-.05-.1,0-.16,0S77,.79,76.87.8Z"/><path class="cls-1" d="M77.3.78c0-.05.09,0,.15-.05S77.36.77,77.3.78Z"/><path class="cls-1" d="M86,.46s.06,0,.1-.05h.16s-.07,0-.11,0Z"/><path class="cls-1" d="M74,1c0-.08.29-.09.21,0S74.13.93,74,1Z"/><path class="cls-1" d="M75.56.89c.09-.1.4,0,.58-.07C76.12,1,75.67.94,75.56.89Z"/><path class="cls-1" d="M76.25.86s.09,0,.15,0S76.31.85,76.25.86Z"/><path class="cls-1" d="M85.19.53s0-.06.06-.05S85.21.54,85.19.53Z"/><path class="cls-1" d="M85.67.51s0,0,0,0S85.68.52,85.67.51Z"/><path class="cls-1" d="M86.72.47s0,0,0,0S86.74.48,86.72.47Z"/><path class="cls-1" d="M61.21,1.6c-.11,0-.14,0-.21,0S61.25,1.45,61.21,1.6Z"/><path class="cls-1" d="M78.72.81c.07-.09.45-.08.42.06C79.06.8,78.8.88,78.72.81Z"/><path class="cls-1" d="M87.3.49s0,0,0,0S87.32.51,87.3.49Z"/><path class="cls-1" d="M89.31.43s.06,0,.1,0h.32c0,.06-.13,0-.21,0Z"/><path class="cls-1" d="M61.42,1.55c0-.13.17,0,.26,0S61.45,1.57,61.42,1.55Z"/><path class="cls-1" d="M77.88.88s0-.05.05,0S77.89.89,77.88.88Z"/><path class="cls-1" d="M79.88.8c0-.06.05,0,.05,0S79.82.81,79.88.8Z"/><path class="cls-1" d="M85.93.59s.06,0,.06,0S85.93.61,85.93.59Z"/><path class="cls-1" d="M93.69.33s.06,0,.1,0S93.73.32,93.69.33Z"/><path class="cls-1" d="M94.11.32s.06,0,.1,0S94.15.31,94.11.32Z"/><path class="cls-1" d="M94.43.31s.06,0,.1,0S94.47.3,94.43.31Z"/><path class="cls-1" d="M64.1,1.48s0-.06.05-.05S64.12,1.49,64.1,1.48Z"/><path class="cls-1" d="M64.68,1.54a2.91,2.91,0,0,0-.47,0c0-.05.13,0,.21-.05S64.72,1.39,64.68,1.54Z"/><path class="cls-1" d="M79.46.86s.05,0,.05,0S79.46.89,79.46.86Z"/><path class="cls-1" d="M80.14.84s.07,0,.11,0S80.18.83,80.14.84Z"/><path class="cls-1" d="M56.64,1.84s.06,0,.11-.05S56.68,1.83,56.64,1.84Z"/><path class="cls-1" d="M81.15.84s0,0,0,0S81.16.85,81.15.84Z"/><path class="cls-1" d="M81.36.84c0-.07,0,0,.1,0S81.36.88,81.36.84Z"/><path class="cls-1" d="M82.15.85c-.28.05-.07-.13,0,0Z"/><path class="cls-1" d="M82.15.85c.14,0,.1-.08.21,0S82.11.92,82.15.85Z"/><path class="cls-1" d="M83.47.84c-.16.07-.23,0-.48,0C83,.73,83.51.81,83.47.84Z"/><path class="cls-1" d="M82.73.87c0-.05.09,0,.15-.05S82.79.86,82.73.87Z"/><path class="cls-1" d="M83.84.87c-.22-.14.57-.1.68-.07h.26s-.13,0-.21,0a2.58,2.58,0,0,1-.74,0Z"/><path class="cls-1" d="M68.26,1.47s.07,0,.11,0S68.3,1.46,68.26,1.47Z"/><path class="cls-1" d="M68.47,1.47c0-.13.12,0,.21,0S68.51,1.48,68.47,1.47Z"/><path class="cls-1" d="M69.73,1.37c.1,0,.12,0,.21,0S69.65,1.49,69.73,1.37Z"/><path class="cls-1" d="M83.47.84c.06,0,0,.06,0,0Z"/><path class="cls-1" d="M86.15.79s-.07,0-.1,0l-.21,0h-.32c-.17-.05.19-.05.26-.05A1,1,0,0,1,86.15.79Z"/><path class="cls-1" d="M86.63.77c0,.1-.3,0-.42.06C86.21.7,86.55.72,86.63.77Z"/><path class="cls-1" d="M88.42.75,88,.77c-.2-.09.29,0,.26-.09S88.47.62,88.42.75Z"/><path class="cls-1" d="M88.58.75c0-.07.22-.06.31-.1s.09,0,.16,0l.58,0c0,.06-.13,0-.21,0s-.11.05-.21.05S88.77.77,88.58.75Z"/><path class="cls-1" d="M90.27.69c0-.1.19-.1.26,0h.32c.13,0,.09.05,0,0Z"/><path class="cls-1" d="M92.22.59s0-.06,0,0S92.23.6,92.22.59Z"/><path class="cls-1" d="M93.27.55c0,.1-.26,0-.37.06C93,.45,93.11.57,93.27.55Z"/><path class="cls-1" d="M55.86,2.08c0,.09-.22,0-.31.06h-.32c-.27,0-.31.06-.52,0l-.63,0c0-.09.18,0,.26-.05l.31,0A2.74,2.74,0,0,1,55.28,2C55.51,2,55.77,2,55.86,2.08Z"/><path class="cls-1" d="M68.89,1.49s.07,0,.11-.05S68.94,1.48,68.89,1.49Z"/><path class="cls-1" d="M90.06.7s.06,0,.1,0S90.1.69,90.06.7Z"/><path class="cls-1" d="M91.06.67s.06,0,.1-.05h.16s-.06,0-.1,0Z"/><path class="cls-1" d="M71.1,1.44s.07,0,.11-.05S71.15,1.43,71.1,1.44Z"/><path class="cls-1" d="M72.16,1.36c.18.06-.07.12-.11.08S72.18,1.39,72.16,1.36Z"/><path class="cls-1" d="M72.42,1.39c0-.1.23,0,.26,0S72.55,1.33,72.42,1.39Z"/><path class="cls-1" d="M74.79,1.3c-.13.14-.26-.11,0,0Z"/><path class="cls-1" d="M93.38.63s0-.05.05,0S93.39.64,93.38.63Z"/><path class="cls-1" d="M52.87,2.25s.06,0,.1,0h.16s-.06,0-.1,0Z"/><path class="cls-1" d="M70.32,1.51s0-.05.05,0S70.33,1.53,70.32,1.51Z"/><path class="cls-1" d="M75.79,1.3c0-.08.09,0,.16,0S75.85,1.3,75.79,1.3Z"/><path class="cls-1" d="M76,1.25a.41.41,0,0,1,.26,0C76.27,1.35,75.92,1.38,76,1.25Z"/><path class="cls-1" d="M75.37,1.36s0-.06,0-.05S75.38,1.37,75.37,1.36Z"/><path class="cls-1" d="M76.42,1.27h.1C76.54,1.39,76.13,1.27,76.42,1.27Z"/><path class="cls-1" d="M77.16,1.29c0-.05.09,0,.15-.05S77.22,1.28,77.16,1.29Z"/><path class="cls-1" d="M77.84,1.26s.06,0,.1-.05S77.88,1.25,77.84,1.26Z"/><path class="cls-1" d="M78.52,1.23c0,.1-.33,0-.47.06C78.08,1.14,78.4,1.21,78.52,1.23Z"/><path class="cls-1" d="M78.63,1.23c0-.07.05,0,.05,0S78.57,1.23,78.63,1.23Z"/><path class="cls-1" d="M79.05,1.21h.11C79.17,1.33,78.76,1.21,79.05,1.21Z"/><path class="cls-1" d="M79.26,1.25s.07,0,.11-.05S79.3,1.24,79.26,1.25Z"/><path class="cls-1" d="M79.84,1.23c0,.1-.2,0-.26,0C79.31,1.19,79.65,1.16,79.84,1.23Z"/><path class="cls-1" d="M85.69,1s0-.05,0,0S85.7,1,85.69,1Z"/><path class="cls-1" d="M80,1.26s.06,0,.1,0S80,1.25,80,1.26Z"/><path class="cls-1" d="M81.06,1.27c-.11.12-.28-.05-.48,0C80.65,1.15,81,1.17,81.06,1.27Z"/><path class="cls-1" d="M82.22,1.27c-.28.05-.07-.13,0,0Z"/><path class="cls-1" d="M82.22,1.27a.21.21,0,0,1,.26,0,.34.34,0,0,1,.26,0c-.07.1-.36,0-.52.06Z"/><path class="cls-1" d="M83.8,1.21a.17.17,0,0,1-.16.09C83.61,1.21,83.71,1.22,83.8,1.21Z"/><path class="cls-1" d="M84.74,1.22c0-.08.24-.07.16,0h-.1S84.78,1.22,84.74,1.22Z"/><path class="cls-1" d="M86,1.13c.14,0,0,.16-.1.13S86,1.2,86,1.13Z"/><path class="cls-1" d="M87,1.18c0,.09-.26,0-.37.05s-.09,0-.11,0-.11.08-.26.05c0,0-.06,0-.11,0s.09-.11.11-.05c.22,0,.2-.06.37,0A.46.46,0,0,1,87,1.18Z"/><path class="cls-1" d="M97.46.77c0,.11-.25,0-.21.09-.31,0-.45.07-.74.06-.13,0-.16.07-.26.09h-.37c-.09,0,0,0,.05,0h.16A4.53,4.53,0,0,1,97.46.77Z"/><path class="cls-1" d="M84.27,1.28c0-.05.06,0,.11-.05S84.31,1.26,84.27,1.28Z"/><path class="cls-1" d="M85.06,1.25s.06,0,.11-.05S85.1,1.24,85.06,1.25Z"/><path class="cls-1" d="M85.75,1.22s0-.05,0,0S85.76,1.23,85.75,1.22Z"/><path class="cls-1" d="M90.54,1.06c0,.09-.18,0-.26.05A.2.2,0,0,1,90.54,1.06Z"/><path class="cls-1" d="M93.55,1c0-.06,0,0,.1,0S93.55,1,93.55,1Z"/><path class="cls-1" d="M46.32,2.88s0-.06,0,0S46.33,2.89,46.32,2.88Z"/><path class="cls-1" d="M46.48,2.87s.06,0,.1,0S46.52,2.86,46.48,2.87Z"/><path class="cls-1" d="M92,1.06S92,1,92,1,92,1.07,92,1.06Z"/><path class="cls-1" d="M91,1.13s0-.06,0,0S91,1.14,91,1.13Z"/><path class="cls-1" d="M56,2.54s.06,0,.1,0S56,2.53,56,2.54Z"/><path class="cls-1" d="M92.23,1.13s.1,0,.16,0S92.3,1.12,92.23,1.13Z"/><path class="cls-1" d="M92.55,1.12s.06,0,.1,0H93c0,.06-.13,0-.21.05Z"/><path class="cls-1" d="M94.66,1.06c0-.05.06,0,.11-.05h.36c0,.06-.13,0-.21.05Z"/><path class="cls-1" d="M95.45,1c0-.05.1,0,.16,0h.16c0,.05-.1,0-.16.05Z"/><path class="cls-1" d="M97.67.93c-.24.26-.9.2-1.36.29.07-.08.27-.07.36-.13A6.76,6.76,0,0,0,97.67.93Z"/><path class="cls-1" d="M49.21,2.84c0,.13-.29.05-.36.14s-.11,0-.21,0l-.37,0h-.21c-.06,0,0,0,0,0A5.77,5.77,0,0,1,49.21,2.84Z"/><path class="cls-1" d="M41.23,3.24c.2.12-.28.08-.42.1C40.86,3.17,41.18,3.32,41.23,3.24Z"/><path class="cls-1" d="M49.43,2.91s.06,0,.1-.05S49.47,2.9,49.43,2.91Z"/><path class="cls-1" d="M49.85,2.89s0-.05,0,0S49.86,2.9,49.85,2.89Z"/><path class="cls-1" d="M50,2.88s.11-.08.16,0S50,3,50,2.88Z"/><path class="cls-1" d="M51.84,2.84s0,0,0,0S51.86,2.86,51.84,2.84Z"/><path class="cls-1" d="M53.68,2.81s0-.06,0-.05S53.7,2.82,53.68,2.81Z"/><path class="cls-1" d="M71.71,2.09s0-.06.05,0S71.72,2.1,71.71,2.09Z"/><path class="cls-1" d="M73.55,2c0-.07.06,0,.06,0S73.5,2,73.55,2Z"/><polygon class="cls-1" points="85.76 1.51 85.86 1.51 85.86 1.6 85.76 1.6 85.76 1.51"/><path class="cls-1" d="M90.08,1.45c0,.08-.2.05-.26.05a3.86,3.86,0,0,1-.9,0c0,.13-.11,0-.21,0h-.32l-.58,0c-.18,0-.2-.06-.37,0-.53.07-1,0-1.52.09.1-.15.4-.09.68-.11s.62-.05,1,0c0,0,.09,0,.1,0s.18-.06.42,0l.06,0s.05,0,.1,0,.23,0,.32,0l.9,0c0,.06.06,0,.15,0s.1,0,.16,0A.5.5,0,0,1,90.08,1.45Z"/><path class="cls-1" d="M97.73,1.14c0,.09-.13.09-.26.09S97.6,1.14,97.73,1.14Z"/><polygon class="cls-1" points="74.44 1.98 74.55 1.98 74.55 2.06 74.45 2.06 74.44 1.98"/><path class="cls-1" d="M77,1.88h.1C77.09,2,76.68,1.88,77,1.88Z"/><path class="cls-1" d="M83,1.7c0-.05.09,0,.16-.05h.15l.37,0c0,.05-.09,0-.15.05H83Z"/><path class="cls-1" d="M83.76,1.67s.09,0,.16,0h.15l.37,0,.69,0c0,.09-.23,0-.32,0l-.37,0Z"/><path class="cls-1" d="M85.39,1.61s.06,0,.1,0S85.43,1.6,85.39,1.61Z"/><path class="cls-1" d="M85.6,1.6s0-.05.05,0S85.62,1.62,85.6,1.6Z"/><path class="cls-1" d="M75,2s.06,0,.1,0S75.07,2,75,2Z"/><path class="cls-1" d="M75.71,2s0-.06.05-.05S75.73,2,75.71,2Z"/><path class="cls-1" d="M76,2c0-.05.09,0,.15,0S76.09,2,76,2Z"/><path class="cls-1" d="M76.39,2s0-.06,0,0S76.41,2,76.39,2Z"/><path class="cls-1" d="M95.57,1.33h.1C95.69,1.44,95.28,1.32,95.57,1.33Z"/><path class="cls-1" d="M96.26,1.39c0-.1.29,0,.42,0C96.61,1.45,96.4,1.43,96.26,1.39Z"/><path class="cls-1" d="M96.05,1.44c0-.06.12,0,.21-.05S96.13,1.43,96.05,1.44Z"/><path class="cls-1" d="M78.5,2.07s0,0,0,0S78.52,2.09,78.5,2.07Z"/><path class="cls-1" d="M96.05,1.44c-.11.08-.41.05-.53.14a4.64,4.64,0,0,0-1,.11c-.18,0-.21-.06-.37,0-.36.06-.66,0-1.06.08,0-.16.25-.07.37-.1l.53,0c.15,0,.13-.06.26-.05l1.16,0A4.57,4.57,0,0,1,96.05,1.44Z"/><path class="cls-1" d="M92.78,1.7c-.06,0,0-.06,0,0Z"/><path class="cls-1" d="M92.57,1.71h.1C92.69,1.82,92.28,1.71,92.57,1.71Z"/><path class="cls-1" d="M92.78,1.7c.06,0,0,.06,0,0Z"/><polygon class="cls-1" points="86.14 2 86.25 2 86.25 2.08 86.14 2.09 86.14 2"/><path class="cls-1" d="M87.3,2a.76.76,0,0,1-.36.1C86.89,1.9,87.18,2,87.3,2Z"/><path class="cls-1" d="M97.27,1.74c0-.06.13,0,.21-.05a3.23,3.23,0,0,1,.58-.06C97.93,1.76,97.56,1.72,97.27,1.74Z"/><path class="cls-1" d="M84.72,2.14s0-.05.06,0S84.74,2.15,84.72,2.14Z"/><path class="cls-1" d="M85.15,2.12s.06,0,.1,0S85.19,2.11,85.15,2.12Z"/><path class="cls-1" d="M85.72,2.1s0-.05,0,0S85.74,2.12,85.72,2.1Z"/><path class="cls-1" d="M86,2.09s0,0,0,0S86.06,2.1,86,2.09Z"/><path class="cls-1" d="M86.67,2.07s0-.06,0,0S86.69,2.08,86.67,2.07Z"/><path class="cls-1" d="M96.58,1.72h.21c.06.13-.11.08-.2.09Z"/><path class="cls-1" d="M97,1.75s0-.05.06,0Z"/><path class="cls-1" d="M96.37,1.76h.11C96.49,1.88,96.08,1.76,96.37,1.76Z"/><path class="cls-1" d="M97,1.75c0,.12-.22,0,0,0Z"/><path class="cls-1" d="M97,1.75h.26C97.3,1.81,97,1.82,97,1.75Z"/><path class="cls-1" d="M92.37,2.05c0,.09-.26,0-.37.05s-.12,0-.32,0-.15,0-.16,0h.64C92.3,2.06,92.26,2,92.37,2.05Z"/><path class="cls-1" d="M60.55,3.31c0-.05.09,0,.15-.05S60.61,3.3,60.55,3.31Z"/><path class="cls-1" d="M97.75,1.94c0-.1.23,0,.32-.05S97.82,2,97.75,1.94Z"/><path class="cls-1" d="M64.49,3.18c0-.05.07,0,0,0Z"/><path class="cls-1" d="M61,3.54a.78.78,0,0,0-.52,0C60.5,3.34,61.07,3.22,61,3.54Z"/><path class="cls-1" d="M61,3.37s0-.05,0,0S61,3.38,61,3.37Z"/><path class="cls-1" d="M106.51,1.8c0,.06-.13.09-.27.08A.31.31,0,0,1,106.51,1.8Z"/><path class="cls-1" d="M48.73,4s0-.06.06-.05S48.75,4,48.73,4Z"/><path class="cls-1" d="M103.58,1.93c0-.05.1,0,.16-.05h.16c0,.05-.1,0-.16.05Z"/><path class="cls-1" d="M105.17,1.9c0,.16-.25.05-.37.09s.19-.05.27-.05-.3,0-.43,0,.14,0,.21,0S105.17,1.8,105.17,1.9Z"/><path class="cls-1" d="M105.81,1.89s.07,0,.11,0S105.85,1.88,105.81,1.89Z"/><path class="cls-1" d="M102.94,1.94c.06.13-.11.08-.21.09A.28.28,0,0,1,102.94,1.94Z"/><path class="cls-1" d="M61.66,3.43c.1,0,.16,0,.16.07h-.16Z"/><path class="cls-1" d="M70,3.08c.06.12-.11.08-.2.09S69.89,3.07,70,3.08Z"/><path class="cls-1" d="M103.58,2s.07,0,.11,0S103.62,2,103.58,2Z"/><path class="cls-1" d="M100,2.09c-.09.12-.36.11-.58.14s.14,0,.21,0-.13,0-.21,0,.14-.05.21,0Z"/><path class="cls-1" d="M63.24,3.49c0-.1.22,0,.31-.06h.32a.87.87,0,0,0,.37,0c0,.08-.16.1-.31.1s-.27,0-.32-.07S63.34,3.56,63.24,3.49Z"/><path class="cls-1" d="M72.54,3.1s.06,0,.1,0S72.58,3.09,72.54,3.1Z"/><path class="cls-1" d="M100.08,2.17s0-.06.06,0S100.1,2.18,100.08,2.17Z"/><path class="cls-1" d="M100.19,2.16s0-.05,0,0S100.2,2.18,100.19,2.16Z"/><path class="cls-1" d="M100.51,2.16s0-.06,0-.05S100.52,2.17,100.51,2.16Z"/><path class="cls-1" d="M58.41,3.73s0,0,.05,0S58.42,3.75,58.41,3.73Z"/><path class="cls-1" d="M64.34,3.48s.06,0,.06,0S64.35,3.51,64.34,3.48Z"/><path class="cls-1" d="M70.07,3.25s0-.06.05,0S70.09,3.26,70.07,3.25Z"/><path class="cls-1" d="M72.81,3.14s0-.06,0-.05S72.82,3.15,72.81,3.14Z"/><path class="cls-1" d="M65,3.54c-.09-.07-.31,0-.48,0s.14-.06.21,0S65,3.4,65,3.54Z"/><path class="cls-1" d="M65.4,3.48c0-.1.32,0,.26.07C65.59,3.51,65.47,3.52,65.4,3.48Z"/><path class="cls-1" d="M66.35,3.53H66c0-.1-.36,0-.32-.11.29-.05.39.1.58,0C66.29,3.49,66.33,3.49,66.35,3.53Z"/><path class="cls-1" d="M76.49,3h.1C76.61,3.11,76.2,3,76.49,3Z"/><path class="cls-1" d="M63.62,3.68l-.48,0C63.19,3.64,63.6,3.5,63.62,3.68Z"/><path class="cls-1" d="M101.36,2.39a3,3,0,0,1-1,0c0-.16.25,0,.37,0h.58Z"/><path class="cls-1" d="M106.94,2.21s0,0,.06,0S107,2.23,106.94,2.21Z"/><rect class="cls-1" x="68.92" y="3.42" width="0.11" height="0.08" transform="translate(-0.08 2.89) rotate(-2.4)"/><path class="cls-1" d="M69.76,3.43s.07,0,.11-.05h.37s-.13,0-.21,0Z"/><path class="cls-1" d="M70.34,3.4c0-.09.28,0,.32,0s.15-.08.31-.05c0,.1.24,0,.16.11A2.46,2.46,0,0,1,70.34,3.4Z"/><path class="cls-1" d="M73.23,3.33c-.06,0-.15,0-.15,0-.18,0-.43,0-.53.06a1.22,1.22,0,0,0-.42,0,1.06,1.06,0,0,0-.47,0c-.25,0-.29,0-.47,0-.06-.19.41-.15.52-.1s.29,0,.31,0,.07,0,.06,0c.2,0,.2.06.26,0s.14.07.21,0,.07,0,0,0C72.73,3.35,73.17,3.22,73.23,3.33Z"/><path class="cls-1" d="M68.56,3.52s.06,0,.1,0S68.6,3.51,68.56,3.52Z"/><path class="cls-1" d="M74.23,3.25a.71.71,0,0,1-.57.1C73.69,3.2,74,3.28,74.23,3.25Z"/><path class="cls-1" d="M75,3.26c-.06,0,0-.06,0,0Z"/><path class="cls-1" d="M75.92,3.22s0-.05,0,0S75.93,3.24,75.92,3.22Z"/><path class="cls-1" d="M76.07,3.18h.11v.09c-.05,0-.05,0-.05,0H76V3.22S76.07,3.2,76.07,3.18Z"/><path class="cls-1" d="M76.44,3.16h.1C76.56,3.28,76.15,3.16,76.44,3.16Z"/><path class="cls-1" d="M104.12,2.34s.06,0,.1,0S104.16,2.33,104.12,2.34Z"/><path class="cls-1" d="M104.49,2.33c0-.05.1,0,.16-.05S104.55,2.32,104.49,2.33Z"/><path class="cls-1" d="M73.23,3.33c.28-.06.07.12,0,0Z"/><path class="cls-1" d="M74.71,3.31s0-.05.05,0S74.72,3.32,74.71,3.31Z"/><path class="cls-1" d="M75,3.26c.11,0,.36-.08.32.07S75,3.33,75,3.26Z"/><path class="cls-1" d="M75.44,3.28c-.06,0,0,0,0,0Z"/><path class="cls-1" d="M75.44,3.28c.12,0,.32-.09.42,0s-.12,0-.2,0S75.46,3.32,75.44,3.28Z"/><path class="cls-1" d="M101.36,2.39c.28-.05.07.13,0,0Z"/><polygon class="cls-1" points="76.44 3.25 76.55 3.24 76.55 3.33 76.45 3.33 76.44 3.25"/><path class="cls-1" d="M77,3.22c0,.09-.2.1-.36.1C76.61,3.16,76.9,3.26,77,3.22Z"/><path class="cls-1" d="M68.4,3.65s0,0,.06,0S68.42,3.66,68.4,3.65Z"/><path class="cls-1" d="M69,3.67s.09,0,.15,0S69.1,3.66,69,3.67Z"/><path class="cls-1" d="M69.77,3.64c.08-.15.1.07.06.08S69.76,3.66,69.77,3.64Z"/><path class="cls-1" d="M70.67,3.6c0-.05.07,0,0,0Z"/><path class="cls-1" d="M91.18,2.8c0,.05-.08,0,0,0Z"/><path class="cls-1" d="M70.67,3.6s-.08,0,0,0Z"/><path class="cls-1" d="M71.51,3.61c0-.07,0,0,0,0S71.45,3.61,71.51,3.61Z"/><path class="cls-1" d="M80.08,3.27s0,0,0,0S80.09,3.28,80.08,3.27Z"/><path class="cls-1" d="M95.19,2.76s0,0,0,0S95.2,2.77,95.19,2.76Z"/><path class="cls-1" d="M72.35,3.57h.1C72.47,3.69,72.06,3.57,72.35,3.57Z"/><path class="cls-1" d="M73,3.59s.06,0,.1,0S73,3.58,73,3.59Z"/><path class="cls-1" d="M74.35,3.5h.1c0,.09-.07.08-.15.09S74.35,3.54,74.35,3.5Z"/><path class="cls-1" d="M80.87,3.29s0-.06,0,0S80.88,3.3,80.87,3.29Z"/><path class="cls-1" d="M81.18,3.28s0-.06,0,0S81.2,3.29,81.18,3.28Z"/><path class="cls-1" d="M81.71,3.26s0-.06.05,0S81.72,3.27,81.71,3.26Z"/><path class="cls-1" d="M94.88,3c0-.09.22,0,.31,0,.26,0,0,.07-.15,0S95,3.07,94.88,3Z"/><path class="cls-1" d="M95.35,3s.07,0,.11,0S95.39,3,95.35,3Z"/><path class="cls-1" d="M95.51,3s.06,0,.1,0S95.55,3,95.51,3Z"/><path class="cls-1" d="M94.88,3s-.08,0,0,0Z"/><path class="cls-1" d="M96.62,3c.22,0,.06.2-.05.09S96.62,3,96.62,3Z"/><path class="cls-1" d="M98.41,3c0,.09-.22,0-.31,0s-.35.07-.47.14a5.23,5.23,0,0,1-.9,0c.13-.15.41,0,.63-.14L98,3A.61.61,0,0,1,98.41,3Z"/><path class="cls-1" d="M99.47,3s0,0,0,0S99.49,3,99.47,3Z"/><path class="cls-1" d="M100.05,3s0-.06,0,0S100.07,3,100.05,3Z"/><path class="cls-1" d="M100.84,3c0-.07.06,0,.06,0S100.79,3,100.84,3Z"/><path class="cls-1" d="M71.73,4c.17,0,.23.06.42,0C72.13,4.06,71.69,4.12,71.73,4Z"/><path class="cls-1" d="M99.79,3.06s0-.06,0-.05S99.8,3.07,99.79,3.06Z"/><path class="cls-1" d="M100.37,3s.09,0,.16,0h.21s-.1,0-.16,0Z"/><path class="cls-1" d="M72.37,4c0-.09.23,0,.26,0S72.5,4,72.37,4Z"/><path class="cls-1" d="M73,4s.09,0,.15,0S73.06,4,73,4Z"/><path class="cls-1" d="M73.21,4s.06,0,.1,0S73.25,4,73.21,4Z"/><path class="cls-1" d="M96.63,3.23c.06,0,.09,0,.1,0a3.54,3.54,0,0,1,.58,0C97.27,3.37,96.6,3.43,96.63,3.23Z"/><path class="cls-1" d="M97.37,3.25s.06,0,.1,0S97.41,3.24,97.37,3.25Z"/><path class="cls-1" d="M105,3.2a1.79,1.79,0,0,1-.58,0,2.69,2.69,0,0,1-.74.06.55.55,0,0,0-.26,0,2.41,2.41,0,0,1-.59,0c-.16,0-.39,0-.47,0a4.29,4.29,0,0,0-1,0c-.19,0-.25-.06-.42,0-.08-.13-.26.06-.32,0s.3,0,.42-.05.26.09.37,0a3.21,3.21,0,0,0,.85-.05c.21,0,.25,0,.48,0a2.36,2.36,0,0,0,.63-.06c0,.09.19,0,.27,0H104l.53,0c.16,0,.16.07.32,0S105.09,3.07,105,3.2Z"/><path class="cls-1" d="M105.46,3.15s.09,0,.16,0S105.52,3.14,105.46,3.15Z"/><path class="cls-1" d="M98.22,3.48h.1C98.33,3.59,97.93,3.47,98.22,3.48Z"/><path class="cls-1" d="M101.34,3.73s.06,0,.1,0S101.38,3.72,101.34,3.73Z"/><path class="cls-1" d="M102.08,3.68h.1C102.2,3.79,101.79,3.67,102.08,3.68Z"/><path class="cls-1" d="M102.61,3.71s.06,0,.1,0h.16s-.06,0-.1,0Z"/><path class="cls-1" d="M103.56,3.69s.06,0,.11,0S103.6,3.68,103.56,3.69Z"/><path class="cls-1" d="M103.77,3.73s.07,0,.11,0H104s-.07,0-.11,0Z"/><path class="cls-1" d="M106.06,4c-.09.1-.41,0-.59.05h-.16s-.06,0,0,0h.32a.33.33,0,0,0,.21-.05C105.94,4,106,4,106.06,4Z"/><path class="cls-1" d="M106.06,4c0-.12.22,0,0,0Z"/><path class="cls-1" d="M108.56,4s0-.06,0,0S108.58,4,108.56,4Z"/><path class="cls-1" d="M99.82,4.19s0-.06.05-.05S99.83,4.2,99.82,4.19Z"/><path class="cls-1" d="M100,4.18s0,0,.06,0S100,4.19,100,4.18Z"/><path class="cls-1" d="M104.78,4.09s0-.06.06,0S104.8,4.1,104.78,4.09Z"/><rect class="cls-1" x="97.45" y="4.42" width="0.11" height="0.08" transform="translate(-0.09 2.72) rotate(-1.6)"/><path class="cls-1" d="M97.61,4.46s0,0,0,0A0,0,0,0,1,97.61,4.46Z"/><path class="cls-1" d="M99.82,4.4c-.16.14-.09-.15,0,0Z"/><path class="cls-1" d="M101.3,4.36s.06,0,.1,0S101.34,4.35,101.3,4.36Z"/><path class="cls-1" d="M97.93,4.49s0,0,0,0S97.94,4.5,97.93,4.49Z"/><path class="cls-1" d="M98.72,4.47s0-.06,0,0S98.73,4.48,98.72,4.47Z"/><path class="cls-1" d="M99.14,4.46s.06,0,.1,0S99.18,4.45,99.14,4.46Z"/><path class="cls-1" d="M99.82,4.4s.06,0,.05,0S99.81,4.43,99.82,4.4Z"/><path class="cls-1" d="M99.87,4.44c.07,0,0,.06,0,0Z"/><path class="cls-1" d="M100.14,4.51s.06,0,.1,0S100.18,4.5,100.14,4.51Z"/><path class="cls-1" d="M100.83,4.54s.09,0,.15,0S100.89,4.53,100.83,4.54Z"/><path class="cls-1" d="M107.07,4.86c.12-.13.35,0,0,0Z"/><path class="cls-1" d="M107.71,4.81h.11C107.83,4.93,107.42,4.8,107.71,4.81Z"/><path class="cls-1" d="M107.07,4.86c0,.12-.22,0,0,0Z"/><path class="cls-1" d="M103.74,5.11h.32c0,.15-.21.06-.31.09Z"/><path class="cls-1" d="M104.54,5.18c-.1,0-.22-.12-.27,0C104,5.11,104.63,5,104.54,5.18Z"/><path class="cls-1" d="M104.64,5.14s0,0,0,0S104.64,5.16,104.64,5.14Z"/><path class="cls-1" d="M104.91,5.13c0-.09.27,0,.31,0S105,5.08,104.91,5.13Z"/><path class="cls-1" d="M108.62,5.14s.06,0,.1,0h.16s-.06,0-.1,0Z"/><path class="cls-1" d="M104.85,5.22s0-.06.06,0S104.87,5.23,104.85,5.22Z"/><path class="cls-1" d="M106.18,5.2s.06,0,.1,0S106.22,5.19,106.18,5.2Z"/><path class="cls-1" d="M107.82,5.23c0-.09.19,0,.27-.05S107.9,5.2,107.82,5.23Z"/><path class="cls-1" d="M109.31,5.26s.09,0,.16,0S109.37,5.25,109.31,5.26Z"/><path class="cls-1" d="M103.81,5.74c0,.06.13,0,.21,0s-.48.12-.32,0Z"/><path class="cls-1" d="M109.15,5.68c-.12.19-.42.08-.53.21a.41.41,0,0,0-.21,0c-.19,0-.43.14-.59.05,0-.14.2-.22.32-.13C108.39,5.67,108.89,5.77,109.15,5.68Z"/><path class="cls-1" d="M109.2,5.72s.11,0,.11,0S109.21,5.77,109.2,5.72Z"/><path class="cls-1" d="M103.18,5.84s0-.06,0,0S103.19,5.85,103.18,5.84Z"/><path class="cls-1" d="M104.65,5.81s0-.06,0,0S104.67,5.82,104.65,5.81Z"/><path class="cls-1" d="M107.67,5.73c0,.09-.24,0-.27.09h-.21c0-.09.23,0,.26-.09Z"/><path class="cls-1" d="M106.45,5.82h.1C106.57,5.94,106.16,5.82,106.45,5.82Z"/><path class="cls-1" d="M106.82,5.86s.06,0,.1,0S106.86,5.85,106.82,5.86Z"/><path class="cls-1" d="M107.3,5.94c-.06.07-.23,0-.32.09C107,5.92,107.16,6,107.3,5.94Z"/><path class="cls-1" d="M106.08,6.08s.1,0,.16,0S106.14,6.07,106.08,6.08Z"/><path class="cls-1" d="M107.4,6.15s.06,0,.06,0A0,0,0,1,1,107.4,6.15Z"/><path class="cls-1" d="M107.72,6.15s0-.05,0,0S107.74,6.16,107.72,6.15Z"/><path class="cls-1" d="M108.62,6.14c-.13.14-.21-.14,0,0Z"/><path class="cls-1" d="M108.78,6.14s.09,0,.16,0S108.84,6.14,108.78,6.14Z"/><path class="cls-1" d="M106.93,6.2s.06,0,.1,0S107,6.19,106.93,6.2Z"/><path class="cls-1" d="M107.14,6.2s.06,0,.11,0S107.18,6.19,107.14,6.2Z"/><path class="cls-1" d="M106.66,6.2a.67.67,0,0,1-.42.09s.1,0,.16,0A.47.47,0,0,1,106.66,6.2Z"/><path class="cls-1" d="M105.71,6.25a.43.43,0,0,0,.22,0C105.94,6.36,105.63,6.37,105.71,6.25Z"/><path class="cls-1" d="M105.77,6.42s.07,0,0,0Z"/><path class="cls-1" d="M105.77,6.42c-.12.13-.34,0,0,0Z"/><path class="cls-1" d="M107.14,6.74c.06-.07.23,0,.32-.08a1.27,1.27,0,0,0,.42,0c.53,0,.72,0,1.16-.05-.08.13-.4.07-.63.09A9.26,9.26,0,0,1,107.14,6.74Z"/><path class="cls-1" d="M109.78,6.6s.06,0,.11,0S109.82,6.59,109.78,6.6Z"/><path class="cls-1" d="M106.83,6.7s0,0,0,0S106.84,6.71,106.83,6.7Z"/><path class="cls-1" d="M107.67,6.86c0-.12.12,0,.21,0S107.71,6.88,107.67,6.86Z"/><path class="cls-1" d="M107.62,6.87c0,.09-.28,0-.32.08h-.42c-.09,0,0,0,.11,0h.21C107.24,6.81,107.49,6.89,107.62,6.87Z"/><path class="cls-1" d="M105,7.23s.06,0,.11-.05S105,7.22,105,7.23Z"/><path class="cls-1" d="M108.1,7.49s.1,0,.1,0S108.16,7.49,108.1,7.49Z"/><path class="cls-1" d="M107.78,7.49c-.06.12-.21.14-.37.09A.91.91,0,0,1,107.78,7.49Z"/><path class="cls-1" d="M107.83,7.53s0,0,.06,0S107.85,7.55,107.83,7.53Z"/><path class="cls-1" d="M107.1,7.58c0,.08-.16.1-.32.09s-.12-.08.06,0S107,7.55,107.1,7.58Z"/><path class="cls-1" d="M105.16,7.81h.1C105.28,7.93,104.87,7.81,105.16,7.81Z"/><path class="cls-1" d="M105.69,8s0-.06,0,0S105.7,8,105.69,8Z"/><path class="cls-1" d="M106.11,8.13c0-.05.09,0,.15,0S106.17,8.13,106.11,8.13Z"/><path class="cls-1" d="M107,8.3c0-.05.06,0,.1-.05S107,8.28,107,8.3Z"/><path class="cls-1" d="M1.49,12.72c-.33.06-.12-.12,0,0Z"/><path class="cls-1" d="M109.62,8.44h.1C109.74,8.56,109.33,8.43,109.62,8.44Z"/><path class="cls-1" d="M109.31,8.53s.06,0,.1,0S109.35,8.52,109.31,8.53Z"/><path class="cls-1" d="M108.73,8.53c-.06.13-.28,0,0,0Z"/><path class="cls-1" d="M108.83,8.58c0-.05.07,0,.11-.05S108.88,8.57,108.83,8.58Z"/><path class="cls-1" d="M106.75,9s0,0,0,0S106.76,9,106.75,9Z"/><path class="cls-1" d="M107.58,9.17h.26s-.2.2-.26.09Z"/><path class="cls-1" d="M107.32,9.34s.07,0,.11,0S107.36,9.33,107.32,9.34Z"/><path class="cls-1" d="M104.87,9.41s.06,0,.1,0S104.91,9.4,104.87,9.41Z"/><path class="cls-1" d="M108.89,9.58c-.1,0-.12.05-.21.05s.11-.11.21-.13Z"/><path class="cls-1" d="M109.1,9.54s0-.06.05,0S109.11,9.55,109.1,9.54Z"/><path class="cls-1" d="M108.89,9.58c.06,0,0,.06,0,0Z"/><path class="cls-1" d="M108,9.67s0-.05,0,0S108,9.68,108,9.67Z"/><path class="cls-1" d="M108.47,9.67s.07,0,.11,0S108.51,9.66,108.47,9.67Z"/><path class="cls-1" d="M107.79,9.72c0-.05.1,0,.16-.05S107.86,9.71,107.79,9.72Z"/><path class="cls-1" d="M107.53,9.72h.11C107.65,9.83,107.25,9.71,107.53,9.72Z"/><path class="cls-1" d="M107.22,9.8s0-.05,0,0S107.24,9.81,107.22,9.8Z"/><path class="cls-1" d="M106.91,9.81h.1C107,9.92,106.62,9.8,106.91,9.81Z"/><path class="cls-1" d="M107.85,9.88c0-.07.29-.07.21,0A.41.41,0,0,0,107.85,9.88Z"/><path class="cls-1" d="M107,9.93c-.1.11-.4.07-.57.13C106.52,9.93,106.82,10,107,9.93Z"/><path class="cls-1" d="M107.28,10s.06,0,.1,0S107.32,10,107.28,10Z"/><path class="cls-1" d="M108.89,10s0-.05,0,0S108.9,10,108.89,10Z"/><path class="cls-1" d="M108.47,10c.06-.12.28.05,0,0Z"/><path class="cls-1" d="M108.47,10c0,.07-.12,0-.2.05-.25,0-.48.1-.73.13.11-.13.45-.09.62-.17Z"/><path class="cls-1" d="M106.13,10.19c-.06.13-.27,0,0,0Z"/><path class="cls-1" d="M106.86,10.23c.06,0,.09,0,.11-.05h.36c.19,0,.07.08,0,0s-.11.08-.26,0C107,10.35,106.78,10.33,106.86,10.23Z"/><path class="cls-1" d="M103.37,10.32c0,.13-.26,0-.21.17-.19,0-.22.08-.42,0a.63.63,0,0,1,.37-.09.16.16,0,0,1-.06-.12C103.17,10.31,103.27,10.24,103.37,10.32Z"/><path class="cls-1" d="M105.72,10.28s.06,0,.1,0S105.76,10.27,105.72,10.28Z"/><path class="cls-1" d="M102.58,10.42s0-.05.06,0S102.6,10.43,102.58,10.42Z"/><path class="cls-1" d="M106.5,10.31c0,.22-.41.1-.62.13s-.18.13-.21,0-.07.12-.21.09.06-.09.05-.17C105.87,10.46,106,10.3,106.5,10.31Z"/><path class="cls-1" d="M105.35,10.41c0,.16-.19.12-.36.13C105,10.34,105.12,10.41,105.35,10.41Z"/><path class="cls-1" d="M103.27,10.49s0-.05,0,0S103.28,10.5,103.27,10.49Z"/><path class="cls-1" d="M104.94,10.46c.06.17-.22.08-.26.17s-.13-.14-.32-.12.19,0,.26,0,.14,0,.16.08S104.83,10.45,104.94,10.46Z"/><path class="cls-1" d="M104,10.56c0-.05.09,0,.15,0S104.06,10.55,104,10.56Z"/><path class="cls-1" d="M103.53,10.61s.09,0,.15,0S103.59,10.6,103.53,10.61Z"/><path class="cls-1" d="M104.21,10.6c.08,0,.09,0,.15,0S104.13,10.7,104.21,10.6Z"/><path class="cls-1" d="M104.42,10.64s.06,0,.1-.05S104.46,10.63,104.42,10.64Z"/><path class="cls-1" d="M106.4,10.69c-.12.14-.25-.11,0,0Z"/><path class="cls-1" d="M106.55,10.69s.07,0,.11,0h.15s-.06,0-.1,0Z"/><path class="cls-1" d="M107.85,10.72c0-.05.1,0,.16,0S107.91,10.71,107.85,10.72Z"/><path class="cls-1" d="M99.61,10.91c0-.13.22,0,0,0Z"/><path class="cls-1" d="M104.58,10.8s.06,0,.1,0S104.62,10.79,104.58,10.8Z"/><path class="cls-1" d="M106.09,10.78s0-.06,0,0S106.1,10.79,106.09,10.78Z"/><path class="cls-1" d="M104.21,10.81h.11C104.33,10.92,103.93,10.8,104.21,10.81Z"/><path class="cls-1" d="M103.33,10.91s0-.05,0,0S103.34,10.92,103.33,10.91Z"/><path class="cls-1" d="M103.74,10.9s.07,0,.11,0S103.78,10.89,103.74,10.9Z"/><path class="cls-1" d="M105.1,10.83c-.09.07-.28.06-.42.1C104.65,10.76,105,10.87,105.1,10.83Z"/><path class="cls-1" d="M104.11,10.94s0-.06,0,0S104.12,11,104.11,10.94Z"/><path class="cls-1" d="M103.69,11s.07,0,.11-.05S103.73,11,103.69,11Z"/><path class="cls-1" d="M109.1,10.92s.06,0,.1,0S109.14,10.91,109.1,10.92Z"/><path class="cls-1" d="M108.74,11s.06,0,.1-.05H109s-.06,0-.1.05Z"/><path class="cls-1" d="M108.48,11h.1C108.59,11.09,108.19,11,108.48,11Z"/><path class="cls-1" d="M107.34,11.14c0-.05.07,0,0,0Z"/><path class="cls-1" d="M107.08,11.15c0,.13-.26.07-.42.08A.65.65,0,0,1,107.08,11.15Z"/><path class="cls-1" d="M107.34,11.14c0,.06-.08,0,0,0Z"/><path class="cls-1" d="M106.46,11.28s0-.06.05,0S106.47,11.29,106.46,11.28Z"/><path class="cls-1" d="M106.25,11.28c0,.16-.27,0-.31.13h-.36C105.72,11.23,106.06,11.34,106.25,11.28Z"/><path class="cls-1" d="M106.41,11.36s.07,0,0,0Z"/><path class="cls-1" d="M106.41,11.36c0,.05-.08,0,0,0Z"/><path class="cls-1" d="M101.77,11.49h.31c0,.06-.13,0-.2,0S101.54,11.49,101.77,11.49Z"/><path class="cls-1" d="M103.7,11.49s0-.05,0,0S103.72,11.5,103.7,11.49Z"/><path class="cls-1" d="M105.32,11.46c0-.05.09,0,.15-.05S105.38,11.45,105.32,11.46Z"/><path class="cls-1" d="M104.9,11.51s0-.06,0,0S104.92,11.52,104.9,11.51Z"/><path class="cls-1" d="M2.59,15.77s.06,0,.1,0h.16s-.06,0-.1,0Z"/><path class="cls-1" d="M3.06,15.71h.1C3.18,15.82,2.77,15.71,3.06,15.71Z"/><path class="cls-1" d="M102.45,11.6s.1,0,.16,0S102.51,11.59,102.45,11.6Z"/><path class="cls-1" d="M104.07,11.52c0,.12-.22.09-.37.1s.09-.06.16,0A.38.38,0,0,1,104.07,11.52Z"/><path class="cls-1" d="M104.22,11.56s0-.05.06,0S104.24,11.57,104.22,11.56Z"/><path class="cls-1" d="M104.59,11.56c0-.05.06,0,.1-.05S104.63,11.55,104.59,11.56Z"/><path class="cls-1" d="M101.41,11.66h.1c0,.09-.07.08-.15.09S101.41,11.7,101.41,11.66Z"/><path class="cls-1" d="M101.78,11.82s.06,0,.1,0S101.82,11.81,101.78,11.82Z"/><path class="cls-1" d="M100.94,11.88s0-.05.06,0S101,11.89,100.94,11.88Z"/><path class="cls-1" d="M101.47,11.83c.1,0,.13,0,.2,0a.21.21,0,0,1-.31.09C101.4,11.91,101.48,11.91,101.47,11.83Z"/><path class="cls-1" d="M102.14,11.9s.07,0,.11-.05h.1C102.34,11.91,102.22,11.89,102.14,11.9Z"/><path class="cls-1" d="M5.39,16s0-.05.05,0S5.4,16,5.39,16Z"/><path class="cls-1" d="M101.83,12s.07,0,.11,0S101.87,11.94,101.83,12Z"/><path class="cls-1" d="M101.1,12h.11C101.22,12.08,100.82,12,101.1,12Z"/><path class="cls-1" d="M103.82,12a.26.26,0,0,1-.21.09C103.62,12.05,103.7,12,103.82,12Z"/><path class="cls-1" d="M105.33,12.25c0,.1-.24,0-.15.13h-.32C104.93,12.27,105.12,12.26,105.33,12.25Z"/><path class="cls-1" d="M108,12.31c0,.1-.28,0-.31.09h-.26c-.32,0-.62.11-1,.14.11-.1.31-.11.41-.22a.48.48,0,0,0,.31,0c.16,0,.16.08.26,0s.26,0,.26,0C107.85,12.19,107.8,12.34,108,12.31Z"/><path class="cls-1" d="M103.61,12.46s0-.06.06-.05S103.63,12.47,103.61,12.46Z"/><path class="cls-1" d="M101.53,12.58c-.1.1-.43,0-.62.06s.29,0,.26-.09h.1C101.4,12.52,101.39,12.62,101.53,12.58Z"/><path class="cls-1" d="M102,12.53c0,.12-.22.08-.36.09C101.65,12.54,101.86,12.58,102,12.53Z"/><path class="cls-1" d="M100.49,12.64s.07,0,.11,0h.15s-.06,0-.1,0Z"/><path class="cls-1" d="M102.42,12.65s0-.06,0-.05S102.44,12.66,102.42,12.65Z"/><path class="cls-1" d="M105.44,12.59s0-.06,0,0S105.45,12.6,105.44,12.59Z"/><path class="cls-1" d="M105,12.64c0-.05.1,0,.16-.05S105.09,12.63,105,12.64Z"/><path class="cls-1" d="M101.33,12.75s0-.05,0,0S101.34,12.76,101.33,12.75Z"/><path class="cls-1" d="M100.13,12.82s0-.05.05,0S100.15,12.83,100.13,12.82Z"/><path class="cls-1" d="M105.65,12.88s.06,0,.1-.05h.37c0,.06-.13,0-.21,0Z"/><path class="cls-1" d="M105.6,13c0-.12.22,0,0,0Z"/><path class="cls-1" d="M2.73,17.66s.07,0,.11-.05H3s-.06,0-.1,0Z"/><path class="cls-1" d="M3.05,17.64s.06,0,.1-.05S3.09,17.63,3.05,17.64Z"/><path class="cls-1" d="M4.48,17.91s0-.06,0-.05S4.5,17.92,4.48,17.91Z"/><path class="cls-1" d="M105.2,13.73a.5.5,0,0,1,.31,0c.14,0,.1-.07.21,0s-.19,0-.26,0-.15.08-.31,0A.22.22,0,0,0,105.2,13.73Z"/><path class="cls-1" d="M105.87,13.76c0-.07,0,0,.1,0S105.87,13.8,105.87,13.76Z"/><path class="cls-1" d="M105,13.81c0-.06.06,0,0,0S105,13.82,105,13.81Z"/><path class="cls-1" d="M104.42,13.87s0-.06,0,0S104.43,13.88,104.42,13.87Z"/><path class="cls-1" d="M4.28,18c0-.05.09,0,.15-.05S4.34,18,4.28,18Z"/><path class="cls-1" d="M6.24,18.45c0,.05-.07,0,0,0Z"/><path class="cls-1" d="M97.93,14.69s0-.06,0,0S98,14.7,97.93,14.69Z"/><path class="cls-1" d="M97.78,14.73c0-.12.22,0,0,0Z"/><path class="cls-1" d="M101.68,14.63s-.08,0-.15,0C101.52,14.52,101.57,14.66,101.68,14.63Z"/><path class="cls-1" d="M101.68,14.63c0-.09.22,0,.31,0S101.77,14.61,101.68,14.63Z"/><path class="cls-1" d="M104,14.59c0-.05.1,0,.16-.05S104,14.58,104,14.59Z"/><path class="cls-1" d="M98,14.81s0-.06,0,0S98.06,14.82,98,14.81Z"/><path class="cls-1" d="M102.46,14.7s0,0,.05,0S102.48,14.71,102.46,14.7Z"/><path class="cls-1" d="M102.57,14.7s0,0,.05,0S102.58,14.71,102.57,14.7Z"/><path class="cls-1" d="M101.69,14.76s.06,0,.1,0h.15s-.06,0-.1,0Z"/><path class="cls-1" d="M101.53,14.76c.06,0,0,.06,0,0Z"/><path class="cls-1" d="M102.72,14.78c0-.12.22,0,0,0Z"/><path class="cls-1" d="M102.21,14.83s.06,0,.1,0h.15s-.06,0-.1,0Z"/><path class="cls-1" d="M102.72,14.78c0,.13-.21,0,0,0Z"/><path class="cls-1" d="M6.68,18.85c.09-.13.2.09.37,0C7,19,6.74,18.89,6.68,18.85Z"/><path class="cls-1" d="M19.58,18.27s0-.06.06,0S19.6,18.28,19.58,18.27Z"/><path class="cls-1" d="M104.23,15s0-.05,0,0S104.25,15,104.23,15Z"/><path class="cls-1" d="M6.75,19.06c0-.08.29-.09.21,0S6.84,19,6.75,19.06Z"/><path class="cls-1" d="M100,15.13s.06,0,.1,0S100.07,15.12,100,15.13Z"/><path class="cls-1" d="M103.4,15.06s.07,0,.11,0S103.44,15.05,103.4,15.06Z"/><path class="cls-1" d="M103.77,15.05s.06,0,.1,0S103.81,15,103.77,15.05Z"/><path class="cls-1" d="M104.08,15.05s.06,0,.1-.05S104.12,15,104.08,15.05Z"/><path class="cls-1" d="M7.17,19.08s.09,0,.15,0h.16c0,.05-.09,0-.16.05Z"/><path class="cls-1" d="M11.64,19.2c-.08,0-.2,0-.21,0a3.47,3.47,0,0,0,.78-.08.64.64,0,0,0,.32,0c.1,0,.32,0,.26-.09s-.11.08-.26.05a2.84,2.84,0,0,0-.74-.05,7.06,7.06,0,0,0-.74-.13c0,.07,0,.08-.1.09a9.15,9.15,0,0,0-1.58,0c-.28-.05-.72,0-1,0A.93.93,0,0,0,8,19c-.08,0-.28,0-.26.05s.14,0,.16,0a1.83,1.83,0,0,1-.9,0c0,.09-.25,0-.36.06s-.15,0-.21.09a2.81,2.81,0,0,1,.74.05c.2,0,.15,0,.32,0,0,.11.28-.05.26.07l-.37,0c.07.15,0,.17.07.29s.29-.09.47-.11.52.09.68-.08c-.1,0-.31.08-.27-.07.16,0,.19-.05.32-.05s.13.08.26.07c.74-.07,1.35,0,2.05-.06a.26.26,0,0,0,.16,0,16.1,16.1,0,0,1,1.73.05c0-.22.39.07.47-.11a4.77,4.77,0,0,0-1.31,0,.4.4,0,0,0-.16-.08c0-.08,0-.13-.11-.12H11.7c0,.07.08.1,0,.12s-.12-.07-.26,0c0-.11-.25,0-.22-.07l.48,0S11.67,19.2,11.64,19.2Zm-3.47-.09a.15.15,0,0,1-.21.06C8,19,8,19.12,8.17,19.11Zm.16,0c0-.09.18,0,.26-.06S8.39,19.2,8.33,19.15Zm2.53.21s.06,0,.1-.05S10.9,19.35,10.86,19.36Z"/><path class="cls-1" d="M7.54,19.1c0-.05.09,0,.15-.05S7.6,19.09,7.54,19.1Z"/><path class="cls-1" d="M13,18.84c0-.05.09,0,.16-.05S13.05,18.83,13,18.84Z"/><path class="cls-1" d="M25.52,18.2c0,.05-.07,0,0,0Z"/><path class="cls-1" d="M13.2,18.87s.06,0,.1-.05h.16s-.06,0-.1,0Z"/><path class="cls-1" d="M96.23,15.36s0,0,0,0S96.24,15.37,96.23,15.36Z"/><path class="cls-1" d="M99.51,15.27s0,0,.06,0S99.53,15.28,99.51,15.27Z"/><path class="cls-1" d="M13.62,18.89s0-.05.05,0S13.64,18.9,13.62,18.89Z"/><path class="cls-1" d="M13.78,18.88s0-.05.05,0S13.8,18.89,13.78,18.88Z"/><path class="cls-1" d="M14.2,18.86s0-.05.05,0S14.22,18.87,14.2,18.86Z"/><path class="cls-1" d="M14.88,18.83s.06,0,.1,0h.11C15.08,18.84,15,18.82,14.88,18.83Z"/><path class="cls-1" d="M15.14,18.82s.07,0,.11-.05S15.18,18.81,15.14,18.82Z"/><path class="cls-1" d="M15.41,18.81c0-.13.22,0,0,0Z"/><path class="cls-1" d="M33,17.93c.06.12-.11.08-.2.09S32.9,17.92,33,17.93Z"/><path class="cls-1" d="M12.73,19s0-.06,0-.05S12.75,19,12.73,19Z"/><path class="cls-1" d="M15.41,18.81s0,0,.1,0-.08.08-.1.13,0-.11-.11-.12S15.35,18.8,15.41,18.81Z"/><path class="cls-1" d="M32.13,18.06s0-.06,0,0S32.15,18.07,32.13,18.06Z"/><path class="cls-1" d="M38.27,17.77s0-.05,0,0S38.28,17.78,38.27,17.77Z"/><path class="cls-1" d="M56,17s0-.06.06-.05S56,17,56,17Z"/><path class="cls-1" d="M56.09,17s.06,0,.1,0S56.13,17,56.09,17Z"/><path class="cls-1" d="M13.26,19h0c0,.05,0,0,0,0s.07.11.22.07.07-.16.25-.14c-.12.1.07.12.17.16s-.3,0-.42.06-.6,0-.64-.18c.11,0,.35,0,.37-.06A.07.07,0,0,1,13.26,19Z"/><polygon class="cls-1" points="13.47 18.94 13.57 18.94 13.58 19.02 13.47 19.02 13.47 18.94"/><path class="cls-1" d="M14.31,18.94s0-.05,0,0S14.32,19,14.31,18.94Z"/><path class="cls-1" d="M21.34,18.61s0-.06.05-.05S21.35,18.62,21.34,18.61Z"/><path class="cls-1" d="M21.44,18.6s.06,0,.1-.05S21.48,18.59,21.44,18.6Z"/><path class="cls-1" d="M54.78,17.07s0-.05,0,0S54.8,17.08,54.78,17.07Z"/><path class="cls-1" d="M57.09,17c0-.09.27,0,.31,0S57.22,16.92,57.09,17Z"/><path class="cls-1" d="M57.77,16.94c0-.07.39-.08.42,0S57.89,16.93,57.77,16.94Z"/><path class="cls-1" d="M58.29,16.92c-.06,0,0-.06,0,0Z"/><path class="cls-1" d="M13.84,19s0-.06.05-.05S13.85,19,13.84,19Z"/><path class="cls-1" d="M14.89,19s.06,0,.1-.05S14.93,19,14.89,19Z"/><path class="cls-1" d="M15.78,18.87c0,.06-.09,0-.1.09S15.67,18.83,15.78,18.87Z"/><path class="cls-1" d="M18.08,18.76v0C18,18.82,18,18.76,18.08,18.76Z"/><path class="cls-1" d="M38.9,17.83s.06,0,.1,0S38.94,17.81,38.9,17.83Z"/><path class="cls-1" d="M39.11,17.82s0-.06,0-.05S39.13,17.83,39.11,17.82Z"/><path class="cls-1" d="M41.78,17.65c.06,0,0,.06,0,0Z"/><path class="cls-1" d="M41.94,17.69s.06,0,.1-.05S42,17.68,41.94,17.69Z"/><path class="cls-1" d="M45.14,17.5c.21-.05,0,.13,0,0Z"/><path class="cls-1" d="M46,17.5s.06,0,.1,0h.1C46.17,17.51,46.06,17.49,46,17.5Z"/><path class="cls-1" d="M46.66,17.47s.06,0,.1,0S46.7,17.46,46.66,17.47Z"/><path class="cls-1" d="M46.92,17.46s0-.05,0,0S46.94,17.47,46.92,17.46Z"/><path class="cls-1" d="M54.52,17.13c0-.05.06,0,.1-.05S54.56,17.11,54.52,17.13Z"/><path class="cls-1" d="M56.2,17.05c0-.05.09,0,.15-.05S56.26,17,56.2,17.05Z"/><path class="cls-1" d="M56.56,17c0-.05.1,0,.16-.05S56.63,17,56.56,17Z"/><path class="cls-1" d="M56.83,17s.06,0,.1,0S56.87,17,56.83,17Z"/><path class="cls-1" d="M57.09,17c0,.13-.22,0,0,0Z"/><path class="cls-1" d="M58.29,16.92c.07,0,0,.06,0,0Z"/><path class="cls-1" d="M21.65,18.68s0-.06.05-.05S21.67,18.69,21.65,18.68Z"/><path class="cls-1" d="M26.32,18.5s-.05,0-.05,0-.05-.07-.11-.08H26c0-.06.13,0,.21,0,.32,0,.64-.05.94,0a2.65,2.65,0,0,0,.27,0,5.33,5.33,0,0,0,.84-.08c0,.13-.26.09-.42.11a3.34,3.34,0,0,1-.79,0,.53.53,0,0,0-.31.06C26.6,18.48,26.38,18.38,26.32,18.5Z"/><path class="cls-1" d="M30.88,18.24c-.08.12-.13,0-.31.06a17.48,17.48,0,0,1-2.05.09c-.08,0,0,0,.05,0h.16c.09,0,.13-.08.16,0Z"/><path class="cls-1" d="M21.5,18.72s0,0,.05,0S21.51,18.74,21.5,18.72Z"/><path class="cls-1" d="M45.82,17.6c0-.05.07,0,.11-.05S45.86,17.58,45.82,17.6Z"/><path class="cls-1" d="M46,17.59c0-.05.1,0,.16-.05h.21l.37,0s-.1,0-.16,0H46.4Z"/><path class="cls-1" d="M46.92,17.55c0-.05.08,0,0,0Z"/><path class="cls-1" d="M47.08,17.54s.06,0,.1-.05h.16c0,.05-.06,0-.1.05Z"/><path class="cls-1" d="M47.45,17.52c0-.06,0,0,0,0S47.39,17.53,47.45,17.52Z"/><path class="cls-1" d="M47.71,17.51c-.06,0,0-.06,0,0Z"/><path class="cls-1" d="M48.5,17.43a.15.15,0,0,1-.16.09C48.31,17.44,48.41,17.44,48.5,17.43Z"/><path class="cls-1" d="M63.06,16.8h.16C63.22,16.85,63.08,16.85,63.06,16.8Z"/><path class="cls-1" d="M64.32,16.79s0-.06.05-.05S64.34,16.8,64.32,16.79Z"/><path class="cls-1" d="M19,18.89s.07,0,.11-.05h.15s-.06,0-.1.05Z"/><path class="cls-1" d="M23.28,18.68c0-.05.1,0,.16-.05S23.34,18.67,23.28,18.68Z"/><path class="cls-1" d="M23.6,18.67s.06,0,.1-.05S23.64,18.66,23.6,18.67Z"/><path class="cls-1" d="M25.27,18.55c.28-.06.07.12,0,0Z"/><path class="cls-1" d="M26.32,18.5a.26.26,0,0,1,.16,0c0,.08-.19.13-.21,0S26.33,18.53,26.32,18.5Z"/><path class="cls-1" d="M30.94,18.32s.06,0,.1-.05S31,18.31,30.94,18.32Z"/><path class="cls-1" d="M31.1,18.31s.06,0,.1,0h.31l.47,0,.95,0s-.13,0-.21,0h-.21l-.94,0Z"/><path class="cls-1" d="M33.14,18.22c-.22.05,0-.13,0,0Z"/><path class="cls-1" d="M33.14,18.22a1.26,1.26,0,0,1,.58,0l.73,0,.37,0s.06,0,0,0h-.21l-1.47.07Z"/><path class="cls-1" d="M46.92,17.55c0,.05-.07,0,0,0Z"/><path class="cls-1" d="M47.71,17.51c.33-.06.12.12,0,0Z"/><path class="cls-1" d="M64.69,16.81s0,0,0,0S64.71,16.83,64.69,16.81Z"/><path class="cls-1" d="M64.8,16.81s.06,0,.1,0S64.84,16.8,64.8,16.81Z"/><path class="cls-1" d="M65.06,16.8s0-.06,0,0S65.07,16.81,65.06,16.8Z"/><path class="cls-1" d="M65.22,16.79s.06,0,.1,0S65.26,16.78,65.22,16.79Z"/><path class="cls-1" d="M97.39,15.62v0h.26C97.66,15.67,97.46,15.6,97.39,15.62Z"/><path class="cls-1" d="M104.81,15.45c-.1.08-.33.05-.41.14a15.43,15.43,0,0,1-1.92.2c0-.11.3,0,.21-.13a.52.52,0,0,0,.36-.09c.49,0,1-.08,1.4-.15C104.62,15.46,104.62,15.4,104.81,15.45Z"/><path class="cls-1" d="M104.81,15.45c.06-.13.27,0,0,0Z"/><path class="cls-1" d="M14,19.17c-.06,0,0-.06,0,0Z"/><path class="cls-1" d="M20,18.88c0-.05.1,0,.16-.05S20,18.87,20,18.88Z"/><path class="cls-1" d="M23.86,18.7c0-.05.1,0,.16-.05S23.92,18.69,23.86,18.7Z"/><path class="cls-1" d="M35.13,18.17c0-.05.1,0,.16-.05S35.19,18.16,35.13,18.17Z"/><path class="cls-1" d="M83.91,16.14s.23-.12.21-.05h.31C84.76,16.14,84,16.13,83.91,16.14Z"/><path class="cls-1" d="M97.07,15.67c0-.09.22,0,.32-.05S97.16,15.65,97.07,15.67Z"/><path class="cls-1" d="M14,19.17c.15,0,.49-.11.48.06-.17,0-.23-.07-.42,0C14,19.21,14,19.2,14,19.17Z"/><path class="cls-1" d="M20.4,18.9s.1,0,.16,0S20.46,18.89,20.4,18.9Z"/><path class="cls-1" d="M26.17,18.59c0,.06-.11.08-.21.09S26.05,18.58,26.17,18.59Z"/><path class="cls-1" d="M26.54,18.61c0-.05.09,0,.15-.05S26.6,18.6,26.54,18.61Z"/><path class="cls-1" d="M27.74,18.56s.05,0,.06,0S27.74,18.58,27.74,18.56Z"/><path class="cls-1" d="M28.69,18.51c-.22,0,0-.12,0,0Z"/><path class="cls-1" d="M35.35,18.2s.06,0,.1-.05S35.39,18.19,35.35,18.2Z"/><path class="cls-1" d="M35.5,18.19s.07,0,.11,0S35.54,18.18,35.5,18.19Z"/><path class="cls-1" d="M35.71,18.18s.06,0,.11,0H36l.32,0c0,.05-.07,0-.11.05h-.47Z"/><path class="cls-1" d="M36.39,18.15s0,0,0,0S36.41,18.16,36.39,18.15Z"/><path class="cls-1" d="M36.5,18.15s.06,0,.1,0h.47s-.06,0-.1.05h-.16Z"/><path class="cls-1" d="M37.34,18.11s0-.06,0-.05S37.35,18.12,37.34,18.11Z"/><path class="cls-1" d="M37.49,18.1c0-.05.1,0,.16-.05h.16c0,.05-.1,0-.16.05Z"/><path class="cls-1" d="M38.65,18.05c-.34.06-.12-.12,0,0Z"/><path class="cls-1" d="M39.33,18s0-.06.05-.05S39.34,18,39.33,18Z"/><path class="cls-1" d="M80.36,16.27s.06,0,.1,0S80.39,16.26,80.36,16.27Z"/><path class="cls-1" d="M81,16.21h.11C81.15,16.32,80.75,16.2,81,16.21Z"/><path class="cls-1" d="M82.29,16.2s0-.05,0,0S82.31,16.21,82.29,16.2Z"/><path class="cls-1" d="M83.44,16.16s.06,0,.1,0S83.48,16.15,83.44,16.16Z"/><path class="cls-1" d="M83.7,16.11h.11C83.82,16.22,83.41,16.11,83.7,16.11Z"/><path class="cls-1" d="M89.09,16c-.06,0,0-.06,0,0Z"/><path class="cls-1" d="M97.07,15.67c0,.09-.18,0-.26.05S97,15.7,97.07,15.67Z"/><path class="cls-1" d="M27.17,18.62c0-.05.09,0,.15-.05S27.23,18.61,27.17,18.62Z"/><path class="cls-1" d="M28,18.54h.1C28.13,18.66,27.72,18.54,28,18.54Z"/><path class="cls-1" d="M28.69,18.51c.21-.05,0,.13,0,0Z"/><path class="cls-1" d="M29.63,18.51s.07,0,.11-.05S29.67,18.5,29.63,18.51Z"/><path class="cls-1" d="M30.31,18.43h.11C30.43,18.55,30,18.44,30.31,18.43Z"/><path class="cls-1" d="M30.47,18.47c0-.09.22,0,.31-.06C30.7,18.53,30.65,18.46,30.47,18.47Z"/><path class="cls-1" d="M30.94,18.45c-.06,0,0-.06,0,0Z"/><path class="cls-1" d="M31.26,18.39c0,.12-.12.08-.21.09A.28.28,0,0,1,31.26,18.39Z"/><path class="cls-1" d="M38,18.12s0-.05.05,0S38,18.13,38,18.12Z"/><path class="cls-1" d="M38.65,18.05c.21-.05,0,.12,0,0Z"/><path class="cls-1" d="M39.12,18.07s0-.06.05-.05S39.14,18.08,39.12,18.07Z"/><path class="cls-1" d="M39.54,18h.1C39.66,18.12,39.25,18,39.54,18Z"/><path class="cls-1" d="M39.91,18s0-.05.05,0S39.92,18,39.91,18Z"/><path class="cls-1" d="M75.7,16.5s0-.06,0-.05S75.71,16.51,75.7,16.5Z"/><path class="cls-1" d="M81.77,16.26s.06,0,.1,0S81.81,16.25,81.77,16.26Z"/><path class="cls-1" d="M87.84,16s.06,0,.1,0h.16S88,16,88,16Z"/><path class="cls-1" d="M88.88,16s.06,0,.1,0S88.92,16,88.88,16Z"/><path class="cls-1" d="M96.66,15.73h.1C96.78,15.84,96.37,15.72,96.66,15.73Z"/><path class="cls-1" d="M30.94,18.45c.07,0,0,.06,0,0Z"/><path class="cls-1" d="M33.15,18.39s0-.06.05-.05S33.16,18.4,33.15,18.39Z"/><path class="cls-1" d="M61.45,17.12s0-.05,0,0S61.47,17.13,61.45,17.12Z"/><path class="cls-1" d="M87.63,16.09s0-.05.05,0S87.64,16.1,87.63,16.09Z"/><path class="cls-1" d="M96.35,15.82s.06,0,.1,0S96.39,15.81,96.35,15.82Z"/><path class="cls-1" d="M7.3,19.66s0-.06,0,0S7.32,19.67,7.3,19.66Z"/><path class="cls-1" d="M34.88,18.35s0-.06,0-.05S34.89,18.36,34.88,18.35Z"/><path class="cls-1" d="M35,18.34s.06,0,.1-.05S35.08,18.33,35,18.34Z"/><path class="cls-1" d="M35.35,18.33s.06,0,.1,0S35.39,18.31,35.35,18.33Z"/><path class="cls-1" d="M35.51,18.32c0-.06.13,0,.21-.05S35.64,18.32,35.51,18.32Z"/><path class="cls-1" d="M35.93,18.3s0-.06,0,0S35.94,18.31,35.93,18.3Z"/><path class="cls-1" d="M36.14,18.29s.06,0,.1-.05S36.18,18.28,36.14,18.29Z"/><path class="cls-1" d="M77.17,16.52s.06,0,.1,0S77.21,16.51,77.17,16.52Z"/><path class="cls-1" d="M82.56,16.32c-.06.1-.33,0-.47.06s-.26,0-.42.06-.36,0-.47,0a.05.05,0,0,1,0,0,0,0,0,0,0-.05.05,4.62,4.62,0,0,1-1,0c-.17,0-.18.08-.37.06s-.11,0,0-.09a1.25,1.25,0,0,0-.31.1c0-.09-.29,0-.26.05s-.14-.11-.32-.07-.08.07-.1,0-.09-.05-.16,0,.22,0,.31,0,.26,0,.32,0,.21,0,.31-.05l.42,0a1.8,1.8,0,0,1,.26,0,.11.11,0,0,0,0-.05c.06,0,.08,0,.16,0s.07,0,.15,0,0,0,.06,0,.24,0,.36-.05c.34-.05.72,0,1.1,0,.17,0,.27.06.47,0Z"/><path class="cls-1" d="M82.56,16.32c0-.07.11,0,.15,0,.19,0,.64-.11.63.06C83.06,16.28,82.79,16.44,82.56,16.32Z"/><path class="cls-1" d="M83.65,16.28c-.06,0,0-.06,0,0Z"/><path class="cls-1" d="M102.38,15.67c-.07.09-.34,0-.41.13a2,2,0,0,0-.52,0H101c-.16.06-.41,0-.57.1l-.89,0c-.14,0-.13.07-.26.05h-.41a3.58,3.58,0,0,1-.89.07c0-.14.16-.07.26-.09h.37c.14,0,.13-.06.26-.05a4.26,4.26,0,0,0,1-.07c0-.11-.16.06-.31,0h-.42l-.78,0c-.14,0-.13.06-.26.05l-.78,0c-.08,0,0,0,0,0h.52c.15,0,.14-.06.26,0a5.9,5.9,0,0,0,1-.07c.43.06,1.14-.11,1.72,0,.08,0,0-.07.05-.08C101.49,15.72,101.74,15.66,102.38,15.67Z"/><path class="cls-1" d="M36.51,18.31s.06,0,.1,0S36.55,18.3,36.51,18.31Z"/><path class="cls-1" d="M73.71,16.7c0-.05.1,0,.16-.05S73.77,16.69,73.71,16.7Z"/><path class="cls-1" d="M83.5,16.33s0-.06,0,0S83.51,16.34,83.5,16.33Z"/><path class="cls-1" d="M83.65,16.28c.07,0,0,.06,0,0Z"/><path class="cls-1" d="M83.87,16.31s.06,0,.1,0S83.91,16.3,83.87,16.31Z"/><path class="cls-1" d="M94.73,15.91c0,.12-.21.08-.36.09s.09-.06.16-.05A.29.29,0,0,1,94.73,15.91Z"/><path class="cls-1" d="M96.77,15.89s0-.05,0,0S96.78,15.9,96.77,15.89Z"/><path class="cls-1" d="M15.85,19.33s0,0,.05,0S15.87,19.34,15.85,19.33Z"/><path class="cls-1" d="M39.65,18.21s.07,0,.11-.05S39.69,18.2,39.65,18.21Z"/><path class="cls-1" d="M40.39,18.18c0-.05.09,0,.15-.05S40.45,18.17,40.39,18.18Z"/><path class="cls-1" d="M40.6,18.17c0-.05.09,0,.15-.05S40.66,18.16,40.6,18.17Z"/><path class="cls-1" d="M94.06,16s0-.05,0,0S94.07,16,94.06,16Z"/><path class="cls-1" d="M86.38,16.26c.18.07-.13.09-.1.18-.12,0-.08-.08-.16-.08-.38.21-1.3,0-1.67.23-.23,0-.27,0-.47,0,0-.09.36-.06.42,0s-.05-.08,0-.09c.27,0,.47-.07.63,0s.08-.05.15-.05a10,10,0,0,0,1-.08C86.34,16.32,86.37,16.3,86.38,16.26Z"/><path class="cls-1" d="M93.69,16.06s.07,0,.11,0h.1C93.89,16.07,93.77,16.05,93.69,16.06Z"/><path class="cls-1" d="M94.84,16S94.9,16,95,16,94.88,16,94.84,16Z"/><path class="cls-1" d="M12.86,19.52l.27,0c.07,0,.27-.06.26,0l-.26,0C13.05,19.53,12.86,19.61,12.86,19.52Z"/><path class="cls-1" d="M30.59,18.67h.1C30.71,18.79,30.3,18.68,30.59,18.67Z"/><path class="cls-1" d="M97,16c.09,0,0,.09,0,.08h-.21c-.09,0-.11,0,0,0h.21C97,16,97,16,97,16Z"/><path class="cls-1" d="M32.16,18.68s.07,0,.11,0S32.2,18.67,32.16,18.68Z"/><path class="cls-1" d="M94.64,16.08c.08.05.3,0,.52,0h.73s-.07,0-.11.05h-.62s0,.07,0,0-.24,0-.52,0c-.1,0-.11,0-.06,0S94.58,16.08,94.64,16.08Z"/><path class="cls-1" d="M96.15,16.08s.09,0,.15,0h.21c0,.05-.09,0-.16.05Z"/><path class="cls-1" d="M65.29,17.25s0-.05,0,0S65.3,17.26,65.29,17.25Z"/><path class="cls-1" d="M65.39,17.25s.07,0,.11-.05h.31l.42,0c0,.06-.13,0-.21,0Z"/><path class="cls-1" d="M93.91,16.14h.31c0,.06-.13,0-.21.05S93.68,16.15,93.91,16.14Z"/><path class="cls-1" d="M57.8,17.61s0-.05.05,0S57.81,17.62,57.8,17.61Z"/><path class="cls-1" d="M58.06,17.6c0-.05.09,0,.15-.05h.16c0,.05-.09,0-.15,0Z"/><path class="cls-1" d="M58.43,17.59c0-.1.22,0,.31-.06l.36,0a3,3,0,0,1,.69,0c0-.13.13,0,.26,0l.37,0,.68,0c0,.09-.22,0-.31.06h-.37C59.69,17.57,59,17.62,58.43,17.59Z"/><path class="cls-1" d="M68.07,17.18s0-.05.05,0S68.08,17.19,68.07,17.18Z"/><path class="cls-1" d="M83.77,16.53c.08,0,.09,0,.16,0S83.69,16.63,83.77,16.53Z"/><path class="cls-1" d="M91.3,16.31c-.08,0-.27.06-.27,0S91.3,16.22,91.3,16.31Z"/><path class="cls-1" d="M91.45,16.3s.08,0,.16,0h.26C91.83,16.35,91.58,16.28,91.45,16.3Z"/><path class="cls-1" d="M92.13,16.24h.11C92.25,16.36,91.84,16.24,92.13,16.24Z"/><path class="cls-1" d="M62.67,17.45c0,.16-.25,0-.36.1a2,2,0,0,0-.68,0c.06-.16.23,0,.36-.1s0,0,0,0Z"/><path class="cls-1" d="M68.43,17.21c0-.05.1,0,.16-.05h.21l.42,0,.84,0c0,.09-.26,0-.37.06h-.42l-.42,0Z"/><path class="cls-1" d="M89.26,16.42c0-.1.22,0,.31-.05S89.35,16.39,89.26,16.42Z"/><path class="cls-1" d="M89.68,16.4s.09,0,.15,0h.53c0,.05-.1,0-.16.05h-.52Z"/><path class="cls-1" d="M91.3,16.31h.15C91.45,16.36,91.31,16.36,91.3,16.31Z"/><path class="cls-1" d="M61.42,17.54c0-.05.09,0,.15-.05S61.48,17.53,61.42,17.54Z"/><path class="cls-1" d="M63.09,17.47s0-.06,0,0S63.11,17.48,63.09,17.47Z"/><path class="cls-1" d="M72.57,17.08s.07,0,.11,0S72.61,17.07,72.57,17.08Z"/><path class="cls-1" d="M82.83,16.69s0-.06,0-.05S82.85,16.7,82.83,16.69Z"/><path class="cls-1" d="M83,16.68s0-.05.05,0S83,16.69,83,16.68Z"/><path class="cls-1" d="M83.09,16.68s0-.06,0-.05S83.11,16.69,83.09,16.68Z"/><path class="cls-1" d="M83.36,16.67s0-.06,0-.05S83.37,16.68,83.36,16.67Z"/><path class="cls-1" d="M87.75,16.47a.69.69,0,0,1-.42.1A.61.61,0,0,1,87.75,16.47Z"/><path class="cls-1" d="M89.26,16.42c0,.09-.18,0-.26,0h-.36l-.73,0c0-.09.18,0,.25-.05h.37Z"/><path class="cls-1" d="M97.92,16.2s0-.06,0-.05S97.94,16.21,97.92,16.2Z"/><path class="cls-1" d="M63.36,17.5s.06,0,.1-.05S63.4,17.49,63.36,17.5Z"/><path class="cls-1" d="M64.19,17.47s0-.06.06,0S64.21,17.48,64.19,17.47Z"/><path class="cls-1" d="M79,16.87c0-.09.19,0,.26-.05h.32s-.07,0-.11,0H79Z"/><path class="cls-1" d="M84.3,16.68c0-.13.22,0,0,0Z"/><path class="cls-1" d="M86.29,16.6s0-.05,0,0S86.3,16.61,86.29,16.6Z"/><path class="cls-1" d="M86.49,16.6c0-.09.19,0,.26-.06h.32s-.06,0-.1,0h-.48Z"/><path class="cls-1" d="M64.82,17.48s0-.05.06,0S64.84,17.49,64.82,17.48Z"/><path class="cls-1" d="M65.35,17.46s.06,0,.1-.05S65.39,17.45,65.35,17.46Z"/><path class="cls-1" d="M65.61,17.45c0-.05.09,0,.16-.05S65.67,17.44,65.61,17.45Z"/><path class="cls-1" d="M65.82,17.44s0-.05.05,0S65.83,17.45,65.82,17.44Z"/><path class="cls-1" d="M80.48,16.86c0-.05.06,0,.1-.05S80.52,16.85,80.48,16.86Z"/><path class="cls-1" d="M84.3,16.68c-.11.13-.34,0,0,0Z"/><path class="cls-1" d="M85.14,16.69s.06,0,.1-.05S85.18,16.68,85.14,16.69Z"/><path class="cls-1" d="M85.56,16.67s0-.05,0,0S85.57,16.68,85.56,16.67Z"/><path class="cls-1" d="M67,17.43s.06,0,.1,0S67.07,17.42,67,17.43Z"/><path class="cls-1" d="M67.18,17.43s0-.06,0-.05S67.2,17.44,67.18,17.43Z"/><path class="cls-1" d="M79.75,16.93c0-.05.09,0,.16-.05S79.81,16.92,79.75,16.93Z"/><path class="cls-1" d="M80.27,16.91s0-.06,0-.05S80.29,16.92,80.27,16.91Z"/><path class="cls-1" d="M74.94,17.2s0-.06,0-.05S75,17.21,74.94,17.2Z"/><path class="cls-1" d="M75.2,17.19s.06,0,.1-.05S75.24,17.18,75.2,17.19Z"/><path class="cls-1" d="M75.57,17.17s0-.05.05,0S75.58,17.18,75.57,17.17Z"/><path class="cls-1" d="M75.72,17.17s0-.06,0-.05S75.74,17.18,75.72,17.17Z"/><path class="cls-1" d="M76.19,17.15s0-.06,0,0S76.21,17.16,76.19,17.15Z"/><path class="cls-1" d="M76.3,17.14c0-.05.09,0,.15,0S76.36,17.14,76.3,17.14Z"/><path class="cls-1" d="M76.61,17.13s.07,0,.11,0h.15s-.06,0-.1.05Z"/><path class="cls-1" d="M77.5,17.1s0-.06,0-.05S77.52,17.11,77.5,17.1Z"/><path class="cls-1" d="M77.82,17.08s.06,0,.1,0S77.86,17.07,77.82,17.08Z"/><path class="cls-1" d="M78,17.08s.09,0,.15,0S78.09,17.07,78,17.08Z"/><path class="cls-1" d="M77.3,17.15s0-.06,0,0S77.31,17.16,77.3,17.15Z"/><path class="cls-1" d="M79.55,17.06s.09,0,.15,0h.16s-.1,0-.16,0Z"/></svg>