<svg xmlns="http://www.w3.org/2000/svg" xmlns:xlink="http://www.w3.org/1999/xlink" width="76" height="75" viewBox="0 0 76 75">
    <defs>
        <path id="9cioqi2a9a" d="M0 0.123L75.855 0.123 75.855 67.68 0 67.68z"/>
        <path id="oueg6so0mc" d="M0 74.163L75.855 74.163 75.855 0 0 0z"/>
    </defs>
    <g fill="none" fill-rule="evenodd">
        <g>
            <g transform="translate(-503 -8078) translate(503 8078)">
                <path fill="#E9593D" d="M27.076 3.894c.798 1.8 2.248 3.25 4.048 4.05-1.8.799-3.25 2.249-4.048 4.049-.8-1.8-2.25-3.25-4.05-4.05 1.8-.799 3.25-2.248 4.05-4.049m-7.264 4.73c3.631 0 6.584 2.953 6.584 6.583 0 .375.303.68.68.68.375 0 .68-.305.68-.68 0-3.63 2.952-6.584 6.582-6.584.376 0 .68-.304.68-.68 0-.375-.304-.68-.68-.68-3.63 0-6.582-2.953-6.582-6.583 0-.375-.305-.68-.68-.68-.377 0-.68.305-.68.68 0 3.63-2.953 6.584-6.584 6.584-.376 0-.68.304-.68.68 0 .375.304.68.68.68"/>
                <g transform="translate(0 6.483)">
                    <mask id="wiwg9n9p6b" fill="#fff">
                        <use xlink:href="#9cioqi2a9a"/>
                    </mask>
                    <path fill="#E9593D" d="M74.495 64.758c0 .86-.701 1.562-1.563 1.562H3.256c-.862 0-1.562-.701-1.562-1.562V58.34c0-.862.7-1.564 1.562-1.564h7.385v.381c0 1.863 1.515 3.38 3.378 3.38h11.276c1.864 0 3.38-1.517 3.38-3.38v-.38h44.257c.862 0 1.563.701 1.563 1.563v6.418zM12 56.776v-3.071c0-1.113.906-2.02 2.02-2.02H25.294c1.114 0 2.02.907 2.02 2.02v3.452c0 .198-.03.39-.083.57-.247.837-1.021 1.45-1.937 1.45H14.02c-.915 0-1.689-.613-1.936-1.45-.053-.18-.083-.372-.083-.57v-.38zm5.354-8.141l4.767.027.435 1.664h-5.79l.588-1.691zm13.526-.016v6.798h-2.206v-1.712c0-.74-.242-1.423-.647-1.98-.098-.136-.204-.264-.32-.383-.614-.626-1.468-1.016-2.412-1.016h-1.333l-.447-1.707h7.365zM1.36 46.578v-22.33c0-.376.306-.682.681-.682h35.066c.375 0 .681.306.681.682v22.33c0 .375-.306.681-.68.681H2.04c-.375 0-.68-.306-.68-.681zM52.54 1.482c7.356 0 13.342 5.986 13.342 13.342v2.202c-2.075-.522-3.51-1.643-4.424-2.629l-.006-.02-.107-.12c-.746-.834-1.122-1.551-1.175-1.657l-.005-.01-.001-.002-.412-.86-.679.67c-.142.14-.287.277-.432.41l-.066.06c-.115.104-.23.206-.347.305l-.148.125-.257.21-.211.165-.158.12c-6.965 5.217-16.302 3.154-18.257 2.642v-1.611c0-7.356 5.986-13.342 13.343-13.342zm9.705 28.41H57.28c2.862-2.218 4.79-6.332 4.79-11.034 0-.748-.051-1.495-.152-2.236 1.019.759 2.327 1.439 3.964 1.796v7.837c0 2.005-1.632 3.637-3.637 3.637zm-5.1 4.859c.108.067.232.102.358.102h.005l4.649-.038c.066.304.103.61.103.913 0 3.677-4.605 6.668-10.266 6.668-5.66 0-10.264-2.991-10.264-6.668 0-.272.028-.544.08-.814l5.606-.061c.124-.002.245-.037.35-.102.09-.055 2.082-1.313 2.58-3.422.672.197 1.37.304 2.085.304.732 0 1.445-.112 2.13-.318.493 2.117 2.494 3.38 2.584 3.436zm14.275 5.087c.124.201.239.408.35.618-.11-.21-.226-.417-.35-.618zm-5.798-4.525c.189.06.376.126.56.196-.184-.07-.371-.136-.56-.196zM52.73 43.738l-.032.002.032-.002zm-5.441-.672l-.08-.025.08.025zm-7.502-7.8c-.216.066-.43.138-.64.218.21-.08.424-.152.64-.218zm29.562 2.138c-.118-.103-.239-.204-.362-.301.123.097.244.198.362.3zm.35.316c-.115-.108-.231-.214-.35-.316.119.103.235.208.35.316zm-22.116-7.828h-4.748c-2.006 0-3.638-1.632-3.638-3.637v-8.412c.759.192 2.02.465 3.602.644-.004.122-.007.245-.007.371 0 4.702 1.928 8.816 4.79 11.034zm4.848.381c-4.565 0-8.28-5.12-8.28-11.415 0-.083.002-.167.004-.25.575.038 1.178.06 1.805.06 4.13 0 9.244-.957 13.435-4.706.203.309.48.686.83 1.091.322 1.243.486 2.522.486 3.805 0 6.294-3.715 11.415-8.28 11.415zm-13.283-.658c.914 1.003 2.226 1.637 3.687 1.637h6.123c-.373 1.152-1.384 1.97-1.764 2.244l-5.927.064c-.017 0-.034.004-.051.005-.013.002-.026 0-.039.001-.698.1-1.376.262-2.03.477v-4.428zM37.065 49.34v-.72h.042c1.106 0 2.006-.884 2.038-1.983h.642v-1.36h-.64v-4.08h.64v-1.359h-.64V35.76h.64v-.493c.203-.062.409-.119.617-.169-.023.21-.034.42-.034.631 0 3.078 2.522 5.756 6.213 7.102V43.9h1.36v-.649c1.262.325 2.627.504 4.051.504h.028v.145h1.36v-.204c1.459-.12 2.836-.427 4.079-.887v1.091h1.36v-1.36h-.69c.871-.375 1.664-.827 2.361-1.343h1.05V40.3c.57-.565 1.038-1.183 1.384-1.84l-.001.002h1.334v-1.36h-.813c.112-.446.174-.905.174-1.374 0-.284-.022-.57-.067-.855.715.08 1.406.23 2.069.44v.446h1.164c-.18-.081-.362-.157-.547-.228 1 .387 1.924.919 2.747 1.572h-.648v1.36h1.36v-.743c.661.628 1.241 1.338 1.722 2.118h-.36v1.36h1.066c-.097-.223-.201-.442-.312-.656.756 1.466 1.184 3.134 1.184 4.908v9.884H32.24v-6.715h3.465v.721h1.36zm37.292 6.45V45.45c0-6.542-5.122-11.812-11.66-11.998l-.013.001-.013-.002-4.96.041c-.383-.278-1.387-1.093-1.759-2.24h6.293c2.756 0 4.996-2.242 4.996-4.997V14.824c0-8.107-6.594-14.701-14.7-14.701-8.107 0-14.703 6.594-14.703 14.7v7.521c-.228-.087-.473-.137-.731-.137H2.04c-1.126 0-2.04.915-2.04 2.04v22.331c0 1.126.914 2.041 2.04 2.041h13.88l-.594 1.707h-1.308c-.943 0-1.797.39-2.41 1.016-.144.146-.276.305-.391.476-.364.539-.577 1.189-.577 1.887v1.712H3.256c-1.611 0-2.922 1.31-2.922 2.923v6.418c0 1.611 1.31 2.922 2.922 2.922h69.676c1.611 0 2.923-1.31 2.923-2.922V58.34c0-1.094-.605-2.049-1.498-2.55z" mask="url(#wiwg9n9p6b)"/>
                </g>
                <mask id="cscib9tzrd" fill="#fff">
                    <use xlink:href="#oueg6so0mc"/>
                </mask>
                <path fill="#E9593D" d="M68.338 61.262L69.698 61.262 69.698 59.902 68.338 59.902zM71.06 58.559L72.42 58.559 72.42 57.199 71.06 57.199zM68.338 55.823L69.698 55.823 69.698 54.463 68.338 54.463zM71.06 53.12L72.42 53.12 72.42 51.76 71.06 51.76zM68.338 50.384L69.698 50.384 69.698 49.024 68.338 49.024zM62.899 61.262L64.259 61.262 64.259 59.902 62.899 59.902zM65.622 58.559L66.981 58.559 66.981 57.199 65.622 57.199zM62.899 55.823L64.259 55.823 64.259 54.463 62.899 54.463zM65.622 53.12L66.981 53.12 66.981 51.76 65.622 51.76zM62.899 50.384L64.259 50.384 64.259 49.024 62.899 49.024zM65.622 47.681L66.981 47.681 66.981 46.321 65.622 46.321zM57.461 61.262L58.82 61.262 58.82 59.902 57.461 59.902zM60.183 58.559L61.542 58.559 61.542 57.199 60.183 57.199zM57.461 55.823L58.82 55.823 58.82 54.463 57.461 54.463zM60.183 53.12L61.542 53.12 61.542 51.76 60.183 51.76zM52.022 61.262L53.382 61.262 53.382 59.902 52.022 59.902zM54.744 58.559L56.104 58.559 56.104 57.199 54.744 57.199zM52.022 55.823L53.382 55.823 53.382 54.463 52.022 54.463zM54.744 53.12L56.104 53.12 56.104 51.76 54.744 51.76zM46.583 61.262L47.943 61.262 47.943 59.902 46.583 59.902zM49.305 58.559L50.665 58.559 50.665 57.199 49.305 57.199zM46.583 55.823L47.943 55.823 47.943 54.463 46.583 54.463zM49.305 53.12L50.665 53.12 50.665 51.76 49.305 51.76zM41.144 61.262L42.504 61.262 42.504 59.902 41.144 59.902zM43.866 58.559L45.226 58.559 45.226 57.199 43.866 57.199zM41.144 55.823L42.504 55.823 42.504 54.463 41.144 54.463zM43.866 53.12L45.226 53.12 45.226 51.76 43.866 51.76zM41.144 50.384L42.504 50.384 42.504 49.024 41.144 49.024zM35.705 61.261L37.065 61.261 37.065 59.902 35.705 59.902zM38.427 58.559L39.787 58.559 39.787 57.199 38.427 57.199zM32.988 58.559L34.348 58.559 34.348 57.199 32.988 57.199z" mask="url(#cscib9tzrd)"/>
            </g>
        </g>
    </g>
</svg>
