<svg id="elements" xmlns="http://www.w3.org/2000/svg" width="30" height="44" viewBox="0 0 30 44"><defs><style>.cls-1{fill:#fff;}</style></defs><title>social-footer-4instagram-30x44</title><path class="cls-1" d="M15,11.75c3.34,0,3.73,0,5.05.08a6.55,6.55,0,0,1,2.32.43,4.07,4.07,0,0,1,2.37,2.37A6.55,6.55,0,0,1,25.17,17c.07,1.32.08,1.71.08,5.05s0,3.73-.08,5.05a6.55,6.55,0,0,1-.43,2.32,4.07,4.07,0,0,1-2.37,2.37,6.55,6.55,0,0,1-2.32.43c-1.32.07-1.71.08-5.05.08s-3.73,0-5.05-.08a6.55,6.55,0,0,1-2.32-.43,3.73,3.73,0,0,1-1.44-.93,3.73,3.73,0,0,1-.93-1.44,6.55,6.55,0,0,1-.43-2.32c-.07-1.32-.08-1.71-.08-5.05s0-3.73.08-5.05a6.55,6.55,0,0,1,.43-2.32,3.73,3.73,0,0,1,.93-1.44,3.73,3.73,0,0,1,1.44-.93A6.55,6.55,0,0,1,10,11.83c1.32-.07,1.71-.08,5.05-.08M15,9.5c-3.39,0-3.82,0-5.15.08a9.2,9.2,0,0,0-3,.58A6,6,0,0,0,4.6,11.6a6,6,0,0,0-1.44,2.21,9.2,9.2,0,0,0-.58,3C2.51,18.18,2.5,18.61,2.5,22s0,3.82.08,5.15a9.2,9.2,0,0,0,.58,3A6,6,0,0,0,4.6,32.4a6,6,0,0,0,2.21,1.44,9.2,9.2,0,0,0,3,.58c1.33.07,1.76.08,5.15.08s3.82,0,5.15-.08a9.2,9.2,0,0,0,3-.58,6.39,6.39,0,0,0,3.65-3.65,9.2,9.2,0,0,0,.58-3c.07-1.33.08-1.76.08-5.15s0-3.82-.08-5.15a9.2,9.2,0,0,0-.58-3,6.39,6.39,0,0,0-3.65-3.65,9.2,9.2,0,0,0-3-.58C18.82,9.51,18.39,9.5,15,9.5Z"/><path class="cls-1" d="M15,15.58A6.42,6.42,0,1,0,21.42,22,6.41,6.41,0,0,0,15,15.58Zm0,10.59A4.17,4.17,0,1,1,19.17,22,4.17,4.17,0,0,1,15,26.17Z"/><circle class="cls-1" cx="21.67" cy="15.33" r="1.5"/></svg>