<svg id="elements" xmlns="http://www.w3.org/2000/svg" width="30" height="44" viewBox="0 0 30 44"><defs><style>.cls-1{fill:#4a455c;}</style></defs><title>social-footer-1twitter-30x44</title><path class="cls-1" d="M26.87,15.93v.73c0,8.1-6.26,17.49-17.48,17.49A18.15,18.15,0,0,1,0,31.39H1.47A11.7,11.7,0,0,0,9,28.81a6,6,0,0,1-5.71-4.23c.37,0,.74.18,1.11.18a5.17,5.17,0,0,0,1.65-.18,6.32,6.32,0,0,1-5-6.08h0a5.14,5.14,0,0,0,2.77.74,6.71,6.71,0,0,1-2.58-5.15A6.21,6.21,0,0,1,2.21,11a17.18,17.18,0,0,0,12.7,6.44,3.48,3.48,0,0,1-.19-1.47A6.13,6.13,0,0,1,20.8,9.85a5.58,5.58,0,0,1,4.41,2,8.93,8.93,0,0,0,3.87-1.48,6.16,6.16,0,0,1-2.76,3.32A18.12,18.12,0,0,0,30,12.8,12.73,12.73,0,0,1,26.87,15.93Z"/></svg>