<svg id="elements" xmlns="http://www.w3.org/2000/svg" width="30" height="44" viewBox="0 0 30 44"><defs><style>.cls-1{fill:#4a455c;fill-rule:evenodd;}</style></defs><title>social-footer-5github-30x44</title><path class="cls-1" d="M15,8.35a14,14,0,0,0-4.43,27.28c.7.13,1-.3,1-.67s0-1.22,0-2.39C7.62,33.42,6.8,30.7,6.8,30.7a3.71,3.71,0,0,0-1.56-2.05c-1.27-.87.1-.85.1-.85a2.94,2.94,0,0,1,2.14,1.44,3,3,0,0,0,4.08,1.16,3,3,0,0,1,.88-1.87c-3.1-.35-6.37-1.55-6.37-6.92a5.39,5.39,0,0,1,1.44-3.75,5,5,0,0,1,.14-3.71s1.17-.37,3.85,1.44a13.3,13.3,0,0,1,7,0c2.67-1.81,3.84-1.44,3.84-1.44a5,5,0,0,1,.14,3.71,5.39,5.39,0,0,1,1.44,3.75c0,5.38-3.27,6.57-6.39,6.91a3.35,3.35,0,0,1,.95,2.59c0,1.88,0,3.39,0,3.85s.25.81,1,.67A14,14,0,0,0,15,8.35Z"/></svg>