<svg id="icons3" xmlns="http://www.w3.org/2000/svg" width="24" height="35" viewBox="0 0 24 35"><defs><style>.cls-1{fill:#ea593e;fill-rule:evenodd;}</style></defs><title>social-contact-github-24x35-junored</title><path class="cls-1" d="M12,6.64a11.13,11.13,0,0,0-3.52,21.7c.56.1.76-.24.76-.53s0-1,0-1.9c-3.09.67-3.75-1.49-3.75-1.49a2.91,2.91,0,0,0-1.23-1.63c-1-.69.07-.68.07-.68A2.35,2.35,0,0,1,6,23.26a2.38,2.38,0,0,0,3.24.93A2.37,2.37,0,0,1,10,22.7c-2.48-.28-5.08-1.24-5.08-5.51A4.34,4.34,0,0,1,6,14.2a4,4,0,0,1,.11-2.94s.94-.3,3.06,1.14a10.43,10.43,0,0,1,5.58,0c2.12-1.44,3.06-1.14,3.06-1.14A4,4,0,0,1,18,14.2a4.33,4.33,0,0,1,1.14,3c0,4.28-2.6,5.22-5.08,5.5a2.64,2.64,0,0,1,.75,2.06c0,1.49,0,2.69,0,3.06s.2.64.77.53A11.14,11.14,0,0,0,12,6.64Z"/></svg>