<svg id="elements" xmlns="http://www.w3.org/2000/svg" width="30" height="44" viewBox="0 0 30 44"><defs><style>.cls-1{fill:#fff;}</style></defs><title>social-footer-2linkedin-30x44</title><path class="cls-1" d="M25.65,9.5H4.34A1.83,1.83,0,0,0,2.5,11.3V32.7a1.83,1.83,0,0,0,1.84,1.8H25.65a1.82,1.82,0,0,0,1.85-1.8h0V11.3a1.82,1.82,0,0,0-1.85-1.8ZM9.92,30.81H6.21V18.87H9.92ZM8.06,17.24a2.15,2.15,0,1,1,1.52-.63A2.15,2.15,0,0,1,8.06,17.24ZM23.81,30.81H20.1V25c0-1.38,0-3.15-1.93-3.15S16,23.33,16,24.88v5.9H12.24V18.87h3.55v1.67h0a3.92,3.92,0,0,1,3.56-1.87c3.76,0,4.45,2.5,4.45,5.67Z"/></svg>