<svg id="icons3" xmlns="http://www.w3.org/2000/svg" width="24" height="35" viewBox="0 0 24 35"><defs><style>.cls-1{fill:#ea593e;}</style></defs><title>social-contact-instagram-24x35-junored</title><path class="cls-1" d="M12,9.35c2.65,0,3,0,4,.06a5.26,5.26,0,0,1,1.84.34,3.23,3.23,0,0,1,1.89,1.89,5.26,5.26,0,0,1,.34,1.84c.05,1,.06,1.37.06,4s0,3-.06,4a5.26,5.26,0,0,1-.34,1.84,3.23,3.23,0,0,1-1.89,1.89,5.26,5.26,0,0,1-1.84.34c-1,.05-1.36.06-4,.06s-3,0-4-.06a5.26,5.26,0,0,1-1.84-.34,3.23,3.23,0,0,1-1.89-1.89,5.26,5.26,0,0,1-.34-1.84c-.05-1.05-.06-1.37-.06-4s0-3,.06-4a5.26,5.26,0,0,1,.34-1.84A3.23,3.23,0,0,1,6.14,9.75,5.26,5.26,0,0,1,8,9.41c1-.05,1.37-.06,4-.06m0-1.79c-2.7,0-3,0-4.1.06a7,7,0,0,0-2.41.46A4.67,4.67,0,0,0,3.73,9.23,4.67,4.67,0,0,0,2.58,11a7,7,0,0,0-.46,2.41c-.05,1.06-.06,1.4-.06,4.1s0,3,.06,4.1A7,7,0,0,0,2.58,24a4.67,4.67,0,0,0,1.15,1.76,4.67,4.67,0,0,0,1.76,1.15,7,7,0,0,0,2.41.46c1.06.05,1.4.06,4.1.06s3,0,4.1-.06a7,7,0,0,0,2.41-.46A5.12,5.12,0,0,0,21.42,24a7,7,0,0,0,.46-2.41c.05-1.06.06-1.4.06-4.1s0-3-.06-4.1A7,7,0,0,0,21.42,11a4.67,4.67,0,0,0-1.15-1.76,4.67,4.67,0,0,0-1.76-1.15,7,7,0,0,0-2.41-.46c-1.06,0-1.4-.06-4.1-.06Z"/><path class="cls-1" d="M12,12.39a5.11,5.11,0,1,0,5.11,5.11A5.11,5.11,0,0,0,12,12.39Zm0,8.42a3.31,3.31,0,1,1,3.31-3.31A3.31,3.31,0,0,1,12,20.81Z"/><circle class="cls-1" cx="17.31" cy="12.19" r="1.19"/></svg>