<svg id="elements" xmlns="http://www.w3.org/2000/svg" width="30" height="44" viewBox="0 0 30 44"><defs><style>.cls-1{fill:#4a455c;}</style></defs><title>social-footer-6email-30x44</title><path class="cls-1" d="M27.41,31.5l.06,0v.89h0a1.82,1.82,0,0,1-1.85,1.8H4.31a1.83,1.83,0,0,1-1.84-1.8v-.89l.07,0,8.64-8.65L14,25.5a1.38,1.38,0,0,0,.93.36,1.4,1.4,0,0,0,.94-.36l2.85-2.65ZM2.47,14.8V27.67L9.16,21Zm25-3.74v0a1.82,1.82,0,0,0-1.85-1.8H4.31A1.83,1.83,0,0,0,2.47,11v0L15,22.62ZM20.79,21l6.68,6.68V14.8Z"/></svg>