<svg xmlns="http://www.w3.org/2000/svg" xmlns:xlink="http://www.w3.org/1999/xlink" width="63" height="80" viewBox="0 0 63 80">
    <defs>
        <path id="rdgg8fn1ta" d="M0 0.043L62.632 0.043 62.632 78 0 78z"/>
    </defs>
    <g fill="none" fill-rule="evenodd">
        <g>
            <g>
                <path fill="#E9593D" d="M50.488 44.633L51.876 44.941 52.186 43.553 50.796 43.245zM53.878 42.5L55.266 42.809 55.576 41.421 54.186 41.112zM51.723 39.076L53.113 39.385 53.422 37.997 52.033 37.688zM55.113 36.944L56.503 37.252 56.812 35.864 55.423 35.556zM54.658 32.44L53.268 32.131 52.96 33.519 54.348 33.828zM56.35 31.387L57.738 31.696 58.048 30.308 56.658 29.999zM55.893 26.883L54.505 26.575 54.195 27.963 55.585 28.272zM57.585 25.831L58.975 26.14 59.283 24.751 57.895 24.443zM57.129 21.327L55.741 21.018 55.431 22.407 56.82 22.715zM45.85 52.377L47.238 52.687 47.548 51.297 46.158 50.989zM43.695 48.953L45.085 49.263 45.393 47.873 44.005 47.565zM47.085 46.82L48.475 47.13 48.783 45.741 47.395 45.432z" transform="translate(-813 -8075) translate(813 8075)"/>
                <g>
                    <path fill="#E9593D" d="M51.877 30.196l.306.068.308-1.39-.583-.129c.01.481-.003.964-.031 1.451M53.727 23.318L52.339 23.008 52.029 24.398 53.418 24.707zM49.92 20.771c.04.078.07.16.109.237l1.234.275.31-1.389-1.39-.31-.263 1.187zM54.963 17.762L53.574 17.452 53.264 18.842 54.654 19.15zM52.809 14.338L51.421 14.028 51.111 15.418 52.499 15.726zM36.903 53.077L38.291 53.385 38.601 51.997 37.212 51.688zM40.293 50.944L41.682 51.253 41.991 49.864 40.602 49.556zM47.738 17.471c.05.06.102.114.151.176l1.21.267.308-1.388-1.39-.309-.279 1.254zM47.252 13.102L45.864 12.793 45.554 14.182 46.944 14.49zM50.642 10.969L49.254 10.661 48.944 12.049 50.332 12.358zM48.489 7.546L47.099 7.237 46.79 8.625 48.178 8.934zM33.501 55.265L34.89 55.574 35.199 54.185 33.81 53.875zM31.347 51.84L32.735 52.15 33.045 50.761 31.655 50.452zM34.737 49.708L36.125 50.018 36.435 48.628 35.045 48.32zM41.696 11.866l-1.388-.31-.105.47c.453.176.898.364 1.33.572l.163-.732zM45.086 9.734L43.698 9.424 43.388 10.813 44.776 11.122zM42.932 6.31L41.543 6 41.234 7.39 42.622 7.698zM25.79 50.605L27.179 50.914 27.489 49.525 26.099 49.216zM36.14 10.63l-1.389-.309-.111.497c.476.028.95.066 1.427.133l.073-.321zM39.53 8.498L38.141 8.189 37.831 9.577 39.221 9.886zM37.376 5.074L35.986 4.765 35.678 6.153 37.066 6.462zM22.388 52.793L23.777 53.102 24.087 51.713 22.697 51.403zM20.234 49.369L21.622 49.679 21.932 48.289 20.543 47.98zM30.583 9.394L29.195 9.084 28.885 10.474 30.275 10.783zM33.973 7.262L32.585 6.952 32.275 8.342 33.665 8.65zM31.819 3.838L30.43 3.528 30.121 4.918 31.509 5.226zM18.068 46.001L19.456 46.309 19.766 44.921 18.376 44.612zM15.914 42.577L17.302 42.885 17.612 41.497 16.222 41.188zM25.027 8.158L23.638 7.85 23.329 9.238 24.718 9.547zM28.417 6.026L27.029 5.717 26.718 7.105 28.108 7.414zM12.511 44.765L13.9 45.074 14.21 43.685 12.82 43.375zM10.357 41.341L11.746 41.651 12.055 40.261 10.667 39.952zM13.747 39.208L15.136 39.518 15.445 38.128 14.057 37.82zM11.593 35.784L12.981 36.094 13.291 34.705 11.902 34.396zM16.999 18.035L15.61 17.725 15.3 19.115 16.69 19.424zM18.235 12.479L16.845 12.169 16.537 13.559 17.925 13.867zM21.625 10.347L20.235 10.036 19.927 11.426 21.315 11.735zM19.47 6.923L18.082 6.613 17.772 8.002 19.162 8.311zM11.124 31.336L9.736 31.027 9.426 32.416 10.816 32.724zM7.272 28.992L8.662 29.301 8.97 27.912 7.582 27.604zM10.662 26.86L12.052 27.168 12.36 25.78 10.972 25.471zM13.596 20.223L12.208 19.914 11.898 21.303 13.287 21.611zM11.442 16.799L10.054 16.491 9.744 17.879 11.134 18.187zM14.832 14.667L13.444 14.358 13.134 15.747 14.524 16.055z" transform="translate(-813 -8075) translate(813 8075) translate(0 .197)"/>
                    <path fill="#E9593D" d="M52.126 33.392c.098-.44-.18-.878-.621-.976-.44-.089-.877.18-.976.621-.784 3.527-2.607 6.68-5.278 9.118-3.448 3.15-7.924 4.769-12.581 4.557-4.667-.21-8.97-2.227-12.12-5.676-6.501-7.12-6.001-18.2 1.12-24.704 1.14-1.047 2.418-1.935 3.793-2.638.403-.207.562-.7.357-1.1-.013-.025-.034-.038-.048-.06.435-.207.874-.405 1.326-.577l.083-.375-1.39-.308-.23 1.034c-.24-.17-.561-.215-.843-.072-.71.363-1.39.78-2.047 1.23l-.27-.06-.066.303c-.615.44-1.212.905-1.77 1.417-.234.214-.441.447-.661.669L19 15.593l-.31 1.39.106.023c-1.628 1.947-2.813 4.149-3.544 6.472l-.878-.196-.309 1.389.798.178c-.329 1.4-.482 2.831-.493 4.264l-1.232-.275-.309 1.39 1.39.309.152-.691c.136 4.408 1.772 8.79 4.971 12.294 1.375 1.504 2.956 2.747 4.676 3.726l-.085-.019-.31 1.39 1.39.308.229-1.03c1.292.614 2.657 1.071 4.067 1.381l-.128.577 1.388.308.138-.613c.622.09 1.252.15 1.888.178.297.014.592.02.887.02 1.784 0 3.534-.245 5.213-.723l.833.186.11-.5c2.4-.818 4.63-2.106 6.572-3.845l.11.024.031-.142.005-.003c.768-.702 1.468-1.46 2.105-2.266l1.249.28.31-1.39-.649-.143c1.299-1.949 2.239-4.124 2.755-6.452" transform="translate(-813 -8075) translate(813 8075) translate(0 .197)"/>
                    <g transform="translate(-813 -8075) translate(813 8075) translate(0 .197)">
                        <mask id="4z7mcm77db" fill="#fff">
                            <use xlink:href="#rdgg8fn1ta"/>
                        </mask>
                        <path fill="#E9593D" d="M60.845 29.246c-.132.523-.347 1.032-.666 1.496-.505.775-.9 1.603-1.205 2.46l-.15-.032-.308 1.388.055.013c-.31 1.395-.367 2.848-.15 4.292.004.017.002.033.005.05l-.838-.187-.308 1.388 1.145.256c-.24 1.47-1.186 2.78-2.585 3.448-2.211 1.092-3.957 2.873-5.094 5.049l-1.185-.264-.309 1.39.839.186c-.782 1.79-2.642 2.92-4.601 2.764-.384-.024-.766-.024-1.148-.01l-.011-.039-.201.055c-.3.016-.597.039-.893.078l-.468-.104-.042.192c-1.87.334-3.646 1.115-5.169 2.32-1.582 1.306-3.868 1.405-5.573.225-.937-.615-1.947-1.081-3.001-1.4l.35.077.308-1.388-1.388-.309-.309 1.384c-.756-.153-1.523-.26-2.3-.26-.593 0-1.19.045-1.785.138-2.023.342-4.054-.726-4.94-2.604-.12-.24-.286-.447-.422-.677l.031-.144-.14-.032c-.606-.983-1.323-1.88-2.18-2.639l.166-.753-1.39-.309-.024.113c-.29-.194-.597-.359-.904-.528l-.29-.243-.057.068c-.31-.158-.602-.343-.93-.473-1.928-.714-3.156-2.645-2.983-4.716.054-.949-.018-1.891-.189-2.811l.28-1.262-.621-.138c-.355-1.113-.885-2.168-1.565-3.14l.032-.146-.161-.035c-.096-.131-.183-.267-.283-.393-1.302-1.584-1.398-3.871-.226-5.577.802-1.225 1.353-2.575 1.647-3.982l1.187.264.308-1.39-1.3-.288c.075-.902.055-1.814-.084-2.725-.334-2.032.729-4.067 2.607-4.96 2.561-1.302 4.544-3.496 5.58-6.186.67-1.799 2.394-2.987 4.303-3l-.15.674 1.39.308.216-.965c2.493-.068 4.91-.938 6.896-2.507 1.156-.943 2.672-1.23 4.059-.87l-.213.95 1.39.309.148-.67c.056.037.115.062.168.1l.028.02c2.399 1.56 5.278 2.184 8.122 1.757.498-.083.992-.08 1.47-.005l-.212.96 1.39.31.184-.83c.907.454 1.668 1.2 2.125 2.167 1.284 2.562 3.458 4.556 6.14 5.619.065.024.123.061.187.088l-.15.675 1.389.308.038-.166c.567.514.995 1.16 1.253 1.882l-.204-.044-.31 1.388.78.174c.001.134.012.268.001.405-.178 2.86.703 5.671 2.492 7.934.637.767.982 1.7 1.04 2.651l-.919-.205-.308 1.39 1.093.243zm-13.02 43.077l-9.467-2.779c-.257-.073-.544-.018-.755.158l-7.205 6.025-5.295-20.272c2.107-.116 4.2.402 5.968 1.562 1.069.738 2.313 1.103 3.553 1.103 1.416 0 2.826-.475 3.96-1.413 1.332-1.054 2.898-1.715 4.542-1.99l4.698 17.606zm-31.122.36l-3.972-8.507c-.115-.248-.346-.42-.616-.463l-9.738-1.51L14.094 48.24c1.413.956 2.583 2.24 3.356 3.772 1.087 2.312 3.489 3.697 5.993 3.56l1.811 6.933-8.551 10.176zM61.21 24.137c-1.529-1.931-2.285-4.347-2.132-6.788.224-2.774-1.439-5.39-4.032-6.355-2.288-.907-4.158-2.62-5.252-4.807-1.194-2.52-3.95-3.964-6.685-3.503-2.431.369-4.9-.17-6.96-1.504-2.271-1.605-5.36-1.503-7.51.25-1.934 1.528-4.342 2.281-6.805 2.131-2.766-.224-5.39 1.455-6.354 4.055-.89 2.304-2.592 4.188-4.774 5.296-2.513 1.197-3.952 3.949-3.5 6.687.374 2.433-.163 4.907-1.501 6.952-1.572 2.287-1.44 5.38.31 7.513 1.528 1.932 2.29 4.348 2.15 6.786-.233 2.778 1.431 5.395 4.028 6.357.155.061.293.156.444.224L.192 62.262c-.19.226-.243.538-.14.814.105.276.35.474.64.52l10.74 1.668 4.332 9.27c.118.254.356.43.633.467.035.004.072.006.107.006.24 0 .47-.106.626-.292l8.632-10.269 3.38 12.944c.07.27.274.486.54.57.084.028.167.04.251.04.19 0 .375-.065.525-.189l7.86-6.574 10.44 3.067c.287.083.59.006.803-.2.21-.206.295-.51.219-.796L44.785 54.59c.196 0 .39-.03.59-.016 2.784.213 5.395-1.45 6.353-4.047.91-2.29 2.628-4.152 4.826-5.24 2.512-1.198 3.944-3.951 3.483-6.683-.367-2.433.17-4.909 1.501-6.955 1.575-2.291 1.436-5.387-.327-7.512z" mask="url(#4z7mcm77db)"/>
                    </g>
                    <path fill="#E9593D" d="M38.403 31.489c-.23.14-.374.387-.39.655l-.31 6.426-4.904-4.147c-.148-.126-.337-.193-.527-.193-.07 0-.143.01-.213.028l-6.205 1.678 2.433-5.944c.1-.25.073-.532-.073-.757l-3.513-5.384 6.396.48c.278.022.53-.094.7-.302l4.03-5.006 1.522 6.24c.064.262.253.475.503.57l6.009 2.29-5.458 3.366zm-1.377-14.464c-.074-.303-.315-.537-.618-.605-.303-.072-.62.042-.814.286l-4.801 5.962-7.619-.572c-.318-.015-.608.13-.765.398-.16.268-.153.602.017.864l4.184 6.412-2.897 7.077c-.117.289-.062.619.144.852.206.232.526.33.826.248l7.389-1.999 5.839 4.942c.15.126.338.193.527.193.11 0 .222-.022.327-.068.285-.124.476-.4.49-.71l.373-7.651 6.502-4.008c.265-.165.415-.464.385-.774-.029-.31-.232-.577-.522-.688l-7.156-2.725-1.811-7.434z" transform="translate(-813 -8075) translate(813 8075) translate(0 .197)"/>
                </g>
            </g>
        </g>
    </g>
</svg>
