<svg id="elements" xmlns="http://www.w3.org/2000/svg" width="675" height="170" viewBox="0 0 675 170"><defs><style>.cls-1{fill:#deebe7;}</style></defs><title>quote-bg2-seaglass</title><path class="cls-1" d="M468.84,10.67c0-.29.36-.27.59-.37C469.46,10.6,469.08,10.58,468.84,10.67Z"/><path class="cls-1" d="M470.71,10.48c-.17-.14.19-.4.28-.33S470.81,10.56,470.71,10.48Z"/><path class="cls-1" d="M500.73,8.65c0-.28.36-.27.59-.35C501.34,8.59,501,8.57,500.73,8.65Z"/><path class="cls-1" d="M502.29,8.5c-.18-.14.19-.4.28-.33S502.38,8.58,502.29,8.5Z"/><path class="cls-1" d="M508.53,7.89c-.11-.64,1.09-.24,1.53-.45A1,1,0,0,1,508.53,7.89Z"/><path class="cls-1" d="M526.75,7.31c-.37.93-1.26-.27-2.19.21C524.72,6.36,526.16,7.07,526.75,7.31Z"/><path class="cls-1" d="M531.18,7.48c-.18-.14.19-.4.27-.33S531.27,7.55,531.18,7.48Z"/><path class="cls-1" d="M533.39,7.57c.05-.22-.95-.15-1-.21C532.3,6.94,533.45,6.51,533.39,7.57Z"/><path class="cls-1" d="M546,10.55c7.92-1.17,13.73-1.4,21.15-3.47l2.5-.24c.62-.53,2.06-.4,2.77-.85l3.13-.29a1.45,1.45,0,0,1,.91-.39L579.55,5a1.6,1.6,0,0,1,.92-.39l2.19-.2c.75-.61,2.46-.46,3.05-1.19-.32-.22-1.16-1.48-1.62-.45-.92,0-.9.76-1.83.77A111.86,111.86,0,0,0,567.91,5.5c-.31,0-.28-.35-.37-.57l-.63.06C556,6.32,547.77,8.12,536.37,9.08c-.7.66-2.58.54-3.43.34-3.52.21-7.57,1-10.64.74-2.44.68-5.47-.09-8.77.55a1.51,1.51,0,0,1-.9.4l-1.25.12-1.25.12c.09.34.59.19,1,.2l.94-.09,4.68-.46a1.53,1.53,0,0,0,1,.21l3.74-.36a1.53,1.53,0,0,0,1,.2l1.87-.19c.5,0,1.17-.25,1.27.18-5.95.5-11.61.66-17.8,1.44,0-.72-1.41.31-1-.79-.71-.11-.39.61-.88.68-1.57-.5-4.24.27-6.26.32-.36.08-.56,0-.66-.23a3.78,3.78,0,0,1-2.8.28c-.29.6-1.33.42-1.84.48a25.13,25.13,0,0,1-3.45,0c-.37,0-.15.29-.28.33s-.8-.45-1.28-.17a13.9,13.9,0,0,1-3.11.31c-.4.61-2,.25-2.43.85-.12,0-2.69-.63-3.15,0-.28.42-.39,0-1.55.15-.82.15-1.13.63-2.18.22a2.12,2.12,0,0,1-1.53.46c-.93.31-1-.43-1.89-.11a1.89,1.89,0,0,1-1.22.42l-5,.51c-1.11.71-2-.12-2.75.87.5,0,1.18-.26,1.28.17l-1.56.16c.07-.52-.29-.54-.68-.53-1.88,0-2.53.37-4.39.14-.56.05-.62.39-1.22.42.05,0-.14-.27-.34-.26-.44,0-.87.17-1-.21-3.51,1-8.62,1-12.41,1.58a2.5,2.5,0,0,0-.63.06s.05.29,0,.3c-.58.15-1.28-.3-2.17.22l-4,.42c-2.17,1-6.46.46-8.64,1.49-3.62.17-6.49,1-8.71.9-.76.68-2.85.34-3.67,1-3.07.16-6.74,1-9.36.66-.37,1-1.33.27-1.8.79-.34-.16-.4-.65-1-.5.16.49-.19.59-.57.66-.76.37-1.67-.13-2.51,0,.07,0-.12.31-.28.33a19.39,19.39,0,0,1-3.11.33c-.55,0-.69-.22-1.27-.18-.85.08-1.66.73-3.08.63-.73,0-.41-.16-1.24.13a36.16,36.16,0,0,1-7.77.81c-.55,0-.69-.23-1.27-.17a1.54,1.54,0,0,1-.9.4c0,.3-.51.43-.62.06l.62-.06c-.6-.63-2.38.13-3.45.05-.86-.09-2.43.64-2.83,0-.61-1.13,1.34-.25,1.15-1a63.55,63.55,0,0,1-7.42,1.08c-1.88,1-5.81.41-7.71,1.41l-5,.51c-1.87,1-5.8.42-7.7,1.41-1.78.34-4.31.11-5.55.88,0,0,0,.29,0,.3,1.3-.33,4.53-1.26,5.62-.29L346,31.5c-1.68,1-5.37.39-7.08,1.35-3.85.28-6.59,1.44-10.49,1.7a1.51,1.51,0,0,1-.9.39c-3.91.31-6.15,1.27-10.49,1.7a1.65,1.65,0,0,0-1-.2l-3.41.36-3.41.36c0,.65,1.11,0,1.58.13l1.55-.16,1.87-.2c.49,0,1.17-.26,1.27.18-4.58.55-10,2.29-15.49,1.92l-1.86.2c-.47-.12-1.57.51-1.58-.14.62-.24,2.07.16,2.14-.53-3-.14-4.43.37-7.72,1.12-1.14.21-2.78,0-3.39.65,0-.65-1.11,0-1.58-.13-.66-.06-.8.29-1.21.43-.21-.66-1.55,0-2.21-.07l-7.44.78a1.51,1.51,0,0,0-1-.21c-.12.48-.33.06-.34-.26-1.05-.26-.14,1-1.18.73-4.15.61-9.1.59-12.69,1.63a1.76,1.76,0,0,0-1.27-.17c-8.79,2-19,2.41-27.17,4-.64.36-1.39-.15-2.2-.06.15,0-.22.3-.28.32-2.74,1-7.64.29-11.16,1.16l-1.86.2c-.5,0-1.17.27-1.28-.16l6.82-.72a8,8,0,0,1,4-.72c.35-.55,1.86-.2,1.77-1.09-12.77,1.82-24.9,4.18-38.63,5.23-.3,0-.27-.35-.37-.57-1,0-.6,1-1.79.79-3.06.16-6.72,1-9.33.66a1.6,1.6,0,0,1-.9.4c-.2-.66-1.54,0-2.2-.08-.82.08-1.76.29-2.2-.08-.06.68-1.52.28-2.14.52-2.44,0-5.39.91-8.08.54-1.07.37-.76.11-1.84.48-.95-.31-1.33.32-2.78.29l-3.41.35c-2.22.8-3.4.78-6.14,1.23-.29.35-2.14.84-2.48.25.49-.08,1.2,0,1.22-.41-1.43.14-3.08.14-3.66,1,.66.11,2-.57,2.2.08-.44,0-.89,0-.9.4a6.38,6.38,0,0,0,2.45-.55c2,.28,4.28-1.1,7.09-1a1.51,1.51,0,0,1,.9-.4c2.61-.13,4.1-.73,6.2-.64.89.16.75-.5,1.52-.45a16.27,16.27,0,0,0,6.82-.7c.29.65,1.74-.07,2.5,0l5.58-.58c.66.12,2-.57,2.2.08-7,.2-12.12,2.39-17.94,2.15-3.06,1.17-8.34.61-11.41,1.77l-6.19.63c-.18-.43-.38.16-.93.09.85-1-1.2-.48-1.23.13,1-.25,1.14.43,2.19.08.66.11,2-.58,2.2.08-.55.66-1.75.36-2.48.25-1.07,1.14-2.41.4-4,1-.64-.35-1.79-.1-2.53-.35-.31.58-1.59.4-2.11.82a8,8,0,0,0-3.06.61c-.74.19-.73-.48-1.58-.14-.33.1-.15.61-.56.65-.62.06-.48-.77-1.3-.47-.18,1-.56.21-1.51.46a10.56,10.56,0,0,1-3,.9c-.77.13-1-.37-1.61-.43,0,.85-2.15,0-2.1.81.43-.07.86-.14,1,.21-.56,0-1.52.44-1.3-.48-3.53.83-8.52.54-12.66,1.58.81,1.11,2-.31,3.15.28.19-1,.7-.1,1.18-.72,1.87.47,4.84-.36,7.16-.41.27.22.86.09,1,.5.73-.07.86-.61,1.83-.49.81.31,1.44-.82,1.55-.16-.43,1.13-3,.57-3.94,1.31-.08-.35-.58-.2-1-.21,0-.35-.12-.53-.36-.57-.32.58-1.59.4-2.11.82-.84.11-.68-.44-1.24.12,0,.78-.57-.35-1.24.13-.79.2-.84,1-1.77,1.08l-4,.4a1.45,1.45,0,0,1-.89.39c-1.43.2-2.85.24-4.33.43-.09,0-.58,0-.62.06s.05.3,0,.3c-.38.11-.57-.25-.64-.23-.71.13-.93.36-1.52.44-1.63.24-3.32.32-4.94.48a30.22,30.22,0,0,1-4,.4A1.76,1.76,0,0,1,89,68c-.6-.07-1.09.32-.59.37l1.24-.13c.65.12,2-.56,2.19.1l-3.4.33c-.92.27-2.7-.13-3.06.59.46.12,1.56-.51,1.57.15-1.1.6-3,.54-4.61.75a1.51,1.51,0,0,1-.9.39,2.73,2.73,0,0,0-1.82.47c-.14-.39-.8-.17-1.27-.17s-1.19,0-1.21.41c1.35-.46,1.2.82,1.69,1.35a2.05,2.05,0,0,0-1.52.45l-5.56.54a2.24,2.24,0,0,0-1.86.18c.15-.84-1.44.35-1.29-.48,0-1.06,1.22.64,1.2-.42-1-.56-3.31.35-4.38-.17,0,.35-.54.31-.9.38l-2.78.26c-.62.25-2.19-.27-1.79.78a11.89,11.89,0,0,1,3.42,0l1.85-.18c.5,0,1.17-.26,1.27.18-2,.26-3.94.54-5.17,1.39-.2-.65-1.53,0-2.19-.1L57,75.54c-2,1-3.44,1.89-5.78,1.44,0,.35-.54.31-.9.38a1.44,1.44,0,0,1-.9.38c-.85.33-.84-.35-1.57-.15a8.1,8.1,0,0,1-4,.66c.19.71-1.42,0-.84,1,1.61-.72,4.31-.58,6.45-.89.85.47.92-.21,1.88.13.85.11,2.41-.6,2.8,0-3.47.51-6.15,1-9.51,1.48-1.44-.44-2.45.66-3.45-.29A1.15,1.15,0,0,1,40.09,81l-1.23.11c-.35.08-.14.31,0,.29.56.13,1.78-.52,1.87.13-.43.2-1.62-.2-1.51.44,1-.34,1,.38,1.59.45.17-.69,1.73-.27,2.45-.52.82.51,1.23-.57,1.87.13-.57,0-.63.29-.24.62a1.56,1.56,0,0,0-.91.39c-1.45.26-1.71-.87-3.17-.62.1.15-.78.51-.56.66s2.69-.4,1.6.45a1.55,1.55,0,0,0-1-.21c.21.25.42.5,0,.6-.73.07-.95-.43-1.88-.13l-.93.08c-.34.1-.14.32,0,.31.56.11,1.78-.53,1.88.12a73,73,0,0,1-8.62,1.09c-.28.61-1.38.55-1.77,1.07a7,7,0,0,1,2.8,0,2.76,2.76,0,0,1,1.83-.47c.46.12,1.57-.49,1.57.16a6.6,6.6,0,0,1-3.66.93c-.2.73,1.2,1.2.45,1.47a10.53,10.53,0,0,1-5.84.82c-1.16-.12-1.27.61-2.43.49-.11-.36-.64-.25-.62,0,.24.51,1.46-.14,1.59.47-4.79.75-10,2.19-15,1.84,0,.93,1,.82,1.91.75L15,92.8c.74-.19.72.49,1.57.18,2.64-1.17,6.49.19,9.21-1.07l4.62-.39c.76,0,.62-.6,1.52-.44.49,0,1.17-.25,1.26.19-.53.22-1.85-.2-1.82.47.43-.07.87-.14,1,.21.55,0,1.73-1,2.17-.2-1.6,0-2,1-3.33,1.21-.55.09-.68-.3-1.26-.19a5.79,5.79,0,0,1-3.37.58c-.55,0-.61.42-1.2.4-.44.2-1.63-.22-1.52.43.44-.07.87-.12.95.22l-1.85.15c-.36.91-3.09-.12-3,1.15,1.72.26,1.84-.19,3.36-.58.46.13,1.57-.48,1.57.18.53-.63,1.12-.19,1.85-.16.07-.67,1.51-.24,2.13-.47.81-.06,1.8-.32,1.9.43-1.92-.09-3.12,1-4.63.39a18.08,18.08,0,0,1-7,1.48c-.65.59-2.31.34-3,.85l-1.23.1c-.34.09-.14.32,0,.31l1.85-.16c.55,0,1.73-.95,2.16-.17-2.18.72-5.43.55-6.67,2,.89-.11,2,0,2.45-.49.75.12,2.2-.57,2.49.09-.49.07-1.19-.05-1.21.4.49,0,1.16-.24,1.26.19-.44,0-.88,0-.91.38a10.67,10.67,0,0,0,3.69-.6l1.85-.16c.39.07,1.9-.2.9-.37-.46-.13-1.56.48-1.57-.17,1.1.14,2.26-1.09,3.09-.26-.44,0-.88,0-.9.38.67-.47,1.22.68,1.23-.1a1.86,1.86,0,0,1,1.21-.41,2.1,2.1,0,0,1,1.57.18c0-.66,1.3-.23,1.83-.46.77-.1.91-.64,1.26.2-1.05.72-3.33.43-4.91.71a5.28,5.28,0,0,1-3.38.58c-.61,0-.32.85-1.19.69l-2.15.18c-.58.65-.62-.08-1.26-.19.18.9-1,.7-1.48,1L13,102c-.61.52-2,.37-2.74.82L8.1,103c-.44.2-1.63-.22-1.52.43.6.72,2.87-.44,3.44.32.6-.71.9.07,1.86-.16.66.07.8-.27,1.21-.4a1.82,1.82,0,0,0,1.26.2c.26-.21.52-.41.62,0,.65.12,2-.54,2.19.11-1,.22-2.71-.17-2.74.83,1.63-.71,4.33-.54,6.48-.83.72,0,.86-.59,1.82-.46.49-.16,1.14,1,.42,1.18-.5-.09-.35-.92-1.29-.5a24.7,24.7,0,0,1-7,1.48c-4,1.32-9.1,1.67-13.17,2.89.23,1.25,2.11.65,3.18,1l1.24-.1c.76.05.64-.61,1.53-.43.61.07,1.1-.3.6-.36-.89-.2-2.86.86-2.84-.36,2.11,0,4.25-.71,5.58-.46.24-.31,1.92-.8,2.17-.18a2.08,2.08,0,0,0-1.53.42c-.73.25-2.27-.18-2.46.51.89,0,1.34.44,2.22.42l6.51-.53a1.41,1.41,0,0,1,.9-.38c1.46.24,2.67-1.15,3.72-.31-.81.51-1.85.29-2.76.53-1.27.33-2.51,1.12-3.63,1.5l-1.85.15c-.44.2-1.63-.22-1.53.43.5,0,1.17-.24,1.26.2a8.07,8.07,0,0,1,3.08-.56c.95,0,2.38-.53,2.53.39a6,6,0,0,1-3,1.15c-.61,0-.33.85-1.19.7a6.34,6.34,0,0,0-2.46.5,8.23,8.23,0,0,0-3.08.56c-.25-.19-1.58-.62-1.21.4-.93,1,.82.16,1,.82-.82.07-1.83,0-1.81.75.76.44.93,1.56,1.43,2.29l5-.41c.82.26,1.41-1,1.87-.15-.77,1-3.41.56-4.26,1.55,2,.89,4.83-.16,7.16-.59.22.28.73.25.69.84,1.23-.51,1,.57,1.92.44l3.73-.31c.61.08.34,1.14,1.32.8a6.35,6.35,0,0,0,2.47-.5c.86.11,2.44-.59,2.83.06-1.72,1-4.19,1-6.47,1.44-.27,0-.47.3-.9.37-.85.14-2.54-.09-3.09.56l.93-.08,8.41-.69c1.6.06,2.33-.93,2.85.35a19.2,19.2,0,0,1-2.12.79c-.73.24-2.29-.19-2.47.51.65-.2.63.37.7.84A20.62,20.62,0,0,1,23.56,124c-.66.58-2.34.34-3.07.85l-1.25.1c-.35.09-.15.32,0,.31,1.06-.11,2.17-.27,2.55.39-.37,0-.55.11-.6.34a55,55,0,0,1,7.46-.91c1.41,0,3.65-.85,3.83.58-1.27-.1-1.76.44-2.79.53-.3.23-.26.72-.88.68-3.17,0-5.28.93-8.41,1-.66.3-1,.86-2.14.77-.05.33-.6.26-.58.65-.33.1-.16.61-.57.65a3.26,3.26,0,0,0-2.45.8c.55.17,1.18-.34,1.85-.45.88-.15,2-.38,2.52.09-.54-.06-.57.28-.57.65a37.81,37.81,0,0,0,4.33-1c.57.23,1.57,0,1.92.44l-1.8,1.06a.85.85,0,0,0-.89.67c-.44,0-.89,0-.91.37,2.5-.3,4.28-1.18,6.81-1.46a2.13,2.13,0,0,1,.88-.67c1.58,0,2.13-.88,3.71-.9.32.29,1.15,0,1,.8.47.12,1.58-.5,1.59.16-.23.28-.84.25-.89.69.64.49.79-.05,1.56-.15.58,0,.28,1,.73,1.13-.81-.08-1.13-.29-1.53.44.36.08.84.45.36.58-1.19.06-1.43.89-2.41,1.12-.64.23-2.1-.2-2.17.48.8.5,1.49-.46,2.53.08-.09-.47,1.88-.65,1.87-.17l-1.87.17c-.38.63-1.91.32-2.45.81l-1.88.15c-.6.09-.14,1-.87,1-.51,0-.52.32-.92.38-3.64.5-6.17,1.89-10.25,2.05a1.56,1.56,0,0,1-.92.37,60.13,60.13,0,0,0-7.49,1.21c-1.57.33-2.34-.42-3.11.57,4.63.14,8.17-1.9,12.22-1.32a1.84,1.84,0,0,1,1.23-.39l2.2-.18c.47.12,1.6-.49,1.59.16-.5.07-1.21,0-1.23.41a13.82,13.82,0,0,0,3.14-.26l1.89-.16c.46.12,1.59-.48,1.59.17a.86.86,0,0,0-.89.67c.5,0,1.19-.24,1.28.2-.48.16-.19,1-1.21.7l-1.57.13a2.79,2.79,0,0,1-1.85.46c0,.79-1.59.39-1.82,1a2.44,2.44,0,0,0,2.25.42c.31.42.55.91,1.34.79,2-.4,3.85.09,5-.41.27.57,1.75-.22,1.93.43.18-.18,1.44-.82,1.58-.13-1-.17-.34,1-1.18,1-4.46.88-9.11,1.6-13.75,2.33.2.82-1.15.38-1.19,1,2.95-.05,4.87-.92,7.86-.94,1.82-1,5.66-.29,7.5-1.23.87.48,1-.2,1.91.13a2.2,2.2,0,0,1,1.54-.43c.47.12,1.58-.5,1.59.15-2,0-3.08.89-4.62,1.32-2.86,0-4.67.9-7.54.92,0,.36-.55.3-.92.38s-.16.61-.58.65l-2.2.18a1.53,1.53,0,0,1-.92.38L20,150.1c-.25.82-2.76-.18-2.45,1.1.89.37,2.71-.49,4.42-.36a1.54,1.54,0,0,1,.92-.38l4.41-.36c.62.07.64.8,1.63.47a19.65,19.65,0,0,1,5.34-.75c.6.06,1.07.65,1.61.46a51.54,51.54,0,0,1,8.11-1l.08.9c.5,0,1.18-.26,1.28.17,2.57-.27,4.46-1.08,7.14-1.25a21.5,21.5,0,0,0,2.27.7c-.47-1,2.05-.94,2.17-.51-.44.18.05.27.05.6-.44,0-.89,0-.91.38.57.23,1.57,0,1.93.43a.3.3,0,0,0,.06.6c-.07-.37.44-.23,0,0-.11.49,2.37,0,3.18.3,0-.36,0-.71.58-.65a7.2,7.2,0,0,1,2.84,0c.7-.35,1-.11,2.16-.5.87.11,2.45-.61,2.85,0-2.87.22-5.67,1.65-8.43,1.07.4,1.06-1.19.53-1.82.77.16.5-.19.59-.57.65s-.16.62-.57.66c.7.63,2.61-.13,3.79,0a1.44,1.44,0,0,1,.9-.38c.88.1,2.45-.61,2.85,0,0,.31-.37.25-.59.35a3.71,3.71,0,0,1-1.52.74l-2.19.2a1.84,1.84,0,0,1-1.22.42c-.62-.07-1.12.31-.61.35s1.82-.52,1.91.13c-1.32.05-2,.64-3.07.88-1.14,0-.38.59.34.28.56,0,.63-.43,1.22-.42a4.26,4.26,0,0,0,3.48,0c.3,0,.27.34.37.56,1.23-.78,2.35,0,4.07-.37.57,0,.63-.42,1.23-.42l10-1c.57-.56.4,0,1.25-.12.16-.42.61-.62,1.19-.72a64.77,64.77,0,0,0,9-1.18,12.3,12.3,0,0,1,3.11-.3c.31,0,.51.23,1,.21a60.36,60.36,0,0,0,8.74-.85,5.51,5.51,0,0,1,2.15-.51c-.06,0,.19.49.34.27s.79-.37,1.84-.49a20.93,20.93,0,0,1,3.43-.33c.35,0,.28.58.69.54,0,0-.09-.56-.06-.6.47-.54,3.11.22,3.73-.38.42.07.55.48,1,.52a.85.85,0,0,1,.87-.7c.2.66,1.55,0,2.21.08l2.18-.22c1.44,0,3.47-.74,4.1.18-.73.18-3.58.11-2.77.59l5.92-.6c.48-.15-.33-.49.25-.62,1.25.33,3.71-.86,5.32-.24.5-.71,2.55-.2,3.05-.91.36.84.5.29,1.27.18.87-.34.85.33,1.59.13-.11-.64,1.09-.24,1.53-.45,1.63.31,4.62-1,6.56-.36a1.42,1.42,0,0,1,1.19-.72c2.71-.5,3.58.23,5.61-.57a1.75,1.75,0,0,0,1.27.18c.76.1,2.22-.61,2.51,0-.81.09-1.78.07-2.14.52-.41,0-2.26.18-1.21.42.46.13,1.57-.51,1.58.15-1.45-.25-3.14,1.06-3.45,0,.44,0,.89,0,.9-.39-1.42-.2-1.17.91-2.08,1.11-.64.19-.85-.12-1.28-.17,0,.66-1.3.26-1.84.49-.33-.17-.39-.65-1-.51-.9.13-2.06.05-2.46.56-.6,1-2-.15,0,0-.4-.65-2,.08-2.83,0-.14.67,1,.86-.23.93-1.13.55-.19-1.33-1.33-.78-.57.29-.13.92-.9.4,0,.66-.72.72-1.5.75,0-.33.6-.26.57-.66-1.53-.27-.66,1.33-2.1,1.11.05-.33.6-.26.57-.66-1-.12-.87.62-1.84.5,0-.43,0-.86-.41-.87.08.43.14.84-.22.93-1.1.55-2.81-.19-4,.7a2.1,2.1,0,0,0-1.58-.14c-.54,0-.76.59-.93.1,0-.45.91-.2.87-.69-.93.27-2.72-.12-3.08.6.37.07.84.45.37.57l-2.49.25c-.57-.12-1.8.55-1.9-.11.29-.77,1.37.59,1.19-.72-1.75-.29-3.54.6-5.92.6-.87-.13-.56.65-1.18.72-.31-1.11-1.27.45-1.37-1.07a.89.89,0,0,0,1.25-.12l2.8-.29c.73-.25,2.3.15,2.46-.55-.84-.63-1.83.18-2.8.28l-7.16.72c-.58.19-.72.73-1.5.75-.18-.42-.27.07-.62.06-.56.1-.7-.3-1.28-.17a1.21,1.21,0,0,1-1.56.15c.21.9-.67,1.6.49,1.76.37.84,1.15,0,1.3.48,1.69-.44,2.12-.16,3.72-.67,3.14-.18,5-.94,7.5-.45.76,0,.62-.62,1.53-.46a1.54,1.54,0,0,0,1,.21c.51,0,.51-.34.9-.39,0,.84,1.68-.41,1.62.44,5.9-1.48,14.23-1.25,19-2.22.86-.33.85.34,1.59.15a1.74,1.74,0,0,1,1.21-.43l5.61-.57a20.06,20.06,0,0,1,4-.4c1.25-.76,3.77-.54,5.57-.87l2.18-.23c.47.12,1.57-.51,1.59.14-2.26.54-5,.69-7.1,1.33-2.25,0-3.77.47-6.53.66-1.06.81-3.83.31-4.92,1.1a1.79,1.79,0,0,0-1.28-.17c-.44.36-1.18.08-1.87.19-.25,0-.49.31-.9.39-2,.38-4.18.28-6.23.62a7.4,7.4,0,0,0-1.93-.41c-2.89.92-5.06.79-8,1.42-1-.33-2.64,0-4.08.11-.33.1-.15.61-.56.66-.34-.17-.39-.66-1-.5s-1.87-.18-1.84.48c.37,0,.87-.14,1,.21-.37,0-.88.13-1-.21-1.81.31-2.7.8-3.77.08-.18.87-1.88.54-2.4,1.14-.09-.35-.59-.19-1-.2-.09-.33-.32-.13-.31,0-.73.08-1-.43-1.9-.12-1,0-1.18.55-1.82.78.07-.36-1-.94-1-.2,1,.24-.21.88-.88.69,0-.34.61-.27.57-.66-1,.24-1.35-.59-1.53.45.17,0,.38.2,0,.3,0,.93-1.67-.63-1.85.47.45-.06.88-.13,1,.21-1.25.43-2.75-.76-3.1.6.27,0,.35.27.66.24-.14-1.36,1.27,0,1.59.15-.54-.06-.57.29-.56.66,1.29,0,1.18-.51,2.18-.21l1.56-.16c.57,0,.62-.35.28-.33-.82.07-1.82.35-1.93-.41l3.12-.31c.14-.67-1-.86.23-.92.46.09,0,.27.06.59l1.56-.15c.52.18.07,1.47,1,1.11-1-1.26.85-.93,1.41-1.65l-1.56.16c0,.16-.21.35-.31,0l.31,0c-.17-1.55,1.14-.35,2.44-.85l.09.89c1.2-.08,2.71-.51,3.17.29-.44,0-.88,0-.91.39a2.13,2.13,0,0,0,1.53-.46c-.16-.68.87-.42.85-1-1-.08-.91.65-1.56.16-.56-.13-1.79.54-1.9-.12,1.47.11.28-.5.88-.69a1.56,1.56,0,0,0,1,.21c.36,0,.16-.29.28-.33.34-.1.26.27.34.27.65,0,1.13-.43,1.87-.19l4.67-.47a1.51,1.51,0,0,0,1,.2l2.5-.25c.66.11,2-.57,2.21.08-4.56.63-6,.66-10.25,1.33-.22.93.75.46,1.31.47l1.55-.16,3.11-.31c.56-.09.7.3,1.28.18a18.24,18.24,0,0,1,7.16-.73c1.53-.12,3.27-.49,4.4-.13.76,0,.62-.62,1.53-.46.27.56,1.72-.25,1.92.4l-2.8.28c-.33.12-.15.63-.56.67-1-.59-2.69.13-3.74.37a7.14,7.14,0,0,0-3.43.35c0-.25.28-.33.25-.64l-.62.07c-1.25.67-3.76.36-4.92,1.1-.14-.39-.8-.17-1.27-.17a1.84,1.84,0,0,0-1.28-.18c-.33.12-.16.62-.57.67a2,2,0,0,0-1.58-.14c-.47-.13-1.58.5-1.59-.15a3.74,3.74,0,0,1-2.8.28c-.06.42-.76.33-1.22.43-.85.34-.84-.34-1.58-.15.08.35,0,.54-.25.63-.45-.37-1.49,0-1.94-.41-.92,1.17-3.32-.39-3.68,1,.55-.1.69.29,1.27.17-.26-.46,1.43-.62,1.26-.12l-1.26.12s0,.28,0,.3c4.18,1.08,11.49-1.88,15.95-1-.16-.49.19-.58.57-.66a7,7,0,0,0,2.77-.57c.56-.1.7.3,1.28.17a1.74,1.74,0,0,1,1.21-.42l10.28-1c1.43-.32,1.92.22,2.8-.28-.33.43-.07.48.09.89,2.61-.11,5.07-.7,7.79-.79.09,0,.56-.11.62-.06.38.37.1,0,.31,0,.69,0,1.22.15,1.9.11,4.83-.29,9.65-1.47,14.62-1.5.56,0,.69.21,1.27.17.25,0,.48-.37.91-.39-.12,0,.25.25.33.27,1.58.21,4.46-.74,6.54-.68a19.45,19.45,0,0,0,7.46-.77c1.9.55,5.27-.63,7.22-.14a25.83,25.83,0,0,1,8.4-.86,9.67,9.67,0,0,0,2.48-.26c.29-.08.44-.33.91-.39a21.17,21.17,0,0,1,5-.22c1,.12.86-.61,1.83-.49.19.29.64.05,1,.2s.31.5.68.53a.88.88,0,0,1,.88-.7l.06.6c.55-.09.69.3,1.27.17.76.05.62-.61,1.52-.46,2.94.61,6.1-.88,9.32-1,.58-.19.72-.72,1.49-.76.61.07.65.8,1.62.43.78,0,.91-.56,1.49-.75.42.06.54.47,1,.49a2.37,2.37,0,0,1,1.19-.72c-.12,0,.21.45.34.27a1,1,0,0,1,.9-.4,9.36,9.36,0,0,0,3.45,0c1-.92,2.54-.38,3.94-1.32,0,.65,1.12,0,1.59.14a2.76,2.76,0,0,0,1.89.1c.29-.23.25-.72.87-.69,3.58-.71,8.32-.44,12.08-1.57a23,23,0,0,0,6.8-1,.82.82,0,0,1,.71.83c.87.13.57-.66,1.18-.73a.88.88,0,0,0,1,.5c.29-.23.25-.72.87-.69,4.41-.77,7.59-.22,10.86-1.14.37.46,1.36.19,1.92.4,2.34-1.31,5.56-.33,8.05-1.14.11.42.94,0,1,.49.55-.09.7.3,1.27.17.83-.27.65-1.33,1.74-1.39.83-.08,1.76-.29,2.21.07a1.56,1.56,0,0,1,1.61.43c1.88-.64,3.08-.31,5.59-.58.64-.5-.47-.68.21-.93s0,1.38,1,.8c.36-.08.56,0,.65.23,1.05.26.14-1,1.18-.72l1.55-.16c-.07-.36.44-.23,0,0,0,.85,1-.12,1.24-.13a.42.42,0,0,0,.34.26,19.27,19.27,0,0,0,2.18-.23,4.43,4.43,0,0,1,1.86-.2c.82.09,1.81-.55,2.76-.58a8.25,8.25,0,0,0,3.13,0c.68-.3.56-1.21,1.43-1.36.95.26,2.09-.41,3.72-.39,1.07.11,2.14-.51,3.42-.36.69.09.35,0,1.54-.16.93-.16,2.39-.25,3.73-.39s2.94-.54,4.37-.15c.07-.68,1.52-.28,2.14-.53l2.49-.26,4.65-.49c.56,0,.62-.43,1.21-.42s1,.41,1.9.09c2.11-1,6.19-.47,8.3-1.47,1.11.45,3.61,0,4.66-.49,3.84-.42,7.94-.69,10.51-1.39.73-.08,1,.42,1.89.1.62-.05.48.77,1.3.47.33-.11.15-.61.57-.66s.53.47,1,.5c-.16-.5.19-.59.56-.66s.28.57.68.53c0-.35.3-.2.32,0a7.33,7.33,0,0,0,1.79-.78c.44.37,1.49,0,1.92.4.06-.42.76-.33,1.21-.43.23-.55,1-.66,1.46-1a1.69,1.69,0,0,0,1.36,1.06c0-.86,2.16,0,2.11-.83-.37.08-.23-.4,0,0s1.2-.07,1.31.47a3.71,3.71,0,0,1,2.79-.29c0-.35.54-.31.89-.39l5.9-.61c.51,0,.5-.34.89-.4a3.73,3.73,0,0,0,3.11-.33,1.38,1.38,0,0,0,1.3.47c.47,0,1.15-1.24,1.52-.46.58-.18.47-.91,1.49-.75.43-.08.87-.15,1,.19,2.7-.58,4.82-.19,7.41-1.06a2.29,2.29,0,0,0,1.86-.19l.06.59c.78,0,.91-.57,1.49-.75-.17.5,1.51.33,1.24-.13a1.79,1.79,0,0,0,1.26.17c.34-.11.16-.61.57-.66.7.61,2.76-.37,3.46.24-.07-.42-.14-.83.22-.92.55,0,1.07,1.57,1.61.44-.35.08-.56,0-.65-.24.9-.06,2-.37,2.51,0,0-.53.46-.73,1.18-.72,1.09.14,1.44-.19,2.82,0,1,.12.86-.61,1.83-.48.18.41.27-.07.62-.07.71-.17.44.82,1,.79.53-.64,1-.61,1.83-.48.05-.42.75-.34,1.21-.43a1.51,1.51,0,0,1,.9-.39,5.52,5.52,0,0,0,4.34-.45c0,.61.15.93.71.83s0-.9.52-1c1-.48.34.93,1.3.46.84-1,2-.64,3.41-.35.58-.19.72-.73,1.5-.75-.19,1,1,.31,1.32.76.36-.78,1-.64,1.83-.49.18-1,.56-.21,1.52-.45,0,.6.16.92.71.83.89-.36-.76-.38-.43-1.16.76.14,2.2.36,2.79-.29.09,1,1.31.68,2,1-.16-2.07,1.36,0,2.17-.22-.13-.65.15-1,.83-1,.29.22.27.8.72.83,0-.34.29-.2.3,0a2.45,2.45,0,0,0,2.11-.81c.6.93,1.16-.16,1.92.41.18-1,.69-.11,1.18-.73.77.09.77,1.09,1.94.71,1,.12.52-.88,1.5-.76.13.4.79.17,1.26.18-.06.52.3.54.68.53,1.53-.67,3.39.16,4.92-.8.13.52.6.63,1.31.48,2.63-.5,5.24-.14,7.12-.72.72-.09,1,.42,1.88.11,3.23-.72,4.41-.5,8.36-.84,1.16-.5,1.44-.1,2.76-.59l1.54-.15c.49-.07,1.2,0,1.22-.43.56.45,1.83.06,2.81,0,.42.06.54.48,1,.5.43-.66,2.15-.31,2.72-.87.55-.09.69.3,1.27.18,0-.35.54-.3.89-.39-.08-.34,0-.53.26-.63-.07.53.3.55.67.54,1-.15,2.29,0,2.76-.57.12.85,2.09-.46,2.22.39.72-.17,1.11-.59,2.13-.51.56-.09.69.3,1.27.17.86-.45,2.27.11,3.37-.63.27.7,1.9-.23,2.22.39.35-1,1.57.26,1.83-.48l2.47-.24c.73-.2.73.48,1.58.14.47-.15-.32-.5.25-.62a22.6,22.6,0,0,0,2.84.32c-.16-.58,0-.94.53-1,0,.6.15.93.71.83-.14-.47.24-.54.21-.92-.36.06-.22-.42,0,0,.31,0,.28.34.38.56.89-.45,1.68.09,2.75-.57-.07.52.29.54.67.53.06-.4.75-.32,1.21-.41.7.09.39-.61.87-.69l.09.89c1.44-.39,3.37-1.14,4.33-.42.06-.28,1.05-1.11,1.2-.42.62-.06.32-.85,1.18-.71.81-.17.36,1.13,1.32.77-.06-.42-.13-.84.23-.92s.15-.62.56-.66l.09.89c1.09,0,.47-1.45,1.73-1.36.18.42.27,0,.62-.06.13.4.79.18,1.26.19-.3.46-.26.76.39.86.3-.3,0-1.11.84-1,1,.51,2.93-.1,4.35-.1.61,0,.46.77,1.29.48.39-.14.43-.57.86-.69a.86.86,0,0,0,1,.52c.29-.22.25-.72.87-.69l4.31-.4c.34.05.27.58.68.54.18-1,.68-.1,1.17-.71-.19,1,1,.33,1.32.78.25-.72,1.36-.75,2.41-.83,0,.43,0,.85.39.87-.29-.78.59-.64.84-1,.35.85,1-.27,1.55-.14.43.32.49.06.92-.09a3.22,3.22,0,0,0,2.49.07c.58-.18-.1-1.37,1.16-1,.22.64-.55.48-.54,1,1.35-.36,1.88.23,3.11,0,.18-.55.55-.09.93-.08-1.15-1.68,2.44-1.14,3.22-2.11a7.93,7.93,0,0,0-3.06.59c0-.25.29-.33.26-.63l-.61.06c-.55.34-1.12-.79-1.24.12.17,0,.37.21,0,.29-1.37-.44-3.17.6-4.4-.49,0,.3-.51.42-.62,0-.38,0-.74,0-.67-.53.89-.17,1.07,0,.67.53l.62,0c0-.35.46-.37.9-.38s.31.73,1,.51c.5,0,.1-.85.53-1,.31.41,1,.34,1.6.44a.84.84,0,0,1,.53-.95l.06.61c1.18.2.39-1.17,1.46-1,.05.6.11,1.19.16,1.79l.62,0c1.07-.18-.87-1,.2-1.22.73,0,1.2.36,2.18.1.23.5.28,1.21.76,1.42.07-.4.49-.52.53-.94-.21-.25-.42-.5,0-.6,1.25.36.56-.84,1.15-1,.36,0,.3.52.38.88.35-.08.55,0,.65.23a6.26,6.26,0,0,0,2.67-1.13c.75.62,1.54-.14,2.13-.48,0-.16.21-.35.3,0,.48-.07,1.18,0,1.2-.41-.43.07-.86.13-.94-.21l1.53-.13c.33.15.38.65,1,.51-.09-.34,0-.54.25-.62l.61-.05c-.17.32-.68.36-.53.94.17.42.26-.05.61-.05.05-.33.59-.25.56-.65.69.6,1-.12,1.51-.43,0,.65,1.1,0,1.56.17,0-.78.56.37,1.22-.11,0-.43.91-.18.87-.67a1.75,1.75,0,0,1,1.21-.4c1-.36.5.94,1.3.78.16-.69,1.74-.23,1.43-1.32-.49,0-1.15.24-1.25-.19-.88.11-2,0-2.43.5-1.13-.43-.74.27-1.81.46.89-1.86,4.72-2.49,7.24-2.13.3-1.14,3-.33,3.27-1.48-.36,0-.3-.52-.38-.87s.6-.25.57-.65c-.46-.12-1.56.49-1.56-.16,3.81-.6,6.62-1.67,9.84-.54.72-.78,3.32,0,2.92-1.72-1.39.33-1.27-.24-1-1.12l-4.27.33c-.65-.44-2.28.22-2.81-.36A18,18,0,0,1,629.38,96a2.22,2.22,0,0,1,.86-.67c.24-.26.12-.83.54-.93.17.42.26,0,.61,0,.07.35.57.21.93.23a1.72,1.72,0,0,1,1.2-.38c.84-.31.82.36,1.54.18,0-.35.54-.29.89-.36.53-.57-.49-.9.52-1.24.63-.49,1.59-.71,2-1.35-1-.15-.86.57-1.81.43-.91.28-.93-.45-1.85-.16a1.74,1.74,0,0,1-1.19.38,2,2,0,0,1-1.55-.18c-.23.22-.79.52-.91.07s1-.27,1.17-.69a21.86,21.86,0,0,0,5.44-1c.63-.17.83.15,1.24.22,0-.63,1.34-.19,1.48-.71.72.61,1.23-.39,2.44-.18-.06-.47.07-1.15-.39-1.17-.21-.66.55-.48.55-1-1.1-.72-2.42.24-3.34.55-1.74.2-3.91.06-5.17.68a1.7,1.7,0,0,0-1.24-.21c-.78-.34-1.2,1-1.52.11.29-1,1-.18,1.76-1,.92.33,1.56-.31,3-.22.55-.67,2.56-.09,2.36-1.38-.83-.11-1.85,1-2.45.18.42-1.24,3.35-.36,4.21-1.21a1.45,1.45,0,0,0,.94.23,2.71,2.71,0,0,1,1.82-.43,6.15,6.15,0,0,1,1.77-1c1.55-.09,2.49-.71,4.26-.62a5,5,0,0,1,3.32-.84c.8-.61,0-1,.52-1.54.62-.22,2,.22,2.11-.44-2.38.17-4.43-.86-6.46-.14.29-1.89-.71-.36-1.31-1.11,0-1.81,2.86-1.16,3.22-2.64-1.88-.09-2.89.3-5.22.38-.88-.18-.76.49-1.51.42,0-.8-1.71.4-1.3-.81.46-.52,1.31.17,2.46-.18,0-.35.55-.29.9-.36.61,0,.34-.85,1.19-.7a8.76,8.76,0,0,0,3.65-.86c1,.1,1.42-.31,2.13-.46.65.21,1.9-.4.89-.66,0,.28-.36.26-.6.34-1-.56-2.53.25-3.1-.07-.65-.65.06-.34.25-.92-.48,0-1.16.23-1.25-.21a11.23,11.23,0,0,1,4.33,0c.53-.43,2.13,0,3.06.13,1.47-.38,3.55,1,4.2-.51-1.38-.16-3.06,0-4-.7a1.45,1.45,0,0,0,1.47-.67c-3.93.09-6.73-1.08-11.1-.49a1.56,1.56,0,0,0-.94-.23,2.68,2.68,0,0,1-1.88-.16c.26.47-1.42.59-1.23.09,2.36-1.22,5.11-.81,7.65-1.46,1.22.36,1.68-.07,3.1-.22a4.09,4.09,0,0,1,1.21-.07c.25,0,.32.28.63.26-.08,0,.12-.29.29-.3.53-.06,1.26,0,2.12-.11.55-.07.67.33,1.23.23,2.1-.44,4.56.34,6.68-.62l3.34-.17c.4-.32,1.12-.35,1.19-1,.54-.1,1.53.22,1.2-.66-1.68,0-2.11.43-3.36.17a1.67,1.67,0,0,1-1.2.35,9.73,9.73,0,0,0-3.68-.41c-.14-.69-1.35-.23-1.58-.82-1.51.42-2.7-.64-3.66.18-.34-.48-1.32-.27-1.87-.51-1,.1-1.85.1-2.19-.49,3.09-.43,6.11.69,7.94-1-.77-.52-2.56,0-3.41-.43-.06-.53.35-.64.25-1.21-1,.19-.91-.71-1.3-1.13-1.59.13-3.49,0-4.61.55.17-.84-1.45.31-1.28-.52.1-1,2-.59,3.06-.79.72,0,.29-.88.88-.94a.84.84,0,0,0,.89-.65c-.88-.23-2.87.76-2.83-.46.22-.75,2.17,0,2.45-.72a45.27,45.27,0,0,0,4.68.37c-.07,0,.08-.35.29-.32.05,0,.07.29.33.29.68,0,1.34-.09,2.17-.11a2.75,2.75,0,0,1,1.85-.39c-.26-.8,1.47.14,1.21-.66-1.45-.55-3.72-.24-5.32-.64-.9.46-1.36-.11-2.8.14-1.33-.61-3.09-.1-4.07-.4-.14-.78,1.19-.29.86-1.24-2.34-.19-3.23,1-4.7,0,1.66-.32,3.48-.47,5-.9.32.58,2.59-.23,1.61.82.51.06.52-.31.92-.34.74-.22-.79-.6-1-.86a2.6,2.6,0,0,1-1.91-.5c.64-.58,2.57-.07,3.09-.75-1.31.34-1.6-.42-1.94-1.11,1.65-.89,3.18-.89,5.3-.86,2.12-.89,2.36-.39,5-.55a1.51,1.51,0,0,0,.95.25c.56-.2,1.86.27,1.88-.39a37.12,37.12,0,0,0-9.49-.73c0-.29-.4-.22-.65-.27.1-.63-.25-.78-.38-1.18-.36.07-.56,0-.64-.26-1.47.06-3.12.32-3.83-.41,1,.2.95-.52,1.54-.68.87.16.59-.65.91-.95-1,.1-1.92.11-2.26-.48a72.72,72.72,0,0,0,9.52-.48c-.09-2,2.4-.5,3.13-1.35-1.07-.22-.3-.66,0-1.2-.91,0-2.17.37-2.25-.49.65-.16.85.17,1.28.24.44-.2,0-1.16.59-1.23a9.83,9.83,0,0,1,3.53.12c.66-.2,2.11.27,2.23-.4a5,5,0,0,1-2.28-1.1c.19-.41,1.24-.1,1.27-.66-1.18-.14-2.45-.19-3.55-.42-.92.45-1.67-.11-3.21.16-.31-.74-2.5.47-2.29-.78a12,12,0,0,1,3.23.13l4.82-.24c.53,0,2.37.87,2.24-.4-.75-.78-2.64-.44-4.2-.4a138.63,138.63,0,0,0-15.23-1c-.14-.61-1.44,0-1.36-.83,1.5-.06,3.16-.3,4.23.08a2.27,2.27,0,0,1,1.6-.37,26.72,26.72,0,0,1,4.87.35c1.31-.38,1.9.14,2.89-.74a22.09,22.09,0,0,0-4.9-.65l0-.6c-.94.4-2.21-.1-3.89.19-.7-.44-2.16-.1-3-.46-.58-.14-1.89.46-2-.19-.62-.27-1,1-1.27.08.65-.21.64-.52.26-.92,3.23-.93,5.2,0,9.09-.47a1.76,1.76,0,0,0,1,.26l2-.1c.87.5,1-.18,2,.2.83-.29,1.82.82,2.27-.11-.91.09-.79-.87-1.66-.82-1,.27-1.2-.25-2-.2l-1.62.08c-.66-.38-1.87-.2-2.64-.47a8.83,8.83,0,0,1-3.27-.14c-.9-.14-2.56.51-3-.15,1.24.17,1.53-.44,2.59-.43s2.84.66,3.59-.18c-.65-.53-.82,0-1.63.08a1.89,1.89,0,0,0-1.32-.23c-1-.14-2.79.52-3.28-.14a9.59,9.59,0,0,0,4.54-.82l6.86-.34c1,.42,1.38-.42,2.3.18.35-.67,2.16-.12,2.26-1a63.23,63.23,0,0,0-8.86.13,20.37,20.37,0,0,0-5.39-.26c-1,0-2.05.08-3.08.08a26.08,26.08,0,0,1-3-.08c-.75,0-.9.58-1.88.43-.43-.39-1.56,0-1.64-.78,2.46-.66,4.59-.32,7.3-1.1.78-.17.75.51,1.66.21.59,0,.67-.39,1.29-.36.62.53.82-.28,2-.1.56-.2,2,.27,2-.39-.67-.47-.41.05-1.31.07s-.74-.52-1.66-.23a37.29,37.29,0,0,1-4.61.23c-1.81.09-3.53.26-5.1.36a19.12,19.12,0,0,1-4.09.6c-.58,0-.65.42-1.25.39-.71-.6-.9.22-1.91.14.33-.39.24-.63-.36-.58-.66-.12-2,.53-2.23-.13,1.77-.47,2.92-.19,4.71-.94a18.15,18.15,0,0,0,6-.75,31.29,31.29,0,0,0,4.14-.58c.78-.16.75.51,1.67.21.19-.59,1.84,0,1.94-.69-.46,0-.93.09-1-.25,1-.81,3.93,0,4.92-.84a3,3,0,0,0,2,.19c.58-.19,2,.28,2-.39-1.82-.13-2,0-3.65-.12-1.12-.14-3,.54-3.65-.12.38,0,.58-.09.64-.33-1.55.29-2.29-.23-3.65-.12-.81-.08-.69.58-1.64.39-1.83-.07-2.05.22-3.53-.06-.56.63-1.16.18-1.91.14.1.65-1.11.22-1.57.42-.27-.25-.88-.11-1-.53,2,0,3-.76,5.07-.68.16-.52,1.51-.08,1.55-.71a6.45,6.45,0,0,0-2.52.49l-2.86.21-1.28.09c-.26.2-.53.4-.63.05.19-.69,1.78-.25,2.53-.49a1.59,1.59,0,0,1,.93-.37l4.13-.3c2.53-.79,5.78-1,8.55-1.64.47,0,1,0,1-.35l-1.33.07-1.33.07-1.33.06c-.46.49-1.69.35-2.64.43a2.06,2.06,0,0,1-1.32.37c-.61-.15-1.9.47-2-.19,1.55,0,2.46-.65,4.27-.52.33-.22.3-.71,1-.65.26-.07.31-.32.65-.33a9.39,9.39,0,0,0,3.31-.47c.7.48,2.73.3,3-.45-2.77-.25-4.47.33-6.7-.27-.81-.08-.69.59-1.65.39a2.42,2.42,0,0,0-1.69-.22,22,22,0,0,1-4.1.2L644,14.14c-.38.45-1.37.4-2.21.47-.76-.47-2.67.31-2.94-.7,1.33.24,1.86-.14,3.17-.52,1-.21,2.79.19,2.83-.82-1.29.52-3.54.22-5.12.08-.57,0-1.53,1-1.91.14,1.47-.49,3.47-.56,4.72-1.25,1.32-.06,2.61-.14,3.15-.82-3.55.32-6.5,1.12-10.18,1.34a2.81,2.81,0,0,0-2.57-.11c.09-.4.53-.51.57-.95a12.52,12.52,0,0,0-3.17.54c-.23-.5-1.51.13-1.64-.48-1.5.66-4,.5-6,.74a1.62,1.62,0,0,1-.93.38l-2.2.19c-.56,0-1.5,1-1.89.16.33-.58,1.63-.38,2.16-.78a5.34,5.34,0,0,0,2.17-.5c.1.38,1,.33,1-.07-1,.13-1.13-.71-2.26-.41s-1.45.88-2.79.83a1.82,1.82,0,0,1-1.23.42c-.5,0-1.19.24-1.28-.2s2.21-.4.86-1c.27.47-1.44.61-1.25.11.45,0,.89,0,.92-.38-.77-.11-2.26.57-2.55-.08,0-.83.86-1,1.48-1.33.24-.55,1.06-.65,1.5-1,.44.32.51.06,1-.09s.63-.43,1.23-.41l.95-.08c.35-.08.14-.32,0-.29l-1.57.13c-1.76.82-4.65.95-5.91,1.4.06.37-.44.23,0,0,0-.24.29-.31.26-.62a31.75,31.75,0,0,1-4.65,1.3c-3.73-.22-8.08,1-12.89,1.41.33-.4.22-.63-.37-.57a3.67,3.67,0,0,1-2.85-.05c-.28.7-2,.28-2.81.53a7.46,7.46,0,0,1-2.52.22c-.62.62-2.27.42-3.41.63a1.56,1.56,0,0,1-.91.38c-3.11.4-6.79.35-9.36,1.18-.5-.43-1.63-.12-2.53-.07-2.46.48-5.86,1.58-8.42,1.09,0,.65-1.32.24-1.85.46a2.65,2.65,0,0,1-1.94-.42,10.76,10.76,0,0,1,3.79,0c0-.49-.26-1.13.2-1.23,1.44,0,1.9-.71,3.41-.62.15-.53,1.49-.12,1.52-.74a24.34,24.34,0,0,1-5.38-.1c-.5-.38-2.92.83-3.44.32s-1,0-2.19.2c0,0-.11-.33-.35-.27,0,0-.06.28-.28.33a5.23,5.23,0,0,1-1.57.14c-.13,0-.42-.26-.34-.27-.25,0-.47.37-.91.39s-.55-.18-1-.21c.09,0-.1.35-.29.33s-.06-.3-.34-.27c.14,0-.22.3-.28.32a34.53,34.53,0,0,1-4.07.39l-9.67.94c-.56.09-.69-.3-1.28-.18-.56-.11-1.79.55-1.9-.11,1.74-.9,3.55-.11,5.28-.82,1.2.37,3.09,0,4.71-.15.2.15,1.54.55,1.55-.15-.52.16-.61-.18-.68-.54l3.12-.3c.94-.1,1.91-.15,1.8-1.08-1,.61-2,.36-3.13.3.06.35-.44.23,0,0Zm9.48-3.29c.47-.73,2.38-.33,3.41-.62.22.82-1.73-.08-1.5.75C556.41,7.69,556.18,7.18,555.44,7.26Zm4.07-.38c0-.29.36-.27.6-.35l.93-.09c0,.29-.35.27-.59.35Zm-11,1c1.11.41-.31.86-.57.65S548.73,8.13,548.55,7.9Zm1.9.13c0-.36.55-.31.92-.39C551.35,8,550.82,8,550.45,8Zm2.79-.57.63,0,1.26-.12c-.07.41-.77.32-1.23.42C553.24,8,551.88,7.58,553.24,7.46Zm-7.48,1c.3.78-1.49-.08-1.19.71L543,9.33C543.49,8.7,544.56,8.54,545.76,8.47ZM525.85,11c.16-.69,1.74-.28,2.46-.54l2.5-.25c.86-.33.85.35,1.59.15,1.31-.06,1.43-.62,2.49-.24-.23.59-1.41.43-1.84.48-.26,0-2.25.48-2.49.24,0,0,0-.3,0-.3-.58,0-1.28.71-2.19.22C527,10.76,526.84,11.33,525.85,11Zm11.23-1.1c0-.29.36-.26.59-.36l1-.09c0,.3-.37.27-.6.36Zm4.66-.75.93-.1c0,.36-.55.31-.91.4C540.65,9.79,540.58,9.06,541.74,9.16Zm-80.95,9c-1.52.18-3.3.17-4.33.73l-5,.51L449,19.6c-1-.07-.91.66-1.56.16.06-.68,1.52-.27,2.15-.51l2.49-.26c.9.15.76-.5,1.52-.46l4.35-.44c1,.12.87-.61,1.85-.49C459.79,18.41,460.92,16.69,460.79,18.11Zm1.81-.79.62-.06C463.37,18.09,460.88,17.41,462.6,17.32Zm-15.82,2.22a.85.85,0,0,1-.86.69C445.7,19.61,446.3,19.61,446.78,19.54Zm-2.73.88c0-.29.36-.27.59-.37l.93-.09c0,.29-.35.28-.59.36Zm-64.93,7c.12-.48.33-.05.34.26C378.92,27.84,378.79,27.49,379.12,27.44Zm.94-.1c0-.35.29-.2.31,0C380.34,27.65,380.07,27.5,380.06,27.34Zm56.22-6.12.62-.07.93-.09,2.18-.23c.44-.07.88-.14,1,.2l-.93.1-1.86.19c-.73.18-1.12.6-2.16.52-.54.15-.66-.21-.33-.26S436,21.25,436.28,21.22ZM372,28.47c0,.62-.64.07-.63.07-.59.11-1.13.69-2.14.53s.81-.43,1.22-.43A1.21,1.21,0,0,1,372,28.47Zm1.52-.45,1.24-.13c0,.35-.53.31-.9.39C372.84,28.64,372.06,28,373.53,28Zm1.59.13c-.13-.63,1.09-.24,1.52-.46l1.86-.19c0,.29-.36.28-.59.36L377,28ZM542.84,10.86l1.56-.16c.42,1-.92.56-1.5.75Zm1.87-.19.62-.06.06.6-.62.06ZM358.09,30.53c0-.29.36-.27.59-.36C358.7,30.46,358.33,30.44,358.09,30.53Zm1.24-.13c0-.29.36-.27.59-.36C360,30.33,359.57,30.31,359.33,30.4Zm-6.18,1c-.17-.13.19-.41.28-.33S353.25,31.43,353.15,31.35Zm10.94-.54c0-.66,1.3-.26,1.84-.49l1.85-.2a10.76,10.76,0,0,0,3.7-.68c1.88.28,4.5-.76,7.15-.74.54,0,.75-.6.93-.1.94-.35,1.84-.14,3.41-.36a38.6,38.6,0,0,1,5.25-.85c1,0,2.38-.07.35.27l-2.18.23c-2.95,1.08-7.87.63-10.81,1.72-1.85-.15-3.45.54-5.9.62l-3.11.32C365.18,30.56,365.07,31.12,364.09,30.81Zm-10.56,1.1c1-.13,2-.19,2.8-.29,2.18-.11,3.33-.61,5-.52-.15.7-1.72.3-2.45.56l-3.11.32c-.37.08-.72.17-.55.66-.42,0-.35-.49-.69-.53,0,.47-.66.28-.93.1l-2.18.22c.13.65-1.08.26-1.52.47l-2.17.22c-.12-.63,1.09-.24,1.52-.46l2.17-.23C351.64,31.84,352.81,32,353.53,31.91Zm9-.94c.11-.48.32,0,.34.27C362.33,31.38,362.21,31,362.54,31Zm167.4-16.75c0-.35.55-.3.91-.38l1.24-.12c0,.35-.54.3-.9.38Zm-183.49,19c0-.28.36-.26.59-.36C347.06,33.18,346.68,33.16,346.45,33.25Zm-53.3,6.5c0-.35.54-.31.9-.4C294,39.71,293.51,39.66,293.15,39.75Zm196.7-20.36c-.17.55-.56.1-.94.1l-3.73.37c-.95-.41,1.57-.4,2.15-.52C488.23,19.29,489.35,19,489.85,19.39ZM265.92,43.21c1.76-.47,4,.28,6.23-.36-.08-.47-.81-.15-.71-.82.23.38,1.2-.09,1.31.46.92-.78,2.08,0,2.75-.59.6-.16.66.34,1,.49,2.65-.57,5.45-1,8.31-1.47.77-.12,1,.37,1.61.43s.86-.6,1.84-.48a1.74,1.74,0,0,1,1.26.16c1.22.14,1.94-.69,2.49-.26,0,.45-.72.35-1.21.43l-1.86.2-1.55.16c-.44.21-1.64-.18-1.53.46-1.86-.47-4.84.38-7.16.45-.53.22-1.27.28-1.49.76-.82-.55-.71-.36-1.89-.11-1,.09-1.6-.34-2.83,0,.1.22.3.32.66.23,0,.66-1.31.26-1.84.5,0,.36-.32.21-.62.06a1.47,1.47,0,0,0-.89.39c-.58.13-.73-.25-1.28-.16-.24,0-.25.32-.28.32-.43.12-.71-.24-1-.19a14.49,14.49,0,0,1-2.45.55A5,5,0,0,0,263,45a14.35,14.35,0,0,1-3.41.36c-.1,0-.46-.26-.34-.26-.43,0-.67.38-.9.39-.57,0-1.53-.44-2.21-.07-.38,0-.74,0-.68-.53-.23.09-.33.28-.25.63-.58.07-.68-.16-.37-.57a25.2,25.2,0,0,0-2.39,1.15l-13,1.36-.93.1c0-.34.46-.37.9-.39,2.25-1.08,4.63.08,6.49-1,.56.12,1.78-.54,1.89.11.34,0,.44-.49.62-.06.41-.06.23-.56.55-.67.5,0,1.08-.15,1,.5,1-.07.79-1,2.11-.82.27-1,1.68.15,0,0l0,.29c1,.15,1.15-.38,1.49-.76,1,0,2.25-.43,2.82,0a.88.88,0,0,1,1.24-.13c.23-.09.33-.29.25-.62A8.07,8.07,0,0,0,261,44l1.55-.16c.47.11,1.57-.52,1.58.14.62-.07.32-.86,1.19-.73.1.33.39.43.68.53C266,43.75,265.88,43.21,265.92,43.21Zm72.27-7.89c0-.38.59-.36.62-.06C338.56,35.47,338.3,35.68,338.19,35.32Zm1.25-.13c0-.35.54-.31.9-.39l.93-.1c0,.36-.54.31-.9.4Zm2.79-.29c0-.28.35-.27.59-.36C342.84,34.83,342.46,34.81,342.23,34.9ZM471.52,21.54c.26-.7,1.94-.31,2.77-.58-.14.05-.16.58-.25.63-.4.19-.57-.26-.66-.24C472.83,21.49,472.2,22.11,471.52,21.54Zm7.47-.76c-.1-.47,2-.8,1.58.15A2.09,2.09,0,0,0,479,20.78Zm12.44-1.25c0-.29.37-.27.6-.36l.62-.06L493.9,19l2.48-.25,5-.5c-.06.41-.75.32-1.22.42l-1.24.12-2.5.26-2.48.25Zm-4.54,1.66c-.46.1-1.17,0-1.22.43a.86.86,0,0,1-.88.69c-2.31.07-2.84,0-5.31.23-1-.12-1.11.42-1.84.49-.47-.12-1.58.51-1.59-.14a11.26,11.26,0,0,1-2.12.81c-2.64.38-4.53.25-6.53.66a59.46,59.46,0,0,0-6.5,1,5.34,5.34,0,0,1-2.22-.08c-2.74.59-5.73.76-8.61,1.79l-7.77.8c-1.23.56-2.81.44-4,.71-.56.13-.68.35-1.22.42s-1-.18-1.27-.17-1.1.42-1.52.46c-3.87.49-7.07.67-10.88,1.12,0-.41.48-.29.9-.39a3.49,3.49,0,0,1,1.87-.2,5.58,5.58,0,0,0,3.07-.61c.86-.34.85.34,1.59.13a18.55,18.55,0,0,1,4.63-.77c.38-.08.73-.17.56-.66.41,0,.34.49.68.53s.77-.22.28-.33c0-.39.52-.33.56-.66l2.8-.29c1.22.31.51-.88,1.49-.75.54.59.74-.29,1.59.14a2.27,2.27,0,0,1,1.87-.19c.16-1.2,1.24.87,1.24-.13l2.79-.29c-.08-.35-.52-.27-1-.21,0-.44.72-.35,1.21-.42l1.87-.19,3.73-.38c.91.15.77-.51,1.53-.46l3.1-.31c.84-.27,2.52.12,2.78-.58-.56-.86-1.34.38-2.18.22-.13-.46-.7-.15-.93.09l-1.56.16-5.91.6a24.65,24.65,0,0,1-5.56.87c.06-.68,1.52-.28,2.14-.52-.14-.84,1.94.05,1.81-.78.57.44,1.84,0,2.82,0,4.34-.91,9.41-1.25,14-2a1.31,1.31,0,0,1-1.84.49c-.12.73-1.92.14-2.12.81.4.64,2-.08,2.83,0a.87.87,0,0,0,.88-.7c.37,0,.75.47.93-.09-.94,0,.17-1.27,0,0,1.73.45,4.07-.47,5.91-.6.54,0,1.25-.41,1.59.15.88-.39,1.24-.46,1.56-.16s1.37-.21,1.21-.43c.83-.3.69.54,1.31.48a2.1,2.1,0,0,1,1.58.14c.89,0-.89-1,.19-1.22,3.34-.24,6.54-.81,9.66-1,.51,0,1,.15,1.58.14a62.24,62.24,0,0,0,10-1c.66-.1,1.22-.4,1.84-.47s1.49.12,2.21.08c0,0,0-.3.28-.32s.42.25.35.26c.58-.07.66-.39,1.22-.42s1.37.12,1.9.11c1.77,0,4.34-.72,5.61-.55.1,0,.45.27.34.27.44,0,.66-.37.91-.39.92-.05,1,.36,1.58.15a7.64,7.64,0,0,1,2.5-.24c.41,0,.83-.14,1.25-.13s.72.22,1,.21.21-.3.28-.33c.28-.08.32.27.35.27,2.08-.07,4.31-.69,5.64-.25l10-1c.9.15.76-.51,1.52-.46l11.25-1.07a16.57,16.57,0,0,1,3.44-.32c.33,0,.81.06.34.27l-4.07.38c-5,1-9.47,1.34-14,1.94-.66.09-1.24.36-1.84.48a4.56,4.56,0,0,1-1.59-.14c-.13,0,.08.31-.28.32-1.17.06-1.55-.15-2.21-.08-.08,0,.06.36-.28.33-.14,0,0-.35-.34-.27,0,0-.11.27-.29.33a13,13,0,0,1-3.43.33,13.17,13.17,0,0,1-1.59-.14c-1,.07-1.4.64-1.86.18-.18-.17-.38.34-.28.33-.44,0-.72-.22-1-.2-1.4.1-2.83.29-4.37.42-.86.34-.85-.34-1.58-.15l-7.81.77c-.85.33-.84-.35-1.58-.14l-10,1c-.54.62-.78.11-1.56.16-1,.42.88,0,.4.86-1.29-.22-3.13.7-4.69.18l-2.49.25c-.77-.11-2.23.6-2.52-.05l-.63.06c.07.36-.43.23,0,0C486.29,21.46,486.84,21.52,486.89,21.19Zm-17.83.9c0-.29.35-.28.59-.36C469.67,22,469.29,22,469.06,22.09ZM470,22c0-.36.54-.31.9-.4C470.88,22,470.35,21.91,470,22Zm6.54-.66c-.18-.14.18-.41.28-.34S476.62,21.41,476.53,21.34Zm1.24-.13c0-.29.36-.28.6-.36C478.39,21.14,478,21.12,477.77,21.21ZM292.29,40.44l2.79-.29C295,40.75,292.37,41.62,292.29,40.44Zm3.13,0c-.18-.14.18-.4.28-.32S295.52,40.49,295.42,40.41Zm33.21-3.48c-.17-.14.18-.4.28-.33S328.73,37,328.63,36.93ZM211.36,49.2c-.1,1.11-2.21.65-3.35,1s-1.17-.4,0-.3l1.87-.19A2,2,0,0,1,211.36,49.2Zm1.59.14c0-.29.35-.27.59-.36C213.56,49.27,213.18,49.25,213,49.34Zm109.2-11.43c0-.29.35-.27.58-.36l.63-.07,1.55-.16c-.05.42-.76.33-1.21.43Zm237-24.38.63-.06C560,14.3,557.47,13.6,559.18,13.53ZM203.34,50.34c.4.33.56.77,1.92.41,0,.24-.29.32-.25.63.85-.07.57-.57,1.24-.13l3.72-.39c.36,0,.2.27,0,.29l-.93.1-1.55.16c-2.23-.27-4.18,1.1-6.51.68a6.91,6.91,0,0,0-2.18.22c-.66.1-1.15.11-1.85.2-.44.07-.88.14-1-.2l.92-.09,1.86-.2c0-.65-1.11,0-1.58-.14.29-1.27,1.74-.22,2.42-.85a6.12,6.12,0,0,0,2.51,0c0,.35-.53.31-.9.39.21.65,1.54,0,2.21.08-.09-.35-.59-.2-1-.21C202.33,50.65,203.36,50.91,203.34,50.34Zm1.57.14c-.17-.14.19-.4.29-.33S205,50.55,204.91,50.48Zm7.13-.74c-.17-.14.19-.41.29-.33S212.14,49.81,212,49.74ZM440.22,25.93c0-.38.59-.36.62-.06C440.58,26.08,440.32,26.29,440.22,25.93Zm2.46-.55c-.17.42-.61.62-1.19.73C441.09,25.24,442.13,25.5,442.68,25.38Zm.34.26c.82-1.19,1.14.8,0,0Zm1.55-.16c0-.29.36-.27.59-.36l.93-.09c0,.29-.35.27-.59.36ZM369.4,33.57c0-.29.36-.27.59-.36C370,33.5,369.63,33.48,369.4,33.57Zm69.91-7.24c0-.3.37-.27.6-.36C439.93,26.26,439.55,26.23,439.31,26.33ZM175.84,54.08c2.37-.3,4.8-.44,6.82-.7,3.47-1.19,7.19-.48,9.89-1.31,1.23-.23,1.77.35,3.13,0,.27-.94,1.67.16,0,0,0,.4-.52.33-.57.66-1.45-.39-3.72.17-5.6.28-.47.85-1.93-.08-1.83.49-.13,1.16,1.5.22,2.23.37a50.53,50.53,0,0,1,7.4-1.06,2,2,0,0,1,0,.29l1.55-.16c.27-.94,1.67.16,0,0,.19.48-1.64.67-1.55.16-2.54.81-5.27.85-8.34,1.17l-8.67.89-4.34.45-2.17.22c-1.1.33-1.18-.4,0-.3l9-.93c0-.91-1.07-.51-1.64-.73-1,0-1,.65-2.14.52a20.55,20.55,0,0,1-5,.22c-.21,1.23-1.27.08-2.45.54a10.81,10.81,0,0,1-3.35,1c0-.29.21-.37.25-.63-.38.08-.73.17-.56.67l-2.17.22c0-.35.46-.38.9-.4s.22-.55.56-.65c2.43-.07,5.24-.83,6.82-.7C174.31,54,175.33,54.15,175.84,54.08Zm40-4.43c0,.62-1.36.22-1.49.76-1.13-.16-.77,0-1.89-.11-.59,1-2-.14,0,0C212.88,49.57,214.77,49.94,215.8,49.65Zm13-1.07c0-.35.54-.31.9-.38l1.24-.13,2.17-.23,4.34-.45c-.06.67-1.51.27-2.14.51l-2.17.23Zm59-5.86c-.21-.63.38-.62.87-.69l1.55-.17c.58-.19,1.14.09.65.23l-1.55.16C288.58,42.22,288.72,42.87,287.82,42.72Zm158.36-16.8c0-.36.54-.31.91-.39C447.07,25.88,446.55,25.84,446.18,25.92Zm1.56-.16c-.18-.14.18-.41.28-.33S447.83,25.83,447.74,25.76Zm-298.45,32c-.24-1.1,1.92-.32,2.07-1.12.26-.08.31.09.34.27.51,0,.51-.33.9-.39l1.55-.17c0,.36-.53.32-.9.4C152.15,57.22,150.46,57.27,149.29,57.72ZM279.44,43.6c-.17-.14.19-.41.29-.34S279.54,43.67,279.44,43.6Zm1.87-.2c0-.3.35-.27.58-.37l.62-.06,1.55-.16,3.11-.33c-.06.42-.75.33-1.21.43ZM569,14.12c-.18-.14.19-.41.29-.33S569.11,14.2,569,14.12ZM160.1,56.3c0-.28.35-.27.59-.35C160.71,56.24,160.33,56.22,160.1,56.3Zm1.86-.19c0-.34.54-.31.9-.38l1.24-.13,2.48-.26c-.07.68-1.52.28-2.14.52ZM273.89,44.47c0-.28.36-.27.59-.35l.93-.1c0,.29-.35.27-.59.36Zm2.79-.29c-.17-.14.19-.4.29-.32S276.78,44.26,276.68,44.18Zm.93-.1c0-.34.54-.31.91-.39C278.5,44.05,278,44,277.61,44.08ZM499.46,21.13c0-.35.54-.31.9-.39l1.24-.13c0,.36-.54.31-.9.39Zm66.15-6.4c.11.65-1.09.25-1.54.45-.72.32-1.48-.28-.34-.27.57,0,.63-.43,1.23-.41C565,14.79,565.36,14.7,565.61,14.73Zm.63-.05c0-.35.54-.31.91-.38C567.13,14.65,566.6,14.6,566.24,14.68ZM146.81,58c0-.29.35-.27.59-.36C147.42,57.9,147,57.88,146.81,58Zm.92-.09c-.17-.14.19-.4.29-.33S147.83,58,147.73,57.88Zm9.61-1c0-.29.36-.27.59-.36C158,56.82,157.57,56.8,157.34,56.89ZM257.44,46.2l.63-.07C258.22,47,255.74,46.3,257.44,46.2Zm1,.2c0-.29.36-.27.59-.36l.93-.1c0,.29-.36.27-.59.36Zm1.86-.19c.16-.7,1.73-.31,2.45-.56.31.79-1.48-.06-1.18.72A1.81,1.81,0,0,0,260.27,46.21Zm4.94-.83.61-.06C266,46.16,263.5,45.49,265.21,45.38Zm1.57.14c0-.29.36-.27.59-.36l.93-.1c0,.29-.35.27-.58.36Zm344-34.82c.84-.06,1.79-.26,2.23.11C613,11.25,610.5,11.73,610.8,10.7ZM165.12,56.39c-.18-.14.19-.4.28-.33S165.21,56.47,165.12,56.39Zm35.95-3.7c0-.29.36-.28.59-.37C201.68,52.61,201.3,52.6,201.07,52.69Zm62.33-6.51c-.17-.14.19-.4.28-.33S263.5,46.25,263.4,46.18ZM135.72,59.69c0-.35.54-.31.9-.39C136.6,59.66,136.08,59.61,135.72,59.69Zm1.55-.15c-.18-.14.19-.41.28-.33S137.37,59.61,137.27,59.54Zm10.84-1.09c0-.29.35-.27.58-.37C148.72,58.38,148.34,58.35,148.11,58.45Zm22.31-2.3c0-.29.35-.27.59-.36l.93-.1c0,.29-.36.27-.59.36Zm29.75-3.07c0-.29.36-.27.59-.36C200.78,53,200.4,53,200.17,53.08ZM415.88,30.55a1.37,1.37,0,0,1,1.52-.46C417.45,30.11,416.65,31.06,415.88,30.55Zm2.17-.23c-.29-.27,1.38-.72,1.84-.49.16.09-.06.18-.33.26l-.58.14C418.71,30.55,418.71,30.26,418.05,30.32ZM141,59.16a1.52,1.52,0,0,1-1.49.75C139.48,59.26,140.21,59.2,141,59.16Zm19.55-1.7c0-.34.54-.3.9-.38C161.42,57.43,160.89,57.39,160.53,57.46Zm2.79-.28c0-.29.36-.27.59-.36C163.93,57.11,163.55,57.09,163.32,57.18Zm2.17-.23c-.17-.13.18-.4.28-.32S165.58,57,165.49,57Zm448.25-45.3c0-.34.55-.29.92-.37C614.63,11.63,614.1,11.58,613.74,11.65Zm-192.83,19c1.26-.42.15.88,0,0C419.65,31.05,420.76,29.75,420.91,30.63Zm.93-.1c-.17-.13.19-.4.28-.33S421.94,30.61,421.84,30.53Zm.63-.06c0-.29.35-.27.59-.37C423.08,30.4,422.7,30.38,422.47,30.47Zm189.4-18.35.63-.06C612.63,12.9,610.14,12.18,611.87,12.12Zm2.55.08c0-.29.36-.26.6-.35C615,12.14,614.66,12.11,614.42,12.2Zm-3.76.62c-.17-.14.2-.4.29-.32S610.76,12.9,610.66,12.82ZM123.8,62.4c-.18-.14.18-.41.28-.33S123.89,62.47,123.8,62.4ZM616.69,12.91c-.17-.14.2-.4.29-.33S616.79,13,616.69,12.91ZM115.22,64.16c-.18-.13.18-.4.28-.32S115.31,64.24,115.22,64.16ZM635.24,13l.64-.05,1.6-.11c-.08.41-.79.3-1.26.39C635.59,13.43,633.69,13.19,635.24,13Zm-2.83.81c0-.29.38-.26.62-.35C633.05,13.74,632.66,13.7,632.41,13.79Zm1.28-.09c-.18-.15.21-.4.3-.33S633.79,13.77,633.69,13.7ZM89.43,68.82c-.16.42-.6.62-1.17.72C88.28,69,88.72,68.8,89.43,68.82ZM653.78,15.29c-.19-.15.22-.39.31-.31S653.88,15.37,653.78,15.29Zm-1.65.39c0-.3.39-.26.65-.34C652.79,15.63,652.38,15.59,652.13,15.68Zm-9.75,3.08a1.62,1.62,0,0,1-1.56.72A1.65,1.65,0,0,1,642.38,18.76Zm-4.09.9c0-.35.56-.28.93-.36C639.19,19.66,638.66,19.59,638.29,19.66Zm1.59-.11c-.19-.15.2-.4.29-.32S640,19.62,639.88,19.55Zm2.24.13.64,0C642.88,20.48,640.37,19.73,642.12,19.68Zm-3.77.88c0-.29.37-.26.61-.34C639,20.51,638.59,20.47,638.35,20.56Zm1.27-.09c0-.29.37-.26.62-.35l1-.07c0,.3-.37.26-.62.35ZM41.07,81.53c-.09-.49,2-.79,1.57.15C41.79,82,41.8,81.33,41.07,81.53ZM649.54,20.94l.64,0C650.3,21.73,647.8,21,649.54,20.94Zm2.9-.18c1-.27,1.23.24,2,.2C654.46,21.42,652,21.74,652.44,20.76Zm-1.59.69c0-.36.56-.3.95-.36C651.77,21.44,651.22,21.37,650.85,21.45Zm-15.08,3.21c0-.36.57-.3.93-.38C636.68,24.64,636.14,24.58,635.77,24.66Zm-602.86,63c0-.35.54-.3.89-.38C33.78,87.66,33.26,87.61,32.91,87.68Zm1,.82c0-.29.36-.27.6-.36l.92-.09c0,.3-.35.27-.59.36ZM647.5,28.6c0-.29.38-.25.61-.34C648.12,28.54,647.74,28.52,647.5,28.6Zm2.53-.18c0-.3.37-.26.61-.35C650.65,28.36,650.27,28.33,650,28.42Zm1.28.2c-.17-.14.21-.39.3-.32S651.4,28.7,651.31,28.62ZM35.44,91.67c0-.29.36-.27.6-.36C36.05,91.6,35.68,91.57,35.44,91.67Zm-.59.35c-.18-.14.19-.4.28-.32S34.94,92.09,34.85,92Zm-3.53,2.43c-.17-.14.19-.4.29-.33S31.41,94.52,31.32,94.45Zm-.26.62c-.17-.14.19-.4.28-.32S31.16,95.15,31.06,95.07Zm-7.3,1.82c0-.29.36-.26.59-.35C24.37,96.83,24,96.8,23.76,96.89Zm-4.6.68c0-.29.36-.26.59-.35C19.77,97.51,19.39,97.48,19.16,97.57Zm5.91.11.62-.05C25.82,98.47,23.38,97.74,25.07,97.68Zm-6.43,1.13c-.17-.14.2-.39.29-.32S18.74,98.89,18.64,98.81Zm2.47-.2c0-.29.36-.26.6-.35l.61-.05,1.23-.1c-.05.41-.74.31-1.21.4Zm9.65.1c-.17-.13.19-.4.28-.33S30.85,98.79,30.76,98.71ZM26,100.61c.37-.06.22.42,0,0l-.62,0c.11.66-1.08.24-1.52.43-.11-.64,1.08-.22,1.52-.43C25.31,100.37,25.84,100.25,26,100.61Zm.92-.07c0-.29.36-.26.59-.35C27.48,100.48,27.11,100.46,26.87,100.54Zm-4.89,1c0-.3.36-.26.59-.35l.93-.08c0,.29-.36.26-.59.35Zm-5.85.78c-.17-.14.2-.4.29-.32S16.23,102.4,16.13,102.33Zm1.55-.13c-.11-.64,1.09-.22,1.52-.42l1.55-.13c.1.64-1.09.22-1.53.42ZM32.21,101c-.17-.14.19-.4.28-.32S32.3,101.06,32.21,101Zm-2.76.55c0-.35.54-.3.9-.37C30.33,101.51,29.81,101.45,29.45,101.53Zm-5.23.73c0-.29.36-.26.59-.35l.93-.07,1.54-.13c.11.64-1.08.23-1.51.42Zm4-.33c-.18-.14.19-.4.28-.32S28.33,102,28.24,101.93Zm4-.35c.85-1.19,1.12.82,0,0Zm-8.59,1.63c0-.29.37-.26.6-.35l.93-.08c0,.29-.36.26-.59.35Zm3.69-.61c.17,1-1.26,1.2-1.8.75C25.8,102.81,26.47,102.62,27.36,102.6Zm1,.52c-1.68-.62,2.41-1,1.21-.39l-1.23.1Zm1.83-.44c0-.3.36-.27.59-.36C30.78,102.61,30.41,102.59,30.17,102.68Zm632.15-62c-.18-.14.21-.39.31-.32S662.41,40.74,662.32,40.66ZM23.73,103.81c0-.29.36-.27.59-.36l.93-.07c0,.29-.36.26-.59.35Zm-2.14.48c0-.3.36-.27.59-.36C22.2,104.22,21.82,104.19,21.59,104.29Zm-3.9,1.82c-.17-.57,1.38-.56.95.22l2.17-.18.93-.07c0,.28-.36.26-.59.34L19,106.6C18,107,18.18,106.19,17.69,106.11Zm-2.17.18c0,.65-.73.7-1.5.72A1.56,1.56,0,0,1,15.52,106.29Zm-2.12.77c-.17-.14.2-.4.29-.32S13.5,107.14,13.4,107.06Zm3.12,0c.11.64-1.08.22-1.52.42l-1.86.15c-1.11.22-.46-.5.29-.32l1.86-.15C16.13,107.17,15.87,106.66,16.52,107.11Zm.34.27c-.17-.15.19-.4.28-.32S17,107.45,16.86,107.38Zm.62,0c0-.35.54-.3.9-.38C18.36,107.31,17.84,107.25,17.48,107.33Zm1.24-.11c0-.28.36-.26.59-.34l.62,0C19.87,107.24,19.17,107.13,18.72,107.22ZM103.13,100c-.18-.15.19-.41.28-.33S103.22,100.07,103.13,100Zm33.75-1c.26,0,.34.26.65.23C137.6,99.9,136.05,99.71,136.88,99ZM19.81,112.85c-2.71-.36-6.87,2.05-9.62.79.13-.9,1,.46,1.52-.43l3.11-.25c.36,0,.54-.11.59-.35l1.55-.13c.29.16.59.32.62,0C18.31,112.59,20,111.69,19.81,112.85Zm11.44,9.27c0-.35.54-.3.91-.37C32.14,122.1,31.61,122,31.25,122.12ZM33.07,125c-.18-.14.19-.4.28-.32S33.16,125.05,33.07,125Zm-15.32,4.88c-.17-.14.2-.4.29-.33S17.85,129.93,17.75,129.85ZM640,70c0-.36.55-.29.91-.36C640.89,70,640.38,69.93,640,70ZM40.56,131.5c-1.27-.09-1.76.45-2.78.56-.21-.82,1.14-.39,1.16-1C39.55,131.13,40.79,130.47,40.56,131.5Zm605.3-57.72c.58-.74,2.55-.3,3.67-.57.36,1.06-1.18.51-1.8.73A2.71,2.71,0,0,1,645.86,73.78ZM642.38,77c-.17-.14.19-.39.29-.31S642.47,77.11,642.38,77ZM40.83,138.09c-.62.81-2.52.58-3.35,1.22l-1.57.14c-.73.53-2.41.3-3.07.88a4.77,4.77,0,0,0-2.51.21c.65-1.06,2.86-.85,4-1.54C36.84,139,38.48,138.25,40.83,138.09ZM29.1,140.94c0-.36.55-.3.91-.38C30,140.91,29.46,140.86,29.1,140.94Zm10.21,4.82c0-.3.36-.27.6-.36C39.92,145.7,39.55,145.67,39.31,145.76ZM20.4,150.67c-.17-.14.2-.4.29-.33S20.5,150.75,20.4,150.67Zm42.43-2.86,1.25-.12c0,.36-.55.31-.91.39C62.12,148.42,61.34,147.81,62.83,147.81ZM630.59,92c0,.93-1.47.61-2.39.78-.44,0-.88,0-.9.37-.55.09-.68-.3-1.26-.19-1-.14-.52.88-1.49.73,0-.6-.87-.3-.71-1.14C626.71,92.39,628.17,92,630.59,92ZM430.85,114.83c0-.29.36-.27.59-.36l.62-.07,1.24-.13c-.05.42-.75.33-1.21.43Zm4-.42c0-.35.54-.31.9-.39l1.24-.13c0,.36-.53.31-.9.39Zm4.62-.77c.41.86-.63.6-1.18.73A1.39,1.39,0,0,1,439.5,113.64Zm-12.33,1.87c0-.29.35-.27.58-.36C427.78,115.44,427.4,115.42,427.17,115.51Zm2.75-.59.62-.06C430.69,115.69,428.22,115,429.92,114.92Zm11.19-.84c-.12-.65,1.09-.25,1.52-.47l1.86-.19c0,.3-.35.27-.59.37l-.93.1Zm-193.8,21.13c-.12-.64,1.08-.25,1.52-.46l1.86-.19c3-.25,7.64-.89,10.25-1.07,1.5-.12,4.08-.37,2.51,0s-3.75.23-6.2.65l-3.42.36a22.62,22.62,0,0,1-3.7.69C249,135.5,248.56,134.84,247.31,135.21Zm252.49-25.9.62-.06C500.57,110.08,498.09,109.4,499.8,109.31Zm3.44,0c-.18-.14.18-.4.28-.32S503.33,109.34,503.24,109.26ZM506,109c0-.35.54-.31.91-.39C506.91,109,506.39,108.9,506,109ZM205.47,140.47c0-.28.36-.26.59-.36l.62-.07,1.56-.16c-.06.42-.75.34-1.21.43Zm304.61-31.6c0-.28.36-.26.59-.36C510.69,108.81,510.32,108.78,510.08,108.87Zm3.1-.3c-.17-.14.18-.4.28-.33S513.27,108.64,513.18,108.57Zm4.3-.73c0,.66-.72.73-1.49.75C516,107.94,516.71,107.88,517.48,107.84Zm.65.24c0-.34.29-.19.31,0C518.41,108.39,518.14,108.25,518.13,108.08Zm4.64-.45c.11.64-1.09.24-1.52.45C521.21,107.32,522.34,107.26,522.77,107.63Zm4.33-.43c0-.28.36-.26.59-.35C527.71,107.14,527.34,107.11,527.1,107.2Zm2.45-.54c0,.66-.72.73-1.49.75C527.64,106.44,529,106.85,529.55,106.66Zm7.77-.45,1.54-.15c.55-.14.67.21.34.26-3.11.41-5.42,0-6.81.67-.54.13-.66-.22-.33-.27C533.4,106,536.67,106,537.32,106.21ZM99.4,151.52a.32.32,0,0,1,.63-.06C99.93,151.9,99.75,151.46,99.4,151.52ZM511.66,109c-.18-.13.19-.4.28-.32S511.75,109.09,511.66,109Zm3.71-.36c-.17-.14.19-.4.28-.33S515.46,108.73,515.37,108.65Zm4.33-.42c0-.36.54-.3.9-.39C520.59,108.2,520.06,108.15,519.7,108.23Zm6.5-.64c-.17-.14.19-.4.28-.32S526.3,107.67,526.2,107.59ZM96.31,152.12c0-.29.36-.26.6-.36l.62-.06C97.47,152.11,96.77,152,96.31,152.12Zm400.23-41c-.17-.14.19-.4.28-.32S496.63,111.21,496.54,111.14Zm4.37-.13c-.18-.14.18-.41.27-.34S501,111.08,500.91,111Zm9.29-.94c-.17-.14.18-.41.28-.34S510.29,110.14,510.2,110.07Zm24.44-2.4c-.17-.14.19-.4.28-.33S534.74,107.75,534.64,107.67ZM169.85,145.35l.62-.07C170.62,146.11,168.13,145.44,169.85,145.35Zm2.2.07c-.17-.14.19-.4.28-.33S172.15,145.49,172.05,145.42Zm.94-.09c-.18-.15.18-.41.28-.34S173.08,145.39,173,145.33Zm-45.71,4.93c0-.29.36-.27.59-.35l.94-.1c0,.29-.36.27-.6.36ZM159.65,147c0-.28.36-.26.59-.35C160.26,146.93,159.88,146.91,159.65,147Zm1.24-.12c0-.35.54-.31.9-.39C161.78,146.83,161.25,146.78,160.89,146.87ZM630.57,99.52c-.17-.14.2-.39.29-.31S630.67,99.6,630.57,99.52Zm-24.87,2.12c.39.87-.63.59-1.17.7A1.36,1.36,0,0,1,605.7,101.64ZM113.33,152.27c0-.29.36-.27.6-.36l.62-.06C114.49,152.26,113.79,152.17,113.33,152.27Zm48-4.24c.16.51-1.68.71-1.27-.17l-.93.1c.18-1,.56-.21,1.52-.46C160.58,148,160.94,148,161.32,148Zm6.82-1c-.27.71-1.95.31-2.78.58a8,8,0,0,1-3.07.62c.36-1.44,3.35-1.23,4.6-1.07,0,0,0-.28,0-.3l-.31,0C167,145.75,167.46,147.33,168.14,147Zm-.35-.27c0-.36.54-.31.91-.39C168.68,146.72,168.16,146.68,167.79,146.76ZM604.2,102.07c.19.62-.39.61-.87.68s-1.16.24-1.26-.2a2.65,2.65,0,0,1-1.81.46c-.76-.06-.62.6-1.51.43C600,102.09,602.71,102.66,604.2,102.07Zm-489,50c.33.16.39.66,1,.5,0,.67-1.31.26-1.83.49C114.19,152.39,115.22,152.65,115.2,152.08Zm43-4c0-.29.35-.27.59-.36C158.8,148,158.42,148,158.19,148.05Zm10.88-1.12c0-.29.35-.27.59-.36C169.68,146.86,169.3,146.84,169.07,146.93Zm.93-.09c0-.36.54-.31.9-.4C170.89,146.79,170.36,146.75,170,146.84Zm2.17-.23c0-.35.3-.2.32,0C172.46,146.92,172.19,146.77,172.17,146.61Zm.94-.09c0-.39.59-.37.62-.07C173.63,146.9,173.46,146.45,173.11,146.52Zm1.21-.43c.49-.14.56.22,1,.2C175.47,146.85,173.91,146.87,174.32,146.09ZM111.83,153c-.17-.14.19-.4.29-.32S111.93,153.09,111.83,153Zm35.49-3.57c0-.36.54-.31.91-.39l.93-.1c0,.35-.54.31-.9.39Zm28.62-2.93c-.18-.13.19-.4.28-.32S176,146.6,175.94,146.52Zm1.86-.19c0-.29.36-.27.6-.36C178.42,146.26,178,146.24,177.8,146.33Zm228.46-23.84c.12-.47.33,0,.35.27C406.06,122.9,405.94,122.54,406.26,122.49ZM118.71,152.63c0-.29.36-.27.59-.36C119.32,152.57,119,152.54,118.71,152.63Zm9.93-1.3c.27,0,.35.27.66.24C129.36,152.21,127.81,152,128.64,151.33Zm39.87-3.74c-.18-.14.18-.41.28-.33S168.6,147.67,168.51,147.59Zm2.48-.25c0-.36.55-.31.9-.4C171.88,147.3,171.35,147.25,171,147.34ZM404.43,123c0-.3.36-.28.59-.37C405.05,122.91,404.67,122.89,404.43,123Zm-296,31c-.18-.14.19-.4.28-.32S108.55,154,108.46,154Zm12.15-1.21c0-.29.36-.27.59-.36l.94-.09c0,.29-.36.27-.6.35Zm50.16-4.48c0-.35.55-.31.91-.39C171.66,148.22,171.14,148.18,170.77,148.26Zm2.49-.25c-.18-.14.19-.41.28-.34S173.36,148.08,173.26,148Zm12.44-1.28c0,.89-1.33-.15,0,0C185.63,146.37,186.13,146.49,185.7,146.73Zm-6.53.67c0,.93-1.5.66-2.43.85-.52,0-2.8.45-1.9-.11C176.21,147.56,177.2,147.83,179.17,147.4Zm383.31-39.11c0-.29.36-.26.59-.35C563.09,108.23,562.71,108.2,562.48,108.29ZM439,121.21c-.18-.13.18-.4.28-.32S439.12,121.29,439,121.21Zm141.43-13.68c-.17-.14.19-.41.28-.34S580.56,107.59,580.46,107.53Zm26.81-2.12c-.17-.14.19-.39.28-.32S607.37,105.49,607.27,105.41ZM437,122.63c-.17-.14.19-.4.28-.33S437.08,122.71,437,122.63Zm8.37-.86c0-.38.59-.37.62-.07C445.88,122.15,445.7,121.71,445.35,121.77ZM596.89,106.9c0-.28.35-.26.59-.35C597.49,106.85,597.12,106.82,596.89,106.9Zm5.83-.5c-.17-.14.19-.4.28-.32S602.82,106.48,602.72,106.4ZM426.79,124c-.18-.14.18-.42.27-.34S426.88,124.06,426.79,124Zm2.47-.26c-.17-.14.19-.41.28-.33S429.36,123.8,429.26,123.73Zm1.55-.16c.94,0-.16,1.26,0,0C430.44,123.64,430.58,123.16,430.81,123.57Zm167.92-16.82.62-.06c.2.63-.39.61-.87.68C598.52,107.13,598.76,107.05,598.73,106.75Zm-488.08,50.3c0-.29.37-.27.6-.36C111.27,157,110.89,157,110.65,157.05Zm311.21-32.26c-.83,1.2-1.14-.8,0,0Zm6.2-.64c0-.35.54-.31.9-.39C428.94,124.11,428.41,124.07,428.06,124.15Zm-8.65,1.2c.07.35-.43.22,0,0C419.38,124.44,420.73,125.5,419.41,125.35Zm12.09-1.25c0-.34.29-.2.31,0C431.78,124.41,431.51,124.27,431.5,124.1Zm2.78-.29c.05-.38.59-.36.62-.06C434.81,124.2,434.63,123.74,434.28,123.81Zm8.37-.86c-.18-.14.18-.4.28-.33S442.75,123,442.65,123Zm126.7-11.08c-.3-.9-.27-.55-.14-1.49,1.15.16,1.6-.69,2.17-.2,0,.47.13,1-.54.94C571.83,111.89,570.14,111.74,569.35,111.87Zm12.82-2.7c-.18-.14.19-.4.28-.33S582.26,109.25,582.17,109.17Zm9.25-.86c-.17-.14.19-.4.29-.33S591.52,108.38,591.42,108.31Zm-164.88,16.3.62-.06C427.3,125.38,424.83,124.7,426.54,124.61Zm1.86-.19c.65.12,2.1-.71,1.92.4a1.81,1.81,0,0,0-1.27-.17c-.3.23-.25.72-.87.69A1.38,1.38,0,0,0,428.4,124.42Zm15.21-1.27c-.17-.14.18-.4.28-.32S443.71,123.22,443.61,123.15Zm1.55-.16c-.18-.14.19-.4.28-.32S445.26,123.07,445.16,123ZM565.23,111c.53-.93,1.95,0,.64.24l.09.91c-.73,0-.8-.75-.09-.91C565.79,111.06,565.58,111,565.23,111Zm10.85-.4c0,.66-.71.71-1.48.74.07-.2.66-1.22-.11-1.2.21-.94.85.27,1.26.19-.07-.36.43-.23,0,0C575.78,110.55,575.83,110.72,576.08,110.64Zm2.72-.86c-.17-.14.19-.4.29-.32S578.89,109.86,578.8,109.78Zm20.32-2.16c.64-.2.62.38.69.84-.25,0-.33-.28-.64-.25C599.15,108,599.13,107.81,599.12,107.62Zm-39.44,3.94.92-.09.09.9-.92.09Zm3.7-.35c.86.28.18,1.59-.81,1.29l-.09-.9c.49-.13.56.23,1,.21Q563.41,111.53,563.38,111.21Zm4.62-.43.09.91c.27,0,.28-.15.28-.34,1.21,1-1.85,1.38-1.57-.15C567.36,111.19,567.42,110.78,568,110.78Zm4.94-.46,1.23-.11c-.45.65.07.38.12,1.2-.73.19-.72-.48-1.58-.16A1.29,1.29,0,0,0,572.94,110.32Zm4.35-.1c-.84,1.19-1.12-.8,0,0Zm3.39-.31c-.17-.14.19-.4.28-.33S580.78,110,580.68,109.91Zm2.47-.23c-.17-.14.19-.4.28-.33S583.24,109.76,583.15,109.68Zm2.47-.23c-.18-.14.19-.4.28-.33S585.71,109.53,585.62,109.45Zm-26.53,2.47c1,0-.37,1.63-.56.65-.27,0-.28.15-.28.33-.26,0-.34-.27-.65-.24s-.28.14-.28.33C555.89,112.08,559.14,112.62,559.09,111.92Zm20.7-1.63c0,.39-.37.45-.23.92-.59.18-.58-1.31.23-.92C579.72,109.93,580.22,110.07,579.79,110.29ZM302.91,138.73c-.17-.15.19-.41.28-.34S303,138.8,302.91,138.73Zm117.83-12.62.62-.07.07.61-.63.06Zm4.68-.18c0-.29.35-.27.59-.36C426,125.86,425.65,125.83,425.42,125.93Zm17-2.06.62-.06.07.6-.62.07Zm118.88-11.55c0-.36.53-.31.89-.39C562.19,112.28,561.67,112.23,561.31,112.32Zm10.79-1c-.17-.14.19-.4.28-.33S572.19,111.39,572.1,111.31Zm9.53-1.19c.7.06.58,1.71-.5,1.26C581.07,110.78,581.93,110.92,581.63,110.12Zm12.68-.87c-.17-.15.18-.41.28-.34S594.4,109.32,594.31,109.25Zm-149.65,15c-.17-.14.19-.41.28-.33S444.76,124.32,444.66,124.25Zm1.56-.16c-.18-.14.18-.41.27-.33S446.31,124.16,446.22,124.09Zm132-13.35c-.16.41-.61.61-1.18.7C577.12,110.91,577.56,110.72,578.27,110.74Zm1.85-.17.62-.06,0,.59-.61.05ZM419.28,127.16c0-.28.36-.27.59-.35C419.89,127.09,419.52,127.07,419.28,127.16ZM440.36,125c0-.28.35-.27.59-.35C441,124.92,440.59,124.9,440.36,125ZM140.2,156.79c-.18-.14.18-.4.29-.33S140.3,156.86,140.2,156.79Zm388.12-40.37c1.11.4-.3.86-.56.66S528.5,116.64,528.32,116.42Zm-365.67,38.4c0-.29.35-.27.59-.36l.93-.1,1.86-.19,3.74-.38c.12.63-1.09.24-1.52.45l-1.87.2Zm7.74-1.1c.39.77,2.65-.67,2.58.64-.91.14-2.28-.64-2.46.55-.37,0-.31-.51-.4-.86C170.38,154.08,170.39,153.9,170.39,153.72ZM469,123c-.17-.14.19-.4.28-.33S469.05,123,469,123Zm6.5-.65c-.82,1.19-1.13-.81,0,0Zm29.73-3c0-.3.35-.27.59-.36C505.79,119.24,505.41,119.21,505.18,119.31Zm11.76-1.18c0-.34.29-.19.31,0C517.22,118.45,517,118.3,516.94,118.13Zm12.95-1.56.93-.09c.29,1-.83,1-1.76,1.07C528.86,116.85,530.48,117.57,529.89,116.57Zm4.64-.46.62-.06C535.29,116.89,532.83,116.2,534.53,116.11Zm1.89.12c1.6-.48.45.87,0,0C535.16,116.64,536.27,115.34,536.42,116.23Zm4.64-.45c-.18-.14.18-.41.28-.33S541.15,115.84,541.06,115.78Zm-41.73,4.41c-.18-.13.18-.4.28-.32S499.42,120.27,499.33,120.19Zm1.55-.15c-.12-.64,1.08-.25,1.51-.45C502.21,120.62,501.83,119.79,500.88,120Zm1.85-.19c-.18-.14.19-.4.28-.33S502.83,119.93,502.73,119.85Zm22.24-2.5c1.11.4-.29.86-.55.66S525.16,117.57,525,117.35Zm2.23.38c0,.9-1.31-.16,0,0C526.1,116.9,528.25,117.12,527.2,117.73Zm4-.69c-.18-.14.19-.4.28-.33S531.28,117.11,531.19,117Zm7.73-.76c0-.35.54-.3.89-.38C539.8,116.25,539.28,116.2,538.92,116.28Zm3.4-.33c0-.29.36-.27.59-.36C542.93,115.89,542.55,115.86,542.32,116Zm1.54-.15c.07-.42.75-.32,1.21-.42,0,.35.12.52.37.57C545,117.08,544.54,115.51,543.86,115.8Zm-374.62,39c-.18-.14.19-.41.28-.34S169.34,154.81,169.24,154.75Zm349.61-36.2c-.17-.14.19-.41.28-.33S518.94,118.62,518.85,118.55Zm13.6-1.33c0-.29.36-.27.6-.36C533.07,117.15,532.69,117.12,532.45,117.22Zm1.55-.15c0-.34.3-.2.31,0C534.29,117.38,534,117.23,534,117.07Zm13.88-1.66a2,2,0,0,1,1.58.15C549.49,116.48,547.86,116.34,547.88,115.41Zm2.51.06c1-1.57,1.74,1.27.33.26C550.61,115.66,550.68,115.32,550.39,115.47Zm5.25-.52c-.73,1.15-2-.46,0,0Zm-384.51,39.9c-.17-.14.19-.41.28-.33S171.23,154.92,171.13,154.85Zm308.44-32.06c-.18-.14.19-.4.28-.32S479.66,122.87,479.57,122.79Zm49.2-4.91c-.83,1.19-1.12-.81,0,0Zm4-.4c.12.65-1.08.25-1.51.45C531.4,117,532.06,117.47,532.79,117.48Zm13.61-1.33c-.18-.14.19-.4.28-.32S546.49,116.23,546.4,116.15Zm6.49-.63c-.17-.14.19-.41.28-.33S553,115.59,552.89,115.52Zm-54.4,5.66c-.18-.13.18-.4.27-.33S498.58,121.26,498.49,121.18Zm13.31-1.34c-.17-.13.18-.4.28-.33S511.89,119.92,511.8,119.84Zm24.7-2.72.62-.06.06.6-.62.06Zm-34.89,4c-.17-.14.19-.4.28-.33S501.7,121.24,501.61,121.17Zm44.23-4.36c-.18-.14.19-.4.28-.33S545.93,116.89,545.84,116.81ZM303.25,142c-.17-.14.19-.4.28-.33S303.35,142.08,303.25,142Zm-78.49,8.81c-.18-.14.18-.4.27-.33S224.85,150.89,224.76,150.81Z"/><path class="cls-1" d="M567.54,4.93c-.11-.64,1.1-.24,1.54-.44C569.19,5.13,568,4.73,567.54,4.93Z"/><path class="cls-1" d="M401.8,22.06c0-.35.54-.31.9-.39C402.69,22,402.16,22,401.8,22.06Z"/><path class="cls-1" d="M410.79,20.84c1.35-.15.11.5-.59.35l-1.87.2c-1.54.46-3.63-.08-4,.41s-.36-.14,0-.29C405.77,20.8,408.86,21.44,410.79,20.84Z"/><path class="cls-1" d="M413,20.9c0-.35.55-.31.91-.38C413.88,20.86,413.35,20.82,413,20.9Z"/><path class="cls-1" d="M381,24.53c.06-.68,1.52-.28,2.14-.53C383.1,24.68,381.65,24.28,381,24.53Z"/><path class="cls-1" d="M383.81,24.24c0-.36.55-.31.9-.4l1.25-.13c0,.35-.54.31-.9.4Z"/><path class="cls-1" d="M386.3,24c0-.35.54-.31.9-.4C387.18,23.94,386.66,23.89,386.3,24Z"/><path class="cls-1" d="M388.16,23.79c0-.3.36-.27.6-.37l.61-.07,1.56-.16,3.1-.32c0,.41-.74.32-1.21.43l-1.55.16Z"/><path class="cls-1" d="M395,23.07c0-.29.35-.27.59-.36l.62-.07,1.24-.13,2.79-.29c0,.42-.75.33-1.21.43l-1.24.13Z"/><path class="cls-1" d="M400.59,22.49c0-.35.54-.31.9-.4C401.48,22.45,401,22.4,400.59,22.49Z"/><path class="cls-1" d="M373,25.67c-.25.71-1.94.31-2.76.59-1.24-.47,1.49-.09,1.18-.72A2,2,0,0,1,373,25.67Z"/><path class="cls-1" d="M381,24.53c-.16.7-1.73.29-2.45.56a20.07,20.07,0,0,1-4.94.81c.1-.64.42-.68.9-.39,0-.67,1.3-.27,1.83-.49Z"/><path class="cls-1" d="M508.91,11.77c-.17-.14.19-.41.29-.33S509,11.84,508.91,11.77Z"/><path class="cls-1" d="M269.08,37.45c-.59.73-3.08.59-4,.42-.49.08-1.2,0-1.21.43-.27-.18-.89-.37-.93.1-1.63-.37-2.14-.16-4.06.12a17.35,17.35,0,0,0-4.37.16c.31-.58,1.59-.4,2.1-.82l2.48-.26C262.68,37.85,265.85,37.43,269.08,37.45Z"/><path class="cls-1" d="M364.31,26.87c0-.9,1.32.15,0,0Z"/><path class="cls-1" d="M367.38,26.25l.62-.06,1.25-.13c-.06.41-.76.32-1.21.43C367.38,26.77,366,26.38,367.38,26.25Z"/><path class="cls-1" d="M364.31,26.87c-.68,1-1.25.37-2.43.86-1.58,0-2.37.52-3.69.68-2.9.12-5.12.77-7.74,1.11-5,.85-10.64,1.23-15.46,2.23-3.18.12-4.15.4-7.45.78-1.3.25-3.22,0-4,.72,0-1.23-.67-.09-1.27-.17a2.85,2.85,0,0,0-1.9-.11c-1.64,0-6.7,1.85-7.76.82-.18-.18-.34.34-.28.33a10.22,10.22,0,0,1-1.24.13c-.5,0-2,.62-1.92-.4.51,0,1-.15,1.55-.16.31,0,.21.23.34.26.31.08.54-.35.59-.36.52,0,1-.13,1.55-.16,1.36-.07,1.18.08,1.86-.2a9,9,0,0,1,2.49-.26A164.74,164.74,0,0,1,334,31.54c1.76.17,1.7-1.23,3.08-.62.88-.44,2.13,0,3.72-.39,2.39-.81,5.52-.82,7.38-1.38C352.69,28.42,358.76,27.57,364.31,26.87Z"/><path class="cls-1" d="M248.29,39.63c0-.35.54-.31.9-.4C249.18,39.59,248.65,39.54,248.29,39.63Z"/><path class="cls-1" d="M378,26c-.18-.13.18-.4.28-.33S378.13,26.12,378,26Z"/><path class="cls-1" d="M379.28,25.91c-.18-.13.18-.4.28-.33S379.37,26,379.28,25.91Z"/><path class="cls-1" d="M381.45,25.69c0-.35.54-.32.91-.4l.93-.1c0,.36-.54.31-.9.4Z"/><path class="cls-1" d="M272.18,37.13c1.29,1.07-1.62.15-1.49.76C269.4,36.81,272.31,37.74,272.18,37.13Z"/><path class="cls-1" d="M284.62,36.12c0-.29.36-.27.59-.36C285.23,36.05,284.85,36,284.62,36.12Z"/><path class="cls-1" d="M291.13,35.44c-.17-.14.19-.41.29-.33S291.23,35.51,291.13,35.44Z"/><path class="cls-1" d="M386.76,25.44c0-.3.36-.28.59-.37C387.38,25.36,387,25.34,386.76,25.44Z"/><path class="cls-1" d="M253.32,39.71c0-.29.35-.27.59-.37C253.93,39.63,253.55,39.61,253.32,39.71Z"/><path class="cls-1" d="M273.17,37.63c0-.39.89-.49.93-.1.85-.06.57-.57,1.24-.13C275.06,38.24,273.72,37.57,273.17,37.63Z"/><path class="cls-1" d="M299.23,34.89c-.17-.13.18-.4.28-.33S299.33,35,299.23,34.89Z"/><path class="cls-1" d="M249.62,40.39c0-.28.36-.27.6-.36C250.24,40.32,249.86,40.3,249.62,40.39Z"/><path class="cls-1" d="M275.68,37.66c-.17-.14.19-.4.29-.33S275.78,37.73,275.68,37.66Z"/><path class="cls-1" d="M276.62,37.56c.06-.68,1.51-.28,2.14-.52.44-.07.87-.14,1,.2.25-.21.51-.42.62-.07,1.6-.51,3.15.3,4-.42,1.38.36,2.31-.34,4.07-.12,4.32-.65,7.79-.3,12.12-1,3.14.13,5.17-.2,8.14-.25-.15,1.08-.76.11-1.83.49l-2.79.29c-.31-.65-1.76.07-2.52,0-1.05.36-1.24-.31-2.2-.07-8.13.85-13.32,1.08-21.78,1.69C277.49,37.42,277,37.57,276.62,37.56Z"/><path class="cls-1" d="M304.54,34.63c.07-.68,1.52-.28,2.14-.52.66.11,2-.58,2.21.07C307.05,34.12,305.71,35,304.54,34.63Z"/><path class="cls-1" d="M343.72,31.13c-2.37.38-4.84,1.41-7.11,1,.06-.67,1.52-.27,2.14-.52l2.79-.29a5.51,5.51,0,0,1,2.14-.53Z"/><path class="cls-1" d="M117.73,54.88c0-.29.35-.27.59-.36C118.34,54.81,118,54.79,117.73,54.88Z"/><path class="cls-1" d="M131.93,53.15l.62-.06C132.7,53.92,130.23,53.24,131.93,53.15Z"/><path class="cls-1" d="M138.77,52.76c-.17-.14.19-.4.28-.33S138.86,52.84,138.77,52.76Z"/><path class="cls-1" d="M144,52.23c-.17-.14.19-.4.28-.33S144.12,52.31,144,52.23Z"/><path class="cls-1" d="M148.68,51.76c0-.29.35-.27.59-.36C149.29,51.69,148.91,51.68,148.68,51.76Z"/><path class="cls-1" d="M151.15,51.5c-.17-.13.19-.39.28-.32S151.25,51.58,151.15,51.5Z"/><path class="cls-1" d="M153,51l.63-.07C153.75,51.79,151.28,51.11,153,51Z"/><path class="cls-1" d="M154.87,51.12c0-.28.36-.27.59-.36l.94-.09c0,.29-.36.27-.6.35Z"/><path class="cls-1" d="M336,32.24c-.17-.14.19-.4.29-.33S336.08,32.32,336,32.24Z"/><path class="cls-1" d="M118.68,55.09c-.17-.14.19-.41.28-.34S118.78,55.16,118.68,55.09Z"/><path class="cls-1" d="M203.55,46.41c0-.36.54-.31.9-.4l.93-.1,2.17-.23c0,.36-.54.32-.9.4l-.93.1Z"/><path class="cls-1" d="M208.2,45.92c0-.35.54-.31.9-.4C209.09,45.88,208.56,45.83,208.2,45.92Z"/><path class="cls-1" d="M210.06,45.73c0-.29.36-.27.59-.37C210.67,45.65,210.29,45.63,210.06,45.73Z"/><path class="cls-1" d="M314.28,34.82c0-.29.37-.27.6-.37l.62-.06,1.55-.16c-.05.41-.75.32-1.21.43Z"/><path class="cls-1" d="M317.71,34.46c-.18-.13.18-.4.27-.33S317.8,34.53,317.71,34.46Z"/><path class="cls-1" d="M319.25,34.3c-.17-.14.19-.41.28-.34S319.35,34.37,319.25,34.3Z"/><path class="cls-1" d="M332.91,32.87c-.17-.14.19-.41.28-.34S333,32.94,332.91,32.87Z"/><path class="cls-1" d="M552.28,10.56c0-.29.35-.26.59-.36C552.89,10.5,552.51,10.47,552.28,10.56Z"/><path class="cls-1" d="M198.62,47.22c-.17-.14.19-.4.28-.33S198.72,47.29,198.62,47.22Z"/><path class="cls-1" d="M313.08,35.25c0-.36.54-.32.9-.4C314,35.2,313.44,35.16,313.08,35.25Z"/><path class="cls-1" d="M226.25,44.64c0-.35.54-.31.9-.4l.92-.09c0,.35-.53.31-.89.4Z"/><path class="cls-1" d="M228.73,44.39c0-.36.54-.32.89-.4C229.61,44.34,229.08,44.3,228.73,44.39Z"/><path class="cls-1" d="M309.38,35.94c-.17-.14.19-.41.28-.34S309.48,36,309.38,35.94Z"/><path class="cls-1" d="M270.32,40.33c0-.35.54-.31.9-.39l.93-.1c0,.36-.54.31-.9.39Z"/><path class="cls-1" d="M217.94,46.11c-.18-.14.18-.41.28-.33S218,46.19,217.94,46.11Z"/><path class="cls-1" d="M97.18,58.73c0-.35.54-.29.9-.38C98.06,58.71,97.54,58.66,97.18,58.73Z"/><path class="cls-1" d="M101.51,58.31c0-.35.54-.29.89-.38C102.39,58.29,101.87,58.24,101.51,58.31Z"/><path class="cls-1" d="M102.74,58.19c0-.35.54-.3.9-.38l.93-.1c0,.36-.54.31-.9.39Z"/><path class="cls-1" d="M105.22,58c0-.36.54-.31.9-.39C106.1,57.91,105.58,57.87,105.22,58Z"/><path class="cls-1" d="M214.55,46.76c0-.35.54-.3.91-.39l.93-.1c0,.36-.54.31-.9.39Z"/><path class="cls-1" d="M317.55,36c0-.35.54-.3.9-.39C318.43,36,317.91,35.9,317.55,36Z"/><path class="cls-1" d="M209,47.64c0-.28.35-.27.59-.36C209.62,47.57,209.24,47.55,209,47.64Z"/><path class="cls-1" d="M210.25,47.51c0-.28.35-.27.59-.36l.61-.07,1.56-.16c-.06.42-.75.34-1.21.43Z"/><path class="cls-1" d="M307.31,37.06c-.25,1.18-2.68.65-4,1a14.39,14.39,0,0,1-3.69.7c-.58-1.28,1.85-.21,1.77-1.1C303.36,38.15,306,37.31,307.31,37.06Z"/><path class="cls-1" d="M307.65,37.32c-.18-.13.18-.41.28-.33S307.74,37.4,307.65,37.32Z"/><path class="cls-1" d="M308.27,37.26c0-.34.29-.2.31,0C308.55,37.57,308.29,37.42,308.27,37.26Z"/><path class="cls-1" d="M84.26,60.59c0-.35.55-.3.9-.38l1.24-.13c0,.36-.54.31-.9.39Z"/><path class="cls-1" d="M199.11,49c-.07-.24.1-.29.28-.33l.63-.06.93-.1,2.17-.22,1.24-.13.93-.1c.35-.08.55,0,.65.23l-.93.1a70.49,70.49,0,0,1-7.1,1c-.91-.15-.77.51-1.52.46l-2.79.29c-.77.12-.57-.31,0-.3l1.24-.12A16.46,16.46,0,0,1,199.11,49Z"/><path class="cls-1" d="M207.18,48.13c0-.35.54-.3.9-.39C208.06,48.1,207.54,48.05,207.18,48.13Z"/><path class="cls-1" d="M269.83,41.59c-.18-.14.18-.4.27-.33S269.92,41.66,269.83,41.59Z"/><path class="cls-1" d="M78.74,61.43c0-.29.35-.26.58-.36C79.34,61.37,79,61.34,78.74,61.43Z"/><path class="cls-1" d="M80.9,61.22c0-.28.35-.26.59-.36C81.51,61.16,81.13,61.13,80.9,61.22Z"/><path class="cls-1" d="M622.54,6.71c0-.29.38-.26.62-.35l.64-.05C623.73,6.72,623,6.62,622.54,6.71Z"/><path class="cls-1" d="M76,62c-.17-.14.19-.4.28-.32S76.08,62.07,76,62Z"/><path class="cls-1" d="M173.77,52.19c-.18-.14.18-.4.28-.33S173.86,52.26,173.77,52.19Z"/><path class="cls-1" d="M174.7,52.1c0-.36.54-.31.9-.4C175.58,52.06,175.06,52,174.7,52.1Z"/><path class="cls-1" d="M620,7.21c0-.35.56-.3.92-.38l1-.08c0,.35-.56.3-.93.38Z"/><path class="cls-1" d="M178.14,52c-.18-.14.18-.4.28-.33S178.23,52.12,178.14,52Z"/><path class="cls-1" d="M178.76,52c0-.36.53-.31.9-.39C179.64,51.94,179.12,51.89,178.76,52Z"/><path class="cls-1" d="M183.4,51.5c-.17-.14.19-.4.28-.33S183.5,51.57,183.4,51.5Z"/><path class="cls-1" d="M184,51.44c0-.36.55-.31.9-.4C184.91,51.4,184.38,51.35,184,51.44Z"/><path class="cls-1" d="M567.29,12.48c-.17-.14.2-.41.29-.33S567.39,12.55,567.29,12.48Z"/><path class="cls-1" d="M273.7,42.69c-.17-.14.18-.4.28-.33S273.8,42.77,273.7,42.69Z"/><path class="cls-1" d="M275.56,42.49c-.17-.13.19-.4.28-.32S275.66,42.57,275.56,42.49Z"/><path class="cls-1" d="M564.19,13.06c-.18-.14.19-.39.29-.32S564.28,13.14,564.19,13.06Z"/><path class="cls-1" d="M128.7,58.29c-1.76.5-.26-1.28,0,0Z"/><path class="cls-1" d="M266,43.8a2.11,2.11,0,0,1,2.51,0c-1.28.22-1.25-.27-2.17.23C266.13,44.07,266,44.06,266,43.8Z"/><path class="cls-1" d="M481.88,21.4c-.38.06-.24-.42,0,0Z"/><path class="cls-1" d="M562.34,13.54c0-.35.55-.31.91-.39C563.23,13.5,562.71,13.45,562.34,13.54Z"/><path class="cls-1" d="M265.08,44.2c-.17-.14.19-.41.28-.33S265.17,44.27,265.08,44.2Z"/><path class="cls-1" d="M270.35,43.64c0-.35.54-.31.9-.39l.93-.1c0,.36-.53.31-.9.4Z"/><path class="cls-1" d="M481.88,21.4c.47,0,1.14-.23,1.27.17-.41.14-.55.49-1.21.43Z"/><path class="cls-1" d="M484.4,21.44a.32.32,0,0,1,.62-.06C484.92,21.83,484.75,21.38,484.4,21.44Z"/><path class="cls-1" d="M128.7,58.29c1.26-.41.15.89,0,0Z"/><path class="cls-1" d="M470.11,23.19c0-.38.59-.36.62-.06C470.47,23.34,470.21,23.54,470.11,23.19Z"/><path class="cls-1" d="M483.15,21.57c.38-.07.23.41,0,0Z"/><path class="cls-1" d="M487.54,21.43c-.18-.14.19-.41.28-.33S487.63,21.5,487.54,21.43Z"/><path class="cls-1" d="M488.16,21.37c-.18-.14.19-.41.28-.33S488.26,21.43,488.16,21.37Z"/><path class="cls-1" d="M492.52,20.93c0-.36.54-.31.9-.4C493.41,20.89,492.88,20.84,492.52,20.93Z"/><path class="cls-1" d="M621.1,8.62l.63,0C621.86,9.4,619.37,8.69,621.1,8.62Z"/><path class="cls-1" d="M133.09,58.45c0-.29.36-.27.59-.35C133.71,58.38,133.33,58.36,133.09,58.45Z"/><path class="cls-1" d="M137.74,58c-.18-.14.18-.4.28-.32S137.83,58.06,137.74,58Z"/><path class="cls-1" d="M457.07,24.8c-.18-.14.18-.4.28-.32S457.16,24.88,457.07,24.8Z"/><path class="cls-1" d="M459.25,24.58c-.18-.13.18-.4.28-.32S459.34,24.66,459.25,24.58Z"/><path class="cls-1" d="M460.18,24.49c-.11-.64,1.09-.25,1.53-.45l1.55-.16c.12.64-1.09.24-1.52.45Z"/><path class="cls-1" d="M463.92,24.11c0-.28.35-.27.59-.35l.62-.07,1.25-.12c-.06.41-.76.32-1.22.41Z"/><path class="cls-1" d="M467.65,23.73c0-.28.36-.26.59-.35C468.27,23.67,467.89,23.65,467.65,23.73Z"/><path class="cls-1" d="M468.58,23.64c-.17-.14.19-.4.29-.32S468.68,23.71,468.58,23.64Z"/><path class="cls-1" d="M494.11,21.06c-.18-.13.18-.4.28-.32S494.2,21.14,494.11,21.06Z"/><path class="cls-1" d="M616.74,9.59c0-.28.36-.26.6-.34C617.36,9.53,617,9.51,616.74,9.59Z"/><path class="cls-1" d="M133.74,58.69c-.66.76-2.76.38-4,.7-.36-1.11,1.42-.53,2.11-.82C132.59,58.49,132.82,59,133.74,58.69Z"/><path class="cls-1" d="M135,58.57c0-.36.54-.32.9-.4C135.87,58.53,135.35,58.48,135,58.57Z"/><path class="cls-1" d="M203.77,51.51c-.18-.14.18-.42.27-.34S203.86,51.58,203.77,51.51Z"/><path class="cls-1" d="M127,59.67c0-.9,1.32.16,0,0Z"/><path class="cls-1" d="M128.2,59.54c-.17-.14.19-.4.28-.32S128.29,59.62,128.2,59.54Z"/><path class="cls-1" d="M134.08,59c0-.29.36-.27.59-.35C134.69,58.88,134.32,58.86,134.08,59Z"/><path class="cls-1" d="M138.11,58.55c0-.35.54-.31.9-.39C139,58.51,138.47,58.47,138.11,58.55Z"/><path class="cls-1" d="M183.65,53.88c0-.41.75-.32,1.21-.42l.09.89C184.13,54.65,184.26,53.83,183.65,53.88Z"/><path class="cls-1" d="M185.2,53.72c.07-.68,1.51-.27,2.14-.51-.48.44-.54,1.21-1.77,1.08C185.88,53.89,185.78,53.65,185.2,53.72Z"/><path class="cls-1" d="M114.61,61.22c-.07-.36.43-.23,0,0Z"/><path class="cls-1" d="M117.67,60.6l.63-.06C118.44,61.38,116,60.7,117.67,60.6Z"/><path class="cls-1" d="M124.52,60.22c-2.15.51-4.51.85-6.76,1.28-.13-.53,2.71-.5.87-.69.27-.71,1.94-.31,2.76-.58C122.35,60.32,124,59.58,124.52,60.22Z"/><path class="cls-1" d="M127,59.67c-.27.95-1.67-.16,0,0Z"/><path class="cls-1" d="M450.63,26.36c-.17-.13.19-.39.28-.33S450.73,26.44,450.63,26.36Z"/><path class="cls-1" d="M451.56,26.27c0-.29.36-.27.59-.37C452.17,26.2,451.8,26.18,451.56,26.27Z"/><path class="cls-1" d="M107,63.19c-1,.61-1.08-.08-2.19-.09l-5.88.58a7.44,7.44,0,0,0-2.47.24c-.8-.17-2.61.84-2.53-.35,1.49-.28,3.64,0,4.6-.75.6-.15.65.34,1,.51,1.59-.5,3.82-.17,6.18-.61A1.38,1.38,0,0,1,107,63.19Z"/><path class="cls-1" d="M110.93,61.89c0-.35.53-.31.89-.39C111.81,61.85,111.28,61.81,110.93,61.89Z"/><path class="cls-1" d="M114.61,61.22c-.59,1-2-.15,0,0Z"/><path class="cls-1" d="M124.52,60.22c.37-.07.23.42,0,0Z"/><path class="cls-1" d="M440.71,27.69c0-.29.36-.28.6-.37l.62-.06,1.55-.16,3.11-.32c0,.42-.75.33-1.21.43l-1.56.16Z"/><path class="cls-1" d="M448.49,26.89c0-.29.35-.28.59-.37C449.1,26.82,448.72,26.8,448.49,26.89Z"/><path class="cls-1" d="M88.69,64.38c-.17-.14.19-.4.28-.33S88.78,64.45,88.69,64.38Z"/><path class="cls-1" d="M89.93,64.26c-.37.07-.24-.42,0,0Z"/><path class="cls-1" d="M91.16,64.14c0-.29.36-.27.59-.36C91.77,64.07,91.4,64,91.16,64.14Z"/><path class="cls-1" d="M117.15,61.56c-.18-.13.18-.4.28-.33S117.24,61.64,117.15,61.56Z"/><path class="cls-1" d="M438.26,28.24c-.18-.14.18-.4.28-.33S438.35,28.32,438.26,28.24Z"/><path class="cls-1" d="M622.22,10.63c0-.35.56-.29.93-.37C623.13,10.62,622.59,10.56,622.22,10.63Z"/><path class="cls-1" d="M89.93,64.26l.92-.09c-.12.91-1.13,1.11-2.38,1.14-1.31-.13-2.54.65-3.09.3-.52.31-1.53.24-1.8.77a1.51,1.51,0,0,1-1-.21c-.73.06-.86.6-1.82.48l-1.24.12c0-.35.46-.36.9-.39,1-.42,2.52-.38,3.34-.93l2.48-.24a1.71,1.71,0,0,0,1.2-.42C88.2,64.55,89.76,65,89.93,64.26Z"/><path class="cls-1" d="M76.78,67c0-.35.54-.31.9-.39C77.66,67,77.14,67,76.78,67Z"/><path class="cls-1" d="M102.13,64.58c-.18-.14.18-.41.28-.34S102.22,64.65,102.13,64.58Z"/><path class="cls-1" d="M97.21,65.36c.4-.08,2.23-.27,1.27.18l-1.86.18-3.71.36c-.54.13-.66-.22-.33-.27.45-.46,1.21-.4,1.82-.48.35,0,.21.25.34.27s.71-.43,1.2-.42S96.63,65.4,97.21,65.36Z"/><path class="cls-1" d="M100,65.09c-.17-.14.19-.41.28-.33S100.09,65.16,100,65.09Z"/><path class="cls-1" d="M88.27,66.53c0-.3.36-.27.59-.36l.93-.09c0,.29-.36.26-.59.36Z"/><path class="cls-1" d="M100.64,65.33c-.12-.65,1.09-.24,1.52-.45C102.2,65.63,101.08,65.69,100.64,65.33Z"/><path class="cls-1" d="M102.5,65.14c-.18-.13.19-.4.27-.32S102.59,65.21,102.5,65.14Z"/><path class="cls-1" d="M103.73,65c0-.29.36-.26.59-.36C104.34,65,104,64.93,103.73,65Z"/><path class="cls-1" d="M106.52,64.74c0-.29.35-.26.59-.36C107.13,64.67,106.75,64.65,106.52,64.74Z"/><path class="cls-1" d="M110.85,64.31c-.07-.37.44-.23,0,0Z"/><path class="cls-1" d="M69.14,68.68c0-.28.35-.27.59-.35C69.75,68.62,69.37,68.6,69.14,68.68Z"/><path class="cls-1" d="M103.14,65.38c-.17-.14.19-.4.28-.33S103.24,65.45,103.14,65.38Z"/><path class="cls-1" d="M110.85,64.31c.12.64-1.08.24-1.51.45C109.22,64.12,110.42,64.51,110.85,64.31Z"/><path class="cls-1" d="M82.46,67.69c0-.28.36-.26.59-.36C83.07,67.63,82.69,67.6,82.46,67.69Z"/><path class="cls-1" d="M88.64,67.09c0-.28.36-.26.59-.36C89.25,67,88.88,67,88.64,67.09Z"/><path class="cls-1" d="M93,67c-.18-.14.19-.41.28-.33S93.09,67,93,67Z"/><path class="cls-1" d="M73.86,69.13c0-.29.36-.27.59-.36C74.47,69.06,74.1,69,73.86,69.13Z"/><path class="cls-1" d="M79.71,68.26l.61-.06C80.47,69,78,68.35,79.71,68.26Z"/><path class="cls-1" d="M82.52,68.29c-.17-.14.18-.4.28-.33S82.61,68.37,82.52,68.29Z"/><path class="cls-1" d="M85,68.05c-.17-.14.19-.4.28-.33S85.09,68.13,85,68.05Z"/><path class="cls-1" d="M54.5,71.87c-.18-.14.18-.4.28-.33S54.59,71.94,54.5,71.87Z"/><path class="cls-1" d="M55.73,71.76c-.17-.15.19-.41.28-.33S55.82,71.83,55.73,71.76Z"/><path class="cls-1" d="M45,73.34c.71-.94,1.44-.43,2.74-.56,1,.17-.51.45-.89.39Z"/><path class="cls-1" d="M83.87,69.36c0-.36.54-.31.9-.38C84.75,69.33,84.23,69.28,83.87,69.36Z"/><path class="cls-1" d="M41.61,73.65l.61-.05C42.36,74.43,39.91,73.73,41.61,73.65Z"/><path class="cls-1" d="M38.27,74.56c-.17-.14.19-.4.28-.33S38.37,74.63,38.27,74.56Z"/><path class="cls-1" d="M39.19,74.48c0-.3.36-.27.59-.36C39.8,74.41,39.43,74.39,39.19,74.48Z"/><path class="cls-1" d="M74.4,71.48a1.4,1.4,0,0,1-1.18.72C73.25,71.68,73.69,71.47,74.4,71.48Z"/><path class="cls-1" d="M21.44,76.94c.06-.38.59-.35.62,0C21.8,77.1,21.54,77.3,21.44,76.94Z"/><path class="cls-1" d="M75.36,71.7l.62-.06C76.12,72.47,73.65,71.78,75.36,71.7Z"/><path class="cls-1" d="M76.31,71.9c0-.29.36-.27.59-.35C76.92,71.83,76.54,71.81,76.31,71.9Z"/><path class="cls-1" d="M77.55,71.78c-.18-.14.19-.4.28-.32S77.64,71.86,77.55,71.78Z"/><path class="cls-1" d="M70.19,73.1c-.4-1,1.18-.53,1.79-.78,1.44-.28.8.47-.28.33C71,72.6,71.08,73.26,70.19,73.1Z"/><path class="cls-1" d="M57.21,74.33c-.2.83-1-.33-1.85.17-.32,0-.79-.07-.33-.27C55.85,74.15,56.78,74,57.21,74.33Z"/><path class="cls-1" d="M57.21,74.33c.59-1,2,.16,0,0Z"/><path class="cls-1" d="M55.11,75.12c.31,1-.42,1.14-1.12,1.31C53.68,75.45,54.41,75.29,55.11,75.12Z"/><path class="cls-1" d="M41.76,78.76c0-.3.36-.27.59-.36C42.36,78.69,42,78.66,41.76,78.76Z"/><path class="cls-1" d="M45.54,79.31c-.11-.65,1.08-.24,1.52-.44l1.85-.17c.11.64-1.08.23-1.52.44Z"/><path class="cls-1" d="M45.54,79.31c-.6,1-2-.17,0,0Z"/><path class="cls-1" d="M37.34,81.56c0-.29.36-.27.59-.35C38,81.5,37.58,81.48,37.34,81.56Z"/><path class="cls-1" d="M662.17,23.57c-.17-.15.22-.39.32-.32S662.27,23.65,662.17,23.57Z"/><path class="cls-1" d="M20.62,89c.07-.67,1.5-.24,2.12-.47,1,.14.29-1.06,1.49-.73C24.64,89.56,21.76,88.58,20.62,89Z"/><path class="cls-1" d="M30.1,87.64c0-.28.36-.26.59-.35l.93-.09c0,.29-.36.27-.59.36Z"/><path class="cls-1" d="M26.12,88.28c0-.29.36-.26.59-.35C26.73,88.22,26.36,88.19,26.12,88.28Z"/><path class="cls-1" d="M20.62,89c-.47.73-2.34.3-3.36.58-1.23,0-2.92.52-3.71,0,.19-.9,1,.09,1.53-.13Z"/><path class="cls-1" d="M25.2,88.35l.62,0C26,89.14,23.52,88.41,25.2,88.35Z"/><path class="cls-1" d="M30.46,88.21c0-.36.54-.3.9-.38C31.34,88.18,30.82,88.13,30.46,88.21Z"/><path class="cls-1" d="M22.84,89.76c0-.3.36-.27.6-.36C23.45,89.69,23.08,89.67,22.84,89.76Z"/><path class="cls-1" d="M13.86,93.5c-.17-.14.19-.4.29-.32S14,93.58,13.86,93.5Z"/><path class="cls-1" d="M19.4,93c-.17-.14.2-.4.29-.32S19.5,93.12,19.4,93Z"/><path class="cls-1" d="M29.56,92.21c-.17-.15.2-.41.29-.33S29.66,92.28,29.56,92.21Z"/><path class="cls-1" d="M4.36,94.88c0-.28.37-.26.59-.34C5,94.83,4.6,94.8,4.36,94.88Z"/><path class="cls-1" d="M22.94,94.55c-.46-.12-1.56.48-1.56-.17C21.84,94.5,22.94,93.9,22.94,94.55Z"/><path class="cls-1" d="M18.11,96.15c0-.29.36-.26.59-.35C18.72,96.09,18.34,96.07,18.11,96.15Z"/><path class="cls-1" d="M24.87,95.3c-.29.93-1.66-.19,0,0Z"/><path class="cls-1" d="M16,96.63c0-.29.36-.26.59-.35C16.59,96.57,16.21,96.54,16,96.63Z"/><path class="cls-1" d="M7.22,99.75c.83-.28.67.55,1.28.5l1.55-.13,1.23-.1c.55-.13.66.23.34.28l-1.24.1a6.64,6.64,0,0,1-2.75.52c-.76,0,.27,1.35-.86,1C6.3,101.48,6.65,100.16,7.22,99.75Z"/><path class="cls-1" d="M15,100c-.17-.14.2-.4.28-.33S15.1,100.09,15,100Z"/><path class="cls-1" d="M10.74,101c-.17-.14.19-.4.28-.33S10.83,101.05,10.74,101Z"/><path class="cls-1" d="M11.67,100.9c0-.36.54-.3.9-.38C12.54,100.87,12,100.82,11.67,100.9Z"/><path class="cls-1" d="M8.31,101.77c-.17-.14.2-.4.29-.33S8.4,101.85,8.31,101.77Z"/><path class="cls-1" d="M11.09,101.54c0-.28.37-.26.6-.35C11.7,101.49,11.33,101.46,11.09,101.54Z"/><path class="cls-1" d="M5.65,103.49c0-.34.3-.19.3,0C5.93,103.81,5.66,103.66,5.65,103.49Z"/><path class="cls-1" d="M10,103.74c.1.64-1.08.22-1.52.42C8.4,103.52,9.59,103.94,10,103.74Z"/><path class="cls-1" d="M6.38,104.93c-1-.25.24-.87.88-.67.55-.13.66.24.34.28l-1.24.1Z"/><path class="cls-1" d="M12.55,104.13c0-.29.36-.27.59-.35l.93-.08c0,.29-.36.26-.6.35Z"/><path class="cls-1" d="M4.84,105.06c0-.35.54-.29.9-.37C5.72,105,5.19,105,4.84,105.06Z"/><path class="cls-1" d="M8.52,104.46l.62,0,0,.6-.62,0Z"/><path class="cls-1" d="M7.67,105.44c0-.35.3-.2.31,0C7.94,105.75,7.68,105.6,7.67,105.44Z"/><path class="cls-1" d="M668.46,42.46c-.18-.15.21-.39.3-.32S668.55,42.53,668.46,42.46Z"/><path class="cls-1" d="M669.1,42.72c-.17-.15.22-.39.31-.31S669.19,42.8,669.1,42.72Z"/><path class="cls-1" d="M11.76,109.9l.62-.05C12.51,110.69,10.06,110,11.76,109.9Z"/><path class="cls-1" d="M2.51,111.26c.1-.44.27,0,.62-.05C3.08,111.6,2.53,111.57,2.51,111.26Z"/><path class="cls-1" d="M9.3,110.41c-.5.51-1.61.54-2.43.8C6.87,110.27,8.37,110.58,9.3,110.41Z"/><path class="cls-1" d="M9.64,110.68c0-.29.36-.26.6-.35C10.25,110.62,9.87,110.6,9.64,110.68Z"/><path class="cls-1" d="M4.29,114.13c-.18-.14.19-.41.28-.33S4.38,114.21,4.29,114.13Z"/><path class="cls-1" d="M662.19,51.46c0-.35.57-.27.94-.34C663.09,51.47,662.56,51.4,662.19,51.46Z"/><path class="cls-1" d="M3.22,116.62c.86-.12,1.11.37.69.85L7,117.21c-.24,1,1,.38,1.6.47.19.89-1,.7-1.49,1,.2-1-1-.33-1-1.12-1,.61-1.6-.06-3.11.26C2.93,117.31,3.34,117.18,3.22,116.62Z"/><path class="cls-1" d="M4.51,117.11c-.17-.14.2-.39.29-.32S4.6,117.19,4.51,117.11Z"/><path class="cls-1" d="M659.48,53.4c-.17-.15.2-.4.29-.32S659.56,53.47,659.48,53.4Z"/><path class="cls-1" d="M656.06,53.87c.05-.38.6-.34.62,0C656.42,54,656.15,54.23,656.06,53.87Z"/><path class="cls-1" d="M657.62,53.79c0,.36-.45.2,0,0Z"/><path class="cls-1" d="M19.68,118.86c0-.34.55-.29.91-.37C20.56,118.85,20,118.79,19.68,118.86Z"/><path class="cls-1" d="M20.65,123c0-.35.55-.29.91-.37l1.24-.1c0,.35-.54.29-.9.37Z"/><path class="cls-1" d="M26.88,122.48c0-.35.55-.3.92-.37C27.78,122.46,27.25,122.4,26.88,122.48Z"/><path class="cls-1" d="M26.29,122.84c-.18-.15.19-.41.28-.33S26.38,122.91,26.29,122.84Z"/><path class="cls-1" d="M21.21,126c.06.36-.44.23,0,0Z"/><path class="cls-1" d="M17.9,131.64c0-.29.36-.27.6-.35C18.51,131.58,18.14,131.56,17.9,131.64Z"/><path class="cls-1" d="M33.62,131.24c-.18-.14.19-.4.28-.33S33.71,131.32,33.62,131.24Z"/><path class="cls-1" d="M667.41,71.9c-.73-.15-2.17.48-2.42-.18l1.2-.06C666.64,71.68,667.3,71.5,667.41,71.9Z"/><path class="cls-1" d="M667.41,71.9c1.59-.4.4.89,0,0Z"/><path class="cls-1" d="M30.15,134.84c.5.11.05.3-.29.32l-1.25.1a7.19,7.19,0,0,1-2.8.54c-.12-.85,2,.08,1.83-.76Z"/><path class="cls-1" d="M24.56,135.9c0-.35.55-.3.91-.38C25.45,135.88,24.92,135.82,24.56,135.9Z"/><path class="cls-1" d="M23,136c-.51.52-1.63.54-2.46.8C20.25,135.67,22.23,136.34,23,136Z"/><path class="cls-1" d="M18.34,137c0-.35.55-.3.91-.37l.95-.08c0,.35-.56.3-.92.38Z"/><path class="cls-1" d="M655.53,80.29c.3-.93,1.6.24,0,0Z"/><path class="cls-1" d="M640,85.92c-.18-.14.18-.39.28-.32S640,86,640,85.92Z"/><path class="cls-1" d="M646.75,86.63c0,.86-1.24.64-2.1.75A4.07,4.07,0,0,1,646.75,86.63Z"/><path class="cls-1" d="M15.09,151.71c0-.35.55-.3.92-.38C16,151.69,15.46,151.63,15.09,151.71Z"/><path class="cls-1" d="M55.51,150.59c-.18-.14.19-.4.29-.33S55.61,150.66,55.51,150.59Z"/><path class="cls-1" d="M48,151.58c0-.36.55-.31.91-.39l.94-.09c0,.36-.55.31-.91.39Z"/><path class="cls-1" d="M47.11,152c0-.29.37-.27.61-.35C47.73,151.9,47.36,151.87,47.11,152Z"/><path class="cls-1" d="M55.6,151.49c-.18-.15.18-.41.28-.34S55.69,151.56,55.6,151.49Z"/><path class="cls-1" d="M58.32,153.64c-.38.06-.23-.42,0,0Z"/><path class="cls-1" d="M56.47,154.11c-.15-.51,1.7-.69,1.28.18C57.1,154.48,56.9,154.17,56.47,154.11Z"/><path class="cls-1" d="M58.46,155.13c-.18-.14.19-.4.28-.33S58.55,155.21,58.46,155.13Z"/><path class="cls-1" d="M54.72,155.77c0-.08.63-.61.92-.38S54.45,156.39,54.72,155.77Z"/><path class="cls-1" d="M56,155.66c0-.29.36-.27.6-.36C56.59,155.59,56.21,155.57,56,155.66Z"/><path class="cls-1" d="M51.6,156.06c1.27-.36.46,1.35-.27.62C51.37,156.44,51.62,156.36,51.6,156.06Z"/><path class="cls-1" d="M110.18,152.28c-.17-.14.19-.41.29-.33S110.28,152.35,110.18,152.28Z"/><path class="cls-1" d="M633,99.65c-.09-.49,1.94-.75,1.54.18C633.84,100,633.86,99.34,633,99.65Z"/><path class="cls-1" d="M635.75,99.45c0-.3.36-.26.59-.35l.6,0C636.88,99.47,636.2,99.36,635.75,99.45Z"/><path class="cls-1" d="M72.15,156.28c-.18-.14.19-.4.29-.33S72.24,156.35,72.15,156.28Z"/><path class="cls-1" d="M151.65,148.71c-.49,0-1.08.15-1-.5A2.32,2.32,0,0,1,151.65,148.71Z"/><path class="cls-1" d="M152.86,148.29c-.17-.14.19-.4.29-.33S153,148.36,152.86,148.29Z"/><path class="cls-1" d="M132,150.69c-.84,1.2-1.14-.81,0,0Z"/><path class="cls-1" d="M134.22,150.47c-.77-.05-.62.61-1.53.45-.42-1,.92-.56,1.5-.75Z"/><path class="cls-1" d="M134.53,150.44c.59-1,2,.14,0,0Z"/><path class="cls-1" d="M141.07,149.78c-1.27.41-.16-.89,0,0Z"/><path class="cls-1" d="M54.06,158.85c-1,0,.18-1.28,0,0Z"/><path class="cls-1" d="M54.35,158.52c0-.29.36-.27.59-.36C55,158.45,54.58,158.43,54.35,158.52Z"/><path class="cls-1" d="M56.23,158.34c0-.28.36-.26.59-.35C56.84,158.28,56.46,158.26,56.23,158.34Z"/><path class="cls-1" d="M126.15,151.58c-.83,1.2-1.13-.8,0,0Z"/><path class="cls-1" d="M134.22,150.47l.31,0C134.54,150.6,134.31,150.8,134.22,150.47Z"/><path class="cls-1" d="M54.06,158.85c2-.53.77.84,0,0Z"/><path class="cls-1" d="M109.88,155.62c-.17-.14.19-.4.29-.33S110,155.69,109.88,155.62Z"/><path class="cls-1" d="M103.7,156.82c-.17-.14.19-.4.28-.33S103.79,156.89,103.7,156.82Z"/><path class="cls-1" d="M95,158c-.17-.14.19-.4.29-.33S95.08,158,95,158Z"/><path class="cls-1" d="M96.24,157.85c0-.36.54-.31.9-.39C97.13,157.82,96.6,157.77,96.24,157.85Z"/><path class="cls-1" d="M99.05,157.57c-.18-.13.19-.4.28-.32S99.14,157.65,99.05,157.57Z"/><path class="cls-1" d="M101.86,157.3c0-.29.36-.27.59-.36C102.47,157.23,102.09,157.21,101.86,157.3Z"/><path class="cls-1" d="M617.45,105.14c-.18-.14.19-.4.28-.32S617.54,105.22,617.45,105.14Z"/><path class="cls-1" d="M621.75,104.77c-.18-.14.19-.4.28-.32S621.84,104.85,621.75,104.77Z"/><path class="cls-1" d="M91,158.67c0-.36.55-.31.91-.4C91.85,158.63,91.32,158.58,91,158.67Z"/><path class="cls-1" d="M93.12,158.15l.62-.06C93.89,158.92,91.4,158.23,93.12,158.15Z"/><path class="cls-1" d="M94.09,158.36c-.19-.14.18-.41.27-.33S94.18,158.44,94.09,158.36Z"/><path class="cls-1" d="M106.23,156.88l0,.3C106.09,157.2,105.88,157,106.23,156.88Z"/><path class="cls-1" d="M88.18,159.23c0-.35.55-.31.91-.38C89.08,159.2,88.54,159.15,88.18,159.23Z"/><path class="cls-1" d="M88.75,161.89c.56,0,.62-.43,1.22-.42,0,.28.41.19.66.24.53-.23,1.87.18,1.84-.48-.49-.12,0-.31.28-.34,0-.51-.6-.71-.08-.89.83-.29.68.53,1.3.48-.09-.76.2-.39.6-.36-.23-.65.56-.49.54-1a5.74,5.74,0,0,1-3.12.3c-.33.24.15,1-.82,1.29.09-1.3-1.72-.81-1.91-.11.47.11,1.58-.52,1.59.14-.48.15.33.49-.25.63-1.28-.51-3.61.19-5.34.21,0-.69-.93-.24-1-.8.37,0,.55-.12.59-.36-1.59.13-3.27.19-4,1,0-.36-.12-.53-.37-.58-.14.63-1.44.35-1.47,1.06C81.58,162.69,86.69,161.51,88.75,161.89Zm-7.26-.19c-.18-.15.18-.41.28-.34S81.58,161.76,81.49,161.7Z"/><path class="cls-1" d="M114.46,157.27c.06.36-.44.24,0,0Z"/><path class="cls-1" d="M96.42,159.64c-.18-.14.18-.41.28-.33S96.51,159.71,96.42,159.64Z"/><path class="cls-1" d="M102.94,158.7c1.27-.41.15.88,0,0Z"/><path class="cls-1" d="M570.84,111.12c-.25,0-.61,0-.64-.24C570.44,110.93,570.81,110.84,570.84,111.12Z"/><path class="cls-1" d="M602.55,107.92l.3,0C603,108.4,602.57,108.66,602.55,107.92Z"/><path class="cls-1" d="M113.61,158.27c0-.36.54-.31.91-.4l1.24-.13c0,.36-.54.31-.9.4Z"/><path class="cls-1" d="M118.25,157.49c.47.13,1.58-.5,1.59.15C119.37,157.52,118.27,158.15,118.25,157.49Z"/><path class="cls-1" d="M604.13,108.39c0-.29.36-.26.59-.35C604.74,108.33,604.36,108.3,604.13,108.39Z"/><path class="cls-1" d="M625.6,106.55c-.17-.14.19-.4.29-.33S625.69,106.63,625.6,106.55Z"/><path class="cls-1" d="M109,159c0-.35.54-.3.91-.39C109.85,159,109.32,158.94,109,159Z"/><path class="cls-1" d="M605.38,108.59c-.17-.15.19-.41.29-.33S605.48,108.65,605.38,108.59Z"/><path class="cls-1" d="M79,161.94c-.28.94-1.69-.17,0,0Z"/><path class="cls-1" d="M96.81,160.5c0-.29.36-.27.6-.35C97.43,160.43,97.05,160.41,96.81,160.5Z"/><path class="cls-1" d="M98.37,160.35c0-.29.36-.27.6-.35C99,160.28,98.61,160.26,98.37,160.35Z"/><path class="cls-1" d="M75.3,162.9c0-.3.36-.28.59-.37l.94-.09c0,.29-.36.27-.6.37Z"/><path class="cls-1" d="M134.88,157c0-.3.35-.28.59-.37C135.49,157,135.11,156.93,134.88,157Z"/><path class="cls-1" d="M596.55,110c-.18-.15.18-.41.27-.34S596.64,110,596.55,110Z"/><path class="cls-1" d="M94.71,161.61c0-.35.55-.31.91-.39C95.6,161.57,95.08,161.52,94.71,161.61Z"/><path class="cls-1" d="M97.84,161.31c0-.3.36-.27.59-.36C98.45,161.24,98.07,161.21,97.84,161.31Z"/><path class="cls-1" d="M104.71,160.64c-.18-.14.18-.41.28-.33S104.8,160.71,104.71,160.64Z"/><path class="cls-1" d="M105.64,160.55c-.18-.14.19-.41.29-.33S105.74,160.61,105.64,160.55Z"/><path class="cls-1" d="M107.83,160.33c0-.58.5.09.34.27C107.88,160.94,107.31,160.22,107.83,160.33Z"/><path class="cls-1" d="M441.41,126.09c-.18-.14.18-.4.28-.33S441.5,126.16,441.41,126.09Z"/><path class="cls-1" d="M410.42,129.28c.07.36-.43.23,0,0Z"/><path class="cls-1" d="M439.89,126.55c-.17-.14.19-.41.28-.33S440,126.62,439.89,126.55Z"/><path class="cls-1" d="M385.33,132.2c1.62-.49.47.87,0,0Z"/><path class="cls-1" d="M606.45,110.3c.36,1.21-1.87.31-2.06,1.07a10.68,10.68,0,0,0-3.65.62c-.1-.66-1.31,0-1.86-.14a6.23,6.23,0,0,1-3.68.32c-1-.09-.91.65-1.55.14.07-.68,1.64-.16,1.8-.77C599,111.71,602.58,110.66,606.45,110.3Z"/><path class="cls-1" d="M560,114.84c.39,1-1.17.53-1.79.77C558.16,114.85,559.17,114.92,560,114.84Z"/><path class="cls-1" d="M562.21,115.24c.17-.55.56-.1.92-.09C563,115.7,562.58,115.25,562.21,115.24Z"/><path class="cls-1" d="M324.67,139.75c-.18-.13.18-.4.28-.33S324.76,139.83,324.67,139.75Z"/><path class="cls-1" d="M564.39,115.34c.12-.48.32,0,.34.26C564.19,115.74,564.07,115.38,564.39,115.34Z"/><path class="cls-1" d="M565.62,115.22c-.17-.14.19-.4.28-.33S565.72,115.3,565.62,115.22Z"/><path class="cls-1" d="M563.49,115.72c-.17-.14.19-.4.29-.33S563.59,115.79,563.49,115.72Z"/><path class="cls-1" d="M576.14,114.54c-.18-.14.18-.4.28-.32S576.23,114.62,576.14,114.54Z"/><path class="cls-1" d="M207.36,152.63c.61-.17,1,0,1,.49l-.93.1Z"/><path class="cls-1" d="M212.05,152.43c-.14-.45,1.64-.58,1,.21C213.12,152.51,212.05,152.43,212.05,152.43Z"/><path class="cls-1" d="M202.76,153.7c-.18-.14.18-.4.28-.33S202.85,153.77,202.76,153.7Z"/><path class="cls-1" d="M215.16,152.11c0,.9-1.32-.15,0,0Z"/><path class="cls-1" d="M196,154.71c-.18-.14.18-.41.28-.34S196,154.77,196,154.71Z"/><path class="cls-1" d="M201.85,154.1c-.17-.14.19-.41.28-.34S202,154.17,201.85,154.1Z"/><path class="cls-1" d="M119.1,162.83c-.18-.14.18-.4.28-.33S119.19,162.9,119.1,162.83Z"/><path class="cls-1" d="M182.92,156.35c0-.29.35-.28.59-.36C183.53,156.27,183.15,156.26,182.92,156.35Z"/><path class="cls-1" d="M194.7,154.83l.62-.06C195.47,155.6,193,154.93,194.7,154.83Z"/><path class="cls-1" d="M196.6,154.94c-.18-.14.18-.4.28-.33S196.69,155,196.6,154.94Z"/><path class="cls-1" d="M112.58,163.78c0-.29.37-.26.6-.36C113.2,163.72,112.82,163.69,112.58,163.78Z"/><path class="cls-1" d="M117,164c-1.23.32-1.81-.12-2.84,0,0-.29.36-.27.6-.36,0-.35.3-.2.31,0C115.74,163.65,117.19,162.83,117,164Z"/><path class="cls-1" d="M131.28,161.9c0-.29.35-.27.59-.36l.93-.09c0,.29-.35.27-.59.36Z"/><path class="cls-1" d="M135,161.53c0-.3.36-.27.6-.37C135.63,161.46,135.25,161.44,135,161.53Z"/><path class="cls-1" d="M137.19,161.31c-.17-.14.19-.41.28-.33S137.29,161.39,137.19,161.31Z"/><path class="cls-1" d="M154.36,159.88c.16.21-1,.6-1.22.43-.34-.33-.14,0-.62.06-.26,0-.34-.28-.65-.24-.56.07-.63.38-1.22.43s-.94-.17-1.58-.15c0,0-.33.37-.6.37-.06,0-.39-.43-.65-.24l-2.5.25-1.24.12c-.36.09-.56,0-.66-.23l4.68-.47c.54,0,.75-.59.94-.1C150.83,160,153,159.49,154.36,159.88Z"/><path class="cls-1" d="M178,157.16c.19.47-1.65.66-1.55.16-1,.6-3,.41-4,1-1.78,0-4.53.47-8.09.83l-9,.93c-.25.08-.3-.1-.34-.27l1.25-.13c3.76-.88,5.55-.46,9.3-1.25.37,1,1.53-.94,1.9.1,1.14-.84,4-.31,5.23-1.14A22.29,22.29,0,0,1,178,157.16Z"/><path class="cls-1" d="M180.43,156.6l.62-.06,1.24-.13c0,.42-.75.33-1.21.43C180.43,157.12,179.07,156.73,180.43,156.6Z"/><path class="cls-1" d="M187,156.23c0-.29.35-.27.59-.36C187.6,156.16,187.22,156.14,187,156.23Z"/><path class="cls-1" d="M190.42,155.88c0-.35.53-.31.89-.4l.94-.09c0,.35-.54.31-.91.39Z"/><path class="cls-1" d="M193.21,155.59c0-.29.35-.27.59-.36C193.82,155.52,193.45,155.5,193.21,155.59Z"/><path class="cls-1" d="M140,161.32c0-.29.36-.27.59-.36C140.64,161.25,140.26,161.23,140,161.32Z"/><path class="cls-1" d="M141,161.23c0-.29.35-.27.59-.36l.93-.1c0,.3-.36.28-.59.36Z"/><path class="cls-1" d="M239.64,152c-.54-.51-1.17.56-1.9-.1-1.69.34-2.44.46-4.63.78.06-1.05,2-.65,3-.91.51,0,.5-.34.9-.4C237.31,152.27,239.8,150.55,239.64,152Z"/><path class="cls-1" d="M241.78,151.44c.12-1.1,1-.07,2.14-.51C244.87,151.33,242.36,151.33,241.78,151.44Z"/><path class="cls-1" d="M246.1,150.7c-.18-.14.18-.41.28-.34S246.19,150.77,246.1,150.7Z"/><path class="cls-1" d="M318.43,143.12c0-.35.3-.2.31,0C318.72,143.43,318.45,143.28,318.43,143.12Z"/><path class="cls-1" d="M222.83,153.42c0-.74,1-.19,1.24-.13C224.1,154,223,153.49,222.83,153.42Z"/><path class="cls-1" d="M245.2,151.09c-.18-.14.18-.4.27-.33S245.3,151.16,245.2,151.09Z"/><path class="cls-1" d="M247.68,150.83c0-.29.36-.27.59-.36C248.29,150.76,247.92,150.74,247.68,150.83Z"/><path class="cls-1" d="M291.77,146.21c-.17-.14.19-.4.28-.32S291.87,146.29,291.77,146.21Z"/><path class="cls-1" d="M321.88,143.06c0-.29.35-.28.59-.36C322.49,143,322.11,143,321.88,143.06Z"/><path class="cls-1" d="M218.82,154.14c0,.75-1,.2-1.24.13C217.69,153.36,218.27,154.49,218.82,154.14Z"/><path class="cls-1" d="M218.82,154.14c.07-.68,1.52-.28,2.14-.53C220.64,154.44,219.64,154.33,218.82,154.14Z"/><path class="cls-1" d="M222.83,153.42c-.59,1-2-.14,0,0Z"/><path class="cls-1" d="M225,153.49c0-.35.54-.31.91-.39C225.92,153.45,225.4,153.41,225,153.49Z"/><path class="cls-1" d="M228.76,153.1c0-.28.36-.26.6-.36l.93-.1,1.55-.16c.11.65-1.08.26-1.52.46Z"/><path class="cls-1" d="M241.78,151.44c0,.91-1.32-.14,0,0Z"/><path class="cls-1" d="M89.92,167.49c0-.36.55-.3.91-.39l.94-.09c0,.36-.54.31-.91.39Z"/><path class="cls-1" d="M93.36,167.16c0-.3.36-.27.6-.36l.94-.09c0,.29-.36.27-.6.35Z"/><path class="cls-1" d="M211.71,155.18c-.12-.64,1.08-.25,1.52-.46l1.55-.16c.12.64-1.08.25-1.52.46Z"/><path class="cls-1" d="M139.8,165.26c-.73-.49-2.31,0-3.46.05a5.14,5.14,0,0,0-2.21-.08,1.59,1.59,0,0,1-1-.2c-.41,0-.22.54-.56.65a2.14,2.14,0,0,0-.71-.83c-.08.53-.41,0-.94.09a13.24,13.24,0,0,1-5.61.57,26.82,26.82,0,0,1-5.94.3c-1.24.44-2,.06-3.74.38-1,.47-.34-.94-1.31-.47-.63.23-.82.83-1.81.78,0-.39.43-.66-.37-.57a9.17,9.17,0,0,0-3.13.31c-.74.19-.73-.48-1.59-.15-.89.12-2.06,0-2.47.54-.1-.44-.78-.2-1.28-.18l-1.56.15c-.74.2-.73-.48-1.6-.14l-2.49.24-1.25.12c-.44,0-1.19.18-.6.36l2.19-.21a12.6,12.6,0,0,0,2.24.38l1.88-.18c.24.49,1.48-.17,1.62.44.63-.24,2.09.18,2.16-.5-.56-.13-1.8.53-1.9-.12,2.08-.43,3.29.17,5.34-.22.17,0,.37.21,0,.29.1.23.3.33.66.24,2.15-.7,4.07-.2,7.17-.71,1.47.4,3.86-.29,5.36.07,4.71-.37,7.57-.63,11.9-.6,2.34-.18,5-.7,6.89-.4a7.29,7.29,0,0,1,2.49-.25c.49-.07.17-.78.87-.69.38,0,.76.47.94-.09A13.59,13.59,0,0,0,139.8,165.26Zm-9.69.68c-.18-.14.19-.41.28-.34S130.2,166,130.11,165.94Zm1.56-.16c-.18-.14.18-.41.28-.33S131.76,165.85,131.67,165.78Z"/><path class="cls-1" d="M200.24,156.67c-.22.61-1,.39-1.53.46-1.25.17-3.64.34-5.29.55-1-.24.81-.43,1.22-.43.28-.56.84-.08,1.24-.13.09,0,.58,0,.62-.06.3-.43.29.13.94-.1s.5-.15,1.55-.16C199.45,156.79,199.89,156.3,200.24,156.67Z"/><path class="cls-1" d="M266.41,149.78c.18.46-1.05,1.12-1.21.43-.94.43-.7.09-1.86.19C264.07,149.4,264.86,150.14,266.41,149.78Z"/><path class="cls-1" d="M190.94,157.93c0-.29.35-.27.59-.36C191.55,157.86,191.17,157.84,190.94,157.93Z"/><path class="cls-1" d="M258.06,151c0-.3.36-.27.59-.37l.62-.06C259.22,150.94,258.52,150.85,258.06,151Z"/><path class="cls-1" d="M262.1,150.53c0-.35.53-.31.9-.39C263,150.49,262.45,150.45,262.1,150.53Z"/><path class="cls-1" d="M271.72,149.52c0-.35.54-.31.9-.39l.93-.1c0,.35-.54.31-.9.4Z"/><path class="cls-1" d="M277.62,148.91c-.18-.14.18-.41.28-.34S277.71,149,277.62,148.91Z"/><path class="cls-1" d="M181.6,158.89c.62-.16,1,0,1,.51l-.93.09Z"/><path class="cls-1" d="M183.19,159c0-.36.55-.31.9-.39C184.08,159,183.55,159,183.19,159Z"/><path class="cls-1" d="M184.75,158.87c0-.36.54-.31.9-.39C185.63,158.83,185.11,158.79,184.75,158.87Z"/><path class="cls-1" d="M186.61,158.67c0-.28.36-.26.59-.35l.63-.07C187.77,158.66,187.07,158.58,186.61,158.67Z"/><path class="cls-1" d="M189.1,158.42c0-.29.36-.27.59-.36C189.72,158.35,189.34,158.33,189.1,158.42Z"/><path class="cls-1" d="M176.07,160.07c0-.36.54-.31.9-.4C177,160,176.43,160,176.07,160.07Z"/><path class="cls-1" d="M177.31,159.94c0-.3.36-.27.59-.37l.63-.06,1.55-.16c-.05.42-.75.33-1.21.43Z"/><path class="cls-1" d="M107.29,167.61c0-.36.54-.31.9-.39l.94-.09c0,.35-.54.3-.91.39Z"/><path class="cls-1" d="M160,162.92c0-.29.35-.27.59-.36C160.63,162.85,160.25,162.83,160,162.92Z"/><path class="cls-1" d="M147.27,164.5c-.17-.13.19-.4.28-.32S147.37,164.58,147.27,164.5Z"/><path class="cls-1" d="M148.21,164.41c0-.29.36-.27.59-.36C148.83,164.34,148.45,164.33,148.21,164.41Z"/><path class="cls-1" d="M150.08,164.22c0-.29.36-.27.59-.36C150.69,164.15,150.32,164.14,150.08,164.22Z"/><path class="cls-1" d="M148.64,165.58c0-.36.54-.31.91-.4C149.53,165.54,149,165.49,148.64,165.58Z"/></svg>