<svg id="elements" xmlns="http://www.w3.org/2000/svg" xmlns:xlink="http://www.w3.org/1999/xlink" width="54" height="64" viewBox="0 0 54 64"><defs><style>.cls-1,.cls-4{fill:none;}.cls-2,.cls-5{fill:#fff;}.cls-3,.cls-4,.cls-5{stroke:#fff;stroke-linecap:round;stroke-linejoin:round;}.cls-3{fill:url(#_6_lpi_30_9);}</style><pattern id="_6_lpi_30_9" data-name="6 lpi 30% 9" width="4" height="4" patternTransform="translate(5.33 3.61)" patternUnits="userSpaceOnUse" viewBox="0 0 4 4"><rect class="cls-1" width="4" height="4"/><rect class="cls-2" x="2.5" y="2.51" width="1" height="1"/><rect class="cls-2" x="0.5" y="0.49" width="1" height="1"/></pattern></defs><title>reviews-cta-lightbulb-white</title><path class="cls-3" d="M26.15,9.37A16.34,16.34,0,0,1,42.5,25.68c0,10.33-7.71,12.86-7.71,20.9v2.3c0,2.39-1.11,3.27-3.51,3.27H21c-2.4,0-3.51-.88-3.51-3.27v-2.3c0-8-7.71-10.57-7.71-20.9A16.34,16.34,0,0,1,26.15,9.37Z"/><path class="cls-4" d="M20.12,59.72c-.74,0-.94-.56-.94-1.26s.2-1.26.94-1.26c-.74,0-.94-.57-.94-1.26s.2-1.27.94-1.27c-.74,0-.94-.56-.94-1.26s.2-1.26.94-1.26H32.18c.74,0,.94.56.94,1.26s-.2,1.26-.94,1.26c.74,0,.94.57.94,1.27s-.2,1.26-.94,1.26c.74,0,.94.56.94,1.26s-.2,1.26-.94,1.26Z"/><line class="cls-4" x1="19.99" y1="54.67" x2="27.68" y2="54.67"/><line class="cls-4" x1="20.01" y1="57.2" x2="23.32" y2="57.2"/><path class="cls-4" d="M32.22,59.74s-2.95,2.71-3.76,2.71H24.17c-.81,0-3.76-2.71-3.76-2.71"/><path class="cls-4" d="M24.83,48.91v-2c0-1.11.59-2,1.32-2s1.32.91,1.32,2v2"/><path class="cls-4" d="M23,51.88a3.21,3.21,0,1,1,6.42,0"/><line class="cls-4" x1="27.27" y1="45.03" x2="28.35" y2="42.79"/><line class="cls-4" x1="25.03" y1="45.03" x2="23.94" y2="42.79"/><path class="cls-4" d="M4.4,6.89a5.34,5.34,0,0,1,5.34,5.34,5.34,5.34,0,0,1,5.34-5.34A5.34,5.34,0,0,1,9.74,1.55,5.34,5.34,0,0,1,4.4,6.89Z"/><path class="cls-4" d="M42.84,43.24a3.38,3.38,0,0,1,3.38,3.38,3.38,3.38,0,0,1,3.38-3.38,3.38,3.38,0,0,1-3.38-3.38A3.39,3.39,0,0,1,42.84,43.24Z"/><path class="cls-5" d="M29.44,42.12a.75.75,0,1,1-.75-.75A.75.75,0,0,1,29.44,42.12Z"/><path class="cls-5" d="M22.86,42.12a.75.75,0,1,0,.75-.75A.75.75,0,0,0,22.86,42.12Z"/></svg>