<svg id="elements" preserveAspectRatio="none" xmlns="http://www.w3.org/2000/svg" viewBox="0 0 800 80"><defs><style>.cls-1{fill:#deebe7;}</style></defs><title>rip-blogcard-combo1</title><path class="cls-1" d="M1.54,24V22.12a30.51,30.51,0,0,1,7.93,2.71c.32.18-.2,1.38.08,1.6.67.53,3-.6,3.76-.12s-.44,2.68.15,3.2c2.24,1.94,5.71,2,5.86,4.6a13.83,13.83,0,0,1,5.79,3c5.45-.16,4.57-2.76,7.36-3.46,2.39-.6,3.92-1.38,5.56-1.79,2-.5,3,.82,3.84,1.47,1.3,1,5.93-1,7.51-.26,4.36.34,1.87-4.69,5.41-5,.48,1.23.2,3.15,2,3.14,0,.89,1.61,1.76,1.88-.07,2.82.18,6.91-.81,7.59,1.34,1.28,3,4.35,3.83,5.86,4.61,3.49,1.81,3.7,2.61,5.87,4.61,1,.89,1.12,2.26,2,3.13.45.44,3.07-.35,3.76-.13,2,.67,4.23,1,5.71,1.41a35.16,35.16,0,0,0,7.59,1.34c2.81.17,3.84-1.63,5.56-1.79,3.1-.29,4.73.84,7.59,1.35,1.6.28,1.3,1.32,2,1.53,1.62.53,4-.67,5.63-.19,2.44.7,2.4,1.62,3.91,3.07.48.46,3.06-.4,3.76-.13a23,23,0,0,0,2,1.54c1.35.66,2.57.89,3.84,1.47,3.41,1.54,4.07,2.75,7.66,2.94s7.56-2.34,11.2-2c1.92.87,1.34-1.49,1.8-1.66,6.55-2.36,16.13,4.77,20.67-.71,7-2.2,12.24-5.78,22.32-5.57,9.1,1,6.46-7.25,16.69-5.37,4.85,1.06,8.74,2.06,11.19-2,2.1-.23,3,2.23,3.76-.13,7.83-1.65,12.79,1.24,17,1-.62,0,1.19-1.48,1.8-1.66,1.62-.48,3.93,0,5.64-.19.1,0-.17-1.5-.08-1.6,1-1.11,2.31,1.57,2,1.53,7.08.71,8.78-1.77,13.08-2,3.31-.2,5.93,1.43,7.59,1.35,6.63-.34,12.87-2.74,18.72-2.25,9.78.84,17.47,7.78,28.48,5.44,2.38.74,3.72,1.93,5.79,3,1,.53,1.25,1.12,1.95,1.53.31.19-.18,1.35.08,1.6.49.48,3.05-.43,3.76-.13.28.13-.17,1.41.07,1.6,1,.77,4.11-.45,3.84,1.48,10.71.68,20.46,2.26,28.48,5.43,3.22-1.57,9.35-.87,11.12-3.59,5.48-.6,5.95,3.43,11.43,2.82.37-3.3,4.86-3.36,7.29-5.06.11-2.73,4.63-1.15,7.44-1.85.82-.21,2.11-1.72,1.8-1.67,3.52-.6,8.43-.17,11.27-.38C418.28,46,421,44,422.61,46c-1.55-4.3,8.91.84,7.36-3.45,3.49-.35,6.23-1.27,7.37-3.46a42.79,42.79,0,0,1,11.57,6c1.29,1-.17,1,2,1.54,2.63.7,7.05-1.21,7.59,1.34.15,1,.37,1.88,2,1.53l20.67-.7c3.29-3.47,5.2-.09,7.51-.26,4-.28,5.84-2,9.33-1.92a88.67,88.67,0,0,1,9.46,1.28c.15,0-.05,1.47.08,1.6.34.32,3.18-.18,3.76-.13,12.36,1.08,20.06,1.08,28.1-2.56,2.47,2.14,5.89.71,9.47,1.27,1.85.3,2.28,1.13,3.84,1.48,2.13.47,5.39-.69,5.71,1.4,2.83-2.13,8.12-3.34,11.12-3.58,1.86-.15,1.16-1.46,1.81-1.67,1.11-.35,2.61.16,3.75-.12s1.51-1.58,1.81-1.67c2.94-.9,7.79-.93,11.2-2s8.2-1.67,9.16-5.12C608,37.15,611.35,34,619.74,36c1.76-3.67,7.09-7.13,9-8.32,1.68-1,2-2.35,3.6-3.33.82-.51,2.46,0,1.81-1.67,10.14-.46,9.92-1.06,16.83-2.17,4.54-2.6,14.55-.89,18.64-3.84a9.07,9.07,0,0,1,5.86,4.6c.4,2.05,3.06,1.38,5.72,1.41,1.65,0,1.56,1.47,1.95,1.53,3,.49,6.36-.63,9.39-.32,2.47.25,2.66,1.38,5.72,1.41,1,0,2.35,1.53,2,1.54,4.49-.1,8.13-1.93,11.12-3.59,1.89-.26,2.3,1.46,3.83,1.47,1.86,0,1.31,1.38,2,1.54,2.11.5,5.31-.28,7.51-.26,1.8,0,1.38,1.41,2,1.54,1.74.37,3.86-.46,5.64-.2,2.44.37,2.67,1.38,5.71,1.41,2.17,0,.88,1,1.95,1.54,4.55,2.29,14.36.5,18.87,1,.11,0,0,1.5.07,1.6.94.92,2.42-1.62,1.81-1.66,3.23.19,6.17.77,9.47,1.28,4.59.7,11.24,2.44,13.3,2.75,1.81.27,3.82-.46,5.64-.19.14,0-.05,1.48.07,1.6.33.31,3.19-.17,3.76-.13l7.1.5V80H0V21.55Z"/></svg>