<svg id="elements" preserveAspectRatio="none" xmlns="http://www.w3.org/2000/svg" viewBox="0 0 800 550"><title>rip-blog-mask-featuredpost</title><path d="M789.12,499.79c-.12-.12.06-1.57-.08-1.59-1.81-.26-3.83.46-5.64.19-2.06-.3-8.73-2-13.33-2.73-3.3-.5-6.25-1.07-9.49-1.26.61,0-.87,2.55-1.81,1.65-.11-.11.05-1.58-.07-1.59-4.51-.45-14.34,1.32-18.9-.95-1.07-.54.22-1.5-2-1.52-3,0-3.28-1-5.72-1.4-1.78-.26-3.91.57-5.65.19-.58-.12-.16-1.5-2-1.52-2.21,0-5.42.76-7.53.25-.65-.15-.1-1.5-2-1.52-1.54,0-1.95-1.72-3.84-1.46-3,1.65-6.65,3.46-11.14,3.56.4,0-.91-1.51-2-1.53-3.06,0-3.25-1.14-5.72-1.39-3-.31-6.42.8-9.42.32-.39-.07-.3-1.51-2-1.53-2.67,0-5.33.64-5.73-1.39a9.08,9.08,0,0,0-5.87-4.57c-4.1,2.92-14.13,1.24-18.67,3.81-6.93,1.11-6.71,1.7-16.87,2.16.66,1.63-1,1.15-1.81,1.65-1.58,1-1.93,2.27-3.61,3.3-1.93,1.18-7.27,4.62-9,8.25-8.4-2-11.76,1.13-22.59.77-1,3.42-5.68,4-9.18,5.08s-8.27,1.07-11.22,2c-.3.08-.52,1.33-1.81,1.64s-2.65-.22-3.76.13c-.65.21,0,1.51-1.81,1.65-3,.24-8.31,1.44-11.15,3.56-.32-2.08-3.58-.93-5.72-1.4-1.56-.34-2-1.17-3.84-1.46-3.59-.56-7,.86-9.49-1.27-8.06,3.61-15.77,3.61-28.16,2.55-.58,0-3.42.45-3.76.12-.13-.12.07-1.56-.08-1.58a91.46,91.46,0,0,0-9.49-1.27c-3.48-.08-5.36,1.62-9.33,1.9-2.33.17-4.23-3.18-7.53.26l-20.71.7c-1.59.35-1.81-.56-2-1.52-.54-2.53-5-.64-7.6-1.33-2.14-.56-.67-.52-2-1.53a43.14,43.14,0,0,0-11.6-6c-1.14,2.17-3.88,3.09-7.38,3.43,1.55,4.26-8.93-.84-7.38,3.43-1.6-1.92-4.34,0-7.53.25-2.85.21-7.76-.21-11.29.38.31-.05-1,1.45-1.81,1.65-2.81.7-7.34-.87-7.45,1.84-2.43,1.68-6.94,1.74-7.31,5-5.49.6-5.95-3.39-11.44-2.79-1.78,2.69-7.92,2-11.15,3.55-8-3.14-17.8-4.71-28.54-5.39.28-1.9-2.86-.7-3.84-1.46-.24-.19.21-1.46-.07-1.58-.71-.3-3.27.6-3.77.12-.26-.24.24-1.4-.07-1.58-.71-.41-.93-1-2-1.52-2.07-1.07-3.42-2.25-5.8-3-11,2.32-18.73-4.56-28.54-5.39-5.86-.49-12.11,1.89-18.75,2.22-1.67.09-4.29-1.53-7.6-1.33-4.32.27-6,2.73-13.11,2,.36,0-1-2.63-2-1.53-.09.11.18,1.58.08,1.59-1.71.22-4-.28-5.65.19-.6.18-2.42,1.68-1.8,1.65-4.21.21-9.17-2.65-17-1-.73,2.33-1.66-.11-3.77.12-2.45,4-6.35,3-11.22,2-10.24-1.85-7.6,6.31-16.71,5.34-10.1-.22-15.35,3.34-22.36,5.52-4.56,5.43-14.15-1.63-20.71.7-.47.17.11,2.51-1.81,1.65-3.64-.35-7.56,2.17-11.22,2s-4.26-1.39-7.68-2.92c-1.27-.56-2.49-.8-3.84-1.45a23.85,23.85,0,0,1-2-1.53c-.7-.27-3.28.59-3.76.13-1.52-1.44-1.48-2.35-3.92-3.05-1.65-.47-4,.72-5.65.19-.66-.21-.36-1.24-2-1.52-2.86-.5-4.49-1.62-7.6-1.33-1.72.16-2.76,1.94-5.57,1.78a35.34,35.34,0,0,1-7.61-1.34c-1.48-.37-3.71-.74-5.72-1.39-.69-.23-3.31.56-3.77.13-.91-.87-1.07-2.23-2-3.11-2.17-2-2.38-2.78-5.87-4.57-1.52-.78-4.6-1.62-5.88-4.57-.68-2.13-4.78-1.16-7.61-1.33-.27,1.81-1.84.94-1.88.06-1.83,0-1.55-1.89-2-3.11-3.55.3-1.06,5.29-5.42,4.95-1.59-.76-6.23,1.27-7.53.26-.83-.65-1.83-2-3.84-1.46-1.65.4-3.18,1.18-5.57,1.78-2.8.69-1.92,3.27-7.38,3.42a14.07,14.07,0,0,0-5.8-3c-.15-2.59-3.62-2.64-5.88-4.57-.59-.5.51-2.75-.15-3.17s-3.09.65-3.76.13c-.28-.22.24-1.42-.08-1.59A31.12,31.12,0,0,0,0,485.38V0H800V500.16l-7.12-.5C792.32,499.62,789.45,500.1,789.12,499.79Z"/></svg>