<svg id="elements" preserveAspectRatio="none" xmlns="http://www.w3.org/2000/svg" viewBox="0 0 1100 130"><defs><style>.cls-1{fill:#fff;}</style></defs><title>rip-blogpost-bottom</title><path class="cls-1" d="M1100,0H0V127.29s3.14-7.72,4.58-9c.66-1,1.32-2,2.15-1.58s1.33-3.94,2.4-1.47a4.41,4.41,0,0,1,3.28-.56,1.84,1.84,0,0,0,1.79-.46c.71-.09,1.53-.44,2.49-2.14a36.3,36.3,0,0,0,2.08-5.37c.73-.71,1.54,1.78,2.15-2.21.95-3.19,2.57-2.68,3.76-4.35.72-.42,1.2-1.32,1.86-1.81s1.79-.07,2.73-.3c.74-.19,1.89.25,2.3-.86.74-.53.9-2.33,1.58-3a2.5,2.5,0,0,1,1.93-2.51c1-.68,1.81-1.35,2.56-1.88.17-.19.6-.14.92-.2a4.75,4.75,0,0,0,.92-.38c.74-.2,1-.35,1.55-.47a5.62,5.62,0,0,0,1.29-.28,5.09,5.09,0,0,1,1.83-.18,10.27,10.27,0,0,1,1.86.17c.56,0,.53.37,1.51.37s1.8.21,2.72.3a2.8,2.8,0,0,0,1.29.18c.41-.06.92-.48,1.25-.32a11.9,11.9,0,0,1,2.56-.74c.66.54.65-.16.6-.55.42-.13,1.2-.9,1.55-.67.53-.75,2.53.17,3.2-1.16.58,0,.12-.39.25-.47-.31-.1,0-.12.53-.11A.9.9,0,0,0,62,84.9a12.23,12.23,0,0,1,1.41-.24,13.08,13.08,0,0,0,1.53-.44,1.22,1.22,0,0,0,.73-.52c-.09-.22-.28-.44-.18-.57.88.06.94-.49,1.41-.83s.39-.67,1.07-1c5.2-.88,6.25-2.27,5.77-4.07,4.63-2.38,8-5.18,12.9-6.14,1.67-2,4-2.74,6.47-3.3a7.64,7.64,0,0,1,3.45-2.37c.24-.37,2-.06,3,0s3.17.81,4.13.94c1.69,1.51,2,.94,3,1.7a5,5,0,0,0,2.37.88,14.4,14.4,0,0,0,4.36,1.5c.41-.18.92.22,1.25.18s.74.24,1.24.88c.41.23.6-.09,2.21,1.63a18.26,18.26,0,0,1,3.48,1.62c1.87,1.92,3.28,1.46,5,1.73.8-.91,1.68-1.8,2.78-1.44a2.31,2.31,0,0,0,3.43-1.39c1-1.48,2.13-.55,3.21-.39a3.61,3.61,0,0,0,3,.12c1.89-.4,3.46.08,4.91-.61,1.37-1.27,2.74-2,4.13-3.65,1.61.21,3-1.25,4.67-.66,2.24,1.16,4-1.33,6.33-2.4,2.08-.45,4.28-.63,6.55-.92,2.18-1.69,4.54-.77,6.58-2.4,2-1.79,3.67-3.85,5.89-3.69,2-.83,3.76-1.89,6.44-.56,2.47,1.21,4.66,1.13,7.13,3.88,1.62-.82,3.37.22,5.09.23a43,43,0,0,1,4.88,1.26c1.45-1.33,3.59-.71,5.21,0,1.9,1.06,3.77,1.84,5.28,1.11,1.9,1,3.32-.16,4.91-.2,1.45-.38,2.85-1.16,5.17.28a11,11,0,0,1,3.46,1c1.2.88,2.19.41,3.21.43a3.19,3.19,0,0,0,2.72-.13,18.53,18.53,0,0,0,5.88,1.56,8.33,8.33,0,0,0,5.34-1.09c1.06-2.48,2.88-3,4.87-3.56a15.67,15.67,0,0,0,5.78-3c2,.26,3.5-2.76,6.26-4.86a33.82,33.82,0,0,0,7.08-5.49c2.28-4,4.71-1,7,1.14,2.37.88,4.59,3.09,7.14,0,2.87,4.37,5.86,1.83,8.29,5.37a4.87,4.87,0,0,0,4.31,1,21,21,0,0,1,2.5-2c.64-.14,1.8.87,2.24.54a16.71,16.71,0,0,0,2,.9,6.17,6.17,0,0,0,2.66.92c2.34-.36,2.89.88,5.09,2.19,2.11-2,2.13-.88,3.44-1.89,1.43-.2,2.48.49,4.56-.74.77.9,2.38.56,3.51.84a8.41,8.41,0,0,0,2.92,1.09c1,.18,1.56,1.09,3,.53.9.22,1.82.38,2.73.57a7.84,7.84,0,0,1,2.51,1c1.63,1,3.48.48,5.19.5a5.39,5.39,0,0,1,2.14-.36,19.09,19.09,0,0,0,2.22-.46c1.52-.66,2.44-.37,4.05-1.21,1.55-.32,3.1-.46,5.71-1.17a62.78,62.78,0,0,1,7.15-.81c1.87-.43,3.81-1.57,5.84-2.33,1.85-.83,3.56-2,5.39-2.83a6.2,6.2,0,0,1,2.69-.88c.93,1.33,1.72-.57,2.49-.16.71,1,1.59-.61,2.25-.2a2.16,2.16,0,0,1,2.06.2A17.46,17.46,0,0,1,384,49.19c1.67.68,5.5-2.08,6.31-.18,3.72-2.29,4.77-.9,7-1.3,2.73-2.21,4.48-3.1,5.75-3.34,2.4-.57,4.58-.41,7.09-1.35,1.71-1.08,3.82-.9,4.65-3.6,1.6-.87,3.69-.61,6.65.07a68.8,68.8,0,0,0,9.76,1c3.17,1.52,6,.16,9-.23a6.22,6.22,0,0,0,6.51,1.36c2.13-.33,4.52.19,7-1.23a7.51,7.51,0,0,1,7.12-1.16,29.09,29.09,0,0,1,6.07,1.08c1.86-.33,4.66.27,6.06.19,1.91.59,3.2.39,4.72.73a10.48,10.48,0,0,0,4.58.38c1.46-.15,3,.15,4.47.07,1.14.24,2.23.5,2.9-.58,1-.12,1.81-.63,2.78-.48.9-.17,1.79-.28,2.67-.38s1.75-.13,2.61-.23c2.11,1.08,3.59-.41,5.45-1.54,1.35-.23,2.7-.53,3.43-2.16,1.67.39,3.24.5,4.13-.75,1.64.62,3.18,1.2,4.49.95,1.32-.55,2.89.54,4.3-.78.92-.24,1.87.18,2.8.21a24.93,24.93,0,0,0,2.73-.12c1.77.53,3.53-1.57,5.27-2.86a11.94,11.94,0,0,1,5-3.29c.83-.89,1.53,0,2.31-.86.75,0,1.55-.92,2.28-1a8.65,8.65,0,0,1,2.26-1c.73-.17,1.44-.27,2.12-.41,1.3,0,2.61-.59,3.84.13,1.32.32,2.83-1.62,4.25-1.78,1.6-.82,3.32-2.46,4.95-3.5a7.85,7.85,0,0,1,2-2.3c.94.16,1.54-1.2,2.56-.75,1.35-1.3,2.85-1,4.34-1.38,1.41.14,2.56-.57,3.89.69,1,.19,2-.2,3-.09a5.67,5.67,0,0,1,3.38-.49c1.43-.47,2.85-.84,3.8-.23,1.42-.37,2.37.35,3.58.44s2.39.05,3.62.35a20.51,20.51,0,0,0,4.15-.91,10.22,10.22,0,0,0,4.49-.45c1.39-.23,2.72-.45,3.94-.63a13,13,0,0,0,2.64-.25,5.68,5.68,0,0,0,2-.35c.48.16,1-.25,1.65-.24s1.2-.45,1.93-.58a8.08,8.08,0,0,0,2.28-.62,12.76,12.76,0,0,0,2.59-1c.87-.38,1.72-.78,2.41-1,.94-.55.74.21,1.74-.24a15.92,15.92,0,0,0,2.89-.53c1.6-.61,3.51-.74,3.69-.46,4.62,1.24,1.7.78,4.81,1.74,1,.82,1.17,1.49,1.73,2,1.32.41,1,1,2,1.25,1.55.31,2.37.82,3.91,1.15a18.93,18.93,0,0,0,3.32,1.35c.84.59,2.91,1,3.48,1.68,1,.19.18.78,1.23,1-.14.55,1,.71,3,.59,1.66.42,4.25.78,4.59,1.34a16.14,16.14,0,0,0,4,1.48,11.44,11.44,0,0,0,3.9,1.31c1.41.72,4,2.39,5,1.75,1.87.53,2.84-.51,5.11,1.11,1-.89,2.77-.82,4.07-.79,1.36,1.69,1.72-.13,3.13,2.2a3.37,3.37,0,0,0,3.1.34,9.44,9.44,0,0,0,3.34-.17,11.31,11.31,0,0,0,3.32-.14c.93.2,2.1-.28,3.12-.36,1.19-1.95,2-.28,3-.23.85,1,1.81,1.52,2.91,1.14,1,.61,2.07.21,3,1.14,1.05.06,2.07.6,3.14.35,1,1.55,2.15-.57,3.21,0a12.4,12.4,0,0,1,3.23-.6,3.15,3.15,0,0,1,3.14,0c1,.61,2,.42,3,.65.94-.11,1.93,1.28,2.91.55a13.52,13.52,0,0,0,3-.27c1-.36,2-1,3-.91.74-.95,1.36-2,2.42-1.19.61-.76,1.39-.87,2-1.24.23-.34.72-.19.79-.78,0-.86.7-.19,1.31.08,1.13.1,1.22-.78,2.17-.83.75-.28,1.14-1,2.31-.76,1.41.92,1.71-.07,2.22-.68.2-1.48,1.51-.22,2.36-.08,1,1.79,1.7.62,2.42.05.82,0,1.5-.7,2.38,1.41.52.84.56,2.5,1.55,2.72,1.4,1.31,2.8,1.89,3.72,1.32,1.16.69,1.85.28,3,1.79.58-.2,1.27,0,2.05.78,1.21.23,2.38.52,3.54.77a13.77,13.77,0,0,1,2.87.6,18,18,0,0,1,3.31,1.08c2.11,2.8,3.62,1.6,5.55,1.62,2.12.7,4-.85,6.08-.86A7.26,7.26,0,0,1,782,39.53c1.13.59,2.16-.45,3.29.26,1.09-.55,2.18,1.54,3.25.43,1,.21,2.11-.15,3.13.45a3.52,3.52,0,0,0,3.17.29,2.84,2.84,0,0,0,3.29,0,25.81,25.81,0,0,1,3.51-.51,2.81,2.81,0,0,0,3.22.89c1.08.13,2.2,0,3.12.77s1.81,1.28,2.81,1.23c.88.39,1.82-.28,2.52,1.14.79.63,1.51.29,2.35,1.13,1,.79,2.07,1.34,2.72.84,1.13.23,2-.26,3.2-.47,1.54.74,2.77-2,4.22-1.63,1.74-.92,2.75-.51,4.3-1.32a3.66,3.66,0,0,0,3.11-.84c1.48-1.06,2.1-.88,2.56-.46a2.2,2.2,0,0,0,2.11.1,7.63,7.63,0,0,1,2.64-.93,3.86,3.86,0,0,1,2.33-.08c1.51-.18,3.24.39,4.74.34a9.11,9.11,0,0,0,4.13,1,9.22,9.22,0,0,1,4,.48c1.42,1.08,2.83,2.32,4,3.23,5.53-1.39,7,4.84,15.4,3.18,11.06,1.91,14.32-.75,20.62.51C906,45.12,907,53.64,912.76,51.16a22.51,22.51,0,0,1,7.47-.18c2.29-.4,4.47.61,6.65,1.26,1.57-.81,3.23.64,4.69-1.14a26.15,26.15,0,0,1,4.6.11c1.55.82,3,.64,4.5.79a3,3,0,0,1,3.22.83c1,.35,1.8,1.42,3,1.1.64,1.7,1.9.73,2.7,1.73.36,1,.83,1.56,1.37,1.33a5.69,5.69,0,0,0,1.59.2c.66,1,1.11,0,1.69,0,.57-.31,1.42.4,1.77-.4a12.81,12.81,0,0,0,3.58-1c1.22-.07,2.33-.4,3.49-.44,1-.82,2.17-.39,3.29-.41,1.2.18,2.23-.32,3.4-.34,1.2.23,2.4-.34,3.63.69a6.1,6.1,0,0,1,3.66.08,8.48,8.48,0,0,1,3.44,0A11.67,11.67,0,0,0,985.53,54c1.6-.35,3.27-.7,5-1.06,5.16,1.18,7.44-2.31,10.78-3.14a22.25,22.25,0,0,1,9.62-4.33,19.32,19.32,0,0,0,4.35-1.54c2.12.09,4.62-1.72,6.86-2.23,2.55-1.6,5.09-3.11,7.48-2.8,2.53-1.54,4.95-.69,7.45-.13a6.52,6.52,0,0,0,3.78,1.13,14.78,14.78,0,0,1,3.31-.1c.72-1.27,1.81-.95,2.74-1.07s1.58-.93,2.82.09c.35-1.74,2,.69,3,.88s1.79-.13,3.08,1.55c2.63,1.9,4.94,2.67,7.22,2,1.16,0,2.32.07,3.43.08,1.07.27,2.26-.55,3.25-.28,1.42-2.49,2-.26,3.17-1.52.89.3,1.92-.48,2.88-1,1.5-1.36,3-3.36,4.17-3.49,1.55-3.21,2.7-4.11,3.54-2.54,1.14-1.23,2-.28,3-1.27s1.66.8,2.74-1.7c.81.05,1.69-1.36,2.4-.92.72.16,1.39.46,2.17-1.33,1.86,1.54,3.58-.86,4.6-.25,1.08-.06,1.63-3.07,1.63-3.07Z"/></svg>