<svg id="elements" preserveAspectRatio="none" xmlns="http://www.w3.org/2000/svg" viewBox="0 0 800 80"><defs><style>.cls-1{fill:#cfdde7;}</style></defs><title>rip-blogcard-combo3</title><path class="cls-1" d="M780.32,69.06c-4.47,2.06-7.76-1.48-11.61-1.08a29.19,29.19,0,0,1-9.72-.7c-3.69-.88-7.18-2.59-10.93-4-3.2-2.78-6.54-5.67-9.29-8.08-4.65-1.21-8.39-1-11.92,1a8.48,8.48,0,0,1-9.31-.16c-3.38-2.2-6.22-.06-9.43,1-4.58-1-9.08-3.29-14.14-2.79-3.24.31-6.47.16-9.53,1.83-1.89,1-4.23,1.15-6.19,2.07-6.21,3-12.31,4.39-18.7.38-1.27-.8-3.18-.49-4.78-.74-3.81-.59-7.08,3.46-11,1.33-1.76,1.28-3.51,2.62-5.32,3.84s-4,1.93-6.23,1.17a121.85,121.85,0,0,1-13.75-5.22c-3.91-1.91-7.43-4.66-12.11-7.68-2.74-.13-6.55,0-10.29-.55-3.18-.42-6.27-1.52-9.93-2.48-3.69.1-5.45,4.63-9.05,6-2.29.9-6.87,1.25-12.17,1.78-3.15.32-6.41-1.27-9.48.66a3.48,3.48,0,0,1-3.11.21c-5-3.27-10.51-2.39-15.91-2.65a23.43,23.43,0,0,1-8-1.37,14.62,14.62,0,0,0-11-.27A144.25,144.25,0,0,1,497,57.81c-2.15.34-4.23,1-7.18,1.79-4.67-2.1-8.82-7.22-15-8.06-4.07.79-6,4.65-8.93,7.12s-5.88,3-9.09,1.43a19.54,19.54,0,0,0-9.44-2.34c-4.94.16-9.73-.28-14.28-2.8a5.9,5.9,0,0,0-4.75,0c-5.49,2.55-11.17,5-17,5.77-7.53,1-15.25.38-22.88.36-3.8,0-7.66.44-11.28-1.29-.49-.22-1.12-.61-1.55-.47-4.18,1.27-8.4,2.53-12.8,1.79-4.57-.77-8.36,2.11-13.18,2.94-1.41-1.12-3.15-2.39-4.78-3.84s-3.22-3.08-4.59-4.42c-3.4-1.2-6.5-2.23-9.55-3.4a24.66,24.66,0,0,0-19.1.16c-4.8,2.06-9.5,1.95-14.92.88-4.52-3.25-8.09-8.75-13.95-10.92-4.37-4.31-9.43-7.69-14.14-11.52-5-4.07-10.88-5.11-16.41-7.18A15.35,15.35,0,0,0,241,24.3c-9,3.9-18.25,2.23-27.45,1.85-1.46-.07-2.81-1.46-3.6-3.16-.94-2.06-2.16-4.06-4.26-5a4.23,4.23,0,0,0-3-.4,4.6,4.6,0,0,0-2,2.41,12.21,12.21,0,0,0-.42,3.39c-.17,2.3-.29,4.58-.45,7.23C196.9,33,193.9,35.34,191,37.85s-5.77,3-9.1,1.54a42.48,42.48,0,0,0-4.53-1.89,5.37,5.37,0,0,0-5.88,1.9c-1.07,1.29-1.67,3-2.66,4.32a5.75,5.75,0,0,1-2.45,2.2c-5.19,1.5-10,4.7-15.47,4.85a34.38,34.38,0,0,1-8-1c-1.56-.33-3-1.53-4.52-1.91-4.56-1.08-8.67-.37-11.5,4.31-3.13-.41-6.25-1-9.4-1.22s-6.49-.29-9-.39C103,48,100.23,43.74,97.66,39.29a2.38,2.38,0,0,0-2.85-1.17,4.15,4.15,0,0,0-2.42,4,19.4,19.4,0,0,0,1.47,4.82c1,2,2.67,3.63,3.7,5.63a4.58,4.58,0,0,1-.69,4.78c-2.2,3-5.36,4.79-8.56,3.15-5.12-2.63-10.49-2.73-15.86-3-4-2-8-4-12.27-6.08l-6,1.38c-3.69-2.2-6.86-5.22-11.47-6.11-3.56-.67-7.07-3-10.07-5.42a30.94,30.94,0,0,0-10.18-5.1c-2.48-.78-4.57-2.93-6.6-4.29-3.48.62-6.64,1.12-9.79,1.77C4,34.06,2,34.57,0,35V80H800V67.37A10.89,10.89,0,0,0,796.27,65C790.39,64.43,784.27,63.39,780.32,69.06Z"/></svg>