<svg id="elements" preserveAspectRatio="none" xmlns="http://www.w3.org/2000/svg" viewBox="0 0 800 80"><defs><style>.cls-1{fill:#4a455c;}</style></defs><title>rip-blogcard-combo5</title><path class="cls-1" d="M800,80V47.53c-1.19.2-2.4.37-3.71.57a13.79,13.79,0,0,0-3.18-1.77,16,16,0,0,1-4.89-2.11A12.85,12.85,0,0,0,783.37,42c-2.22-.36-3.74-1.61-5.52-2.52L775,40l-5.9-2.51c-2.58-.11-5.17-.15-7.63-1.24a3.55,3.55,0,0,0-4.12,1.3,1.68,1.68,0,0,0-.33,2c.5.82,1.28,1.51,1.78,2.33a7.27,7.27,0,0,1,.71,2,1.71,1.71,0,0,1-1.17,1.64A1.21,1.21,0,0,1,757,45a11.09,11.09,0,0,0-5.19-4.65c-1.2,0-2.77-.05-4.33-.17s-3-.33-4.52-.5c-1.36,1.94-3.33,2.23-5.53,1.78-.75-.16-1.42-.65-2.17-.79a19.59,19.59,0,0,0-3.88-.41c-2.65.06-4.94,1.39-7.44,2a2.65,2.65,0,0,0-1.18.91c-.47.56-.76,1.25-1.28,1.78a2.85,2.85,0,0,1-2.83.79c-.75-.19-1.45-.52-2.18-.78a4.33,4.33,0,0,0-4.38.63c-1.39,1-2.83,2-4.23,3-.07,1.09-.13,2-.21,3a4.06,4.06,0,0,1-.21,1.4,2,2,0,0,1-1,1,2.32,2.32,0,0,1-1.45-.16,4.15,4.15,0,0,1-2.05-2.08,2.29,2.29,0,0,0-1.73-1.31c-4.43-.15-8.88-.84-13.21.77a8.59,8.59,0,0,1-5.41.2c-2.66-.86-5.48-1.29-7.9-3-2.26-1.58-4.69-3-6.8-4.76-2.82-.89-4.53-3.17-6.71-4.51a13.35,13.35,0,0,0-7.18.37,13.64,13.64,0,0,1-9.18.06c-1.47-.48-3-.91-4.6-1.4-.66-.56-1.41-1.22-2.21-1.83s-1.62-1.13-2.3-1.59c-2.32.34-4.14,1.53-6.34,1.22a15.33,15.33,0,0,0-6.16.74,1.56,1.56,0,0,1-.74-.2c-1.75-.71-3.6-.53-5.43-.53a98.49,98.49,0,0,0-11,.15,32.22,32.22,0,0,0-8.17,2.38,3.25,3.25,0,0,1-2.28,0,14.6,14.6,0,0,0-6.87-1.16,10.75,10.75,0,0,1-4.55-1,4.22,4.22,0,0,0-4.37.59c-1.4,1-2.34,2.61-4.29,2.94-3-.35-5-2.47-7.21-3.34-1.42.32-2.42.6-3.45.75A79.49,79.49,0,0,0,555,39.56a8.06,8.06,0,0,1-5.27-.12,13.14,13.14,0,0,0-3.83-.56c-2.6-.1-5.25.26-7.66-1.09a1.9,1.9,0,0,0-1.49.08c-1.48.8-3.05.14-4.57.27a34.11,34.11,0,0,0-5.85.74c-1.73.59-2.58,2.46-4.35,2.5-1.76-.39-3.25-.85-4.78-1-1.8-.2-3.63-.17-4.95-.22A62,62,0,0,0,506.4,37a64.6,64.6,0,0,0-6.61-2.16,3.78,3.78,0,0,0-3,.48c-.87.51-1.71,1.06-2.56,1.59-1.91-.88-3.48.79-5.31.55a7.53,7.53,0,0,1-2.3-.31c-3.07-1.66-6-1.08-9,.16-.94.38-2.07.43-3,.85a12.86,12.86,0,0,1-4.59.76c-2.44.21-4.6-.74-6.8-1.15-1.55.42-2.91,1.3-4.54.39a4.66,4.66,0,0,0-4.48-.06,8.37,8.37,0,0,1-5.74.41c-1.32-1-2.92-2.19-4.46-3.34a51.31,51.31,0,0,0-5.26-1.66,16.7,16.7,0,0,0-4.68-.29c-1.85.17-3.43-1.29-5.59-.44-1.9,2.34-4.84,1.91-7.67,1.66-1.82-.49-2.76-2.34-4.78-2.35-3.71,1.07-3.77,2-7.81-1a4.34,4.34,0,0,0-.68-.35c-1.54-.56-3,1.17-4.53.17a6.15,6.15,0,0,0-3.36,1.57c.18,1,1.1,1.59,1.75,2.3.51.54,1,1.11,1.44,1.67.33.4-.27,1.36-1,1.65a1,1,0,0,1-1.26-.49,12.36,12.36,0,0,0-1-1.14l-4.48-1.27a20.67,20.67,0,0,1-4,2,69.12,69.12,0,0,1-7,1.28,18.57,18.57,0,0,0-1.71-2.28,7.52,7.52,0,0,0-1.76-1L377,37.36c-1.68,0-3.51,0-5.33,0-2.09,0-4.18.11-6.11.16l-4,2.5-4.17.47c-.71.47-1.58,1-2.37,1.61-1.06.81-2.41.84-3.62,1.26a11.68,11.68,0,0,0-2.6,1.55,6.15,6.15,0,0,1-5.94.56,14.26,14.26,0,0,1-5.3-3,29.17,29.17,0,0,0-3.42-2.93,3.37,3.37,0,0,0-3-.52c-1.24.36-2.44.82-3.76,1.26-2.45-.74-5-1.36-7.35-2.26-1.41-.54-2.53-.1-3.75.22l-7.32-2-2.49.62L302,33.39c-1.35-.13-2.41-.3-3.25.5a10.33,10.33,0,0,1-2.17,2c-2.28,1.14-4.46,2.52-7.45,2.92-3.64-1.8-7.79-1.56-11.81-1.17l-4.05,2.48-5.58.38a28.87,28.87,0,0,1-3.18,2.07,29,29,0,0,1-3.69,1.28c-.57,1.06-1.15,2.11-1.7,3.17a1.19,1.19,0,0,0,0,.75c.09.37.81.76.52,1-2.28,2.27-7.75,2.55-9.72,0-.56-.71.79-1.5.41-2a2.71,2.71,0,0,0-2.82-.55,1.58,1.58,0,0,0-1,1.19c-.05.58.55,1.17,1,1.67.15.15.48.17.48.34-.05,2.17-4.38,3.34-6.47,2.44a.13.13,0,0,1-.05-.19c-1.72,1.61-4.5.88-6.67,1.08l-5.06-2-3.55,2a12.9,12.9,0,0,1-2.14-.54,12.92,12.92,0,0,0-4.62-.63c-1.65-.08-3,1.05-4.49,1s-3-.77-4.52-.94a6.6,6.6,0,0,0-3,.45,11.58,11.58,0,0,1-9.11-.07,5.14,5.14,0,0,0-4.49.49,7,7,0,0,0-2.93,2.25,1.87,1.87,0,0,1-2,.7c-.51-.11-1.1-.49-1.5-.36-2.78.95-5.67.67-8.53.76a5.39,5.39,0,0,0-2.31.29c-2.4,1.32-5.09,1-7.24,1.25-2.63.75-4.51,2.18-6.75,2.47l-2.24-.52-11.54,6.29c-2,.52-3.93-1.15-6-.43-2-.6-3.94-1.24-5.94-1.78a5,5,0,0,0-1.6.15,13.4,13.4,0,0,0-1.94,3c-.51.83-.87,1.74-1.38,2.55-.63,1-.25,2.38-1.62,3.22-.52-.44-1.37-.84-1.56-1.4a7.82,7.82,0,0,0-3.27-4.64c-.8-.5-1.19-1.53-2.22-1.91a24.55,24.55,0,0,0-3.63-1.29c-1.26-.23-2.36-1.06-3.74-.81-.76.14-1.71.58-2.25.32-2.47-1.14-5.09-1-7.7-1a12.92,12.92,0,0,1-5.33-1,1.71,1.71,0,0,0-2,.76c-.44.84-.36,1.9-1.41,2.61-1.58.5-3.29,1.06-5,1.58a2.31,2.31,0,0,1-.74,0,5.27,5.27,0,0,1-1.33-.8,29.6,29.6,0,0,0-2.72-3.44A37.8,37.8,0,0,0,83.46,59c-1.24-.86-2.36-1.86-3.28-2.6-3.43-.66-6.22-2.21-9.51-1.91a4.49,4.49,0,0,1-2.24-.56,5.49,5.49,0,0,0-5.22,0,4.13,4.13,0,0,1-3.77.21,8.52,8.52,0,0,0-8.21.25,14,14,0,0,1-2.14.9,12,12,0,0,1-1.49.34c-1.29,0-2.33-1.16-4-.64A9.67,9.67,0,0,0,42,56.18c-1,1.06-1.93,2.21-2.89,3.32A4.46,4.46,0,0,1,37.81,59c-1.31-1.17-1.53-3-3.1-4.05s-3.44-2.13-5.1-3.28a8.77,8.77,0,0,0-3.51-1.48A5.14,5.14,0,0,1,24,49.27c-2.89-2.13-6.28-3.35-9.61-4.7-.85,0-1.64,0-2.42,0-4,.15-8.07-.52-12,.74V80Z"/></svg>