<svg id="elements" xmlns="http://www.w3.org/2000/svg" width="24" height="35" viewBox="0 0 24 35"><defs><style>.cls-1{fill:#105754;}</style></defs><title>social-bio-2twitter-24x35-evergreen</title><path class="cls-1" d="M21.44,12.65v.59A13.85,13.85,0,0,1,7.53,27.13,14.42,14.42,0,0,1,.07,24.94H1.24a9.29,9.29,0,0,0,6-2.05A4.75,4.75,0,0,1,2.7,19.53c.3,0,.59.14.88.14a4.24,4.24,0,0,0,1.32-.14A5,5,0,0,1,1,14.7H1a4.11,4.11,0,0,0,2.19.59,5.36,5.36,0,0,1-2-4.1,4.89,4.89,0,0,1,.74-2.48,13.65,13.65,0,0,0,10.1,5.11,2.78,2.78,0,0,1-.15-1.17,4.87,4.87,0,0,1,4.83-4.82,4.44,4.44,0,0,1,3.52,1.61A7.21,7.21,0,0,0,23.2,8.27,4.91,4.91,0,0,1,21,10.9a14.74,14.74,0,0,0,2.93-.73A9.77,9.77,0,0,1,21.44,12.65Z"/></svg>