<svg id="elements" xmlns="http://www.w3.org/2000/svg" width="24" height="35" viewBox="0 0 24 35"><defs><style>.cls-1{fill:#105754;}</style></defs><title>social-bio-3linkedin-24x35-evergreen</title><path class="cls-1" d="M20.47,7.55H3.52A1.44,1.44,0,0,0,2.06,9V26a1.44,1.44,0,0,0,1.46,1.43h17A1.45,1.45,0,0,0,21.94,26h0V9a1.45,1.45,0,0,0-1.47-1.43ZM8,24.48H5V15H8ZM6.48,13.7a1.71,1.71,0,1,1,1.21-.5A1.71,1.71,0,0,1,6.48,13.7ZM19,24.48h-3V19.84c0-1.1,0-2.51-1.54-2.51s-1.76,1.21-1.76,2.44v4.69H9.81V15h2.82v1.32h0a3.12,3.12,0,0,1,2.83-1.49c3,0,3.54,2,3.54,4.51Z"/></svg>