<svg id="ICONS_ROTATED" data-name="ICONS ROTATED" xmlns="http://www.w3.org/2000/svg" xmlns:xlink="http://www.w3.org/1999/xlink" width="110" height="110" viewBox="0 0 110 110"><defs><style>.cls-1,.cls-3,.cls-4{fill:none;}.cls-2{fill:#105754;}.cls-3,.cls-4{stroke:#105754;stroke-miterlimit:10;}.cls-4,.cls-5{fill-rule:evenodd;}.cls-5{fill:url(#_6_lpi_30_5);}</style><pattern id="_6_lpi_30_5" data-name="6 lpi 30% 5" width="4" height="4" patternTransform="translate(2.84 -1.37) rotate(14.62)" patternUnits="userSpaceOnUse" viewBox="0 0 4 4"><rect class="cls-1" width="4" height="4"/><rect class="cls-2" x="2.5" y="2.51" width="1" height="1"/><rect class="cls-2" x="0.5" y="0.49" width="1" height="1"/></pattern></defs><title>stamp-formerlyhackeryou-innerfixed</title><rect class="cls-3" x="39.45" y="36.55" width="34.76" height="34.76" transform="translate(-9.69 95.31) rotate(-75.38)"/><polygon class="cls-4" points="46.06 54.91 52.22 51.29 48.6 45.14 50.99 43.74 55.96 52.24 47.45 57.25 46.06 54.91"/><rect class="cls-3" x="56.88" y="55.46" width="2.55" height="10.72" transform="matrix(0.25, -0.97, 0.97, 0.25, -15.37, 101.74)"/><polygon class="cls-5" points="69.26 75.13 35.62 66.36 44.4 32.72 40.74 34.87 31.97 68.5 65.61 77.28 69.26 75.13"/><line class="cls-3" x1="32.33" y1="68.29" x2="35.62" y2="66.36"/><polyline class="cls-4" points="44.4 32.72 40.74 34.87 31.97 68.5 65.61 77.28 69.26 75.13"/></svg>