<svg xmlns="http://www.w3.org/2000/svg" xmlns:xlink="http://www.w3.org/1999/xlink" width="67" height="65" viewBox="0 0 67 65">
    <defs>
        <path id="a" d="M0 15.966h33.092v49.002H0z"/>
    </defs>
    <g fill="none" fill-rule="evenodd">
        <path fill="#7C7D98" d="M31.91 4.051h1.285V2.765h-1.284z"/>
        <path fill="#7C7D98" d="M27.246 0l5.926 11.852L39.097 0H27.246zm8.52 1.463v-.057h1.055l-1.958 3.917h-.383v.767l-1.285 2.566V7.91h-.422l-3.221-6.447h1.068v-.057h3.86v.057h1.286zM47.346 3.534v.517h.89l2.188 1.272h-.51V6.61h1.288v-.834l1.227.714-3.797 2.531V7.91h-1.286v1.286h1.021l-2.311 1.542v-.27h-.377l.24-3.859h.137V5.323H46l.154-2.482 1.192.693zM44.892.479l-.828 13.278 11.024-7.35L44.892.48zM19.043 6.61h1.286V5.322h-1.286z"/>
        <path fill="#7C7D98" d="M20.33 10.714v-.246h-.374L17.76 9.02V7.91h-1.286v.26l-2.368-1.56h1.08v-.845l5.098-2.93.512 8.186-.466-.307zM21.546.486l-10.301 5.92 11.13 7.343-.83-13.263zM63.693 52.72c-1.354 3.217-5.534 5.424-10.17 5.372-5.527-.065-10.065-3.254-12.14-8.534-.492-1.254-1.077-2.527-1.696-3.876-.58-1.263-1.18-2.57-1.704-3.877-.519-1.198-1.277-2.208-1.947-3.098-1.32-1.756-1.75-2.503-1.025-3.361.436-.494 1.015-.705 1.68-.615 1.446.203 2.995 1.759 4.147 4.174 1.009 2.016 1.632 2.71 2.38 2.957l-.014.058c.05.013.524.127 1.123.127 1.023 0 9.992.247 9.992 8.826h1.406c0-8.06-7.131-10.223-11.368-10.232a2.96 2.96 0 0 0-.279-.04V22.175c0-1.208.854-2.155 1.943-2.155 1.108 0 1.944.972 1.944 2.26v14.43h1.407V20.165c0-1.564 1.086-2.791 2.473-2.791 1.319 0 2.474 1.304 2.474 2.791h.067a4.058 4.058 0 0 0-.278 1.483v16.406h1.406V21.647c0-1.283.939-2.368 2.05-2.368 1.11 0 2.05 1.085 2.05 2.368v17.172h1.407V25.036c0-1.169.841-2.157 1.837-2.157.972 0 1.732.947 1.732 2.161l.111 15.328c.01.078.906 7.714-1.008 12.351m2.41-12.44l-.106-15.243c0-1.999-1.379-3.563-3.139-3.563-.682 0-1.314.236-1.837.631v-.457c0-2.08-1.55-3.775-3.457-3.775-.799 0-1.525.31-2.11.807-.57-1.566-1.988-2.713-3.609-2.713-1.882 0-3.452 1.459-3.804 3.386a3.162 3.162 0 0 0-2.02-.738c-1.878 0-3.35 1.564-3.35 3.562V39.34c-.167-.284-.35-.616-.568-1.052-1.372-2.875-3.273-4.678-5.217-4.95-1.14-.162-2.18.225-2.935 1.08l.528.466-.536-.456c-1.53 1.798-.259 3.49.97 5.124.652.868 1.326 1.766 1.772 2.793.529 1.322 1.135 2.645 1.723 3.924.61 1.33 1.188 2.586 1.663 3.804 1.234 3.137 3.263 5.598 5.823 7.221.15.747.915 4.635.915 6.97a.704.704 0 0 0 1.407 0c0-1.854-.432-4.522-.72-6.096 1.818.84 3.843 1.306 6.01 1.331l.18.001c2.7 0 5.249-.721 7.297-1.931v6.312a.703.703 0 1 0 1.407 0v-7.284l-.002-.009c1.154-.94 2.07-2.06 2.603-3.327 2.058-4.985 1.147-12.735 1.112-12.981"/>
        <mask id="b" fill="#fff">
            <use xlink:href="#a"/>
        </mask>
        <path fill="#7C7D98" d="M30.297 38.707c-.67.89-1.428 1.9-1.955 3.116-.514 1.289-1.115 2.596-1.695 3.86-.62 1.348-1.205 2.622-1.695 3.874-2.075 5.281-6.614 8.47-12.141 8.535-4.628.066-8.817-2.155-10.17-5.368C.727 48.082 1.624 40.446 1.638 40.29l.106-15.254c0-1.21.76-2.156 1.732-2.156.997 0 1.838.987 1.838 2.156V38.82H6.72V21.647c0-1.283.939-2.368 2.05-2.368 1.11 0 2.05 1.085 2.05 2.368v16.406h1.407V21.647c0-.526-.102-1.027-.28-1.483h.067c0-1.487 1.157-2.79 2.474-2.79 1.387 0 2.473 1.226 2.473 2.79v16.548h1.407V22.283c0-1.29.835-2.262 1.944-2.262 1.09 0 1.944.947 1.944 2.155v18.425c-.09.008-.184.022-.28.04-4.237.009-11.369 2.173-11.369 10.233h1.407c0-8.58 8.97-8.827 9.992-8.827.6 0 1.072-.114 1.124-.127l-.014-.057c.748-.248 1.372-.944 2.385-2.97 1.146-2.403 2.695-3.96 4.141-4.162.66-.089 1.243.121 1.68.615.726.858.294 1.604-1.025 3.36zm1.557-3.823l.528-.465c-.754-.856-1.798-1.238-2.935-1.08-1.943.27-3.845 2.074-5.211 4.936-.22.442-.405.778-.573 1.065V22.176c0-1.998-1.473-3.562-3.351-3.562-.768 0-1.46.28-2.02.739-.35-1.928-1.92-3.387-3.804-3.387-1.621 0-3.04 1.147-3.608 2.713-.586-.497-1.312-.806-2.11-.806-1.906 0-3.457 1.693-3.457 3.774v.457a3.032 3.032 0 0 0-1.838-.631c-1.76 0-3.14 1.564-3.14 3.558L.236 40.2c-.04.326-.952 8.076 1.108 13.065.533 1.266 1.448 2.384 2.603 3.323l-.002.009v7.285a.703.703 0 1 0 1.407 0v-6.313c2.047 1.21 4.597 1.932 7.296 1.932.06 0 .121 0 .18-.002 2.167-.025 4.192-.49 6.01-1.33-.288 1.574-.72 4.241-.72 6.095a.704.704 0 0 0 1.407 0c0-2.335.766-6.224.916-6.97 2.56-1.623 4.588-4.085 5.822-7.222.475-1.217 1.052-2.474 1.663-3.803.588-1.279 1.195-2.601 1.716-3.904.453-1.047 1.127-1.944 1.78-2.813 1.228-1.634 2.498-3.325.97-5.123l-.537.455z" mask="url(#b)"/>
    </g>
</svg>
