<svg xmlns="http://www.w3.org/2000/svg" width="120" height="27" viewBox="0 0 120 27">
    <g fill="#FFF" fill-rule="nonzero">
        <path d="M80.094 9.521h.827c-.372 1.235-1.344 2.058-2.822 2.058-1.767 0-2.952-1.306-2.952-3.203 0-1.896 1.175-3.282 2.97-3.282 1.46 0 2.442.796 2.804 2.058h-.827a1.978 1.978 0 0 0-1.98-1.342c-1.337 0-2.177 1.047-2.177 2.54 0 1.491.84 2.51 2.177 2.51.937.003 1.61-.416 1.98-1.339zM83.735 6.882c1.351 0 2.276.967 2.276 2.363s-.92 2.344-2.276 2.344c-1.355 0-2.276-.959-2.276-2.344 0-1.386.923-2.363 2.276-2.363zm0 4.07c.91 0 1.52-.68 1.52-1.715 0-1.037-.61-1.727-1.52-1.727s-1.523.67-1.523 1.727c0 1.056.61 1.716 1.523 1.716zM87.554 11.5h-.724V4.913h.724zM89.299 11.5h-.725V4.913h.725zM94.481 9.442H90.89c.018 1.002.664 1.521 1.469 1.521a1.34 1.34 0 0 0 1.326-.887h.743c-.257.904-1.035 1.503-2.088 1.503-1.316 0-2.193-.938-2.193-2.353 0-1.415.877-2.344 2.185-2.344 1.307 0 2.15.896 2.15 2.237v.323zM90.9 8.895h2.839c-.054-.94-.656-1.412-1.407-1.412s-1.345.47-1.432 1.412zM99.416 6.972v4.33c0 1.256-.84 2.077-2.123 2.077-1.086 0-1.862-.601-2.025-1.522h.753c.149.599.645.904 1.272.904.902 0 1.407-.538 1.407-1.341v-.86c-.265.527-.867.837-1.556.837-1.123 0-1.998-.838-1.998-2.255 0-1.417.866-2.264 2.006-2.264a1.725 1.725 0 0 1 1.538.829l.087-.735h.639zm-.726 2.191c0-.975-.565-1.636-1.416-1.636-.85 0-1.37.671-1.37 1.628 0 .956.53 1.61 1.37 1.61.84 0 1.416-.626 1.416-1.602zM104.501 9.442h-3.59c.017 1.002.663 1.521 1.468 1.521.587.03 1.125-.33 1.328-.887h.743c-.257.904-1.035 1.503-2.088 1.503-1.318 0-2.193-.938-2.193-2.353 0-1.415.875-2.344 2.185-2.344s2.147.896 2.147 2.237v.323zm-3.581-.547h2.839c-.052-.94-.654-1.412-1.405-1.412s-1.345.47-1.434 1.412zM108.977 6.882c1.353 0 2.275.967 2.275 2.363s-.92 2.344-2.275 2.344c-1.356 0-2.264-.959-2.264-2.344 0-1.386.913-2.363 2.264-2.363zm0 4.07c.912 0 1.522-.68 1.522-1.715 0-1.037-.62-1.727-1.522-1.727-.903 0-1.521.67-1.521 1.727 0 1.056.61 1.716 1.52 1.716zM112.248 6.972v-.867c0-.837.413-1.199 1.229-1.199h.61v.645h-.548c-.468 0-.557.24-.557.59v.837h1.105v.653h-1.105V11.5h-.734V7.625h-.77v-.653h.77zM78.04 21.236h-.752v-5.61h-2.13v-.707h5.014v.708H78.04z"/>
        <path d="M83.51 19.178h-3.592c.019 1.003.664 1.522 1.469 1.522a1.339 1.339 0 0 0 1.326-.885h.743c-.257.902-1.035 1.502-2.088 1.502-1.316 0-2.193-.94-2.193-2.352 0-1.413.877-2.344 2.185-2.344s2.15.893 2.15 2.235v.322zm-3.582-.55h2.83c-.053-.938-.655-1.413-1.406-1.413-.751 0-1.337.469-1.424 1.413zM86.388 17.255c-.828 0-1.449.59-1.449 1.71s.621 1.708 1.449 1.708a1.372 1.372 0 0 0 1.336-1.02h.77a2.086 2.086 0 0 1-2.104 1.664c-1.31 0-2.185-.94-2.185-2.352 0-1.413.875-2.344 2.185-2.344 1.05 0 1.839.59 2.096 1.6h-.797a1.338 1.338 0 0 0-1.301-.966zM93.207 18.57v2.666h-.724v-2.541c0-.975-.46-1.396-1.175-1.386-.867 0-1.335.628-1.335 1.465v2.46h-.726V14.65h.726v2.721c.273-.483.84-.76 1.486-.76.854.009 1.748.473 1.748 1.957zM98.106 18.525v2.71h-.724v-2.557c0-.94-.486-1.388-1.212-1.388-.84 0-1.291.61-1.291 1.495v2.45h-.725V16.71h.636l.08.699c.257-.503.778-.787 1.467-.787 1.111 0 1.77.751 1.77 1.904zM101.119 16.62c1.35 0 2.275.966 2.275 2.362 0 1.396-.92 2.344-2.275 2.344-1.356 0-2.266-.957-2.266-2.344 0-1.388.913-2.361 2.266-2.361zm0 4.07c.91 0 1.52-.679 1.52-1.717s-.61-1.726-1.52-1.726-1.523.67-1.523 1.726c0 1.057.61 1.717 1.523 1.717zM104.897 21.236h-.727V14.65h.727zM107.928 16.62c1.353 0 2.275.966 2.275 2.362 0 1.396-.92 2.344-2.275 2.344-1.356 0-2.264-.957-2.264-2.344 0-1.388.91-2.361 2.264-2.361zm0 4.07c.91 0 1.52-.679 1.52-1.717s-.62-1.726-1.52-1.726-1.521.67-1.521 1.726c0 1.057.61 1.717 1.52 1.717zM115.074 16.709v4.33c0 1.256-.84 2.076-2.123 2.076-1.086 0-1.862-.6-2.025-1.521h.753c.15.6.645.904 1.272.904.902 0 1.407-.538 1.407-1.342v-.854c-.265.53-.867.838-1.556.838-1.123 0-1.999-.838-1.999-2.255 0-1.417.867-2.262 2.007-2.262a1.722 1.722 0 0 1 1.54.822l.087-.734.637-.002zm-.735 2.193c0-.975-.565-1.639-1.413-1.639-.848 0-1.372.672-1.372 1.629 0 .956.53 1.611 1.372 1.611.842 0 1.413-.62 1.413-1.6zM117.88 20.744l1.35-4.044h.77l-1.874 5.277c-.32.877-.805 1.046-1.46 1.046h-.885v-.661h.894c.46 0 .743-.251.743-.762a1.156 1.156 0 0 0-.079-.393l-1.715-4.5h.786l1.47 4.037zM23.052 21.27h6.12l-2.275-2.303V5.341h-6.125l2.276 2.303v9.862a5.102 5.102 0 0 1-1.57 1.427c-.569.323-1.21.491-1.862.488-1.035 0-1.746-.351-2.202-.902-.488-.588-.62-1.607-.62-3.186V5.341h-6.12l2.276 2.303v8.79c0 1.643.413 2.919 1.241 3.829.828.91 2.015 1.364 3.56 1.362a6.01 6.01 0 0 0 2.966-.795 6.375 6.375 0 0 0 2.325-2.223l.01 2.662zM62.243 7.158C60.96 5.71 59.28 4.985 57.207 4.983c-2.607 0-4.718.877-6.333 2.63-1.615 1.752-2.422 3.893-2.42 6.423 0 2.185.64 3.999 1.923 5.442 1.283 1.442 2.96 2.167 5.034 2.172 2.61 0 4.721-.875 6.335-2.627 1.614-1.75 2.42-3.892 2.42-6.423 0-2.18-.64-3.993-1.923-5.442zm-2.886 11.857c-.536.94-1.263 1.41-2.181 1.41-1.348 0-2.46-.892-3.335-2.676-.876-1.785-1.314-4.003-1.314-6.656 0-1.665.245-2.892.736-3.682s1.23-1.184 2.214-1.184c1.346 0 2.463.898 3.35 2.693.887 1.796 1.33 4.013 1.33 6.65 0 1.355-.267 2.503-.8 3.445zM35.39 8.002v-2.66h-6.124l2.275 2.302v13.625h6.127l-2.276-2.302V9.105a5.108 5.108 0 0 1 1.572-1.428 3.732 3.732 0 0 1 1.862-.487c1.035 0 1.744.351 2.202.902.486.588.62 1.607.62 3.185v9.992h6.124l-2.275-2.302v-8.79c0-1.644-.414-2.92-1.242-3.829-.827-.908-2.014-1.362-3.558-1.362a6.025 6.025 0 0 0-2.967.795A6.374 6.374 0 0 0 35.39 8zM2.189 0l2.586 2.616v19.011c0 .963-.03 1.449-.143 1.767H0V27h3.172s4.138-4.121 4.713-4.919a3.19 3.19 0 0 0 .672-2.093V0H2.19z"/>
    </g>
</svg>
