<svg xmlns="http://www.w3.org/2000/svg" width="160" height="100" viewBox="0 0 160 100"><defs><style>.cls-1{isolation:isolate;}.cls-2{fill:none;opacity:0.2;mix-blend-mode:multiply;}.cls-3{fill:#e34935;}</style></defs><title>logo-hiringpartner-bbdo</title><g class="cls-1"><g id="Logos"><rect class="cls-2" width="160" height="100"/><g id="Symbols"><g id="Asset-1"><path id="Shape" class="cls-3" d="M52.69,51.35a6.18,6.18,0,0,0,2.59-5.23v-.07a6.29,6.29,0,0,0-2.42-5.11,10.19,10.19,0,0,0-6.34-1.86H34.46V65H46.81a12.26,12.26,0,0,0,7-1.8,6.46,6.46,0,0,0,2.79-5.56v-.08a6.36,6.36,0,0,0-4-6.17Zm-4-4.29a1.61,1.61,0,0,1-.79,1.5,5,5,0,0,1-2.54.52H40.94V45h4.77a3.93,3.93,0,0,1,2.3.55,1.56,1.56,0,0,1,.68,1.4Zm-7.77,7.72h5.69a4.77,4.77,0,0,1,2.72.61,1.67,1.67,0,0,1,.72,1.49V57a1.68,1.68,0,0,1-.76,1.55,4.62,4.62,0,0,1-2.5.56H40.94Z"/><path class="cls-3" d="M74.22,51.35a6.21,6.21,0,0,0,2.59-5.23v-.06a6.3,6.3,0,0,0-2.41-5.12,10.15,10.15,0,0,0-6.34-1.86H56V65H68.34a12.34,12.34,0,0,0,7-1.79,6.46,6.46,0,0,0,2.78-5.57v-.07a6.35,6.35,0,0,0-4-6.18Zm-4-4.31a1.61,1.61,0,0,1-.79,1.5,5.05,5.05,0,0,1-2.54.52H62.47V45h4.78a4,4,0,0,1,2.3.55,1.61,1.61,0,0,1,.67,1.4Zm1.37,9.82v.07a1.68,1.68,0,0,1-.76,1.55,4.62,4.62,0,0,1-2.5.56H62.47V54.76h5.67a4.77,4.77,0,0,1,2.72.61,1.69,1.69,0,0,1,.72,1.49Z"/><path class="cls-3" d="M97.63,42.8a13.94,13.94,0,0,0-9.88-3.72H77.53V65H87.76a14,14,0,0,0,9.87-3.73A12.57,12.57,0,0,0,101.47,52V52a12.43,12.43,0,0,0-3.84-9.17m-3,9.22v.07c0,4.09-2.69,6.77-6.86,6.77H84.13V45.16h3.62A6.5,6.5,0,0,1,94.61,52"/><path class="cls-3" d="M123.86,42.54a14.34,14.34,0,0,0-19.69,0,13.23,13.23,0,0,0-3.9,9.44v.07a13.12,13.12,0,0,0,3.86,9.41,14.34,14.34,0,0,0,19.66,0A13.19,13.19,0,0,0,127.73,52V52A13.17,13.17,0,0,0,123.86,42.54ZM107.15,52A6.79,6.79,0,0,1,114,44.84a6.92,6.92,0,0,1,6.9,7.18v.07A6.79,6.79,0,0,1,114,59.2,6.9,6.9,0,0,1,107.15,52Z"/></g></g></g></g></svg>