<svg id="Logos" xmlns="http://www.w3.org/2000/svg" width="160" height="100" viewBox="0 0 160 100"><defs><style>.cls-1{fill:none;}.cls-2{fill:#d9291c;}</style></defs><title>logo-hiringpartner-rogers</title><rect class="cls-1" width="160" height="100"/><path class="cls-2" d="M39,43.25A9.89,9.89,0,0,1,41.51,50c0,4.7-2.86,7.56-5.87,7.56a7.2,7.2,0,0,1-3.82-1.17c4.84-2.06,7.71-6.24,7.71-9.91A10.51,10.51,0,0,0,39,43.25M24.34,42.08a11.54,11.54,0,0,1,3.15-.44c3.67,0,7.85,2.86,9.91,7.7a6.53,6.53,0,0,0,1.17-3.81c0-3-2.86-5.88-7.56-5.88a10,10,0,0,0-6.67,2.43m-1.18,14.6a11.68,11.68,0,0,1-.44-3.16c0-3.67,2.86-7.85,7.71-9.9a6.57,6.57,0,0,0-3.82-1.18c-3,0-5.87,2.87-5.87,7.56a10.75,10.75,0,0,0,2.42,6.68m14.68,1.25a11.68,11.68,0,0,1-3.16.44c-3.67,0-7.85-2.86-9.9-7.71a6.57,6.57,0,0,0-1.18,3.82c0,3,2.86,5.87,7.56,5.87a10.83,10.83,0,0,0,6.68-2.42"/><polyline class="cls-2" points="136.98 57.71 136.76 57.71 136.76 56.24 136.17 56.24 136.17 56.09 137.56 56.09 137.56 56.24 136.98 56.24 136.98 57.71"/><polyline class="cls-2" points="138.74 57.34 138.74 57.34 139.18 56.09 139.62 56.09 139.62 57.71 139.32 57.71 139.32 56.31 139.32 56.31 138.81 57.71 138.66 57.71 138 56.31 138 56.31 138 57.71 137.78 57.71 137.78 56.09 138.15 56.09 138.74 57.34"/><path class="cls-2" d="M61.83,50c0-4.77,2.79-8,7.27-8s7.26,3.31,7.26,8-2.86,8-7.26,8-7.27-3.23-7.27-8M73.5,50c0-3.52-1.39-5.65-4.25-5.65S65,46.41,65,50s1.54,5.65,4.26,5.65S73.5,53.52,73.5,50"/><polyline class="cls-2" points="96.69 42.15 96.69 57.71 106.3 57.71 106.3 55.43 99.55 55.43 99.55 51.03 105.5 51.03 105.5 48.61 99.55 48.61 99.55 44.5 105.5 44.5 106.3 42.15 96.69 42.15"/><path class="cls-2" d="M87.74,49.34,87,51.54h2.35v3.52a4.93,4.93,0,0,1-2.27.45c-3.31,0-4.92-2.21-4.92-5.58s1.69-5.65,5.06-5.65a7.14,7.14,0,0,1,3.6,1L91.63,43a9.94,9.94,0,0,0-4.55-1c-4.77,0-7.86,3.52-7.86,8.22s2.72,7.78,7.71,7.78a12.15,12.15,0,0,0,5.28-1.25V49.34H87.74"/><path class="cls-2" d="M48.7,42.15h4.69c4.26,0,5.66,2.71,5.66,4.77a4.39,4.39,0,0,1-2.87,4.26v.07c.3.07,1,.37,1.84,1.91l2.64,4.62H57.5l-2.2-4c-.88-1.62-1.24-2.13-2.71-2.13h-1v6.09H48.77L48.7,42.15m4.69,7.19c2.35,0,2.87-1.54,2.87-2.42s-.37-2.42-2.87-2.42H51.56v4.91h1.83Z"/><path class="cls-2" d="M109.9,42.15h4.69c4.26,0,5.65,2.71,5.65,4.77a4.38,4.38,0,0,1-2.86,4.26v.07c.3.07,1,.37,1.84,1.91l2.64,4.62H118.7l-2.2-4c-.88-1.62-1.24-2.13-2.71-2.13h-1.1v6.09H109.9V42.15m4.62,7.19c2.35,0,2.86-1.54,2.86-2.42s-.36-2.42-2.86-2.42h-1.83v4.91h1.83Z"/><path class="cls-2" d="M127.22,46.11c0-1.25,1.17-1.76,2.42-1.76a7.9,7.9,0,0,1,3.37.74V42.44a12.08,12.08,0,0,0-3.67-.44c-3.37,0-5.21,2-5.21,4.26s1.84,3.52,3.38,4.26a4,4,0,0,1,1.1.66c1.25.73,2.2,1.17,2.2,2.34s-1.25,2-2.64,2a7.33,7.33,0,0,1-3.82-1l-.8,2.28a9.94,9.94,0,0,0,4.62,1c3.16,0,5.65-1.9,5.65-4.69,0-2-1.32-3.23-3.6-4.33-.36-.22-.73-.37-1-.59-1-.51-2-1-2-2.13"/></svg>