<svg id="Logos" xmlns="http://www.w3.org/2000/svg" width="160" height="100" viewBox="0 0 160 100"><defs><style>.cls-1{fill:none;}.cls-2{fill:#00a955;fill-rule:evenodd;}</style></defs><title>logo-hiringpartner-twg</title><rect class="cls-1" width="160" height="100"/><path id="Combined-Shape" class="cls-2" d="M119.35,38.32l.2.14L116,43.79l-.2-.13-.54-.34a11.78,11.78,0,0,0-13.06,19.57v1.9H95a18.19,18.19,0,0,1-3.64-7.88h0l-2.55,7.88H82L76.19,47,70.33,64.79H63.6L56.21,42H50.76V64.79h-7V42h-7v-6.5H60.86L67,54.35l6.11-18.81h6.19l6.11,18.81,6.1-18.81h6.76l-1.48,4.57a18.18,18.18,0,0,1,20.47-3A19.47,19.47,0,0,1,119.35,38.32ZM109.68,51h13.81v13.8h-6.9v-6.9h-6.91Z"/></svg>