<svg id="Logos" xmlns="http://www.w3.org/2000/svg" width="160" height="100" viewBox="0 0 160 100"><defs><style>.cls-1{fill:none;}.cls-2{fill:#a1c532;}</style></defs><title>logo-hiringpartner-deloittedigital</title><rect class="cls-1" width="160" height="100"/><path d="M60.22,43.29a10.85,10.85,0,0,1-1.48.42,9.13,9.13,0,0,1-1.82.18c-2,0-3.57-.66-3.82-2.25h8.53a10.06,10.06,0,0,0,.18-1.82c0-3.6-1.8-6.91-6.37-6.91s-6.81,3.49-6.81,7.39c0,4.5,3.15,7.08,7.54,7.08a13.24,13.24,0,0,0,2.61-.24,10.74,10.74,0,0,0,2.13-.67Zm-4.86-7.14a2.26,2.26,0,0,1,2.2,2.39H53a2.31,2.31,0,0,1,2.36-2.39"/><path d="M126.47,43.29a10.85,10.85,0,0,1-1.48.42,9.13,9.13,0,0,1-1.82.18c-2,0-3.56-.66-3.82-2.25h8.53a9.21,9.21,0,0,0,.18-1.82c0-3.6-1.79-6.91-6.37-6.91s-6.81,3.49-6.81,7.39c0,4.5,3.15,7.08,7.54,7.08a13.44,13.44,0,0,0,2.62-.24,10.45,10.45,0,0,0,2.12-.67Zm-4.85-7.14a2.26,2.26,0,0,1,2.2,2.39h-4.56a2.31,2.31,0,0,1,2.36-2.39"/><rect x="63.89" y="28.33" width="4.63" height="18.75"/><path d="M77.76,47.38A6.93,6.93,0,0,0,85,40c0-3-1.79-7.08-7-7.08-5.4,0-7.37,3.93-7.37,7.31a6.81,6.81,0,0,0,7.15,7.13m.06-3.44c-1.51,0-2.49-1.48-2.49-3.78,0-1.83.66-3.79,2.5-3.79s2.42,2,2.42,3.77c0,2.31-1,3.8-2.43,3.8"/><rect x="87.03" y="33.24" width="4.63" height="13.84"/><rect x="87.03" y="28.33" width="4.63" height="3.59"/><path d="M95.33,29.48v3.76H93.55v3.43h1.78v5.67c0,3.12,1.42,5,4.68,5a14.18,14.18,0,0,0,1.93-.15,11.64,11.64,0,0,0,1.34-.27l0-3.63a10.19,10.19,0,0,1-1.58.23,1.78,1.78,0,0,1-1.32-.46,2.06,2.06,0,0,1-.48-1.52V36.67h3V33.24h-3V29Z"/><path d="M106,29.48v3.76h-1.78v3.43H106v5.67c0,3.12,1.43,5,4.68,5a14.45,14.45,0,0,0,1.94-.15,11.35,11.35,0,0,0,1.33-.27s0-3.62,0-3.63a10.19,10.19,0,0,1-1.58.23,1.77,1.77,0,0,1-1.32-.46,2.06,2.06,0,0,1-.49-1.52V36.67h3V33.24h-3V29Z"/><path class="cls-2" d="M130.05,44.82a2.56,2.56,0,1,1,2.56,2.56,2.56,2.56,0,0,1-2.56-2.56"/><path d="M37.42,43.36c-.19,0-.48,0-.67,0H35.28V31.86c.51,0,1.16-.07,1.59-.07a5.37,5.37,0,0,1,5.55,5.77c0,4.21-2.69,5.61-5,5.8m-6.7,3.74H36c.35,0,.78,0,1.12,0,7.17-.37,10.15-4.61,10.15-9.51C47.23,31.44,43.1,28,36,28c-1.83,0-3.45.06-5.26.21Z"/><path d="M37.42,66c-.19,0-.48,0-.67,0H35.28V54.49c.51,0,1.16-.07,1.59-.07a5.37,5.37,0,0,1,5.55,5.77c0,4.21-2.69,5.61-5,5.8m-6.7,3.74H36c.35,0,.78,0,1.12,0,7.17-.37,10.15-4.61,10.15-9.51,0-6.11-4.13-9.54-11.25-9.54-1.83,0-3.45.06-5.26.21Z"/><rect x="49.11" y="55.88" width="4.63" height="13.84"/><rect x="49.11" y="50.97" width="4.63" height="3.59"/><rect x="72.27" y="55.88" width="4.63" height="13.84"/><rect x="72.27" y="50.97" width="4.63" height="3.59"/><rect x="104.86" y="50.97" width="4.63" height="18.75"/><path d="M80.35,52.17v3.76H78.58v3.43h1.77V65c0,3.12,1.43,5,4.69,5A14.48,14.48,0,0,0,87,69.9a11.64,11.64,0,0,0,1.34-.27s0-3.62,0-3.63a10.19,10.19,0,0,1-1.58.23,1.8,1.8,0,0,1-1.32-.45,2.09,2.09,0,0,1-.48-1.52v-4.9h3V55.93h-3V51.66Z"/><path d="M98.32,62.89c-2.37,0-4.21.56-4.21,2.28a1.62,1.62,0,0,0,1.78,1.72,2.49,2.49,0,0,0,2.34-1.66,3.19,3.19,0,0,0,.09-.77Zm4.35,3.35a18.5,18.5,0,0,0,.24,3.49H98.85l-.27-1.45H98.5a5.24,5.24,0,0,1-4.15,1.78,4.45,4.45,0,0,1-4.68-4.45c0-3.76,3.38-5.54,8.5-5.54V59.9c0-.77-.42-1.87-2.64-1.87a8.41,8.41,0,0,0-4,1.07l-.82-2.88a11.89,11.89,0,0,1,5.62-1.3c4.83,0,6.34,2.84,6.34,6.25Z"/><path d="M65.62,61.78a3.84,3.84,0,0,0-.09-.83,2.46,2.46,0,0,0-2.42-2c-1.66,0-3,1.48-3,4.12,0,2.16,1.07,3.85,2.94,3.85a2.47,2.47,0,0,0,2.4-1.81,4.41,4.41,0,0,0,.14-1.21Zm4.51,6.48c0,2.79-.57,5.07-2.23,6.52A8.81,8.81,0,0,1,62,76.56a11.59,11.59,0,0,1-5.21-1.1L57.72,72a8.67,8.67,0,0,0,4.2,1.1c2.13,0,3.76-1.13,3.76-3.82v-.92h-.06a4.66,4.66,0,0,1-3.91,1.87c-3.58,0-6.13-2.91-6.13-7,0-4.68,3-7.64,6.58-7.64a4.32,4.32,0,0,1,4,2.07h.06l.14-1.75h3.91c0,.95-.11,2.16-.11,4.33Z"/></svg>