<svg id="Logos" xmlns="http://www.w3.org/2000/svg" width="160" height="100" viewBox="0 0 160 100"><defs><style>.cls-1{fill:none;}.cls-2{fill:#ec0e22;}</style></defs><title>logo-hiringpartner-cbc</title><rect class="cls-1" width="160" height="100"/><path class="cls-2" d="M53.78,59.52A9.54,9.54,0,1,0,44.24,50h0a9.54,9.54,0,0,0,9.54,9.52"/><path class="cls-2" d="M42.77,59.52a9.54,9.54,0,0,1,0-19.07V59.52"/><path class="cls-2" d="M64.79,70.06V61h9a9,9,0,0,1-9,9h0"/><path class="cls-2" d="M42.77,29.94V39H33.71a9.06,9.06,0,0,1,9.06-9.06"/><path class="cls-2" d="M42.77,70.06V61H33.71a9.05,9.05,0,0,0,9,9h0"/><path class="cls-2" d="M75.81,58.2V41.81a9.54,9.54,0,0,1,0,16.39"/><path class="cls-2" d="M45.59,28H62a9.52,9.52,0,0,0-16.39,0"/><path class="cls-2" d="M61.86,72H45.47a9.53,9.53,0,0,0,13.07,3.31A9.65,9.65,0,0,0,61.86,72"/><path class="cls-2" d="M63.31,61a9.54,9.54,0,1,1-19.07,0H63.31"/><path class="cls-2" d="M64.8,59.52a9.54,9.54,0,0,0,0-19.07V59.52"/><path class="cls-2" d="M63.31,39a9.54,9.54,0,1,0-19.07,0H63.31"/><path class="cls-2" d="M31.76,58.2V41.81a9.52,9.52,0,0,0-3.32,13.07,9.43,9.43,0,0,0,3.32,3.32"/><path class="cls-2" d="M73.85,39H64.79V29.94A9.06,9.06,0,0,1,73.85,39h0"/><path d="M102,58.67a18,18,0,0,1-4.06.56c-5.78,0-9.79-2.89-9.79-8.92s3.73-9.54,9.79-9.54a11.9,11.9,0,0,1,4,.71l-.26,3a7.32,7.32,0,0,0-3.86-.94c-3.68,0-6,2.83-6,6.47S94.16,56.4,98,56.4a10,10,0,0,0,3.91-.7l.15,3"/><path d="M108.23,48.29h1.46c1.51,0,3.38-.33,3.38-2.17,0-2.08-1.82-2.23-3.46-2.23h-1.38v4.4m0,7.82h1.69c1.66,0,3.68-.41,3.68-2.47,0-2.33-1.89-2.69-3.68-2.69h-1.69Zm-3.58-15h6.24c2.3,0,5.75.66,5.75,4.57a4,4,0,0,1-3.54,4v0c2.43.24,4.09,1.87,4.09,4.07,0,4.5-4,5.16-6.29,5.16h-6.24V41.08Z"/><path d="M133.26,58.67a18.06,18.06,0,0,1-4.07.56c-5.77,0-9.79-2.89-9.79-8.92s3.74-9.54,9.79-9.54a11.81,11.81,0,0,1,4,.71l-.25,3a7.26,7.26,0,0,0-3.86-1c-3.68,0-6,2.83-6,6.47s2.25,6.37,6.06,6.37a9.86,9.86,0,0,0,3.91-.71l.15,3"/></svg>