<svg id="Logos" xmlns="http://www.w3.org/2000/svg" width="160" height="100" viewBox="0 0 160 100"><defs><style>.cls-1{fill:none;}.cls-2{fill:#cf3027;}.cls-3{fill:#004977;}</style></defs><title>logo-hiringpartner-capitalone</title><rect class="cls-1" width="160" height="100"/><path id="Icon" class="cls-2" d="M99.88,59.71h0C94.71,63.36,88.6,67.2,82,71.22l-.27.16a.19.19,0,0,0-.05.27.2.2,0,0,0,.27,0h0l.22-.11c5.57-2.91,12-6.36,18.42-9.91l.1-.05A8.34,8.34,0,0,1,99.88,59.71Zm33.86-27.4c-8.13-9-60.44-.9-82.69,4l-.52.11a.21.21,0,0,0-.19.21.21.21,0,0,0,.21.19h.05l.51-.1c18.43-3.28,56.76-7.83,65,.35,2.51,2.49,1.91,5.7-1,9.5a7.49,7.49,0,0,1,3.2,4.6C129.71,43.53,137.36,36.3,133.74,32.31Z"/><g id="Wordmark"><path class="cls-3" d="M103.17,57.36c.1,3.16,2.1,5.74,4.7,5.74,5,0,7.2-6.19,7-10.33-.11-3.17-2.17-5.74-4.76-5.74C105.83,47,103,53.19,103.17,57.36Zm-2.67-.17c-.18-5.38,4-10.89,10.16-10.89,4.1,0,6.78,2.73,6.93,6.91.2,5.68-3.74,10.89-10.16,10.89-4.09,0-6.77-2.72-6.92-6.91Z"/><path class="cls-3" d="M42.46,55.77a5.93,5.93,0,0,1-.85.24c-.35.08-1,.19-1.92.34a3.28,3.28,0,0,0-1.33.41,1,1,0,0,0-.43.65.65.65,0,0,0,.27.68,2.24,2.24,0,0,0,1.24.27,4.21,4.21,0,0,0,1.27-.2,3.15,3.15,0,0,0,1-.55A1.65,1.65,0,0,0,42.2,57,9.71,9.71,0,0,0,42.46,55.77Zm5.33-3.31a12.14,12.14,0,0,1-.24,1.68l-.9,5.06a1,1,0,0,0,.5,1l0,.2H42l0-1.29a10.25,10.25,0,0,1-2.48,1.06,9,9,0,0,1-2.47.31c-1.67,0-2.62-.18-3.28-.75a2.09,2.09,0,0,1-1-1.81,2.87,2.87,0,0,1,.63-1.51,3.74,3.74,0,0,1,1.37-1,7.18,7.18,0,0,1,2.07-.58c.91-.15,2.19-.29,3.89-.44a5.76,5.76,0,0,0,1.69-.38c.36-.14.5-.29.55-.58.09-.52-.08-.81-.76-.95-1.86-.37-5.35.23-7.14.68l1-2.63A47.28,47.28,0,0,1,42.92,50C46.63,50,47.83,51.09,47.79,52.46Z"/><path class="cls-3" d="M62.75,60.44l1.79-10.11h4.94L67.69,60.44ZM64.81,48c.15-.83,1.46-1.5,2.92-1.5s2.54.67,2.4,1.5-1.46,1.51-2.94,1.51-2.53-.68-2.38-1.51Z"/><path class="cls-3" d="M87,55.79a8.17,8.17,0,0,1-.86.24c-.35.08-1,.19-1.92.34a3.1,3.1,0,0,0-1.33.42,1,1,0,0,0-.43.65.64.64,0,0,0,.27.67,2.22,2.22,0,0,0,1.24.25,4.2,4.2,0,0,0,1.27-.19,3.13,3.13,0,0,0,1-.54,1.63,1.63,0,0,0,.44-.66A9.63,9.63,0,0,0,87,55.79Zm5.32-3.31a13.61,13.61,0,0,1-.25,1.68l-.89,5.06a.94.94,0,0,0,.5,1.05l0,.18H86.52l0-1.29A10.05,10.05,0,0,1,84,60.21a9,9,0,0,1-2.48.31c-1.67,0-2.62-.17-3.28-.75a2.07,2.07,0,0,1-1-1.81,2.69,2.69,0,0,1,.63-1.5,3.74,3.74,0,0,1,1.37-1,7.83,7.83,0,0,1,2.06-.59c.92-.14,2.2-.3,3.9-.44a5.57,5.57,0,0,0,1.7-.37c.36-.14.5-.29.55-.59.09-.51-.07-.81-.76-.95-1.87-.37-5.34.24-7.14.68l1-2.63A46.9,46.9,0,0,1,87.48,50C91.2,50,92.38,51.12,92.35,52.48Z"/><path class="cls-3" d="M32.05,56.81a18.11,18.11,0,0,1-4.09.44c-2.36,0-4.23-1.17-4.13-3.32.07-1.43,1.76-4.45,6.07-4.45a7,7,0,0,1,3.84,1.05L34.37,47a12,12,0,0,0-4.89-.81c-5.64.06-11.07,2.63-11.74,7.85s5.79,6.63,8.66,6.62a48.67,48.67,0,0,0,5-.24Z"/><path class="cls-3" d="M72.2,50.27l.35-2.05,5.17-1.13-.54,3.18h2.53l-.48,2H76.78l-1.5,8.12s-5,0-5,0l1.49-8.12H69.89l.38-2.05Z"/><polygon class="cls-3" points="97.36 60.43 92.33 60.44 94.87 46.34 99.77 46.48 97.36 60.43"/><path class="cls-3" d="M56.21,52.7a2.84,2.84,0,0,0-1.75.59,2.66,2.66,0,0,0-1,1.73,2.25,2.25,0,0,0,.29,1.91,2,2,0,0,0,1.52.58,3,3,0,0,0,1.26-.25,2.51,2.51,0,0,0,1-.83,3.43,3.43,0,0,0,.54-1.33,2,2,0,0,0-.35-1.8A1.91,1.91,0,0,0,56.21,52.7Zm-9,11.23,2.4-13.55H54l-.34,1.73a4.17,4.17,0,0,1,1.81-1.29,7.32,7.32,0,0,1,2.8-.59,5.16,5.16,0,0,1,2.68.5,3.54,3.54,0,0,1,1.75,1.92,5,5,0,0,1,.22,2.75,6,6,0,0,1-2.44,4,6.43,6.43,0,0,1-4.21,1.23,6,6,0,0,1-1.53-.17,3.46,3.46,0,0,1-1-.39,4.69,4.69,0,0,1-.81-.73l-.82,4.64Z"/><path class="cls-3" d="M136.91,53.94a1.21,1.21,0,0,0-1.28-1.35c-2,0-4.18,4-4.55,5.57C134.41,58.16,137,56.17,136.91,53.94Zm.44,6.23.39.27a6.2,6.2,0,0,1-5.37,3.63,3.52,3.52,0,0,1-3.6-3.7C128.61,56,132.67,52,136,52c1.43,0,2.75.62,2.81,2.16.12,3.45-4.71,4.5-7.9,4.57a3.92,3.92,0,0,0-.12,1.27,2.53,2.53,0,0,0,2.7,2.63,5.17,5.17,0,0,0,3.87-2.48Z"/><path class="cls-3" d="M117.53,53.83a10.68,10.68,0,0,1,1.13-.11c.36,0,.7.07.72.43s-.38,1.75-.46,2.11l-.77,3.39c-.31,1.39-.65,2.85-1,4h2l1.12-5.38c3.39-3.54,4.7-4.69,5.5-4.69a.57.57,0,0,1,.63.52v.1a11.3,11.3,0,0,1-.5,2.43l-1.14,3.93a8.15,8.15,0,0,0-.43,2.24,1.19,1.19,0,0,0,1.33,1.25c1.44,0,2.49-1.51,3.41-3l-.27-.49c-.37.6-1.22,1.9-1.89,1.9-.21,0-.42-.14-.42-.5a5.74,5.74,0,0,1,.3-1.6l1.26-4.6a12.1,12.1,0,0,0,.5-2.52,1.19,1.19,0,0,0-1.3-1.26c-1.31,0-3,1-6.7,5.17h0l.46-2.06c.25-1.12.5-2.3.73-3.11a32,32,0,0,1-4.21,1.18Z"/></g><path id="Trademark" class="cls-3" d="M139.11,50.17a1.78,1.78,0,0,1,3.56,0,1.79,1.79,0,0,1-1.77,1.8h0a1.75,1.75,0,0,1-1.78-1.72Zm1.78,1.47a1.47,1.47,0,1,0-1.43-1.49v0a1.42,1.42,0,0,0,1.36,1.47Zm-.37-.45h-.32v-2H141c.48,0,.72.18.72.57a.54.54,0,0,1-.52.56h0l.58.9h-.35l-.54-.88h-.35Zm.36-1.14c.27,0,.5,0,.5-.33s-.23-.3-.45-.3h-.41V50Z"/></svg>