<svg id="Logos" xmlns="http://www.w3.org/2000/svg" width="160" height="100" viewBox="0 0 160 100"><defs><style>.cls-1{fill:none;}.cls-2,.cls-3{fill:#5bbc76;}.cls-2{fill-rule:evenodd;}</style></defs><title>logo-hiringpartner-ecobee</title><rect class="cls-1" width="160" height="100"/><path class="cls-2" d="M60.33,49.69c-.26-2.58-1.77-4.77-4.65-4.77-2.5,0-4.41,2-4.73,4.77Zm-4.24,6.42a6.11,6.11,0,0,0,4.6-2L62,55.29A7.6,7.6,0,0,1,56,58a7.16,7.16,0,0,1-7.27-7.42c0-4.12,3-7.42,7-7.42,4.31,0,6.79,3.35,6.79,7.52,0,.19,0,.42,0,.75H51a5,5,0,0,0,5.12,4.73Zm8.73-5.52v-.05a7.4,7.4,0,0,1,7.45-7.42,7.58,7.58,0,0,1,5.82,2.53l-1.43,1.49A5.91,5.91,0,0,0,72.24,45,5.29,5.29,0,0,0,67,50.49v0a5.36,5.36,0,0,0,5.34,5.52A6,6,0,0,0,76.82,54l1.38,1.26A7.55,7.55,0,0,1,72.27,58a7.37,7.37,0,0,1-7.45-7.36m28,0v-.05A5.43,5.43,0,0,0,87.47,45a5.3,5.3,0,0,0-5.32,5.49v0a5.39,5.39,0,0,0,5.37,5.52,5.31,5.31,0,0,0,5.35-5.47m-13,0v-.05a7.59,7.59,0,0,1,15.18-.07v.06A7.47,7.47,0,0,1,87.47,58a7.35,7.35,0,0,1-7.55-7.36m30.28,0v-.06A5.16,5.16,0,0,0,105.08,45a5.35,5.35,0,0,0-5.26,5.47v0A5.34,5.34,0,0,0,105.08,56c2.8,0,5.12-2,5.12-5.46M99.9,54.9v2.72H97.73v-20H99.9v8.71a6.55,6.55,0,0,1,5.57-3.16,7,7,0,0,1,7,7.36v0a7,7,0,0,1-7,7.4,6.65,6.65,0,0,1-5.57-3m26.55-5.21c-.26-2.58-1.77-4.77-4.65-4.77-2.51,0-4.42,2-4.73,4.77Zm-4.24,6.42a6.08,6.08,0,0,0,4.59-2l1.35,1.19a7.58,7.58,0,0,1-6,2.66,7.15,7.15,0,0,1-7.26-7.42c0-4.12,3-7.42,7-7.42,4.3,0,6.78,3.35,6.78,7.52,0,.19,0,.42,0,.75H117.08a5,5,0,0,0,5.13,4.73Zm20.29-6.42c-.26-2.58-1.77-4.77-4.64-4.77-2.51,0-4.42,2-4.74,4.77Zm-4.25,6.42a6.08,6.08,0,0,0,4.59-2l1.35,1.19a7.58,7.58,0,0,1-6,2.66,7.15,7.15,0,0,1-7.26-7.42c0-4.12,3-7.42,7-7.42,4.31,0,6.79,3.35,6.79,7.52,0,.19,0,.42,0,.75H133.13a5,5,0,0,0,5.12,4.73Z"/><path class="cls-3" d="M25.47,61a4.41,4.41,0,0,1-2.12-.7l-.57.79.57-.79a4,4,0,0,1-1.5-1.65c-.18-.25-.21,0-.21,0-.62,2.22.43,3.19.52,3.27a3.76,3.76,0,0,0,3.43-.73C25.54,61.16,25.78,61,25.47,61Zm4.93-2.49A9,9,0,0,1,25.7,57a8.13,8.13,0,0,1-3.18-3.56c0-.16-.12-.06-.12-.06a2.8,2.8,0,0,0-.5,2.94A6,6,0,0,0,24.23,59a6.48,6.48,0,0,0,3.55,1.06,3.18,3.18,0,0,0,2.74-1.52s.06-.09-.12-.07Zm11.06-3.19a12.68,12.68,0,0,0-2.94-6.55s-.07,0,0-.16.18-.52.18-.52a.09.09,0,0,1,.07-.06,2.78,2.78,0,0,0,1.59-1.06c.65-.91,1.07-2.8-1.16-4.25a.17.17,0,0,1,0-.1,4,4,0,0,0-1.43-2.28A4.53,4.53,0,0,0,35,39.94h-.11a3.28,3.28,0,0,0-4.6.5l0,0a2.52,2.52,0,0,0-.5,1.8.07.07,0,0,1,0,.09l-.44.35c-.12.1-.15,0-.15,0a14.9,14.9,0,0,0-7.53-.19c-3.33.89-4.69,2-5.46,3.09s-1.06,3,1.19,4.45a11,11,0,0,0,5.53,1.31.11.11,0,0,1,.12.07,8.39,8.39,0,0,0,3.59,4.24,9.06,9.06,0,0,0,5.5,1.61.08.08,0,0,1,.1.07A9.7,9.7,0,0,0,35.6,61.7a3.46,3.46,0,0,0,4.85-.62h0c.74-1.07,1.41-2.64,1-5.83ZM38.65,44.12A1.36,1.36,0,0,1,39.11,46l-.06.09a1.57,1.57,0,0,1-2.13.37,1.36,1.36,0,0,1-.45-1.85l.06-.1A1.55,1.55,0,0,1,38.65,44.12Zm-5-3.18a1.35,1.35,0,0,1,.45,1.85l-.06.09a1.55,1.55,0,0,1-2.12.37,1.33,1.33,0,0,1-.35-1.87v0A1.54,1.54,0,0,1,33.69,41Zm-15.8,6.43S17.42,44.86,23.4,44c6.57-.9,6.87,2.12,6.87,2.12s.45,2.28-5.18,3.29S17.7,47.66,17.89,47.37ZM28.63,53a7.57,7.57,0,0,1-2.23-2,11.54,11.54,0,0,0,3-1l.91.61.93.57a9.87,9.87,0,0,0,.11,3A8,8,0,0,1,28.63,53ZM38,60.21c-.2.27-3.57-.22-4.63-5.48S34.77,49,34.77,49s3.06-.83,4.55,5.19C40.64,59.71,38,60.21,38,60.21Z"/></svg>