<svg xmlns="http://www.w3.org/2000/svg" xmlns:xlink="http://www.w3.org/1999/xlink" width="67" height="72" viewBox="0 0 67 72">
    <defs>
        <path id="a" d="M0 71.965h66.983V0H0z"/>
    </defs>
    <g fill="none" fill-rule="evenodd">
        <path fill="#EA593E" d="M26.207 35.92c6.946-3.355 12.542-.305 12.599-.274a.69.69 0 0 0 .99-.82c-.016-.048-1.583-4.812.012-7.843.588-1.117 1.514-1.844 2.833-2.22 2.972-.853 5.03 3.17 5.05 3.21a.69.69 0 0 0 .616.38h3.003a2900.768 2900.768 0 0 1-7.107 3.641.69.69 0 0 0 .286 1.316h.004c.16.1.7.528 2 2.295 1.409 1.909 1.775 3.563 1.092 4.917-1.489 2.946-7.619 4.27-11.497 4.27-5.933 0-8.994-1.03-11.694-1.94-2.008-.674-3.78-1.271-6.257-1.271-.407 0-.835.016-1.284.05-.68.055-1.118.052-1.395.03 1.4-1.228 6.9-3.883 10.749-5.74m-12.383 6.233c.24.89 1.428.983 3.135.852 2.9-.222 4.71.384 6.994 1.153 2.663.896 5.976 2.011 12.135 2.011 4.096 0 10.864-1.338 12.726-5.026.937-1.856.53-3.995-1.243-6.4-.706-.96-1.253-1.618-1.695-2.056 1.185-.605 3.608-1.847 8.6-4.41a.69.69 0 0 0-.314-1.302h-5.449c-.687-1.171-3.004-4.52-6.45-3.539-1.678.48-2.914 1.458-3.676 2.908-1.292 2.456-.88 5.673-.477 7.499-2.231-.81-6.96-1.84-12.598.882-9.533 4.602-12.062 6.044-11.688 7.428"/>
        <mask id="b" fill="#fff">
            <use xlink:href="#a"/>
        </mask>
        <path fill="#EA593E" d="M49.082 34.165H58.5v-1.378h-9.418zM58.796 37.52h-6.938v1.378h6.649v.684h1.26v-1.26h-.971z" mask="url(#b)"/>
        <path fill="#EA593E" d="M49.55 66.236l-16.058 4.302-16.048-4.3L4.563 53.273l-1.059-6.574.907 3.385a.69.69 0 0 0 .178.308l12.01 12.01a.692.692 0 0 0 .31.179l16.405 4.396a.708.708 0 0 0 .357 0l16.404-4.396a.692.692 0 0 0 .309-.18l12.01-12.009a.677.677 0 0 0 .178-.308l1.053-3.93-1.24 7.934L49.55 66.236zM5.694 17.45l.565-.565h.582v-.581l1.924-1.924h.6v-.6l1.934-1.935h.582v-.583l1.924-1.922h.599v-.6l1.935-1.936h.583v-.581l.52-.521 5.782-1.55v.148h1.261v-.485l9.007-2.413 9.893 2.65V4.3h.924l5.231 1.402L61.29 17.45l.862 3.216h-1.129v1.26h1.261v-.764l1.897 7.078h-.634v1.261h.971L65.59 33.5l-1.291 4.822h-.751v1.26h.413l-1.685 6.286h-1.252v1.26h.915l-.649 2.42-11.749 11.75-2.377.636v-.945h-1.26v1.26h.086l-6.384 1.71v-.436h-1.26v.774l-4.853 1.3-3.967-1.062v-1.012h-1.26v.674l-7.27-1.948h.967v-1.26H20.7v1.181l-3.258-.872-11.749-11.75-1.37-5.115v-1.07h-.287L1.394 33.5l.4-1.492H1.8v-.025l2.015-7.522h.508V23.2h-.17l1.54-5.75zm61.275 16.152a.697.697 0 0 0 0-.282l-4.397-16.406a.677.677 0 0 0-.178-.308l-12.01-12.01a.677.677 0 0 0-.309-.178L33.671.023a.712.712 0 0 0-.357 0L16.908 4.42a.677.677 0 0 0-.309.178L4.59 16.607a.69.69 0 0 0-.178.308L.016 33.321a.654.654 0 0 0 0 .287l-.015.001 3.27 20.32L16.73 67.473l16.763 4.492 16.753-4.489 13.428-12.71 3.31-21.16-.014-.003z" mask="url(#b)"/>
        <path fill="#EA593E" d="M61.022 26.967h1.261v-1.26h-1.26zM63.547 34.542h1.26v-1.26h-1.26zM61.022 32.006h1.261v-1.26h-1.26zM61.022 37.048h1.261v-1.26h-1.26zM61.022 42.088h1.261v-1.26h-1.26zM40.863 62.249h1.26v-1.26h-1.26zM38.346 4.301h1.26v-1.26h-1.26zM35.823 62.249h1.26v-1.26h-1.26zM33.306 4.301h1.26v-1.26h-1.26zM33.305 64.783h1.26v-1.26h-1.26zM30.781 62.249h1.261v-1.26h-1.26zM28.265 4.301h1.26v-1.26h-1.26zM25.741 62.249h1.261v-1.26h-1.26zM3.064 29.501h1.26V28.24h-1.26zM3.064 34.542h1.26v-1.26h-1.26zM3.064 39.582h1.26v-1.26h-1.26zM58.507 19.421h1.26v-1.26h-1.26zM55.982 16.887h1.261v-1.26h-1.26zM58.507 24.462h1.26v-1.26h-1.26zM57.244 20.667h-1.206l.339 1.26h.867zM58.507 29.502h1.26v-1.26h-1.26zM59.476 33.5l-.279 1.042h.57v-1.261h-.35zM58.507 44.622h1.26v-1.26h-1.26zM57.244 42.087v-.253l-.068.253zM58.507 49.662h1.26v-1.26h-1.26zM55.996 46.492l-.013.012v.623h1.26v-1.26h-1.08zM55.984 52.168h1.26v-1.26h-1.26zM53.466 14.381h1.26v-1.26h-1.26zM50.942 11.845h1.261v-1.26h-1.26zM54.726 18.16H53.65l1.076 1.078zM52.203 15.626h-1.088l1.088 1.09zM53.466 49.021v.641h1.26v-1.26h-.64zM53.466 54.703h1.26v-1.26h-1.26zM50.943 51.544v.624h1.26v-1.26h-.623zM50.942 57.208h1.261v-1.26h-1.26zM48.426 9.341h1.26v-1.26h-1.26zM45.902 6.805h1.262v-1.26h-1.262zM49.686 13.12h-1.077l1.077 1.078zM47.163 11.675v-1.089h-1.261v.254l.582.156zM48.426 54.062v.64h1.26v-1.26h-.641zM48.426 59.743h1.26v-1.26h-1.26zM43.386 9.341h1.26v-1.26h-1.26zM40.861 6.805h1.261v-1.26h-1.26zM43.386 59.743h1.26v-1.26h-1.26zM39.605 8.08h-1.26v.736l1.26.338zM35.821 6.805h1.261v-1.26h-1.26zM30.781 6.805h1.261v-1.26h-1.26zM29.525 8.08h-1.26v.835l1.26-.337zM25.741 6.805h1.261v-1.26h-1.26zM23.225 9.341h1.26v-1.26h-1.26zM20.701 6.805h1.261v-1.26h-1.26zM21.962 10.586H20.7v.356l1.26-.338zM23.225 59.743h1.26v-1.26h-1.26zM18.185 9.341h1.26v-1.26h-1.26zM18.185 13.12v.19l.19-.19zM15.66 11.845h1.261v-1.26h-1.26zM15.661 15.626v.207l.208-.207zM18.185 59.743h1.26v-1.26h-1.26zM15.661 57.208h1.261v-1.26h-1.26zM13.145 14.381h1.26v-1.26h-1.26zM13.144 18.16v.19l.19-.19zM10.62 16.887h1.261v-1.26h-1.26zM13.145 54.703h1.26v-1.26h-1.26zM10.622 52.168h1.26v-1.26h-1.26zM8.104 19.421h1.26v-1.26h-1.26zM5.58 21.927h1.261v-1.26h-1.26zM5.58 26.967h1.261v-1.26h-1.26zM5.58 32.006h1.261v-1.26h-1.26zM5.58 37.048h1.261v-1.26h-1.26zM8.104 44.622h1.26v-1.26h-1.26zM5.58 42.088h1.261v-1.26h-1.26zM8.104 49.662h1.26v-1.26h-1.26zM5.58 47.128h1.261v-1.26h-1.26z" mask="url(#b)"/>
        <path fill="#EA593E" d="M8.104 38.388v1.195h.32l1.947 7.265.25.251v.029h.03l2.493 2.494v.04h.041l2.475 2.478v.028h.03l2.494 2.494v.04h.041l1.917 1.919.56.15v.437h1.26v-.1l6.303 1.689v.947h1.26v-.61l3.966 1.063 4.854-1.3v.847h1.26v-1.186l6.298-1.686v.336h1.26v-1.26h-.623l-.056.055-.179-.665-12.814 3.433-12.635-3.386-9.25-9.25-1.94-7.236h2.935V37.52H9.298l-.9-3.356h11.247v-1.378H8.413l3.241-12.102-1.331-.357-.96 3.58V23.2H8.105v1.261h1.112l-1.013 3.78h-.099v.371l-1.31 4.889z" mask="url(#b)"/>
    </g>
</svg>
