<svg xmlns="http://www.w3.org/2000/svg" xmlns:xlink="http://www.w3.org/1999/xlink" width="307" height="43" preserveAspectRatio="none" viewBox="0 0 307 43">
    <defs>
        <path id="a" d="M0 0h307v52H0z"/>
        <path id="c" d="M0 0h1224v42.74H0z"/>
    </defs>
    <g fill="none" fill-rule="evenodd">
        <mask id="b" fill="#fff">
            <use xlink:href="#a"/>
        </mask>
        <g mask="url(#b)">
            <g transform="translate(-120)">
                <mask id="d" fill="#fff">
                    <use xlink:href="#c"/>
                </mask>
                <path fill="#FAEFE8" d="M0 0v4.24c2.121-.082 4.3-.198 6.56-.374 1.898 3.16 14.93.416 13.095 5.555 3.458.15 7.018-.196 10.47 0 2.502.141 1.863 1.308 2.62 1.388 2.506.266 2.428-1.4 2.618-1.388 6.824.382 11.525 2.637 20.952 1.388 2.664-.354 1.273-1.06 2.619-1.388.945-.232 4.62.4 5.237 0 .144-.094-.159-1.377 0-1.389 3.074-.23 8.184 1.18 13.09 1.39 4.338.183 8.751-.141 13.095 0 4.68-.391 5.37 1.311 2.619 1.387.644 1.509 5.207.942 5.237 2.777 8.5.804 12.178-.947 18.328-1.388 1.52 1.288 7.866 3.5 13.094 4.165 5.7.724 14.031-1.573 20.947 0 1.19.268 2.076 2.067 2.619 2.776h2.618c-.844-.845 5.985-3.99 7.856-2.776.165.103 3.76 2.345 5.24 1.387.131-.085-.134-1.381 0-1.387 1.563-.073 4.756 1.283 7.855 1.387 3.003.102 4.691.045 5.239 1.389 9.867-1.067 12.516 1.693 20.946 1.388 4.389-3.452 13.038-.362 18.333 0 7.338.5 14.474.311 20.946 1.389.899.148 4.695-.354 5.237 0 .4.256-.445 1.162 0 1.386.45.232 2.179-.232 2.619 0 .348.185-.405 1.26 0 1.389 1.269.412 3.856-.314 5.238 0 .486.112 1.084 1.063 2.62 1.389 2.254.48 5.523-.383 7.855 0h2.62V24.69c8.619-.056 13.032-2.343 23.564-1.389h2.62c3.734-4.223 22.704-3.7 23.563 1.389 5.403.84 18.196-2.24 15.715 2.777 9.002-.607 14.674.55 20.945 1.389 2.384 4.29 13.895 3.741 13.095 9.718h5.239c2.23-.256 2.47.54 2.619 1.388 5.498-.84 6.9 1.284 10.476 1.389 8.726.252 18.168-3.697 20.945 1.387 5.212-1.865 12.467-2.646 18.333-4.164 10.21.095 18.429-.133 26.184 0 4.66.08 5.565 1.574 10.476 1.388 2.399-.091 3.965-1.567 7.856-1.388-.838-.039 1.75 1.273 2.619 1.388 1.642.219 3.57-.167 5.233 0 2.061 1.33 13.044-1.73 15.713 0 .124.077-.102 1.387 0 1.389 5.485.074 9.657-3.061 15.714 0 6.747-1.515 12.584-3.508 15.71-6.941 6.505.207 10.867-.72 13.094-2.777 9.88 1.7 17.411 4.652 31.42 4.164.293 2.623 8.66.963 7.857 4.165 6.527-1.168 14.031-1.817 23.566-1.388-2.256 4.898 4.214 1.273 10.476 1.388 3.646.066 5.211 1.658 7.856 1.389 7.607-.779 14.496-2.11 13.095-5.554 3.043-.226 4.659.307 5.238 1.389 4.731-1.212 3.17-1.81 10.47-2.776 1.483-.2 2.763-1.399 2.618-1.389 5.137-.338 9.986 3.322 10.476-2.777 2.548.038 2.031 1.7 2.619 2.777 3.043-.226 4.66.307 5.239 1.389 4.23.39 4.505-1.314 7.856-1.389 4.589-1.27 13.064-.477 15.709-2.777 3.893 1.64 11.703 1.201 10.475 5.553 18.02-.3 31.633 1.74 44.516 4.165.809-1.884 6.558-1.152 10.476-1.388.323-3.067 11.105-.59 15.709-1.388 2.061 1.33 13.044-1.73 15.713 0 2.654 1.72 1.97.538 7.858-1.389 1.733-.568 3.38-.761 5.237-1.387.527-.18 2.184.228 2.615 0 .244-.13-.287-1.336 0-1.389 4.03-.743 4.674 1.619 7.855 1.389 3.279-.24 4.471-2.233 7.857-2.777 6.527-1.051 13.642.821 20.952-1.389 2.444-1.018 3.964-2.525 5.232-4.166 8.225 3.666 18.159-.652 23.57-2.777 7.581.454 8.63.818 18.328 1.389 5.54.327 9.416 1.698 13.095 1.389 3.498-.293 4.077-2.593 7.855-2.778 3.438-1.067 20.235-6.32 20.947 0h10.475c-2.07 4.804 2.912 5.863 5.238 8.332 11.909-1.513 15.284-7.005 28.804-4.166 7.739-2.438 20.561-4.488 20.95 2.777 4.614.397 8.109-6.537 10.477-2.777 6.153-2.02 12.475 3.314 20.946 1.389 1.156-.264-.306-1.505 2.619-1.389 4.358.175 5.013.559 5.238 2.777 3.54-1.364 5.232-3.704 7.856-5.554 14.272-.625 21.514 2.476 36.66 1.389 3.918 2.086 4.682 5.847 10.473 6.942 3.77.777 6.389 2.165 7.856 4.165 6.494-.206 12.707-.26 13.093 2.776 2.842-.343 1.775-2.76 5.235-2.776h10.476c3.917-1.627 10.71-1.727 13.092-4.165 2.12.263 2.61 1.392 5.238 1.389 4.982.954 12.258.946 15.71 2.776 1.602.848-.334 1.021 2.62 1.388 3.979.494 10.114-.954 10.472 1.388 5.225-1.858 11.354-3.237 13.095-6.94 2.153-.712 8.73.924 10.473 0 .18-.096-.19-1.37 0-1.39 1.614-.154 13.947 1.145 15.714 0 .116-.075-.1-1.388 0-1.388 1.744-.012 3.064 1.174 5.236 1.389 1.158.113 2.94.117 5.034.087V0H0z" mask="url(#d)"/>
            </g>
        </g>
    </g>
</svg>
