<svg xmlns="http://www.w3.org/2000/svg" xmlns:xlink="http://www.w3.org/1999/xlink" width="68" height="66" viewBox="0 0 68 66">
    <defs>
        <path id="a" d="M.047.825H33.54v28.949H.047z"/>
        <path id="c" d="M0 66.822h67.304V1.353H0z"/>
    </defs>
    <g fill="none" fill-rule="evenodd" transform="translate(0 -1)">
        <g transform="translate(33.763 .528)">
            <mask id="b" fill="#fff">
                <use xlink:href="#a"/>
            </mask>
            <path fill="#E69C2E" d="M30.018 14.859L16.792 28.14 3.565 14.858C.674 11.962.673 7.25 3.561 4.353a7.389 7.389 0 0 1 5.244-2.172 7.38 7.38 0 0 1 5.242 2.17l2.269 2.271c.262.264.69.264.953 0l2.269-2.271a7.356 7.356 0 0 1 5.24-2.175h.003a7.361 7.361 0 0 1 5.241 2.177 7.386 7.386 0 0 1 2.17 5.254 7.389 7.389 0 0 1-2.174 5.252m.959-11.46A8.7 8.7 0 0 0 24.782.824h-.004c-2.34 0-4.54.913-6.195 2.57l-1.79 1.794L15 3.394C11.583-.027 6.023-.025 2.606 3.398c-3.415 3.426-3.412 8.995.006 12.415l13.702 13.762a.675.675 0 0 0 .956 0l13.703-13.76a8.733 8.733 0 0 0 2.568-6.208c0-2.345-.91-4.55-2.564-6.209" mask="url(#b)"/>
        </g>
        <path fill="#E69C2E" d="M61.558 63.798l1.383-1.387v-.001l.219-.22.004-.003.004.004.197-.198v1.805h-1.807zm-23.83-1.475l.138-.136.004.004.387-.39 4.445-4.458v-.001l.223-.224.005.003.386-.388 4.445-4.46.224-.225.004.005.388-.39 4.444-4.459v-.001l.223-.223.004.004.388-.389 4.444-4.459v-.001l.225-.224.004.004.386-.388 3.4-3.41h1.47v2.402l-.424.424-.372.372-.21.212-4.47 4.477-.009.008-.18.181-.191.191-.21.211-4.47 4.479-.008.008-.582.581-4.478 4.487-.37.372-.21.21-4.47 4.478-.01.01-.181.18-.19.19-.21.211-1.993 1.997h-2.399v-1.475zm2.737-24.207l-2.737 2.741v-2.74h2.737zm2.237 2.827l-.371.372v.001l-.211.211-4.392 4.399v-3.878l.134-.133.004-.004.004.004.387-.388 3.4-3.41h3.868l-2.823 2.826zm5.059 0l-.37.372-.21.212-4.47 4.477-.01.008-.181.181-.19.191-.21.211-4.392 4.4v-3.877l.138-.138.004.004.387-.389 4.445-4.459v-.001l.223-.224.005.004.386-.388 3.4-3.41h3.869l-2.824 2.826zm5.06 0l-.371.372-.21.212-4.47 4.477-.009.008-.37.372-.21.211-4.47 4.479-.01.008-.37.37-.211.211-4.392 4.4v-3.877l.138-.138.004.005.387-.39 4.445-4.459v-.001l.223-.223.005.004.386-.389 4.445-4.459v-.001l.224-.224.004.004.388-.388 3.4-3.41h3.867l-2.815 2.819-.008.007zm4.688.372v.001l-.21.211-4.47 4.477-.008.008-.371.372-.21.211-4.479 4.487-.181.18-.4.401-4.478 4.487-.371.372-.211.21-4.392 4.4v-3.877l.134-.134.004-.003.004.003.387-.388 4.445-4.46.219-.22.004-.005.005.005.386-.39 4.445-4.459v-.001l.22-.22.004-.003.004.004.388-.389 4.444-4.459v-.001l.22-.22.003-.004.004.004.388-.388 3.4-3.41h3.868l-2.824 2.826-.371.372zm5.44 4.69l-.008.007-.372.372-.21.211-4.47 4.479-.009.008-.371.37-.21.211-4.47 4.479-.008.008-.371.372-.21.21-4.47 4.478-.009.01-.37.37-.21.211-1.994 1.997h-3.868l1.383-1.387v-.001l.223-.223.005.004.386-.39 4.445-4.458v-.001l.224-.224.004.003.388-.388 4.444-4.46.223-.225.004.005.388-.39 4.444-4.459v-.001l.225-.223.004.004.386-.389 4.446-4.459v-.001l.223-.224.004.004.197-.197v3.87l-.416.416zm-.008 5.077l-.181.18-.401.401-4.479 4.487-.371.372-.21.21-4.47 4.478-.008.01-.371.37-.21.211-1.993 1.997H46.38l1.382-1.387v-.001l.22-.22.004-.003.004.004.388-.39 4.444-4.458v-.001l.22-.22.003-.004.004.003.388-.388 4.444-4.46.22-.22.005-.005.004.005.386-.39 4.446-4.459v-.001l.219-.22.004-.003.004.004.197-.197v3.87l-.424.425zm0 5.068l-.372.372-.21.21-4.47 4.478-.009.01-.18.18-.191.19-.21.211-1.993 1.997h-3.868l1.383-1.387v-.001l.223-.223.004.004.388-.39 4.444-4.458v-.001l.225-.224.004.003.386-.388 4.446-4.46.223-.225.004.005.197-.197v3.869l-.424.425zm.008 5.06l-.008.01-.372.37-.21.211-1.992 1.997h-3.868l1.381-1.387v-.001l.225-.223.004.004.386-.39 4.446-4.458v-.001l.223-.224.004.003.197-.196v3.87l-.416.415zm1.09-24.445H37.054a.675.675 0 0 0-.675.675v27.034c0 .372.302.676.675.676H64.04a.675.675 0 0 0 .674-.676V37.44a.674.674 0 0 0-.674-.675zM30.474 29.085v-.331l.192.331h-.192zM2.646 27.692V29.086h-.803l.803-1.394zm7.59.604V14.518l2.529-4.39V29.086h-2.53v-.79zm-3.374 0v-7.922l2.53-4.392v13.104h-2.53v-.79zM3.49 26.23l2.53-4.391v7.248H3.49v-2.857zM16.139 4.274V29.086h-2.53V8.663l2.53-4.39zm7.588 24.022V17.051l2.53 4.389v7.646h-2.53v-.79zm-3.372 0V11.2l2.53 4.388V29.086h-2.53v-.79zm-3.374-3.378V5.348l2.53 4.389V29.086h-2.53v-4.168zm12.65 4.167H27.1v-6.183l2.53 4.39v1.794zM16.833 2.39c-.24-.419-.926-.419-1.168 0L.09 29.423a.677.677 0 0 0 .585 1.014h31.16c.24 0 .462-.129.583-.338a.67.67 0 0 0 0-.676L16.834 2.39z"/>
        <mask id="d" fill="#fff">
            <use xlink:href="#c"/>
        </mask>
        <path fill="#E69C2E" d="M22.609 40.29h1.232v-1.233h-1.232zM17.685 40.29h1.232v-1.233h-1.232zM15.222 37.799h1.231v-1.234h-1.231zM10.296 42.733h1.232v-1.234h-1.232zM12.76 40.29h1.23v-1.233h-1.23zM5.372 57.534h1.232V56.3H5.372zM5.372 52.6h1.232v-1.233H5.372zM5.372 47.666h1.232v-1.233H5.372zM7.834 45.224h1.232V43.99H7.834zM5.372 42.733h1.232v-1.234H5.372zM2.91 55.09h1.232v-1.233H2.91zM2.91 50.158h1.232v-1.234H2.91z" mask="url(#d)"/>
        <path fill="#E69C2E" d="M16.25 65.47c-2.356 0-4.575-.577-6.542-1.58-3.603-7.054-.886-15.75 6.127-19.462a14.562 14.562 0 0 1 6.742-1.683c2.301.006 4.551.558 6.58 1.6a14.433 14.433 0 0 1 1.597 6.595c0 8.012-6.507 14.53-14.504 14.53zM25.07 41.5v.1a15.738 15.738 0 0 0-2.485-.206c-.004 0-.01-.002-.013 0-.553.001-1.102.046-1.65.105h-.776v.112c-1.27.202-2.509.557-3.693 1.057V41.5h-1.232v1.233h1.088c-.37.162-.748.312-1.104.502-.445.234-.871.487-1.282.756H12.76v.841a15.673 15.673 0 0 0-1.714 1.602h-.75v.865a15.924 15.924 0 0 0-1.23 1.738v-.112H7.835v1.234h.62c-1.898 3.8-2.264 8.31-.764 12.486l-.155-.115a14.482 14.482 0 0 1-.891-.732l-.042-.036v-.528h-.554c-.16-.158-.316-.318-.467-.483-.145-.157-.294-.311-.432-.475-.205-.245-.393-.502-.582-.76-.145-.198-.292-.391-.427-.597v-.127h-.077l-.01-.016a14.647 14.647 0 0 1-.583-.972 15.659 15.659 0 0 1-.456-.947c-.048-.108-.103-.213-.149-.322a15.288 15.288 0 0 1-.423-1.155c-.016-.051-.036-.103-.052-.154a14.495 14.495 0 0 1-.646-4.285c0-2.03.42-3.96 1.174-5.716H4.14V43.99h-.625a14.644 14.644 0 0 1 4.319-4.863v1.164h1.231v-1.234H7.93a14.406 14.406 0 0 1 2.368-1.353v.095h1.231v-.583a14.375 14.375 0 0 1 4.722-.807c1.352 0 2.655.2 3.897.548v.842h1.23v-.434c.123.046.248.085.368.135.108.043.215.09.321.138.354.155.705.322 1.046.505.06.033.118.071.18.104a14.593 14.593 0 0 1 3.088 2.312c.05.05.103.095.152.145.246.247.476.51.703.775.128.149.254.299.375.454.1.125.193.258.29.387a15.63 15.63 0 0 0-1.597-.47v-.35H25.07zm5.193 2.02c-.01-.021-.026-.04-.036-.062-.117-.216-.249-.423-.376-.634-4.265-7.22-13.497-9.924-20.996-5.976C1.988 40.46-1.126 48.444 1.1 55.613c.021.074.05.143.074.218.134.408.277.816.446 1.216.055.134.121.261.18.393.129.285.246.572.395.853.021.044.051.079.074.12.315.59.673 1.15 1.055 1.69.119.168.243.33.367.492.39.507.801.995 1.247 1.453.042.042.08.089.123.13.509.51 1.063.97 1.636 1.407.087.065.172.13.261.194a15.725 15.725 0 0 0 9.292 3.043c8.742 0 15.853-7.126 15.853-15.882 0-2.67-.668-5.186-1.835-7.398-.004-.007-.001-.015-.004-.022z" mask="url(#d)"/>
    </g>
</svg>
