<svg xmlns="http://www.w3.org/2000/svg" xmlns:xlink="http://www.w3.org/1999/xlink" width="142" height="27" viewBox="0 0 142 27">
    <defs>
        <path id="a" d="M0 .567h142v26H0z"/>
    </defs>
    <g fill="none" fill-rule="evenodd">
        <mask id="b" fill="#fff">
            <use xlink:href="#a"/>
        </mask>
        <path fill="#EA593E" d="M140.928 10.812h-9.39a.263.263 0 0 1-.251-.182l-.688-2.123h-.288V7.96h.112l-.883-2.728h-.317v-.546h.14l-.888-2.74h-.18l-.888 2.74h.181v.546h-.358l-.883 2.728h.15v.547h-.327l-.687 2.123a.263.263 0 0 1-.25.182h-9.391l.596.435h.256v.186l4.901 3.574v-.486h.545v.547h-.463l1.009.735v-.182h.545v.547h-.045l.254.185c.092.067.13.186.095.294l-.375 1.16h.07v.547h-.247l-.883 2.728h.04v.546h-.217l-.887 2.74h.016v.547h-.194l-.225.697 3.141-2.29v-.054h.073l1.018-.742v-.344h.472l.759-.554h-.143v-.546h.545v.254l1.089-.795h-.543v-.547h.544v.546l.642-.469a.265.265 0 0 1 .31 0l1.77 1.293v-.282h.546v.546h-.182l.758.554h.514v.374l.977.712h.111v.081l3.103 2.263-.226-.697h-.152v-.47l-.912-2.817h-.179v-.546h.002l-.883-2.728h-.207v-.546h.03l-.375-1.16a.264.264 0 0 1 .095-.295l.255-.185h-.005v-.547h.545v.152l.968-.705h-.425v-.547h.545v.459l4.904-3.576v-.157h.215l.596-.435zm.964-.05l-8.098 5.905 3.093 9.554a.264.264 0 0 1-.095.295.261.261 0 0 1-.31 0l-8.097-5.905-8.098 5.905a.26.26 0 0 1-.308 0 .264.264 0 0 1-.096-.295l3.093-9.554-8.098-5.906a.264.264 0 0 1 .155-.477h10.009L128.135.73c.07-.217.43-.217.5 0l3.093 9.554h10.01a.263.263 0 0 1 .154.477zm-23.564 1.031h.545v-.546h-.545v.546zm1.088 1.087h.545v-.547h-.545v.547zm1.09 1.1h.545v-.547h-.544v.547zm0-2.187h.545v-.546h-.544v.546zm1.09 12.022h.544v-.547h-.545v.547zm1.09-1.087h.545v-.547h-.545v.547zm0-2.187h.545v-.547h-.545v.547zm-1.09-7.66h.544v-.548h-.545v.547zm1.09 1.1h.545v-.548h-.545v.547zm0-2.188h.545v-.546h-.545v.546zm1.088 9.835h.545v-.546h-.545v.546zm0-2.186h.545v-.547h-.545v.547zm1.09 1.1h.546v-.548h-.545v.547zm-1.09-3.288h.545v-.546h-.545v.546zm1.09 1.1h.546v-.546h-.545v.546zm-1.09-3.286h.545v-.547h-.545v.547zm1.09 1.1h.546v-.547h-.545v.547zm-1.09-3.288h.545v-.547h-.545v.547zm1.09 1.1h.546v-.547h-.545v.547zm0-2.187h.546v-.546h-.545v.546zm1.089 7.649h.545v-.547h-.545v.547zm0-2.188h.545v-.546h-.545v.546zm1.091 1.1h.545v-.546h-.545v.546zm-1.091-3.286h.545v-.547h-.545v.547zm1.091 1.1h.545v-.547h-.545v.547zm-1.091-3.288h.545v-.547h-.545v.547zm1.091 1.1h.545v-.547h-.545v.547zm-1.091-3.287h.545v-.546h-.545v.546zm1.091 1.1h.545v-.546h-.545v.546zm0-2.186h.545V9.06h-.545v.547zm0-2.188h.545v-.547h-.545v.547zm1.088 12.023h.544v-.547h-.544v.547zm1.09 1.1h.546v-.548h-.545v.547zm-1.09-3.288h.544v-.546h-.544v.546zm1.09 1.1h.546v-.546h-.545v.546zm-1.09-3.286h.544v-.547h-.544v.547zm1.09 1.1h.546v-.547h-.545v.547zm-1.09-3.288h.544v-.547h-.544v.547zm1.09 1.1h.546v-.547h-.545v.547zm-1.09-3.287h.544v-.546h-.544v.546zm1.09 1.1h.546v-.546h-.545v.546zm-1.09-3.286h.544V7.96h-.544v.547zm1.09 1.1h.546V9.06h-.545v.547zm-1.09-3.287h.544v-.547h-.544v.547zm1.09 1.1h.546v-.548h-.545v.547zm-1.09-3.287h.544v-.547h-.544v.547zm2.179 15.309h.545v-.547h-.545v.547zm1.09 1.1h.545v-.548h-.545v.547zm-1.09-3.288h.545v-.546h-.545v.546zm1.09 1.1h.545v-.546h-.545v.546zm-1.09-3.286h.545v-.547h-.545v.547zm1.09 1.1h.545v-.547h-.545v.547zm-1.09-3.288h.545v-.547h-.545v.547zm1.09 1.1h.545v-.547h-.545v.547zm-1.09-3.287h.545v-.546h-.545v.546zm1.09 1.1h.545v-.546h-.545v.546zm1.089 9.835h.544v-.546h-.544v.546zm1.09 1.1h.545v-.546h-.545v.546zm-1.09-3.286h.544v-.547h-.544v.547zm1.09 1.1h.545v-.548h-.545v.547zm-1.09-3.288h.544v-.546h-.544v.546zm0-2.186h.544v-.547h-.544v.547zm0-2.187h.544v-.547h-.544v.547zm1.09 1.1h.545v-.548h-.545v.547zm0-2.188h.545v-.546h-.545v.546zm1.088 12.022h.545v-.547h-.545v.547zm0-10.934h.545v-.547h-.545v.547zm1.092 1.1h.544v-.548h-.544v.547zm0-2.188h.544v-.546h-.544v.546zm1.087 1.088h.545v-.547h-.545v.547zm1.091-1.088h.545v-.546h-.545v.546zm-25.703-.98h-9.39c-.087 0-.156-.052-.204-.12h-.224v-.546h.021l-.883-2.728h-.226v-.546h.049l-.887-2.74h-.253v-.547h.076l-.621-1.92-.27.833h.272v.547h-.449l-.883 2.727h.241v.547h-.418l-.887 2.74h.216v.547h-.393l-.331 1.023a.263.263 0 0 1-.25.182H87.15l1.105.806v-.371h.545v.546h-.305l.849.619v-.078h.544v.475l.857.624h.234v.172l3.768 2.748c.092.067.131.186.096.294l-.728 2.248h.13v.547h-.307l-.887 2.74h.107v.546h-.284l-.883 2.728h.076v.064l.83-.605h-.284v-.547h.545v.356l4.901-3.574v-.068h.094l.997-.727v-.36h.545v.027c.053 0 .106.016.152.05l4.749 3.462v-.266h.544v.547h-.16l.76.553h.49v.359l1 .729h.089v.065l.126.091-.582-1.797h-.088v-.273l-.972-3h-.116v-.36l-.948-2.928h-.143v-.443l-.053-.164a.264.264 0 0 1 .095-.294l2.137-1.558v-.274h.375l.741-.54h-.026v-.548h.545v.169l.99-.722h-.447v-.546h.545v.474l2.737-1.996zm1.06-.346a.263.263 0 0 1-.096.294l-8.097 5.906 3.093 9.554a.264.264 0 0 1-.096.295.261.261 0 0 1-.309 0l-8.097-5.905-8.098 5.905a.26.26 0 0 1-.309 0 .264.264 0 0 1-.095-.295l3.092-9.554-8.097-5.906a.264.264 0 0 1 .154-.477h10.01L99.441.73c.07-.217.43-.217.5 0l3.094 9.554h10.009c.113 0 .214.074.25.183zm-22.86 1.326h.544v-.546h-.545v.546zm1.087 1.087h.545v-.547h-.545v.547zm1.091 1.1h.545v-.547h-.545v.547zm0-2.187h.545v-.546h-.545v.546zm1.088 12.022h.545v-.547H93.7v.547zm0-2.187h.545v-.546H93.7v.546zm1.09 1.1h.546v-.547h-.545v.547zm0-2.187h.546v-.547h-.545v.547zm0-2.187h.546v-.546h-.545v.546zm-1.09-3.286h.545v-.547H93.7v.547zm1.09 1.1h.546v-.547h-.545v.547zm-1.09-3.288h.545v-.547H93.7v.547zm1.09 1.1h.546v-.547h-.545v.547zm0-2.187h.546v-.546h-.545v.546zm1.089 9.835h.545v-.546h-.545v.546zm0-2.186h.545v-.547h-.545v.547zm1.091 1.1h.545v-.548h-.545v.547zm-1.091-3.288h.545v-.546h-.545v.546zm1.091 1.1h.545v-.546h-.545v.546zm-1.091-3.286h.545v-.547h-.545v.547zm1.091 1.1h.545v-.547h-.545v.547zM95.88 12.88h.545v-.547h-.545v.547zm1.091 1.1h.545v-.547h-.545v.547zm0-2.187h.545v-.546h-.545v.546zm1.088 7.649h.545v-.547h-.545v.547zm0-2.188h.545v-.546h-.545v.546zm1.09 1.1h.546v-.546h-.545v.546zm-1.09-3.286h.545v-.547h-.545v.547zm1.09 1.1h.546v-.547h-.545v.547zm-1.09-3.288h.545v-.547h-.545v.547zm1.09 1.1h.546v-.547h-.545v.547zm-1.09-3.287h.545v-.546h-.545v.546zm1.09 1.1h.546v-.546h-.545v.546zm-1.09-3.286h.545V7.96h-.545v.547zm1.09 1.1h.546V9.06h-.545v.547zm0-2.188h.546v-.547h-.545v.547zm0-2.187h.546v-.546h-.545v.546zm1.089 14.21h.545v-.547h-.545v.547zm1.09 1.1h.545v-.548h-.544v.547zm-1.09-3.288h.545v-.546h-.545v.546zm1.09 1.1h.545v-.546h-.544v.546zm-1.09-3.286h.545v-.547h-.545v.547zm1.09 1.1h.545v-.547h-.544v.547zm-1.09-3.288h.545v-.547h-.545v.547zm1.09 1.1h.545v-.547h-.544v.547zm-1.09-3.287h.545v-.546h-.545v.546zm1.09 1.1h.545v-.546h-.544v.546zm-1.09-3.286h.545V7.96h-.545v.547zm1.09 1.1h.545V9.06h-.544v.547zm-1.09-3.287h.545v-.547h-.545v.547zm2.179 15.308h.544v-.546h-.544v.546zm1.09 1.1h.545v-.546h-.545v.546zm-1.09-3.286h.544v-.547h-.544v.547zm1.09 1.1h.545v-.548h-.545v.547zm-1.09-3.288h.544v-.546h-.544v.546zm1.09 1.1h.545v-.546h-.545v.546zm-1.09-3.286h.544v-.547h-.544v.547zm1.09 1.1h.545v-.547h-.545v.547zm-1.09-3.288h.544v-.547h-.544v.547zm1.09 1.1h.545v-.547h-.545v.547zm0-2.187h.545v-.546h-.545v.546zm1.088 9.835h.545v-.546h-.545v.546zm1.091 1.1h.545v-.546h-.545v.546zm-1.09-3.286h.544v-.547h-.545v.547zm0-4.374h.544v-.547h-.545v.547zm0-2.187h.544v-.547h-.545v.547zm1.09 1.1h.545v-.548h-.545v.547zm0-2.188h.545v-.546h-.545v.546zm1.088 1.088h.545v-.547h-.545v.547zm1.091-1.088h.545v-.546h-.545v.546zm2.18 0h.544v-.546h-.545v.546zm-26.502-.98h-9.391a.263.263 0 0 1-.25-.183l-.331-1.023h-.136v-.42l-.928-2.867h-.163v-.503l-.897-2.771h-.191v-.547h.013L71 1.666l-.621 1.92h.33v.547h-.508l-.886 2.74h.307v.546h-.485l-.883 2.728h.277v.546h-.479c-.048.068-.117.12-.204.12h-9.39l4.082 2.977v-.357h.545v.547h-.283l.826.604v-.063h.545v.46l.878.64h.213v.155l.79.577c.093.067.132.186.096.294l-.02.06h.222v.547h-.398l-.887 2.74h.197v.547h-.374l-.883 2.727h.166v.547h-.343l-.581 1.797 1.47-1.073v-.17h.234l.854-.623v-.478h.545v.08l.85-.62h-.304v-.546h.545v.371l3.403-2.482a.265.265 0 0 1 .309 0l.1.075v-.152h.546v.547h-.003l.741.54h.35v.255l4.903 3.576v-.544h.545v.547h-.54l.955.697-.933-2.884h-.027v-.08l-1.038-3.206h-.052v-.163l-.852-2.632a.265.265 0 0 1 .096-.294l5.113-3.73v-.29h.397l.742-.54h-.048v-.546h.545v.184l.848-.619zm1.06-.346a.263.263 0 0 1-.097.294l-8.097 5.906 3.093 9.554a.264.264 0 0 1-.095.295.261.261 0 0 1-.31 0L71 20.611l-8.098 5.905a.262.262 0 0 1-.309 0 .264.264 0 0 1-.095-.295l3.093-9.554-8.098-5.906a.264.264 0 0 1 .155-.477h10.009L70.75.73c.07-.217.43-.217.5 0l3.093 9.554h10.009c.114 0 .215.074.25.183zM60.36 11.793h.545v-.546h-.545v.546zm1.088 1.087h.545v-.547h-.545v.547zm1.091-1.087h.545v-.546h-.545v.546zm2.179 10.935h.545v-.547h-.545v.547zm-1.09-9.848h.544v-.547h-.545v.547zm1.09 1.1h.545v-.547h-.545v.547zm0-2.187h.545v-.546h-.545v.546zm1.088 9.835h.545v-.546h-.545v.546zm0-2.186h.545v-.547h-.545v.547zm1.091 1.1h.545v-.548h-.545v.547zm0-2.188h.545v-.546h-.545v.546zm-1.09-3.286h.544v-.547h-.545v.547zm1.09 1.1h.545v-.547h-.545v.547zm-1.09-3.288h.544v-.547h-.545v.547zm1.09 1.1h.545v-.547h-.545v.547zm0-2.187h.545v-.546h-.545v.546zm1.088 9.835h.545v-.546h-.545v.546zm0-2.186h.545v-.547h-.545v.547zm1.09 1.1h.546v-.548h-.545v.547zm-1.09-3.288h.545v-.546h-.545v.546zm1.09 1.1h.546v-.546h-.545v.546zm-1.09-3.286h.545v-.547h-.545v.547zm1.09 1.1h.546v-.547h-.545v.547zm-1.09-3.288h.545v-.547h-.545v.547zm1.09 1.1h.546v-.547h-.545v.547zm0-2.187h.546v-.546h-.545v.546zm0-2.186h.546V9.06h-.545v.547zm1.089 9.835h.545v-.547h-.545v.547zm0-2.188h.545v-.546h-.545v.546zm1.09 1.1h.546v-.546h-.545v.546zm-1.09-3.286h.545v-.547h-.545v.547zm1.09 1.1h.546v-.547h-.545v.547zm-1.09-3.288h.545v-.547h-.545v.547zm1.09 1.1h.546v-.547h-.545v.547zm-1.09-3.287h.545v-.546h-.545v.546zm1.09 1.1h.546v-.546h-.545v.546zm-1.09-3.286h.545V7.96h-.545v.547zm1.09 1.1h.546V9.06h-.545v.547zm-1.09-3.287h.545v-.547h-.545v.547zm1.09 1.1h.546v-.548h-.545v.547zm0-2.188h.546v-.546h-.545v.546zm1.089 14.21h.545v-.547h-.545v.547zm1.091 1.1h.545v-.548h-.545v.547zm-1.091-3.288h.545v-.546h-.545v.546zm1.091 1.1h.545v-.546h-.545v.546zm-1.091-3.286h.545v-.547h-.545v.547zm1.091 1.1h.545v-.547h-.545v.547zm-1.091-3.288h.545v-.547h-.545v.547zm1.091 1.1h.545v-.547h-.545v.547zm-1.091-3.287h.545v-.546h-.545v.546zm1.091 1.1h.545v-.546h-.545v.546zm-1.091-3.286h.545V7.96h-.545v.547zm2.179 13.121h.544v-.546h-.544v.546zm1.09 1.1h.545v-.546h-.545v.546zm-1.09-3.286h.544v-.547h-.544v.547zm1.09 1.1h.545v-.548h-.545v.547zm-1.09-3.288h.544v-.546h-.544v.546zm1.09 1.1h.545v-.546h-.545v.546zm-1.09-3.286h.544v-.547h-.544v.547zm1.09 1.1h.545v-.547h-.545v.547zm-1.09-3.287h.544v-.547h-.544v.547zm1.09 1.1h.545v-.548h-.545v.547zm0-2.188h.545v-.546h-.545v.546zm1.089 12.022h.545v-.547h-.545v.547zm0-2.187h.545v-.546h-.545v.546zm0-6.56h.545v-.547h-.545v.547zm0-2.187h.545v-.547h-.545v.547zm1.09 1.1h.545v-.548h-.545v.547zm0-2.188h.545v-.546h-.545v.546zm1.089 1.088h.544v-.547h-.544v.547zm1.09-1.088h.545v-.546h-.545v.546zm-25.12-.98h-9.392a.263.263 0 0 1-.25-.183l-.687-2.123h-.072v-.223l-.987-3.052h-.1v-.31l-.965-2.976h-.127v-.168l-.94 2.908h.397v.546h-.545V5.14l-.913 2.82h.367v.547h-.544l-.687 2.123a.263.263 0 0 1-.25.182h-9.391l.596.435h.472v.344l1.018.743h.07v.05l4.904 3.577v-.34h.545v.547h-.262l.254.185c.092.067.13.186.096.294l-.376 1.16h.288v.547h-.465l-.883 2.728h.257v.546h-.433l-.888 2.74h.233v.547h-.41l-.225.697 4.448-3.244v-.186h.256l.832-.607v-.493h.545v.095l.872-.636h-.326v-.547h.545v.388l.425-.31a.265.265 0 0 1 .31 0l1.987 1.45v-.44h.545v.546h-.398l.944.689v-.135h.545v.532l.76.554h.328v.24l2.885 2.104-.707-2.184v.387h-.544v-.547h.493l-1.037-3.201v.474h-.544v-.547h.52l-1.083-3.347a.264.264 0 0 1 .096-.294l.467-.34v-.392h.537l.758-.553h-.207v-.547h.544v.3l5.499-4.009zm1.059-.346a.263.263 0 0 1-.096.294l-8.097 5.906 3.093 9.554a.264.264 0 0 1-.095.295.261.261 0 0 1-.31 0l-8.097-5.905-8.098 5.905a.262.262 0 0 1-.31 0 .264.264 0 0 1-.094-.295l3.092-9.554-8.097-5.906a.264.264 0 0 1 .154-.477h10.01L42.057.73c.07-.217.43-.217.5 0l3.094 9.554h10.008c.115 0 .216.074.25.183zm-23.443 1.326h.545v-.546h-.545v.546zm1.088 1.087h.545v-.547h-.545v.547zm1.091 1.1h.545v-.547h-.545v.547zm0-2.187h.545v-.546h-.545v.546zm1.089 12.022h.544v-.547h-.544v.547zm1.09-1.087h.545v-.547h-.545v.547zm0-2.187h.545v-.547h-.545v.547zm-1.09-5.473h.544v-.547h-.544v.547zm0-2.188h.544v-.547h-.544v.547zm1.09 1.1h.545v-.547h-.545v.547zm0-2.187h.545v-.546h-.545v.546zm1.088 9.835h.545v-.546h-.545v.546zm0-2.186h.545v-.547h-.545v.547zm1.091 1.1h.545v-.548h-.545v.547zm-1.09-3.288h.544v-.546h-.545v.546zm1.09 1.1h.545v-.546h-.545v.546zm-1.09-3.286h.544v-.547h-.545v.547zm1.09 1.1h.545v-.547h-.545v.547zm-1.09-3.288h.544v-.547h-.545v.547zm1.09 1.1h.545v-.547h-.545v.547zm0-2.187h.545v-.546h-.545v.546zm1.088 7.649h.545v-.547h-.545v.547zm0-2.188h.545v-.546h-.545v.546zm1.091 1.1h.545v-.546h-.545v.546zm-1.09-3.286h.544v-.547h-.545v.547zm1.09 1.1h.545v-.547h-.545v.547zm-1.09-3.288h.544v-.547h-.545v.547zm1.09 1.1h.545v-.547h-.545v.547zm-1.09-3.287h.544v-.546h-.545v.546zm1.09 1.1h.545v-.546h-.545v.546zm0-2.186h.545V9.06h-.545v.547zm0-2.188h.545v-.547h-.545v.547zm1.088 12.023h.545v-.547h-.545v.547zm1.091 1.1h.545v-.548h-.545v.547zm-1.091-3.288h.545v-.546h-.545v.546zm1.091 1.1h.545v-.546h-.545v.546zm-1.091-3.286h.545v-.547h-.545v.547zm1.091 1.1h.545v-.547h-.545v.547zm-1.091-3.288h.545v-.547h-.545v.547zm1.091 1.1h.545v-.547h-.545v.547zm-1.091-3.287h.545v-.546h-.545v.546zm1.091 1.1h.545v-.546h-.545v.546zm-1.091-3.286h.545V7.96h-.545v.547zm1.091 1.1h.545V9.06h-.545v.547zM42.271 6.32h.545v-.547h-.545v.547zm1.091 1.1h.545v-.548h-.545v.547zm-1.091-3.287h.545v-.547h-.545v.547zm2.179 15.309h.544v-.547h-.544v.547zm1.09 1.1h.546v-.548h-.545v.547zm-1.09-3.288h.544v-.546h-.544v.546zm1.09 1.1h.546v-.546h-.545v.546zm-1.09-3.286h.544v-.547h-.544v.547zm1.09 1.1h.546v-.547h-.545v.547zm-1.09-3.288h.544v-.547h-.544v.547zm1.09 1.1h.546v-.547h-.545v.547zm-1.09-3.287h.544v-.546h-.544v.546zm1.09 1.1h.546v-.546h-.545v.546zm1.089 9.835h.545v-.546h-.545v.546zm1.09 1.1h.545v-.546h-.544v.546zm-1.09-3.286h.545v-.547h-.545v.547zm0-2.188h.545v-.546h-.545v.546zm0-2.186h.545v-.547h-.545v.547zm0-2.187h.545v-.547h-.545v.547zm1.09 1.1h.545v-.548h-.544v.547zm0-2.188h.545v-.546h-.544v.546zm1.089 1.088h.544v-.547h-.544v.547zm1.09 1.1h.545v-.548h-.545v.547zm0-2.188h.545v-.546h-.545v.546zm1.088 1.088h.545v-.547h-.545v.547zm1.092-1.088h.544v-.546h-.544v.546zm-25.92-.98h-9.391c-.086 0-.155-.052-.204-.12h-.007v-.01c-.012-.018-.032-.03-.039-.053l-.504-1.558v.535h-.545V9.06h.54l-.53-1.64h-.01v-.03l-1.054-3.257h-.037V4.02l-.762-2.354-.27.833h.489v.547h-.545v-.373l-1.004 3.1h.458v.547h-.545v-.278l-.977 3.018h.434v.547h-.545v-.203l-.397 1.226a.263.263 0 0 1-.25.182h-9.39l1.321.964v-.53h.545v.547h-.521l1.065.777v-.236h.544v.546h-.119l.76.553h.45v.33l1.04.758h.049v.035l2.463 1.797c.092.067.13.186.096.294l-.728 2.248h.347v.547h-.524l-.887 2.74h.323v.546h-.5l-.883 2.728h.164l.74-.54h-.066v-.548h.545v.198l1.03-.75H7.84v-.548h.545v.505l4.904-3.576v-.203h.545v.124l4.9 3.574v-.424h.546v.547h-.377l.922.673v-.12h.545v.517l.783.57h.163l-.946-2.922v.195h-.545v-.546h.432l-.977-3.018v.278h-.545v-.547h.458l-.728-2.248a.264.264 0 0 1 .096-.294l2.353-1.716v-.116h.159l.932-.68v-.408h.544v.01l.773-.563h-.23v-.546h.546v.317l2.52-1.839zm1.06-.346a.263.263 0 0 1-.096.294l-8.097 5.906 3.092 9.554a.264.264 0 0 1-.095.295.261.261 0 0 1-.31 0l-8.097-5.905-8.097 5.905a.262.262 0 0 1-.31 0 .264.264 0 0 1-.095-.295l3.093-9.554L.108 10.76a.263.263 0 1 1 .155-.477h10.01L13.364.73c.07-.217.43-.217.5 0l3.093 9.554h10.009c.114 0 .215.074.25.183zM4.573 11.793h.544v-.546h-.544v.546zm1.088 1.087h.545v-.547h-.545v.547zm1.09 1.1h.545v-.547h-.545v.547zm0-2.187h.545v-.546h-.545v.546zm1.088 9.835h.545v-.546H7.84v.546zm1.091 1.1h.545v-.547h-.545v.547zm0-2.187h.545v-.547h-.545v.547zm0-2.187h.545v-.546h-.545v.546zm-1.09-3.286h.544v-.547H7.84v.547zm1.09 1.1h.545v-.547h-.545v.547zm-1.09-3.288h.544v-.547H7.84v.547zm1.09 1.1h.545v-.547h-.545v.547zm0-2.187h.545v-.546h-.545v.546zm1.088 9.835h.545v-.546h-.545v.546zm0-2.186h.545v-.547h-.545v.547zm1.09 1.1h.546v-.548h-.545v.547zm-1.09-3.288h.545v-.546h-.545v.546zm1.09 1.1h.546v-.546h-.545v.546zm-1.09-3.286h.545v-.547h-.545v.547zm1.09 1.1h.546v-.547h-.545v.547zm-1.09-3.288h.545v-.547h-.545v.547zm1.09 1.1h.546v-.547h-.545v.547zm0-2.187h.546v-.546h-.545v.546zm1.089 7.649h.545v-.547h-.545v.547zm0-2.188h.545v-.546h-.545v.546zm1.091 1.1h.545v-.546h-.545v.546zm-1.091-3.286h.545v-.547h-.545v.547zm1.091 1.1h.545v-.547h-.545v.547zm-1.091-3.288h.545v-.547h-.545v.547zm1.091 1.1h.545v-.547h-.545v.547zm-1.091-3.287h.545v-.546h-.545v.546zm1.091 1.1h.545v-.546h-.545v.546zm-1.091-3.286h.545V7.96h-.545v.547zm1.091 1.1h.545V9.06h-.545v.547zm0-2.188h.545v-.547h-.545v.547zm0-2.187h.545v-.546h-.545v.546zm1.088 14.21h.545v-.547h-.545v.547zm1.09 1.1h.546v-.548h-.545v.547zm-1.09-3.288h.545v-.546h-.545v.546zm1.09 1.1h.546v-.546h-.545v.546zm-1.09-3.286h.545v-.547h-.545v.547zm1.09 1.1h.546v-.547h-.545v.547zm-1.09-3.288h.545v-.547h-.545v.547zm1.09 1.1h.546v-.547h-.545v.547zm-1.09-3.287h.545v-.546h-.545v.546zm1.09 1.1h.546v-.546h-.545v.546zm-1.09-3.286h.545V7.96h-.545v.547zm0-2.187h.545v-.547h-.545v.547zm2.179 15.308h.545v-.546h-.545v.546zm1.09 1.1h.546v-.546h-.545v.546zm-1.09-3.286h.545v-.547h-.545v.547zm1.09 1.1h.546v-.548h-.545v.547zm-1.09-3.288h.545v-.546h-.545v.546zm1.09 1.1h.546v-.546h-.545v.546zm-1.09-3.286h.545v-.547h-.545v.547zm1.09 1.1h.546v-.547h-.545v.547zm-1.09-3.288h.545v-.547h-.545v.547zm1.09 1.1h.546v-.547h-.545v.547zm0-2.187h.546v-.546h-.545v.546zm1.089 9.835h.545v-.546h-.545v.546zm0-6.56h.545v-.547h-.545v.547zm0-2.187h.545v-.547h-.545v.547zm1.09 1.1h.545v-.548h-.545v.547zm0-2.188h.545v-.546h-.545v.546zm1.089 1.088h.544v-.547h-.544v.547zm1.09-1.088h.545v-.546h-.545v.546zm2.18 0h.544v-.546h-.545v.546z" mask="url(#b)"/>
    </g>
</svg>
