<svg id="icons3" xmlns="http://www.w3.org/2000/svg" width="270" height="270" viewBox="0 0 270 270"><defs><style>.cls-1,.cls-10,.cls-11,.cls-12,.cls-13,.cls-2,.cls-3,.cls-4,.cls-5,.cls-6,.cls-7,.cls-8,.cls-9{fill:none;stroke:#fff;stroke-miterlimit:10;}.cls-2{stroke-dasharray:4.98 4.98;}.cls-3{stroke-dasharray:4.98 4.98;}.cls-4{stroke-dasharray:5 5;}.cls-5{stroke-dasharray:5 5;}.cls-6{stroke-dasharray:3.31 3.31;}.cls-7{stroke-dasharray:4.71 4.71;}.cls-8{stroke-dasharray:4.71 4.71;}.cls-9{stroke-dasharray:3.31 3.31;}.cls-10{stroke-dasharray:5.14 5.14;}.cls-11{stroke-dasharray:5.14 5.14;}.cls-12{stroke-dasharray:4.95 4.95;}.cls-13{stroke-dasharray:3.31 3.31;}</style></defs><title>404-missingicon</title><polyline class="cls-1" points="0.52 266.98 0.52 269.48 3.02 269.48"/><line class="cls-2" x1="8" y1="269.48" x2="264.49" y2="269.48"/><polyline class="cls-1" points="266.98 269.48 269.48 269.48 269.48 266.98"/><line class="cls-3" x1="269.48" y1="262" x2="269.48" y2="5.51"/><polyline class="cls-1" points="269.48 3.02 269.48 0.52 266.98 0.52"/><line class="cls-2" x1="262" y1="0.52" x2="5.51" y2="0.52"/><polyline class="cls-1" points="3.02 0.52 0.52 0.52 0.52 3.02"/><line class="cls-3" x1="0.52" y1="8" x2="0.52" y2="264.49"/><polyline class="cls-1" points="255.11 252.61 255.11 255.11 252.61 255.11"/><line class="cls-4" x1="247.6" y1="255.11" x2="19.9" y2="255.11"/><polyline class="cls-1" points="17.39 255.11 14.89 255.11 14.89 252.61"/><line class="cls-5" x1="14.89" y1="247.6" x2="14.89" y2="19.89"/><polyline class="cls-1" points="14.89 17.39 14.89 14.89 17.39 14.89"/><line class="cls-4" x1="22.4" y1="14.89" x2="250.11" y2="14.89"/><polyline class="cls-1" points="252.61 14.89 255.11 14.89 255.11 17.39"/><line class="cls-5" x1="255.11" y1="22.4" x2="255.11" y2="250.1"/><polyline class="cls-1" points="73.03 73.15 71.26 71.38 69.49 73.15"/><line class="cls-6" x1="67.15" y1="75.49" x2="63.63" y2="79.01"/><polyline class="cls-1" points="62.46 80.18 60.69 81.95 62.46 83.72"/><line class="cls-7" x1="65.79" y1="87.05" x2="97.46" y2="118.72"/><polyline class="cls-1" points="99.13 120.38 100.9 122.15 99.13 123.92"/><line class="cls-8" x1="95.79" y1="127.25" x2="64.13" y2="158.92"/><polyline class="cls-1" points="62.46 160.59 60.69 162.35 62.46 164.12"/><line class="cls-9" x1="64.8" y1="166.47" x2="68.32" y2="169.98"/><polyline class="cls-1" points="69.49 171.15 71.26 172.92 73.03 171.15"/><line class="cls-10" x1="76.66" y1="167.52" x2="118.44" y2="125.74"/><polyline class="cls-1" points="120.26 123.92 122.03 122.15 120.26 120.38"/><line class="cls-11" x1="116.63" y1="116.75" x2="74.84" y2="74.97"/><polyline class="cls-1" points="196.86 187.74 196.86 190.24 194.36 190.24"/><line class="cls-12" x1="189.41" y1="190.24" x2="122.64" y2="190.24"/><polyline class="cls-1" points="120.16 190.24 117.66 190.24 117.66 187.74"/><line class="cls-13" x1="117.66" y1="184.43" x2="117.66" y2="179.45"/><polyline class="cls-1" points="117.66 177.8 117.66 175.3 120.16 175.3"/><line class="cls-12" x1="125.11" y1="175.3" x2="191.89" y2="175.3"/><polyline class="cls-1" points="194.36 175.3 196.86 175.3 196.86 177.8"/><line class="cls-13" x1="196.86" y1="181.11" x2="196.86" y2="186.08"/></svg>