<?xml version="1.0" encoding="UTF-8"?>
<svg width="50px" height="50px" viewBox="0 0 50 50" version="1.1" xmlns="http://www.w3.org/2000/svg" xmlns:xlink="http://www.w3.org/1999/xlink">
    <title>6D02FA29-477F-431A-8B59-6F00197C141F</title>
    <defs>
        <polygon id="path-1" points="0.034499333 0.61 24.836 0.61 24.836 22.0067 0.034499333 22.0067"></polygon>
        <polygon id="path-3" points="0 49.3901 49.836 49.3901 49.836 1.0001 0 1.0001"></polygon>
    </defs>
    <g id="Page-1" stroke="none" stroke-width="1" fill="none" fill-rule="evenodd">
        <g id="juno-website-workshop-landing-page" transform="translate(-146.000000, -1309.000000)">
            <g id="Group-22" transform="translate(146.000000, 1309.000000)">
                <g id="Group-3" transform="translate(25.000000, 0.390100)">
                    <mask id="mask-2" fill="white">
                        <use xlink:href="#path-1"></use>
                    </mask>
                    <g id="Clip-2"></g>
                    <path d="M22.227,10.9827 L12.434,20.7997 L2.64,10.9817 C0.499,8.8417 0.498,5.3587 2.637,3.2177 C3.707,2.1477 5.114,1.6117 6.52,1.6117 C7.926,1.6117 9.331,2.1457 10.401,3.2157 L12.081,4.8947 C12.275,5.0897 12.592,5.0897 12.787,4.8947 L14.467,3.2157 C15.503,2.1797 16.881,1.6087 18.347,1.6087 L18.349,1.6087 C19.815,1.6087 21.194,2.1807 22.23,3.2177 C23.267,4.2547 23.837,5.6337 23.837,7.1007 C23.836,8.5667 23.265,9.9447 22.227,10.9827 M22.937,2.5117 C21.712,1.2857 20.082,0.6107 18.35,0.6097 L18.347,0.6097 C16.615,0.6097 14.986,1.2847 13.76,2.5087 L12.434,3.8357 L11.107,2.5087 C8.577,-0.0203 4.46,-0.0183 1.93,2.5117 C-0.599,5.0427 -0.597,9.1597 1.934,11.6877 L12.08,21.8597 C12.174,21.9537 12.301,22.0067 12.434,22.0067 C12.566,22.0067 12.694,21.9537 12.788,21.8597 L22.934,11.6887 C24.16,10.4627 24.835,8.8347 24.836,7.1007 C24.836,5.3677 24.162,3.7377 22.937,2.5117" id="Fill-1" fill="#EA593E" mask="url(#mask-2)"></path>
                </g>
                <path d="M45.581,47.155 L46.605,46.13 L46.605,46.129 L46.767,45.967 L46.77,45.964 L46.773,45.967 L46.919,45.821 L46.919,47.155 L45.581,47.155 Z M27.936,46.065 L28.038,45.964 L28.041,45.967 L28.328,45.679 L31.619,42.383 L31.619,42.383 L31.784,42.217 L31.788,42.22 L32.074,41.933 L35.365,38.637 L35.365,38.636 L35.531,38.47 L35.534,38.474 L35.821,38.186 L39.112,34.89 L39.112,34.889 L39.277,34.724 L39.28,34.727 L39.567,34.44 L42.858,31.144 L42.858,31.143 L43.024,30.978 L43.027,30.981 L43.313,30.694 L45.831,28.173 L46.919,28.173 L46.919,29.948 L46.605,30.262 L46.33,30.537 L46.174,30.694 L42.865,34.003 L42.858,34.009 L42.724,34.143 L42.583,34.284 L42.427,34.44 L39.118,37.749 L39.112,37.756 L38.681,38.186 L35.365,41.502 L35.091,41.777 L34.935,41.933 L31.625,45.242 L31.619,45.249 L31.484,45.383 L31.344,45.523 L31.188,45.679 L29.712,47.155 L27.936,47.155 L27.936,46.065 Z M29.963,28.173 L27.936,30.199 L27.936,28.173 L29.963,28.173 Z M31.619,30.262 L31.344,30.537 L31.188,30.694 L27.936,33.945 L27.936,31.079 L28.035,30.981 L28.038,30.978 L28.041,30.981 L28.328,30.694 L30.845,28.173 L33.709,28.173 L31.619,30.262 Z M35.365,30.262 L35.091,30.537 L34.935,30.694 L31.625,34.003 L31.619,34.009 L31.484,34.143 L31.344,34.284 L31.188,34.44 L27.936,37.692 L27.936,34.825 L28.038,34.724 L28.041,34.727 L28.328,34.44 L31.619,31.144 L31.619,31.143 L31.784,30.978 L31.788,30.981 L32.074,30.694 L34.591,28.173 L37.456,28.173 L35.365,30.262 Z M39.112,30.262 L38.837,30.537 L38.681,30.694 L35.372,34.003 L35.365,34.009 L35.091,34.284 L34.935,34.44 L31.625,37.749 L31.619,37.756 L31.344,38.03 L31.188,38.186 L27.936,41.438 L27.936,38.572 L28.038,38.47 L28.041,38.474 L28.328,38.186 L31.619,34.89 L31.619,34.889 L31.784,34.724 L31.788,34.727 L32.074,34.44 L35.365,31.144 L35.365,31.143 L35.531,30.978 L35.534,30.981 L35.821,30.694 L38.338,28.173 L41.202,28.173 L39.118,30.257 L39.112,30.262 Z M42.583,30.537 L42.583,30.537 L42.428,30.694 L39.118,34.003 L39.112,34.009 L38.837,34.284 L38.681,34.44 L35.365,37.756 L35.231,37.89 L34.935,38.186 L31.619,41.502 L31.344,41.777 L31.188,41.933 L27.936,45.185 L27.936,42.319 L28.035,42.22 L28.038,42.217 L28.041,42.22 L28.328,41.933 L31.619,38.637 L31.619,38.636 L31.781,38.474 L31.784,38.47 L31.788,38.474 L32.074,38.186 L35.365,34.89 L35.365,34.889 L35.528,34.727 L35.531,34.724 L35.534,34.727 L35.821,34.44 L39.112,31.144 L39.112,31.143 L39.274,30.981 L39.277,30.978 L39.28,30.981 L39.567,30.694 L42.084,28.173 L44.949,28.173 L42.858,30.262 L42.583,30.537 Z M46.611,34.003 L46.605,34.009 L46.33,34.284 L46.174,34.44 L42.865,37.749 L42.858,37.756 L42.583,38.03 L42.428,38.186 L39.118,41.496 L39.112,41.502 L38.837,41.777 L38.681,41.933 L35.372,45.242 L35.365,45.249 L35.091,45.523 L34.935,45.679 L33.459,47.155 L30.595,47.155 L31.619,46.13 L31.619,46.129 L31.784,45.964 L31.788,45.967 L32.074,45.679 L35.365,42.383 L35.365,42.383 L35.531,42.217 L35.534,42.22 L35.821,41.933 L39.112,38.637 L39.112,38.636 L39.277,38.47 L39.28,38.474 L39.567,38.186 L42.858,34.89 L42.858,34.889 L43.024,34.724 L43.027,34.727 L43.313,34.44 L46.605,31.144 L46.605,31.143 L46.77,30.978 L46.773,30.981 L46.919,30.835 L46.919,33.695 L46.611,34.003 Z M46.605,37.756 L46.471,37.89 L46.174,38.186 L42.858,41.502 L42.583,41.777 L42.428,41.933 L39.118,45.242 L39.112,45.249 L38.837,45.523 L38.681,45.679 L37.206,47.155 L34.342,47.155 L35.365,46.13 L35.365,46.129 L35.528,45.967 L35.531,45.964 L35.534,45.967 L35.821,45.679 L39.112,42.383 L39.112,42.383 L39.274,42.22 L39.277,42.217 L39.28,42.22 L39.567,41.933 L42.858,38.637 L42.858,38.636 L43.02,38.474 L43.024,38.47 L43.027,38.474 L43.313,38.186 L46.605,34.89 L46.605,34.889 L46.767,34.727 L46.77,34.724 L46.773,34.727 L46.919,34.582 L46.919,37.442 L46.605,37.756 Z M46.605,41.502 L46.33,41.777 L46.174,41.933 L42.865,45.242 L42.858,45.249 L42.724,45.383 L42.583,45.523 L42.427,45.679 L40.952,47.155 L38.088,47.155 L39.112,46.13 L39.112,46.129 L39.277,45.964 L39.28,45.967 L39.567,45.679 L42.858,42.383 L42.858,42.383 L43.024,42.217 L43.027,42.22 L43.313,41.933 L46.605,38.637 L46.605,38.636 L46.77,38.47 L46.773,38.474 L46.919,38.328 L46.919,41.188 L46.605,41.502 Z M46.611,45.242 L46.605,45.249 L46.33,45.523 L46.174,45.679 L44.699,47.155 L41.835,47.155 L42.858,46.13 L42.858,46.129 L43.024,45.964 L43.027,45.967 L43.313,45.679 L46.605,42.383 L46.605,42.383 L46.77,42.217 L46.773,42.22 L46.919,42.074 L46.919,44.935 L46.611,45.242 Z M47.418,27.174 L27.437,27.174 C27.161,27.174 26.937,27.397 26.937,27.673 L26.937,47.655 C26.937,47.93 27.161,48.154 27.437,48.154 L47.418,48.154 C47.694,48.154 47.917,47.93 47.917,47.655 L47.917,27.673 C47.917,27.397 47.694,27.174 47.418,27.174 L47.418,27.174 Z" id="Fill-4" fill="#EA593E"></path>
                <path d="M22.5649,21.4978 L22.5649,21.2518 L22.7069,21.4978 L22.5649,21.4978 Z M1.9589,20.4678 L1.9589,20.9148 L1.9589,21.4978 L1.3649,21.4978 L1.9589,20.4678 Z M7.5789,20.9148 L7.5789,18.4178 L7.5789,15.9198 L7.5789,13.4218 L7.5789,10.9248 L7.5789,10.7308 L9.4519,7.4858 L9.4519,8.4268 L9.4519,10.9248 L9.4519,13.4218 L9.4519,15.9198 L9.4519,18.4178 L9.4519,20.9148 L9.4519,21.4978 L7.5789,21.4978 L7.5789,20.9148 Z M5.0809,20.9148 L5.0809,18.4178 L5.0809,15.9198 L5.0809,15.0588 L6.9549,11.8128 L6.9549,13.4218 L6.9549,15.9198 L6.9549,18.4178 L6.9549,20.9148 L6.9549,21.4978 L5.0809,21.4978 L5.0809,20.9148 Z M2.5839,19.3858 L4.4569,16.1408 L4.4569,18.4178 L4.4569,20.9148 L4.4569,21.4978 L2.5839,21.4978 L2.5839,20.9148 L2.5839,19.3858 Z M11.9499,3.1588 L11.9499,3.4318 L11.9499,5.9288 L11.9499,8.4268 L11.9499,10.9248 L11.9499,13.4218 L11.9499,15.9198 L11.9499,18.4178 L11.9499,20.9148 L11.9499,21.4978 L10.0769,21.4978 L10.0769,20.9148 L10.0769,18.4178 L10.0769,15.9198 L10.0769,13.4218 L10.0769,10.9248 L10.0769,8.4268 L10.0769,6.4038 L11.9499,3.1588 Z M17.5689,20.9148 L17.5689,18.4178 L17.5689,15.9198 L17.5689,13.4218 L17.5689,12.6028 L19.4429,15.8468 L19.4429,15.9198 L19.4429,18.4178 L19.4429,20.9148 L19.4429,21.4978 L17.5689,21.4978 L17.5689,20.9148 Z M15.0719,20.9148 L15.0719,18.4178 L15.0719,15.9198 L15.0719,13.4218 L15.0719,10.9248 L15.0719,8.4268 L15.0719,8.2778 L16.9449,11.5208 L16.9449,13.4218 L16.9449,15.9198 L16.9449,18.4178 L16.9449,20.9148 L16.9449,21.4978 L15.0719,21.4978 L15.0719,20.9148 Z M12.5739,18.4178 L12.5739,15.9198 L12.5739,13.4218 L12.5739,10.9248 L12.5739,8.4268 L12.5739,5.9288 L12.5739,3.9528 L14.4469,7.1968 L14.4469,8.4268 L14.4469,10.9248 L14.4469,13.4218 L14.4469,15.9198 L14.4469,18.4178 L14.4469,20.9148 L14.4469,21.4978 L12.5739,21.4978 L12.5739,20.9148 L12.5739,18.4178 Z M21.9399,21.4978 L20.0669,21.4978 L20.0669,20.9148 L20.0669,18.4178 L20.0669,16.9278 L21.9399,20.1708 L21.9399,20.9148 L21.9399,21.4978 Z M12.4649,1.7658 C12.2869,1.4568 11.7789,1.4568 11.5999,1.7658 L0.0669,21.7478 C-0.0221,21.9018 -0.0221,22.0918 0.0669,22.2468 C0.1559,22.4018 0.3209,22.4968 0.4999,22.4968 L23.5719,22.4968 C23.7499,22.4968 23.9149,22.4018 24.0039,22.2468 C24.0939,22.0918 24.0939,21.9018 24.0039,21.7478 L12.4649,1.7658 Z" id="Fill-6" fill="#EA593E"></path>
                <mask id="mask-4" fill="white">
                    <use xlink:href="#path-3"></use>
                </mask>
                <g id="Clip-9"></g>
                <polygon id="Fill-8" fill="#EA593E" mask="url(#mask-4)" points="16.741 29.7791 17.653 29.7791 17.653 28.8671 16.741 28.8671"></polygon>
                <polygon id="Fill-10" fill="#EA593E" mask="url(#mask-4)" points="13.095 29.7791 14.007 29.7791 14.007 28.8671 13.095 28.8671"></polygon>
                <polygon id="Fill-11" fill="#EA593E" mask="url(#mask-4)" points="11.271 27.9381 12.183 27.9381 12.183 27.0261 11.271 27.0261"></polygon>
                <polygon id="Fill-12" fill="#EA593E" mask="url(#mask-4)" points="7.624 31.5851 8.536 31.5851 8.536 30.6731 7.624 30.6731"></polygon>
                <polygon id="Fill-13" fill="#EA593E" mask="url(#mask-4)" points="9.448 29.7791 10.359 29.7791 10.359 28.8671 9.448 28.8671"></polygon>
                <polygon id="Fill-14" fill="#EA593E" mask="url(#mask-4)" points="3.978 42.5251 4.89 42.5251 4.89 41.6131 3.978 41.6131"></polygon>
                <polygon id="Fill-15" fill="#EA593E" mask="url(#mask-4)" points="3.978 38.8781 4.89 38.8781 4.89 37.9661 3.978 37.9661"></polygon>
                <polygon id="Fill-16" fill="#EA593E" mask="url(#mask-4)" points="3.978 35.2311 4.89 35.2311 4.89 34.3191 3.978 34.3191"></polygon>
                <polygon id="Fill-17" fill="#EA593E" mask="url(#mask-4)" points="5.801 33.4261 6.713 33.4261 6.713 32.5141 5.801 32.5141"></polygon>
                <polygon id="Fill-18" fill="#EA593E" mask="url(#mask-4)" points="3.978 31.5851 4.89 31.5851 4.89 30.6731 3.978 30.6731"></polygon>
                <polygon id="Fill-19" fill="#EA593E" mask="url(#mask-4)" points="2.155 40.7191 3.067 40.7191 3.067 39.8071 2.155 39.8071"></polygon>
                <polygon id="Fill-20" fill="#EA593E" mask="url(#mask-4)" points="2.155 37.0731 3.067 37.0731 3.067 36.1611 2.155 36.1611"></polygon>
                <path d="M12.0322,48.3913 C10.2882,48.3913 8.6452,47.9643 7.1882,47.2233 C4.5202,42.0093 6.5322,35.5823 11.7252,32.8383 C13.2572,32.0293 14.9832,31.5993 16.7172,31.5943 C18.4212,31.5983 20.0872,32.0063 21.5902,32.7763 C22.3412,34.2413 22.7722,35.8953 22.7722,37.6513 C22.7722,43.5733 17.9542,48.3913 12.0322,48.3913 L12.0322,48.3913 Z M18.5642,30.6733 L18.5642,30.7483 C17.9562,30.6513 17.3422,30.5953 16.7242,30.5953 C16.7212,30.5953 16.7162,30.5943 16.7142,30.5953 C16.3052,30.5963 15.8982,30.6293 15.4922,30.6733 L14.9182,30.6733 L14.9182,30.7563 C13.9772,30.9053 13.0602,31.1673 12.1832,31.5373 L12.1832,30.6733 L11.2712,30.6733 L11.2712,31.5843 L12.0772,31.5843 C11.8022,31.7043 11.5232,31.8153 11.2592,31.9553 C10.9302,32.1283 10.6142,32.3153 10.3102,32.5143 L9.4482,32.5143 L9.4482,33.1363 C8.9892,33.4993 8.5722,33.9003 8.1792,34.3193 L7.6242,34.3193 L7.6242,34.9593 C7.2932,35.3703 6.9842,35.7963 6.7132,36.2443 L6.7132,36.1613 L5.8012,36.1613 L5.8012,37.0733 L6.2602,37.0733 C4.8552,39.8813 4.5842,43.2153 5.6952,46.3023 C5.6562,46.2743 5.6182,46.2453 5.5802,46.2173 C5.3522,46.0463 5.1332,45.8643 4.9202,45.6763 C4.9092,45.6673 4.9002,45.6583 4.8892,45.6493 L4.8892,45.2593 L4.4792,45.2593 C4.3612,45.1423 4.2452,45.0243 4.1332,44.9023 C4.0262,44.7853 3.9152,44.6723 3.8132,44.5513 C3.6612,44.3703 3.5222,44.1803 3.3822,43.9893 C3.2752,43.8433 3.1662,43.7003 3.0662,43.5483 L3.0662,43.4543 L3.0092,43.4543 C3.0062,43.4503 3.0042,43.4463 3.0012,43.4413 C2.8502,43.2073 2.7032,42.9713 2.5702,42.7243 C2.4482,42.4963 2.3392,42.2613 2.2322,42.0243 C2.1972,41.9443 2.1562,41.8663 2.1222,41.7863 C2.0062,41.5073 1.9032,41.2223 1.8092,40.9323 C1.7972,40.8943 1.7822,40.8563 1.7702,40.8183 C1.4602,39.8163 1.2922,38.7533 1.2922,37.6513 C1.2922,36.1513 1.6032,34.7243 2.1612,33.4263 L3.0662,33.4263 L3.0662,32.5143 L2.6032,32.5143 C3.3852,31.0873 4.4852,29.8623 5.8012,28.9203 L5.8012,29.7793 L6.7132,29.7793 L6.7132,28.8683 L5.8712,28.8683 C6.4202,28.4813 7.0072,28.1473 7.6242,27.8683 L7.6242,27.9383 L8.5362,27.9383 L8.5362,27.5073 C9.6342,27.1273 10.8072,26.9113 12.0322,26.9113 C13.0332,26.9113 13.9982,27.0583 14.9182,27.3163 L14.9182,27.9383 L15.8292,27.9383 L15.8292,27.6173 C15.9202,27.6513 16.0122,27.6803 16.1012,27.7173 C16.1812,27.7493 16.2602,27.7843 16.3392,27.8193 C16.6012,27.9343 16.8612,28.0573 17.1132,28.1923 C17.1582,28.2173 17.2012,28.2443 17.2462,28.2693 C18.0842,28.7373 18.8522,29.3123 19.5332,29.9783 C19.5702,30.0153 19.6092,30.0483 19.6462,30.0853 C19.8282,30.2683 19.9982,30.4623 20.1662,30.6583 C20.2612,30.7683 20.3542,30.8793 20.4442,30.9933 C20.5182,31.0863 20.5872,31.1833 20.6582,31.2793 C20.2712,31.1413 19.8752,31.0303 19.4762,30.9333 L19.4762,30.6733 L18.5642,30.6733 Z M22.4092,32.1673 C22.4012,32.1513 22.3902,32.1373 22.3822,32.1213 C22.2962,31.9613 22.1982,31.8083 22.1042,31.6523 C18.9462,26.3143 12.1102,24.3173 6.5572,27.2343 C1.4722,29.9063 -0.8338,35.8063 0.8142,41.1053 C0.8302,41.1603 0.8512,41.2113 0.8692,41.2663 C0.9682,41.5683 1.0742,41.8683 1.1992,42.1653 C1.2402,42.2643 1.2892,42.3583 1.3332,42.4553 C1.4282,42.6663 1.5152,42.8783 1.6252,43.0863 C1.6412,43.1173 1.6632,43.1443 1.6802,43.1753 C1.9132,43.6103 2.1782,44.0243 2.4612,44.4243 C2.5492,44.5483 2.6412,44.6673 2.7332,44.7873 C3.0212,45.1623 3.3262,45.5233 3.6562,45.8603 C3.6872,45.8923 3.7152,45.9273 3.7472,45.9583 C4.1242,46.3343 4.5342,46.6753 4.9592,46.9973 C5.0232,47.0453 5.0862,47.0943 5.1522,47.1413 C7.0882,48.5493 9.4612,49.3903 12.0322,49.3903 C18.5052,49.3903 23.7712,44.1233 23.7712,37.6513 C23.7712,35.6773 23.2762,33.8173 22.4122,32.1833 C22.4092,32.1783 22.4112,32.1723 22.4092,32.1673 L22.4092,32.1673 Z" id="Fill-21" fill="#EA593E" mask="url(#mask-4)"></path>
            </g>
        </g>
    </g>
</svg>