<svg id="Layer_1" data-name="Layer 1" xmlns="http://www.w3.org/2000/svg" width="90" height="90" viewBox="0 0 90 90"><defs><style>.cls-1{fill:#aef9ff;}.cls-2{fill:#221c38;}</style></defs><title>flag-almostfull-top</title><polygon class="cls-1" points="38.5 0 0 0 90 90 90 51.5 38.5 0"/><path class="cls-2" d="M29.92,15.09l-3.19-3.18L24.36,13l-1.22-1.22L33.59,7.12,34.8,8.33,30.13,18.76l-1.3-1.29Zm.6-1.32,2.06-4.5-4.51,2.05Z"/><path class="cls-2" d="M32.14,20.77,31,19.61l7.88-7.88L40,12.89Z"/><path class="cls-2" d="M45.11,27l-3.38,3.38-1.18-1.17L43.72,26c.93-.93.88-1.76.19-2.44a1.68,1.68,0,0,0-2.54.14l-3.14,3.14-1.14-1.13,3.1-3.1c1-.94,1-1.81.28-2.5a1.66,1.66,0,0,0-2.56.12L34.76,23.4l-1.15-1.16L39,16.81l1.05,1.05-.48.75a2.31,2.31,0,0,1,2.18.74,2.56,2.56,0,0,1,.76,2.73,2.54,2.54,0,0,1,2.68.71A2.77,2.77,0,0,1,45.11,27Z"/><path class="cls-2" d="M51.25,28.79a4,4,0,0,1-5.65,5.66,4,4,0,0,1,5.65-5.66ZM46.6,33.45a2.3,2.3,0,0,0,3.45-.22A2.3,2.3,0,1,0,46.83,30,2.3,2.3,0,0,0,46.6,33.45Z"/><path class="cls-2" d="M52.19,37.54c-.55.57-.36,1.42.35,2.13s1.4.87,1.88.39.42-.85-.1-1.56l-.9-1.28c-.88-1.24-.74-2.21,0-3,1-1,2.58-.65,3.81.58s1.66,2.93.59,4L56.7,37.7c.54-.56.37-1.35-.3-2s-1.3-.77-1.75-.33-.29.85.2,1.56l.88,1.26c.83,1.19.8,2.16,0,3-1.12,1.13-2.74.67-4-.59-1.43-1.43-1.7-3.09-.66-4.17Z"/><path class="cls-2" d="M57.17,42.85l2.92-2.93L59.18,39l1-1,.47.47c.34.34.61.28,1-.06l.94-1,1.16,1.16-1.45,1.45,1.26,1.26-1,1-1.26-1.26-2.71,2.7c-.43.44-.54.8,0,1.31l.62.61-1,1-1-.94A1.88,1.88,0,0,1,57.17,42.85Z"/><path class="cls-2" d="M67,44.81l.88-.88c1-1,2.07-1.09,3.25.09l.79.79-1,1-.6-.6a.84.84,0,0,0-1.39,0l-.79.8,1.29,1.29-1,1L67.19,47l-4.41,4.41-1.17-1.17L66,45.83l-.89-.89,1-1Z"/><path class="cls-2" d="M75.24,53,69.8,58.44l-1-1,.62-.79A2.46,2.46,0,0,1,67,55.88a2.93,2.93,0,0,1,.15-4.45l3.25-3.25,1.11,1.11-3.08,3.09c-1,1-.95,2-.16,2.73s1.92.69,2.85-.25l3-3Z"/><path class="cls-2" d="M72.43,61.07l-1.15-1.16L79.16,52l1.15,1.16Z"/><path class="cls-2" d="M75.06,63.69,73.9,62.54l7.88-7.88,1.16,1.15Z"/><path class="cls-2" d="M78,63.66l1.47,1.47L78,66.61,76.5,65.13Zm6.24-5.91,1.13,1.13L83.26,61A36.14,36.14,0,0,1,80,64l-.83-.83a39.14,39.14,0,0,1,3-3.3Z"/></svg>