<?xml version="1.0" encoding="UTF-8"?>
<svg width="50px" height="43px" viewBox="0 0 50 43" version="1.1" xmlns="http://www.w3.org/2000/svg" xmlns:xlink="http://www.w3.org/1999/xlink">
    <title>D41519BA-8ABF-484A-B2C8-E84B2C1E3F5F</title>
    <defs>
        <polygon id="path-1" points="0 41.8450185 49.9432602 41.8450185 49.9432602 0.0843099631 0 0.0843099631"></polygon>
    </defs>
    <g id="Page-1" stroke="none" stroke-width="1" fill="none" fill-rule="evenodd">
        <g id="juno-website-workshop-landing-page" transform="translate(-741.000000, -1309.000000)">
            <g id="Group-51" transform="translate(741.000000, 1309.000000)">
                <polygon id="Fill-1" fill="#E9593D" points="23.331348 33.0188192 33.6420063 33.0188192 33.6420063 31.0950332 23.331348 31.0950332"></polygon>
                <polygon id="Fill-2" fill="#E9593D" points="17.2905329 30.7889292 23.8999373 24.2536672 17.2905329 17.7184052 15.9149843 19.0783683 21.1489969 24.2536672 15.9149843 29.4288111"></polygon>
                <polygon id="Fill-3" fill="#E9593D" points="45.2206897 9.08842804 46.1087774 9.08842804 46.1087774 8.21030258 45.2206897 8.21030258"></polygon>
                <polygon id="Fill-4" fill="#E9593D" points="46.9984326 7.34287085 47.8865204 7.34287085 47.8865204 6.46474539 46.9984326 6.46474539"></polygon>
                <polygon id="Fill-5" fill="#E9593D" points="45.2206897 5.57623616 46.1087774 5.57623616 46.1087774 4.6981107 45.2206897 4.6981107"></polygon>
                <polygon id="Fill-6" fill="#E9593D" points="46.9984326 3.83067897 47.8865204 3.83067897 47.8865204 2.95255351 46.9984326 2.95255351"></polygon>
                <polygon id="Fill-7" fill="#E9593D" points="41.668652 9.08842804 42.5567398 9.08842804 42.5567398 8.21030258 41.668652 8.21030258"></polygon>
                <polygon id="Fill-8" fill="#E9593D" points="43.446395 7.34287085 44.3344828 7.34287085 44.3344828 6.46474539 43.446395 6.46474539"></polygon>
                <polygon id="Fill-9" fill="#E9593D" points="41.668652 5.57623616 42.5567398 5.57623616 42.5567398 4.6981107 41.668652 4.6981107"></polygon>
                <polygon id="Fill-10" fill="#E9593D" points="43.446395 3.83067897 44.3344828 3.83067897 44.3344828 2.95255351 43.446395 2.95255351"></polygon>
                <polygon id="Fill-11" fill="#E9593D" points="38.1166144 9.08842804 39.0047022 9.08842804 39.0047022 8.21030258 38.1166144 8.21030258"></polygon>
                <polygon id="Fill-12" fill="#E9593D" points="39.8945141 7.34287085 40.7826019 7.34287085 40.7826019 6.46474539 39.8945141 6.46474539"></polygon>
                <polygon id="Fill-13" fill="#E9593D" points="38.1166144 5.57623616 39.0047022 5.57623616 39.0047022 4.6981107 38.1166144 4.6981107"></polygon>
                <polygon id="Fill-14" fill="#E9593D" points="39.8945141 3.83067897 40.7826019 3.83067897 40.7826019 2.95255351 39.8945141 2.95255351"></polygon>
                <polygon id="Fill-15" fill="#E9593D" points="34.5645768 9.08842804 35.4526646 9.08842804 35.4526646 8.21030258 34.5645768 8.21030258"></polygon>
                <polygon id="Fill-16" fill="#E9593D" points="36.3423197 7.34287085 37.2304075 7.34287085 37.2304075 6.46474539 36.3423197 6.46474539"></polygon>
                <polygon id="Fill-17" fill="#E9593D" points="34.5645768 5.57623616 35.4526646 5.57623616 35.4526646 4.6981107 34.5645768 4.6981107"></polygon>
                <polygon id="Fill-18" fill="#E9593D" points="36.3423197 3.83067897 37.2304075 3.83067897 37.2304075 2.95255351 36.3423197 2.95255351"></polygon>
                <polygon id="Fill-19" fill="#E9593D" points="31.0125392 9.08842804 31.900627 9.08842804 31.900627 8.21030258 31.0125392 8.21030258"></polygon>
                <polygon id="Fill-20" fill="#E9593D" points="32.7902821 7.34287085 33.6783699 7.34287085 33.6783699 6.46474539 32.7902821 6.46474539"></polygon>
                <polygon id="Fill-21" fill="#E9593D" points="31.0125392 5.57623616 31.900627 5.57623616 31.900627 4.6981107 31.0125392 4.6981107"></polygon>
                <polygon id="Fill-22" fill="#E9593D" points="32.7902821 3.83067897 33.6783699 3.83067897 33.6783699 2.95255351 32.7902821 2.95255351"></polygon>
                <polygon id="Fill-23" fill="#E9593D" points="27.4605016 9.08842804 28.3485893 9.08842804 28.3485893 8.21030258 27.4605016 8.21030258"></polygon>
                <polygon id="Fill-24" fill="#E9593D" points="29.2384013 7.34287085 30.126489 7.34287085 30.126489 6.46474539 29.2384013 6.46474539"></polygon>
                <polygon id="Fill-25" fill="#E9593D" points="27.4605016 5.57623616 28.3485893 5.57623616 28.3485893 4.6981107 27.4605016 4.6981107"></polygon>
                <polygon id="Fill-26" fill="#E9593D" points="29.2384013 3.83067897 30.126489 3.83067897 30.126489 2.95255351 29.2384013 2.95255351"></polygon>
                <polygon id="Fill-27" fill="#E9593D" points="23.9084639 9.08842804 24.7965517 9.08842804 24.7965517 8.21030258 23.9084639 8.21030258"></polygon>
                <polygon id="Fill-28" fill="#E9593D" points="25.6863636 7.34287085 26.5744514 7.34287085 26.5744514 6.46474539 25.6863636 6.46474539"></polygon>
                <polygon id="Fill-29" fill="#E9593D" points="23.9084639 5.57623616 24.7965517 5.57623616 24.7965517 4.6981107 23.9084639 4.6981107"></polygon>
                <polygon id="Fill-30" fill="#E9593D" points="25.6863636 3.83067897 26.5744514 3.83067897 26.5744514 2.95255351 25.6863636 2.95255351"></polygon>
                <polygon id="Fill-31" fill="#E9593D" points="20.3564263 9.08842804 21.2445141 9.08842804 21.2445141 8.21030258 20.3564263 8.21030258"></polygon>
                <polygon id="Fill-32" fill="#E9593D" points="22.1341693 7.34287085 23.0222571 7.34287085 23.0222571 6.46474539 22.1341693 6.46474539"></polygon>
                <polygon id="Fill-33" fill="#E9593D" points="20.3564263 5.57623616 21.2445141 5.57623616 21.2445141 4.6981107 20.3564263 4.6981107"></polygon>
                <polygon id="Fill-34" fill="#E9593D" points="22.1341693 3.83067897 23.0222571 3.83067897 23.0222571 2.95255351 22.1341693 2.95255351"></polygon>
                <polygon id="Fill-35" fill="#E9593D" points="16.8045455 9.08827306 17.6926332 9.08827306 17.6926332 8.2101476 16.8045455 8.2101476"></polygon>
                <polygon id="Fill-36" fill="#E9593D" points="18.5822884 7.34287085 19.4703762 7.34287085 19.4703762 6.46474539 18.5822884 6.46474539"></polygon>
                <polygon id="Fill-37" fill="#E9593D" points="18.5822884 3.83067897 19.4703762 3.83067897 19.4703762 2.95255351 18.5822884 2.95255351"></polygon>
                <polygon id="Fill-38" fill="#E9593D" points="13.2525078 9.08827306 14.1405956 9.08827306 14.1405956 8.2101476 13.2525078 8.2101476"></polygon>
                <polygon id="Fill-39" fill="#E9593D" points="9.70047022 9.08827306 10.588558 9.08827306 10.588558 8.2101476 9.70047022 8.2101476"></polygon>
                <polygon id="Fill-40" fill="#E9593D" points="11.4782132 3.83067897 12.3663009 3.83067897 12.3663009 2.95255351 11.4782132 2.95255351"></polygon>
                <polygon id="Fill-41" fill="#E9593D" points="6.1484326 9.08827306 7.03652038 9.08827306 7.03652038 8.2101476 6.1484326 8.2101476"></polygon>
                <g id="Group-50" transform="translate(0.000000, 0.070672)">
                    <path d="M10.1464107,4.37858524 C10.7432759,4.37858524 11.2288558,4.85871808 11.2288558,5.44888782 C11.2288558,6.03921255 10.7432759,6.51934539 10.1464107,6.51934539 C9.54954545,6.51934539 9.06396552,6.03921255 9.06396552,5.44888782 C9.06396552,4.85871808 9.54954545,4.37858524 10.1464107,4.37858524 L10.1464107,4.37858524 Z M8.814279,6.88060738 C9.16537618,7.20033432 9.63246082,7.39747085 10.1464107,7.39747085 C10.6602038,7.39747085 11.1271317,7.2004893 11.4782288,6.88076236 L11.4782288,7.27209077 L12.3663166,7.27209077 L12.3663166,6.39396531 L11.8681975,6.39396531 C12.0261912,6.11391365 12.1169436,5.79186199 12.1169436,5.44888782 C12.1169436,4.37455572 11.232931,3.50045978 10.1464107,3.50045978 C9.05989028,3.50045978 8.17587774,4.37455572 8.17587774,5.44888782 C8.17587774,5.79186199 8.26663009,6.11391365 8.42462382,6.39396531 L7.92619122,6.39396531 L7.92619122,7.27209077 L8.814279,7.27209077 L8.814279,6.88060738 Z" id="Fill-42" fill="#E9593D"></path>
                    <mask id="mask-2" fill="white">
                        <use xlink:href="#path-1"></use>
                    </mask>
                    <g id="Clip-45"></g>
                    <polygon id="Fill-44" fill="#E9593D" mask="url(#mask-2)" points="7.92617555 3.76000738 8.81426332 3.76000738 8.81426332 2.88188192 7.92617555 2.88188192"></polygon>
                    <polygon id="Fill-46" fill="#E9593D" mask="url(#mask-2)" points="2.59639498 9.01775646 3.48448276 9.01775646 3.48448276 8.139631 2.59639498 8.139631"></polygon>
                    <path d="M48.6817398,38.4406937 C48.6817398,39.5765535 47.7472571,40.5007085 46.5983542,40.5007085 L3.34474922,40.5007085 C2.19600313,40.5007085 1.26152038,39.5765535 1.26152038,38.4406937 L1.26152038,10.8992325 L48.6817398,10.8992325 L48.6817398,38.4406937 Z M2.59647335,1.45310701 L2.59647335,1.99321771 L3.48440439,1.99321771 L3.48440439,1.40134317 L6.14851097,1.40134317 L6.14851097,1.99321771 L7.03644201,1.99321771 L7.03644201,1.40134317 L9.70039185,1.40134317 L9.70039185,1.99321771 L10.5884796,1.99321771 L10.5884796,1.40134317 L13.2524295,1.40134317 L13.2524295,1.99321771 L14.1405172,1.99321771 L14.1405172,1.40134317 L16.8046238,1.40134317 L16.8046238,1.99321771 L17.6925549,1.99321771 L17.6925549,1.40134317 L20.3565047,1.40134317 L20.3565047,1.99321771 L21.2445925,1.99321771 L21.2445925,1.40134317 L23.9085423,1.40134317 L23.9085423,1.99321771 L24.7966301,1.99321771 L24.7966301,1.40134317 L27.4605799,1.40134317 L27.4605799,1.99321771 L28.3486677,1.99321771 L28.3486677,1.40134317 L31.0126176,1.40134317 L31.0126176,1.99321771 L31.9007053,1.99321771 L31.9007053,1.40134317 L34.5646552,1.40134317 L34.5646552,1.99321771 L35.4527429,1.99321771 L35.4527429,1.40134317 L38.1166928,1.40134317 L38.1166928,1.99321771 L39.0047806,1.99321771 L39.0047806,1.40134317 L41.6687304,1.40134317 L41.6687304,1.99321771 L42.5566614,1.99321771 L42.5566614,1.40134317 L45.220768,1.40134317 L45.220768,1.99321771 L46.1086991,1.99321771 L46.1086991,1.40134317 L46.9391066,1.40134317 C47.8612069,1.40134317 48.6113636,2.14292989 48.6113636,3.05468635 L48.6113636,9.5818893 L1.33205329,9.5818893 L1.33205329,7.27204428 L1.71010972,7.27204428 L1.71010972,6.3940738 L1.33205329,6.3940738 L1.33205329,3.76000738 L1.71010972,3.76000738 L1.71010972,2.88188192 L1.34130094,2.88188192 C1.41465517,2.18678967 1.92609718,1.62017712 2.59647335,1.45310701 L2.59647335,1.45310701 Z M46.9391066,0.0843099631 L3.00415361,0.0843099631 C1.34804075,0.0843099631 7.8369906e-05,1.41637638 7.8369906e-05,3.05468635 L7.8369906e-05,38.8746421 C7.8369906e-05,40.513107 1.34804075,41.8450185 3.00415361,41.8450185 L46.9391066,41.8450185 C48.5961599,41.8450185 49.9433386,40.513107 49.9433386,38.8746421 L49.9433386,3.05468635 C49.9433386,1.41637638 48.5961599,0.0843099631 46.9391066,0.0843099631 L46.9391066,0.0843099631 Z" id="Fill-47" fill="#E9593D" mask="url(#mask-2)"></path>
                    <path d="M5.25148903,4.37858524 C5.84835423,4.37858524 6.33393417,4.85871808 6.33393417,5.44888782 C6.33393417,6.03921255 5.84835423,6.51934539 5.25148903,6.51934539 C4.65462382,6.51934539 4.16904389,6.03921255 4.16904389,5.44888782 C4.16904389,4.85871808 4.65462382,4.37858524 5.25148903,4.37858524 M5.25148903,7.39747085 C6.3380094,7.39747085 7.22202194,6.52337491 7.22202194,5.44888782 C7.22202194,4.3781203 6.34380878,3.50681402 5.26214734,3.50092472 L5.26214734,2.88192841 L4.3742163,2.88192841 L4.3742163,3.7068952 C3.9765674,3.90341181 3.65587774,4.22840812 3.46716301,4.62733063 L2.59647335,4.62733063 L2.59647335,5.50545609 L3.28393417,5.50545609 C3.31449843,6.55359631 4.18424765,7.39747085 5.25148903,7.39747085" id="Fill-48" fill="#E9593D" mask="url(#mask-2)"></path>
                    <path d="M15.0412382,4.37858524 C15.6381034,4.37858524 16.1236834,4.85871808 16.1236834,5.44888782 C16.1236834,6.03921255 15.6381034,6.51934539 15.0412382,6.51934539 C14.444373,6.51934539 13.9587931,6.03921255 13.9587931,5.44888782 C13.9587931,4.85871808 14.444373,4.37858524 15.0412382,4.37858524 M15.0412382,7.39747085 C16.1084796,7.39747085 16.9782288,6.55359631 17.0087931,5.50545609 L17.6926489,5.50545609 L17.6926489,4.62733063 L16.8255643,4.62733063 C16.6368495,4.22840812 16.3160031,3.90325683 15.9183542,3.70674022 L15.9183542,2.88192841 L15.0302665,2.88192841 L15.0302665,3.50092472 C13.9489185,3.506969 13.0707053,4.3781203 13.0707053,5.44888782 C13.0707053,6.52337491 13.9547179,7.39747085 15.0412382,7.39747085" id="Fill-49" fill="#E9593D" mask="url(#mask-2)"></path>
                </g>
            </g>
        </g>
    </g>
</svg>