<?xml version="1.0" encoding="UTF-8"?>
<svg width="40px" height="51px" viewBox="0 0 40 51" version="1.1" xmlns="http://www.w3.org/2000/svg" xmlns:xlink="http://www.w3.org/1999/xlink">
    <title>8322679B-7811-4D63-A937-78AB6D5E6D16</title>
    <defs>
        <polygon id="path-1" points="0 0.0275043495 39.9950958 0.0275043495 39.9950958 49.8466258 0 49.8466258"></polygon>
    </defs>
    <g id="Page-1" stroke="none" stroke-width="1" fill="none" fill-rule="evenodd">
        <g id="juno-website-workshop-landing-page" transform="translate(-151.000000, -1545.000000)">
            <g id="Group-109" transform="translate(151.000000, 1545.000000)">
                <polygon id="Fill-1" fill="#E9593D" points="32.2398927 28.5229448 33.1263295 28.720184 33.3243372 27.8330675 32.4369808 27.6358282"></polygon>
                <polygon id="Fill-2" fill="#E9593D" points="34.4046437 27.1601687 35.2912337 27.357408 35.4890881 26.4702914 34.6017318 26.2730521"></polygon>
                <polygon id="Fill-3" fill="#E9593D" points="33.0289195 24.9721166 33.9162759 25.1693558 34.113364 24.2822393 33.2269272 24.085"></polygon>
                <polygon id="Fill-4" fill="#E9593D" points="35.1936705 23.6092791 36.0810268 23.8065184 36.2781149 22.9192485 35.3916782 22.7221626"></polygon>
                <polygon id="Fill-5" fill="#E9593D" points="34.9028046 20.7308896 34.0154483 20.5336503 33.8183602 21.4209202 34.7047969 21.6181595"></polygon>
                <polygon id="Fill-6" fill="#E9593D" points="35.9830805 20.0584509 36.8696705 20.2556902 37.0675249 19.3684202 36.1801686 19.171181"></polygon>
                <polygon id="Fill-7" fill="#E9593D" points="35.6917548 17.1800613 34.805318 16.9828221 34.6073103 17.870092 35.4946667 18.0673313"></polygon>
                <polygon id="Fill-8" fill="#E9593D" points="36.7721226 16.5076227 37.6594789 16.704862 37.856567 15.817592 36.9701303 15.6203528"></polygon>
                <polygon id="Fill-9" fill="#E9593D" points="36.4807969 13.6292331 35.5942069 13.4319939 35.3963525 14.3192638 36.2837088 14.5165031"></polygon>
                <polygon id="Fill-10" fill="#E9593D" points="29.2780996 33.4718098 30.1646897 33.6699693 30.3625441 32.7819325 29.4751877 32.5846933"></polygon>
                <polygon id="Fill-11" fill="#E9593D" points="27.9023142 31.283819 28.7896705 31.4819785 28.9867586 30.5939417 28.1003218 30.3967025"></polygon>
                <polygon id="Fill-12" fill="#E9593D" points="30.0671418 29.9209816 30.9544981 30.1191411 31.1515862 29.2311043 30.2651494 29.033865"></polygon>
                <g id="Group-108" transform="translate(0.000000, 0.125920)">
                    <path d="M33.1268046,19.2970092 L33.3222069,19.3404141 L33.519295,18.4523773 L33.146728,18.369862 C33.1528582,18.6773773 33.1450421,18.9859663 33.1268046,19.2970092" id="Fill-13" fill="#E9593D"></path>
                    <polygon id="Fill-15" fill="#E9593D" points="34.3084904 14.9018098 33.4219004 14.7036503 33.2238927 15.5918405 34.1114023 15.7890798"></polygon>
                    <path d="M31.8774866,13.2741564 C31.9026207,13.3236963 31.9217778,13.3758436 31.9469119,13.4253834 L32.7352644,13.6008436 L32.9323525,12.713727 L32.0459157,12.5155675 L31.8774866,13.2741564 Z" id="Fill-17" fill="#E9593D"></path>
                    <polygon id="Fill-19" fill="#E9593D" points="35.0974406 11.3508282 34.2110038 11.1526687 34.0129962 12.0408589 34.9003525 12.2380982"></polygon>
                    <polygon id="Fill-21" fill="#E9593D" points="33.7220996 9.16285276 32.8356628 8.96469325 32.6376552 9.85288344 33.524092 10.0501227"></polygon>
                    <polygon id="Fill-23" fill="#E9593D" points="23.5652567 33.9191718 24.4516935 34.116411 24.6497011 33.2291411 23.7623448 33.0319018"></polygon>
                    <polygon id="Fill-25" fill="#E9593D" points="25.7300077 32.5563957 26.6165977 32.753635 26.8144521 31.866365 25.9270958 31.6691258"></polygon>
                    <path d="M30.4843218,11.1651074 C30.5155862,11.2032975 30.5494559,11.2381135 30.5807203,11.2772239 L31.3526743,11.4483896 L31.5497625,10.5611196 L30.6622529,10.3638804 L30.4843218,11.1651074 Z" id="Fill-27" fill="#E9593D"></path>
                    <polygon id="Fill-29" fill="#E9593D" points="30.1739157 8.37283742 29.2873257 8.17559816 29.0894713 9.0628681 29.9768276 9.26010736"></polygon>
                    <polygon id="Fill-31" fill="#E9593D" points="32.3386667 7.01 31.4522299 6.81276074 31.2542222 7.70003067 32.140659 7.89726994"></polygon>
                    <polygon id="Fill-33" fill="#E9593D" points="30.9633257 4.82202454 30.0759693 4.62478528 29.8788812 5.51205521 30.765318 5.70929448"></polygon>
                    <polygon id="Fill-35" fill="#E9593D" points="21.3928736 35.3175767 22.2794636 35.514816 22.477318 34.6276994 21.5899617 34.4295399"></polygon>
                    <polygon id="Fill-37" fill="#E9593D" points="20.0171494 33.1290798 20.9035862 33.3272393 21.1015939 32.4392025 20.2142375 32.2419632"></polygon>
                    <polygon id="Fill-39" fill="#E9593D" points="22.1819004 31.7663804 23.0684904 31.9645399 23.2663448 31.0763497 22.3789885 30.8791104"></polygon>
                    <path d="M26.6258238,7.58320552 L25.7392337,7.38504601 L25.6724138,7.68581288 C25.9616092,7.79792945 26.2455939,7.9178681 26.5216092,8.05069018 L26.6258238,7.58320552 Z" id="Fill-41" fill="#E9593D"></path>
                    <polygon id="Fill-43" fill="#E9593D" points="28.7905747 6.2203681 27.9041379 6.02220859 27.7061303 6.91039877 28.592567 7.10763804"></polygon>
                    <polygon id="Fill-45" fill="#E9593D" points="27.4152337 4.0323773 26.5278774 3.83421779 26.3307893 4.72240798 27.2172261 4.91964724"></polygon>
                    <polygon id="Fill-47" fill="#E9593D" points="16.4689655 32.3395092 17.3555556 32.5367485 17.55341 31.6494785 16.6660536 31.4522393"></polygon>
                    <path d="M23.0777165,6.79319018 L22.1911264,6.59595092 L22.1198621,6.91312883 C22.4237701,6.93138037 22.7269119,6.95576687 23.0315862,6.99825153 L23.0777165,6.79319018 Z" id="Fill-49" fill="#E9593D"></path>
                    <polygon id="Fill-51" fill="#E9593D" points="25.2424674 5.43042945 24.3558774 5.23319018 24.158023 6.12046012 25.0453793 6.31769939"></polygon>
                    <polygon id="Fill-53" fill="#E9593D" points="23.8671264 3.2423773 22.9797701 3.04513804 22.782682 3.93240798 23.6691188 4.12964724"></polygon>
                    <polygon id="Fill-55" fill="#E9593D" points="14.2965824 33.7380061 15.1830192 33.9352454 15.3810268 33.0479755 14.4936705 32.849816"></polygon>
                    <polygon id="Fill-57" fill="#E9593D" points="12.9207969 31.5495706 13.807387 31.7477301 14.0052414 30.8595399 13.1178851 30.6623006"></polygon>
                    <polygon id="Fill-59" fill="#E9593D" points="19.5296092 6.00363497 18.6430192 5.80547546 18.4450115 6.69351227 19.3325211 6.89075153"></polygon>
                    <polygon id="Fill-61" fill="#E9593D" points="21.6942989 4.6408589 20.8077088 4.44269939 20.6098544 5.3307362 21.4972107 5.52797546"></polygon>
                    <polygon id="Fill-63" fill="#E9593D" points="20.3189425 2.45273006 19.4315862 2.25457055 19.2344981 3.14276074 20.1209349 3.34"></polygon>
                    <polygon id="Fill-65" fill="#E9593D" points="11.5374406 29.3971012 12.4240307 29.5943405 12.6218851 28.7070706 11.7345287 28.5098313"></polygon>
                    <polygon id="Fill-67" fill="#E9593D" points="10.1620996 27.2090491 11.0486897 27.4062883 11.2465441 26.5190184 10.3591877 26.3217791"></polygon>
                    <polygon id="Fill-69" fill="#E9593D" points="15.981364 5.21361963 15.0947739 5.01638037 14.8969195 5.90365031 15.7842759 6.10088957"></polygon>
                    <polygon id="Fill-71" fill="#E9593D" points="18.1461916 3.85078221 17.2596015 3.65354294 17.0615939 4.54081288 17.9491034 4.73805215"></polygon>
                    <polygon id="Fill-73" fill="#E9593D" points="7.98933333 28.607454 8.87592337 28.8046933 9.07377778 27.9175767 8.18642146 27.7194172"></polygon>
                    <polygon id="Fill-75" fill="#E9593D" points="6.61354789 26.4190337 7.50090421 26.6171933 7.69799234 25.7291564 6.81155556 25.5319172"></polygon>
                    <polygon id="Fill-77" fill="#E9593D" points="8.77829885 25.0562577 9.66565517 25.2544172 9.8627433 24.366227 8.97630651 24.1689877"></polygon>
                    <polygon id="Fill-79" fill="#E9593D" points="7.40303448 22.8681288 8.28947126 23.0662883 8.48747893 22.1782515 7.60012261 21.9810123"></polygon>
                    <polygon id="Fill-81" fill="#E9593D" points="10.8548199 11.5257055 9.96822989 11.327546 9.77037548 12.2157362 10.6577318 12.4129755"></polygon>
                    <polygon id="Fill-83" fill="#E9593D" points="11.6442299 7.9748773 10.7568736 7.77671779 10.5597854 8.66490798 11.4462222 8.86214724"></polygon>
                    <polygon id="Fill-85" fill="#E9593D" points="13.8090575 6.61203988 12.9217011 6.41388037 12.724613 7.30207055 13.6110498 7.49930982"></polygon>
                    <polygon id="Fill-87" fill="#E9593D" points="12.4332567 4.42404908 11.5466667 4.22588957 11.3488123 5.11392638 12.2361686 5.31116564"></polygon>
                    <polygon id="Fill-89" fill="#E9593D" points="7.10363218 20.0254601 6.21704215 19.8282209 6.01918774 20.7154908 6.90654406 20.9127301"></polygon>
                    <polygon id="Fill-91" fill="#E9593D" points="4.64381609 18.5277454 5.53117241 18.7249847 5.72826054 17.8377147 4.84182375 17.6404755"></polygon>
                    <polygon id="Fill-93" fill="#E9593D" points="6.80856705 17.1649693 7.69592337 17.3622086 7.89301149 16.4749387 7.00657471 16.2776994"></polygon>
                    <polygon id="Fill-95" fill="#E9593D" points="8.68206897 12.9237423 7.79547893 12.7265031 7.59762452 13.613773 8.48498084 13.8110123"></polygon>
                    <polygon id="Fill-97" fill="#E9593D" points="7.30671264 10.7356902 6.42012261 10.5384509 6.2222682 11.4255675 7.10962452 11.6228067"></polygon>
                    <polygon id="Fill-99" fill="#E9593D" points="9.4714636 9.37292945 8.58502682 9.17569018 8.38701916 10.0629601 9.27437548 10.2601994"></polygon>
                    <path d="M33.2862682,21.3394785 C33.3487969,21.0580368 33.1707126,20.7781288 32.8894866,20.7157055 C32.6090268,20.6591104 32.3293333,20.8311963 32.2660383,21.112638 C31.7659617,23.3667791 30.6015172,25.3818098 28.8962299,26.9397853 C26.6942375,28.952362 23.8358467,29.9871779 20.8620536,29.8517485 C17.8821303,29.7169325 15.1340843,28.4282822 13.1222835,26.2247546 C8.97101916,21.674908 9.29055939,14.5930061 13.8378391,10.4370245 C14.5662682,9.76785276 15.3815939,9.20052147 16.2602146,8.75113497 C16.5173793,8.61907975 16.6188352,8.3045092 16.4878008,8.04822086 C16.4798314,8.03257669 16.4660383,8.02383436 16.4573027,8.01003067 C16.7351571,7.87782209 17.0156169,7.7509816 17.3038927,7.64147239 L17.3569195,7.40174847 L16.4695632,7.2045092 L16.3227433,7.86570552 C16.1691801,7.75711656 15.9641226,7.72843558 15.7843525,7.81969325 C15.3311724,8.05174847 14.8962299,8.31846626 14.4767663,8.60527607 L14.3048123,8.56693252 L14.2623602,8.76079755 C13.8698697,9.04223926 13.4887203,9.33947853 13.132705,9.66616564 C12.9825134,9.80343558 12.8505594,9.95205521 12.7098697,10.093773 L12.1325517,9.96509202 L11.9354636,10.8531288 L12.0022835,10.8680061 C10.9628966,12.1121779 10.2065747,13.5190798 9.73944828,15.0040491 L9.17868199,14.8788957 L8.98159387,15.7661656 L9.49117241,15.8799693 C9.28105747,16.774908 9.18297318,17.6891718 9.17607663,18.6049693 L8.3892567,18.4293558 L8.19232184,19.3173926 L9.07967816,19.5147853 L9.17684291,19.0733742 C9.26373946,21.8903988 10.3081839,24.690092 12.351249,26.9302761 C13.2291034,27.891319 14.2389119,28.6854908 15.3373027,29.3112577 L15.28259,29.2989877 L15.0855019,30.1870245 L15.9728582,30.3842638 L16.1187586,29.7256748 C16.9435862,30.1184663 17.8153103,30.4103374 18.7156935,30.6084969 L18.6341609,30.9769018 L19.5205977,31.1741411 L19.6082605,30.7822699 C20.0059617,30.8396319 20.407954,30.8778221 20.8143908,30.8960736 C21.0036628,30.904816 21.1920153,30.9083436 21.3803678,30.9083436 C22.5196782,30.9083436 23.6370728,30.7519018 24.70941,30.4468405 L25.2416705,30.5658589 L25.3120153,30.2460736 C26.8436628,29.7230675 28.2684904,28.9000613 29.5083372,27.7887117 L29.578682,27.8043558 L29.5986054,27.7132515 C29.5995249,27.7123313 29.6004444,27.7123313 29.601364,27.711411 C30.0919387,27.2630982 30.5389885,26.7781288 30.9454253,26.2637117 L31.7432797,26.4419325 L31.9412874,25.5546626 L31.5270345,25.462638 C32.3563065,24.2173926 32.9563065,22.8272086 33.2862682,21.3394785" id="Fill-101" fill="#E9593D"></path>
                    <g id="Group-105">
                        <mask id="mask-2" fill="white">
                            <use xlink:href="#path-1"></use>
                        </mask>
                        <g id="Clip-104"></g>
                        <path d="M38.8537318,18.689954 C38.7694406,19.0244632 38.6322759,19.3494632 38.4282912,19.6457822 C38.1061456,20.1410276 37.8534253,20.6703221 37.6589425,21.2184816 L37.5634636,21.1977761 L37.3663755,22.0848926 L37.401931,22.0927147 C37.2039234,22.9842791 37.1676015,23.9131135 37.3064521,24.8359663 C37.3081379,24.8463957 37.3073716,24.8568252 37.3090575,24.8672546 L36.7741916,24.7482362 L36.5771034,25.6353528 L37.3081379,25.7986963 C37.1545747,26.7381135 36.5510498,27.5749233 35.6575632,28.0023773 C34.2457625,28.7000767 33.1309732,29.8384202 32.4049962,31.2287577 L31.647908,31.0601994 L31.4508199,31.9482362 L31.9864521,32.0672546 C31.487295,33.2117331 30.2995556,33.9328988 29.0483678,33.833819 C28.8034636,33.8181748 28.5594789,33.8181748 28.3154943,33.8269172 L28.3084444,33.8025307 L28.1800153,33.8373466 C27.9889042,33.8477761 27.7988659,33.8625 27.6095939,33.8876534 L27.3108966,33.8207822 L27.2839234,33.9433282 C26.0900536,34.1571319 24.9561073,34.6559049 23.9836935,35.4266104 C22.9729655,36.2608129 21.5133487,36.3241564 20.424613,35.5700153 C19.8262989,35.1772239 19.1812414,34.8792178 18.5082912,34.6758436 L18.731433,34.7244632 L18.9285211,33.8373466 L18.0420843,33.6401074 L17.8449962,34.5246166 C17.3622375,34.4264571 16.8724291,34.3586656 16.3758774,34.3586656 C15.9971801,34.3586656 15.6161839,34.3873466 15.236567,34.4463957 C13.944613,34.6654141 12.6474483,33.9824387 12.081318,32.7824387 C12.0049962,32.6295245 11.8990958,32.4965491 11.8121992,32.3497699 L11.8321226,32.257592 L11.7427739,32.2376534 C11.3554943,31.6092791 10.8978697,31.0358129 10.349977,30.5509969 L10.4567969,30.0695552 L9.56944061,29.872316 L9.55380843,29.9444018 C9.36882759,29.8201687 9.172659,29.7151074 8.97633716,29.6072853 L8.79150958,29.4517638 L8.75503448,29.4951687 C8.55702682,29.3944018 8.37036015,29.2761503 8.16101149,29.1928681 C6.92990038,28.7365798 6.14583908,27.502684 6.25603065,26.1793712 C6.29081992,25.5727761 6.24484291,24.9706288 6.13541762,24.3824387 L6.3142682,23.5759969 L5.91748659,23.4882669 C5.69081992,22.7766104 5.35227586,22.1023773 4.91809962,21.4809049 L4.93894253,21.3879601 L4.83564751,21.3654141 C4.7748046,21.2819785 4.71917241,21.1950153 4.65511111,21.1143405 C3.824,20.1020706 3.7623908,18.6404141 4.51089655,17.5506902 C5.02308046,16.7678681 5.3748046,15.9049847 5.5623908,15.0055982 L6.32039847,15.1741564 L6.51748659,14.2861196 L5.68744828,14.1019172 C5.73511111,13.5258436 5.72208429,12.9427147 5.63350192,12.3605061 C5.42001533,11.0623466 6.09894253,9.76157975 7.29802299,9.19072086 C8.93388506,8.35912577 10.1997854,6.95667178 10.8613946,5.23780675 C11.2886743,4.08826687 12.3904368,3.32875767 13.6094406,3.32016871 L13.5130421,3.75115031 L14.4005517,3.94838957 L14.538636,3.33136503 C16.1309732,3.28796012 17.674728,2.73182515 18.9424674,1.72906442 C19.6805517,1.12691718 20.6485211,0.942714724 21.5341916,1.17384969 L21.3987126,1.78044479 L22.286069,1.97768405 L22.3807816,1.55007669 C22.4164904,1.57354294 22.4537318,1.58918712 22.4876015,1.61357362 L22.5058391,1.62661043 C24.0374866,2.6232362 25.8764138,3.02216258 27.692046,2.74915644 C28.0099004,2.69624233 28.3259157,2.69792945 28.6315096,2.74578221 L28.4952644,3.36004601 L29.3826207,3.55728528 L29.5006284,3.02722393 C30.0797854,3.31756135 30.566069,3.79455521 30.8577165,4.41234663 C31.6774866,6.04946319 33.0658391,7.32338957 34.778023,8.00283742 C34.8197088,8.0184816 34.8569502,8.04194785 34.8978697,8.05927914 L34.8022375,8.49041411 L35.6888276,8.68765337 L35.7131954,8.5815184 C36.0751877,8.91004601 36.348751,9.32277607 36.5136552,9.78412577 L36.383387,9.75559816 L36.1855326,10.6427147 L36.6830038,10.753911 C36.6839234,10.839954 36.6908199,10.9250767 36.6839234,11.0128067 C36.5702069,12.8402607 37.1328123,14.6371933 38.2754943,16.0830521 C38.6817778,16.5732362 38.9023142,17.1692485 38.9397088,17.7775307 L38.3527356,17.6463957 L38.1556475,18.5344325 L38.8537318,18.689954 Z M30.5390958,46.2187883 L24.4941916,44.4427147 C24.3300536,44.3957822 24.1469119,44.431365 24.0123525,44.5434816 L19.4112797,48.3937883 L16.0302835,35.438727 C17.3752644,35.364954 18.7115096,35.6959356 19.8410115,36.4371933 C20.5236169,36.9089724 21.3180996,37.1419479 22.109977,37.1419479 C23.0138851,37.1419479 23.9142682,36.8385736 24.6391724,36.2390337 C25.4892874,35.5655675 26.4894406,35.1433282 27.539249,34.9677147 L30.5390958,46.2187883 Z M10.6659923,46.4482362 L8.12974713,41.0121933 C8.05603065,40.853911 7.90844444,40.743635 7.73649042,40.7166411 L1.51794636,39.7513037 L8.9999387,30.8290644 C9.90200766,31.4398006 10.6495939,32.2601994 11.1427739,33.2394939 C11.8373333,34.7166411 13.3708199,35.6020706 14.9700536,35.5143405 L16.126682,39.9450153 L10.6659923,46.4482362 Z M39.087295,15.4253834 C38.1113563,14.1914877 37.6285977,12.647316 37.7259157,11.0876534 C37.8690575,9.31495399 36.8071418,7.64317485 35.1513563,7.02615031 C33.6900536,6.44654908 32.4961839,5.3517638 31.7973333,3.95452454 C31.0348812,2.3434816 29.2748812,1.42154908 27.5288276,1.71602761 C25.9763372,1.95161043 24.3996322,1.60743865 23.0840766,0.754984663 C21.6341149,-0.271088957 19.6613946,-0.206058282 18.2886743,0.914033742 C17.0538851,1.89072086 15.5162605,2.37216258 13.9429272,2.27645706 C12.1769502,2.13320552 10.5010881,3.20636503 9.88545594,4.86771472 C9.31763985,6.33980061 8.23059004,7.54409509 6.83702682,8.25222393 C5.23242912,9.01694785 4.31380843,10.7755368 4.60208429,12.5256902 C4.84070498,14.080138 4.49786973,15.6617331 3.6434636,16.9684816 C2.63963218,18.430138 2.72392337,20.4069785 3.84147126,21.7694018 C4.81740996,23.0042178 5.30445977,24.5483896 5.21419157,26.106365 C5.06568582,27.8816718 6.12852107,29.5542178 7.78691188,30.168635 C7.88591571,30.2077454 7.97357854,30.268635 8.06997701,30.3120399 L0.122544061,39.7894939 C0.00101149425,39.933819 -0.0328582375,40.1327454 0.0331954023,40.3091258 C0.100015326,40.4855061 0.256337165,40.6125 0.442084291,40.6419479 L7.30062835,41.7072853 L10.0661456,47.6316718 C10.1415479,47.7942485 10.2935785,47.906365 10.4707433,47.9298313 C10.493272,47.9324387 10.5167203,47.9341258 10.539249,47.9341258 C10.6921992,47.9341258 10.8388659,47.8663344 10.938636,47.747316 L16.4505134,41.185046 L18.6089808,49.4565184 C18.6541916,49.6293712 18.7844598,49.7675613 18.9545747,49.8213957 C19.0076015,49.8388804 19.0606284,49.8467025 19.1144215,49.8467025 C19.2350345,49.8467025 19.3539617,49.8049847 19.4495939,49.7258436 L24.4681379,45.5244632 L31.1355709,47.4848926 C31.3188659,47.5378067 31.5124291,47.4884202 31.647908,47.3571319 C31.7824674,47.2250767 31.8362605,47.0304448 31.7876782,46.8479294 L28.5985594,34.8868865 C28.7234636,34.8868865 28.8477548,34.8678681 28.9744981,34.8766104 C30.7527356,35.0129601 32.4198621,33.9502301 33.0319693,32.2905675 C33.6128123,30.8272239 34.7102835,29.6368865 36.1135019,28.9416411 C37.7179464,28.1761503 38.6322759,26.4164877 38.338023,24.6709356 C38.1035402,23.1163344 38.4465287,21.5339724 39.2964904,20.2263037 C40.3020077,18.7620399 40.2134253,16.7835123 39.087295,15.4253834 L39.087295,15.4253834 Z" id="Fill-103" fill="#E9593D" mask="url(#mask-2)"></path>
                    </g>
                    <path d="M24.5229579,20.1230521 C24.3761379,20.2133896 24.2841839,20.3707515 24.2745287,20.5419172 L24.0757548,24.6485123 L20.9447203,21.9983589 C20.8501609,21.9175307 20.7295479,21.8748926 20.6078621,21.8748926 C20.5628046,21.8748926 20.5166743,21.8808742 20.4716169,21.8931442 L16.5096245,22.9653834 L18.0630345,19.1664571 C18.127249,19.007408 18.109931,18.8265798 18.0169042,18.6831748 L15.7733793,15.2422239 L19.8576705,15.5489724 C20.0348352,15.5629294 20.1963678,15.4890031 20.3048736,15.3560276 L22.8785134,12.1566411 L23.8500077,16.1442178 C23.8907739,16.3118558 24.0115402,16.4483589 24.1712337,16.5092485 L28.0081686,17.9716718 L24.5229579,20.1230521 Z M23.6434176,10.8801074 C23.5965211,10.6863957 23.4428046,10.5370092 23.2490881,10.4934509 C23.0555249,10.4474387 22.8532261,10.5204448 22.7290881,10.6759663 L19.6631877,14.4862423 L14.7982069,14.1204448 C14.5951418,14.1109356 14.4101609,14.2038804 14.3094713,14.375046 C14.2078621,14.5462117 14.2121533,14.7600153 14.320659,14.9268865 L16.9923831,19.0247393 L15.1421149,23.547592 C15.0674789,23.7317945 15.1030345,23.9429908 15.234069,24.0916104 C15.366023,24.2400767 15.5701609,24.3026534 15.7620383,24.2505061 L20.4801992,22.9732055 L24.2086284,26.1308742 C24.3050268,26.2117025 24.4248736,26.2543405 24.5454866,26.2543405 C24.6158314,26.2543405 24.6870958,26.2403834 24.7539157,26.2109356 C24.9362912,26.1317945 25.0578238,25.9554141 25.0673257,25.7572546 L25.3051801,20.867684 L29.457364,18.306181 C29.6265594,18.2009663 29.7221916,18.009862 29.7030345,17.8117025 C29.6847969,17.6135429 29.554682,17.4432975 29.3697011,17.3719785 L24.7998927,15.6305675 L23.6434176,10.8801074 Z" id="Fill-106" fill="#E9593D"></path>
                </g>
            </g>
        </g>
    </g>
</svg>