<?xml version="1.0" encoding="UTF-8"?>
<svg width="38px" height="58px" viewBox="0 0 38 58" version="1.1" xmlns="http://www.w3.org/2000/svg" xmlns:xlink="http://www.w3.org/1999/xlink">
    <title>7B726551-2A41-421A-BF74-E86291F7B27E</title>
    <defs>
        <polygon id="path-1" points="0 0.0922962963 37.8916627 0.0922962963 37.8916627 47.8896296 0 47.8896296"></polygon>
        <polygon id="path-3" points="0 58 38 58 38 0 0 0"></polygon>
    </defs>
    <g id="Page-1" stroke="none" stroke-width="1" fill="none" fill-rule="evenodd">
        <g id="juno-website-workshop-landing-page" transform="translate(-747.000000, -1544.000000)">
            <g id="Group-71" transform="translate(747.000000, 1544.000000)">
                <g id="Group-3" transform="translate(0.000000, 9.000000)">
                    <mask id="mask-2" fill="white">
                        <use xlink:href="#path-1"></use>
                    </mask>
                    <g id="Clip-2"></g>
                    <path d="M37.0453804,22.8026667 C37.0443373,24.3505185 37.0431451,25.8983704 37.0431451,27.4463704 L37.0431451,43.6906667 C37.0431451,45.0554074 36.5655373,46.0943704 35.5826039,46.8651852 C35.5803686,45.6374815 35.5805176,44.4096296 35.5806667,43.1819259 C35.5808157,42.0671111 35.5809647,40.9522963 35.5793255,39.8374815 C35.5712784,34.4379259 31.1629804,30.0145185 25.7525255,29.9768889 C21.2957961,29.9465185 16.7115059,29.9465185 12.1270667,29.9768889 C6.71705882,30.0128889 2.31367843,34.4414815 2.31084706,39.8488889 C2.3104,40.6134815 2.3104,41.3779259 2.3104,42.1422222 C2.3104,43.7154074 2.3104,45.2882963 2.30578039,46.8611852 C2.30578039,46.8657778 2.30578039,46.8703704 2.30592941,46.8751111 L2.30563137,46.8751111 C1.33044706,46.0940741 0.854180392,45.0888889 0.849411765,43.8016296 C0.842854902,41.8311111 0.844269779,39.8266667 0.845090196,37.8882963 L0.846133333,35.5911111 L0.845984314,27.5788148 C0.845835294,22.2374815 0.845537255,16.8957037 0.846133333,11.5534815 C0.846878431,6.22725926 5.03522353,1.60162963 10.381302,1.02251852 C10.913451,0.964888889 11.4684,0.936888889 12.0783373,0.936888889 C13.4387373,0.936888889 14.7992863,0.938074074 16.1599843,0.939259259 C19.3457255,0.941925926 22.6396549,0.944888889 25.8803843,0.931703704 C25.8994588,0.931703704 25.9180863,0.931703704 25.9370118,0.931703704 C29.6312078,0.931703704 32.6332078,2.36711111 34.8592627,5.19822222 C36.297302,7.02696296 37.0301804,9.10785185 37.0373333,11.382963 C37.0505961,15.1891852 37.0479137,19.0595556 37.0453804,22.8026667 M37.8816784,11.3801481 C37.8739294,8.91422222 37.080698,6.66044444 35.5243373,4.68133333 C33.1298902,1.636 29.9048078,0.0922962963 25.9377569,0.0922962963 C25.9176392,0.0922962963 25.8970745,0.0922962963 25.8769569,0.0922962963 C22.6386118,0.105481481 19.3454275,0.102666667 16.1607294,0.0998518519 C14.7998824,0.0986666667 13.4390353,0.0974814815 12.0783373,0.0974814815 C11.4375529,0.0974814815 10.852502,0.127111111 10.2899529,0.188148148 C7.48704314,0.491703704 4.88888627,1.82311111 2.97398431,3.93674074 C1.0578902,6.0522963 0.00223529412,8.75718519 0.00178823529,11.5534815 C0.00134117647,16.8957037 0.00149019608,22.2374815 0.00163921569,27.578963 L0.00178823529,35.5911111 L0.000894117647,37.8878519 C-4.10871386e-05,39.8271111 -0.00149019608,41.8322963 0.00506666667,43.8047407 C0.0108784314,45.3392593 0.606658824,46.5921481 1.77541961,47.528 C1.79851765,47.5465185 1.82131765,47.568 1.84501176,47.5896296 C1.95990588,47.694963 2.17166275,47.8896296 2.45897255,47.8896296 C2.53854902,47.8896296 2.62408627,47.8745185 2.71454118,47.8386667 C3.20943529,47.6414815 3.17054118,47.1475556 3.15578824,46.9616296 C3.15295686,46.9281481 3.14997647,46.894963 3.15012549,46.8637037 C3.15459608,45.2900741 3.15459608,43.7162963 3.15459608,42.1422222 C3.15459608,41.3780741 3.15459608,40.6137778 3.15519216,39.8491852 C3.15772549,34.9013333 7.18498039,30.849037 12.1325804,30.8162963 C16.7135922,30.7856296 21.2938588,30.7856296 25.7467137,30.8162963 C30.6956549,30.8505185 34.7276784,34.8980741 34.7349804,39.8386667 C34.7366196,40.9531852 34.7364706,42.0674074 34.7364706,43.1817778 C34.7363216,44.4251852 34.7361725,45.6685926 34.7384078,46.9111111 C34.7384078,46.9374815 34.7364706,46.9653333 34.7346824,46.9934815 C34.724251,47.1684444 34.6962353,47.6327407 35.1537255,47.8302222 C35.5571216,48.0059259 35.856949,47.7377778 35.9849569,47.622963 C36.0056706,47.6041481 36.0260863,47.5853333 36.0462039,47.5700741 C37.2680157,46.6394074 37.8874902,45.3343704 37.8874902,43.6906667 L37.8874902,27.4463704 C37.8874902,25.8985185 37.8885333,24.350963 37.8895765,22.8032593 C37.8922588,19.0592593 37.8947922,15.1881481 37.8816784,11.3801481" id="Fill-1" fill="#E9593D" mask="url(#mask-2)"></path>
                </g>
                <mask id="mask-4" fill="white">
                    <use xlink:href="#path-3"></use>
                </mask>
                <g id="Clip-5"></g>
                <polygon id="Fill-4" fill="#E9593D" mask="url(#mask-4)" points="29 56 30 56 30 55 29 55"></polygon>
                <polygon id="Fill-6" fill="#E9593D" mask="url(#mask-4)" points="31 55 32 55 32 54 31 54"></polygon>
                <polygon id="Fill-7" fill="#E9593D" mask="url(#mask-4)" points="29 53 30 53 30 52 29 52"></polygon>
                <polygon id="Fill-8" fill="#E9593D" mask="url(#mask-4)" points="31 51 32 51 32 50 31 50"></polygon>
                <polygon id="Fill-9" fill="#E9593D" mask="url(#mask-4)" points="29 49 30 49 30 48 29 48"></polygon>
                <polygon id="Fill-10" fill="#E9593D" mask="url(#mask-4)" points="31 48 32 48 32 47 31 47"></polygon>
                <polygon id="Fill-11" fill="#E9593D" mask="url(#mask-4)" points="29 46 30 46 30 45 29 45"></polygon>
                <polygon id="Fill-12" fill="#E9593D" mask="url(#mask-4)" points="26 56 27 56 27 55 26 55"></polygon>
                <polygon id="Fill-13" fill="#E9593D" mask="url(#mask-4)" points="27 55 28 55 28 54 27 54"></polygon>
                <polygon id="Fill-14" fill="#E9593D" mask="url(#mask-4)" points="26 53 27 53 27 52 26 52"></polygon>
                <polygon id="Fill-15" fill="#E9593D" mask="url(#mask-4)" points="27 51 28 51 28 50 27 50"></polygon>
                <polygon id="Fill-16" fill="#E9593D" mask="url(#mask-4)" points="26 49 27 49 27 48 26 48"></polygon>
                <polygon id="Fill-17" fill="#E9593D" mask="url(#mask-4)" points="27 48 28 48 28 47 27 47"></polygon>
                <polygon id="Fill-18" fill="#E9593D" mask="url(#mask-4)" points="26 46 27 46 27 45 26 45"></polygon>
                <polygon id="Fill-19" fill="#E9593D" mask="url(#mask-4)" points="27 44 28 44 28 43 27 43"></polygon>
                <polygon id="Fill-20" fill="#E9593D" mask="url(#mask-4)" points="22 56 23 56 23 55 22 55"></polygon>
                <polygon id="Fill-21" fill="#E9593D" mask="url(#mask-4)" points="24 55 25 55 25 54 24 54"></polygon>
                <polygon id="Fill-22" fill="#E9593D" mask="url(#mask-4)" points="22 53 23 53 23 52 22 52"></polygon>
                <polygon id="Fill-23" fill="#E9593D" mask="url(#mask-4)" points="24 51 25 51 25 50 24 50"></polygon>
                <polygon id="Fill-24" fill="#E9593D" mask="url(#mask-4)" points="22 49 23 49 23 48 22 48"></polygon>
                <polygon id="Fill-25" fill="#E9593D" mask="url(#mask-4)" points="24 48 25 48 25 47 24 47"></polygon>
                <polygon id="Fill-26" fill="#E9593D" mask="url(#mask-4)" points="22 46 23 46 23 45 22 45"></polygon>
                <polygon id="Fill-27" fill="#E9593D" mask="url(#mask-4)" points="24 44 25 44 25 43 24 43"></polygon>
                <polygon id="Fill-28" fill="#E9593D" mask="url(#mask-4)" points="19 56 20 56 20 55 19 55"></polygon>
                <polygon id="Fill-29" fill="#E9593D" mask="url(#mask-4)" points="21 55 22 55 22 54 21 54"></polygon>
                <polygon id="Fill-30" fill="#E9593D" mask="url(#mask-4)" points="19 53 20 53 20 52 19 52"></polygon>
                <polygon id="Fill-31" fill="#E9593D" mask="url(#mask-4)" points="21 51 22 51 22 50 21 50"></polygon>
                <polygon id="Fill-32" fill="#E9593D" mask="url(#mask-4)" points="19 49 20 49 20 48 19 48"></polygon>
                <polygon id="Fill-33" fill="#E9593D" mask="url(#mask-4)" points="21 48 22 48 22 47 21 47"></polygon>
                <polygon id="Fill-34" fill="#E9593D" mask="url(#mask-4)" points="19 46 20 46 20 45 19 45"></polygon>
                <polygon id="Fill-35" fill="#E9593D" mask="url(#mask-4)" points="21 44 22 44 22 43 21 43"></polygon>
                <polygon id="Fill-36" fill="#E9593D" mask="url(#mask-4)" points="15 56 16 56 16 55 15 55"></polygon>
                <polygon id="Fill-37" fill="#E9593D" mask="url(#mask-4)" points="17 55 18 55 18 54 17 54"></polygon>
                <polygon id="Fill-38" fill="#E9593D" mask="url(#mask-4)" points="15 53 16 53 16 52 15 52"></polygon>
                <polygon id="Fill-39" fill="#E9593D" mask="url(#mask-4)" points="17 51 18 51 18 50 17 50"></polygon>
                <polygon id="Fill-40" fill="#E9593D" mask="url(#mask-4)" points="15 49 16 49 16 48 15 48"></polygon>
                <polygon id="Fill-41" fill="#E9593D" mask="url(#mask-4)" points="17 48 18 48 18 47 17 47"></polygon>
                <polygon id="Fill-42" fill="#E9593D" mask="url(#mask-4)" points="15 46 16 46 16 45 15 45"></polygon>
                <polygon id="Fill-43" fill="#E9593D" mask="url(#mask-4)" points="17 44 18 44 18 43 17 43"></polygon>
                <polygon id="Fill-44" fill="#E9593D" mask="url(#mask-4)" points="12 56 13 56 13 55 12 55"></polygon>
                <polygon id="Fill-45" fill="#E9593D" mask="url(#mask-4)" points="14 55 15 55 15 54 14 54"></polygon>
                <polygon id="Fill-46" fill="#E9593D" mask="url(#mask-4)" points="12 53 13 53 13 52 12 52"></polygon>
                <polygon id="Fill-47" fill="#E9593D" mask="url(#mask-4)" points="14 51 15 51 15 50 14 50"></polygon>
                <polygon id="Fill-48" fill="#E9593D" mask="url(#mask-4)" points="12 49 13 49 13 48 12 48"></polygon>
                <polygon id="Fill-49" fill="#E9593D" mask="url(#mask-4)" points="14 48 15 48 15 47 14 47"></polygon>
                <polygon id="Fill-50" fill="#E9593D" mask="url(#mask-4)" points="12 46 13 46 13 45 12 45"></polygon>
                <polygon id="Fill-51" fill="#E9593D" mask="url(#mask-4)" points="14 44 15 44 15 43 14 43"></polygon>
                <polygon id="Fill-52" fill="#E9593D" mask="url(#mask-4)" points="9 56 10 56 10 55 9 55"></polygon>
                <polygon id="Fill-53" fill="#E9593D" mask="url(#mask-4)" points="10 55 11 55 11 54 10 54"></polygon>
                <polygon id="Fill-54" fill="#E9593D" mask="url(#mask-4)" points="9 53 10 53 10 52 9 52"></polygon>
                <polygon id="Fill-55" fill="#E9593D" mask="url(#mask-4)" points="10 51 11 51 11 50 10 50"></polygon>
                <polygon id="Fill-56" fill="#E9593D" mask="url(#mask-4)" points="9 49 10 49 10 48 9 48"></polygon>
                <polygon id="Fill-57" fill="#E9593D" mask="url(#mask-4)" points="10 48 11 48 11 47 10 47"></polygon>
                <polygon id="Fill-58" fill="#E9593D" mask="url(#mask-4)" points="9 46 10 46 10 45 9 45"></polygon>
                <polygon id="Fill-59" fill="#E9593D" mask="url(#mask-4)" points="10 44 11 44 11 43 10 43"></polygon>
                <polygon id="Fill-60" fill="#E9593D" mask="url(#mask-4)" points="5 56 6 56 6 55 5 55"></polygon>
                <polygon id="Fill-61" fill="#E9593D" mask="url(#mask-4)" points="7 55 8 55 8 54 7 54"></polygon>
                <polygon id="Fill-62" fill="#E9593D" mask="url(#mask-4)" points="5 53 6 53 6 52 5 52"></polygon>
                <polygon id="Fill-63" fill="#E9593D" mask="url(#mask-4)" points="7 51 8 51 8 50 7 50"></polygon>
                <polygon id="Fill-64" fill="#E9593D" mask="url(#mask-4)" points="7 48 8 48 8 47 7 47"></polygon>
                <path d="M32.11245,57.1655773 C32.0975301,57.1684923 32.0726137,57.1712616 32.0368059,57.1706786 C31.9223698,57.1687838 31.8074862,57.1703871 31.6927518,57.1719904 C31.6172569,57.1728649 31.5417619,57.1738851 31.466267,57.1738851 L31.2102406,57.1738851 L31.2102406,57.0832282 L30.3650255,57.0832282 L30.3650255,57.1738851 L27.8290815,57.1738851 L27.8290815,57.0832282 L26.9838664,57.0832282 L26.9838664,57.1738851 L24.4480716,57.1740309 L24.4480716,57.0832282 L23.6027073,57.0832282 L23.6027073,57.1740309 L21.0669125,57.1740309 L21.0669125,57.0832282 L20.2215482,57.0832282 L20.2215482,57.1740309 L17.6857534,57.1741766 L17.6857534,57.0832282 L16.8403891,57.0832282 L16.8403891,57.1741766 L14.3045943,57.1741766 L14.3045943,57.0832282 L13.45923,57.0832282 L13.45923,57.1741766 C12.6140148,57.1741766 11.7686504,57.1740309 10.923286,57.1740309 L10.923286,57.0832282 L10.0779217,57.0832282 L10.0779217,57.1740309 C9.2327065,57.1740309 8.38749133,57.1740309 7.54212695,57.1738851 L7.54212695,57.0832282 L6.69691178,57.0832282 L6.69691178,57.1738851 C6.22305416,57.1738851 5.74919655,57.1740309 5.27533893,57.1738851 C5.16105211,57.1737394 4.96828636,57.1735936 4.86205631,57.1614963 C4.84937436,57.0564101 4.84907596,56.8641649 4.84907596,56.7392566 L4.84743476,55.342965 C4.84530867,53.7577806 4.84310798,52.1185226 4.84967276,50.5065201 C4.85176155,49.9857529 4.90532417,49.478832 5.00469104,48.9891097 L5.00469104,49.6414898 L5.85005541,49.6414898 L5.85005541,48.8158121 L5.04333371,48.8158121 C5.76083411,45.6568118 8.41643603,43.2762659 11.7670092,42.9013951 L11.7670092,43.0354857 L12.6123736,43.0354857 L12.6123736,42.8492164 C12.6169988,42.8492164 12.6217732,42.8487791 12.6265476,42.8487791 C13.4563952,42.8420746 14.2984772,42.8368276 15.1481683,42.833038 L15.1481683,43.0354857 L15.9933835,43.0354857 L15.9933835,42.8298315 C16.8306911,42.8270623 17.6754587,42.825459 18.5293274,42.8257165 L18.5293274,43.0354857 L19.3745426,43.0354857 L19.3745426,42.8264793 C20.2133422,42.8276453 21.059005,42.8302688 21.9104865,42.834204 L21.9104865,43.0354857 L22.7557017,43.0354857 L22.7557017,42.8381393 C23.2887915,42.8413458 23.8238209,42.8446981 24.3609391,42.8487791 C24.6753025,42.8512569 24.9854882,42.8747227 25.2914964,42.9142212 L25.2914964,43.0354857 L25.9843789,43.0354857 C29.1738166,43.7447086 31.703345,46.4134036 32.0293459,49.6732634 C32.110212,50.4811594 32.1425883,51.3005698 32.1516895,52.1186684 L32.0538146,52.1186684 L32.0538146,52.9444918 L32.1530323,52.9444918 C32.1506451,53.4581172 32.1425883,53.9698478 32.1340839,54.4757485 C32.1287128,54.7876549 32.1239384,55.1039339 32.11991,55.4216704 L32.0538146,55.4216704 L32.0538146,56.2474938 L32.1137928,56.2474938 C32.1134944,56.5255861 32.1143896,56.8038241 32.1188656,57.0807504 C32.1194624,57.1227266 32.1157324,57.1498363 32.11245,57.1655773 M24.3675039,42.0229557 C20.3088299,41.9923481 16.3563859,41.9923481 12.619386,42.0229557 C7.80740367,42.0628914 4.02310752,45.7878417 4.00430838,50.5034593 C3.9978928,52.1175024 4,53.7577806 4.00207039,55.344131 L4.00371158,56.7399853 C4.00460678,57.786621 4.21840967,57.9985425 5.27474213,57.9997085 C6.73838924,58 8.20143955,58 9.66493746,58 C11.1369397,58 12.6090912,58 14.0810935,58 L31.466267,57.9997085 C31.5453427,57.9997085 31.6244184,57.9986882 31.7036434,57.997668 C31.8109178,57.9962105 31.9181923,57.994753 32.0248699,57.9962105 C32.3167041,58.000583 32.5473666,57.9189626 32.715216,57.7549931 C32.8847066,57.5892746 32.9682583,57.3584055 32.9639316,57.0682159 C32.9499068,56.2113476 32.9648268,55.335969 32.9792991,54.489449 C33.0063042,52.8863372 33.0345029,51.228569 32.8706819,49.5929548 C32.4493425,45.3810515 28.7142822,42.0558954 24.3675039,42.0229557" id="Fill-65" fill="#E9593D" mask="url(#mask-4)"></path>
                <path d="M9.99153722,6.92682611 C10.8899517,4.96903076 12.1110479,3.48195412 13.7249084,2.38051944 C15.8093024,0.957323948 18.045919,0.514718834 20.3729648,1.06477381 C22.4370122,1.55300832 24.1725001,2.73333768 25.6784484,4.67361724 C26.2621691,5.42414716 26.7334562,6.23811666 27.0787452,7.09271103 C27.0859795,7.11052122 27.0924603,7.12685948 27.0981875,7.14202022 C27.0629201,7.14437528 27.0207197,7.14614158 26.9703808,7.14746631 C26.760585,7.15291239 26.5435548,7.15173486 26.3339097,7.15070452 C26.2244903,7.15026295 26.115523,7.14996856 26.0053501,7.14996856 L25.9893742,7.14996856 C25.4008306,7.15217644 25.0410729,7.15085171 24.8977426,7.05870978 C24.7523022,6.96524312 24.6095747,6.62861595 24.3932981,6.11800832 L24.3624015,6.04617882 C23.334221,3.64018508 20.9304611,2.15443316 18.2442605,2.2639437 C15.5229432,2.37374863 13.3160176,4.00109886 12.4855757,6.50880199 C12.4665855,6.56502918 12.4484997,6.62272828 12.4304139,6.68057458 L12.4258924,6.69470497 C12.2869328,7.13333591 12.1588247,7.19044625 11.7928877,7.16144951 C11.5785704,7.14363932 11.3647052,7.13834043 11.153553,7.13834043 C10.9946989,7.13834043 10.8375028,7.14128426 10.6824166,7.14437528 C10.5134647,7.14746631 10.3427041,7.1511461 10.1770679,7.14996856 C10.0543855,7.14908541 9.9648606,7.14555281 9.89975154,7.14113707 C9.92009812,7.08829529 9.94948762,7.01852647 9.99153722,6.92682611 M10.1717928,7.98395612 C10.3476777,7.98380892 10.5231104,7.98145386 10.6989953,7.97806845 C11.0543822,7.97159202 11.3898747,7.9649684 11.7215993,7.99234604 C11.7847491,7.99735055 11.8459395,8 11.9051707,8 C12.5868564,8 13.0139839,7.65969304 13.2420163,6.94007335 L13.2469899,6.92447104 C13.2631164,6.8726596 13.2793937,6.82070097 13.2973288,6.76785919 C14.1559545,4.17493213 16.4338671,3.17152705 18.2793772,3.0971953 C20.1318202,3.01977252 22.4953391,3.84242632 23.5761192,6.37132505 L23.6046044,6.43800284 C24.2127411,7.87267927 24.371143,7.98395612 25.9504897,7.98395612 L25.9902785,7.98395612 L26.0077615,7.98395612 C26.1149202,7.98307297 26.2222295,7.98410331 26.3293882,7.98469207 C26.5461169,7.98572242 26.7696279,7.98704714 26.9931388,7.98115948 C27.3443057,7.97188641 27.7034605,7.93906268 27.8963762,7.65380538 C28.1010477,7.35147385 27.9528945,6.98423083 27.8731661,6.78669972 C27.4989397,5.86115899 26.9893709,4.98036451 26.3587777,4.16963323 C24.7292428,2.07023957 22.8370109,0.789525535 20.5738684,0.254189718 C17.9985944,-0.354300319 15.5295747,0.130843165 13.2355355,1.69710888 C11.5160235,2.87066744 10.1624485,4.51553347 9.2123386,6.58578319 C9.03750873,6.96656784 8.89734341,7.33381086 9.10005562,7.64188286 C9.32085368,7.97777407 9.79214075,7.98101228 10.1717928,7.98395612" id="Fill-66" fill="#E9593D" mask="url(#mask-4)"></path>
                <path d="M34.0120051,34 L33.9778293,34 C33.3970339,34.0280189 33.0626543,34.366614 33.0044,34.9500789 C32.9504177,35.5023678 33.400335,35.9784925 33.9593821,35.9988161 C33.9690911,36 33.9789943,36 33.9888976,36 C34.5027005,36 35.001163,35.5179558 35,35.0140095 C34.9988329,34.5142068 34.5093026,34 34.0120051,34" id="Fill-67" fill="#E9593D" mask="url(#mask-4)"></path>
                <path d="M34.798602,36.1722072 L34.7900556,36.1722072 C33.5907052,36.1722072 33.3026752,35.8296068 33.4625087,34.65673 C33.5976024,33.6601937 33.7886228,32.6744687 34.0085812,31.6926884 C34.1054408,31.2622829 34.2769693,31.0089485 34.7918548,31.0089485 L34.8114966,31.0089485 C35.3134875,31.0147924 35.4748203,31.2606758 35.5743788,31.6669751 C35.8528128,32.8001132 36.0355867,33.9481534 36.1424921,35.1061282 C36.2138624,35.8849781 35.8349702,36.1706002 34.798602,36.1722072 M36.4008345,31.4742715 C36.2338041,30.7973982 35.8610594,30.3842323 35.2909969,30.2398873 C35.2926462,27.6358318 35.2944454,25.032653 35.2849994,22.4294741 C35.2781022,20.3691964 34.601884,18.4859898 33.2759864,16.8331801 C31.2354865,14.2896094 28.4856321,13 25.104091,13 C25.0869981,13 25.0699052,13 25.0529623,13.0007305 C22.3178018,13.0108113 19.5817417,13.0090581 16.8462813,13.0058439 L13.2921621,13.0040908 C12.7519371,13.0040908 12.2532449,13.0289275 11.768197,13.0802079 C6.85219509,13.6017787 3.00089963,17.7727381 3,22.5751341 L3,30.7462638 L3.71955022,30.7462638 L3.71955022,22.5751341 C3.71955022,18.1252732 7.28971281,14.2605358 11.8464644,13.7772428 C12.3049733,13.7284459 12.7783261,13.7052163 13.2921621,13.7052163 L16.8455317,13.7077 C19.5824914,13.7093071 22.3194511,13.7119368 25.0556611,13.7009795 L25.104091,13.7009795 C28.253079,13.7009795 30.8114631,14.9004462 32.7092225,17.2644622 C33.9342121,18.7923578 34.558552,20.5304889 34.5661988,22.4318117 C34.5748952,25.0192119 34.573096,27.6058817 34.5715966,30.1924053 C34.0169777,30.2490915 33.3963862,30.544356 33.1786769,31.5156173 C32.9273816,32.6370676 32.7446078,33.6295131 32.6198597,34.548325 C32.5348451,35.1731873 32.5119047,35.8826405 32.9849576,36.4081559 C33.4574108,36.9329409 34.1972026,37 34.7900556,37 C35.3797599,36.9991234 36.1075567,36.9329409 36.586757,36.4214509 C36.9071735,36.0795809 37.0421173,35.612797 36.9885896,35.0324947 C36.874937,33.7975261 36.6768695,32.5998125 36.4008345,31.4742715" id="Fill-68" fill="#E9593D" mask="url(#mask-4)"></path>
                <polygon id="Fill-69" fill="#E9593D" mask="url(#mask-4)" points="19 30 25 30 25 29 19 29"></polygon>
                <polygon id="Fill-70" fill="#E9593D" mask="url(#mask-4)" points="14.8613216 20 14 20.8324605 17.2772009 24 14 27.1676902 14.8613216 28 19 24"></polygon>
            </g>
        </g>
    </g>
</svg>