<?xml version="1.0" encoding="UTF-8"?>
<svg width="50px" height="41px" viewBox="0 0 50 41" version="1.1" xmlns="http://www.w3.org/2000/svg" xmlns:xlink="http://www.w3.org/1999/xlink">
    <title>347A6C46-40EA-482A-8A85-68B1D9EE7F7D</title>
    <defs>
        <polygon id="path-1" points="6.17283951e-05 0.0795330739 39.4249074 0.0795330739 39.4249074 32.771035 6.17283951e-05 32.771035"></polygon>
    </defs>
    <g id="Page-1" stroke="none" stroke-width="1" fill="none" fill-rule="evenodd">
        <g id="juno-website-workshop-landing-page" transform="translate(-741.000000, -1427.000000)">
            <g id="Group-38" transform="translate(741.000000, 1427.000000)">
                <polygon id="Fill-1" fill="#E9593D" points="44.6905864 27.860856 45.5648148 27.860856 45.5648148 26.979144 44.6905864 26.979144"></polygon>
                <polygon id="Fill-2" fill="#E9593D" points="46.4408951 26.1078599 47.3152778 26.1078599 47.3152778 25.2261479 46.4408951 25.2261479"></polygon>
                <polygon id="Fill-3" fill="#E9593D" points="44.6905864 24.3338521 45.5648148 24.3338521 45.5648148 23.4519844 44.6905864 23.4519844"></polygon>
                <polygon id="Fill-4" fill="#E9593D" points="46.4408951 22.5807004 47.3152778 22.5807004 47.3152778 21.6989883 46.4408951 21.6989883"></polygon>
                <polygon id="Fill-5" fill="#E9593D" points="44.6905864 20.806537 45.5648148 20.806537 45.5648148 19.9246693 44.6905864 19.9246693"></polygon>
                <polygon id="Fill-6" fill="#E9593D" points="46.4408951 19.0536965 47.3152778 19.0536965 47.3152778 18.1718288 46.4408951 18.1718288"></polygon>
                <polygon id="Fill-7" fill="#E9593D" points="44.6905864 17.2793774 45.5648148 17.2793774 45.5648148 16.3976654 44.6905864 16.3976654"></polygon>
                <polygon id="Fill-8" fill="#E9593D" points="41.1933642 34.9151751 42.0677469 34.9151751 42.0677469 34.033463 41.1933642 34.033463"></polygon>
                <polygon id="Fill-9" fill="#E9593D" points="41.1933642 31.3880156 42.0677469 31.3880156 42.0677469 30.5063035 41.1933642 30.5063035"></polygon>
                <polygon id="Fill-10" fill="#E9593D" points="42.9436728 29.6350195 43.8180556 29.6350195 43.8180556 28.7533074 42.9436728 28.7533074"></polygon>
                <polygon id="Fill-11" fill="#E9593D" points="41.1933642 27.860856 42.0677469 27.860856 42.0677469 26.979144 41.1933642 26.979144"></polygon>
                <polygon id="Fill-12" fill="#E9593D" points="42.9436728 26.1078599 43.8180556 26.1078599 43.8180556 25.2261479 42.9436728 25.2261479"></polygon>
                <polygon id="Fill-13" fill="#E9593D" points="41.1933642 24.3338521 42.0677469 24.3338521 42.0677469 23.4519844 41.1933642 23.4519844"></polygon>
                <polygon id="Fill-14" fill="#E9593D" points="42.9436728 22.5807004 43.8180556 22.5807004 43.8180556 21.6989883 42.9436728 21.6989883"></polygon>
                <polygon id="Fill-15" fill="#E9593D" points="42.9436728 19.0536965 43.8180556 19.0536965 43.8180556 18.1718288 42.9436728 18.1718288"></polygon>
                <polygon id="Fill-16" fill="#E9593D" points="42.9436728 15.526537 43.8180556 15.526537 43.8180556 14.6446693 42.9436728 14.6446693"></polygon>
                <polygon id="Fill-17" fill="#E9593D" points="39.4464506 36.6893385 40.320679 36.6893385 40.320679 35.8074708 39.4464506 35.8074708"></polygon>
                <polygon id="Fill-18" fill="#E9593D" points="37.696142 34.9151751 38.5705247 34.9151751 38.5705247 34.033463 37.696142 34.033463"></polygon>
                <polygon id="Fill-19" fill="#E9593D" points="39.4464506 33.162179 40.320679 33.162179 40.320679 32.2803113 39.4464506 32.2803113"></polygon>
                <polygon id="Fill-20" fill="#E9593D" points="37.696142 31.3880156 38.5705247 31.3880156 38.5705247 30.5063035 37.696142 30.5063035"></polygon>
                <polygon id="Fill-21" fill="#E9593D" points="39.4464506 29.6350195 40.320679 29.6350195 40.320679 28.7533074 39.4464506 28.7533074"></polygon>
                <polygon id="Fill-22" fill="#E9593D" points="37.696142 27.860856 38.5705247 27.860856 38.5705247 26.979144 37.696142 26.979144"></polygon>
                <polygon id="Fill-23" fill="#E9593D" points="39.4464506 26.1078599 40.320679 26.1078599 40.320679 25.2261479 39.4464506 25.2261479"></polygon>
                <polygon id="Fill-24" fill="#E9593D" points="34.1989198 34.9151751 35.0733025 34.9151751 35.0733025 34.033463 34.1989198 34.033463"></polygon>
                <polygon id="Fill-25" fill="#E9593D" points="35.9492284 33.162179 36.8236111 33.162179 36.8236111 32.2803113 35.9492284 32.2803113"></polygon>
                <polygon id="Fill-26" fill="#E9593D" points="34.1989198 31.3880156 35.0733025 31.3880156 35.0733025 30.5063035 34.1989198 30.5063035"></polygon>
                <polygon id="Fill-27" fill="#E9593D" points="35.9492284 29.6350195 36.8236111 29.6350195 36.8236111 28.7533074 35.9492284 28.7533074"></polygon>
                <polygon id="Fill-28" fill="#E9593D" points="30.7016975 34.9151751 31.5760802 34.9151751 31.5760802 34.033463 30.7016975 34.033463"></polygon>
                <polygon id="Fill-29" fill="#E9593D" points="32.4520062 33.162179 33.3263889 33.162179 33.3263889 32.2803113 32.4520062 32.2803113"></polygon>
                <polygon id="Fill-30" fill="#E9593D" points="27.2044753 34.9151751 28.0787037 34.9151751 28.0787037 34.033463 27.2044753 34.033463"></polygon>
                <polygon id="Fill-31" fill="#E9593D" points="28.954784 33.162179 29.8291667 33.162179 29.8291667 32.2803113 28.954784 32.2803113"></polygon>
                <g id="Group-37" transform="translate(0.000000, 0.076109)">
                    <g id="Group-34">
                        <mask id="mask-2" fill="white">
                            <use xlink:href="#path-1"></use>
                        </mask>
                        <g id="Clip-33"></g>
                        <path d="M14.9696605,27.9190506 C14.8539198,27.8985058 14.7352469,27.9252763 14.6397222,27.9936031 C12.4327778,29.5750817 9.92058642,30.7417743 7.17691358,31.4605292 C6.54311728,31.6200623 5.77645062,31.7643424 4.89790123,31.8891673 L4.8462037,31.8891673 C4.78447531,31.8891673 4.68817901,31.8773385 4.56595679,31.7727471 C4.4741358,31.6950817 4.42182099,31.596716 4.4012963,31.4633307 C4.39728395,31.4376498 4.39111111,31.4122802 4.38262346,31.3876887 C4.38108025,31.3830195 4.37938272,31.371035 4.37938272,31.3512685 C4.37938272,31.3003735 4.38339506,31.2639533 4.38601852,31.247144 C4.38833333,31.2339144 4.39157407,31.2242646 4.39697531,31.2139922 C4.39944444,31.209323 4.40191358,31.2043424 4.4042284,31.1996732 L4.45901235,31.0863658 C4.47490741,31.0613074 4.50314815,31.0171051 4.54280864,30.9542257 C4.5491358,30.9442646 4.55484568,30.9352374 4.56024691,30.9269883 C4.63910494,30.8656654 4.70098765,30.78193 4.76287037,30.6978833 C4.77382716,30.682786 4.78339506,30.6694008 4.79188272,30.6578833 C4.81271605,30.640607 4.83231481,30.6213074 4.85006173,30.5999844 C4.90175926,30.5380389 5.05021605,30.3685447 5.46364198,29.9296342 C5.80592593,29.5669883 6.04882716,29.2882335 6.20530864,29.0793619 C6.35098765,28.8868327 6.5542284,28.6223969 6.82058642,28.2823191 C7.10145062,27.9192062 7.34574074,27.5395953 7.54666667,27.1534475 C7.74805556,26.7668327 7.93709877,26.3568716 8.12475309,25.9003735 C8.2087037,25.6963268 8.12984568,25.4609961 7.94018519,25.350179 C5.7454321,24.0664436 3.99697531,22.4675331 2.74358025,20.5978054 C1.50314815,18.7484669 0.874290123,16.750179 0.874290123,14.6581946 C0.874290123,12.2141479 1.70854938,9.91889494 3.35391975,7.83609339 C5.01317901,5.73336965 7.31734568,4.04512062 10.2023765,2.81819455 C13.0997531,1.5861323 16.2995988,0.961385214 19.7128704,0.961385214 C23.1267593,0.961385214 26.3258333,1.5861323 29.2216667,2.81819455 C32.1046914,4.04371984 34.409784,5.73196887 36.0729012,7.83640467 C37.7168827,9.91702724 38.550679,12.2121245 38.550679,14.6581946 C38.550679,17.1051984 37.717037,19.4002957 36.0727469,21.4802957 C34.4125617,23.5837977 32.1074691,25.2722023 29.2216667,26.4989728 L29.2216667,26.4989728 C26.3225926,27.7316576 23.1293827,28.3529805 19.7128704,28.35407 C18.1702778,28.35407 16.5742901,28.2076109 14.9696605,27.9190506 M29.5613272,27.3115798 L29.5611728,27.3115798 C32.5833951,26.0269105 35.0043827,24.2497899 36.7565432,22.0295564 C38.5270679,19.7900233 39.4249074,17.3097121 39.4249074,14.6581946 C39.4249074,12.0076109 38.5270679,9.52745525 36.7565432,7.28683268 C35.0012963,5.06582101 32.580463,3.28901167 29.5613272,2.00558755 C26.5576235,0.727610895 23.2440432,0.0795175097 19.7128704,0.0795175097 C16.1821605,0.0795175097 12.8681173,0.727610895 9.86271605,2.00558755 C6.84126543,3.29072374 4.4212037,5.06753307 2.66996914,7.28683268 C0.898209877,9.5294786 6.17283951e-05,12.0094786 6.17283951e-05,14.6581946 C6.17283951e-05,16.9296342 0.679382716,19.0941479 2.01950617,21.0918132 C3.28277778,22.9763268 5.01364198,24.5970272 7.1682716,25.9136031 C7.03941358,26.2079222 6.90885802,26.4818521 6.77259259,26.7434864 C6.59589506,27.0830973 6.38,27.4181946 6.1329321,27.7377276 C5.86425926,28.080607 5.65824074,28.3487782 5.50885802,28.5461323 C5.37320988,28.7272996 5.14496914,28.9883113 4.83,29.3220078 C4.53910494,29.6309572 4.33432099,29.8539922 4.22012346,29.9864436 C4.1491358,30.0487004 4.09589506,30.1232529 4.05762346,30.1769494 C4.04635802,30.1920467 4.03632716,30.2055875 4.02737654,30.217572 C3.92830247,30.2869883 3.86271605,30.390179 3.80561728,30.4799844 C3.74466049,30.5767938 3.71256173,30.6265992 3.7116358,30.628 C3.70175926,30.6434086 3.69265432,30.659284 3.68478395,30.6757821 L3.6212037,30.8072996 C3.57444444,30.8978833 3.54188272,30.9956265 3.52382716,31.10193 C3.51132716,31.1794397 3.505,31.2633307 3.505,31.3512685 C3.505,31.4527471 3.51765432,31.545821 3.5432716,31.63407 C3.60160494,31.9651206 3.75638889,32.2387393 4.00222222,32.446677 C4.25376543,32.66193 4.53771605,32.771035 4.8462037,32.771035 L4.92845679,32.771035 C4.94867284,32.771035 4.96888889,32.7694786 4.98895062,32.766677 C5.91055556,32.636716 6.71796296,32.484965 7.39280864,32.3150039 C10.1816975,31.5844202 12.7387963,30.4085447 14.9962037,28.8189728 C16.5957407,29.0964825 18.1846296,29.2416965 19.7264506,29.2359377 C23.2488272,29.2359377 26.5580864,28.5884669 29.5613272,27.3115798" id="Fill-32" fill="#E9593D" mask="url(#mask-2)"></path>
                    </g>
                    <path d="M47.1966049,27.6798132 C46.966358,28.0212918 46.7191358,28.3537432 46.4558642,28.6771673 L46.4408951,28.6771673 L46.4408951,28.696 C45.9408951,29.3081401 45.3808642,29.8861946 44.7657407,30.4301634 L44.6905864,30.4301634 L44.6905864,30.4967782 C43.8871914,31.1981012 42.9896605,31.8409027 42.0009259,32.4202023 C41.8115741,32.5310195 41.732716,32.7661946 41.8165123,32.9700856 C42.0021605,33.4222257 42.1969136,33.843393 42.3942901,34.2206693 C42.5959877,34.60993 42.8405864,34.990786 43.121142,35.3526537 C43.229784,35.4925759 43.3257716,35.6166226 43.4140432,35.7313307 L42.9436728,35.7313307 L42.9436728,36.6131984 L43.8179012,36.6131984 L43.8179012,36.2577121 C43.9722222,36.4500856 44.187963,36.6936654 44.4756173,36.9999689 C44.6875,37.2248716 44.828858,37.378179 44.925,37.4844825 L44.6905864,37.4844825 L44.6905864,38.3661946 L45.5492284,38.3661946 C45.5371914,38.4219144 45.5296296,38.4837043 45.5302469,38.5560778 C45.4947531,38.6886848 45.433642,38.7870506 45.3407407,38.8622257 C45.2483025,38.9366226 45.1606481,38.9682179 45.0570988,38.9618366 C44.1680556,38.835144 43.396142,38.6902412 42.7666667,38.5322646 C42.5316358,38.4704747 42.2992284,38.4044825 42.0675926,38.3363113 L42.0675926,37.4844825 L41.1933642,37.4844825 L41.1933642,38.0616031 C39.6473765,37.5414475 38.1865741,36.8715642 36.8236111,36.0592685 L36.8236111,35.7313307 L36.2907407,35.7313307 C35.9540123,35.517323 35.6228395,35.2955331 35.2989198,35.0634708 C35.2033951,34.995144 35.0847222,34.9682179 34.9694444,34.9889183 C33.3549383,35.2781012 31.7592593,35.424716 30.2266975,35.424716 C28.2464506,35.424716 26.3628086,35.2206693 24.5816358,34.8202023 L24.5816358,33.957323 L23.7072531,33.957323 L23.7072531,34.6065058 C22.1669753,34.1954553 20.7089506,33.628607 19.3375,32.9100078 L19.3375,32.7666615 C19.4723765,32.7696187 19.5976852,32.7714864 19.7114198,32.7714864 C20.4666667,32.7714864 21.2166667,32.7436265 21.9603395,32.6889961 L21.9603395,33.0860389 L22.8347222,33.0860389 L22.8347222,32.6108638 C23.7195988,32.5196576 24.5945988,32.3890739 25.4575617,32.2200467 L25.4575617,33.0860389 L26.3319444,33.0860389 L26.3319444,32.2041712 L25.5382716,32.2041712 C26.4739198,32.018179 27.3953704,31.7875175 28.2993827,31.5106304 C29.124537,31.2574008 29.9256173,30.9688405 30.7016975,30.6469728 L30.7016975,31.3118755 L31.5759259,31.3118755 L31.5759259,30.4301634 L31.2100309,30.4301634 C31.8209877,30.1610584 32.4151235,29.8703191 32.992284,29.5588794 L33.3263889,29.5588794 L33.3263889,29.3749105 C34.1404321,28.9187237 34.9194444,28.4209805 35.6591049,27.8807471 C37.9816358,26.1565447 39.791821,24.1400467 41.0396605,21.8874397 C41.2506173,21.5065837 41.4425926,21.1204358 41.6185185,20.7305525 L42.0675926,20.7305525 L42.0675926,19.8486848 L41.9833333,19.8486848 C42.6109568,18.1845603 42.9294753,16.4468171 42.9294753,14.6586459 C42.9294753,13.5616809 42.8052469,12.4640934 42.5594136,11.3830039 C42.6891975,11.464716 42.8171296,11.5481401 42.9436728,11.6323424 L42.9436728,11.9232374 L43.3662037,11.9232374 C43.8324074,12.2533541 44.2740741,12.6004358 44.6905864,12.9643268 L44.6905864,13.6760778 L45.4529321,13.6760778 C45.8033951,14.0267393 46.133179,14.3906304 46.4408951,14.7679066 L46.4408951,15.4503969 L46.962963,15.4503969 C47.0054012,15.5093852 47.0484568,15.5680623 47.0898148,15.6275175 C48.0145062,16.9588794 48.6160494,18.3727315 48.8912037,19.8486848 L48.1878086,19.8486848 L48.1878086,20.7305525 L49.0154321,20.7305525 C49.0475309,21.0606693 49.0654321,21.3931206 49.0654321,21.7288405 C49.0654321,22.285572 49.020216,22.8348327 48.9328704,23.3758444 L48.1878086,23.3758444 L48.1878086,24.2577121 L48.7493827,24.2577121 C48.4470679,25.4468171 47.9294753,26.5917198 47.1966049,27.6798132 M47.8058642,15.1215253 C46.4055556,13.106428 44.4766975,11.4079066 42.0728395,10.0732763 C41.916821,9.98658366 41.7243827,10.0040156 41.5862654,10.117323 C41.4481481,10.2306304 41.391821,10.4170895 41.4441358,10.5887626 C41.849537,11.9223035 42.0552469,13.291642 42.0552469,14.6586459 C42.0552469,17.039035 41.4566358,19.3263502 40.2763889,21.4574008 C39.0898148,23.5991907 37.362037,25.5215253 35.1435185,27.1686848 C33.075,28.6793463 30.6865741,29.8563113 28.0450617,30.6668949 C25.396142,31.4782568 22.5924383,31.8896187 19.7114198,31.8896187 C19.1854938,31.8896187 18.3850309,31.8531984 17.3322531,31.7814475 C17.1342593,31.7665058 16.9516975,31.8908638 16.8884259,32.0807471 C16.8251543,32.2706304 16.8967593,32.4798132 17.0628086,32.5898521 C20.787037,35.0561556 25.2160494,36.3065837 30.2266975,36.3065837 C31.7533951,36.3065837 33.3388889,36.1658833 34.9424383,35.8886848 C37.2,37.4779455 39.7572531,38.6541323 42.5510802,39.3867393 C43.2175926,39.5540545 44.0248457,39.7058054 44.9501543,39.8371673 C44.9589506,39.8384125 44.9675926,39.8395019 44.9763889,39.8402802 C45.0108025,39.8429261 45.0450617,39.8443268 45.0791667,39.8443268 C45.3697531,39.8443268 45.6470679,39.7440934 45.8871914,39.5506304 C46.150463,39.3374008 46.3220679,39.0480623 46.3970679,38.6905525 C46.4037037,38.6586459 46.4069444,38.6261167 46.4064815,38.5935875 C46.4839506,38.4254942 46.4472222,38.2533541 46.3979938,38.0995798 C46.362037,37.9935875 46.3442901,37.9389572 46.3438272,37.9372451 C46.3376543,37.9181012 46.3300926,37.8994241 46.3212963,37.8813696 L46.254784,37.7437821 C46.2512346,37.7361556 46.2472222,37.7286848 46.2432099,37.7213696 C46.207716,37.6575564 46.1643519,37.5909416 46.1199074,37.5310195 C46.0604938,37.4469728 46.0125,37.3865837 45.958642,37.3308638 C45.9393519,37.3118755 45.9125,37.2799689 45.8757716,37.2374786 L45.8648148,37.2250272 C45.8061728,37.1552996 45.7722222,37.1162335 45.7455247,37.0885292 C45.6401235,36.9629261 45.4316358,36.7347549 45.1100309,36.392965 C44.7924383,36.0550661 44.5632716,35.7932763 44.4290123,35.6156887 C44.2820988,35.420358 44.0762346,35.1524981 43.8097222,34.8093074 C43.5618827,34.4896187 43.3462963,34.1542101 43.1683642,33.8107082 C43.0345679,33.5549883 42.9021605,33.2779455 42.7729938,32.9833152 C44.9251543,31.6667393 46.6554012,30.0507082 47.9195988,28.1756887 C47.9195988,28.1756887 47.9195988,28.1755331 47.9197531,28.1755331 C49.2600309,26.1853385 49.9396605,24.0164669 49.9396605,21.7288405 C49.9396605,19.3830039 49.2217593,17.1601245 47.8058642,15.1215253" id="Fill-35" fill="#E9593D"></path>
                </g>
            </g>
        </g>
    </g>
</svg>