<?xml version="1.0" encoding="UTF-8"?>
<svg width="50px" height="50px" viewBox="0 0 50 50" version="1.1" xmlns="http://www.w3.org/2000/svg" xmlns:xlink="http://www.w3.org/1999/xlink">
    <title>AF54D738-6AF0-42A6-B026-1BDA52B181B8</title>
    <defs>
        <polygon id="path-1" points="9.4637224e-05 0.0807709677 49.8522082 0.0807709677 49.8522082 44.5741935 9.4637224e-05 44.5741935"></polygon>
        <polygon id="path-3" points="0 48.8436742 49.8522082 48.8436742 49.8522082 0 0 0"></polygon>
    </defs>
    <g id="Page-1" stroke="none" stroke-width="1" fill="none" fill-rule="evenodd">
        <g id="juno-website-workshop-landing-page" transform="translate(-146.000000, -1427.000000)">
            <g id="Group-38" transform="translate(146.000000, 1427.000000)">
                <path d="M17.7944795,2.56477065 C18.3189274,3.75041258 19.2716088,4.70512226 20.4547319,5.23163516 C19.2716088,5.75814806 18.3189274,6.71285774 17.7944795,7.89849968 C17.2689274,6.71285774 16.3156151,5.75814806 15.1332808,5.23163516 C16.3156151,4.70512226 17.2689274,3.75041258 17.7944795,2.56477065 M13.0208202,5.67943194 C15.4067823,5.67943194 17.3476341,7.62441581 17.3476341,10.0154577 C17.3476341,10.2625126 17.5468454,10.4630965 17.7944795,10.4630965 C18.0410095,10.4630965 18.2413249,10.2625126 18.2413249,10.0154577 C18.2413249,7.62441581 20.1812303,5.67943194 22.5671924,5.67943194 C22.8138801,5.67943194 23.0140379,5.47869 23.0140379,5.23163516 C23.0140379,4.98442226 22.8138801,4.78383839 22.5671924,4.78383839 C20.1812303,4.78383839 18.2413249,2.83869645 18.2413249,0.447812581 C18.2413249,0.200599677 18.0410095,1.58064516e-05 17.7944795,1.58064516e-05 C17.5468454,1.58064516e-05 17.3476341,0.200599677 17.3476341,0.447812581 C17.3476341,2.83869645 15.4067823,4.78383839 13.0208202,4.78383839 C12.7733438,4.78383839 12.5739748,4.98442226 12.5739748,5.23163516 C12.5739748,5.47869 12.7733438,5.67943194 13.0208202,5.67943194" id="Fill-1" fill="#E9593D"></path>
                <g id="Group-5" transform="translate(0.000000, 4.269481)">
                    <mask id="mask-2" fill="white">
                        <use xlink:href="#path-1"></use>
                    </mask>
                    <g id="Clip-4"></g>
                    <path d="M48.958612,42.6497581 C48.958612,43.2165774 48.497571,43.6786 47.9310095,43.6786 L2.13968454,43.6786 C1.57328076,43.6786 1.11302839,43.2165774 1.11302839,42.6497581 L1.11302839,38.4229548 C1.11302839,37.8551871 1.57328076,37.3930065 2.13968454,37.3930065 L6.99299685,37.3930065 L6.99299685,37.6440129 C6.99299685,38.8709097 7.98905363,39.8694032 9.21350158,39.8694032 L16.6242271,39.8694032 C17.8486751,39.8694032 18.8448896,38.8709097 18.8448896,37.6440129 L18.8448896,37.3930065 L47.9310095,37.3930065 C48.497571,37.3930065 48.958612,37.8551871 48.958612,38.4229548 L48.958612,42.6497581 Z M7.88652997,37.3930065 L7.88652997,36.497571 L7.88652997,35.3702548 C7.88652997,34.6369935 8.48179811,34.0404581 9.21350158,34.0404581 L9.77990536,34.0404581 L15.9718612,34.0404581 L16.6242271,34.0404581 C17.3559306,34.0404581 17.9513565,34.6369935 17.9513565,35.3702548 L17.9513565,36.497571 L17.9513565,37.3930065 L17.9513565,37.6440129 C17.9513565,37.7742581 17.9316404,37.9000774 17.8966246,38.0191 C17.7344795,38.5701129 17.2258044,38.9738097 16.6242271,38.9738097 L9.21350158,38.9738097 C8.61192429,38.9738097 8.10340694,38.5701129 7.94126183,38.0191 C7.90624606,37.9000774 7.88652997,37.7742581 7.88652997,37.6440129 L7.88652997,37.3930065 Z M11.405142,32.0308258 L14.5381073,32.0488452 L14.8240694,33.1448645 L11.0183912,33.1448645 L11.405142,32.0308258 Z M20.2947319,32.0208677 L20.2947319,36.497571 L18.8448896,36.497571 L18.8448896,35.3702548 C18.8448896,34.8826258 18.6857413,34.4327742 18.4193375,34.0655903 C18.3549842,33.9767581 18.2851104,33.8920355 18.208612,33.8137935 C17.8052997,33.4015613 17.2444164,33.1448645 16.6242271,33.1448645 L15.7478864,33.1448645 L15.4543533,32.0208677 L20.2947319,32.0208677 Z M0.893943218,30.676371 L0.893943218,15.9695742 C0.893943218,15.7223613 1.09504732,15.520829 1.34157729,15.520829 L24.3870032,15.520829 C24.6335331,15.520829 24.8346372,15.7223613 24.8346372,15.9695742 L24.8346372,22.7791516 L24.8346372,23.2734194 L24.8346372,23.7830194 L24.8346372,30.676371 C24.8346372,30.9235839 24.6335331,31.1251161 24.3870032,31.1251161 L21.188265,31.1251161 L20.7414196,31.1251161 L20.2947319,31.1251161 L1.34157729,31.1251161 C1.09504732,31.1251161 0.893943218,30.9235839 0.893943218,30.676371 L0.893943218,30.676371 Z M34.5295899,0.976206452 C39.3639748,0.976206452 43.2977287,4.91833548 43.2977287,9.76285484 L43.2977287,11.2134129 C41.9343218,10.8694645 40.9907886,10.1314613 40.3903155,9.48197419 L40.3866877,9.46853871 L40.316183,9.38950645 C39.8259621,8.84039032 39.5788013,8.36793548 39.5439432,8.29870323 C39.5426814,8.29633226 39.5409464,8.29269677 39.5403155,8.29127419 L39.5398423,8.29048387 C39.5398423,8.29048387 39.5395268,8.29016774 39.5395268,8.29016774 L39.2693375,7.72429677 L38.823123,8.16545484 C38.7294322,8.25808065 38.6346372,8.34801935 38.5392114,8.43574516 C38.5247003,8.44902258 38.5100315,8.46166774 38.4956782,8.47494516 C38.4201262,8.5433871 38.3441009,8.61040645 38.2676025,8.67584516 C38.2352681,8.70350645 38.202776,8.73085161 38.1702839,8.75788065 C38.1142902,8.80466774 38.0578233,8.85050645 38.0013565,8.89587097 C37.9552997,8.9327 37.9090852,8.96937097 37.8627129,9.00525161 C37.8283281,9.03180645 37.7936278,9.05757097 37.7590852,9.08349355 C33.1816404,12.5199742 27.0450473,11.1614097 25.7606625,10.8239419 L25.7606625,9.76285484 C25.7606625,4.91833548 29.6942587,0.976206452 34.5295899,0.976206452 L34.5295899,0.976206452 Z M40.9073502,19.6870935 L37.6444164,19.6870935 C39.525489,18.2264194 40.7926814,15.5168774 40.7926814,12.4200774 C40.7926814,11.9272323 40.7587697,11.4351774 40.6923659,10.9472323 C41.362082,11.4470323 42.2218612,11.894829 43.2977287,12.1303452 L43.2977287,17.2914677 C43.2977287,18.6124129 42.225489,19.6870935 40.9073502,19.6870935 L40.9073502,19.6870935 Z M37.5560883,22.8871097 C37.6267508,22.9310516 37.7081388,22.9542871 37.7912618,22.9542871 L37.7947319,22.9542871 L40.8496215,22.9293129 C40.8931546,23.1294226 40.9174448,23.3304806 40.9174448,23.5305903 C40.9174448,25.9519806 37.8907886,27.9222548 34.1707571,27.9222548 C30.4505678,27.9222548 27.424858,25.9519806 27.424858,23.5305903 C27.424858,23.3515032 27.4437855,23.1719419 27.4773817,22.9941194 L31.1619243,22.954129 C31.2431546,22.9531806 31.3226498,22.9299452 31.3915773,22.8869516 C31.4507256,22.8505968 32.760347,22.0223387 33.0879495,20.6331097 C33.5294322,20.7628806 33.9874763,20.8335355 34.4579811,20.8335355 C34.9390536,20.8335355 35.4071924,20.7595613 35.8578233,20.6239419 C36.1819558,22.0187032 37.4969401,22.8505968 37.5560883,22.8871097 L37.5560883,22.8871097 Z M46.9374763,26.2376032 C47.0187066,26.3699032 47.0944164,26.5061548 47.1669716,26.6441452 C47.0945741,26.5059968 47.0187066,26.3699032 46.9374763,26.2376032 L46.9374763,26.2376032 Z M43.1269085,23.2571387 C43.2511987,23.2968129 43.3737539,23.3401226 43.4948896,23.3862774 C43.3737539,23.3402806 43.2511987,23.2968129 43.1269085,23.2571387 L43.1269085,23.2571387 Z M34.6543533,28.8059935 C34.6474132,28.8063097 34.6404732,28.8067839 34.6335331,28.8071 C34.6404732,28.8067839 34.6474132,28.8063097 34.6543533,28.8059935 L34.6543533,28.8059935 Z M31.0781703,28.363571 C31.0605047,28.3580387 31.0429968,28.3525065 31.025489,28.3469742 C31.0429968,28.3525065 31.0605047,28.3580387 31.0781703,28.363571 L31.0781703,28.363571 Z M26.1482019,23.2263161 C26.0060883,23.2697839 25.8658675,23.3173613 25.7278549,23.3695226 C25.8658675,23.3173613 26.0060883,23.2697839 26.1482019,23.2263161 L26.1482019,23.2263161 Z M45.5765931,24.6340387 C45.4986751,24.5663871 45.4193375,24.5003161 45.338265,24.4359839 C45.4193375,24.5003161 45.4986751,24.566229 45.5765931,24.6340387 L45.5765931,24.6340387 Z M45.8057729,24.8425258 C45.7310095,24.7713968 45.654511,24.7018484 45.5765931,24.6340387 C45.654511,24.7020065 45.7310095,24.7713968 45.8057729,24.8425258 L45.8057729,24.8425258 Z M31.271388,19.6870935 L28.151041,19.6870935 C26.8329022,19.6870935 25.7606625,18.6124129 25.7606625,17.2914677 L25.7606625,11.7516226 C26.2589274,11.8776 27.0879495,12.0577935 28.1275394,12.1758677 C28.1250158,12.2558484 28.123123,12.3372516 28.123123,12.4200774 C28.123123,15.5168774 29.3903155,18.2264194 31.271388,19.6870935 L31.271388,19.6870935 Z M34.4579811,19.9379419 C31.4576656,19.9379419 29.0166562,16.5654774 29.0166562,12.4200774 C29.0166562,12.365071 29.0177603,12.3102226 29.0190221,12.2555323 C29.3966246,12.2803484 29.7931546,12.2950484 30.2048265,12.2950484 C32.9194953,12.2950484 36.2803785,11.6646871 39.0344795,9.19571935 C39.1680757,9.39867419 39.3499369,9.64730968 39.5803785,9.91396452 C39.7918927,10.7327387 39.8991483,11.5750645 39.8991483,12.4200774 C39.8991483,16.5654774 37.4581388,19.9379419 34.4579811,19.9379419 L34.4579811,19.9379419 Z M25.7278549,19.5046871 C26.328959,20.1650806 27.1912618,20.582529 28.151041,20.582529 L32.1756467,20.582529 C31.9299054,21.3410806 31.2655521,21.8799226 31.016183,22.0604323 L27.1209148,22.1024774 C27.1094006,22.1026355 27.0983596,22.1053226 27.0870032,22.106271 C27.0786435,22.1070613 27.0704416,22.1054806 27.0619243,22.1067452 C26.6026183,22.1725 26.1570347,22.2791935 25.7278549,22.4208194 L25.7278549,19.5046871 Z M24.3592429,32.4955355 L24.3592429,32.0208677 L24.38653,32.0208677 C25.1135016,32.0208677 25.7054574,31.4387161 25.7259621,30.7152548 L26.1482019,30.7152548 L26.1482019,29.8196613 L25.7278549,29.8196613 L25.7278549,27.1330387 L26.1482019,27.1330387 L26.1482019,26.2376032 L25.7278549,26.2376032 L25.7278549,23.5511387 L26.1482019,23.5511387 L26.1482019,23.2263161 C26.2816404,23.1852194 26.4166562,23.1479161 26.5535647,23.1150387 C26.538265,23.253029 26.5311672,23.3918097 26.5311672,23.5305903 C26.5311672,25.5579258 28.1888959,27.3211355 30.6144479,28.2078774 L30.6144479,28.2078774 L30.6144479,28.9134774 L31.5079811,28.9134774 L31.5079811,28.4859129 C32.3376341,28.7000903 33.2344795,28.8176903 34.1707571,28.8176903 C34.1769085,28.8176903 34.1829022,28.8173742 34.1890536,28.8173742 L34.1888959,28.8173742 L34.1888959,28.9134774 L35.082429,28.9134774 L35.082429,28.7788065 C36.0414196,28.6994581 36.9466246,28.4974516 37.7633438,28.1950742 L37.7633438,28.9134774 L38.656877,28.9134774 L38.656877,28.0178839 L38.2043533,28.0178839 C38.7764353,27.770829 39.2977287,27.4728774 39.7557729,27.1330387 L40.445836,27.1330387 L40.445836,26.5415613 L40.445836,26.5415613 C40.8199685,26.1693194 41.1278549,25.7627774 41.3549842,25.3295226 L41.3541956,25.3314194 L42.2313249,25.3314194 L42.2313249,24.4358258 L41.6966246,24.4358258 L41.6966246,24.4359839 C41.7704416,24.1415097 41.8109779,23.8394484 41.8109779,23.5305903 C41.8109779,23.3434419 41.7967823,23.1553452 41.7672871,22.9674065 C42.2370032,23.0195677 42.6912618,23.1185161 43.1267508,23.2571387 L43.1267508,23.5511387 L43.891735,23.5511387 C43.7739117,23.4975548 43.6538801,23.4477645 43.5322713,23.4006613 C44.1896845,23.6557774 44.7970978,24.0060484 45.3381073,24.4358258 L44.9122397,24.4358258 L44.9122397,25.3314194 L45.8057729,25.3314194 L45.8057729,24.8425258 C46.2401577,25.2558645 46.621388,25.7238935 46.9374763,26.2376032 L46.7011987,26.2376032 L46.7011987,27.1330387 L47.4011987,27.1330387 C47.3379495,26.9861968 47.2691798,26.8422 47.1966246,26.7007323 C47.69347,27.6665065 47.9742271,28.7648968 47.9742271,29.9334677 L47.9742271,36.4428806 L21.188265,36.4428806 L21.188265,32.0208677 L23.4655521,32.0208677 L23.4655521,32.4955355 L24.3592429,32.4955355 Z M48.867918,36.7436774 L48.867918,29.9334677 C48.867918,25.6251032 45.5016719,22.1541645 41.2041956,22.0315065 C41.2015142,22.0315065 41.1991483,22.0322968 41.1963091,22.0322968 C41.19347,22.0321387 41.1906309,22.0311903 41.1877918,22.0310323 L37.9278549,22.0579032 C37.6762776,21.8750226 37.0163407,21.3377613 36.7718612,20.582529 L40.9073502,20.582529 C42.7185489,20.582529 44.1912618,19.1058903 44.1912618,17.2914677 L44.1912618,9.76285484 C44.1912618,4.42390968 39.8573502,0.0807709677 34.5295899,0.0807709677 C29.2019874,0.0807709677 24.8669716,4.42390968 24.8669716,9.76285484 L24.8669716,14.7161226 C24.7176025,14.6585871 24.5560883,14.6255516 24.38653,14.6255516 L1.34126183,14.6255516 C0.601356467,14.6255516 9.4637224e-05,15.2282516 9.4637224e-05,15.9697323 L9.4637224e-05,30.6766871 C9.4637224e-05,31.4181677 0.601356467,32.0208677 1.34126183,32.0208677 L10.4627129,32.0208677 L10.0726498,33.1448645 L9.21350158,33.1448645 C8.5933123,33.1448645 8.03242902,33.4015613 7.62927445,33.8137935 C7.53479495,33.910371 7.44835962,34.0148516 7.37249211,34.1272355 C7.13305994,34.4824065 6.99299685,34.9102871 6.99299685,35.3702548 L6.99299685,36.497571 L2.13968454,36.497571 C1.08085174,36.497571 0.219337539,37.3609194 0.219337539,38.4229548 L0.219337539,42.6497581 C0.219337539,43.7108452 1.08085174,44.5741935 2.13968454,44.5741935 L47.9310095,44.5741935 C48.99,44.5741935 49.8523028,43.7108452 49.8523028,42.6497581 L49.8523028,38.4229548 C49.8523028,37.7020226 49.4543533,37.0735581 48.867918,36.7436774 L48.867918,36.7436774 Z" id="Fill-3" fill="#E9593D" mask="url(#mask-2)"></path>
                </g>
                <mask id="mask-4" fill="white">
                    <use xlink:href="#path-3"></use>
                </mask>
                <g id="Clip-7"></g>
                <polygon id="Fill-6" fill="#E9593D" mask="url(#mask-4)" points="44.9121451 40.3470742 45.805836 40.3470742 45.805836 39.4514806 44.9121451 39.4514806"></polygon>
                <polygon id="Fill-8" fill="#E9593D" mask="url(#mask-4)" points="46.7011041 38.5667935 47.594795 38.5667935 47.594795 37.6712 46.7011041 37.6712"></polygon>
                <polygon id="Fill-9" fill="#E9593D" mask="url(#mask-4)" points="44.9121451 36.7650161 45.805836 36.7650161 45.805836 35.8694226 44.9121451 35.8694226"></polygon>
                <polygon id="Fill-10" fill="#E9593D" mask="url(#mask-4)" points="46.7011041 34.9847355 47.594795 34.9847355 47.594795 34.0891419 46.7011041 34.0891419"></polygon>
                <polygon id="Fill-11" fill="#E9593D" mask="url(#mask-4)" points="44.9121451 33.1829581 45.805836 33.1829581 45.805836 32.2873645 44.9121451 32.2873645"></polygon>
                <polygon id="Fill-12" fill="#E9593D" mask="url(#mask-4)" points="41.3376972 40.3470742 42.231388 40.3470742 42.231388 39.4514806 41.3376972 39.4514806"></polygon>
                <polygon id="Fill-13" fill="#E9593D" mask="url(#mask-4)" points="43.1266562 38.5667935 44.020347 38.5667935 44.020347 37.6712 43.1266562 37.6712"></polygon>
                <polygon id="Fill-14" fill="#E9593D" mask="url(#mask-4)" points="41.3376972 36.7650161 42.231388 36.7650161 42.231388 35.8694226 41.3376972 35.8694226"></polygon>
                <polygon id="Fill-15" fill="#E9593D" mask="url(#mask-4)" points="43.1266562 34.9847355 44.020347 34.9847355 44.020347 34.0891419 43.1266562 34.0891419"></polygon>
                <polygon id="Fill-16" fill="#E9593D" mask="url(#mask-4)" points="41.3376972 33.1829581 42.231388 33.1829581 42.231388 32.2873645 41.3376972 32.2873645"></polygon>
                <polygon id="Fill-17" fill="#E9593D" mask="url(#mask-4)" points="43.1266562 31.4026774 44.020347 31.4026774 44.020347 30.5070839 43.1266562 30.5070839"></polygon>
                <polygon id="Fill-18" fill="#E9593D" mask="url(#mask-4)" points="37.7634069 40.3470742 38.6569401 40.3470742 38.6569401 39.4514806 37.7634069 39.4514806"></polygon>
                <polygon id="Fill-19" fill="#E9593D" mask="url(#mask-4)" points="39.5523659 38.5667935 40.4458991 38.5667935 40.4458991 37.6712 39.5523659 37.6712"></polygon>
                <polygon id="Fill-20" fill="#E9593D" mask="url(#mask-4)" points="37.7634069 36.7650161 38.6569401 36.7650161 38.6569401 35.8694226 37.7634069 35.8694226"></polygon>
                <polygon id="Fill-21" fill="#E9593D" mask="url(#mask-4)" points="39.5523659 34.9847355 40.4458991 34.9847355 40.4458991 34.0891419 39.5523659 34.0891419"></polygon>
                <polygon id="Fill-22" fill="#E9593D" mask="url(#mask-4)" points="34.1888013 40.3470742 35.0824921 40.3470742 35.0824921 39.4514806 34.1888013 39.4514806"></polygon>
                <polygon id="Fill-23" fill="#E9593D" mask="url(#mask-4)" points="35.9777603 38.5667935 36.8714511 38.5667935 36.8714511 37.6712 35.9777603 37.6712"></polygon>
                <polygon id="Fill-24" fill="#E9593D" mask="url(#mask-4)" points="34.1888013 36.7650161 35.0824921 36.7650161 35.0824921 35.8694226 34.1888013 35.8694226"></polygon>
                <polygon id="Fill-25" fill="#E9593D" mask="url(#mask-4)" points="35.9777603 34.9847355 36.8714511 34.9847355 36.8714511 34.0891419 35.9777603 34.0891419"></polygon>
                <polygon id="Fill-26" fill="#E9593D" mask="url(#mask-4)" points="30.6143533 40.3470742 31.5080442 40.3470742 31.5080442 39.4514806 30.6143533 39.4514806"></polygon>
                <polygon id="Fill-27" fill="#E9593D" mask="url(#mask-4)" points="32.4033123 38.5667935 33.2970032 38.5667935 33.2970032 37.6712 32.4033123 37.6712"></polygon>
                <polygon id="Fill-28" fill="#E9593D" mask="url(#mask-4)" points="30.6143533 36.7650161 31.5080442 36.7650161 31.5080442 35.8694226 30.6143533 35.8694226"></polygon>
                <polygon id="Fill-29" fill="#E9593D" mask="url(#mask-4)" points="32.4033123 34.9847355 33.2970032 34.9847355 33.2970032 34.0891419 32.4033123 34.0891419"></polygon>
                <polygon id="Fill-30" fill="#E9593D" mask="url(#mask-4)" points="27.0400631 40.3470742 27.9335962 40.3470742 27.9335962 39.4514806 27.0400631 39.4514806"></polygon>
                <polygon id="Fill-31" fill="#E9593D" mask="url(#mask-4)" points="28.8290221 38.5667935 29.7225552 38.5667935 29.7225552 37.6712 28.8290221 37.6712"></polygon>
                <polygon id="Fill-32" fill="#E9593D" mask="url(#mask-4)" points="27.0400631 36.7650161 27.9335962 36.7650161 27.9335962 35.8694226 27.0400631 35.8694226"></polygon>
                <polygon id="Fill-33" fill="#E9593D" mask="url(#mask-4)" points="28.8290221 34.9847355 29.7225552 34.9847355 29.7225552 34.0891419 28.8290221 34.0891419"></polygon>
                <polygon id="Fill-34" fill="#E9593D" mask="url(#mask-4)" points="27.0400631 33.1829581 27.9335962 33.1829581 27.9335962 32.2873645 27.0400631 32.2873645"></polygon>
                <polygon id="Fill-35" fill="#E9593D" mask="url(#mask-4)" points="23.4656151 40.3469161 24.359306 40.3469161 24.359306 39.4513226 23.4656151 39.4513226"></polygon>
                <polygon id="Fill-36" fill="#E9593D" mask="url(#mask-4)" points="25.2544164 38.5667935 26.1481073 38.5667935 26.1481073 37.6712 25.2544164 37.6712"></polygon>
                <polygon id="Fill-37" fill="#E9593D" mask="url(#mask-4)" points="21.6801262 38.5667935 22.573817 38.5667935 22.573817 37.6712 21.6801262 37.6712"></polygon>
            </g>
        </g>
    </g>
</svg>