<?xml version="1.0" encoding="UTF-8"?>
<svg width="1237px" height="739px" viewBox="0 0 1237 739" version="1.1" xmlns="http://www.w3.org/2000/svg" xmlns:xlink="http://www.w3.org/1999/xlink">
    <!-- Generator: sketchtool 64 (101010) - https://sketch.com -->
    <title>5BE33655-7687-47C6-9E0C-1E0A88B9E3EF</title>
    <desc>Created with sketchtool.</desc>
    <g id="Page-1" stroke="none" stroke-width="1" fill="none" fill-rule="evenodd">
        <g id="isa-pwyc-calculator" transform="translate(-163.000000, -61.000000)" fill="#DEEBE7">
            <g id="Group-2" transform="translate(-133.641016, -21.000000)">
                <polygon id="Path-2" points="102.648829 974.984375 1551.71914 135 1551.71914 974.984375"></polygon>
                <g id="alumni-hired-combo3" transform="translate(801.000000, 501.121778) rotate(-210.000000) translate(-801.000000, -501.121778) translate(-84.000000, 433.621778)" fill-rule="nonzero">
                    <path d="M1769.59659,0.909499798 L0.596586027,0.909499798 L0.596586027,58.0012257 C0.596586027,58.0012257 3.07318603,55.5931389 4.94327174,55.6433074 C6.11770201,55.681188 7.26414114,56.0087788 8.27910031,56.5965084 C10.0914934,57.5596488 11.6631955,58.9139868 12.8785003,60.559818 C14.9049045,60.1458459 16.9903475,60.9269763 18.2360432,62.5665571 C20.409386,65.2254863 22.3300146,65.2254863 24.2506432,63.9712744 C26.6767003,66.0783504 28.900586,66.4295297 29.3049289,62.3658832 C31.730986,65.0248124 30.6190432,61.4628506 31.1750146,60.9109974 C31.730986,60.3591441 34.0559575,61.3123452 35.8249575,61.4126821 C39.6156717,64.5231277 40.575986,62.3658832 43.760186,64.5231277 C46.717998,65.1742186 49.4010782,66.7160747 51.4427003,68.9379536 C52.8579003,63.9211059 54.6269003,62.6167256 56.9518717,64.2221168 C59.2768432,65.827508 60.6415003,64.2221168 62.3094146,64.2221168 C64.6849289,66.6302037 65.9990432,65.6770026 67.3637003,65.7773396 C69.5370432,67.3827308 71.356586,67.6335732 72.417986,66.5298667 C73.7593875,66.7964158 75.150538,66.6565833 76.4108717,66.1285189 C77.6239003,65.1753178 79.0391003,65.6268341 80.6059289,66.1285189 C82.1142141,66.4930008 83.6545585,66.7114201 85.2053289,66.7807091 C86.8850629,66.9634186 88.5798805,66.9634186 90.2596146,66.7807091 C91.8264432,66.7807091 93.1405575,69.6403122 94.7579289,67.6837417 C96.0215003,68.2857634 97.0323575,70.1921655 98.7002717,68.5366058 C99.5089575,70.4430078 101.176872,69.3894698 102.794243,68.5366058 C104.057815,69.1386275 105.119215,70.3426709 107.292557,68.1854264 C107.949615,71.195535 110.780015,66.1786874 112.094129,67.8844156 C113.913672,66.2288558 115.429957,67.3325623 117.148415,63.6702636 C118.816329,62.2153777 120.4337,60.8106604 122.2027,62.3157147 C123.769529,64.77397 125.437443,62.3157147 127.256986,61.9143669 C130.592815,60.660155 134.181357,63.720432 137.719357,63.720432 C141.055186,66.3291928 143.7845,64.2221168 146.564357,64.9244755 C148.939872,64.9244755 152.225157,67.0817199 154.903929,67.8342471 C156.113786,68.2905113 157.40066,68.5119172 158.694643,68.4864373 C160.28499,67.6597566 161.748587,66.612421 163.041329,65.3759917 C165.669557,66.0783504 168.095615,67.6837417 169.460272,64.8241385 C171.128186,63.5197581 172.644472,61.5631876 174.2113,60.2086387 C175.778129,59.6567855 177.344957,56.4961715 179.265586,56.9476877 C180.9335,54.338927 182.803586,59.7571224 184.319872,56.1449921 C186.189957,57.7503834 188.0095,54.4392639 190.031215,56.1449921 C192.344802,55.5821897 194.778959,56.3810705 196.298529,58.2018996 C198.522415,58.2018996 201.352815,56.1449921 204.233757,59.4561116 C207.1147,61.9143669 209.995643,61.8140299 212.168986,56.4961715 C215.151015,59.5564485 217.7287,57.9008888 220.306386,56.2453291 C222.884072,54.5897694 225.360672,53.1348835 228.443786,55.1416226 C229.996806,54.8546048 231.561601,55.5807786 232.335586,56.9476877 C233.6497,59.1551007 234.913272,56.5463399 236.176843,58.1517312 C237.440415,58.6534159 238.653443,57.0480247 239.917015,58.1517312 C241.180586,58.553079 242.393615,56.9476877 243.606643,56.7470138 C244.516415,59.8072909 245.224015,54.7402748 246.0327,55.8439813 C246.841386,55.2419596 247.650072,53.2352205 248.458757,54.8406117 C249.267443,54.5396009 250.126672,55.5429704 250.884815,54.0880846 C251.6935,51.3789869 252.552729,53.285389 253.361415,52.9342096 C254.1701,52.5830303 255.029329,52.9342096 255.838015,51.7301662 C256.6467,50.5261228 257.505929,51.7301662 258.365157,51.7301662 C260.942843,51.7301662 263.672157,53.6867368 266.350929,53.5362314 C269.103831,54.1369182 271.929724,54.3396864 274.741043,54.1382531 C276.661672,54.1382531 278.5823,54.9409487 280.452386,53.4860629 C282.373015,53.4860629 284.2431,51.9810086 286.163729,51.8806716 C287.140891,51.5127695 288.101205,51.1114217 289.044672,50.6766282 L291.925615,49.2217424 C295.766872,48.5695522 299.557586,45.5594436 303.196672,46.7133186 C306.8863,44.9574219 310.373757,47.5160142 313.861215,43.9540524 C317.247586,43.6028731 320.381243,46.8136555 323.666529,43.5527046 C325.486072,45.0075904 327.305615,44.3052317 329.1757,43.5527046 C331.096329,41.0944493 332.764243,45.4591067 334.583786,44.4557372 C336.263735,43.7523211 338.195152,44.0015454 339.638072,45.1079274 C341.388153,45.4641568 343.086212,46.0372204 344.692357,46.8136555 C347.793733,48.4740039 351.440055,48.8178387 354.800929,47.7668566 C357.985129,45.810286 360.866072,47.7668566 363.8481,45.3086013 C366.830129,42.8503459 369.559443,41.7968079 372.592015,39.6897319 C375.435721,38.3937138 378.57627,37.874166 381.689729,38.1846776 C387.249443,36.8802973 392.758615,32.8668192 396.498786,31.9637866 C398.445488,30.9762901 400.662254,30.6418374 402.816643,31.0105855 C405.116959,27.5208444 408.308572,24.6990986 412.065986,22.8331239 C414.340415,21.0270588 416.614843,26.0940749 418.889272,27.8499715 C420.754606,30.3217853 423.201377,32.3025964 426.015815,33.6193463 C427.279386,34.7732213 428.542957,36.4789494 429.705443,37.381982 C430.576361,38.1788577 431.91764,38.1788577 432.788557,37.381982 C434.9619,37.9840037 437.539586,39.2382156 439.156957,38.0843407 C439.156957,36.3786125 441.734643,38.0843407 443.503643,39.0375417 C443.8069,37.5324874 446.890015,44.857085 448.103043,43.2015253 C449.316072,41.5459655 451.792672,38.7866993 452.904615,45.0075904 C454.926329,43.2516937 455.4823,46.4123077 457.402929,45.0075904 C458.565415,46.5126447 460.384957,45.810286 463.013186,42.5995035 C465.387392,42.1029965 467.534165,40.8526506 469.128872,39.0375417 C470.661369,39.3643422 472.246317,39.3643422 473.778815,39.0375417 C474.435872,40.3920906 474.638043,42.2984927 476.861929,40.5927645 C476.861929,42.4991666 478.428757,41.7968079 478.8331,43.0008514 C479.793415,43.0008514 478.8331,46.6129816 481.259157,44.4055687 C481.562415,45.6597806 483.937929,43.7533785 484.1401,45.0577589 C485.252043,45.0577589 486.919957,43.9038839 487.728643,44.2550633 C488.992215,43.1513568 489.901986,42.9005144 490.559043,43.6530415 C491.2161,44.4055687 492.328043,42.8503459 492.833472,44.9574219 C493.743243,44.3554002 494.299215,46.863824 495.310072,46.3119708 C497.180157,44.4557372 497.887757,46.3119708 498.595357,48.2685414 C499.606215,49.0210685 501.1225,48.7702261 504.003443,47.2651718 C506.884386,45.7601175 509.057729,43.6530415 508.1985,46.863824 C511.079443,42.3486612 509.866415,47.3153403 510.877272,46.863824 C512.140843,44.4557372 512.595729,45.810286 513.353872,46.2116338 C514.112015,46.6129816 515.476672,46.2116338 516.285357,45.1580958 C516.891872,43.2015253 517.852186,42.2483242 519.469557,44.1045578 C521.086929,45.9607914 520.733129,41.3452916 522.7043,44.1045578 C523.917329,44.4055687 526.848815,47.6163512 527.354243,46.2116338 C529.982472,48.5695522 530.639529,47.1648349 532.408529,47.5661827 C532.863415,46.0611284 535.390557,47.1146664 536.249786,46.3119708 C537.109015,45.5092752 536.805757,43.803547 538.878015,44.6564111 C541.910586,45.9607914 541.860043,45.5092752 541.556786,43.9540524 C542.314929,44.3052317 542.567643,43.9540524 543.073072,43.9540524 C543.5785,43.9540524 544.2861,44.2048948 544.488272,43.2015253 C545.145329,43.6028731 545.7013,42.9005144 546.358357,43.2015253 C547.0788,43.1352698 547.78363,43.4378034 548.228443,44.0042209 C549.492015,44.0042209 550.755586,45.3086013 551.968615,44.5560741 C553.181643,43.803547 553.181643,45.3086013 553.788157,45.3086013 C554.394672,45.3086013 555.051729,45.3086013 555.759329,44.9574219 C557.027212,44.3058541 558.534874,44.3058541 559.802757,44.9574219 C561.217957,42.9506829 562.6837,44.9574219 564.149443,43.3018622 C565.589726,42.7421913 566.991137,42.0885745 568.3445,41.3452916 C569.7597,43.1011883 571.023272,41.696471 572.337386,40.4422591 C573.752586,37.9338353 575.218329,39.1378787 576.684072,39.2382156 C578.149815,39.3385526 579.463929,42.4991666 580.980215,39.6395634 C583.963023,40.5999244 586.789295,41.9856936 589.370329,43.7533785 C592.200729,45.5594436 594.980586,47.5661827 597.760443,49.4725848 C602.3093,49.4725848 607.211957,49.8237641 612.468415,49.9742695 L620.757443,49.9742695 C623.55593,49.3776362 626.450156,49.3776362 629.248643,49.9742695 C631.725243,51.077976 635.2127,48.8203946 638.295815,48.3187098 C639.711481,47.5110114 641.312954,47.0790518 642.945757,47.0644979 C644.259872,47.0644979 645.675072,46.5628132 646.5343,47.0644979 C647.659324,47.4549493 648.901252,47.3261567 649.920672,46.7133186 C651.386415,45.810286 652.9027,44.8069165 653.6103,45.4089382 C654.3179,46.0109599 655.0255,47.0143294 657.249386,44.5560741 C659.068929,42.9506829 661.0401,40.9439438 661.494986,42.6998405 C663.415615,41.0944493 663.617786,43.1011883 665.235157,42.6998405 C667.560129,40.4924275 668.217186,42.3486612 669.986186,41.7968079 C671.755186,41.2449547 672.3617,44.7065795 674.636129,42.8001774 C676.101872,44.1547263 678.073043,42.8001774 679.690415,44.0042209 C681.105615,46.863824 682.874615,45.6096121 684.491986,46.4123077 C685.856643,50.5261228 687.827815,46.4123077 689.546272,47.0644979 C691.264729,46.0611284 692.629386,48.8203946 694.600557,47.0644979 C696.571729,45.3086013 697.936386,46.4624762 699.654843,44.6564111 C700.817329,44.0042209 702.030357,43.1011883 702.839043,45.1580958 C704.102615,43.7533785 705.2651,42.750009 705.9727,45.1580958 C707.82318,43.8258635 710.162593,43.350476 712.391643,43.8537154 C714.879037,42.8432027 717.183724,41.436743 719.214929,39.6897319 C720.989973,40.4785572 722.937902,40.8065618 724.875729,40.642933 C729.028409,40.1204164 733.134478,39.2818045 737.157643,38.1345092 C743.020615,38.7365309 749.287929,37.482319 753.887329,42.649672 C759.42555,44.3614389 764.527901,47.2359171 768.848015,51.077976 C773.9023,52.5830303 778.248986,48.3187098 784.5163,58.3524051 C790.8847,62.7170625 797.707986,60.6099865 804.278557,65.3258233 C807.365519,62.9620056 810.909687,61.2542799 814.690386,60.3089756 C817.015357,57.1985301 820.199557,60.0079648 822.625615,63.8709375 C824.596786,66.3793613 827.022843,65.827508 829.196186,68.1854264 C831.723329,68.1854264 834.856986,72.0483991 837.080872,67.6837417 C839.557472,67.6837417 841.073757,64.9746439 845.470986,67.6837417 C846.330215,65.0248124 849.413329,66.7305406 851.232872,67.0315515 C853.052415,67.3325623 854.265443,66.1285189 856.287157,66.0783504 C858.308872,66.0281819 861.341443,67.0315515 864.778357,62.4160517 L868.7207,63.9712744 L872.6125,65.4261602 C875.240729,66.3793613 877.970043,66.0281819 880.699357,68.0850895 C882.8727,65.2756548 884.742786,72.1989045 886.815043,69.7908177 C888.816682,71.0352103 891.205192,71.5165043 893.537243,71.1453665 C895.862215,71.1453665 898.288272,70.5935133 900.764872,72.3494099 C902.584415,70.2423339 904.4545,69.8911546 906.324586,72.7507578 C908.144129,72.7507578 909.862586,74.1554751 911.378872,74.0551381 C912.895157,73.9548012 914.664157,76.362888 916.433157,76.9147413 C916.8375,79.5736705 918.050529,80.1255238 919.920615,79.9750183 C919.111929,81.3797357 919.162472,81.831252 920.577672,81.6807465 C921.992872,81.5302411 922.1445,81.6807465 922.548843,82.1322628 C923.054272,83.6874856 924.924357,83.5871486 927.603129,82.4834421 C929.321586,83.0352954 933.971529,75.6103609 934.274786,81.5804096 C936.852472,76.5635619 936.6503,85.3932138 938.7731,83.6874856 C940.036672,85.945067 941.2497,90.3097244 942.968157,86.1457409 C944.181186,92.7679798 945.646929,91.1625885 947.112672,91.1625885 C948.426786,95.2262351 949.943072,92.4168004 951.358272,93.319833 C952.9251,91.212757 954.239215,94.5238764 955.704957,95.2764036 C957.1707,96.0289307 958.484815,99.7915664 959.950557,99.1393762 C961.365757,100.393588 962.8315,100.092577 964.2467,101.848474 C965.79362,103.155168 967.199526,104.617912 968.441757,106.213131 C969.955262,106.759788 971.397534,107.484004 972.7379,108.370376 C974.203643,107.166332 975.618843,108.771724 977.034043,109.724925 C978.449243,110.678126 980.066615,105.661278 981.380729,110.477452 C982.341043,111.480821 983.3519,111.229979 984.261672,114.089582 C985.221986,115.243457 986.1823,116.14649 987.142615,115.995984 C989.113786,115.995984 991.034415,114.691604 993.005586,116.447501 C994.976757,118.203397 996.897386,114.741772 998.969643,116.447501 C1000.43539,115.444131 1002.00221,116.096321 1003.67013,117.250196 C1005.39747,117.727626 1007.08685,118.331296 1008.72441,119.056261 C1009.557,119.437872 1010.44321,119.691614 1011.35264,119.808788 C1012.11079,119.808788 1013.12164,120.76199 1013.7787,120.109799 C1014.65123,120.646121 1015.56364,121.115717 1016.50801,121.514517 C1017.11453,120.661653 1017.92321,120.812158 1018.47919,119.708452 C1019.94493,118.504408 1021.51176,116.347164 1023.53347,117.651544 C1025.35301,116.547837 1027.72853,120.561316 1029.54807,119.256935 C1031.36761,117.952555 1034.14747,121.564685 1036.72516,123.170076 C1038.03517,125.645959 1040.08252,127.660624 1042.58813,128.939451 C1043.95393,129.936466 1045.66388,130.351758 1047.33916,130.093326 C1049.98194,129.439979 1052.40493,128.107692 1054.36461,126.230353 C1066.44436,140.979885 1066.29273,125.076478 1072.8633,133.554951 C1076.60347,129.942821 1080.44473,131.29737 1084.13436,131.648549 C1086.26033,132.09873 1088.43816,131.149195 1089.54244,129.29063 C1091.2609,134.658657 1093.0299,134.9095 1094.59673,134.9095 C1097.14944,133.845035 1099.23068,131.903864 1100.4597,129.441136 C1102.48141,128.487935 1104.50313,128.538103 1106.52484,127.735408 C1108.54656,126.932712 1110.31556,128.98962 1112.08456,129.140125 L1114.71279,129.140125 C1115.5623,128.98935 1116.43732,129.076204 1117.23993,129.390967 C1118.21453,129.291666 1119.19681,129.291666 1120.17141,129.390967 C1122.64801,126.68187 1122.44584,129.390967 1123.35561,130.243832 C1127.04524,125.226984 1126.08493,133.103435 1127.90447,131.899391 C1129.72401,130.695348 1131.44247,131.899391 1132.95876,132.651918 C1134.10152,133.019379 1135.29553,133.205618 1136.49676,133.203772 C1137.40653,133.203772 1138.6701,134.207141 1139.3777,133.90613 C1140.54019,134.508152 1140.84344,133.90613 1141.80376,133.90613 C1142.76407,133.90613 1143.6233,133.90613 1144.02764,133.003098 C1145.32375,132.926049 1146.62334,132.926049 1147.91944,133.003098 C1149.2841,133.003098 1151.15419,134.307478 1151.96287,132.100065 C1152.77156,129.892652 1154.28784,129.390967 1155.90521,130.143495 C1157.62367,131.899391 1158.43236,127.384228 1159.79701,126.932712 C1161.26276,124.37412 1162.7285,122.818897 1163.94153,123.320582 C1165.15456,123.822267 1166.51921,121.815528 1167.78279,120.611484 C1168.99581,120.260305 1170.20884,118.705082 1171.27024,118.855587 C1171.86531,117.681005 1173.07937,116.942413 1174.4039,116.949185 C1175.09686,116.106312 1176.09464,115.566101 1177.18376,115.444131 C1178.14407,114.541098 1179.05384,114.992615 1180.0647,114.089582 C1181.07556,114.089582 1182.28859,113.537729 1183.55216,113.18655 C1184.81573,112.83537 1186.12984,113.18655 1187.44396,113.18655 C1188.75807,113.18655 1190.12273,112.935707 1191.99281,112.83537 C1192.8015,111.882169 1195.12647,111.982506 1196.54167,111.581158 C1199.1699,110.577789 1200.83781,109.323577 1202.3541,108.671387 C1203.56361,107.696066 1204.82932,106.791502 1206.14481,105.962289 C1207.40839,104.758246 1208.3687,105.059256 1209.73336,103.453865 C1210.89584,103.102686 1212.56376,101.045778 1214.13059,100.34342 C1215.69741,99.641061 1218.02239,98.1861752 1219.89247,100.34342 C1222.8745,100.794936 1225.65436,100.34342 1228.33313,100.694599 C1230.91081,102.149485 1233.38741,100.945441 1236.3189,101.346789 C1238.99767,100.092577 1241.67644,103.95555 1245.01227,104.958919 C1247.04506,104.972727 1249.07497,104.80482 1251.07741,104.457235 C1252.79551,104.011229 1254.48362,103.458282 1256.1317,102.801675 C1257.99895,102.419077 1259.92525,102.419077 1261.7925,102.801675 C1267.75656,113.236718 1271.24401,114.591267 1271.90107,112.83537 C1272.55813,111.079474 1275.69179,109.524251 1276.14667,107.116164 C1278.4211,105.059256 1279.78576,101.597632 1282.41399,101.246452 C1285.0102,101.347061 1287.50844,100.255241 1289.18673,98.2865122 L1293.68504,98.2865122 L1298.38553,98.2865122 C1299.90181,97.8851643 1303.43981,101.196284 1304.19796,99.741398 C1306.06804,99.741398 1309.25224,101.196284 1309.70713,100.192914 C1308.8479,97.8349959 1312.99241,100.493925 1313.19459,99.5908925 C1315.06467,100.142746 1314.35707,98.0356698 1315.77227,98.2363437 C1317.18747,98.4370176 1318.85539,99.4403871 1318.90593,96.2797731 C1320.06841,96.2797731 1321.28144,95.1760666 1322.54501,94.6743819 C1324.39285,92.6484702 1327.1666,91.7180765 1329.87373,92.2161265 C1331.06275,91.6565155 1332.35041,91.3327244 1333.66444,91.2629255 L1338.36493,90.8114092 C1341.7513,89.7077027 1345.84527,89.6575342 1346.75504,87.0487735 C1348.79937,86.3810734 1350.7015,85.3434995 1352.3653,83.9884964 C1354.43756,83.0352954 1356.81307,80.6272085 1359.54239,82.684116 C1360.75541,82.1322628 1362.06953,78.6706379 1363.3331,80.0753553 C1364.59667,75.6605294 1365.86024,80.0753553 1367.17436,77.9181108 C1368.48847,75.7608663 1369.65096,77.1655837 1370.96507,76.1622141 C1372.1781,77.0652467 1373.49221,76.1622141 1374.70524,77.3662576 C1375.96881,76.2123826 1377.18184,77.3662576 1378.44541,78.2692901 C1379.53382,79.0973443 1381.04663,79.0973443 1382.13504,78.2692901 C1383.29753,76.463225 1384.46001,77.2157521 1385.67304,77.7174369 C1386.8361,77.9925132 1388.04799,77.9925132 1389.21104,77.7174369 C1391.41152,76.4764677 1393.77633,75.547682 1396.2365,74.9581707 C1398.56147,74.9581707 1400.8359,71.195535 1403.16087,69.9413231 C1405.38476,70.1921655 1407.60864,66.0783504 1409.88307,66.0783504 C1412.1575,63.5197581 1414.48247,65.5264972 1416.70636,62.3157147 C1417.8183,61.2621767 1418.98079,61.4126821 1420.09273,61.1116713 C1421.17515,60.7819403 1422.2969,60.5963667 1423.42856,60.559818 C1425.45027,62.767231 1427.62361,59.8574594 1429.89804,60.559818 C1432.17247,61.2621767 1434.4469,61.0615028 1436.67079,58.8540898 C1438.94521,59.1049322 1441.1691,60.6099865 1443.14027,60.7604919 C1445.11144,60.9109974 1447.58804,67.4830678 1449.91301,63.1685788 C1452.18744,62.7170625 1453.45101,57.2486986 1455.77599,57.7002149 C1456.8356,57.117927 1457.95362,56.6471317 1459.11181,56.2954976 C1460.12267,55.0412856 1461.23461,55.8941497 1462.0433,54.3890955 C1462.85199,51.8305032 1463.86284,53.185052 1464.72207,52.2820195 C1465.68239,50.4759543 1466.54161,52.7837042 1467.3503,50.3254489 C1468.4117,49.3220794 1469.42256,48.6197207 1470.1807,48.7200576 C1471.29264,47.917362 1473.0111,46.2116338 1473.3649,46.9139925 C1474.27467,46.6631501 1474.88119,47.5661827 1476.29639,45.6096121 C1477.50941,44.7065795 1479.17733,42.8503459 1479.78384,43.3018622 C1480.39036,43.7533785 1481.80556,40.7432699 1482.5637,40.0409113 C1483.32184,39.3385526 1485.54573,36.0776016 1485.24247,37.381982 C1487.01147,35.6762538 1487.01147,36.8301288 1488.62884,35.5759169 C1490.17727,34.8860426 1491.99754,35.2717606 1493.12716,36.5291179 C1493.48096,37.2816451 1494.69399,37.2314766 1495.14887,37.7331613 C1497.72656,36.9806342 1495.90701,39.3385526 1497.27167,39.0877102 C1498.63633,38.8368678 1499.14176,40.2415852 1500.15261,40.9941123 C1500.83989,41.335292 1501.40462,41.8783181 1501.76999,42.5493351 C1502.32596,43.0008514 1502.93247,43.70321 1503.23573,43.6028731 C1503.53899,43.5025361 1504.70147,44.2048948 1505.45961,45.2082643 L1507.58241,45.9607914 C1509.625,44.7002614 1512.21148,44.7002614 1514.25407,45.9607914 C1515.61873,46.5628132 1517.69099,46.7133186 1519.61161,47.3153403 C1521.53224,47.917362 1522.99799,48.6197207 1523.30124,49.5227533 C1526.18219,49.9742695 1527.34467,50.6264597 1527.54684,51.5294923 C1532.0957,51.8305032 1530.27616,52.9342096 1532.24733,53.3857259 C1533.81416,56.2954976 1535.2799,54.5396009 1536.94781,54.2887585 C1538.61573,54.0379161 1538.8179,55.4928019 1540.78907,54.9911172 C1540.78907,55.7436443 1541.90101,55.7436443 1542.55807,56.0446552 C1543.21513,56.345666 1544.42816,56.6466769 1544.37761,56.9978562 C1545.94444,57.399204 1546.75313,57.6500464 1546.19716,58.2018996 C1548.06724,58.2018996 1547.86507,59.0547637 1548.42104,59.7069539 C1549.7857,60.4093126 1550.69547,62.9679049 1551.9085,62.8173995 C1553.42479,64.1217798 1554.0313,66.0783504 1555.04216,67.1820569 C1556.33917,68.1775557 1557.95395,68.6762093 1559.59101,68.5867742 C1562.77521,70.3928394 1561.25893,65.8776765 1563.12901,67.0817199 C1564.34204,66.5800352 1566.36376,67.0817199 1569.2447,68.3359318 C1571.0357,67.0736014 1572.592,65.5118544 1573.8441,63.720432 C1575.175,62.4287709 1576.73412,61.3913847 1578.4435,60.660155 C1577.63481,58.0513942 1580.16196,60.3591441 1587.2885,68.7874481 C1591.5341,62.2153777 1597.39707,70.5935133 1602.45136,58.7537529 C1607.20239,54.5897694 1612.55993,63.7706005 1616.60336,49.2217424 C1618.57215,51.7914334 1621.40673,53.5721818 1624.58913,54.23859 C1627.06573,55.3422965 1629.34016,54.7904433 1631.56404,55.6433074 C1633.18141,53.6365683 1635.65801,57.0981932 1637.67973,57.8005518 C1639.92717,56.3149151 1642.95416,56.8451331 1644.55356,59.0045953 C1647.03885,58.9278569 1649.51051,58.6085853 1651.93281,58.0513942 C1653.27142,58.1307321 1654.59546,57.7400131 1655.67299,56.9476877 C1656.72949,56.000311 1658.22727,55.7106984 1659.56479,56.1951606 C1660.82836,55.9443182 1662.19301,56.1951606 1663.25441,54.6901063 C1664.51799,55.0914541 1665.78156,56.1951606 1666.84296,54.3890955 C1669.26901,57.4493725 1671.34127,54.8406117 1673.6157,56.6968454 C1675.78904,56.6968454 1678.11401,59.1049322 1680.13573,57.1483616 C1682.08652,56.5064382 1684.10422,56.0856909 1686.15033,55.8941497 C1687.90183,55.0934922 1689.78604,54.6174265 1691.71004,54.4894324 C1692.61981,53.3857259 1693.37796,55.1917911 1694.28773,53.7369053 C1695.17671,53.6131387 1696.03412,53.3237761 1696.81487,52.8840412 C1699.28049,52.8278213 1701.71413,52.3174799 1703.99196,51.3789869 C1706.26639,50.9274706 1709.04624,47.4156773 1710.7647,50.8773021 C1713.01259,51.7401142 1715.30747,52.4770764 1717.63853,53.0847151 C1718.80101,53.6867368 1720.06459,53.0847151 1721.17653,54.1382531 C1722.28847,55.1917911 1723.65313,54.1382531 1725.01779,54.6901063 C1726.76196,54.4382552 1728.46276,53.9486744 1730.07207,53.2352205 C1731.68944,52.6331988 1733.35736,52.6331988 1734.87364,51.9810086 C1736.49717,52.3478948 1738.19859,51.8975443 1739.4225,50.7769652 C1740.97723,50.3519266 1742.6188,50.3519266 1744.17353,50.7769652 C1747.45881,51.7803347 1749.22781,47.0143294 1751.8055,46.7634871 C1753.5745,43.5527046 1755.59621,43.1011883 1757.76956,44.5560741 C1758.99411,43.3698704 1760.51006,42.5223809 1762.16679,42.0978188 C1763.55049,41.8383991 1764.96229,42.3833677 1765.80587,43.5025361 C1767.0189,44.0543894 1766.61456,43.5025361 1767.62541,43.5025361 C1768.63627,43.5025361 1768.7879,42.649672 1768.7879,42.6998405 C1768.65004,41.9972177 1768.81502,41.2694025 1769.24279,40.6931014 L1769.59659,0.909499798 Z" id="Path"></path>
                </g>
            </g>
        </g>
    </g>
</svg>