<?xml version="1.0" encoding="UTF-8"?>
<svg width="1071px" height="1071px" viewBox="0 0 1071 1071" version="1.1" xmlns="http://www.w3.org/2000/svg" xmlns:xlink="http://www.w3.org/1999/xlink">
    <title>E9983F1A-EA6C-4F57-B1FB-BD90BE508FDC</title>
    <g id="Page-1" stroke="none" stroke-width="1" fill="none" fill-rule="evenodd" opacity="0.0849609375">
        <g id="web-dev-landing-page" transform="translate(-329.000000, -6429.000000)" fill="#FFFFFF">
            <g id="Group-11" transform="translate(0.000000, 6429.000000)">
                <g id="Group-211" transform="translate(329.000000, 0.000000)">
                    <polygon id="Fill-1" points="1051.339 1031.819 1070.807 1031.819 1070.807 1012.35 1051.339 1012.35"></polygon>
                    <polygon id="Fill-2" points="1012.357 1070.98 1031.826 1070.98 1031.826 1051.511 1012.357 1051.511"></polygon>
                    <polygon id="Fill-3" points="1051.339 953.948 1070.807 953.948 1070.807 934.479 1051.339 934.479"></polygon>
                    <polygon id="Fill-4" points="1012.357 993.106 1031.826 993.106 1031.826 973.637 1012.357 973.637"></polygon>
                    <polygon id="Fill-5" points="1051.339 876.073 1070.807 876.073 1070.807 856.604 1051.339 856.604"></polygon>
                    <polygon id="Fill-6" points="1012.357 915.234 1031.826 915.234 1031.826 895.765 1012.357 895.765"></polygon>
                    <polygon id="Fill-7" points="1051.339 798.198 1070.807 798.198 1070.807 778.729 1051.339 778.729"></polygon>
                    <polygon id="Fill-8" points="1012.357 837.359 1031.826 837.359 1031.826 817.89 1012.357 817.89"></polygon>
                    <polygon id="Fill-9" points="1051.339 720.327 1070.807 720.327 1070.807 700.858 1051.339 700.858"></polygon>
                    <polygon id="Fill-10" points="1012.357 759.488 1031.826 759.488 1031.826 740.019 1012.357 740.019"></polygon>
                    <polygon id="Fill-11" points="1051.339 642.452 1070.807 642.452 1070.807 622.984 1051.339 622.984"></polygon>
                    <polygon id="Fill-12" points="1012.357 681.614 1031.826 681.614 1031.826 662.145 1012.357 662.145"></polygon>
                    <polygon id="Fill-13" points="1051.339 564.578 1070.807 564.578 1070.807 545.109 1051.339 545.109"></polygon>
                    <polygon id="Fill-14" points="1012.357 603.739 1031.826 603.739 1031.826 584.27 1012.357 584.27"></polygon>
                    <polygon id="Fill-15" points="1051.339 486.707 1070.807 486.707 1070.807 467.238 1051.339 467.238"></polygon>
                    <polygon id="Fill-16" points="1012.357 525.868 1031.826 525.868 1031.826 506.399 1012.357 506.399"></polygon>
                    <polygon id="Fill-17" points="1051.339 408.832 1070.807 408.832 1070.807 389.363 1051.339 389.363"></polygon>
                    <polygon id="Fill-18" points="1012.357 447.993 1031.826 447.993 1031.826 428.524 1012.357 428.524"></polygon>
                    <polygon id="Fill-19" points="1051.339 330.957 1070.807 330.957 1070.807 311.488 1051.339 311.488"></polygon>
                    <polygon id="Fill-20" points="1012.357 370.118 1031.826 370.118 1031.826 350.649 1012.357 350.649"></polygon>
                    <polygon id="Fill-21" points="1051.339 253.086 1070.807 253.086 1070.807 233.617 1051.339 233.617"></polygon>
                    <polygon id="Fill-22" points="1012.357 292.247 1031.826 292.247 1031.826 272.779 1012.357 272.779"></polygon>
                    <polygon id="Fill-23" points="1051.339 175.212 1070.807 175.212 1070.807 155.743 1051.339 155.743"></polygon>
                    <polygon id="Fill-24" points="1012.357 214.373 1031.826 214.373 1031.826 194.904 1012.357 194.904"></polygon>
                    <polygon id="Fill-25" points="1051.339 97.337 1070.807 97.337 1070.807 77.868 1051.339 77.868"></polygon>
                    <polygon id="Fill-26" points="1012.357 136.498 1031.826 136.498 1031.826 117.029 1012.357 117.029"></polygon>
                    <polygon id="Fill-27" points="1051.339 19.466 1070.807 19.466 1070.807 -0.003 1051.339 -0.003"></polygon>
                    <polygon id="Fill-28" points="1012.357 58.627 1031.826 58.627 1031.826 39.158 1012.357 39.158"></polygon>
                    <polygon id="Fill-29" points="973.468 1031.819 992.937 1031.819 992.937 1012.35 973.468 1012.35"></polygon>
                    <polygon id="Fill-30" points="934.483 1070.98 953.952 1070.98 953.952 1051.511 934.483 1051.511"></polygon>
                    <polygon id="Fill-31" points="973.468 953.948 992.937 953.948 992.937 934.479 973.468 934.479"></polygon>
                    <polygon id="Fill-32" points="934.482 993.106 953.951 993.106 953.951 973.637 934.482 973.637"></polygon>
                    <polygon id="Fill-33" points="973.468 876.073 992.937 876.073 992.937 856.604 973.468 856.604"></polygon>
                    <polygon id="Fill-34" points="934.482 915.234 953.951 915.234 953.951 895.765 934.482 895.765"></polygon>
                    <polygon id="Fill-35" points="973.468 798.198 992.937 798.198 992.937 778.729 973.468 778.729"></polygon>
                    <polygon id="Fill-36" points="934.482 837.359 953.951 837.359 953.951 817.89 934.482 817.89"></polygon>
                    <polygon id="Fill-37" points="973.468 720.327 992.937 720.327 992.937 700.858 973.468 700.858"></polygon>
                    <polygon id="Fill-38" points="934.482 759.488 953.951 759.488 953.951 740.019 934.482 740.019"></polygon>
                    <polygon id="Fill-39" points="973.468 642.452 992.937 642.452 992.937 622.984 973.468 622.984"></polygon>
                    <polygon id="Fill-40" points="934.482 681.614 953.951 681.614 953.951 662.145 934.482 662.145"></polygon>
                    <polygon id="Fill-41" points="973.468 564.578 992.937 564.578 992.937 545.109 973.468 545.109"></polygon>
                    <polygon id="Fill-42" points="934.482 603.739 953.951 603.739 953.951 584.27 934.482 584.27"></polygon>
                    <polygon id="Fill-43" points="973.468 486.707 992.937 486.707 992.937 467.238 973.468 467.238"></polygon>
                    <polygon id="Fill-44" points="934.482 525.868 953.951 525.868 953.951 506.399 934.482 506.399"></polygon>
                    <polygon id="Fill-45" points="973.468 408.832 992.937 408.832 992.937 389.363 973.468 389.363"></polygon>
                    <polygon id="Fill-46" points="934.482 447.993 953.951 447.993 953.951 428.524 934.482 428.524"></polygon>
                    <polygon id="Fill-47" points="973.468 330.957 992.937 330.957 992.937 311.488 973.468 311.488"></polygon>
                    <polygon id="Fill-48" points="934.482 370.118 953.951 370.118 953.951 350.649 934.482 350.649"></polygon>
                    <polygon id="Fill-49" points="973.468 253.086 992.937 253.086 992.937 233.617 973.468 233.617"></polygon>
                    <polygon id="Fill-50" points="934.482 292.247 953.951 292.247 953.951 272.779 934.482 272.779"></polygon>
                    <polygon id="Fill-51" points="973.468 175.212 992.937 175.212 992.937 155.743 973.468 155.743"></polygon>
                    <polygon id="Fill-52" points="934.482 214.373 953.951 214.373 953.951 194.904 934.482 194.904"></polygon>
                    <polygon id="Fill-53" points="973.468 97.337 992.937 97.337 992.937 77.868 973.468 77.868"></polygon>
                    <polygon id="Fill-54" points="934.482 136.498 953.951 136.498 953.951 117.029 934.482 117.029"></polygon>
                    <polygon id="Fill-55" points="895.593 1031.819 915.062 1031.819 915.062 1012.35 895.593 1012.35"></polygon>
                    <polygon id="Fill-56" points="856.611 1070.98 876.08 1070.98 876.08 1051.511 856.611 1051.511"></polygon>
                    <polygon id="Fill-57" points="895.593 953.948 915.062 953.948 915.062 934.479 895.593 934.479"></polygon>
                    <polygon id="Fill-58" points="856.611 993.106 876.08 993.106 876.08 973.637 856.611 973.637"></polygon>
                    <polygon id="Fill-59" points="895.593 876.073 915.062 876.073 915.062 856.604 895.593 856.604"></polygon>
                    <polygon id="Fill-60" points="856.611 915.234 876.08 915.234 876.08 895.765 856.611 895.765"></polygon>
                    <polygon id="Fill-61" points="895.593 798.198 915.062 798.198 915.062 778.729 895.593 778.729"></polygon>
                    <polygon id="Fill-62" points="856.611 837.359 876.08 837.359 876.08 817.89 856.611 817.89"></polygon>
                    <polygon id="Fill-63" points="895.593 720.327 915.062 720.327 915.062 700.858 895.593 700.858"></polygon>
                    <polygon id="Fill-64" points="856.611 759.488 876.08 759.488 876.08 740.019 856.611 740.019"></polygon>
                    <polygon id="Fill-65" points="895.593 642.452 915.062 642.452 915.062 622.984 895.593 622.984"></polygon>
                    <polygon id="Fill-66" points="856.611 681.614 876.08 681.614 876.08 662.145 856.611 662.145"></polygon>
                    <polygon id="Fill-67" points="895.593 564.578 915.062 564.578 915.062 545.109 895.593 545.109"></polygon>
                    <polygon id="Fill-68" points="856.611 603.739 876.08 603.739 876.08 584.27 856.611 584.27"></polygon>
                    <polygon id="Fill-69" points="895.593 486.707 915.062 486.707 915.062 467.238 895.593 467.238"></polygon>
                    <polygon id="Fill-70" points="856.611 525.868 876.08 525.868 876.08 506.399 856.611 506.399"></polygon>
                    <polygon id="Fill-71" points="895.593 408.832 915.062 408.832 915.062 389.363 895.593 389.363"></polygon>
                    <polygon id="Fill-72" points="856.611 447.993 876.08 447.993 876.08 428.524 856.611 428.524"></polygon>
                    <polygon id="Fill-73" points="895.593 330.957 915.062 330.957 915.062 311.488 895.593 311.488"></polygon>
                    <polygon id="Fill-74" points="856.611 370.118 876.08 370.118 876.08 350.649 856.611 350.649"></polygon>
                    <polygon id="Fill-75" points="895.593 253.086 915.062 253.086 915.062 233.617 895.593 233.617"></polygon>
                    <polygon id="Fill-76" points="856.611 292.247 876.08 292.247 876.08 272.779 856.611 272.779"></polygon>
                    <polygon id="Fill-77" points="895.593 175.212 915.062 175.212 915.062 155.743 895.593 155.743"></polygon>
                    <polygon id="Fill-78" points="856.611 214.373 876.08 214.373 876.08 194.904 856.611 194.904"></polygon>
                    <polygon id="Fill-79" points="817.722 1031.819 837.191 1031.819 837.191 1012.35 817.722 1012.35"></polygon>
                    <polygon id="Fill-80" points="778.736 1070.98 798.205 1070.98 798.205 1051.511 778.736 1051.511"></polygon>
                    <polygon id="Fill-81" points="817.722 953.948 837.191 953.948 837.191 934.479 817.722 934.479"></polygon>
                    <polygon id="Fill-82" points="778.736 993.106 798.205 993.106 798.205 973.637 778.736 973.637"></polygon>
                    <polygon id="Fill-83" points="817.722 876.073 837.191 876.073 837.191 856.604 817.722 856.604"></polygon>
                    <polygon id="Fill-84" points="778.736 915.234 798.205 915.234 798.205 895.765 778.736 895.765"></polygon>
                    <polygon id="Fill-85" points="817.722 798.198 837.191 798.198 837.191 778.729 817.722 778.729"></polygon>
                    <polygon id="Fill-86" points="778.736 837.359 798.205 837.359 798.205 817.89 778.736 817.89"></polygon>
                    <polygon id="Fill-87" points="817.722 720.327 837.191 720.327 837.191 700.858 817.722 700.858"></polygon>
                    <polygon id="Fill-88" points="778.736 759.488 798.205 759.488 798.205 740.019 778.736 740.019"></polygon>
                    <polygon id="Fill-89" points="817.722 642.452 837.191 642.452 837.191 622.984 817.722 622.984"></polygon>
                    <polygon id="Fill-90" points="778.736 681.614 798.205 681.614 798.205 662.145 778.736 662.145"></polygon>
                    <polygon id="Fill-91" points="817.722 564.578 837.191 564.578 837.191 545.109 817.722 545.109"></polygon>
                    <polygon id="Fill-92" points="778.736 603.739 798.205 603.739 798.205 584.27 778.736 584.27"></polygon>
                    <polygon id="Fill-93" points="817.722 486.707 837.191 486.707 837.191 467.238 817.722 467.238"></polygon>
                    <polygon id="Fill-94" points="778.736 525.868 798.205 525.868 798.205 506.399 778.736 506.399"></polygon>
                    <polygon id="Fill-95" points="817.722 408.832 837.191 408.832 837.191 389.363 817.722 389.363"></polygon>
                    <polygon id="Fill-96" points="778.736 447.993 798.205 447.993 798.205 428.524 778.736 428.524"></polygon>
                    <polygon id="Fill-97" points="817.722 330.957 837.191 330.957 837.191 311.488 817.722 311.488"></polygon>
                    <polygon id="Fill-98" points="778.736 370.118 798.205 370.118 798.205 350.649 778.736 350.649"></polygon>
                    <polygon id="Fill-99" points="817.722 253.086 837.191 253.086 837.191 233.617 817.722 233.617"></polygon>
                    <polygon id="Fill-100" points="778.736 292.247 798.205 292.247 798.205 272.779 778.736 272.779"></polygon>
                    <polygon id="Fill-101" points="739.847 1031.819 759.316 1031.819 759.316 1012.35 739.847 1012.35"></polygon>
                    <polygon id="Fill-102" points="700.862 1070.98 720.331 1070.98 720.331 1051.511 700.862 1051.511"></polygon>
                    <polygon id="Fill-103" points="739.847 953.948 759.316 953.948 759.316 934.479 739.847 934.479"></polygon>
                    <polygon id="Fill-104" points="700.862 993.106 720.331 993.106 720.331 973.637 700.862 973.637"></polygon>
                    <polygon id="Fill-105" points="739.847 876.073 759.316 876.073 759.316 856.604 739.847 856.604"></polygon>
                    <polygon id="Fill-106" points="700.862 915.234 720.331 915.234 720.331 895.765 700.862 895.765"></polygon>
                    <polygon id="Fill-107" points="739.847 798.198 759.316 798.198 759.316 778.729 739.847 778.729"></polygon>
                    <polygon id="Fill-108" points="700.862 837.359 720.331 837.359 720.331 817.89 700.862 817.89"></polygon>
                    <polygon id="Fill-109" points="739.847 720.327 759.316 720.327 759.316 700.858 739.847 700.858"></polygon>
                    <polygon id="Fill-110" points="700.862 759.488 720.331 759.488 720.331 740.019 700.862 740.019"></polygon>
                    <polygon id="Fill-111" points="739.847 642.452 759.316 642.452 759.316 622.984 739.847 622.984"></polygon>
                    <polygon id="Fill-112" points="700.862 681.614 720.331 681.614 720.331 662.145 700.862 662.145"></polygon>
                    <polygon id="Fill-113" points="739.847 564.578 759.316 564.578 759.316 545.109 739.847 545.109"></polygon>
                    <polygon id="Fill-114" points="700.862 603.739 720.331 603.739 720.331 584.27 700.862 584.27"></polygon>
                    <polygon id="Fill-115" points="739.847 486.707 759.316 486.707 759.316 467.238 739.847 467.238"></polygon>
                    <polygon id="Fill-116" points="700.862 525.868 720.331 525.868 720.331 506.399 700.862 506.399"></polygon>
                    <polygon id="Fill-117" points="739.847 408.832 759.316 408.832 759.316 389.363 739.847 389.363"></polygon>
                    <polygon id="Fill-118" points="700.862 447.993 720.331 447.993 720.331 428.524 700.862 428.524"></polygon>
                    <polygon id="Fill-119" points="739.847 330.957 759.316 330.957 759.316 311.488 739.847 311.488"></polygon>
                    <polygon id="Fill-120" points="700.862 370.118 720.331 370.118 720.331 350.649 700.862 350.649"></polygon>
                    <polygon id="Fill-121" points="661.972 1031.819 681.441 1031.819 681.441 1012.35 661.972 1012.35"></polygon>
                    <polygon id="Fill-122" points="622.991 1070.98 642.46 1070.98 642.46 1051.511 622.991 1051.511"></polygon>
                    <polygon id="Fill-123" points="661.972 953.948 681.441 953.948 681.441 934.479 661.972 934.479"></polygon>
                    <polygon id="Fill-124" points="622.991 993.106 642.46 993.106 642.46 973.637 622.991 973.637"></polygon>
                    <polygon id="Fill-125" points="661.972 876.073 681.441 876.073 681.441 856.604 661.972 856.604"></polygon>
                    <polygon id="Fill-126" points="622.991 915.234 642.46 915.234 642.46 895.765 622.991 895.765"></polygon>
                    <polygon id="Fill-127" points="661.972 798.198 681.441 798.198 681.441 778.729 661.972 778.729"></polygon>
                    <polygon id="Fill-128" points="622.991 837.359 642.46 837.359 642.46 817.89 622.991 817.89"></polygon>
                    <polygon id="Fill-129" points="661.972 720.327 681.441 720.327 681.441 700.858 661.972 700.858"></polygon>
                    <polygon id="Fill-130" points="622.991 759.488 642.46 759.488 642.46 740.019 622.991 740.019"></polygon>
                    <polygon id="Fill-131" points="661.972 642.452 681.441 642.452 681.441 622.984 661.972 622.984"></polygon>
                    <polygon id="Fill-132" points="622.991 681.614 642.46 681.614 642.46 662.145 622.991 662.145"></polygon>
                    <polygon id="Fill-133" points="661.972 564.578 681.441 564.578 681.441 545.109 661.972 545.109"></polygon>
                    <polygon id="Fill-134" points="622.991 603.739 642.46 603.739 642.46 584.27 622.991 584.27"></polygon>
                    <polygon id="Fill-135" points="661.972 486.707 681.441 486.707 681.441 467.238 661.972 467.238"></polygon>
                    <polygon id="Fill-136" points="622.991 525.868 642.46 525.868 642.46 506.399 622.991 506.399"></polygon>
                    <polygon id="Fill-137" points="661.972 408.832 681.441 408.832 681.441 389.363 661.972 389.363"></polygon>
                    <polygon id="Fill-138" points="622.991 447.993 642.46 447.993 642.46 428.524 622.991 428.524"></polygon>
                    <polygon id="Fill-139" points="584.102 1031.819 603.571 1031.819 603.571 1012.35 584.102 1012.35"></polygon>
                    <polygon id="Fill-140" points="545.116 1070.98 564.585 1070.98 564.585 1051.511 545.116 1051.511"></polygon>
                    <polygon id="Fill-141" points="584.102 953.948 603.571 953.948 603.571 934.479 584.102 934.479"></polygon>
                    <polygon id="Fill-142" points="545.116 993.106 564.584 993.106 564.584 973.637 545.116 973.637"></polygon>
                    <polygon id="Fill-143" points="584.102 876.073 603.571 876.073 603.571 856.604 584.102 856.604"></polygon>
                    <polygon id="Fill-144" points="545.116 915.234 564.584 915.234 564.584 895.765 545.116 895.765"></polygon>
                    <polygon id="Fill-145" points="584.102 798.198 603.571 798.198 603.571 778.729 584.102 778.729"></polygon>
                    <polygon id="Fill-146" points="545.116 837.359 564.584 837.359 564.584 817.89 545.116 817.89"></polygon>
                    <polygon id="Fill-147" points="584.102 720.327 603.571 720.327 603.571 700.858 584.102 700.858"></polygon>
                    <polygon id="Fill-148" points="545.116 759.488 564.584 759.488 564.584 740.019 545.116 740.019"></polygon>
                    <polygon id="Fill-149" points="584.102 642.452 603.571 642.452 603.571 622.984 584.102 622.984"></polygon>
                    <polygon id="Fill-150" points="545.116 681.614 564.584 681.614 564.584 662.145 545.116 662.145"></polygon>
                    <polygon id="Fill-151" points="584.102 564.578 603.571 564.578 603.571 545.109 584.102 545.109"></polygon>
                    <polygon id="Fill-152" points="545.116 603.739 564.584 603.739 564.584 584.27 545.116 584.27"></polygon>
                    <polygon id="Fill-153" points="584.102 486.707 603.571 486.707 603.571 467.238 584.102 467.238"></polygon>
                    <polygon id="Fill-154" points="545.116 525.868 564.584 525.868 564.584 506.399 545.116 506.399"></polygon>
                    <polygon id="Fill-155" points="506.227 1031.819 525.696 1031.819 525.696 1012.35 506.227 1012.35"></polygon>
                    <polygon id="Fill-156" points="467.241 1070.98 486.71 1070.98 486.71 1051.511 467.241 1051.511"></polygon>
                    <polygon id="Fill-157" points="506.227 953.948 525.696 953.948 525.696 934.479 506.227 934.479"></polygon>
                    <polygon id="Fill-158" points="467.241 993.106 486.71 993.106 486.71 973.637 467.241 973.637"></polygon>
                    <polygon id="Fill-159" points="506.227 876.073 525.696 876.073 525.696 856.604 506.227 856.604"></polygon>
                    <polygon id="Fill-160" points="467.241 915.234 486.71 915.234 486.71 895.765 467.241 895.765"></polygon>
                    <polygon id="Fill-161" points="506.227 798.198 525.696 798.198 525.696 778.729 506.227 778.729"></polygon>
                    <polygon id="Fill-162" points="467.241 837.359 486.71 837.359 486.71 817.89 467.241 817.89"></polygon>
                    <polygon id="Fill-163" points="506.227 720.327 525.696 720.327 525.696 700.858 506.227 700.858"></polygon>
                    <polygon id="Fill-164" points="467.241 759.488 486.71 759.488 486.71 740.019 467.241 740.019"></polygon>
                    <polygon id="Fill-165" points="506.227 642.452 525.696 642.452 525.696 622.984 506.227 622.984"></polygon>
                    <polygon id="Fill-166" points="467.241 681.614 486.71 681.614 486.71 662.145 467.241 662.145"></polygon>
                    <polygon id="Fill-167" points="506.227 564.578 525.696 564.578 525.696 545.109 506.227 545.109"></polygon>
                    <polygon id="Fill-168" points="467.241 603.739 486.71 603.739 486.71 584.27 467.241 584.27"></polygon>
                    <polygon id="Fill-169" points="428.352 1031.819 447.821 1031.819 447.821 1012.35 428.352 1012.35"></polygon>
                    <polygon id="Fill-170" points="389.37 1070.98 408.839 1070.98 408.839 1051.511 389.37 1051.511"></polygon>
                    <polygon id="Fill-171" points="428.352 953.948 447.821 953.948 447.821 934.479 428.352 934.479"></polygon>
                    <polygon id="Fill-172" points="389.37 993.106 408.839 993.106 408.839 973.637 389.37 973.637"></polygon>
                    <polygon id="Fill-173" points="428.352 876.073 447.821 876.073 447.821 856.604 428.352 856.604"></polygon>
                    <polygon id="Fill-174" points="389.37 915.234 408.839 915.234 408.839 895.765 389.37 895.765"></polygon>
                    <polygon id="Fill-175" points="428.352 798.198 447.821 798.198 447.821 778.729 428.352 778.729"></polygon>
                    <polygon id="Fill-176" points="389.37 837.359 408.839 837.359 408.839 817.89 389.37 817.89"></polygon>
                    <polygon id="Fill-177" points="428.352 720.327 447.821 720.327 447.821 700.858 428.352 700.858"></polygon>
                    <polygon id="Fill-178" points="389.37 759.488 408.839 759.488 408.839 740.019 389.37 740.019"></polygon>
                    <polygon id="Fill-179" points="428.352 642.452 447.821 642.452 447.821 622.984 428.352 622.984"></polygon>
                    <polygon id="Fill-180" points="389.37 681.614 408.839 681.614 408.839 662.145 389.37 662.145"></polygon>
                    <polygon id="Fill-181" points="350.481 1031.819 369.95 1031.819 369.95 1012.35 350.481 1012.35"></polygon>
                    <polygon id="Fill-182" points="311.495 1070.98 330.964 1070.98 330.964 1051.511 311.495 1051.511"></polygon>
                    <polygon id="Fill-183" points="350.481 953.948 369.95 953.948 369.95 934.479 350.481 934.479"></polygon>
                    <polygon id="Fill-184" points="311.495 993.106 330.964 993.106 330.964 973.637 311.495 973.637"></polygon>
                    <polygon id="Fill-185" points="350.481 876.073 369.95 876.073 369.95 856.604 350.481 856.604"></polygon>
                    <polygon id="Fill-186" points="311.495 915.234 330.964 915.234 330.964 895.765 311.495 895.765"></polygon>
                    <polygon id="Fill-187" points="350.481 798.198 369.95 798.198 369.95 778.729 350.481 778.729"></polygon>
                    <polygon id="Fill-188" points="311.495 837.359 330.964 837.359 330.964 817.89 311.495 817.89"></polygon>
                    <polygon id="Fill-189" points="350.481 720.327 369.95 720.327 369.95 700.858 350.481 700.858"></polygon>
                    <polygon id="Fill-190" points="311.495 759.488 330.964 759.488 330.964 740.019 311.495 740.019"></polygon>
                    <polygon id="Fill-191" points="272.606 1031.819 292.075 1031.819 292.075 1012.35 272.606 1012.35"></polygon>
                    <polygon id="Fill-192" points="233.62 1070.98 253.089 1070.98 253.089 1051.511 233.62 1051.511"></polygon>
                    <polygon id="Fill-193" points="272.606 953.948 292.075 953.948 292.075 934.479 272.606 934.479"></polygon>
                    <polygon id="Fill-194" points="233.62 993.106 253.089 993.106 253.089 973.637 233.62 973.637"></polygon>
                    <polygon id="Fill-195" points="272.606 876.073 292.075 876.073 292.075 856.604 272.606 856.604"></polygon>
                    <polygon id="Fill-196" points="233.62 915.234 253.089 915.234 253.089 895.765 233.62 895.765"></polygon>
                    <polygon id="Fill-197" points="272.606 798.198 292.075 798.198 292.075 778.729 272.606 778.729"></polygon>
                    <polygon id="Fill-198" points="233.62 837.359 253.089 837.359 253.089 817.89 233.62 817.89"></polygon>
                    <polygon id="Fill-199" points="194.732 1031.819 214.201 1031.819 214.201 1012.35 194.732 1012.35"></polygon>
                    <polygon id="Fill-200" points="155.749 1070.98 175.218 1070.98 175.218 1051.511 155.749 1051.511"></polygon>
                    <polygon id="Fill-201" points="194.732 953.948 214.201 953.948 214.201 934.479 194.732 934.479"></polygon>
                    <polygon id="Fill-202" points="155.749 993.106 175.218 993.106 175.218 973.637 155.749 973.637"></polygon>
                    <polygon id="Fill-203" points="194.732 876.073 214.201 876.073 214.201 856.604 194.732 856.604"></polygon>
                    <polygon id="Fill-204" points="155.749 915.234 175.218 915.234 175.218 895.765 155.749 895.765"></polygon>
                    <polygon id="Fill-205" points="116.861 1031.819 136.33 1031.819 136.33 1012.35 116.861 1012.35"></polygon>
                    <polygon id="Fill-206" points="77.875 1070.98 97.344 1070.98 97.344 1051.511 77.875 1051.511"></polygon>
                    <polygon id="Fill-207" points="116.861 953.948 136.33 953.948 136.33 934.479 116.861 934.479"></polygon>
                    <polygon id="Fill-208" points="77.875 993.106 97.344 993.106 97.344 973.637 77.875 973.637"></polygon>
                    <polygon id="Fill-209" points="38.986 1031.819 58.455 1031.819 58.455 1012.35 38.986 1012.35"></polygon>
                    <polygon id="Fill-210" points="0 1070.98 19.469 1070.98 19.469 1051.511 0 1051.511"></polygon>
                </g>
            </g>
        </g>
    </g>
</svg>