<svg xmlns="http://www.w3.org/2000/svg"  preserveAspectRatio="none" width="1024" height="64" viewBox="0 0 1024 64">
    <path fill="#B6D9D4" fill-rule="nonzero" d="M1025 63.123V21.612c-1.526.255-3.078.473-4.758.728a17.7 17.7 0 0 0-4.078-2.263 20.553 20.553 0 0 1-6.271-2.697 16.504 16.504 0 0 0-6.22-2.838c-2.847-.46-4.797-2.059-7.08-3.222l-3.654.665-7.567-3.21c-3.308-.14-6.63-.19-9.785-1.584a4.56 4.56 0 0 0-5.284 1.662 2.143 2.143 0 0 0-.423 2.557c.641 1.048 1.642 1.93 2.283 2.978.427.804.734 1.665.91 2.557.01.95-.596 1.797-1.5 2.097a1.554 1.554 0 0 1-1.718-.665 14.207 14.207 0 0 0-6.656-5.945c-1.54 0-3.553-.064-5.553-.217-2.001-.153-3.848-.422-5.797-.64-1.744 2.48-4.27 2.852-7.092 2.276-.962-.204-1.821-.83-2.783-1.01a25.199 25.199 0 0 0-4.976-.524c-3.398.077-6.335 1.777-9.541 2.557-.606.236-1.131.64-1.514 1.164-.602.715-.974 1.598-1.641 2.275a3.663 3.663 0 0 1-3.63 1.01c-.961-.243-1.859-.665-2.795-.997a5.567 5.567 0 0 0-5.617.805c-1.783 1.279-3.63 2.557-5.425 3.836-.09 1.393-.167 2.557-.27 3.835a5.176 5.176 0 0 1-.269 1.79 2.56 2.56 0 0 1-1.282 1.278 2.984 2.984 0 0 1-1.86-.204 5.314 5.314 0 0 1-2.629-2.66 2.936 2.936 0 0 0-2.218-1.674c-5.682-.192-11.389-1.074-16.942.984a11.049 11.049 0 0 1-6.938.256c-3.411-1.1-7.028-1.65-10.131-3.835-2.898-2.02-6.015-3.836-8.72-6.086-3.617-1.138-5.81-4.053-8.606-5.766a17.172 17.172 0 0 0-9.208.473 17.544 17.544 0 0 1-11.773.077c-1.885-.614-3.847-1.163-5.9-1.79-.846-.716-1.807-1.56-2.833-2.34-1.026-.78-2.078-1.444-2.95-2.032-2.975.435-5.31 1.956-8.13 1.56a19.718 19.718 0 0 0-7.9.946 2.005 2.005 0 0 1-.95-.256c-2.244-.908-4.617-.678-6.963-.678a126.703 126.703 0 0 0-14.107.192 41.419 41.419 0 0 0-10.478 3.043 4.18 4.18 0 0 1-2.924 0 18.776 18.776 0 0 0-8.81-1.483 13.823 13.823 0 0 1-5.836-1.279 5.426 5.426 0 0 0-5.604.755c-1.795 1.278-3 3.337-5.502 3.758-3.847-.447-6.412-3.157-9.246-4.27-1.821.41-3.104.767-4.425.96-4.268.698-8.487 1.668-12.632 2.901a10.367 10.367 0 0 1-6.758-.153 16.9 16.9 0 0 0-4.912-.716c-3.334-.128-6.733.332-9.824-1.394a2.444 2.444 0 0 0-1.91.103c-1.898 1.022-3.912.179-5.861.345a43.874 43.874 0 0 0-7.503.946c-2.218.754-3.308 3.145-5.578 3.196-2.257-.498-4.168-1.087-6.13-1.278-2.309-.256-4.656-.218-6.349-.282a79.592 79.592 0 0 0-7.502-4.04 83.03 83.03 0 0 0-8.477-2.761 4.86 4.86 0 0 0-3.847.614c-1.116.652-2.193 1.355-3.283 2.032-2.45-1.125-4.463 1.01-6.81.704a9.685 9.685 0 0 1-2.95-.397c-3.937-2.122-7.694-1.38-11.542.205-1.205.486-2.655.55-3.847 1.086a16.539 16.539 0 0 1-5.887.972c-3.129.269-5.899-.946-8.72-1.47-1.988.537-3.732 1.662-5.823.498a5.993 5.993 0 0 0-5.745-.076 10.765 10.765 0 0 1-7.361.524c-1.693-1.279-3.745-2.8-5.72-4.27a65.952 65.952 0 0 0-6.746-2.122 21.482 21.482 0 0 0-6.002-.371c-2.372.217-4.398-1.65-7.169-.563-2.436 2.992-6.207 2.442-9.836 2.123-2.334-.627-3.54-2.992-6.13-3.005-4.758 1.368-4.835 2.557-10.016-1.278a5.572 5.572 0 0 0-.872-.448c-1.975-.716-3.847 1.496-5.81.218a7.898 7.898 0 0 0-4.309 2.007c.231 1.278 1.411 2.033 2.245 2.94.654.69 1.282 1.42 1.846 2.135.424.512-.346 1.739-1.282 2.11a1.284 1.284 0 0 1-1.616-.627 15.817 15.817 0 0 0-1.282-1.457l-5.746-1.624a26.541 26.541 0 0 1-5.13 2.557 88.893 88.893 0 0 1-8.977 1.637c-.655-1.027-1.388-2.001-2.193-2.915a9.652 9.652 0 0 0-2.257-1.279l-4.655 2.762h-6.836c-2.68 0-5.36.14-7.835.204l-5.13 3.196-5.348.601c-.91.601-2.026 1.279-3.04 2.059-1.359 1.035-3.09 1.073-4.642 1.61a14.989 14.989 0 0 0-3.334 1.982 7.908 7.908 0 0 1-7.618.716 18.303 18.303 0 0 1-6.797-3.835 37.378 37.378 0 0 0-4.386-3.746 4.333 4.333 0 0 0-3.847-.665c-1.59.46-3.13 1.048-4.822 1.61-3.142-.945-6.413-1.738-9.426-2.889-1.809-.69-3.245-.127-4.81.282l-9.387-2.557-3.193.792-5.733-4.436c-1.731-.166-3.09-.383-4.168.64-.8.98-1.737 1.841-2.783 2.556-2.924 1.458-5.72 3.222-9.554 3.733-4.668-2.3-9.99-1.994-15.146-1.495l-5.194 3.17-7.156.486c-1.3.97-2.662 1.854-4.078 2.646a37.27 37.27 0 0 1-4.732 1.637c-.731 1.355-1.475 2.697-2.18 4.053a1.517 1.517 0 0 0 0 .958c.115.473 1.038.972.666 1.279-2.924 2.902-9.939 3.26-12.465 0-.718-.908 1.013-1.918.526-2.557a3.484 3.484 0 0 0-3.617-.703 2.022 2.022 0 0 0-1.282 1.521c-.064.742.705 1.496 1.282 2.135.193.192.616.218.616.435-.064 2.774-5.617 4.27-8.298 3.12a.166.166 0 0 1-.064-.244c-2.206 2.059-5.77 1.125-8.554 1.381l-6.489-2.557-4.553 2.557a16.586 16.586 0 0 1-2.744-.69 16.617 16.617 0 0 0-5.925-.806c-2.116-.102-3.847 1.343-5.758 1.279-1.911-.064-3.848-.985-5.797-1.202a8.488 8.488 0 0 0-3.847.575 14.893 14.893 0 0 1-11.683-.09 6.61 6.61 0 0 0-5.759.627 8.974 8.974 0 0 0-3.757 2.877 2.402 2.402 0 0 1-2.565.895c-.654-.14-1.41-.627-1.924-.46-3.565 1.214-7.271.856-10.94.971a6.933 6.933 0 0 0-2.962.37c-3.078 1.688-6.527 1.28-9.285 1.599-3.372.959-5.783 2.787-8.656 3.158l-2.873-.665-14.8 8.041c-2.564.665-5.04-1.47-7.694-.55-2.565-.766-5.053-1.585-7.618-2.275a6.432 6.432 0 0 0-2.052.192 17.125 17.125 0 0 0-2.488 3.835c-.654 1.061-1.115 2.225-1.77 3.26-.807 1.279-.32 3.043-2.077 4.117-.667-.563-1.757-1.074-2-1.79a9.998 9.998 0 0 0-4.194-5.932c-1.026-.64-1.526-1.956-2.847-2.442a31.55 31.55 0 0 0-4.656-1.65c-1.616-.293-3.026-1.354-4.796-1.035-.975.18-2.193.742-2.886.41-3.167-1.458-6.527-1.279-9.874-1.279a16.615 16.615 0 0 1-6.836-1.278 2.196 2.196 0 0 0-2.565.971c-.564 1.074-.461 2.43-1.808 3.337-2.026.64-4.22 1.355-6.412 2.02-.315.05-.635.05-.95 0a6.763 6.763 0 0 1-1.705-1.023 37.86 37.86 0 0 0-3.488-4.398 48.51 48.51 0 0 0-5.053-2.979c-1.59-1.099-3.027-2.377-4.207-3.323-4.398-.844-7.976-2.826-12.196-2.442a5.773 5.773 0 0 1-2.872-.716 7.06 7.06 0 0 0-6.695 0 5.311 5.311 0 0 1-4.835.268 10.956 10.956 0 0 0-10.529.32c-.88.458-1.799.843-2.744 1.15a15.43 15.43 0 0 1-1.91.435c-1.655 0-2.989-1.483-5.13-.818-.735.435-1.423.945-2.053 1.521-1.282 1.355-2.475 2.826-3.706 4.245a5.73 5.73 0 0 1-1.667-.64c-1.68-1.495-1.962-3.835-3.976-5.177-2.013-1.343-4.411-2.723-6.54-4.194a11.266 11.266 0 0 0-4.502-1.892 6.602 6.602 0 0 1-2.693-1.176c-3.706-2.723-8.053-4.283-12.324-6.009h-3.104C9.26 18.02 4.04 17.163-1 18.773v44.35h1026z"/>
</svg>
