<svg id="elements" xmlns="http://www.w3.org/2000/svg" width="145" height="50" viewBox="0 0 145 50"><defs><style>.cls-1{fill:#fff;}</style></defs><title>logo-footer-juno</title><path class="cls-1" d="M0,46.78H46.78V0H0Zm44.28-2.5H2.5V2.5H44.28Z"/><polygon class="cls-1" points="12.3 12.32 10.47 14.16 17.46 21.16 10.47 28.15 12.3 29.98 21.13 21.16 12.3 12.32"/><rect class="cls-1" x="20.37" y="30.4" width="13.77" height="2.6"/><path class="cls-1" d="M92.89,33h7.69l-2.86-2.86V13.26H90l2.86,2.86V28.36a6.47,6.47,0,0,1-2,1.78,4.73,4.73,0,0,1-2.33.6,3.44,3.44,0,0,1-2.77-1.12c-.61-.73-.78-2-.78-3.95V13.26H77.34l2.86,2.86V27a6.72,6.72,0,0,0,1.57,4.76,5.8,5.8,0,0,0,4.47,1.69,7.63,7.63,0,0,0,3.73-1,8,8,0,0,0,2.92-2.76Z"/><path class="cls-1" d="M138.49,30.24A3.06,3.06,0,0,1,135.75,32q-2.53,0-4.19-3.32a18.56,18.56,0,0,1-1.65-8.28,8.86,8.86,0,0,1,.92-4.57,3.08,3.08,0,0,1,2.78-1.47q2.55,0,4.21,3.34A18.28,18.28,0,0,1,139.49,26a8.51,8.51,0,0,1-1,4.29m3.62-14.73a8.11,8.11,0,0,0-6.32-2.69,10.36,10.36,0,0,0-8,3.26,11.28,11.28,0,0,0-3,8,9.77,9.77,0,0,0,2.42,6.77,8.08,8.08,0,0,0,6.32,2.7,10.39,10.39,0,0,0,8-3.26,11.27,11.27,0,0,0,3-8,9.79,9.79,0,0,0-2.42-6.77"/><path class="cls-1" d="M108.38,16.56v-3.3h-7.69l2.86,2.86V33h7.69l-2.86-2.86V17.93a6.3,6.3,0,0,1,2-1.77,4.74,4.74,0,0,1,2.33-.61,3.44,3.44,0,0,1,2.77,1.12c.61.73.78,2,.78,4V33h7.69l-2.86-2.86V19.26a6.71,6.71,0,0,0-1.57-4.75A5.8,5.8,0,0,0,115,12.82a7.62,7.62,0,0,0-3.73,1,8.12,8.12,0,0,0-2.92,2.76"/><path class="cls-1" d="M66.68,6.63l3.25,3.25v23.6a7.29,7.29,0,0,1-.18,2.19H63.93v4.48h4s5.19-5.12,5.93-6.1a4,4,0,0,0,.84-2.6V6.63Z"/></svg>