<svg id="elements" xmlns="http://www.w3.org/2000/svg" xmlns:xlink="http://www.w3.org/1999/xlink" width="273" height="50" viewBox="0 0 273 50"><defs><style>.cls-1{fill:none;}.cls-2{fill:#105754;}.cls-3,.cls-4,.cls-5,.cls-6,.cls-7{stroke:#105754;stroke-linecap:round;stroke-linejoin:round;}.cls-3{fill:url(#_6_lpi_30_2);}.cls-4{fill:url(#_6_lpi_30_2-3);}.cls-5{fill:url(#_6_lpi_30_2-5);}.cls-6{fill:url(#_6_lpi_30_2-7);}.cls-7{fill:url(#_6_lpi_30_2-9);}</style><pattern id="_6_lpi_30_2" data-name="6 lpi 30% 2" width="4" height="4" patternTransform="translate(8.17 12.11) scale(1.04)" patternUnits="userSpaceOnUse" viewBox="0 0 4 4"><rect class="cls-1" width="4" height="4"/><rect class="cls-2" x="2.5" y="2.51" width="1" height="1"/><rect class="cls-2" x="0.5" y="0.49" width="1" height="1"/></pattern><pattern id="_6_lpi_30_2-3" data-name="6 lpi 30% 2" width="4" height="4" patternTransform="translate(11.5 12.11) scale(1.04)" patternUnits="userSpaceOnUse" viewBox="0 0 4 4"><rect class="cls-1" width="4" height="4"/><rect class="cls-2" x="2.5" y="2.51" width="1" height="1"/><rect class="cls-2" x="0.5" y="0.49" width="1" height="1"/></pattern><pattern id="_6_lpi_30_2-5" data-name="6 lpi 30% 2" width="4" height="4" patternTransform="translate(14.82 12.11) scale(1.04)" patternUnits="userSpaceOnUse" viewBox="0 0 4 4"><rect class="cls-1" width="4" height="4"/><rect class="cls-2" x="2.5" y="2.51" width="1" height="1"/><rect class="cls-2" x="0.5" y="0.49" width="1" height="1"/></pattern><pattern id="_6_lpi_30_2-7" data-name="6 lpi 30% 2" width="4" height="4" patternTransform="translate(18.14 12.11) scale(1.04)" patternUnits="userSpaceOnUse" viewBox="0 0 4 4"><rect class="cls-1" width="4" height="4"/><rect class="cls-2" x="2.5" y="2.51" width="1" height="1"/><rect class="cls-2" x="0.5" y="0.49" width="1" height="1"/></pattern><pattern id="_6_lpi_30_2-9" data-name="6 lpi 30% 2" width="4" height="4" patternTransform="translate(21.46 12.11) scale(1.04)" patternUnits="userSpaceOnUse" viewBox="0 0 4 4"><rect class="cls-1" width="4" height="4"/><rect class="cls-2" x="2.5" y="2.51" width="1" height="1"/><rect class="cls-2" x="0.5" y="0.49" width="1" height="1"/></pattern></defs><title>reviews-5stars</title><polygon class="cls-3" points="26.89 0.85 32.88 19.3 52.28 19.3 36.59 30.7 42.58 49.15 26.89 37.75 11.2 49.15 17.19 30.7 1.5 19.3 20.9 19.3 26.89 0.85"/><polygon class="cls-4" points="81.45 0.85 87.44 19.3 106.84 19.3 91.15 30.7 97.14 49.15 81.45 37.75 65.76 49.15 71.75 30.7 56.06 19.3 75.46 19.3 81.45 0.85"/><polygon class="cls-5" points="136.01 0.85 142 19.3 161.4 19.3 145.71 30.7 151.7 49.15 136.01 37.75 120.32 49.15 126.31 30.7 110.62 19.3 130.02 19.3 136.01 0.85"/><polygon class="cls-6" points="190.57 0.85 196.56 19.3 215.96 19.3 200.27 30.7 206.26 49.15 190.57 37.75 174.88 49.15 180.87 30.7 165.18 19.3 184.58 19.3 190.57 0.85"/><polygon class="cls-7" points="245.13 0.85 251.12 19.3 270.52 19.3 254.83 30.7 260.82 49.15 245.13 37.75 229.44 49.15 235.43 30.7 219.74 19.3 239.14 19.3 245.13 0.85"/></svg>