<svg id="elements" preserveAspectRatio="none" xmlns="http://www.w3.org/2000/svg" viewBox="0 0 1330 65"><defs><style>.cls-1{fill:#4a455c;}</style></defs><title>rip-course-landing-intro1</title><path class="cls-1" d="M1305.88,55.26c-1.36-.1-1.19-.66-1.74-.74-.94-.16-2.3.31-3.23.15-.63-.12-1.05-1.48-1.86-1.58-1.46-.17-2,.93-3.11,1-1.62.07-2-.58-3.35-.67-2.7-.66-2.43-.28-4.85.22-4.64,1-14.43.08-16.15.76-2.07,0-2.4-1-5-.6-5.15-.16-3.27,2.7-9.44,2.1l-8.08.38c-5.3-.48-1.8,2.82-6.09,2.78-10.78-.85-23.91,3.45-32.17,2.33-3.81-.51-2.68-3-7-3-5,.63-6.75-.72-8.45-2.09-2.56-1.8-12.4.29-17.89,0-2.61-.12-5.49.59-8.08.38-1.14-.09-1.46-.71-1.74-.75-3.09-.35-5.57-1.11-8.32-1.27-6.09-.34-11.83.48-17.9,0-4.5-.35-4.28-1-6.71-1.34a11,11,0,0,0-1.61.07c-1.61,0-1.16-.68-1.74-.75-5.66-.68-12.78-.1-14.79-1-1.14-.49,0-.46-1.74-.75-.9-.15-2.28.19-3.23.15a21.44,21.44,0,0,1-3.36-.67c-2.09-.35-3.36-.21-5-.6-.43-.11-.94-.54-1.74-.75-2.28-.61-3.35-.27-6.58-.52a64.14,64.14,0,0,1-10.07-2c-.45-.12-1.7-.74-1.74-.75-2.36-.49-4.29,0-6.59-.52a10.23,10.23,0,0,1-1.74-.75c-.88-.14-2.41.36-3.23.15-.26-.06.11-.72-.12-.82s-1.32.2-1.62.07.15-.68-.12-.82c-.45-.24-2.61.3-3.23.15-.26-.06.1-.72-.13-.82s-1.31.2-1.61.07.14-.68-.13-.82c-.43-.23-2.62.28-3.23.15s-.4-.54-1.74-.75a40.74,40.74,0,0,0-9.81-.37c-.44-.82-1.52-.64-3.36-.67-5.92-.09-19.77.66-19.26,1.73-4.38,1.45-12,1.49-15.78,3.23-1.61.17-2-.7-3.35-.67-1.88,0-2.6-.91-3.48-1.5s-1-1.09-1.87-1.57c-1.12-.62-4.13-.73-5.09-1.42-.47-.34,0-1.24-.25-1.65-.42-.79-1.22-1-1.87-1.58-1-.05-2.2.24-3.23.16-4.67-.37-8.14-3.65-11.93-3.59.06,0-1.16,1.36-1.61.07.82-2.19-1.8-2.65-3.74-3.14a24.59,24.59,0,0,0-3.35-.68,6.62,6.62,0,0,1,.12.83c-1.55,1.15-9.78-1-8,1.2-2,1.28-9,1.6-11.3.53,0,1.17-2.55.76-4.72,1.05-2.69.36-5.11.2-6.34,1.13-2.47-.61-6.35-.37-5.35-3.07-4,.31-6.76-.12-8.32-1.27-1-3.61-12.2-1-16.66-2.54-.53,0-1.07.06-1.61.07-1.84,0-.85-.55-1.74-.75-3.72-.84-8.48-.73-11.56-1.11L885,26c-1.6.3-1.13-.41-1.73-.74-1.34-.73-.85-.55-3.36-.68-2.31-.11-6.07.27-6.34,1.13-1.94,1.19-8.52.58-9.94-1.19-.46-.76-1.48-.74-3.35-.68-3.72.12-9,2-12.67,2.26-6.63.4-6-3.6-11.94-3.6-5.24-.42-7.6,1.08-9.56,1.28-1.63.17-2-.73-3.36-.67.47,0-.86.79-1.49.9a19.22,19.22,0,0,1-3.23.15c-1.54-.07-1.08-.64-1.74-.75-3.81-.63-6.48.77-6.71-1.34-4.29-.87-8-.83-11.68-1.95-.28-.08.13-.71-.13-.82-.59-.26-2.58.38-3.23.15s.28-1.4-.25-1.65c-2-.95-5-.9-5.22-2.24a16.63,16.63,0,0,1-5.1-1.42c-4.69.2-3.83,1.52-6.21,1.95-2,.36-3.32.8-4.71,1.05a4.88,4.88,0,0,1-3.36-.68c-1.16-.49-5.07.67-6.46.31-3.77-.08-1.44,2.46-4.47,2.7-.46-.63-.3-1.63-1.87-1.58-.06-.45-1.45-.87-1.61.08-2.44,0-5.92.57-6.59-.52-1.21-1.51-3.89-1.88-5.22-2.25A18.82,18.82,0,0,1,738.25,13c-.86-.44-1-1.14-1.87-1.57-.41-.22-2.63.25-3.23.15-1.75-.3-3.68-.44-5-.6a48.74,48.74,0,0,0-6.58-.52c-2.43,0-3.25.93-4.72,1.05-2.66.22-4.11-.32-6.59-.52-1.39-.11-1.17-.66-1.74-.75-1.42-.24-3.41.43-4.85.22-2.12-.3-2.12-.78-3.48-1.49-.43-.23-2.61.27-3.23.15-.22-.05-1.1-.58-1.74-.75-1.18-.31-2.24-.41-3.35-.67-3-.72-3.62-1.33-6.71-1.35s-6.43,1.38-9.57,1.28c-1.69-.4-1.1.8-1.49.9-5.55,1.36-14.06-2.1-17.77.83-5.94,1.3-10.32,3.27-19,3.38-7.87-.3-5.28,3.89-14.16,3.16-4.22-.44-7.61-.87-9.57,1.27-1.8.17-2.69-1.08-3.23.15-6.68,1-11.06-.34-14.66-.14.53,0-1,.79-1.49.9-1.38.28-3.39.07-4.84.23-.09,0,.19.77.12.82-.79.6-2-.76-1.74-.75-6.12-.2-7.49,1.12-11.18,1.36-2.84.18-5.16-.61-6.59-.52-5.69.32-11,1.7-16,1.58-8.45-.21-15.33-3.62-24.72-2.17a37,37,0,0,1-5.1-1.42,17.17,17.17,0,0,1-1.74-.75c-.28-.08.11-.7-.13-.82-.44-.23-2.61.29-3.23.15-.24-.05.1-.73-.12-.82-.87-.38-3.52.32-3.36-.68-9.25-.11-17.7-.7-24.72-2.16-2.72.89-8,.66-9.45,2.11-4.69.43-5.24-1.64-9.94-1.2-.19,1.71-4.06,1.85-6.08,2.78,0,1.41-3.95.7-6.34,1.12-.7.13-1.76.94-1.49.9-3,.39-7.25.28-9.69.46-2.74.19-5,1.26-6.46.3,1.49,2.18-7.71-.24-6.21,2-3,.25-5.32.79-6.22,1.95a51,51,0,0,1-10.19-2.84c-1.14-.5.12-.51-1.74-.75-2.29-.3-6,.78-6.58-.52-.17-.5-.39-1-1.74-.75L391,18.43c-2.71,1.87-4.47.17-6.46.3-3.41.24-4.95,1.17-7.95,1.21-2,0-6.19-.3-8.2-.45-.14,0,0-.76-.13-.82a23.12,23.12,0,0,0-3.23.15c-10.69-.28-17.31-.1-24.1,2-2.21-1.05-5.1-.24-8.2-.45-1.6-.11-2-.53-3.36-.67-1.85-.2-4.61.47-5-.6-2.36,1.16-6.86,1.91-9.44,2.1-1.6.12-.94.78-1.49.9-.95.21-2.26,0-3.23.15s-1.24.85-1.49.9c-2.5.54-6.68.66-9.57,1.28s-7,1.05-7.7,2.85c-9.32.06-12.09,1.75-19.39.91-1.38,1.93-5.83,3.84-7.45,4.5-1.41.57-1.65,1.25-3,1.8-.68.28-2.11.07-1.49.9-8.71.47-8.5.77-14.41,1.5-3.81,1.44-12.49.79-15.9,2.41A8.75,8.75,0,0,1,224.6,37c-.42-1-2.69-.64-5-.6-1.43,0-1.4-.72-1.74-.75-2.6-.18-5.46.47-8.08.38-2.13-.07-2.34-.65-5-.59-.9,0-2.09-.74-1.74-.75a29.8,29.8,0,0,0-9.44,2.1c-1.62.18-2-.7-3.36-.67-1.59,0-1.17-.69-1.74-.75-1.83-.22-4.56.26-6.46.3-1.55,0-1.23-.7-1.74-.75-1.51-.15-3.31.33-4.84.23-2.12-.13-2.36-.65-5-.6-1.88,0-.81-.49-1.74-.75-4-1.08-10.21-.2-14.1-.33-.11,0-2.21-.51-2.31-.56-.83-.45-4.67-.11-4.15-.1-2.79,0-2.68.74-5.54.56-4-.26-7.36.22-9.14.1-1.57-.1-3.54.77-5.11.67-.12,0-3.45-1.28-3.56-1.33a7.32,7.32,0,0,0-2-1c-9-.13-11.49-3.46-19.18-3.89-2.35-3.08-16.64,1.2-23.58.89-6.15.64-11-1.95-14.24-2-2.45,0-2.05,2.63-3.56,2.45-9.71-1.2-21.36-3.1-29.18-3.15-2.36,0-9.79.74-11.36.65-4.9-.29-7.94-2.15-10.71-2.92C7,22.7,3.52,28.88.56,29.24L0,29.3V0H1330V54.13l-20.88,1C1308.07,55.06,1306.92,55.35,1305.88,55.26Z"/></svg>