<svg id="elements" xmlns="http://www.w3.org/2000/svg" viewBox="0 0 840 45"><defs><style>.cls-1{fill:#fff;}</style></defs><title>rip-course-projectscarousel</title><path class="cls-1" d="M840,0V13.6c-1.46-.06-3-.15-4.5-.27-1.3,2.28-10.25.3-9,4-2.37.1-4.82-.14-7.18,0-1.72.1-1.28.94-1.8,1-1.72.19-1.67-1-1.8-1-4.68.27-7.91,1.91-14.38,1-1.83-.25-.87-.77-1.79-1-.65-.17-3.17.29-3.6,0-.1-.07.11-1,0-1-2.11-.16-5.62.86-9,1-3,.13-6-.1-9,0-3.21-.29-3.68.95-1.8,1-.44,1.09-3.57.68-3.59,2-5.83.58-8.36-.68-12.58-1-1,.93-5.4,2.53-9,3-3.92.53-9.63-1.14-14.38,0-.82.2-1.42,1.5-1.8,2h-1.79c.57-.61-4.11-2.89-5.4-2-.11.08-2.58,1.7-3.59,1-.09-.06.09-1,0-1-1.07-.05-3.26.93-5.39,1s-3.22,0-3.6,1c-6.77-.77-8.59,1.23-14.37,1-3-2.5-9-.26-12.58,0-5,.36-9.94.22-14.38,1-.62.11-3.22-.25-3.59,0s.3.85,0,1-1.5-.17-1.8,0,.28.91,0,1c-.87.3-2.65-.22-3.59,0-.34.08-.75.77-1.8,1-1.55.35-3.79-.28-5.39,0h-1.8v-1c-5.92,0-8.94-1.69-16.17-1h-1.8c-2.56-3.06-15.58-2.68-16.17,1-3.71.61-12.49-1.62-10.79,2-6.17-.44-10.07.4-14.37,1-1.64,3.11-9.54,2.71-9,7h-3.59c-1.53-.19-1.7.39-1.8,1-3.77-.61-4.73.93-7.19,1-6,.18-12.47-2.68-14.37,1-3.58-1.35-8.56-1.91-12.58-3-7,.07-12.65-.1-18,0-3.2,0-3.82,1.14-7.19,1-1.65-.06-2.72-1.13-5.39-1,.57,0-1.21.92-1.8,1-1.13.16-2.45-.12-3.59,0-1.42,1-8.95-1.25-10.79,0-.08.06.07,1,0,1-3.76.05-6.62-2.22-10.78,0-4.63-1.1-8.64-2.54-10.78-5-4.47.15-7.46-.52-9-2-6.78,1.23-11.95,3.37-21.56,3-.2,1.9-5.94.69-5.39,3a68.33,68.33,0,0,0-16.18-1c1.55,3.54-2.89.92-7.19,1-2.5,0-3.57,1.2-5.39,1-5.22-.57-10-1.53-9-4-2.09-.17-3.2.22-3.6,1-3.24-.88-2.17-1.31-7.18-2a3,3,0,0,1-1.8-1c-3.53-.25-6.85,2.4-7.19-2-1.75,0-1.39,1.23-1.8,2-2.09-.17-3.2.22-3.59,1-2.91.28-3.09-.95-5.39-1-3.15-.92-9-.35-10.78-2-2.68,1.18-8,.87-7.19,4a135.72,135.72,0,0,0-30.55,3c-.56-1.36-4.5-.83-7.19-1-.22-2.22-7.62-.43-10.78-1-1.42,1-8.95-1.25-10.79,0s-1.35.39-5.39-1c-1.19-.42-2.32-.55-3.59-1-.37-.13-1.5.17-1.8,0s.2-1,0-1c-2.76-.54-3.21,1.17-5.39,1s-3.07-1.61-5.39-2c-4.48-.76-9.36.6-14.38-1a8.61,8.61,0,0,1-3.59-3c-5.65,2.65-12.46-.47-16.18-2-5.2.33-5.92.59-12.57,1-3.81.24-6.47,1.23-9,1s-2.8-1.88-5.39-2c-2.36-.78-13.89-4.58-14.38,0h-7.19c1.43,3.48-2,4.24-3.59,6-8.17-1.1-10.49-5.07-19.77-3-5.31-1.76-14.11-3.25-14.38,2-3.16.28-5.56-4.74-7.18-2-4.23-1.46-8.57,2.4-14.38,1-.79-.19.21-1.09-1.8-1-3,.13-3.44.41-3.59,2-2.43-1-3.59-2.69-5.39-4-9.8-.45-14.77,1.8-25.16,1-2.69,1.51-3.22,4.23-7.19,5-2.59.56-4.38,1.56-5.39,3-4.46-.15-8.72-.19-9,2-1.95-.25-1.21-2-3.59-2H66.35c-2.69-1.18-7.35-1.25-9-3-1.46.19-1.79,1-3.6,1-3.42.69-8.41.69-10.78,2-1.1.62.23.74-1.8,1-2.73.35-6.94-.69-7.18,1-3.59-1.34-7.8-2.34-9-5-1.48-.52-6,.67-7.19,0-.12-.07.13-1,0-1-1.11-.11-9.57.83-10.78,0-.08,0,.07-1,0-1-1.2,0-2.1.85-3.6,1A32.1,32.1,0,0,1,0,33.49V0Z"/></svg>