<svg id="elements" xmlns="http://www.w3.org/2000/svg" viewBox="0 0 870 55"><defs><style>.cls-1{fill:#fff;}</style></defs><title>rip-courses-photocallout</title><path class="cls-1" d="M870,55V2.52A19.21,19.21,0,0,0,864.17,2a30.76,30.76,0,0,0-3.26.84c-1.13.2-2.31,1.06-3.54,1.17a7.81,7.81,0,0,1-4,2.07c-1.51.78-3.09,1.31-3.58,3-.74.3-2.82-.07-.59.94-1.12.33-1.81.63-.59.8-3.51.45-.7.91-3.68,1.23-1.78,1-3.47,1-5.2,2.14-1-.07-1.82,1-2.54,1.72-.76.1-1.43.79-2,2.05-.75.72-2.16-.2-3.13,1.43-.54.24-1.33.27-1.91.48.71.57-1.75,0-3.15-.73-1.45.89-4.28.07-6.79-.15-2.29.06-4.76.82-7.21.23a10.35,10.35,0,0,0-4.79-1.55c-2,.72-1.14-1.27-2.52-.68a3.52,3.52,0,0,0-3-.08c-.53.07-1.76.76-2.81.54-1.24,0-3.25-.64-4.31,0a8.65,8.65,0,0,0-5,1.29,12.67,12.67,0,0,1-4.07,1.52,10.17,10.17,0,0,0-3.34.16c-1,.16-2.68-.1-4.09-.08a15.31,15.31,0,0,1-3.65.94,13.46,13.46,0,0,0-3.53,2.07c-1.65,1.49-2.84,1.15-4.91,1.66-1.75.08-2.14.79-3.79.64s-.72.48-2.55.42c-1.15.16-3,.26-4.83.47-.58.1-1.64,0-1.56.71-.21.47-1.92.59-3.51.83-1.23.78-3.33.72-4.91,1.11s-2.91,1-4,0a33.75,33.75,0,0,0-4.73.07,15,15,0,0,0-3.53,1.07c-2.37-.23-4.43,1.17-5.94,2a14.44,14.44,0,0,1-4.73,1.72c-2.15-.06-3.69,1-5.37.94-2.2,2.59-4.69,1.24-6.31,1.35a6.13,6.13,0,0,0-6.79-1.14c-1.5.2-2.8-.06-4.53.65-2.47,2.81-2.11-.65-3.75.4-1.1-.53-3.57,2.07-4.59.27a5,5,0,0,0-4.2-.87c-2.53-.67-6,0-8.63.67-.72.21-2.69-.31-3.25.26-1.29.3-2.36-.25-3.46-.17a7.26,7.26,0,0,1-3.28,0,19.29,19.29,0,0,1-3.15.53c-.35.16.42.53-1.28.43s.15.33-2.32.33a34.25,34.25,0,0,1-4.36,1.14,7.09,7.09,0,0,1-2.35,1.92c-.67,1.47-1.56,3.84-3,3.76-1.65-1.07-2.29,1.63-3.31-1.19-.78-.38-1.26.35-1.58-.11-1.69-.59-3.11-.12-4.39-.6a5.61,5.61,0,0,1-4.73-.13c-1.11.72-2.77.93-4.94,1.54-2.26-.3-5.08-1.45-8.15,0-2.71.3-5.12.67-7.57,1a65.6,65.6,0,0,1-7.8.57c-1.91-.31-3.5-.5-4.91-.6a17.12,17.12,0,0,1-3.77-.11c-1.35-.49-2.82,1-4.27.53-1.45,2.55-2.89.4-4.18,1.43-1.7.38-3.48.4-5.38,1.23-1.91-.74-4,.34-6.18,1.4-2.23.89-4.66.37-7.34,1.37-3.45-.21-6.38-1.79-8.94-.87-2.55-.59-4.7-1.82-6.6-2.39s-3.41-1.3-5.1-1.86a13.86,13.86,0,0,0-6-.71c-3.53-1-5.52-3-8.71-3.39-3.21,1.39-5.93,2.94-9.62,3.93a5.31,5.31,0,0,1-2.73-1c-.65-.34-1.62-.65-4.85-1.21a6.14,6.14,0,0,1-4.75-.65c-1.78-.11-4-.31-5.81.51-5.06.7-6.48,2.9-8.36.65-1.63-.35-3.13.06-7.59-.26a10.09,10.09,0,0,1-4.19,1.11c-1.33.08-2.62-.43-3.83.31-1.25.59-2.45-1.9-3.59-.4-1.15-1.6-2.24.36-3.28-1.07-1.05,1.86-2.06.41-3-.6-1,.75-1.93-1.5-2.87-2.37-1.68-.06-3.29-1.48-5,0a13.74,13.74,0,0,1-5.48-.09c-4.55,0-6.46-.92-7.23-1.44-5.72-.22-4.75-.49-5.47-.59-2.83.3-4.07.39-3.6.07-2.52.36-3,0-5.11-.06-1.78-.51-3.26-.38-4.55-1.86-.21-2.11-3-.93-4.67-1.34-1-.72-3-.74-4.34-1.24a30.06,30.06,0,0,1-5-.43c.46-.51.2-1.44-1.85-.94-1.67.45-2.78-.3-2.74-1.59a20.35,20.35,0,0,1-2.69-.91,9.57,9.57,0,0,0-3.17-.67c-1.07.06-2.13-1-3.13-1.68-1-.29-1.95-2.11-2.79-1.66-1,.51-2-3.75-3-2.94a31.89,31.89,0,0,0-3-1.3c-2-.56-4,1.23-5.94-.87-2,.24-3.92-1.87-5.89-2.46a3,3,0,0,0-3-.67c-1,.25-2,.81-3,1.16-2-.24-4.2,2.16-6.46,2.28-2.28,1.81-4.54-.21-6.63,1.58-.93-.67-2.42-.27-3.6-.68a2.71,2.71,0,0,0-2.35-1.37c-2-.61-3.27-1.67-5-2.12-2.34.21-3.57-1.18-5.57-1.36s-4.22-1.1-6.26-.86c-2,.49-3.77,1.09-5.87.48-.94.06-1.95-.8-2.92-.36a4.51,4.51,0,0,0-2.26-1.09c-1.09-.67-2.31-.5-3.57-.44a11.51,11.51,0,0,0-2.26.48,29.15,29.15,0,0,1-5.35,1.12C315.48,18.28,313,18.48,311,18.46a15.71,15.71,0,0,0-6.43.59,8,8,0,0,1-6.83.65c-2.41-.26-4.84,1-7.24,1.54-2.38.78-4.86,3.33-7.23,1.49-2.36,2-4.61-.28-6.52-1.42-1.27.05-2.55.05-3.85,0A26.92,26.92,0,0,0,269,21c-1.31-.61-2.64.25-4-.69a22.6,22.6,0,0,0-4-1.09c-3.18-.38-6.23-.58-9.25.41-3-1.52-6-1.66-9-1.8-2.21,0-4.4,0-6.59,0l-6.53-.11c-2.18,0-4.28.93-6.43,1.4-2.14,1.67-4.32.47-6.67-1.44-2.18-2.37-4.39.85-6.62,1.16-2.22,0-4.47,3.42-6.74,1.14-2.23.26-4.47,1.35-6.64.19-2.21,1.28-4.06,0-6.87.85a54.38,54.38,0,0,1-6.06-.41c-1.64-.15-2.83-.31-4.38-.46-3-.07-4.23-.16-4.24-.39-.87-.14-3.58.61-3-.18-1.21.08-2.56.47-3.4.53a5.86,5.86,0,0,0-2.81.27c-.78-.49-2.16,0-3.58.12s-3.23,1.31-5.17.15a11.46,11.46,0,0,1-6.84.5c-1.9-.7-3.47-1.34-4.86-.78a12.78,12.78,0,0,0-3.73-1.13,9.45,9.45,0,0,1-3.38-1.16c-2.18-.29-4.55,0-7-2.28a18.62,18.62,0,0,0-3.85-1,8.91,8.91,0,0,1-4-1.78c-1.77-1.06-3.35-2.65-4.84-1.24-1.48-.72-2.87,1.1-4.23-.17-1.36,0-2.7-.42-4.11,0-1.4,0-2.86,1.21-4.46-.56a14.58,14.58,0,0,0-8.51,1.26,14,14,0,0,1-7.8-.34c-1.64-.48-3.4.21-5.11-.58a8,8,0,0,1-2.63-1c-1-.74-2-.19-3-1.62-1.67.74-3.28,0-5,0-1.61-.41-3.57.34-5.17-.33-1.72-1.31-3.76.23-5.56-.23C60.21,10.64,58.23,8.9,56,8c-2.9.57-6.75,1.68-7.72,1.39-1.26,0-4.71.83-5.45.62-1.34.6-1.79,1.07-2.47.24-.56,1.06-1.7.07-2.39-.36a7.79,7.79,0,0,1-3.52-1.1,7.71,7.71,0,0,1-4.22-1.47c-1.88-.06-2-1-3.88-.79A2.51,2.51,0,0,0,23,5.77c-1-.49-2.61.51-3.5-.22-1.19,0-2.35-.4-3.56,0-2,.9-3.86-1.26-5.78-1.47a19.34,19.34,0,0,0-5.73.26A11.58,11.58,0,0,0,0,2.4V55Z"/></svg>