<svg id="ICONS_ROTATED" data-name="ICONS ROTATED" xmlns="http://www.w3.org/2000/svg" xmlns:xlink="http://www.w3.org/1999/xlink" width="110" height="110" viewBox="0 0 110 110"><defs><style>.cls-1,.cls-3{fill:none;}.cls-2{fill:#105754;}.cls-3,.cls-4{stroke:#105754;stroke-linecap:round;stroke-linejoin:round;}.cls-4{fill:url(#_6_lpi_30_5);}</style><pattern id="_6_lpi_30_5" data-name="6 lpi 30% 5" width="4" height="4" patternUnits="userSpaceOnUse" viewBox="0 0 4 4"><rect class="cls-1" width="4" height="4"/><rect class="cls-2" x="2.5" y="2.51" width="1" height="1"/><rect class="cls-2" x="0.5" y="0.49" width="1" height="1"/></pattern></defs><title>stamp-lifelongskills-guarantee</title><path class="cls-3" d="M49.93,67.11a4.61,4.61,0,0,1-4.39,1.3,4.62,4.62,0,0,1-.15-4.57c-.26-.46-1.76,0-2.11.14-4.32,1.26-4.79,6.89-4.84,6.92s1.65-.92,2.13-.81c-.27,1.25,0,4.16.47,4.42l.16.11c.39.34,3.24-.31,4.34-1a6.45,6.45,0,0,1-.09,2.28s5.2-2.29,5-6.79C50.46,68.78,50.45,67.21,49.93,67.11Z"/><path class="cls-3" d="M35.64,57.07S40,55.88,45,59.5"/><path class="cls-3" d="M58.94,73.83s.31-3.93-4.72-7.55"/><path class="cls-4" d="M70.39,34.11c-.08-.13-.09-.14-.23-.16-5-1.26-20.39,1.86-21.6,15.36,0,0-7.06-.38-12.9,7.74a8.47,8.47,0,0,1,10.12-.55s-1.68,3.93.27,5.84A3.13,3.13,0,0,1,51.14,66c2.43,1.25,5.6-1.56,5.6-1.56a7.42,7.42,0,0,1,2.2,9.39c5.85-8.12,3.75-14.34,3.75-14.34C75.1,54.05,73.18,38.47,70.39,34.11ZM65.28,50.34A5.47,5.47,0,1,1,64,42.71,5.47,5.47,0,0,1,65.28,50.34Z"/></svg>