<svg id="OUTLINED" xmlns="http://www.w3.org/2000/svg" width="110" height="110" viewBox="0 0 110 110"><defs><style>.cls-1{fill:#105754;}.cls-2{fill:none;stroke:#105754;stroke-miterlimit:10;}</style></defs><title>stamp-lifelongskills-guarantee-outer</title><path class="cls-1" d="M88.42,86.79l-3.72-3,.53-.66,1.18.74a3.43,3.43,0,0,1,.72-3.27c1.49-1.87,3.91-2.08,6-.44s2.5,4.14.94,6.09a3.76,3.76,0,0,1-4.61,1.3l.73-.92a2.69,2.69,0,0,0,3.12-1c1.17-1.46.8-3.28-.82-4.58s-3.44-1.22-4.6.23a2.72,2.72,0,0,0,.22,3.87h0l.28.23,1.79-2.23.73.58Z"/><path class="cls-1" d="M83.76,89A2.36,2.36,0,1,0,80,91.86l3.29,4.31-.85.64L79.17,92.5a3.41,3.41,0,0,1,5.42-4.13l3.28,4.32-.83.63Z"/><path class="cls-1" d="M71.16,95.31l3.61-1.64-.14-2.3,1-.45.55,9.29-1,.46L68.5,94.16l1-.47Zm.68.67,3.28,3.25-.29-4.61Z"/><path class="cls-1" d="M68.07,103.27l-3.46.71c-1.85.38-3.15-.45-3.48-2.08a2.53,2.53,0,0,1,1.44-3L60.12,96l1.18-.24,2.35,2.74,2.29-.47L65.3,95l1-.21ZM63.69,99.5a1.81,1.81,0,1,0,.73,3.54l2.43-.5L66.13,99Z"/><path class="cls-1" d="M52,98.32l4,.09.87-2.13,1.08,0-3.54,8.59-1.12,0-3.15-8.75,1.13,0Zm.33.91,1.54,4.35,1.74-4.28Z"/><path class="cls-1" d="M45.75,104.17l-1.08-.28-2.77-8-1.76,6.8-1-.26,2.18-8.4,1.05.27,2.8,7.94,1.75-6.76,1,.26Z"/><path class="cls-1" d="M35.58,91.38l.92.48L33,98.7l2.63,1.37-.44.86L29,97.72l.45-.86L32,98.22Z"/><path class="cls-1" d="M25.81,85.65l.62-.76L31,88.65l-5.49,6.71-4.41-3.61.62-.75,3.58,2.94,1.82-2.22L24.29,89.4l.6-.73L27.73,91l1.85-2.26Z"/><path class="cls-1" d="M20.23,79.13l.75-.62,3.74,4.6L18,88.58,14.4,84.17l.75-.62,2.92,3.6,2.23-1.81L18,82.5l.73-.59L21,84.75,23.3,82.9Z"/><path class="cls-1" d="M13.32,44.74,14.9,45l-1,5.71L5.21,49.24,5.5,47.5l7.14,1.22Z"/><path class="cls-1" d="M16.22,41l-.56,1.67L7.28,39.88l.56-1.66Z"/><path class="cls-1" d="M11.66,33.22l1.93,1,1.64-3.1,1.34.71L14.93,35l3.18,1.68-.82,1.56L9.46,34.05l2.78-5.25,1.37.72Z"/><path class="cls-1" d="M24.11,25.3l1.2,1-3.94,4.76-6.82-5.63,3.84-4.66,1.19,1-2.72,3.3,1.62,1.34,2.07-2.51,1.16,1-2.06,2.5,1.64,1.36Z"/><path class="cls-1" d="M30.64,19.69l1,1.25-4.51,3.62L21.6,17.67,23,16.57l4.53,5.64Z"/><path class="cls-1" d="M31.13,15.92a4.31,4.31,0,1,1,7.74-3.77,4.31,4.31,0,1,1-7.74,3.77ZM37.18,13c-.77-1.59-2.06-2.22-3.44-1.55S32,13.51,32.81,15.1s2.07,2.19,3.46,1.52S38,14.55,37.18,13Z"/><path class="cls-1" d="M41.41,6.72l1.73-.35L48,11.5l-1.2-5.88,1.7-.34L50.26,14l-1.72.35-4.82-5L44.89,15l-1.71.35Z"/><path class="cls-1" d="M61.47,9l-.26,5.06L59.74,14,59.65,13A3.35,3.35,0,0,1,56.83,14,4,4,0,0,1,53,9.43c.14-2.79,2-4.62,4.64-4.49a3.82,3.82,0,0,1,3.87,3.17L59.52,8a2.07,2.07,0,0,0-2-1.46c-1.53-.08-2.6,1-2.69,2.81s.84,3,2.34,3.06a2.23,2.23,0,0,0,2.5-1.9l.11,0v-.15L57,10.25l.07-1.44Z"/><path class="cls-1" d="M70.46,17c-2.08-.85-2.95-2.37-2.33-3.88l1.65.67c-.27.67.09,1.37,1.24,1.84.91.37,1.69.21,2-.44s0-1-.74-1.45l-1.19-.78c-1.35-.86-1.84-2-1.34-3.21.56-1.39,2.15-2,4.1-1.19,1.61.65,2.88,2,2.14,3.77l-1.6-.65c.33-.82-.2-1.44-1.1-1.8s-1.57-.19-1.81.4,0,1,.8,1.5l1.2.76c1.39.91,1.77,2,1.25,3.29C74.05,17.39,72.27,17.7,70.46,17Z"/><path class="cls-1" d="M81.06,12.18l1.42,1L80.06,16.6l5.47-1.26,1.68,1.19-4.95,1.12-.15,6.11-1.82-1.29.1-4.46-1.56.33L77.37,20.4l-1.42-1Z"/><path class="cls-1" d="M84.92,26.71l-1.24-1.25L90,19.24l1.23,1.25Z"/><path class="cls-1" d="M91.65,32.71l-1.31.94L87,28.94l7.2-5.14,1,1.43-5.89,4.21Z"/><path class="cls-1" d="M95.31,40.29,93.84,41l-2.38-5.27L99.52,32l.73,1.6-6.6,3Z"/><path class="cls-1" d="M95.17,46.41c-.47-2.19.29-3.77,1.89-4.11L97.44,44c-.71.15-1.09.85-.83,2.06.21,1,.78,1.52,1.46,1.37s.81-.55.79-1.42l0-1.42c0-1.61.6-2.64,1.9-2.92,1.46-.31,2.85.66,3.3,2.73.36,1.69,0,3.48-1.92,3.89l-.36-1.7c.86-.18,1.07-1,.87-1.92s-.73-1.4-1.36-1.26-.8.53-.78,1.5l0,1.42c0,1.66-.66,2.59-2,2.88C96.83,49.61,95.58,48.32,95.17,46.41Z"/><path class="cls-2" d="M14.13,76.22A45.79,45.79,0,0,1,9,56"/><path class="cls-2" d="M101,56A45.87,45.87,0,0,1,95.8,76.31"/></svg>