<svg id="Logos" xmlns="http://www.w3.org/2000/svg" width="160" height="100" viewBox="0 0 160 100"><defs><style>.cls-1{fill:none;}.cls-2{fill:#87bf29;}.cls-3{fill:#4e8e30;}.cls-4{fill:#fff;}</style></defs><title>logo-hiringpartner-shopify</title><rect class="cls-1" width="160" height="100"/><g id="Layer_1-2" data-name="Layer 1-2"><path class="cls-2" d="M42.07,38.19a.31.31,0,0,0-.29-.28l-2.92-.23-2.23-2.22a.81.81,0,0,0-.81-.08l-1.11.37c-.67-1.91-1.84-3.61-3.9-3.61h-.14A2.66,2.66,0,0,0,28.76,31C24,31,21.69,37,21,40c-1.85.58-3.17,1-3.34,1-1,.29-1.11.37-1.17,1.32-.09.77-2.81,21.73-2.81,21.73l21,3.9,11.41-2.5C46.11,65.57,42.19,38.42,42.07,38.19Zm-8.54-2.07c-.51.14-1.11.36-1.76.59v-.37a13.41,13.41,0,0,0-.45-3C32.36,33.56,33.09,34.74,33.53,36.12ZM30,33.63a8.85,8.85,0,0,1,.51,3.23v.22c-1.18.37-2.44.74-3.68,1.18C27.49,35.47,28.86,34.15,30,33.63Zm-1.4-1.32a.82.82,0,0,1,.59.22c-1.55.73-3.17,2.5-3.83,6.18-1,.28-2,.58-2.94.87.83-2.79,2.75-7.27,6.21-7.27Z"/><path class="cls-3" d="M41.77,37.89l-2.91-.21-2.23-2.22a.61.61,0,0,0-.29-.14L34.71,68l11.41-2.5s-4-27.15-4-27.3A.32.32,0,0,0,41.77,37.89Z"/><path class="cls-4" d="M30.81,44.23l-1.4,4.2a6.46,6.46,0,0,0-2.72-.67c-2.22,0-2.36,1.4-2.36,1.77,0,1.91,5,2.64,5,7.13,0,3.53-2.22,5.81-5.22,5.81a7.2,7.2,0,0,1-5.44-2.28L19.54,57a7,7,0,0,0,3.54,1.62,1.4,1.4,0,0,0,1.47-1.34h0c0-2.5-4.13-2.58-4.13-6.67,0-3.45,2.5-6.77,7.51-6.77A6.53,6.53,0,0,1,30.81,44.23Z"/><path id="s" d="M59.43,52.11c-1.11-.59-1.69-1.12-1.69-1.85s.82-1.47,2.06-1.47a8.15,8.15,0,0,1,2.8.59l1-3.16s-1-.74-3.75-.74c-3.9,0-6.67,2.28-6.67,5.38,0,1.77,1.26,3.17,2.95,4.12,1.4.81,1.84,1.33,1.84,2.14s-.67,1.54-2,1.54a8.89,8.89,0,0,1-3.68-.95l-1.11,3.16A8.26,8.26,0,0,0,55.67,62c4,0,6.92-2,6.92-5.55C62.67,54.46,61.2,53.14,59.43,52.11Z"/><path id="h" d="M75.52,45.41a6.31,6.31,0,0,0-4.79,2.35h-.07l1.68-9H67.9l-4.34,23H68l1.47-7.88C70.06,50.85,71.6,49,73,49c1,0,1.4.66,1.4,1.68a9.48,9.48,0,0,1-.22,2l-1.65,9H77l1.76-9.28a13.82,13.82,0,0,0,.35-2.94C79.23,47,77.91,45.41,75.52,45.41Z"/><path id="o" d="M89.39,45.41c-5.38,0-9,4.85-9,10.3A5.85,5.85,0,0,0,85.82,62a5.47,5.47,0,0,0,.81,0c5.3,0,8.89-4.79,8.89-10.3C95.52,48.43,93.58,45.41,89.39,45.41ZM87.17,58.58c-1.55,0-2.23-1.32-2.23-2.94,0-2.58,1.33-6.77,3.76-6.77,1.62,0,2.13,1.4,2.13,2.72,0,2.73-1.3,7-3.65,7Z"/><path id="p" d="M107,45.41a6.25,6.25,0,0,0-4.79,2.65h-.08l.29-2.43h-4c-.22,1.62-.59,4.12-.87,6L94.41,68.07h4.45l1.25-6.66h.08a5.39,5.39,0,0,0,2.64.58c5.3,0,8.76-5.37,8.76-10.88C111.61,48.06,110.29,45.41,107,45.41Zm-4.35,13.17a2.71,2.71,0,0,1-1.84-.66l.73-4.2c.51-2.8,2-4.64,3.54-4.64s1.76,1.26,1.76,2.5C106.9,54.46,105.21,58.58,102.63,58.58Z"/><path id="dot" d="M118,38.93a2.56,2.56,0,0,0-2.58,2.53v0a2.14,2.14,0,0,0,2,2.27h.22a2.57,2.57,0,0,0,2.65-2.51v-.06a2.22,2.22,0,0,0-2.17-2.28Z"/><polygon id="i" points="111.76 61.67 116.24 61.67 119.27 45.77 114.78 45.77 111.76 61.67"/><path id="f" d="M130.74,45.71h-3.08l.14-.74c.29-1.54,1.18-2.86,2.64-2.86a4.14,4.14,0,0,1,1.4.22l.88-3.54a6.47,6.47,0,0,0-2.43-.36,6.89,6.89,0,0,0-4.45,1.46A8.11,8.11,0,0,0,123.3,45l-.14.73h-2.08l-.67,3.33h2.06l-2.33,12.6h4.45l2.35-12.59H130Z"/><path id="y" d="M141.49,45.77s-2.8,7.07-4.05,11h-.07c-.08-1.26-1.11-11-1.11-11h-4.72l2.73,14.65a1.22,1.22,0,0,1-.08.73,7.84,7.84,0,0,1-2.41,2.74,9,9,0,0,1-2.58,1.26L130.46,69a11.24,11.24,0,0,0,4.44-2.43,29.26,29.26,0,0,0,5.89-8.89l5.55-11.78h-4.78Z"/></g></svg>