<svg id="Layer_1" data-name="Layer 1" xmlns="http://www.w3.org/2000/svg" width="210" height="40" viewBox="0 0 210 40"><defs><style>.cls-1{fill:#ffdbc4;}</style></defs><title>highlight-home-static</title><path class="cls-1" d="M29.28,4.83c0-.08.11-.07.19-.09S29.36,4.81,29.28,4.83Z"/><path class="cls-1" d="M30,5.1c0-.09.17-.07.28-.09S30.15,5.08,30,5.1Z"/><path class="cls-1" d="M137.2,1.7a12.12,12.12,0,0,1-1.67.05,12,12,0,0,1-2.59.15c-.12.13-.52,0-.64.17a2.08,2.08,0,0,0-1.11,0,1.69,1.69,0,0,0-1.11,0,.41.41,0,0,0-.38-.15,7.3,7.3,0,0,1-1.57,0,23.29,23.29,0,0,1-2.87.16,25.65,25.65,0,0,1-3.14.17.55.55,0,0,1-.28.08c-2,.12-3.62.14-5.65.17-.66.23-1.92,0-2.59.23a16.17,16.17,0,0,0-2.5.16c-.63,0-1.24.09-1.85,0-.17,0-.28-.07-.46-.06s-.34.08-.46.09c-.92.1-1.85,0-2.69.09h-.47c-.22-.09-.17,0-.46-.06l-4.17.14c-.22,0-.28-.13-.56-.06s-.35.12-.65.1c-.86-.18-1.45.16-2.32,0-.28,0-.27.14-.55.09-.69-.17-2.55.13-3.53,0-.59.07-1.09,0-1.86.06l-2,.08c-.84-.16-2.13.25-3.06,0-1,.25-2.6.05-3.62.29-.22-.09-.48,0-.74,0-.08,0-.14-.08-.28-.07s-.22.07-.37.09a4.92,4.92,0,0,1-1,0c-.09,0-.14-.07-.28-.07a11.32,11.32,0,0,0-2,.16,1.91,1.91,0,0,0-.92,0c-.66-.19-1.86.13-2.52-.05L72.7,3.9a.5.5,0,0,0-.29-.07l-1.11,0c-.17,0-.2-.09-.37-.06a13.57,13.57,0,0,1-2.52-.06,8.87,8.87,0,0,1-1.86,0,3,3,0,0,1-1.39.07c-1.74,0-3.56.1-5.38.24H59.4c-.13,0-.16.09-.27.09s-.22-.07-.38-.06-.2.07-.46,0a5.44,5.44,0,0,0-1.11,0c-.17,0-.2.08-.37.1s-.16-.08-.29-.07,0,.08-.08.09c-.68.06-1.57-.09-2.42,0-.17,0-.28.09-.46.1s-.2-.07-.38-.06-.08.09-.18.09-.12-.07-.1-.07a2.31,2.31,0,0,1-.36.09c-.27,0-.17-.07-.56,0-.49-.09-1.09-.07-1.59-.16-.17.05-.22.18-.46.18a7.81,7.81,0,0,0-1.47.23l-.47,0c-.16,0-.23.15-.28,0l-.93,0c-1.1,0-2.13.31-3.06.16a.71.71,0,0,1-.46.1,6.4,6.4,0,0,0-1.58,0c-.17,0-.2-.09-.38-.06l-.74,0A8.41,8.41,0,0,0,38.79,5a3.66,3.66,0,0,0-1.4,0c-.56-.15-1.36-.09-2-.21-.5.09-.78-.12-1,.13.17.12.58,0,.66.2C33.9,5.18,33,5,31.81,5c-.07-.06-.53-.15-.56,0,.15,0,.35-.06.38,0a4.33,4.33,0,0,1-1,0c-.07.29.37.09.57.13s.47,0,.47.2c-2.67.14-4.42.34-6.95.4-.19,0-.11.22-.37.17a28.66,28.66,0,0,0-3.24.27.89.89,0,0,0-.56,0,2.37,2.37,0,0,1-1.11.14,3.76,3.76,0,0,1-1.67.1.48.48,0,0,1-.45.18c-.95,0-1.88-.09-2.8-.15,0,.15-.31.07-.36.18-.35-.15-.63.12-1,0a3.24,3.24,0,0,1-1,.14,9.6,9.6,0,0,0-1.83.58l-.46,0c-.05.34-.56.33-.81.52s-.59.31-.61.66c.28,0,.31-.22.54-.26s.44-.08.55-.19c.16.14,0,.09,0,.31.27,0,.23-.13.46-.11,0-.05,0-.09.09-.08s.23-.36.26-.18a.25.25,0,0,1-.26.18s0,.09-.09.08c-.08.29.35.1.3.37A12.89,12.89,0,0,0,7.67,9c-.13.06,0,.3-.17.32s-.12,0-.37,0-.09.23-.26.25c0,.29.36.14.39.36-.33,0,.21.25-.08.24,0,.12-.12.21-.16.32.58-.17.44.35.59.59.48-.07.57.23.6.59-.33,0-.41.1-.45.26-.22,0-.39.1-.45.26.24,0,.46-.05.39.21s-.7.13-.91.29,0,.15,0,.24a.22.22,0,0,0-.17.24.47.47,0,0,0-.55.11c-.12.37.6-.07.48.29-.32,0-.38.11-.54.19s-.43.21-.65,0c.06.24-.46.06-.35.33.14,0,0,.1,0,.23a3.35,3.35,0,0,1,1-.14c.09-.26-.31,0-.21-.3l.46,0c.1.14-.26.28,0,.32.08,0,.09,0,.1.07-.63.2-1.63.13-2,.52.27.14.39.11.75,0s.54-.26.65,0c-.95.12-1.7.38-2.66.48-.07.18-.4.15-.54.27s-.56,0-.45.26.38.19.66.2c.12-.16.47-.15.63-.28,1-.05,1.56-.38,2.58-.4,0,.22.43-.08.38.14s-.32.28-.53.42a22.26,22.26,0,0,0-3.38.84,2,2,0,0,1-.26.33c-.07.07-.35.08-.26.25.27,0,.64-.27.74,0-.46,0-.43.37-.8.44a.91.91,0,0,0-.63.28c.29,0,.4.11.74,0a5.61,5.61,0,0,1,.82-.29c.27,0,.63-.27.74,0a.4.4,0,0,1-.45.26c-.19.13.13.19-.07.24-.72.19-1.08.64-1.9.75,0,.21-.38.16-.45.34a8.37,8.37,0,0,0,.83-.21c.12-.11.72-.21.74,0s-.3.07-.26.25c.28,0,.34-.27.55-.11,0,.1-.16.13-.17.24-.21,0-.12.16-.27.18,0,.22.23.22.22.45s-.57.07-.64.27-.55,0-.54.27c.65-.09,1.06-.35,1.74-.42.22,0,.15-.28.45-.26l.64,0c.17,0,.54-.13.56,0s-.3.07-.26.25c.36,0,.44-.17.82-.13.17,0,.53-.24.65,0-.33.29-1,.31-1.45.56a1.7,1.7,0,0,0-.64.12c-.16.05-.38.06-.45.18-.34.12-.8.15-1,.38.5,0,1.16-.4,1.38-.09l-.37,0c-.2.13.13.19-.07.24,0,.18-.27.1-.27.25.25,0,.48,0,.29.14.14,0,.47-.12.47.05-.19.06-.25.21-.55.19a.45.45,0,0,1-.35.33c-.16.06-.38.07-.45.19.35-.08.45.07.75,0a2.27,2.27,0,0,1,.54-.19c.65.11,1.06-.2,1.74-.27-.18.31.19.23.13.62-.3-.05-.11.26-.35.26s-.64.26-1,.37c.06.46-.56.42-.59.82s.12.21,0,.47c.24.06.42-.27.55,0a3.1,3.1,0,0,1-2.26.77c-.11.12-.35.14-.45.26-.39,0-.5.17-.82.21,0,.23-.22.28-.24.48.34,0,.43-.27.71-.36s.82-.23,1.28-.31c.31,0,1-.31,1.2,0-.1,0,0,.16-.17.17s-.16,0-.18.09c.44-.18.26.24.57.2s.24-.07.36-.1.35,0,.36-.11c.23,0,.67-.14.75,0a.46.46,0,0,1-.36.17c0,.18,0,.3-.17.33s-.34,0-.36.17c.33,0,.56,0,.67.2a1.38,1.38,0,0,0-.64.19c.15,0,.18.05.19.15a3.6,3.6,0,0,1-1.09.3c-.1.2-.48.19-.62.35A2.22,2.22,0,0,0,4,27.9c.46.14,1-.24,1.66-.19,0,.16-.05.21-.07.32s.21.07.19.22c-.19,0-.16.12-.17.25-.46-.05-.3.37-.62.43-.13-.08-.22-.07-.27.09a2.25,2.25,0,0,1,.75,0,.41.41,0,0,0-.08.32,5.41,5.41,0,0,0,1.39,0c.22,0,.19.26.47.2A3.28,3.28,0,0,0,8,29.43c.07.15.54-.08.47.21-.22-.14-.51.11-.92.06-.17.14-.11,0-.37,0,0,.28-.31-.15-.27.09A3.68,3.68,0,0,0,6,30c-.26-.05-.23.12-.45.11s-.29,0-.27.17c.35,0,.26-.1.55,0A10.78,10.78,0,0,1,7,30l.65,0c.13,0,.47-.12.46.05s-.46.05-.35.33c-.17-.13-.28,0-.35.18.36,0,.64,0,.75.19,0,0,.45.08.19.14s-.22,0-.19-.14c-.34-.06-.06.35-.35.33s0,.27-.26.25-.6.08-.74,0c0,.18-.46.06-.64.12,0,.11-.28,0-.27.17.25,0,.72-.14.83,0-.15.23-.39.7-.12,1,.42,0,.55-.14.92-.14a4.5,4.5,0,0,0,1.12.25c.3,0,.28-.15.45-.19,0,.18.26.16.38.06,0,.15.25.08.2.29.21,0,.35,0,.38.14a8,8,0,0,0-2.11.21c0-.09-.17-.06-.28-.06a4.22,4.22,0,0,0-.76-.19c0,.18,0,.3-.16.32s-.35,0-.38-.13c-.33,0-.21.29-.53.27s-.4-.12-.55.11c.12.1.45,0,.47.21-.07.35.18.37.23.61-.22.11-.4-.21-.46,0,.25,0-.18.2-.26.25-.08.54.25.69.52.9l-.28,0c0,.29.36.15.39.36.2,0,.28.18.56.12.09.17.42.1.57.2s.46,0,.56.12l.65,0a1,1,0,0,0,.65.12c.05.17.45,0,.65,0,0,.17.07.21.11.31a3.59,3.59,0,0,1,1.2.08l1.65-.11a.49.49,0,0,0,.28.06A10.52,10.52,0,0,0,14,36.7c.18.16.51.18.67.35.46.05,1,0,1.21.31l-1.1.07a.53.53,0,0,0-.28-.06c-.39.09-.85,0-1,.07-.09.33,0,.42.05.77.3.06.84-.09,1.38-.08.12,0,.15.12.28.13s.18-.08.19,0c.34,0,.25-.1.55,0s.54-.14.47.13l-.65,0c.05.2-.52,0-.35.25a3.16,3.16,0,0,0,1.27-.31c.5.23,1,0,1.75,0,.1,0,.11.17.28.14a7.1,7.1,0,0,0,2-.12c.32-.08.36.09.65,0s.22-.18.45-.19c1.93-.16,3.64-.12,5.51-.24,1.36-.37,3.39-.23,4.76-.58l.92,0A13.77,13.77,0,0,1,36.15,37a.48.48,0,0,1,.27-.1A16.81,16.81,0,0,0,39,36.68a22.46,22.46,0,0,0,2.84-.24c1.24.06,2.64,0,4,0,.2.11.62,0,.84.11l1,0c.22,0,.2.13.46.06l.83,0c.22,0,.2.13.46.05l.92,0a.53.53,0,0,0,.28.06,3.7,3.7,0,0,1,.83,0c0-.12.12,0,.27,0s.35,0,.36-.09c-.18,0-.28,0-.28-.14a14.41,14.41,0,0,0,2.67-.14c.18,0,.12.21.37.14a4.23,4.23,0,0,1,1.47,0l1-.05c.18,0,.16-.23.45-.18s.54,0,1,0,.45.1.74,0c.3.21.89,0,1.38-.07a5.1,5.1,0,0,0,1.19,0c.08.07.6.14.65,0a.27.27,0,0,1-.29-.14c2-.16,4.2-.24,6.25-.21.28,0,.33-.09.55-.1.1.18.58,0,.83,0l2.57-.11a1.56,1.56,0,0,0,.83,0c.46.16.69-.12,1.11,0,0-.17.38,0,.54-.1l.55,0a.58.58,0,0,0,.28.07c1.55-.1,2.79,0,4.23-.1,1.11.11,2.54-.06,3.6.1.16,0,.19-.1.36-.09a6.22,6.22,0,0,0,1.57,0,.52.52,0,0,0,.28.07l1.47-.06a.43.43,0,0,0,.27.07l3.41-.13a.43.43,0,0,0,.27.07c2.38-.15,4.64-.09,6.81-.23.16,0,.19-.08.37-.09s.15.08.27.06c0,0,.06-.07.09-.08a13.66,13.66,0,0,1,1.75-.05s0-.13.09-.09.23,0,.55,0,.69,0,1,0a11.4,11.4,0,0,1,2.39-.16c1.81-.24,4-.15,6-.26,0-.13.16.06.18-.09s.09-.18.27-.16c0,.11,0,.22.1.23s0-.43.17-.47.21.24.2.46c2.28-.13,4.37-.11,7-.21.06-.25-.26-.15-.2-.39-.13,0-.47.11-.46-.06.13,0,.47-.11.46.06h.19c.07-.23.13-.1.36-.09-.07-.13.43-.14.37,0s-.23.07-.37.09.17.19,0,.23-.18.06-.18.16a5.24,5.24,0,0,1,.92,0,1,1,0,0,1,.55-.09.34.34,0,0,0-.19-.31c-.18,0-.29,0-.28-.14.38,0,.47-.14.83-.11-.11.34.27.24.38.38-.16,0-.18.07-.18.16.31,0,.7-.05.45-.24.16,0,.17-.07.18-.16-.31,0-.64,0-.74-.14l1.2,0c.37,0,.75,0,.92.13-.31,0,0,.26-.36.32V33.6c-.14,0-.35,0-.36.08s-.36,0-.37.09c.16,0,.54-.11.56.07s-.92,0-.64.17l2-.06c.19,0,.11-.22.37-.17s.3.22.27-.08c-.23,0-.11-.06-.1-.15-.28,0-.79.12-.92-.06.31-.15.94-.06,1.29-.19s.27.13.55.06.2-.14.46-.09a22.45,22.45,0,0,0,2.58-.15,18.5,18.5,0,0,0,2.67-.15,11.31,11.31,0,0,0,2,0,.55.55,0,0,1,.28-.09,21,21,0,0,0,2.77-.15c.16,0,.19.09.37.07.63-.23,1.84,0,2.48-.23l.65,0c.14,0,.47-.1.46.07.2-.15.68-.07,1-.11l2.21-.06a.74.74,0,0,1,.74.06c-.21.06-.19.3-.45.32a2.86,2.86,0,0,0-.56-.14c-.13.26-.23-.15-.46-.06a.77.77,0,0,1-.74.1c0,.08-.18,0-.18.16a.51.51,0,0,1-.27.08c-.46.06-.64-.13-.83.1a.44.44,0,0,0-.29-.22c0,.17-.39,0-.55.09s-.2-.14-.46-.07-.2.15-.46.09-.24-.16-.47-.14-.3,0-.64,0-.2.15-.46.09-.35,0-.37.09.26,0,.28.15c-.16.05-.54-.08-.55.09.3.13.77-.11,1.2,0,1.46-.19,3.51-.12,5.07-.37.19,0,.61-.11.65.06a31.07,31.07,0,0,1,4-.11h.56c.13,0,.47.08.46-.09-.31.07-.15-.15,0-.16s.17.07.19.15c-.14.05,0,.09.09.08.28-.06.34.07.56.06.85-.08,1.8,0,2.86-.07a.55.55,0,0,0,.28.07l5.82-.16c.19-.05.61.08.65-.1-.11,0-.24-.13-.1-.15.4-.09.31.25.65.22a10.45,10.45,0,0,0,1.94-.13l3-.08a.44.44,0,0,1,.27-.09,21.62,21.62,0,0,1,3.06.07l2.13-.06a.57.57,0,0,0,.37.07l.92,0c.22,0,.21.13.47.06l1,0a.49.49,0,0,0,.28.07l1.39,0a29.52,29.52,0,0,0,3.89.13c.42.16,1.25,0,1.67.11l1.39,0a.45.45,0,0,0,.28.07l1.85,0c.13-.05.48.07.46-.09-.15,0-.36,0-.37-.07s.43-.2.46,0c.41-.08-.14.21.28.14l.65,0h.27c.11,0,0-.08,0-.08s-.6.11-.65-.06c.15-.19.82,0,.83-.26-.9.06-1.3.06-2.22.07.1-.1.07-.17-.1-.16a2.24,2.24,0,0,0-.74.1c-.08-.11-.3-.1-.46-.14s-.28-.13-.56-.06-.32.15-.65.09c-1.29-.12-2.9,0-4.16-.11-.19,0-.12.21-.37.16.13-.33-.48,0-.47-.22-.38.09-.72,0-1.29,0-.05-.11-.08,0-.19,0a.52.52,0,0,0-.28-.07c-.28.07-.34-.07-.55-.06h-.56c-.14,0-.35.05-.37-.06.24-.21.49,0,.83,0l1.2,0A6.83,6.83,0,0,0,176,32c.42.16,1.25,0,1.67.11a7.08,7.08,0,0,1,1.94,0c.58-.25,1.13,0,1.85-.05a3,3,0,0,1,.74,0,4.72,4.72,0,0,0,.83-.11c.93.06,1.72-.12,2.77-.15a11.21,11.21,0,0,1,1.29-.28c.1.05.1.18.28.15-.15-.35.38-.15.36-.4-.51-.19-1.09.09-1.57,0a.63.63,0,0,1-.37.09h-.56c-.14,0-.35.05-.37-.06.16-.16.76,0,.74-.26-.35,0-.4.15-.74.1a.73.73,0,0,0-.47-.06c-.09-.05-.1-.18-.28-.15l-1.57,0c-.12,0-.16-.11-.28-.14s-.37.07-.38-.07c1-.13,2.59-.15,3.79-.34.22,0,.21.13.46.06s.12-.22.37-.17c0,.12.08,0,.19,0,.43,0,.55-.12.83,0,.11-.21.74,0,.73-.33-.15,0-.31.08-.46.09s-.16-.07-.28-.07c0,0-.07.08-.09.08-.25.06-.94,0-1.2.12l-.65,0c-.14,0-.48.1-.46-.07-.21,0-.13.15-.28.16a.26.26,0,0,1-.28-.14c.27-.17.87-.07,1.29-.12.59-.14,1.33-.16,1.94-.29a8.48,8.48,0,0,0,1.29,0c.55-.23,1.08,0,1.66-.28a.5.5,0,0,0,.74-.1c-.19,0-.29,0-.28-.15a7.75,7.75,0,0,1,1.2-.19c.13,0,.23-.12.36-.16.35,0,.39-.15.74-.1.16-.08.49,0,.45-.25s-.56,0-.56-.14c.28-.26,1-.2,1.38-.35h.46c.19-.13.61-.08.74-.26-1.52.07-2.7.57-3.7.27,0,.16-.32,0-.46.09s-.24-.05-.28-.15a.25.25,0,0,0,.27-.16l-1.11-.13a4.9,4.9,0,0,1-.64.18c-.13-.11-.41-.07-.65-.06a4.69,4.69,0,0,1-1.94.13c-.22.26-.45,0-.83.18l-.74,0a.56.56,0,0,1-.37.09l-1,0c-.15.13-.55.08-.83.1-.07-.08-.22-.07-.2-.23a.53.53,0,0,0-.28-.06c-.13,0,0,.06,0,.15a.55.55,0,0,1-.28.09c-.07,0-.09.08-.18.08-.35-.15-.58,0-.92.1-.19-.28-1,0-1.3-.19-.1.05-.09.18-.28.16s.08-.6-.38-.46c-.28.09.27.07.19.23l-1.38,0c0-.11-.08,0-.19,0s-.18-.27-.47-.22a25.69,25.69,0,0,1-2.68-.09c-.1.06-.09.19-.28.17s-.24.06-.36.09-.1-.08-.1-.16c-.18,0-.24-.16-.47-.14s-.56.11-.82.18c-.15-.09-.24-.22-.47-.22s-.17,0-.19-.08c-.76,0-.93-.05-1.57,0a2.6,2.6,0,0,1-.93.1c-.07.06-.09.12-.18.17s-.2,0-.27.08c-.12-.1-.41-.06-.65-.06s-.12-.21-.37-.14a5.2,5.2,0,0,1-1.21,0,2.51,2.51,0,0,0-.83.1c-.07-.14-.17,0-.27,0,0-.27-.51,0-.57-.22.17,0,.55.08.56-.09-.19.05-.23-.15-.1-.15s.18.1.19.22c.3.06.12-.26.36-.24.08.14.17,0,.28,0,.46,0,.45-.09.83,0s.73-.06.84.13a2.8,2.8,0,0,1-.92.11c-.35.09-.59-.19-.65.09l1.11,0c.19.12.12,0,.37,0s.36,0,.37-.09-.24-.13-.1-.15.77,0,1.12.12c.06-.17.51,0,.73-.09a6,6,0,0,0,1.48,0c.36,0,.82,0,.92-.18A1.69,1.69,0,0,1,172.1,27c.1-.12.38-.1.36-.32.29.06.28-.13.45-.17s.19-.16.37-.17.39.13.47.3a.94.94,0,0,1,.65.14v.31c.39.11,0-.43.36-.32-.11.2.06.24-.08.31s-.26.15-.18.4a7.41,7.41,0,0,1,1.58,0,.61.61,0,0,1,.37-.09l3.6-.1c.15,0,.35,0,.37.07.23,0,.2-.15.46-.09a12.64,12.64,0,0,0,3.15.14c.19.1,1,.16,1-.1-.2,0-.3-.06-.29-.23-.39,0-.37.27-.73.26s-.18-.21-.47-.15-.66.12-.74-.05c.28-.06.8.07.92-.11-.34-.14-.58.1-.83-.13.12-.13.45-.1.55-.25.09.28.51-.18.55.06.3,0,.45-.1.46-.32a.66.66,0,0,0-.75-.14c0-.19-.15-.23-.19-.38-.34,0-.27-.35-.66-.29a.43.43,0,0,1-.1-.31c-.3.13-.36,0-.74,0,0,.09-.13.05,0,0-.15-.25-.22.17-.46.09s-.1-.18-.28-.15a.56.56,0,0,1-.37.09c0-.17-.18-.1-.19-.23-.35,0-.26.1-.56,0a.25.25,0,0,1-.36.09c-.06-.25.45,0,.36-.32-.22,0-.43.2-.38-.15a8.28,8.28,0,0,1-1.2-.05c-.21.2-.33.11-.65.1,0,.09-.13.05,0,0s0-.14-.09-.15a.26.26,0,0,1-.27.16c-.1-.26-.18,0-.47-.06a6.93,6.93,0,0,0-1.94-.1c-.23,0-.29-.12-.47-.15-.13.2-.32.15-.55.1s-.39.14-.46.32c.19-.05.23.14.1.15s-.08-.3-.38-.22c.07-.24-.25-.14-.19-.38-.23,0-.28.13-.46.16s0,.36-.36.25c0-.11.16-.13.18-.24s-.17-.2,0-.23a17.13,17.13,0,0,0,3.13-.33c.33.22.56.09,1,0,.09-.36-.69,0-.74-.21.57-.15,1.35-.14,1.93-.29a8.42,8.42,0,0,1,1.76,0c0-.17.33,0,.46-.09a.63.63,0,0,1,.37-.09c.27,0,.29.17.56.14s.68,0,.83-.1a1.53,1.53,0,0,0,1,0c.19,0,.13.21.38.15-.07-.21.18-.16.27-.24a.71.71,0,0,1,.46-.1c.2,0,.13.15.28.15s.35,0,.37-.09c-.39,0,0-.12,0-.23a2.56,2.56,0,0,0-1.2,0,2.09,2.09,0,0,0-.55.17c-.17,0-.54.11-.56-.06.13-.13.47-.09.74-.1s.11-.22.36-.17c.44.07.73-.23,1,0,0-.11.23-.07.37-.09s.23-.07.37-.09a2.27,2.27,0,0,0,1.1,0c-.19-.59-1,0-1.76-.1a2.21,2.21,0,0,0-.55-.14c-.24,0-.29.13-.46.17s-.18-.27-.47-.23c0,.11-.23.08-.37.09,0,.14-.07.15-.18.16-.34.07-.4-.12-.74,0s-.48,0-.47-.22c.17,0,.2.09.37.07,0-.09.18-.06.18-.17s.11-.06.18-.08c.35,0,.26.31.66.22,0-.29-.21-.45-.66-.37.13-.12.06-.25-.19-.23s-.17.26-.36.32c0-.16-.26-.09-.2-.31-.13,0-.47.11-.46-.06a8.27,8.27,0,0,0,1.75-.21c0,.15.32,0,.38.15s-.32.36-.08.54c.21-.11.35.2.37,0a.66.66,0,0,1,.46-.09c.22,0,.27.13.56.06,0-.07.11-.06.18-.08.23,0,.12-.31.36-.32h.37c.16,0,.19-.08.09-.08-.37,0-.89.09-1.11,0,0,.17-.33,0-.46.09s-.48.11-.47-.06a5.6,5.6,0,0,1,2-.06c0-.17.32,0,.46-.09a4.9,4.9,0,0,1,.64-.18h.37a3.73,3.73,0,0,1,.64-.17c.25,0,.53-.05.65.06.21-.32,1.12-.07,1.47-.28.18,0,.12.21.38.15.06-.16.24-.22.45-.25s.2.09.37.07c.24-.17.86,0,1-.27a7.3,7.3,0,0,1-1.57,0c-.18,0-.68.21-.83,0a.51.51,0,0,0,.46-.16c.16,0,.46.06.36-.17-.5,0-.84.15-1.29.19,0,.2.18.24-.08.32s.14-.34-.29-.31c-.21.09-.55.07-.73.18-.06-.13-.44,0-.47-.14-.05.05-.43.19-.46,0s.34-.12.55-.09c-.05-.27.5-.06.55-.25a4.94,4.94,0,0,1-.84-.13c-.15.14-.44.2-.55,0,.18-.11.52-.09.73-.17l.65,0c.17,0,.56.09.46-.17-.35-.05-.44.11-.74.1a.22.22,0,0,1-.19-.23c-.24-.08-.47.28-.47-.07.23-.27,1-.1,1.38-.27,0,.1.17.12.19.23-.15.05-.05.18.1.15s.34-.19.45-.32c-.14,0-.35,0-.37-.07a1.81,1.81,0,0,0,.64-.17,1.48,1.48,0,0,0,.83-.11c0,.11,0,.23.1.23s.32-.15.46-.24c-.05.11.36.18.1.23a.22.22,0,0,0,.19.23c-.07-.34.15-.44.35-.56.05.46.75,0,1,0-.13.14-.08.18.19.15,0,.07-.09.08-.09.16h.18c.08,0,.09,0,.1.07.35,0,.49-.27.82-.34.17.14.27,0,.46-.09.08.12.24.16.47.14,0,.14-.08.4.19.31s.44-.1.46-.32c-.18,0-.4.25-.38-.07a1,1,0,0,0,.56-.09.2.2,0,0,0,0-.32.26.26,0,0,0,.27-.16c-.25,0-.53.05-.65-.06,0,.11-.23.07-.37.09s-.11.16-.27.16c-.12-.18-.73.07-.84-.13-.23,0-.28.13-.45.17a.28.28,0,0,0-.29-.15c-.17.07-.33.54-.63.26,0-.34.65-.2.53-.64-.34,0-.32.35-.82.25.14-.11.31-.2.35-.4-.27,0-.27.19-.55.18s-.08-.25-.37-.15-.61,0-.55.25.67-.28.65.14c.1.23-.2.14-.36.16l-.56,0c-.14.13-.54.08-.82.1s-.19-.21-.47-.14-.46.23-.55,0a.41.41,0,0,0,.08-.32,4.18,4.18,0,0,1,1.1-.19.92.92,0,0,1,.55-.17c.09-.13.39-.09.55-.17a9.57,9.57,0,0,0,2.39-.46,15.37,15.37,0,0,0,1.93-.37l.65,0c.35-.28,1.24-.13,1.56-.43a1,1,0,0,1-.56-.06c-.13,0-.47.1-.46-.07s.35,0,.36-.17.48.08.46-.09c-.18-.1-.61,0-.74-.13,0-.41.89-.16.9-.57l-.83,0c-.21-.05-.71.16-.65-.13s.49,0,.55-.18.56.09.46-.17a2.24,2.24,0,0,0-.74.1c-.5,0-.87.26-1-.12.06-.16.52,0,.55-.17s.44,0,.46-.17c-.25,0-.73.12-.83-.05s.36-.27.54-.41.74,0,.82-.26c-.18-.14-.16.05-.46,0a1,1,0,0,1-.29-.53c.21,0,.26-.14.55-.1.06-.29-.4-.12-.47-.29.26-.07.48-.18.73-.26.58.06.73-.23,1.29-.2-.05-.24.22-.28.36-.16.13-.06,0-.3.18-.32s.5-.06.54-.25c-.24,0-.57.09-.47-.22a5.39,5.39,0,0,0,1.2-.11c.25,0,.53-.05.65.05,0-.17.45,0,.64-.09l.74,0c.4-.19,1.19-.07,1.47-.35-.16,0-.21-.13-.19-.31l-1.3,0c-.11-.3.32-.29.08-.47s-1.05.2-1-.2,1-.15,1.09-.5c-.18-.14-.61,0-.92-.05-.08-.22-.62,0-.57-.38s.75.08.92-.18c-.29.05-.25-.2-.47-.22-.12.18-.64,0-.92.11l-.92,0c-.1,0-.1-.18-.28-.15l-1.2,0c0-.15-.27-.14-.2-.39a2,2,0,0,1,1.38-.35,14.76,14.76,0,0,1,3.4-.42c.23,0,.29.12.47.14.11-.21.58-.14.82-.26h.83c.14,0,.35,0,.37-.09h-.37c-.22,0-.21-.14-.47-.06l-1.1,0c-.23,0-.21-.14-.47-.06s-.35,0-.37-.07c.16-.36.71-.4,1.09-.58a11.44,11.44,0,0,1,1.38-.12c0-.16.41,0,.36-.24l-1,0c0-.11-.23-.06-.37-.07,0-.12-.09-.13-.1-.23a11.09,11.09,0,0,1,1.84-.21c.11-.13.32-.1.55-.17s.44,0,.36-.25l-1.21-.12c0-.06.09-.08.09-.16h-.18c-.56.11-1.32.07-1.84.21-.12-.1,0-.12,0-.23-.19,0-.6.11-.65-.06,0-.38.48-.33.92-.34.1-.22.53-.18.63-.41a.88.88,0,0,1-.56-.06c0-.12.09-.14.09-.24-.3,0-.45-.07-.47-.29a9.76,9.76,0,0,1,2-.14c0-.1.17-.07.28-.09a6.61,6.61,0,0,1,1.09-.58.45.45,0,0,0,.28.07c-.08-.34.52-.14.63-.33a2.88,2.88,0,0,1-.83-.21c0,.11-.23.07-.37.09h-.46a2.88,2.88,0,0,0-1.21-.19c-.07-.06-.06-.13-.1-.23s.14-.05.09-.08-.14,0-.18,0c0-.24-.43,0-.47-.22a.26.26,0,0,1,0-.39c-.37,0-.37.22-.73.18-.09-.19-.52-.07-.48-.37-.12-.26.75-.11.46-.25l-1.39,0a.42.42,0,0,1-.28-.22c-.14,0-.47.1-.46-.07s.37-.21.54-.33.35,0,.37-.09a11.58,11.58,0,0,1-2.13,0c-.22,0-.19.15-.45.09a4.35,4.35,0,0,0-1.76.06,19.65,19.65,0,0,0-2.85.16.94.94,0,0,0-.56-.06c-.22,0-.19.15-.46.09a28.44,28.44,0,0,1-3.32,0c-.16,0-.19.1-.36.09-.08-.17-.52,0-.74-.06-.39,0-.37-.09-.65,0a.39.39,0,0,0-.46,0,.25.25,0,0,0-.28-.15l-.65,0c-.13,0-.47.1-.46-.07.16,0,.38,0,.46-.17-2.58,0-5.09.39-7.66.22a.71.71,0,0,1-.46.1c-1.25-.19-3.08.14-4.34,0-.57,0-1.12.15-1.75.13-.16,0-.2-.08-.37-.07s-.12.05-.37,0-.28.07-.55.09c-.94.06-1.9,0-2.68.08l-1.29,0a7.28,7.28,0,0,1-1.11,0,.53.53,0,0,1-.36.09c-1.46.17-2.8.09-4.25.19-1-.16-3.16.14-4.43,0a.63.63,0,0,1-.37.09l-6.19.16a9.59,9.59,0,0,0-1.94.13c-.13-.11-.47-.05-.74-.05-1.23.19-2.75.14-4,.34-.29.06-.28-.13-.56-.07a7.8,7.8,0,0,0-1.75.13,14.81,14.81,0,0,0-2.5,0c-.23,0-.21-.14-.47-.06s-.33.08-.55.09a1.09,1.09,0,0,0-.75-.14c-.13.12-.13.36-.45.33.28-.37-.36.12-.47-.15-.11,0-.06-.11,0,0C136.7,1.72,137.16,1.88,137.2,1.7ZM32.1,5.15c.11,0,.06.11,0,0C31.51,5.27,31.88,4.92,32.1,5.15Zm105.47-3.3s.06-.1.09-.08S137.6,1.87,137.57,1.85Zm2.5.08s.07-.1.09-.08S140.1,2,140.07,1.93ZM5.48,14.14c-.05,0,.06-.1.09-.08S5.51,14.16,5.48,14.14Zm-1.92,12c0-.08.11-.07.18-.09h.19C3.9,26.13,3.7,26.1,3.56,26.13Zm187.63-7.3c0-.08.11-.06.19-.08S191.26,18.81,191.19,18.83Zm2.68,0s.07-.1.09-.08S193.9,18.85,193.87,18.83ZM184,21.46h-.64C183.39,21.39,184,21.13,184,21.46Zm-4,.74s.06-.11.09-.09S179.94,22.22,179.92,22.2Zm-.28.08s.06-.1.09-.08S179.67,22.3,179.64,22.28Zm-1.19.27c0-.12.09,0,.09.07C178.38,22.65,178.35,22.56,178.45,22.55Zm1-.11h.46c.1.26-.28.13-.46.17ZM8.78,29.62s.06-.1.09-.08S8.81,29.64,8.78,29.62Zm129.15-4.56c0,.12,0,.15-.18.16s-.09.08-.09.08-.3-.16-.46-.07a.45.45,0,0,1-.28-.07c-.14,0-.34,0-.37.09s-.36-.18-.37,0c-.18-.13-.52-.12-.75-.21a.9.9,0,0,0-.55.09c-.23,0-.29-.11-.46-.14l-.74,0c-.05,0-.11.08-.09.08s-.13-.09-.28-.07a6.87,6.87,0,0,1-.74.1A2.22,2.22,0,0,1,132,25c-.35,0-.51.2-.74,0,.16-.18.54-.18.92-.18,0-.27-.25,0-.29-.15s-.45,0-.37-.22a.65.65,0,0,1,.46.06c.19,0,.11-.22.37-.17s.27.24.65.14c.17,0-.06-.13.09-.16s.24,0,.46.07a1.52,1.52,0,0,1,1,0c0,.1-.11.16-.27.16,0,.11.14.15.1.31a1.74,1.74,0,0,1,1,.05c.13,0,.1-.17.18-.24-.11-.3-.64,0-.74-.13-.07-.34.64,0,.73-.26h.46a8.73,8.73,0,0,1,1.12.28c0,.1,0,.19.19.15,0-.06,0-.15-.1-.15.1-.3.81-.12,1.19-.19,0,.36-.57.2-.72.41-.18,0-.21-.08-.37-.07C137.27,25.06,137.92,24.77,137.93,25.06Zm-9.34-.13a4.08,4.08,0,0,1-1.1,0c.08-.23.37-.56.63-.41C128.3,24.29,128.63,24.72,128.59,24.93Zm1.93-.53c.08.32-.29.28-.17.63-.26,0-.28.29-.64.25.22-.32-.14-.33-.56-.29,0-.35.67-.18.73-.49C130.2,24.55,130.23,24.37,130.52,24.4Zm51.64-1.33c-.23.19-.82.1-1,.34a13.91,13.91,0,0,1-1.66,0c.23-.25.88-.16,1.38-.2A4.22,4.22,0,0,1,182.16,23.07Zm-40.73,1.66c-.16,0-.21.08-.18.23-.28,0-.27-.23-.65-.13-.09,0-.1.06-.18.08s.11.17.1.31c.17-.06.06-.23.28-.09.08.3-.44.12-.65.18.07-.29-.23-.43,0-.63,0-.07-.08-.09-.1-.15-.32.14-.49-.05-.83.1,0-.17-.23-.16-.46-.14.13-.35.57,0,.82-.18a.25.25,0,0,1,.28.15c.13,0,.16-.13.28-.16s.6-.06.74.05.6-.11.65.06c.21,0,.46-.16.64,0q0,.24-.27.24c0,.11.21.08.28.14-.16.3.08.43-.07.71-.3.1-.08-.25-.37-.15a.33.33,0,0,0-.1-.23c-.12,0-.13-.1-.28-.07.14.22-.41.24-.28,0h.28C141.32,24.9,141.45,24.87,141.43,24.73Zm-14.5.24c-.11.33-.68.08-.92,0C126.13,24.67,126.46,25.14,126.93,25Zm1.94-.13c0-.09.09-.05.09,0S128.87,24.88,128.87,24.84Zm17.64-.41c.16.15,0,.1,0,.31h.55c.21-.05-.11-.12.09-.24a11.93,11.93,0,0,1,1.94.11c-.08.2-.14.44.11.54,0,.09-.17.07-.28.08s0-.06,0-.15c-.27,0-.61.06-.74-.06-.14,0-.48-.08-.46.09-.25.07-.19-.15-.38-.14s.13.19,0,.39a2.06,2.06,0,0,0-1.1,0c.14-.32-.4,0-.38-.23-.11,0-.07.15-.09.24-.29,0-.3.21-.64.17a.33.33,0,0,1-.1-.23c-.29,0-.37.19-.46-.07-.1,0-.06.16-.18.17-.39,0,0-.12,0-.24q-.3,0-.27.24c-.11,0-.16,0-.19-.07s-.07-.09-.09-.15a.31.31,0,0,1-.46.09c-.06-.17.17-.12.18-.24s-.17-.18-.38-.15c0-.28.61-.08.74-.25.3,0,.41.22.65.29s0-.1,0-.23c.19,0,.18-.21.27-.32.32-.07.39.08.56.14C145.81,24.37,146.11,24.57,146.51,24.43Zm.19.15s.06-.1.09-.08S146.72,24.6,146.7,24.58Zm-23.64.74h.37c.1.23-.2.14-.36.17Zm7.94-.23c.2.07.14.57-.17.48C130.53,25.32,131,25.33,131,25.09Zm21.15-.42c-.11.19,0,.54-.16.71a.77.77,0,0,1-.65-.14.65.65,0,0,1-.37.09c-.22-.13-.78.05-.84-.22-.1,0-.06.16-.18.17s-.31-.1-.29-.31a2.8,2.8,0,0,0-.46-.22c0-.27.6-.13.92-.18.13,0,.26,0,.27.07.23,0,.2-.15.46-.09A10.27,10.27,0,0,0,152.15,24.67Zm-33.23,1.08s.07-.1.09-.08S119,25.77,118.92,25.75Zm35.55-.91v.39c-.13-.07-.35-.06-.38-.22a.6.6,0,0,1-.74-.14.77.77,0,0,1-.56,0C153.09,24.59,154,24.85,154.47,24.84Zm-12,.25h.27v.23h-.18A.33.33,0,0,1,142.46,25.09Zm-35.34,1.18c-.05,0,.06-.1.09-.08S107.14,26.29,107.12,26.27Zm14.69.41c.14,0,0-.13-.1-.15s.15-.08.18-.16,0-.22,0-.31c-.13,0-.1.17-.18.23-.33-.05-.12-.26,0-.38-.16,0-.75.27-.74-.06.13-.09.22-.09.27.07.15-.14.54-.08.83-.1s-.18.49.2.54a.2.2,0,0,1-.17.23c0,.16.34.07.37.23.19,0,.6-.12.65.06s-.2.14-.36.16a.86.86,0,0,1-.65,0c0-.13.25,0,.27-.16s-.15-.08-.28-.07,0,.26-.27.24-.34,0-.37-.15c-.29.08-.29-.11-.47-.14s-.22,0-.18.16a.71.71,0,0,1-.46-.06V26.8h-.19c-.1-.23.2-.15.37-.17v.08A3.94,3.94,0,0,1,121.81,26.68Zm1.73-.91c0-.15.42-.12.28.07h-.19C123.65,25.78,123.6,25.78,123.54,25.77Zm19.38-.62c.24,0,.4,0,.38.23h-.46A.35.35,0,0,0,142.92,25.15Zm11.82-.32h.37c0,.17-.05.21-.08.32C154.79,25.17,154.72,25,154.74,24.83Zm-47.9,1.45H107C107.05,26.49,106.34,26.27,106.84,26.28Zm16.51-.5c.17,0,.18.43-.08.31C123.23,25.93,123.33,25.89,123.35,25.78Zm32.13-.89h.28v.23h-.19A.33.33,0,0,1,155.48,24.89Zm8.88-.08c.09.3-.32.2-.17.55-.32,0-.33-.19-.47-.3s.07.36-.18.31-.18-.1-.19-.22-.16.07-.19-.08-.14-.13-.28-.14-.17.06-.18.16c-.19,0-.24-.05-.37-.07v.31c-.17,0-.06-.26-.19-.31-.58.12-1.12-.05-1.85.05-.19,0-.25,0-.37-.06-.26.24-.55,0-.74.25-.08,0-.16-.06-.19-.15a1.4,1.4,0,0,1-1.1,0c-.17,0-.2.07-.37.09s-.55-.14-.74,0a.72.72,0,0,0,.74.13c.19.26.92,0,1.21.2.18,0,.06-.3.36-.24,0,.22-.16.33-.17.55h-.37c-.29.08-.19-.2-.37-.22s-.05.26-.18.31-.49,0-.47-.22c-.22,0-.19.15-.46.09a.39.39,0,0,0,.09-.31,4.2,4.2,0,0,1-1.57.12.26.26,0,0,1,.18-.16c.05.12.1,0,.09-.08s.09.07.19.07.06-.16.18-.16.18.16.28.23.24-.07.37-.09a.63.63,0,0,0-.28-.15c.1-.11,0-.12,0-.23s-.18-.06-.19-.15-.47.35-.46,0a1.69,1.69,0,0,1,1.11,0,6.92,6.92,0,0,1,1.66,0c1-.05,1.75,0,2.41-.07h.18c.07-.08.09,0,.28,0,0,0,0-.12.09-.08s.13.13.18.07.13,0,.28,0,.1-.08.18-.09c.34,0,.72,0,1.11,0A2.28,2.28,0,0,1,164.36,24.81Zm1.12.51a.39.39,0,0,1,.09-.31c-.17-.14-.24.07-.56,0,0-.31-.19,0-.37-.06a.46.46,0,0,1,.55-.18c.6-.21.83,0,1.48,0,0,.11-.13.16-.08.32-.32.07-.36-.11-.65-.06s-.21.21-.09.31.07.05.1.08.18.1.19.23h-.37a.4.4,0,0,1,.08-.32Zm-40.74.57c.22.17-.07.27,0,.55C124.25,26.61,124.22,25.76,124.74,25.89Zm4.89-.14h.19v.15h-.18Zm37.13-1,.93,0c.29.05-.17.1-.28.08a.23.23,0,0,0-.18.24h-.37A.41.41,0,0,1,166.76,24.74Zm1.11,0a16.54,16.54,0,0,0,1.85-.05c0,.12.29.06.19.31-.15,0-.16-.07-.28-.07s0,.26-.17.31c-.3,0-.38.2-.47-.06-.09,0-.07.1-.09.16s-.07-.1-.09-.16a.33.33,0,0,1-.1-.23C168.36,24.76,167.94,25.14,167.87,24.71Zm-160,6.53c-.06,0,.06-.1.08-.08S7.89,31.26,7.87,31.24Zm124.36-5.32c0-.1.18-.09.18,0S132.25,26,132.23,25.92Zm-25.56.75c.19.13.12,0,.37,0,0,.21-.19.21-.36.25Zm13-.4a.36.36,0,0,1,.19.31C119.58,26.63,119.53,26.39,119.68,26.27Zm8.48-.24c.34,0,.14.41.3.54-.29,0-.26.2-.36.32C127.68,26.75,128.39,26.49,128.16,26Zm16.53-.38a.25.25,0,0,1-.37.09C144.35,25.56,144.57,25.55,144.69,25.65Zm28.18-.77c.13-.27.18.14.1.16S172.85,24.93,172.87,24.88Zm-53.56,1.56c0-.07.11-.06.18-.08S119.38,26.42,119.31,26.44Zm5.9-.25c.2,0,.18.11.2.23l.92,0c0,.41-.74.16-.91.42-.3,0-.4-.13-.74-.06C124.63,26.39,125.3,26.59,125.21,26.19Zm20-.47s.06-.1.09-.08S145.18,25.74,145.16,25.72Zm4.06-.19h.18v.16h-.19Zm1.94-.05c.12,0,.08.19.1.31C151,25.73,151.15,25.67,151.16,25.48Zm11.92-.25c0,.27-.25,0-.28.17-.16-.06,0-.15,0-.24S163,25.23,163.08,25.23Zm1.94-.05c0-.12.09,0,.09.07S165,25.26,165,25.18Zm3.23-.17a.57.57,0,0,0,.37.07c.06.27-.32.2-.26.48-.55,0-1.29-.07-1.57.19a.21.21,0,0,1-.19-.22c-.22-.05-.44-.1-.47-.3.29-.13.51.39.55,0,.28.2.45,0,.65.22a.55.55,0,0,1,.28-.09c.26.12.39-.1.65.06Zm6.37-.17a1,1,0,0,0,.56.06c.08.26-.34.31-.37.09C174.66,25.1,174.61,25.06,174.62,24.84ZM106,26.92c0-.12.1,0,.1.08C106,27,105.94,26.93,106,26.92Zm45.5-1.3c-.05,0,.06-.1.09-.08S151.56,25.64,151.53,25.62Zm2.68-.15a.57.57,0,0,0,.37.07C154.61,25.68,154.06,25.69,154.21,25.47Zm7,0c.08.35-.57.27-.64.09-.3,0-.28.16-.46,0C160.36,25.11,160.65,25.55,161.23,25.44Zm.18-.16c.31.18-.24.38,0,0Zm1.76,0s.06-.1.09-.08S163.2,25.33,163.17,25.31Zm12.1-.41a.72.72,0,0,0,.28.07c0,.1-.16.12-.17.23S175.29,25,175.27,24.9Zm-27.43.9c-.05,0,.06-.1.09-.08S147.86,25.82,147.84,25.8Zm5.54-.15c0-.08.11-.06.18-.08S153.45,25.63,153.38,25.65Zm1.94-.13h.18v.16h-.19Zm4.62-.05c0,.28-.43.4-.64.25v-.23C159.49,25.3,159.65,25.51,159.94,25.47Zm2.59-.07c-.05,0,.06-.1.09-.08S162.55,25.42,162.53,25.4Zm-10,.35c0-.11.23-.07.37-.09.07.21-.18.16-.18.32C152.61,26,152.7,25.75,152.55,25.75Zm2.31-.06c-.05,0,.06-.1.09-.08S154.89,25.71,154.86,25.69Zm15.43-.42c0-.12.08,0,.19,0S170.29,25.35,170.29,25.27Zm-46.36,1.35c0-.08.11-.06.19-.08S124,26.6,123.93,26.62Zm40.17-1.18c.05.24-.23.28-.37.16C163.75,25.47,163.89,25.42,164.1,25.44Zm-54.74,1.62c.31.17-.25.38,0,0Zm10-.23c0-.09.17-.07.28-.09S119.43,26.82,119.32,26.83Zm9.41-.35h.46c.1.26-.28.13-.45.17Zm30.38-.75c0-.09.1-.05.1,0A.05.05,0,0,1,159.11,25.73Zm6.19-.17c0-.09.17-.07.28-.08S165.41,25.55,165.3,25.56Zm14.33-.32s.07-.1.09-.08S179.66,25.26,179.63,25.24Zm-52.28,1.44c.19,0,.29,0,.28.14h-.27Zm15.23-.43c.14.12.18.33.38.38-.08.12-.13.25-.36.25-.14-.28-.13-.45-.56-.3C141.94,26.25,142.25,26.24,142.58,26.25Zm-23.8.83c0-.09.16-.07.27-.09S118.88,27.06,118.78,27.08Zm9.59-.36c.18,0,.29,0,.28.15h-.28Zm1.66,0a2.62,2.62,0,0,1,.28,0c.19,0,.14.09.28.15a4.07,4.07,0,0,1,.92-.11c.2.07,0,.5.2.54-.09.23-.65-.2-.74,0-.12,0-.15-.14-.28-.15a1.7,1.7,0,0,1-.92,0C129.72,26.89,130.17,27,130,26.68ZM9.3,32c.18,0,.16.34-.08.24v-.16C9.29,32.1,9.3,32.05,9.3,32Zm120.55-5.17s.06-.1.09-.08S129.88,26.86,129.85,26.84Zm24.1-.66c.12-.35.39.36,0,.23C153.93,26.28,154.11,26.21,154,26.18Zm5.17-.22c.26,0,.31.26.56.3,0,.19.18.16.11.39-.43.09-.7-.22-.48-.46C159.25,26.11,159.1,26.12,159.12,26ZM9,32.18s.06-.1.09-.08S9.06,32.2,9,32.18Zm118.51-5.27a.44.44,0,0,1,.11.38c-.33.05-.24-.27-.56-.22C127.16,27,127.38,27,127.54,26.91Zm20.23-.33c0,.14-.52.05-.47-.14C147.52,26.23,147.63,26.48,147.77,26.58ZM162.54,26s.07-.1.09-.07S162.57,26.05,162.54,26Zm-30.38.91s.07-.1.09-.08S132.19,27,132.16,26.93Zm2.4-.14c.06.36-.11.47,0,.7.29,0,.26-.25.64-.18,0,.46-.51.2-.73.34-.23-.12-.72,0-.93-.13l-1.2,0c0-.12-.11,0-.27,0s-.09-.14-.19-.15c-.05-.22.34-.09.36-.25a1.84,1.84,0,0,1,.65.06,4.69,4.69,0,0,1,.92-.18A1.27,1.27,0,0,1,134.56,26.79Zm8,.4c-.13.08-.18.22-.37.24s-.29-.11-.46-.14c-.38.09-.38,0-.83,0-.16-.3.39,0,.36-.24s-.2-.2-.38-.22-.16.27-.26.39c-.26,0-.18.16-.37.17s-.36,0-.55-.06a3.79,3.79,0,0,1-1.39,0c0-.31.37-.32.45-.56a.88.88,0,0,0,.64,0c.17.15-.06.15.1.31.41,0,.62-.29,1-.11.23,0-.13-.13,0-.31.12,0,.2-.09.27-.09s.12.14.19.16.37,0,.56.06v.23c.42,0,.64-.14.92.06a1.35,1.35,0,0,0,.73-.34,1.76,1.76,0,0,0,.75.3c-.05.11-.13.2-.18.31a.74.74,0,0,1-.65-.21.26.26,0,0,0-.18.16c.11,0,.06.11,0,0S142.65,27.23,142.52,27.19Zm15.5-1c-.05,0,.06-.1.09-.09S158,26.25,158,26.23Zm-30,.89c0-.11.08,0,.18,0S128,27.2,128,27.12Zm24.1-.73c.19.16.29-.08.46.06S152,26.62,152.11,26.39Zm1.57,0c-.05,0,.06-.1.09-.08S153.7,26.44,153.68,26.42Zm12.66-.34c-.05,0,.06-.1.09-.08S166.36,26.1,166.34,26.08Zm-28.35,1c0,.14.11.16.1.31a3,3,0,0,1-1.48,0,.91.91,0,0,1-.65,0,.64.64,0,0,1,.28-.16c0-.17-.33,0-.47-.07.11-.45.85-.14,1.2-.11,0-.13.08-.14.09-.24.29,0,.55,0,.56.3A.61.61,0,0,1,138,27.08Zm24.56-.9h.27c0,.11-.15.13-.17.24s-.09,0-.1-.07Zm-3.7.18c.05.24-.22.28-.36.16C158.51,26.39,158.64,26.34,158.85,26.36Zm-12.18.48c.2-.27.33.18.64.07C147.17,27.13,146.81,26.88,146.67,26.84Zm5.53-.22h.19v.16h-.18Zm5.82-.16h.19v.15H158Zm-.45.17c0-.12.09,0,.09.07C157.5,26.73,157.47,26.63,157.57,26.63Zm9.14-.25c-.05,0,.07-.1.09-.08S166.74,26.4,166.71,26.38Zm-6.28.17c.34,0,.82-.09,1,.05-.18.21-.58.25-.92.34A.47.47,0,0,1,160.43,26.55Zm2.22-.06c.21,0,.22.2,0,.23s-.55-.08-.56.1c-.07-.18-.64.09-.56-.22C162,26.5,162.43,26.81,162.65,26.49Zm4.44,0c-.39.32-1.17.1-1.76.12,0-.16.41,0,.46-.17s.48.08.46-.09C166.47,26.49,166.89,26.41,167.09,26.53Zm1-.19a.47.47,0,0,1-.08.39c-.32.05-.53,0-.47-.29C167.83,26.48,167.88,26.35,168.1,26.34Zm.37,0c.2,0,.14.15.28.15a.45.45,0,0,1-.55.17C168.17,26.45,168.56,26.58,168.47,26.33Zm1,.28c-.16.22-.61,0-.57-.21C169.14,26.22,169.35,26.49,169.5,26.61Zm-33.91.69c.15,0,.16.07.28.07S135.45,27.5,135.59,27.3Zm9.88-.19c-.05,0,.07-.1.09-.08S145.5,27.13,145.47,27.11Zm2.31-.06c0-.08.11-.07.18-.08S147.85,27,147.78,27.05Zm10.81-.29c0-.08.11-.07.18-.09S158.66,26.74,158.59,26.76Zm24.67-.69c.05-.12.1,0,.1.08C183.19,26.18,183.17,26.08,183.26,26.07ZM152.58,27c0,.19,0,.38.2.38,0,.19-.42,0-.27.24s.45,0,.65.06.19.15.37.15a1.8,1.8,0,0,1,1.3,0c-.06.29-.6.06-.84,0-1.48.09-2.16-.05-3.6,0-.12-.25.3-.07.18-.31a.45.45,0,0,0,.27-.25c.39.23.67.06,1.11,0-.18-.16-.73,0-.93-.13.09-.17.58,0,.83-.1C152.06,26.87,152.19,27,152.58,27ZM165,26.66c0-.08.12-.06.19-.08S165,26.64,165,26.66Zm2.41-.06c-.05,0,.06-.11.09-.08S167.39,26.62,167.37,26.6Zm2.87.07c0-.1.18-.08.18,0S170.34,26.66,170.24,26.67Zm13.21-.37s.07-.1.1-.08S183.48,26.32,183.45,26.3ZM7.07,33.24c-.05,0,.06-.1.09-.08S7.1,33.26,7.07,33.24ZM139.2,27.59c0-.15.42-.12.28.07h-.19C139.31,27.6,139.26,27.6,139.2,27.59Zm9.14-.25c-.25.36.28.08.2.47-.37,0-.52-.13-.93,0v-.32h-.28c0,.09-.13.05,0,0C147.57,27.2,147.94,27.34,148.34,27.34ZM7.53,33.29s.06-.1.09-.08S7.56,33.31,7.53,33.29Zm132.13-5.63c0-.08.12-.06.19-.08S139.74,27.64,139.66,27.66Zm7.2-.28h.19v.15h-.18ZM171.72,27a1.5,1.5,0,0,0-.73,0c-.06-.17.17-.11.17-.24C171.4,26.83,171.72,26.78,171.72,27Zm-18.66.43h.18C153.27,27.67,152.55,27.44,153.06,27.45Zm-3.69.26c0,.2-.34.19-.46.09C149,27.61,149.13,27.67,149.37,27.71Zm5.26-.07c0-.05-.27-.05-.27-.07S154.68,27.37,154.63,27.64Zm8.51-.07c0,.17-.51,0-.46.24-.17,0-.23-.16-.46-.14s-.09.13-.18.16-.46,0-.65,0c0-.1.16-.08.18-.16s-.15-.08-.28-.07-.11.14,0,.15c-.06.19-.57,0-.65.18-.31-.09-.79,0-1-.21a.69.69,0,0,0-.46.09h-.46c-.25.09-.82.2-.84-.13a15.31,15.31,0,0,1,1.85-.05c.16,0,0-.1,0-.23a3.46,3.46,0,0,1,1.76.11l1,0c.07,0,.18,0,.18-.09s-.06-.11,0,0C162.9,27.41,163,27.54,163.14,27.57Zm11.73-.64c.19,0,.2.12.1.23S174.88,27,174.87,26.93Zm4.9-.05c-.05,0,.06-.11.09-.09S179.8,26.9,179.77,26.88Zm-.19,0c0,.21.14.25.38.22-.07.17-.48.23-.64.1a10.13,10.13,0,0,1-1.48,0c0-.16.43-.06.45-.24.26,0,.4.17.65.21S179.25,26.87,179.58,26.88Zm-3.5.25c0-.17.32,0,.46-.09C176.48,27.29,176.29,27.15,176.08,27.13Zm-12.76.43c0-.09.1,0,.1,0S163.33,27.61,163.32,27.56Zm-8.21.38c0-.09.16-.07.27-.08S155.21,27.93,155.11,27.94Zm2.12-.06c-.15.19-.7.05-1,.11C156.26,27.73,157,27.79,157.23,27.88Zm.37,0c0,.1-.13.05,0,0S157.73,27.82,157.6,27.87ZM181,27.23c0-.08.11-.06.19-.08h.18C181.32,27.25,181.12,27.21,181,27.23Zm1.76-.05a.26.26,0,0,1-.27.16C182.42,27.18,182.59,27.19,182.74,27.18ZM10,36.57c0-.08.11-.07.18-.09S10,36.55,10,36.57Zm112.86-4.15c.23-.24.62,0,.83-.1.29.09.43,0,.73,0s.24-.14.28,0c.36,0,.81-.09.93.13.19-.05.25-.2.54-.18s.28.13.56.07,1.21-.11,1.75-.06c.39,0,0,.11-.55.1l-.83,0a33.81,33.81,0,0,1-3.59.18C123.15,32.48,123.05,32.62,122.81,32.42Zm-11.24.33s.06-.1.09-.08S111.59,32.77,111.57,32.75Zm10.69-.32c-.14.2-.62.12-.83.26-.27-.09-.55.07-1,0a7.49,7.49,0,0,1-1.66,0c-.31-.08-.56.25-.74,0s.31-.24.27-.08c.18.07.3-.25.37,0,.18-.14.12,0,.37,0s.35,0,.37.06c.18,0,.23-.17.46-.17a4.78,4.78,0,0,0,.92,0c0,.2.16-.11.37,0s.48.07.46-.09A1.87,1.87,0,0,1,122.26,32.43Zm7.09-.2c-.27.29-.31-.23,0,0Zm1.39,0c-.05,0,.06-.1.09-.08S130.76,32.21,130.74,32.19Zm-18.25.54c0,.31-.23.21-.46.17,0,.21-.5,0-.45.17-.13,0-.18-.11-.38-.07.1-.18.58,0,.83-.1C111.93,32.64,112.31,32.77,112.49,32.73Zm17-.43c0-.07.11-.06.18-.08S129.52,32.28,129.45,32.3ZM113,33a.31.31,0,0,1,.45-.1H114c.22,0,.16.09,0,.07Zm4.88-.15s.06-.11.09-.09S117.86,32.82,117.84,32.8Zm18.63-.3c0-.08.11-.06.19-.08S136.54,32.48,136.47,32.5Zm7.48,0a1.84,1.84,0,0,1,.65.06l.74,0c.16,0,.19.07.09.08h-.27l-.74,0C144.24,32.56,143.86,32.71,144,32.45Zm1.76.11c0-.17.33-.05.46-.09l.46,0c0,.17-.32,0-.46.1Zm6-.16s0-.08,0-.08c.33-.06,0,.34-.08.23S151.7,32.41,151.71,32.4Zm.65-.1c-.06.16-.24.21-.46.25A.41.41,0,0,1,152.36,32.3Zm-4.71.28c0-.09.17-.07.28-.08h.27c0,.09-.16.07-.27.09Zm1.29-.11h.19v.15H149Zm1.94,0s.07-.1.09-.08S150.91,32.52,150.88,32.5Zm11.37-.39c-.08.28-.27,0-.56.09-.05.29-.43-.17-.46.09l-1.57.05-.83,0c-.32-.06-.38.15-.55,0a10.34,10.34,0,0,0-1.3.12c-.09-.28.37-.12.56-.17l2.12-.06c0-.12.08,0,.19,0s.16-.07.27-.08Zm.09.08c0-.17.33,0,.46-.09C162.8,32.29,162.46,32.29,162.34,32.19Zm.74,0c0-.08.11-.07.18-.09S163.15,32.15,163.08,32.17Zm.46,0c0-.15.42-.12.28.07h-.18C163.65,32.16,163.6,32.16,163.54,32.15Zm.56,0c.12-.18.64,0,.92-.1C164.9,32.37,164.43,32.09,164.1,32.14Zm6.84-.19c.27-.23.76,0,1.11,0,.06.18-.63.3-.56,0C171.28,32,171.11,32.1,170.94,32Zm-24.58.75c0-.12.08,0,.19,0S146.36,32.77,146.36,32.7Zm4-.11c0-.09.17-.07.28-.09S150.44,32.57,150.33,32.59Zm5.17-.14c0,.17-.32,0-.46.09C155.1,32.29,155.29,32.43,155.5,32.45Zm13-.35s.06-.11.09-.08S168.56,32.12,168.54,32.1Zm1,0c0-.09.17-.07.28-.09S169.66,32.05,169.55,32.07Zm-13.77.45c-.05,0,.07-.1.09-.08S155.81,32.54,155.78,32.52Zm7.58-.21h.19C163.57,32.53,162.85,32.31,163.36,32.31Zm.37.07s.07-.1.09-.08S163.76,32.4,163.73,32.38Zm.28,0c0-.07.11-.06.18-.08S164.08,32.35,164,32.37Zm.46,0c0-.07.11-.06.19-.08S164.54,32.34,164.47,32.36ZM123,33.58s.06-.1.09-.08S123.05,33.6,123,33.58Zm-10.41.31c.34,0,.54,0,.56.29C112.85,34.22,112.54,34.22,112.62,33.89Zm2.76,0s.06-.1.09-.08S115.41,33.9,115.38,33.88Zm1.75-.13c-.06.11-.19.15-.37.17C116.66,33.69,117,33.77,117.13,33.75Zm.28.07c0-.09.16-.07.27-.09S117.51,33.8,117.41,33.82ZM51.49,36.43c-.05,0,.06-.1.09-.08S51.52,36.45,51.49,36.43Zm-31.2,1.85c-.05,0,.06-.11.09-.09S20.32,38.3,20.29,38.28Zm154.27-5.81c-.05,0,.07-.1.09-.08S174.59,32.49,174.56,32.47Zm8-.06s.19-.15.27-.09S182.42,32.56,182.52,32.41Zm-2.12.29c0-.08.11-.06.18-.08S180.47,32.68,180.4,32.7Zm1,0c0-.07.12-.06.19-.08S181.49,32.65,181.41,32.67Z"/><path class="cls-1" d="M9.76,6.85c0-.08.11-.07.18-.09S9.83,6.83,9.76,6.85Z"/><path class="cls-1" d="M188,.22l-.46,0c0-.2.34-.2.46-.09Z"/><path class="cls-1" d="M187,.25c0-.17.32,0,.45-.09C187.43.33,187.09.21,187,.25Z"/><path class="cls-1" d="M188,.22c.49-.1.12.24,0,0Z"/><path class="cls-1" d="M4.82,8.1c.08.21-.44,0-.36.18C4.12,8.17,4.62,8.07,4.82,8.1Z"/><path class="cls-1" d="M208,2.82c.09-.18.58,0,.83-.11a2.68,2.68,0,0,1,.83,0c0,.18-.39.05-.55.1l-.55,0C208.32,2.89,208.26,2.75,208,2.82Z"/><path class="cls-1" d="M4.73,11.15c0-.08.11-.07.18-.09l.28,0c0,.08-.11.07-.18.09Z"/><path class="cls-1" d="M5.89,13.26c.11.25-.28.14-.45.18C5.44,13.27,5.66,13.26,5.89,13.26Z"/><path class="cls-1" d="M4.22,14.77c0,.39-.71.21-1,.37,0-.2.29-.17.54-.19S3.92,14.72,4.22,14.77Z"/><path class="cls-1" d="M205.84,8.1c-.05,0,.06-.1.09-.08S205.87,8.12,205.84,8.1Z"/><path class="cls-1" d="M202.27,9c-.14,0-.48.11-.47-.06C201.94,9,202.27,8.82,202.27,9Z"/><path class="cls-1" d="M202.27,9c.38-.09,0,.23,0,0Z"/><path class="cls-1" d="M.64,19.6c0-.05,0-.09.08-.08S.72,19.61.64,19.6Z"/><path class="cls-1" d="M.64,19.6c0,.09-.13.06,0,0Z"/><path class="cls-1" d="M198.53,13.63c.09.3-.49.07-.55.25l-.92,0c-.08-.28.39-.14.45-.32.14,0,.23.11.37.14C198.18,13.75,198.2,13.57,198.53,13.63Z"/><path class="cls-1" d="M199.08,13.61c.06.16-.54.3-.46,0S198.85,13.61,199.08,13.61Z"/><path class="cls-1" d="M197,14.92c0-.09.17-.07.28-.09h.27c0,.1-.16.07-.27.09Z"/><path class="cls-1" d="M197.73,14.9c0-.08.11-.07.19-.09S197.8,14.88,197.73,14.9Z"/><path class="cls-1" d="M199.27,16.72c.09.3-.49.07-.55.25-.28.07-.28-.13-.56-.06,0-.22.51,0,.46-.17.11,0,.16,0,.19.07C199,16.84,199,16.66,199.27,16.72Z"/><path class="cls-1" d="M197.24,17c-.12.23-.63.15-1,.18a1.61,1.61,0,0,1-.92,0c.13-.18.54-.12.73-.26h.46c.08,0,.09,0,.09-.08h.46C197.15,16.88,197.12,17,197.24,17Z"/><path class="cls-1" d="M197.8,17c0-.08.11-.07.18-.08S197.87,17,197.8,17Z"/><path class="cls-1" d="M197.43,17.17c0-.08.11-.07.18-.09S197.5,17.15,197.43,17.17Z"/><path class="cls-1" d="M196.7,17.5c0-.15.42-.13.28.07h-.18C196.81,17.51,196.76,17.5,196.7,17.5Z"/><path class="cls-1" d="M197.35,17.48c0-.1.18-.08.18,0S197.45,17.47,197.35,17.48Z"/><path class="cls-1" d="M195.69,17.61c-.05,0,.06-.1.09-.08S195.71,17.63,195.69,17.61Z"/><path class="cls-1" d="M192.73,17.77a.66.66,0,0,1,.47.07c0,.15,0,.33-.27.32,0-.07,0-.08.09-.08S192.6,18.08,192.73,17.77Z"/><path class="cls-1" d="M193.29,17.83c0-.17.45,0,.64-.09C193.82,18,193.53,17.9,193.29,17.83Z"/><path class="cls-1" d="M190.43,18c.1.23-.2.14-.37.16C190.08,18,190.22,18,190.43,18Z"/><path class="cls-1" d="M194.12,17.89c.17.05,0,.14,0,.23C194,18.07,194.11,18,194.12,17.89Z"/><path class="cls-1" d="M197.17,17.88c.28-.3.32.22,0,0Z"/><path class="cls-1" d="M198.47,17.84c-.05,0,.06-.11.09-.09S198.49,17.86,198.47,17.84Z"/><path class="cls-1" d="M196.62,17.89c.17,0,.2.09.37.07C197,18.18,196.56,18.16,196.62,17.89Z"/><path class="cls-1" d="M197.57,18.72a.28.28,0,0,0-.45.25c-.22,0-.35,0-.37.16-.23,0-.29-.11-.47-.14s0,.22-.17.24-.31-.1-.29-.3-.27-.13-.2-.39a.64.64,0,0,0,.28-.16c.17.19.6.15.57.53.3.06.12-.26.26-.32s-.31,0-.37-.15.51,0,.46-.16c.09.08.34,0,.28.22.19-.16.18,0,.37.07s.18-.11.28-.17c0-.23.14.12.28.07C198,18.65,197.62,18.56,197.57,18.72Z"/><path class="cls-1" d="M198.39,18.38c-.11,0-.06-.11,0,0Z"/><path class="cls-1" d="M198.58,18.38c-.05,0,.06-.1.09-.08S198.6,18.4,198.58,18.38Z"/><path class="cls-1" d="M199.87,18.34c0-.08.11-.07.18-.09S199.94,18.32,199.87,18.34Z"/><path class="cls-1" d="M198.39,18.38a.34.34,0,0,1,.2.31l-.56,0C198.11,18.57,198.37,18.57,198.39,18.38Z"/><path class="cls-1" d="M3,26.08s.06-.1.09-.08S3,26.1,3,26.08Z"/><rect class="cls-1" x="198.86" y="18.44" width="0.18" height="0.16" transform="translate(-0.47 6.12) rotate(-1.76)"/><path class="cls-1" d="M197.57,18.72c.34-.07.12.21-.09.16C197.48,18.8,197.55,18.78,197.57,18.72Z"/><path class="cls-1" d="M197.48,18.88c0,.09-.13.05,0,0Z"/><path class="cls-1" d="M189.64,19.42s.06-.1.09-.08S189.66,19.44,189.64,19.42Z"/><path class="cls-1" d="M191.86,19.36c.27-.3.31.22,0,0Z"/><path class="cls-1" d="M194.17,19.29c0-.11.08,0,.18,0S194.17,19.37,194.17,19.29Z"/><path class="cls-1" d="M188.07,19.54c.27.08-.11.26-.27.25C187.65,19.51,188.11,19.73,188.07,19.54Z"/><path class="cls-1" d="M192.69,19.49c0-.09.17-.07.28-.09S192.8,19.47,192.69,19.49Z"/><path class="cls-1" d="M193.25,19.55a.22.22,0,0,1,.19.23C193.12,19.86,193.12,19.67,193.25,19.55Z"/><path class="cls-1" d="M193.71,19.61c-.05,0,.07-.1.09-.08S193.74,19.64,193.71,19.61Z"/><rect class="cls-1" x="192.7" y="19.72" width="0.18" height="0.16" transform="translate(-0.49 5.61) rotate(-1.66)"/><path class="cls-1" d="M193.72,19.85h.18C193.93,20.06,193.21,19.84,193.72,19.85Z"/><path class="cls-1" d="M191.9,20.76c0-.1.18-.09.18,0S191.92,20.85,191.9,20.76Z"/><path class="cls-1" d="M190.43,21.35c-.07.22-.47.18-.63.33s-.37-.1-.56-.14c-.07-.21.43,0,.36-.17A3.69,3.69,0,0,0,190.43,21.35Z"/><path class="cls-1" d="M191.27,21.32c.23,0,.22.29.1.39C191.06,21.65,191.32,21.56,191.27,21.32Z"/><path class="cls-1" d="M186.65,21.61c0-.09.17-.07.28-.08S186.76,21.6,186.65,21.61Z"/><path class="cls-1" d="M191.73,21.46s.07-.1.09-.08S191.76,21.49,191.73,21.46Z"/><path class="cls-1" d="M190.35,21.66c.13.38-.54.13-.64.33-.15,0-.16-.07-.28-.07s0,.36-.36.24C189,21.6,190,21.86,190.35,21.66Z"/><path class="cls-1" d="M184.72,22.06c.51,0,.69.1,1.11,0a.5.5,0,0,0,.38.3c0,.16-.33,0-.46.09,0-.11-.28,0-.28-.15C185.23,22.44,184.68,22.38,184.72,22.06Z"/><path class="cls-1" d="M188.53,22.57c-.05,0,.06-.1.09-.08S188.55,22.59,188.53,22.57Z"/><path class="cls-1" d="M5.28,29.76c0-.05.3-.14.36-.1s-.1.29-.27.18S5.37,29.73,5.28,29.76Z"/><path class="cls-1" d="M128.12,24.55c.11,0,.06.11,0,0Z"/><path class="cls-1" d="M187.9,23.21c0-.07.11-.06.18-.08S188,23.19,187.9,23.21Z"/><path class="cls-1" d="M141.61,24.57c-.05,0,.07-.11.09-.08S141.64,24.59,141.61,24.57Z"/><path class="cls-1" d="M187,23.24c0,.47-.62.1-1,.18C186.14,23.23,186.57,23.25,187,23.24Z"/><path class="cls-1" d="M185.22,23.37c.12.1.4.06.65.06C185.78,23.63,185.25,23.63,185.22,23.37Z"/><path class="cls-1" d="M136.91,25s.07-.1.09-.08S136.94,25,136.91,25Z"/><path class="cls-1" d="M179.59,23.84H180c.1.23-.2.14-.36.17Z"/><path class="cls-1" d="M180.7,23.81c0,.14-.15.18-.36.17C180.24,23.74,180.54,23.83,180.7,23.81Z"/><path class="cls-1" d="M181.53,23.86c.05-.12.1,0,.1.08C181.46,24,181.44,23.87,181.53,23.86Z"/><path class="cls-1" d="M183.39,23.89c-.13.2-.32.15-.56.09A.42.42,0,0,1,183.39,23.89Z"/><path class="cls-1" d="M185.51,23.83c0-.1.18-.09.19,0S185.53,23.92,185.51,23.83Z"/><path class="cls-1" d="M7.1,30.82c0-.08.11-.07.18-.09l.28,0c0,.08-.11.07-.18.09Z"/><rect class="cls-1" x="176.83" y="24.07" width="0.18" height="0.16" transform="translate(-0.6 4.92) rotate(-1.59)"/><path class="cls-1" d="M6.09,30.88c.1.23-.2.15-.36.18C5.78,31,5.92,30.9,6.09,30.88Z"/><path class="cls-1" d="M145.42,25.09a.22.22,0,0,1,.19.22c-.15,0-.16-.06-.28-.07S145.42,25.16,145.42,25.09Z"/><path class="cls-1" d="M169,24.91c0-.08.09,0,.09,0S169,25,169,24.91Z"/><path class="cls-1" d="M5.58,31.62c0-.08.11-.07.18-.09S5.65,31.6,5.58,31.62Z"/><path class="cls-1" d="M163.91,25.21c0-.08.11-.06.18-.08S164,25.19,163.91,25.21Z"/><path class="cls-1" d="M180.73,24.9c0-.09.09,0,.09,0S180.73,24.94,180.73,24.9Z"/><path class="cls-1" d="M166.78,25.44c-.05,0,.06-.1.09-.08S166.81,25.46,166.78,25.44Z"/><path class="cls-1" d="M120.34,26.8c0-.06.07-.09.18-.08S120.44,26.81,120.34,26.8Z"/><path class="cls-1" d="M183.32,25a1.39,1.39,0,0,1-.64.18C182.6,24.86,183.12,25,183.32,25Z"/><path class="cls-1" d="M183.88,25.12c0-.09.17-.07.28-.09S184,25.1,183.88,25.12Z"/><path class="cls-1" d="M192.76,24.79c0,.23-.3.17-.46.24C192.25,24.79,192.49,24.78,192.76,24.79Z"/><path class="cls-1" d="M187.4,25.17c-.05,0,.06-.1.09-.08S187.43,25.19,187.4,25.17Z"/><rect class="cls-1" x="130.22" y="26.83" width="0.18" height="0.15" transform="translate(-0.69 3.59) rotate(-1.57)"/><path class="cls-1" d="M183.71,25.44c.29,0,.7-.1.65.21C184.18,25.79,183.75,25.67,183.71,25.44Z"/><path class="cls-1" d="M186,25.45c-.05,0,.07-.1.09-.08S186.05,25.47,186,25.45Z"/><path class="cls-1" d="M187.5,25.48c0-.11.08,0,.19,0S187.51,25.56,187.5,25.48Z"/><path class="cls-1" d="M183.25,25.68c.27-.29.32.23,0,0Z"/><path class="cls-1" d="M187.45,26.73c0-.19-.18-.16-.11-.39-.4-.06-.42.18-.64.26,0-.09-.17-.06-.28-.07.14-.28-.31,0-.28-.23.25.05-.08-.36.17-.32.1.05.1.18.29.15-.11-.3.31-.28.07-.47-.23.08-.52.14-.64-.06-.29,0-.26.26-.65.18a.45.45,0,0,1-.45.32c0,.22-.16.33-.17.55.28.1.4,0,.83,0,0-.11,0-.22.09-.24a.45.45,0,0,0,.28.07c0-.09.13-.05,0,0v.31C186.53,26.67,187,27,187.45,26.73Zm-2.24-.48c-.05,0,.07-.1.09-.08S185.24,26.27,185.21,26.25Zm.28.07c0-.08.11-.06.18-.08H186c0,.08-.11.06-.18.08Z"/><path class="cls-1" d="M192.22,25.5c0-.09.09,0,.09,0S192.22,25.54,192.22,25.5Z"/><path class="cls-1" d="M196.2,25.46c.29-.07.29.12.47.15C196.6,25.79,196.1,25.7,196.2,25.46Z"/><path class="cls-1" d="M136.42,27.28s.06-.1.09-.08S136.45,27.3,136.42,27.28Z"/><path class="cls-1" d="M190.75,25.7a.26.26,0,0,1-.28.16A.27.27,0,0,1,190.75,25.7Z"/><path class="cls-1" d="M184,26l.37,0c.1.23-.2.15-.37.17Z"/><path class="cls-1" d="M188.44,25.92c-.05,0,.06-.1.09-.08S188.47,25.94,188.44,25.92Z"/><path class="cls-1" d="M195.09,25.65a.25.25,0,0,1-.27.17A.26.26,0,0,1,195.09,25.65Z"/><path class="cls-1" d="M5.4,33.11c0-.07.11-.06.18-.09S5.47,33.09,5.4,33.11Z"/><path class="cls-1" d="M193.9,25.84c.27-.08.17.17.19.31h-.28C193.77,26,193.87,26,193.9,25.84Z"/><path class="cls-1" d="M194.45,25.9c0-.09.19-.08.19,0S194.48,26,194.45,25.9Z"/><path class="cls-1" d="M193.44,26a.4.4,0,0,1-.46.25C193.05,26.09,193.2,25.82,193.44,26Z"/><path class="cls-1" d="M190.12,26.34c-.27.3-.32-.23,0,0Z"/><path class="cls-1" d="M191.78,26.29c0-.09.14-.05,0,0Z"/><rect class="cls-1" x="192.34" y="26.2" width="0.18" height="0.16" transform="translate(-0.68 5.61) rotate(-1.67)"/><path class="cls-1" d="M189,26.37c-.16.11-.24.27-.55.26C188.45,26.38,188.73,26.38,189,26.37Z"/><path class="cls-1" d="M190.67,26.4a.05.05,0,0,1,.1,0C190.75,26.49,190.68,26.45,190.67,26.4Z"/><path class="cls-1" d="M191.32,26.39c-.11,0-.06-.12,0,0Z"/><path class="cls-1" d="M191.78,26.29c0,.18-.39.37-.46.1C191.55,26.41,191.52,26.24,191.78,26.29Z"/><path class="cls-1" d="M147.71,27.67c0-.09.16-.07.27-.08S147.81,27.66,147.71,27.67Z"/><path class="cls-1" d="M173.85,27c.05-.12.1,0,.1.08S173.85,27,173.85,27Z"/><rect class="cls-1" x="187.9" y="26.48" width="0.18" height="0.16" transform="translate(-0.69 5.48) rotate(-1.67)"/><path class="cls-1" d="M189.11,26.68c0-.07.11-.06.18-.08S189.18,26.66,189.11,26.68Z"/><path class="cls-1" d="M186,26.77c0,.1-.14.06,0,0Z"/><path class="cls-1" d="M174.23,27.26c.3.12-.32.3-.36.17S174.2,27.4,174.23,27.26Z"/><path class="cls-1" d="M161.85,27.76s.06-.1.09-.08S161.88,27.78,161.85,27.76Z"/><path class="cls-1" d="M166.93,27.62c0-.09.14-.05,0,0Z"/><path class="cls-1" d="M185.88,27l2-.06c-.09.26-.76.06-.73.41h-.47c0,.26.54.11.84.14a.25.25,0,0,0,.27-.17c.5.19.9-.14,1.48-.12,0,.18-.26.1-.27.24s-.09.19-.27.17c0-.13-.08-.15-.19-.15-.32-.06-.39.1-.55.17a1.91,1.91,0,0,0-1.11,0c0-.14-.32,0-.38-.14l-.64,0A1,1,0,0,0,185.88,27Z"/><rect class="cls-1" x="188.66" y="26.93" width="0.19" height="0.16" transform="translate(-0.7 5.48) rotate(-1.66)"/><path class="cls-1" d="M166.93,27.62c0,.09-.13.05,0,0Z"/><path class="cls-1" d="M190.24,27.2c0-.08.11-.07.18-.09S190.31,27.18,190.24,27.2Z"/><path class="cls-1" d="M176.56,27.74c0-.09.16-.07.27-.08S176.67,27.73,176.56,27.74Z"/><path class="cls-1" d="M174.62,28c0-.23.39.07,0,0Z"/><path class="cls-1" d="M186.37,27.77c-.05,0,.06-.1.09-.08S186.39,27.8,186.37,27.77Z"/><path class="cls-1" d="M198.57,27.42c-.13.25-.7.15-1.1.19a4.67,4.67,0,0,1-1.3.11c0-.1.23-.07.37-.09C196.94,27.34,197.89,27.48,198.57,27.42Z"/><path class="cls-1" d="M199.87,27.45c0-.09.18-.08.19,0a2.43,2.43,0,0,1,.82-.11,2.44,2.44,0,0,0,.84.06c-.12.22-.34.07-.74.18C200.5,27.46,200.24,27.64,199.87,27.45Z"/><path class="cls-1" d="M184.61,27.9c.32.13-.11.22-.18.17S184.66,28,184.61,27.9Z"/><path class="cls-1" d="M202,27.39h.37c.1.23-.21.14-.37.16Z"/><path class="cls-1" d="M203.11,27.36c0,.11-.28,0-.28.16C202.53,27.44,202.92,27.29,203.11,27.36Z"/><path class="cls-1" d="M198.78,28c-.09-.29.43-.11.64-.17s.09,0,.09-.08l.83,0c.15,0,.35-.05.37.07h-.37c-.2.09-.55.07-.73.18A1.67,1.67,0,0,0,198.78,28Z"/><path class="cls-1" d="M195.26,28.14s.07-.1.09-.08S195.29,28.16,195.26,28.14Z"/><path class="cls-1" d="M195,28.23c-.05,0,.06-.1.09-.08S195,28.25,195,28.23Z"/><path class="cls-1" d="M196.65,28.25c0,.11-.23.08-.36.09A.25.25,0,0,1,196.65,28.25Z"/><path class="cls-1" d="M194.44,28.48c0-.1.18-.09.18,0S194.46,28.57,194.44,28.48Z"/><path class="cls-1" d="M195,28.38c.35-.07.21.29.47.3a3.94,3.94,0,0,0,1-.11.64.64,0,0,1,.46.07c.19,0,.29,0,.29.14-1.11.15-2.15.33-3.23.49-.32.07-.36-.11-.65-.06a.94.94,0,0,0-.55.09c-.48-.06-1,.15-1.21,0,.28-.26,1-.17,1.48-.28.05-.11.35,0,.36-.17H194c-.08-.21.44,0,.36-.17.29,0,.26.26.47.07C195,28.76,195,28.57,195,28.38Z"/><path class="cls-1" d="M196,29.37c0-.09.16-.07.27-.09S196.05,29.35,196,29.37Z"/><path class="cls-1" d="M188.37,30c0-.13.6-.18.47.06A.73.73,0,0,1,188.37,30Z"/><path class="cls-1" d="M189.11,30c0-.1.17-.07.28-.09S189.22,29.94,189.11,30Z"/><path class="cls-1" d="M189.48,29.94s.07-.1.09-.08S189.51,30,189.48,29.94Z"/><path class="cls-1" d="M9.72,37.21c-.07.22-.33-.06-.46-.05,0-.2.34-.22.36,0S9.66,37.21,9.72,37.21Z"/><path class="cls-1" d="M190.05,30.32c0-.08.11-.07.18-.09S190.12,30.3,190.05,30.32Z"/><path class="cls-1" d="M196.62,30.2c0,.18-.39.05-.55.1C196.06,30.08,196.5,30.1,196.62,30.2Z"/><path class="cls-1" d="M9.82,37.44c-.05,0,.07-.11.09-.09S9.85,37.46,9.82,37.44Z"/><path class="cls-1" d="M195,30.72c-.17.3-.88.16-1.2.35-.11,0-.21,0-.18-.15-.29-.05-.27.14-.56.09a2.87,2.87,0,0,1,1.46-.66,5.73,5.73,0,0,0,1.3,0c-.16.22-.69.16-1,.26C194.79,30.67,194.81,30.75,195,30.72Z"/><path class="cls-1" d="M7.81,37.64c0-.07.11-.06.18-.09S7.88,37.62,7.81,37.64Z"/><path class="cls-1" d="M185.07,30.85s.06-.1.09-.08S185.09,30.87,185.07,30.85Z"/><path class="cls-1" d="M191.08,30.68c-.05,0,.06-.1.09-.08S191.1,30.7,191.08,30.68Z"/><path class="cls-1" d="M196.26,30.45a.26.26,0,0,1-.28.16C195.93,30.45,196.11,30.46,196.26,30.45Z"/><path class="cls-1" d="M195,30.72c0-.17.33,0,.46-.09C195.43,30.83,195.09,30.82,195,30.72Z"/><path class="cls-1" d="M188.4,31a.25.25,0,0,1-.27.16A.26.26,0,0,1,188.4,31Z"/><path class="cls-1" d="M190.54,31.24c0,.17-.23.17-.46.17C190.09,31.24,190.31,31.23,190.54,31.24Z"/><path class="cls-1" d="M194.89,31.19c-.06.28-.79,0-.82.34-.29-.1-.27,0-.65,0C193.66,31.23,194.37,31.28,194.89,31.19Z"/><path class="cls-1" d="M189.62,31.5c-.05,0,.07-.1.09-.08S189.65,31.52,189.62,31.5Z"/><path class="cls-1" d="M132.9,33.45l-1.39,0c-.29-.1.33-.08.46-.09s0-.13-.09-.15c0-.22.5,0,.45-.17h.28C132.62,33.28,132.91,33.24,132.9,33.45Z"/><path class="cls-1" d="M133.07,33.14c0-.08.11-.06.19-.08S133.14,33.12,133.07,33.14Z"/><path class="cls-1" d="M133.44,33.13c-.05,0,.07-.1.09-.08S133.47,33.15,133.44,33.13Z"/><path class="cls-1" d="M130.22,33.53c-.12.18-.64,0-.92.1s-.88.16-.83-.21a3,3,0,0,0,1.19-.19C129.59,33.56,130.08,33.39,130.22,33.53Z"/><path class="cls-1" d="M129.75,33.31c0-.08.11-.06.19-.09S129.82,33.29,129.75,33.31Z"/><path class="cls-1" d="M130.41,33.6c.26.06.24-.11.46-.09s.48.08.46-.09c-.2,0-.2-.12-.1-.23-.23.14-.9-.13-1.2.11.2,0,.18.11.19.23S130.39,33.54,130.41,33.6Zm0-.23c0-.06.31-.14.37-.09S130.53,33.51,130.4,33.37Z"/><path class="cls-1" d="M134.09,33.19c-.11,0-.06-.11,0,0Z"/><path class="cls-1" d="M134.09,33.19c.38,0,1-.3,1.11.12a.55.55,0,0,0,.28-.08c.14,0,.06-.2.27-.17v.16c0,.05,0,.09.1.08,0,.17-.46,0-.65.09a10.6,10.6,0,0,1-2.12,0c.09-.17.43.09.74,0A.65.65,0,0,0,134.09,33.19Z"/><path class="cls-1" d="M126.44,33.4c.27,0,.19.25.28.38-.87.09-1,0-1.75.13,0-.48.8-.43,1.19-.27A.4.4,0,0,0,126.44,33.4Z"/><path class="cls-1" d="M127.45,33.37v.32c.38,0,.36-.27.82-.18-.1.1-.07.16.1.15-.06.18-.52,0-.73.1l-.74,0c.15-.16,0-.1,0-.31A1,1,0,0,1,127.45,33.37Z"/><path class="cls-1" d="M124.69,33.53c.16,0,.21.13.19.31h-.28C124.56,33.68,124.66,33.64,124.69,33.53Z"/><path class="cls-1" d="M186.2,31.83c.16.27-.31.06-.27.24-.21,0-.27-.12-.55-.06A1.25,1.25,0,0,1,186.2,31.83Z"/><path class="cls-1" d="M52.6,36.53c-.05,0,.06-.1.09-.08S52.63,36.55,52.6,36.53Z"/><path class="cls-1" d="M63,36a2.43,2.43,0,0,0,.83,0c.05.12-.33.27-.36.09C63.26,36.08,62.89,36.23,63,36Z"/><path class="cls-1" d="M124.42,33.85s.06-.1.09-.08S124.44,33.87,124.42,33.85Z"/><path class="cls-1" d="M183.62,32.22c0-.08.12-.07.19-.08S183.7,32.2,183.62,32.22Z"/><path class="cls-1" d="M184.36,32.12h.28c0,.09-.17.07-.28.09C184,32.26,184,32.07,184.36,32.12Z"/><path class="cls-1" d="M53.06,36.51h.18C53.27,36.72,52.56,36.51,53.06,36.51Z"/><path class="cls-1" d="M64,36c.08,0,.09,0,.1.07s.66,0,.37.07S63.9,36.27,64,36Z"/><path class="cls-1" d="M120.55,34s.06-.1.09-.08S120.58,34.06,120.55,34Z"/><path class="cls-1" d="M55.18,36.56c0-.08.11-.07.18-.09S55.25,36.54,55.18,36.56Z"/><path class="cls-1" d="M56.65,36.49s.06-.11.09-.09S56.67,36.51,56.65,36.49Z"/><path class="cls-1" d="M64.64,36.13s.06-.1.08-.08S64.66,36.15,64.64,36.13Z"/><path class="cls-1" d="M58.94,36.46s.07-.1.09-.08S59,36.48,58.94,36.46Z"/><path class="cls-1" d="M62,36.32s.06-.1.08-.08S62,36.35,62,36.32Z"/><path class="cls-1" d="M62.34,36.31c.06-.18.52-.05.73-.11a4.72,4.72,0,0,0,1.2,0c-.3.29-.92,0-1.56.15C62.55,36.39,62.52,36.28,62.34,36.31Z"/><path class="cls-1" d="M64.82,36.2s.06-.11.09-.09S64.85,36.22,64.82,36.2Z"/><path class="cls-1" d="M65,36.19c0-.08.11-.07.18-.09S65.08,36.17,65,36.19Z"/><path class="cls-1" d="M66.75,36.11c.06-.18.51,0,.73-.11,0,.11-.27,0-.27.17s.51-.1.38.22a.75.75,0,0,0-.55,0C67.06,36.2,67,36.08,66.75,36.11Z"/><path class="cls-1" d="M67.58,36.07c0-.09.16-.07.27-.09S67.68,36.06,67.58,36.07Z"/><path class="cls-1" d="M185.76,32.39s.06-.1.09-.08S185.78,32.41,185.76,32.39Z"/><path class="cls-1" d="M65.37,36.17c.3.08-.08.23-.27.17s-.19-.06-.09-.07l.27,0h.1Z"/><path class="cls-1" d="M68.77,36c.32.12-.1.22-.18.16S68.82,36.08,68.77,36Z"/><path class="cls-1" d="M66,36.3s.06-.1.09-.08S66.05,36.32,66,36.3Z"/><path class="cls-1" d="M69.24,36.16s.06-.11.09-.09S69.26,36.18,69.24,36.16Z"/><path class="cls-1" d="M143.8,33.7c0-.09.17-.07.28-.08h.37l.64,0c0,.09-.16.07-.27.08h-.37Z"/><path class="cls-1" d="M145.56,33.65c0-.07.11-.06.18-.08S145.63,33.63,145.56,33.65Z"/><path class="cls-1" d="M148.6,33.57h.56c0,.1-.23.07-.37.08S148.2,33.58,148.6,33.57Z"/><path class="cls-1" d="M163.85,33.31c-.66,0-.79,0-1.48,0,0-.17.47-.16.74-.17S163.88,33.06,163.85,33.31Z"/><path class="cls-1" d="M15.56,39.26c.11,0,.09-.13.08-.24.21,0,.43,0,.38.29a.72.72,0,0,1-.46,0Z"/><path class="cls-1" d="M69,36.32c0-.07.11-.06.18-.08S69,36.3,69,36.32Z"/><path class="cls-1" d="M69.43,36.3c0-.07.11-.06.18-.08S69.5,36.28,69.43,36.3Z"/><path class="cls-1" d="M73.93,36.12c0-.08.11-.07.18-.08h.27l.46,0c0,.16-.32,0-.45.09Z"/><path class="cls-1" d="M75,36.08c0-.1.16-.08.27-.09h.28c0,.09-.17.07-.28.09Z"/><path class="cls-1" d="M76.13,36c0-.07.11-.06.18-.08h.28c0,.07-.11.06-.18.08Z"/><path class="cls-1" d="M138.54,34c0-.09.1,0,.1,0S138.55,34,138.54,34Z"/><path class="cls-1" d="M139.56,34c0-.07.11-.06.18-.08S139.63,34,139.56,34Z"/><path class="cls-1" d="M185.21,32.72c0-.08.11-.07.19-.08S185.28,32.7,185.21,32.72Z"/><path class="cls-1" d="M185.58,32.71c0-.09.17-.07.28-.09h.27c0,.09-.16.07-.27.09Z"/><path class="cls-1" d="M134.12,34.2c-.05,0,.06-.1.09-.08S134.14,34.22,134.12,34.2Z"/><path class="cls-1" d="M15.56,39.26c-.11,0-.06-.11,0,0Z"/><path class="cls-1" d="M79.26,36.06c-.05,0,.06-.1.09-.08S79.29,36.08,79.26,36.06Z"/><path class="cls-1" d="M80.36,35.94c0,.2-.33.19-.46.09-.19.07-.58-.05-.18-.07Z"/><path class="cls-1" d="M128.13,34.45c0-.08.11-.07.18-.09S128.2,34.43,128.13,34.45Z"/><path class="cls-1" d="M128.49,34.44c0-.17.33,0,.46-.1h.56c0,.07-.12.06-.19.08h-.27Z"/><path class="cls-1" d="M82.11,36c0-.07.11-.06.18-.08S82.18,36,82.11,36Z"/><path class="cls-1" d="M88.45,35.79c0-.19.31,0,.37,0l.55,0c.23,0,.16.09,0,.07C89.06,35.83,88.63,35.92,88.45,35.79Z"/><path class="cls-1" d="M122.78,34.68c0-.08.11-.07.18-.09h.65c0,.1-.23.07-.37.08Z"/><path class="cls-1" d="M80.74,36.16s.06-.11.09-.09S80.76,36.18,80.74,36.16Z"/><path class="cls-1" d="M115,34.91c-.06.28-.67.13-1,.19-.16,0-.19-.07-.09-.08S114.59,35,115,34.91Z"/><path class="cls-1" d="M117.62,34.83l1.84-.06c0,.11-.22.07-.36.09s-.17,0-.28,0-.19.1-.36.09S117.59,35.14,117.62,34.83Z"/><path class="cls-1" d="M120.66,34.82c0-.08.12-.07.19-.09S120.74,34.8,120.66,34.82Z"/><path class="cls-1" d="M121.13,34.8c0-.07.11-.06.18-.08S121.2,34.78,121.13,34.8Z"/><path class="cls-1" d="M125.18,34.69c0-.1.17-.07.28-.09S125.29,34.67,125.18,34.69Z"/><path class="cls-1" d="M102.53,35.38c-.11.22-.56.16-.92.19s-.48,0-.73.1-.28-.13-.56-.06a9.15,9.15,0,0,1-1.74.14c.18-.3.51,0,.82-.19.22.15.51-.1.92,0C101.15,35.56,101.77,35.41,102.53,35.38Z"/><path class="cls-1" d="M91.22,35.92s.06-.1.09-.08S91.25,35.94,91.22,35.92Z"/><path class="cls-1" d="M92.79,36c0-.09.1-.12.18-.16l1,0h.46c.13-.05.48.07.45-.1a3.88,3.88,0,0,0,1.2,0c-.23.29-.7.19-1.1.19s-.45,0-.82.11C93.59,36,93.32,36.07,92.79,36Z"/><path class="cls-1" d="M91,36.09a.71.71,0,0,1-.46.09c-.1,0-.22-.07-.28-.06s-.1.08-.09.08-.11-.08-.18-.07-.21.06-.37.09c-.33,0-.72,0-1.19,0,0-.17.32,0,.46-.09s.28-.16.46,0c.17,0,.3-.06.36-.17.28.15.87,0,1.29,0Z"/><path class="cls-1" d="M96.28,35.9c0-.26.41-.16.64-.18l.83,0,.46,0c.16,0,.19.07.09.07l-.83,0C97,35.88,96.91,35.81,96.28,35.9Z"/><path class="cls-1" d="M84.52,36.33s.06-.11.09-.09S84.54,36.35,84.52,36.33Z"/><path class="cls-1" d="M86.35,36.26c0-.08.11-.07.19-.09h.27c0,.08-.11.07-.18.09Z"/><path class="cls-1" d="M87.55,36.14l.64,0c.08.29-.43.12-.64.18Z"/><path class="cls-1" d="M91,36.09c.13,0,.15-.1.27,0S91,36.19,91,36.09Z"/><path class="cls-1" d="M91.87,36.05a.88.88,0,0,1-.55.1c-.1-.28.36-.12.55-.17Z"/><path class="cls-1" d="M91.87,36.05c.13,0,.47-.1.46.06C92.2,36.08,91.86,36.22,91.87,36.05Z"/><path class="cls-1" d="M92.79,36c-.2.25-.59-.07,0,0Z"/><path class="cls-1" d="M15.87,39.86c0-.17.39,0,.55-.11l.55,0c.26.05.57.06.83.11,0,.19-.31,0-.36,0A10.34,10.34,0,0,1,15.87,39.86Z"/><path class="cls-1" d="M86.77,37.49s.06-.1.09-.08S86.79,37.51,86.77,37.49Z"/><path class="cls-1" d="M93.57,37.24c0-.08.11-.06.18-.08S93.64,37.22,93.57,37.24Z"/></svg>