<svg id="elements" preserveAspectRatio="none" xmlns="http://www.w3.org/2000/svg" viewBox="0 0 1400 82"><defs><style>.cls-1{fill:#fff;}</style></defs><title>rip-home-landing</title><path class="cls-1" d="M0,0V25.35c5.21,0,10.84.16,17.09.4,1.11,0,6.69-.69,7.29-.29.23.15-.41,2-.13,2,4.42.42,13.68,1.29,18.1,1.27C49.06,28.7,53,26.49,60.69,26c4.51-.29,7.61,3.88,14.57-.59l40.08-1.62c3.13-.5,3.39.64,3.52,1.85.62,3.18,9.48.63,14.45,1.42,4,.63,1.2.63,3.52,1.86a90.05,90.05,0,0,0,21.36,7.14c2.57-2.79,8-4,14.83-4.61-2.27-5.34,17.09.74,14.82-4.6,2.77,2.37,8.38-.18,14.57-.59,5.54-.36,15,0,21.87-.88-.62.08,2.14-1.87,3.77-2.15,5.55-1,14,.84,14.69-2.6,5-2.21,13.68-2.44,14.95-6.6,10.7-1,10.92,4.08,21.62,3.12,3.88-3.47,15.61-2.8,22.11-4.89,15,3.69,33.56,5.33,54.15,5.81-.85,2.42,5.4.78,7.16,1.71.44.23-.65,1.86-.12,2,1.31.36,6.41-.87,7.28-.29.47.3-.69,1.78-.12,2,1.3.5,1.62,1.23,3.52,1.86,3.82,1.28,6.21,2.72,10.68,3.57,21.7-3.32,35.37,5.11,54.15,5.81,11.23.42,23.7-2.81,36.56-3.48,3.24-.17,8,1.79,14.45,1.42,8.38-.5,12.07-3.67,25.64-3-.69,0,1.47,3.28,3.51,1.86.2-.14-.07-2,.13-2,3.33-.34,7.71.22,10.93-.44,1.2-.25,5-2.21,3.77-2.15,8.14-.42,17.24,3,32.67.67,1.79-3,3.18.08,7.28-.29,5.42-5.17,12.78-4.05,22-2.89,19.46,2,15.75-8.26,33.17-7.34,19.45-.09,30.19-4.77,44.1-7.79a10.83,10.83,0,0,1,1.5-.9L713.39,7l8.85-.19,14.89,2.56,24.51-.65a9.1,9.1,0,0,0,1.52.86c1.3.32,6.43-.85,7.29-.29,2.67,1.76,2.45,2.92,7,3.72,3.1.53,7.89-1.05,10.93-.45,1.24.25.48,1.56,3.52,1.86,5.45.54,8.41,1.9,14.45,1.42,3.35-.27,5.65-2.56,11.06-2.45a96.76,96.76,0,0,1,14.45,1.42c2.79.41,7,.8,10.8,1.56,1.29.26,6.48-.83,7.29-.3,1.61,1.07,1.68,2.79,3.39,3.87,3.85,2.43,4.12,3.42,10.56,5.57,2.79.93,8.58,1.89,10.55,5.58,1,2.67,9,1.29,14.45,1.41.84-2.3,3.73-1.26,3.64-.15,3.55-.08,2.68,2.34,3.4,3.87,6.9-.5,2.94-6.73,11.31-6.46,2.93.9,12.22-1.83,14.57-.59,1.49.79,3.2,2.41,7.16,1.71,3.24-.57,6.33-1.61,11.06-2.45,5.52-1,4.25-4.21,14.82-4.6,2.56,1.76,6.44,2.77,10.68,3.57-.15,3.28,6.54,3.22,10.56,5.57,1,.62-1.45,3.51-.25,4s6.09-.92,7.29-.29c.51.27-.71,1.79-.13,2,7.79,2.81,16,2.79,25.13,5-.52,5.15,6.13,1.79,14.32,3.42,1.43.28.13,1.65,3.52,1.86a41.34,41.34,0,0,0,7.29-.3c1.46-.25,4.83-2.19,3.77-2.15,3-.12,3.44,2.08,7.16,1.71,4.49-.45,10.5-4,22-2.89,13.34.11,9.87,9.83,24.88,9,8.39-.47,21-5,29.39-5.2,4.22-.1,6.5-.13,7.17,1.72,2.3,4.34,16.68,6,21.61,3.12,1-2.09,9.59-2.93,14.7-2.59,5.54.36,4.53-.09,7.16,1.71,1.2.81-.2,2.53,3.52,1.86l25.51-1c6.67,1,17.37.85,25.25,3,1.89.51-.6,1.91,3.52,1.86,1.21,0,2.43-.13,3.64-.15,9.22,3.76,35.54-2.25,35.94,6.55q4.37,4.28,18,3.27c-3.58,6.56,5.21,6,10.43,7.58,3.2-2.22,8.53-1.78,14.7-2.59,5-.66,10.41.39,11.05-2.45,4.69,2.66,20.47,2,25.51-1-3-5.36,14.31,0,18.34-2.75a18.09,18.09,0,0,0,.13-2,44.38,44.38,0,0,1,7.16,1.71c4.07,1.23,9.7,2.42,6.79,7.73.39,3.14,3.78-.15,3.64-.15,5.67,0,10.28,3.53,15.77,6.2V0Z"/></svg>
